M48
;Layer_Color=9474304
;FILE_FORMAT=2:4
INCH,TZ
;TYPE=PLATED
T1F00S00C0.0157
T2F00S00C0.0276
T3F00S00C0.0354
T4F00S00C0.0906
T5F00S00C0.1102
;TYPE=NON_PLATED
T6F00S00C0.0433
T7F00S00C0.0630
%
T01
X61295Y7295
X59505Y9125
X65605Y10415
X56605Y8135
X56925Y7515
X54985Y7755
Y5125
X55032Y4255
X54705Y2465
X53665
X53315Y5855
X51165Y6405
X51565Y7875
X48845Y8235
X49445Y9565
X45355Y9085
X45865Y8095
X45165Y6515
X45285Y5295
X45125Y2705
X43945Y3405
X48025Y4755
X51050Y4205
Y3605
X50785Y1065
X48337Y981
X47850Y1332
X47295Y625
X48845Y1755
X56925Y3050
X57645Y3325
X45535Y11035
X43580Y10750
X40905Y9750
X39425Y6715
X40135Y5585
X40460Y4700
X39285Y4005
X39265Y2295
X35025Y7255
X34645Y7750
X35025Y9200
X32945Y6305
X28755Y6755
X28665Y5515
X28715Y3750
X28355Y515
X32045Y11255
X26045Y11205
X25960Y5750
X25150Y344
X19995Y3255
X16935Y4255
Y12185
Y13205
X17245Y15495
X17055Y18195
X19295Y19655
X24555Y19045
X25105Y18537
X24045Y21425
X23695Y26505
X22415Y16778
X22655Y15545
X22035Y13845
X31550Y11750
X32845Y11745
X34195Y14155
X33155Y15205
X33270Y16750
X35015Y17635
X36655Y17994
X36555Y18995
X37000Y19440
X38000Y19310
X37845Y18785
X38955Y20005
X39665Y21105
X41155Y21705
X41555Y19315
X41565Y15215
X42745Y14905
X37535Y12750
X34335Y20795
X35015Y21845
X35455Y23755
X35145Y24555
X33875Y24195
Y25675
X39245Y26015
X42135Y23995
X43517Y25250
X44105Y25595
X44025Y26955
X45835Y26665
X45336Y25305
X44545Y24345
X43260Y21180
X43355Y19372
X43065Y18975
X44275Y18955
X44965Y19255
X44395Y17655
X47000Y16700
X46205Y15635
X47845Y15502
Y14375
X46915Y14005
X47155Y13155
X46745Y12255
X47655Y11585
X43495Y13405
X50655Y14685
X52135Y16635
X53735Y16715
X51255Y18962
X49855Y18285
X48945Y18225
X45995Y21195
X51605Y23965
X52645Y23585
X53725Y25945
X55040Y25705
X56705Y25305
X56525Y24245
X56025Y24195
X56745Y23585
X58415Y25085
X57465Y19745
X55081Y21671
X54820Y22222
X50215Y26065
X62385Y19455
X61295Y17555
X60455Y17235
X60395Y16205
X61802Y16673
X63205Y16255
X64955Y17435
X64985Y18795
X63305Y27315
X59505Y27205
X59195Y28255
X58685Y30455
X60985Y30255
X59915Y32075
X59765Y33175
X64455Y30985
X65465Y40295
X60205Y41315
X60645Y42255
X58105Y33865
X55265Y35545
X49905Y35525
X50155Y37655
X47711Y37949
X48375Y39435
X44595Y40355
X42835Y40875
X44259Y36475
X44915Y35655
X45175Y34795
X43925
X43825Y32705
X44075Y31605
X43825Y30745
X45335Y29505
X45965Y28495
X45865Y28025
Y27405
X43195Y27295
X48545Y29025
X50285Y28355
X50215Y27205
X51185Y29585
Y31065
X52645Y32055
X52995Y29555
X50285Y32725
X49255Y33225
X46555Y35175
X45555Y32125
X40205Y31215
X40085Y30305
X40955Y30435
X41515Y28025
X38305Y29635
X38845Y32125
X39155Y32435
X37875
X39555Y33695
X38685Y35075
Y36945
X41245Y35515
Y34795
X35055Y33755
X34735Y36135
X34583Y41297
X33825Y41275
X33115Y41795
X31625Y41465
X31935Y40675
X32355Y40455
X30705Y40255
X28705Y39255
X28995Y30895
X32665Y31205
X33825Y30795
X34735Y30250
X34135Y28965
X34455Y28245
X32985Y28750
X35445Y27245
X35295Y41885
X25295Y32295
X27075Y30065
X12035Y37685
X9205Y33794
X11255Y28545
X7485Y40965
X17055Y43145
X23795Y43195
X28755Y44355
X29985Y45585
X32635Y44175
X33585Y43595
X64455Y44025
X63955Y44575
T02
X58500Y1750
Y2750
Y3750
Y4750
Y5750
Y6750
Y7750
Y8750
Y9750
Y10750
X64500
Y9750
Y8750
Y7750
Y6750
Y5750
Y4750
Y3750
Y2750
Y1750
X55750
Y2750
Y3750
Y4750
Y5750
Y6750
Y7750
Y8750
Y9750
Y10750
X56750Y11000
Y9000
X52750Y8750
Y7750
Y6750
Y5750
Y4750
Y3750
Y2750
Y1750
X50000
Y2750
Y3750
Y4750
Y5750
Y6750
Y7750
Y8750
Y9750
Y10750
X51000
X52750
Y9750
X51000Y8750
X47000
Y7750
Y6750
Y5750
Y4750
Y3750
Y2750
Y1750
X44500
Y2750
Y3750
Y4750
Y5750
Y6750
Y7750
Y8750
Y9750
Y10750
X47000
Y9750
X38500
Y8750
Y7750
Y6750
Y5750
Y4750
Y3750
Y2750
Y1750
X36500
Y2750
Y3750
Y4750
Y5750
Y6750
Y7750
Y8750
Y9750
Y10750
X37500
X38500
X37500Y8750
X33500
Y7750
Y6750
Y5750
Y4750
Y3750
Y2750
Y1750
X30500
Y2750
Y3750
Y4750
Y5750
Y6750
Y7750
Y8750
Y9750
Y10750
X33500
Y9750
X24500
Y8750
Y7750
Y6750
Y5750
Y4750
Y3750
Y2750
Y1750
X21000Y1000
X18500Y1750
Y2750
Y3750
Y4750
Y5750
Y6750
Y7750
Y8750
Y9750
Y10750
X19750
X21000Y11000
Y9000
Y8000
Y6000
Y5000
X19750Y4750
Y8750
X24500Y10750
X12500
Y9750
Y8750
Y7750
Y6750
Y5750
Y4750
Y3750
Y2750
Y1750
X7500Y1500
Y2500
X9750Y6250
X10750
X11000Y8500
X9750Y9500
X6000Y9250
X4750
Y10500
X750
Y9250
X6000Y13250
Y14250
Y15250
Y19250
X7000
Y20500
X6000
Y21750
X7000
Y23250
X6000
Y24500
X7000
Y25750
X6000
X4750Y26500
X8750
X10000Y20250
X11000
Y17500
Y13500
Y12500
X9750Y13500
X4750Y18500
X750
Y26500
X15500Y26750
Y25750
Y24750
X18500
Y25750
Y26750
X24250
Y25750
Y24750
X21000Y21250
X19750Y20250
X18500Y19750
Y18750
Y17750
Y16750
Y15750
Y14750
Y13750
Y12750
Y11750
X21000Y12000
X24500Y11750
Y12750
Y13750
Y14750
Y15750
Y16750
X21000Y17250
Y16000
X19750Y16250
Y14750
X18500Y20750
X12500
Y19750
Y18750
Y17750
Y16750
Y15750
Y14750
Y13750
Y12750
Y11750
X30500
Y12750
Y13750
Y14750
Y15750
Y16750
X31500
Y14750
X38500
Y13750
Y12750
Y11750
Y15750
Y16750
X38000Y22250
X37000
Y23250
Y24250
Y25250
Y26250
X36000
Y25250
Y24250
Y23250
X38000
X39000
Y22250
X40000
Y23250
X41000
Y22250
X42000
Y23250
X30250Y24750
Y25750
Y26750
X43000Y23250
Y22250
X44000
Y23250
X45000
Y22250
X46000
Y23250
X47000
Y22250
X48000Y23250
Y24250
X47000
Y25250
X48000
Y26250
X47000
X56250Y25750
Y24750
Y26750
X45750Y16750
X44500
Y15750
Y14750
Y13750
Y12750
Y11750
X45750Y14750
X58500
Y13750
Y12750
Y11750
X64500
Y12750
Y13750
Y14750
X65750
Y12750
X64500Y25750
X62250
Y24750
X63250
X62250Y26750
Y27750
Y28750
Y29750
Y30750
Y31750
Y32750
Y33750
Y34750
Y35750
Y36750
Y37750
Y38750
Y39750
Y40750
Y41750
Y42750
X63500Y34750
Y32750
X64500Y29750
X63250Y28750
X56250
Y27750
Y29750
Y30750
Y31750
Y32750
Y33750
Y34750
Y35750
Y36750
Y37750
Y38750
Y39750
Y40750
Y41750
Y42750
X55000Y38750
Y34750
X48000Y33250
Y32250
Y31250
Y30250
Y29250
Y28250
X47000
Y29250
Y30250
Y31250
Y32250
Y33250
Y34250
X46000
Y33250
X45000
Y34250
X44000
Y33250
X43000
Y34250
X47000Y27250
X48000
X37000
Y28250
Y29250
Y30250
Y31250
Y32250
Y33250
X38000
X39000
X40000
X41000
X42000
Y34250
X41000
X40000
X39000
X38000
X37000
X36000Y33250
Y32250
Y31250
Y30250
Y29250
Y28250
Y27250
X30250Y27750
Y28750
Y29750
Y30750
Y31750
Y32750
Y33750
Y34750
Y35750
Y36750
Y37750
Y38750
Y39750
Y40750
Y41750
Y42750
X24250
Y41750
Y40750
Y39750
Y38750
Y37750
Y36750
Y35750
Y34750
Y33750
Y32750
Y31750
Y30750
Y29750
Y28750
Y27750
X23000Y31500
Y33500
Y34750
Y35750
X16250Y36250
Y35250
X15000
X13750Y37750
X16250
X15000Y39250
Y40750
X13750Y41750
X16250
X15500Y30750
Y29750
Y28750
Y27750
X13750Y28000
Y30000
X12000
Y29000
X18500Y28750
Y27750
Y29750
Y30750
X9750
X8750
Y28500
X9750Y27500
X10250Y33000
X8250
X5750Y33500
Y31500
Y29500
X4750Y30500
X3500Y32250
X1750
Y33500
Y28250
X3500
X15000Y44750
X24250Y43750
X30250
X56250
X62250
T03
X1750Y5750
X3750
Y6750
Y7750
X1750
X3510Y13180
Y13990
Y15010
Y15820
X4490
Y13180
Y21160
X3510
Y21990
Y23010
Y23840
X4490
X4500Y23000
Y22150
X43250Y37250
Y38250
X44250
Y37250
X42250
X41250
X40250
Y38250
X41250
X42250
X20750Y37750
Y36750
Y35750
X19750
Y36750
Y37750
Y38750
X20750
Y39750
X19750
T04
X2330Y11840
X2010Y14500
X2330Y17160
Y19850
X2010Y22500
X2330Y25150
T05
X4050Y750
X5250Y2700
X2750Y2750
T06
X10234Y45278
T07
X10234Y37010
M30
