%FSLAX24Y24*%
%MOIN*%
G70*
G01*
G75*
G04 Layer_Physical_Order=2*
G04 Layer_Color=16711680*
%ADD10R,0.0591X0.0276*%
%ADD11R,0.1102X0.0591*%
%ADD12R,0.0591X0.0394*%
%ADD13C,0.0100*%
%ADD14C,0.0433*%
%ADD15C,0.0630*%
%ADD16R,0.0580X0.0580*%
%ADD17C,0.0580*%
%ADD18C,0.0600*%
%ADD19R,0.0600X0.0600*%
%ADD20C,0.1102*%
%ADD21C,0.1299*%
%ADD22R,0.0600X0.0600*%
%ADD23C,0.0315*%
%ADD24C,0.1120*%
D13*
X41255Y14885D02*
X41300Y14840D01*
X41515Y14625D01*
X41071Y15205D02*
X41255Y15021D01*
X41368Y14907D01*
X41255Y15021D02*
Y15515D01*
Y14885D02*
Y15021D01*
X41300Y14840D02*
X41368Y14907D01*
X61775Y38575D02*
X62250D01*
X42835Y40875D02*
X56125D01*
X35615D02*
X42835D01*
X23795Y30515D02*
Y31295D01*
X24250Y31750D01*
X19755Y27255D02*
X23795Y31295D01*
X22495Y15545D02*
X22655D01*
X22575Y15625D02*
X23925Y16975D01*
X22495Y15545D02*
X22575Y15625D01*
X22235Y15285D02*
X22495Y15545D01*
X16935Y13205D02*
X17955D01*
X18500Y13750D01*
X16935Y12185D02*
X17955Y13205D01*
X50450Y4205D02*
X51050D01*
X46700D02*
X50450D01*
X51050Y3605D01*
X44075Y31795D02*
X47455D01*
X56025Y24245D02*
X56525D01*
X52087D02*
X56025D01*
X52036Y24195D02*
X56025D01*
X51835D02*
X52036D01*
X52087Y24245D01*
X51706Y23864D02*
X52036Y24195D01*
X47804Y19962D02*
X51706Y23864D01*
X31840Y16750D02*
X35645Y20555D01*
X31840Y16750D02*
X33270D01*
X31500D02*
X31840D01*
X30500D02*
X31500D01*
X56255Y4255D02*
X56750Y4750D01*
X55750Y3750D02*
X56255Y4255D01*
X58005D01*
X55032D02*
X56255D01*
X56925Y3050D02*
X57625Y3750D01*
X56625Y2750D02*
X56925Y3050D01*
X24500Y5750D02*
X25960D01*
X58990Y34750D02*
X62250D01*
X58105Y33865D02*
X58990Y34750D01*
X49125Y9245D02*
X49445Y9565D01*
X46675Y9245D02*
X49125D01*
X46170Y9750D02*
X46675Y9245D01*
X44500Y9750D02*
X46170D01*
X33500Y5750D02*
X35590D01*
X36045Y6205D01*
X37409D01*
X38319Y5295D01*
X39845D01*
X40135Y5585D01*
X40905Y9750D02*
X44500D01*
X24500Y6750D02*
X28150D01*
X28605Y6295D01*
X32935D01*
X32945Y6305D01*
X44500Y10750D02*
X45402Y11652D01*
X46943D01*
X51418Y16127D01*
X52467D01*
X53468Y17129D01*
X59914D01*
X60370Y16673D01*
X61802D01*
X31150Y6750D02*
X33500D01*
X30645Y7255D02*
X31150Y6750D01*
X24995Y7255D02*
X30645D01*
X24500Y7750D02*
X24995Y7255D01*
X62250Y36750D02*
X62937D01*
X65150Y34537D01*
Y28910D02*
Y34537D01*
X64535Y28295D02*
X65150Y28910D01*
X61075Y28295D02*
X64535D01*
X56665Y23885D02*
X61075Y28295D01*
X55712Y23885D02*
X56665D01*
X52120Y23935D02*
X55712Y23885D01*
X47947Y19762D02*
X52120Y23935D01*
X43745Y19762D02*
X47947D01*
X43355Y19372D02*
X43745Y19762D01*
X42013Y14237D02*
X44500Y11750D01*
X34868Y14237D02*
X42013D01*
X34572Y14533D02*
X34868Y14237D01*
X33848Y14533D02*
X34572D01*
X33552Y14237D02*
X33848Y14533D01*
X25892Y14237D02*
X33552D01*
X24955Y13300D02*
X25892Y14237D01*
X24315Y13300D02*
X24955D01*
X23850Y12835D02*
X24315Y13300D01*
X23850Y9400D02*
Y12835D01*
Y9400D02*
X24500Y8750D01*
X31600Y7750D02*
X33500D01*
X31095Y8255D02*
X31600Y7750D01*
X24995Y8255D02*
X31095D01*
X24500Y8750D02*
X24995Y8255D01*
X33155Y15205D02*
X41071D01*
X41300Y14840D02*
X41515Y14625D01*
X42275D02*
X43495Y13405D01*
X62250Y37750D02*
X65355Y34645D01*
Y28535D02*
Y34645D01*
X63120Y26300D02*
X65355Y28535D01*
X61213Y26300D02*
X63120D01*
X56018Y21105D02*
X61213Y26300D01*
X54094Y21105D02*
X56018D01*
X50824Y17835D02*
X54094Y21105D01*
X47520Y17835D02*
X50824D01*
X45985Y16300D02*
X47520Y17835D01*
X42040Y16300D02*
X45985D01*
X41255Y15515D02*
X42040Y16300D01*
X41515Y14625D02*
X42275D01*
X33045Y9205D02*
X33500Y8750D01*
X25045Y9205D02*
X33045D01*
X24500Y9750D02*
X25045Y9205D01*
X62250Y38575D02*
Y38750D01*
X57495Y34295D02*
X61775Y38575D01*
X55815Y34295D02*
X57495D01*
X55715Y34395D02*
X55815Y34295D01*
X55715Y34395D02*
Y35105D01*
X55615Y35205D02*
X55715Y35105D01*
X48685Y35205D02*
X55615D01*
X47255Y33775D02*
X48685Y35205D01*
X46865Y33775D02*
X47255D01*
X46445Y33355D02*
X46865Y33775D01*
X46445Y32915D02*
Y33355D01*
X46335Y32805D02*
X46445Y32915D01*
X44835Y32805D02*
X46335D01*
X44425Y32395D02*
X44835Y32805D01*
X43637Y32395D02*
X44425D01*
X43517Y32515D02*
X43637Y32395D01*
X43517Y32515D02*
Y33492D01*
X43315Y33695D02*
X43517Y33492D01*
X39555Y33695D02*
X43315D01*
X24500Y10750D02*
X25005Y10245D01*
X32500D01*
X32995Y9750D01*
X33500D01*
X37955Y13205D02*
X38500Y13750D01*
X25645Y13205D02*
X37955D01*
X24740Y12300D02*
X25645Y13205D01*
X24340Y12300D02*
X24740D01*
X24050Y12010D02*
X24340Y12300D01*
X24050Y11200D02*
Y12010D01*
Y11200D02*
X24500Y10750D01*
X59795Y37295D02*
X62250Y39750D01*
X49505Y37295D02*
X59795D01*
X46955Y39845D02*
X49505Y37295D01*
X35722Y39845D02*
X46955D01*
X35132Y39255D02*
X35722Y39845D01*
X28705Y39255D02*
X35132D01*
X59636Y40750D02*
X62250D01*
X59181Y41205D02*
X59636Y40750D01*
X35527Y41205D02*
X59181D01*
X34889Y40567D02*
X35527Y41205D01*
X34015Y40567D02*
X34889D01*
X33420Y41162D02*
X34015Y40567D01*
X31945Y41162D02*
X33420D01*
X31037Y40255D02*
X31945Y41162D01*
X30705Y40255D02*
X31037D01*
X38195Y12055D02*
X38500Y11750D01*
X32315Y12055D02*
X38195D01*
X31465Y11205D02*
X32315Y12055D01*
X26045Y11205D02*
X31465D01*
X45699Y12255D02*
X46745D01*
X44739Y11295D02*
X45699Y12255D01*
X44165Y11295D02*
X44739D01*
X43710Y11750D02*
X44165Y11295D01*
X38500Y11750D02*
X43710D01*
X64985Y18795D02*
X65265Y18515D01*
Y15865D02*
Y18515D01*
X65097Y15697D02*
X65265Y15865D01*
X52587Y15697D02*
X65097D01*
X48474Y11585D02*
X52587Y15697D01*
X47655Y11585D02*
X48474D01*
X30500Y11750D02*
X31550D01*
X32045Y11255D02*
X37995D01*
X38500Y10750D01*
X60795Y44205D02*
X62250Y42750D01*
X35525Y44205D02*
X60795D01*
X33115Y41795D02*
X35525Y44205D01*
X32960Y26750D02*
X34455Y28245D01*
X30250Y26750D02*
X32960D01*
X39425Y6715D02*
X43640D01*
X44153Y6202D01*
X46452D01*
X47000Y6750D01*
X30500Y10750D02*
X32595D01*
X33045Y10300D01*
X37950D01*
X38500Y9750D01*
X38165Y8750D02*
X38500D01*
X37715Y9200D02*
X38165Y8750D01*
X35025Y9200D02*
X37715D01*
X30995Y7255D02*
X35025D01*
X30500Y7750D02*
X30995Y7255D01*
X30250Y28750D02*
X32985D01*
X55555Y43055D02*
X56250Y43750D01*
X31625Y41465D02*
X33515D01*
X35105Y43055D01*
X55555D01*
X25150Y344D02*
X25291Y203D01*
X46873D01*
X47295Y625D01*
X30250Y30750D02*
X30525Y31025D01*
X32485D01*
X32665Y31205D01*
X34583Y41297D02*
X34822Y41535D01*
X56035D01*
X56250Y41750D01*
X30500Y12750D02*
X37535D01*
X45170Y2750D02*
X47000D01*
X45125Y2705D02*
X45170Y2750D01*
X39885Y3405D02*
X43945D01*
X39285Y4005D02*
X39885Y3405D01*
X42835Y40875D02*
X56125D01*
X56250Y40750D01*
X31935Y40675D02*
X32025D01*
X32235Y40885D01*
X32415D01*
X32942Y40357D01*
X35097D01*
X35615Y40875D01*
X41000Y33250D02*
X42255Y31995D01*
X45425D01*
X45555Y32125D01*
X37945Y26955D02*
X44025D01*
X37205Y27695D02*
X37945Y26955D01*
X34473Y27695D02*
X37205D01*
X33073Y26295D02*
X34473Y27695D01*
X25705Y26295D02*
X33073D01*
X24250Y27750D02*
X25705Y26295D01*
X44626Y26015D02*
X45336Y25305D01*
X39245Y26015D02*
X44626D01*
X37875Y32435D02*
X39155D01*
X33875Y25675D02*
X35445Y27245D01*
X24805Y24195D02*
X33875D01*
X24250Y24750D02*
X24805Y24195D01*
X24250Y30750D02*
X27640D01*
X29095Y29295D01*
X35035D01*
X35435Y29695D01*
X36285D01*
X36505Y29915D01*
Y30485D01*
X36715Y30695D01*
X37295D01*
X37368Y30622D01*
X40325D01*
X40432Y30515D01*
Y30080D02*
Y30515D01*
Y30080D02*
X41709Y28802D01*
X46272D01*
X46472Y28602D01*
X46648D01*
X47000Y28250D01*
X18500Y2750D02*
X21550D01*
X23400Y900D01*
X46471D01*
X46753Y1181D01*
X47699D01*
X47850Y1332D01*
X39000Y34250D02*
Y35215D01*
X38833Y35382D02*
X39000Y35215D01*
X32107Y35382D02*
X38833D01*
X31195Y36295D02*
X32107Y35382D01*
X26325Y36295D02*
X31195D01*
X25325Y35295D02*
X26325Y36295D01*
X22315Y35295D02*
X25325D01*
X21820Y35790D02*
X22315Y35295D01*
X21820Y35790D02*
Y36395D01*
X21015Y37200D02*
X21820Y36395D01*
X12611Y37200D02*
X21015D01*
X9205Y33794D02*
X12611Y37200D01*
X7000Y21750D02*
X19864D01*
X20814Y20800D01*
X25365D01*
X25670Y21105D01*
X39665D01*
X38555Y33695D02*
X39000Y33250D01*
X38555Y33695D02*
Y34945D01*
X38685Y35075D01*
X37430Y38200D02*
X38685Y36945D01*
X28700Y38200D02*
X37430D01*
X28185Y38715D02*
X28700Y38200D01*
X28185Y38715D02*
Y41275D01*
X29145Y42235D01*
X30425D01*
X30705Y42515D01*
Y43015D01*
X30515Y43205D02*
X30705Y43015D01*
X25915Y43205D02*
X30515D01*
X24955Y42245D02*
X25915Y43205D01*
X23455Y42245D02*
X24955D01*
X20300Y45400D02*
X23455Y42245D01*
X11920Y45400D02*
X20300D01*
X7485Y40965D02*
X11920Y45400D01*
X11255Y28545D02*
X14605D01*
X14895Y28255D01*
X16905D01*
X17850Y29200D01*
X19420D01*
X23470Y33250D01*
X36000D01*
X41552Y28495D02*
X45965D01*
X41352Y28695D02*
X41552Y28495D01*
X34815Y28695D02*
X41352D01*
X34141Y28623D02*
X34815Y28695D01*
X32814Y27295D02*
X34141Y28623D01*
X28830Y27295D02*
X32814D01*
X25870Y30255D02*
X28830Y27295D01*
X24055Y30255D02*
X25870D01*
X23795Y30515D02*
X24055Y30255D01*
X23795Y31295D02*
X24250Y31750D01*
X17005Y27255D02*
X19755D01*
X15500Y25750D02*
X17005Y27255D01*
X21443Y17750D02*
X22415Y16778D01*
X18500Y17750D02*
X21443D01*
X26970Y42750D02*
X30250D01*
X25515Y41295D02*
X26970Y42750D01*
X18905Y41295D02*
X25515D01*
X17055Y43145D02*
X18905Y41295D01*
X17055Y18195D02*
X18500Y16750D01*
X17245Y15495D02*
X18500Y16750D01*
X24500Y3750D02*
X24850Y3400D01*
X25040D01*
X25185Y3255D01*
X38005D01*
X38500Y3750D01*
X23925Y16975D02*
Y17357D01*
X25105Y18537D01*
X30250Y41750D02*
X32095Y43595D01*
X33585D01*
X35295Y41885D02*
X35615Y42205D01*
X59315D01*
X60205Y41315D01*
X59340Y32750D02*
X59765Y33175D01*
X56250Y32750D02*
X59340D01*
X22235Y15285D02*
X22495Y15545D01*
X18965Y15285D02*
X22235D01*
X18500Y15750D02*
X18965Y15285D01*
X23805Y18295D02*
X24555Y19045D01*
X18315Y18295D02*
X23805D01*
X18050Y18030D02*
X18315Y18295D01*
X18050Y17515D02*
Y18030D01*
Y17515D02*
X18270Y17295D01*
X18715D01*
X18955Y17055D01*
Y16515D02*
Y17055D01*
X18735Y16295D02*
X18955Y16515D01*
X18355Y16295D02*
X18735D01*
X18050Y15990D02*
X18355Y16295D01*
X18050Y15200D02*
Y15990D01*
Y15200D02*
X18500Y14750D01*
X19995Y3255D02*
X22715D01*
X23675Y2295D01*
X24605D01*
X25150Y1750D01*
X30500D01*
X45285Y5295D02*
X52295D01*
X52750Y5750D01*
X16935Y4255D02*
X22955D01*
X24010Y3200D01*
X24955D01*
X25405Y2750D01*
X30500D01*
X29795Y40205D02*
X30250Y39750D01*
X29795Y40205D02*
Y41085D01*
X29915Y41205D01*
X30897D01*
X31806Y42114D01*
X32824D01*
X34095Y43385D01*
Y43925D01*
X33845Y44175D02*
X34095Y43925D01*
X32635Y44175D02*
X33845D01*
X17955Y13205D02*
X18500Y13750D01*
X55212Y36788D02*
X56250Y35750D01*
X45679Y36788D02*
X55212D01*
X44767Y37700D02*
X45679Y36788D01*
X38780Y37700D02*
X44767D01*
X37730Y38750D02*
X38780Y37700D01*
X30250Y38750D02*
X37730D01*
X46700Y4205D02*
X50450D01*
X46245Y3750D02*
X46700Y4205D01*
X44500Y3750D02*
X46245D01*
X30045Y4295D02*
X30500Y4750D01*
X23295Y4295D02*
X30045D01*
X21461Y6129D02*
X23295Y4295D01*
X21461Y6129D02*
Y8199D01*
X21155Y8505D02*
X21461Y8199D01*
X20665Y8505D02*
X21155D01*
X18905Y10265D02*
X20665Y8505D01*
X18300Y10265D02*
X18905D01*
X18050Y10515D02*
X18300Y10265D01*
X18050Y10515D02*
Y11300D01*
X18500Y11750D01*
X29040Y5750D02*
X30500D01*
X28740Y5820D02*
X29040Y5750D01*
X28305Y6255D02*
X28740Y5820D01*
X24215Y6255D02*
X28305D01*
X21995Y8475D02*
X24215Y6255D01*
X21995Y8475D02*
Y12725D01*
X21515Y13205D02*
X21995Y12725D01*
X18245Y13205D02*
X21515D01*
X18050Y13010D02*
X18245Y13205D01*
X18050Y12440D02*
Y13010D01*
Y12440D02*
X18235Y12255D01*
X18695D01*
X18950Y12000D01*
Y11200D02*
Y12000D01*
X18500Y10750D02*
X18950Y11200D01*
X56250Y31750D02*
X60101D01*
X61295Y30556D01*
Y30115D02*
Y30556D01*
X61025Y29845D02*
X61295Y30115D01*
X58730Y29845D02*
X61025D01*
X58375Y30200D02*
X58730Y29845D01*
X53640Y30200D02*
X58375D01*
X52995Y29555D02*
X53640Y30200D01*
X48000Y31250D02*
X49435D01*
X51390Y33205D01*
X59176D01*
X59453Y33482D01*
X61518D01*
X62250Y32750D01*
X38845Y32125D02*
X41465D01*
X41985Y31605D01*
X44075D01*
X47455Y31795D02*
X48000Y31250D01*
X44075Y31605D02*
Y31795D01*
X20995Y6000D02*
X21000D01*
X19750Y4755D02*
X20995Y6000D01*
X19750Y4750D02*
Y4755D01*
X56750Y9000D02*
X57735Y9985D01*
Y10715D01*
X58265Y11245D01*
X61705D01*
X63665Y13205D01*
X65295D01*
X65750Y12750D01*
X52750Y1750D02*
X53205Y1295D01*
X58045D01*
X58500Y1750D01*
X33045Y1295D02*
X33500Y1750D01*
X24955Y1295D02*
X33045D01*
X24500Y1750D02*
X24955Y1295D01*
X15500Y39750D02*
X19750D01*
X15000Y39250D02*
X15500Y39750D01*
X25500Y14750D02*
X30500D01*
X24500Y15750D02*
X25500Y14750D01*
X16620Y4750D02*
X18500D01*
X14125Y2255D02*
X16620Y4750D01*
X8255Y2255D02*
X14125D01*
X7500Y1500D02*
X8255Y2255D01*
X22035Y13845D02*
X22595D01*
X24500Y15750D01*
X17500Y24750D02*
X21000Y21250D01*
X15500Y24750D02*
X17500D01*
X12750Y27500D02*
X15500Y24750D01*
X9750Y27500D02*
X12750D01*
X4005Y27755D02*
X5750Y29500D01*
X2245Y27755D02*
X4005D01*
X1750Y28250D02*
X2245Y27755D01*
X2855Y14645D02*
X3510Y13990D01*
X2855Y14645D02*
Y15915D01*
X2325Y16445D02*
X2855Y15915D01*
X715Y16445D02*
X2325D01*
X295Y16865D02*
X715Y16445D01*
X295Y16865D02*
Y33075D01*
X12420Y45200D01*
X15315D01*
X16740Y43775D01*
X20495D01*
X22520Y41750D01*
X24250D01*
X3510Y13990D02*
X5740D01*
X6000Y14250D01*
X47711Y37949D02*
X48645Y37015D01*
X55336D01*
X56056Y36295D01*
X59095D01*
X62005Y39205D01*
X62515D01*
X62705Y39015D01*
Y38415D02*
Y39015D01*
X62490Y38200D02*
X62705Y38415D01*
X61897Y38200D02*
X62490D01*
X61697Y38000D02*
X61897Y38200D01*
X61697Y36418D02*
Y38000D01*
Y36418D02*
X61915Y36200D01*
X62730D01*
X64155Y34775D01*
Y32655D02*
Y34775D01*
X62250Y30750D02*
X64155Y32655D01*
X22250Y39750D02*
X24250Y37750D01*
X20750Y39750D02*
X22250D01*
X16250Y36250D02*
X20250D01*
X20750Y35750D01*
X8250Y33000D02*
Y33850D01*
X11757Y37357D01*
X12215D01*
X15000Y40142D01*
Y40750D01*
X6250Y33000D02*
X8250D01*
X5750Y33500D02*
X6250Y33000D01*
X14500Y30750D02*
X15500D01*
X13750Y30000D02*
X14500Y30750D01*
X12250Y28750D02*
X15500D01*
X12000Y29000D02*
X12250Y28750D01*
X13750Y28000D02*
X15250D01*
X15500Y27750D01*
X1750Y33500D02*
X3750D01*
X5750Y31500D01*
X5150Y24500D02*
X6000D01*
X4490Y23840D02*
X5150Y24500D01*
X4750Y23250D02*
X6000D01*
X4500Y23000D02*
X4750Y23250D01*
X5150Y20500D02*
X6000D01*
X4490Y21160D02*
X5150Y20500D01*
X43274Y16533D02*
X44395Y17655D01*
X39283Y16533D02*
X43274D01*
X38500Y15750D02*
X39283Y16533D01*
X48000Y33250D02*
X49230D01*
X49255Y33225D01*
X57625Y20125D02*
X62250Y24750D01*
X53980Y20125D02*
X57625D01*
X49358Y15502D02*
X53980Y20125D01*
X47845Y15502D02*
X49358D01*
X30500Y8750D02*
X31690D01*
X32185Y8255D01*
X42060D01*
X42555Y8750D01*
X44500D01*
X28995Y30895D02*
X29395Y31295D01*
X32261D01*
X32483Y31517D01*
X35733D01*
X36000Y31250D01*
X28760Y6750D02*
X30500D01*
X28755Y6755D02*
X28760Y6750D01*
X28355Y515D02*
X46699D01*
X47166Y981D01*
X48337D01*
X29152Y44575D02*
X63955D01*
X29065Y44662D02*
X29152Y44575D01*
X25162Y44662D02*
X29065D01*
X24250Y43750D02*
X25162Y44662D01*
X20750Y38750D02*
X22250D01*
X24250Y36750D01*
X20255Y38255D02*
X20750Y38750D01*
X16755Y38255D02*
X20255D01*
X16250Y37750D02*
X16755Y38255D01*
X24250Y39750D02*
X24705Y39295D01*
Y37515D02*
Y39295D01*
X24485Y37295D02*
X24705Y37515D01*
X24065Y37295D02*
X24485D01*
X22160Y39200D02*
X24065Y37295D01*
X20515Y39200D02*
X22160D01*
X20295Y39420D02*
X20515Y39200D01*
X20295Y39420D02*
Y39905D01*
X19995Y40205D02*
X20295Y39905D01*
X16345Y40205D02*
X19995D01*
X15325Y41225D02*
X16345Y40205D01*
X8785Y41225D02*
X15325D01*
X1295Y33735D02*
X8785Y41225D01*
X1295Y30455D02*
Y33735D01*
Y30455D02*
X3500Y28250D01*
X5190Y1000D02*
X21000D01*
X4485Y1705D02*
X5190Y1000D01*
X2555Y1705D02*
X4485D01*
X1945Y2315D02*
X2555Y1705D01*
X1945Y2315D02*
Y3545D01*
X2600Y4200D01*
X4315D01*
X4750Y4635D01*
Y9250D01*
X38965Y25595D02*
X44105D01*
X38755Y25805D02*
X38965Y25595D01*
X34730Y25805D02*
X38755D01*
X33675Y24750D02*
X34730Y25805D01*
X30250Y24750D02*
X33675D01*
X64500Y7750D02*
X66205Y9455D01*
Y15145D01*
X66055Y15295D02*
X66205Y15145D01*
X53205Y15295D02*
X66055D01*
X49115Y11205D02*
X53205Y15295D01*
X45705Y11205D02*
X49115D01*
X45535Y11035D02*
X45705Y11205D01*
X42695Y18605D02*
X43065Y18975D01*
X38705Y18605D02*
X42695D01*
X38000Y19310D02*
X38705Y18605D01*
X64767Y17247D02*
X64955Y17435D01*
X60987Y17247D02*
X64767D01*
X60689Y17546D02*
X60987Y17247D01*
X53046Y17546D02*
X60689D01*
X52135Y16635D02*
X53046Y17546D01*
X51108Y18815D02*
X51255Y18962D01*
X48437Y18815D02*
X51108D01*
X48270Y18647D02*
X48437Y18815D01*
X43687Y18647D02*
X48270D01*
X43243Y18203D02*
X43687Y18647D01*
X37212Y18203D02*
X43243D01*
X36555Y18860D02*
X37212Y18203D01*
X36555Y18860D02*
Y18995D01*
X36495Y24755D02*
X37000Y24250D01*
X35345Y24755D02*
X36495D01*
X35145Y24555D02*
X35345Y24755D01*
X64500Y10750D02*
X65270D01*
X65605Y10415D01*
X37000Y25250D02*
X43517D01*
X62525Y10775D02*
X64500Y12750D01*
X60347Y10775D02*
X62525D01*
X58837Y9265D02*
X60347Y10775D01*
X58175Y9265D02*
X58837D01*
X56205Y7295D02*
X58175Y9265D01*
X46065Y7295D02*
X56205D01*
X45155Y8205D02*
X46065Y7295D01*
X43845Y8205D02*
X45155D01*
X42895Y7255D02*
X43845Y8205D01*
X36995Y7255D02*
X42895D01*
X36500Y7750D02*
X36995Y7255D01*
X51605Y23965D02*
X51835Y24195D01*
X48375Y39435D02*
X50155Y37655D01*
X44775Y35515D02*
X44915Y35655D01*
X41245Y35515D02*
X44775D01*
X41245Y34795D02*
X43225D01*
X43505Y34515D01*
Y33955D02*
Y34515D01*
Y33955D02*
X43715Y33745D01*
X44215D01*
X44445Y33515D01*
Y33035D02*
Y33515D01*
X44220Y32810D02*
X44445Y33035D01*
X43930Y32810D02*
X44220D01*
X43825Y32705D02*
X43930Y32810D01*
X41375Y30745D02*
X43825D01*
X40905Y31215D02*
X41375Y30745D01*
X40205Y31215D02*
X40905D01*
X38975Y30305D02*
X40085D01*
X38305Y29635D02*
X38975Y30305D01*
X37568Y19062D02*
X37845Y18785D01*
X37568Y19062D02*
Y19515D01*
X37871Y19818D01*
X38002D01*
X38983Y18837D01*
X42372D01*
X43497Y19962D01*
X47804D01*
X34735Y30250D02*
X36000D01*
X34735Y36135D02*
X44374D01*
X44410Y36171D01*
X49259D01*
X49905Y35525D01*
X44180Y18225D02*
X48945D01*
X43590Y17635D02*
X44180Y18225D01*
X35015Y17635D02*
X43590D01*
X34835Y22025D02*
X35015Y21845D01*
X34835Y22025D02*
Y24915D01*
X35170Y25250D01*
X36000D01*
X50000Y3750D02*
X50453Y3297D01*
X51387D01*
X52295Y4205D01*
X52915D01*
X53315Y4605D01*
Y5855D01*
X53735Y16715D02*
X59885D01*
X60395Y16205D01*
X37000Y23250D02*
X37315D01*
X38760Y24695D01*
X49305D01*
X50555Y25945D01*
X53725D01*
X39265Y2295D02*
X49545D01*
X50000Y2750D01*
X50785Y1065D02*
X64915D01*
X65150Y1300D01*
Y5820D01*
X64715Y6255D02*
X65150Y5820D01*
X63505Y6255D02*
X64715D01*
X62010Y7750D02*
X63505Y6255D01*
X58500Y7750D02*
X62010D01*
X40000Y22250D02*
X40545Y21705D01*
X41155D01*
X45355Y9085D02*
X46205Y8235D01*
X48845D01*
Y1755D02*
X48850Y1750D01*
X50000D01*
X46845Y13935D02*
X46915Y14005D01*
X46845Y12855D02*
Y13935D01*
Y12855D02*
X47115Y12585D01*
X47591D01*
X51334Y16327D01*
X52298D01*
X53299Y17329D01*
X60361D01*
X60455Y17235D01*
X8750Y26500D02*
Y27185D01*
X11020Y29455D01*
X14045D01*
X14885Y30295D01*
X18045D01*
X18500Y30750D01*
X4080Y15250D02*
X6000D01*
X3510Y15820D02*
X4080Y15250D01*
X18005Y8255D02*
X18500Y8750D01*
X11455Y8255D02*
X18005D01*
X11245Y8045D02*
X11455Y8255D01*
X7205Y8045D02*
X11245D01*
X6000Y9250D02*
X7205Y8045D01*
X41890Y21180D02*
X43260D01*
X41265Y20555D02*
X41890Y21180D01*
X35645Y20555D02*
X41265D01*
X40000Y34250D02*
X40925Y35175D01*
X44663D01*
X44793Y35305D01*
X46425D01*
X46555Y35175D01*
X64250Y25750D02*
X64500D01*
X63250Y24750D02*
X64250Y25750D01*
X47000Y33250D02*
X47305Y33555D01*
X47335D01*
X47545Y33765D01*
X54015D01*
X55000Y34750D01*
X55750Y10750D02*
Y11895D01*
X58055Y14200D01*
X63950D01*
X64500Y14750D01*
X47552Y28802D02*
X48000Y29250D01*
X46672Y28802D02*
X47552D01*
X46472Y29002D02*
X46672Y28802D01*
X41945Y29002D02*
X46472D01*
X40632Y30315D02*
X41945Y29002D01*
X40632Y30315D02*
Y30715D01*
X40526Y30822D02*
X40632Y30715D01*
X38578Y30822D02*
X40526D01*
X38150Y31250D02*
X38578Y30822D01*
X37000Y31250D02*
X38150D01*
X56000Y11000D02*
X56750D01*
X55750Y10750D02*
X56000Y11000D01*
X44965Y19255D02*
X50323D01*
X53291Y22222D01*
X54820D01*
X58005Y4255D02*
X58500Y4750D01*
X56750D02*
X58500D01*
X55750Y2750D02*
X56625D01*
X56925Y3050D01*
Y7515D02*
X57705Y8295D01*
X58785D01*
X59505Y9015D01*
Y9125D01*
X59695Y32295D02*
X59915Y32075D01*
X54975Y32295D02*
X59695D01*
X53745Y31065D02*
X54975Y32295D01*
X51185Y31065D02*
X53745D01*
X49105Y29585D02*
X51185D01*
X48545Y29025D02*
X49105Y29585D01*
X45835Y26665D02*
X45865Y26695D01*
Y27405D01*
X41515Y28025D02*
X45865D01*
X54965Y25630D02*
X55040Y25705D01*
X51141Y25630D02*
X54965D01*
X49252Y23740D02*
X51141Y25630D01*
X47685Y23740D02*
X49252D01*
X47475Y23530D02*
X47685Y23740D01*
X47475Y22915D02*
Y23530D01*
X47255Y22695D02*
X47475Y22915D01*
X45445Y22695D02*
X47255D01*
X45000Y22250D02*
X45445Y22695D01*
X60035Y31205D02*
X60985Y30255D01*
X55345Y31205D02*
X60035D01*
X54895Y30755D02*
X55345Y31205D01*
X50605Y30755D02*
X54895D01*
X49655Y29805D02*
X50605Y30755D01*
X45635Y29805D02*
X49655D01*
X45335Y29505D02*
X45635Y29805D01*
X41095Y24345D02*
X44545D01*
X40000Y23250D02*
X41095Y24345D01*
X62095Y19745D02*
X62385Y19455D01*
X57465Y19745D02*
X62095D01*
X52645Y23585D02*
X56745D01*
X50695Y32055D02*
X52645D01*
X49445Y30805D02*
X50695Y32055D01*
X46005Y30805D02*
X49445D01*
X45635Y30435D02*
X46005Y30805D01*
X40955Y30435D02*
X45635D01*
X41745Y23995D02*
X42135D01*
X41000Y23250D02*
X41745Y23995D01*
X61050Y6200D02*
X64500Y2750D01*
X57162Y6200D02*
X61050D01*
X56712Y5750D02*
X57162Y6200D01*
X55750Y5750D02*
X56712D01*
X64500Y3750D02*
Y4090D01*
X61295Y7295D02*
X64500Y4090D01*
X61095Y17755D02*
X61295Y17555D01*
X52426Y17755D02*
X61095D01*
X49386Y14715D02*
X52426Y17755D01*
X46748Y14715D02*
X49386D01*
X46500Y14467D02*
X46748Y14715D01*
X46500Y13840D02*
Y14467D01*
X44955Y12295D02*
X46500Y13840D01*
X44285Y12295D02*
X44955D01*
X44045Y12535D02*
X44285Y12295D01*
X44045Y12535D02*
Y13605D01*
X42745Y14905D02*
X44045Y13605D01*
X61050Y7200D02*
X64500Y3750D01*
X58050Y7200D02*
X61050D01*
X57600Y6750D02*
X58050Y7200D01*
X55750Y6750D02*
X57600D01*
X54985Y7755D02*
X54990Y7750D01*
X53167Y21671D02*
X55081D01*
X50511Y19015D02*
X53167Y21671D01*
X48000Y19015D02*
X50511D01*
X47850Y18865D02*
X48000Y19015D01*
X44365Y18865D02*
X47850D01*
X44275Y18955D02*
X44365Y18865D01*
X64500Y4750D02*
X64950Y4300D01*
Y1515D02*
Y4300D01*
X64735Y1300D02*
X64950Y1515D01*
X62140Y1300D02*
X64735D01*
X59185Y4255D02*
X62140Y1300D01*
X58365Y4255D02*
X59185D01*
X58165Y4055D02*
X58365Y4255D01*
X57355Y4055D02*
X58165D01*
X56595Y3295D02*
X57355Y4055D01*
X55115Y3295D02*
X56595D01*
X54585Y3825D02*
X55115Y3295D01*
X54585Y3825D02*
Y4725D01*
X54985Y5125D01*
X54990Y7750D02*
X55750D01*
X56605Y25205D02*
X56705Y25305D01*
X55555Y25205D02*
X56605D01*
X52252Y25097D02*
X55555Y25205D01*
X47442Y20287D02*
X52252Y25097D01*
X42527Y20287D02*
X47442D01*
X41555Y19315D02*
X42527Y20287D01*
X41565Y15215D02*
X47475D01*
X47585Y15105D01*
X49455D01*
X53475Y19125D01*
X66165D01*
X66405Y18885D01*
Y8655D02*
Y18885D01*
X64500Y6750D02*
X66405Y8655D01*
X35715Y28965D02*
X36000Y29250D01*
X34135Y28965D02*
X35715D01*
X32355Y40455D02*
X32652Y40157D01*
X35322D01*
X35646Y40481D01*
X44283D01*
X44469Y40667D01*
X51193D01*
X51565Y40295D01*
X65465D01*
X61080Y27750D02*
X62250D01*
X58415Y25085D02*
X61080Y27750D01*
X45175Y34795D02*
X45445Y34525D01*
Y33695D02*
Y34525D01*
X45000Y33250D02*
X45445Y33695D01*
X6405Y25155D02*
X7000Y25750D01*
X4715Y25155D02*
X6405D01*
X4295Y25575D02*
X4715Y25155D01*
X4295Y25575D02*
Y26915D01*
X4715Y27335D01*
X8272D01*
X15232Y34295D01*
X24905D01*
X25815Y35205D01*
X31125D01*
X31635Y34695D01*
X37555D01*
X38000Y34250D01*
X2750Y2750D02*
X3870D01*
X5120Y1500D01*
X7500D01*
X1750Y33500D02*
X5935Y37685D01*
X12035D01*
X20063Y40437D02*
X20750Y39750D01*
X19313Y40437D02*
X20063D01*
X15000Y44750D02*
X19313Y40437D01*
X56865Y20365D02*
X62250Y25750D01*
X53766Y20365D02*
X56865D01*
X51032Y17631D02*
X53766Y20365D01*
X48501Y17631D02*
X51032D01*
X46505Y15635D02*
X48501Y17631D01*
X46205Y15635D02*
X46505D01*
X25295Y32295D02*
X34935D01*
X35425Y31805D01*
X41430D01*
X41985Y31250D01*
X47000D01*
X61050Y5200D02*
X64500Y1750D01*
X56200Y5200D02*
X61050D01*
X55750Y4750D02*
X56200Y5200D01*
X49545Y10205D02*
X50000Y9750D01*
X40785Y10205D02*
X49545D01*
X39825Y9245D02*
X40785Y10205D01*
X38150Y9245D02*
X39825D01*
X37995Y9400D02*
X38150Y9245D01*
X36850Y9400D02*
X37995D01*
X36500Y9750D02*
X36850Y9400D01*
X50000Y1750D02*
X50545Y2295D01*
X53361D01*
X53503Y2153D01*
X53915D01*
X54025Y2263D01*
Y5605D01*
X54715Y6295D01*
X56245D01*
X56435Y6485D01*
X58235D01*
X58500Y6750D01*
X35315Y24250D02*
X36000D01*
X35145Y24080D02*
X35315Y24250D01*
X35145Y22175D02*
Y24080D01*
Y22175D02*
X35545Y21775D01*
X39815D01*
X40192Y21397D01*
X41347D01*
X41685Y21735D01*
X43945D01*
X44485Y21195D01*
X45995D01*
X48025Y4755D02*
X48030Y4750D01*
X50000D01*
X57225Y12475D02*
X58500Y13750D01*
X57225Y10125D02*
Y12475D01*
X56400Y9300D02*
X57225Y10125D01*
X50885Y9300D02*
X56400D01*
X50335Y8750D02*
X50885Y9300D01*
X50000Y8750D02*
X50335D01*
X61060Y16255D02*
X63205D01*
X60702Y15897D02*
X61060Y16255D01*
X51867Y15897D02*
X60702D01*
X50655Y14685D02*
X51867Y15897D01*
X49525Y18615D02*
X49855Y18285D01*
X48683Y18615D02*
X49525D01*
X48515Y18447D02*
X48683Y18615D01*
X44002Y18447D02*
X48515D01*
X43549Y17994D02*
X44002Y18447D01*
X36655Y17994D02*
X43549D01*
X48000Y28250D02*
X49387D01*
X50385Y29247D01*
X53295D01*
X53302Y29255D01*
X61755D01*
X62250Y29750D01*
X37495Y33755D02*
X38000Y33250D01*
X35055Y33755D02*
X37495D01*
X33790Y13750D02*
X34195Y14155D01*
X30500Y13750D02*
X33790D01*
X50680Y28750D02*
X56250D01*
X50285Y28355D02*
X50680Y28750D01*
X46795Y32725D02*
X50285D01*
X46639Y32569D02*
X46795Y32725D01*
X44999Y32569D02*
X46639D01*
X44625Y32195D02*
X44999Y32569D01*
X43437Y32195D02*
X44625D01*
X43000Y32632D02*
X43437Y32195D01*
X43000Y32632D02*
Y33250D01*
X38500Y1750D02*
X38955Y1295D01*
X46545D01*
X47000Y1750D01*
X30250Y34750D02*
X30750Y34250D01*
X37000D01*
X44500Y5750D02*
X46315D01*
X46770Y6205D01*
X50965D01*
X51165Y6405D01*
X51155Y8285D02*
X51565Y7875D01*
X49775Y8285D02*
X51155D01*
X49545Y8515D02*
X49775Y8285D01*
X49545Y8515D02*
Y9115D01*
X49695Y9265D01*
X50455D01*
X50940Y9750D01*
X52750D01*
X24500Y2750D02*
X24975Y2275D01*
X38025D01*
X38500Y2750D01*
X24250Y40750D02*
X27795Y37205D01*
X31485D01*
X32867Y35823D01*
X44462D01*
X44610Y35971D01*
X46969D01*
X47315Y35625D01*
Y35405D02*
Y35625D01*
X46450Y34540D02*
X47315Y35405D01*
X46450Y33700D02*
Y34540D01*
X46000Y33250D02*
X46450Y33700D01*
X38500Y8750D02*
X41310D01*
X41765Y9205D01*
X44755D01*
X45865Y8095D01*
X23695Y25515D02*
Y26505D01*
Y25515D02*
X23915Y25295D01*
X33932D01*
X35442Y26805D01*
X37462D01*
X37875Y26392D01*
X44658D01*
X45445Y25605D01*
X46645D01*
X47000Y25250D01*
X19750Y16250D02*
X20135Y16635D01*
X21381D01*
X21621Y16395D01*
X22715D01*
X23015Y16695D01*
Y17095D01*
X24655Y18735D01*
X24715D01*
X24862Y18882D01*
Y19215D01*
X24722Y19355D02*
X24862Y19215D01*
X23865Y19355D02*
X24722D01*
X23260Y18750D02*
X23865Y19355D01*
X18500Y18750D02*
X23260D01*
X16625Y11625D02*
X18500Y9750D01*
X16625Y11625D02*
Y13805D01*
X17115Y14295D01*
X22315D01*
X24315Y16295D01*
X33985D01*
X34705Y17015D01*
Y18815D01*
X35915Y20025D01*
X38345D01*
X38675Y19695D01*
X41535D01*
X42327Y20487D01*
X47005D01*
X51915Y25397D01*
X55237D01*
X55355Y25515D01*
Y26255D01*
X55185Y26425D02*
X55355Y26255D01*
X49305Y26425D02*
X55185D01*
X49130Y26250D02*
X49305Y26425D01*
X48000Y26250D02*
X49130D01*
X30500Y5750D02*
X32825D01*
X33370Y6295D01*
X35135D01*
X36045Y7205D01*
X36688D01*
X37488Y6405D01*
X37860D01*
X38060Y6205D01*
X42355D01*
X42810Y5750D01*
X44500D01*
X24500Y4750D02*
X28514D01*
X29059Y5295D01*
X37955D01*
X38500Y4750D01*
X18500Y12750D02*
X21705Y9545D01*
Y7095D02*
Y9545D01*
Y7095D02*
X23505Y5295D01*
X28445D01*
X28665Y5515D01*
X28715Y3750D02*
X30500D01*
X47155Y13685D02*
X47845Y14375D01*
X47155Y13155D02*
Y13685D01*
X38500Y10750D02*
X43580D01*
X51020Y1750D02*
X52750D01*
X50435Y1165D02*
X51020Y1750D01*
X48645Y1165D02*
X50435D01*
X48060Y1750D02*
X48645Y1165D01*
X47000Y1750D02*
X48060D01*
X37000Y18815D02*
Y19440D01*
Y18815D02*
X37412Y18403D01*
X43065D01*
X44225Y19562D01*
X48049D01*
X48715Y20229D01*
X49415D01*
X52421Y23235D01*
X57400D01*
X61465Y27300D01*
X63290D01*
X63305Y27315D01*
X23385Y28885D02*
X24250Y29750D01*
X23385Y22825D02*
Y28885D01*
Y22825D02*
X24677Y21532D01*
X39725D01*
X40063Y21195D01*
X41532D01*
X41869Y21532D01*
X43357D01*
X44002Y20887D01*
X46215D01*
X46315Y20987D01*
Y21387D01*
X45897Y21805D02*
X46315Y21387D01*
X44665Y21805D02*
X45897D01*
X44555Y21915D02*
X44665Y21805D01*
X44555Y21915D02*
Y23530D01*
X44715Y23690D01*
X47335D01*
X47585Y23940D01*
Y24250D01*
X48000D01*
X47684Y22934D02*
X48000Y23250D01*
X47684Y21914D02*
Y22934D01*
X46457Y20687D02*
X47684Y21914D01*
X42133Y20687D02*
X46457D01*
X41450Y20005D02*
X42133Y20687D01*
X38955Y20005D02*
X41450D01*
X37000Y27250D02*
X37360D01*
X37965Y26645D01*
X44840D01*
X45680Y25805D01*
X49955D01*
X50215Y26065D01*
Y27205D02*
X59505D01*
X46650Y4400D02*
X47000Y4750D01*
X46450Y4400D02*
X46650D01*
X46350Y4300D02*
X46450Y4400D01*
X40860Y4300D02*
X46350D01*
X40460Y4700D02*
X40860Y4300D01*
X50000Y6750D02*
X52027D01*
X52482Y6295D01*
X53315D01*
X53665Y5945D01*
Y2465D02*
Y5945D01*
X54705Y2465D02*
X54915Y2255D01*
X56575D01*
X57645Y3325D01*
X51905Y28255D02*
X59195D01*
X51367Y27717D02*
X51905Y28255D01*
X37533Y27717D02*
X51367D01*
X37000Y28250D02*
X37533Y27717D01*
X43195Y27295D02*
X44747D01*
X45685Y26357D01*
X46315D01*
X46655Y26697D01*
X55212D01*
X55665Y26245D01*
X56715D01*
X57015Y25945D01*
Y25050D02*
Y25945D01*
X56715Y24750D02*
X57015Y25050D01*
X56250Y24750D02*
X56715D01*
X56250Y34750D02*
Y35061D01*
X55356Y35955D02*
X56250Y35061D01*
X55045Y35955D02*
X55356D01*
X54412Y36588D02*
X55045Y35955D01*
X44761Y36588D02*
X54412D01*
X44567Y36782D02*
X44761Y36588D01*
X43952Y36782D02*
X44567D01*
X43757Y36588D02*
X43952Y36782D01*
X35442Y36588D02*
X43757D01*
X34280Y37750D02*
X35442Y36588D01*
X30250Y37750D02*
X34280D01*
X45774Y34476D02*
X46000Y34250D01*
X45774Y34476D02*
Y34795D01*
X45464Y35105D02*
X45774Y34795D01*
X45015Y35105D02*
X45464D01*
X44705Y34795D02*
X45015Y35105D01*
X43925Y34795D02*
X44705D01*
X53045Y35545D02*
X55265D01*
X52219Y36371D02*
X53045Y35545D01*
X44363Y36371D02*
X52219D01*
X44259Y36475D02*
X44363Y36371D01*
X29645Y44355D02*
X30250Y43750D01*
X28755Y44355D02*
X29645D01*
X29985Y45585D02*
X64315D01*
X64765Y45135D01*
Y42625D02*
Y45135D01*
X64395Y42255D02*
X64765Y42625D01*
X60645Y42255D02*
X64395D01*
X58390Y30750D02*
X58685Y30455D01*
X56250Y30750D02*
X58390D01*
X30250Y29750D02*
X31295Y30795D01*
X33825D01*
Y41275D02*
X35300Y42750D01*
X56250D01*
X30250Y39750D02*
X30988D01*
X31195Y39957D01*
X35522D01*
X35612Y40047D01*
X51012D01*
X53310Y37750D01*
X56250D01*
X63005Y34255D02*
X63500Y34750D01*
X59818Y34255D02*
X63005D01*
X59120Y33557D02*
X59818Y34255D01*
X57800Y33557D02*
X59120D01*
X57607Y33750D02*
X57800Y33557D01*
X56250Y33750D02*
X57607D01*
X30250Y32750D02*
X40500D01*
X41000Y33250D01*
X34645Y7750D02*
X36500D01*
X34140Y20600D02*
X34335Y20795D01*
X20701Y20600D02*
X34140D01*
X20096Y21205D02*
X20701Y20600D01*
X10945Y21205D02*
X20096D01*
X10455Y20715D02*
X10945Y21205D01*
X10455Y19515D02*
Y20715D01*
X9440Y18500D02*
X10455Y19515D01*
X4750Y18500D02*
X9440D01*
X57625Y3750D02*
X58500D01*
X38500D02*
X39195Y3055D01*
X44045D01*
X44285Y3295D01*
X50145D01*
X50343Y3097D01*
X52097D01*
X52750Y3750D01*
X57955Y10205D02*
X58500Y10750D01*
X57955Y9485D02*
Y10205D01*
X56605Y8135D02*
X57955Y9485D01*
X57625Y2750D02*
X58500D01*
X56625Y1750D02*
X57625Y2750D01*
X55750Y1750D02*
X56625D01*
X36000Y23250D02*
X36555Y22695D01*
X42555D01*
X43000Y22250D01*
X35455Y23755D02*
X37315D01*
X37490Y23930D01*
Y24760D01*
X37000Y25250D02*
X37490Y24760D01*
X23715Y42750D02*
X24250D01*
X23485Y42980D02*
X23715Y42750D01*
X23485Y42980D02*
Y44775D01*
X23915Y45205D01*
X64058D01*
X64465Y44798D01*
Y44035D02*
Y44798D01*
X64455Y44025D02*
X64465Y44035D01*
X64455Y30695D02*
Y30985D01*
Y30695D02*
X64950Y30200D01*
Y29430D02*
Y30200D01*
X64775Y29255D02*
X64950Y29430D01*
X62115Y29255D02*
X64775D01*
X61915Y29055D02*
X62115Y29255D01*
X61285Y29055D02*
X61915D01*
X59980Y27750D02*
X61285Y29055D01*
X56250Y27750D02*
X59980D01*
X46640Y23890D02*
X47000Y24250D01*
X43970Y23890D02*
X46640D01*
X43505Y23425D02*
X43970Y23890D01*
X43505Y22755D02*
Y23425D01*
X43000Y22250D02*
X43505Y22755D01*
X44500Y15750D02*
X44850Y16100D01*
X46400D01*
X47000Y16700D01*
X31500Y14750D02*
X32675Y15925D01*
X34155D01*
X35665Y17435D01*
X43685D01*
X44275Y18025D01*
X44475D01*
X45750Y16750D01*
X56050Y8300D02*
X56750Y9000D01*
X51450Y8300D02*
X56050D01*
X51000Y8750D02*
X51450Y8300D01*
X56000Y33750D02*
X56250D01*
X55000Y34750D02*
X56000Y33750D01*
X20175Y25295D02*
X24045Y21425D01*
X15270Y25295D02*
X20175D01*
X15050Y25515D02*
X15270Y25295D01*
X15050Y25515D02*
Y26990D01*
X15315Y27255D01*
X16305D01*
X17250Y28200D01*
X18870D01*
X22875Y32205D01*
X24835D01*
X26025Y31015D01*
X28245D01*
X29510Y29750D01*
X30250D01*
X45165Y6515D02*
Y6755D01*
X44715Y7205D02*
X45165Y6755D01*
X43205Y7205D02*
X44715D01*
X43022Y7022D02*
X43205Y7205D01*
X38772Y7022D02*
X43022D01*
X38500Y6750D02*
X38772Y7022D01*
X30500Y3750D02*
X30955Y4205D01*
X38870D01*
X38977Y4312D01*
X39787D01*
X40349Y3750D01*
X44500D01*
X24250Y33750D02*
X29250D01*
X30250Y34750D01*
X6000Y13250D02*
X12005Y19255D01*
X18895D01*
X19295Y19655D01*
X22219Y36531D02*
X23000Y35750D01*
X21969Y36531D02*
X22219D01*
X20750Y37750D02*
X21969Y36531D01*
X5750Y29500D02*
X8500D01*
X9750Y30750D01*
X27935Y30065D02*
X30250Y27750D01*
X27075Y30065D02*
X27935D01*
X23795Y43195D02*
Y44405D01*
X24315Y44925D01*
X64055D01*
X64265Y44715D01*
Y44315D02*
Y44715D01*
X63700Y43750D02*
X64265Y44315D01*
X62250Y43750D02*
X63700D01*
X18500Y20750D02*
X19910D01*
X20348Y20312D01*
X26938D01*
X30500Y16750D01*
X44595Y40355D02*
X51105D01*
X52710Y38750D01*
X55000D01*
X32845Y11745D02*
X37869D01*
X38319Y11295D01*
X43850D01*
X44138Y11007D01*
X44243D01*
X44500Y10750D01*
X24500Y11750D02*
X25045Y12295D01*
X38045D01*
X38500Y12750D01*
X33500Y1750D02*
X34150Y1100D01*
X37850D01*
X38500Y1750D01*
X750Y18500D02*
Y20315D01*
X1595Y21160D01*
X3510D01*
X1225Y23840D02*
X3510D01*
X750Y24315D02*
X1225Y23840D01*
X750Y24315D02*
Y26500D01*
X50000Y9750D02*
X50455Y10205D01*
X55295D01*
X55750Y9750D01*
X3510Y23010D02*
X4005Y22515D01*
Y20715D02*
Y22515D01*
Y20715D02*
X4675Y20045D01*
X7250D01*
X7455Y20250D01*
X10000D01*
X18500Y8750D02*
X19250Y8000D01*
X21000D01*
X20750Y34750D02*
X23000D01*
X19750Y35750D02*
X20750Y34750D01*
X10750Y8500D02*
X11000D01*
X9750Y9500D02*
X10750Y8500D01*
X11000D02*
X11705Y9205D01*
X19295D01*
X19750Y8750D01*
X42855Y39645D02*
X44250Y38250D01*
X41645Y39645D02*
X42855D01*
X40250Y38250D02*
X41645Y39645D01*
X23000Y35750D02*
X24250D01*
X62250Y28750D02*
X63250D01*
X55000Y38750D02*
X56250D01*
X62250Y32750D02*
X63500D01*
X18500Y4750D02*
X19750D01*
X30500Y14750D02*
X31500D01*
X5275Y13250D02*
X6000D01*
X5205Y13180D02*
X5275Y13250D01*
X4490Y13180D02*
X5205D01*
X11000Y20250D02*
X19750D01*
X9750Y13500D02*
X11000D01*
X12000Y30000D02*
X13750D01*
X1750Y32250D02*
X3500D01*
X13750Y41750D02*
X16250D01*
X15000Y35250D02*
X16250D01*
X62250Y29750D02*
X64500D01*
X4750Y26500D02*
X8750D01*
X33500Y10750D02*
X36500D01*
X37500D01*
X23000Y34750D02*
X24250D01*
X64500Y14750D02*
X65750D01*
X44500D02*
X45750D01*
X52750Y10750D02*
X55750D01*
X47000D02*
X50000D01*
X51000D02*
X52750D01*
X50000D02*
X51000D01*
D14*
X10234Y45278D02*
D03*
D15*
Y37010D02*
D03*
D16*
X48000Y28250D02*
D03*
D17*
X47000D02*
D03*
X48000Y29250D02*
D03*
X47000D02*
D03*
X48000Y30250D02*
D03*
X47000D02*
D03*
X48000Y31250D02*
D03*
X47000D02*
D03*
X48000Y32250D02*
D03*
X47000D02*
D03*
X48000Y33250D02*
D03*
X47000Y34250D02*
D03*
Y33250D02*
D03*
X46000Y34250D02*
D03*
Y33250D02*
D03*
X45000Y34250D02*
D03*
Y33250D02*
D03*
X44000Y34250D02*
D03*
Y33250D02*
D03*
X43000Y34250D02*
D03*
Y33250D02*
D03*
X42000Y34250D02*
D03*
Y33250D02*
D03*
X41000Y34250D02*
D03*
Y33250D02*
D03*
X40000Y34250D02*
D03*
Y33250D02*
D03*
X39000Y34250D02*
D03*
Y33250D02*
D03*
X38000Y34250D02*
D03*
Y33250D02*
D03*
X37000Y34250D02*
D03*
X36000Y33250D02*
D03*
X37000D02*
D03*
X36000Y32250D02*
D03*
X37000D02*
D03*
X36000Y31250D02*
D03*
X37000D02*
D03*
X36000Y30250D02*
D03*
X37000D02*
D03*
X36000Y29250D02*
D03*
X37000D02*
D03*
X36000Y28250D02*
D03*
X37000D02*
D03*
X36000Y27250D02*
D03*
X37000D02*
D03*
X36000Y26250D02*
D03*
X37000D02*
D03*
X36000Y25250D02*
D03*
X37000D02*
D03*
X36000Y24250D02*
D03*
X37000D02*
D03*
X36000Y23250D02*
D03*
X37000Y22250D02*
D03*
Y23250D02*
D03*
X38000Y22250D02*
D03*
Y23250D02*
D03*
X39000Y22250D02*
D03*
Y23250D02*
D03*
X40000Y22250D02*
D03*
Y23250D02*
D03*
X41000Y22250D02*
D03*
Y23250D02*
D03*
X42000Y22250D02*
D03*
Y23250D02*
D03*
X43000Y22250D02*
D03*
Y23250D02*
D03*
X44000Y22250D02*
D03*
Y23250D02*
D03*
X45000Y22250D02*
D03*
Y23250D02*
D03*
X46000Y22250D02*
D03*
Y23250D02*
D03*
X47000Y22250D02*
D03*
X48000Y23250D02*
D03*
X47000D02*
D03*
X48000Y24250D02*
D03*
X47000D02*
D03*
X48000Y25250D02*
D03*
X47000D02*
D03*
X48000Y26250D02*
D03*
X47000D02*
D03*
X48000Y27250D02*
D03*
X47000D02*
D03*
D18*
X7500Y1500D02*
D03*
X3510Y21990D02*
D03*
Y23840D02*
D03*
X4500Y23000D02*
D03*
X3510Y21160D02*
D03*
X4490Y23840D02*
D03*
X4500Y22150D02*
D03*
X4490Y21160D02*
D03*
X3510Y15010D02*
D03*
Y13180D02*
D03*
Y15820D02*
D03*
X4490Y13180D02*
D03*
Y15820D02*
D03*
X3750Y5750D02*
D03*
Y6750D02*
D03*
Y7750D02*
D03*
X1750D02*
D03*
Y5750D02*
D03*
X6000Y13250D02*
D03*
Y9250D02*
D03*
Y14250D02*
D03*
Y15250D02*
D03*
X10250Y33000D02*
D03*
X8250D02*
D03*
X9750Y30750D02*
D03*
X1750Y32250D02*
D03*
Y28250D02*
D03*
X3500D02*
D03*
Y32250D02*
D03*
X5750Y33500D02*
D03*
X1750D02*
D03*
X6000Y20500D02*
D03*
X7000D02*
D03*
X6000Y23250D02*
D03*
X7000D02*
D03*
X8750Y28500D02*
D03*
X9750Y27500D02*
D03*
X8750Y26500D02*
D03*
X6000Y25750D02*
D03*
X7000D02*
D03*
X6000Y19250D02*
D03*
X7000D02*
D03*
X6000Y21750D02*
D03*
X7000D02*
D03*
X6000Y24500D02*
D03*
X7000D02*
D03*
X750Y18500D02*
D03*
X4750D02*
D03*
X750Y26500D02*
D03*
X4750D02*
D03*
Y10500D02*
D03*
X750D02*
D03*
Y9250D02*
D03*
X4750D02*
D03*
X5750Y29500D02*
D03*
X4750Y30500D02*
D03*
X5750Y31500D02*
D03*
X15500Y25750D02*
D03*
Y24750D02*
D03*
Y28750D02*
D03*
Y27750D02*
D03*
X18500Y25750D02*
D03*
Y24750D02*
D03*
Y28750D02*
D03*
Y27750D02*
D03*
Y30750D02*
D03*
X15500Y26750D02*
D03*
Y29750D02*
D03*
X18500Y26750D02*
D03*
Y29750D02*
D03*
X55750Y1750D02*
D03*
Y2750D02*
D03*
Y3750D02*
D03*
Y4750D02*
D03*
Y5750D02*
D03*
Y6750D02*
D03*
Y7750D02*
D03*
Y8750D02*
D03*
Y9750D02*
D03*
Y10750D02*
D03*
X52750Y1750D02*
D03*
Y2750D02*
D03*
Y3750D02*
D03*
Y4750D02*
D03*
Y5750D02*
D03*
Y6750D02*
D03*
Y7750D02*
D03*
Y8750D02*
D03*
Y9750D02*
D03*
X18500Y1750D02*
D03*
Y2750D02*
D03*
Y3750D02*
D03*
Y4750D02*
D03*
Y5750D02*
D03*
Y6750D02*
D03*
Y7750D02*
D03*
Y8750D02*
D03*
Y9750D02*
D03*
Y10750D02*
D03*
Y11750D02*
D03*
Y12750D02*
D03*
Y13750D02*
D03*
Y14750D02*
D03*
Y15750D02*
D03*
Y16750D02*
D03*
Y17750D02*
D03*
Y18750D02*
D03*
Y19750D02*
D03*
Y20750D02*
D03*
X12500Y1750D02*
D03*
Y2750D02*
D03*
Y3750D02*
D03*
Y4750D02*
D03*
Y5750D02*
D03*
Y6750D02*
D03*
Y7750D02*
D03*
Y8750D02*
D03*
Y9750D02*
D03*
Y10750D02*
D03*
Y11750D02*
D03*
Y12750D02*
D03*
Y13750D02*
D03*
Y14750D02*
D03*
Y15750D02*
D03*
Y16750D02*
D03*
Y17750D02*
D03*
Y18750D02*
D03*
Y19750D02*
D03*
X30500Y1750D02*
D03*
Y2750D02*
D03*
Y3750D02*
D03*
Y4750D02*
D03*
Y5750D02*
D03*
Y6750D02*
D03*
Y7750D02*
D03*
Y8750D02*
D03*
Y9750D02*
D03*
Y10750D02*
D03*
Y11750D02*
D03*
Y12750D02*
D03*
Y13750D02*
D03*
Y14750D02*
D03*
Y15750D02*
D03*
Y16750D02*
D03*
X24500Y1750D02*
D03*
Y2750D02*
D03*
Y3750D02*
D03*
Y4750D02*
D03*
Y5750D02*
D03*
Y6750D02*
D03*
Y7750D02*
D03*
Y8750D02*
D03*
Y9750D02*
D03*
Y10750D02*
D03*
Y11750D02*
D03*
Y12750D02*
D03*
Y13750D02*
D03*
Y14750D02*
D03*
Y15750D02*
D03*
X30250Y24750D02*
D03*
Y25750D02*
D03*
Y26750D02*
D03*
Y27750D02*
D03*
Y28750D02*
D03*
Y29750D02*
D03*
Y30750D02*
D03*
Y31750D02*
D03*
Y32750D02*
D03*
Y33750D02*
D03*
Y34750D02*
D03*
Y35750D02*
D03*
Y36750D02*
D03*
Y37750D02*
D03*
Y38750D02*
D03*
Y39750D02*
D03*
Y40750D02*
D03*
Y41750D02*
D03*
Y42750D02*
D03*
Y43750D02*
D03*
X24250Y24750D02*
D03*
Y25750D02*
D03*
Y26750D02*
D03*
Y27750D02*
D03*
Y28750D02*
D03*
Y29750D02*
D03*
Y30750D02*
D03*
Y31750D02*
D03*
Y32750D02*
D03*
Y33750D02*
D03*
Y34750D02*
D03*
Y35750D02*
D03*
Y36750D02*
D03*
Y37750D02*
D03*
Y38750D02*
D03*
Y39750D02*
D03*
Y40750D02*
D03*
Y41750D02*
D03*
Y42750D02*
D03*
X58500Y13750D02*
D03*
Y12750D02*
D03*
Y11750D02*
D03*
Y10750D02*
D03*
Y9750D02*
D03*
Y8750D02*
D03*
Y7750D02*
D03*
Y6750D02*
D03*
Y5750D02*
D03*
Y4750D02*
D03*
Y3750D02*
D03*
Y2750D02*
D03*
Y1750D02*
D03*
X64500Y14750D02*
D03*
Y13750D02*
D03*
Y12750D02*
D03*
Y11750D02*
D03*
Y10750D02*
D03*
Y9750D02*
D03*
Y8750D02*
D03*
Y7750D02*
D03*
Y6750D02*
D03*
Y5750D02*
D03*
Y4750D02*
D03*
Y3750D02*
D03*
Y2750D02*
D03*
Y1750D02*
D03*
X36500D02*
D03*
Y2750D02*
D03*
Y3750D02*
D03*
Y4750D02*
D03*
Y5750D02*
D03*
Y6750D02*
D03*
Y7750D02*
D03*
Y8750D02*
D03*
Y9750D02*
D03*
Y10750D02*
D03*
X33500Y1750D02*
D03*
Y2750D02*
D03*
Y3750D02*
D03*
Y4750D02*
D03*
Y5750D02*
D03*
Y6750D02*
D03*
Y7750D02*
D03*
Y8750D02*
D03*
Y9750D02*
D03*
X50000Y1750D02*
D03*
Y2750D02*
D03*
Y3750D02*
D03*
Y4750D02*
D03*
Y5750D02*
D03*
Y6750D02*
D03*
Y7750D02*
D03*
Y8750D02*
D03*
Y9750D02*
D03*
Y10750D02*
D03*
X47000Y1750D02*
D03*
Y2750D02*
D03*
Y3750D02*
D03*
Y4750D02*
D03*
Y5750D02*
D03*
Y6750D02*
D03*
Y7750D02*
D03*
Y8750D02*
D03*
Y9750D02*
D03*
X44500Y1750D02*
D03*
Y2750D02*
D03*
Y3750D02*
D03*
Y4750D02*
D03*
Y5750D02*
D03*
Y6750D02*
D03*
Y7750D02*
D03*
Y8750D02*
D03*
Y9750D02*
D03*
Y10750D02*
D03*
Y11750D02*
D03*
Y12750D02*
D03*
Y13750D02*
D03*
Y14750D02*
D03*
Y15750D02*
D03*
Y16750D02*
D03*
X38500Y1750D02*
D03*
Y2750D02*
D03*
Y3750D02*
D03*
Y4750D02*
D03*
Y5750D02*
D03*
Y6750D02*
D03*
Y7750D02*
D03*
Y8750D02*
D03*
Y9750D02*
D03*
Y10750D02*
D03*
Y11750D02*
D03*
Y12750D02*
D03*
Y13750D02*
D03*
Y14750D02*
D03*
Y15750D02*
D03*
X62250Y24750D02*
D03*
Y25750D02*
D03*
Y26750D02*
D03*
Y27750D02*
D03*
Y28750D02*
D03*
Y29750D02*
D03*
Y30750D02*
D03*
Y31750D02*
D03*
Y32750D02*
D03*
Y33750D02*
D03*
Y34750D02*
D03*
Y35750D02*
D03*
Y36750D02*
D03*
Y37750D02*
D03*
Y38750D02*
D03*
Y39750D02*
D03*
Y40750D02*
D03*
Y41750D02*
D03*
Y42750D02*
D03*
Y43750D02*
D03*
X56250Y24750D02*
D03*
Y25750D02*
D03*
Y26750D02*
D03*
Y27750D02*
D03*
Y28750D02*
D03*
Y29750D02*
D03*
Y30750D02*
D03*
Y31750D02*
D03*
Y32750D02*
D03*
Y33750D02*
D03*
Y34750D02*
D03*
Y35750D02*
D03*
Y36750D02*
D03*
Y37750D02*
D03*
Y38750D02*
D03*
Y39750D02*
D03*
Y40750D02*
D03*
Y41750D02*
D03*
Y42750D02*
D03*
X21000Y9000D02*
D03*
Y11000D02*
D03*
X11000Y20250D02*
D03*
X15000Y39250D02*
D03*
Y35250D02*
D03*
X10750Y6250D02*
D03*
X21000Y6000D02*
D03*
Y8000D02*
D03*
X65750Y12750D02*
D03*
Y14750D02*
D03*
X64500Y29750D02*
D03*
Y25750D02*
D03*
X56750Y9000D02*
D03*
Y11000D02*
D03*
X51000Y8750D02*
D03*
Y10750D02*
D03*
X55000Y38750D02*
D03*
Y34750D02*
D03*
X11000Y8500D02*
D03*
Y12500D02*
D03*
X9750Y9500D02*
D03*
Y13500D02*
D03*
X11000Y17500D02*
D03*
Y13500D02*
D03*
X19750Y20250D02*
D03*
Y16250D02*
D03*
Y4750D02*
D03*
Y8750D02*
D03*
Y14750D02*
D03*
Y10750D02*
D03*
X21000Y12000D02*
D03*
Y16000D02*
D03*
Y21250D02*
D03*
Y17250D02*
D03*
Y1000D02*
D03*
Y5000D02*
D03*
X45750Y16750D02*
D03*
Y14750D02*
D03*
X37500Y8750D02*
D03*
Y10750D02*
D03*
X31500Y14750D02*
D03*
Y16750D02*
D03*
X63500Y32750D02*
D03*
Y34750D02*
D03*
X23000Y31500D02*
D03*
Y33500D02*
D03*
X40250Y38250D02*
D03*
X41250Y37250D02*
D03*
Y38250D02*
D03*
X42250Y37250D02*
D03*
Y38250D02*
D03*
X43250Y37250D02*
D03*
Y38250D02*
D03*
X44250Y37250D02*
D03*
Y38250D02*
D03*
X13750Y30000D02*
D03*
Y28000D02*
D03*
X12000Y30000D02*
D03*
Y29000D02*
D03*
X15000Y40750D02*
D03*
Y44750D02*
D03*
X13750Y41750D02*
D03*
Y37750D02*
D03*
X16250D02*
D03*
Y41750D02*
D03*
Y36250D02*
D03*
Y35250D02*
D03*
X23000Y34750D02*
D03*
Y35750D02*
D03*
X63250Y24750D02*
D03*
Y28750D02*
D03*
X19750Y35750D02*
D03*
X20750Y36750D02*
D03*
X19750D02*
D03*
X20750Y37750D02*
D03*
X19750D02*
D03*
X20750Y38750D02*
D03*
X19750D02*
D03*
X20750Y39750D02*
D03*
X19750D02*
D03*
D19*
X7500Y2500D02*
D03*
X3510Y23010D02*
D03*
Y13990D02*
D03*
X12500Y20750D02*
D03*
X24500Y16750D02*
D03*
X38500D02*
D03*
X9750Y6250D02*
D03*
X20750Y35750D02*
D03*
D21*
X2750Y2750D02*
D03*
X4050Y750D02*
D03*
X5250Y2700D02*
D03*
D22*
X8750Y30750D02*
D03*
X15500D02*
D03*
X52750Y10750D02*
D03*
X24250Y43750D02*
D03*
X58500Y14750D02*
D03*
X33500Y10750D02*
D03*
X47000D02*
D03*
X56250Y43750D02*
D03*
X10000Y20250D02*
D03*
X40250Y37250D02*
D03*
D23*
X25960Y5750D02*
D03*
X58105Y33865D02*
D03*
X49445Y9565D02*
D03*
X40135Y5585D02*
D03*
X40905Y9750D02*
D03*
X32945Y6305D02*
D03*
X61802Y16673D02*
D03*
X43355Y19372D02*
D03*
X33155Y15205D02*
D03*
X43495Y13405D02*
D03*
X39555Y33695D02*
D03*
X28705Y39255D02*
D03*
X30705Y40255D02*
D03*
X26045Y11205D02*
D03*
X46745Y12255D02*
D03*
X64985Y18795D02*
D03*
X47655Y11585D02*
D03*
X31550Y11750D02*
D03*
X32045Y11255D02*
D03*
X33115Y41795D02*
D03*
X34455Y28245D02*
D03*
X39425Y6715D02*
D03*
X35025Y9200D02*
D03*
Y7255D02*
D03*
X32985Y28750D02*
D03*
X31625Y41465D02*
D03*
X25150Y344D02*
D03*
X47295Y625D02*
D03*
X32665Y31205D02*
D03*
X34583Y41297D02*
D03*
X37535Y12750D02*
D03*
X45125Y2705D02*
D03*
X43945Y3405D02*
D03*
X39285Y4005D02*
D03*
X42835Y40875D02*
D03*
X31935Y40675D02*
D03*
X45555Y32125D02*
D03*
X44025Y26955D02*
D03*
X45336Y25305D02*
D03*
X39245Y26015D02*
D03*
X39155Y32435D02*
D03*
X37875D02*
D03*
X35445Y27245D02*
D03*
X33875Y25675D02*
D03*
Y24195D02*
D03*
X47850Y1332D02*
D03*
X9205Y33794D02*
D03*
X39665Y21105D02*
D03*
X38685Y35075D02*
D03*
Y36945D02*
D03*
X7485Y40965D02*
D03*
X11255Y28545D02*
D03*
X45965Y28495D02*
D03*
X22415Y16778D02*
D03*
X17055Y43145D02*
D03*
Y18195D02*
D03*
X17245Y15495D02*
D03*
X25105Y18537D02*
D03*
X33585Y43595D02*
D03*
X35295Y41885D02*
D03*
X60205Y41315D02*
D03*
X59765Y33175D02*
D03*
X22655Y15545D02*
D03*
X24555Y19045D02*
D03*
X19995Y3255D02*
D03*
X45285Y5295D02*
D03*
X16935Y12185D02*
D03*
Y4255D02*
D03*
X32635Y44175D02*
D03*
X16935Y13205D02*
D03*
X51050Y4205D02*
D03*
Y3605D02*
D03*
X52995Y29555D02*
D03*
X38845Y32125D02*
D03*
X44075Y31605D02*
D03*
X22035Y13845D02*
D03*
X47711Y37949D02*
D03*
X44395Y17655D02*
D03*
X49255Y33225D02*
D03*
X47845Y15502D02*
D03*
X28995Y30895D02*
D03*
X28755Y6755D02*
D03*
X28355Y515D02*
D03*
X48337Y981D02*
D03*
X63955Y44575D02*
D03*
X44105Y25595D02*
D03*
X45535Y11035D02*
D03*
X43065Y18975D02*
D03*
X38000Y19310D02*
D03*
X64955Y17435D02*
D03*
X52135Y16635D02*
D03*
X51255Y18962D02*
D03*
X36555Y18995D02*
D03*
X35145Y24555D02*
D03*
X65605Y10415D02*
D03*
X43517Y25250D02*
D03*
X56025Y24195D02*
D03*
X51605Y23965D02*
D03*
X50155Y37655D02*
D03*
X48375Y39435D02*
D03*
X44915Y35655D02*
D03*
X41245Y35515D02*
D03*
Y34795D02*
D03*
X43825Y32705D02*
D03*
Y30745D02*
D03*
X40205Y31215D02*
D03*
X40085Y30305D02*
D03*
X38305Y29635D02*
D03*
X37845Y18785D02*
D03*
X56525Y24245D02*
D03*
X34735Y30250D02*
D03*
Y36135D02*
D03*
X49905Y35525D02*
D03*
X48945Y18225D02*
D03*
X35015Y17635D02*
D03*
Y21845D02*
D03*
X53315Y5855D02*
D03*
X53735Y16715D02*
D03*
X60395Y16205D02*
D03*
X53725Y25945D02*
D03*
X39265Y2295D02*
D03*
X50785Y1065D02*
D03*
X41155Y21705D02*
D03*
X45355Y9085D02*
D03*
X48845Y8235D02*
D03*
Y1755D02*
D03*
X46915Y14005D02*
D03*
X60455Y17235D02*
D03*
X33270Y16750D02*
D03*
X43260Y21180D02*
D03*
X46555Y35175D02*
D03*
X44965Y19255D02*
D03*
X54820Y22222D02*
D03*
X55032Y4255D02*
D03*
X56925Y3050D02*
D03*
Y7515D02*
D03*
X59505Y9125D02*
D03*
X59915Y32075D02*
D03*
X51185Y31065D02*
D03*
Y29585D02*
D03*
X48545Y29025D02*
D03*
X45835Y26665D02*
D03*
X45865Y27405D02*
D03*
Y28025D02*
D03*
X41515D02*
D03*
X55040Y25705D02*
D03*
X60985Y30255D02*
D03*
X45335Y29505D02*
D03*
X44545Y24345D02*
D03*
X62385Y19455D02*
D03*
X57465Y19745D02*
D03*
X56745Y23585D02*
D03*
X52645D02*
D03*
Y32055D02*
D03*
X40955Y30435D02*
D03*
X42135Y23995D02*
D03*
X61295Y7295D02*
D03*
Y17555D02*
D03*
X42745Y14905D02*
D03*
X54985Y7755D02*
D03*
X55081Y21671D02*
D03*
X44275Y18955D02*
D03*
X54985Y5125D02*
D03*
X56705Y25305D02*
D03*
X41555Y19315D02*
D03*
X41565Y15215D02*
D03*
X34135Y28965D02*
D03*
X32355Y40455D02*
D03*
X65465Y40295D02*
D03*
X58415Y25085D02*
D03*
X45175Y34795D02*
D03*
X12035Y37685D02*
D03*
X46205Y15635D02*
D03*
X25295Y32295D02*
D03*
X45995Y21195D02*
D03*
X48025Y4755D02*
D03*
X63205Y16255D02*
D03*
X50655Y14685D02*
D03*
X49855Y18285D02*
D03*
X36655Y17994D02*
D03*
X35055Y33755D02*
D03*
X34195Y14155D02*
D03*
X50285Y28355D02*
D03*
Y32725D02*
D03*
X51165Y6405D02*
D03*
X51565Y7875D02*
D03*
X45865Y8095D02*
D03*
X23695Y26505D02*
D03*
X28665Y5515D02*
D03*
X28715Y3750D02*
D03*
X47845Y14375D02*
D03*
X47155Y13155D02*
D03*
X43580Y10750D02*
D03*
X37000Y19440D02*
D03*
X63305Y27315D02*
D03*
X38955Y20005D02*
D03*
X50215Y26065D02*
D03*
Y27205D02*
D03*
X59505D02*
D03*
X40460Y4700D02*
D03*
X53665Y2465D02*
D03*
X54705D02*
D03*
X57645Y3325D02*
D03*
X59195Y28255D02*
D03*
X43195Y27295D02*
D03*
X43925Y34795D02*
D03*
X55265Y35545D02*
D03*
X44259Y36475D02*
D03*
X28755Y44355D02*
D03*
X29985Y45585D02*
D03*
X60645Y42255D02*
D03*
X58685Y30455D02*
D03*
X33825Y30795D02*
D03*
Y41275D02*
D03*
X34645Y7750D02*
D03*
X34335Y20795D02*
D03*
X56605Y8135D02*
D03*
X35455Y23755D02*
D03*
X64455Y44025D02*
D03*
Y30985D02*
D03*
X47000Y16700D02*
D03*
X24045Y21425D02*
D03*
X45165Y6515D02*
D03*
X19295Y19655D02*
D03*
X27075Y30065D02*
D03*
X23795Y43195D02*
D03*
X44595Y40355D02*
D03*
X32845Y11745D02*
D03*
D24*
X2330Y19850D02*
D03*
X2010Y22500D02*
D03*
X2330Y25150D02*
D03*
Y11840D02*
D03*
X2010Y14500D02*
D03*
X2330Y17160D02*
D03*
M02*
