G75*
G70*
%OFA0B0*%
%FSLAX24Y24*%
%IPPOS*%
%LPD*%
%AMOC8*
5,1,8,0,0,1.08239X$1,22.5*
%
%ADD10C,0.0060*%
%ADD11C,0.0040*%
%ADD12R,0.0551X0.0256*%
%ADD13R,0.0256X0.0551*%
%ADD14R,0.0290X0.0690*%
%ADD15R,0.0571X0.0295*%
%ADD16R,0.0669X0.0295*%
%ADD17R,0.0560X0.0140*%
%ADD18R,0.0140X0.0560*%
%ADD19C,0.0050*%
%ADD20R,0.0100X0.0200*%
%ADD21R,0.0295X0.0571*%
D10*
X024456Y032538D02*
X025356Y032538D01*
X025456Y032638D01*
X025556Y032538D01*
X026356Y032538D01*
X026456Y032638D01*
X026556Y032538D01*
X027356Y032538D01*
X027456Y032638D01*
X027556Y032538D01*
X028356Y032538D01*
X028456Y032638D01*
X028556Y032538D01*
X029356Y032538D01*
X029456Y032638D01*
X029556Y032538D01*
X030356Y032538D01*
X030456Y032638D01*
X030556Y032538D01*
X031456Y032538D01*
X031456Y033538D01*
X030556Y033538D01*
X030456Y033438D01*
X030356Y033538D01*
X029556Y033538D01*
X029456Y033438D01*
X029356Y033538D01*
X028556Y033538D01*
X028456Y033438D01*
X028356Y033538D01*
X027556Y033538D01*
X027456Y033438D01*
X027356Y033538D01*
X026556Y033538D01*
X026456Y033438D01*
X026356Y033538D01*
X025556Y033538D01*
X025456Y033438D01*
X025356Y033538D01*
X024456Y033538D01*
X024456Y032538D01*
X024756Y032838D02*
X024756Y033238D01*
X024856Y033238D01*
X024856Y033338D01*
X025056Y033338D01*
X025056Y033238D01*
X025156Y033238D01*
X025156Y032838D01*
X025056Y032838D01*
X025056Y032738D01*
X024856Y032738D01*
X024856Y032838D01*
X024756Y032838D01*
X025756Y032838D02*
X025756Y033238D01*
X025856Y033238D01*
X025856Y033338D01*
X026056Y033338D01*
X026056Y033238D01*
X026156Y033238D01*
X026156Y032838D01*
X026056Y032838D01*
X026056Y032738D01*
X025856Y032738D01*
X025856Y032838D01*
X025756Y032838D01*
X026756Y032838D02*
X026756Y033238D01*
X026856Y033238D01*
X026856Y033338D01*
X027056Y033338D01*
X027056Y033238D01*
X027156Y033238D01*
X027156Y032838D01*
X027056Y032838D01*
X027056Y032738D01*
X026856Y032738D01*
X026856Y032838D01*
X026756Y032838D01*
X027756Y032838D02*
X027756Y033238D01*
X027856Y033238D01*
X027856Y033338D01*
X028056Y033338D01*
X028056Y033238D01*
X028156Y033238D01*
X028156Y032838D01*
X028056Y032838D01*
X028056Y032738D01*
X027856Y032738D01*
X027856Y032838D01*
X027756Y032838D01*
X028756Y032838D02*
X028756Y033238D01*
X028856Y033238D01*
X028856Y033338D01*
X029056Y033338D01*
X029056Y033238D01*
X029156Y033238D01*
X029156Y032838D01*
X029056Y032838D01*
X029056Y032738D01*
X028856Y032738D01*
X028856Y032838D01*
X028756Y032838D01*
X029756Y032838D02*
X029756Y033238D01*
X029856Y033238D01*
X029856Y033338D01*
X030056Y033338D01*
X030056Y033238D01*
X030156Y033238D01*
X030156Y032838D01*
X030056Y032838D01*
X030056Y032738D01*
X029856Y032738D01*
X029856Y032838D01*
X029756Y032838D01*
X030756Y032838D02*
X030756Y033238D01*
X030856Y033238D01*
X030856Y033338D01*
X031056Y033338D01*
X031056Y033238D01*
X031156Y033238D01*
X031156Y032838D01*
X031056Y032838D01*
X031056Y032738D01*
X030856Y032738D01*
X030856Y032838D01*
X030756Y032838D01*
X031456Y032538D02*
X032356Y032538D01*
X032456Y032638D01*
X032556Y032538D01*
X033356Y032538D01*
X033456Y032638D01*
X033556Y032538D01*
X034356Y032538D01*
X034456Y032638D01*
X034556Y032538D01*
X035356Y032538D01*
X035456Y032638D01*
X035556Y032538D01*
X036356Y032538D01*
X036456Y032638D01*
X036556Y032538D01*
X037356Y032538D01*
X037456Y032638D01*
X037556Y032538D01*
X038456Y032538D01*
X038456Y033538D01*
X037556Y033538D01*
X037456Y033438D01*
X037356Y033538D01*
X036556Y033538D01*
X036456Y033438D01*
X036356Y033538D01*
X035556Y033538D01*
X035456Y033438D01*
X035356Y033538D01*
X034556Y033538D01*
X034456Y033438D01*
X034356Y033538D01*
X033556Y033538D01*
X033456Y033438D01*
X033356Y033538D01*
X032556Y033538D01*
X032456Y033438D01*
X032356Y033538D01*
X031456Y033538D01*
X031456Y032538D01*
X031756Y032838D02*
X031756Y033238D01*
X031856Y033238D01*
X031856Y033338D01*
X032056Y033338D01*
X032056Y033238D01*
X032156Y033238D01*
X032156Y032838D01*
X032056Y032838D01*
X032056Y032738D01*
X031856Y032738D01*
X031856Y032838D01*
X031756Y032838D01*
X032756Y032838D02*
X032756Y033238D01*
X032856Y033238D01*
X032856Y033338D01*
X033056Y033338D01*
X033056Y033238D01*
X033156Y033238D01*
X033156Y032838D01*
X033056Y032838D01*
X033056Y032738D01*
X032856Y032738D01*
X032856Y032838D01*
X032756Y032838D01*
X033756Y032838D02*
X033756Y033238D01*
X033856Y033238D01*
X033856Y033338D01*
X034056Y033338D01*
X034056Y033238D01*
X034156Y033238D01*
X034156Y032838D01*
X034056Y032838D01*
X034056Y032738D01*
X033856Y032738D01*
X033856Y032838D01*
X033756Y032838D01*
X034756Y032838D02*
X034756Y033238D01*
X034856Y033238D01*
X034856Y033338D01*
X035056Y033338D01*
X035056Y033238D01*
X035156Y033238D01*
X035156Y032838D01*
X035056Y032838D01*
X035056Y032738D01*
X034856Y032738D01*
X034856Y032838D01*
X034756Y032838D01*
X035756Y032838D02*
X035756Y033238D01*
X035856Y033238D01*
X035856Y033338D01*
X036056Y033338D01*
X036056Y033238D01*
X036156Y033238D01*
X036156Y032838D01*
X036056Y032838D01*
X036056Y032738D01*
X035856Y032738D01*
X035856Y032838D01*
X035756Y032838D01*
X036756Y032838D02*
X036756Y033238D01*
X036856Y033238D01*
X036856Y033338D01*
X037056Y033338D01*
X037056Y033238D01*
X037156Y033238D01*
X037156Y032838D01*
X037056Y032838D01*
X037056Y032738D01*
X036856Y032738D01*
X036856Y032838D01*
X036756Y032838D01*
X037756Y032838D02*
X037756Y033238D01*
X037856Y033238D01*
X037856Y033338D01*
X038056Y033338D01*
X038056Y033238D01*
X038156Y033238D01*
X038156Y032838D01*
X038056Y032838D01*
X038056Y032738D01*
X037856Y032738D01*
X037856Y032838D01*
X037756Y032838D01*
X048581Y023074D02*
X048581Y022752D01*
X049081Y022752D02*
X049081Y023074D01*
X052581Y027252D02*
X052581Y027574D01*
X053081Y027574D02*
X053081Y027252D01*
X053831Y027377D02*
X053831Y027699D01*
X054331Y027699D02*
X054331Y027377D01*
X054795Y027913D02*
X055117Y027913D01*
X055117Y028413D02*
X054795Y028413D01*
X054795Y028663D02*
X055117Y028663D01*
X055117Y029163D02*
X054795Y029163D01*
X053117Y029163D02*
X052795Y029163D01*
X052795Y028663D02*
X053117Y028663D01*
X058045Y024288D02*
X058367Y024288D01*
X058367Y023788D02*
X058045Y023788D01*
X055711Y034593D02*
X054956Y034593D01*
X054956Y035233D02*
X055711Y035233D01*
X055706Y035593D02*
X054951Y035593D01*
X054951Y036233D02*
X055706Y036233D01*
X060451Y039718D02*
X061206Y039718D01*
X061206Y040358D02*
X060451Y040358D01*
X061206Y041002D02*
X061206Y041324D01*
X061706Y041324D02*
X061706Y041002D01*
X063581Y040074D02*
X063581Y039752D01*
X064081Y039752D02*
X064081Y040074D01*
X065331Y045127D02*
X065331Y045449D01*
X065831Y045449D02*
X065831Y045127D01*
X064117Y047538D02*
X063795Y047538D01*
X063795Y048038D02*
X064117Y048038D01*
X059242Y048913D02*
X058920Y048913D01*
X058920Y049413D02*
X059242Y049413D01*
X057456Y047949D02*
X057456Y047627D01*
X056956Y047627D02*
X056956Y047949D01*
X055456Y050502D02*
X055456Y050824D01*
X054956Y050824D02*
X054956Y050502D01*
X054581Y050502D02*
X054581Y050824D01*
X054081Y050824D02*
X054081Y050502D01*
X053706Y050383D02*
X053706Y050943D01*
X053206Y050943D02*
X053206Y050383D01*
X052831Y050383D02*
X052831Y050943D01*
X052331Y050943D02*
X052331Y050383D01*
X051611Y050538D02*
X051051Y050538D01*
X051051Y050038D02*
X051611Y050038D01*
X050331Y050502D02*
X050331Y050824D01*
X049831Y050824D02*
X049831Y050502D01*
X051956Y048068D02*
X051956Y047508D01*
X052456Y047508D02*
X052456Y048068D01*
X052158Y046788D02*
X051835Y046788D01*
X051835Y046288D02*
X052158Y046288D01*
X047456Y057377D02*
X047456Y057699D01*
X046956Y057699D02*
X046956Y057377D01*
X046581Y058377D02*
X046581Y058699D01*
X046081Y058699D02*
X046081Y058377D01*
X046956Y059377D02*
X046956Y059699D01*
X047456Y059699D02*
X047456Y059377D01*
X046581Y060377D02*
X046581Y060699D01*
X046081Y060699D02*
X046081Y060377D01*
X030367Y052788D02*
X030045Y052788D01*
X030045Y052288D02*
X030367Y052288D01*
X027992Y051663D02*
X027670Y051663D01*
X027670Y051163D02*
X027992Y051163D01*
X027117Y050538D02*
X026795Y050538D01*
X026795Y050038D02*
X027117Y050038D01*
X027117Y049538D02*
X026795Y049538D01*
X026795Y049038D02*
X027117Y049038D01*
X030331Y049074D02*
X030331Y048752D01*
X030831Y048752D02*
X030831Y049074D01*
X032206Y049074D02*
X032206Y048752D01*
X032706Y048752D02*
X032706Y049074D01*
X072420Y017788D02*
X072742Y017788D01*
X072742Y017288D02*
X072420Y017288D01*
X072670Y016413D02*
X072992Y016413D01*
X072992Y015913D02*
X072670Y015913D01*
X073581Y015074D02*
X073581Y014752D01*
X074081Y014752D02*
X074081Y015074D01*
X074117Y013788D02*
X073795Y013788D01*
X073795Y013288D02*
X074117Y013288D01*
X074117Y012788D02*
X073795Y012788D01*
X073795Y012288D02*
X074117Y012288D01*
X073956Y011449D02*
X073956Y011127D01*
X073456Y011127D02*
X073456Y011449D01*
X072831Y011199D02*
X072831Y010877D01*
X072331Y010877D02*
X072331Y011199D01*
X071456Y012218D02*
X070701Y012218D01*
X070701Y012858D02*
X071456Y012858D01*
X072456Y012949D02*
X072456Y012627D01*
X072956Y012627D02*
X072956Y012949D01*
X073670Y009663D02*
X073992Y009663D01*
X073992Y009163D02*
X073670Y009163D01*
X073545Y018413D02*
X073867Y018413D01*
X073867Y018913D02*
X073545Y018913D01*
D11*
X030825Y022183D02*
X030748Y022260D01*
X030825Y022183D02*
X030978Y022183D01*
X031055Y022260D01*
X031055Y022567D01*
X030978Y022643D01*
X030825Y022643D01*
X030748Y022567D01*
X031208Y022643D02*
X031208Y022183D01*
X031208Y022413D02*
X031515Y022413D01*
X031669Y022490D02*
X031669Y022567D01*
X031745Y022643D01*
X031899Y022643D01*
X031976Y022567D01*
X032129Y022567D02*
X032206Y022643D01*
X032359Y022643D01*
X032436Y022567D01*
X032436Y022260D01*
X032359Y022183D01*
X032206Y022183D01*
X032129Y022260D01*
X031976Y022183D02*
X031669Y022490D01*
X031515Y022643D02*
X031515Y022183D01*
X031669Y022183D02*
X031976Y022183D01*
X032106Y021923D02*
X031806Y021923D01*
X031806Y021403D02*
X032096Y021403D01*
X047851Y021802D02*
X048311Y021802D01*
X048311Y022032D01*
X048235Y022109D01*
X048081Y022109D01*
X048004Y022032D01*
X048004Y021802D01*
X048004Y021955D02*
X047851Y022109D01*
X047851Y022262D02*
X048158Y022569D01*
X048235Y022569D01*
X048311Y022492D01*
X048311Y022339D01*
X048235Y022262D01*
X047851Y022262D02*
X047851Y022569D01*
X047851Y022723D02*
X047851Y023030D01*
X047851Y022876D02*
X048311Y022876D01*
X048158Y022723D01*
X053714Y023635D02*
X053791Y023558D01*
X053945Y023558D01*
X054021Y023635D01*
X053714Y023942D01*
X053714Y023635D01*
X053714Y023942D02*
X053791Y024018D01*
X053945Y024018D01*
X054021Y023942D01*
X054021Y023635D01*
X054175Y023635D02*
X054252Y023558D01*
X054405Y023558D01*
X054482Y023635D01*
X054482Y023711D01*
X054405Y023788D01*
X054252Y023788D01*
X054175Y023711D01*
X054175Y023635D01*
X054252Y023788D02*
X054175Y023865D01*
X054175Y023942D01*
X054252Y024018D01*
X054405Y024018D01*
X054482Y023942D01*
X054482Y023865D01*
X054405Y023788D01*
X054635Y023942D02*
X054942Y023635D01*
X054942Y023558D01*
X054635Y023558D01*
X054635Y023942D02*
X054635Y024018D01*
X054942Y024018D01*
X055096Y023942D02*
X055172Y024018D01*
X055326Y024018D01*
X055403Y023942D01*
X055403Y023635D01*
X055326Y023558D01*
X055172Y023558D01*
X055096Y023635D01*
X054231Y024278D02*
X053931Y024278D01*
X053941Y024798D02*
X054231Y024798D01*
X053811Y027183D02*
X053811Y027413D01*
X053735Y027490D01*
X053581Y027490D01*
X053504Y027413D01*
X053504Y027183D01*
X053351Y027183D02*
X053811Y027183D01*
X053504Y027336D02*
X053351Y027490D01*
X053428Y027643D02*
X053351Y027720D01*
X053351Y027874D01*
X053428Y027950D01*
X053504Y027950D01*
X053581Y027874D01*
X053581Y027797D01*
X053581Y027874D02*
X053658Y027950D01*
X053735Y027950D01*
X053811Y027874D01*
X053811Y027720D01*
X053735Y027643D01*
X053760Y027933D02*
X053914Y028086D01*
X053837Y028086D02*
X054067Y028086D01*
X054067Y027933D02*
X054067Y028393D01*
X053837Y028393D01*
X053760Y028317D01*
X053760Y028163D01*
X053837Y028086D01*
X053811Y028104D02*
X053811Y028334D01*
X053735Y028411D01*
X053428Y028411D01*
X053351Y028334D01*
X053351Y028104D01*
X053811Y028104D01*
X053607Y028086D02*
X053530Y028163D01*
X053377Y028163D01*
X053300Y028086D01*
X053300Y028010D01*
X053377Y027933D01*
X053530Y027933D01*
X053607Y028010D01*
X053607Y028086D01*
X053530Y028163D02*
X053607Y028240D01*
X053607Y028317D01*
X053530Y028393D01*
X053377Y028393D01*
X053300Y028317D01*
X053300Y028240D01*
X053377Y028163D01*
X053146Y027933D02*
X052916Y027933D01*
X052839Y028010D01*
X052839Y028317D01*
X052916Y028393D01*
X053146Y028393D01*
X053146Y027933D01*
X053958Y028760D02*
X053958Y029067D01*
X054035Y029143D01*
X054265Y029143D01*
X054265Y028683D01*
X054035Y028683D01*
X053958Y028760D01*
X054419Y028760D02*
X054419Y028836D01*
X054495Y028913D01*
X054726Y028913D01*
X054726Y028760D01*
X054649Y028683D01*
X054495Y028683D01*
X054419Y028760D01*
X054678Y028536D02*
X054985Y028536D01*
X055061Y028459D01*
X055061Y028229D01*
X054601Y028229D01*
X054601Y028459D01*
X054678Y028536D01*
X054879Y028683D02*
X055033Y028836D01*
X054956Y028836D02*
X055186Y028836D01*
X055186Y028683D02*
X055186Y029143D01*
X054956Y029143D01*
X054879Y029067D01*
X054879Y028913D01*
X054956Y028836D01*
X054726Y028913D02*
X054572Y029067D01*
X054419Y029143D01*
X054495Y029433D02*
X054495Y029893D01*
X054726Y029663D01*
X054419Y029663D01*
X054265Y029433D02*
X054035Y029433D01*
X053958Y029510D01*
X053958Y029817D01*
X054035Y029893D01*
X054265Y029893D01*
X054265Y029433D01*
X054879Y029433D02*
X055033Y029586D01*
X054956Y029586D02*
X055186Y029586D01*
X055186Y029433D02*
X055186Y029893D01*
X054956Y029893D01*
X054879Y029817D01*
X054879Y029663D01*
X054956Y029586D01*
X054985Y028075D02*
X054678Y027768D01*
X054601Y027768D01*
X054601Y027615D02*
X054754Y027461D01*
X054754Y027538D02*
X054754Y027308D01*
X054601Y027308D02*
X055061Y027308D01*
X055061Y027538D01*
X054985Y027615D01*
X054831Y027615D01*
X054754Y027538D01*
X055061Y027768D02*
X055061Y028075D01*
X054985Y028075D01*
X054885Y031308D02*
X054885Y031768D01*
X055039Y031615D01*
X055192Y031768D01*
X055192Y031308D01*
X055346Y031385D02*
X055422Y031308D01*
X055576Y031308D01*
X055653Y031385D01*
X055653Y031692D01*
X055576Y031768D01*
X055422Y031768D01*
X055346Y031692D01*
X054732Y031615D02*
X054578Y031768D01*
X054578Y031308D01*
X054425Y031308D02*
X054732Y031308D01*
X054271Y031385D02*
X054195Y031308D01*
X054041Y031308D01*
X053964Y031385D01*
X053964Y031461D01*
X054041Y031538D01*
X054271Y031538D01*
X054271Y031385D01*
X054271Y031538D02*
X054118Y031692D01*
X053964Y031768D01*
X054181Y032028D02*
X054481Y032028D01*
X054481Y032548D02*
X054191Y032548D01*
X055041Y034933D02*
X054964Y035010D01*
X054964Y035317D01*
X055041Y035393D01*
X055195Y035393D01*
X055271Y035317D01*
X055271Y035240D01*
X055195Y035163D01*
X054964Y035163D01*
X055041Y034933D02*
X055195Y034933D01*
X055271Y035010D01*
X055425Y034933D02*
X055732Y034933D01*
X055885Y034933D02*
X056039Y035086D01*
X055962Y035086D02*
X056192Y035086D01*
X056192Y034933D02*
X056192Y035393D01*
X055962Y035393D01*
X055885Y035317D01*
X055885Y035163D01*
X055962Y035086D01*
X055732Y035240D02*
X055578Y035393D01*
X055578Y034933D01*
X055504Y035433D02*
X055658Y035586D01*
X055581Y035586D02*
X055811Y035586D01*
X055811Y035433D02*
X055811Y035893D01*
X055581Y035893D01*
X055504Y035817D01*
X055504Y035663D01*
X055581Y035586D01*
X055351Y035510D02*
X055274Y035433D01*
X055120Y035433D01*
X055044Y035510D01*
X055044Y035663D01*
X055120Y035740D01*
X055197Y035740D01*
X055351Y035663D01*
X055351Y035893D01*
X055044Y035893D01*
X054890Y035893D02*
X054660Y035893D01*
X054583Y035817D01*
X054583Y035510D01*
X054660Y035433D01*
X054890Y035433D01*
X054890Y035893D01*
X060464Y039135D02*
X060464Y039442D01*
X060541Y039518D01*
X060771Y039518D01*
X060771Y039058D01*
X060541Y039058D01*
X060464Y039135D01*
X060925Y039058D02*
X061232Y039058D01*
X060925Y039365D01*
X060925Y039442D01*
X061002Y039518D01*
X061155Y039518D01*
X061232Y039442D01*
X061385Y039442D02*
X061385Y039288D01*
X061462Y039211D01*
X061692Y039211D01*
X061692Y039058D02*
X061692Y039518D01*
X061462Y039518D01*
X061385Y039442D01*
X061539Y039211D02*
X061385Y039058D01*
X060936Y040052D02*
X060936Y040282D01*
X060860Y040359D01*
X060706Y040359D01*
X060629Y040282D01*
X060629Y040052D01*
X060476Y040052D02*
X060936Y040052D01*
X060629Y040205D02*
X060476Y040359D01*
X060476Y040512D02*
X060476Y040819D01*
X060476Y040666D02*
X060936Y040666D01*
X060783Y040512D01*
X060936Y040973D02*
X060936Y041203D01*
X060860Y041280D01*
X060553Y041280D01*
X060476Y041203D01*
X060476Y040973D01*
X060936Y040973D01*
X062851Y039953D02*
X062851Y039799D01*
X062928Y039723D01*
X063235Y040030D01*
X062928Y040030D01*
X062851Y039953D01*
X062928Y039723D02*
X063235Y039723D01*
X063311Y039799D01*
X063311Y039953D01*
X063235Y040030D01*
X063235Y039569D02*
X063311Y039492D01*
X063311Y039339D01*
X063235Y039262D01*
X063235Y039109D02*
X063081Y039109D01*
X063004Y039032D01*
X063004Y038802D01*
X062851Y038802D02*
X063311Y038802D01*
X063311Y039032D01*
X063235Y039109D01*
X063004Y038955D02*
X062851Y039109D01*
X062851Y039262D02*
X063158Y039569D01*
X063235Y039569D01*
X062851Y039569D02*
X062851Y039262D01*
X065726Y041635D02*
X065726Y041788D01*
X065803Y041865D01*
X065803Y042018D02*
X065726Y042095D01*
X065726Y042249D01*
X065803Y042325D01*
X065956Y042325D01*
X066033Y042249D01*
X066033Y042172D01*
X065956Y042018D01*
X066186Y042018D01*
X066186Y042325D01*
X066186Y042479D02*
X066186Y042709D01*
X066110Y042786D01*
X065956Y042786D01*
X065879Y042709D01*
X065879Y042479D01*
X065726Y042479D02*
X066186Y042479D01*
X066110Y041865D02*
X066186Y041788D01*
X066186Y041635D01*
X066110Y041558D01*
X065803Y041558D01*
X065726Y041635D01*
X065466Y041888D02*
X065466Y042188D01*
X064946Y042188D02*
X064946Y041898D01*
X066101Y045058D02*
X066561Y045058D01*
X066561Y045288D01*
X066485Y045365D01*
X066331Y045365D01*
X066254Y045288D01*
X066254Y045058D01*
X066254Y045211D02*
X066101Y045365D01*
X066101Y045518D02*
X066408Y045825D01*
X066485Y045825D01*
X066561Y045749D01*
X066561Y045595D01*
X066485Y045518D01*
X066101Y045518D02*
X066101Y045825D01*
X066178Y045979D02*
X066101Y046056D01*
X066101Y046209D01*
X066178Y046286D01*
X066254Y046286D01*
X066331Y046209D01*
X066331Y046132D01*
X066331Y046209D02*
X066408Y046286D01*
X066485Y046286D01*
X066561Y046209D01*
X066561Y046056D01*
X066485Y045979D01*
X064186Y048308D02*
X064186Y048768D01*
X063956Y048768D01*
X063879Y048692D01*
X063879Y048538D01*
X063956Y048461D01*
X064186Y048461D01*
X064033Y048461D02*
X063879Y048308D01*
X063726Y048308D02*
X063419Y048615D01*
X063419Y048692D01*
X063495Y048768D01*
X063649Y048768D01*
X063726Y048692D01*
X063726Y048308D02*
X063419Y048308D01*
X063265Y048308D02*
X062958Y048615D01*
X062958Y048692D01*
X063035Y048768D01*
X063188Y048768D01*
X063265Y048692D01*
X063265Y048308D02*
X062958Y048308D01*
X060192Y048260D02*
X059885Y048567D01*
X060039Y048567D02*
X060039Y048260D01*
X059885Y048260D02*
X060192Y048567D01*
X060192Y048413D02*
X059885Y048413D01*
X059732Y048336D02*
X059502Y048336D01*
X059425Y048413D01*
X059425Y048567D01*
X059502Y048643D01*
X059732Y048643D01*
X059732Y048183D01*
X059578Y048336D02*
X059425Y048183D01*
X059271Y048183D02*
X058964Y048490D01*
X058964Y048567D01*
X059041Y048643D01*
X059195Y048643D01*
X059271Y048567D01*
X059271Y048183D02*
X058964Y048183D01*
X058186Y048325D02*
X058110Y048172D01*
X057956Y048018D01*
X057956Y048249D01*
X057879Y048325D01*
X057803Y048325D01*
X057726Y048249D01*
X057726Y048095D01*
X057803Y048018D01*
X057956Y048018D01*
X057956Y047865D02*
X057879Y047788D01*
X057879Y047558D01*
X057726Y047558D02*
X058186Y047558D01*
X058186Y047788D01*
X058110Y047865D01*
X057956Y047865D01*
X057879Y047711D02*
X057726Y047865D01*
X057726Y048479D02*
X058186Y048479D01*
X058186Y048709D01*
X058110Y048786D01*
X057956Y048786D01*
X057879Y048709D01*
X057879Y048479D01*
X055415Y049308D02*
X055415Y049768D01*
X055185Y049768D01*
X055108Y049692D01*
X055108Y049538D01*
X055185Y049461D01*
X055415Y049461D01*
X055261Y049461D02*
X055108Y049308D01*
X054955Y049308D02*
X054648Y049308D01*
X054801Y049308D02*
X054801Y049768D01*
X054955Y049615D01*
X054494Y049231D02*
X054187Y049231D01*
X054034Y049385D02*
X053957Y049308D01*
X053804Y049308D01*
X053727Y049385D01*
X053573Y049308D02*
X053266Y049768D01*
X053113Y049615D02*
X052959Y049768D01*
X052806Y049615D01*
X052806Y049308D01*
X052653Y049308D02*
X052346Y049615D01*
X052346Y049692D01*
X052422Y049768D01*
X052576Y049768D01*
X052653Y049692D01*
X052806Y049538D02*
X053113Y049538D01*
X053113Y049615D02*
X053113Y049308D01*
X053266Y049308D02*
X053573Y049768D01*
X053727Y049692D02*
X053804Y049768D01*
X053957Y049768D01*
X054034Y049692D01*
X054034Y049385D01*
X053976Y050183D02*
X054436Y050183D01*
X054436Y050413D01*
X054360Y050490D01*
X054206Y050490D01*
X054129Y050413D01*
X054129Y050183D01*
X054129Y050336D02*
X053976Y050490D01*
X054053Y050643D02*
X053976Y050720D01*
X053976Y050874D01*
X054053Y050950D01*
X054129Y050950D01*
X054206Y050874D01*
X054206Y050797D01*
X054206Y050874D02*
X054283Y050950D01*
X054360Y050950D01*
X054436Y050874D01*
X054436Y050720D01*
X054360Y050643D01*
X054851Y050740D02*
X055004Y050586D01*
X055004Y050663D02*
X055004Y050433D01*
X054851Y050433D02*
X055311Y050433D01*
X055311Y050663D01*
X055235Y050740D01*
X055081Y050740D01*
X055004Y050663D01*
X054928Y050893D02*
X054851Y050893D01*
X054928Y050893D02*
X055235Y051200D01*
X055311Y051200D01*
X055311Y050893D01*
X055726Y050970D02*
X055726Y051124D01*
X055803Y051200D01*
X055879Y051200D01*
X055956Y051124D01*
X055956Y050970D01*
X056033Y050893D01*
X056110Y050893D01*
X056186Y050970D01*
X056186Y051124D01*
X056110Y051200D01*
X056033Y051200D01*
X055956Y051124D01*
X055956Y050970D02*
X055879Y050893D01*
X055803Y050893D01*
X055726Y050970D01*
X055726Y050740D02*
X055879Y050586D01*
X055879Y050663D02*
X055879Y050433D01*
X055726Y050433D02*
X056186Y050433D01*
X056186Y050663D01*
X056110Y050740D01*
X055956Y050740D01*
X055879Y050663D01*
X055879Y051354D02*
X055879Y051584D01*
X055956Y051661D01*
X056110Y051661D01*
X056186Y051584D01*
X056186Y051354D01*
X055726Y051354D01*
X055311Y051354D02*
X055311Y051584D01*
X055235Y051661D01*
X055081Y051661D01*
X055004Y051584D01*
X055004Y051354D01*
X054851Y051354D02*
X055311Y051354D01*
X054436Y051641D02*
X054360Y051564D01*
X054053Y051564D01*
X053976Y051641D01*
X053976Y051794D01*
X054053Y051871D01*
X053976Y052025D02*
X054436Y052331D01*
X054283Y052485D02*
X054436Y052638D01*
X054283Y052792D01*
X053976Y052792D01*
X053976Y052945D02*
X054283Y053252D01*
X054360Y053252D01*
X054436Y053176D01*
X054436Y053022D01*
X054360Y052945D01*
X054206Y052792D02*
X054206Y052485D01*
X054283Y052485D02*
X053976Y052485D01*
X053976Y052331D02*
X054436Y052025D01*
X054360Y051871D02*
X054436Y051794D01*
X054436Y051641D01*
X053899Y051411D02*
X053899Y051104D01*
X053561Y050874D02*
X053561Y050720D01*
X053485Y050643D01*
X053485Y050490D02*
X053331Y050490D01*
X053254Y050413D01*
X053254Y050183D01*
X053101Y050183D02*
X053561Y050183D01*
X053561Y050413D01*
X053485Y050490D01*
X053254Y050336D02*
X053101Y050490D01*
X053101Y050643D02*
X053408Y050950D01*
X053485Y050950D01*
X053561Y050874D01*
X053101Y050950D02*
X053101Y050643D01*
X053024Y051104D02*
X053024Y051411D01*
X053178Y051564D02*
X053101Y051641D01*
X053101Y051794D01*
X053178Y051871D01*
X053101Y052025D02*
X053561Y052331D01*
X053408Y052485D02*
X053561Y052638D01*
X053408Y052792D01*
X053101Y052792D01*
X053101Y052945D02*
X053408Y053252D01*
X053485Y053252D01*
X053561Y053176D01*
X053561Y053022D01*
X053485Y052945D01*
X053331Y052792D02*
X053331Y052485D01*
X053408Y052485D02*
X053101Y052485D01*
X053101Y052331D02*
X053561Y052025D01*
X053485Y051871D02*
X053561Y051794D01*
X053561Y051641D01*
X053485Y051564D01*
X053178Y051564D01*
X053101Y052945D02*
X053101Y053252D01*
X053178Y053406D02*
X053485Y053713D01*
X053178Y053713D01*
X053101Y053636D01*
X053101Y053482D01*
X053178Y053406D01*
X053485Y053406D01*
X053561Y053482D01*
X053561Y053636D01*
X053485Y053713D01*
X053561Y053866D02*
X053561Y054173D01*
X053485Y054173D01*
X053178Y053866D01*
X053101Y053866D01*
X053178Y054327D02*
X053101Y054403D01*
X053101Y054557D01*
X053178Y054633D01*
X053331Y054633D01*
X053408Y054557D01*
X053408Y054480D01*
X053331Y054327D01*
X053561Y054327D01*
X053561Y054633D01*
X053976Y054557D02*
X053976Y054403D01*
X054053Y054327D01*
X054206Y054327D02*
X054283Y054480D01*
X054283Y054557D01*
X054206Y054633D01*
X054053Y054633D01*
X053976Y054557D01*
X054206Y054327D02*
X054436Y054327D01*
X054436Y054633D01*
X054436Y054173D02*
X054360Y054173D01*
X054053Y053866D01*
X053976Y053866D01*
X054053Y053713D02*
X053976Y053636D01*
X053976Y053482D01*
X054053Y053406D01*
X054360Y053713D01*
X054053Y053713D01*
X054360Y053713D02*
X054436Y053636D01*
X054436Y053482D01*
X054360Y053406D01*
X054053Y053406D01*
X053976Y053252D02*
X053976Y052945D01*
X054436Y053866D02*
X054436Y054173D01*
X051061Y051584D02*
X050985Y051661D01*
X050831Y051661D01*
X050754Y051584D01*
X050754Y051354D01*
X050601Y051354D02*
X051061Y051354D01*
X051061Y051584D01*
X050985Y051200D02*
X051061Y051124D01*
X051061Y050970D01*
X050985Y050893D01*
X050908Y050893D01*
X050831Y050970D01*
X050831Y051200D01*
X050678Y051200D02*
X050985Y051200D01*
X050678Y051200D02*
X050601Y051124D01*
X050601Y050970D01*
X050678Y050893D01*
X050601Y050740D02*
X050754Y050586D01*
X050754Y050663D02*
X050754Y050433D01*
X050601Y050433D02*
X051061Y050433D01*
X051061Y050663D01*
X050985Y050740D01*
X050831Y050740D01*
X050754Y050663D01*
X050964Y049768D02*
X051271Y049768D01*
X051271Y049538D01*
X051118Y049615D01*
X051041Y049615D01*
X050964Y049538D01*
X050964Y049385D01*
X051041Y049308D01*
X051195Y049308D01*
X051271Y049385D01*
X051425Y049692D02*
X051732Y049385D01*
X051732Y049308D01*
X051885Y049385D02*
X051962Y049308D01*
X052115Y049308D01*
X052192Y049385D01*
X051885Y049692D01*
X051885Y049385D01*
X051885Y049692D02*
X051962Y049768D01*
X052115Y049768D01*
X052192Y049692D01*
X052192Y049385D01*
X052346Y049308D02*
X052653Y049308D01*
X052956Y048536D02*
X052879Y048459D01*
X052879Y048229D01*
X052726Y048229D02*
X053186Y048229D01*
X053186Y048459D01*
X053110Y048536D01*
X052956Y048536D01*
X052956Y048075D02*
X052803Y048075D01*
X052726Y047999D01*
X052726Y047845D01*
X052803Y047768D01*
X052956Y047768D02*
X053033Y047922D01*
X053033Y047999D01*
X052956Y048075D01*
X053186Y048075D02*
X053186Y047768D01*
X052956Y047768D01*
X052956Y047615D02*
X052879Y047538D01*
X052879Y047308D01*
X052726Y047308D02*
X053186Y047308D01*
X053186Y047538D01*
X053110Y047615D01*
X052956Y047615D01*
X052879Y047461D02*
X052726Y047615D01*
X053379Y046953D02*
X053379Y046723D01*
X053226Y046723D02*
X053686Y046723D01*
X053686Y046953D01*
X053610Y047030D01*
X053456Y047030D01*
X053379Y046953D01*
X053456Y046569D02*
X053456Y046262D01*
X053686Y046492D01*
X053226Y046492D01*
X053303Y046109D02*
X053226Y046032D01*
X053226Y045879D01*
X053303Y045802D01*
X053610Y045802D01*
X053686Y045879D01*
X053686Y046032D01*
X053610Y046109D01*
X053946Y046513D02*
X053946Y046813D01*
X054466Y046803D02*
X054466Y046513D01*
X051242Y046474D02*
X051165Y046398D01*
X051242Y046474D02*
X051242Y046628D01*
X051165Y046705D01*
X051089Y046705D01*
X050782Y046398D01*
X050782Y046705D01*
X050858Y046167D02*
X051242Y046167D01*
X051242Y046091D02*
X051242Y046244D01*
X050858Y046167D02*
X050782Y046091D01*
X050782Y046014D01*
X050858Y045937D01*
X049466Y046388D02*
X049466Y046678D01*
X048946Y046688D02*
X048946Y046388D01*
X048686Y046291D02*
X048226Y046291D01*
X048226Y046444D02*
X048226Y046137D01*
X048303Y045984D02*
X048226Y045907D01*
X048226Y045754D01*
X048303Y045677D01*
X048610Y045677D01*
X048686Y045754D01*
X048686Y045907D01*
X048610Y045984D01*
X048533Y046137D02*
X048686Y046291D01*
X048466Y046388D02*
X048466Y046678D01*
X048379Y046598D02*
X048379Y046828D01*
X048456Y046905D01*
X048610Y046905D01*
X048686Y046828D01*
X048686Y046598D01*
X048226Y046598D01*
X047946Y046688D02*
X047946Y046388D01*
X047686Y046367D02*
X047610Y046444D01*
X047533Y046444D01*
X047456Y046367D01*
X047379Y046444D01*
X047303Y046444D01*
X047226Y046367D01*
X047226Y046214D01*
X047303Y046137D01*
X047303Y045984D02*
X047226Y045907D01*
X047226Y045754D01*
X047303Y045677D01*
X047610Y045677D01*
X047686Y045754D01*
X047686Y045907D01*
X047610Y045984D01*
X047610Y046137D02*
X047686Y046214D01*
X047686Y046367D01*
X047466Y046388D02*
X047466Y046678D01*
X047379Y046598D02*
X047379Y046828D01*
X047456Y046905D01*
X047610Y046905D01*
X047686Y046828D01*
X047686Y046598D01*
X047226Y046598D01*
X046946Y046688D02*
X046946Y046388D01*
X046686Y046367D02*
X046686Y046214D01*
X046610Y046137D01*
X046610Y045984D02*
X046686Y045907D01*
X046686Y045754D01*
X046610Y045677D01*
X046303Y045677D01*
X046226Y045754D01*
X046226Y045907D01*
X046303Y045984D01*
X046226Y046137D02*
X046533Y046444D01*
X046610Y046444D01*
X046686Y046367D01*
X046686Y046598D02*
X046686Y046828D01*
X046610Y046905D01*
X046456Y046905D01*
X046379Y046828D01*
X046379Y046598D01*
X046226Y046598D02*
X046686Y046598D01*
X046226Y046444D02*
X046226Y046137D01*
X047456Y046291D02*
X047456Y046367D01*
X051425Y049692D02*
X051425Y049768D01*
X051732Y049768D01*
X046686Y055506D02*
X046686Y055736D01*
X046610Y055813D01*
X046456Y055813D01*
X046379Y055736D01*
X046379Y055506D01*
X046226Y055506D02*
X046686Y055506D01*
X046379Y055659D02*
X046226Y055813D01*
X046226Y055966D02*
X046226Y056273D01*
X046226Y056120D02*
X046686Y056120D01*
X046533Y055966D01*
X046610Y056427D02*
X046686Y056504D01*
X046686Y056657D01*
X046610Y056734D01*
X046533Y056734D01*
X046226Y056427D01*
X046226Y056734D01*
X046226Y056887D02*
X046533Y057194D01*
X046610Y057194D01*
X046686Y057117D01*
X046686Y056964D01*
X046610Y056887D01*
X046226Y056887D02*
X046226Y057194D01*
X046303Y057348D02*
X046226Y057424D01*
X046226Y057578D01*
X046303Y057655D01*
X046379Y057655D01*
X046456Y057578D01*
X046456Y057501D01*
X046456Y057578D02*
X046533Y057655D01*
X046610Y057655D01*
X046686Y057578D01*
X046686Y057424D01*
X046610Y057348D01*
X045811Y057197D02*
X045811Y056966D01*
X045351Y056966D01*
X045504Y056966D02*
X045504Y057197D01*
X045581Y057273D01*
X045735Y057273D01*
X045811Y057197D01*
X045658Y057427D02*
X045811Y057580D01*
X045351Y057580D01*
X045351Y057427D02*
X045351Y057734D01*
X045351Y057887D02*
X045351Y058194D01*
X045351Y058041D02*
X045811Y058041D01*
X045658Y057887D01*
X045735Y058348D02*
X045811Y058424D01*
X045811Y058578D01*
X045735Y058655D01*
X045658Y058655D01*
X045351Y058348D01*
X045351Y058655D01*
X045351Y059427D02*
X045811Y059427D01*
X045811Y059657D01*
X045735Y059734D01*
X045581Y059734D01*
X045504Y059657D01*
X045504Y059427D01*
X045504Y059580D02*
X045351Y059734D01*
X045428Y059887D02*
X045351Y059964D01*
X045351Y060117D01*
X045428Y060194D01*
X045504Y060194D01*
X045581Y060117D01*
X045581Y060041D01*
X045581Y060117D02*
X045658Y060194D01*
X045735Y060194D01*
X045811Y060117D01*
X045811Y059964D01*
X045735Y059887D01*
X045581Y060348D02*
X045581Y060655D01*
X045351Y060578D02*
X045811Y060578D01*
X045581Y060348D01*
X046303Y059655D02*
X046226Y059578D01*
X046226Y059424D01*
X046303Y059348D01*
X046226Y059194D02*
X046379Y059041D01*
X046379Y059117D02*
X046379Y058887D01*
X046226Y058887D02*
X046686Y058887D01*
X046686Y059117D01*
X046610Y059194D01*
X046456Y059194D01*
X046379Y059117D01*
X046610Y059348D02*
X046686Y059424D01*
X046686Y059578D01*
X046610Y059655D01*
X046533Y059655D01*
X046456Y059578D01*
X046379Y059655D01*
X046303Y059655D01*
X046456Y059578D02*
X046456Y059501D01*
X046456Y058734D02*
X046456Y058427D01*
X045351Y057273D02*
X045504Y057120D01*
X031936Y049030D02*
X031860Y048876D01*
X031706Y048723D01*
X031706Y048953D01*
X031629Y049030D01*
X031553Y049030D01*
X031476Y048953D01*
X031476Y048799D01*
X031553Y048723D01*
X031706Y048723D01*
X031706Y048569D02*
X031629Y048492D01*
X031629Y048262D01*
X031476Y048262D02*
X031936Y048262D01*
X031936Y048492D01*
X031860Y048569D01*
X031706Y048569D01*
X031629Y048416D02*
X031476Y048569D01*
X030061Y048492D02*
X029985Y048569D01*
X029831Y048569D01*
X029754Y048492D01*
X029754Y048262D01*
X029601Y048262D02*
X030061Y048262D01*
X030061Y048492D01*
X029985Y048723D02*
X029908Y048723D01*
X029831Y048799D01*
X029831Y049030D01*
X029678Y049030D02*
X029985Y049030D01*
X030061Y048953D01*
X030061Y048799D01*
X029985Y048723D01*
X029678Y048723D02*
X029601Y048799D01*
X029601Y048953D01*
X029678Y049030D01*
X029601Y048569D02*
X029754Y048416D01*
X027186Y049808D02*
X027186Y050268D01*
X026956Y050268D01*
X026879Y050192D01*
X026879Y050038D01*
X026956Y049961D01*
X027186Y049961D01*
X027033Y049961D02*
X026879Y049808D01*
X026726Y050038D02*
X026419Y050038D01*
X026495Y049808D02*
X026495Y050268D01*
X026726Y050038D01*
X026726Y050808D02*
X026419Y050808D01*
X026572Y050808D02*
X026572Y051268D01*
X026726Y051115D01*
X026879Y051192D02*
X026879Y051038D01*
X026956Y050961D01*
X027186Y050961D01*
X027186Y050808D02*
X027186Y051268D01*
X026956Y051268D01*
X026879Y051192D01*
X027033Y050961D02*
X026879Y050808D01*
X026265Y050885D02*
X025958Y051192D01*
X025958Y050885D01*
X026035Y050808D01*
X026188Y050808D01*
X026265Y050885D01*
X026265Y051192D01*
X026188Y051268D01*
X026035Y051268D01*
X025958Y051192D01*
X027294Y052010D02*
X027370Y051933D01*
X027524Y051933D01*
X027601Y052010D01*
X027601Y052086D01*
X027524Y052163D01*
X027370Y052163D01*
X027294Y052086D01*
X027294Y052010D01*
X027370Y052163D02*
X027294Y052240D01*
X027294Y052317D01*
X027370Y052393D01*
X027524Y052393D01*
X027601Y052317D01*
X027601Y052240D01*
X027524Y052163D01*
X027754Y052163D02*
X027831Y052086D01*
X028061Y052086D01*
X028061Y051933D02*
X028061Y052393D01*
X027831Y052393D01*
X027754Y052317D01*
X027754Y052163D01*
X027908Y052086D02*
X027754Y051933D01*
X029669Y053135D02*
X029745Y053058D01*
X029899Y053058D01*
X029976Y053135D01*
X029976Y053288D02*
X029822Y053365D01*
X029745Y053365D01*
X029669Y053288D01*
X029669Y053135D01*
X029976Y053288D02*
X029976Y053518D01*
X029669Y053518D01*
X030129Y053442D02*
X030129Y053288D01*
X030206Y053211D01*
X030436Y053211D01*
X030436Y053058D02*
X030436Y053518D01*
X030206Y053518D01*
X030129Y053442D01*
X030283Y053211D02*
X030129Y053058D01*
X058166Y023518D02*
X058396Y023288D01*
X058089Y023288D01*
X058166Y023058D02*
X058166Y023518D01*
X058550Y023442D02*
X058627Y023518D01*
X058780Y023518D01*
X058857Y023442D01*
X059010Y023442D02*
X059010Y023288D01*
X059087Y023211D01*
X059317Y023211D01*
X059317Y023058D02*
X059317Y023518D01*
X059087Y023518D01*
X059010Y023442D01*
X059164Y023211D02*
X059010Y023058D01*
X058857Y023058D02*
X058550Y023365D01*
X058550Y023442D01*
X058550Y023058D02*
X058857Y023058D01*
X062325Y014893D02*
X062478Y014893D01*
X062555Y014817D01*
X062555Y014740D01*
X062478Y014663D01*
X062248Y014663D01*
X062248Y014510D02*
X062248Y014817D01*
X062325Y014893D01*
X062708Y014817D02*
X062785Y014893D01*
X062938Y014893D01*
X063015Y014817D01*
X063169Y014893D02*
X063169Y014433D01*
X063322Y014586D01*
X063476Y014433D01*
X063476Y014893D01*
X063629Y014817D02*
X063706Y014893D01*
X063859Y014893D01*
X063936Y014817D01*
X063936Y014510D01*
X063859Y014433D01*
X063706Y014433D01*
X063629Y014510D01*
X063606Y014173D02*
X063306Y014173D01*
X063015Y014433D02*
X062708Y014740D01*
X062708Y014817D01*
X062555Y014510D02*
X062478Y014433D01*
X062325Y014433D01*
X062248Y014510D01*
X062708Y014433D02*
X063015Y014433D01*
X063306Y013653D02*
X063596Y013653D01*
X070714Y012018D02*
X070714Y011942D01*
X070868Y011788D01*
X070868Y011558D01*
X070868Y011788D02*
X071021Y011942D01*
X071021Y012018D01*
X071252Y012018D02*
X071482Y011788D01*
X071175Y011788D01*
X071252Y011558D02*
X071252Y012018D01*
X071635Y011942D02*
X071635Y011788D01*
X071712Y011711D01*
X071942Y011711D01*
X071942Y011558D02*
X071942Y012018D01*
X071712Y012018D01*
X071635Y011942D01*
X071789Y011711D02*
X071635Y011558D01*
X071985Y011155D02*
X072061Y011155D01*
X071985Y011155D02*
X071831Y011001D01*
X071601Y011001D01*
X071831Y011001D02*
X071985Y010848D01*
X072061Y010848D01*
X071985Y010694D02*
X071908Y010694D01*
X071831Y010617D01*
X071754Y010694D01*
X071678Y010694D01*
X071601Y010617D01*
X071601Y010464D01*
X071678Y010387D01*
X071601Y010234D02*
X071754Y010080D01*
X071754Y010157D02*
X071754Y009927D01*
X071601Y009927D02*
X072061Y009927D01*
X072061Y010157D01*
X071985Y010234D01*
X071831Y010234D01*
X071754Y010157D01*
X071985Y010387D02*
X072061Y010464D01*
X072061Y010617D01*
X071985Y010694D01*
X071831Y010617D02*
X071831Y010541D01*
X072726Y010484D02*
X072879Y010330D01*
X072879Y010407D02*
X072879Y010177D01*
X072726Y010177D02*
X073186Y010177D01*
X073186Y010407D01*
X073110Y010484D01*
X072956Y010484D01*
X072879Y010407D01*
X072803Y010637D02*
X072726Y010714D01*
X072726Y010867D01*
X072803Y010944D01*
X072956Y010944D01*
X073033Y010867D01*
X073033Y010791D01*
X072956Y010637D01*
X073186Y010637D01*
X073186Y010944D01*
X073186Y011098D02*
X073110Y011098D01*
X072956Y011251D01*
X072726Y011251D01*
X072956Y011251D02*
X073110Y011405D01*
X073186Y011405D01*
X073303Y012558D02*
X073610Y012865D01*
X073610Y013018D02*
X073303Y013325D01*
X073419Y013365D02*
X073419Y013442D01*
X073495Y013518D01*
X073649Y013518D01*
X073726Y013442D01*
X073686Y013479D02*
X073686Y013709D01*
X073610Y013786D01*
X073456Y013786D01*
X073379Y013709D01*
X073379Y013479D01*
X073265Y013442D02*
X073112Y013288D01*
X073112Y013058D01*
X073303Y013018D02*
X073610Y013325D01*
X073610Y013172D02*
X073303Y013172D01*
X073419Y013058D02*
X073726Y013058D01*
X073419Y013365D01*
X073456Y013325D02*
X073456Y013018D01*
X073456Y012865D02*
X073456Y012558D01*
X073610Y012558D02*
X073303Y012865D01*
X073303Y012711D02*
X073610Y012711D01*
X073879Y013058D02*
X074033Y013211D01*
X073956Y013211D02*
X074186Y013211D01*
X074186Y013058D02*
X074186Y013518D01*
X073956Y013518D01*
X073879Y013442D01*
X073879Y013288D01*
X073956Y013211D01*
X073686Y013479D02*
X073226Y013479D01*
X073265Y013442D02*
X073265Y013518D01*
X073379Y013632D02*
X073226Y013786D01*
X073226Y013939D02*
X073533Y014246D01*
X073610Y014246D01*
X073686Y014169D01*
X073686Y014016D01*
X073610Y013939D01*
X073572Y014058D02*
X073572Y014518D01*
X073726Y014365D01*
X073879Y014442D02*
X073879Y014288D01*
X073956Y014211D01*
X074186Y014211D01*
X074186Y014058D02*
X074186Y014518D01*
X073956Y014518D01*
X073879Y014442D01*
X074033Y014211D02*
X073879Y014058D01*
X073726Y014058D02*
X073419Y014058D01*
X073226Y013939D02*
X073226Y014246D01*
X073112Y014288D02*
X073112Y014058D01*
X073112Y014288D02*
X072958Y014442D01*
X072958Y014518D01*
X073112Y014288D02*
X073265Y014442D01*
X073265Y014518D01*
X073482Y015183D02*
X073482Y015260D01*
X073175Y015567D01*
X073175Y015643D01*
X073482Y015643D01*
X073635Y015567D02*
X073635Y015413D01*
X073712Y015336D01*
X073942Y015336D01*
X073942Y015183D02*
X073942Y015643D01*
X073712Y015643D01*
X073635Y015567D01*
X073789Y015336D02*
X073635Y015183D01*
X074351Y015220D02*
X074351Y015374D01*
X074428Y015450D01*
X074504Y015450D01*
X074581Y015374D01*
X074581Y015143D01*
X074428Y015143D01*
X074351Y015220D01*
X074351Y014990D02*
X074504Y014836D01*
X074504Y014913D02*
X074504Y014683D01*
X074351Y014683D02*
X074811Y014683D01*
X074811Y014913D01*
X074735Y014990D01*
X074581Y014990D01*
X074504Y014913D01*
X074581Y015143D02*
X074735Y015297D01*
X074811Y015450D01*
X074811Y015604D02*
X074735Y015604D01*
X074581Y015757D01*
X074351Y015757D01*
X074581Y015757D02*
X074735Y015911D01*
X074811Y015911D01*
X074678Y016058D02*
X074601Y016135D01*
X074601Y016288D01*
X074678Y016365D01*
X074678Y016518D02*
X074601Y016595D01*
X074601Y016749D01*
X074678Y016825D01*
X074754Y016825D01*
X074831Y016749D01*
X074831Y016672D01*
X074831Y016749D02*
X074908Y016825D01*
X074985Y016825D01*
X075061Y016749D01*
X075061Y016595D01*
X074985Y016518D01*
X074985Y016365D02*
X075061Y016288D01*
X075061Y016135D01*
X074985Y016058D01*
X074678Y016058D01*
X074341Y016388D02*
X074341Y016688D01*
X074601Y017132D02*
X074831Y017132D01*
X074985Y017286D01*
X075061Y017286D01*
X074831Y017132D02*
X074985Y016979D01*
X075061Y016979D01*
X073821Y016688D02*
X073821Y016398D01*
X073021Y015643D02*
X073021Y015567D01*
X072868Y015413D01*
X072868Y015183D01*
X072868Y015413D02*
X072714Y015567D01*
X072714Y015643D01*
X072958Y013518D02*
X072958Y013442D01*
X073112Y013288D01*
X076521Y015658D02*
X076521Y016418D01*
X077141Y016418D02*
X077141Y015658D01*
X077351Y015635D02*
X077351Y015788D01*
X077428Y015865D01*
X077351Y016018D02*
X077351Y016325D01*
X077351Y016172D02*
X077811Y016172D01*
X077658Y016018D01*
X077735Y015865D02*
X077811Y015788D01*
X077811Y015635D01*
X077735Y015558D01*
X077428Y015558D01*
X077351Y015635D01*
X077896Y015783D02*
X077896Y016543D01*
X077811Y016479D02*
X077735Y016479D01*
X077581Y016632D01*
X077351Y016632D01*
X077581Y016632D02*
X077735Y016786D01*
X077811Y016786D01*
X078516Y016543D02*
X078516Y015783D01*
X078726Y015760D02*
X078726Y015913D01*
X078803Y015990D01*
X078726Y016143D02*
X079033Y016450D01*
X079110Y016450D01*
X079186Y016374D01*
X079186Y016220D01*
X079110Y016143D01*
X079110Y015990D02*
X079186Y015913D01*
X079186Y015760D01*
X079110Y015683D01*
X078803Y015683D01*
X078726Y015760D01*
X078726Y016143D02*
X078726Y016450D01*
X078726Y016757D02*
X078956Y016757D01*
X079110Y016911D01*
X079186Y016911D01*
X078956Y016757D02*
X079110Y016604D01*
X079186Y016604D01*
X073936Y019260D02*
X073629Y019567D01*
X073783Y019567D02*
X073783Y019260D01*
X073629Y019260D02*
X073936Y019567D01*
X073936Y019413D02*
X073629Y019413D01*
X073476Y019336D02*
X073245Y019336D01*
X073169Y019413D01*
X073169Y019567D01*
X073245Y019643D01*
X073476Y019643D01*
X073476Y019183D01*
X073322Y019336D02*
X073169Y019183D01*
X073015Y019183D02*
X072708Y019183D01*
X072862Y019183D02*
X072862Y019643D01*
X073015Y019490D01*
X072811Y018518D02*
X072581Y018518D01*
X072504Y018442D01*
X072504Y018288D01*
X072581Y018211D01*
X072811Y018211D01*
X072811Y018058D02*
X072811Y018518D01*
X072658Y018211D02*
X072504Y018058D01*
X072351Y018135D02*
X072274Y018058D01*
X072120Y018058D01*
X072044Y018135D01*
X072044Y018442D01*
X072120Y018518D01*
X072274Y018518D01*
X072351Y018442D01*
X072351Y018365D01*
X072274Y018288D01*
X072044Y018288D01*
X071890Y018442D02*
X071737Y018288D01*
X071737Y018058D01*
X071737Y018288D02*
X071583Y018442D01*
X071583Y018518D01*
X071890Y018518D02*
X071890Y018442D01*
X073714Y008893D02*
X073714Y008817D01*
X073868Y008663D01*
X073868Y008433D01*
X073868Y008663D02*
X074021Y008817D01*
X074021Y008893D01*
X074175Y008817D02*
X074175Y008740D01*
X074252Y008663D01*
X074405Y008663D01*
X074482Y008740D01*
X074482Y008817D01*
X074405Y008893D01*
X074252Y008893D01*
X074175Y008817D01*
X074252Y008663D02*
X074175Y008586D01*
X074175Y008510D01*
X074252Y008433D01*
X074405Y008433D01*
X074482Y008510D01*
X074482Y008586D01*
X074405Y008663D01*
X074635Y008663D02*
X074712Y008586D01*
X074942Y008586D01*
X074942Y008433D02*
X074942Y008893D01*
X074712Y008893D01*
X074635Y008817D01*
X074635Y008663D01*
X074789Y008586D02*
X074635Y008433D01*
X071644Y041280D02*
X071644Y041740D01*
X071875Y041740D01*
X071951Y041663D01*
X071951Y041510D01*
X071875Y041433D01*
X071644Y041433D01*
X071491Y041433D02*
X071491Y041663D01*
X071414Y041740D01*
X071337Y041663D01*
X071337Y041433D01*
X071184Y041433D02*
X071184Y041740D01*
X071261Y041740D01*
X071337Y041663D01*
X071030Y041663D02*
X070724Y041663D01*
X070724Y041740D02*
X070724Y041433D01*
X071030Y041433D02*
X071030Y041740D01*
X070877Y041893D01*
X070724Y041740D01*
X072105Y041663D02*
X072181Y041740D01*
X072335Y041740D01*
X072412Y041663D01*
X072412Y041433D01*
X072565Y041510D02*
X072565Y041663D01*
X072642Y041740D01*
X072795Y041740D01*
X072872Y041663D01*
X072872Y041586D01*
X072565Y041586D01*
X072565Y041510D02*
X072642Y041433D01*
X072795Y041433D01*
X073025Y041433D02*
X073025Y041740D01*
X073256Y041740D01*
X073332Y041663D01*
X073332Y041433D01*
X073486Y041510D02*
X073563Y041433D01*
X073716Y041433D01*
X073793Y041510D01*
X073793Y041663D01*
X073716Y041740D01*
X073563Y041740D01*
X073486Y041663D01*
X073486Y041510D01*
X073946Y041433D02*
X074100Y041433D01*
X074023Y041433D02*
X074023Y041893D01*
X073946Y041893D01*
X074714Y041893D02*
X074867Y041740D01*
X075021Y041893D01*
X075021Y041433D01*
X075174Y041433D02*
X075174Y041893D01*
X075327Y041740D01*
X075481Y041893D01*
X075481Y041433D01*
X075634Y041510D02*
X075711Y041433D01*
X075865Y041433D01*
X075941Y041510D01*
X076095Y041433D02*
X076402Y041893D01*
X076555Y041817D02*
X076555Y041740D01*
X076632Y041663D01*
X076785Y041663D01*
X076862Y041586D01*
X076862Y041510D01*
X076785Y041433D01*
X076632Y041433D01*
X076555Y041510D01*
X076555Y041817D02*
X076632Y041893D01*
X076785Y041893D01*
X076862Y041817D01*
X077016Y041893D02*
X077016Y041433D01*
X077246Y041433D01*
X077322Y041510D01*
X077322Y041817D01*
X077246Y041893D01*
X077016Y041893D01*
X075941Y041817D02*
X075865Y041893D01*
X075711Y041893D01*
X075634Y041817D01*
X075634Y041510D01*
X074714Y041433D02*
X074714Y041893D01*
X072105Y041893D02*
X072105Y041433D01*
D12*
X065582Y044996D03*
X065582Y045576D03*
X061455Y041455D03*
X061455Y040875D03*
X063830Y040205D03*
X063830Y039625D03*
X057207Y047496D03*
X057207Y048076D03*
X055207Y050371D03*
X055207Y050951D03*
X054332Y050951D03*
X054332Y050371D03*
X050082Y050371D03*
X050082Y050951D03*
X047205Y057250D03*
X047205Y057830D03*
X046330Y058250D03*
X046330Y058830D03*
X047205Y059250D03*
X047205Y059830D03*
X046330Y060250D03*
X046330Y060830D03*
X032455Y049205D03*
X032455Y048625D03*
X030580Y048625D03*
X030580Y049205D03*
X054082Y027826D03*
X054082Y027246D03*
X052832Y027121D03*
X052832Y027701D03*
X048830Y023205D03*
X048830Y022625D03*
X072707Y013076D03*
X072707Y012496D03*
X072580Y011330D03*
X072580Y010750D03*
X073705Y011000D03*
X073705Y011580D03*
X073832Y014621D03*
X073832Y015201D03*
D13*
X073119Y016162D03*
X072539Y016162D03*
X072293Y017539D03*
X072873Y017539D03*
X073418Y018664D03*
X073998Y018664D03*
X074248Y013539D03*
X073668Y013539D03*
X073668Y012539D03*
X074248Y012539D03*
X074119Y009412D03*
X073539Y009412D03*
X058494Y024037D03*
X057914Y024037D03*
X055248Y028164D03*
X054668Y028164D03*
X054668Y028914D03*
X055248Y028914D03*
X053244Y028912D03*
X052664Y028912D03*
X052284Y046537D03*
X051704Y046537D03*
X058789Y049162D03*
X059369Y049162D03*
X063668Y047789D03*
X064248Y047789D03*
X030498Y052539D03*
X029918Y052539D03*
X028123Y051414D03*
X027543Y051414D03*
X027248Y050289D03*
X026668Y050289D03*
X026668Y049289D03*
X027248Y049289D03*
D14*
X054811Y035913D03*
X054811Y034913D03*
X055851Y034913D03*
X055851Y035913D03*
X060311Y040038D03*
X061351Y040038D03*
X070561Y012538D03*
X071601Y012538D03*
D15*
X074081Y016256D03*
X074081Y016826D03*
X065206Y041756D03*
X065206Y042326D03*
X054206Y046375D03*
X054206Y046945D03*
X049206Y046820D03*
X049206Y046250D03*
X048206Y046250D03*
X048206Y046820D03*
X047206Y046820D03*
X047206Y046250D03*
D16*
X076831Y016560D03*
X076831Y015516D03*
X078206Y015641D03*
X078206Y016685D03*
D17*
X052206Y047448D03*
X052206Y048128D03*
X052581Y050323D03*
X052581Y051003D03*
X053456Y051003D03*
X053456Y050323D03*
D18*
X051671Y050288D03*
X050991Y050288D03*
D19*
X038191Y032413D02*
X037891Y032413D01*
X037891Y032338D01*
X038191Y032038D01*
X038191Y031963D01*
X034312Y031988D02*
X034237Y031913D01*
X034087Y031913D01*
X034012Y031988D01*
X034012Y032063D01*
X034087Y032138D01*
X034237Y032138D01*
X034312Y032213D01*
X034312Y032288D01*
X034237Y032363D01*
X034087Y032363D01*
X034012Y032288D01*
X033852Y032363D02*
X033852Y032063D01*
X033702Y031913D01*
X033552Y032063D01*
X033552Y032363D01*
X033391Y032213D02*
X033241Y032363D01*
X033241Y031913D01*
X033391Y031913D02*
X033091Y031913D01*
X032191Y031963D02*
X031891Y031963D01*
X032041Y031963D02*
X032041Y032413D01*
X032191Y032263D01*
X031191Y032413D02*
X030891Y032413D01*
X030891Y032338D01*
X031191Y032038D01*
X031191Y031963D01*
X027312Y031988D02*
X027237Y031913D01*
X027087Y031913D01*
X027012Y031988D01*
X027012Y032063D01*
X027087Y032138D01*
X027237Y032138D01*
X027312Y032213D01*
X027312Y032288D01*
X027237Y032363D01*
X027087Y032363D01*
X027012Y032288D01*
X026852Y032363D02*
X026852Y032063D01*
X026702Y031913D01*
X026552Y032063D01*
X026552Y032363D01*
X026391Y032288D02*
X026316Y032363D01*
X026166Y032363D01*
X026091Y032288D01*
X026091Y032213D01*
X026166Y032138D01*
X026091Y032063D01*
X026091Y031988D01*
X026166Y031913D01*
X026316Y031913D01*
X026391Y031988D01*
X026241Y032138D02*
X026166Y032138D01*
X025191Y032263D02*
X025041Y032413D01*
X025041Y031963D01*
X025191Y031963D02*
X024891Y031963D01*
D20*
X024956Y032838D03*
X024956Y033238D03*
X025956Y033238D03*
X025956Y032838D03*
X026956Y032838D03*
X026956Y033238D03*
X027956Y033238D03*
X027956Y032838D03*
X028956Y032838D03*
X028956Y033238D03*
X029956Y033238D03*
X029956Y032838D03*
X030956Y032838D03*
X030956Y033238D03*
X031956Y033238D03*
X031956Y032838D03*
X032956Y032838D03*
X032956Y033238D03*
X033956Y033238D03*
X033956Y032838D03*
X034956Y032838D03*
X034956Y033238D03*
X035956Y033238D03*
X035956Y032838D03*
X036956Y032838D03*
X036956Y033238D03*
X037956Y033238D03*
X037956Y032838D03*
D21*
X032238Y021663D03*
X031668Y021663D03*
X053799Y024538D03*
X054369Y024538D03*
X054619Y032288D03*
X054049Y032288D03*
X063168Y013913D03*
X063738Y013913D03*
M02*
