G75*
G70*
%OFA0B0*%
%FSLAX24Y24*%
%IPPOS*%
%LPD*%
%AMOC8*
5,1,8,0,0,1.08239X$1,22.5*
%
%ADD10C,0.0100*%
%ADD11C,0.0000*%
%ADD12C,0.0001*%
D10*
X000220Y003663D02*
X066595Y003663D01*
X066595Y047913D01*
X000220Y047913D01*
X000220Y003663D01*
D11*
X005728Y015700D02*
X005730Y015729D01*
X005736Y015757D01*
X005745Y015785D01*
X005758Y015811D01*
X005775Y015834D01*
X005794Y015856D01*
X005816Y015875D01*
X005841Y015890D01*
X005867Y015903D01*
X005895Y015911D01*
X005923Y015916D01*
X005952Y015917D01*
X005981Y015914D01*
X006009Y015907D01*
X006036Y015897D01*
X006062Y015883D01*
X006085Y015866D01*
X006106Y015846D01*
X006124Y015823D01*
X006139Y015798D01*
X006150Y015771D01*
X006158Y015743D01*
X006162Y015714D01*
X006162Y015686D01*
X006158Y015657D01*
X006150Y015629D01*
X006139Y015602D01*
X006124Y015577D01*
X006106Y015554D01*
X006085Y015534D01*
X006062Y015517D01*
X006036Y015503D01*
X006009Y015493D01*
X005981Y015486D01*
X005952Y015483D01*
X005923Y015484D01*
X005895Y015489D01*
X005867Y015497D01*
X005841Y015510D01*
X005816Y015525D01*
X005794Y015544D01*
X005775Y015566D01*
X005758Y015589D01*
X005745Y015615D01*
X005736Y015643D01*
X005730Y015671D01*
X005728Y015700D01*
X013930Y015700D02*
X013932Y015735D01*
X013938Y015770D01*
X013948Y015804D01*
X013961Y015837D01*
X013978Y015868D01*
X013999Y015896D01*
X014022Y015923D01*
X014049Y015946D01*
X014077Y015967D01*
X014108Y015984D01*
X014141Y015997D01*
X014175Y016007D01*
X014210Y016013D01*
X014245Y016015D01*
X014280Y016013D01*
X014315Y016007D01*
X014349Y015997D01*
X014382Y015984D01*
X014413Y015967D01*
X014441Y015946D01*
X014468Y015923D01*
X014491Y015896D01*
X014512Y015868D01*
X014529Y015837D01*
X014542Y015804D01*
X014552Y015770D01*
X014558Y015735D01*
X014560Y015700D01*
X014558Y015665D01*
X014552Y015630D01*
X014542Y015596D01*
X014529Y015563D01*
X014512Y015532D01*
X014491Y015504D01*
X014468Y015477D01*
X014441Y015454D01*
X014413Y015433D01*
X014382Y015416D01*
X014349Y015403D01*
X014315Y015393D01*
X014280Y015387D01*
X014245Y015385D01*
X014210Y015387D01*
X014175Y015393D01*
X014141Y015403D01*
X014108Y015416D01*
X014077Y015433D01*
X014049Y015454D01*
X014022Y015477D01*
X013999Y015504D01*
X013978Y015532D01*
X013961Y015563D01*
X013948Y015596D01*
X013938Y015630D01*
X013932Y015665D01*
X013930Y015700D01*
X022078Y017862D02*
X022080Y017912D01*
X022086Y017962D01*
X022096Y018011D01*
X022110Y018059D01*
X022127Y018106D01*
X022148Y018151D01*
X022173Y018195D01*
X022201Y018236D01*
X022233Y018275D01*
X022267Y018312D01*
X022304Y018346D01*
X022344Y018376D01*
X022386Y018403D01*
X022430Y018427D01*
X022476Y018448D01*
X022523Y018464D01*
X022571Y018477D01*
X022621Y018486D01*
X022670Y018491D01*
X022721Y018492D01*
X022771Y018489D01*
X022820Y018482D01*
X022869Y018471D01*
X022917Y018456D01*
X022963Y018438D01*
X023008Y018416D01*
X023051Y018390D01*
X023092Y018361D01*
X023131Y018329D01*
X023167Y018294D01*
X023199Y018256D01*
X023229Y018216D01*
X023256Y018173D01*
X023279Y018129D01*
X023298Y018083D01*
X023314Y018035D01*
X023326Y017986D01*
X023334Y017937D01*
X023338Y017887D01*
X023338Y017837D01*
X023334Y017787D01*
X023326Y017738D01*
X023314Y017689D01*
X023298Y017641D01*
X023279Y017595D01*
X023256Y017551D01*
X023229Y017508D01*
X023199Y017468D01*
X023167Y017430D01*
X023131Y017395D01*
X023092Y017363D01*
X023051Y017334D01*
X023008Y017308D01*
X022963Y017286D01*
X022917Y017268D01*
X022869Y017253D01*
X022820Y017242D01*
X022771Y017235D01*
X022721Y017232D01*
X022670Y017233D01*
X022621Y017238D01*
X022571Y017247D01*
X022523Y017260D01*
X022476Y017276D01*
X022430Y017297D01*
X022386Y017321D01*
X022344Y017348D01*
X022304Y017378D01*
X022267Y017412D01*
X022233Y017449D01*
X022201Y017488D01*
X022173Y017529D01*
X022148Y017573D01*
X022127Y017618D01*
X022110Y017665D01*
X022096Y017713D01*
X022086Y017762D01*
X022080Y017812D01*
X022078Y017862D01*
X026602Y017862D02*
X026604Y017912D01*
X026610Y017962D01*
X026620Y018011D01*
X026634Y018059D01*
X026651Y018106D01*
X026672Y018151D01*
X026697Y018195D01*
X026725Y018236D01*
X026757Y018275D01*
X026791Y018312D01*
X026828Y018346D01*
X026868Y018376D01*
X026910Y018403D01*
X026954Y018427D01*
X027000Y018448D01*
X027047Y018464D01*
X027095Y018477D01*
X027145Y018486D01*
X027194Y018491D01*
X027245Y018492D01*
X027295Y018489D01*
X027344Y018482D01*
X027393Y018471D01*
X027441Y018456D01*
X027487Y018438D01*
X027532Y018416D01*
X027575Y018390D01*
X027616Y018361D01*
X027655Y018329D01*
X027691Y018294D01*
X027723Y018256D01*
X027753Y018216D01*
X027780Y018173D01*
X027803Y018129D01*
X027822Y018083D01*
X027838Y018035D01*
X027850Y017986D01*
X027858Y017937D01*
X027862Y017887D01*
X027862Y017837D01*
X027858Y017787D01*
X027850Y017738D01*
X027838Y017689D01*
X027822Y017641D01*
X027803Y017595D01*
X027780Y017551D01*
X027753Y017508D01*
X027723Y017468D01*
X027691Y017430D01*
X027655Y017395D01*
X027616Y017363D01*
X027575Y017334D01*
X027532Y017308D01*
X027487Y017286D01*
X027441Y017268D01*
X027393Y017253D01*
X027344Y017242D01*
X027295Y017235D01*
X027245Y017232D01*
X027194Y017233D01*
X027145Y017238D01*
X027095Y017247D01*
X027047Y017260D01*
X027000Y017276D01*
X026954Y017297D01*
X026910Y017321D01*
X026868Y017348D01*
X026828Y017378D01*
X026791Y017412D01*
X026757Y017449D01*
X026725Y017488D01*
X026697Y017529D01*
X026672Y017573D01*
X026651Y017618D01*
X026634Y017665D01*
X026620Y017713D01*
X026610Y017762D01*
X026604Y017812D01*
X026602Y017862D01*
X026602Y013339D02*
X026604Y013389D01*
X026610Y013439D01*
X026620Y013488D01*
X026634Y013536D01*
X026651Y013583D01*
X026672Y013628D01*
X026697Y013672D01*
X026725Y013713D01*
X026757Y013752D01*
X026791Y013789D01*
X026828Y013823D01*
X026868Y013853D01*
X026910Y013880D01*
X026954Y013904D01*
X027000Y013925D01*
X027047Y013941D01*
X027095Y013954D01*
X027145Y013963D01*
X027194Y013968D01*
X027245Y013969D01*
X027295Y013966D01*
X027344Y013959D01*
X027393Y013948D01*
X027441Y013933D01*
X027487Y013915D01*
X027532Y013893D01*
X027575Y013867D01*
X027616Y013838D01*
X027655Y013806D01*
X027691Y013771D01*
X027723Y013733D01*
X027753Y013693D01*
X027780Y013650D01*
X027803Y013606D01*
X027822Y013560D01*
X027838Y013512D01*
X027850Y013463D01*
X027858Y013414D01*
X027862Y013364D01*
X027862Y013314D01*
X027858Y013264D01*
X027850Y013215D01*
X027838Y013166D01*
X027822Y013118D01*
X027803Y013072D01*
X027780Y013028D01*
X027753Y012985D01*
X027723Y012945D01*
X027691Y012907D01*
X027655Y012872D01*
X027616Y012840D01*
X027575Y012811D01*
X027532Y012785D01*
X027487Y012763D01*
X027441Y012745D01*
X027393Y012730D01*
X027344Y012719D01*
X027295Y012712D01*
X027245Y012709D01*
X027194Y012710D01*
X027145Y012715D01*
X027095Y012724D01*
X027047Y012737D01*
X027000Y012753D01*
X026954Y012774D01*
X026910Y012798D01*
X026868Y012825D01*
X026828Y012855D01*
X026791Y012889D01*
X026757Y012926D01*
X026725Y012965D01*
X026697Y013006D01*
X026672Y013050D01*
X026651Y013095D01*
X026634Y013142D01*
X026620Y013190D01*
X026610Y013239D01*
X026604Y013289D01*
X026602Y013339D01*
X022078Y013339D02*
X022080Y013389D01*
X022086Y013439D01*
X022096Y013488D01*
X022110Y013536D01*
X022127Y013583D01*
X022148Y013628D01*
X022173Y013672D01*
X022201Y013713D01*
X022233Y013752D01*
X022267Y013789D01*
X022304Y013823D01*
X022344Y013853D01*
X022386Y013880D01*
X022430Y013904D01*
X022476Y013925D01*
X022523Y013941D01*
X022571Y013954D01*
X022621Y013963D01*
X022670Y013968D01*
X022721Y013969D01*
X022771Y013966D01*
X022820Y013959D01*
X022869Y013948D01*
X022917Y013933D01*
X022963Y013915D01*
X023008Y013893D01*
X023051Y013867D01*
X023092Y013838D01*
X023131Y013806D01*
X023167Y013771D01*
X023199Y013733D01*
X023229Y013693D01*
X023256Y013650D01*
X023279Y013606D01*
X023298Y013560D01*
X023314Y013512D01*
X023326Y013463D01*
X023334Y013414D01*
X023338Y013364D01*
X023338Y013314D01*
X023334Y013264D01*
X023326Y013215D01*
X023314Y013166D01*
X023298Y013118D01*
X023279Y013072D01*
X023256Y013028D01*
X023229Y012985D01*
X023199Y012945D01*
X023167Y012907D01*
X023131Y012872D01*
X023092Y012840D01*
X023051Y012811D01*
X023008Y012785D01*
X022963Y012763D01*
X022917Y012745D01*
X022869Y012730D01*
X022820Y012719D01*
X022771Y012712D01*
X022721Y012709D01*
X022670Y012710D01*
X022621Y012715D01*
X022571Y012724D01*
X022523Y012737D01*
X022476Y012753D01*
X022430Y012774D01*
X022386Y012798D01*
X022344Y012825D01*
X022304Y012855D01*
X022267Y012889D01*
X022233Y012926D01*
X022201Y012965D01*
X022173Y013006D01*
X022148Y013050D01*
X022127Y013095D01*
X022110Y013142D01*
X022096Y013190D01*
X022086Y013239D01*
X022080Y013289D01*
X022078Y013339D01*
X025900Y043625D02*
X025902Y043673D01*
X025908Y043722D01*
X025918Y043769D01*
X025931Y043816D01*
X025949Y043861D01*
X025970Y043905D01*
X025994Y043947D01*
X026022Y043986D01*
X026053Y044024D01*
X026087Y044058D01*
X026124Y044090D01*
X026163Y044119D01*
X026205Y044144D01*
X026248Y044166D01*
X026293Y044185D01*
X026339Y044199D01*
X026386Y044210D01*
X026434Y044217D01*
X026483Y044220D01*
X026531Y044219D01*
X026580Y044214D01*
X026627Y044205D01*
X026674Y044192D01*
X026720Y044176D01*
X026764Y044156D01*
X026806Y044132D01*
X026847Y044105D01*
X026885Y044075D01*
X026920Y044041D01*
X026953Y044005D01*
X026982Y043967D01*
X027008Y043926D01*
X027031Y043883D01*
X027050Y043839D01*
X027066Y043793D01*
X027078Y043746D01*
X027086Y043698D01*
X027090Y043649D01*
X027090Y043601D01*
X027086Y043552D01*
X027078Y043504D01*
X027066Y043457D01*
X027050Y043411D01*
X027031Y043367D01*
X027008Y043324D01*
X026982Y043283D01*
X026953Y043245D01*
X026920Y043209D01*
X026885Y043175D01*
X026847Y043145D01*
X026806Y043118D01*
X026764Y043094D01*
X026720Y043074D01*
X026674Y043058D01*
X026627Y043045D01*
X026580Y043036D01*
X026531Y043031D01*
X026483Y043030D01*
X026434Y043033D01*
X026386Y043040D01*
X026339Y043051D01*
X026293Y043065D01*
X026248Y043084D01*
X026205Y043106D01*
X026163Y043131D01*
X026124Y043160D01*
X026087Y043192D01*
X026053Y043226D01*
X026022Y043264D01*
X025994Y043303D01*
X025970Y043345D01*
X025949Y043389D01*
X025931Y043434D01*
X025918Y043481D01*
X025908Y043528D01*
X025902Y043577D01*
X025900Y043625D01*
X025895Y043625D02*
X025897Y043577D01*
X025903Y043529D01*
X025912Y043481D01*
X025926Y043435D01*
X025943Y043390D01*
X025964Y043346D01*
X025988Y043304D01*
X026015Y043265D01*
X026046Y043227D01*
X026079Y043192D01*
X026116Y043160D01*
X026154Y043131D01*
X026195Y043105D01*
X026238Y043083D01*
X026282Y043064D01*
X026328Y043049D01*
X026375Y043037D01*
X026423Y043029D01*
X026471Y043025D01*
X026519Y043025D01*
X026567Y043029D01*
X026615Y043037D01*
X026662Y043049D01*
X026708Y043064D01*
X026752Y043083D01*
X026795Y043105D01*
X026836Y043131D01*
X026874Y043160D01*
X026911Y043192D01*
X026944Y043227D01*
X026975Y043265D01*
X027002Y043304D01*
X027026Y043346D01*
X027047Y043390D01*
X027064Y043435D01*
X027078Y043481D01*
X027087Y043529D01*
X027093Y043577D01*
X027095Y043625D01*
X025900Y045025D02*
X025902Y045073D01*
X025908Y045122D01*
X025918Y045169D01*
X025931Y045216D01*
X025949Y045261D01*
X025970Y045305D01*
X025994Y045347D01*
X026022Y045386D01*
X026053Y045424D01*
X026087Y045458D01*
X026124Y045490D01*
X026163Y045519D01*
X026205Y045544D01*
X026248Y045566D01*
X026293Y045585D01*
X026339Y045599D01*
X026386Y045610D01*
X026434Y045617D01*
X026483Y045620D01*
X026531Y045619D01*
X026580Y045614D01*
X026627Y045605D01*
X026674Y045592D01*
X026720Y045576D01*
X026764Y045556D01*
X026806Y045532D01*
X026847Y045505D01*
X026885Y045475D01*
X026920Y045441D01*
X026953Y045405D01*
X026982Y045367D01*
X027008Y045326D01*
X027031Y045283D01*
X027050Y045239D01*
X027066Y045193D01*
X027078Y045146D01*
X027086Y045098D01*
X027090Y045049D01*
X027090Y045001D01*
X027086Y044952D01*
X027078Y044904D01*
X027066Y044857D01*
X027050Y044811D01*
X027031Y044767D01*
X027008Y044724D01*
X026982Y044683D01*
X026953Y044645D01*
X026920Y044609D01*
X026885Y044575D01*
X026847Y044545D01*
X026806Y044518D01*
X026764Y044494D01*
X026720Y044474D01*
X026674Y044458D01*
X026627Y044445D01*
X026580Y044436D01*
X026531Y044431D01*
X026483Y044430D01*
X026434Y044433D01*
X026386Y044440D01*
X026339Y044451D01*
X026293Y044465D01*
X026248Y044484D01*
X026205Y044506D01*
X026163Y044531D01*
X026124Y044560D01*
X026087Y044592D01*
X026053Y044626D01*
X026022Y044664D01*
X025994Y044703D01*
X025970Y044745D01*
X025949Y044789D01*
X025931Y044834D01*
X025918Y044881D01*
X025908Y044928D01*
X025902Y044977D01*
X025900Y045025D01*
X025895Y045025D02*
X025897Y045073D01*
X025903Y045121D01*
X025912Y045169D01*
X025926Y045215D01*
X025943Y045260D01*
X025964Y045304D01*
X025988Y045346D01*
X026015Y045385D01*
X026046Y045423D01*
X026079Y045458D01*
X026116Y045490D01*
X026154Y045519D01*
X026195Y045545D01*
X026238Y045567D01*
X026282Y045586D01*
X026328Y045601D01*
X026375Y045613D01*
X026423Y045621D01*
X026471Y045625D01*
X026519Y045625D01*
X026567Y045621D01*
X026615Y045613D01*
X026662Y045601D01*
X026708Y045586D01*
X026752Y045567D01*
X026795Y045545D01*
X026836Y045519D01*
X026874Y045490D01*
X026911Y045458D01*
X026944Y045423D01*
X026975Y045385D01*
X027002Y045346D01*
X027026Y045304D01*
X027047Y045260D01*
X027064Y045215D01*
X027078Y045169D01*
X027087Y045121D01*
X027093Y045073D01*
X027095Y045025D01*
X005100Y045025D02*
X005102Y045073D01*
X005108Y045122D01*
X005118Y045169D01*
X005131Y045216D01*
X005149Y045261D01*
X005170Y045305D01*
X005194Y045347D01*
X005222Y045386D01*
X005253Y045424D01*
X005287Y045458D01*
X005324Y045490D01*
X005363Y045519D01*
X005405Y045544D01*
X005448Y045566D01*
X005493Y045585D01*
X005539Y045599D01*
X005586Y045610D01*
X005634Y045617D01*
X005683Y045620D01*
X005731Y045619D01*
X005780Y045614D01*
X005827Y045605D01*
X005874Y045592D01*
X005920Y045576D01*
X005964Y045556D01*
X006006Y045532D01*
X006047Y045505D01*
X006085Y045475D01*
X006120Y045441D01*
X006153Y045405D01*
X006182Y045367D01*
X006208Y045326D01*
X006231Y045283D01*
X006250Y045239D01*
X006266Y045193D01*
X006278Y045146D01*
X006286Y045098D01*
X006290Y045049D01*
X006290Y045001D01*
X006286Y044952D01*
X006278Y044904D01*
X006266Y044857D01*
X006250Y044811D01*
X006231Y044767D01*
X006208Y044724D01*
X006182Y044683D01*
X006153Y044645D01*
X006120Y044609D01*
X006085Y044575D01*
X006047Y044545D01*
X006006Y044518D01*
X005964Y044494D01*
X005920Y044474D01*
X005874Y044458D01*
X005827Y044445D01*
X005780Y044436D01*
X005731Y044431D01*
X005683Y044430D01*
X005634Y044433D01*
X005586Y044440D01*
X005539Y044451D01*
X005493Y044465D01*
X005448Y044484D01*
X005405Y044506D01*
X005363Y044531D01*
X005324Y044560D01*
X005287Y044592D01*
X005253Y044626D01*
X005222Y044664D01*
X005194Y044703D01*
X005170Y044745D01*
X005149Y044789D01*
X005131Y044834D01*
X005118Y044881D01*
X005108Y044928D01*
X005102Y044977D01*
X005100Y045025D01*
X005095Y045025D02*
X005097Y045073D01*
X005103Y045121D01*
X005112Y045169D01*
X005126Y045215D01*
X005143Y045260D01*
X005164Y045304D01*
X005188Y045346D01*
X005215Y045385D01*
X005246Y045423D01*
X005279Y045458D01*
X005316Y045490D01*
X005354Y045519D01*
X005395Y045545D01*
X005438Y045567D01*
X005482Y045586D01*
X005528Y045601D01*
X005575Y045613D01*
X005623Y045621D01*
X005671Y045625D01*
X005719Y045625D01*
X005767Y045621D01*
X005815Y045613D01*
X005862Y045601D01*
X005908Y045586D01*
X005952Y045567D01*
X005995Y045545D01*
X006036Y045519D01*
X006074Y045490D01*
X006111Y045458D01*
X006144Y045423D01*
X006175Y045385D01*
X006202Y045346D01*
X006226Y045304D01*
X006247Y045260D01*
X006264Y045215D01*
X006278Y045169D01*
X006287Y045121D01*
X006293Y045073D01*
X006295Y045025D01*
X005100Y043625D02*
X005102Y043673D01*
X005108Y043722D01*
X005118Y043769D01*
X005131Y043816D01*
X005149Y043861D01*
X005170Y043905D01*
X005194Y043947D01*
X005222Y043986D01*
X005253Y044024D01*
X005287Y044058D01*
X005324Y044090D01*
X005363Y044119D01*
X005405Y044144D01*
X005448Y044166D01*
X005493Y044185D01*
X005539Y044199D01*
X005586Y044210D01*
X005634Y044217D01*
X005683Y044220D01*
X005731Y044219D01*
X005780Y044214D01*
X005827Y044205D01*
X005874Y044192D01*
X005920Y044176D01*
X005964Y044156D01*
X006006Y044132D01*
X006047Y044105D01*
X006085Y044075D01*
X006120Y044041D01*
X006153Y044005D01*
X006182Y043967D01*
X006208Y043926D01*
X006231Y043883D01*
X006250Y043839D01*
X006266Y043793D01*
X006278Y043746D01*
X006286Y043698D01*
X006290Y043649D01*
X006290Y043601D01*
X006286Y043552D01*
X006278Y043504D01*
X006266Y043457D01*
X006250Y043411D01*
X006231Y043367D01*
X006208Y043324D01*
X006182Y043283D01*
X006153Y043245D01*
X006120Y043209D01*
X006085Y043175D01*
X006047Y043145D01*
X006006Y043118D01*
X005964Y043094D01*
X005920Y043074D01*
X005874Y043058D01*
X005827Y043045D01*
X005780Y043036D01*
X005731Y043031D01*
X005683Y043030D01*
X005634Y043033D01*
X005586Y043040D01*
X005539Y043051D01*
X005493Y043065D01*
X005448Y043084D01*
X005405Y043106D01*
X005363Y043131D01*
X005324Y043160D01*
X005287Y043192D01*
X005253Y043226D01*
X005222Y043264D01*
X005194Y043303D01*
X005170Y043345D01*
X005149Y043389D01*
X005131Y043434D01*
X005118Y043481D01*
X005108Y043528D01*
X005102Y043577D01*
X005100Y043625D01*
X005095Y043625D02*
X005097Y043577D01*
X005103Y043529D01*
X005112Y043481D01*
X005126Y043435D01*
X005143Y043390D01*
X005164Y043346D01*
X005188Y043304D01*
X005215Y043265D01*
X005246Y043227D01*
X005279Y043192D01*
X005316Y043160D01*
X005354Y043131D01*
X005395Y043105D01*
X005438Y043083D01*
X005482Y043064D01*
X005528Y043049D01*
X005575Y043037D01*
X005623Y043029D01*
X005671Y043025D01*
X005719Y043025D01*
X005767Y043029D01*
X005815Y043037D01*
X005862Y043049D01*
X005908Y043064D01*
X005952Y043083D01*
X005995Y043105D01*
X006036Y043131D01*
X006074Y043160D01*
X006111Y043192D01*
X006144Y043227D01*
X006175Y043265D01*
X006202Y043304D01*
X006226Y043346D01*
X006247Y043390D01*
X006264Y043435D01*
X006278Y043481D01*
X006287Y043529D01*
X006293Y043577D01*
X006295Y043625D01*
D12*
X006295Y045025D01*
X005095Y045025D02*
X005095Y043625D01*
X025895Y043625D02*
X025895Y045025D01*
X027095Y045025D02*
X027095Y043625D01*
M02*
