G75*
G70*
%OFA0B0*%
%FSLAX24Y24*%
%IPPOS*%
%LPD*%
%AMOC8*
5,1,8,0,0,1.08239X$1,22.5*
%
%ADD10C,0.0780*%
%ADD11C,0.0715*%
%ADD12C,0.0635*%
%ADD13R,0.0592X0.0671*%
%ADD14R,0.0671X0.0592*%
%ADD15R,0.0790X0.0710*%
%ADD16R,0.0710X0.0790*%
%ADD17R,0.0789X0.0710*%
%ADD18C,0.0795*%
%ADD19OC8,0.0795*%
%ADD20C,0.0980*%
%ADD21C,0.0749*%
%ADD22C,0.1346*%
%ADD23C,0.0635*%
%ADD24OC8,0.0715*%
%ADD25C,0.0715*%
%ADD26R,0.0710X0.0592*%
%ADD27R,0.0592X0.0710*%
%ADD28C,0.0915*%
%ADD29C,0.1270*%
%ADD30C,0.0710*%
%ADD31C,0.0513*%
%ADD32C,0.0940*%
%ADD33C,0.0640*%
D10*
X022086Y010709D03*
X023086Y010709D03*
X024086Y010709D03*
X025086Y010709D03*
X026086Y010709D03*
X027086Y010709D03*
X027086Y009709D03*
X026086Y009709D03*
X025086Y009709D03*
X024086Y009709D03*
X023086Y009709D03*
X023086Y011709D03*
X023086Y012709D03*
X022086Y012709D03*
X022086Y011709D03*
X022086Y013709D03*
X022086Y014709D03*
X023086Y014709D03*
X023086Y013709D03*
X023086Y015709D03*
X023086Y016709D03*
X022086Y016709D03*
X022086Y015709D03*
X022086Y017709D03*
X022086Y018709D03*
X023086Y018709D03*
X023086Y017709D03*
X023086Y019709D03*
X023086Y020709D03*
X024086Y020709D03*
X025086Y020709D03*
X026086Y020709D03*
X027086Y020709D03*
X027086Y021709D03*
X026086Y021709D03*
X025086Y021709D03*
X024086Y021709D03*
X023086Y021709D03*
X022086Y020709D03*
X022086Y019709D03*
X028086Y020709D03*
X029086Y020709D03*
X030086Y020709D03*
X031086Y020709D03*
X032086Y020709D03*
X033086Y020709D03*
X033086Y019709D03*
X034086Y019709D03*
X034086Y020709D03*
X033086Y021709D03*
X032086Y021709D03*
X031086Y021709D03*
X030086Y021709D03*
X029086Y021709D03*
X028086Y021709D03*
X033086Y018709D03*
X033086Y017709D03*
X034086Y017709D03*
X034086Y018709D03*
X034086Y016709D03*
X034086Y015709D03*
X033086Y015709D03*
X033086Y016709D03*
X033086Y014709D03*
X033086Y013709D03*
X034086Y013709D03*
X034086Y014709D03*
X034086Y012709D03*
X034086Y011709D03*
X033086Y011709D03*
X033086Y012709D03*
X033086Y010709D03*
X032086Y010709D03*
X031086Y010709D03*
X030086Y010709D03*
X029086Y010709D03*
X028086Y010709D03*
X028086Y009709D03*
X029086Y009709D03*
X030086Y009709D03*
X031086Y009709D03*
X032086Y009709D03*
X033086Y009709D03*
X034086Y010709D03*
D11*
X037018Y011209D02*
X037653Y011209D01*
X037653Y010209D02*
X037018Y010209D01*
X037018Y009209D02*
X037653Y009209D01*
X037653Y008209D02*
X037018Y008209D01*
X037018Y007209D02*
X037653Y007209D01*
X037653Y006209D02*
X037018Y006209D01*
X039893Y006209D02*
X040528Y006209D01*
X040528Y007209D02*
X039893Y007209D01*
X039893Y008209D02*
X040528Y008209D01*
X040528Y009209D02*
X039893Y009209D01*
X039893Y010209D02*
X040528Y010209D01*
X040528Y011209D02*
X039893Y011209D01*
X039893Y012209D02*
X040528Y012209D01*
X040528Y013209D02*
X039893Y013209D01*
X039893Y014209D02*
X040528Y014209D01*
X040528Y015209D02*
X039893Y015209D01*
X039893Y016209D02*
X040528Y016209D01*
X040528Y017209D02*
X039893Y017209D01*
X039893Y018209D02*
X040528Y018209D01*
X040528Y019209D02*
X039893Y019209D01*
X037653Y019209D02*
X037018Y019209D01*
X037018Y018209D02*
X037653Y018209D01*
X037653Y017209D02*
X037018Y017209D01*
X037018Y016209D02*
X037653Y016209D01*
X037653Y015209D02*
X037018Y015209D01*
X037018Y014209D02*
X037653Y014209D01*
X037653Y013209D02*
X037018Y013209D01*
X037018Y012209D02*
X037653Y012209D01*
X043018Y012209D02*
X043653Y012209D01*
X043653Y013209D02*
X043018Y013209D01*
X043018Y014209D02*
X043653Y014209D01*
X043653Y015209D02*
X043018Y015209D01*
X043018Y016209D02*
X043653Y016209D01*
X043653Y017209D02*
X043018Y017209D01*
X043018Y018209D02*
X043653Y018209D01*
X043653Y019209D02*
X043018Y019209D01*
X044772Y013838D02*
X045407Y013838D01*
X045407Y012838D02*
X044772Y012838D01*
X044772Y011838D02*
X045407Y011838D01*
X045407Y010838D02*
X044772Y010838D01*
X043653Y011209D02*
X043018Y011209D01*
X043018Y010209D02*
X043653Y010209D01*
X044772Y009838D02*
X045407Y009838D01*
X045407Y008838D02*
X044772Y008838D01*
X043653Y009209D02*
X043018Y009209D01*
X043018Y008209D02*
X043653Y008209D01*
X044772Y007838D02*
X045407Y007838D01*
X045407Y006838D02*
X044772Y006838D01*
X043653Y007209D02*
X043018Y007209D01*
X043018Y006209D02*
X043653Y006209D01*
X044772Y005838D02*
X045407Y005838D01*
X045407Y004838D02*
X044772Y004838D01*
X047772Y004838D02*
X048407Y004838D01*
X048407Y005838D02*
X047772Y005838D01*
X047772Y006838D02*
X048407Y006838D01*
X048407Y007838D02*
X047772Y007838D01*
X047772Y008838D02*
X048407Y008838D01*
X048407Y009838D02*
X047772Y009838D01*
X047772Y010838D02*
X048407Y010838D01*
X048407Y011838D02*
X047772Y011838D01*
X047772Y012838D02*
X048407Y012838D01*
X049596Y012339D02*
X050231Y012339D01*
X050231Y011339D02*
X049596Y011339D01*
X049596Y010339D02*
X050231Y010339D01*
X050231Y009339D02*
X049596Y009339D01*
X049596Y008339D02*
X050231Y008339D01*
X050231Y007339D02*
X049596Y007339D01*
X049596Y006339D02*
X050231Y006339D01*
X050231Y005339D02*
X049596Y005339D01*
X049596Y004339D02*
X050231Y004339D01*
X050231Y003339D02*
X049596Y003339D01*
X052596Y003339D02*
X053231Y003339D01*
X053231Y004339D02*
X052596Y004339D01*
X052596Y005339D02*
X053231Y005339D01*
X053231Y006339D02*
X052596Y006339D01*
X052596Y007339D02*
X053231Y007339D01*
X053231Y008339D02*
X052596Y008339D01*
X052596Y009339D02*
X053231Y009339D01*
X053231Y010339D02*
X052596Y010339D01*
X052596Y011339D02*
X053231Y011339D01*
X053231Y012339D02*
X052596Y012339D01*
X052580Y013963D02*
X053214Y013963D01*
X053214Y014963D02*
X052580Y014963D01*
X052580Y015963D02*
X053214Y015963D01*
X053214Y016963D02*
X052580Y016963D01*
X052580Y017963D02*
X053214Y017963D01*
X053214Y018963D02*
X052580Y018963D01*
X052580Y019963D02*
X053214Y019963D01*
X053214Y020963D02*
X052580Y020963D01*
X052580Y021963D02*
X053214Y021963D01*
X053214Y022963D02*
X052580Y022963D01*
X050214Y022963D02*
X049580Y022963D01*
X049580Y021963D02*
X050214Y021963D01*
X050214Y020963D02*
X049580Y020963D01*
X049580Y019963D02*
X050214Y019963D01*
X050214Y018963D02*
X049580Y018963D01*
X049580Y017963D02*
X050214Y017963D01*
X050214Y016963D02*
X049580Y016963D01*
X049580Y015963D02*
X050214Y015963D01*
X050214Y014963D02*
X049580Y014963D01*
X049580Y013963D02*
X050214Y013963D01*
X048407Y013838D02*
X047772Y013838D01*
X055768Y014334D02*
X056403Y014334D01*
X056403Y015334D02*
X055768Y015334D01*
X055768Y016334D02*
X056403Y016334D01*
X056403Y017334D02*
X055768Y017334D01*
X055768Y018334D02*
X056403Y018334D01*
X061768Y018334D02*
X062403Y018334D01*
X062403Y017334D02*
X061768Y017334D01*
X061768Y016334D02*
X062403Y016334D01*
X062403Y015334D02*
X061768Y015334D01*
X061768Y014334D02*
X062403Y014334D01*
X062403Y013334D02*
X061768Y013334D01*
X061768Y012334D02*
X062403Y012334D01*
X062403Y011334D02*
X061768Y011334D01*
X061768Y010334D02*
X062403Y010334D01*
X062403Y009334D02*
X061768Y009334D01*
X061768Y008334D02*
X062403Y008334D01*
X062403Y007334D02*
X061768Y007334D01*
X061768Y006334D02*
X062403Y006334D01*
X062403Y005334D02*
X061768Y005334D01*
X061768Y004334D02*
X062403Y004334D01*
X062403Y003334D02*
X061768Y003334D01*
X056403Y003334D02*
X055768Y003334D01*
X055768Y004334D02*
X056403Y004334D01*
X056403Y005334D02*
X055768Y005334D01*
X055768Y006334D02*
X056403Y006334D01*
X056403Y007334D02*
X055768Y007334D01*
X055768Y008334D02*
X056403Y008334D01*
X056403Y009334D02*
X055768Y009334D01*
X055768Y010334D02*
X056403Y010334D01*
X056403Y011334D02*
X055768Y011334D01*
X055768Y012334D02*
X056403Y012334D01*
X056403Y013334D02*
X055768Y013334D01*
X053653Y026084D02*
X053018Y026084D01*
X053018Y027084D02*
X053653Y027084D01*
X053653Y028084D02*
X053018Y028084D01*
X053018Y029084D02*
X053653Y029084D01*
X053653Y030084D02*
X053018Y030084D01*
X053018Y031084D02*
X053653Y031084D01*
X053653Y032084D02*
X053018Y032084D01*
X053018Y033084D02*
X053653Y033084D01*
X053653Y034084D02*
X053018Y034084D01*
X053018Y035084D02*
X053653Y035084D01*
X053653Y036084D02*
X053018Y036084D01*
X053018Y037084D02*
X053653Y037084D01*
X053653Y038084D02*
X053018Y038084D01*
X053018Y039084D02*
X053653Y039084D01*
X053653Y040084D02*
X053018Y040084D01*
X053018Y041084D02*
X053653Y041084D01*
X053653Y042084D02*
X053018Y042084D01*
X053018Y043084D02*
X053653Y043084D01*
X053653Y044084D02*
X053018Y044084D01*
X053018Y045084D02*
X053653Y045084D01*
X055768Y045084D02*
X056403Y045084D01*
X056403Y044084D02*
X055768Y044084D01*
X055768Y043084D02*
X056403Y043084D01*
X056403Y042084D02*
X055768Y042084D01*
X055768Y041084D02*
X056403Y041084D01*
X056403Y040084D02*
X055768Y040084D01*
X055768Y039084D02*
X056403Y039084D01*
X056403Y038084D02*
X055768Y038084D01*
X055768Y037084D02*
X056403Y037084D01*
X056403Y036084D02*
X055768Y036084D01*
X055768Y035084D02*
X056403Y035084D01*
X056403Y034084D02*
X055768Y034084D01*
X055768Y033084D02*
X056403Y033084D01*
X056403Y032084D02*
X055768Y032084D01*
X055768Y031084D02*
X056403Y031084D01*
X056403Y030084D02*
X055768Y030084D01*
X061768Y030084D02*
X062403Y030084D01*
X062403Y031084D02*
X061768Y031084D01*
X061768Y032084D02*
X062403Y032084D01*
X062403Y033084D02*
X061768Y033084D01*
X061768Y034084D02*
X062403Y034084D01*
X062403Y035084D02*
X061768Y035084D01*
X061768Y036084D02*
X062403Y036084D01*
X062403Y037084D02*
X061768Y037084D01*
X061768Y038084D02*
X062403Y038084D01*
X062403Y039084D02*
X061768Y039084D01*
X061768Y040084D02*
X062403Y040084D01*
X062403Y041084D02*
X061768Y041084D01*
X061768Y042084D02*
X062403Y042084D01*
X062403Y043084D02*
X061768Y043084D01*
X061768Y044084D02*
X062403Y044084D01*
X062403Y045084D02*
X061768Y045084D01*
X047653Y045084D02*
X047018Y045084D01*
X047018Y044084D02*
X047653Y044084D01*
X047653Y043084D02*
X047018Y043084D01*
X047018Y042084D02*
X047653Y042084D01*
X047653Y041084D02*
X047018Y041084D01*
X047018Y040084D02*
X047653Y040084D01*
X047653Y039084D02*
X047018Y039084D01*
X047018Y038084D02*
X047653Y038084D01*
X047653Y037084D02*
X047018Y037084D01*
X047018Y036084D02*
X047653Y036084D01*
X047653Y035084D02*
X047018Y035084D01*
X047018Y034084D02*
X047653Y034084D01*
X047653Y033084D02*
X047018Y033084D01*
X047018Y032084D02*
X047653Y032084D01*
X047653Y031084D02*
X047018Y031084D01*
X047018Y030084D02*
X047653Y030084D01*
X047653Y029084D02*
X047018Y029084D01*
X047018Y028084D02*
X047653Y028084D01*
X047653Y027084D02*
X047018Y027084D01*
X047018Y026084D02*
X047653Y026084D01*
X042403Y026084D02*
X041768Y026084D01*
X041768Y027084D02*
X042403Y027084D01*
X042403Y028084D02*
X041768Y028084D01*
X041768Y029084D02*
X042403Y029084D01*
X042403Y030084D02*
X041768Y030084D01*
X041768Y031084D02*
X042403Y031084D01*
X042403Y032084D02*
X041768Y032084D01*
X041768Y033084D02*
X042403Y033084D01*
X042403Y034084D02*
X041768Y034084D01*
X041768Y035084D02*
X042403Y035084D01*
X042403Y036084D02*
X041768Y036084D01*
X041768Y037084D02*
X042403Y037084D01*
X042403Y038084D02*
X041768Y038084D01*
X041768Y039084D02*
X042403Y039084D01*
X042403Y040084D02*
X041768Y040084D01*
X041768Y041084D02*
X042403Y041084D01*
X042403Y042084D02*
X041768Y042084D01*
X041768Y043084D02*
X042403Y043084D01*
X042403Y044084D02*
X041768Y044084D01*
X041768Y045084D02*
X042403Y045084D01*
X036403Y045084D02*
X035768Y045084D01*
X035768Y044084D02*
X036403Y044084D01*
X036403Y043084D02*
X035768Y043084D01*
X035768Y042084D02*
X036403Y042084D01*
X036403Y041084D02*
X035768Y041084D01*
X035768Y040084D02*
X036403Y040084D01*
X036403Y039084D02*
X035768Y039084D01*
X035768Y038084D02*
X036403Y038084D01*
X036403Y037084D02*
X035768Y037084D01*
X035768Y036084D02*
X036403Y036084D01*
X036403Y035084D02*
X035768Y035084D01*
X035768Y034084D02*
X036403Y034084D01*
X036403Y033084D02*
X035768Y033084D01*
X035768Y032084D02*
X036403Y032084D01*
X036403Y031084D02*
X035768Y031084D01*
X035768Y030084D02*
X036403Y030084D01*
X036403Y029084D02*
X035768Y029084D01*
X035768Y028084D02*
X036403Y028084D01*
X036403Y027084D02*
X035768Y027084D01*
X035768Y026084D02*
X036403Y026084D01*
X030903Y026084D02*
X030268Y026084D01*
X030268Y027084D02*
X030903Y027084D01*
X030903Y028084D02*
X030268Y028084D01*
X030268Y029084D02*
X030903Y029084D01*
X030903Y030084D02*
X030268Y030084D01*
X030268Y031084D02*
X030903Y031084D01*
X030903Y032084D02*
X030268Y032084D01*
X030268Y033084D02*
X030903Y033084D01*
X030903Y034084D02*
X030268Y034084D01*
X030268Y035084D02*
X030903Y035084D01*
X030903Y036084D02*
X030268Y036084D01*
X030268Y037084D02*
X030903Y037084D01*
X030903Y038084D02*
X030268Y038084D01*
X030268Y039084D02*
X030903Y039084D01*
X030903Y040084D02*
X030268Y040084D01*
X030268Y041084D02*
X030903Y041084D01*
X030903Y042084D02*
X030268Y042084D01*
X030268Y043084D02*
X030903Y043084D01*
X030903Y044084D02*
X030268Y044084D01*
X030268Y045084D02*
X030903Y045084D01*
X024903Y045084D02*
X024268Y045084D01*
X024268Y044084D02*
X024903Y044084D01*
X024903Y043084D02*
X024268Y043084D01*
X024268Y042084D02*
X024903Y042084D01*
X024903Y041084D02*
X024268Y041084D01*
X024268Y040084D02*
X024903Y040084D01*
X024903Y039084D02*
X024268Y039084D01*
X024268Y038084D02*
X024903Y038084D01*
X024903Y037084D02*
X024268Y037084D01*
X024268Y036084D02*
X024903Y036084D01*
X024903Y035084D02*
X024268Y035084D01*
X024268Y034084D02*
X024903Y034084D01*
X024903Y033084D02*
X024268Y033084D01*
X024268Y032084D02*
X024903Y032084D01*
X024903Y031084D02*
X024268Y031084D01*
X024268Y030084D02*
X024903Y030084D01*
X024903Y029084D02*
X024268Y029084D01*
X024268Y028084D02*
X024903Y028084D01*
X024903Y027084D02*
X024268Y027084D01*
X024268Y026084D02*
X024903Y026084D01*
X022211Y031266D02*
X022211Y031901D01*
X021211Y031901D02*
X021211Y031266D01*
X020211Y031266D02*
X020211Y031901D01*
X019211Y031901D02*
X019211Y031266D01*
X018211Y031266D02*
X018211Y031901D01*
X017211Y031901D02*
X017211Y031266D01*
X016211Y031266D02*
X016211Y031901D01*
X015211Y031901D02*
X015211Y031266D01*
X014211Y031266D02*
X014211Y031901D01*
X013211Y031901D02*
X013211Y031266D01*
X012211Y031266D02*
X012211Y031901D01*
X011211Y031901D02*
X011211Y031266D01*
X011211Y035266D02*
X011211Y035901D01*
X012211Y035901D02*
X012211Y035266D01*
X013211Y035266D02*
X013211Y035901D01*
X014211Y035901D02*
X014211Y035266D01*
X015211Y035266D02*
X015211Y035901D01*
X016211Y035901D02*
X016211Y035266D01*
X017211Y035266D02*
X017211Y035901D01*
X018211Y035901D02*
X018211Y035266D01*
X019211Y035266D02*
X019211Y035901D01*
X020211Y035901D02*
X020211Y035266D01*
X021211Y035266D02*
X021211Y035901D01*
X022211Y035901D02*
X022211Y035266D01*
X011586Y026901D02*
X011586Y026266D01*
X010586Y026266D02*
X010586Y026901D01*
X009586Y026901D02*
X009586Y026266D01*
X008586Y026266D02*
X008586Y026901D01*
X007586Y026901D02*
X007586Y026266D01*
X006586Y026266D02*
X006586Y026901D01*
X005586Y026901D02*
X005586Y026266D01*
X005586Y023901D02*
X005586Y023266D01*
X006586Y023266D02*
X006586Y023901D01*
X007586Y023901D02*
X007586Y023266D01*
X008586Y023266D02*
X008586Y023901D01*
X009586Y023901D02*
X009586Y023266D01*
X010586Y023266D02*
X010586Y023901D01*
X011586Y023901D02*
X011586Y023266D01*
D12*
X008336Y021986D02*
X008336Y021431D01*
X006336Y021431D02*
X006336Y021986D01*
X006461Y028556D02*
X006461Y029111D01*
X008461Y029111D02*
X008461Y028556D01*
D13*
X008587Y025584D03*
X009335Y025584D03*
X008335Y024709D03*
X007587Y024709D03*
X007460Y025584D03*
X006712Y025584D03*
X006335Y024709D03*
X005587Y024709D03*
X020212Y012959D03*
X020960Y012959D03*
X021587Y009209D03*
X022335Y009209D03*
X022085Y008209D03*
X021337Y008209D03*
X023087Y007084D03*
X023835Y007084D03*
X022210Y006584D03*
X021462Y006584D03*
X025837Y007084D03*
X026585Y007084D03*
X026462Y011584D03*
X027210Y011584D03*
X049962Y030084D03*
X050710Y030084D03*
X046210Y034084D03*
X045462Y034084D03*
X045337Y035334D03*
X046085Y035334D03*
X033710Y045084D03*
X032962Y045084D03*
X032460Y042709D03*
X031712Y042709D03*
X027585Y039459D03*
X026837Y039459D03*
X027462Y038084D03*
X028210Y038084D03*
X026460Y042084D03*
X025712Y042084D03*
X025712Y043084D03*
X026460Y043084D03*
X026460Y044084D03*
X025712Y044084D03*
X025712Y045084D03*
X026460Y045084D03*
X026585Y047459D03*
X025837Y047459D03*
X027212Y054084D03*
X027960Y054084D03*
X049962Y052334D03*
X050710Y052334D03*
X050710Y051334D03*
X049962Y051334D03*
D14*
X045086Y036583D03*
X045086Y035835D03*
X044336Y035835D03*
X044336Y036583D03*
X044336Y034583D03*
X044336Y033835D03*
X028336Y040085D03*
X028336Y040833D03*
X027336Y042460D03*
X027336Y043208D03*
X025961Y041208D03*
X025961Y040460D03*
X025961Y039458D03*
X025961Y038710D03*
X022211Y034583D03*
X022211Y033835D03*
X019211Y033458D03*
X019211Y032710D03*
X019461Y036710D03*
X019461Y037458D03*
X020336Y037458D03*
X020336Y036710D03*
X015211Y036710D03*
X015211Y037458D03*
X014211Y033333D03*
X014211Y032585D03*
X013211Y032585D03*
X013211Y033333D03*
X012211Y033333D03*
X012211Y032585D03*
X027836Y013083D03*
X027836Y012335D03*
X020836Y009833D03*
X020836Y009085D03*
D15*
X037336Y036024D03*
X038336Y036024D03*
X038336Y037143D03*
X037336Y037143D03*
X033211Y041524D03*
X033211Y042643D03*
D16*
X029521Y043084D03*
X028401Y043084D03*
D17*
X028086Y046407D03*
X028086Y047510D03*
X042961Y001635D03*
X042961Y000532D03*
D18*
X032711Y039084D03*
D19*
X033711Y039084D03*
X033711Y038084D03*
X032711Y038084D03*
X032711Y037084D03*
X033711Y037084D03*
X019961Y018209D03*
X018961Y018209D03*
X018961Y017209D03*
X019961Y017209D03*
X019961Y016209D03*
X018961Y016209D03*
X018961Y015209D03*
X019961Y015209D03*
X019961Y014209D03*
X018961Y014209D03*
D20*
X078557Y061545D03*
X077585Y062541D03*
X080530Y062537D03*
X082494Y061549D03*
X083494Y062541D03*
X082494Y066471D03*
X078554Y066471D03*
D21*
X051550Y053237D03*
X050723Y053237D03*
X049699Y053237D03*
X048872Y053237D03*
X048872Y052253D03*
X051550Y052253D03*
D22*
X050211Y054733D03*
D23*
X017711Y005584D03*
X018711Y005584D03*
X019711Y005584D03*
X019711Y007584D03*
X018711Y007584D03*
X017711Y007584D03*
X017711Y009584D03*
X018711Y009584D03*
X019711Y009584D03*
X019711Y011584D03*
X018711Y011584D03*
X017711Y011584D03*
D24*
X021336Y028834D03*
X020836Y039834D03*
X018836Y039709D03*
X016336Y039834D03*
D25*
X016336Y038834D03*
X018836Y038709D03*
X020836Y038834D03*
X022336Y028834D03*
D26*
X017211Y033835D03*
X017211Y034583D03*
X016086Y036710D03*
X016086Y037458D03*
X018586Y037458D03*
X018586Y036710D03*
D27*
X017710Y037459D03*
X016962Y037459D03*
D28*
X025711Y049666D02*
X025711Y050501D01*
X026461Y051666D02*
X026461Y052501D01*
X027961Y052501D02*
X027961Y051666D01*
X028711Y050501D02*
X028711Y049666D01*
X027211Y049666D02*
X027211Y050501D01*
X029461Y051666D02*
X029461Y052501D01*
X030961Y052501D02*
X030961Y051666D01*
X031711Y050501D02*
X031711Y049666D01*
X033211Y049666D02*
X033211Y050501D01*
X034711Y050501D02*
X034711Y049666D01*
X036211Y049666D02*
X036211Y050501D01*
X036961Y051666D02*
X036961Y052501D01*
X038461Y052501D02*
X038461Y051666D01*
X039211Y050501D02*
X039211Y049666D01*
X040711Y049666D02*
X040711Y050501D01*
X039961Y051666D02*
X039961Y052501D01*
X037711Y050501D02*
X037711Y049666D01*
X035461Y051666D02*
X035461Y052501D01*
X033961Y052501D02*
X033961Y051666D01*
X032461Y051666D02*
X032461Y052501D01*
X030211Y050501D02*
X030211Y049666D01*
D29*
X022811Y051984D03*
X022811Y053384D03*
X043611Y053384D03*
X043611Y051984D03*
D30*
X011186Y043359D03*
D31*
X019486Y043359D03*
D32*
X046086Y039834D03*
X046086Y038084D03*
X051836Y039584D03*
X052211Y041584D03*
X051836Y026084D03*
D33*
X040211Y015209D03*
M02*
