G75*
G70*
%OFA0B0*%
%FSLAX24Y24*%
%IPPOS*%
%LPD*%
%AMOC8*
5,1,8,0,0,1.08239X$1,22.5*
%
%ADD10C,0.0780*%
%ADD11C,0.1340*%
%ADD12C,0.0715*%
%ADD13C,0.0710*%
%ADD14C,0.0940*%
%ADD15OC8,0.0940*%
%ADD16R,0.0749X0.0749*%
%ADD17C,0.1852*%
%ADD18C,0.0907*%
%ADD19C,0.0915*%
%ADD20C,0.1270*%
%ADD21R,0.0580X0.1080*%
%ADD22R,0.0360X0.0640*%
%ADD23C,0.0710*%
%ADD24C,0.0513*%
%ADD25C,0.0795*%
%ADD26C,0.0867*%
%ADD27C,0.0867*%
%ADD28R,0.0789X0.0789*%
%ADD29C,0.1261*%
%ADD30R,0.0552X0.0552*%
%ADD31R,0.0671X0.0592*%
%ADD32R,0.0710X0.0790*%
%ADD33OC8,0.1080*%
%ADD34C,0.1080*%
%ADD35C,0.2049*%
D10*
X018970Y011975D03*
X019970Y011975D03*
X019970Y010975D03*
X020970Y010975D03*
X021970Y010975D03*
X021970Y011975D03*
X020970Y011975D03*
X019970Y012975D03*
X018970Y012975D03*
X018970Y013975D03*
X019970Y013975D03*
X019970Y014975D03*
X019970Y015975D03*
X018970Y015975D03*
X018970Y014975D03*
X018970Y016975D03*
X019970Y016975D03*
X019970Y017975D03*
X018970Y017975D03*
X018970Y018975D03*
X018970Y019975D03*
X019970Y019975D03*
X019970Y018975D03*
X021345Y019538D03*
X019970Y020975D03*
X018970Y020975D03*
X018970Y021975D03*
X019970Y021975D03*
X020970Y021975D03*
X021970Y021975D03*
X022970Y021975D03*
X023970Y021975D03*
X024970Y021975D03*
X025970Y021975D03*
X026970Y021975D03*
X027970Y021975D03*
X028970Y021975D03*
X029970Y021975D03*
X030970Y021975D03*
X030970Y020975D03*
X029970Y020975D03*
X029970Y019975D03*
X029970Y018975D03*
X030970Y018975D03*
X030970Y019975D03*
X030970Y017975D03*
X029970Y017975D03*
X029970Y016975D03*
X030970Y016975D03*
X030970Y015975D03*
X030970Y014975D03*
X029970Y014975D03*
X029970Y015975D03*
X029970Y013975D03*
X030970Y013975D03*
X030970Y012975D03*
X029970Y012975D03*
X029970Y011975D03*
X029970Y010975D03*
X030970Y011975D03*
X028970Y011975D03*
X028970Y010975D03*
X027970Y010975D03*
X026970Y010975D03*
X025970Y010975D03*
X025970Y011975D03*
X026970Y011975D03*
X027970Y011975D03*
X024970Y011975D03*
X024970Y010975D03*
X023970Y010975D03*
X022970Y010975D03*
X022970Y011975D03*
X023970Y011975D03*
X023970Y022975D03*
X022970Y022975D03*
X021970Y022975D03*
X020970Y022975D03*
X019970Y022975D03*
X024970Y022975D03*
X025970Y022975D03*
X026970Y022975D03*
X027970Y022975D03*
X028970Y022975D03*
X029970Y022975D03*
X063982Y045629D03*
X064809Y044645D03*
D11*
X027232Y019237D03*
X022708Y019237D03*
X022708Y014714D03*
X027232Y014714D03*
D12*
X033903Y014475D02*
X034537Y014475D01*
X034537Y015475D02*
X033903Y015475D01*
X033903Y016475D02*
X034537Y016475D01*
X034537Y017475D02*
X033903Y017475D01*
X033903Y018475D02*
X034537Y018475D01*
X034537Y019475D02*
X033903Y019475D01*
X033903Y020475D02*
X034537Y020475D01*
X039903Y020475D02*
X040537Y020475D01*
X040537Y019475D02*
X039903Y019475D01*
X039903Y018475D02*
X040537Y018475D01*
X040537Y017475D02*
X039903Y017475D01*
X039903Y016475D02*
X040537Y016475D01*
X040537Y015475D02*
X039903Y015475D01*
X039903Y014475D02*
X040537Y014475D01*
X041656Y014479D02*
X042291Y014479D01*
X042291Y015479D02*
X041656Y015479D01*
X041656Y013479D02*
X042291Y013479D01*
X042291Y012479D02*
X041656Y012479D01*
X041656Y011479D02*
X042291Y011479D01*
X042291Y010479D02*
X041656Y010479D01*
X040537Y010475D02*
X039903Y010475D01*
X039903Y009475D02*
X040537Y009475D01*
X041656Y009479D02*
X042291Y009479D01*
X042291Y008479D02*
X041656Y008479D01*
X041656Y007479D02*
X042291Y007479D01*
X042291Y006479D02*
X041656Y006479D01*
X040537Y007475D02*
X039903Y007475D01*
X039903Y008475D02*
X040537Y008475D01*
X044656Y008479D02*
X045291Y008479D01*
X045291Y007479D02*
X044656Y007479D01*
X044656Y006479D02*
X045291Y006479D01*
X047355Y006480D02*
X047990Y006480D01*
X047990Y007480D02*
X047355Y007480D01*
X047355Y008480D02*
X047990Y008480D01*
X047990Y009480D02*
X047355Y009480D01*
X047355Y010480D02*
X047990Y010480D01*
X047990Y011480D02*
X047355Y011480D01*
X047355Y012480D02*
X047990Y012480D01*
X047990Y013480D02*
X047355Y013480D01*
X047355Y014480D02*
X047990Y014480D01*
X047990Y015480D02*
X047355Y015480D01*
X045291Y015479D02*
X044656Y015479D01*
X044656Y014479D02*
X045291Y014479D01*
X045291Y013479D02*
X044656Y013479D01*
X044656Y012479D02*
X045291Y012479D01*
X045291Y011479D02*
X044656Y011479D01*
X044656Y010479D02*
X045291Y010479D01*
X045291Y009479D02*
X044656Y009479D01*
X040537Y011475D02*
X039903Y011475D01*
X039903Y012475D02*
X040537Y012475D01*
X040537Y013475D02*
X039903Y013475D01*
X034537Y013475D02*
X033903Y013475D01*
X033903Y012475D02*
X034537Y012475D01*
X034537Y011475D02*
X033903Y011475D01*
X033903Y010475D02*
X034537Y010475D01*
X034537Y009475D02*
X033903Y009475D01*
X033903Y008475D02*
X034537Y008475D01*
X034537Y007475D02*
X033903Y007475D01*
X050355Y007480D02*
X050990Y007480D01*
X050990Y008480D02*
X050355Y008480D01*
X050355Y009480D02*
X050990Y009480D01*
X050990Y010480D02*
X050355Y010480D01*
X050355Y011480D02*
X050990Y011480D01*
X050990Y012480D02*
X050355Y012480D01*
X050355Y013480D02*
X050990Y013480D01*
X050990Y014480D02*
X050355Y014480D01*
X050355Y015480D02*
X050990Y015480D01*
X053528Y015475D02*
X054162Y015475D01*
X054162Y014475D02*
X053528Y014475D01*
X053528Y013475D02*
X054162Y013475D01*
X054162Y012475D02*
X053528Y012475D01*
X053528Y011475D02*
X054162Y011475D01*
X054162Y010475D02*
X053528Y010475D01*
X053528Y009475D02*
X054162Y009475D01*
X054162Y008475D02*
X053528Y008475D01*
X053528Y007475D02*
X054162Y007475D01*
X054162Y006475D02*
X053528Y006475D01*
X050990Y006480D02*
X050355Y006480D01*
X059528Y006475D02*
X060162Y006475D01*
X060162Y007475D02*
X059528Y007475D01*
X059528Y008475D02*
X060162Y008475D01*
X060162Y009475D02*
X059528Y009475D01*
X059528Y010475D02*
X060162Y010475D01*
X060162Y011475D02*
X059528Y011475D01*
X059528Y012475D02*
X060162Y012475D01*
X060162Y013475D02*
X059528Y013475D01*
X059528Y014475D02*
X060162Y014475D01*
X060162Y015475D02*
X059528Y015475D01*
X059528Y016475D02*
X060162Y016475D01*
X060162Y017475D02*
X059528Y017475D01*
X059528Y018475D02*
X060162Y018475D01*
X060162Y019475D02*
X059528Y019475D01*
X059528Y020475D02*
X060162Y020475D01*
X060162Y021475D02*
X059528Y021475D01*
X059091Y023969D02*
X059091Y024604D01*
X058091Y024604D02*
X058091Y023969D01*
X057091Y023969D02*
X057091Y024604D01*
X056091Y024604D02*
X056091Y023969D01*
X055091Y023969D02*
X055091Y024604D01*
X054091Y024604D02*
X054091Y023969D01*
X053091Y023969D02*
X053091Y024604D01*
X052091Y024604D02*
X052091Y023969D01*
X053528Y021475D02*
X054162Y021475D01*
X054162Y020475D02*
X053528Y020475D01*
X053528Y019475D02*
X054162Y019475D01*
X054162Y018475D02*
X053528Y018475D01*
X053528Y017475D02*
X054162Y017475D01*
X054162Y016475D02*
X053528Y016475D01*
X060091Y023969D02*
X060091Y024604D01*
X061091Y024604D02*
X061091Y023969D01*
X061091Y026969D02*
X061091Y027604D01*
X060091Y027604D02*
X060091Y026969D01*
X059091Y026969D02*
X059091Y027604D01*
X058091Y027604D02*
X058091Y026969D01*
X057091Y026969D02*
X057091Y027604D01*
X056091Y027604D02*
X056091Y026969D01*
X055091Y026969D02*
X055091Y027604D01*
X054091Y027604D02*
X054091Y026969D01*
X053091Y026969D02*
X053091Y027604D01*
X052091Y027604D02*
X052091Y026969D01*
X050287Y028600D02*
X049653Y028600D01*
X049653Y029600D02*
X050287Y029600D01*
X050287Y030600D02*
X049653Y030600D01*
X049653Y031600D02*
X050287Y031600D01*
X050287Y032600D02*
X049653Y032600D01*
X049653Y033600D02*
X050287Y033600D01*
X050287Y034600D02*
X049653Y034600D01*
X049653Y035600D02*
X050287Y035600D01*
X050287Y036600D02*
X049653Y036600D01*
X049653Y037600D02*
X050287Y037600D01*
X050287Y038600D02*
X049653Y038600D01*
X049653Y039600D02*
X050287Y039600D01*
X050287Y040600D02*
X049653Y040600D01*
X049653Y041600D02*
X050287Y041600D01*
X050287Y042600D02*
X049653Y042600D01*
X049653Y043600D02*
X050287Y043600D01*
X050287Y044600D02*
X049653Y044600D01*
X049653Y045600D02*
X050287Y045600D01*
X050287Y046600D02*
X049653Y046600D01*
X049653Y047600D02*
X050287Y047600D01*
X053528Y047600D02*
X054162Y047600D01*
X054162Y046600D02*
X053528Y046600D01*
X053528Y045600D02*
X054162Y045600D01*
X054162Y044600D02*
X053528Y044600D01*
X053528Y043600D02*
X054162Y043600D01*
X054162Y042600D02*
X053528Y042600D01*
X053528Y041600D02*
X054162Y041600D01*
X054162Y040600D02*
X053528Y040600D01*
X053528Y039600D02*
X054162Y039600D01*
X054162Y038600D02*
X053528Y038600D01*
X053528Y037600D02*
X054162Y037600D01*
X054162Y036600D02*
X053528Y036600D01*
X053528Y035600D02*
X054162Y035600D01*
X054162Y034600D02*
X053528Y034600D01*
X053528Y033600D02*
X054162Y033600D01*
X054162Y032600D02*
X053528Y032600D01*
X059528Y032600D02*
X060162Y032600D01*
X060162Y033600D02*
X059528Y033600D01*
X059528Y034600D02*
X060162Y034600D01*
X060162Y035600D02*
X059528Y035600D01*
X059528Y036600D02*
X060162Y036600D01*
X060162Y037600D02*
X059528Y037600D01*
X059528Y038600D02*
X060162Y038600D01*
X060162Y039600D02*
X059528Y039600D01*
X059528Y040600D02*
X060162Y040600D01*
X060162Y041600D02*
X059528Y041600D01*
X059528Y042600D02*
X060162Y042600D01*
X060162Y043600D02*
X059528Y043600D01*
X059528Y044600D02*
X060162Y044600D01*
X060162Y045600D02*
X059528Y045600D01*
X059528Y046600D02*
X060162Y046600D01*
X060162Y047600D02*
X059528Y047600D01*
X044287Y047600D02*
X043653Y047600D01*
X043653Y046600D02*
X044287Y046600D01*
X044287Y045600D02*
X043653Y045600D01*
X043653Y044600D02*
X044287Y044600D01*
X044287Y043600D02*
X043653Y043600D01*
X043653Y042600D02*
X044287Y042600D01*
X044287Y041600D02*
X043653Y041600D01*
X043653Y040600D02*
X044287Y040600D01*
X044287Y039600D02*
X043653Y039600D01*
X043653Y038600D02*
X044287Y038600D01*
X044287Y037600D02*
X043653Y037600D01*
X043653Y036600D02*
X044287Y036600D01*
X044287Y035600D02*
X043653Y035600D01*
X043653Y034600D02*
X044287Y034600D01*
X044287Y033600D02*
X043653Y033600D01*
X043653Y032600D02*
X044287Y032600D01*
X044287Y031600D02*
X043653Y031600D01*
X043653Y030600D02*
X044287Y030600D01*
X044287Y029600D02*
X043653Y029600D01*
X043653Y028600D02*
X044287Y028600D01*
X039912Y028600D02*
X039278Y028600D01*
X039278Y029600D02*
X039912Y029600D01*
X039912Y030600D02*
X039278Y030600D01*
X039278Y031600D02*
X039912Y031600D01*
X039912Y032600D02*
X039278Y032600D01*
X039278Y033600D02*
X039912Y033600D01*
X039912Y034600D02*
X039278Y034600D01*
X039278Y035600D02*
X039912Y035600D01*
X039912Y036600D02*
X039278Y036600D01*
X039278Y037600D02*
X039912Y037600D01*
X039912Y038600D02*
X039278Y038600D01*
X039278Y039600D02*
X039912Y039600D01*
X039912Y040600D02*
X039278Y040600D01*
X039278Y041600D02*
X039912Y041600D01*
X039912Y042600D02*
X039278Y042600D01*
X039278Y043600D02*
X039912Y043600D01*
X039912Y044600D02*
X039278Y044600D01*
X039278Y045600D02*
X039912Y045600D01*
X039912Y046600D02*
X039278Y046600D01*
X039278Y047600D02*
X039912Y047600D01*
X033912Y047600D02*
X033278Y047600D01*
X033278Y046600D02*
X033912Y046600D01*
X033912Y045600D02*
X033278Y045600D01*
X033278Y044600D02*
X033912Y044600D01*
X033912Y043600D02*
X033278Y043600D01*
X033278Y042600D02*
X033912Y042600D01*
X033912Y041600D02*
X033278Y041600D01*
X033278Y040600D02*
X033912Y040600D01*
X033912Y039600D02*
X033278Y039600D01*
X033278Y038600D02*
X033912Y038600D01*
X033912Y037600D02*
X033278Y037600D01*
X033278Y036600D02*
X033912Y036600D01*
X033912Y035600D02*
X033278Y035600D01*
X033278Y034600D02*
X033912Y034600D01*
X033912Y033600D02*
X033278Y033600D01*
X033278Y032600D02*
X033912Y032600D01*
X033912Y031600D02*
X033278Y031600D01*
X033278Y030600D02*
X033912Y030600D01*
X033912Y029600D02*
X033278Y029600D01*
X033278Y028600D02*
X033912Y028600D01*
X029845Y032783D02*
X029845Y033418D01*
X028845Y033418D02*
X028845Y032783D01*
X027845Y032783D02*
X027845Y033418D01*
X026845Y033418D02*
X026845Y032783D01*
X025845Y032783D02*
X025845Y033418D01*
X024845Y033418D02*
X024845Y032783D01*
X023845Y032783D02*
X023845Y033418D01*
X022845Y033418D02*
X022845Y032783D01*
X021845Y032783D02*
X021845Y033418D01*
X020845Y033418D02*
X020845Y032783D01*
X019845Y032783D02*
X019845Y033418D01*
X018845Y033418D02*
X018845Y032783D01*
X017845Y032783D02*
X017845Y033418D01*
X016845Y033418D02*
X016845Y032783D01*
X015845Y032783D02*
X015845Y033418D01*
X014845Y033418D02*
X014845Y032783D01*
X013845Y032783D02*
X013845Y033418D01*
X012845Y033418D02*
X012845Y032783D01*
X011845Y032783D02*
X011845Y033418D01*
X010845Y033418D02*
X010845Y032783D01*
X007662Y032850D02*
X007028Y032850D01*
X007028Y031850D02*
X007662Y031850D01*
X007662Y030850D02*
X007028Y030850D01*
X007028Y029850D02*
X007662Y029850D01*
X007662Y028850D02*
X007028Y028850D01*
X007345Y027668D02*
X007345Y027033D01*
X006345Y027033D02*
X006345Y027668D01*
X005345Y027668D02*
X005345Y027033D01*
X004345Y027033D02*
X004345Y027668D01*
X003345Y027668D02*
X003345Y027033D01*
X003028Y028850D02*
X003662Y028850D01*
X003662Y029850D02*
X003028Y029850D01*
X003028Y030850D02*
X003662Y030850D01*
X003662Y031850D02*
X003028Y031850D01*
X003028Y032850D02*
X003662Y032850D01*
X003662Y033850D02*
X003028Y033850D01*
X003028Y034850D02*
X003662Y034850D01*
X003662Y035850D02*
X003028Y035850D01*
X003028Y036850D02*
X003662Y036850D01*
X003662Y037850D02*
X003028Y037850D01*
X003028Y038850D02*
X003662Y038850D01*
X003662Y039850D02*
X003028Y039850D01*
X007028Y039850D02*
X007662Y039850D01*
X007662Y038850D02*
X007028Y038850D01*
X007028Y037850D02*
X007662Y037850D01*
X007662Y036850D02*
X007028Y036850D01*
X007028Y035850D02*
X007662Y035850D01*
X007662Y034850D02*
X007028Y034850D01*
X007028Y033850D02*
X007662Y033850D01*
X010845Y038783D02*
X010845Y039418D01*
X011845Y039418D02*
X011845Y038783D01*
X012845Y038783D02*
X012845Y039418D01*
X013845Y039418D02*
X013845Y038783D01*
X014845Y038783D02*
X014845Y039418D01*
X015845Y039418D02*
X015845Y038783D01*
X016845Y038783D02*
X016845Y039418D01*
X017845Y039418D02*
X017845Y038783D01*
X018845Y038783D02*
X018845Y039418D01*
X019845Y039418D02*
X019845Y038783D01*
X020845Y038783D02*
X020845Y039418D01*
X021845Y039418D02*
X021845Y038783D01*
X022845Y038783D02*
X022845Y039418D01*
X023845Y039418D02*
X023845Y038783D01*
X024845Y038783D02*
X024845Y039418D01*
X025845Y039418D02*
X025845Y038783D01*
X026845Y038783D02*
X026845Y039418D01*
X027845Y039418D02*
X027845Y038783D01*
X028845Y038783D02*
X028845Y039418D01*
X029845Y039418D02*
X029845Y038783D01*
X009345Y027668D02*
X009345Y027033D01*
X008345Y027033D02*
X008345Y027668D01*
X008345Y024668D02*
X008345Y024033D01*
X007345Y024033D02*
X007345Y024668D01*
X006345Y024668D02*
X006345Y024033D01*
X005345Y024033D02*
X005345Y024668D01*
X004345Y024668D02*
X004345Y024033D01*
X003345Y024033D02*
X003345Y024668D01*
X009345Y024668D02*
X009345Y024033D01*
X014403Y021100D02*
X015037Y021100D01*
X015037Y020100D02*
X014403Y020100D01*
X014403Y019100D02*
X015037Y019100D01*
D13*
X036905Y019475D02*
X037535Y019475D01*
X037535Y018475D02*
X036905Y018475D01*
X036905Y017475D02*
X037535Y017475D01*
X037535Y016475D02*
X036905Y016475D01*
X036905Y015475D02*
X037535Y015475D01*
X037535Y014475D02*
X036905Y014475D01*
X036905Y013475D02*
X037535Y013475D01*
X037535Y012475D02*
X036905Y012475D01*
X036905Y011475D02*
X037535Y011475D01*
X037535Y010475D02*
X036905Y010475D01*
X036905Y009475D02*
X037535Y009475D01*
X037535Y008475D02*
X036905Y008475D01*
X036905Y007475D02*
X037535Y007475D01*
X037535Y020475D02*
X036905Y020475D01*
D14*
X032908Y020975D03*
X036470Y024350D03*
X039970Y025100D03*
X040470Y027038D03*
X039470Y027600D03*
X038220Y027725D03*
X035595Y027850D03*
X029970Y025975D03*
X029095Y028350D03*
X027970Y028350D03*
X026095Y025350D03*
X024970Y025350D03*
X023845Y025350D03*
X021470Y024725D03*
X019470Y024850D03*
X018845Y025725D03*
X017970Y024350D03*
X021220Y026850D03*
X020220Y026975D03*
X019220Y027225D03*
X017220Y031475D03*
X016220Y031100D03*
X013720Y030350D03*
X010845Y030613D03*
X009845Y031038D03*
X008470Y029850D03*
X010845Y028713D03*
X009720Y025163D03*
X012220Y023475D03*
X011095Y021225D03*
X011345Y019975D03*
X011970Y019100D03*
X012595Y019975D03*
X013470Y020725D03*
X010220Y019100D03*
X009095Y019100D03*
X008845Y020413D03*
X007283Y019163D03*
X003345Y020650D03*
X003345Y022550D03*
X003095Y017725D03*
X002720Y015850D03*
X003470Y012350D03*
X003470Y011350D03*
X001220Y009663D03*
X015970Y016600D03*
X017220Y016100D03*
X016970Y014600D03*
X021595Y016163D03*
X024970Y015288D03*
X028720Y017538D03*
X025220Y019788D03*
X029033Y014475D03*
X032908Y015788D03*
X042970Y022600D03*
X044970Y021350D03*
X046595Y023975D03*
X049595Y027350D03*
X047845Y029350D03*
X047095Y028475D03*
X042095Y027350D03*
X041470Y028975D03*
X042595Y032475D03*
X046158Y032475D03*
X042595Y036100D03*
X046158Y036475D03*
X047845Y040225D03*
X046470Y041475D03*
X047720Y042100D03*
X048595Y042600D03*
X045595Y043350D03*
X047970Y045350D03*
X041845Y046475D03*
X041345Y045100D03*
X041970Y040225D03*
X036220Y039100D03*
X036595Y036100D03*
X036095Y035225D03*
X029595Y040288D03*
X025345Y043975D03*
X024345Y040850D03*
X019845Y041475D03*
X016845Y041475D03*
X014095Y041475D03*
X011470Y041100D03*
X011220Y036600D03*
X011720Y035475D03*
X003720Y041413D03*
X002720Y041663D03*
X001720Y043038D03*
X017220Y020100D03*
X016970Y010600D03*
X020595Y010163D03*
X048095Y018475D03*
X056845Y008038D03*
X055845Y006475D03*
X062095Y019850D03*
X062345Y030975D03*
X061470Y032475D03*
X064470Y032725D03*
X064720Y035100D03*
X061970Y037350D03*
X057345Y039475D03*
X055845Y042600D03*
X056470Y045600D03*
D15*
X025345Y042975D03*
X023345Y040850D03*
X018845Y041475D03*
X015845Y041475D03*
X013095Y041475D03*
X010470Y041100D03*
X001720Y041663D03*
X009470Y029850D03*
X015095Y026350D03*
X015095Y025350D03*
X016095Y025350D03*
X016095Y026350D03*
X016095Y024350D03*
X016095Y023350D03*
X016095Y022350D03*
X015095Y022350D03*
X015095Y023350D03*
X012220Y024475D03*
X011220Y024475D03*
X011220Y023475D03*
X011220Y025475D03*
X012220Y025475D03*
X010095Y021225D03*
D16*
X062131Y044645D03*
X062131Y045629D03*
X062958Y045629D03*
X064809Y045629D03*
D17*
X063470Y047125D03*
D18*
X022470Y008725D03*
X022470Y007725D03*
X022470Y006725D03*
X020470Y006725D03*
X020470Y007725D03*
X020470Y008725D03*
X018595Y008725D03*
X018595Y007725D03*
X018595Y006725D03*
X016595Y006725D03*
X016595Y007725D03*
X016595Y008725D03*
D19*
X016095Y042683D02*
X016095Y043518D01*
X015345Y044683D02*
X015345Y045518D01*
X013845Y045518D02*
X013845Y044683D01*
X013095Y043518D02*
X013095Y042683D01*
X011595Y042683D02*
X011595Y043518D01*
X010845Y044683D02*
X010845Y045518D01*
X009345Y045518D02*
X009345Y044683D01*
X008595Y043518D02*
X008595Y042683D01*
X010095Y042683D02*
X010095Y043518D01*
X012345Y044683D02*
X012345Y045518D01*
X014595Y043518D02*
X014595Y042683D01*
X016845Y044683D02*
X016845Y045518D01*
X018345Y045518D02*
X018345Y044683D01*
X017595Y043518D02*
X017595Y042683D01*
X019095Y042683D02*
X019095Y043518D01*
X019845Y044683D02*
X019845Y045518D01*
X021345Y045518D02*
X021345Y044683D01*
X020595Y043518D02*
X020595Y042683D01*
X022095Y042683D02*
X022095Y043518D01*
X022845Y044683D02*
X022845Y045518D01*
X023595Y043518D02*
X023595Y042683D01*
D20*
X026495Y045000D03*
X026495Y046400D03*
X005695Y046400D03*
X005695Y045000D03*
D21*
X005051Y017475D03*
X005145Y011975D03*
X015239Y017475D03*
X015845Y011975D03*
D22*
X014245Y018275D03*
X013245Y018275D03*
X012245Y018275D03*
X011245Y018275D03*
X010245Y018275D03*
X009245Y018275D03*
X008245Y018275D03*
X007245Y018275D03*
X006645Y018275D03*
X006145Y018275D03*
X005645Y018275D03*
D23*
X014245Y017075D03*
D24*
X005945Y017075D03*
D25*
X009113Y032600D02*
X009827Y032600D01*
X009827Y033600D02*
X009113Y033600D01*
X009113Y034600D02*
X009827Y034600D01*
X005595Y042618D02*
X005595Y043333D01*
X004595Y043333D02*
X004595Y042618D01*
X003595Y042618D02*
X003595Y043333D01*
X061970Y042020D02*
X061970Y041306D01*
X062970Y041306D02*
X062970Y042020D01*
X063970Y042020D02*
X063970Y041306D01*
X064970Y041306D02*
X064970Y042020D01*
D26*
X026132Y031975D02*
X025345Y031975D01*
D27*
X024345Y031975D03*
X023345Y031975D03*
X022345Y031975D03*
X021345Y031975D03*
X020345Y031975D03*
X019345Y031975D03*
X021345Y028975D03*
X022345Y028975D03*
X023345Y028975D03*
X024345Y028975D03*
X025345Y028975D03*
D28*
X020345Y028975D03*
X019345Y028975D03*
D29*
X030970Y044882D03*
X029887Y045866D03*
X030970Y046850D03*
D30*
X004220Y018139D03*
X004220Y017312D03*
X004220Y016139D03*
X004220Y015312D03*
D31*
X003095Y018726D03*
X003095Y019475D03*
X002095Y034226D03*
X002095Y034975D03*
D32*
X003098Y013788D03*
X004217Y013788D03*
D33*
X027095Y040588D03*
D34*
X027095Y041988D03*
D35*
X002970Y007725D03*
X024595Y006475D03*
X045095Y024725D03*
X064595Y039100D03*
X029720Y042350D03*
X002220Y046725D03*
X063720Y007725D03*
M02*
