G75*
G70*
%OFA0B0*%
%FSLAX24Y24*%
%IPPOS*%
%LPD*%
%AMOC8*
5,1,8,0,0,1.08239X$1,22.5*
%
%ADD10C,0.0060*%
%ADD11R,0.0551X0.0256*%
%ADD12C,0.0040*%
%ADD13R,0.0560X0.0140*%
%ADD14R,0.0256X0.0551*%
%ADD15R,0.0290X0.0690*%
%ADD16R,0.0690X0.0290*%
%ADD17R,0.0295X0.0571*%
%ADD18R,0.0571X0.0295*%
%ADD19R,0.0230X0.0720*%
%ADD20R,0.0295X0.0669*%
%ADD21R,0.0669X0.0295*%
%ADD22R,0.0720X0.0230*%
%ADD23C,0.0080*%
%ADD24R,0.0730X0.1260*%
%ADD25R,0.0730X0.0340*%
D10*
X015713Y012350D02*
X015713Y013105D01*
X016353Y013105D02*
X016353Y012350D01*
X017309Y012475D02*
X017631Y012475D01*
X017631Y012100D02*
X017309Y012100D01*
X017309Y011600D02*
X017631Y011600D01*
X018496Y010788D02*
X018819Y010788D01*
X018819Y010288D02*
X018496Y010288D01*
X021220Y009324D02*
X021220Y009002D01*
X021720Y009002D02*
X021720Y009324D01*
X017631Y012975D02*
X017309Y012975D01*
X017309Y013350D02*
X017631Y013350D01*
X017631Y013850D02*
X017309Y013850D01*
X013470Y015189D02*
X013470Y015512D01*
X012970Y015512D02*
X012970Y015189D01*
X012095Y015189D02*
X012095Y015512D01*
X011595Y015512D02*
X011595Y015189D01*
X012470Y016814D02*
X012470Y017137D01*
X012970Y017137D02*
X012970Y016814D01*
X011631Y017100D02*
X011309Y017100D01*
X011309Y017600D02*
X011631Y017600D01*
X009415Y016350D02*
X009415Y015595D01*
X008775Y015595D02*
X008775Y016350D01*
X008881Y017225D02*
X008559Y017225D01*
X008559Y017725D02*
X008881Y017725D01*
X007470Y016887D02*
X007470Y016564D01*
X006970Y016564D02*
X006970Y016887D01*
X012184Y021100D02*
X012506Y021100D01*
X012506Y021600D02*
X012184Y021600D01*
X006006Y022975D02*
X005684Y022975D01*
X005684Y023475D02*
X006006Y023475D01*
X004595Y023074D02*
X004595Y022752D01*
X004095Y022752D02*
X004095Y023074D01*
X004934Y025975D02*
X005256Y025975D01*
X005256Y026475D02*
X004934Y026475D01*
X006809Y026475D02*
X007131Y026475D01*
X007131Y025975D02*
X006809Y025975D01*
X008559Y028600D02*
X008881Y028600D01*
X008881Y029100D02*
X008559Y029100D01*
X006045Y033770D02*
X005145Y033770D01*
X005145Y034430D02*
X006045Y034430D01*
X008653Y036155D02*
X009408Y036155D01*
X009408Y036795D02*
X008653Y036795D01*
X008653Y037155D02*
X009408Y037155D01*
X009408Y037795D02*
X008653Y037795D01*
X012595Y034762D02*
X012595Y034439D01*
X013095Y034439D02*
X013095Y034762D01*
X017845Y031199D02*
X017845Y030877D01*
X018345Y030877D02*
X018345Y031199D01*
X019595Y034439D02*
X019595Y034762D01*
X020095Y034762D02*
X020095Y034439D01*
X020595Y034439D02*
X020595Y034762D01*
X021095Y034762D02*
X021095Y034439D01*
X021595Y034439D02*
X021595Y034762D01*
X022095Y034762D02*
X022095Y034439D01*
X022595Y034439D02*
X022595Y034762D01*
X023095Y034762D02*
X023095Y034439D01*
X023595Y034439D02*
X023595Y034762D01*
X024095Y034762D02*
X024095Y034439D01*
X024470Y034439D02*
X024470Y034762D01*
X024970Y034762D02*
X024970Y034439D01*
X025345Y034320D02*
X025345Y034880D01*
X025845Y034880D02*
X025845Y034320D01*
X026220Y034439D02*
X026220Y034762D01*
X026720Y034762D02*
X026720Y034439D01*
X027025Y034345D02*
X027025Y035100D01*
X027665Y035100D02*
X027665Y034345D01*
X027970Y035564D02*
X027970Y035887D01*
X028470Y035887D02*
X028470Y035564D01*
X028845Y035439D02*
X028845Y035762D01*
X029345Y035762D02*
X029345Y035439D01*
X029720Y037155D02*
X028965Y037155D01*
X028965Y037795D02*
X029720Y037795D01*
X028095Y037762D02*
X028095Y037439D01*
X027595Y037439D02*
X027595Y037762D01*
X027095Y037762D02*
X027095Y037439D01*
X026595Y037439D02*
X026595Y037762D01*
X025725Y037655D02*
X024970Y037655D01*
X024934Y037350D02*
X025256Y037350D01*
X025256Y036850D02*
X024934Y036850D01*
X024970Y038295D02*
X025725Y038295D01*
X021944Y037350D02*
X021621Y037350D01*
X021621Y036850D02*
X021944Y036850D01*
X025595Y030512D02*
X025595Y030189D01*
X026095Y030189D02*
X026095Y030512D01*
X040720Y036820D02*
X040720Y037380D01*
X041220Y037380D02*
X041220Y036820D01*
X042515Y035050D02*
X042515Y034150D01*
X043175Y034150D02*
X043175Y035050D01*
X060845Y026074D02*
X060845Y025752D01*
X061345Y025752D02*
X061345Y026074D01*
X063345Y043155D02*
X064100Y043155D01*
X064100Y043795D02*
X063345Y043795D01*
X063434Y044475D02*
X063756Y044475D01*
X063756Y044975D02*
X063434Y044975D01*
X061970Y043920D02*
X061215Y043920D01*
X061215Y043280D02*
X061970Y043280D01*
X021720Y046655D02*
X020965Y046655D01*
X020965Y047295D02*
X021720Y047295D01*
X019415Y047355D02*
X019415Y046600D01*
X018775Y046600D02*
X018775Y047355D01*
X043309Y006725D02*
X043631Y006725D01*
X043631Y006225D02*
X043309Y006225D01*
X049059Y006225D02*
X049381Y006225D01*
X049381Y006725D02*
X049059Y006725D01*
D11*
X061094Y025625D03*
X061094Y026205D03*
X029096Y035308D03*
X029096Y035888D03*
X028219Y036018D03*
X028219Y035438D03*
X026471Y034888D03*
X026471Y034308D03*
X024721Y034308D03*
X024721Y034888D03*
X023846Y034888D03*
X023846Y034308D03*
X022846Y034308D03*
X022846Y034888D03*
X021846Y034888D03*
X021846Y034308D03*
X020846Y034308D03*
X020846Y034888D03*
X019846Y034888D03*
X019846Y034308D03*
X018096Y031326D03*
X018096Y030746D03*
X012844Y034313D03*
X012844Y034893D03*
X025844Y030643D03*
X025844Y030063D03*
X026844Y037313D03*
X026844Y037893D03*
X027844Y037893D03*
X027844Y037313D03*
X004346Y023201D03*
X004346Y022621D03*
X007219Y017018D03*
X007219Y016438D03*
X011846Y015638D03*
X011846Y015058D03*
X013221Y015058D03*
X013221Y015638D03*
X012721Y016683D03*
X012721Y017263D03*
X021469Y009455D03*
X021469Y008875D03*
D12*
X007512Y009370D02*
X007512Y009601D01*
X007589Y009677D01*
X007819Y009677D01*
X007819Y009370D01*
X007972Y009447D02*
X008049Y009370D01*
X008202Y009370D01*
X008279Y009447D01*
X007972Y009754D01*
X007972Y009447D01*
X007972Y009754D02*
X008049Y009831D01*
X008202Y009831D01*
X008279Y009754D01*
X008279Y009447D01*
X008433Y009447D02*
X008433Y009754D01*
X008740Y009447D01*
X008663Y009370D01*
X008509Y009370D01*
X008433Y009447D01*
X008740Y009447D02*
X008740Y009754D01*
X008663Y009831D01*
X008509Y009831D01*
X008433Y009754D01*
X008308Y009995D02*
X008615Y009995D01*
X008308Y010302D01*
X008308Y010379D01*
X008384Y010456D01*
X008538Y010456D01*
X008615Y010379D01*
X008768Y010379D02*
X008845Y010456D01*
X008998Y010456D01*
X009075Y010379D01*
X009075Y010072D01*
X008998Y009995D01*
X008845Y009995D01*
X008768Y010072D01*
X009047Y009831D02*
X009047Y009370D01*
X009200Y009370D02*
X008893Y009370D01*
X009200Y009677D02*
X009047Y009831D01*
X008154Y009995D02*
X008154Y010456D01*
X007924Y010456D01*
X007847Y010379D01*
X007847Y010226D01*
X007924Y010149D01*
X008154Y010149D01*
X006110Y009966D02*
X005820Y009966D01*
X005820Y010485D02*
X006120Y010485D01*
X005575Y010620D02*
X005268Y010620D01*
X005422Y010620D02*
X005422Y011081D01*
X005575Y010927D01*
X005373Y011245D02*
X005220Y011245D01*
X005143Y011322D01*
X004990Y011322D02*
X004913Y011245D01*
X004759Y011245D01*
X004683Y011322D01*
X004683Y011399D01*
X004759Y011476D01*
X004836Y011476D01*
X004759Y011476D02*
X004683Y011552D01*
X004683Y011629D01*
X004759Y011706D01*
X004913Y011706D01*
X004990Y011629D01*
X005143Y011629D02*
X005220Y011706D01*
X005373Y011706D01*
X005450Y011629D01*
X005450Y011322D01*
X005373Y011245D01*
X005115Y011004D02*
X005115Y010697D01*
X004808Y011004D01*
X004808Y010697D01*
X004884Y010620D01*
X005038Y010620D01*
X005115Y010697D01*
X005115Y011004D02*
X005038Y011081D01*
X004884Y011081D01*
X004808Y011004D01*
X004654Y011004D02*
X004577Y011081D01*
X004424Y011081D01*
X004347Y011004D01*
X004654Y010697D01*
X004577Y010620D01*
X004424Y010620D01*
X004347Y010697D01*
X004347Y011004D01*
X004194Y010927D02*
X003964Y010927D01*
X003887Y010851D01*
X003887Y010620D01*
X004194Y010620D02*
X004194Y010927D01*
X004529Y011245D02*
X004529Y011706D01*
X004299Y011706D01*
X004222Y011629D01*
X004222Y011476D01*
X004299Y011399D01*
X004529Y011399D01*
X004654Y011004D02*
X004654Y010697D01*
X002360Y011091D02*
X002070Y011091D01*
X002070Y011610D02*
X002370Y011610D01*
X002553Y013183D02*
X002553Y013490D01*
X002553Y013336D02*
X003013Y013336D01*
X002859Y013183D01*
X003178Y013385D02*
X003178Y013538D01*
X003254Y013615D01*
X003178Y013768D02*
X003178Y014075D01*
X003178Y013922D02*
X003638Y013922D01*
X003484Y013768D01*
X003561Y013615D02*
X003638Y013538D01*
X003638Y013385D01*
X003561Y013308D01*
X003254Y013308D01*
X003178Y013385D01*
X002936Y013643D02*
X003013Y013720D01*
X003013Y013874D01*
X002936Y013950D01*
X002629Y013643D01*
X002553Y013720D01*
X002553Y013874D01*
X002629Y013950D01*
X002936Y013950D01*
X002936Y014104D02*
X003013Y014181D01*
X003013Y014334D01*
X002936Y014411D01*
X002629Y014104D01*
X002553Y014181D01*
X002553Y014334D01*
X002629Y014411D01*
X002936Y014411D01*
X002859Y014564D02*
X002859Y014794D01*
X002783Y014871D01*
X002553Y014871D01*
X002553Y014564D02*
X002859Y014564D01*
X003178Y014229D02*
X003638Y014229D01*
X003638Y014459D01*
X003561Y014536D01*
X003408Y014536D01*
X003331Y014459D01*
X003331Y014229D01*
X002936Y014104D02*
X002629Y014104D01*
X002292Y013938D02*
X002292Y013638D01*
X002629Y013643D02*
X002936Y013643D01*
X001773Y013648D02*
X001773Y013938D01*
X006541Y017433D02*
X006771Y017586D01*
X006541Y017740D01*
X006771Y017893D02*
X006771Y017433D01*
X006925Y017510D02*
X006925Y017817D01*
X007232Y017510D01*
X007155Y017433D01*
X007001Y017433D01*
X006925Y017510D01*
X007232Y017510D02*
X007232Y017817D01*
X007155Y017893D01*
X007001Y017893D01*
X006925Y017817D01*
X006905Y018058D02*
X006905Y018518D01*
X007058Y018365D01*
X007212Y018442D02*
X007212Y018288D01*
X007288Y018211D01*
X007519Y018211D01*
X007519Y018058D02*
X007519Y018518D01*
X007288Y018518D01*
X007212Y018442D01*
X007365Y018211D02*
X007212Y018058D01*
X007058Y018058D02*
X006751Y018058D01*
X006598Y018058D02*
X006291Y018058D01*
X006444Y018058D02*
X006444Y018518D01*
X006598Y018365D01*
X007538Y017893D02*
X007538Y017433D01*
X007385Y017433D02*
X007692Y017433D01*
X007692Y017740D02*
X007538Y017893D01*
X007759Y017995D02*
X007990Y018149D01*
X007759Y018302D01*
X007990Y018456D02*
X007990Y017995D01*
X008143Y017995D02*
X008450Y017995D01*
X008297Y017995D02*
X008297Y018456D01*
X008450Y018302D01*
X008722Y018302D02*
X008799Y018226D01*
X008722Y018149D01*
X008722Y018072D01*
X008799Y017995D01*
X008952Y017995D01*
X009029Y018072D01*
X009183Y017995D02*
X009490Y017995D01*
X009643Y017995D02*
X009797Y018149D01*
X009720Y018149D02*
X009950Y018149D01*
X009950Y017995D02*
X009950Y018456D01*
X009720Y018456D01*
X009643Y018379D01*
X009643Y018226D01*
X009720Y018149D01*
X009490Y018302D02*
X009336Y018456D01*
X009336Y017995D01*
X009029Y018379D02*
X008952Y018456D01*
X008799Y018456D01*
X008722Y018379D01*
X008722Y018302D01*
X008799Y018226D02*
X008876Y018226D01*
X009853Y017379D02*
X009853Y017302D01*
X009930Y017226D01*
X010084Y017226D01*
X010160Y017302D01*
X010160Y017379D01*
X010084Y017456D01*
X009930Y017456D01*
X009853Y017379D01*
X009930Y017226D02*
X009853Y017149D01*
X009853Y017072D01*
X009930Y016995D01*
X010084Y016995D01*
X010160Y017072D01*
X010160Y017149D01*
X010084Y017226D01*
X010314Y017379D02*
X010391Y017456D01*
X010544Y017456D01*
X010621Y017379D01*
X010621Y017072D01*
X010544Y016995D01*
X010391Y016995D01*
X010314Y017072D01*
X010266Y016956D02*
X010189Y016879D01*
X010496Y016572D01*
X010419Y016495D01*
X010266Y016495D01*
X010189Y016572D01*
X010189Y016879D01*
X010266Y016956D02*
X010419Y016956D01*
X010496Y016879D01*
X010496Y016572D01*
X010649Y016572D02*
X010726Y016495D01*
X010879Y016495D01*
X010956Y016572D01*
X010649Y016879D01*
X010649Y016572D01*
X010649Y016879D02*
X010726Y016956D01*
X010879Y016956D01*
X010956Y016879D01*
X010956Y016572D01*
X011110Y016495D02*
X011417Y016495D01*
X011263Y016495D02*
X011263Y016956D01*
X011417Y016802D01*
X010745Y016235D02*
X010455Y016235D01*
X010035Y016495D02*
X010035Y016802D01*
X009805Y016802D01*
X009728Y016726D01*
X009728Y016495D01*
X010445Y015716D02*
X010745Y015716D01*
X010664Y015456D02*
X010664Y014995D01*
X010588Y014995D02*
X010741Y014995D01*
X010434Y015072D02*
X010434Y015226D01*
X010358Y015302D01*
X010204Y015302D01*
X010127Y015226D01*
X010127Y015072D01*
X010204Y014995D01*
X010358Y014995D01*
X010434Y015072D01*
X010588Y015456D02*
X010664Y015456D01*
X011355Y015456D02*
X011509Y015302D01*
X011662Y015456D01*
X011662Y014995D01*
X011815Y014995D02*
X011815Y015456D01*
X011969Y015302D01*
X012122Y015456D01*
X012122Y014995D01*
X012276Y015072D02*
X012353Y014995D01*
X012506Y014995D01*
X012583Y015072D01*
X012736Y014995D02*
X013043Y015456D01*
X013197Y015379D02*
X013197Y015302D01*
X013273Y015226D01*
X013427Y015226D01*
X013504Y015149D01*
X013504Y015072D01*
X013427Y014995D01*
X013273Y014995D01*
X013197Y015072D01*
X013197Y015379D02*
X013273Y015456D01*
X013427Y015456D01*
X013504Y015379D01*
X013615Y015334D02*
X013615Y015181D01*
X013692Y015104D01*
X013999Y015411D01*
X013692Y015411D01*
X013615Y015334D01*
X013657Y015456D02*
X013887Y015456D01*
X013964Y015379D01*
X013964Y015072D01*
X013887Y014995D01*
X013657Y014995D01*
X013657Y015456D01*
X013615Y015564D02*
X013922Y015564D01*
X013922Y015794D01*
X013845Y015871D01*
X013615Y015871D01*
X013916Y015836D02*
X013916Y015760D01*
X013993Y015683D01*
X014146Y015683D01*
X014223Y015760D01*
X014223Y015836D01*
X014146Y015913D01*
X013993Y015913D01*
X013916Y015836D01*
X013993Y015913D02*
X013916Y015990D01*
X013916Y016067D01*
X013993Y016143D01*
X014146Y016143D01*
X014223Y016067D01*
X014223Y015990D01*
X014146Y015913D01*
X014376Y015683D02*
X014683Y015683D01*
X014530Y015683D02*
X014530Y016143D01*
X014683Y015990D01*
X014837Y016067D02*
X014837Y015913D01*
X014913Y015836D01*
X015144Y015836D01*
X015144Y015683D02*
X015144Y016143D01*
X014913Y016143D01*
X014837Y016067D01*
X014990Y015836D02*
X014837Y015683D01*
X014837Y015518D02*
X014990Y015518D01*
X015067Y015442D01*
X014837Y015518D02*
X014760Y015442D01*
X014760Y015365D01*
X015067Y015058D01*
X014760Y015058D01*
X014607Y015058D02*
X014607Y015518D01*
X014376Y015365D02*
X014607Y015211D01*
X014376Y015058D01*
X014223Y015058D02*
X013916Y015365D01*
X013916Y015442D01*
X013993Y015518D01*
X014146Y015518D01*
X014223Y015442D01*
X014075Y015334D02*
X013999Y015411D01*
X014075Y015334D02*
X014075Y015181D01*
X013999Y015104D01*
X013692Y015104D01*
X013692Y014950D02*
X013615Y014874D01*
X013615Y014720D01*
X013692Y014643D01*
X013999Y014950D01*
X013692Y014950D01*
X013916Y015058D02*
X014223Y015058D01*
X014075Y014874D02*
X013999Y014950D01*
X014075Y014874D02*
X014075Y014720D01*
X013999Y014643D01*
X013692Y014643D01*
X013615Y014490D02*
X013615Y014183D01*
X013615Y014336D02*
X014075Y014336D01*
X013922Y014183D01*
X014335Y014523D02*
X014335Y014813D01*
X014855Y014813D02*
X014855Y014513D01*
X015097Y014572D02*
X015174Y014495D01*
X015327Y014495D01*
X015404Y014572D01*
X015097Y014879D01*
X015097Y014572D01*
X015115Y014643D02*
X015192Y014643D01*
X015499Y014950D01*
X015575Y014950D01*
X015575Y014643D01*
X015499Y014490D02*
X015575Y014413D01*
X015575Y014260D01*
X015499Y014183D01*
X015192Y014183D01*
X015115Y014260D01*
X015115Y014413D01*
X015192Y014490D01*
X015404Y014572D02*
X015404Y014879D01*
X015327Y014956D01*
X015174Y014956D01*
X015097Y014879D01*
X015558Y014879D02*
X015558Y014956D01*
X015865Y014956D01*
X016095Y014956D02*
X016325Y014726D01*
X016018Y014726D01*
X015865Y014572D02*
X015865Y014495D01*
X015865Y014572D02*
X015558Y014879D01*
X016095Y014956D02*
X016095Y014495D01*
X016095Y014331D02*
X016018Y014254D01*
X016018Y014101D01*
X016095Y014024D01*
X016325Y014024D01*
X016172Y014024D02*
X016018Y013870D01*
X015865Y013947D02*
X015788Y013870D01*
X015634Y013870D01*
X015558Y013947D01*
X015558Y014101D01*
X015634Y014177D01*
X015711Y014177D01*
X015865Y014101D01*
X015865Y014331D01*
X015558Y014331D01*
X016095Y014331D02*
X016325Y014331D01*
X016325Y013870D01*
X015450Y013379D02*
X015373Y013456D01*
X015220Y013456D01*
X015143Y013379D01*
X015143Y013302D01*
X015220Y013226D01*
X015143Y013149D01*
X015143Y013072D01*
X015220Y012995D01*
X015373Y012995D01*
X015450Y013072D01*
X015297Y013226D02*
X015220Y013226D01*
X014990Y013379D02*
X014913Y013456D01*
X014759Y013456D01*
X014683Y013379D01*
X014683Y013302D01*
X014759Y013226D01*
X014683Y013149D01*
X014683Y013072D01*
X014759Y012995D01*
X014913Y012995D01*
X014990Y013072D01*
X014836Y013226D02*
X014759Y013226D01*
X014529Y013379D02*
X014452Y013456D01*
X014299Y013456D01*
X014222Y013379D01*
X014529Y013072D01*
X014452Y012995D01*
X014299Y012995D01*
X014222Y013072D01*
X014222Y013379D01*
X014529Y013379D02*
X014529Y013072D01*
X014759Y012831D02*
X014683Y012754D01*
X014683Y012677D01*
X014759Y012601D01*
X014913Y012601D01*
X014990Y012677D01*
X014990Y012754D01*
X014913Y012831D01*
X014759Y012831D01*
X014759Y012601D02*
X014683Y012524D01*
X014683Y012447D01*
X014759Y012370D01*
X014913Y012370D01*
X014990Y012447D01*
X014990Y012524D01*
X014913Y012601D01*
X015143Y012601D02*
X015220Y012524D01*
X015450Y012524D01*
X015297Y012524D02*
X015143Y012370D01*
X015143Y012601D02*
X015143Y012754D01*
X015220Y012831D01*
X015450Y012831D01*
X015450Y012370D01*
X015327Y011581D02*
X015174Y011581D01*
X015097Y011504D01*
X015404Y011197D01*
X015327Y011120D01*
X015174Y011120D01*
X015097Y011197D01*
X015097Y011504D01*
X015327Y011581D02*
X015404Y011504D01*
X015404Y011197D01*
X015558Y011197D02*
X015634Y011120D01*
X015788Y011120D01*
X015865Y011197D01*
X016018Y011197D02*
X016095Y011120D01*
X016248Y011120D01*
X016325Y011197D01*
X016172Y011351D02*
X016095Y011351D01*
X016018Y011274D01*
X016018Y011197D01*
X016095Y011351D02*
X016018Y011427D01*
X016018Y011504D01*
X016095Y011581D01*
X016248Y011581D01*
X016325Y011504D01*
X015865Y011504D02*
X015788Y011581D01*
X015634Y011581D01*
X015558Y011504D01*
X015558Y011427D01*
X015634Y011351D01*
X015558Y011274D01*
X015558Y011197D01*
X015634Y011351D02*
X015711Y011351D01*
X015634Y010956D02*
X015788Y010956D01*
X015865Y010879D01*
X015865Y010802D01*
X015788Y010726D01*
X015558Y010726D01*
X015562Y010788D02*
X015562Y010328D01*
X015715Y010328D02*
X015409Y010328D01*
X015255Y010328D02*
X014948Y010328D01*
X014795Y010328D02*
X014488Y010328D01*
X014641Y010328D02*
X014641Y010788D01*
X014795Y010635D01*
X015102Y010788D02*
X015102Y010328D01*
X015255Y010635D02*
X015102Y010788D01*
X015562Y010788D02*
X015715Y010635D01*
X015788Y010495D02*
X015634Y010495D01*
X015558Y010572D01*
X015558Y010879D01*
X015634Y010956D01*
X016018Y010879D02*
X016018Y010726D01*
X016095Y010649D01*
X016325Y010649D01*
X016172Y010649D02*
X016018Y010495D01*
X015865Y010572D02*
X015788Y010495D01*
X015869Y010328D02*
X016176Y010328D01*
X016176Y010788D01*
X016018Y010879D02*
X016095Y010956D01*
X016325Y010956D01*
X016325Y010495D01*
X016487Y010018D02*
X016410Y009942D01*
X016717Y009635D01*
X016640Y009558D01*
X016487Y009558D01*
X016410Y009635D01*
X016410Y009942D01*
X016487Y010018D02*
X016640Y010018D01*
X016717Y009942D01*
X016717Y009635D01*
X016870Y009558D02*
X017177Y009558D01*
X017024Y009558D02*
X017024Y010018D01*
X017177Y009865D01*
X017331Y009942D02*
X017331Y009788D01*
X017407Y009711D01*
X017638Y009711D01*
X017638Y009558D02*
X017638Y010018D01*
X017407Y010018D01*
X017331Y009942D01*
X017484Y009711D02*
X017331Y009558D01*
X017910Y009635D02*
X017910Y009942D01*
X018217Y009635D01*
X018140Y009558D01*
X017987Y009558D01*
X017910Y009635D01*
X017910Y009942D02*
X017987Y010018D01*
X018140Y010018D01*
X018217Y009942D01*
X018217Y009635D01*
X018370Y009635D02*
X018447Y009558D01*
X018600Y009558D01*
X018677Y009635D01*
X018831Y009635D02*
X018907Y009558D01*
X019061Y009558D01*
X019138Y009635D01*
X018984Y009788D02*
X018907Y009788D01*
X018831Y009711D01*
X018831Y009635D01*
X018907Y009788D02*
X018831Y009865D01*
X018831Y009942D01*
X018907Y010018D01*
X019061Y010018D01*
X019138Y009942D01*
X018677Y009942D02*
X018600Y010018D01*
X018447Y010018D01*
X018370Y009942D01*
X018370Y009865D01*
X018447Y009788D01*
X018370Y009711D01*
X018370Y009635D01*
X018447Y009788D02*
X018524Y009788D01*
X020865Y007953D02*
X020865Y007799D01*
X020942Y007723D01*
X021249Y008030D01*
X020942Y008030D01*
X020865Y007953D01*
X020942Y007723D02*
X021249Y007723D01*
X021325Y007799D01*
X021325Y007953D01*
X021249Y008030D01*
X021490Y007953D02*
X021950Y007953D01*
X021720Y007723D01*
X021720Y008030D01*
X021720Y007569D02*
X021643Y007492D01*
X021643Y007262D01*
X021490Y007262D02*
X021950Y007262D01*
X021950Y007492D01*
X021874Y007569D01*
X021720Y007569D01*
X021643Y007416D02*
X021490Y007569D01*
X021325Y007492D02*
X021325Y007339D01*
X021249Y007262D01*
X021249Y007109D02*
X021172Y007109D01*
X021095Y007032D01*
X021018Y007109D01*
X020942Y007109D01*
X020865Y007032D01*
X020865Y006879D01*
X020942Y006802D01*
X021095Y006955D02*
X021095Y007032D01*
X021249Y007109D02*
X021325Y007032D01*
X021325Y006879D01*
X021249Y006802D01*
X020942Y007262D02*
X020865Y007339D01*
X020865Y007492D01*
X020942Y007569D01*
X021018Y007569D01*
X021095Y007492D01*
X021095Y007416D01*
X021095Y007492D02*
X021172Y007569D01*
X021249Y007569D01*
X021325Y007492D01*
X024710Y009638D02*
X024710Y009938D01*
X025230Y009928D02*
X025230Y009638D01*
X025666Y009870D02*
X025973Y009870D01*
X025666Y010177D01*
X025666Y010254D01*
X025743Y010331D01*
X025896Y010331D01*
X025973Y010254D01*
X026126Y010254D02*
X026203Y010331D01*
X026357Y010331D01*
X026433Y010254D01*
X026433Y009947D01*
X026357Y009870D01*
X026203Y009870D01*
X026126Y009947D01*
X026203Y009581D02*
X026126Y009504D01*
X026433Y009197D01*
X026357Y009120D01*
X026203Y009120D01*
X026126Y009197D01*
X026126Y009504D01*
X026203Y009581D02*
X026357Y009581D01*
X026433Y009504D01*
X026433Y009197D01*
X026587Y009197D02*
X026663Y009120D01*
X026817Y009120D01*
X026894Y009197D01*
X026587Y009504D01*
X026587Y009197D01*
X026894Y009197D02*
X026894Y009504D01*
X026817Y009581D01*
X026663Y009581D01*
X026587Y009504D01*
X027047Y009120D02*
X027354Y009120D01*
X027201Y009120D02*
X027201Y009581D01*
X027354Y009427D01*
X025973Y009427D02*
X025973Y009120D01*
X025666Y009120D02*
X025666Y009351D01*
X025743Y009427D01*
X025973Y009427D01*
X014700Y011058D02*
X014700Y011518D01*
X014470Y011518D01*
X014393Y011442D01*
X014393Y011288D01*
X014470Y011211D01*
X014700Y011211D01*
X014547Y011211D02*
X014393Y011058D01*
X014240Y011135D02*
X014163Y011058D01*
X014009Y011058D01*
X013933Y011135D01*
X013933Y011211D01*
X014009Y011288D01*
X014240Y011288D01*
X014240Y011135D01*
X014240Y011288D02*
X014086Y011442D01*
X013933Y011518D01*
X013702Y011683D02*
X013779Y011760D01*
X013472Y012067D01*
X013472Y011760D01*
X013549Y011683D01*
X013702Y011683D01*
X013779Y011760D02*
X013779Y012067D01*
X013702Y012143D01*
X013549Y012143D01*
X013472Y012067D01*
X013933Y012067D02*
X014240Y011760D01*
X014240Y011683D01*
X014470Y011683D02*
X014470Y012143D01*
X014700Y011913D01*
X014393Y011913D01*
X014240Y012143D02*
X013933Y012143D01*
X013933Y012067D01*
X013519Y011498D02*
X013288Y011498D01*
X013212Y011422D01*
X013212Y011115D01*
X013288Y011038D01*
X013519Y011038D01*
X013519Y011498D01*
X013058Y011345D02*
X012905Y011498D01*
X012751Y011345D01*
X012751Y011038D01*
X012598Y011038D02*
X012291Y011345D01*
X012291Y011422D01*
X012368Y011498D01*
X012521Y011498D01*
X012598Y011422D01*
X012751Y011268D02*
X013058Y011268D01*
X013058Y011345D02*
X013058Y011038D01*
X013183Y010788D02*
X013107Y010712D01*
X013107Y010635D01*
X013183Y010558D01*
X013107Y010481D01*
X013107Y010405D01*
X013183Y010328D01*
X013337Y010328D01*
X013413Y010405D01*
X013260Y010558D02*
X013183Y010558D01*
X013183Y010788D02*
X013337Y010788D01*
X013413Y010712D01*
X013567Y010558D02*
X013874Y010558D01*
X014027Y010712D02*
X014334Y010405D01*
X014334Y010328D01*
X014334Y010788D02*
X014027Y010788D01*
X014027Y010712D01*
X012953Y010405D02*
X012876Y010405D01*
X012876Y010328D01*
X012953Y010328D01*
X012953Y010405D01*
X012723Y010405D02*
X012646Y010328D01*
X012493Y010328D01*
X012416Y010405D01*
X012416Y010481D01*
X012493Y010558D01*
X012569Y010558D01*
X012493Y010558D02*
X012416Y010635D01*
X012416Y010712D01*
X012493Y010788D01*
X012646Y010788D01*
X012723Y010712D01*
X012598Y011038D02*
X012291Y011038D01*
X011888Y010942D02*
X011811Y011018D01*
X011657Y011018D01*
X011581Y010942D01*
X011581Y010865D01*
X011888Y010558D01*
X011581Y010558D01*
X011427Y010558D02*
X011427Y011018D01*
X011427Y011183D02*
X011120Y011183D01*
X011274Y011183D02*
X011274Y011643D01*
X011427Y011490D01*
X011581Y011567D02*
X011581Y011413D01*
X011657Y011336D01*
X011888Y011336D01*
X011888Y011183D02*
X011888Y011643D01*
X011657Y011643D01*
X011581Y011567D01*
X011734Y011336D02*
X011581Y011183D01*
X011427Y010711D02*
X011197Y010865D01*
X011043Y010942D02*
X010967Y011018D01*
X010813Y011018D01*
X010737Y010942D01*
X010737Y010865D01*
X011043Y010558D01*
X010737Y010558D01*
X011197Y010558D02*
X011427Y010711D01*
X010737Y011183D02*
X010737Y011643D01*
X010967Y011413D01*
X010660Y011413D01*
X009638Y013683D02*
X009331Y013990D01*
X009331Y014067D01*
X009407Y014143D01*
X009561Y014143D01*
X009638Y014067D01*
X009638Y014308D02*
X009638Y014768D01*
X009407Y014768D01*
X009331Y014692D01*
X009331Y014538D01*
X009407Y014461D01*
X009638Y014461D01*
X009484Y014461D02*
X009331Y014308D01*
X009177Y014308D02*
X008870Y014308D01*
X008717Y014308D02*
X008410Y014615D01*
X008410Y014692D01*
X008487Y014768D01*
X008640Y014768D01*
X008717Y014692D01*
X008746Y014995D02*
X008746Y015456D01*
X008823Y015302D02*
X008976Y015302D01*
X009053Y015226D01*
X009053Y014995D01*
X009207Y015072D02*
X009207Y015226D01*
X009283Y015302D01*
X009437Y015302D01*
X009513Y015226D01*
X009513Y015149D01*
X009207Y015149D01*
X009207Y015072D02*
X009283Y014995D01*
X009437Y014995D01*
X009667Y014995D02*
X009667Y015302D01*
X009897Y015302D01*
X009974Y015226D01*
X009974Y014995D01*
X009177Y014615D02*
X009024Y014768D01*
X009024Y014308D01*
X009177Y014143D02*
X009177Y013683D01*
X009177Y013836D02*
X008947Y013990D01*
X008793Y014067D02*
X008717Y014143D01*
X008563Y014143D01*
X008487Y014067D01*
X008487Y013990D01*
X008793Y013683D01*
X008487Y013683D01*
X008947Y013683D02*
X009177Y013836D01*
X009331Y013683D02*
X009638Y013683D01*
X008717Y014308D02*
X008410Y014308D01*
X008286Y014842D02*
X008286Y015302D01*
X008516Y015302D01*
X008593Y015226D01*
X008593Y015072D01*
X008516Y014995D01*
X008286Y014995D01*
X008132Y014995D02*
X008132Y015226D01*
X008056Y015302D01*
X007979Y015226D01*
X007979Y014995D01*
X007825Y014995D02*
X007825Y015302D01*
X007902Y015302D01*
X007979Y015226D01*
X007672Y015226D02*
X007365Y015226D01*
X007365Y015302D02*
X007518Y015456D01*
X007672Y015302D01*
X007672Y014995D01*
X007365Y014995D02*
X007365Y015302D01*
X008746Y015226D02*
X008823Y015302D01*
X011355Y015456D02*
X011355Y014995D01*
X012276Y015072D02*
X012276Y015379D01*
X012353Y015456D01*
X012506Y015456D01*
X012583Y015379D01*
X013416Y017558D02*
X013723Y017558D01*
X013416Y017865D01*
X013416Y017942D01*
X013493Y018018D01*
X013646Y018018D01*
X013723Y017942D01*
X013876Y017865D02*
X014107Y017711D01*
X013876Y017558D01*
X014107Y017558D02*
X014107Y018018D01*
X014260Y017942D02*
X014337Y018018D01*
X014490Y018018D01*
X014567Y017942D01*
X014519Y018183D02*
X014519Y018643D01*
X014288Y018643D01*
X014212Y018567D01*
X014212Y018413D01*
X014288Y018336D01*
X014519Y018336D01*
X014365Y018336D02*
X014212Y018183D01*
X014058Y018183D02*
X013751Y018183D01*
X013598Y018183D02*
X013598Y018260D01*
X013291Y018567D01*
X013291Y018643D01*
X013598Y018643D01*
X013905Y018643D02*
X013905Y018183D01*
X014058Y018490D02*
X013905Y018643D01*
X014260Y017942D02*
X014260Y017865D01*
X014567Y017558D01*
X014260Y017558D01*
X012450Y017995D02*
X012450Y018456D01*
X012220Y018456D01*
X012143Y018379D01*
X012143Y018226D01*
X012220Y018149D01*
X012450Y018149D01*
X012297Y018149D02*
X012143Y017995D01*
X011990Y017995D02*
X011683Y017995D01*
X011836Y017995D02*
X011836Y018456D01*
X011990Y018302D01*
X011529Y018226D02*
X011376Y018302D01*
X011299Y018302D01*
X011222Y018226D01*
X011222Y018072D01*
X011299Y017995D01*
X011452Y017995D01*
X011529Y018072D01*
X011529Y018226D02*
X011529Y018456D01*
X011222Y018456D01*
X011075Y018302D02*
X010922Y018456D01*
X010922Y017995D01*
X011075Y017995D02*
X010768Y017995D01*
X010615Y017995D02*
X010615Y018456D01*
X010384Y018302D02*
X010615Y018149D01*
X010384Y017995D01*
X011978Y020245D02*
X012209Y020399D01*
X011978Y020552D01*
X012209Y020706D02*
X012209Y020245D01*
X012362Y020322D02*
X012439Y020245D01*
X012592Y020245D01*
X012669Y020322D01*
X012362Y020629D01*
X012362Y020322D01*
X012669Y020322D02*
X012669Y020629D01*
X012592Y020706D01*
X012439Y020706D01*
X012362Y020629D01*
X012823Y020245D02*
X013129Y020245D01*
X012976Y020245D02*
X012976Y020706D01*
X013129Y020552D01*
X013081Y021745D02*
X013081Y022206D01*
X012851Y022206D01*
X012774Y022129D01*
X012774Y021976D01*
X012851Y021899D01*
X013081Y021899D01*
X012928Y021899D02*
X012774Y021745D01*
X012621Y021745D02*
X012314Y021745D01*
X012467Y021745D02*
X012467Y022206D01*
X012621Y022052D01*
X012160Y021976D02*
X011930Y021976D01*
X011853Y021899D01*
X011853Y021822D01*
X011930Y021745D01*
X012084Y021745D01*
X012160Y021822D01*
X012160Y021976D01*
X012007Y022129D01*
X011853Y022206D01*
X008081Y022197D02*
X008004Y022120D01*
X007851Y022120D01*
X007774Y022197D01*
X007774Y022274D01*
X007851Y022351D01*
X007928Y022351D01*
X007851Y022351D02*
X007774Y022427D01*
X007774Y022504D01*
X007851Y022581D01*
X008004Y022581D01*
X008081Y022504D01*
X007621Y022504D02*
X007621Y022427D01*
X007544Y022351D01*
X007314Y022351D01*
X007314Y022504D02*
X007314Y022197D01*
X007391Y022120D01*
X007544Y022120D01*
X007621Y022197D01*
X007621Y022504D02*
X007544Y022581D01*
X007391Y022581D01*
X007314Y022504D01*
X007160Y022504D02*
X007084Y022581D01*
X006930Y022581D01*
X006853Y022504D01*
X007160Y022197D01*
X007084Y022120D01*
X006930Y022120D01*
X006853Y022197D01*
X006853Y022504D01*
X007160Y022504D02*
X007160Y022197D01*
X007160Y022870D02*
X006853Y022870D01*
X007160Y022870D02*
X006853Y023177D01*
X006853Y023254D01*
X006930Y023331D01*
X007084Y023331D01*
X007160Y023254D01*
X007314Y023254D02*
X007314Y023101D01*
X007391Y023024D01*
X007621Y023024D01*
X007621Y022870D02*
X007621Y023331D01*
X007391Y023331D01*
X007314Y023254D01*
X007467Y023024D02*
X007314Y022870D01*
X006200Y022742D02*
X006200Y022589D01*
X006124Y022512D01*
X006047Y022512D01*
X005970Y022589D01*
X005970Y022819D01*
X005817Y022819D02*
X006124Y022819D01*
X006200Y022742D01*
X006124Y022973D02*
X005817Y022973D01*
X006124Y023280D01*
X005817Y023280D01*
X005740Y023203D01*
X005740Y023049D01*
X005817Y022973D01*
X005817Y022819D02*
X005740Y022742D01*
X005740Y022589D01*
X005817Y022512D01*
X005817Y022359D02*
X005740Y022282D01*
X005740Y022129D01*
X005817Y022052D01*
X005970Y022205D02*
X005970Y022282D01*
X005893Y022359D01*
X005817Y022359D01*
X005970Y022282D02*
X006047Y022359D01*
X006124Y022359D01*
X006200Y022282D01*
X006200Y022129D01*
X006124Y022052D01*
X006124Y022973D02*
X006200Y023049D01*
X006200Y023203D01*
X006124Y023280D01*
X006018Y023808D02*
X006018Y024038D01*
X006095Y024115D01*
X006249Y024115D01*
X006325Y024038D01*
X006325Y023808D01*
X005865Y023808D01*
X006018Y023961D02*
X005865Y024115D01*
X005865Y024268D02*
X005865Y024575D01*
X005865Y024422D02*
X006325Y024422D01*
X006172Y024268D01*
X006149Y025245D02*
X006303Y025399D01*
X006226Y025399D02*
X006456Y025399D01*
X006529Y025322D02*
X006222Y025629D01*
X006222Y025322D01*
X006299Y025245D01*
X006452Y025245D01*
X006529Y025322D01*
X006529Y025629D01*
X006452Y025706D01*
X006299Y025706D01*
X006222Y025629D01*
X006149Y025629D02*
X006149Y025476D01*
X006226Y025399D01*
X006149Y025629D02*
X006226Y025706D01*
X006456Y025706D01*
X006456Y025245D01*
X006683Y025322D02*
X006683Y025629D01*
X006759Y025706D01*
X006913Y025706D01*
X006990Y025629D01*
X006990Y025552D01*
X006913Y025476D01*
X006683Y025476D01*
X006683Y025322D02*
X006759Y025245D01*
X006913Y025245D01*
X006990Y025322D01*
X007143Y025322D02*
X007220Y025245D01*
X007373Y025245D01*
X007450Y025322D01*
X007297Y025476D02*
X007220Y025476D01*
X007143Y025399D01*
X007143Y025322D01*
X007220Y025476D02*
X007143Y025552D01*
X007143Y025629D01*
X007220Y025706D01*
X007373Y025706D01*
X007450Y025629D01*
X007978Y025629D02*
X008055Y025706D01*
X008209Y025706D01*
X008285Y025629D01*
X008285Y025552D01*
X008209Y025476D01*
X007978Y025476D01*
X007978Y025629D02*
X007978Y025322D01*
X008055Y025245D01*
X008209Y025245D01*
X008285Y025322D01*
X008439Y025322D02*
X008516Y025245D01*
X008669Y025245D01*
X008746Y025322D01*
X008899Y025245D02*
X009053Y025399D01*
X008976Y025399D02*
X009206Y025399D01*
X009206Y025245D02*
X009206Y025706D01*
X008976Y025706D01*
X008899Y025629D01*
X008899Y025476D01*
X008976Y025399D01*
X008746Y025629D02*
X008669Y025706D01*
X008516Y025706D01*
X008439Y025629D01*
X008439Y025552D01*
X008516Y025476D01*
X008439Y025399D01*
X008439Y025322D01*
X008516Y025476D02*
X008592Y025476D01*
X009853Y026620D02*
X010084Y026774D01*
X009853Y026927D01*
X010084Y027081D02*
X010084Y026620D01*
X010237Y027004D02*
X010544Y026697D01*
X010544Y026620D01*
X010774Y026620D02*
X010774Y027081D01*
X011004Y026851D01*
X010698Y026851D01*
X010544Y027081D02*
X010237Y027081D01*
X010237Y027004D01*
X010266Y027495D02*
X010189Y027572D01*
X010189Y027649D01*
X010266Y027726D01*
X010496Y027726D01*
X010496Y027572D01*
X010419Y027495D01*
X010266Y027495D01*
X010035Y027495D02*
X010035Y027956D01*
X009805Y027956D01*
X009728Y027879D01*
X009728Y027726D01*
X009805Y027649D01*
X010035Y027649D01*
X010189Y027956D02*
X010342Y027879D01*
X010496Y027726D01*
X010649Y027726D02*
X010726Y027649D01*
X010956Y027649D01*
X010803Y027649D02*
X010649Y027495D01*
X010649Y027726D02*
X010649Y027879D01*
X010726Y027956D01*
X010956Y027956D01*
X010956Y027495D01*
X006075Y028245D02*
X005768Y028245D01*
X005922Y028245D02*
X005922Y028706D01*
X006075Y028552D01*
X005879Y028870D02*
X005726Y028870D01*
X005649Y028947D01*
X005496Y028947D02*
X005419Y028870D01*
X005266Y028870D01*
X005189Y028947D01*
X005189Y029101D01*
X005266Y029177D01*
X005342Y029177D01*
X005496Y029101D01*
X005496Y029331D01*
X005189Y029331D01*
X005035Y029331D02*
X004805Y029331D01*
X004728Y029254D01*
X004728Y029101D01*
X004805Y029024D01*
X005035Y029024D01*
X005035Y028870D02*
X005035Y029331D01*
X004965Y029541D02*
X005725Y029541D01*
X005726Y029331D02*
X005879Y029331D01*
X005956Y029254D01*
X005956Y028947D01*
X005879Y028870D01*
X005615Y028629D02*
X005538Y028706D01*
X005384Y028706D01*
X005308Y028629D01*
X005615Y028322D01*
X005538Y028245D01*
X005384Y028245D01*
X005308Y028322D01*
X005308Y028629D01*
X005154Y028629D02*
X005077Y028706D01*
X004924Y028706D01*
X004847Y028629D01*
X005154Y028322D01*
X005077Y028245D01*
X004924Y028245D01*
X004847Y028322D01*
X004847Y028629D01*
X004694Y028552D02*
X004464Y028552D01*
X004387Y028476D01*
X004387Y028245D01*
X004694Y028245D02*
X004694Y028552D01*
X005154Y028629D02*
X005154Y028322D01*
X005615Y028322D02*
X005615Y028629D01*
X005649Y029254D02*
X005726Y029331D01*
X005725Y030160D02*
X004965Y030160D01*
X005038Y030495D02*
X005115Y030572D01*
X004808Y030879D01*
X004808Y030572D01*
X004884Y030495D01*
X005038Y030495D01*
X005115Y030572D02*
X005115Y030879D01*
X005038Y030956D01*
X004884Y030956D01*
X004808Y030879D01*
X004654Y030879D02*
X004577Y030956D01*
X004424Y030956D01*
X004347Y030879D01*
X004654Y030572D01*
X004577Y030495D01*
X004424Y030495D01*
X004347Y030572D01*
X004347Y030879D01*
X004194Y030802D02*
X003964Y030802D01*
X003887Y030726D01*
X003887Y030495D01*
X004194Y030495D02*
X004194Y030802D01*
X004654Y030879D02*
X004654Y030572D01*
X005268Y030495D02*
X005575Y030495D01*
X005422Y030495D02*
X005422Y030956D01*
X005575Y030802D01*
X004985Y031216D02*
X004695Y031216D01*
X004695Y031735D02*
X004995Y031735D01*
X005095Y031995D02*
X005018Y032072D01*
X005095Y031995D02*
X005248Y031995D01*
X005325Y032072D01*
X005325Y032379D01*
X005248Y032456D01*
X005095Y032456D01*
X005018Y032379D01*
X004865Y032226D02*
X004558Y032226D01*
X004404Y032149D02*
X004174Y032149D01*
X004097Y032226D01*
X004097Y032379D01*
X004174Y032456D01*
X004404Y032456D01*
X004404Y031995D01*
X004634Y031995D02*
X004634Y032456D01*
X004865Y032226D01*
X005215Y032603D02*
X005975Y032603D01*
X005975Y033223D02*
X005215Y033223D01*
X005549Y034620D02*
X005779Y034774D01*
X005549Y034927D01*
X005779Y035081D02*
X005779Y034620D01*
X005933Y034697D02*
X005933Y034774D01*
X006009Y034851D01*
X006240Y034851D01*
X006240Y034697D01*
X006163Y034620D01*
X006009Y034620D01*
X005933Y034697D01*
X006086Y035004D02*
X006240Y034851D01*
X006086Y035004D02*
X005933Y035081D01*
X005904Y035245D02*
X005904Y035706D01*
X005674Y035706D01*
X005597Y035629D01*
X005597Y035476D01*
X005674Y035399D01*
X005904Y035399D01*
X006058Y035476D02*
X006058Y035322D01*
X006134Y035245D01*
X006288Y035245D01*
X006365Y035322D01*
X006365Y035476D02*
X006211Y035552D01*
X006134Y035552D01*
X006058Y035476D01*
X006058Y035706D02*
X006365Y035706D01*
X006365Y035476D01*
X006518Y035476D02*
X006595Y035399D01*
X006825Y035399D01*
X006672Y035399D02*
X006518Y035245D01*
X006547Y035081D02*
X006547Y034620D01*
X006700Y034620D02*
X006393Y034620D01*
X006700Y034927D02*
X006547Y035081D01*
X006825Y035245D02*
X006825Y035706D01*
X006595Y035706D01*
X006518Y035629D01*
X006518Y035476D01*
X005700Y035933D02*
X005393Y035933D01*
X005547Y035933D02*
X005547Y036393D01*
X005700Y036240D01*
X005498Y036558D02*
X005345Y036558D01*
X005268Y036635D01*
X005115Y036558D02*
X004808Y036558D01*
X004961Y036558D02*
X004961Y037018D01*
X005115Y036865D01*
X005268Y036942D02*
X005345Y037018D01*
X005498Y037018D01*
X005575Y036942D01*
X005575Y036635D01*
X005498Y036558D01*
X005240Y036317D02*
X005240Y036010D01*
X004933Y036317D01*
X004933Y036010D01*
X005009Y035933D01*
X005163Y035933D01*
X005240Y036010D01*
X005240Y036317D02*
X005163Y036393D01*
X005009Y036393D01*
X004933Y036317D01*
X004779Y036317D02*
X004702Y036393D01*
X004549Y036393D01*
X004472Y036317D01*
X004779Y036010D01*
X004702Y035933D01*
X004549Y035933D01*
X004472Y036010D01*
X004472Y036317D01*
X004319Y036240D02*
X004089Y036240D01*
X004012Y036163D01*
X004012Y035933D01*
X004319Y035933D02*
X004319Y036240D01*
X004424Y036558D02*
X004347Y036635D01*
X004347Y036711D01*
X004424Y036788D01*
X004654Y036788D01*
X004654Y036635D01*
X004577Y036558D01*
X004424Y036558D01*
X004654Y036788D02*
X004501Y036942D01*
X004347Y037018D01*
X004779Y036317D02*
X004779Y036010D01*
X004820Y035673D02*
X005120Y035673D01*
X005137Y035629D02*
X005444Y035322D01*
X005290Y035322D02*
X005290Y035629D01*
X005444Y035629D02*
X005137Y035322D01*
X005137Y035476D02*
X005444Y035476D01*
X005110Y035153D02*
X004820Y035153D01*
X002450Y032817D02*
X002450Y032510D01*
X002373Y032433D01*
X002220Y032433D01*
X002143Y032510D01*
X001990Y032510D02*
X001990Y032433D01*
X001990Y032510D02*
X001683Y032817D01*
X001683Y032893D01*
X001990Y032893D01*
X002143Y032817D02*
X002220Y032893D01*
X002373Y032893D01*
X002450Y032817D01*
X002373Y032268D02*
X002220Y032268D01*
X002143Y032192D01*
X002143Y032115D01*
X002220Y032038D01*
X002143Y031961D01*
X002143Y031885D01*
X002220Y031808D01*
X002373Y031808D01*
X002450Y031885D01*
X002297Y032038D02*
X002220Y032038D01*
X002450Y032192D02*
X002373Y032268D01*
X001990Y032192D02*
X001913Y032268D01*
X001759Y032268D01*
X001683Y032192D01*
X001683Y032115D01*
X001759Y032038D01*
X001683Y031961D01*
X001683Y031885D01*
X001759Y031808D01*
X001913Y031808D01*
X001990Y031885D01*
X001836Y032038D02*
X001759Y032038D01*
X001529Y032433D02*
X001529Y032893D01*
X001299Y032893D01*
X001222Y032817D01*
X001222Y032663D01*
X001299Y032586D01*
X001529Y032586D01*
X001069Y032510D02*
X000762Y032817D01*
X000915Y032817D02*
X000915Y032510D01*
X000762Y032510D02*
X001069Y032817D01*
X001069Y032663D02*
X000762Y032663D01*
X002865Y026203D02*
X003325Y026203D01*
X003095Y025973D01*
X003095Y026280D01*
X002865Y025819D02*
X002865Y025512D01*
X002865Y025666D02*
X003325Y025666D01*
X003172Y025512D01*
X003249Y025359D02*
X003325Y025282D01*
X003325Y025129D01*
X003249Y025052D01*
X002942Y025052D01*
X002865Y025129D01*
X002865Y025282D01*
X002942Y025359D01*
X003472Y025322D02*
X003549Y025245D01*
X003702Y025245D01*
X003779Y025322D01*
X003472Y025629D01*
X003472Y025322D01*
X003472Y025629D02*
X003549Y025706D01*
X003702Y025706D01*
X003779Y025629D01*
X003779Y025322D01*
X003933Y025322D02*
X003933Y025629D01*
X004009Y025706D01*
X004163Y025706D01*
X004240Y025629D01*
X004240Y025552D01*
X004163Y025476D01*
X003933Y025476D01*
X003933Y025322D02*
X004009Y025245D01*
X004163Y025245D01*
X004240Y025322D01*
X004365Y025282D02*
X004365Y025129D01*
X004442Y025052D01*
X004749Y025359D01*
X004442Y025359D01*
X004365Y025282D01*
X004393Y025322D02*
X004470Y025245D01*
X004623Y025245D01*
X004700Y025322D01*
X004749Y025359D02*
X004825Y025282D01*
X004825Y025129D01*
X004749Y025052D01*
X004442Y025052D01*
X004365Y024898D02*
X004365Y024591D01*
X004365Y024745D02*
X004825Y024745D01*
X004672Y024591D01*
X004393Y025322D02*
X004393Y025399D01*
X004470Y025476D01*
X004547Y025476D01*
X004470Y025476D02*
X004393Y025552D01*
X004393Y025629D01*
X004470Y025706D01*
X004623Y025706D01*
X004700Y025629D01*
X004749Y025512D02*
X004825Y025589D01*
X004825Y025742D01*
X004749Y025819D01*
X004442Y025512D01*
X004365Y025589D01*
X004365Y025742D01*
X004442Y025819D01*
X004749Y025819D01*
X004672Y025973D02*
X004672Y026203D01*
X004595Y026280D01*
X004365Y026280D01*
X004365Y025973D02*
X004672Y025973D01*
X004749Y025512D02*
X004442Y025512D01*
X004105Y025763D02*
X004105Y026053D01*
X003585Y026063D02*
X003585Y025763D01*
X005228Y025629D02*
X005228Y025552D01*
X005305Y025476D01*
X005459Y025476D01*
X005535Y025552D01*
X005535Y025629D01*
X005459Y025706D01*
X005305Y025706D01*
X005228Y025629D01*
X005305Y025476D02*
X005228Y025399D01*
X005228Y025322D01*
X005305Y025245D01*
X005459Y025245D01*
X005535Y025322D01*
X005535Y025399D01*
X005459Y025476D01*
X005689Y025552D02*
X005766Y025476D01*
X005689Y025399D01*
X005689Y025322D01*
X005766Y025245D01*
X005919Y025245D01*
X005996Y025322D01*
X005842Y025476D02*
X005766Y025476D01*
X005689Y025552D02*
X005689Y025629D01*
X005766Y025706D01*
X005919Y025706D01*
X005996Y025629D01*
X013615Y033870D02*
X014075Y033870D01*
X014075Y034101D01*
X013999Y034177D01*
X013845Y034177D01*
X013768Y034101D01*
X013768Y033870D01*
X013768Y034024D02*
X013615Y034177D01*
X013692Y034331D02*
X013615Y034408D01*
X013615Y034561D01*
X013692Y034638D01*
X013768Y034638D01*
X013845Y034561D01*
X013845Y034484D01*
X013845Y034561D02*
X013922Y034638D01*
X013999Y034638D01*
X014075Y034561D01*
X014075Y034408D01*
X013999Y034331D01*
X014240Y034408D02*
X014317Y034331D01*
X014240Y034408D02*
X014240Y034561D01*
X014317Y034638D01*
X014393Y034638D01*
X014470Y034561D01*
X014470Y034484D01*
X014470Y034561D02*
X014547Y034638D01*
X014624Y034638D01*
X014700Y034561D01*
X014700Y034408D01*
X014624Y034331D01*
X014624Y034177D02*
X014470Y034177D01*
X014393Y034101D01*
X014393Y033870D01*
X014240Y033870D02*
X014700Y033870D01*
X014700Y034101D01*
X014624Y034177D01*
X014865Y034177D02*
X015018Y034024D01*
X015018Y034101D02*
X015018Y033870D01*
X014865Y033870D02*
X015325Y033870D01*
X015325Y034101D01*
X015249Y034177D01*
X015095Y034177D01*
X015018Y034101D01*
X014942Y034331D02*
X014865Y034408D01*
X014865Y034561D01*
X014942Y034638D01*
X015018Y034638D01*
X015095Y034561D01*
X015095Y034484D01*
X015095Y034561D02*
X015172Y034638D01*
X015249Y034638D01*
X015325Y034561D01*
X015325Y034408D01*
X015249Y034331D01*
X015490Y034331D02*
X015797Y034638D01*
X015874Y034638D01*
X015950Y034561D01*
X015950Y034408D01*
X015874Y034331D01*
X015874Y034177D02*
X015720Y034177D01*
X015643Y034101D01*
X015643Y033870D01*
X015490Y033870D02*
X015950Y033870D01*
X015950Y034101D01*
X015874Y034177D01*
X016115Y034177D02*
X016268Y034024D01*
X016268Y034101D02*
X016268Y033870D01*
X016115Y033870D02*
X016575Y033870D01*
X016575Y034101D01*
X016499Y034177D01*
X016345Y034177D01*
X016268Y034101D01*
X016115Y034331D02*
X016422Y034638D01*
X016499Y034638D01*
X016575Y034561D01*
X016575Y034408D01*
X016499Y034331D01*
X016740Y034331D02*
X017047Y034638D01*
X017124Y034638D01*
X017200Y034561D01*
X017200Y034408D01*
X017124Y034331D01*
X017124Y034177D02*
X016970Y034177D01*
X016893Y034101D01*
X016893Y033870D01*
X016740Y033870D02*
X017200Y033870D01*
X017200Y034101D01*
X017124Y034177D01*
X017365Y034177D02*
X017518Y034024D01*
X017518Y034101D02*
X017518Y033870D01*
X017365Y033870D02*
X017825Y033870D01*
X017825Y034101D01*
X017749Y034177D01*
X017595Y034177D01*
X017518Y034101D01*
X017365Y034331D02*
X017672Y034638D01*
X017749Y034638D01*
X017825Y034561D01*
X017825Y034408D01*
X017749Y034331D01*
X017990Y034331D02*
X018297Y034638D01*
X018374Y034638D01*
X018450Y034561D01*
X018450Y034408D01*
X018374Y034331D01*
X018374Y034177D02*
X018220Y034177D01*
X018143Y034101D01*
X018143Y033870D01*
X017990Y033870D02*
X018450Y033870D01*
X018450Y034101D01*
X018374Y034177D01*
X018615Y034177D02*
X018768Y034024D01*
X018768Y034101D02*
X018768Y033870D01*
X018615Y033870D02*
X019075Y033870D01*
X019075Y034101D01*
X018999Y034177D01*
X018845Y034177D01*
X018768Y034101D01*
X018845Y034331D02*
X018845Y034638D01*
X018845Y034791D02*
X018845Y035098D01*
X018615Y035021D02*
X019075Y035021D01*
X018845Y034791D01*
X018615Y034561D02*
X019075Y034561D01*
X018845Y034331D01*
X018450Y034791D02*
X018220Y034791D01*
X018297Y034945D01*
X018297Y035021D01*
X018220Y035098D01*
X018067Y035098D01*
X017990Y035021D01*
X017990Y034868D01*
X018067Y034791D01*
X017990Y034638D02*
X017990Y034331D01*
X017990Y034177D02*
X018143Y034024D01*
X018450Y034791D02*
X018450Y035098D01*
X018297Y035370D02*
X018450Y035524D01*
X017990Y035524D01*
X017990Y035677D02*
X017990Y035370D01*
X017825Y035524D02*
X017365Y035524D01*
X017365Y035677D02*
X017365Y035370D01*
X017200Y035524D02*
X016740Y035524D01*
X016740Y035677D02*
X016740Y035370D01*
X016575Y035524D02*
X016115Y035524D01*
X016115Y035677D02*
X016115Y035370D01*
X015950Y035524D02*
X015490Y035524D01*
X015490Y035677D02*
X015490Y035370D01*
X015325Y035524D02*
X014865Y035524D01*
X014865Y035677D02*
X014865Y035370D01*
X014700Y035524D02*
X014240Y035524D01*
X014240Y035677D02*
X014240Y035370D01*
X014075Y035524D02*
X013615Y035524D01*
X013567Y035433D02*
X013260Y035433D01*
X013413Y035433D02*
X013413Y035893D01*
X013567Y035740D01*
X013615Y035677D02*
X013615Y035370D01*
X013615Y035098D02*
X013615Y034791D01*
X013922Y035098D01*
X013999Y035098D01*
X014075Y035021D01*
X014075Y034868D01*
X013999Y034791D01*
X014240Y034791D02*
X014240Y035098D01*
X014240Y034945D02*
X014700Y034945D01*
X014547Y034791D01*
X014865Y034868D02*
X014942Y034791D01*
X015249Y035098D01*
X014942Y035098D01*
X014865Y035021D01*
X014865Y034868D01*
X014942Y034791D02*
X015249Y034791D01*
X015325Y034868D01*
X015325Y035021D01*
X015249Y035098D01*
X015490Y035021D02*
X015490Y034868D01*
X015567Y034791D01*
X015490Y034638D02*
X015490Y034331D01*
X015490Y034177D02*
X015643Y034024D01*
X016115Y034331D02*
X016115Y034638D01*
X016192Y034791D02*
X016268Y034791D01*
X016345Y034868D01*
X016345Y035021D01*
X016268Y035098D01*
X016192Y035098D01*
X016115Y035021D01*
X016115Y034868D01*
X016192Y034791D01*
X016345Y034868D02*
X016422Y034791D01*
X016499Y034791D01*
X016575Y034868D01*
X016575Y035021D01*
X016499Y035098D01*
X016422Y035098D01*
X016345Y035021D01*
X016422Y035370D02*
X016575Y035524D01*
X016499Y035831D02*
X016575Y035908D01*
X016575Y036061D01*
X016499Y036138D01*
X016192Y035831D01*
X016115Y035908D01*
X016115Y036061D01*
X016192Y036138D01*
X016499Y036138D01*
X016575Y036291D02*
X016115Y036291D01*
X016268Y036291D02*
X016422Y036521D01*
X016268Y036291D02*
X016115Y036521D01*
X015950Y036291D02*
X015490Y036291D01*
X015643Y036291D02*
X015797Y036521D01*
X015643Y036291D02*
X015490Y036521D01*
X015325Y036291D02*
X014865Y036291D01*
X015018Y036291D02*
X015172Y036521D01*
X015018Y036291D02*
X014865Y036521D01*
X014700Y036291D02*
X014240Y036291D01*
X014393Y036291D02*
X014547Y036521D01*
X014393Y036291D02*
X014240Y036521D01*
X014075Y036291D02*
X013615Y036291D01*
X013519Y036211D02*
X013288Y036211D01*
X013212Y036288D01*
X013212Y036442D01*
X013288Y036518D01*
X013519Y036518D01*
X013519Y036058D01*
X013615Y036061D02*
X013615Y035908D01*
X013692Y035831D01*
X013999Y036138D01*
X013692Y036138D01*
X013615Y036061D01*
X013692Y035831D02*
X013999Y035831D01*
X014075Y035908D01*
X014075Y036061D01*
X013999Y036138D01*
X014240Y036061D02*
X014240Y035908D01*
X014317Y035831D01*
X014624Y036138D01*
X014317Y036138D01*
X014240Y036061D01*
X014317Y035831D02*
X014624Y035831D01*
X014700Y035908D01*
X014700Y036061D01*
X014624Y036138D01*
X014865Y036061D02*
X014865Y035908D01*
X014942Y035831D01*
X015249Y036138D01*
X014942Y036138D01*
X014865Y036061D01*
X014942Y035831D02*
X015249Y035831D01*
X015325Y035908D01*
X015325Y036061D01*
X015249Y036138D01*
X015490Y036061D02*
X015490Y035908D01*
X015567Y035831D01*
X015874Y036138D01*
X015567Y036138D01*
X015490Y036061D01*
X015567Y035831D02*
X015874Y035831D01*
X015950Y035908D01*
X015950Y036061D01*
X015874Y036138D01*
X016192Y035831D02*
X016499Y035831D01*
X016740Y035908D02*
X016817Y035831D01*
X017124Y036138D01*
X016817Y036138D01*
X016740Y036061D01*
X016740Y035908D01*
X016817Y035831D02*
X017124Y035831D01*
X017200Y035908D01*
X017200Y036061D01*
X017124Y036138D01*
X017200Y036291D02*
X016740Y036291D01*
X016893Y036291D02*
X016740Y036521D01*
X016893Y036291D02*
X017047Y036521D01*
X017365Y036521D02*
X017518Y036291D01*
X017672Y036521D01*
X017825Y036291D02*
X017365Y036291D01*
X017442Y036138D02*
X017365Y036061D01*
X017365Y035908D01*
X017442Y035831D01*
X017749Y036138D01*
X017442Y036138D01*
X017749Y036138D02*
X017825Y036061D01*
X017825Y035908D01*
X017749Y035831D01*
X017442Y035831D01*
X017200Y035524D02*
X017047Y035370D01*
X017124Y035098D02*
X016817Y034791D01*
X016740Y034791D01*
X016740Y034638D02*
X016740Y034331D01*
X016740Y034177D02*
X016893Y034024D01*
X017365Y034331D02*
X017365Y034638D01*
X017442Y034791D02*
X017365Y034868D01*
X017365Y035021D01*
X017442Y035098D01*
X017518Y035098D01*
X017595Y035021D01*
X017595Y034791D01*
X017442Y034791D01*
X017595Y034791D02*
X017749Y034945D01*
X017825Y035098D01*
X017672Y035370D02*
X017825Y035524D01*
X018067Y035831D02*
X018374Y036138D01*
X018067Y036138D01*
X017990Y036061D01*
X017990Y035908D01*
X018067Y035831D01*
X018374Y035831D01*
X018450Y035908D01*
X018450Y036061D01*
X018374Y036138D01*
X018450Y036291D02*
X017990Y036291D01*
X018143Y036291D02*
X018297Y036521D01*
X018143Y036291D02*
X017990Y036521D01*
X018615Y036186D02*
X018768Y035956D01*
X018922Y036186D01*
X019075Y035956D02*
X018615Y035956D01*
X018615Y035802D02*
X018615Y035495D01*
X018615Y035649D02*
X019075Y035649D01*
X018922Y035495D01*
X017200Y035098D02*
X017200Y034791D01*
X017200Y035098D02*
X017124Y035098D01*
X015950Y035021D02*
X015950Y034868D01*
X015874Y034791D01*
X015797Y034791D01*
X015720Y034868D01*
X015720Y035098D01*
X015567Y035098D02*
X015874Y035098D01*
X015950Y035021D01*
X015797Y035370D02*
X015950Y035524D01*
X015567Y035098D02*
X015490Y035021D01*
X015172Y035370D02*
X015325Y035524D01*
X014700Y035524D02*
X014547Y035370D01*
X014075Y035524D02*
X013922Y035370D01*
X013107Y035510D02*
X013107Y035817D01*
X013030Y035893D01*
X012876Y035893D01*
X012800Y035817D01*
X013107Y035510D01*
X013030Y035433D01*
X012876Y035433D01*
X012800Y035510D01*
X012800Y035817D01*
X012646Y035893D02*
X012646Y035433D01*
X012646Y035586D02*
X012416Y035433D01*
X012646Y035586D02*
X012416Y035740D01*
X012368Y036058D02*
X012521Y036058D01*
X012598Y036135D01*
X012291Y036442D01*
X012291Y036135D01*
X012368Y036058D01*
X012598Y036135D02*
X012598Y036442D01*
X012521Y036518D01*
X012368Y036518D01*
X012291Y036442D01*
X011979Y036495D02*
X011979Y036956D01*
X011749Y036956D01*
X011672Y036879D01*
X011672Y036726D01*
X011749Y036649D01*
X011979Y036649D01*
X011826Y036649D02*
X011672Y036495D01*
X011519Y036572D02*
X011442Y036495D01*
X011288Y036495D01*
X011212Y036572D01*
X011212Y036879D01*
X011288Y036956D01*
X011442Y036956D01*
X011519Y036879D01*
X011519Y036802D01*
X011442Y036726D01*
X011212Y036726D01*
X011058Y036649D02*
X010828Y036649D01*
X010751Y036726D01*
X010751Y036879D01*
X010828Y036956D01*
X011058Y036956D01*
X011058Y036495D01*
X011126Y036331D02*
X011126Y036254D01*
X011433Y035947D01*
X011433Y035870D01*
X011433Y036331D02*
X011126Y036331D01*
X010973Y036331D02*
X010973Y036101D01*
X010819Y036177D01*
X010743Y036177D01*
X010666Y036101D01*
X010666Y035947D01*
X010743Y035870D01*
X010896Y035870D01*
X010973Y035947D01*
X010973Y036331D02*
X010666Y036331D01*
X010598Y036495D02*
X010291Y036802D01*
X010291Y036879D01*
X010368Y036956D01*
X010521Y036956D01*
X010598Y036879D01*
X010598Y036495D02*
X010291Y036495D01*
X009308Y037995D02*
X009308Y038072D01*
X009001Y038379D01*
X009001Y038456D01*
X009308Y038456D01*
X009413Y038620D02*
X009337Y038697D01*
X009337Y039004D01*
X009413Y039081D01*
X009567Y039081D01*
X009644Y039004D01*
X009644Y038927D01*
X009567Y038851D01*
X009337Y038851D01*
X009183Y038774D02*
X008953Y038774D01*
X008876Y038851D01*
X008876Y039004D01*
X008953Y039081D01*
X009183Y039081D01*
X009183Y038620D01*
X009413Y038620D02*
X009567Y038620D01*
X009644Y038697D01*
X009797Y038620D02*
X009951Y038774D01*
X009874Y038774D02*
X010104Y038774D01*
X010104Y038620D02*
X010104Y039081D01*
X009874Y039081D01*
X009797Y039004D01*
X009797Y038851D01*
X009874Y038774D01*
X008848Y038456D02*
X008848Y038226D01*
X008694Y038302D01*
X008618Y038302D01*
X008541Y038226D01*
X008541Y038072D01*
X008618Y037995D01*
X008771Y037995D01*
X008848Y038072D01*
X008848Y038456D02*
X008541Y038456D01*
X008569Y038620D02*
X008569Y039081D01*
X008723Y038927D01*
X008723Y038620D02*
X008416Y038620D01*
X012751Y036442D02*
X012828Y036518D01*
X012982Y036518D01*
X013058Y036442D01*
X012751Y036442D02*
X012751Y036365D01*
X013058Y036058D01*
X012751Y036058D01*
X013212Y036058D02*
X013365Y036211D01*
X013615Y036521D02*
X013768Y036291D01*
X013922Y036521D01*
X014240Y034177D02*
X014393Y034024D01*
X017384Y030268D02*
X017308Y030192D01*
X017308Y030115D01*
X017384Y030038D01*
X017308Y029961D01*
X017308Y029885D01*
X017384Y029808D01*
X017538Y029808D01*
X017615Y029885D01*
X017461Y030038D02*
X017384Y030038D01*
X017384Y030268D02*
X017538Y030268D01*
X017615Y030192D01*
X017768Y030268D02*
X017922Y030268D01*
X017845Y030268D02*
X017845Y029885D01*
X017922Y029808D01*
X017998Y029808D01*
X018075Y029885D01*
X017873Y029643D02*
X017720Y029643D01*
X017643Y029567D01*
X017950Y029260D01*
X017873Y029183D01*
X017720Y029183D01*
X017643Y029260D01*
X017643Y029567D01*
X017873Y029643D02*
X017950Y029567D01*
X017950Y029260D01*
X022324Y029683D02*
X022324Y029913D01*
X022401Y029990D01*
X022631Y029990D01*
X022631Y029683D01*
X022785Y029760D02*
X022862Y029683D01*
X023015Y029683D01*
X023092Y029760D01*
X022785Y030067D01*
X022785Y029760D01*
X022785Y030067D02*
X022862Y030143D01*
X023015Y030143D01*
X023092Y030067D01*
X023092Y029760D01*
X023245Y029760D02*
X023322Y029683D01*
X023475Y029683D01*
X023552Y029760D01*
X023245Y030067D01*
X023245Y029760D01*
X023245Y030067D02*
X023322Y030143D01*
X023475Y030143D01*
X023552Y030067D01*
X023552Y029760D01*
X023706Y029683D02*
X024013Y029683D01*
X023859Y029683D02*
X023859Y030143D01*
X024013Y029990D01*
X024410Y029971D02*
X024410Y030730D01*
X025030Y030730D02*
X025030Y029971D01*
X023638Y030510D02*
X023561Y030433D01*
X023407Y030433D01*
X023331Y030510D01*
X023177Y030663D02*
X022870Y030663D01*
X022947Y030433D02*
X022947Y030893D01*
X023177Y030663D01*
X023331Y030817D02*
X023407Y030893D01*
X023561Y030893D01*
X023638Y030817D01*
X023638Y030510D01*
X026541Y029990D02*
X026771Y029836D01*
X026541Y029683D01*
X026771Y029683D02*
X026771Y030143D01*
X026743Y030308D02*
X026896Y030308D01*
X026973Y030385D01*
X026666Y030692D01*
X026666Y030385D01*
X026743Y030308D01*
X026973Y030385D02*
X026973Y030692D01*
X026896Y030768D01*
X026743Y030768D01*
X026666Y030692D01*
X027126Y030538D02*
X027433Y030538D01*
X027203Y030768D01*
X027203Y030308D01*
X027078Y030143D02*
X027078Y029683D01*
X026925Y029683D02*
X027232Y029683D01*
X027232Y029990D02*
X027078Y030143D01*
X027587Y030308D02*
X027740Y030461D01*
X027663Y030461D02*
X027894Y030461D01*
X027894Y030308D02*
X027894Y030768D01*
X027663Y030768D01*
X027587Y030692D01*
X027587Y030538D01*
X027663Y030461D01*
X028197Y031183D02*
X028427Y031336D01*
X028197Y031490D01*
X028427Y031643D02*
X028427Y031183D01*
X028581Y031183D02*
X028888Y031183D01*
X028581Y031490D01*
X028581Y031567D01*
X028657Y031643D01*
X028811Y031643D01*
X028888Y031567D01*
X029013Y031808D02*
X029013Y032268D01*
X028782Y032268D01*
X028706Y032192D01*
X028706Y032038D01*
X028782Y031961D01*
X029013Y031961D01*
X028859Y031961D02*
X028706Y031808D01*
X028552Y032038D02*
X028245Y032038D01*
X028092Y031885D02*
X028015Y031808D01*
X027862Y031808D01*
X027785Y031885D01*
X027785Y031961D01*
X027862Y032038D01*
X027938Y032038D01*
X027862Y032038D02*
X027785Y032115D01*
X027785Y032192D01*
X027862Y032268D01*
X028015Y032268D01*
X028092Y032192D01*
X028322Y032268D02*
X028552Y032038D01*
X028322Y031808D02*
X028322Y032268D01*
X029285Y032192D02*
X029285Y032115D01*
X029362Y032038D01*
X029515Y032038D01*
X029592Y032115D01*
X029592Y032192D01*
X029515Y032268D01*
X029362Y032268D01*
X029285Y032192D01*
X029362Y032038D02*
X029285Y031961D01*
X029285Y031885D01*
X029362Y031808D01*
X029515Y031808D01*
X029592Y031885D01*
X029592Y031961D01*
X029515Y032038D01*
X029745Y032038D02*
X030052Y032038D01*
X029822Y032268D01*
X029822Y031808D01*
X030052Y031643D02*
X030052Y031183D01*
X030052Y031336D02*
X029822Y031490D01*
X029668Y031490D02*
X029515Y031643D01*
X029515Y031183D01*
X029668Y031183D02*
X029362Y031183D01*
X029822Y031183D02*
X030052Y031336D01*
X030206Y031260D02*
X030282Y031183D01*
X030436Y031183D01*
X030513Y031260D01*
X030513Y031413D02*
X030359Y031490D01*
X030282Y031490D01*
X030206Y031413D01*
X030206Y031260D01*
X030513Y031413D02*
X030513Y031643D01*
X030206Y031643D01*
X030206Y031808D02*
X030359Y031961D01*
X030282Y031961D02*
X030513Y031961D01*
X030513Y031808D02*
X030513Y032268D01*
X030282Y032268D01*
X030206Y032192D01*
X030206Y032038D01*
X030282Y031961D01*
X030666Y034933D02*
X030666Y035163D01*
X030743Y035240D01*
X030973Y035240D01*
X030973Y034933D01*
X031126Y035010D02*
X031203Y034933D01*
X031357Y034933D01*
X031433Y035010D01*
X031126Y035317D01*
X031126Y035010D01*
X031126Y035317D02*
X031203Y035393D01*
X031357Y035393D01*
X031433Y035317D01*
X031433Y035010D01*
X031587Y035010D02*
X031663Y034933D01*
X031817Y034933D01*
X031894Y035010D01*
X031587Y035317D01*
X031587Y035010D01*
X031587Y035317D02*
X031663Y035393D01*
X031817Y035393D01*
X031894Y035317D01*
X031894Y035010D01*
X032047Y034933D02*
X032354Y034933D01*
X032201Y034933D02*
X032201Y035393D01*
X032354Y035240D01*
X031769Y035635D02*
X031692Y035558D01*
X031538Y035558D01*
X031462Y035635D01*
X031308Y035558D02*
X031001Y035558D01*
X031155Y035558D02*
X031155Y036018D01*
X031308Y035865D01*
X031462Y035942D02*
X031538Y036018D01*
X031692Y036018D01*
X031769Y035942D01*
X031769Y035635D01*
X030848Y035635D02*
X030771Y035558D01*
X030618Y035558D01*
X030541Y035635D01*
X030541Y035711D01*
X030618Y035788D01*
X030694Y035788D01*
X030618Y035788D02*
X030541Y035865D01*
X030541Y035942D01*
X030618Y036018D01*
X030771Y036018D01*
X030848Y035942D01*
X030230Y035750D02*
X030230Y035450D01*
X029710Y035460D02*
X029710Y035750D01*
X030603Y036745D02*
X030910Y036745D01*
X030757Y036745D02*
X030757Y037206D01*
X030910Y037052D01*
X031064Y037052D02*
X031294Y036899D01*
X031064Y036745D01*
X031294Y036745D02*
X031294Y037206D01*
X031448Y037206D02*
X031754Y037206D01*
X031754Y036976D01*
X031601Y037052D01*
X031524Y037052D01*
X031448Y036976D01*
X031448Y036822D01*
X031524Y036745D01*
X031678Y036745D01*
X031754Y036822D01*
X031831Y037370D02*
X031831Y037831D01*
X031601Y037831D01*
X031524Y037754D01*
X031524Y037601D01*
X031601Y037524D01*
X031831Y037524D01*
X031678Y037524D02*
X031524Y037370D01*
X031371Y037601D02*
X031064Y037601D01*
X030910Y037601D02*
X030757Y037677D01*
X030680Y037677D01*
X030603Y037601D01*
X030603Y037447D01*
X030680Y037370D01*
X030834Y037370D01*
X030910Y037447D01*
X030910Y037601D02*
X030910Y037831D01*
X030603Y037831D01*
X031141Y037831D02*
X031371Y037601D01*
X031141Y037370D02*
X031141Y037831D01*
X029075Y039864D02*
X028615Y039864D01*
X028768Y039864D02*
X028768Y040095D01*
X028845Y040171D01*
X028999Y040171D01*
X029075Y040095D01*
X029075Y039864D01*
X028768Y040018D02*
X028615Y040171D01*
X028845Y040325D02*
X028845Y040632D01*
X028999Y040785D02*
X029075Y040862D01*
X029075Y041015D01*
X028999Y041092D01*
X028922Y041092D01*
X028615Y040785D01*
X028615Y041092D01*
X028230Y041263D02*
X028230Y041553D01*
X028075Y041478D02*
X027999Y041401D01*
X028075Y041478D02*
X028075Y041632D01*
X027999Y041708D01*
X027922Y041708D01*
X027615Y041401D01*
X027615Y041708D01*
X027615Y041862D02*
X028075Y041862D01*
X027922Y042092D02*
X027768Y041862D01*
X027615Y042092D01*
X027710Y041563D02*
X027710Y041263D01*
X028615Y040555D02*
X029075Y040555D01*
X028845Y040325D01*
X026450Y040555D02*
X025990Y040555D01*
X025950Y040524D02*
X025720Y040524D01*
X025643Y040601D01*
X025643Y040754D01*
X025720Y040831D01*
X025950Y040831D01*
X025950Y040370D01*
X025990Y040401D02*
X025990Y040708D01*
X025990Y040862D02*
X026450Y040862D01*
X026297Y041092D02*
X026143Y040862D01*
X025990Y041092D01*
X025990Y041364D02*
X026450Y041364D01*
X026450Y041595D01*
X026374Y041671D01*
X026220Y041671D01*
X026143Y041595D01*
X026143Y041364D01*
X026143Y041518D02*
X025990Y041671D01*
X026220Y041825D02*
X026220Y042132D01*
X026297Y042285D02*
X026450Y042439D01*
X025990Y042439D01*
X025990Y042592D02*
X025990Y042285D01*
X025990Y042055D02*
X026450Y042055D01*
X026220Y041825D01*
X025259Y040831D02*
X025490Y040601D01*
X025183Y040601D01*
X025029Y040601D02*
X024876Y040754D01*
X024722Y040831D01*
X024799Y040601D02*
X025029Y040601D01*
X025029Y040447D01*
X024952Y040370D01*
X024799Y040370D01*
X024722Y040447D01*
X024722Y040524D01*
X024799Y040601D01*
X024799Y040331D02*
X024799Y040254D01*
X025106Y039947D01*
X025106Y039870D01*
X025259Y039870D02*
X025490Y040024D01*
X025259Y040177D01*
X025259Y040370D02*
X025259Y040831D01*
X025106Y040331D02*
X024799Y040331D01*
X025490Y040331D02*
X025490Y039870D01*
X025720Y039870D02*
X025720Y040331D01*
X025950Y040101D01*
X025643Y040101D01*
X025643Y040370D02*
X025797Y040524D01*
X026297Y040401D02*
X026450Y040555D01*
X027137Y042933D02*
X027137Y043163D01*
X027214Y043240D01*
X027444Y043240D01*
X027444Y042933D01*
X027597Y043010D02*
X027597Y043317D01*
X027904Y043010D01*
X027827Y042933D01*
X027674Y042933D01*
X027597Y043010D01*
X027597Y043317D02*
X027674Y043393D01*
X027827Y043393D01*
X027904Y043317D01*
X027904Y043010D01*
X028058Y043010D02*
X028134Y042933D01*
X028288Y042933D01*
X028365Y043010D01*
X028058Y043317D01*
X028058Y043010D01*
X028365Y043010D02*
X028365Y043317D01*
X028288Y043393D01*
X028134Y043393D01*
X028058Y043317D01*
X028058Y043558D02*
X028365Y043558D01*
X028211Y043558D02*
X028211Y044018D01*
X028365Y043865D01*
X028518Y043942D02*
X028595Y044018D01*
X028748Y044018D01*
X028825Y043942D01*
X028825Y043635D01*
X028748Y043558D01*
X028595Y043558D01*
X028518Y043635D01*
X028672Y043393D02*
X028672Y042933D01*
X028825Y042933D02*
X028518Y042933D01*
X028825Y043240D02*
X028672Y043393D01*
X027904Y043635D02*
X027827Y043558D01*
X027674Y043558D01*
X027597Y043635D01*
X027597Y043788D01*
X027674Y043865D01*
X027751Y043865D01*
X027904Y043788D01*
X027904Y044018D01*
X027597Y044018D01*
X022956Y047495D02*
X022956Y047956D01*
X022726Y047956D01*
X022649Y047879D01*
X022649Y047726D01*
X022726Y047649D01*
X022956Y047649D01*
X022803Y047649D02*
X022649Y047495D01*
X022496Y047572D02*
X022419Y047495D01*
X022266Y047495D01*
X022189Y047572D01*
X022189Y047879D01*
X022266Y047956D01*
X022419Y047956D01*
X022496Y047879D01*
X022496Y047802D01*
X022419Y047726D01*
X022189Y047726D01*
X022035Y047649D02*
X021805Y047649D01*
X021728Y047726D01*
X021728Y047879D01*
X021805Y047956D01*
X022035Y047956D01*
X022035Y047495D01*
X021246Y047495D02*
X021246Y047572D01*
X020939Y047879D01*
X020939Y047956D01*
X021246Y047956D01*
X020785Y047956D02*
X020785Y047726D01*
X020632Y047802D01*
X020555Y047802D01*
X020478Y047726D01*
X020478Y047572D01*
X020555Y047495D01*
X020709Y047495D01*
X020785Y047572D01*
X020785Y047956D02*
X020478Y047956D01*
X018513Y047518D02*
X018282Y047518D01*
X018206Y047442D01*
X018206Y047288D01*
X018282Y047211D01*
X018513Y047211D01*
X018513Y047058D02*
X018513Y047518D01*
X018359Y047211D02*
X018206Y047058D01*
X018052Y047135D02*
X018052Y047211D01*
X017975Y047288D01*
X017822Y047288D01*
X017745Y047211D01*
X017745Y047135D01*
X017822Y047058D01*
X017975Y047058D01*
X018052Y047135D01*
X017975Y047288D02*
X018052Y047365D01*
X018052Y047442D01*
X017975Y047518D01*
X017822Y047518D01*
X017745Y047442D01*
X017745Y047365D01*
X017822Y047288D01*
X017592Y047211D02*
X017362Y047211D01*
X017285Y047288D01*
X017285Y047442D01*
X017362Y047518D01*
X017592Y047518D01*
X017592Y047058D01*
X017620Y046768D02*
X017927Y046768D01*
X017927Y046538D01*
X017774Y046615D01*
X017697Y046615D01*
X017620Y046538D01*
X017620Y046385D01*
X017697Y046308D01*
X017850Y046308D01*
X017927Y046385D01*
X018081Y046692D02*
X018388Y046385D01*
X018388Y046308D01*
X018388Y046768D02*
X018081Y046768D01*
X018081Y046692D01*
X021237Y038206D02*
X021390Y038206D01*
X021467Y038129D01*
X021467Y038052D01*
X021390Y037976D01*
X021160Y037976D01*
X021160Y038129D02*
X021237Y038206D01*
X021160Y038129D02*
X021160Y037822D01*
X021237Y037745D01*
X021390Y037745D01*
X021467Y037822D01*
X021620Y037976D02*
X021927Y037976D01*
X021697Y038206D01*
X021697Y037745D01*
X022081Y037745D02*
X022234Y037899D01*
X022157Y037899D02*
X022388Y037899D01*
X022388Y037745D02*
X022388Y038206D01*
X022157Y038206D01*
X022081Y038129D01*
X022081Y037976D01*
X022157Y037899D01*
X022853Y038004D02*
X022853Y038081D01*
X022853Y038004D02*
X023007Y037851D01*
X023007Y037620D01*
X023007Y037851D02*
X023160Y038004D01*
X023160Y038081D01*
X023314Y038004D02*
X023314Y037927D01*
X023391Y037851D01*
X023314Y037774D01*
X023314Y037697D01*
X023391Y037620D01*
X023544Y037620D01*
X023621Y037697D01*
X023774Y037697D02*
X023851Y037620D01*
X024004Y037620D01*
X024081Y037697D01*
X024081Y038004D01*
X024004Y038081D01*
X023851Y038081D01*
X023774Y038004D01*
X023621Y038004D02*
X023544Y038081D01*
X023391Y038081D01*
X023314Y038004D01*
X023391Y037851D02*
X023467Y037851D01*
X023320Y037360D02*
X023620Y037360D01*
X023610Y036841D02*
X023320Y036841D01*
X023391Y036581D02*
X023314Y036504D01*
X023621Y036197D01*
X023544Y036120D01*
X023391Y036120D01*
X023314Y036197D01*
X023314Y036504D01*
X023391Y036581D02*
X023544Y036581D01*
X023621Y036504D01*
X023621Y036197D01*
X023774Y036197D02*
X023851Y036120D01*
X024004Y036120D01*
X024081Y036197D01*
X023774Y036504D01*
X023774Y036197D01*
X023774Y036504D02*
X023851Y036581D01*
X024004Y036581D01*
X024081Y036504D01*
X024081Y036197D01*
X024235Y036120D02*
X024542Y036120D01*
X024388Y036120D02*
X024388Y036581D01*
X024542Y036427D01*
X024472Y036504D02*
X024779Y036197D01*
X024779Y036120D01*
X024856Y035956D02*
X024549Y035956D01*
X024549Y035879D01*
X024856Y035572D01*
X024856Y035495D01*
X025009Y035495D02*
X025240Y035649D01*
X025009Y035802D01*
X025240Y035956D02*
X025240Y035495D01*
X025470Y035495D02*
X025470Y035956D01*
X025700Y035726D01*
X025393Y035726D01*
X025393Y036120D02*
X025547Y036274D01*
X025470Y036274D02*
X025700Y036274D01*
X025700Y036120D02*
X025700Y036581D01*
X025470Y036581D01*
X025393Y036504D01*
X025393Y036351D01*
X025470Y036274D01*
X025240Y036351D02*
X024933Y036351D01*
X025009Y036581D02*
X025240Y036351D01*
X025009Y036581D02*
X025009Y036120D01*
X024779Y036581D02*
X024472Y036581D01*
X024472Y036504D01*
X023160Y036427D02*
X023160Y036120D01*
X022853Y036120D02*
X022853Y036351D01*
X022930Y036427D01*
X023160Y036427D01*
X022263Y036351D02*
X021956Y036351D01*
X021802Y036274D02*
X021572Y036427D01*
X021418Y036581D02*
X021112Y036581D01*
X021112Y036504D01*
X021418Y036197D01*
X021418Y036120D01*
X021572Y036120D02*
X021802Y036274D01*
X021802Y036120D02*
X021802Y036581D01*
X022032Y036581D02*
X022263Y036351D01*
X022032Y036581D02*
X022032Y036120D01*
X034387Y037495D02*
X034387Y037726D01*
X034464Y037802D01*
X034694Y037802D01*
X034694Y037495D01*
X034847Y037572D02*
X034924Y037495D01*
X035077Y037495D01*
X035154Y037572D01*
X034847Y037879D01*
X034847Y037572D01*
X034847Y037879D02*
X034924Y037956D01*
X035077Y037956D01*
X035154Y037879D01*
X035154Y037572D01*
X035308Y037572D02*
X035384Y037495D01*
X035538Y037495D01*
X035615Y037572D01*
X035308Y037879D01*
X035308Y037572D01*
X035327Y037331D02*
X035404Y037254D01*
X035327Y037331D02*
X035174Y037331D01*
X035097Y037254D01*
X035097Y037177D01*
X035404Y036870D01*
X035097Y036870D01*
X035558Y036870D02*
X035865Y036870D01*
X035711Y036870D02*
X035711Y037331D01*
X035865Y037177D01*
X036018Y037254D02*
X036095Y037331D01*
X036248Y037331D01*
X036325Y037254D01*
X036325Y036947D01*
X036248Y036870D01*
X036095Y036870D01*
X036018Y036947D01*
X036075Y037495D02*
X035768Y037495D01*
X035922Y037495D02*
X035922Y037956D01*
X036075Y037802D01*
X035615Y037879D02*
X035538Y037956D01*
X035384Y037956D01*
X035308Y037879D01*
X035615Y037879D02*
X035615Y037572D01*
X034980Y038575D02*
X034980Y038866D01*
X034460Y038875D02*
X034460Y038575D01*
X040347Y038629D02*
X040347Y038322D01*
X040424Y038245D01*
X040577Y038245D01*
X040654Y038322D01*
X040808Y038245D02*
X041115Y038245D01*
X041268Y038245D02*
X041422Y038399D01*
X041345Y038399D02*
X041575Y038399D01*
X041575Y038245D02*
X041575Y038706D01*
X041345Y038706D01*
X041268Y038629D01*
X041268Y038476D01*
X041345Y038399D01*
X041115Y038552D02*
X040961Y038706D01*
X040961Y038245D01*
X040654Y038552D02*
X040577Y038476D01*
X040347Y038476D01*
X040347Y038629D02*
X040424Y038706D01*
X040577Y038706D01*
X040654Y038629D01*
X040654Y038552D01*
X040603Y038870D02*
X040834Y039024D01*
X040603Y039177D01*
X040834Y039331D02*
X040834Y038870D01*
X040987Y038947D02*
X041064Y038870D01*
X041217Y038870D01*
X041294Y038947D01*
X040987Y039254D01*
X040987Y038947D01*
X041294Y038947D02*
X041294Y039254D01*
X041217Y039331D01*
X041064Y039331D01*
X040987Y039254D01*
X041448Y038870D02*
X041754Y038870D01*
X041601Y038870D02*
X041601Y039331D01*
X041754Y039177D01*
X046853Y035879D02*
X046853Y035802D01*
X046930Y035726D01*
X046853Y035649D01*
X046853Y035572D01*
X046930Y035495D01*
X047084Y035495D01*
X047160Y035572D01*
X047314Y035572D02*
X047391Y035495D01*
X047544Y035495D01*
X047621Y035572D01*
X047621Y035879D01*
X047544Y035956D01*
X047391Y035956D01*
X047314Y035879D01*
X047160Y035879D02*
X047084Y035956D01*
X046930Y035956D01*
X046853Y035879D01*
X046930Y035726D02*
X047007Y035726D01*
X047055Y035177D02*
X046978Y035101D01*
X046978Y034870D01*
X047285Y034870D02*
X047285Y035177D01*
X047055Y035177D01*
X047439Y035254D02*
X047746Y034947D01*
X047669Y034870D01*
X047516Y034870D01*
X047439Y034947D01*
X047439Y035254D01*
X047516Y035331D01*
X047669Y035331D01*
X047746Y035254D01*
X047746Y034947D01*
X047899Y034947D02*
X047976Y034870D01*
X048129Y034870D01*
X048206Y034947D01*
X047899Y035254D01*
X047899Y034947D01*
X047899Y035254D02*
X047976Y035331D01*
X048129Y035331D01*
X048206Y035254D01*
X048206Y034947D01*
X048360Y034870D02*
X048667Y034870D01*
X048513Y034870D02*
X048513Y035331D01*
X048667Y035177D01*
X047620Y036341D02*
X047320Y036341D01*
X047330Y036860D02*
X047620Y036860D01*
X043825Y034890D02*
X043749Y034967D01*
X043442Y034660D01*
X043365Y034737D01*
X043365Y034890D01*
X043442Y034967D01*
X043749Y034967D01*
X043825Y034890D02*
X043825Y034737D01*
X043749Y034660D01*
X043442Y034660D01*
X042075Y034447D02*
X041998Y034370D01*
X041922Y034370D01*
X041845Y034447D01*
X041845Y034831D01*
X041922Y034831D02*
X041768Y034831D01*
X041615Y034677D02*
X041461Y034831D01*
X041461Y034370D01*
X041308Y034370D02*
X041615Y034370D01*
X056353Y046197D02*
X056353Y046274D01*
X056430Y046351D01*
X056660Y046351D01*
X056660Y046197D01*
X056584Y046120D01*
X056430Y046120D01*
X056353Y046197D01*
X056507Y046504D02*
X056353Y046581D01*
X056507Y046504D02*
X056660Y046351D01*
X056814Y046504D02*
X056891Y046581D01*
X057044Y046581D01*
X057121Y046504D01*
X057121Y046197D01*
X057044Y046120D01*
X056891Y046120D01*
X056814Y046197D01*
X056910Y046745D02*
X056910Y047052D01*
X056680Y047052D01*
X056603Y046976D01*
X056603Y046745D01*
X057064Y046822D02*
X057141Y046745D01*
X057294Y046745D01*
X057371Y046822D01*
X057064Y047129D01*
X057064Y046822D01*
X057371Y046822D02*
X057371Y047129D01*
X057294Y047206D01*
X057141Y047206D01*
X057064Y047129D01*
X057524Y047129D02*
X057831Y046822D01*
X057754Y046745D01*
X057601Y046745D01*
X057524Y046822D01*
X057524Y047129D01*
X057601Y047206D01*
X057754Y047206D01*
X057831Y047129D01*
X057831Y046822D01*
X057985Y046745D02*
X058292Y046745D01*
X058138Y046745D02*
X058138Y047206D01*
X058292Y047052D01*
X058285Y046480D02*
X058285Y045721D01*
X058905Y045721D02*
X058905Y046480D01*
X061478Y046427D02*
X061478Y046504D01*
X061555Y046581D01*
X061709Y046581D01*
X061785Y046504D01*
X061939Y046504D02*
X062016Y046581D01*
X062169Y046581D01*
X062246Y046504D01*
X062399Y046504D02*
X062399Y046351D01*
X062476Y046274D01*
X062706Y046274D01*
X062553Y046274D02*
X062399Y046120D01*
X062246Y046120D02*
X061939Y046427D01*
X061939Y046504D01*
X061910Y046870D02*
X061910Y046947D01*
X061603Y047254D01*
X061603Y047331D01*
X061910Y047331D01*
X062064Y047177D02*
X062294Y047024D01*
X062064Y046870D01*
X062294Y046870D02*
X062294Y047331D01*
X062524Y047331D02*
X062754Y047101D01*
X062448Y047101D01*
X062524Y047331D02*
X062524Y046870D01*
X062476Y046581D02*
X062399Y046504D01*
X062476Y046581D02*
X062706Y046581D01*
X062706Y046120D01*
X062246Y046120D02*
X061939Y046120D01*
X061785Y046120D02*
X061478Y046427D01*
X061478Y046120D02*
X061785Y046120D01*
X061459Y044581D02*
X061305Y044581D01*
X061228Y044504D01*
X061535Y044197D01*
X061459Y044120D01*
X061305Y044120D01*
X061228Y044197D01*
X061228Y044504D01*
X061459Y044581D02*
X061535Y044504D01*
X061535Y044197D01*
X061092Y042831D02*
X060939Y042831D01*
X061016Y042831D02*
X061016Y042447D01*
X061092Y042370D01*
X061169Y042370D01*
X061246Y042447D01*
X060785Y042370D02*
X060478Y042677D01*
X060478Y042754D01*
X060555Y042831D01*
X060709Y042831D01*
X060785Y042754D01*
X060785Y042370D02*
X060478Y042370D01*
X062347Y042572D02*
X062424Y042495D01*
X062577Y042495D01*
X062654Y042572D01*
X062808Y042495D02*
X063115Y042495D01*
X062808Y042802D01*
X062808Y042879D01*
X062884Y042956D01*
X063038Y042956D01*
X063115Y042879D01*
X063268Y042879D02*
X063268Y042726D01*
X063345Y042649D01*
X063575Y042649D01*
X063422Y042649D02*
X063268Y042495D01*
X063575Y042495D02*
X063575Y042956D01*
X063345Y042956D01*
X063268Y042879D01*
X062654Y042879D02*
X062577Y042956D01*
X062424Y042956D01*
X062347Y042879D01*
X062347Y042802D01*
X062424Y042726D01*
X062347Y042649D01*
X062347Y042572D01*
X062424Y042726D02*
X062501Y042726D01*
X064228Y042879D02*
X064535Y042572D01*
X064535Y042495D01*
X064689Y042495D02*
X064919Y042649D01*
X064689Y042802D01*
X064535Y042956D02*
X064228Y042956D01*
X064228Y042879D01*
X064919Y042956D02*
X064919Y042495D01*
X065149Y042495D02*
X065149Y042956D01*
X065379Y042726D01*
X065073Y042726D01*
X063394Y026706D02*
X063163Y026706D01*
X063087Y026629D01*
X063087Y026476D01*
X063163Y026399D01*
X063394Y026399D01*
X063394Y026245D02*
X063394Y026706D01*
X063240Y026399D02*
X063087Y026245D01*
X062933Y026322D02*
X062857Y026245D01*
X062703Y026245D01*
X062626Y026322D01*
X062626Y026399D01*
X062703Y026476D01*
X062780Y026476D01*
X062703Y026476D02*
X062626Y026552D01*
X062626Y026629D01*
X062703Y026706D01*
X062857Y026706D01*
X062933Y026629D01*
X062473Y026706D02*
X062166Y026706D01*
X062166Y026629D01*
X062473Y026322D01*
X062473Y026245D01*
X062334Y026018D02*
X062334Y025558D01*
X062487Y025558D02*
X062794Y025558D01*
X062641Y025558D02*
X062641Y026018D01*
X062794Y025865D01*
X062334Y025711D02*
X062103Y025865D01*
X062334Y025711D02*
X062103Y025558D01*
X060373Y023081D02*
X060220Y023081D01*
X060143Y023004D01*
X059990Y023081D02*
X059990Y022851D01*
X059836Y022927D01*
X059759Y022927D01*
X059683Y022851D01*
X059683Y022697D01*
X059759Y022620D01*
X059913Y022620D01*
X059990Y022697D01*
X060143Y022697D02*
X060220Y022620D01*
X060373Y022620D01*
X060450Y022697D01*
X060450Y023004D01*
X060373Y023081D01*
X059990Y023081D02*
X059683Y023081D01*
X059759Y022456D02*
X059683Y022379D01*
X059990Y022072D01*
X059913Y021995D01*
X059759Y021995D01*
X059683Y022072D01*
X059683Y022379D01*
X059759Y022456D02*
X059913Y022456D01*
X059990Y022379D01*
X059990Y022072D01*
X060143Y021995D02*
X060450Y021995D01*
X060297Y021995D02*
X060297Y022456D01*
X060450Y022302D01*
X060710Y022375D02*
X060710Y022075D01*
X061230Y022075D02*
X061230Y022366D01*
X059529Y022379D02*
X059529Y022072D01*
X059222Y022379D01*
X059222Y022072D01*
X059299Y021995D01*
X059452Y021995D01*
X059529Y022072D01*
X059529Y022379D02*
X059452Y022456D01*
X059299Y022456D01*
X059222Y022379D01*
X059069Y022302D02*
X058839Y022302D01*
X058762Y022226D01*
X058762Y021995D01*
X059069Y021995D02*
X059069Y022302D01*
X049825Y007456D02*
X049595Y007456D01*
X049518Y007379D01*
X049518Y007226D01*
X049595Y007149D01*
X049825Y007149D01*
X049672Y007149D02*
X049518Y006995D01*
X049365Y007072D02*
X049288Y006995D01*
X049134Y006995D01*
X049058Y007072D01*
X049058Y007149D01*
X049134Y007226D01*
X049211Y007226D01*
X049134Y007226D02*
X049058Y007302D01*
X049058Y007379D01*
X049134Y007456D01*
X049288Y007456D01*
X049365Y007379D01*
X049825Y007456D02*
X049825Y006995D01*
X048904Y007072D02*
X048827Y006995D01*
X048674Y006995D01*
X048597Y007072D01*
X048597Y007149D01*
X048674Y007226D01*
X048904Y007226D01*
X048904Y007072D01*
X048904Y007226D02*
X048751Y007379D01*
X048597Y007456D01*
X048990Y005956D02*
X048990Y005495D01*
X049143Y005495D02*
X049450Y005495D01*
X049297Y005495D02*
X049297Y005956D01*
X049450Y005802D01*
X048990Y005649D02*
X048759Y005495D01*
X048990Y005649D02*
X048759Y005802D01*
X043950Y006995D02*
X043950Y007456D01*
X043720Y007456D01*
X043643Y007379D01*
X043643Y007226D01*
X043720Y007149D01*
X043950Y007149D01*
X043797Y007149D02*
X043643Y006995D01*
X043490Y007072D02*
X043413Y006995D01*
X043259Y006995D01*
X043183Y007072D01*
X043183Y007149D01*
X043259Y007226D01*
X043336Y007226D01*
X043259Y007226D02*
X043183Y007302D01*
X043183Y007379D01*
X043259Y007456D01*
X043413Y007456D01*
X043490Y007379D01*
X043029Y007456D02*
X043029Y007226D01*
X042876Y007302D01*
X042799Y007302D01*
X042722Y007226D01*
X042722Y007072D01*
X042799Y006995D01*
X042952Y006995D01*
X043029Y007072D01*
X043029Y007456D02*
X042722Y007456D01*
X043240Y005956D02*
X043240Y005495D01*
X043393Y005495D02*
X043700Y005495D01*
X043547Y005495D02*
X043547Y005956D01*
X043700Y005802D01*
X043240Y005649D02*
X043009Y005802D01*
X043240Y005649D02*
X043009Y005495D01*
X029105Y020638D02*
X029105Y020928D01*
X028585Y020938D02*
X028585Y020638D01*
X028325Y020615D02*
X028172Y020768D01*
X028172Y020308D01*
X028325Y020308D02*
X028018Y020308D01*
X027865Y020385D02*
X027558Y020692D01*
X027558Y020385D01*
X027634Y020308D01*
X027788Y020308D01*
X027865Y020385D01*
X027865Y020692D01*
X027788Y020768D01*
X027634Y020768D01*
X027558Y020692D01*
X027404Y020692D02*
X027404Y020385D01*
X027097Y020692D01*
X027097Y020385D01*
X027174Y020308D01*
X027327Y020308D01*
X027404Y020385D01*
X027404Y020692D02*
X027327Y020768D01*
X027174Y020768D01*
X027097Y020692D01*
X026944Y020615D02*
X026714Y020615D01*
X026637Y020538D01*
X026637Y020308D01*
X026944Y020308D02*
X026944Y020615D01*
X027174Y020933D02*
X027327Y020933D01*
X027404Y021010D01*
X027097Y021317D01*
X027097Y021010D01*
X027174Y020933D01*
X027404Y021010D02*
X027404Y021317D01*
X027327Y021393D01*
X027174Y021393D01*
X027097Y021317D01*
X027558Y020933D02*
X027865Y020933D01*
X027711Y020933D02*
X027711Y021393D01*
X027865Y021240D01*
X028018Y021317D02*
X028095Y021393D01*
X028248Y021393D01*
X028325Y021317D01*
X028325Y021010D01*
X028248Y020933D01*
X028095Y020933D01*
X028018Y021010D01*
D13*
X025595Y034260D03*
X025595Y034940D03*
X040970Y036760D03*
X040970Y037440D03*
D14*
X025387Y037101D03*
X024807Y037101D03*
X022075Y037101D03*
X021495Y037101D03*
X009012Y028851D03*
X008432Y028851D03*
X007258Y026225D03*
X006678Y026225D03*
X005383Y026225D03*
X004803Y026225D03*
X005553Y023225D03*
X006133Y023225D03*
X012057Y021351D03*
X012637Y021351D03*
X011762Y017351D03*
X011182Y017351D03*
X009012Y017476D03*
X008432Y017476D03*
X017182Y013601D03*
X017762Y013601D03*
X017762Y012726D03*
X017182Y012726D03*
X017182Y011851D03*
X017762Y011851D03*
X018370Y010539D03*
X018950Y010539D03*
X043182Y006476D03*
X043762Y006476D03*
X048932Y006476D03*
X049512Y006476D03*
X063303Y044725D03*
X063883Y044725D03*
D15*
X064240Y043475D03*
X063200Y043475D03*
X062115Y043600D03*
X061075Y043600D03*
X029865Y037475D03*
X028825Y037475D03*
X025865Y037975D03*
X024825Y037975D03*
X021865Y046975D03*
X020825Y046975D03*
X009553Y037475D03*
X008513Y037475D03*
X008513Y036475D03*
X009553Y036475D03*
D16*
X019095Y046455D03*
X019095Y047495D03*
X027345Y035245D03*
X027345Y034205D03*
X009095Y016495D03*
X009095Y015455D03*
X016033Y013245D03*
X016033Y012205D03*
D17*
X010883Y015975D03*
X010313Y015975D03*
X006252Y010226D03*
X005682Y010226D03*
X002502Y011351D03*
X001932Y011351D03*
X004557Y031476D03*
X005127Y031476D03*
X005252Y035413D03*
X004682Y035413D03*
X023182Y037101D03*
X023752Y037101D03*
X047188Y036600D03*
X047758Y036600D03*
D18*
X034720Y038438D03*
X034720Y039008D03*
X029970Y035888D03*
X029970Y035318D03*
X027970Y041125D03*
X027970Y041695D03*
X003845Y026195D03*
X003845Y025625D03*
X014595Y014951D03*
X014595Y014381D03*
X024970Y010070D03*
X024970Y009500D03*
X028845Y020500D03*
X028845Y021070D03*
X002033Y014076D03*
X002033Y013506D03*
X060970Y021938D03*
X060970Y022508D03*
D19*
X006150Y034100D03*
X005040Y034100D03*
D20*
X005073Y032913D03*
X006117Y032913D03*
X005867Y029850D03*
X004823Y029851D03*
D21*
X024720Y029828D03*
X024720Y030873D03*
X058595Y045578D03*
X058595Y046623D03*
D22*
X042845Y035155D03*
X042845Y034045D03*
D23*
X012670Y014391D02*
X012670Y011810D01*
X011270Y011810D01*
X011270Y014391D01*
X012670Y014391D01*
D24*
X010895Y013100D03*
X010895Y013100D03*
D25*
X013045Y013100D03*
X013045Y013100D03*
X013045Y012190D03*
X013045Y012190D03*
X013045Y014010D03*
X013045Y014010D03*
M02*
