G75*
G70*
%OFA0B0*%
%FSLAX24Y24*%
%IPPOS*%
%LPD*%
%AMOC8*
5,1,8,0,0,1.08239X$1,22.5*
%
%ADD10C,0.0700*%
%ADD11C,0.0635*%
%ADD12C,0.0555*%
%ADD13R,0.0512X0.0591*%
%ADD14R,0.0630X0.0710*%
%ADD15R,0.0512X0.0630*%
%ADD16OC8,0.0635*%
%ADD17R,0.0710X0.0630*%
%ADD18R,0.0591X0.0512*%
%ADD19C,0.0635*%
%ADD20C,0.0715*%
%ADD21OC8,0.0715*%
%ADD22C,0.0669*%
%ADD23C,0.1266*%
%ADD24C,0.0555*%
%ADD25R,0.0630X0.0512*%
%ADD26C,0.0835*%
%ADD27C,0.0715*%
%ADD28C,0.0120*%
%ADD29C,0.0240*%
%ADD30C,0.0320*%
%ADD31C,0.0860*%
%ADD32C,0.0160*%
%ADD33C,0.0760*%
%ADD34C,0.0560*%
%ADD35R,0.0860X0.0860*%
%ADD36C,0.1969*%
D10*
X050331Y050325D03*
X051331Y050325D03*
X052331Y050325D03*
X053331Y050325D03*
X054331Y050325D03*
X055331Y050325D03*
X056331Y050325D03*
X057331Y050325D03*
X058331Y050325D03*
X059331Y050325D03*
X060331Y050325D03*
X060331Y051325D03*
X061331Y051325D03*
X061331Y052325D03*
X061331Y053325D03*
X061331Y054325D03*
X060331Y054325D03*
X060331Y053325D03*
X060331Y052325D03*
X059331Y051325D03*
X058331Y051325D03*
X057331Y051325D03*
X056331Y051325D03*
X055331Y051325D03*
X054331Y051325D03*
X053331Y051325D03*
X052331Y051325D03*
X051331Y051325D03*
X050331Y051325D03*
X050331Y052325D03*
X050331Y053325D03*
X050331Y054325D03*
X049331Y054325D03*
X049331Y053325D03*
X049331Y052325D03*
X049331Y051325D03*
X049331Y055325D03*
X050331Y055325D03*
X050331Y056325D03*
X050331Y057325D03*
X050331Y058325D03*
X049331Y058325D03*
X049331Y057325D03*
X049331Y056325D03*
X049331Y059325D03*
X050331Y059325D03*
X050331Y060325D03*
X050331Y061325D03*
X051331Y061325D03*
X052331Y061325D03*
X053331Y061325D03*
X054331Y061325D03*
X055331Y061325D03*
X056331Y061325D03*
X057331Y061325D03*
X058331Y061325D03*
X059331Y061325D03*
X060331Y061325D03*
X061331Y061325D03*
X061331Y060325D03*
X061331Y059325D03*
X060331Y059325D03*
X060331Y060325D03*
X060331Y062325D03*
X059331Y062325D03*
X058331Y062325D03*
X057331Y062325D03*
X056331Y062325D03*
X055331Y062325D03*
X054331Y062325D03*
X053331Y062325D03*
X052331Y062325D03*
X051331Y062325D03*
X050331Y062325D03*
X049331Y061325D03*
X049331Y060325D03*
X060331Y058325D03*
X061331Y058325D03*
X061331Y057325D03*
X061331Y056325D03*
X061331Y055325D03*
X060331Y055325D03*
X060331Y056325D03*
X060331Y057325D03*
X077206Y032950D03*
D11*
X077706Y031392D02*
X077706Y030758D01*
X078706Y030758D02*
X078706Y031392D01*
X079706Y031392D02*
X079706Y030758D01*
X080706Y030758D02*
X080706Y031392D01*
X081706Y031392D02*
X081706Y030758D01*
X082706Y030758D02*
X082706Y031392D01*
X083706Y031392D02*
X083706Y030758D01*
X084706Y030758D02*
X084706Y031392D01*
X090013Y031700D02*
X090648Y031700D01*
X090648Y030700D02*
X090013Y030700D01*
X090013Y029700D02*
X090648Y029700D01*
X090648Y028700D02*
X090013Y028700D01*
X090013Y027700D02*
X090648Y027700D01*
X090648Y026700D02*
X090013Y026700D01*
X090013Y025700D02*
X090648Y025700D01*
X090648Y024700D02*
X090013Y024700D01*
X090013Y023700D02*
X090648Y023700D01*
X090648Y022700D02*
X090013Y022700D01*
X090013Y021700D02*
X090648Y021700D01*
X096013Y021700D02*
X096648Y021700D01*
X096648Y022700D02*
X096013Y022700D01*
X096013Y023700D02*
X096648Y023700D01*
X096648Y024700D02*
X096013Y024700D01*
X096013Y025700D02*
X096648Y025700D01*
X096648Y026700D02*
X096013Y026700D01*
X096013Y027700D02*
X096648Y027700D01*
X096648Y028700D02*
X096013Y028700D01*
X096013Y029700D02*
X096648Y029700D01*
X096648Y030700D02*
X096013Y030700D01*
X096013Y031700D02*
X096648Y031700D01*
X096648Y032700D02*
X096013Y032700D01*
X096013Y033700D02*
X096648Y033700D01*
X096648Y034700D02*
X096013Y034700D01*
X096013Y035700D02*
X096648Y035700D01*
X096648Y036700D02*
X096013Y036700D01*
X096013Y037700D02*
X096648Y037700D01*
X096648Y038700D02*
X096013Y038700D01*
X096013Y039700D02*
X096648Y039700D01*
X096648Y040700D02*
X096013Y040700D01*
X090648Y040700D02*
X090013Y040700D01*
X090013Y039700D02*
X090648Y039700D01*
X090648Y038700D02*
X090013Y038700D01*
X090013Y037700D02*
X090648Y037700D01*
X090648Y036700D02*
X090013Y036700D01*
X090013Y035700D02*
X090648Y035700D01*
X090648Y034700D02*
X090013Y034700D01*
X090013Y033700D02*
X090648Y033700D01*
X090648Y032700D02*
X090013Y032700D01*
X084706Y036758D02*
X084706Y037392D01*
X083706Y037392D02*
X083706Y036758D01*
X082706Y036758D02*
X082706Y037392D01*
X081706Y037392D02*
X081706Y036758D01*
X080706Y036758D02*
X080706Y037392D01*
X079706Y037392D02*
X079706Y036758D01*
X078706Y036758D02*
X078706Y037392D01*
X077706Y037392D02*
X077706Y036758D01*
X076706Y036758D02*
X076706Y037392D01*
X075706Y037392D02*
X075706Y036758D01*
X074706Y036758D02*
X074706Y037392D01*
X073706Y037392D02*
X073706Y036758D01*
X072706Y036758D02*
X072706Y037392D01*
X071706Y037392D02*
X071706Y036758D01*
X070706Y036758D02*
X070706Y037392D01*
X069706Y037392D02*
X069706Y036758D01*
X068706Y036758D02*
X068706Y037392D01*
X067706Y037392D02*
X067706Y036758D01*
X066706Y036758D02*
X066706Y037392D01*
X065706Y037392D02*
X065706Y036758D01*
X065706Y031392D02*
X065706Y030758D01*
X066706Y030758D02*
X066706Y031392D01*
X067706Y031392D02*
X067706Y030758D01*
X068706Y030758D02*
X068706Y031392D01*
X069706Y031392D02*
X069706Y030758D01*
X070706Y030758D02*
X070706Y031392D01*
X071706Y031392D02*
X071706Y030758D01*
X072706Y030758D02*
X072706Y031392D01*
X073706Y031392D02*
X073706Y030758D01*
X074706Y030758D02*
X074706Y031392D01*
X075706Y031392D02*
X075706Y030758D01*
X076706Y030758D02*
X076706Y031392D01*
X076706Y027517D02*
X076706Y026883D01*
X077706Y026883D02*
X077706Y027517D01*
X078706Y027517D02*
X078706Y026883D01*
X079706Y026883D02*
X079706Y027517D01*
X080706Y027517D02*
X080706Y026883D01*
X081706Y026883D02*
X081706Y027517D01*
X082706Y027517D02*
X082706Y026883D01*
X083706Y026883D02*
X083706Y027517D01*
X084706Y027517D02*
X084706Y026883D01*
X084706Y021517D02*
X084706Y020883D01*
X083706Y020883D02*
X083706Y021517D01*
X082706Y021517D02*
X082706Y020883D01*
X081706Y020883D02*
X081706Y021517D01*
X080706Y021517D02*
X080706Y020883D01*
X079706Y020883D02*
X079706Y021517D01*
X078706Y021517D02*
X078706Y020883D01*
X077706Y020883D02*
X077706Y021517D01*
X076706Y021517D02*
X076706Y020883D01*
X075706Y020883D02*
X075706Y021517D01*
X074706Y021517D02*
X074706Y020883D01*
X073706Y020883D02*
X073706Y021517D01*
X072706Y021517D02*
X072706Y020883D01*
X071706Y020883D02*
X071706Y021517D01*
X070706Y021517D02*
X070706Y020883D01*
X069706Y020883D02*
X069706Y021517D01*
X063710Y022571D02*
X063710Y023206D01*
X062710Y023206D02*
X062710Y022571D01*
X061710Y022571D02*
X061710Y023206D01*
X060710Y023206D02*
X060710Y022571D01*
X059710Y022571D02*
X059710Y023206D01*
X058710Y023206D02*
X058710Y022571D01*
X057710Y022571D02*
X057710Y023206D01*
X056710Y023206D02*
X056710Y022571D01*
X055710Y022571D02*
X055710Y023206D01*
X054710Y023206D02*
X054710Y022571D01*
X052836Y022430D02*
X052836Y023065D01*
X051836Y023065D02*
X051836Y022430D01*
X050836Y022430D02*
X050836Y023065D01*
X049836Y023065D02*
X049836Y022430D01*
X048836Y022430D02*
X048836Y023065D01*
X047836Y023065D02*
X047836Y022430D01*
X046836Y022430D02*
X046836Y023065D01*
X045836Y023065D02*
X045836Y022430D01*
X044836Y022430D02*
X044836Y023065D01*
X043836Y023065D02*
X043836Y022430D01*
X043836Y025430D02*
X043836Y026065D01*
X044836Y026065D02*
X044836Y025430D01*
X045836Y025430D02*
X045836Y026065D01*
X046836Y026065D02*
X046836Y025430D01*
X047836Y025430D02*
X047836Y026065D01*
X048836Y026065D02*
X048836Y025430D01*
X049836Y025430D02*
X049836Y026065D01*
X050836Y026065D02*
X050836Y025430D01*
X051836Y025430D02*
X051836Y026065D01*
X052836Y026065D02*
X052836Y025430D01*
X054710Y025571D02*
X054710Y026206D01*
X055710Y026206D02*
X055710Y025571D01*
X056710Y025571D02*
X056710Y026206D01*
X057710Y026206D02*
X057710Y025571D01*
X058710Y025571D02*
X058710Y026206D01*
X059710Y026206D02*
X059710Y025571D01*
X060710Y025571D02*
X060710Y026206D01*
X061710Y026206D02*
X061710Y025571D01*
X062710Y025571D02*
X062710Y026206D01*
X063710Y026206D02*
X063710Y025571D01*
X058831Y027758D02*
X058831Y028392D01*
X057831Y028392D02*
X057831Y027758D01*
X056831Y027758D02*
X056831Y028392D01*
X055831Y028392D02*
X055831Y027758D01*
X054831Y027758D02*
X054831Y028392D01*
X053831Y028392D02*
X053831Y027758D01*
X052831Y027758D02*
X052831Y028392D01*
X051831Y028392D02*
X051831Y027758D01*
X050831Y027758D02*
X050831Y028392D01*
X049831Y028392D02*
X049831Y027758D01*
X048831Y027758D02*
X048831Y028392D01*
X047831Y028392D02*
X047831Y027758D01*
X046831Y027758D02*
X046831Y028392D01*
X045831Y028392D02*
X045831Y027758D01*
X044831Y027758D02*
X044831Y028392D01*
X043831Y028392D02*
X043831Y027758D01*
X043831Y033758D02*
X043831Y034392D01*
X044831Y034392D02*
X044831Y033758D01*
X045831Y033758D02*
X045831Y034392D01*
X046831Y034392D02*
X046831Y033758D01*
X047831Y033758D02*
X047831Y034392D01*
X048831Y034392D02*
X048831Y033758D01*
X049831Y033758D02*
X049831Y034392D01*
X050831Y034392D02*
X050831Y033758D01*
X051831Y033758D02*
X051831Y034392D01*
X052831Y034392D02*
X052831Y033758D01*
X053831Y033758D02*
X053831Y034392D01*
X054831Y034392D02*
X054831Y033758D01*
X055831Y033758D02*
X055831Y034392D01*
X056831Y034392D02*
X056831Y033758D01*
X057831Y033758D02*
X057831Y034392D01*
X058831Y034392D02*
X058831Y033758D01*
X053835Y036129D02*
X053835Y036764D01*
X052835Y036764D02*
X052835Y036129D01*
X051835Y036129D02*
X051835Y036764D01*
X050835Y036764D02*
X050835Y036129D01*
X049835Y036129D02*
X049835Y036764D01*
X048835Y036764D02*
X048835Y036129D01*
X047835Y036129D02*
X047835Y036764D01*
X046835Y036764D02*
X046835Y036129D01*
X045835Y036129D02*
X045835Y036764D01*
X044835Y036764D02*
X044835Y036129D01*
X044835Y039129D02*
X044835Y039764D01*
X045835Y039764D02*
X045835Y039129D01*
X046835Y039129D02*
X046835Y039764D01*
X046831Y040758D02*
X046831Y041392D01*
X047831Y041392D02*
X047831Y040758D01*
X047835Y039764D02*
X047835Y039129D01*
X048835Y039129D02*
X048835Y039764D01*
X048831Y040758D02*
X048831Y041392D01*
X049831Y041392D02*
X049831Y040758D01*
X049835Y039764D02*
X049835Y039129D01*
X050835Y039129D02*
X050835Y039764D01*
X050831Y040758D02*
X050831Y041392D01*
X051831Y041392D02*
X051831Y040758D01*
X051835Y039764D02*
X051835Y039129D01*
X052835Y039129D02*
X052835Y039764D01*
X052831Y040758D02*
X052831Y041392D01*
X053831Y041392D02*
X053831Y040758D01*
X053835Y039764D02*
X053835Y039129D01*
X054831Y040758D02*
X054831Y041392D01*
X055831Y041392D02*
X055831Y040758D01*
X056831Y040758D02*
X056831Y041392D01*
X057831Y041392D02*
X057831Y040758D01*
X058831Y040758D02*
X058831Y041392D01*
X058831Y043883D02*
X058831Y044517D01*
X057831Y044517D02*
X057831Y043883D01*
X056831Y043883D02*
X056831Y044517D01*
X055831Y044517D02*
X055831Y043883D01*
X054831Y043883D02*
X054831Y044517D01*
X053831Y044517D02*
X053831Y043883D01*
X052831Y043883D02*
X052831Y044517D01*
X051831Y044517D02*
X051831Y043883D01*
X050831Y043883D02*
X050831Y044517D01*
X049831Y044517D02*
X049831Y043883D01*
X048831Y043883D02*
X048831Y044517D01*
X047831Y044517D02*
X047831Y043883D01*
X046831Y043883D02*
X046831Y044517D01*
X045831Y044517D02*
X045831Y043883D01*
X045831Y041392D02*
X045831Y040758D01*
X045831Y046758D02*
X045831Y047392D01*
X046831Y047392D02*
X046831Y046758D01*
X047831Y046758D02*
X047831Y047392D01*
X048831Y047392D02*
X048831Y046758D01*
X049831Y046758D02*
X049831Y047392D01*
X050831Y047392D02*
X050831Y046758D01*
X051831Y046758D02*
X051831Y047392D01*
X052831Y047392D02*
X052831Y046758D01*
X053831Y046758D02*
X053831Y047392D01*
X054831Y047392D02*
X054831Y046758D01*
X055831Y046758D02*
X055831Y047392D01*
X056831Y047392D02*
X056831Y046758D01*
X057831Y046758D02*
X057831Y047392D01*
X058831Y047392D02*
X058831Y046758D01*
X065706Y048008D02*
X065706Y048642D01*
X066706Y048642D02*
X066706Y048008D01*
X067706Y048008D02*
X067706Y048642D01*
X068706Y048642D02*
X068706Y048008D01*
X069706Y048008D02*
X069706Y048642D01*
X070706Y048642D02*
X070706Y048008D01*
X071706Y048008D02*
X071706Y048642D01*
X072706Y048642D02*
X072706Y048008D01*
X073706Y048008D02*
X073706Y048642D01*
X074706Y048642D02*
X074706Y048008D01*
X075706Y048008D02*
X075706Y048642D01*
X076706Y048642D02*
X076706Y048008D01*
X077706Y048008D02*
X077706Y048642D01*
X078706Y048642D02*
X078706Y048008D01*
X079706Y048008D02*
X079706Y048642D01*
X080706Y048642D02*
X080706Y048008D01*
X081706Y048008D02*
X081706Y048642D01*
X082706Y048642D02*
X082706Y048008D01*
X083706Y048008D02*
X083706Y048642D01*
X084706Y048642D02*
X084706Y048008D01*
X084706Y042642D02*
X084706Y042008D01*
X083706Y042008D02*
X083706Y042642D01*
X082706Y042642D02*
X082706Y042008D01*
X081706Y042008D02*
X081706Y042642D01*
X080706Y042642D02*
X080706Y042008D01*
X079706Y042008D02*
X079706Y042642D01*
X078706Y042642D02*
X078706Y042008D01*
X077706Y042008D02*
X077706Y042642D01*
X076706Y042642D02*
X076706Y042008D01*
X075706Y042008D02*
X075706Y042642D01*
X074706Y042642D02*
X074706Y042008D01*
X073706Y042008D02*
X073706Y042642D01*
X072706Y042642D02*
X072706Y042008D01*
X071706Y042008D02*
X071706Y042642D01*
X070706Y042642D02*
X070706Y042008D01*
X069706Y042008D02*
X069706Y042642D01*
X068706Y042642D02*
X068706Y042008D01*
X067706Y042008D02*
X067706Y042642D01*
X066706Y042642D02*
X066706Y042008D01*
X065706Y042008D02*
X065706Y042642D01*
X067081Y056008D02*
X067081Y056642D01*
X068081Y056642D02*
X068081Y056008D01*
X069081Y056008D02*
X069081Y056642D01*
X070081Y056642D02*
X070081Y056008D01*
X071081Y056008D02*
X071081Y056642D01*
X072081Y056642D02*
X072081Y056008D01*
X073081Y056008D02*
X073081Y056642D01*
X074081Y056642D02*
X074081Y056008D01*
X075081Y056008D02*
X075081Y056642D01*
X076081Y056642D02*
X076081Y056008D01*
X077081Y056008D02*
X077081Y056642D01*
X078081Y056642D02*
X078081Y056008D01*
X078081Y060008D02*
X078081Y060642D01*
X077081Y060642D02*
X077081Y060008D01*
X076081Y060008D02*
X076081Y060642D01*
X075081Y060642D02*
X075081Y060008D01*
X074081Y060008D02*
X074081Y060642D01*
X073081Y060642D02*
X073081Y060008D01*
X072081Y060008D02*
X072081Y060642D01*
X071081Y060642D02*
X071081Y060008D01*
X070081Y060008D02*
X070081Y060642D01*
X069081Y060642D02*
X069081Y060008D01*
X068081Y060008D02*
X068081Y060642D01*
X067081Y060642D02*
X067081Y060008D01*
X069706Y027517D02*
X069706Y026883D01*
X070706Y026883D02*
X070706Y027517D01*
X071706Y027517D02*
X071706Y026883D01*
X072706Y026883D02*
X072706Y027517D01*
X073706Y027517D02*
X073706Y026883D01*
X074706Y026883D02*
X074706Y027517D01*
X075706Y027517D02*
X075706Y026883D01*
X076081Y008267D02*
X076081Y007633D01*
X077081Y007633D02*
X077081Y008267D01*
X078081Y008267D02*
X078081Y007633D01*
X079081Y007633D02*
X079081Y008267D01*
X080081Y008267D02*
X080081Y007633D01*
X080081Y005267D02*
X080081Y004633D01*
X079081Y004633D02*
X079081Y005267D01*
X078081Y005267D02*
X078081Y004633D01*
X077081Y004633D02*
X077081Y005267D01*
X076081Y005267D02*
X076081Y004633D01*
X075081Y004633D02*
X075081Y005267D01*
X074081Y005267D02*
X074081Y004633D01*
X074081Y007633D02*
X074081Y008267D01*
X075081Y008267D02*
X075081Y007633D01*
X118331Y059383D02*
X118331Y060017D01*
X119331Y060017D02*
X119331Y059383D01*
X120331Y059383D02*
X120331Y060017D01*
D12*
X077456Y009852D02*
X077456Y009298D01*
X075456Y009298D02*
X075456Y009852D01*
X076331Y003977D02*
X076331Y003423D01*
X074331Y003423D02*
X074331Y003977D01*
D13*
X074207Y006075D03*
X074955Y006075D03*
X075207Y006950D03*
X075955Y006950D03*
X076207Y006075D03*
X076955Y006075D03*
X077207Y006950D03*
X077955Y006950D03*
X082832Y022450D03*
X083580Y022450D03*
X091332Y024700D03*
X092080Y024700D03*
X092582Y022575D03*
X093330Y022575D03*
X094457Y023700D03*
X095205Y023700D03*
X095205Y024700D03*
X094457Y024700D03*
X092205Y026700D03*
X091457Y026700D03*
X091457Y027700D03*
X092205Y027700D03*
X092205Y028700D03*
X091457Y028700D03*
X093207Y028450D03*
X093955Y028450D03*
X093832Y029450D03*
X094580Y029450D03*
X092205Y029700D03*
X091457Y029700D03*
X091457Y030700D03*
X092205Y030700D03*
X092205Y031700D03*
X091457Y031700D03*
X091457Y038700D03*
X092205Y038700D03*
X075580Y043450D03*
X074832Y043450D03*
X075205Y035950D03*
X074457Y035950D03*
X053205Y032825D03*
X052457Y032825D03*
X072537Y057450D03*
X073206Y057450D03*
X073875Y057450D03*
X079332Y060325D03*
X080080Y060325D03*
X085082Y063325D03*
X085830Y063325D03*
X085955Y062575D03*
X085207Y062575D03*
X089957Y057950D03*
X090705Y057950D03*
X107707Y055575D03*
X108455Y055575D03*
G36*
X051581Y060241D02*
X051943Y060603D01*
X052359Y060187D01*
X051997Y059825D01*
X051581Y060241D01*
G37*
G36*
X051053Y059713D02*
X051415Y060075D01*
X051831Y059659D01*
X051469Y059297D01*
X051053Y059713D01*
G37*
X047955Y059325D03*
X047207Y059325D03*
D14*
X053521Y063575D03*
X054641Y063575D03*
X091396Y023575D03*
X092516Y023575D03*
D15*
X092080Y025700D03*
X091332Y025700D03*
X076580Y047075D03*
X075832Y047075D03*
X073330Y058825D03*
X072582Y058825D03*
X072580Y061450D03*
X071832Y061450D03*
D16*
X078081Y061950D03*
X077831Y071950D03*
X080831Y071950D03*
X052706Y063575D03*
X048706Y063575D03*
X069831Y035200D03*
X073831Y035200D03*
X098331Y030825D03*
X098331Y027700D03*
X108331Y054200D03*
D17*
X095081Y026760D03*
X095081Y025640D03*
X093331Y025635D03*
X093331Y024515D03*
X092581Y021510D03*
X092581Y020390D03*
D18*
X091456Y020951D03*
X091456Y021699D03*
X094456Y022076D03*
X094456Y022824D03*
X094206Y025951D03*
X094206Y026699D03*
X095081Y027701D03*
X095081Y028449D03*
X086081Y052826D03*
X086081Y053574D03*
X090331Y056076D03*
X090331Y056824D03*
X092081Y056701D03*
X092081Y057449D03*
X093331Y055574D03*
X093331Y054826D03*
X095331Y056201D03*
X095331Y056949D03*
X108706Y060576D03*
X108706Y061324D03*
X115206Y056574D03*
X115206Y055826D03*
X078081Y058576D03*
X078081Y059324D03*
X076081Y061451D03*
X076081Y062199D03*
X074206Y065451D03*
X074206Y066199D03*
X065456Y065449D03*
X065456Y064701D03*
X064706Y063074D03*
X064706Y062326D03*
X065081Y062324D03*
X065081Y061576D03*
X075081Y058199D03*
X075081Y057451D03*
X053206Y059576D03*
X053206Y060324D03*
X051831Y063326D03*
X051831Y064074D03*
X050956Y064074D03*
X050956Y063326D03*
X049331Y062824D03*
X049331Y062076D03*
X051331Y057324D03*
X051331Y056576D03*
D19*
X077081Y061950D03*
X077831Y070950D03*
X080831Y070950D03*
X107331Y054200D03*
X098331Y029825D03*
X098331Y026700D03*
D20*
X078706Y051700D03*
D21*
X078706Y050700D03*
X077706Y050700D03*
X077706Y051700D03*
X076706Y051700D03*
X076706Y050700D03*
X059831Y063950D03*
X059831Y064950D03*
X058831Y064950D03*
X058831Y063950D03*
X057831Y063950D03*
X057831Y064950D03*
X056831Y064950D03*
X056831Y063950D03*
X055831Y063950D03*
X055831Y064950D03*
D22*
X084242Y064604D03*
X085069Y064604D03*
X086093Y064604D03*
X086920Y064604D03*
X086920Y063619D03*
X084242Y063619D03*
D23*
X085581Y066100D03*
D24*
X045331Y062200D03*
X045331Y061200D03*
X045331Y060200D03*
X043331Y060200D03*
X043331Y061200D03*
X043331Y062200D03*
X043331Y058575D03*
X043331Y057575D03*
X045331Y057575D03*
X045331Y058575D03*
X045331Y056575D03*
X043331Y056575D03*
D25*
X073456Y061451D03*
X073456Y062199D03*
X074331Y062199D03*
X074331Y061451D03*
D26*
X074831Y073033D02*
X074831Y073867D01*
X075581Y075033D02*
X075581Y075867D01*
X077081Y075867D02*
X077081Y075033D01*
X077831Y073867D02*
X077831Y073033D01*
X079331Y073033D02*
X079331Y073867D01*
X080081Y075033D02*
X080081Y075867D01*
X078581Y075867D02*
X078581Y075033D01*
X080831Y073867D02*
X080831Y073033D01*
X082331Y073033D02*
X082331Y073867D01*
X081581Y075033D02*
X081581Y075867D01*
X076331Y073867D02*
X076331Y073033D01*
X073331Y073033D02*
X073331Y073867D01*
X074081Y075033D02*
X074081Y075867D01*
X072581Y075867D02*
X072581Y075033D01*
X071831Y073867D02*
X071831Y073033D01*
X070331Y073033D02*
X070331Y073867D01*
X071081Y075033D02*
X071081Y075867D01*
X069581Y075867D02*
X069581Y075033D01*
X068831Y073867D02*
X068831Y073033D01*
X067331Y073033D02*
X067331Y073867D01*
X068081Y075033D02*
X068081Y075867D01*
D27*
X070456Y063057D02*
X070456Y062343D01*
X071456Y062343D02*
X071456Y063057D01*
X072456Y063057D02*
X072456Y062343D01*
X069081Y062307D02*
X069081Y061593D01*
X068081Y061593D02*
X068081Y062307D01*
X067081Y062307D02*
X067081Y061593D01*
D28*
X065081Y060700D02*
X065706Y055075D01*
X070081Y052075D01*
X073956Y051575D01*
X073206Y051200D02*
X073206Y047450D01*
X072706Y046950D01*
X072706Y042325D01*
X074206Y041200D02*
X074206Y038200D01*
X073706Y037700D01*
X073706Y037075D01*
X073706Y036450D01*
X073331Y036075D01*
X072331Y036075D01*
X072206Y036200D01*
X072206Y037825D01*
X071831Y038200D01*
X070581Y038200D01*
X070206Y037825D01*
X070206Y036075D01*
X070456Y035825D01*
X070456Y031950D01*
X070206Y031700D01*
X070206Y029200D01*
X070706Y028700D01*
X070706Y027200D01*
X071706Y027200D02*
X071706Y028825D01*
X071206Y029325D01*
X071206Y035825D01*
X070706Y036325D01*
X070706Y037075D01*
X071706Y037075D02*
X071706Y035825D01*
X072206Y035325D01*
X072206Y029450D01*
X072706Y028825D01*
X072706Y027200D01*
X073206Y026450D02*
X073206Y029200D01*
X074206Y030450D01*
X074206Y032200D01*
X076706Y036200D01*
X076706Y037075D01*
X076706Y038325D01*
X078081Y039700D01*
X078831Y039825D01*
X079581Y040950D01*
X079706Y042325D01*
X078706Y041950D02*
X078706Y041325D01*
X078581Y040575D01*
X077831Y040075D01*
X075706Y037950D01*
X075706Y037075D01*
X074706Y037075D02*
X074706Y042325D01*
X075706Y042325D02*
X075706Y038450D01*
X075206Y037950D01*
X075206Y035951D01*
X075205Y035950D01*
X072706Y037075D02*
X072706Y037325D01*
X073206Y037825D01*
X073206Y044075D01*
X076581Y044075D01*
X077706Y042325D01*
X081706Y042325D02*
X081706Y040700D01*
X079956Y038700D01*
X079456Y038325D01*
X078706Y037075D02*
X076206Y032575D01*
X076206Y030450D01*
X075206Y027825D01*
X075206Y026200D01*
X075706Y025950D02*
X074206Y024450D01*
X074206Y020200D01*
X075206Y020450D02*
X075206Y022575D01*
X076706Y024200D01*
X076706Y027200D01*
X077206Y027700D02*
X078206Y030450D01*
X078206Y032575D01*
X079206Y033700D01*
X079206Y032575D02*
X079206Y030450D01*
X078206Y027575D01*
X078206Y023700D01*
X076706Y022075D01*
X076706Y021200D01*
X077206Y021825D02*
X077206Y020450D01*
X078706Y021200D02*
X078706Y022325D01*
X080206Y023825D01*
X080206Y027700D01*
X081206Y030575D01*
X081206Y032200D01*
X081706Y031075D02*
X081706Y030450D01*
X080706Y027575D01*
X080706Y027200D01*
X081706Y027200D02*
X081706Y029200D01*
X082206Y030325D01*
X082206Y037950D01*
X083331Y037950D01*
X083706Y037075D01*
X082706Y037075D02*
X082706Y036200D01*
X084206Y035700D01*
X084206Y030200D01*
X083206Y027950D01*
X083206Y026450D01*
X082706Y027200D02*
X082706Y028075D01*
X083206Y029450D01*
X083206Y033325D01*
X082706Y031075D02*
X082706Y030325D01*
X082206Y027825D01*
X082206Y026575D01*
X079706Y027200D02*
X079706Y027700D01*
X080706Y030700D01*
X080706Y031075D01*
X079706Y031075D02*
X079706Y030325D01*
X078706Y027450D01*
X078706Y027200D01*
X078706Y023450D01*
X077206Y021825D01*
X075706Y021200D02*
X075706Y022450D01*
X077206Y024075D01*
X077206Y027700D01*
X077706Y027700D02*
X077706Y027200D01*
X077706Y027700D02*
X078706Y030575D01*
X077206Y030450D02*
X077206Y032950D01*
X075206Y031950D02*
X077706Y037075D01*
X077706Y038325D01*
X072706Y037325D02*
X072456Y038700D01*
X070206Y038700D01*
X069206Y037700D01*
X069206Y030325D01*
X068706Y031075D02*
X068706Y032450D01*
X068206Y032950D01*
X068206Y043200D01*
X067956Y043450D01*
X067956Y046950D01*
X068206Y047200D01*
X068206Y049075D01*
X067456Y049575D01*
X064831Y049575D01*
X064456Y050450D01*
X063831Y059450D01*
X061956Y059575D01*
X061331Y059325D02*
X060696Y059814D01*
X060331Y059325D02*
X060831Y058825D01*
X061581Y058825D01*
X063456Y058700D01*
X064206Y050450D01*
X064581Y049325D01*
X067331Y049325D01*
X067706Y048950D01*
X067706Y048325D01*
X067706Y047325D01*
X067206Y046825D01*
X067206Y032325D01*
X066706Y031825D01*
X066706Y031075D01*
X065706Y031075D02*
X065706Y033700D01*
X065706Y035825D01*
X062706Y039325D01*
X062706Y056325D01*
X062081Y056825D01*
X060831Y056825D01*
X060331Y057325D01*
X060831Y057825D02*
X060331Y058325D01*
X060831Y057825D02*
X061706Y057825D01*
X062956Y056575D01*
X063956Y049450D01*
X063956Y048325D01*
X065706Y048325D01*
X066206Y047075D02*
X066206Y041575D01*
X066706Y041075D01*
X066706Y037075D01*
X066206Y037825D02*
X066206Y036200D01*
X066581Y035825D01*
X066581Y032950D01*
X063331Y030450D02*
X063331Y036075D01*
X061081Y039575D01*
X060581Y039450D02*
X062956Y035950D01*
X062956Y030700D01*
X062456Y031200D02*
X062456Y035700D01*
X060206Y039200D01*
X058331Y038950D02*
X060710Y034821D01*
X060210Y034946D02*
X057831Y038575D01*
X057831Y041075D01*
X057831Y045325D01*
X058331Y045825D01*
X058331Y048950D01*
X057831Y049450D01*
X057831Y050825D01*
X057331Y051325D01*
X056831Y050825D02*
X056831Y049200D01*
X057331Y048700D01*
X057331Y045825D01*
X056831Y045325D01*
X056831Y041075D01*
X056831Y037575D01*
X056331Y037325D02*
X058585Y035071D01*
X057585Y035196D02*
X055831Y037075D01*
X055831Y041075D01*
X055831Y045575D01*
X056331Y046075D01*
X056331Y048450D01*
X055331Y049450D01*
X055331Y050325D01*
X055831Y050825D02*
X055831Y049575D01*
X056831Y048575D01*
X056831Y047075D01*
X056831Y045950D01*
X056331Y045450D01*
X056331Y037325D01*
X055331Y036825D02*
X056585Y035446D01*
X055585Y035821D02*
X054331Y037325D01*
X054331Y045325D01*
X054831Y045825D01*
X054831Y047075D01*
X054831Y048700D01*
X053831Y049700D01*
X053831Y050575D01*
X053331Y051325D01*
X053831Y051075D02*
X053831Y062825D01*
X054081Y063075D01*
X052706Y063575D02*
X052331Y062325D01*
X051831Y061825D02*
X051831Y063326D01*
X051831Y064074D02*
X050956Y064074D01*
X050830Y064200D01*
X044831Y064200D01*
X043331Y062700D01*
X043331Y062200D01*
X045331Y062200D02*
X045955Y062824D01*
X049331Y062824D01*
X049331Y062950D01*
X048706Y063575D01*
X049331Y062076D02*
X049331Y061325D01*
X050331Y061325D02*
X050456Y061200D01*
X050831Y061075D01*
X051442Y060464D01*
X051970Y060214D01*
X051442Y059686D02*
X051081Y060075D01*
X051081Y060325D01*
X050581Y060825D01*
X047581Y060825D01*
X046081Y059325D01*
X044081Y059325D01*
X043331Y058575D01*
X045331Y058575D02*
X046457Y058575D01*
X047207Y059325D01*
X047955Y059325D02*
X048331Y059575D01*
X048581Y059825D01*
X049831Y059825D01*
X050331Y060325D01*
X051442Y059686D02*
X053206Y059576D01*
X053206Y060324D02*
X053331Y061325D01*
X052331Y061325D02*
X051831Y061825D01*
X051331Y062325D02*
X050956Y062700D01*
X050956Y063326D01*
X055331Y061325D02*
X055831Y061825D01*
X055831Y062950D01*
X056331Y063075D01*
X057331Y063075D01*
X057956Y063700D01*
X059331Y063325D02*
X059331Y062325D01*
X059831Y061825D02*
X059831Y062825D01*
X059956Y062950D01*
X062831Y062950D01*
X065081Y060700D01*
X061331Y061325D02*
X060831Y060825D01*
X059831Y060825D01*
X059456Y060450D01*
X057956Y060450D01*
X057314Y059806D02*
X057308Y054348D01*
X058833Y054337D01*
X058833Y051952D01*
X058831Y051950D01*
X058831Y050825D01*
X059331Y050325D01*
X059831Y049950D02*
X059831Y050825D01*
X059331Y051325D01*
X059831Y051825D02*
X059456Y052200D01*
X059831Y051825D02*
X061831Y051825D01*
X061206Y050450D02*
X060331Y051325D01*
X058331Y051325D02*
X056831Y052825D01*
X058833Y054337D02*
X060331Y054325D01*
X060331Y053325D02*
X060831Y052825D01*
X063206Y052575D02*
X063081Y056950D01*
X060331Y060325D02*
X059081Y059700D01*
X059331Y061325D02*
X059831Y061825D01*
X059331Y063325D02*
X059706Y063700D01*
X059706Y064575D01*
X050331Y058325D02*
X049831Y058825D01*
X048831Y058825D01*
X048081Y058075D01*
X048081Y057075D01*
X045331Y054325D01*
X045331Y045825D01*
X045831Y045450D01*
X045831Y041075D01*
X046331Y040200D01*
X046331Y038325D01*
X047331Y037325D01*
X047331Y035450D01*
X048331Y034825D01*
X048331Y031075D01*
X045331Y029700D01*
X045331Y027200D01*
X045836Y025747D01*
X046836Y025747D02*
X046331Y027325D01*
X046331Y029075D01*
X048331Y030950D01*
X049456Y030075D02*
X049331Y027450D01*
X049581Y026700D01*
X049081Y026825D02*
X048831Y028075D01*
X049831Y028075D02*
X049831Y029950D01*
X051331Y032950D01*
X051331Y034825D01*
X050835Y036446D01*
X051331Y036075D02*
X051331Y037325D01*
X050331Y038325D01*
X050331Y039950D01*
X049831Y040575D01*
X049831Y041075D01*
X049831Y045700D01*
X050331Y046200D01*
X050331Y047950D01*
X048706Y049575D01*
X048706Y050200D01*
X048331Y050575D01*
X048331Y052325D01*
X048831Y052825D01*
X049831Y052825D01*
X050331Y053325D01*
X049831Y053825D02*
X048581Y053825D01*
X047581Y052825D01*
X047581Y050075D01*
X047956Y049700D01*
X047956Y049075D01*
X049331Y047700D01*
X049331Y046575D01*
X048831Y045950D01*
X048831Y041075D01*
X049331Y039825D01*
X049331Y038200D01*
X050331Y037200D01*
X050331Y036075D01*
X050206Y035700D02*
X049835Y036446D01*
X049331Y035825D02*
X049331Y037200D01*
X048331Y038200D01*
X048331Y039825D01*
X047831Y041075D01*
X047831Y045575D01*
X048331Y046700D01*
X048331Y047700D01*
X047831Y048286D01*
X046831Y049286D01*
X046831Y053325D01*
X048831Y055325D01*
X049331Y055325D01*
X049581Y054825D02*
X048956Y054825D01*
X047206Y053075D01*
X047206Y049700D01*
X047456Y049450D01*
X047456Y049075D01*
X048331Y048200D01*
X048831Y047575D01*
X048831Y047075D01*
X048331Y045450D01*
X048331Y040700D01*
X048835Y039446D01*
X049835Y039446D02*
X049331Y040700D01*
X049331Y045950D01*
X049831Y046450D01*
X049831Y047075D01*
X049831Y047825D01*
X048331Y049325D01*
X048331Y049950D01*
X047956Y050325D01*
X047956Y052575D01*
X048706Y053325D01*
X049331Y053325D01*
X049831Y053825D02*
X050331Y054325D01*
X050081Y054825D02*
X052081Y054825D01*
X052081Y052075D01*
X052331Y052075D01*
X052331Y051325D01*
X051831Y050825D02*
X051831Y049825D01*
X053331Y048325D01*
X053331Y045950D01*
X052831Y045450D01*
X052831Y041075D01*
X052831Y040067D01*
X052835Y039446D01*
X053835Y039446D02*
X053831Y041075D01*
X053831Y045700D01*
X054331Y046200D01*
X054331Y048575D01*
X053331Y049575D01*
X053331Y050325D01*
X053831Y051075D02*
X054331Y050325D01*
X054831Y050825D02*
X054831Y049325D01*
X055831Y048325D01*
X055831Y047075D01*
X055831Y046200D01*
X055331Y045700D01*
X055331Y036825D01*
X053331Y037325D02*
X053331Y036075D01*
X052331Y036075D02*
X052331Y037325D01*
X051331Y038325D01*
X051331Y040200D01*
X050831Y040575D01*
X050831Y041075D01*
X050831Y045325D01*
X051331Y045825D01*
X051331Y048200D01*
X049581Y049950D01*
X049581Y050575D01*
X049831Y050825D01*
X049831Y051825D01*
X050331Y052325D01*
X050331Y051325D02*
X050831Y050825D01*
X050831Y049700D01*
X052331Y048200D01*
X052331Y046450D01*
X051831Y045950D01*
X051831Y041075D01*
X051831Y040700D01*
X051835Y040079D01*
X051835Y039446D01*
X050835Y039446D02*
X050831Y039950D01*
X050331Y040575D01*
X050206Y045325D01*
X050706Y045825D01*
X050831Y047075D01*
X050831Y048075D01*
X049081Y049825D01*
X049081Y050575D01*
X048706Y050950D01*
X048706Y051700D01*
X049331Y052325D01*
X049331Y054325D02*
X050081Y054825D01*
X049581Y054825D02*
X050331Y055325D01*
X049831Y055825D02*
X048706Y055825D01*
X046456Y053575D01*
X046456Y049075D01*
X047331Y048200D01*
X047831Y047075D01*
X047331Y045575D01*
X047331Y040200D01*
X047835Y039446D01*
X047835Y037571D01*
X048331Y037075D01*
X048331Y035825D01*
X047835Y035446D02*
X047835Y036446D01*
X048835Y036446D02*
X049331Y035200D01*
X049831Y034075D01*
X050206Y034825D02*
X050206Y033075D01*
X049456Y030075D01*
X050956Y030450D02*
X052331Y033450D01*
X052331Y034950D01*
X051835Y036446D01*
X053331Y037325D02*
X052331Y038325D01*
X052331Y045700D01*
X052831Y046200D01*
X052831Y047075D01*
X052831Y048200D01*
X051331Y049700D01*
X051331Y050325D01*
X051831Y050825D02*
X051331Y051325D01*
X052331Y050325D02*
X052331Y049950D01*
X053831Y048450D01*
X053831Y047075D01*
X051831Y047075D02*
X051831Y048200D01*
X050331Y049700D01*
X050331Y050325D01*
X046831Y048075D02*
X046081Y048825D01*
X046081Y053825D01*
X049331Y057075D01*
X049331Y057325D01*
X049831Y056825D02*
X050706Y056825D01*
X050955Y056576D01*
X051331Y056576D01*
X051331Y057324D02*
X052080Y057324D01*
X052081Y057325D01*
X050331Y057325D01*
X050331Y056325D02*
X049831Y055825D01*
X048581Y056950D02*
X045706Y054075D01*
X045706Y048575D01*
X046331Y047950D01*
X046331Y045825D01*
X046831Y045575D01*
X046831Y041075D01*
X046835Y039446D01*
X045835Y039446D02*
X045835Y037954D01*
X046331Y037575D01*
X046331Y035075D01*
X045331Y034575D01*
X045331Y029950D01*
X044331Y028950D01*
X044331Y026825D01*
X044836Y025747D01*
X046331Y026700D02*
X046331Y023825D01*
X045836Y022747D01*
X046836Y022747D02*
X047331Y024575D01*
X047331Y026575D01*
X046831Y027200D01*
X046831Y028075D01*
X047831Y028075D02*
X047706Y027325D01*
X047831Y026950D01*
X048331Y026700D01*
X048331Y024825D01*
X047836Y022747D01*
X048836Y022747D02*
X049081Y025075D01*
X049081Y026825D01*
X050831Y028075D02*
X050956Y030450D01*
X050831Y034075D02*
X050206Y035700D01*
X048706Y034825D02*
X048706Y034200D01*
X048831Y034075D01*
X048706Y034825D02*
X047835Y035446D01*
X047706Y034825D02*
X047831Y034075D01*
X047706Y034825D02*
X047206Y034950D01*
X046835Y035321D01*
X046835Y036446D01*
X045835Y036446D02*
X045331Y035075D01*
X044831Y034075D01*
X045831Y028075D02*
X045831Y027325D01*
X046331Y026700D01*
X057331Y038075D02*
X057331Y045325D01*
X057831Y045825D01*
X057831Y047075D01*
X057831Y048825D01*
X057331Y049325D01*
X057331Y050325D01*
X056831Y050825D02*
X056331Y051325D01*
X055831Y050825D02*
X055331Y051325D01*
X054831Y050825D02*
X054331Y051325D01*
X058331Y050325D02*
X058331Y049575D01*
X058831Y049075D01*
X058831Y047075D01*
X058831Y045700D01*
X058331Y045200D01*
X058331Y038950D01*
X054831Y041075D02*
X054831Y044200D01*
X063456Y047450D02*
X063456Y040575D01*
X066206Y037825D01*
X068706Y037075D02*
X068706Y041075D01*
X069206Y041575D01*
X069206Y045325D01*
X068706Y045825D01*
X068706Y046575D01*
X075706Y047290D02*
X075832Y047075D01*
X075706Y047290D02*
X075706Y048325D01*
X076706Y048325D02*
X076706Y047290D01*
X076580Y047075D01*
X077206Y047700D02*
X077206Y049700D01*
X077706Y050200D01*
X077706Y050700D01*
X078206Y051200D02*
X077706Y051700D01*
X078206Y051200D02*
X078206Y050075D01*
X077706Y049575D01*
X077706Y048325D01*
X077206Y047700D02*
X077456Y047450D01*
X079331Y047450D01*
X079706Y047825D01*
X079706Y048325D01*
X078706Y048325D02*
X078706Y049325D01*
X079456Y050075D01*
X079456Y051450D01*
X079206Y051700D01*
X078706Y051700D01*
X076706Y051700D02*
X075831Y050825D01*
X075831Y049950D01*
X076706Y049075D01*
X076706Y048325D01*
X067456Y052950D02*
X065956Y052950D01*
X064956Y053325D01*
X063581Y052325D02*
X063206Y052575D01*
X052081Y054825D02*
X052081Y057325D01*
X049331Y058325D02*
X049081Y058325D01*
X048581Y057825D01*
X048581Y056950D01*
X045331Y056575D02*
X043331Y056575D01*
X043331Y060200D02*
X045331Y060200D01*
X076081Y056325D02*
X077831Y058075D01*
X079456Y063325D01*
X089331Y046325D02*
X089331Y032700D01*
X094580Y029450D02*
X095080Y029200D01*
X096956Y029200D01*
X096956Y026200D02*
X094705Y026200D01*
X094206Y025951D01*
X093831Y025075D01*
X092706Y025075D01*
X092706Y023700D01*
X092516Y023575D01*
X095081Y025640D02*
X095707Y025200D01*
X096831Y025200D01*
X077206Y030450D02*
X076206Y027825D01*
X076206Y025825D01*
X074706Y024325D01*
X074706Y021200D01*
X073206Y020575D02*
X073206Y022075D01*
X072206Y021950D02*
X072206Y020450D01*
X071956Y020200D01*
X071581Y020200D01*
X071206Y020450D01*
X071206Y021950D01*
X070831Y022325D01*
X070081Y022325D01*
X069706Y021950D01*
X070706Y021450D02*
X070706Y021200D01*
X071706Y021200D02*
X071706Y024950D01*
X073206Y026450D01*
X073706Y027200D02*
X073706Y028950D01*
X074706Y030200D01*
X074706Y031075D01*
X075206Y030450D02*
X075206Y031950D01*
X075706Y031075D02*
X075706Y030450D01*
X074706Y027825D01*
X074706Y027200D01*
X074206Y027950D02*
X074206Y026200D01*
X075706Y025950D02*
X075706Y027200D01*
X075706Y027575D01*
X076706Y030325D01*
X076706Y031075D01*
X075206Y030450D02*
X074206Y027950D01*
D29*
X061831Y032135D02*
X061831Y035325D01*
X060768Y036513D01*
X058831Y039700D01*
X058831Y041075D01*
X058831Y044700D01*
X059581Y045450D01*
X059581Y048325D01*
X059331Y048575D01*
X059331Y050325D01*
X072081Y060325D02*
X071832Y061450D01*
X072580Y061450D02*
X073456Y061451D01*
X073456Y062199D02*
X074331Y062199D01*
X074331Y061451D02*
X074081Y060325D01*
X076331Y073450D02*
X077081Y075450D01*
X080081Y075450D02*
X079331Y073450D01*
X070331Y073450D02*
X069581Y075450D01*
X053835Y036446D02*
X053831Y036067D01*
X053831Y035700D01*
X052831Y035325D01*
X075456Y009575D02*
X075081Y007950D01*
X075207Y006950D01*
X075955Y006950D02*
X076081Y007950D01*
X077081Y007950D01*
X077207Y006950D01*
X077955Y006950D02*
X078081Y007950D01*
X079081Y007950D01*
X078081Y007950D02*
X077456Y009575D01*
X076955Y006075D02*
X077081Y004950D01*
X076331Y003700D01*
X074331Y003700D02*
X074081Y004950D01*
X074207Y006075D01*
X074955Y006075D02*
X075081Y004950D01*
X076081Y004950D01*
X076207Y006075D01*
X077081Y004950D02*
X078081Y004950D01*
X094457Y023700D02*
X094457Y024700D01*
D30*
X095081Y025640D01*
X095081Y026760D02*
X094206Y026699D01*
X095081Y026760D02*
X095081Y027701D01*
X095081Y028449D02*
X093955Y028450D01*
X093207Y028450D02*
X093207Y029450D01*
X093832Y029450D01*
X093207Y028450D02*
X093207Y025759D01*
X093331Y025635D01*
X092080Y025700D02*
X092205Y026700D01*
X092205Y027700D01*
X092205Y028700D01*
X092205Y029700D01*
X092205Y030700D01*
X092205Y031700D01*
X092205Y033700D01*
X090331Y033700D01*
X092205Y033700D02*
X092205Y036700D01*
X092205Y038700D01*
X091457Y038700D02*
X090331Y038700D01*
X090331Y036700D02*
X092205Y036700D01*
X091457Y031700D02*
X090331Y031700D01*
X090331Y030700D02*
X091457Y030700D01*
X091457Y029700D02*
X090331Y029700D01*
X090331Y028700D02*
X091457Y028700D01*
X091457Y027700D02*
X090331Y027700D01*
X090331Y026700D02*
X091457Y026700D01*
X091332Y025700D02*
X090331Y025700D01*
X092080Y025700D02*
X092080Y024700D01*
X091332Y024700D02*
X090331Y024700D01*
X090331Y023700D02*
X091396Y023575D01*
X092516Y023575D02*
X092582Y023634D01*
X092582Y022575D01*
X092582Y021511D01*
X092581Y021510D01*
X093331Y021200D02*
X094247Y022116D01*
X094247Y022168D01*
X094456Y022076D01*
X096331Y021700D01*
X097081Y020825D02*
X094831Y020825D01*
X094396Y020390D01*
X092581Y020390D01*
X091456Y021699D02*
X090332Y021699D01*
X090331Y021700D02*
X085956Y021700D01*
X084706Y021200D01*
X083706Y021200D01*
X083580Y022450D01*
X082832Y022450D02*
X082706Y021200D01*
X092581Y022574D02*
X092582Y022575D01*
X093330Y022575D02*
X093330Y024514D01*
X093331Y024515D01*
X094457Y023700D02*
X094457Y023323D01*
X094456Y022824D01*
X094247Y022168D02*
X093330Y022575D01*
X095205Y023700D02*
X096331Y023700D01*
X097331Y023700D01*
X097581Y023450D01*
X097581Y021325D01*
X097081Y020825D01*
X096331Y024700D02*
X095205Y024700D01*
X062581Y030950D02*
X062581Y031510D01*
X060768Y036513D02*
X060581Y036950D01*
X044835Y036446D02*
X044831Y036075D01*
X044835Y036446D02*
X044835Y039446D01*
D31*
X060581Y036950D03*
X065706Y033700D03*
X066581Y032950D03*
X077706Y038325D03*
X079456Y038325D03*
X079206Y033700D03*
X079206Y032575D03*
X081206Y032200D03*
X068706Y046575D03*
X059081Y059700D03*
X057956Y060450D03*
X047206Y057325D03*
D32*
X044956Y054700D01*
X044956Y040450D01*
X045835Y039696D01*
X045835Y039446D01*
X046831Y047075D02*
X046831Y048075D01*
X049331Y056325D02*
X049831Y056825D01*
X060331Y062325D02*
X062706Y062325D01*
X064706Y060450D01*
X065331Y050950D01*
X064956Y050325D02*
X065081Y049950D01*
X067956Y049950D01*
X068706Y049200D01*
X068706Y048325D01*
X064956Y050325D02*
X064206Y059950D01*
X062706Y060325D01*
X061331Y060325D01*
X067081Y061575D02*
X067081Y061950D01*
X067081Y061575D02*
X068081Y060325D01*
X070456Y061950D02*
X070456Y062700D01*
X070456Y061950D02*
X071081Y061325D01*
X071081Y060325D01*
X072456Y062700D02*
X072706Y062950D01*
X074706Y062950D01*
X075081Y062575D01*
X075081Y060325D01*
X062831Y054950D02*
X063081Y048700D01*
X063081Y039825D01*
X065706Y037075D01*
X063831Y036075D02*
X061956Y039325D01*
X061956Y042075D01*
X062206Y042325D01*
X062206Y051450D01*
X061831Y051825D01*
X061331Y051325D02*
X061706Y050950D01*
X061706Y043325D01*
X060956Y042575D01*
X060956Y039700D01*
X061081Y039575D01*
X060581Y039450D02*
X060206Y039825D01*
X060206Y044450D01*
X060706Y044950D01*
X060706Y048700D01*
X060331Y049075D01*
X060331Y050325D01*
X059831Y049950D02*
X059831Y048825D01*
X060206Y048450D01*
X060206Y045200D01*
X059706Y044700D01*
X059706Y039700D01*
X060206Y039200D01*
X060956Y043825D02*
X061206Y044075D01*
X061206Y050450D01*
X074832Y043450D02*
X074706Y042325D01*
X075706Y042325D02*
X075580Y043450D01*
X077706Y042325D02*
X077706Y046200D01*
X088831Y046200D01*
X088831Y032700D01*
X089831Y031700D01*
X090331Y031700D01*
X090331Y030700D02*
X089831Y030700D01*
X088331Y032200D01*
X088331Y045700D01*
X078706Y045700D01*
X078706Y042325D01*
X078706Y041950D01*
X079706Y042325D02*
X079706Y045200D01*
X087831Y045200D01*
X087831Y031825D01*
X089956Y029700D01*
X090331Y029700D01*
X090331Y028700D02*
X089956Y028700D01*
X087331Y031325D01*
X087331Y044700D01*
X080706Y044700D01*
X080706Y042325D01*
X080331Y039950D01*
X078706Y039325D01*
X078706Y037075D01*
X075206Y035949D02*
X075206Y034950D01*
X073706Y032575D01*
X073706Y031075D01*
X077706Y031075D02*
X077706Y030700D01*
X076706Y027950D01*
X076706Y027200D01*
X075206Y026200D02*
X073206Y024200D01*
X073206Y022075D01*
X073706Y021200D02*
X073706Y020200D01*
X072831Y019325D01*
X071081Y019325D01*
X070331Y019950D01*
X069581Y019950D01*
X068956Y020575D01*
X068956Y027825D01*
X069206Y028075D01*
X069206Y030325D01*
X069706Y031075D02*
X069706Y034450D01*
X069831Y035200D01*
X073831Y035200D02*
X074457Y035326D01*
X074457Y035950D01*
X074457Y036826D01*
X074706Y037075D01*
X075205Y035950D02*
X075206Y035949D01*
X078706Y031075D02*
X078706Y030575D01*
X083706Y027200D02*
X083706Y025825D01*
X082832Y024951D01*
X082832Y022450D01*
X082706Y021200D02*
X082706Y020575D01*
X083206Y020075D01*
X084956Y020075D01*
X086705Y020951D01*
X091456Y020951D01*
X091457Y020950D01*
X093081Y020950D01*
X093331Y021200D01*
X091456Y021699D02*
X091456Y022574D01*
X091956Y023074D01*
X091956Y024451D01*
X092080Y024700D01*
X090331Y024700D02*
X089831Y024700D01*
X085331Y029200D01*
X085331Y042325D01*
X084706Y042325D01*
X083706Y042325D02*
X083706Y043200D01*
X085831Y043200D01*
X085831Y029700D01*
X089831Y025700D01*
X090331Y025700D01*
X090331Y026700D02*
X089831Y026700D01*
X086331Y030200D01*
X086331Y043700D01*
X082706Y043700D01*
X082706Y042325D01*
X081706Y042325D02*
X081706Y044200D01*
X086831Y044200D01*
X086831Y030700D01*
X089831Y027700D01*
X090331Y027700D01*
X093207Y029450D02*
X093207Y046326D01*
X097581Y048075D02*
X097581Y029200D01*
X098331Y027700D01*
X098331Y026700D02*
X097132Y026200D01*
X096956Y026200D01*
X096831Y025200D02*
X097706Y025200D01*
X099081Y026325D01*
X098331Y029825D01*
X097581Y029200D02*
X096956Y029200D01*
X098331Y030825D02*
X098581Y048075D01*
X098706Y048200D01*
X066706Y031075D02*
X066706Y026575D01*
X064456Y029825D02*
X063331Y030450D01*
X062956Y030700D02*
X064081Y030450D01*
X072206Y024200D02*
X072206Y021950D01*
X070706Y021200D02*
X070706Y020325D01*
X071331Y019825D01*
X072581Y019825D01*
X073206Y020450D01*
X073206Y020575D01*
X074206Y020200D02*
X074206Y019950D01*
X073081Y018825D01*
X070206Y018825D01*
X069831Y019200D01*
X069706Y018575D02*
X069956Y018325D01*
X073581Y018325D01*
X075206Y019950D01*
X075206Y020450D01*
X077206Y020450D02*
X074581Y017825D01*
X069831Y017825D01*
X069581Y018075D01*
X069706Y021200D02*
X069706Y021950D01*
X072206Y024200D02*
X074206Y026200D01*
X080831Y025200D02*
X080831Y023325D01*
X079706Y022200D01*
X079706Y021200D01*
X080706Y021200D02*
X080706Y021950D01*
X081331Y022575D01*
X081331Y024575D01*
X083206Y026450D01*
X082206Y026575D02*
X080831Y025200D01*
X090331Y021700D02*
X090332Y021699D01*
D33*
X074206Y041200D03*
D34*
X054831Y044200D03*
D35*
X060956Y043825D03*
D36*
X043831Y019450D03*
X064331Y019450D03*
X097206Y019450D03*
X097206Y050950D03*
X043831Y050950D03*
X043831Y065825D03*
M02*
