G75*
G70*
%OFA0B0*%
%FSLAX24Y24*%
%IPPOS*%
%LPD*%
%AMOC8*
5,1,8,0,0,1.08239X$1,22.5*
%
%ADD10C,0.0100*%
%ADD11C,0.0160*%
%ADD12C,0.0000*%
%ADD13C,0.0001*%
D10*
X014768Y006626D02*
X014768Y051001D01*
X079518Y051001D01*
X079518Y006626D02*
X014768Y006626D01*
D11*
X079518Y006626D02*
X080393Y005751D01*
D12*
X074948Y009576D02*
X074950Y009624D01*
X074956Y009673D01*
X074966Y009720D01*
X074979Y009767D01*
X074997Y009812D01*
X075018Y009856D01*
X075042Y009898D01*
X075070Y009937D01*
X075101Y009975D01*
X075135Y010009D01*
X075172Y010041D01*
X075211Y010070D01*
X075253Y010095D01*
X075296Y010117D01*
X075341Y010136D01*
X075387Y010150D01*
X075434Y010161D01*
X075482Y010168D01*
X075531Y010171D01*
X075579Y010170D01*
X075628Y010165D01*
X075675Y010156D01*
X075722Y010143D01*
X075768Y010127D01*
X075812Y010107D01*
X075854Y010083D01*
X075895Y010056D01*
X075933Y010026D01*
X075968Y009992D01*
X076001Y009956D01*
X076030Y009918D01*
X076056Y009877D01*
X076079Y009834D01*
X076098Y009790D01*
X076114Y009744D01*
X076126Y009697D01*
X076134Y009649D01*
X076138Y009600D01*
X076138Y009552D01*
X076134Y009503D01*
X076126Y009455D01*
X076114Y009408D01*
X076098Y009362D01*
X076079Y009318D01*
X076056Y009275D01*
X076030Y009234D01*
X076001Y009196D01*
X075968Y009160D01*
X075933Y009126D01*
X075895Y009096D01*
X075854Y009069D01*
X075812Y009045D01*
X075768Y009025D01*
X075722Y009009D01*
X075675Y008996D01*
X075628Y008987D01*
X075579Y008982D01*
X075531Y008981D01*
X075482Y008984D01*
X075434Y008991D01*
X075387Y009002D01*
X075341Y009016D01*
X075296Y009035D01*
X075253Y009057D01*
X075211Y009082D01*
X075172Y009111D01*
X075135Y009143D01*
X075101Y009177D01*
X075070Y009215D01*
X075042Y009254D01*
X075018Y009296D01*
X074997Y009340D01*
X074979Y009385D01*
X074966Y009432D01*
X074956Y009479D01*
X074950Y009528D01*
X074948Y009576D01*
X074943Y009576D02*
X074945Y009528D01*
X074951Y009480D01*
X074960Y009432D01*
X074974Y009386D01*
X074991Y009341D01*
X075012Y009297D01*
X075036Y009255D01*
X075063Y009216D01*
X075094Y009178D01*
X075127Y009143D01*
X075164Y009111D01*
X075202Y009082D01*
X075243Y009056D01*
X075286Y009034D01*
X075330Y009015D01*
X075376Y009000D01*
X075423Y008988D01*
X075471Y008980D01*
X075519Y008976D01*
X075567Y008976D01*
X075615Y008980D01*
X075663Y008988D01*
X075710Y009000D01*
X075756Y009015D01*
X075800Y009034D01*
X075843Y009056D01*
X075884Y009082D01*
X075922Y009111D01*
X075959Y009143D01*
X075992Y009178D01*
X076023Y009216D01*
X076050Y009255D01*
X076074Y009297D01*
X076095Y009341D01*
X076112Y009386D01*
X076126Y009432D01*
X076135Y009480D01*
X076141Y009528D01*
X076143Y009576D01*
X074948Y010976D02*
X074950Y011024D01*
X074956Y011073D01*
X074966Y011120D01*
X074979Y011167D01*
X074997Y011212D01*
X075018Y011256D01*
X075042Y011298D01*
X075070Y011337D01*
X075101Y011375D01*
X075135Y011409D01*
X075172Y011441D01*
X075211Y011470D01*
X075253Y011495D01*
X075296Y011517D01*
X075341Y011536D01*
X075387Y011550D01*
X075434Y011561D01*
X075482Y011568D01*
X075531Y011571D01*
X075579Y011570D01*
X075628Y011565D01*
X075675Y011556D01*
X075722Y011543D01*
X075768Y011527D01*
X075812Y011507D01*
X075854Y011483D01*
X075895Y011456D01*
X075933Y011426D01*
X075968Y011392D01*
X076001Y011356D01*
X076030Y011318D01*
X076056Y011277D01*
X076079Y011234D01*
X076098Y011190D01*
X076114Y011144D01*
X076126Y011097D01*
X076134Y011049D01*
X076138Y011000D01*
X076138Y010952D01*
X076134Y010903D01*
X076126Y010855D01*
X076114Y010808D01*
X076098Y010762D01*
X076079Y010718D01*
X076056Y010675D01*
X076030Y010634D01*
X076001Y010596D01*
X075968Y010560D01*
X075933Y010526D01*
X075895Y010496D01*
X075854Y010469D01*
X075812Y010445D01*
X075768Y010425D01*
X075722Y010409D01*
X075675Y010396D01*
X075628Y010387D01*
X075579Y010382D01*
X075531Y010381D01*
X075482Y010384D01*
X075434Y010391D01*
X075387Y010402D01*
X075341Y010416D01*
X075296Y010435D01*
X075253Y010457D01*
X075211Y010482D01*
X075172Y010511D01*
X075135Y010543D01*
X075101Y010577D01*
X075070Y010615D01*
X075042Y010654D01*
X075018Y010696D01*
X074997Y010740D01*
X074979Y010785D01*
X074966Y010832D01*
X074956Y010879D01*
X074950Y010928D01*
X074948Y010976D01*
X074943Y010976D02*
X074945Y011024D01*
X074951Y011072D01*
X074960Y011120D01*
X074974Y011166D01*
X074991Y011211D01*
X075012Y011255D01*
X075036Y011297D01*
X075063Y011336D01*
X075094Y011374D01*
X075127Y011409D01*
X075164Y011441D01*
X075202Y011470D01*
X075243Y011496D01*
X075286Y011518D01*
X075330Y011537D01*
X075376Y011552D01*
X075423Y011564D01*
X075471Y011572D01*
X075519Y011576D01*
X075567Y011576D01*
X075615Y011572D01*
X075663Y011564D01*
X075710Y011552D01*
X075756Y011537D01*
X075800Y011518D01*
X075843Y011496D01*
X075884Y011470D01*
X075922Y011441D01*
X075959Y011409D01*
X075992Y011374D01*
X076023Y011336D01*
X076050Y011297D01*
X076074Y011255D01*
X076095Y011211D01*
X076112Y011166D01*
X076126Y011120D01*
X076135Y011072D01*
X076141Y011024D01*
X076143Y010976D01*
X054148Y010976D02*
X054150Y011024D01*
X054156Y011073D01*
X054166Y011120D01*
X054179Y011167D01*
X054197Y011212D01*
X054218Y011256D01*
X054242Y011298D01*
X054270Y011337D01*
X054301Y011375D01*
X054335Y011409D01*
X054372Y011441D01*
X054411Y011470D01*
X054453Y011495D01*
X054496Y011517D01*
X054541Y011536D01*
X054587Y011550D01*
X054634Y011561D01*
X054682Y011568D01*
X054731Y011571D01*
X054779Y011570D01*
X054828Y011565D01*
X054875Y011556D01*
X054922Y011543D01*
X054968Y011527D01*
X055012Y011507D01*
X055054Y011483D01*
X055095Y011456D01*
X055133Y011426D01*
X055168Y011392D01*
X055201Y011356D01*
X055230Y011318D01*
X055256Y011277D01*
X055279Y011234D01*
X055298Y011190D01*
X055314Y011144D01*
X055326Y011097D01*
X055334Y011049D01*
X055338Y011000D01*
X055338Y010952D01*
X055334Y010903D01*
X055326Y010855D01*
X055314Y010808D01*
X055298Y010762D01*
X055279Y010718D01*
X055256Y010675D01*
X055230Y010634D01*
X055201Y010596D01*
X055168Y010560D01*
X055133Y010526D01*
X055095Y010496D01*
X055054Y010469D01*
X055012Y010445D01*
X054968Y010425D01*
X054922Y010409D01*
X054875Y010396D01*
X054828Y010387D01*
X054779Y010382D01*
X054731Y010381D01*
X054682Y010384D01*
X054634Y010391D01*
X054587Y010402D01*
X054541Y010416D01*
X054496Y010435D01*
X054453Y010457D01*
X054411Y010482D01*
X054372Y010511D01*
X054335Y010543D01*
X054301Y010577D01*
X054270Y010615D01*
X054242Y010654D01*
X054218Y010696D01*
X054197Y010740D01*
X054179Y010785D01*
X054166Y010832D01*
X054156Y010879D01*
X054150Y010928D01*
X054148Y010976D01*
X054143Y010976D02*
X054145Y011024D01*
X054151Y011072D01*
X054160Y011120D01*
X054174Y011166D01*
X054191Y011211D01*
X054212Y011255D01*
X054236Y011297D01*
X054263Y011336D01*
X054294Y011374D01*
X054327Y011409D01*
X054364Y011441D01*
X054402Y011470D01*
X054443Y011496D01*
X054486Y011518D01*
X054530Y011537D01*
X054576Y011552D01*
X054623Y011564D01*
X054671Y011572D01*
X054719Y011576D01*
X054767Y011576D01*
X054815Y011572D01*
X054863Y011564D01*
X054910Y011552D01*
X054956Y011537D01*
X055000Y011518D01*
X055043Y011496D01*
X055084Y011470D01*
X055122Y011441D01*
X055159Y011409D01*
X055192Y011374D01*
X055223Y011336D01*
X055250Y011297D01*
X055274Y011255D01*
X055295Y011211D01*
X055312Y011166D01*
X055326Y011120D01*
X055335Y011072D01*
X055341Y011024D01*
X055343Y010976D01*
X054148Y009576D02*
X054150Y009624D01*
X054156Y009673D01*
X054166Y009720D01*
X054179Y009767D01*
X054197Y009812D01*
X054218Y009856D01*
X054242Y009898D01*
X054270Y009937D01*
X054301Y009975D01*
X054335Y010009D01*
X054372Y010041D01*
X054411Y010070D01*
X054453Y010095D01*
X054496Y010117D01*
X054541Y010136D01*
X054587Y010150D01*
X054634Y010161D01*
X054682Y010168D01*
X054731Y010171D01*
X054779Y010170D01*
X054828Y010165D01*
X054875Y010156D01*
X054922Y010143D01*
X054968Y010127D01*
X055012Y010107D01*
X055054Y010083D01*
X055095Y010056D01*
X055133Y010026D01*
X055168Y009992D01*
X055201Y009956D01*
X055230Y009918D01*
X055256Y009877D01*
X055279Y009834D01*
X055298Y009790D01*
X055314Y009744D01*
X055326Y009697D01*
X055334Y009649D01*
X055338Y009600D01*
X055338Y009552D01*
X055334Y009503D01*
X055326Y009455D01*
X055314Y009408D01*
X055298Y009362D01*
X055279Y009318D01*
X055256Y009275D01*
X055230Y009234D01*
X055201Y009196D01*
X055168Y009160D01*
X055133Y009126D01*
X055095Y009096D01*
X055054Y009069D01*
X055012Y009045D01*
X054968Y009025D01*
X054922Y009009D01*
X054875Y008996D01*
X054828Y008987D01*
X054779Y008982D01*
X054731Y008981D01*
X054682Y008984D01*
X054634Y008991D01*
X054587Y009002D01*
X054541Y009016D01*
X054496Y009035D01*
X054453Y009057D01*
X054411Y009082D01*
X054372Y009111D01*
X054335Y009143D01*
X054301Y009177D01*
X054270Y009215D01*
X054242Y009254D01*
X054218Y009296D01*
X054197Y009340D01*
X054179Y009385D01*
X054166Y009432D01*
X054156Y009479D01*
X054150Y009528D01*
X054148Y009576D01*
X054143Y009576D02*
X054145Y009528D01*
X054151Y009480D01*
X054160Y009432D01*
X054174Y009386D01*
X054191Y009341D01*
X054212Y009297D01*
X054236Y009255D01*
X054263Y009216D01*
X054294Y009178D01*
X054327Y009143D01*
X054364Y009111D01*
X054402Y009082D01*
X054443Y009056D01*
X054486Y009034D01*
X054530Y009015D01*
X054576Y009000D01*
X054623Y008988D01*
X054671Y008980D01*
X054719Y008976D01*
X054767Y008976D01*
X054815Y008980D01*
X054863Y008988D01*
X054910Y009000D01*
X054956Y009015D01*
X055000Y009034D01*
X055043Y009056D01*
X055084Y009082D01*
X055122Y009111D01*
X055159Y009143D01*
X055192Y009178D01*
X055223Y009216D01*
X055250Y009255D01*
X055274Y009297D01*
X055295Y009341D01*
X055312Y009386D01*
X055326Y009432D01*
X055335Y009480D01*
X055341Y009528D01*
X055343Y009576D01*
X053534Y037251D02*
X053536Y037313D01*
X053542Y037376D01*
X053552Y037437D01*
X053566Y037498D01*
X053583Y037558D01*
X053604Y037617D01*
X053630Y037674D01*
X053658Y037729D01*
X053690Y037783D01*
X053726Y037834D01*
X053764Y037884D01*
X053806Y037930D01*
X053850Y037974D01*
X053898Y038015D01*
X053947Y038053D01*
X053999Y038087D01*
X054053Y038118D01*
X054109Y038146D01*
X054167Y038170D01*
X054226Y038191D01*
X054286Y038207D01*
X054347Y038220D01*
X054409Y038229D01*
X054471Y038234D01*
X054534Y038235D01*
X054596Y038232D01*
X054658Y038225D01*
X054720Y038214D01*
X054780Y038199D01*
X054840Y038181D01*
X054898Y038159D01*
X054955Y038133D01*
X055010Y038103D01*
X055063Y038070D01*
X055114Y038034D01*
X055162Y037995D01*
X055208Y037952D01*
X055251Y037907D01*
X055291Y037859D01*
X055328Y037809D01*
X055362Y037756D01*
X055393Y037702D01*
X055419Y037646D01*
X055443Y037588D01*
X055462Y037528D01*
X055478Y037468D01*
X055490Y037406D01*
X055498Y037345D01*
X055502Y037282D01*
X055502Y037220D01*
X055498Y037157D01*
X055490Y037096D01*
X055478Y037034D01*
X055462Y036974D01*
X055443Y036914D01*
X055419Y036856D01*
X055393Y036800D01*
X055362Y036746D01*
X055328Y036693D01*
X055291Y036643D01*
X055251Y036595D01*
X055208Y036550D01*
X055162Y036507D01*
X055114Y036468D01*
X055063Y036432D01*
X055010Y036399D01*
X054955Y036369D01*
X054898Y036343D01*
X054840Y036321D01*
X054780Y036303D01*
X054720Y036288D01*
X054658Y036277D01*
X054596Y036270D01*
X054534Y036267D01*
X054471Y036268D01*
X054409Y036273D01*
X054347Y036282D01*
X054286Y036295D01*
X054226Y036311D01*
X054167Y036332D01*
X054109Y036356D01*
X054053Y036384D01*
X053999Y036415D01*
X053947Y036449D01*
X053898Y036487D01*
X053850Y036528D01*
X053806Y036572D01*
X053764Y036618D01*
X053726Y036668D01*
X053690Y036719D01*
X053658Y036773D01*
X053630Y036828D01*
X053604Y036885D01*
X053583Y036944D01*
X053566Y037004D01*
X053552Y037065D01*
X053542Y037126D01*
X053536Y037189D01*
X053534Y037251D01*
X053534Y040751D02*
X053536Y040813D01*
X053542Y040876D01*
X053552Y040937D01*
X053566Y040998D01*
X053583Y041058D01*
X053604Y041117D01*
X053630Y041174D01*
X053658Y041229D01*
X053690Y041283D01*
X053726Y041334D01*
X053764Y041384D01*
X053806Y041430D01*
X053850Y041474D01*
X053898Y041515D01*
X053947Y041553D01*
X053999Y041587D01*
X054053Y041618D01*
X054109Y041646D01*
X054167Y041670D01*
X054226Y041691D01*
X054286Y041707D01*
X054347Y041720D01*
X054409Y041729D01*
X054471Y041734D01*
X054534Y041735D01*
X054596Y041732D01*
X054658Y041725D01*
X054720Y041714D01*
X054780Y041699D01*
X054840Y041681D01*
X054898Y041659D01*
X054955Y041633D01*
X055010Y041603D01*
X055063Y041570D01*
X055114Y041534D01*
X055162Y041495D01*
X055208Y041452D01*
X055251Y041407D01*
X055291Y041359D01*
X055328Y041309D01*
X055362Y041256D01*
X055393Y041202D01*
X055419Y041146D01*
X055443Y041088D01*
X055462Y041028D01*
X055478Y040968D01*
X055490Y040906D01*
X055498Y040845D01*
X055502Y040782D01*
X055502Y040720D01*
X055498Y040657D01*
X055490Y040596D01*
X055478Y040534D01*
X055462Y040474D01*
X055443Y040414D01*
X055419Y040356D01*
X055393Y040300D01*
X055362Y040246D01*
X055328Y040193D01*
X055291Y040143D01*
X055251Y040095D01*
X055208Y040050D01*
X055162Y040007D01*
X055114Y039968D01*
X055063Y039932D01*
X055010Y039899D01*
X054955Y039869D01*
X054898Y039843D01*
X054840Y039821D01*
X054780Y039803D01*
X054720Y039788D01*
X054658Y039777D01*
X054596Y039770D01*
X054534Y039767D01*
X054471Y039768D01*
X054409Y039773D01*
X054347Y039782D01*
X054286Y039795D01*
X054226Y039811D01*
X054167Y039832D01*
X054109Y039856D01*
X054053Y039884D01*
X053999Y039915D01*
X053947Y039949D01*
X053898Y039987D01*
X053850Y040028D01*
X053806Y040072D01*
X053764Y040118D01*
X053726Y040168D01*
X053690Y040219D01*
X053658Y040273D01*
X053630Y040328D01*
X053604Y040385D01*
X053583Y040444D01*
X053566Y040504D01*
X053552Y040565D01*
X053542Y040626D01*
X053536Y040689D01*
X053534Y040751D01*
X057034Y040751D02*
X057036Y040813D01*
X057042Y040876D01*
X057052Y040937D01*
X057066Y040998D01*
X057083Y041058D01*
X057104Y041117D01*
X057130Y041174D01*
X057158Y041229D01*
X057190Y041283D01*
X057226Y041334D01*
X057264Y041384D01*
X057306Y041430D01*
X057350Y041474D01*
X057398Y041515D01*
X057447Y041553D01*
X057499Y041587D01*
X057553Y041618D01*
X057609Y041646D01*
X057667Y041670D01*
X057726Y041691D01*
X057786Y041707D01*
X057847Y041720D01*
X057909Y041729D01*
X057971Y041734D01*
X058034Y041735D01*
X058096Y041732D01*
X058158Y041725D01*
X058220Y041714D01*
X058280Y041699D01*
X058340Y041681D01*
X058398Y041659D01*
X058455Y041633D01*
X058510Y041603D01*
X058563Y041570D01*
X058614Y041534D01*
X058662Y041495D01*
X058708Y041452D01*
X058751Y041407D01*
X058791Y041359D01*
X058828Y041309D01*
X058862Y041256D01*
X058893Y041202D01*
X058919Y041146D01*
X058943Y041088D01*
X058962Y041028D01*
X058978Y040968D01*
X058990Y040906D01*
X058998Y040845D01*
X059002Y040782D01*
X059002Y040720D01*
X058998Y040657D01*
X058990Y040596D01*
X058978Y040534D01*
X058962Y040474D01*
X058943Y040414D01*
X058919Y040356D01*
X058893Y040300D01*
X058862Y040246D01*
X058828Y040193D01*
X058791Y040143D01*
X058751Y040095D01*
X058708Y040050D01*
X058662Y040007D01*
X058614Y039968D01*
X058563Y039932D01*
X058510Y039899D01*
X058455Y039869D01*
X058398Y039843D01*
X058340Y039821D01*
X058280Y039803D01*
X058220Y039788D01*
X058158Y039777D01*
X058096Y039770D01*
X058034Y039767D01*
X057971Y039768D01*
X057909Y039773D01*
X057847Y039782D01*
X057786Y039795D01*
X057726Y039811D01*
X057667Y039832D01*
X057609Y039856D01*
X057553Y039884D01*
X057499Y039915D01*
X057447Y039949D01*
X057398Y039987D01*
X057350Y040028D01*
X057306Y040072D01*
X057264Y040118D01*
X057226Y040168D01*
X057190Y040219D01*
X057158Y040273D01*
X057130Y040328D01*
X057104Y040385D01*
X057083Y040444D01*
X057066Y040504D01*
X057052Y040565D01*
X057042Y040626D01*
X057036Y040689D01*
X057034Y040751D01*
X057034Y037251D02*
X057036Y037313D01*
X057042Y037376D01*
X057052Y037437D01*
X057066Y037498D01*
X057083Y037558D01*
X057104Y037617D01*
X057130Y037674D01*
X057158Y037729D01*
X057190Y037783D01*
X057226Y037834D01*
X057264Y037884D01*
X057306Y037930D01*
X057350Y037974D01*
X057398Y038015D01*
X057447Y038053D01*
X057499Y038087D01*
X057553Y038118D01*
X057609Y038146D01*
X057667Y038170D01*
X057726Y038191D01*
X057786Y038207D01*
X057847Y038220D01*
X057909Y038229D01*
X057971Y038234D01*
X058034Y038235D01*
X058096Y038232D01*
X058158Y038225D01*
X058220Y038214D01*
X058280Y038199D01*
X058340Y038181D01*
X058398Y038159D01*
X058455Y038133D01*
X058510Y038103D01*
X058563Y038070D01*
X058614Y038034D01*
X058662Y037995D01*
X058708Y037952D01*
X058751Y037907D01*
X058791Y037859D01*
X058828Y037809D01*
X058862Y037756D01*
X058893Y037702D01*
X058919Y037646D01*
X058943Y037588D01*
X058962Y037528D01*
X058978Y037468D01*
X058990Y037406D01*
X058998Y037345D01*
X059002Y037282D01*
X059002Y037220D01*
X058998Y037157D01*
X058990Y037096D01*
X058978Y037034D01*
X058962Y036974D01*
X058943Y036914D01*
X058919Y036856D01*
X058893Y036800D01*
X058862Y036746D01*
X058828Y036693D01*
X058791Y036643D01*
X058751Y036595D01*
X058708Y036550D01*
X058662Y036507D01*
X058614Y036468D01*
X058563Y036432D01*
X058510Y036399D01*
X058455Y036369D01*
X058398Y036343D01*
X058340Y036321D01*
X058280Y036303D01*
X058220Y036288D01*
X058158Y036277D01*
X058096Y036270D01*
X058034Y036267D01*
X057971Y036268D01*
X057909Y036273D01*
X057847Y036282D01*
X057786Y036295D01*
X057726Y036311D01*
X057667Y036332D01*
X057609Y036356D01*
X057553Y036384D01*
X057499Y036415D01*
X057447Y036449D01*
X057398Y036487D01*
X057350Y036528D01*
X057306Y036572D01*
X057264Y036618D01*
X057226Y036668D01*
X057190Y036719D01*
X057158Y036773D01*
X057130Y036828D01*
X057104Y036885D01*
X057083Y036944D01*
X057066Y037004D01*
X057052Y037065D01*
X057042Y037126D01*
X057036Y037189D01*
X057034Y037251D01*
X066678Y038901D02*
X066680Y038936D01*
X066686Y038971D01*
X066696Y039005D01*
X066709Y039038D01*
X066726Y039069D01*
X066747Y039097D01*
X066770Y039124D01*
X066797Y039147D01*
X066825Y039168D01*
X066856Y039185D01*
X066889Y039198D01*
X066923Y039208D01*
X066958Y039214D01*
X066993Y039216D01*
X067028Y039214D01*
X067063Y039208D01*
X067097Y039198D01*
X067130Y039185D01*
X067161Y039168D01*
X067189Y039147D01*
X067216Y039124D01*
X067239Y039097D01*
X067260Y039069D01*
X067277Y039038D01*
X067290Y039005D01*
X067300Y038971D01*
X067306Y038936D01*
X067308Y038901D01*
X067306Y038866D01*
X067300Y038831D01*
X067290Y038797D01*
X067277Y038764D01*
X067260Y038733D01*
X067239Y038705D01*
X067216Y038678D01*
X067189Y038655D01*
X067161Y038634D01*
X067130Y038617D01*
X067097Y038604D01*
X067063Y038594D01*
X067028Y038588D01*
X066993Y038586D01*
X066958Y038588D01*
X066923Y038594D01*
X066889Y038604D01*
X066856Y038617D01*
X066825Y038634D01*
X066797Y038655D01*
X066770Y038678D01*
X066747Y038705D01*
X066726Y038733D01*
X066709Y038764D01*
X066696Y038797D01*
X066686Y038831D01*
X066680Y038866D01*
X066678Y038901D01*
X075076Y038901D02*
X075078Y038930D01*
X075084Y038958D01*
X075093Y038986D01*
X075106Y039012D01*
X075123Y039035D01*
X075142Y039057D01*
X075164Y039076D01*
X075189Y039091D01*
X075215Y039104D01*
X075243Y039112D01*
X075271Y039117D01*
X075300Y039118D01*
X075329Y039115D01*
X075357Y039108D01*
X075384Y039098D01*
X075410Y039084D01*
X075433Y039067D01*
X075454Y039047D01*
X075472Y039024D01*
X075487Y038999D01*
X075498Y038972D01*
X075506Y038944D01*
X075510Y038915D01*
X075510Y038887D01*
X075506Y038858D01*
X075498Y038830D01*
X075487Y038803D01*
X075472Y038778D01*
X075454Y038755D01*
X075433Y038735D01*
X075410Y038718D01*
X075384Y038704D01*
X075357Y038694D01*
X075329Y038687D01*
X075300Y038684D01*
X075271Y038685D01*
X075243Y038690D01*
X075215Y038698D01*
X075189Y038711D01*
X075164Y038726D01*
X075142Y038745D01*
X075123Y038767D01*
X075106Y038790D01*
X075093Y038816D01*
X075084Y038844D01*
X075078Y038872D01*
X075076Y038901D01*
D13*
X074943Y010976D02*
X074943Y009576D01*
X076143Y009576D02*
X076143Y010976D01*
X055343Y010976D02*
X055343Y009576D01*
X054143Y009576D02*
X054143Y010976D01*
M02*
