G75*
G70*
%OFA0B0*%
%FSLAX24Y24*%
%IPPOS*%
%LPD*%
%AMOC8*
5,1,8,0,0,1.08239X$1,22.5*
%
%ADD10C,0.0700*%
%ADD11C,0.0635*%
%ADD12C,0.0630*%
%ADD13C,0.0555*%
%ADD14R,0.0512X0.0591*%
%ADD15R,0.0710X0.0630*%
%ADD16R,0.0787X0.0630*%
%ADD17R,0.0591X0.0512*%
%ADD18C,0.0860*%
%ADD19R,0.0630X0.0710*%
%ADD20OC8,0.0635*%
%ADD21C,0.0635*%
%ADD22C,0.0715*%
%ADD23OC8,0.0715*%
%ADD24C,0.0669*%
%ADD25C,0.1266*%
%ADD26C,0.0827*%
%ADD27R,0.0630X0.0787*%
%ADD28R,0.0630X0.0709*%
%ADD29R,0.0630X0.0512*%
%ADD30C,0.0835*%
%ADD31R,0.0709X0.0630*%
%ADD32C,0.0715*%
%ADD33C,0.0240*%
%ADD34C,0.0120*%
%ADD35C,0.0320*%
%ADD36C,0.0160*%
%ADD37C,0.0400*%
%ADD38C,0.1969*%
D10*
X043581Y035375D03*
X044581Y035375D03*
X045581Y035375D03*
X046581Y035375D03*
X047581Y035375D03*
X048581Y035375D03*
X049581Y035375D03*
X050581Y035375D03*
X051581Y035375D03*
X052581Y035375D03*
X053581Y035375D03*
X053581Y036375D03*
X054581Y036375D03*
X054581Y037375D03*
X053581Y037375D03*
X052581Y036375D03*
X051581Y036375D03*
X050581Y036375D03*
X049581Y036375D03*
X048581Y036375D03*
X047581Y036375D03*
X046581Y036375D03*
X045581Y036375D03*
X044581Y036375D03*
X043581Y036375D03*
X043581Y037375D03*
X042581Y037375D03*
X042581Y036375D03*
X042581Y038375D03*
X043581Y038375D03*
X043581Y039375D03*
X042581Y039375D03*
X042581Y040375D03*
X043581Y040375D03*
X043581Y041375D03*
X043581Y042375D03*
X042581Y042375D03*
X042581Y041375D03*
X042581Y043375D03*
X043581Y043375D03*
X043581Y044375D03*
X042581Y044375D03*
X042581Y045375D03*
X043581Y045375D03*
X043581Y046375D03*
X044581Y046375D03*
X045581Y046375D03*
X046581Y046375D03*
X047581Y046375D03*
X048581Y046375D03*
X049581Y046375D03*
X050581Y046375D03*
X051581Y046375D03*
X052581Y046375D03*
X053581Y046375D03*
X054581Y046375D03*
X053581Y047375D03*
X052581Y047375D03*
X051581Y047375D03*
X050581Y047375D03*
X049581Y047375D03*
X048581Y047375D03*
X047581Y047375D03*
X046581Y047375D03*
X045581Y047375D03*
X044581Y047375D03*
X043581Y047375D03*
X042581Y046375D03*
X053581Y045375D03*
X054581Y045375D03*
X054581Y044375D03*
X054581Y043375D03*
X053581Y043375D03*
X053581Y044375D03*
X053581Y042375D03*
X054581Y042375D03*
X054581Y041375D03*
X053581Y041375D03*
X053581Y040375D03*
X054581Y040375D03*
X054581Y039375D03*
X054581Y038375D03*
X053581Y038375D03*
X053581Y039375D03*
D11*
X039648Y038875D02*
X039013Y038875D01*
X039013Y039875D02*
X039648Y039875D01*
X039648Y040875D02*
X039013Y040875D01*
X039013Y041875D02*
X039648Y041875D01*
X039648Y042875D02*
X039013Y042875D01*
X039013Y043875D02*
X039648Y043875D01*
X039648Y044875D02*
X039013Y044875D01*
X039013Y045875D02*
X039648Y045875D01*
X039648Y046875D02*
X039013Y046875D01*
X039013Y047875D02*
X039648Y047875D01*
X039648Y048875D02*
X039013Y048875D01*
X039013Y049875D02*
X039648Y049875D01*
X039648Y050875D02*
X039013Y050875D01*
X033648Y050875D02*
X033013Y050875D01*
X031895Y051246D02*
X031260Y051246D01*
X031260Y050246D02*
X031895Y050246D01*
X033013Y049875D02*
X033648Y049875D01*
X033648Y048875D02*
X033013Y048875D01*
X031895Y049246D02*
X031260Y049246D01*
X031260Y048246D02*
X031895Y048246D01*
X033013Y047875D02*
X033648Y047875D01*
X031895Y047246D02*
X031260Y047246D01*
X031260Y046246D02*
X031895Y046246D01*
X031895Y045246D02*
X031260Y045246D01*
X031260Y044246D02*
X031895Y044246D01*
X031895Y043246D02*
X031260Y043246D01*
X033013Y042875D02*
X033648Y042875D01*
X033648Y041875D02*
X033013Y041875D01*
X033013Y040875D02*
X033648Y040875D01*
X033648Y039875D02*
X033013Y039875D01*
X033013Y038875D02*
X033648Y038875D01*
X033648Y037875D02*
X033013Y037875D01*
X039013Y037875D02*
X039648Y037875D01*
X033648Y043875D02*
X033013Y043875D01*
X033013Y044875D02*
X033648Y044875D01*
X033648Y045875D02*
X033013Y045875D01*
X033013Y046875D02*
X033648Y046875D01*
X028895Y047246D02*
X028260Y047246D01*
X026196Y047245D02*
X025561Y047245D01*
X025561Y046245D02*
X026196Y046245D01*
X026196Y045245D02*
X025561Y045245D01*
X025561Y044245D02*
X026196Y044245D01*
X026196Y043245D02*
X025561Y043245D01*
X023196Y043245D02*
X022561Y043245D01*
X022561Y044245D02*
X023196Y044245D01*
X023196Y045245D02*
X022561Y045245D01*
X022561Y046245D02*
X023196Y046245D01*
X023196Y047245D02*
X022561Y047245D01*
X022561Y048245D02*
X023196Y048245D01*
X023196Y049245D02*
X022561Y049245D01*
X022561Y050245D02*
X023196Y050245D01*
X023196Y051245D02*
X022561Y051245D01*
X022561Y052245D02*
X023196Y052245D01*
X025561Y052245D02*
X026196Y052245D01*
X028260Y052246D02*
X028895Y052246D01*
X028895Y051246D02*
X028260Y051246D01*
X028260Y050246D02*
X028895Y050246D01*
X028895Y049246D02*
X028260Y049246D01*
X028260Y048246D02*
X028895Y048246D01*
X026196Y048245D02*
X025561Y048245D01*
X025561Y049245D02*
X026196Y049245D01*
X026196Y050245D02*
X025561Y050245D01*
X025561Y051245D02*
X026196Y051245D01*
X031260Y052246D02*
X031895Y052246D01*
X028895Y046246D02*
X028260Y046246D01*
X028260Y045246D02*
X028895Y045246D01*
X028895Y044246D02*
X028260Y044246D01*
X028260Y043246D02*
X028895Y043246D01*
X020023Y043250D02*
X019388Y043250D01*
X019388Y044250D02*
X020023Y044250D01*
X020023Y045250D02*
X019388Y045250D01*
X019388Y046250D02*
X020023Y046250D01*
X020023Y047250D02*
X019388Y047250D01*
X019388Y048250D02*
X020023Y048250D01*
X020023Y049250D02*
X019388Y049250D01*
X019388Y050250D02*
X020023Y050250D01*
X020023Y051250D02*
X019388Y051250D01*
X019388Y052250D02*
X020023Y052250D01*
X014023Y052250D02*
X013388Y052250D01*
X013388Y051250D02*
X014023Y051250D01*
X014023Y050250D02*
X013388Y050250D01*
X013388Y049250D02*
X014023Y049250D01*
X014023Y048250D02*
X013388Y048250D01*
X013388Y047250D02*
X014023Y047250D01*
X014023Y046250D02*
X013388Y046250D01*
X013388Y045250D02*
X014023Y045250D01*
X014023Y044250D02*
X013388Y044250D01*
X013388Y043250D02*
X014023Y043250D01*
X014023Y042250D02*
X013388Y042250D01*
X013388Y041250D02*
X014023Y041250D01*
X014023Y040250D02*
X013388Y040250D01*
X013388Y039250D02*
X014023Y039250D01*
X014023Y038250D02*
X013388Y038250D01*
X013388Y037250D02*
X014023Y037250D01*
X014460Y034756D02*
X014460Y034121D01*
X015460Y034121D02*
X015460Y034756D01*
X016460Y034756D02*
X016460Y034121D01*
X017460Y034121D02*
X017460Y034756D01*
X018460Y034756D02*
X018460Y034121D01*
X019460Y034121D02*
X019460Y034756D01*
X020460Y034756D02*
X020460Y034121D01*
X021460Y034121D02*
X021460Y034756D01*
X020023Y037250D02*
X019388Y037250D01*
X019388Y038250D02*
X020023Y038250D01*
X020023Y039250D02*
X019388Y039250D01*
X019388Y040250D02*
X020023Y040250D01*
X020023Y041250D02*
X019388Y041250D01*
X019388Y042250D02*
X020023Y042250D01*
X013460Y034756D02*
X013460Y034121D01*
X012460Y034121D02*
X012460Y034756D01*
X012460Y031756D02*
X012460Y031121D01*
X013460Y031121D02*
X013460Y031756D01*
X014460Y031756D02*
X014460Y031121D01*
X015460Y031121D02*
X015460Y031756D01*
X016460Y031756D02*
X016460Y031121D01*
X017460Y031121D02*
X017460Y031756D01*
X018460Y031756D02*
X018460Y031121D01*
X019460Y031121D02*
X019460Y031756D01*
X020460Y031756D02*
X020460Y031121D01*
X021460Y031121D02*
X021460Y031756D01*
X023263Y030125D02*
X023898Y030125D01*
X023898Y029125D02*
X023263Y029125D01*
X023263Y028125D02*
X023898Y028125D01*
X023898Y027125D02*
X023263Y027125D01*
X023263Y026125D02*
X023898Y026125D01*
X023898Y025125D02*
X023263Y025125D01*
X023263Y024125D02*
X023898Y024125D01*
X023898Y023125D02*
X023263Y023125D01*
X023263Y022125D02*
X023898Y022125D01*
X023898Y021125D02*
X023263Y021125D01*
X023263Y020125D02*
X023898Y020125D01*
X023898Y019125D02*
X023263Y019125D01*
X023263Y018125D02*
X023898Y018125D01*
X023898Y017125D02*
X023263Y017125D01*
X023263Y016125D02*
X023898Y016125D01*
X023898Y015125D02*
X023263Y015125D01*
X023263Y014125D02*
X023898Y014125D01*
X023898Y013125D02*
X023263Y013125D01*
X023263Y012125D02*
X023898Y012125D01*
X023898Y011125D02*
X023263Y011125D01*
X020023Y011125D02*
X019388Y011125D01*
X019388Y012125D02*
X020023Y012125D01*
X020023Y013125D02*
X019388Y013125D01*
X019388Y014125D02*
X020023Y014125D01*
X020023Y015125D02*
X019388Y015125D01*
X019388Y016125D02*
X020023Y016125D01*
X020023Y017125D02*
X019388Y017125D01*
X019388Y018125D02*
X020023Y018125D01*
X020023Y019125D02*
X019388Y019125D01*
X019388Y020125D02*
X020023Y020125D01*
X020023Y021125D02*
X019388Y021125D01*
X019388Y022125D02*
X020023Y022125D01*
X020023Y023125D02*
X019388Y023125D01*
X019388Y024125D02*
X020023Y024125D01*
X020023Y025125D02*
X019388Y025125D01*
X019388Y026125D02*
X020023Y026125D01*
X014023Y026125D02*
X013388Y026125D01*
X013388Y025125D02*
X014023Y025125D01*
X014023Y024125D02*
X013388Y024125D01*
X013388Y023125D02*
X014023Y023125D01*
X014023Y022125D02*
X013388Y022125D01*
X013388Y021125D02*
X014023Y021125D01*
X014023Y020125D02*
X013388Y020125D01*
X013388Y019125D02*
X014023Y019125D01*
X014023Y018125D02*
X013388Y018125D01*
X013388Y017125D02*
X014023Y017125D01*
X014023Y016125D02*
X013388Y016125D01*
X013388Y015125D02*
X014023Y015125D01*
X014023Y014125D02*
X013388Y014125D01*
X013388Y013125D02*
X014023Y013125D01*
X014023Y012125D02*
X013388Y012125D01*
X013388Y011125D02*
X014023Y011125D01*
X029263Y011125D02*
X029898Y011125D01*
X029898Y012125D02*
X029263Y012125D01*
X029263Y013125D02*
X029898Y013125D01*
X029898Y014125D02*
X029263Y014125D01*
X029263Y015125D02*
X029898Y015125D01*
X029898Y016125D02*
X029263Y016125D01*
X029263Y017125D02*
X029898Y017125D01*
X029898Y018125D02*
X029263Y018125D01*
X029263Y019125D02*
X029898Y019125D01*
X029898Y020125D02*
X029263Y020125D01*
X029263Y021125D02*
X029898Y021125D01*
X029898Y022125D02*
X029263Y022125D01*
X029263Y023125D02*
X029898Y023125D01*
X029898Y024125D02*
X029263Y024125D01*
X029263Y025125D02*
X029898Y025125D01*
X029898Y026125D02*
X029263Y026125D01*
X029263Y027125D02*
X029898Y027125D01*
X029898Y028125D02*
X029263Y028125D01*
X029263Y029125D02*
X029898Y029125D01*
X029898Y030125D02*
X029263Y030125D01*
X033638Y030125D02*
X034273Y030125D01*
X034273Y029125D02*
X033638Y029125D01*
X033638Y028125D02*
X034273Y028125D01*
X034273Y027125D02*
X033638Y027125D01*
X033638Y026125D02*
X034273Y026125D01*
X034273Y025125D02*
X033638Y025125D01*
X033638Y024125D02*
X034273Y024125D01*
X034273Y023125D02*
X033638Y023125D01*
X033638Y022125D02*
X034273Y022125D01*
X034273Y021125D02*
X033638Y021125D01*
X033638Y020125D02*
X034273Y020125D01*
X034273Y019125D02*
X033638Y019125D01*
X033638Y018125D02*
X034273Y018125D01*
X034273Y017125D02*
X033638Y017125D01*
X033638Y016125D02*
X034273Y016125D01*
X034273Y015125D02*
X033638Y015125D01*
X033638Y014125D02*
X034273Y014125D01*
X034273Y013125D02*
X033638Y013125D01*
X033638Y012125D02*
X034273Y012125D01*
X034273Y011125D02*
X033638Y011125D01*
X039638Y011125D02*
X040273Y011125D01*
X040273Y012125D02*
X039638Y012125D01*
X039638Y013125D02*
X040273Y013125D01*
X040273Y014125D02*
X039638Y014125D01*
X039638Y015125D02*
X040273Y015125D01*
X040273Y016125D02*
X039638Y016125D01*
X039638Y017125D02*
X040273Y017125D01*
X040273Y018125D02*
X039638Y018125D01*
X039638Y019125D02*
X040273Y019125D01*
X040273Y020125D02*
X039638Y020125D01*
X039638Y021125D02*
X040273Y021125D01*
X040273Y022125D02*
X039638Y022125D01*
X039638Y023125D02*
X040273Y023125D01*
X040273Y024125D02*
X039638Y024125D01*
X039638Y025125D02*
X040273Y025125D01*
X040273Y026125D02*
X039638Y026125D01*
X039638Y027125D02*
X040273Y027125D01*
X040273Y028125D02*
X039638Y028125D01*
X039638Y029125D02*
X040273Y029125D01*
X040273Y030125D02*
X039638Y030125D01*
X044581Y026442D02*
X044581Y025808D01*
X045581Y025808D02*
X045581Y026442D01*
X046581Y026442D02*
X046581Y025808D01*
X047581Y025808D02*
X047581Y026442D01*
X048581Y026442D02*
X048581Y025808D01*
X049581Y025808D02*
X049581Y026442D01*
X050581Y026442D02*
X050581Y025808D01*
X051581Y025808D02*
X051581Y026442D01*
X052581Y026442D02*
X052581Y025808D01*
X053581Y025808D02*
X053581Y026442D01*
X054581Y026442D02*
X054581Y025808D01*
X055581Y025808D02*
X055581Y026442D01*
X056581Y026442D02*
X056581Y025808D01*
X057581Y025808D02*
X057581Y026442D01*
X058581Y026442D02*
X058581Y025808D01*
X059581Y025808D02*
X059581Y026442D01*
X060581Y026442D02*
X060581Y025808D01*
X061581Y025808D02*
X061581Y026442D01*
X062581Y026442D02*
X062581Y025808D01*
X063581Y025808D02*
X063581Y026442D01*
X073331Y031683D02*
X073331Y032317D01*
X074331Y032317D02*
X074331Y031683D01*
X075331Y031683D02*
X075331Y032317D01*
X076331Y032317D02*
X076331Y031683D01*
X077331Y031683D02*
X077331Y032317D01*
X078331Y032317D02*
X078331Y031683D01*
X079331Y031683D02*
X079331Y032317D01*
X079331Y034683D02*
X079331Y035317D01*
X078331Y035317D02*
X078331Y034683D01*
X077331Y034683D02*
X077331Y035317D01*
X076331Y035317D02*
X076331Y034683D01*
X075331Y034683D02*
X075331Y035317D01*
X074331Y035317D02*
X074331Y034683D01*
X073331Y034683D02*
X073331Y035317D01*
X080388Y043500D02*
X081023Y043500D01*
X081023Y044500D02*
X080388Y044500D01*
X080388Y045500D02*
X081023Y045500D01*
X081023Y046500D02*
X080388Y046500D01*
X080388Y047500D02*
X081023Y047500D01*
X081023Y048500D02*
X080388Y048500D01*
X080388Y049500D02*
X081023Y049500D01*
X081023Y050500D02*
X080388Y050500D01*
X080388Y051500D02*
X081023Y051500D01*
X081023Y052500D02*
X080388Y052500D01*
X080388Y053500D02*
X081023Y053500D01*
X081023Y054500D02*
X080388Y054500D01*
X084388Y054500D02*
X085023Y054500D01*
X085023Y053500D02*
X084388Y053500D01*
X084388Y052500D02*
X085023Y052500D01*
X085023Y051500D02*
X084388Y051500D01*
X084388Y050500D02*
X085023Y050500D01*
X085023Y049500D02*
X084388Y049500D01*
X084388Y048500D02*
X085023Y048500D01*
X085023Y047500D02*
X084388Y047500D01*
X084388Y046500D02*
X085023Y046500D01*
X085023Y045500D02*
X084388Y045500D01*
X084388Y044500D02*
X085023Y044500D01*
X085023Y043500D02*
X084388Y043500D01*
X104081Y054683D02*
X104081Y055317D01*
X105081Y055317D02*
X105081Y054683D01*
X106081Y054683D02*
X106081Y055317D01*
X063581Y020442D02*
X063581Y019808D01*
X062581Y019808D02*
X062581Y020442D01*
X061581Y020442D02*
X061581Y019808D01*
X060581Y019808D02*
X060581Y020442D01*
X059581Y020442D02*
X059581Y019808D01*
X058581Y019808D02*
X058581Y020442D01*
X057581Y020442D02*
X057581Y019808D01*
X056581Y019808D02*
X056581Y020442D01*
X055581Y020442D02*
X055581Y019808D01*
X054581Y019808D02*
X054581Y020442D01*
X053581Y020442D02*
X053581Y019808D01*
X052581Y019808D02*
X052581Y020442D01*
X051581Y020442D02*
X051581Y019808D01*
X050581Y019808D02*
X050581Y020442D01*
X049581Y020442D02*
X049581Y019808D01*
X048581Y019808D02*
X048581Y020442D01*
X047581Y020442D02*
X047581Y019808D01*
X046581Y019808D02*
X046581Y020442D01*
X045581Y020442D02*
X045581Y019808D01*
X044581Y019808D02*
X044581Y020442D01*
D12*
X036646Y037875D02*
X036016Y037875D01*
X036016Y038875D02*
X036646Y038875D01*
X036646Y039875D02*
X036016Y039875D01*
X036016Y040875D02*
X036646Y040875D01*
X036646Y041875D02*
X036016Y041875D01*
X036016Y042875D02*
X036646Y042875D01*
X036646Y043875D02*
X036016Y043875D01*
X036016Y044875D02*
X036646Y044875D01*
X036646Y045875D02*
X036016Y045875D01*
X036016Y046875D02*
X036646Y046875D01*
X036646Y047875D02*
X036016Y047875D01*
X036016Y048875D02*
X036646Y048875D01*
X036646Y049875D02*
X036016Y049875D01*
X036016Y050875D02*
X036646Y050875D01*
D13*
X075956Y030652D02*
X075956Y030098D01*
X077956Y030098D02*
X077956Y030652D01*
X077081Y035973D02*
X077081Y036527D01*
X079081Y036527D02*
X079081Y035973D01*
D14*
X079205Y033875D03*
X078457Y033875D03*
X077205Y033875D03*
X076457Y033875D03*
X076205Y033000D03*
X075457Y033000D03*
X077457Y033000D03*
X078205Y033000D03*
X056330Y044875D03*
X055582Y044875D03*
X055582Y045750D03*
X056330Y045750D03*
X055080Y048250D03*
X054332Y048250D03*
G36*
X053997Y050375D02*
X054359Y050013D01*
X053943Y049597D01*
X053581Y049959D01*
X053997Y050375D01*
G37*
G36*
X053469Y050903D02*
X053831Y050541D01*
X053415Y050125D01*
X053053Y050487D01*
X053469Y050903D01*
G37*
X049580Y045375D03*
X048832Y045375D03*
X081832Y050000D03*
X082580Y050000D03*
X082580Y051750D03*
X081832Y051750D03*
X082332Y052500D03*
X082330Y053125D03*
X081582Y053125D03*
X083080Y052500D03*
X100207Y050125D03*
X100955Y050125D03*
X103457Y050625D03*
X104205Y050625D03*
X051330Y021375D03*
X050582Y021375D03*
X049580Y022250D03*
X048832Y022250D03*
X045705Y022000D03*
X044957Y022000D03*
X044955Y025000D03*
X044207Y025000D03*
X058957Y013625D03*
X059705Y013625D03*
X009580Y006125D03*
X008832Y006125D03*
X008832Y005125D03*
X009580Y005125D03*
D15*
X046581Y023940D03*
X046581Y025060D03*
X055831Y042065D03*
X055831Y043185D03*
X087331Y042815D03*
X087331Y043935D03*
X087331Y052940D03*
X087331Y054060D03*
D16*
X032081Y022176D03*
X032081Y021074D03*
X030706Y023574D03*
X030706Y024676D03*
D17*
X028456Y021374D03*
X028456Y020626D03*
X039206Y020999D03*
X039206Y020251D03*
X045706Y023126D03*
X046581Y021999D03*
X047581Y021999D03*
X047581Y021251D03*
X046581Y021251D03*
X045706Y023874D03*
X047581Y024376D03*
X047581Y025124D03*
X049581Y024999D03*
X049581Y024251D03*
X050581Y024251D03*
X050581Y024999D03*
X051581Y024999D03*
X051581Y024251D03*
X052581Y024251D03*
X052581Y024999D03*
X053581Y024999D03*
X053581Y024251D03*
X054581Y024251D03*
X054581Y024999D03*
X052331Y022624D03*
X051331Y022501D03*
X052331Y021876D03*
X051331Y023249D03*
X061581Y024251D03*
X061581Y024999D03*
X051581Y048751D03*
X051581Y049499D03*
X100581Y048999D03*
X100581Y048251D03*
X102331Y048876D03*
X102331Y049624D03*
X103581Y047749D03*
X103581Y047001D03*
X105581Y048376D03*
X105581Y049124D03*
X105831Y052626D03*
X105831Y053374D03*
X104831Y053374D03*
X104831Y052626D03*
D18*
X055706Y034375D03*
X054581Y032875D03*
X054581Y031500D03*
X053581Y031500D03*
X052581Y031500D03*
X052581Y033625D03*
X051081Y033625D03*
X049706Y032375D03*
X048581Y032375D03*
X047456Y032375D03*
X045331Y030375D03*
X044331Y030000D03*
X041956Y030500D03*
X043581Y032375D03*
X041081Y034375D03*
X038081Y033250D03*
X034581Y035250D03*
X036081Y035875D03*
X031706Y031875D03*
X035081Y030875D03*
X035831Y030250D03*
X036581Y029500D03*
X031581Y029250D03*
X026456Y030250D03*
X025706Y029375D03*
X023956Y031375D03*
X027393Y026125D03*
X030956Y026250D03*
X030956Y022750D03*
X027393Y022125D03*
X025706Y018625D03*
X027206Y017125D03*
X027956Y015375D03*
X025831Y015375D03*
X024706Y015625D03*
X024956Y013625D03*
X025956Y013125D03*
X026831Y013500D03*
X025831Y011750D03*
X031206Y012000D03*
X032081Y013125D03*
X035206Y016375D03*
X036206Y017125D03*
X035706Y018375D03*
X031206Y018500D03*
X035956Y023125D03*
X038831Y023125D03*
X028581Y037625D03*
X025456Y040250D03*
X011456Y038875D03*
X011206Y027875D03*
X012081Y026250D03*
X011831Y021250D03*
X012581Y019875D03*
X048206Y042375D03*
X049206Y042375D03*
X044956Y045000D03*
X039956Y052125D03*
X016706Y050625D03*
D19*
G36*
X056338Y050244D02*
X056783Y049799D01*
X056282Y049298D01*
X055837Y049743D01*
X056338Y050244D01*
G37*
G36*
X057130Y049452D02*
X057575Y049007D01*
X057074Y048506D01*
X056629Y048951D01*
X057130Y049452D01*
G37*
X082396Y043500D03*
X083516Y043500D03*
X086021Y051125D03*
X087141Y051125D03*
X044766Y023875D03*
X043646Y023875D03*
X047396Y023125D03*
X048516Y023125D03*
X048521Y021375D03*
X049641Y021375D03*
D20*
X050706Y018375D03*
X047831Y017750D03*
X088331Y042000D03*
X086331Y043125D03*
X088331Y047500D03*
X088331Y049625D03*
X088331Y052125D03*
X103081Y053625D03*
X056456Y048000D03*
X056456Y044000D03*
D21*
X086331Y044125D03*
X087331Y042000D03*
X087331Y047500D03*
X087331Y049625D03*
X087331Y052125D03*
X102081Y053625D03*
X049706Y018375D03*
X047831Y018750D03*
D22*
X107331Y051125D03*
D23*
X107331Y050125D03*
X106331Y050125D03*
X106331Y051125D03*
X105331Y051125D03*
X105331Y050125D03*
X057456Y040875D03*
X056456Y040875D03*
X056456Y039875D03*
X057456Y039875D03*
X057456Y038875D03*
X056456Y038875D03*
X056456Y037875D03*
X057456Y037875D03*
X057456Y036875D03*
X056456Y036875D03*
D24*
X007867Y003846D03*
X008694Y003846D03*
X009718Y003846D03*
X010545Y003846D03*
X010545Y004831D03*
X007867Y004831D03*
D25*
X009206Y002350D03*
D26*
X056956Y056875D03*
X057956Y056875D03*
X058956Y056875D03*
X060581Y056875D03*
X061581Y056875D03*
X062581Y056875D03*
X062581Y058875D03*
X061581Y058875D03*
X060581Y058875D03*
X058956Y058875D03*
X057956Y058875D03*
X056956Y058875D03*
D27*
X082530Y048500D03*
X083632Y048500D03*
D28*
X083507Y044500D03*
X082405Y044500D03*
D29*
X087331Y055376D03*
X087331Y056124D03*
X048581Y025124D03*
X048581Y024376D03*
D30*
X049081Y016167D02*
X049081Y015333D01*
X047581Y015333D02*
X047581Y016167D01*
X046081Y016167D02*
X046081Y015333D01*
X046831Y014167D02*
X046831Y013333D01*
X048331Y013333D02*
X048331Y014167D01*
X049831Y014167D02*
X049831Y013333D01*
X051331Y013333D02*
X051331Y014167D01*
X052831Y014167D02*
X052831Y013333D01*
X054331Y013333D02*
X054331Y014167D01*
X055081Y015333D02*
X055081Y016167D01*
X056581Y016167D02*
X056581Y015333D01*
X057331Y014167D02*
X057331Y013333D01*
X058831Y013333D02*
X058831Y014167D01*
X059581Y015333D02*
X059581Y016167D01*
X061081Y016167D02*
X061081Y015333D01*
X060331Y014167D02*
X060331Y013333D01*
X058081Y015333D02*
X058081Y016167D01*
X055831Y014167D02*
X055831Y013333D01*
X053581Y015333D02*
X053581Y016167D01*
X052081Y016167D02*
X052081Y015333D01*
X050581Y015333D02*
X050581Y016167D01*
D31*
X014956Y013176D03*
X014956Y012074D03*
X012706Y035949D03*
X012706Y037051D03*
D32*
X083956Y055768D02*
X083956Y056482D01*
X084956Y056482D02*
X084956Y055768D01*
X085956Y055768D02*
X085956Y056482D01*
X086081Y045857D02*
X086081Y045143D01*
X087081Y045143D02*
X087081Y045857D01*
X088081Y045857D02*
X088081Y045143D01*
D33*
X079081Y036250D02*
X079331Y035000D01*
X079205Y033875D01*
X078457Y033875D02*
X078331Y035000D01*
X077331Y035000D01*
X077205Y033875D01*
X076457Y033875D02*
X076331Y035000D01*
X077081Y036250D01*
X076331Y035000D02*
X075331Y035000D01*
X075457Y033000D02*
X075331Y032000D01*
X074331Y032000D01*
X075331Y032000D02*
X075956Y030375D01*
X077956Y030375D02*
X078331Y032000D01*
X078205Y033000D01*
X077457Y033000D02*
X077331Y032000D01*
X076331Y032000D01*
X076205Y033000D01*
X047581Y021999D02*
X046581Y021999D01*
X049081Y015750D02*
X048331Y013750D01*
X058081Y015750D02*
X058831Y013750D01*
X021456Y030625D02*
X020331Y029500D01*
X011831Y029500D01*
X010831Y030500D01*
X010831Y038250D01*
X011456Y038875D01*
X012905Y037250D02*
X012706Y037051D01*
X012905Y037250D02*
X013706Y037250D01*
X012706Y035949D02*
X012460Y035703D01*
X012460Y034439D01*
X021456Y031435D02*
X021456Y030625D01*
X028581Y037625D02*
X028706Y037875D01*
X033331Y037875D01*
X036956Y037875D02*
X037706Y037125D01*
X040581Y037125D01*
X040831Y037375D01*
X042581Y037375D01*
X028577Y043246D02*
X028573Y043250D01*
X028206Y043250D01*
X026456Y042500D01*
X022883Y043250D02*
X022878Y043245D01*
X022878Y052245D02*
X022873Y052250D01*
D34*
X020456Y051250D02*
X019706Y051250D01*
X020456Y051250D02*
X021960Y049746D01*
X023460Y049746D01*
X025206Y050750D01*
X027206Y050750D01*
X028577Y051246D01*
X029081Y051750D02*
X027706Y051750D01*
X026081Y051250D01*
X025883Y051250D01*
X025878Y051245D01*
X027081Y050250D02*
X026581Y049750D01*
X025206Y049750D01*
X023456Y048750D01*
X020706Y048750D01*
X020206Y048250D01*
X019706Y048250D01*
X020331Y047750D02*
X020831Y048250D01*
X022873Y048250D01*
X022878Y048245D01*
X023456Y047750D02*
X021077Y047746D01*
X020581Y047250D01*
X019706Y047250D01*
X017581Y047250D01*
X015081Y049750D01*
X013081Y049750D01*
X013706Y049250D02*
X015206Y049250D01*
X017706Y046750D01*
X020706Y046750D01*
X021201Y047245D01*
X022878Y047245D01*
X023456Y046750D02*
X021327Y046746D01*
X020831Y046250D01*
X019706Y046250D01*
X017706Y046250D01*
X015206Y048750D01*
X013081Y048750D01*
X013706Y048250D02*
X015206Y048250D01*
X017706Y045750D01*
X020956Y045750D01*
X021451Y046245D01*
X022878Y046245D01*
X023456Y045750D02*
X021577Y045746D01*
X021081Y045250D01*
X019706Y045250D01*
X021206Y044750D02*
X017831Y044750D01*
X015331Y047250D01*
X013706Y047250D01*
X013081Y046750D02*
X014956Y046750D01*
X017456Y044250D01*
X019706Y044250D01*
X019706Y043250D02*
X020956Y043250D01*
X021951Y044245D01*
X022878Y044245D01*
X023456Y043750D02*
X022077Y043746D01*
X021081Y042750D01*
X017206Y042750D01*
X014581Y045250D01*
X014581Y046250D02*
X013706Y046250D01*
X014581Y046250D02*
X017081Y043750D01*
X020831Y043750D01*
X021827Y044746D01*
X026456Y044750D01*
X027956Y046246D01*
X028577Y046246D01*
X027956Y045750D02*
X026456Y044250D01*
X025878Y044245D01*
X025883Y044250D01*
X026581Y043750D02*
X023456Y043750D01*
X021701Y045245D02*
X021206Y044750D01*
X021701Y045245D02*
X022878Y045245D01*
X023456Y045750D02*
X026456Y045750D01*
X027956Y047250D01*
X028577Y047246D01*
X027956Y046750D02*
X032331Y046750D01*
X032831Y046875D01*
X033331Y046875D01*
X033331Y045875D02*
X032831Y045875D01*
X032581Y045750D01*
X027956Y045750D01*
X027956Y045250D02*
X026581Y043750D01*
X026581Y043250D02*
X027956Y044750D01*
X032206Y044750D01*
X032706Y044375D01*
X037956Y044375D01*
X038456Y043875D01*
X039331Y043875D01*
X040456Y043875D01*
X041956Y045375D01*
X042581Y045375D01*
X043081Y044875D02*
X043581Y045375D01*
X043081Y044875D02*
X042081Y044875D01*
X040581Y043375D01*
X038331Y043375D01*
X037831Y043875D01*
X038706Y044375D02*
X038206Y044875D01*
X037831Y045375D02*
X040456Y045375D01*
X042206Y047125D01*
X042831Y047125D01*
X043081Y046875D01*
X044081Y046875D01*
X044581Y046375D01*
X045081Y046875D02*
X045081Y047875D01*
X044581Y048375D01*
X042831Y048375D01*
X042456Y048000D01*
X041831Y048000D01*
X040206Y046375D01*
X038081Y046375D01*
X037581Y046875D01*
X037706Y047375D02*
X032331Y047375D01*
X031577Y047246D01*
X031577Y046246D02*
X032456Y046375D01*
X037456Y046375D01*
X037956Y045875D01*
X039331Y045875D01*
X040331Y045875D01*
X042081Y047625D01*
X042831Y047625D01*
X043206Y048000D01*
X043956Y048000D01*
X044581Y047375D01*
X045081Y046875D02*
X045581Y046375D01*
X046081Y046875D02*
X046081Y048125D01*
X045081Y049125D01*
X042331Y049125D01*
X041956Y048750D01*
X041331Y048750D01*
X039956Y047375D01*
X038331Y047375D01*
X037831Y047875D01*
X037956Y048375D02*
X031706Y048375D01*
X031577Y048246D01*
X032206Y048750D02*
X032331Y048875D01*
X033331Y048875D01*
X033331Y049875D02*
X031577Y050246D01*
X032331Y050750D02*
X030206Y050750D01*
X029206Y049750D01*
X027581Y049750D01*
X026331Y048250D01*
X025878Y048245D01*
X025883Y048250D01*
X026456Y047750D02*
X023456Y047750D01*
X023456Y046750D02*
X026456Y046750D01*
X027956Y048250D01*
X028577Y048246D01*
X027956Y047750D02*
X026456Y046250D01*
X025878Y046245D01*
X025883Y046250D01*
X025883Y045250D02*
X026456Y045250D01*
X027956Y046750D01*
X026456Y047250D02*
X027956Y048750D01*
X032206Y048750D01*
X031706Y049375D02*
X031577Y049246D01*
X031706Y049375D02*
X038331Y049375D01*
X038831Y048875D01*
X039331Y048875D01*
X040206Y049375D01*
X040456Y049375D01*
X041331Y050250D01*
X045831Y050250D01*
X048081Y048000D01*
X048081Y046875D01*
X048581Y046375D01*
X049081Y046000D02*
X049081Y046875D01*
X049331Y047375D02*
X046081Y050625D01*
X041081Y050625D01*
X040331Y049875D01*
X040206Y050375D02*
X038456Y050375D01*
X038081Y049875D01*
X038206Y048875D02*
X038706Y048375D01*
X039831Y048375D01*
X040331Y048875D01*
X040542Y048875D01*
X041542Y049875D01*
X045581Y049875D01*
X047581Y047875D01*
X047581Y047375D01*
X047081Y047125D02*
X047081Y047750D01*
X045331Y049500D01*
X041956Y049500D01*
X041706Y049250D01*
X041331Y049250D01*
X039956Y047875D01*
X039331Y047875D01*
X038456Y047875D01*
X037956Y048375D01*
X037706Y047375D02*
X038206Y046875D01*
X039331Y046875D01*
X040081Y046875D01*
X041581Y048375D01*
X042206Y048375D01*
X042581Y048750D01*
X044831Y048750D01*
X045581Y048000D01*
X045581Y047375D01*
X046081Y046875D02*
X046581Y046375D01*
X047081Y046625D02*
X046581Y047375D01*
X047081Y047125D02*
X047581Y046375D01*
X047081Y046625D02*
X047081Y046000D01*
X048832Y045751D02*
X048832Y045375D01*
X048832Y045751D02*
X049081Y046000D01*
X049331Y047375D02*
X049581Y047375D01*
X049206Y048125D02*
X046331Y051000D01*
X040831Y051000D01*
X040206Y050375D01*
X038581Y051375D02*
X038206Y050875D01*
X038581Y051375D02*
X046581Y051375D01*
X049331Y048625D01*
X050331Y048625D01*
X051081Y047875D01*
X051081Y046875D01*
X050581Y046375D01*
X050581Y047375D02*
X050581Y047625D01*
X050081Y048125D01*
X049206Y048125D01*
X051581Y048751D02*
X051831Y048375D01*
X052081Y048125D01*
X052081Y046875D01*
X052581Y046375D01*
X053581Y046375D02*
X054331Y047125D01*
X057081Y047125D01*
X056456Y048000D02*
X055080Y048250D01*
X055080Y050751D01*
X062581Y056875D01*
X060581Y056875D02*
X060581Y058875D01*
X059706Y058125D02*
X058956Y058875D01*
X059706Y058125D02*
X052956Y050750D01*
X051706Y050624D02*
X058956Y056875D01*
X056956Y056875D02*
X056956Y058875D01*
X062581Y058875D02*
X063081Y058875D01*
X064581Y057375D01*
X056456Y045876D01*
X056330Y045750D01*
X056330Y044875D01*
X055582Y044875D02*
X054081Y044875D01*
X053581Y044375D01*
X054081Y043875D02*
X055331Y043875D01*
X055641Y043375D02*
X055831Y043185D01*
X056956Y042560D01*
X056956Y040250D01*
X057456Y039875D01*
X055956Y038875D02*
X055331Y039500D01*
X055331Y040500D01*
X055081Y040875D01*
X054081Y040875D01*
X053581Y041375D01*
X053081Y041875D02*
X055081Y041875D01*
X057456Y040875D02*
X057706Y040875D01*
X057706Y036875D01*
X057456Y036875D01*
X056456Y036875D02*
X055706Y037375D01*
X054581Y037375D01*
X054081Y036875D02*
X055081Y036875D01*
X055206Y036750D01*
X054081Y036875D02*
X053581Y037375D01*
X053081Y037000D02*
X052831Y037250D01*
X052831Y038375D01*
X052081Y039250D01*
X051581Y040750D01*
X049206Y042375D01*
X048206Y042375D02*
X048456Y039375D01*
X049206Y038500D01*
X051956Y038500D01*
X052456Y038000D01*
X052456Y037125D01*
X052581Y037000D01*
X052581Y036375D01*
X052070Y036010D02*
X052070Y036761D01*
X051581Y036375D02*
X051081Y035875D01*
X051081Y034875D01*
X051581Y035375D02*
X052070Y036010D01*
X053081Y035875D02*
X053081Y037000D01*
X053081Y035875D02*
X053581Y035375D01*
X049581Y036375D02*
X049081Y035875D01*
X049081Y035000D01*
X043581Y036375D02*
X042706Y035500D01*
X043081Y036875D02*
X042206Y036875D01*
X042581Y037375D02*
X043081Y037875D01*
X043956Y037875D01*
X043581Y037375D02*
X043081Y036875D01*
X041831Y038375D02*
X041331Y037875D01*
X039331Y037875D01*
X037956Y037875D01*
X037456Y038375D01*
X032706Y038375D01*
X032706Y039375D02*
X037581Y039375D01*
X038081Y038875D01*
X039331Y038875D01*
X041081Y038875D01*
X041581Y039375D01*
X042581Y039375D01*
X043081Y038875D02*
X041706Y038875D01*
X041206Y038375D01*
X038081Y038375D01*
X037581Y038875D01*
X038081Y039375D02*
X040956Y039375D01*
X041456Y039875D01*
X043081Y039875D01*
X043581Y040375D01*
X042956Y040875D02*
X041956Y040875D01*
X040831Y039875D01*
X039331Y039875D01*
X038206Y039875D01*
X037706Y040375D01*
X032706Y040375D01*
X032706Y041375D02*
X037956Y041375D01*
X038456Y040875D01*
X039331Y040875D01*
X040581Y040875D01*
X041581Y041875D01*
X043081Y041875D01*
X043581Y042375D01*
X043331Y042875D02*
X042581Y042375D01*
X042831Y042875D02*
X041956Y042875D01*
X040956Y041875D01*
X039331Y041875D01*
X038331Y041875D01*
X037831Y042375D01*
X032706Y042375D01*
X033331Y042875D02*
X031577Y043246D01*
X032323Y043875D02*
X031577Y044246D01*
X032323Y043875D02*
X033331Y043875D01*
X033331Y044875D02*
X032956Y044875D01*
X032335Y045246D01*
X031577Y045246D01*
X028577Y045246D02*
X027956Y045250D01*
X025883Y045250D02*
X025878Y045245D01*
X025883Y043250D02*
X025878Y043245D01*
X026581Y043250D01*
X026456Y047250D02*
X026081Y047250D01*
X025878Y047245D01*
X026456Y047750D02*
X027956Y049250D01*
X028206Y049250D01*
X028577Y049246D01*
X028577Y050246D02*
X027081Y050250D01*
X029081Y051750D02*
X029835Y051246D01*
X031577Y051246D01*
X032331Y050750D02*
X032456Y050875D01*
X033331Y050875D01*
X033331Y047875D02*
X032581Y047875D01*
X032456Y047750D01*
X027956Y047750D01*
X022878Y049245D02*
X021711Y049245D01*
X021206Y049750D01*
X016581Y049750D01*
X014581Y051250D01*
X013706Y051250D01*
X013706Y050250D02*
X015081Y050250D01*
X017581Y047750D01*
X020331Y047750D01*
X014706Y044250D02*
X013706Y044250D01*
X014706Y044250D02*
X017331Y041750D01*
X020331Y041750D01*
X020456Y040750D02*
X018956Y040750D01*
X019081Y039750D02*
X020706Y039750D01*
X020456Y038750D02*
X019081Y038750D01*
X019206Y037750D02*
X020456Y037750D01*
X017956Y035000D02*
X017956Y033750D01*
X016956Y033750D02*
X016956Y035000D01*
X013956Y035125D02*
X013956Y033750D01*
X012956Y033750D02*
X012956Y035125D01*
X015956Y032125D02*
X015956Y030750D01*
X020956Y030750D02*
X020956Y032250D01*
X025706Y029375D02*
X028331Y029250D01*
X028831Y029625D01*
X030206Y029625D01*
X030331Y028625D02*
X028956Y028625D01*
X028956Y027625D02*
X030331Y027625D01*
X030581Y026625D02*
X028956Y026625D01*
X028956Y025625D02*
X031331Y025625D01*
X031331Y025250D02*
X030206Y025250D01*
X030081Y025125D01*
X029581Y025125D01*
X030456Y024625D02*
X028456Y024625D01*
X029581Y024125D02*
X032081Y024125D01*
X032706Y024625D01*
X035081Y024625D01*
X038456Y028625D01*
X040581Y028625D01*
X039956Y028125D02*
X038456Y028000D01*
X035206Y023625D01*
X028956Y023625D01*
X030956Y022750D02*
X032706Y022750D01*
X033081Y022625D01*
X035081Y022625D01*
X035956Y023125D01*
X036581Y024250D02*
X036331Y021750D01*
X035331Y020625D01*
X033331Y020625D01*
X033956Y021125D02*
X029581Y021125D01*
X028456Y020626D02*
X028707Y019625D01*
X030206Y019625D01*
X029581Y019125D02*
X028956Y019125D01*
X024706Y021625D01*
X022956Y021625D01*
X020581Y022625D01*
X018956Y022625D01*
X017456Y024125D01*
X013706Y024125D01*
X014456Y023625D02*
X012956Y023625D01*
X012706Y023875D01*
X012706Y024250D01*
X012956Y024625D01*
X014456Y024625D01*
X014831Y025000D01*
X014831Y025750D01*
X014456Y026125D01*
X013956Y025125D02*
X013706Y025125D01*
X014581Y022625D02*
X012831Y022625D01*
X012956Y021625D02*
X016581Y021625D01*
X018081Y020125D01*
X019706Y020125D01*
X020331Y020125D01*
X022956Y019125D01*
X023581Y019125D01*
X022956Y018625D02*
X025706Y018625D01*
X024206Y017625D02*
X022956Y017625D01*
X020206Y018625D01*
X016456Y018625D01*
X014831Y020125D01*
X013706Y020125D01*
X012956Y020625D02*
X015456Y020625D01*
X017081Y019125D01*
X019706Y019125D01*
X020331Y019625D02*
X022956Y018625D01*
X022956Y019625D02*
X025081Y019625D01*
X029581Y017125D01*
X029581Y018125D02*
X028831Y018125D01*
X024206Y020625D01*
X022956Y020625D01*
X020456Y021625D01*
X018706Y021625D01*
X019706Y021125D02*
X020331Y021125D01*
X022956Y020125D01*
X023581Y020125D01*
X022956Y019625D02*
X020331Y020625D01*
X018706Y020625D01*
X017581Y019625D02*
X020331Y019625D01*
X020456Y022125D02*
X022831Y021125D01*
X023581Y021125D01*
X024456Y021125D01*
X028956Y018625D01*
X030456Y018625D01*
X033456Y018625D02*
X034831Y018625D01*
X037331Y021125D01*
X038331Y026000D01*
X039956Y027125D01*
X040581Y027625D02*
X039206Y027625D01*
X038581Y029125D02*
X039956Y029125D01*
X038581Y029125D02*
X035331Y026625D01*
X033206Y026625D01*
X030956Y026250D02*
X030581Y026625D01*
X033331Y028625D02*
X034956Y028625D01*
X034956Y030000D01*
X033956Y030125D01*
X038081Y029750D02*
X039581Y031250D01*
X039456Y031625D02*
X038206Y030375D01*
X038206Y030875D02*
X039456Y032125D01*
X039331Y032500D02*
X038206Y031375D01*
X038331Y032000D02*
X039206Y032875D01*
X039081Y033250D02*
X038331Y032500D01*
X039956Y026125D02*
X038706Y025625D01*
X037081Y018375D01*
X035956Y017625D01*
X033331Y017625D01*
X033331Y019625D02*
X035206Y019625D01*
X036956Y021125D01*
X038831Y023125D02*
X039956Y023125D01*
X039956Y019125D02*
X039581Y019125D01*
X035581Y015625D01*
X033456Y015625D01*
X033331Y014625D02*
X035081Y014625D01*
X039581Y018125D01*
X039956Y018125D01*
X039331Y017625D02*
X034956Y014125D01*
X033956Y014125D01*
X033331Y013625D02*
X034956Y013625D01*
X039331Y017250D01*
X039956Y017125D01*
X039331Y017625D02*
X040706Y017625D01*
X039956Y016125D02*
X039206Y016250D01*
X035206Y012625D01*
X033331Y012625D01*
X033206Y011625D02*
X035706Y011625D01*
X039206Y015125D01*
X039956Y015125D01*
X040581Y013625D02*
X038331Y013625D01*
X035831Y011125D01*
X033956Y011125D01*
X029581Y013125D02*
X028831Y013125D01*
X027081Y012375D01*
X022581Y012625D01*
X020706Y013625D01*
X018956Y013625D01*
X018956Y014625D02*
X020331Y014625D01*
X022956Y013125D01*
X023581Y013125D01*
X023581Y014125D02*
X022956Y014125D01*
X020081Y015125D01*
X019706Y015125D01*
X020206Y015625D02*
X023081Y014625D01*
X024206Y014625D01*
X023581Y015125D02*
X023206Y015125D01*
X020206Y016125D01*
X019706Y016125D01*
X020206Y015625D02*
X016081Y015625D01*
X014581Y017125D01*
X013706Y017125D01*
X013706Y018125D02*
X014331Y018125D01*
X015831Y016625D01*
X020206Y016625D01*
X022956Y015625D01*
X024706Y015625D01*
X023581Y016125D02*
X022831Y016125D01*
X019956Y017125D01*
X019706Y017125D01*
X016206Y017125D01*
X014581Y018625D01*
X012956Y018625D01*
X013706Y019125D02*
X014831Y019125D01*
X016456Y017625D01*
X020081Y017625D01*
X022956Y016625D01*
X024331Y016625D01*
X023081Y017125D02*
X020206Y018125D01*
X019706Y018125D01*
X017581Y019625D02*
X016081Y021125D01*
X013706Y021125D01*
X019081Y023625D02*
X024206Y023625D01*
X024081Y022625D02*
X021956Y022625D01*
X020831Y023125D01*
X019706Y023125D01*
X019706Y022125D02*
X020456Y022125D01*
X019706Y024125D02*
X021331Y024125D01*
X021831Y024625D01*
X024206Y024625D01*
X022081Y025625D02*
X022831Y026625D01*
X024331Y026625D01*
X020331Y025625D02*
X018956Y025625D01*
X015706Y012625D02*
X012831Y012625D01*
X022581Y011625D02*
X024331Y011625D01*
X046581Y023750D02*
X046581Y023940D01*
X046581Y023750D02*
X047956Y023750D01*
X047956Y022625D01*
X048832Y022250D01*
X049081Y021751D01*
X049081Y019500D01*
X048081Y019625D02*
X048081Y020749D01*
X048521Y021375D01*
X052081Y021376D02*
X052081Y019500D01*
X052081Y021376D02*
X052331Y021876D01*
X061081Y015750D02*
X061081Y012000D01*
X060706Y009250D01*
X059581Y010125D02*
X059706Y012500D01*
X042581Y038375D02*
X041831Y038375D01*
X043081Y038875D02*
X043581Y039375D01*
X041706Y041375D02*
X040706Y040375D01*
X038331Y040375D01*
X037831Y040875D01*
X037581Y039875D02*
X038081Y039375D01*
X041706Y041375D02*
X042581Y041375D01*
X042956Y040875D02*
X043581Y041375D01*
X043331Y042875D02*
X044081Y042875D01*
X043581Y043375D02*
X042831Y042875D01*
X042581Y043375D02*
X041831Y043375D01*
X040831Y042375D01*
X038456Y042375D01*
X037956Y042875D01*
X039331Y042875D02*
X040706Y042875D01*
X042206Y044375D01*
X042581Y044375D01*
X041956Y045875D02*
X040456Y044375D01*
X038706Y044375D01*
X039331Y044875D02*
X040456Y044875D01*
X041956Y046375D01*
X042581Y046375D01*
X043081Y045875D02*
X043581Y046375D01*
X043081Y045875D02*
X041956Y045875D01*
X037831Y045375D02*
X037331Y045875D01*
X045956Y044125D02*
X051581Y044000D01*
X052059Y041772D01*
X051934Y040847D01*
X052831Y039875D01*
X055081Y039875D01*
X054581Y043375D02*
X055641Y043375D01*
X056456Y044000D02*
X054581Y044375D01*
X054081Y043875D02*
X053581Y043375D01*
X054581Y045375D02*
X054956Y045750D01*
X055582Y045750D01*
X053581Y047375D02*
X054332Y048250D01*
X051581Y049499D02*
X051706Y050624D01*
X080706Y048500D02*
X082530Y048500D01*
X082405Y044500D01*
X082396Y043741D01*
X082396Y043500D01*
X082956Y042875D02*
X082956Y045000D01*
X083081Y047875D01*
X083081Y049250D01*
X083331Y049500D01*
X084706Y049500D01*
X085331Y050000D02*
X083956Y050000D01*
X083456Y050500D01*
X083456Y052625D01*
X083956Y053000D01*
X085456Y053000D01*
X084706Y052500D02*
X084331Y052500D01*
X083831Y052000D01*
X083831Y051250D01*
X084081Y051000D01*
X085271Y051000D01*
X086581Y050625D02*
X086581Y051626D01*
X087141Y051125D02*
X087132Y050375D01*
X087331Y049625D01*
X084706Y048500D02*
X083632Y048500D01*
X082580Y048550D02*
X082530Y048500D01*
X082580Y048550D02*
X082580Y050000D01*
X082580Y054499D01*
X082581Y054500D01*
X086831Y053500D02*
X087831Y053500D01*
X081832Y050000D02*
X081832Y049376D01*
X081456Y049000D01*
X083831Y046875D02*
X083956Y047000D01*
X085331Y047000D01*
X083831Y046875D02*
X083831Y045625D01*
X083956Y045500D01*
X084706Y045500D01*
X083507Y044500D02*
X083507Y043759D01*
X083516Y043500D01*
X086831Y043375D02*
X087831Y043375D01*
X014456Y040750D02*
X012956Y040750D01*
D35*
X022878Y043245D02*
X024461Y043245D01*
X025331Y042500D01*
X026456Y042500D01*
X033331Y037875D02*
X036331Y037875D01*
X036956Y037875D01*
X046581Y026125D02*
X046581Y025060D01*
X047581Y025124D02*
X047581Y026125D01*
X048581Y026125D02*
X048581Y025124D01*
X049581Y024999D02*
X049581Y026125D01*
X050581Y026125D02*
X050581Y024999D01*
X050581Y024251D02*
X049581Y024251D01*
X048581Y024376D01*
X047581Y024376D01*
X046581Y023940D02*
X046515Y023874D01*
X045706Y023874D01*
X045267Y023874D01*
X044766Y023875D01*
X045455Y023875D02*
X045706Y023874D01*
X044955Y025000D02*
X044955Y025499D01*
X048516Y023125D02*
X048640Y023249D01*
X051331Y023249D01*
X052331Y023249D01*
X052331Y022624D01*
X051331Y022501D02*
X051330Y021375D01*
X050582Y021375D02*
X049641Y021375D01*
X049580Y022250D01*
X048521Y021375D02*
X047581Y021999D01*
X046581Y021999D02*
X046204Y021999D01*
X045705Y022000D01*
X045049Y022209D02*
X044997Y022209D01*
X044331Y022875D01*
X045049Y022209D02*
X044957Y022000D01*
X044581Y020125D01*
X046581Y020125D02*
X046581Y021251D01*
X047581Y021251D02*
X047581Y020125D01*
X045049Y022209D02*
X045706Y023126D01*
X047395Y023126D01*
X047396Y023125D01*
X050581Y024251D02*
X051581Y024251D01*
X052581Y024251D01*
X053581Y024251D01*
X054581Y024251D01*
X056581Y024251D01*
X056581Y026125D01*
X054581Y026125D02*
X054581Y024999D01*
X053581Y024999D02*
X053581Y026125D01*
X052581Y026125D02*
X052581Y024999D01*
X051581Y024999D02*
X051581Y026125D01*
X056581Y024251D02*
X059581Y024251D01*
X061581Y024251D01*
X061581Y024999D02*
X061581Y026125D01*
X059581Y026125D02*
X059581Y024251D01*
X014956Y013176D02*
X013706Y013125D01*
X013706Y012125D02*
X014956Y012074D01*
X013706Y012125D02*
X013706Y011125D01*
X018956Y050250D02*
X018456Y050750D01*
X018456Y052250D01*
X019706Y052250D01*
X019706Y050250D02*
X018956Y050250D01*
D36*
X016706Y050625D02*
X018206Y052875D01*
X023581Y052875D01*
X025211Y051245D01*
X025878Y051245D01*
X031577Y051246D02*
X032202Y051246D01*
X032581Y052250D01*
X039831Y052250D01*
X039956Y052125D01*
X038206Y050875D02*
X036331Y050875D01*
X033331Y050875D01*
X033331Y049875D02*
X036331Y049875D01*
X038081Y049875D01*
X038206Y048875D02*
X036331Y048875D01*
X033331Y048875D01*
X033331Y047875D02*
X036331Y047875D01*
X037831Y047875D01*
X037581Y046875D02*
X036331Y046875D01*
X033331Y046875D01*
X033331Y045875D02*
X036331Y045875D01*
X037331Y045875D01*
X038206Y044875D02*
X036331Y044875D01*
X033331Y044875D01*
X033331Y043875D02*
X036331Y043875D01*
X037831Y043875D01*
X037956Y042875D02*
X036331Y042875D01*
X033331Y042875D01*
X032706Y042375D02*
X032206Y041875D01*
X027831Y041875D01*
X026956Y041500D01*
X021956Y041500D01*
X020956Y040750D01*
X020456Y040750D01*
X020331Y041750D02*
X020956Y041750D01*
X021581Y042375D01*
X024081Y042375D01*
X024456Y042000D01*
X026956Y042000D01*
X027706Y042375D01*
X029206Y042375D01*
X029581Y042750D01*
X029581Y044125D01*
X029460Y044246D01*
X028577Y044246D01*
X027831Y041375D02*
X027081Y041000D01*
X022456Y041000D01*
X020706Y039750D01*
X021081Y039250D02*
X019706Y039250D01*
X019081Y038750D02*
X017456Y038750D01*
X016581Y037875D01*
X016581Y035500D01*
X016460Y035379D01*
X016460Y034439D01*
X016956Y035000D02*
X016956Y035250D01*
X017081Y035375D01*
X017081Y037500D01*
X017831Y038250D01*
X019706Y038250D01*
X019206Y037750D02*
X018331Y037750D01*
X017581Y037000D01*
X017581Y035250D01*
X017460Y035129D01*
X017460Y034439D01*
X017956Y035000D02*
X017956Y035125D01*
X018081Y035250D01*
X018081Y036500D01*
X018831Y037250D01*
X019706Y037250D01*
X020456Y037750D02*
X021206Y037750D01*
X022831Y039000D01*
X025831Y039000D01*
X028081Y040375D01*
X032706Y040375D01*
X033331Y039875D02*
X036331Y039875D01*
X037581Y039875D01*
X037581Y038875D02*
X036331Y038875D01*
X033331Y038875D01*
X028331Y038875D01*
X026206Y037500D01*
X023831Y037500D01*
X020456Y035000D01*
X020456Y034443D01*
X020460Y034439D01*
X021460Y034439D02*
X021460Y034629D01*
X024581Y037000D01*
X026456Y037000D01*
X028456Y038375D01*
X032706Y038375D01*
X032706Y039375D02*
X028206Y039375D01*
X026081Y038000D01*
X023456Y038000D01*
X020206Y035625D01*
X019460Y035129D01*
X019460Y034439D01*
X018460Y034439D02*
X018460Y035129D01*
X020206Y036375D01*
X020339Y036375D01*
X023214Y038500D01*
X025956Y038500D01*
X028081Y039875D01*
X033331Y039875D01*
X033331Y040875D02*
X036331Y040875D01*
X037831Y040875D01*
X036331Y041875D02*
X033331Y041875D01*
X032706Y041375D02*
X027831Y041375D01*
X027956Y040875D02*
X025706Y039500D01*
X022456Y039500D01*
X021456Y038750D01*
X020456Y038750D01*
X021081Y039250D02*
X022456Y040250D01*
X025456Y040250D01*
X027956Y040875D02*
X033331Y040875D01*
X036831Y037125D02*
X029081Y037125D01*
X028831Y036875D01*
X027331Y036875D01*
X027206Y036500D01*
X024956Y036500D01*
X022456Y034625D01*
X022456Y034000D01*
X020956Y032250D01*
X020460Y032621D02*
X020460Y031439D01*
X020956Y030750D02*
X020706Y030500D01*
X020081Y030500D01*
X019581Y030000D01*
X011956Y030000D01*
X011331Y030625D01*
X011331Y037625D01*
X012206Y038500D01*
X012206Y040000D01*
X012956Y040750D01*
X013206Y040250D02*
X013706Y040250D01*
X013206Y040250D02*
X012706Y039750D01*
X012706Y038250D01*
X011831Y037375D01*
X011831Y030875D01*
X012206Y030500D01*
X015206Y030500D01*
X015460Y030754D01*
X015460Y031439D01*
X015956Y032125D02*
X015706Y032375D01*
X014081Y032375D01*
X012956Y033500D01*
X012956Y033750D01*
X013956Y033750D02*
X013956Y033375D01*
X014456Y032875D01*
X016581Y032875D01*
X017460Y031996D01*
X017460Y031439D01*
X018460Y031439D02*
X018460Y031871D01*
X016956Y033375D01*
X016956Y033750D01*
X017956Y033750D02*
X018706Y033000D01*
X020081Y033000D01*
X020460Y032621D01*
X021456Y031435D02*
X021460Y031439D01*
X022206Y031125D02*
X021831Y030375D01*
X020456Y029000D01*
X011456Y029000D01*
X010331Y030125D01*
X010331Y039250D01*
X012331Y041250D01*
X013706Y041250D01*
X014456Y040750D02*
X014706Y041000D01*
X014706Y042000D01*
X014456Y042250D01*
X013706Y042250D01*
X013706Y043250D02*
X013206Y043250D01*
X009831Y039875D01*
X009831Y029875D01*
X011206Y028500D01*
X020706Y028500D01*
X021456Y029250D01*
X021456Y029500D01*
X022206Y030250D01*
X022331Y030500D01*
X022706Y031125D01*
X022706Y032500D01*
X023456Y033250D01*
X023456Y034125D01*
X025456Y035500D01*
X027706Y035500D01*
X027956Y035875D01*
X029206Y035875D01*
X029456Y036125D01*
X034706Y036125D01*
X035831Y035000D01*
X043206Y035000D01*
X043581Y035375D01*
X042706Y035500D02*
X036456Y035500D01*
X036081Y035875D01*
X036581Y036625D02*
X029206Y036625D01*
X028956Y036375D01*
X027581Y036375D01*
X027456Y036000D01*
X025206Y036000D01*
X022956Y034375D01*
X022956Y033625D01*
X022206Y032750D01*
X022206Y031125D01*
X022706Y030375D02*
X022581Y030000D01*
X021956Y029375D01*
X021956Y029000D01*
X020956Y028000D01*
X012331Y028000D01*
X011206Y027875D01*
X010956Y027000D02*
X009331Y028625D01*
X009331Y043250D01*
X012831Y046750D01*
X013081Y046750D01*
X013706Y045250D02*
X014581Y045250D01*
X013706Y048250D02*
X013081Y048250D01*
X008831Y044000D01*
X008831Y028250D01*
X011206Y025875D01*
X011206Y022750D01*
X012331Y021625D01*
X012956Y021625D01*
X012581Y022125D02*
X013706Y022125D01*
X014581Y022625D02*
X016706Y022625D01*
X018706Y020625D01*
X018706Y021625D02*
X016706Y023625D01*
X014456Y023625D01*
X012831Y022625D02*
X012206Y023250D01*
X012206Y024500D01*
X012706Y025125D01*
X013706Y025125D01*
X013706Y026125D02*
X014456Y026125D01*
X014456Y026750D02*
X013206Y026750D01*
X012831Y026375D01*
X012831Y025875D01*
X012456Y025500D01*
X012331Y025500D01*
X011706Y024750D01*
X011706Y023000D01*
X012581Y022125D01*
X011831Y021250D02*
X010706Y022375D01*
X010706Y025625D01*
X008331Y028000D01*
X008331Y044250D01*
X012831Y048750D01*
X013081Y048750D01*
X012581Y049250D02*
X013706Y049250D01*
X013081Y049750D02*
X012331Y049750D01*
X007331Y044750D01*
X007331Y027500D01*
X009706Y025125D01*
X009706Y021500D01*
X011331Y019875D01*
X012581Y019875D01*
X012956Y020625D02*
X011331Y020625D01*
X010206Y021750D01*
X010206Y025375D01*
X007831Y027750D01*
X007831Y044500D01*
X012581Y049250D01*
X013081Y051250D02*
X013706Y051250D01*
X013081Y051250D02*
X006831Y045000D01*
X006831Y027250D01*
X009206Y024875D01*
X009206Y021250D01*
X011831Y018625D01*
X012956Y018625D01*
X012831Y018125D02*
X013706Y018125D01*
X012831Y018125D02*
X012331Y017625D01*
X012331Y013000D01*
X012831Y012625D01*
X014956Y013176D02*
X016905Y013176D01*
X017956Y012125D01*
X019706Y012125D01*
X019706Y013125D02*
X022581Y011625D01*
X024331Y011625D02*
X025831Y011750D01*
X026956Y011125D02*
X026331Y010500D01*
X017831Y010500D01*
X015706Y012625D01*
X015456Y014250D02*
X014581Y015125D01*
X013706Y015125D01*
X013706Y016125D02*
X014581Y016125D01*
X015706Y015000D01*
X018081Y015000D01*
X018956Y014625D01*
X018956Y013625D02*
X017706Y014250D01*
X015456Y014250D01*
X020331Y019125D02*
X023081Y018125D01*
X023581Y018125D01*
X024206Y017625D02*
X024831Y017625D01*
X025331Y017125D01*
X027206Y017125D01*
X027206Y013875D01*
X026831Y013500D01*
X027456Y012875D02*
X025956Y012875D01*
X025956Y013125D01*
X024956Y013625D02*
X024956Y014125D01*
X024456Y014625D01*
X024206Y014625D01*
X025831Y015375D02*
X025831Y015775D01*
X024981Y016625D01*
X024331Y016625D01*
X023581Y017125D02*
X023081Y017125D01*
X020331Y019125D02*
X019706Y019125D01*
X023581Y022125D02*
X025081Y022125D01*
X027581Y020625D01*
X028455Y020625D01*
X028456Y020626D01*
X029332Y021374D02*
X029581Y021125D01*
X032081Y021074D01*
X033331Y020625D02*
X030206Y020125D01*
X029581Y020125D01*
X030206Y019625D02*
X033456Y020125D01*
X033956Y020125D01*
X033331Y019625D02*
X030206Y019125D01*
X029581Y019125D01*
X030456Y018625D02*
X031206Y018500D01*
X030706Y017750D02*
X030331Y018125D01*
X029581Y018125D01*
X029581Y017125D02*
X032456Y017125D01*
X032956Y017625D01*
X033331Y017625D01*
X033956Y017125D02*
X036206Y017125D01*
X035206Y016375D02*
X033956Y016125D01*
X033456Y015625D02*
X031331Y015625D01*
X030831Y015125D01*
X029581Y015125D01*
X030581Y014125D02*
X031081Y014625D01*
X033331Y014625D01*
X032581Y014125D02*
X031331Y014125D01*
X030331Y013125D01*
X029581Y013125D01*
X029581Y012125D02*
X030081Y012125D01*
X030831Y012875D01*
X031331Y012875D01*
X031706Y012500D01*
X032706Y012500D01*
X032831Y012625D01*
X033331Y012625D01*
X033206Y012125D02*
X033081Y012000D01*
X031206Y012000D01*
X032081Y013125D02*
X033956Y013125D01*
X033331Y013625D02*
X033081Y013625D01*
X032581Y014125D01*
X030581Y014125D02*
X029581Y014125D01*
X027956Y013375D02*
X027456Y012875D01*
X027956Y013375D02*
X027956Y015375D01*
X030706Y017750D02*
X031831Y017750D01*
X032706Y018625D01*
X033456Y018625D01*
X033956Y018125D02*
X035706Y018375D01*
X036956Y021125D02*
X037706Y026000D01*
X039206Y027625D01*
X040581Y027625D02*
X040706Y027625D01*
X040956Y027375D01*
X040956Y025375D01*
X040706Y025125D01*
X039956Y025125D01*
X042831Y027375D02*
X042831Y018375D01*
X041456Y017000D01*
X041456Y011875D01*
X040706Y011125D01*
X039956Y011125D01*
X040581Y013625D02*
X040956Y014000D01*
X040956Y017125D01*
X042331Y018500D01*
X042331Y027875D01*
X042706Y028250D01*
X045581Y028250D01*
X046956Y030125D01*
X049331Y030125D01*
X052456Y033250D01*
X052581Y033625D01*
X053331Y033750D02*
X053331Y033250D01*
X052956Y032875D01*
X052706Y032750D01*
X049581Y029625D01*
X047206Y029625D01*
X045956Y027750D01*
X043206Y027750D01*
X042831Y027375D01*
X041831Y028375D02*
X041831Y018750D01*
X040706Y017625D01*
X040581Y018125D02*
X039956Y018125D01*
X040581Y018125D02*
X041331Y018875D01*
X041331Y028750D01*
X041831Y029250D01*
X044706Y029250D01*
X045331Y029875D01*
X045331Y030375D01*
X044956Y031125D02*
X044581Y030750D01*
X042206Y030750D01*
X041956Y030500D01*
X041581Y029750D02*
X040581Y030750D01*
X039456Y030750D01*
X038331Y029375D01*
X037831Y029000D01*
X034956Y027250D01*
X033956Y027125D01*
X033206Y026625D02*
X031831Y025250D01*
X031331Y025250D01*
X031331Y025625D02*
X031456Y025625D01*
X031956Y026125D01*
X031956Y027250D01*
X033331Y028625D01*
X033206Y029125D02*
X033956Y029125D01*
X033206Y029125D02*
X031206Y027125D01*
X029581Y027125D01*
X028956Y026625D02*
X028456Y026625D01*
X027956Y027125D01*
X025206Y027125D01*
X024706Y026625D01*
X024331Y026625D01*
X024331Y027125D02*
X023581Y027125D01*
X024331Y027125D02*
X024831Y027625D01*
X028956Y027625D01*
X028956Y028625D02*
X024831Y028625D01*
X024331Y029125D01*
X023581Y029125D01*
X023081Y029125D01*
X022706Y028750D01*
X022706Y028250D01*
X021456Y027000D01*
X015081Y027000D01*
X014956Y027125D01*
X013081Y027125D01*
X012081Y026250D01*
X011956Y027000D02*
X010956Y027000D01*
X011956Y027000D02*
X012456Y027500D01*
X021206Y027500D01*
X022331Y028625D01*
X022331Y029125D01*
X023081Y029875D01*
X023581Y030125D01*
X026206Y030125D01*
X026456Y030250D01*
X026331Y033500D01*
X026956Y034000D01*
X028331Y034000D01*
X028706Y034375D01*
X029956Y034375D01*
X030206Y034625D01*
X033206Y034625D01*
X033831Y034000D01*
X040331Y034000D01*
X040706Y033625D01*
X041331Y033625D01*
X042206Y034500D01*
X048831Y034500D01*
X049081Y034875D01*
X049081Y035000D01*
X049706Y034000D02*
X050581Y034875D01*
X050581Y035375D01*
X051081Y034875D02*
X051081Y034625D01*
X049956Y033500D01*
X042706Y033500D01*
X042081Y032875D01*
X039206Y032875D01*
X039331Y032500D02*
X042331Y032500D01*
X042831Y033000D01*
X050456Y033000D01*
X051081Y033625D01*
X051831Y033375D02*
X051831Y034000D01*
X052581Y034750D01*
X052581Y035375D01*
X052070Y036761D02*
X052081Y036772D01*
X052081Y037000D01*
X051831Y037250D01*
X046581Y037250D01*
X046581Y036375D01*
X046581Y037250D02*
X044706Y037250D01*
X044081Y037875D01*
X043956Y037875D01*
X043581Y038375D02*
X044331Y039125D01*
X044456Y042625D01*
X044831Y043500D01*
X045956Y044125D01*
X045081Y044375D02*
X051456Y044500D01*
X051956Y044000D01*
X052331Y042625D01*
X053081Y041875D01*
X050081Y044750D02*
X047206Y044750D01*
X044956Y045000D01*
X045081Y044375D02*
X044206Y043500D01*
X044206Y043000D01*
X044081Y042875D01*
X043956Y044375D02*
X043581Y044375D01*
X043956Y044375D02*
X044206Y044625D01*
X044206Y045250D01*
X044706Y045750D01*
X046831Y045750D01*
X047081Y046000D01*
X048581Y047375D02*
X049081Y046875D01*
X049580Y046374D02*
X049581Y046375D01*
X049580Y046374D02*
X049580Y045375D01*
X050081Y044750D02*
X050706Y045375D01*
X053581Y045375D01*
X040331Y049875D02*
X039331Y049875D01*
X018956Y040750D02*
X017331Y040750D01*
X015581Y039000D01*
X015581Y036000D01*
X014456Y034875D01*
X014456Y034443D01*
X014460Y034439D01*
X013956Y035125D02*
X015081Y036250D01*
X015081Y038625D01*
X014456Y039250D01*
X013706Y039250D01*
X013706Y038250D02*
X014206Y038250D01*
X014581Y037875D01*
X014581Y036500D01*
X013581Y035500D01*
X012956Y035125D01*
X012460Y034439D02*
X012460Y031439D01*
X015956Y030750D02*
X016206Y030500D01*
X019206Y030500D01*
X019456Y030750D01*
X019456Y031435D01*
X019460Y031439D01*
X022706Y030375D02*
X023206Y031125D01*
X023206Y032250D01*
X023956Y033000D01*
X023956Y033875D01*
X025581Y035000D01*
X027831Y035000D01*
X028206Y035375D01*
X029456Y035375D01*
X029706Y035625D01*
X034081Y035625D01*
X034581Y035250D01*
X034081Y034500D02*
X040956Y034500D01*
X041081Y034375D01*
X041706Y033250D02*
X042456Y034000D01*
X049706Y034000D01*
X051831Y033375D02*
X049081Y030625D01*
X046706Y030625D01*
X045206Y028750D01*
X042206Y028750D01*
X041831Y028375D01*
X040956Y029000D02*
X040581Y028625D01*
X040956Y029000D02*
X040956Y029750D01*
X040581Y030125D01*
X039956Y030125D01*
X039581Y031250D02*
X044331Y031250D01*
X044706Y031625D01*
X047831Y031625D01*
X048581Y032375D01*
X049706Y032375D02*
X048331Y031125D01*
X044956Y031125D01*
X043956Y031625D02*
X039456Y031625D01*
X039456Y032125D02*
X042831Y032125D01*
X043081Y032375D01*
X043581Y032375D01*
X043956Y031625D02*
X044706Y032375D01*
X047456Y032375D01*
X044331Y030000D02*
X044081Y029750D01*
X041581Y029750D01*
X038206Y030375D02*
X035831Y030250D01*
X035081Y030875D02*
X038206Y030875D01*
X038206Y031375D02*
X037081Y031375D01*
X036581Y031875D01*
X033331Y031875D01*
X032331Y030625D01*
X032331Y028875D01*
X031081Y027625D01*
X030331Y027625D01*
X030331Y028625D02*
X030956Y028625D01*
X031581Y029250D01*
X031581Y030625D01*
X033081Y032375D01*
X036831Y032375D01*
X037206Y032000D01*
X038331Y032000D01*
X038331Y032500D02*
X037456Y032500D01*
X036956Y033000D01*
X030706Y033000D01*
X030456Y032750D01*
X030456Y029875D01*
X030206Y029625D01*
X030456Y029125D02*
X030956Y029625D01*
X030956Y031125D01*
X031706Y031875D01*
X030206Y033500D02*
X029581Y032875D01*
X029581Y030125D01*
X029581Y029125D02*
X030456Y029125D01*
X027393Y026125D02*
X023581Y026125D01*
X023581Y025125D02*
X027456Y025125D01*
X027956Y025625D01*
X028956Y025625D01*
X029581Y025125D02*
X028206Y025125D01*
X027706Y024625D01*
X024206Y024625D01*
X024206Y023625D02*
X026456Y023625D01*
X026831Y024000D01*
X027831Y024000D01*
X028456Y024625D01*
X028581Y024125D02*
X029581Y024125D01*
X028956Y023625D02*
X028831Y023625D01*
X028581Y023375D01*
X028581Y022375D01*
X028831Y022125D01*
X029581Y022125D01*
X029332Y021374D02*
X028456Y021374D01*
X027832Y021374D01*
X027393Y022125D01*
X026581Y022625D02*
X027081Y023125D01*
X027706Y023125D01*
X028581Y024125D01*
X029581Y023125D02*
X029956Y023125D01*
X030331Y022750D01*
X030956Y022750D01*
X032081Y022176D02*
X033956Y022125D01*
X026581Y022625D02*
X024081Y022625D01*
X022081Y025625D02*
X020331Y025625D01*
X019706Y025125D02*
X018956Y025125D01*
X018706Y024875D01*
X018706Y023875D01*
X018956Y023625D01*
X019081Y023625D01*
X018956Y025625D02*
X015581Y025625D01*
X014456Y026750D01*
X023956Y031375D02*
X024456Y031875D01*
X024456Y033375D01*
X025831Y034500D01*
X028081Y034500D01*
X028456Y034875D01*
X029706Y034875D01*
X029956Y035125D01*
X033456Y035125D01*
X034081Y034500D01*
X036581Y036625D02*
X037206Y036000D01*
X040956Y036000D01*
X041331Y036375D01*
X042581Y036375D01*
X042206Y036875D02*
X041081Y036875D01*
X040706Y036500D01*
X037456Y036500D01*
X036831Y037125D01*
X037456Y033500D02*
X030206Y033500D01*
X036581Y029500D02*
X038081Y029750D01*
X038081Y033250D02*
X037456Y033500D01*
X039081Y033250D02*
X041706Y033250D01*
X052581Y031875D02*
X054331Y033625D01*
X056687Y033625D01*
X059955Y030893D01*
X057706Y029875D02*
X056331Y032250D01*
X054331Y032250D01*
X053581Y031500D01*
X054581Y031500D02*
X055706Y029500D01*
X052581Y031500D02*
X052581Y031875D01*
X054581Y032875D02*
X056331Y032875D01*
X055706Y034375D02*
X055206Y035000D01*
X055206Y036750D01*
X054581Y036375D02*
X054581Y035000D01*
X053331Y033750D01*
X044581Y026125D02*
X044955Y025499D01*
X044955Y025000D02*
X045455Y025000D01*
X045955Y024500D01*
X047332Y024500D01*
X047581Y024376D01*
X044206Y024874D02*
X044206Y023250D01*
X044331Y022875D01*
X044206Y024874D02*
X044207Y025000D01*
X052081Y015750D02*
X051331Y013750D01*
X051331Y013625D01*
X058957Y013625D01*
X058831Y013751D01*
X058831Y013750D01*
X059581Y013749D02*
X059705Y013625D01*
X059581Y013749D02*
X059581Y015750D01*
X033956Y012125D02*
X033206Y012125D01*
X033206Y011625D02*
X032706Y011125D01*
X029581Y011125D01*
X026956Y011125D01*
X015460Y034439D02*
X015460Y035129D01*
X016081Y035750D01*
X016081Y038375D01*
X017456Y039750D01*
X019081Y039750D01*
X079706Y046500D02*
X080706Y046500D01*
X079706Y046500D02*
X079706Y048750D01*
X080081Y049000D01*
X081456Y049000D01*
X084706Y050500D02*
X085581Y050500D01*
X086081Y050000D01*
X086081Y047000D01*
X086456Y046625D01*
X087706Y046625D01*
X088081Y046250D01*
X088081Y045500D01*
X087081Y045500D02*
X087331Y043935D01*
X087831Y043375D02*
X088331Y043875D01*
X086831Y043375D02*
X086581Y043375D01*
X086331Y043125D01*
X087331Y042815D02*
X087331Y042000D01*
X088331Y042000D02*
X088706Y042375D01*
X086331Y044125D02*
X085831Y044500D01*
X084706Y044500D01*
X086081Y045500D02*
X086081Y046125D01*
X085706Y046500D01*
X084706Y046500D01*
X085331Y047000D02*
X085581Y047250D01*
X085581Y049750D01*
X085331Y050000D01*
X086581Y050625D02*
X086581Y047750D01*
X086831Y047500D01*
X087331Y047500D01*
X088331Y047500D02*
X088331Y046750D01*
X088331Y049125D02*
X088331Y049625D01*
X086021Y051125D02*
X085271Y051000D01*
X085081Y051500D02*
X085456Y051875D01*
X085706Y051875D01*
X086081Y052250D01*
X086081Y053375D01*
X086766Y054060D01*
X087331Y054060D01*
X087831Y053500D02*
X088081Y053750D01*
X088081Y054875D01*
X087580Y055376D01*
X087331Y055376D01*
X087331Y056124D02*
X087331Y056875D01*
X086956Y057250D01*
X085331Y057250D01*
X084956Y056875D01*
X084956Y056125D01*
X085956Y056125D02*
X086081Y056000D01*
X086081Y054000D01*
X085581Y053500D01*
X085581Y053000D01*
X085456Y053000D01*
X084956Y053500D02*
X085706Y054250D01*
X085706Y054875D01*
X085456Y055125D01*
X084206Y055125D01*
X083956Y055375D01*
X083956Y056125D01*
X083206Y057000D02*
X083206Y054500D01*
X082706Y054500D01*
X082705Y054499D01*
X082706Y054500D02*
X082581Y054500D01*
X080706Y054500D01*
X083206Y054500D02*
X084706Y054500D01*
X084706Y053500D02*
X084956Y053500D01*
X086581Y053250D02*
X086831Y053500D01*
X086581Y053250D02*
X086581Y051626D01*
X087331Y052125D02*
X087331Y052940D01*
X088581Y053250D02*
X088581Y056500D01*
X087331Y057750D01*
X083956Y057750D01*
X083206Y057000D01*
X084706Y051500D02*
X085081Y051500D01*
X084706Y043500D02*
X083516Y043500D01*
X082956Y042875D02*
X082581Y042500D01*
X081081Y042500D01*
X080706Y042875D01*
X080706Y043500D01*
D37*
X031577Y052246D02*
X028577Y052246D01*
X025879Y052246D01*
X025878Y052245D01*
X022878Y052245D02*
X022878Y051245D01*
X022878Y050245D01*
X022873Y052250D02*
X019706Y052250D01*
D38*
X008831Y051250D03*
X050581Y052000D03*
X066581Y034375D03*
X066456Y011750D03*
X043081Y011625D03*
X009081Y011500D03*
M02*
