G75*
G70*
%OFA0B0*%
%FSLAX24Y24*%
%IPPOS*%
%LPD*%
%AMOC8*
5,1,8,0,0,1.08239X$1,22.5*
%
%ADD10C,0.0060*%
%ADD11C,0.0040*%
%ADD12R,0.0551X0.0256*%
%ADD13C,0.0240*%
%ADD14C,0.0050*%
%ADD15R,0.0240X0.0340*%
%ADD16R,0.0720X0.0230*%
%ADD17R,0.0256X0.0551*%
%ADD18R,0.0690X0.0290*%
%ADD19R,0.0290X0.0690*%
%ADD20R,0.0295X0.0571*%
%ADD21R,0.0200X0.1000*%
%ADD22R,0.0230X0.0720*%
%ADD23R,0.0295X0.0669*%
%ADD24R,0.0560X0.0140*%
%ADD25R,0.0571X0.0295*%
%ADD26R,0.0669X0.0295*%
D10*
X017607Y010158D02*
X017930Y010158D01*
X017930Y010658D02*
X017607Y010658D01*
X018318Y011203D02*
X019218Y011203D01*
X019218Y011863D02*
X018318Y011863D01*
X018180Y012408D02*
X017857Y012408D01*
X017857Y012908D02*
X018180Y012908D01*
X038063Y020083D02*
X038063Y020983D01*
X038723Y020983D02*
X038723Y020083D01*
X039438Y018483D02*
X039438Y017583D01*
X040098Y017583D02*
X040098Y018483D01*
X051518Y018478D02*
X052273Y018478D01*
X052273Y017838D02*
X051518Y017838D01*
X053143Y017872D02*
X053143Y018195D01*
X053643Y018195D02*
X053643Y017872D01*
X054143Y017872D02*
X054143Y018195D01*
X054643Y018195D02*
X054643Y017872D01*
X055513Y017978D02*
X056268Y017978D01*
X056180Y018283D02*
X055857Y018283D01*
X055857Y018783D02*
X056180Y018783D01*
X055393Y019088D02*
X054638Y019088D01*
X054638Y019728D02*
X055393Y019728D01*
X055393Y020753D02*
X055393Y021313D01*
X055018Y021195D02*
X055018Y020872D01*
X054518Y020872D02*
X054518Y021195D01*
X054213Y021288D02*
X054213Y020533D01*
X053573Y020533D02*
X053573Y021288D01*
X053338Y020158D02*
X053338Y019403D01*
X052698Y019403D02*
X052698Y020158D01*
X052393Y020070D02*
X052393Y019747D01*
X051893Y019747D02*
X051893Y020070D01*
X055893Y020753D02*
X055893Y021313D01*
X056268Y021195D02*
X056268Y020872D01*
X056768Y020872D02*
X056768Y021195D01*
X057143Y021195D02*
X057143Y020872D01*
X057643Y020872D02*
X057643Y021195D01*
X058143Y021195D02*
X058143Y020872D01*
X058643Y020872D02*
X058643Y021195D01*
X059143Y021195D02*
X059143Y020872D01*
X059643Y020872D02*
X059643Y021195D01*
X060143Y021195D02*
X060143Y020872D01*
X060643Y020872D02*
X060643Y021195D01*
X061143Y021195D02*
X061143Y020872D01*
X061643Y020872D02*
X061643Y021195D01*
X058393Y019445D02*
X058393Y019122D01*
X057893Y019122D02*
X057893Y019445D01*
X058893Y018820D02*
X058893Y018497D01*
X059393Y018497D02*
X059393Y018820D01*
X056268Y017338D02*
X055513Y017338D01*
X057218Y015158D02*
X057418Y015158D01*
X057418Y014158D01*
X057218Y014158D01*
X057218Y014658D01*
X057218Y015158D01*
X057218Y014658D02*
X056868Y014658D01*
X056868Y014308D02*
X056868Y014158D01*
X056868Y014008D01*
X056868Y014158D02*
X057018Y014158D01*
X056868Y014158D02*
X056718Y014158D01*
X056418Y014658D02*
X056420Y014724D01*
X056426Y014789D01*
X056436Y014854D01*
X056449Y014919D01*
X056467Y014982D01*
X056488Y015045D01*
X056513Y015105D01*
X056542Y015165D01*
X056574Y015222D01*
X056609Y015278D01*
X056648Y015331D01*
X056690Y015382D01*
X056734Y015430D01*
X056782Y015475D01*
X056832Y015518D01*
X056885Y015557D01*
X056940Y015594D01*
X056997Y015627D01*
X057056Y015656D01*
X057116Y015682D01*
X057178Y015704D01*
X057241Y015723D01*
X057305Y015737D01*
X057370Y015748D01*
X057436Y015755D01*
X057502Y015758D01*
X057567Y015757D01*
X057633Y015752D01*
X057698Y015743D01*
X057763Y015730D01*
X057826Y015714D01*
X057889Y015694D01*
X057950Y015669D01*
X058010Y015642D01*
X058068Y015611D01*
X058124Y015576D01*
X058178Y015538D01*
X058229Y015497D01*
X058278Y015453D01*
X058324Y015406D01*
X058368Y015357D01*
X058408Y015305D01*
X058445Y015250D01*
X058479Y015194D01*
X058509Y015135D01*
X058536Y015075D01*
X058559Y015014D01*
X058578Y014951D01*
X058594Y014887D01*
X058606Y014822D01*
X058614Y014757D01*
X058618Y014691D01*
X058618Y014625D01*
X058614Y014559D01*
X058606Y014494D01*
X058594Y014429D01*
X058578Y014365D01*
X058559Y014302D01*
X058536Y014241D01*
X058509Y014181D01*
X058479Y014122D01*
X058445Y014066D01*
X058408Y014011D01*
X058368Y013959D01*
X058324Y013910D01*
X058278Y013863D01*
X058229Y013819D01*
X058178Y013778D01*
X058124Y013740D01*
X058068Y013705D01*
X058010Y013674D01*
X057950Y013647D01*
X057889Y013622D01*
X057826Y013602D01*
X057763Y013586D01*
X057698Y013573D01*
X057633Y013564D01*
X057567Y013559D01*
X057502Y013558D01*
X057436Y013561D01*
X057370Y013568D01*
X057305Y013579D01*
X057241Y013593D01*
X057178Y013612D01*
X057116Y013634D01*
X057056Y013660D01*
X056997Y013689D01*
X056940Y013722D01*
X056885Y013759D01*
X056832Y013798D01*
X056782Y013841D01*
X056734Y013886D01*
X056690Y013934D01*
X056648Y013985D01*
X056609Y014038D01*
X056574Y014094D01*
X056542Y014151D01*
X056513Y014211D01*
X056488Y014271D01*
X056467Y014334D01*
X056449Y014397D01*
X056436Y014462D01*
X056426Y014527D01*
X056420Y014592D01*
X056418Y014658D01*
X057768Y014658D02*
X058168Y014658D01*
X059593Y014158D02*
X059743Y014158D01*
X059743Y014008D01*
X059743Y014158D02*
X059893Y014158D01*
X059743Y014158D02*
X059743Y014308D01*
X059743Y014658D02*
X060093Y014658D01*
X060093Y014158D01*
X060293Y014158D01*
X060293Y015158D01*
X060093Y015158D01*
X060093Y014658D01*
X059293Y014658D02*
X059295Y014724D01*
X059301Y014789D01*
X059311Y014854D01*
X059324Y014919D01*
X059342Y014982D01*
X059363Y015045D01*
X059388Y015105D01*
X059417Y015165D01*
X059449Y015222D01*
X059484Y015278D01*
X059523Y015331D01*
X059565Y015382D01*
X059609Y015430D01*
X059657Y015475D01*
X059707Y015518D01*
X059760Y015557D01*
X059815Y015594D01*
X059872Y015627D01*
X059931Y015656D01*
X059991Y015682D01*
X060053Y015704D01*
X060116Y015723D01*
X060180Y015737D01*
X060245Y015748D01*
X060311Y015755D01*
X060377Y015758D01*
X060442Y015757D01*
X060508Y015752D01*
X060573Y015743D01*
X060638Y015730D01*
X060701Y015714D01*
X060764Y015694D01*
X060825Y015669D01*
X060885Y015642D01*
X060943Y015611D01*
X060999Y015576D01*
X061053Y015538D01*
X061104Y015497D01*
X061153Y015453D01*
X061199Y015406D01*
X061243Y015357D01*
X061283Y015305D01*
X061320Y015250D01*
X061354Y015194D01*
X061384Y015135D01*
X061411Y015075D01*
X061434Y015014D01*
X061453Y014951D01*
X061469Y014887D01*
X061481Y014822D01*
X061489Y014757D01*
X061493Y014691D01*
X061493Y014625D01*
X061489Y014559D01*
X061481Y014494D01*
X061469Y014429D01*
X061453Y014365D01*
X061434Y014302D01*
X061411Y014241D01*
X061384Y014181D01*
X061354Y014122D01*
X061320Y014066D01*
X061283Y014011D01*
X061243Y013959D01*
X061199Y013910D01*
X061153Y013863D01*
X061104Y013819D01*
X061053Y013778D01*
X060999Y013740D01*
X060943Y013705D01*
X060885Y013674D01*
X060825Y013647D01*
X060764Y013622D01*
X060701Y013602D01*
X060638Y013586D01*
X060573Y013573D01*
X060508Y013564D01*
X060442Y013559D01*
X060377Y013558D01*
X060311Y013561D01*
X060245Y013568D01*
X060180Y013579D01*
X060116Y013593D01*
X060053Y013612D01*
X059991Y013634D01*
X059931Y013660D01*
X059872Y013689D01*
X059815Y013722D01*
X059760Y013759D01*
X059707Y013798D01*
X059657Y013841D01*
X059609Y013886D01*
X059565Y013934D01*
X059523Y013985D01*
X059484Y014038D01*
X059449Y014094D01*
X059417Y014151D01*
X059388Y014211D01*
X059363Y014271D01*
X059342Y014334D01*
X059324Y014397D01*
X059311Y014462D01*
X059301Y014527D01*
X059295Y014592D01*
X059293Y014658D01*
X060643Y014658D02*
X061043Y014658D01*
X066357Y013658D02*
X066680Y013658D01*
X066680Y013158D02*
X066357Y013158D01*
X068143Y020872D02*
X068143Y021195D01*
X068643Y021195D02*
X068643Y020872D01*
X081943Y016988D02*
X082843Y016988D01*
X082843Y016328D02*
X081943Y016328D01*
X085513Y018963D02*
X086268Y018963D01*
X086268Y019603D02*
X085513Y019603D01*
X086323Y021283D02*
X086323Y022038D01*
X086963Y022038D02*
X086963Y021283D01*
X086893Y023628D02*
X086893Y024188D01*
X086393Y024188D02*
X086393Y023628D01*
X092393Y028872D02*
X092393Y029195D01*
X092893Y029195D02*
X092893Y028872D01*
X092018Y029872D02*
X092018Y030195D01*
X091518Y030195D02*
X091518Y029872D01*
X092393Y030872D02*
X092393Y031195D01*
X092893Y031195D02*
X092893Y030872D01*
X092018Y031872D02*
X092018Y032195D01*
X091518Y032195D02*
X091518Y031872D01*
X074393Y037997D02*
X074393Y038320D01*
X073893Y038320D02*
X073893Y037997D01*
X073055Y037908D02*
X072732Y037908D01*
X072732Y037408D02*
X073055Y037408D01*
X072838Y038783D02*
X072838Y039538D01*
X072198Y039538D02*
X072198Y038783D01*
X069930Y038033D02*
X069607Y038033D01*
X069607Y037533D02*
X069930Y037533D01*
X068768Y037997D02*
X068768Y038320D01*
X068268Y038320D02*
X068268Y037997D01*
X068268Y039622D02*
X068268Y039945D01*
X068643Y039945D02*
X068643Y039622D01*
X069143Y039622D02*
X069143Y039945D01*
X067768Y039945D02*
X067768Y039622D01*
X065526Y042028D02*
X065526Y042783D01*
X064886Y042783D02*
X064886Y042028D01*
X063930Y042158D02*
X063607Y042158D01*
X063607Y041783D02*
X063930Y041783D01*
X063930Y041283D02*
X063607Y041283D01*
X063607Y042658D02*
X063930Y042658D01*
X063930Y043033D02*
X063607Y043033D01*
X063607Y043533D02*
X063930Y043533D01*
X062742Y044346D02*
X062420Y044346D01*
X062420Y044846D02*
X062742Y044846D01*
X059742Y045033D02*
X059420Y045033D01*
X059420Y045533D02*
X059742Y045533D01*
X063668Y038283D02*
X064368Y038283D01*
X064385Y038281D01*
X064402Y038277D01*
X064418Y038270D01*
X064432Y038260D01*
X064445Y038247D01*
X064455Y038233D01*
X064462Y038217D01*
X064466Y038200D01*
X064468Y038183D01*
X064468Y038033D01*
X064418Y037983D01*
X064418Y036083D01*
X064468Y036033D01*
X064468Y035883D01*
X064466Y035866D01*
X064462Y035849D01*
X064455Y035833D01*
X064445Y035819D01*
X064432Y035806D01*
X064418Y035796D01*
X064402Y035789D01*
X064385Y035785D01*
X064368Y035783D01*
X063668Y035783D01*
X063651Y035785D01*
X063634Y035789D01*
X063618Y035796D01*
X063604Y035806D01*
X063591Y035819D01*
X063581Y035833D01*
X063574Y035849D01*
X063570Y035866D01*
X063568Y035883D01*
X063568Y036033D01*
X063618Y036083D01*
X063618Y037983D01*
X063568Y038033D01*
X063568Y038183D01*
X063570Y038200D01*
X063574Y038217D01*
X063581Y038233D01*
X063591Y038247D01*
X063604Y038260D01*
X063618Y038270D01*
X063634Y038277D01*
X063651Y038281D01*
X063668Y038283D01*
X069982Y033658D02*
X070305Y033658D01*
X070305Y033158D02*
X069982Y033158D01*
X081888Y011978D02*
X082643Y011978D01*
X082643Y011338D02*
X081888Y011338D01*
X086323Y011158D02*
X086323Y011913D01*
X086963Y011913D02*
X086963Y011158D01*
D11*
X017584Y008303D02*
X017277Y008303D01*
X017584Y008303D02*
X017277Y008610D01*
X017277Y008687D01*
X017354Y008764D01*
X017507Y008764D01*
X017584Y008687D01*
X017737Y008687D02*
X017814Y008764D01*
X017968Y008764D01*
X018044Y008687D01*
X018198Y008687D02*
X018198Y008534D01*
X018274Y008457D01*
X018505Y008457D01*
X018505Y008303D02*
X018505Y008764D01*
X018274Y008764D01*
X018198Y008687D01*
X018351Y008457D02*
X018198Y008303D01*
X018044Y008303D02*
X017737Y008610D01*
X017737Y008687D01*
X017737Y008303D02*
X018044Y008303D01*
X017987Y010928D02*
X018294Y010928D01*
X017987Y011235D01*
X017987Y011312D01*
X018064Y011389D01*
X018218Y011389D01*
X018294Y011312D01*
X018448Y011312D02*
X018448Y011159D01*
X018524Y011082D01*
X018755Y011082D01*
X018755Y010928D02*
X018755Y011389D01*
X018524Y011389D01*
X018448Y011312D01*
X018601Y011082D02*
X018448Y010928D01*
X017834Y011005D02*
X017757Y010928D01*
X017604Y010928D01*
X017527Y011005D01*
X017527Y011082D01*
X017604Y011159D01*
X017680Y011159D01*
X017604Y011159D02*
X017527Y011235D01*
X017527Y011312D01*
X017604Y011389D01*
X017757Y011389D01*
X017834Y011312D01*
X018481Y012053D02*
X018788Y012053D01*
X018481Y012360D01*
X018481Y012437D01*
X018558Y012514D01*
X018711Y012514D01*
X018788Y012437D01*
X018942Y012437D02*
X018942Y012284D01*
X019018Y012207D01*
X019248Y012207D01*
X019095Y012207D02*
X018942Y012053D01*
X019248Y012053D02*
X019248Y012514D01*
X019018Y012514D01*
X018942Y012437D01*
X023163Y010165D02*
X023240Y010241D01*
X023547Y010241D01*
X023624Y010165D01*
X023624Y010011D01*
X023547Y009935D01*
X023470Y009935D01*
X023394Y010011D01*
X023394Y010241D01*
X023163Y010165D02*
X023163Y010011D01*
X023240Y009935D01*
X023163Y009781D02*
X023163Y009474D01*
X023470Y009781D01*
X023547Y009781D01*
X023624Y009704D01*
X023624Y009551D01*
X023547Y009474D01*
X023624Y009321D02*
X023163Y009321D01*
X023317Y009167D01*
X023163Y009014D01*
X023624Y009014D01*
X023547Y008860D02*
X023624Y008784D01*
X023624Y008630D01*
X023547Y008553D01*
X023240Y008553D01*
X023163Y008630D01*
X023163Y008784D01*
X023240Y008860D01*
X022953Y008653D02*
X022953Y009413D01*
X022334Y009413D02*
X022334Y008653D01*
X033618Y018273D02*
X033909Y018273D01*
X033918Y018793D02*
X033618Y018793D01*
X033481Y019053D02*
X033788Y019053D01*
X033788Y019130D01*
X033481Y019437D01*
X033481Y019514D01*
X033788Y019514D01*
X033942Y019437D02*
X034018Y019514D01*
X034172Y019514D01*
X034248Y019437D01*
X034248Y019130D01*
X034172Y019053D01*
X034018Y019053D01*
X033942Y019130D01*
X033328Y019130D02*
X033251Y019053D01*
X033097Y019053D01*
X033021Y019130D01*
X033021Y019207D01*
X033097Y019284D01*
X033251Y019284D01*
X033328Y019360D01*
X033328Y019437D01*
X033251Y019514D01*
X033097Y019514D01*
X033021Y019437D01*
X033021Y019360D01*
X033097Y019284D01*
X033251Y019284D02*
X033328Y019207D01*
X033328Y019130D01*
X032867Y019130D02*
X032560Y019437D01*
X032560Y019130D01*
X032637Y019053D01*
X032791Y019053D01*
X032867Y019130D01*
X032867Y019437D01*
X032791Y019514D01*
X032637Y019514D01*
X032560Y019437D01*
X038913Y020053D02*
X039374Y020053D01*
X039374Y020284D01*
X039297Y020360D01*
X039144Y020360D01*
X039067Y020284D01*
X039067Y020053D01*
X039067Y020207D02*
X038913Y020360D01*
X038913Y020514D02*
X038913Y020821D01*
X038913Y020667D02*
X039374Y020667D01*
X039220Y020514D01*
X040365Y018781D02*
X040672Y018781D01*
X040749Y018704D01*
X040749Y018551D01*
X040672Y018474D01*
X040595Y018474D01*
X040519Y018551D01*
X040519Y018781D01*
X040365Y018781D02*
X040288Y018704D01*
X040288Y018551D01*
X040365Y018474D01*
X040288Y018321D02*
X040288Y018014D01*
X040288Y018167D02*
X040749Y018167D01*
X040595Y018014D01*
X040519Y017860D02*
X040442Y017784D01*
X040442Y017553D01*
X040288Y017553D02*
X040749Y017553D01*
X040749Y017784D01*
X040672Y017860D01*
X040519Y017860D01*
X040442Y017707D02*
X040288Y017860D01*
X046259Y016558D02*
X046259Y016268D01*
X046778Y016258D02*
X046778Y016558D01*
X047038Y016696D02*
X047499Y016696D01*
X047345Y016542D01*
X047499Y016389D01*
X047038Y016389D01*
X047115Y016235D02*
X047038Y016159D01*
X047038Y016005D01*
X047115Y015928D01*
X047422Y015928D01*
X047499Y016005D01*
X047499Y016159D01*
X047422Y016235D01*
X047345Y016849D02*
X047499Y017003D01*
X047038Y017003D01*
X047038Y017156D02*
X047038Y016849D01*
X047115Y017310D02*
X047038Y017386D01*
X047038Y017540D01*
X047115Y017616D01*
X047192Y017616D01*
X047269Y017540D01*
X047269Y017310D01*
X047115Y017310D01*
X047269Y017310D02*
X047422Y017463D01*
X047499Y017616D01*
X050288Y019584D02*
X050288Y019738D01*
X050365Y019814D01*
X050288Y019584D02*
X050365Y019508D01*
X050672Y019508D01*
X050749Y019584D01*
X050749Y019738D01*
X050672Y019814D01*
X050672Y019968D02*
X050519Y020121D01*
X050288Y020121D01*
X050519Y020121D02*
X050672Y020275D01*
X050749Y020275D01*
X050749Y019968D02*
X050672Y019968D01*
X051009Y020058D02*
X051009Y019758D01*
X051163Y019871D02*
X051394Y019871D01*
X051547Y020025D01*
X051624Y020025D01*
X051528Y020048D02*
X051528Y019758D01*
X051547Y019718D02*
X051394Y019871D01*
X051547Y019718D02*
X051624Y019718D01*
X051547Y019564D02*
X051470Y019564D01*
X051394Y019488D01*
X051394Y019334D01*
X051470Y019258D01*
X051547Y019258D01*
X051624Y019334D01*
X051624Y019488D01*
X051547Y019564D01*
X051394Y019488D02*
X051317Y019564D01*
X051240Y019564D01*
X051163Y019488D01*
X051163Y019334D01*
X051240Y019258D01*
X051317Y019258D01*
X051394Y019334D01*
X051453Y019139D02*
X051453Y019062D01*
X051299Y018909D01*
X051299Y018678D01*
X051317Y018797D02*
X051317Y019027D01*
X051394Y019104D01*
X051547Y019104D01*
X051624Y019027D01*
X051624Y018797D01*
X051163Y018797D01*
X051299Y018909D02*
X051146Y019062D01*
X051146Y019139D01*
X051163Y019104D02*
X051317Y018951D01*
X051606Y018909D02*
X051606Y018755D01*
X051683Y018678D01*
X051836Y018678D01*
X051913Y018755D01*
X051913Y018909D02*
X051760Y018985D01*
X051683Y018985D01*
X051606Y018909D01*
X051606Y019139D02*
X051913Y019139D01*
X051913Y018909D01*
X052067Y018909D02*
X052143Y018832D01*
X052373Y018832D01*
X052220Y018832D02*
X052067Y018678D01*
X052067Y018909D02*
X052067Y019062D01*
X052143Y019139D01*
X052373Y019139D01*
X052373Y018678D01*
X053538Y019303D02*
X053999Y019303D01*
X053999Y019534D01*
X053922Y019610D01*
X053769Y019610D01*
X053692Y019534D01*
X053692Y019303D01*
X053692Y019457D02*
X053538Y019610D01*
X053615Y019764D02*
X053538Y019840D01*
X053538Y019994D01*
X053615Y020071D01*
X053692Y020071D01*
X053769Y019994D01*
X053769Y019917D01*
X053788Y019922D02*
X054249Y019922D01*
X054249Y020152D01*
X054172Y020229D01*
X054019Y020229D01*
X053942Y020152D01*
X053942Y019922D01*
X053999Y019994D02*
X053922Y020071D01*
X053845Y020071D01*
X053769Y019994D01*
X053942Y020076D02*
X053788Y020229D01*
X053922Y020224D02*
X053769Y020378D01*
X053538Y020378D01*
X053374Y020277D02*
X053297Y020354D01*
X053144Y020354D01*
X053067Y020277D01*
X053067Y020047D01*
X052913Y020047D02*
X053374Y020047D01*
X053374Y020277D01*
X053067Y020201D02*
X052913Y020354D01*
X053144Y020508D02*
X053144Y020814D01*
X053297Y020968D02*
X053144Y021121D01*
X052913Y021121D01*
X053144Y021121D02*
X053297Y021275D01*
X053374Y021275D01*
X053374Y020968D02*
X053297Y020968D01*
X053374Y020738D02*
X053144Y020508D01*
X052913Y020738D02*
X053374Y020738D01*
X053788Y020689D02*
X053788Y020383D01*
X053769Y020378D02*
X053922Y020531D01*
X053999Y020531D01*
X054095Y020383D02*
X054249Y020536D01*
X053788Y020536D01*
X053788Y020843D02*
X053788Y021073D01*
X053865Y021150D01*
X054172Y021150D01*
X054249Y021073D01*
X054249Y020843D01*
X053788Y020843D01*
X053922Y020224D02*
X053999Y020224D01*
X053999Y019994D02*
X053999Y019840D01*
X053922Y019764D01*
X054663Y020172D02*
X055124Y020172D01*
X055124Y020402D01*
X055047Y020479D01*
X054894Y020479D01*
X054817Y020402D01*
X054817Y020172D01*
X054817Y020326D02*
X054663Y020479D01*
X054663Y020633D02*
X054970Y020939D01*
X055047Y020939D01*
X055124Y020863D01*
X055124Y020709D01*
X055047Y020633D01*
X054663Y020633D02*
X054663Y020939D01*
X054663Y021093D02*
X054663Y021323D01*
X054740Y021400D01*
X055047Y021400D01*
X055124Y021323D01*
X055124Y021093D01*
X054663Y021093D01*
X055538Y021073D02*
X055615Y021150D01*
X055922Y021150D01*
X055999Y021073D01*
X055999Y020843D01*
X055538Y020843D01*
X055538Y021073D01*
X055615Y020689D02*
X055538Y020613D01*
X055538Y020459D01*
X055615Y020383D01*
X055538Y020229D02*
X055692Y020076D01*
X055692Y020152D02*
X055692Y019922D01*
X055538Y019922D02*
X055999Y019922D01*
X055999Y020152D01*
X055922Y020229D01*
X055769Y020229D01*
X055692Y020152D01*
X055922Y020383D02*
X055999Y020459D01*
X055999Y020613D01*
X055922Y020689D01*
X055845Y020689D01*
X055769Y020613D01*
X055692Y020689D01*
X055615Y020689D01*
X055769Y020613D02*
X055769Y020536D01*
X056413Y020613D02*
X056874Y020613D01*
X056644Y020383D01*
X056644Y020689D01*
X056874Y020843D02*
X056874Y021073D01*
X056797Y021150D01*
X056490Y021150D01*
X056413Y021073D01*
X056413Y020843D01*
X056874Y020843D01*
X057413Y020843D02*
X057413Y021073D01*
X057490Y021150D01*
X057797Y021150D01*
X057874Y021073D01*
X057874Y020843D01*
X057413Y020843D01*
X057490Y020689D02*
X057413Y020613D01*
X057413Y020459D01*
X057490Y020383D01*
X057644Y020383D02*
X057720Y020536D01*
X057720Y020613D01*
X057644Y020689D01*
X057490Y020689D01*
X057644Y020383D02*
X057874Y020383D01*
X057874Y020689D01*
X057797Y020229D02*
X057644Y020229D01*
X057567Y020152D01*
X057567Y019922D01*
X057413Y019922D02*
X057874Y019922D01*
X057874Y020152D01*
X057797Y020229D01*
X057567Y020076D02*
X057413Y020229D01*
X056874Y020152D02*
X056797Y020229D01*
X056644Y020229D01*
X056567Y020152D01*
X056567Y019922D01*
X056413Y019922D02*
X056874Y019922D01*
X056874Y020152D01*
X056567Y020076D02*
X056413Y020229D01*
X056340Y018812D02*
X056033Y018505D01*
X055880Y018505D02*
X055573Y018812D01*
X055726Y018812D02*
X055726Y018505D01*
X055573Y018505D02*
X055880Y018812D01*
X056033Y018812D02*
X056340Y018505D01*
X056187Y018505D02*
X056187Y018812D01*
X056340Y018659D02*
X056033Y018659D01*
X055880Y018659D02*
X055573Y018659D01*
X055419Y018582D02*
X055189Y018582D01*
X055112Y018659D01*
X055112Y018812D01*
X055189Y018889D01*
X055419Y018889D01*
X055419Y018428D01*
X055374Y018417D02*
X054913Y018417D01*
X054959Y018428D02*
X054652Y018735D01*
X054652Y018812D01*
X054729Y018889D01*
X054882Y018889D01*
X054959Y018812D01*
X054913Y018878D02*
X055144Y018878D01*
X055297Y019031D01*
X055374Y019031D01*
X055144Y018878D02*
X055297Y018724D01*
X055374Y018724D01*
X055266Y018582D02*
X055112Y018428D01*
X054959Y018428D02*
X054652Y018428D01*
X054374Y018494D02*
X054374Y018340D01*
X054297Y018264D01*
X054297Y018110D02*
X054144Y018110D01*
X054067Y018034D01*
X054067Y017803D01*
X053913Y017803D02*
X054374Y017803D01*
X054374Y018034D01*
X054297Y018110D01*
X054067Y017957D02*
X053913Y018110D01*
X053913Y018264D02*
X054220Y018571D01*
X054297Y018571D01*
X054374Y018494D01*
X054374Y018724D02*
X054297Y018724D01*
X054144Y018878D01*
X053913Y018878D01*
X054144Y018878D02*
X054297Y019031D01*
X054374Y019031D01*
X053913Y018571D02*
X053913Y018264D01*
X054913Y018264D02*
X054913Y018571D01*
X055220Y018264D02*
X055374Y018417D01*
X055297Y018110D02*
X055144Y018110D01*
X055067Y018034D01*
X055067Y017803D01*
X054913Y017803D02*
X055374Y017803D01*
X055374Y018034D01*
X055297Y018110D01*
X055067Y017957D02*
X054913Y018110D01*
X055902Y018014D02*
X055902Y017937D01*
X056055Y017784D01*
X056055Y017553D01*
X056055Y017784D02*
X056209Y017937D01*
X056209Y018014D01*
X056362Y018014D02*
X056362Y017937D01*
X056669Y017630D01*
X056669Y017553D01*
X056823Y017553D02*
X056976Y017707D01*
X056899Y017707D02*
X057130Y017707D01*
X057130Y017553D02*
X057130Y018014D01*
X056899Y018014D01*
X056823Y017937D01*
X056823Y017784D01*
X056899Y017707D01*
X056669Y018014D02*
X056362Y018014D01*
X056524Y017139D02*
X056448Y017062D01*
X056448Y016909D01*
X056524Y016832D01*
X056755Y016832D01*
X056755Y016678D02*
X056755Y017139D01*
X056524Y017139D01*
X056601Y016832D02*
X056448Y016678D01*
X056294Y016755D02*
X056218Y016678D01*
X056064Y016678D01*
X055987Y016755D01*
X055987Y016832D01*
X056064Y016909D01*
X056294Y016909D01*
X056294Y016755D01*
X056294Y016909D02*
X056141Y017062D01*
X055987Y017139D01*
X055834Y017139D02*
X055834Y017062D01*
X055680Y016909D01*
X055680Y016678D01*
X055680Y016909D02*
X055527Y017062D01*
X055527Y017139D01*
X057402Y017187D02*
X057402Y017264D01*
X057402Y017187D02*
X057555Y017034D01*
X057555Y016803D01*
X057555Y017034D02*
X057709Y017187D01*
X057709Y017264D01*
X057862Y017187D02*
X057862Y017110D01*
X057939Y017034D01*
X057862Y016957D01*
X057862Y016880D01*
X057939Y016803D01*
X058093Y016803D01*
X058169Y016880D01*
X058323Y016880D02*
X058399Y016803D01*
X058553Y016803D01*
X058630Y016880D01*
X058630Y017187D01*
X058553Y017264D01*
X058399Y017264D01*
X058323Y017187D01*
X058169Y017187D02*
X058093Y017264D01*
X057939Y017264D01*
X057862Y017187D01*
X057939Y017034D02*
X058016Y017034D01*
X057918Y017523D02*
X057618Y017523D01*
X057628Y018043D02*
X057918Y018043D01*
X058663Y019053D02*
X059124Y019053D01*
X059124Y019284D01*
X059047Y019360D01*
X058894Y019360D01*
X058817Y019284D01*
X058817Y019053D01*
X058817Y019207D02*
X058663Y019360D01*
X058740Y019514D02*
X058663Y019590D01*
X058663Y019744D01*
X058740Y019821D01*
X059047Y019821D01*
X059124Y019744D01*
X059124Y019590D01*
X059047Y019514D01*
X058970Y019514D01*
X058894Y019590D01*
X058894Y019821D01*
X058874Y019922D02*
X058874Y020152D01*
X058797Y020229D01*
X058644Y020229D01*
X058567Y020152D01*
X058567Y019922D01*
X058413Y019922D02*
X058874Y019922D01*
X059047Y019974D02*
X058894Y020128D01*
X058663Y020128D01*
X058567Y020076D02*
X058413Y020229D01*
X058490Y020383D02*
X058413Y020459D01*
X058413Y020613D01*
X058490Y020689D01*
X058567Y020689D01*
X058644Y020613D01*
X058644Y020383D01*
X058490Y020383D01*
X058644Y020383D02*
X058797Y020536D01*
X058874Y020689D01*
X058874Y020843D02*
X058874Y021073D01*
X058797Y021150D01*
X058490Y021150D01*
X058413Y021073D01*
X058413Y020843D01*
X058874Y020843D01*
X059413Y020843D02*
X059413Y021073D01*
X059490Y021150D01*
X059797Y021150D01*
X059874Y021073D01*
X059874Y020843D01*
X059413Y020843D01*
X059797Y020689D02*
X059490Y020383D01*
X059413Y020383D01*
X059413Y020229D02*
X059567Y020076D01*
X059567Y020152D02*
X059567Y019922D01*
X059413Y019922D02*
X059874Y019922D01*
X059874Y020152D01*
X059797Y020229D01*
X059644Y020229D01*
X059567Y020152D01*
X059874Y020383D02*
X059874Y020689D01*
X059797Y020689D01*
X060413Y020613D02*
X060413Y020459D01*
X060490Y020383D01*
X060567Y020383D01*
X060644Y020459D01*
X060644Y020613D01*
X060567Y020689D01*
X060490Y020689D01*
X060413Y020613D01*
X060413Y020843D02*
X060413Y021073D01*
X060490Y021150D01*
X060797Y021150D01*
X060874Y021073D01*
X060874Y020843D01*
X060413Y020843D01*
X060644Y020613D02*
X060720Y020689D01*
X060797Y020689D01*
X060874Y020613D01*
X060874Y020459D01*
X060797Y020383D01*
X060720Y020383D01*
X060644Y020459D01*
X060644Y020229D02*
X060567Y020152D01*
X060567Y019922D01*
X060413Y019922D02*
X060874Y019922D01*
X060874Y020152D01*
X060797Y020229D01*
X060644Y020229D01*
X060567Y020076D02*
X060413Y020229D01*
X060124Y019503D02*
X059663Y019503D01*
X059663Y019656D02*
X059663Y019349D01*
X059663Y019196D02*
X059817Y019042D01*
X059817Y019119D02*
X059817Y018889D01*
X059663Y018889D02*
X060124Y018889D01*
X060124Y019119D01*
X060047Y019196D01*
X059894Y019196D01*
X059817Y019119D01*
X059970Y019349D02*
X060124Y019503D01*
X060047Y018735D02*
X059740Y018428D01*
X059894Y018428D02*
X059894Y018735D01*
X059740Y018735D02*
X060047Y018428D01*
X060047Y018582D02*
X059740Y018582D01*
X059124Y019974D02*
X059047Y019974D01*
X058894Y020128D02*
X059047Y020281D01*
X059124Y020281D01*
X068913Y020803D02*
X069374Y020803D01*
X069374Y021034D01*
X069297Y021110D01*
X069144Y021110D01*
X069067Y021034D01*
X069067Y020803D01*
X069067Y020957D02*
X068913Y021110D01*
X068913Y021264D02*
X069220Y021571D01*
X069297Y021571D01*
X069374Y021494D01*
X069374Y021340D01*
X069297Y021264D01*
X068913Y021264D02*
X068913Y021571D01*
X068990Y021724D02*
X069297Y022031D01*
X068990Y022031D01*
X068913Y021954D01*
X068913Y021801D01*
X068990Y021724D01*
X069297Y021724D01*
X069374Y021801D01*
X069374Y021954D01*
X069297Y022031D01*
X078652Y021062D02*
X078652Y020909D01*
X078729Y020832D01*
X078959Y020832D01*
X078878Y020918D02*
X079168Y020918D01*
X079112Y020985D02*
X079112Y021062D01*
X079189Y021139D01*
X079343Y021139D01*
X079419Y021062D01*
X079573Y021062D02*
X079649Y021139D01*
X079803Y021139D01*
X079880Y021062D01*
X079880Y020755D01*
X079803Y020678D01*
X079649Y020678D01*
X079573Y020755D01*
X079419Y020678D02*
X079112Y020985D01*
X078959Y021139D02*
X078959Y020678D01*
X079112Y020678D02*
X079419Y020678D01*
X079168Y020398D02*
X078868Y020398D01*
X078959Y020139D02*
X078729Y020139D01*
X078652Y020062D01*
X078652Y019909D01*
X078729Y019832D01*
X078959Y019832D01*
X079043Y019918D02*
X078753Y019918D01*
X078959Y020139D02*
X078959Y019678D01*
X079112Y019755D02*
X079189Y019678D01*
X079343Y019678D01*
X079419Y019755D01*
X079573Y019755D02*
X079649Y019678D01*
X079803Y019678D01*
X079880Y019755D01*
X079880Y020062D01*
X079803Y020139D01*
X079649Y020139D01*
X079573Y020062D01*
X079419Y020062D02*
X079343Y020139D01*
X079189Y020139D01*
X079112Y020062D01*
X079112Y019985D01*
X079189Y019909D01*
X079112Y019832D01*
X079112Y019755D01*
X079189Y019909D02*
X079266Y019909D01*
X079043Y019398D02*
X078743Y019398D01*
X078834Y019139D02*
X078604Y019139D01*
X078527Y019062D01*
X078527Y018909D01*
X078604Y018832D01*
X078834Y018832D01*
X078834Y018678D02*
X078834Y019139D01*
X079141Y019139D02*
X079141Y018678D01*
X079294Y018678D02*
X078987Y018678D01*
X079294Y018985D02*
X079141Y019139D01*
X079448Y019062D02*
X079524Y019139D01*
X079678Y019139D01*
X079755Y019062D01*
X079755Y018755D01*
X079678Y018678D01*
X079524Y018678D01*
X079448Y018755D01*
X080771Y018909D02*
X080771Y019062D01*
X080847Y019139D01*
X081078Y019139D01*
X081078Y018678D01*
X081078Y018832D02*
X080847Y018832D01*
X080771Y018909D01*
X081231Y018909D02*
X081538Y018909D01*
X081308Y019139D01*
X081308Y018678D01*
X081368Y018418D02*
X081668Y018418D01*
X081768Y018678D02*
X081692Y018755D01*
X081768Y018678D02*
X081922Y018678D01*
X081998Y018755D01*
X081998Y019062D01*
X081922Y019139D01*
X081768Y019139D01*
X081692Y019062D01*
X081659Y017898D02*
X081368Y017898D01*
X082104Y016139D02*
X082027Y016062D01*
X082027Y015909D01*
X082104Y015832D01*
X082334Y015832D01*
X082334Y015678D02*
X082334Y016139D01*
X082104Y016139D01*
X082487Y016139D02*
X082794Y016139D01*
X082794Y015909D01*
X082641Y015985D01*
X082564Y015985D01*
X082487Y015909D01*
X082487Y015755D01*
X082564Y015678D01*
X082718Y015678D01*
X082794Y015755D01*
X082948Y015678D02*
X083101Y015832D01*
X083024Y015832D02*
X083255Y015832D01*
X083255Y015678D02*
X083255Y016139D01*
X083024Y016139D01*
X082948Y016062D01*
X082948Y015909D01*
X083024Y015832D01*
X085527Y018303D02*
X085834Y018303D01*
X085680Y018303D02*
X085680Y018764D01*
X085834Y018610D01*
X085987Y018534D02*
X086064Y018457D01*
X086294Y018457D01*
X086294Y018303D02*
X086294Y018764D01*
X086064Y018764D01*
X085987Y018687D01*
X085987Y018534D01*
X086448Y018534D02*
X086678Y018534D01*
X086755Y018610D01*
X086755Y018687D01*
X086678Y018764D01*
X086524Y018764D01*
X086448Y018687D01*
X086448Y018380D01*
X086524Y018303D01*
X086678Y018303D01*
X086755Y018380D01*
X086908Y018303D02*
X087062Y018457D01*
X086985Y018457D02*
X087215Y018457D01*
X087215Y018303D02*
X087215Y018764D01*
X086985Y018764D01*
X086908Y018687D01*
X086908Y018534D01*
X086985Y018457D01*
X086124Y020337D02*
X086124Y020567D01*
X086047Y020644D01*
X085894Y020644D01*
X085817Y020567D01*
X085817Y020337D01*
X085817Y020490D02*
X085663Y020644D01*
X085740Y020797D02*
X085663Y020874D01*
X085663Y021027D01*
X085740Y021104D01*
X086047Y021104D01*
X086124Y021027D01*
X086124Y020874D01*
X086047Y020797D01*
X085970Y020797D01*
X085894Y020874D01*
X085894Y021104D01*
X085817Y021258D02*
X085817Y021488D01*
X085894Y021564D01*
X086047Y021564D01*
X086124Y021488D01*
X086124Y021258D01*
X085663Y021258D01*
X085663Y021718D02*
X085970Y022025D01*
X086047Y022025D01*
X086124Y021948D01*
X086124Y021795D01*
X086047Y021718D01*
X085663Y021718D02*
X085663Y022025D01*
X085663Y023047D02*
X086124Y023047D01*
X086124Y023277D01*
X086047Y023354D01*
X085894Y023354D01*
X085817Y023277D01*
X085817Y023047D01*
X085817Y023201D02*
X085663Y023354D01*
X085740Y023508D02*
X085817Y023508D01*
X085894Y023584D01*
X085894Y023738D01*
X085817Y023814D01*
X085740Y023814D01*
X085663Y023738D01*
X085663Y023584D01*
X085740Y023508D01*
X085894Y023584D02*
X085970Y023508D01*
X086047Y023508D01*
X086124Y023584D01*
X086124Y023738D01*
X086047Y023814D01*
X085970Y023814D01*
X085894Y023738D01*
X085817Y023968D02*
X085817Y024198D01*
X085894Y024275D01*
X086047Y024275D01*
X086124Y024198D01*
X086124Y023968D01*
X085663Y023968D01*
X085663Y020337D02*
X086124Y020337D01*
X079168Y021398D02*
X078868Y021398D01*
X078959Y021139D02*
X078729Y021139D01*
X078652Y021062D01*
X078878Y021918D02*
X079168Y021918D01*
X075218Y030428D02*
X075064Y030428D01*
X074987Y030505D01*
X074834Y030505D02*
X074834Y030582D01*
X074757Y030659D01*
X074604Y030659D01*
X074527Y030582D01*
X074527Y030505D01*
X074604Y030428D01*
X074757Y030428D01*
X074834Y030505D01*
X074757Y030659D02*
X074834Y030735D01*
X074834Y030812D01*
X074757Y030889D01*
X074604Y030889D01*
X074527Y030812D01*
X074527Y030735D01*
X074604Y030659D01*
X074987Y030812D02*
X075064Y030889D01*
X075218Y030889D01*
X075294Y030812D01*
X075294Y030505D01*
X075218Y030428D01*
X075043Y031148D02*
X074743Y031148D01*
X074753Y031668D02*
X075043Y031668D01*
X071255Y032428D02*
X071255Y032889D01*
X071024Y032889D01*
X070948Y032812D01*
X070948Y032659D01*
X071024Y032582D01*
X071255Y032582D01*
X071101Y032582D02*
X070948Y032428D01*
X070794Y032428D02*
X070487Y032428D01*
X070641Y032428D02*
X070641Y032889D01*
X070794Y032735D01*
X070334Y032659D02*
X070104Y032659D01*
X070027Y032582D01*
X070027Y032505D01*
X070104Y032428D01*
X070257Y032428D01*
X070334Y032505D01*
X070334Y032659D01*
X070180Y032812D01*
X070027Y032889D01*
X072854Y036678D02*
X073007Y036678D01*
X073084Y036755D01*
X073237Y036678D02*
X073544Y036678D01*
X073391Y036678D02*
X073391Y037139D01*
X073544Y036985D01*
X073698Y036909D02*
X073774Y036832D01*
X074005Y036832D01*
X074005Y036678D02*
X074005Y037139D01*
X073774Y037139D01*
X073698Y037062D01*
X073698Y036909D01*
X073851Y036832D02*
X073698Y036678D01*
X073084Y037062D02*
X073007Y037139D01*
X072854Y037139D01*
X072777Y037062D01*
X072777Y036985D01*
X072854Y036909D01*
X072777Y036832D01*
X072777Y036755D01*
X072854Y036678D01*
X072854Y036909D02*
X072930Y036909D01*
X071999Y038297D02*
X071999Y038527D01*
X071922Y038604D01*
X071769Y038604D01*
X071692Y038527D01*
X071692Y038297D01*
X071538Y038297D02*
X071999Y038297D01*
X071692Y038451D02*
X071538Y038604D01*
X071538Y038758D02*
X071538Y039064D01*
X071538Y038911D02*
X071999Y038911D01*
X071845Y038758D01*
X071922Y039218D02*
X071999Y039295D01*
X071999Y039448D01*
X071922Y039525D01*
X071845Y039525D01*
X071538Y039218D01*
X071538Y039525D01*
X071611Y039678D02*
X071611Y040139D01*
X071765Y039985D01*
X071918Y040139D01*
X071918Y039678D01*
X072072Y039755D02*
X072149Y039678D01*
X072302Y039678D01*
X072379Y039755D01*
X072532Y039678D02*
X072839Y040139D01*
X072993Y040062D02*
X072993Y039985D01*
X073069Y039909D01*
X073223Y039909D01*
X073300Y039832D01*
X073300Y039755D01*
X073223Y039678D01*
X073069Y039678D01*
X072993Y039755D01*
X072993Y040062D02*
X073069Y040139D01*
X073223Y040139D01*
X073300Y040062D01*
X073453Y040139D02*
X073683Y040139D01*
X073760Y040062D01*
X073760Y039755D01*
X073683Y039678D01*
X073453Y039678D01*
X073453Y040139D01*
X072379Y040062D02*
X072302Y040139D01*
X072149Y040139D01*
X072072Y040062D01*
X072072Y039755D01*
X071458Y039678D02*
X071458Y040139D01*
X071305Y039985D01*
X071151Y040139D01*
X071151Y039678D01*
X070537Y039678D02*
X070384Y039678D01*
X070461Y039678D02*
X070461Y040139D01*
X070384Y040139D01*
X070154Y039985D02*
X070000Y039985D01*
X069923Y039909D01*
X069923Y039755D01*
X070000Y039678D01*
X070154Y039678D01*
X070230Y039755D01*
X070230Y039909D01*
X070154Y039985D01*
X069770Y039909D02*
X069770Y039678D01*
X069770Y039909D02*
X069693Y039985D01*
X069463Y039985D01*
X069463Y039678D01*
X069310Y039832D02*
X069003Y039832D01*
X069003Y039909D02*
X069079Y039985D01*
X069233Y039985D01*
X069310Y039909D01*
X069310Y039832D01*
X069233Y039678D02*
X069079Y039678D01*
X069003Y039755D01*
X069003Y039909D01*
X068849Y039909D02*
X068849Y039678D01*
X068849Y039909D02*
X068772Y039985D01*
X068619Y039985D01*
X068542Y039909D01*
X068389Y039909D02*
X068389Y039755D01*
X068312Y039678D01*
X068082Y039678D01*
X068144Y039593D02*
X068144Y039900D01*
X068082Y039985D02*
X068312Y039985D01*
X068389Y039909D01*
X068374Y039823D02*
X068144Y039593D01*
X068082Y039525D02*
X068082Y039985D01*
X067928Y039909D02*
X067928Y039678D01*
X067913Y039823D02*
X068374Y039823D01*
X068542Y039678D02*
X068542Y040139D01*
X067928Y039909D02*
X067852Y039985D01*
X067775Y039909D01*
X067775Y039678D01*
X067621Y039678D02*
X067621Y039985D01*
X067698Y039985D01*
X067775Y039909D01*
X067499Y039823D02*
X067422Y039900D01*
X067345Y039900D01*
X067269Y039823D01*
X067269Y039670D01*
X067345Y039593D01*
X067422Y039593D01*
X067499Y039670D01*
X067499Y039823D01*
X067468Y039909D02*
X067161Y039909D01*
X067192Y039900D02*
X067115Y039900D01*
X067038Y039823D01*
X067038Y039670D01*
X067115Y039593D01*
X067192Y039593D01*
X067269Y039670D01*
X067161Y039678D02*
X067161Y039985D01*
X067314Y040139D01*
X067468Y039985D01*
X067468Y039678D01*
X067269Y039823D02*
X067192Y039900D01*
X067038Y039439D02*
X067038Y039133D01*
X067038Y039286D02*
X067499Y039286D01*
X067345Y039133D01*
X067269Y038979D02*
X067192Y038902D01*
X067192Y038672D01*
X067038Y038672D02*
X067499Y038672D01*
X067499Y038902D01*
X067422Y038979D01*
X067269Y038979D01*
X067192Y038826D02*
X067038Y038979D01*
X067913Y038979D02*
X068067Y038826D01*
X068067Y038902D02*
X068067Y038672D01*
X067913Y038672D02*
X068374Y038672D01*
X068374Y038902D01*
X068297Y038979D01*
X068144Y038979D01*
X068067Y038902D01*
X068220Y039133D02*
X068374Y039286D01*
X067913Y039286D01*
X067913Y039133D02*
X067913Y039439D01*
X067922Y038275D02*
X067615Y037968D01*
X067538Y037968D01*
X067538Y037814D02*
X067538Y037508D01*
X067538Y037661D02*
X067999Y037661D01*
X067845Y037508D01*
X067769Y037354D02*
X067692Y037277D01*
X067692Y037047D01*
X067538Y037047D02*
X067999Y037047D01*
X067999Y037277D01*
X067922Y037354D01*
X067769Y037354D01*
X067692Y037201D02*
X067538Y037354D01*
X067999Y037968D02*
X067999Y038275D01*
X067922Y038275D01*
X069652Y037264D02*
X069959Y037264D01*
X069959Y037034D01*
X069805Y037110D01*
X069729Y037110D01*
X069652Y037034D01*
X069652Y036880D01*
X069729Y036803D01*
X069882Y036803D01*
X069959Y036880D01*
X070112Y036803D02*
X070419Y036803D01*
X070266Y036803D02*
X070266Y037264D01*
X070419Y037110D01*
X070573Y037034D02*
X070649Y036957D01*
X070880Y036957D01*
X070880Y036803D02*
X070880Y037264D01*
X070649Y037264D01*
X070573Y037187D01*
X070573Y037034D01*
X070726Y036957D02*
X070573Y036803D01*
X074663Y037928D02*
X075124Y037928D01*
X075124Y038159D01*
X075047Y038235D01*
X074894Y038235D01*
X074817Y038159D01*
X074817Y037928D01*
X074817Y038082D02*
X074663Y038235D01*
X074663Y038389D02*
X074663Y038696D01*
X074663Y038849D02*
X074663Y039156D01*
X074663Y039003D02*
X075124Y039003D01*
X074970Y038849D01*
X075124Y038542D02*
X074663Y038542D01*
X074970Y038389D02*
X075124Y038542D01*
X066186Y041928D02*
X066186Y042159D01*
X066110Y042235D01*
X065956Y042235D01*
X065879Y042159D01*
X065879Y041928D01*
X065726Y041928D02*
X066186Y041928D01*
X065879Y042082D02*
X065726Y042235D01*
X065803Y042389D02*
X065726Y042465D01*
X065726Y042619D01*
X065803Y042696D01*
X065879Y042696D01*
X065956Y042619D01*
X065956Y042389D01*
X065803Y042389D01*
X065956Y042389D02*
X066110Y042542D01*
X066186Y042696D01*
X064419Y042764D02*
X064189Y042764D01*
X064112Y042687D01*
X064112Y042534D01*
X064189Y042457D01*
X064419Y042457D01*
X064266Y042457D02*
X064112Y042303D01*
X063959Y042380D02*
X063882Y042303D01*
X063729Y042303D01*
X063652Y042380D01*
X063652Y042687D01*
X063729Y042764D01*
X063882Y042764D01*
X063959Y042687D01*
X063959Y042610D01*
X063882Y042534D01*
X063652Y042534D01*
X063729Y041889D02*
X063652Y041812D01*
X063652Y041735D01*
X063729Y041659D01*
X063882Y041659D01*
X063959Y041735D01*
X063959Y041812D01*
X063882Y041889D01*
X063729Y041889D01*
X063729Y041659D02*
X063652Y041582D01*
X063652Y041505D01*
X063729Y041428D01*
X063882Y041428D01*
X063959Y041505D01*
X063959Y041582D01*
X063882Y041659D01*
X064112Y041659D02*
X064189Y041582D01*
X064419Y041582D01*
X064266Y041582D02*
X064112Y041428D01*
X064112Y041659D02*
X064112Y041812D01*
X064189Y041889D01*
X064419Y041889D01*
X064419Y041428D01*
X064419Y041014D02*
X064189Y041014D01*
X064112Y040937D01*
X064112Y040784D01*
X064189Y040707D01*
X064419Y040707D01*
X064266Y040707D02*
X064112Y040553D01*
X063959Y040630D02*
X063882Y040553D01*
X063729Y040553D01*
X063652Y040630D01*
X063652Y040784D01*
X063729Y040860D01*
X063805Y040860D01*
X063959Y040784D01*
X063959Y041014D01*
X063652Y041014D01*
X064419Y041014D02*
X064419Y040553D01*
X064419Y042303D02*
X064419Y042764D01*
X063692Y043616D02*
X063692Y044076D01*
X063462Y044076D01*
X063385Y043999D01*
X063385Y043846D01*
X063462Y043769D01*
X063692Y043769D01*
X063539Y043769D02*
X063385Y043616D01*
X063232Y043616D02*
X062925Y043616D01*
X063078Y043616D02*
X063078Y044076D01*
X063232Y043923D01*
X062771Y043999D02*
X062695Y044076D01*
X062541Y044076D01*
X062464Y043999D01*
X062771Y043693D01*
X062695Y043616D01*
X062541Y043616D01*
X062464Y043693D01*
X062464Y043999D01*
X062771Y043999D02*
X062771Y043693D01*
X059811Y045803D02*
X059811Y046264D01*
X059581Y046264D01*
X059504Y046187D01*
X059504Y046034D01*
X059581Y045957D01*
X059811Y045957D01*
X059658Y045957D02*
X059504Y045803D01*
X059351Y046034D02*
X059044Y046034D01*
X059120Y046264D02*
X059351Y046034D01*
X059120Y046264D02*
X059120Y045803D01*
X057249Y045940D02*
X056788Y045940D01*
X056788Y045787D02*
X056788Y046094D01*
X057095Y045787D02*
X057249Y045940D01*
X057249Y045633D02*
X057249Y045326D01*
X056788Y045326D01*
X056788Y045633D01*
X057019Y045480D02*
X057019Y045326D01*
X057172Y045173D02*
X057249Y045096D01*
X057249Y044943D01*
X057172Y044866D01*
X056865Y044866D01*
X056788Y044943D01*
X056788Y045096D01*
X056865Y045173D01*
X056528Y045196D02*
X056528Y045496D01*
X056009Y045496D02*
X056009Y045206D01*
X021249Y033349D02*
X020788Y033349D01*
X020788Y033656D01*
X020578Y033288D02*
X020578Y032528D01*
X020788Y032505D02*
X020788Y032659D01*
X020865Y032735D01*
X020788Y032889D02*
X021249Y032889D01*
X021249Y033119D01*
X021172Y033196D01*
X021019Y033196D01*
X020942Y033119D01*
X020942Y032889D01*
X020942Y033042D02*
X020788Y033196D01*
X021172Y032735D02*
X021249Y032659D01*
X021249Y032505D01*
X021172Y032428D01*
X020865Y032428D01*
X020788Y032505D01*
X019959Y032528D02*
X019959Y033288D01*
X066402Y012812D02*
X066479Y012889D01*
X066632Y012889D01*
X066709Y012812D01*
X066862Y012812D02*
X066862Y012659D01*
X066939Y012582D01*
X067169Y012582D01*
X067016Y012582D02*
X066862Y012428D01*
X066709Y012428D02*
X066402Y012735D01*
X066402Y012812D01*
X066402Y012428D02*
X066709Y012428D01*
X066862Y012812D02*
X066939Y012889D01*
X067169Y012889D01*
X067169Y012428D01*
X067323Y012505D02*
X067630Y012812D01*
X067630Y012659D02*
X067323Y012659D01*
X067323Y012812D02*
X067630Y012505D01*
X067476Y012505D02*
X067476Y012812D01*
X081889Y012968D02*
X082648Y012968D01*
X082648Y012348D02*
X081889Y012348D01*
X081979Y012139D02*
X081902Y012062D01*
X081902Y011909D01*
X081979Y011832D01*
X082209Y011832D01*
X082209Y011678D02*
X082209Y012139D01*
X081979Y012139D01*
X082362Y012139D02*
X082669Y012139D01*
X082669Y011909D01*
X082516Y011985D01*
X082439Y011985D01*
X082362Y011909D01*
X082362Y011755D01*
X082439Y011678D01*
X082593Y011678D01*
X082669Y011755D01*
X082823Y011755D02*
X082899Y011678D01*
X083053Y011678D01*
X083130Y011755D01*
X083130Y012062D01*
X083053Y012139D01*
X082899Y012139D01*
X082823Y012062D01*
X082899Y011139D02*
X082823Y011062D01*
X082823Y010909D01*
X082899Y010832D01*
X083130Y010832D01*
X083130Y010678D02*
X083130Y011139D01*
X082899Y011139D01*
X082976Y010832D02*
X082823Y010678D01*
X082669Y010755D02*
X082593Y010678D01*
X082439Y010678D01*
X082362Y010755D01*
X082362Y010832D01*
X082439Y010909D01*
X082669Y010909D01*
X082669Y010755D01*
X082669Y010909D02*
X082516Y011062D01*
X082362Y011139D01*
X082209Y011139D02*
X081979Y011139D01*
X081902Y011062D01*
X081902Y010909D01*
X081979Y010832D01*
X082209Y010832D01*
X082209Y010678D02*
X082209Y011139D01*
X085663Y011209D02*
X085663Y011363D01*
X085740Y011439D01*
X086047Y011439D01*
X086124Y011363D01*
X086124Y011209D01*
X086047Y011133D01*
X085970Y011133D01*
X085894Y011209D01*
X085894Y011439D01*
X085817Y011593D02*
X085817Y011823D01*
X085894Y011900D01*
X086047Y011900D01*
X086124Y011823D01*
X086124Y011593D01*
X085663Y011593D01*
X085663Y011209D02*
X085740Y011133D01*
X085663Y010979D02*
X085817Y010826D01*
X085817Y010902D02*
X085817Y010672D01*
X085663Y010672D02*
X086124Y010672D01*
X086124Y010902D01*
X086047Y010979D01*
X085894Y010979D01*
X085817Y010902D01*
X093163Y028803D02*
X093624Y028803D01*
X093624Y029034D01*
X093547Y029110D01*
X093394Y029110D01*
X093317Y029034D01*
X093317Y028803D01*
X093317Y028957D02*
X093163Y029110D01*
X093240Y029264D02*
X093163Y029340D01*
X093163Y029494D01*
X093240Y029571D01*
X093317Y029571D01*
X093394Y029494D01*
X093394Y029417D01*
X093394Y029494D02*
X093470Y029571D01*
X093547Y029571D01*
X093624Y029494D01*
X093624Y029340D01*
X093547Y029264D01*
X093394Y029724D02*
X093394Y030031D01*
X093624Y029954D02*
X093394Y029724D01*
X093163Y029954D02*
X093624Y029954D01*
X093624Y030803D02*
X093624Y031034D01*
X093547Y031110D01*
X093394Y031110D01*
X093317Y031034D01*
X093317Y030803D01*
X093163Y030803D02*
X093624Y030803D01*
X093317Y030957D02*
X093163Y031110D01*
X093163Y031264D02*
X093163Y031571D01*
X093163Y031724D02*
X093163Y032031D01*
X093163Y031878D02*
X093624Y031878D01*
X093470Y031724D01*
X093624Y031417D02*
X093163Y031417D01*
X093470Y031264D02*
X093624Y031417D01*
X093547Y032185D02*
X093624Y032261D01*
X093624Y032415D01*
X093547Y032491D01*
X093470Y032491D01*
X093163Y032185D01*
X093163Y032491D01*
X092749Y032417D02*
X092288Y032417D01*
X092288Y032264D02*
X092288Y032571D01*
X092288Y032724D02*
X092595Y033031D01*
X092672Y033031D01*
X092749Y032954D01*
X092749Y032801D01*
X092672Y032724D01*
X092749Y032417D02*
X092595Y032264D01*
X092519Y032110D02*
X092442Y032034D01*
X092442Y031803D01*
X092288Y031803D02*
X092749Y031803D01*
X092749Y032034D01*
X092672Y032110D01*
X092519Y032110D01*
X092442Y031957D02*
X092288Y032110D01*
X092288Y032724D02*
X092288Y033031D01*
X092288Y033185D02*
X092595Y033491D01*
X092672Y033491D01*
X092749Y033415D01*
X092749Y033261D01*
X092672Y033185D01*
X092288Y033185D02*
X092288Y033491D01*
X092365Y033645D02*
X092288Y033722D01*
X092288Y033875D01*
X092365Y033952D01*
X092442Y033952D01*
X092519Y033875D01*
X092519Y033798D01*
X092519Y033875D02*
X092595Y033952D01*
X092672Y033952D01*
X092749Y033875D01*
X092749Y033722D01*
X092672Y033645D01*
X092672Y031031D02*
X092595Y031031D01*
X092519Y030954D01*
X092442Y031031D01*
X092365Y031031D01*
X092288Y030954D01*
X092288Y030801D01*
X092365Y030724D01*
X092288Y030571D02*
X092442Y030417D01*
X092442Y030494D02*
X092442Y030264D01*
X092288Y030264D02*
X092749Y030264D01*
X092749Y030494D01*
X092672Y030571D01*
X092519Y030571D01*
X092442Y030494D01*
X092672Y030724D02*
X092749Y030801D01*
X092749Y030954D01*
X092672Y031031D01*
X092519Y030954D02*
X092519Y030878D01*
X092519Y030110D02*
X092519Y029803D01*
D12*
X092644Y029321D03*
X092644Y028741D03*
X091769Y029741D03*
X091769Y030321D03*
X092644Y030741D03*
X092644Y031321D03*
X091769Y031741D03*
X091769Y032321D03*
X074144Y037866D03*
X074144Y038446D03*
X068893Y039495D03*
X068893Y040075D03*
X068018Y040075D03*
X068018Y039495D03*
X068518Y038450D03*
X068518Y037870D03*
X068394Y021321D03*
X068394Y020741D03*
X061393Y020745D03*
X061393Y021325D03*
X060393Y021325D03*
X060393Y020745D03*
X059393Y020745D03*
X059393Y021325D03*
X058393Y021325D03*
X058393Y020745D03*
X057393Y020745D03*
X057393Y021325D03*
X056518Y021325D03*
X056518Y020745D03*
X054768Y020745D03*
X054768Y021325D03*
X052143Y020200D03*
X052143Y019620D03*
X053394Y018321D03*
X053394Y017741D03*
X054394Y017741D03*
X054394Y018321D03*
X058144Y018991D03*
X058144Y019571D03*
X059144Y018946D03*
X059144Y018366D03*
D13*
X064018Y035033D02*
X064018Y035433D01*
X064018Y038633D02*
X064018Y039033D01*
D14*
X063394Y038023D02*
X063169Y037798D01*
X063169Y038098D01*
X063394Y038023D02*
X062943Y038023D01*
X062943Y037638D02*
X062943Y037338D01*
X063244Y037638D01*
X063319Y037638D01*
X063394Y037563D01*
X063394Y037413D01*
X063319Y037338D01*
X063319Y037177D02*
X063169Y037177D01*
X063094Y037102D01*
X063094Y036877D01*
X063094Y037027D02*
X062943Y037177D01*
X062943Y036877D02*
X063394Y036877D01*
X063394Y037102D01*
X063319Y037177D01*
X062725Y014034D02*
X062800Y013959D01*
X062800Y013658D01*
X062725Y013583D01*
X062574Y013583D01*
X062499Y013658D01*
X062339Y013583D02*
X062039Y013583D01*
X062189Y013583D02*
X062189Y014034D01*
X062339Y013884D01*
X062499Y013959D02*
X062574Y014034D01*
X062725Y014034D01*
X061879Y014034D02*
X061879Y013959D01*
X061729Y013809D01*
X061729Y013583D01*
X061729Y013809D02*
X061579Y013959D01*
X061579Y014034D01*
X059925Y013959D02*
X059925Y013658D01*
X059850Y013583D01*
X059699Y013583D01*
X059624Y013658D01*
X059464Y013583D02*
X059164Y013884D01*
X059164Y013959D01*
X059239Y014034D01*
X059389Y014034D01*
X059464Y013959D01*
X059624Y013959D02*
X059699Y014034D01*
X059850Y014034D01*
X059925Y013959D01*
X059464Y013583D02*
X059164Y013583D01*
X058854Y013583D02*
X058854Y013809D01*
X058704Y013959D01*
X058704Y014034D01*
X058854Y013809D02*
X059004Y013959D01*
X059004Y014034D01*
D15*
X064018Y035613D03*
X064018Y038453D03*
D16*
X038393Y021088D03*
X038393Y019978D03*
X039768Y018588D03*
X039768Y017478D03*
D17*
X055726Y018533D03*
X056306Y018533D03*
X066226Y013408D03*
X066806Y013408D03*
X069851Y033408D03*
X070431Y033408D03*
X070056Y037783D03*
X069476Y037783D03*
X072601Y037658D03*
X073181Y037658D03*
X064056Y041533D03*
X063476Y041533D03*
X063476Y042408D03*
X064056Y042408D03*
X064056Y043283D03*
X063476Y043283D03*
X062869Y044595D03*
X062289Y044595D03*
X059873Y045284D03*
X059293Y045284D03*
X018306Y012658D03*
X017726Y012658D03*
X017481Y010409D03*
X018061Y010409D03*
D18*
X053018Y019263D03*
X053018Y020303D03*
X053893Y020388D03*
X053893Y021428D03*
X072518Y038638D03*
X072518Y039678D03*
X065206Y041888D03*
X065206Y042928D03*
X086643Y022178D03*
X086643Y021138D03*
X086643Y012053D03*
X086643Y011013D03*
D19*
X082788Y011658D03*
X081748Y011658D03*
X085373Y019283D03*
X086413Y019283D03*
X056413Y017658D03*
X055373Y017658D03*
X055538Y019408D03*
X054498Y019408D03*
X052413Y018158D03*
X051373Y018158D03*
D20*
X057486Y017783D03*
X058056Y017783D03*
X078611Y019658D03*
X079181Y019658D03*
X079306Y020658D03*
X078736Y020658D03*
X078736Y021658D03*
X079306Y021658D03*
X081231Y018159D03*
X081801Y018159D03*
X075181Y031408D03*
X074611Y031408D03*
X034051Y018534D03*
X033481Y018534D03*
D21*
X057718Y014658D03*
X060593Y014658D03*
D22*
X081838Y016658D03*
X082948Y016658D03*
X019323Y011533D03*
X018213Y011533D03*
D23*
X081746Y012659D03*
X082791Y012658D03*
D24*
X086643Y023568D03*
X086643Y024248D03*
X055643Y021373D03*
X055643Y020693D03*
D25*
X051268Y020191D03*
X051268Y019621D03*
X046519Y016696D03*
X046519Y016126D03*
X056269Y045063D03*
X056269Y045633D03*
D26*
X020269Y033431D03*
X020268Y032386D03*
X022644Y009556D03*
X022643Y008511D03*
M02*
