G75*
G70*
%OFA0B0*%
%FSLAX24Y24*%
%IPPOS*%
%LPD*%
%AMOC8*
5,1,8,0,0,1.08239X$1,22.5*
%
%ADD10C,0.0060*%
%ADD11C,0.0051*%
%ADD12C,0.0110*%
%ADD13C,0.0001*%
%ADD14C,0.0000*%
%ADD15C,0.0050*%
D10*
X103235Y045597D02*
X103449Y045810D01*
X103235Y046024D01*
X103876Y046024D01*
X103876Y046241D02*
X103876Y046455D01*
X103876Y046348D02*
X103449Y046348D01*
X103449Y046241D01*
X103235Y046348D02*
X103129Y046348D01*
X103449Y046671D02*
X103449Y046991D01*
X103556Y047098D01*
X103876Y047098D01*
X103876Y047316D02*
X103876Y047529D01*
X103876Y047422D02*
X103449Y047422D01*
X103449Y047316D01*
X103235Y047422D02*
X103129Y047422D01*
X103556Y047745D02*
X103556Y048172D01*
X103449Y048390D02*
X103556Y048497D01*
X103556Y048710D01*
X103662Y048817D01*
X103769Y048817D01*
X103876Y048710D01*
X103876Y048497D01*
X103769Y048390D01*
X103449Y048390D02*
X103342Y048390D01*
X103235Y048497D01*
X103235Y048710D01*
X103342Y048817D01*
X103235Y049034D02*
X103235Y049462D01*
X103235Y049248D02*
X103876Y049248D01*
X103876Y049679D02*
X103235Y050106D01*
X103235Y049679D02*
X103876Y050106D01*
X103876Y050968D02*
X103876Y051395D01*
X103876Y051182D02*
X103235Y051182D01*
X103449Y050968D01*
X103556Y051613D02*
X103556Y052040D01*
X103769Y052257D02*
X103342Y052684D01*
X103235Y052684D01*
X103235Y052257D01*
X103235Y051933D02*
X103556Y051613D01*
X103876Y051933D02*
X103235Y051933D01*
X103769Y052257D02*
X103876Y052257D01*
X103769Y052902D02*
X103342Y053329D01*
X103556Y053329D02*
X103556Y052902D01*
X103342Y052902D02*
X103769Y053329D01*
X103769Y053115D02*
X103342Y053115D01*
X103449Y053546D02*
X103235Y053760D01*
X103876Y053760D01*
X103876Y053973D02*
X103876Y053546D01*
X103556Y054191D02*
X103556Y054618D01*
X103769Y054835D02*
X103342Y054835D01*
X103235Y054942D01*
X103235Y055156D01*
X103342Y055262D01*
X103769Y054835D01*
X103876Y054942D01*
X103876Y055156D01*
X103769Y055262D01*
X103342Y055262D01*
X103235Y054511D02*
X103556Y054191D01*
X103876Y054511D02*
X103235Y054511D01*
X103449Y046671D02*
X103876Y046671D01*
X103876Y045597D02*
X103235Y045597D01*
D11*
X013831Y017200D02*
X013831Y015153D01*
X013882Y016176D02*
X013831Y017200D01*
X013933Y016176D01*
X013957Y016176D02*
X013831Y017200D01*
X013729Y016176D01*
X013705Y016176D02*
X013957Y016176D01*
X013780Y016176D02*
X013831Y017200D01*
X013705Y016176D01*
X013044Y017200D02*
X021831Y017200D01*
X022419Y017200D02*
X112831Y017200D01*
X107956Y019450D02*
X119368Y019450D01*
X118581Y019450D02*
X118683Y020474D01*
X118707Y020474D02*
X118581Y019450D01*
X118479Y020474D01*
X118455Y020474D02*
X118707Y020474D01*
X118632Y020474D02*
X118581Y019450D01*
X118530Y020474D01*
X118455Y020474D02*
X118581Y019450D01*
X118581Y050950D01*
X118683Y049926D01*
X118707Y049926D02*
X118581Y050950D01*
X118479Y049926D01*
X118455Y049926D02*
X118707Y049926D01*
X118632Y049926D02*
X118581Y050950D01*
X118530Y049926D01*
X118455Y049926D02*
X118581Y050950D01*
X119368Y050950D02*
X035581Y050950D01*
X045081Y065825D02*
X001544Y065825D01*
X002331Y065825D02*
X002433Y064801D01*
X002457Y064801D02*
X002331Y065825D01*
X002229Y064801D01*
X002205Y064801D02*
X002457Y064801D01*
X002382Y064801D02*
X002331Y065825D01*
X002280Y064801D01*
X002205Y064801D02*
X002331Y065825D01*
X002331Y063778D01*
X002331Y068700D02*
X002433Y069724D01*
X002457Y069724D02*
X002331Y068700D01*
X002229Y069724D01*
X002205Y069724D02*
X002457Y069724D01*
X002382Y069724D02*
X002331Y068700D01*
X002280Y069724D01*
X002205Y069724D02*
X002331Y068700D01*
X002331Y072465D01*
X001544Y068700D02*
X021581Y068700D01*
X022419Y068325D02*
X109581Y068325D01*
X099456Y071825D02*
X099456Y011288D01*
X099456Y012075D02*
X098432Y012177D01*
X098432Y012201D02*
X098432Y011949D01*
X099456Y012075D01*
X098432Y011973D01*
X098432Y012024D02*
X099456Y012075D01*
X098432Y012126D01*
X098432Y012201D02*
X099456Y012075D01*
X041581Y012075D01*
X042605Y011973D01*
X042605Y011949D02*
X041581Y012075D01*
X042605Y012177D01*
X042605Y012201D02*
X042605Y011949D01*
X042605Y012024D02*
X041581Y012075D01*
X042605Y012126D01*
X042605Y012201D02*
X041581Y012075D01*
X041581Y011288D02*
X041581Y068700D01*
X043831Y072325D02*
X043831Y007788D01*
X043831Y008575D02*
X044855Y008473D01*
X044855Y008449D02*
X043831Y008575D01*
X044855Y008677D01*
X044855Y008701D02*
X044855Y008449D01*
X044855Y008524D02*
X043831Y008575D01*
X044855Y008626D01*
X044855Y008701D02*
X043831Y008575D01*
X048692Y008575D01*
X041581Y008575D02*
X040557Y008473D01*
X040557Y008449D02*
X041581Y008575D01*
X040557Y008677D01*
X040557Y008701D02*
X040557Y008449D01*
X040557Y008524D02*
X041581Y008575D01*
X040557Y008626D01*
X040557Y008701D02*
X041581Y008575D01*
X039534Y008575D01*
X041581Y007788D02*
X041581Y010700D01*
X041581Y007450D02*
X041581Y001663D01*
X041581Y002450D02*
X042605Y002348D01*
X042605Y002324D02*
X041581Y002450D01*
X042605Y002552D01*
X042605Y002576D02*
X042605Y002324D01*
X042605Y002399D02*
X041581Y002450D01*
X042605Y002501D01*
X042605Y002576D02*
X041581Y002450D01*
X070456Y002450D01*
X069432Y002348D01*
X069432Y002324D02*
X070456Y002450D01*
X069432Y002552D01*
X069432Y002576D02*
X069432Y002324D01*
X069432Y002399D02*
X070456Y002450D01*
X069432Y002501D01*
X069432Y002576D02*
X070456Y002450D01*
X070456Y001663D02*
X070456Y016450D01*
X095159Y007950D02*
X097206Y007950D01*
X096182Y007848D01*
X096182Y007824D02*
X097206Y007950D01*
X096182Y008052D01*
X096182Y008076D02*
X096182Y007824D01*
X096182Y007899D02*
X097206Y007950D01*
X096182Y008001D01*
X096182Y008076D02*
X097206Y007950D01*
X097206Y007163D02*
X097206Y071825D01*
X023332Y067301D02*
X023206Y068325D01*
X023308Y067301D01*
X023332Y067301D02*
X023080Y067301D01*
X023206Y068325D01*
X023104Y067301D01*
X023155Y067301D02*
X023206Y068325D01*
X023257Y067301D01*
X023206Y068325D02*
X023206Y017200D01*
X023308Y018224D01*
X023332Y018224D02*
X023206Y017200D01*
X023104Y018224D01*
X023080Y018224D02*
X023332Y018224D01*
X023257Y018224D02*
X023206Y017200D01*
X023155Y018224D01*
X023080Y018224D02*
X023206Y017200D01*
X013831Y019450D02*
X013933Y020474D01*
X013957Y020474D02*
X013831Y019450D01*
X013729Y020474D01*
X013705Y020474D02*
X013957Y020474D01*
X013882Y020474D02*
X013831Y019450D01*
X013780Y020474D01*
X013705Y020474D02*
X013831Y019450D01*
X013831Y024311D01*
X013044Y019450D02*
X107331Y019450D01*
X099456Y010450D02*
X099456Y007163D01*
X099456Y007950D02*
X100480Y007848D01*
X100480Y007824D02*
X099456Y007950D01*
X100480Y008052D01*
X100480Y008076D02*
X100480Y007824D01*
X100480Y007899D02*
X099456Y007950D01*
X100480Y008001D01*
X100480Y008076D02*
X099456Y007950D01*
X104317Y007950D01*
D12*
X104553Y008399D02*
X103707Y008399D01*
X104553Y009245D01*
X104553Y009456D01*
X104341Y009668D01*
X103918Y009668D01*
X103707Y009456D01*
X103284Y009456D02*
X102438Y008610D01*
X102438Y008399D01*
X102015Y008399D02*
X101803Y008399D01*
X101803Y008610D01*
X102015Y008610D01*
X102015Y008399D01*
X101381Y008610D02*
X101169Y008399D01*
X100746Y008399D01*
X100535Y008610D01*
X100535Y009033D02*
X100958Y009245D01*
X101169Y009245D01*
X101381Y009033D01*
X101381Y008610D01*
X100535Y009033D02*
X100535Y009668D01*
X101381Y009668D01*
X102438Y009668D02*
X103284Y009668D01*
X103284Y009456D01*
X072312Y013581D02*
X071466Y012735D01*
X071466Y012524D01*
X070832Y012524D02*
X070832Y013793D01*
X070198Y013158D01*
X071044Y013158D01*
X071466Y013793D02*
X072312Y013793D01*
X072312Y013581D01*
X069775Y012524D02*
X068929Y012524D01*
X069352Y012524D02*
X069352Y013793D01*
X068929Y013370D01*
X058682Y004168D02*
X058047Y003533D01*
X058893Y003533D01*
X058682Y002899D02*
X058682Y004168D01*
X057625Y003956D02*
X057625Y003745D01*
X057413Y003533D01*
X057625Y003322D01*
X057625Y003110D01*
X057413Y002899D01*
X056990Y002899D01*
X056779Y003110D01*
X056356Y003110D02*
X056356Y002899D01*
X056144Y002899D01*
X056144Y003110D01*
X056356Y003110D01*
X055721Y003110D02*
X055510Y002899D01*
X055087Y002899D01*
X054875Y003110D01*
X055298Y003533D02*
X055510Y003533D01*
X055721Y003322D01*
X055721Y003110D01*
X055510Y003533D02*
X055721Y003745D01*
X055721Y003956D01*
X055510Y004168D01*
X055087Y004168D01*
X054875Y003956D01*
X054453Y003956D02*
X053607Y003110D01*
X053607Y002899D01*
X054453Y003956D02*
X054453Y004168D01*
X053607Y004168D01*
X056779Y003956D02*
X056990Y004168D01*
X057413Y004168D01*
X057625Y003956D01*
X057413Y003533D02*
X057202Y003533D01*
X048928Y009024D02*
X048082Y009024D01*
X048928Y009870D01*
X048928Y010081D01*
X048716Y010293D01*
X048293Y010293D01*
X048082Y010081D01*
X047659Y010081D02*
X046813Y009235D01*
X046813Y009024D01*
X046390Y009024D02*
X046178Y009024D01*
X046178Y009235D01*
X046390Y009235D01*
X046390Y009024D01*
X045756Y009235D02*
X045544Y009024D01*
X045121Y009024D01*
X044910Y009235D01*
X044910Y009658D02*
X045333Y009870D01*
X045544Y009870D01*
X045756Y009658D01*
X045756Y009235D01*
X044910Y009658D02*
X044910Y010293D01*
X045756Y010293D01*
X046813Y010293D02*
X047659Y010293D01*
X047659Y010081D01*
X013382Y020740D02*
X013171Y020529D01*
X013382Y020740D02*
X013382Y021163D01*
X013171Y021375D01*
X012748Y021375D01*
X012536Y021163D01*
X012536Y020952D01*
X012748Y020529D01*
X012113Y020529D01*
X012113Y021375D01*
X013171Y021797D02*
X013171Y022009D01*
X013382Y022009D01*
X013382Y021797D01*
X013171Y021797D01*
X013171Y022432D02*
X013382Y022432D01*
X013171Y022432D02*
X012325Y023278D01*
X012113Y023278D01*
X012113Y022432D01*
X012325Y023701D02*
X012113Y023912D01*
X012113Y024335D01*
X012325Y024547D01*
X012536Y024547D01*
X013382Y023701D01*
X013382Y024547D01*
X021911Y039802D02*
X021488Y040225D01*
X022757Y040225D01*
X022757Y039802D02*
X022757Y040648D01*
X022757Y041071D02*
X021911Y041917D01*
X021700Y041917D01*
X021488Y041706D01*
X021488Y041283D01*
X021700Y041071D01*
X022757Y041071D02*
X022757Y041917D01*
X022546Y042340D02*
X022757Y042551D01*
X022757Y042975D01*
X022546Y043186D01*
X021700Y043186D01*
X021488Y042975D01*
X021488Y042551D01*
X021700Y042340D01*
X021911Y042340D01*
X022123Y042551D01*
X022123Y043186D01*
X022546Y043609D02*
X022546Y043820D01*
X022757Y043820D01*
X022757Y043609D01*
X022546Y043609D01*
X022546Y044243D02*
X022334Y044243D01*
X022123Y044455D01*
X022123Y044878D01*
X022334Y045089D01*
X022546Y045089D01*
X022757Y044878D01*
X022757Y044455D01*
X022546Y044243D01*
X022123Y044455D02*
X021911Y044243D01*
X021700Y044243D01*
X021488Y044455D01*
X021488Y044878D01*
X021700Y045089D01*
X021911Y045089D01*
X022123Y044878D01*
X022123Y045512D02*
X022123Y046147D01*
X022334Y046358D01*
X022546Y046358D01*
X022757Y046147D01*
X022757Y045723D01*
X022546Y045512D01*
X022123Y045512D01*
X021700Y045935D01*
X021488Y046358D01*
X001882Y069779D02*
X001671Y069779D01*
X000825Y070625D01*
X000613Y070625D01*
X000613Y069779D01*
X001671Y071047D02*
X001671Y071259D01*
X001882Y071259D01*
X001882Y071047D01*
X001671Y071047D01*
X001671Y071682D02*
X001882Y071893D01*
X001882Y072316D01*
X001671Y072528D01*
X001459Y072528D01*
X001248Y072316D01*
X001248Y072105D01*
X001248Y072316D02*
X001036Y072528D01*
X000825Y072528D01*
X000613Y072316D01*
X000613Y071893D01*
X000825Y071682D01*
X116863Y037652D02*
X118132Y037652D01*
X118132Y037229D02*
X118132Y038075D01*
X117286Y037229D02*
X116863Y037652D01*
X117075Y036806D02*
X117921Y035960D01*
X118132Y036172D01*
X118132Y036595D01*
X117921Y036806D01*
X117075Y036806D01*
X116863Y036595D01*
X116863Y036172D01*
X117075Y035960D01*
X117921Y035960D01*
X117921Y035537D02*
X118132Y035537D01*
X118132Y035326D01*
X117921Y035326D01*
X117921Y035537D01*
X117921Y034903D02*
X117075Y034903D01*
X117921Y034057D01*
X118132Y034268D01*
X118132Y034691D01*
X117921Y034903D01*
X117921Y034057D02*
X117075Y034057D01*
X116863Y034268D01*
X116863Y034691D01*
X117075Y034903D01*
X117075Y033634D02*
X117286Y033634D01*
X117498Y033423D01*
X117498Y033000D01*
X117286Y032788D01*
X117075Y032788D01*
X116863Y033000D01*
X116863Y033423D01*
X117075Y033634D01*
X117498Y033423D02*
X117709Y033634D01*
X117921Y033634D01*
X118132Y033423D01*
X118132Y033000D01*
X117921Y032788D01*
X117709Y032788D01*
X117498Y033000D01*
D13*
X085831Y075350D02*
X085831Y076750D01*
X084631Y076750D02*
X084631Y075350D01*
X065031Y075350D02*
X065031Y076750D01*
X063831Y076750D02*
X063831Y075350D01*
D14*
X063836Y075350D02*
X063838Y075398D01*
X063844Y075447D01*
X063854Y075494D01*
X063867Y075541D01*
X063885Y075586D01*
X063906Y075630D01*
X063930Y075672D01*
X063958Y075711D01*
X063989Y075749D01*
X064023Y075783D01*
X064060Y075815D01*
X064099Y075844D01*
X064141Y075869D01*
X064184Y075891D01*
X064229Y075910D01*
X064275Y075924D01*
X064322Y075935D01*
X064370Y075942D01*
X064419Y075945D01*
X064467Y075944D01*
X064516Y075939D01*
X064563Y075930D01*
X064610Y075917D01*
X064656Y075901D01*
X064700Y075881D01*
X064742Y075857D01*
X064783Y075830D01*
X064821Y075800D01*
X064856Y075766D01*
X064889Y075730D01*
X064918Y075692D01*
X064944Y075651D01*
X064967Y075608D01*
X064986Y075564D01*
X065002Y075518D01*
X065014Y075471D01*
X065022Y075423D01*
X065026Y075374D01*
X065026Y075326D01*
X065022Y075277D01*
X065014Y075229D01*
X065002Y075182D01*
X064986Y075136D01*
X064967Y075092D01*
X064944Y075049D01*
X064918Y075008D01*
X064889Y074970D01*
X064856Y074934D01*
X064821Y074900D01*
X064783Y074870D01*
X064742Y074843D01*
X064700Y074819D01*
X064656Y074799D01*
X064610Y074783D01*
X064563Y074770D01*
X064516Y074761D01*
X064467Y074756D01*
X064419Y074755D01*
X064370Y074758D01*
X064322Y074765D01*
X064275Y074776D01*
X064229Y074790D01*
X064184Y074809D01*
X064141Y074831D01*
X064099Y074856D01*
X064060Y074885D01*
X064023Y074917D01*
X063989Y074951D01*
X063958Y074989D01*
X063930Y075028D01*
X063906Y075070D01*
X063885Y075114D01*
X063867Y075159D01*
X063854Y075206D01*
X063844Y075253D01*
X063838Y075302D01*
X063836Y075350D01*
X063831Y075350D02*
X063833Y075302D01*
X063839Y075254D01*
X063848Y075206D01*
X063862Y075160D01*
X063879Y075115D01*
X063900Y075071D01*
X063924Y075029D01*
X063951Y074990D01*
X063982Y074952D01*
X064015Y074917D01*
X064052Y074885D01*
X064090Y074856D01*
X064131Y074830D01*
X064174Y074808D01*
X064218Y074789D01*
X064264Y074774D01*
X064311Y074762D01*
X064359Y074754D01*
X064407Y074750D01*
X064455Y074750D01*
X064503Y074754D01*
X064551Y074762D01*
X064598Y074774D01*
X064644Y074789D01*
X064688Y074808D01*
X064731Y074830D01*
X064772Y074856D01*
X064810Y074885D01*
X064847Y074917D01*
X064880Y074952D01*
X064911Y074990D01*
X064938Y075029D01*
X064962Y075071D01*
X064983Y075115D01*
X065000Y075160D01*
X065014Y075206D01*
X065023Y075254D01*
X065029Y075302D01*
X065031Y075350D01*
X063836Y076750D02*
X063838Y076798D01*
X063844Y076847D01*
X063854Y076894D01*
X063867Y076941D01*
X063885Y076986D01*
X063906Y077030D01*
X063930Y077072D01*
X063958Y077111D01*
X063989Y077149D01*
X064023Y077183D01*
X064060Y077215D01*
X064099Y077244D01*
X064141Y077269D01*
X064184Y077291D01*
X064229Y077310D01*
X064275Y077324D01*
X064322Y077335D01*
X064370Y077342D01*
X064419Y077345D01*
X064467Y077344D01*
X064516Y077339D01*
X064563Y077330D01*
X064610Y077317D01*
X064656Y077301D01*
X064700Y077281D01*
X064742Y077257D01*
X064783Y077230D01*
X064821Y077200D01*
X064856Y077166D01*
X064889Y077130D01*
X064918Y077092D01*
X064944Y077051D01*
X064967Y077008D01*
X064986Y076964D01*
X065002Y076918D01*
X065014Y076871D01*
X065022Y076823D01*
X065026Y076774D01*
X065026Y076726D01*
X065022Y076677D01*
X065014Y076629D01*
X065002Y076582D01*
X064986Y076536D01*
X064967Y076492D01*
X064944Y076449D01*
X064918Y076408D01*
X064889Y076370D01*
X064856Y076334D01*
X064821Y076300D01*
X064783Y076270D01*
X064742Y076243D01*
X064700Y076219D01*
X064656Y076199D01*
X064610Y076183D01*
X064563Y076170D01*
X064516Y076161D01*
X064467Y076156D01*
X064419Y076155D01*
X064370Y076158D01*
X064322Y076165D01*
X064275Y076176D01*
X064229Y076190D01*
X064184Y076209D01*
X064141Y076231D01*
X064099Y076256D01*
X064060Y076285D01*
X064023Y076317D01*
X063989Y076351D01*
X063958Y076389D01*
X063930Y076428D01*
X063906Y076470D01*
X063885Y076514D01*
X063867Y076559D01*
X063854Y076606D01*
X063844Y076653D01*
X063838Y076702D01*
X063836Y076750D01*
X063831Y076750D02*
X063833Y076798D01*
X063839Y076846D01*
X063848Y076894D01*
X063862Y076940D01*
X063879Y076985D01*
X063900Y077029D01*
X063924Y077071D01*
X063951Y077110D01*
X063982Y077148D01*
X064015Y077183D01*
X064052Y077215D01*
X064090Y077244D01*
X064131Y077270D01*
X064174Y077292D01*
X064218Y077311D01*
X064264Y077326D01*
X064311Y077338D01*
X064359Y077346D01*
X064407Y077350D01*
X064455Y077350D01*
X064503Y077346D01*
X064551Y077338D01*
X064598Y077326D01*
X064644Y077311D01*
X064688Y077292D01*
X064731Y077270D01*
X064772Y077244D01*
X064810Y077215D01*
X064847Y077183D01*
X064880Y077148D01*
X064911Y077110D01*
X064938Y077071D01*
X064962Y077029D01*
X064983Y076985D01*
X065000Y076940D01*
X065014Y076894D01*
X065023Y076846D01*
X065029Y076798D01*
X065031Y076750D01*
X084636Y076750D02*
X084638Y076798D01*
X084644Y076847D01*
X084654Y076894D01*
X084667Y076941D01*
X084685Y076986D01*
X084706Y077030D01*
X084730Y077072D01*
X084758Y077111D01*
X084789Y077149D01*
X084823Y077183D01*
X084860Y077215D01*
X084899Y077244D01*
X084941Y077269D01*
X084984Y077291D01*
X085029Y077310D01*
X085075Y077324D01*
X085122Y077335D01*
X085170Y077342D01*
X085219Y077345D01*
X085267Y077344D01*
X085316Y077339D01*
X085363Y077330D01*
X085410Y077317D01*
X085456Y077301D01*
X085500Y077281D01*
X085542Y077257D01*
X085583Y077230D01*
X085621Y077200D01*
X085656Y077166D01*
X085689Y077130D01*
X085718Y077092D01*
X085744Y077051D01*
X085767Y077008D01*
X085786Y076964D01*
X085802Y076918D01*
X085814Y076871D01*
X085822Y076823D01*
X085826Y076774D01*
X085826Y076726D01*
X085822Y076677D01*
X085814Y076629D01*
X085802Y076582D01*
X085786Y076536D01*
X085767Y076492D01*
X085744Y076449D01*
X085718Y076408D01*
X085689Y076370D01*
X085656Y076334D01*
X085621Y076300D01*
X085583Y076270D01*
X085542Y076243D01*
X085500Y076219D01*
X085456Y076199D01*
X085410Y076183D01*
X085363Y076170D01*
X085316Y076161D01*
X085267Y076156D01*
X085219Y076155D01*
X085170Y076158D01*
X085122Y076165D01*
X085075Y076176D01*
X085029Y076190D01*
X084984Y076209D01*
X084941Y076231D01*
X084899Y076256D01*
X084860Y076285D01*
X084823Y076317D01*
X084789Y076351D01*
X084758Y076389D01*
X084730Y076428D01*
X084706Y076470D01*
X084685Y076514D01*
X084667Y076559D01*
X084654Y076606D01*
X084644Y076653D01*
X084638Y076702D01*
X084636Y076750D01*
X084631Y076750D02*
X084633Y076798D01*
X084639Y076846D01*
X084648Y076894D01*
X084662Y076940D01*
X084679Y076985D01*
X084700Y077029D01*
X084724Y077071D01*
X084751Y077110D01*
X084782Y077148D01*
X084815Y077183D01*
X084852Y077215D01*
X084890Y077244D01*
X084931Y077270D01*
X084974Y077292D01*
X085018Y077311D01*
X085064Y077326D01*
X085111Y077338D01*
X085159Y077346D01*
X085207Y077350D01*
X085255Y077350D01*
X085303Y077346D01*
X085351Y077338D01*
X085398Y077326D01*
X085444Y077311D01*
X085488Y077292D01*
X085531Y077270D01*
X085572Y077244D01*
X085610Y077215D01*
X085647Y077183D01*
X085680Y077148D01*
X085711Y077110D01*
X085738Y077071D01*
X085762Y077029D01*
X085783Y076985D01*
X085800Y076940D01*
X085814Y076894D01*
X085823Y076846D01*
X085829Y076798D01*
X085831Y076750D01*
X084636Y075350D02*
X084638Y075398D01*
X084644Y075447D01*
X084654Y075494D01*
X084667Y075541D01*
X084685Y075586D01*
X084706Y075630D01*
X084730Y075672D01*
X084758Y075711D01*
X084789Y075749D01*
X084823Y075783D01*
X084860Y075815D01*
X084899Y075844D01*
X084941Y075869D01*
X084984Y075891D01*
X085029Y075910D01*
X085075Y075924D01*
X085122Y075935D01*
X085170Y075942D01*
X085219Y075945D01*
X085267Y075944D01*
X085316Y075939D01*
X085363Y075930D01*
X085410Y075917D01*
X085456Y075901D01*
X085500Y075881D01*
X085542Y075857D01*
X085583Y075830D01*
X085621Y075800D01*
X085656Y075766D01*
X085689Y075730D01*
X085718Y075692D01*
X085744Y075651D01*
X085767Y075608D01*
X085786Y075564D01*
X085802Y075518D01*
X085814Y075471D01*
X085822Y075423D01*
X085826Y075374D01*
X085826Y075326D01*
X085822Y075277D01*
X085814Y075229D01*
X085802Y075182D01*
X085786Y075136D01*
X085767Y075092D01*
X085744Y075049D01*
X085718Y075008D01*
X085689Y074970D01*
X085656Y074934D01*
X085621Y074900D01*
X085583Y074870D01*
X085542Y074843D01*
X085500Y074819D01*
X085456Y074799D01*
X085410Y074783D01*
X085363Y074770D01*
X085316Y074761D01*
X085267Y074756D01*
X085219Y074755D01*
X085170Y074758D01*
X085122Y074765D01*
X085075Y074776D01*
X085029Y074790D01*
X084984Y074809D01*
X084941Y074831D01*
X084899Y074856D01*
X084860Y074885D01*
X084823Y074917D01*
X084789Y074951D01*
X084758Y074989D01*
X084730Y075028D01*
X084706Y075070D01*
X084685Y075114D01*
X084667Y075159D01*
X084654Y075206D01*
X084644Y075253D01*
X084638Y075302D01*
X084636Y075350D01*
X084631Y075350D02*
X084633Y075302D01*
X084639Y075254D01*
X084648Y075206D01*
X084662Y075160D01*
X084679Y075115D01*
X084700Y075071D01*
X084724Y075029D01*
X084751Y074990D01*
X084782Y074952D01*
X084815Y074917D01*
X084852Y074885D01*
X084890Y074856D01*
X084931Y074830D01*
X084974Y074808D01*
X085018Y074789D01*
X085064Y074774D01*
X085111Y074762D01*
X085159Y074754D01*
X085207Y074750D01*
X085255Y074750D01*
X085303Y074754D01*
X085351Y074762D01*
X085398Y074774D01*
X085444Y074789D01*
X085488Y074808D01*
X085531Y074830D01*
X085572Y074856D01*
X085610Y074885D01*
X085647Y074917D01*
X085680Y074952D01*
X085711Y074990D01*
X085738Y075029D01*
X085762Y075071D01*
X085783Y075115D01*
X085800Y075160D01*
X085814Y075206D01*
X085823Y075254D01*
X085829Y075302D01*
X085831Y075350D01*
X089616Y054725D02*
X089618Y054760D01*
X089624Y054795D01*
X089634Y054829D01*
X089647Y054862D01*
X089664Y054893D01*
X089685Y054921D01*
X089708Y054948D01*
X089735Y054971D01*
X089763Y054992D01*
X089794Y055009D01*
X089827Y055022D01*
X089861Y055032D01*
X089896Y055038D01*
X089931Y055040D01*
X089966Y055038D01*
X090001Y055032D01*
X090035Y055022D01*
X090068Y055009D01*
X090099Y054992D01*
X090127Y054971D01*
X090154Y054948D01*
X090177Y054921D01*
X090198Y054893D01*
X090215Y054862D01*
X090228Y054829D01*
X090238Y054795D01*
X090244Y054760D01*
X090246Y054725D01*
X090244Y054690D01*
X090238Y054655D01*
X090228Y054621D01*
X090215Y054588D01*
X090198Y054557D01*
X090177Y054529D01*
X090154Y054502D01*
X090127Y054479D01*
X090099Y054458D01*
X090068Y054441D01*
X090035Y054428D01*
X090001Y054418D01*
X089966Y054412D01*
X089931Y054410D01*
X089896Y054412D01*
X089861Y054418D01*
X089827Y054428D01*
X089794Y054441D01*
X089763Y054458D01*
X089735Y054479D01*
X089708Y054502D01*
X089685Y054529D01*
X089664Y054557D01*
X089647Y054588D01*
X089634Y054621D01*
X089624Y054655D01*
X089618Y054690D01*
X089616Y054725D01*
X098014Y054725D02*
X098016Y054754D01*
X098022Y054782D01*
X098031Y054810D01*
X098044Y054836D01*
X098061Y054859D01*
X098080Y054881D01*
X098102Y054900D01*
X098127Y054915D01*
X098153Y054928D01*
X098181Y054936D01*
X098209Y054941D01*
X098238Y054942D01*
X098267Y054939D01*
X098295Y054932D01*
X098322Y054922D01*
X098348Y054908D01*
X098371Y054891D01*
X098392Y054871D01*
X098410Y054848D01*
X098425Y054823D01*
X098436Y054796D01*
X098444Y054768D01*
X098448Y054739D01*
X098448Y054711D01*
X098444Y054682D01*
X098436Y054654D01*
X098425Y054627D01*
X098410Y054602D01*
X098392Y054579D01*
X098371Y054559D01*
X098348Y054542D01*
X098322Y054528D01*
X098295Y054518D01*
X098267Y054511D01*
X098238Y054508D01*
X098209Y054509D01*
X098181Y054514D01*
X098153Y054522D01*
X098127Y054535D01*
X098102Y054550D01*
X098080Y054569D01*
X098061Y054591D01*
X098044Y054614D01*
X098031Y054640D01*
X098022Y054668D01*
X098016Y054696D01*
X098014Y054725D01*
X065041Y013425D02*
X065043Y013460D01*
X065049Y013495D01*
X065059Y013529D01*
X065072Y013562D01*
X065089Y013593D01*
X065110Y013621D01*
X065133Y013648D01*
X065160Y013671D01*
X065188Y013692D01*
X065219Y013709D01*
X065252Y013722D01*
X065286Y013732D01*
X065321Y013738D01*
X065356Y013740D01*
X065391Y013738D01*
X065426Y013732D01*
X065460Y013722D01*
X065493Y013709D01*
X065524Y013692D01*
X065552Y013671D01*
X065579Y013648D01*
X065602Y013621D01*
X065623Y013593D01*
X065640Y013562D01*
X065653Y013529D01*
X065663Y013495D01*
X065669Y013460D01*
X065671Y013425D01*
X065669Y013390D01*
X065663Y013355D01*
X065653Y013321D01*
X065640Y013288D01*
X065623Y013257D01*
X065602Y013229D01*
X065579Y013202D01*
X065552Y013179D01*
X065524Y013158D01*
X065493Y013141D01*
X065460Y013128D01*
X065426Y013118D01*
X065391Y013112D01*
X065356Y013110D01*
X065321Y013112D01*
X065286Y013118D01*
X065252Y013128D01*
X065219Y013141D01*
X065188Y013158D01*
X065160Y013179D01*
X065133Y013202D01*
X065110Y013229D01*
X065089Y013257D01*
X065072Y013288D01*
X065059Y013321D01*
X065049Y013355D01*
X065043Y013390D01*
X065041Y013425D01*
X056839Y013425D02*
X056841Y013454D01*
X056847Y013482D01*
X056856Y013510D01*
X056869Y013536D01*
X056886Y013559D01*
X056905Y013581D01*
X056927Y013600D01*
X056952Y013615D01*
X056978Y013628D01*
X057006Y013636D01*
X057034Y013641D01*
X057063Y013642D01*
X057092Y013639D01*
X057120Y013632D01*
X057147Y013622D01*
X057173Y013608D01*
X057196Y013591D01*
X057217Y013571D01*
X057235Y013548D01*
X057250Y013523D01*
X057261Y013496D01*
X057269Y013468D01*
X057273Y013439D01*
X057273Y013411D01*
X057269Y013382D01*
X057261Y013354D01*
X057250Y013327D01*
X057235Y013302D01*
X057217Y013279D01*
X057196Y013259D01*
X057173Y013242D01*
X057147Y013228D01*
X057120Y013218D01*
X057092Y013211D01*
X057063Y013208D01*
X057034Y013209D01*
X057006Y013214D01*
X056978Y013222D01*
X056952Y013235D01*
X056927Y013250D01*
X056905Y013269D01*
X056886Y013291D01*
X056869Y013314D01*
X056856Y013340D01*
X056847Y013368D01*
X056841Y013396D01*
X056839Y013425D01*
D15*
X056956Y007925D02*
X066256Y007925D01*
X089031Y060225D02*
X098331Y060225D01*
M02*
