G75*
G70*
%OFA0B0*%
%FSLAX24Y24*%
%IPPOS*%
%LPD*%
%AMOC8*
5,1,8,0,0,1.08239X$1,22.5*
%
%ADD10C,0.0160*%
%ADD11C,0.0240*%
%ADD12C,0.0051*%
%ADD13C,0.0110*%
%ADD14C,0.0050*%
%ADD15C,0.0010*%
%ADD16C,0.0060*%
%ADD17C,0.0070*%
%ADD18C,0.0320*%
%ADD19C,0.0120*%
%ADD20C,0.0040*%
%ADD21R,0.0240X0.0340*%
%ADD22R,0.0200X0.1000*%
%ADD23R,0.0200X0.0200*%
%ADD24C,0.0080*%
%ADD25C,0.0100*%
%ADD26R,0.0118X0.0827*%
%ADD27R,0.1000X0.0200*%
%ADD28C,0.0020*%
%ADD29C,0.0025*%
%ADD30C,0.0098*%
%ADD31R,0.0551X0.0256*%
%ADD32R,0.0290X0.0690*%
%ADD33C,0.0000*%
D10*
X026095Y017038D02*
X027345Y017038D01*
X028720Y016163D01*
X026095Y017038D02*
X025220Y018413D01*
X024970Y022100D02*
X024970Y023100D01*
X019970Y020538D02*
X019470Y020163D01*
X015720Y020163D01*
X015095Y021913D01*
D11*
X017220Y018725D02*
X017220Y018325D01*
X017220Y015125D02*
X017220Y014725D01*
X016970Y013225D02*
X016970Y012825D01*
X016970Y009625D02*
X016970Y009225D01*
X004045Y019275D02*
X003345Y019275D01*
X003345Y021175D02*
X004045Y021175D01*
X010720Y027025D02*
X011420Y027025D01*
X011420Y028925D02*
X010720Y028925D01*
X032908Y019538D02*
X032908Y014413D01*
X046158Y031100D02*
X046158Y031500D01*
X046158Y034700D02*
X046158Y035100D01*
D12*
X000220Y003038D02*
X000220Y000126D01*
X000220Y000913D02*
X001244Y000811D01*
X001244Y000787D02*
X000220Y000913D01*
X001244Y001015D01*
X001244Y001039D02*
X001244Y000787D01*
X001244Y000862D02*
X000220Y000913D01*
X001244Y000964D01*
X001244Y001039D02*
X000220Y000913D01*
X066595Y000913D01*
X065571Y000811D01*
X065571Y000787D02*
X066595Y000913D01*
X065571Y001015D01*
X065571Y001039D02*
X065571Y000787D01*
X065571Y000862D02*
X066595Y000913D01*
X065571Y000964D01*
X065571Y001039D02*
X066595Y000913D01*
X066595Y000126D02*
X066595Y003038D01*
X067470Y003663D02*
X070257Y003663D01*
X069470Y003663D02*
X069572Y004687D01*
X069596Y004687D02*
X069470Y003663D01*
X069368Y004687D01*
X069344Y004687D02*
X069596Y004687D01*
X069521Y004687D02*
X069470Y003663D01*
X069419Y004687D01*
X069344Y004687D02*
X069470Y003663D01*
X069470Y047913D01*
X069572Y046889D01*
X069596Y046889D02*
X069470Y047913D01*
X069368Y046889D01*
X069344Y046889D02*
X069596Y046889D01*
X069521Y046889D02*
X069470Y047913D01*
X069419Y046889D01*
X069344Y046889D02*
X069470Y047913D01*
X070257Y047913D02*
X067220Y047913D01*
D13*
X068387Y028603D02*
X068387Y027757D01*
X067752Y028392D01*
X069021Y028392D01*
X069021Y027334D02*
X068810Y027334D01*
X068810Y027123D01*
X069021Y027123D01*
X069021Y027334D01*
X069021Y026700D02*
X069021Y025854D01*
X068175Y026700D01*
X067964Y026700D01*
X067752Y026488D01*
X067752Y026065D01*
X067964Y025854D01*
X067752Y025008D02*
X069021Y025008D01*
X069021Y024585D02*
X069021Y025431D01*
X068175Y024585D02*
X067752Y025008D01*
X067752Y023739D02*
X069021Y023739D01*
X069021Y023316D02*
X069021Y024162D01*
X068175Y023316D02*
X067752Y023739D01*
X037003Y002419D02*
X036792Y002631D01*
X036368Y002631D01*
X036157Y002419D01*
X036157Y002208D01*
X036368Y001996D01*
X037003Y001996D01*
X037003Y001573D02*
X037003Y002419D01*
X037003Y001573D02*
X036792Y001362D01*
X036368Y001362D01*
X036157Y001573D01*
X035734Y001573D02*
X035523Y001362D01*
X035100Y001362D01*
X034888Y001573D01*
X034465Y001573D02*
X034465Y001362D01*
X034254Y001362D01*
X034254Y001573D01*
X034465Y001573D01*
X034888Y001996D02*
X035311Y002208D01*
X035523Y002208D01*
X035734Y001996D01*
X035734Y001573D01*
X034888Y001996D02*
X034888Y002631D01*
X035734Y002631D01*
X033831Y002419D02*
X033831Y002208D01*
X033620Y001996D01*
X033196Y001996D01*
X032985Y002208D01*
X032985Y002419D01*
X033196Y002631D01*
X033620Y002631D01*
X033831Y002419D01*
X033620Y001996D02*
X033831Y001785D01*
X033831Y001573D01*
X033620Y001362D01*
X033196Y001362D01*
X032985Y001573D01*
X032985Y001785D01*
X033196Y001996D01*
X032562Y001785D02*
X032351Y001996D01*
X031716Y001996D01*
X031716Y001573D01*
X031928Y001362D01*
X032351Y001362D01*
X032562Y001573D01*
X032562Y001785D01*
X032139Y002419D02*
X031716Y001996D01*
X032139Y002419D02*
X032562Y002631D01*
X030870Y002631D02*
X030870Y001362D01*
X030447Y001362D02*
X031293Y001362D01*
X030447Y002208D02*
X030870Y002631D01*
D14*
X031470Y008350D02*
X018470Y008350D01*
X018780Y008692D02*
X018881Y008590D01*
X019085Y008590D01*
X019187Y008692D01*
X019187Y008794D01*
X019085Y008896D01*
X018983Y008896D01*
X019085Y008896D02*
X019187Y008998D01*
X019187Y009099D01*
X019085Y009201D01*
X018881Y009201D01*
X018780Y009099D01*
X018470Y008350D02*
X018416Y008352D01*
X018363Y008358D01*
X018311Y008367D01*
X018259Y008380D01*
X018208Y008397D01*
X018158Y008418D01*
X018111Y008442D01*
X018065Y008469D01*
X018021Y008500D01*
X017979Y008533D01*
X017940Y008570D01*
X017903Y008609D01*
X017870Y008651D01*
X017839Y008695D01*
X017812Y008741D01*
X017788Y008788D01*
X017767Y008838D01*
X017750Y008889D01*
X017737Y008941D01*
X017728Y008993D01*
X017722Y009046D01*
X017720Y009100D01*
X017720Y021850D01*
X018720Y022850D01*
X031470Y022850D01*
X030510Y022736D02*
X030103Y022736D01*
X030103Y022431D01*
X030306Y022533D01*
X030408Y022533D01*
X030510Y022431D01*
X030510Y022227D01*
X030408Y022125D01*
X030204Y022125D01*
X030103Y022227D01*
X029902Y022634D02*
X029495Y022227D01*
X029495Y022125D01*
X029902Y022634D02*
X029902Y022736D01*
X029495Y022736D01*
X030780Y021826D02*
X031187Y021826D01*
X031187Y021724D01*
X030780Y021317D01*
X030780Y021215D01*
X031387Y021521D02*
X031794Y021521D01*
X031693Y021826D02*
X031693Y021215D01*
X031387Y021521D02*
X031693Y021826D01*
X032220Y022100D02*
X032218Y022154D01*
X032212Y022207D01*
X032203Y022259D01*
X032190Y022311D01*
X032173Y022362D01*
X032152Y022412D01*
X032128Y022459D01*
X032101Y022505D01*
X032070Y022549D01*
X032037Y022591D01*
X032000Y022630D01*
X031961Y022667D01*
X031919Y022700D01*
X031875Y022731D01*
X031829Y022758D01*
X031782Y022782D01*
X031732Y022803D01*
X031681Y022820D01*
X031629Y022833D01*
X031577Y022842D01*
X031524Y022848D01*
X031470Y022850D01*
X032220Y022100D02*
X032220Y009100D01*
X031693Y009465D02*
X031693Y010076D01*
X031387Y009771D01*
X031794Y009771D01*
X031187Y009771D02*
X031187Y009567D01*
X031085Y009465D01*
X030881Y009465D01*
X030780Y009567D01*
X030780Y009771D02*
X030983Y009873D01*
X031085Y009873D01*
X031187Y009771D01*
X031187Y010076D02*
X030780Y010076D01*
X030780Y009771D01*
X030408Y009111D02*
X030204Y009111D01*
X030103Y009009D01*
X029902Y009111D02*
X029495Y009111D01*
X029495Y008806D01*
X029699Y008908D01*
X029800Y008908D01*
X029902Y008806D01*
X029902Y008602D01*
X029800Y008500D01*
X029597Y008500D01*
X029495Y008602D01*
X030103Y008602D02*
X030204Y008500D01*
X030408Y008500D01*
X030510Y008602D01*
X030510Y008704D01*
X030408Y008806D01*
X030306Y008806D01*
X030408Y008806D02*
X030510Y008908D01*
X030510Y009009D01*
X030408Y009111D01*
X031470Y008350D02*
X031524Y008352D01*
X031577Y008358D01*
X031629Y008367D01*
X031681Y008380D01*
X031732Y008397D01*
X031782Y008418D01*
X031829Y008442D01*
X031875Y008469D01*
X031919Y008500D01*
X031961Y008533D01*
X032000Y008570D01*
X032037Y008609D01*
X032070Y008651D01*
X032101Y008695D01*
X032128Y008741D01*
X032152Y008788D01*
X032173Y008838D01*
X032190Y008889D01*
X032203Y008941D01*
X032212Y008993D01*
X032218Y009046D01*
X032220Y009100D01*
X019794Y009099D02*
X019794Y008998D01*
X019693Y008896D01*
X019794Y008794D01*
X019794Y008692D01*
X019693Y008590D01*
X019489Y008590D01*
X019387Y008692D01*
X019591Y008896D02*
X019693Y008896D01*
X019794Y009099D02*
X019693Y009201D01*
X019489Y009201D01*
X019387Y009099D01*
X019010Y009625D02*
X018603Y009625D01*
X019010Y010033D01*
X019010Y010134D01*
X018908Y010236D01*
X018704Y010236D01*
X018603Y010134D01*
X018402Y010134D02*
X018402Y010033D01*
X018300Y009931D01*
X018402Y009829D01*
X018402Y009727D01*
X018300Y009625D01*
X018097Y009625D01*
X017995Y009727D01*
X018199Y009931D02*
X018300Y009931D01*
X018402Y010134D02*
X018300Y010236D01*
X018097Y010236D01*
X017995Y010134D01*
X017170Y010030D02*
X016720Y010030D01*
X016720Y010255D01*
X016795Y010330D01*
X016945Y010330D01*
X017020Y010255D01*
X017020Y010030D01*
X017020Y010180D02*
X017170Y010330D01*
X017170Y010490D02*
X017095Y010490D01*
X016795Y010790D01*
X016720Y010790D01*
X016720Y010490D01*
X016970Y011009D02*
X016970Y011310D01*
X017120Y011470D02*
X017195Y011470D01*
X017120Y011470D02*
X016820Y011770D01*
X016745Y011770D01*
X016745Y011470D01*
X016745Y011235D02*
X016970Y011009D01*
X017195Y011235D02*
X016745Y011235D01*
X016820Y011930D02*
X016745Y012005D01*
X016745Y012155D01*
X016820Y012230D01*
X017120Y011930D01*
X017195Y012005D01*
X017195Y012155D01*
X017120Y012230D01*
X016820Y012230D01*
X016820Y011930D02*
X017120Y011930D01*
X015645Y010200D02*
X015145Y010200D01*
X015145Y002400D01*
X005845Y002400D01*
X005845Y010200D01*
X015145Y010200D01*
X015645Y010200D02*
X015645Y013700D01*
X014945Y014600D01*
X014945Y016600D01*
X005345Y016600D01*
X005345Y010200D01*
X005845Y010200D01*
X005845Y007000D02*
X005845Y006800D01*
X009402Y014425D02*
X009627Y014425D01*
X009702Y014501D01*
X009702Y014576D01*
X009627Y014651D01*
X009402Y014651D01*
X009402Y014876D02*
X009627Y014876D01*
X009702Y014801D01*
X009702Y014726D01*
X009627Y014651D01*
X009863Y014801D02*
X009863Y014501D01*
X009938Y014425D01*
X010088Y014425D01*
X010163Y014501D01*
X010323Y014501D02*
X010398Y014425D01*
X010548Y014425D01*
X010623Y014501D01*
X010623Y014576D01*
X010548Y014651D01*
X010473Y014651D01*
X010548Y014651D02*
X010623Y014726D01*
X010623Y014801D01*
X010548Y014876D01*
X010398Y014876D01*
X010323Y014801D01*
X010163Y014801D02*
X010088Y014876D01*
X009938Y014876D01*
X009863Y014801D01*
X009402Y014876D02*
X009402Y014425D01*
X010783Y014501D02*
X010858Y014425D01*
X011009Y014425D01*
X011084Y014501D01*
X011084Y014576D01*
X011009Y014651D01*
X010934Y014651D01*
X011009Y014651D02*
X011084Y014726D01*
X011084Y014801D01*
X011009Y014876D01*
X010858Y014876D01*
X010783Y014801D01*
X011244Y014876D02*
X011544Y014876D01*
X011544Y014801D01*
X011244Y014501D01*
X011244Y014425D01*
X011704Y014576D02*
X011704Y014726D01*
X011854Y014876D01*
X012011Y014876D02*
X012011Y014425D01*
X012011Y014576D02*
X012311Y014876D01*
X012471Y014876D02*
X012772Y014876D01*
X012622Y014876D02*
X012622Y014425D01*
X012311Y014425D02*
X012086Y014651D01*
X011854Y014425D02*
X011704Y014576D01*
X012489Y015201D02*
X012639Y015050D01*
X012789Y015201D01*
X012789Y015501D01*
X012949Y015501D02*
X013249Y015501D01*
X013099Y015501D02*
X013099Y015050D01*
X013232Y014876D02*
X012932Y014876D01*
X012932Y014651D01*
X013082Y014726D01*
X013157Y014726D01*
X013232Y014651D01*
X013232Y014501D01*
X013157Y014425D01*
X013007Y014425D01*
X012932Y014501D01*
X013392Y014501D02*
X013467Y014425D01*
X013617Y014425D01*
X013693Y014501D01*
X013693Y014801D01*
X013392Y014501D01*
X013392Y014801D01*
X013467Y014876D01*
X013617Y014876D01*
X013693Y014801D01*
X013853Y014801D02*
X013928Y014876D01*
X014078Y014876D01*
X014153Y014801D01*
X014153Y014726D01*
X014078Y014651D01*
X014153Y014576D01*
X014153Y014501D01*
X014078Y014425D01*
X013928Y014425D01*
X013853Y014501D01*
X014003Y014651D02*
X014078Y014651D01*
X014313Y014876D02*
X014463Y014726D01*
X014463Y014576D01*
X014313Y014425D01*
X013710Y015050D02*
X013410Y015050D01*
X013560Y015050D02*
X013560Y015501D01*
X013410Y015351D01*
X012489Y015501D02*
X012489Y015201D01*
X014670Y017677D02*
X014670Y018173D01*
X014670Y018278D01*
X014670Y019173D01*
X014670Y019278D01*
X014670Y019774D01*
X014070Y019550D02*
X014070Y017901D01*
X014070Y017900D02*
X014120Y017863D01*
X014172Y017829D01*
X014226Y017798D01*
X014282Y017771D01*
X014670Y017676D02*
X014734Y017675D01*
X014798Y017678D01*
X014862Y017685D01*
X014925Y017695D01*
X014987Y017710D01*
X015048Y017728D01*
X015109Y017750D01*
X015167Y017775D01*
X014670Y017676D02*
X014611Y017681D01*
X014553Y017688D01*
X014495Y017699D01*
X014438Y017714D01*
X014382Y017731D01*
X014327Y017751D01*
X014273Y017775D01*
X014670Y019774D02*
X014734Y019775D01*
X014798Y019772D01*
X014862Y019765D01*
X014925Y019755D01*
X014987Y019740D01*
X015048Y019722D01*
X015109Y019700D01*
X015167Y019675D01*
X014273Y019676D02*
X014219Y019649D01*
X014168Y019619D01*
X014118Y019586D01*
X014070Y019551D01*
X015167Y019675D02*
X015224Y019646D01*
X015280Y019613D01*
X015333Y019578D01*
X015384Y019538D01*
X015432Y019496D01*
X015478Y019451D01*
X015521Y019404D01*
X015561Y019354D01*
X015598Y019301D01*
X015631Y019246D01*
X015662Y019190D01*
X015688Y019131D01*
X015711Y019071D01*
X015731Y019010D01*
X015746Y018948D01*
X015758Y018885D01*
X015766Y018821D01*
X015770Y018757D01*
X015770Y018693D01*
X015766Y018629D01*
X015758Y018565D01*
X015746Y018502D01*
X015731Y018440D01*
X015711Y018379D01*
X015688Y018319D01*
X015662Y018260D01*
X015631Y018204D01*
X015598Y018149D01*
X015561Y018096D01*
X015521Y018046D01*
X015478Y017999D01*
X015432Y017954D01*
X015384Y017912D01*
X015333Y017872D01*
X015280Y017837D01*
X015224Y017804D01*
X015167Y017775D01*
X014670Y019774D02*
X014611Y019769D01*
X014553Y019762D01*
X014495Y019751D01*
X014438Y019736D01*
X014382Y019719D01*
X014327Y019699D01*
X014273Y019675D01*
X016770Y020951D02*
X017220Y020951D01*
X017220Y021101D02*
X017220Y020800D01*
X016920Y020800D02*
X016770Y020951D01*
X017995Y021125D02*
X018402Y021125D01*
X018603Y021125D02*
X019010Y021533D01*
X019010Y021634D01*
X018908Y021736D01*
X018704Y021736D01*
X018603Y021634D01*
X018199Y021736D02*
X018199Y021125D01*
X018603Y021125D02*
X019010Y021125D01*
X018199Y021736D02*
X017995Y021533D01*
X019495Y022125D02*
X019902Y022125D01*
X020103Y022125D02*
X020510Y022125D01*
X020306Y022125D02*
X020306Y022736D01*
X020103Y022533D01*
X019699Y022736D02*
X019699Y022125D01*
X019495Y022533D02*
X019699Y022736D01*
X019688Y024913D02*
X019463Y024913D01*
X019388Y024988D01*
X019463Y025063D01*
X019688Y025063D01*
X019688Y025138D02*
X019688Y024913D01*
X019848Y024913D02*
X020074Y024913D01*
X020149Y024988D01*
X020074Y025063D01*
X019923Y025063D01*
X019848Y025138D01*
X019923Y025213D01*
X020149Y025213D01*
X020309Y025213D02*
X020459Y025213D01*
X020384Y025288D02*
X020384Y024988D01*
X020459Y024913D01*
X020616Y024988D02*
X020616Y025138D01*
X020691Y025213D01*
X020841Y025213D01*
X020916Y025138D01*
X020916Y025063D01*
X020616Y025063D01*
X020616Y024988D02*
X020691Y024913D01*
X020841Y024913D01*
X021076Y024913D02*
X021076Y025213D01*
X021076Y025063D02*
X021226Y025213D01*
X021301Y025213D01*
X021672Y025750D02*
X021672Y025826D01*
X021973Y026126D01*
X021973Y026201D01*
X021672Y026201D01*
X022133Y025976D02*
X022433Y025976D01*
X022358Y026201D02*
X022133Y025976D01*
X022358Y025750D02*
X022358Y026201D01*
X022593Y026201D02*
X022593Y025750D01*
X022893Y025750D01*
X023053Y025826D02*
X023128Y025750D01*
X023279Y025750D01*
X023354Y025826D01*
X023354Y025901D01*
X023279Y025976D01*
X023128Y025976D01*
X023053Y026051D01*
X023053Y026126D01*
X023128Y026201D01*
X023279Y026201D01*
X023354Y026126D01*
X023514Y026201D02*
X023814Y026201D01*
X023814Y026126D01*
X023514Y025826D01*
X023514Y025750D01*
X023974Y025976D02*
X024199Y026201D01*
X024199Y025750D01*
X024274Y025976D02*
X023974Y025976D01*
X024435Y026126D02*
X024435Y025826D01*
X024510Y025750D01*
X024660Y025750D01*
X024735Y025826D01*
X024735Y026126D01*
X024660Y026201D01*
X024510Y026201D01*
X024435Y026126D01*
X024289Y026463D02*
X023989Y026463D01*
X024289Y026763D01*
X024289Y026838D01*
X024214Y026913D01*
X024064Y026913D01*
X023989Y026838D01*
X023678Y026913D02*
X023678Y026463D01*
X023528Y026463D02*
X023829Y026463D01*
X023528Y026763D02*
X023678Y026913D01*
X023368Y026838D02*
X023293Y026913D01*
X023068Y026913D01*
X023068Y026463D01*
X023293Y026463D01*
X023368Y026538D01*
X023368Y026838D01*
X022908Y026838D02*
X022833Y026913D01*
X022608Y026913D01*
X022608Y026463D01*
X022833Y026463D01*
X022908Y026538D01*
X022908Y026838D01*
X019702Y026700D02*
X019402Y026700D01*
X019702Y027001D01*
X019402Y027001D01*
X019242Y026926D02*
X019167Y027001D01*
X019017Y027001D01*
X018942Y026926D01*
X018942Y027151D02*
X018942Y026700D01*
X018782Y026700D02*
X018782Y027151D01*
X018632Y027001D01*
X018481Y027151D01*
X018481Y026700D01*
X018321Y026776D02*
X018246Y026700D01*
X018096Y026700D01*
X018021Y026776D01*
X018171Y026926D02*
X018246Y026926D01*
X018321Y026851D01*
X018321Y026776D01*
X018246Y026926D02*
X018321Y027001D01*
X018321Y027076D01*
X018246Y027151D01*
X018096Y027151D01*
X018021Y027076D01*
X017861Y026926D02*
X017561Y026926D01*
X017786Y027151D01*
X017786Y026700D01*
X017405Y026700D02*
X017330Y026700D01*
X017330Y026776D01*
X017405Y026776D01*
X017405Y026700D01*
X017095Y026700D02*
X017095Y027151D01*
X016870Y026926D01*
X017170Y026926D01*
X017295Y026101D02*
X016995Y025650D01*
X016933Y025363D02*
X017158Y025363D01*
X017233Y025288D01*
X017233Y025213D01*
X017158Y025138D01*
X016933Y025138D01*
X017158Y025138D02*
X017233Y025063D01*
X017233Y024988D01*
X017158Y024913D01*
X016933Y024913D01*
X016933Y025363D01*
X017295Y025650D02*
X016995Y026101D01*
X017455Y026101D02*
X017455Y025876D01*
X017606Y025951D01*
X017681Y025951D01*
X017756Y025876D01*
X017756Y025726D01*
X017681Y025650D01*
X017530Y025650D01*
X017455Y025726D01*
X017455Y026101D02*
X017756Y026101D01*
X017928Y025288D02*
X017928Y024988D01*
X018003Y024913D01*
X018160Y024988D02*
X018160Y025138D01*
X018235Y025213D01*
X018385Y025213D01*
X018460Y025138D01*
X018460Y025063D01*
X018160Y025063D01*
X018160Y024988D02*
X018235Y024913D01*
X018385Y024913D01*
X018621Y024913D02*
X018846Y024913D01*
X018921Y024988D01*
X018921Y025063D01*
X018846Y025138D01*
X018621Y025138D01*
X018846Y025138D02*
X018921Y025213D01*
X018921Y025288D01*
X018846Y025363D01*
X018621Y025363D01*
X018621Y024913D01*
X019081Y024913D02*
X019231Y024913D01*
X019156Y024913D02*
X019156Y025363D01*
X019081Y025363D01*
X019463Y025213D02*
X019613Y025213D01*
X019688Y025138D01*
X018003Y025213D02*
X017853Y025213D01*
X017693Y025213D02*
X017693Y024838D01*
X017618Y024763D01*
X017543Y024763D01*
X017468Y024913D02*
X017693Y024913D01*
X017468Y024913D02*
X017393Y024988D01*
X017393Y025213D01*
X019242Y026700D02*
X019242Y026926D01*
X017756Y027550D02*
X017455Y027550D01*
X017756Y027851D01*
X017756Y027926D01*
X017681Y028001D01*
X017530Y028001D01*
X017455Y027926D01*
X017295Y027926D02*
X016995Y027626D01*
X016995Y027550D01*
X017295Y027550D01*
X017295Y027926D02*
X017295Y028001D01*
X016995Y028001D01*
X014420Y025486D02*
X014345Y025561D01*
X014045Y025561D01*
X014345Y025261D01*
X014420Y025336D01*
X014420Y025486D01*
X014345Y025261D02*
X014045Y025261D01*
X013970Y025336D01*
X013970Y025486D01*
X014045Y025561D01*
X013819Y025476D02*
X013744Y025551D01*
X013518Y025551D01*
X013518Y025100D01*
X013518Y025251D02*
X013744Y025251D01*
X013819Y025326D01*
X013819Y025476D01*
X013358Y025476D02*
X013283Y025551D01*
X013133Y025551D01*
X013058Y025476D01*
X013058Y025401D01*
X013133Y025326D01*
X013283Y025326D01*
X013358Y025251D01*
X013358Y025176D01*
X013283Y025100D01*
X013133Y025100D01*
X013058Y025176D01*
X012901Y025100D02*
X012751Y025100D01*
X012826Y025100D02*
X012826Y025551D01*
X012751Y025551D02*
X012901Y025551D01*
X012591Y025476D02*
X012591Y025326D01*
X012516Y025251D01*
X012291Y025251D01*
X012441Y025251D02*
X012591Y025100D01*
X012291Y025100D02*
X012291Y025551D01*
X012516Y025551D01*
X012591Y025476D01*
X012131Y025551D02*
X012131Y025251D01*
X011981Y025100D01*
X011830Y025251D01*
X011830Y025551D01*
X011670Y025401D02*
X011520Y025551D01*
X011370Y025401D01*
X011370Y025100D01*
X011370Y025026D02*
X011295Y025026D01*
X011220Y024951D01*
X011220Y024725D01*
X011370Y024725D01*
X011445Y024801D01*
X011445Y024951D01*
X011370Y025026D01*
X011370Y025326D02*
X011670Y025326D01*
X011670Y025401D02*
X011670Y025100D01*
X011220Y024725D02*
X011070Y024876D01*
X010995Y025026D01*
X010868Y025088D02*
X010943Y025163D01*
X010943Y025238D01*
X010868Y025313D01*
X010643Y025313D01*
X010643Y025163D01*
X010718Y025088D01*
X010868Y025088D01*
X010643Y025313D02*
X010793Y025463D01*
X010943Y025538D01*
X010483Y025538D02*
X010183Y025088D01*
X010483Y025088D02*
X010183Y025538D01*
X009563Y026700D02*
X009563Y027076D01*
X009638Y027151D01*
X009638Y026926D02*
X009488Y026926D01*
X009328Y026926D02*
X009328Y026700D01*
X009178Y026700D02*
X009178Y026926D01*
X009253Y027001D01*
X009328Y026926D01*
X009178Y026926D02*
X009103Y027001D01*
X009028Y027001D01*
X009028Y026700D01*
X008868Y026776D02*
X008792Y026700D01*
X008642Y026700D01*
X008567Y026776D01*
X008868Y027076D01*
X008868Y026776D01*
X008868Y027076D02*
X008792Y027151D01*
X008642Y027151D01*
X008567Y027076D01*
X008567Y026776D01*
X008407Y026700D02*
X008107Y026700D01*
X008257Y026700D02*
X008257Y027151D01*
X008107Y027001D01*
X008364Y027250D02*
X008514Y027250D01*
X008589Y027326D01*
X008749Y027326D02*
X008824Y027250D01*
X008974Y027250D01*
X009049Y027326D01*
X009049Y027401D01*
X008974Y027476D01*
X008749Y027476D01*
X008749Y027326D01*
X008749Y027476D02*
X008899Y027626D01*
X009049Y027701D01*
X009210Y027701D02*
X009210Y027250D01*
X009210Y027401D02*
X009435Y027401D01*
X009510Y027476D01*
X009510Y027626D01*
X009435Y027701D01*
X009210Y027701D01*
X008589Y027626D02*
X008514Y027701D01*
X008364Y027701D01*
X008289Y027626D01*
X008289Y027326D01*
X008364Y027250D01*
X006783Y024701D02*
X006783Y024250D01*
X006482Y024701D01*
X006482Y024250D01*
X006247Y024250D02*
X006247Y024701D01*
X006022Y024476D01*
X006322Y024476D01*
X005862Y024626D02*
X005862Y024326D01*
X005787Y024250D01*
X005637Y024250D01*
X005562Y024326D01*
X005862Y024626D01*
X005787Y024701D01*
X005637Y024701D01*
X005562Y024626D01*
X005562Y024326D01*
X005401Y024326D02*
X005326Y024250D01*
X005176Y024250D01*
X005101Y024326D01*
X005176Y024476D02*
X005326Y024476D01*
X005401Y024401D01*
X005401Y024326D01*
X005176Y024476D02*
X005101Y024551D01*
X005101Y024626D01*
X005176Y024701D01*
X005326Y024701D01*
X005401Y024626D01*
X004941Y024250D02*
X004641Y024250D01*
X004641Y024701D01*
X004406Y024701D02*
X004180Y024476D01*
X004481Y024476D01*
X004406Y024701D02*
X004406Y024250D01*
X004020Y024626D02*
X003720Y024326D01*
X003720Y024250D01*
X003720Y024701D02*
X004020Y024701D01*
X004020Y024626D01*
X002670Y024682D02*
X002670Y024982D01*
X002670Y024832D02*
X002220Y024832D01*
X002370Y024682D01*
X002670Y024522D02*
X002670Y024221D01*
X002670Y024371D02*
X002220Y024371D01*
X002370Y024221D01*
X002295Y024061D02*
X002220Y023986D01*
X002220Y023761D01*
X002670Y023761D01*
X002670Y023986D01*
X002595Y024061D01*
X002295Y024061D01*
X002295Y023601D02*
X002220Y023526D01*
X002220Y023300D01*
X002670Y023300D01*
X002670Y023526D01*
X002595Y023601D01*
X002295Y023601D01*
X002310Y021776D02*
X002310Y021325D01*
X002160Y021325D02*
X002460Y021325D01*
X002160Y021626D02*
X002310Y021776D01*
X001999Y021776D02*
X001999Y021701D01*
X001699Y021401D01*
X001699Y021325D01*
X001999Y021325D01*
X001824Y021001D02*
X001824Y020550D01*
X001664Y020550D02*
X001664Y021001D01*
X001514Y020851D01*
X001364Y021001D01*
X001364Y020550D01*
X001129Y020550D02*
X001129Y021001D01*
X000903Y020776D01*
X001204Y020776D01*
X000743Y020550D02*
X000443Y020550D01*
X000593Y020550D02*
X000593Y021001D01*
X000443Y020851D01*
X001824Y020776D02*
X001899Y020851D01*
X002049Y020851D01*
X002124Y020776D01*
X002124Y020550D01*
X002285Y020550D02*
X002585Y020550D01*
X002285Y020550D02*
X002585Y020851D01*
X002285Y020851D01*
X001999Y021776D02*
X001699Y021776D01*
X009537Y021261D02*
X009612Y021336D01*
X009762Y021336D01*
X009837Y021261D01*
X009837Y021185D01*
X009537Y020885D01*
X009837Y020885D01*
X009997Y020885D02*
X010298Y021185D01*
X010298Y021261D01*
X010223Y021336D01*
X010073Y021336D01*
X009997Y021261D01*
X009997Y020885D02*
X010298Y020885D01*
X010458Y020960D02*
X010758Y021261D01*
X010758Y020960D01*
X010683Y020885D01*
X010533Y020885D01*
X010458Y020960D01*
X010458Y021261D01*
X010533Y021336D01*
X010683Y021336D01*
X010758Y021261D01*
X010918Y021185D02*
X010993Y021185D01*
X011068Y021110D01*
X011143Y021185D01*
X011219Y021110D01*
X011219Y020885D01*
X011068Y020885D02*
X011068Y021110D01*
X010918Y021185D02*
X010918Y020885D01*
X011379Y021110D02*
X011529Y021110D01*
X011454Y021261D02*
X011454Y020885D01*
X011454Y021261D02*
X011529Y021336D01*
X010331Y021701D02*
X010256Y021625D01*
X010105Y021625D01*
X010030Y021701D01*
X009870Y021701D02*
X009795Y021625D01*
X009645Y021625D01*
X009570Y021701D01*
X009570Y022001D01*
X009645Y022076D01*
X009795Y022076D01*
X009870Y022001D01*
X010030Y022001D02*
X010030Y021926D01*
X010105Y021851D01*
X010331Y021851D01*
X010331Y022001D02*
X010256Y022076D01*
X010105Y022076D01*
X010030Y022001D01*
X010331Y022001D02*
X010331Y021701D01*
X012895Y022026D02*
X013345Y022026D01*
X013345Y022176D02*
X013345Y021875D01*
X013045Y021875D02*
X012895Y022026D01*
X014120Y024800D02*
X013970Y024951D01*
X014420Y024951D01*
X014420Y025101D02*
X014420Y024800D01*
X017070Y018005D02*
X016995Y017930D01*
X016995Y017780D01*
X017070Y017705D01*
X017145Y017546D02*
X017295Y017321D01*
X017445Y017546D01*
X017445Y017705D02*
X017145Y018005D01*
X017070Y018005D01*
X017445Y018005D02*
X017445Y017705D01*
X017445Y017321D02*
X016995Y017321D01*
X017070Y017161D02*
X016995Y017086D01*
X016995Y016936D01*
X017070Y016860D01*
X017070Y017161D02*
X017145Y017161D01*
X017445Y016860D01*
X017445Y017161D01*
X017195Y016540D02*
X017195Y016240D01*
X016970Y016465D01*
X017420Y016465D01*
X017420Y016080D02*
X017420Y015780D01*
X017120Y016080D01*
X017045Y016080D01*
X016970Y016005D01*
X016970Y015855D01*
X017045Y015780D01*
X017045Y015620D02*
X017195Y015620D01*
X017270Y015545D01*
X017270Y015319D01*
X017420Y015319D02*
X016970Y015319D01*
X016970Y015545D01*
X017045Y015620D01*
X017270Y015469D02*
X017420Y015620D01*
X009695Y033790D02*
X009695Y034090D01*
X009695Y033940D02*
X009245Y033940D01*
X009395Y033790D01*
X009535Y034475D02*
X009835Y034475D01*
X009685Y034475D02*
X009685Y034926D01*
X009535Y034776D01*
X009374Y034851D02*
X009374Y034701D01*
X009299Y034626D01*
X009074Y034626D01*
X009074Y034475D02*
X009074Y034926D01*
X009299Y034926D01*
X009374Y034851D01*
X008914Y034926D02*
X008764Y034926D01*
X008839Y034926D02*
X008839Y034551D01*
X008764Y034475D01*
X008689Y034475D01*
X008614Y034551D01*
X012653Y038500D02*
X012578Y038576D01*
X012578Y038876D01*
X012653Y038951D01*
X012804Y038951D01*
X012879Y038876D01*
X013039Y038876D02*
X013039Y038801D01*
X013114Y038726D01*
X013264Y038726D01*
X013339Y038651D01*
X013339Y038576D01*
X013264Y038500D01*
X013114Y038500D01*
X013039Y038576D01*
X013039Y038651D01*
X013114Y038726D01*
X013264Y038726D02*
X013339Y038801D01*
X013339Y038876D01*
X013264Y038951D01*
X013114Y038951D01*
X013039Y038876D01*
X012879Y038576D02*
X012804Y038500D01*
X012653Y038500D01*
X013499Y038500D02*
X013499Y038951D01*
X013724Y038951D01*
X013799Y038876D01*
X013799Y038726D01*
X013724Y038651D01*
X013499Y038651D01*
X013960Y038500D02*
X014260Y038801D01*
X014260Y038876D01*
X014185Y038951D01*
X014035Y038951D01*
X013960Y038876D01*
X013960Y038500D02*
X014260Y038500D01*
X014732Y038540D02*
X014807Y038464D01*
X014732Y038540D02*
X014732Y038690D01*
X014807Y038765D01*
X014882Y038765D01*
X015183Y038464D01*
X015183Y038765D01*
X015183Y038925D02*
X014882Y039225D01*
X014807Y039225D01*
X014732Y039150D01*
X014732Y039000D01*
X014807Y038925D01*
X015183Y038925D02*
X015183Y039225D01*
X015107Y039385D02*
X014807Y039686D01*
X015107Y039686D01*
X015183Y039610D01*
X015183Y039460D01*
X015107Y039385D01*
X014807Y039385D01*
X014732Y039460D01*
X014732Y039610D01*
X014807Y039686D01*
X014882Y039846D02*
X014882Y039921D01*
X014957Y039996D01*
X014882Y040071D01*
X014957Y040146D01*
X015183Y040146D01*
X015183Y039996D02*
X014957Y039996D01*
X014882Y039846D02*
X015183Y039846D01*
X014957Y040306D02*
X014957Y040456D01*
X014807Y040381D02*
X014732Y040456D01*
X014807Y040381D02*
X015183Y040381D01*
X015528Y038951D02*
X015453Y038876D01*
X015453Y038576D01*
X015528Y038500D01*
X015679Y038500D01*
X015754Y038576D01*
X015914Y038576D02*
X015914Y038651D01*
X015989Y038726D01*
X016139Y038726D01*
X016214Y038651D01*
X016214Y038576D01*
X016139Y038500D01*
X015989Y038500D01*
X015914Y038576D01*
X015989Y038726D02*
X015914Y038801D01*
X015914Y038876D01*
X015989Y038951D01*
X016139Y038951D01*
X016214Y038876D01*
X016214Y038801D01*
X016139Y038726D01*
X016374Y038651D02*
X016599Y038651D01*
X016674Y038726D01*
X016674Y038876D01*
X016599Y038951D01*
X016374Y038951D01*
X016374Y038500D01*
X016835Y038500D02*
X017135Y038500D01*
X016985Y038500D02*
X016985Y038951D01*
X016835Y038801D01*
X017482Y038690D02*
X017482Y038540D01*
X017557Y038464D01*
X017482Y038690D02*
X017557Y038765D01*
X017632Y038765D01*
X017933Y038464D01*
X017933Y038765D01*
X017933Y038925D02*
X017632Y039225D01*
X017557Y039225D01*
X017482Y039150D01*
X017482Y039000D01*
X017557Y038925D01*
X017933Y038925D02*
X017933Y039225D01*
X017857Y039385D02*
X017557Y039686D01*
X017857Y039686D01*
X017933Y039610D01*
X017933Y039460D01*
X017857Y039385D01*
X017557Y039385D01*
X017482Y039460D01*
X017482Y039610D01*
X017557Y039686D01*
X017632Y039846D02*
X017632Y039921D01*
X017707Y039996D01*
X017632Y040071D01*
X017707Y040146D01*
X017933Y040146D01*
X017933Y039996D02*
X017707Y039996D01*
X017632Y039846D02*
X017933Y039846D01*
X017707Y040306D02*
X017707Y040456D01*
X017557Y040381D02*
X017933Y040381D01*
X017557Y040381D02*
X017482Y040456D01*
X018864Y038951D02*
X018789Y038876D01*
X018789Y038576D01*
X018864Y038500D01*
X019014Y038500D01*
X019089Y038576D01*
X019249Y038576D02*
X019249Y038651D01*
X019324Y038726D01*
X019474Y038726D01*
X019549Y038651D01*
X019549Y038576D01*
X019474Y038500D01*
X019324Y038500D01*
X019249Y038576D01*
X019324Y038726D02*
X019249Y038801D01*
X019249Y038876D01*
X019324Y038951D01*
X019474Y038951D01*
X019549Y038876D01*
X019549Y038801D01*
X019474Y038726D01*
X019710Y038651D02*
X019935Y038651D01*
X020010Y038726D01*
X020010Y038876D01*
X019935Y038951D01*
X019710Y038951D01*
X019710Y038500D01*
X019089Y038876D02*
X019014Y038951D01*
X018864Y038951D01*
X020482Y039000D02*
X020557Y038925D01*
X020482Y039000D02*
X020482Y039150D01*
X020557Y039225D01*
X020632Y039225D01*
X020933Y038925D01*
X020933Y039225D01*
X020857Y039385D02*
X020557Y039686D01*
X020857Y039686D01*
X020933Y039610D01*
X020933Y039460D01*
X020857Y039385D01*
X020557Y039385D01*
X020482Y039460D01*
X020482Y039610D01*
X020557Y039686D01*
X020632Y039846D02*
X020632Y039921D01*
X020707Y039996D01*
X020632Y040071D01*
X020707Y040146D01*
X020933Y040146D01*
X020933Y039996D02*
X020707Y039996D01*
X020632Y039846D02*
X020933Y039846D01*
X021289Y039751D02*
X021289Y039451D01*
X021364Y039375D01*
X021514Y039375D01*
X021589Y039451D01*
X021749Y039375D02*
X022049Y039676D01*
X022049Y039751D01*
X021974Y039826D01*
X021824Y039826D01*
X021749Y039751D01*
X021589Y039751D02*
X021514Y039826D01*
X021364Y039826D01*
X021289Y039751D01*
X021749Y039375D02*
X022049Y039375D01*
X021899Y039151D02*
X021899Y038700D01*
X021749Y038700D02*
X022049Y038700D01*
X022210Y038700D02*
X022210Y039001D01*
X022285Y039001D01*
X022360Y038926D01*
X022435Y039001D01*
X022510Y038926D01*
X022510Y038700D01*
X022360Y038700D02*
X022360Y038926D01*
X022360Y039375D02*
X022360Y039601D01*
X022510Y039751D01*
X022510Y039826D01*
X022360Y039601D02*
X022210Y039751D01*
X022210Y039826D01*
X021899Y039151D02*
X021749Y039001D01*
X020933Y038765D02*
X020933Y038464D01*
X020632Y038765D01*
X020557Y038765D01*
X020482Y038690D01*
X020482Y038540D01*
X020557Y038464D01*
X020707Y040306D02*
X020707Y040456D01*
X020557Y040381D02*
X020482Y040456D01*
X020557Y040381D02*
X020933Y040381D01*
X015754Y038876D02*
X015679Y038951D01*
X015528Y038951D01*
X009885Y039075D02*
X009885Y039301D01*
X009810Y039376D01*
X009735Y039301D01*
X009735Y039075D01*
X009585Y039075D02*
X009585Y039376D01*
X009660Y039376D01*
X009735Y039301D01*
X009735Y039625D02*
X009735Y039851D01*
X009885Y040001D01*
X009885Y040076D01*
X009735Y039851D02*
X009585Y040001D01*
X009585Y040076D01*
X009274Y040076D02*
X009274Y039625D01*
X009274Y039526D02*
X009124Y039376D01*
X009274Y039526D02*
X009274Y039075D01*
X009124Y039075D02*
X009424Y039075D01*
X009424Y039625D02*
X009124Y039625D01*
X008964Y039701D02*
X008889Y039625D01*
X008739Y039625D01*
X008664Y039701D01*
X008664Y040001D01*
X008739Y040076D01*
X008889Y040076D01*
X008964Y040001D01*
X009124Y039926D02*
X009274Y040076D01*
X006460Y041375D02*
X006160Y041375D01*
X006310Y041375D02*
X006310Y041826D01*
X006160Y041676D01*
X005085Y042475D02*
X004785Y042475D01*
X005085Y042776D01*
X005085Y042851D01*
X005010Y042926D01*
X004860Y042926D01*
X004785Y042851D01*
X004624Y042851D02*
X004624Y042701D01*
X004549Y042626D01*
X004324Y042626D01*
X004324Y042475D02*
X004324Y042926D01*
X004549Y042926D01*
X004624Y042851D01*
X004164Y042926D02*
X004014Y042926D01*
X004089Y042926D02*
X004089Y042551D01*
X004014Y042475D01*
X003939Y042475D01*
X003864Y042551D01*
X007810Y044150D02*
X008110Y044150D01*
X007960Y044150D02*
X007960Y044601D01*
X007810Y044451D01*
X002310Y039013D02*
X002160Y039013D01*
X002085Y038938D01*
X001924Y038938D02*
X001924Y038788D01*
X001849Y038713D01*
X001624Y038713D01*
X001624Y038563D02*
X001624Y039013D01*
X001849Y039013D01*
X001924Y038938D01*
X002310Y039013D02*
X002385Y038938D01*
X002385Y038863D01*
X002085Y038563D01*
X002385Y038563D01*
X002388Y038213D02*
X002313Y038138D01*
X002313Y037763D01*
X002078Y037763D02*
X002078Y037988D01*
X002003Y038063D01*
X001928Y037988D01*
X001928Y037763D01*
X001778Y037763D02*
X001778Y038063D01*
X001853Y038063D01*
X001928Y037988D01*
X002238Y037988D02*
X002388Y037988D01*
X001618Y038138D02*
X001618Y037838D01*
X001542Y037763D01*
X001392Y037763D01*
X001317Y037838D01*
X001618Y038138D01*
X001542Y038213D01*
X001392Y038213D01*
X001317Y038138D01*
X001317Y037838D01*
X001157Y037763D02*
X000857Y037763D01*
X001157Y038063D01*
X001157Y038138D01*
X001082Y038213D01*
X000932Y038213D01*
X000857Y038138D01*
X000697Y038138D02*
X000697Y038063D01*
X000396Y037763D01*
X000697Y037763D01*
X000697Y038138D02*
X000622Y038213D01*
X000472Y038213D01*
X000396Y038138D01*
X001164Y038638D02*
X001239Y038563D01*
X001389Y038563D01*
X001464Y038638D01*
X001164Y038638D02*
X001164Y038938D01*
X001239Y039013D01*
X001389Y039013D01*
X001464Y038938D01*
X023599Y044150D02*
X023899Y044451D01*
X023899Y044526D01*
X023824Y044601D01*
X023674Y044601D01*
X023599Y044526D01*
X023599Y044150D02*
X023899Y044150D01*
X024060Y044150D02*
X024360Y044150D01*
X024210Y044150D02*
X024210Y044601D01*
X024060Y044451D01*
X026445Y042876D02*
X026520Y042951D01*
X026670Y042951D01*
X026745Y042876D01*
X026905Y042876D02*
X026980Y042951D01*
X027131Y042951D01*
X027206Y042876D01*
X027206Y042576D01*
X027131Y042500D01*
X026980Y042500D01*
X026905Y042576D01*
X026745Y042576D02*
X026670Y042500D01*
X026520Y042500D01*
X026445Y042576D01*
X026445Y042876D01*
X026905Y042876D02*
X026905Y042801D01*
X026980Y042726D01*
X027206Y042726D01*
X027366Y042651D02*
X027591Y042651D01*
X027666Y042726D01*
X027666Y042876D01*
X027591Y042951D01*
X027366Y042951D01*
X027366Y042500D01*
X027256Y042251D02*
X027105Y042251D01*
X027030Y042176D01*
X026870Y042176D02*
X026795Y042251D01*
X026645Y042251D01*
X026570Y042176D01*
X026870Y042176D02*
X026870Y042101D01*
X026570Y041800D01*
X026870Y041800D01*
X027030Y041800D02*
X027331Y042101D01*
X027331Y042176D01*
X027256Y042251D01*
X027491Y042176D02*
X027491Y041876D01*
X027791Y042176D01*
X027791Y041876D01*
X027716Y041800D01*
X027566Y041800D01*
X027491Y041876D01*
X027331Y041800D02*
X027030Y041800D01*
X027491Y042176D02*
X027566Y042251D01*
X027716Y042251D01*
X027791Y042176D01*
X027951Y042101D02*
X028026Y042101D01*
X028101Y042026D01*
X028176Y042101D01*
X028251Y042026D01*
X028251Y041800D01*
X028101Y041800D02*
X028101Y042026D01*
X027951Y042101D02*
X027951Y041800D01*
X028412Y042026D02*
X028562Y042026D01*
X028487Y042176D02*
X028562Y042251D01*
X028487Y042176D02*
X028487Y041800D01*
X029986Y043507D02*
X029986Y048035D01*
X031954Y048035D01*
X031954Y043507D01*
X029986Y043507D01*
X028670Y038478D02*
X028670Y038178D01*
X028670Y038328D02*
X028220Y038328D01*
X028370Y038178D01*
X028295Y038017D02*
X028220Y037942D01*
X028220Y037792D01*
X028295Y037717D01*
X028595Y037717D01*
X028670Y037792D01*
X028670Y037942D01*
X028595Y038017D01*
X045932Y034007D02*
X046383Y034007D01*
X046232Y034007D02*
X046082Y034232D01*
X046232Y034007D02*
X046383Y034232D01*
X046307Y033847D02*
X046383Y033772D01*
X046383Y033622D01*
X046307Y033546D01*
X046007Y033847D01*
X046307Y033847D01*
X046007Y033847D02*
X045932Y033772D01*
X045932Y033622D01*
X046007Y033546D01*
X046307Y033546D01*
X046383Y033386D02*
X046383Y033086D01*
X046358Y033040D02*
X046358Y032740D01*
X046358Y032890D02*
X045907Y032890D01*
X046057Y032740D01*
X046057Y032580D02*
X045982Y032580D01*
X045907Y032505D01*
X045907Y032355D01*
X045982Y032280D01*
X045982Y032120D02*
X046132Y032120D01*
X046207Y032045D01*
X046207Y031819D01*
X046207Y031969D02*
X046358Y032120D01*
X046358Y032280D02*
X046057Y032580D01*
X046358Y032580D02*
X046358Y032280D01*
X045982Y032120D02*
X045907Y032045D01*
X045907Y031819D01*
X046358Y031819D01*
X046082Y033086D02*
X045932Y033236D01*
X046383Y033236D01*
X061045Y040063D02*
X061345Y040063D01*
X061195Y040063D02*
X061195Y040513D01*
X061045Y040363D01*
X064120Y041838D02*
X064420Y042288D01*
X064580Y042213D02*
X064655Y042288D01*
X064806Y042288D01*
X064881Y042213D01*
X064881Y042138D01*
X064806Y042063D01*
X064881Y041988D01*
X064881Y041913D01*
X064806Y041838D01*
X064655Y041838D01*
X064580Y041913D01*
X064420Y041838D02*
X064120Y042288D01*
X064731Y042063D02*
X064806Y042063D01*
X065041Y041988D02*
X065266Y041988D01*
X065341Y042063D01*
X065341Y042213D01*
X065266Y042288D01*
X065041Y042288D01*
X065041Y041838D01*
X065820Y040513D02*
X065595Y040288D01*
X065895Y040288D01*
X065820Y040063D02*
X065820Y040513D01*
D15*
X027883Y018514D02*
X027883Y012687D01*
X022057Y012687D01*
X022057Y018514D01*
X027883Y018514D01*
D16*
X034620Y019550D02*
X034620Y005650D01*
X036720Y005650D01*
X036722Y005694D01*
X036728Y005737D01*
X036737Y005779D01*
X036750Y005821D01*
X036767Y005861D01*
X036787Y005900D01*
X036810Y005937D01*
X036837Y005971D01*
X036866Y006004D01*
X036899Y006033D01*
X036933Y006060D01*
X036970Y006083D01*
X037009Y006103D01*
X037049Y006120D01*
X037091Y006133D01*
X037133Y006142D01*
X037176Y006148D01*
X037220Y006150D01*
X037264Y006148D01*
X037307Y006142D01*
X037349Y006133D01*
X037391Y006120D01*
X037431Y006103D01*
X037470Y006083D01*
X037507Y006060D01*
X037541Y006033D01*
X037574Y006004D01*
X037603Y005971D01*
X037630Y005937D01*
X037653Y005900D01*
X037673Y005861D01*
X037690Y005821D01*
X037703Y005779D01*
X037712Y005737D01*
X037718Y005694D01*
X037720Y005650D01*
X039820Y005650D01*
X039820Y019550D01*
X034620Y019550D01*
X042324Y014604D02*
X044624Y014604D01*
X044624Y004604D01*
X043874Y004604D01*
X043872Y004643D01*
X043866Y004682D01*
X043857Y004720D01*
X043844Y004757D01*
X043827Y004793D01*
X043807Y004826D01*
X043783Y004858D01*
X043757Y004887D01*
X043728Y004913D01*
X043696Y004937D01*
X043663Y004957D01*
X043627Y004974D01*
X043590Y004987D01*
X043552Y004996D01*
X043513Y005002D01*
X043474Y005004D01*
X043435Y005002D01*
X043396Y004996D01*
X043358Y004987D01*
X043321Y004974D01*
X043285Y004957D01*
X043252Y004937D01*
X043220Y004913D01*
X043191Y004887D01*
X043165Y004858D01*
X043141Y004826D01*
X043121Y004793D01*
X043104Y004757D01*
X043091Y004720D01*
X043082Y004682D01*
X043076Y004643D01*
X043074Y004604D01*
X042324Y004604D01*
X042324Y014604D01*
X048023Y014605D02*
X050323Y014605D01*
X050323Y004605D01*
X049573Y004605D01*
X049571Y004644D01*
X049565Y004683D01*
X049556Y004721D01*
X049543Y004758D01*
X049526Y004794D01*
X049506Y004827D01*
X049482Y004859D01*
X049456Y004888D01*
X049427Y004914D01*
X049395Y004938D01*
X049362Y004958D01*
X049326Y004975D01*
X049289Y004988D01*
X049251Y004997D01*
X049212Y005003D01*
X049173Y005005D01*
X049134Y005003D01*
X049095Y004997D01*
X049057Y004988D01*
X049020Y004975D01*
X048984Y004958D01*
X048951Y004938D01*
X048919Y004914D01*
X048890Y004888D01*
X048864Y004859D01*
X048840Y004827D01*
X048820Y004794D01*
X048803Y004758D01*
X048790Y004721D01*
X048781Y004683D01*
X048775Y004644D01*
X048773Y004605D01*
X048023Y004605D01*
X048023Y014605D01*
X054195Y020600D02*
X059495Y020600D01*
X059495Y004600D01*
X057245Y004600D01*
X057285Y004421D02*
X057285Y003780D01*
X057072Y003780D02*
X057499Y003780D01*
X057716Y003887D02*
X058143Y004314D01*
X058143Y003887D01*
X058037Y003780D01*
X057823Y003780D01*
X057716Y003887D01*
X057716Y004314D01*
X057823Y004421D01*
X058037Y004421D01*
X058143Y004314D01*
X058361Y004314D02*
X058468Y004421D01*
X058681Y004421D01*
X058788Y004314D01*
X058788Y004208D01*
X058361Y003780D01*
X058788Y003780D01*
X059005Y004101D02*
X059432Y004101D01*
X059326Y004421D02*
X059326Y003780D01*
X059005Y004101D02*
X059326Y004421D01*
X057285Y004421D02*
X057072Y004208D01*
X056854Y004208D02*
X056427Y003780D01*
X056854Y003780D01*
X056854Y004208D02*
X056854Y004314D01*
X056748Y004421D01*
X056534Y004421D01*
X056427Y004314D01*
X056210Y004421D02*
X055996Y004314D01*
X055783Y004101D01*
X056103Y004101D01*
X056210Y003994D01*
X056210Y003887D01*
X056103Y003780D01*
X055889Y003780D01*
X055783Y003887D01*
X055783Y004101D01*
X055632Y004208D02*
X055526Y004101D01*
X055632Y003994D01*
X055632Y003887D01*
X055526Y003780D01*
X055312Y003780D01*
X055205Y003887D01*
X054988Y003887D02*
X054988Y004314D01*
X054881Y004421D01*
X054561Y004421D01*
X054561Y003780D01*
X054881Y003780D01*
X054988Y003887D01*
X055205Y004314D02*
X055312Y004421D01*
X055526Y004421D01*
X055632Y004314D01*
X055632Y004208D01*
X055526Y004101D02*
X055419Y004101D01*
X054343Y004314D02*
X054237Y004421D01*
X053916Y004421D01*
X053916Y003780D01*
X054237Y003780D01*
X054343Y003887D01*
X054343Y004314D01*
X054195Y004600D02*
X056445Y004600D01*
X056447Y004639D01*
X056453Y004678D01*
X056462Y004716D01*
X056475Y004753D01*
X056492Y004789D01*
X056512Y004822D01*
X056536Y004854D01*
X056562Y004883D01*
X056591Y004909D01*
X056623Y004933D01*
X056656Y004953D01*
X056692Y004970D01*
X056729Y004983D01*
X056767Y004992D01*
X056806Y004998D01*
X056845Y005000D01*
X056884Y004998D01*
X056923Y004992D01*
X056961Y004983D01*
X056998Y004970D01*
X057034Y004953D01*
X057067Y004933D01*
X057099Y004909D01*
X057128Y004883D01*
X057154Y004854D01*
X057178Y004822D01*
X057198Y004789D01*
X057215Y004753D01*
X057228Y004716D01*
X057237Y004678D01*
X057243Y004639D01*
X057245Y004600D01*
X054195Y004600D02*
X054195Y020600D01*
X051591Y023262D02*
X051591Y025562D01*
X061591Y025562D01*
X061591Y024812D01*
X061552Y024810D01*
X061513Y024804D01*
X061475Y024795D01*
X061438Y024782D01*
X061402Y024765D01*
X061369Y024745D01*
X061337Y024721D01*
X061308Y024695D01*
X061282Y024666D01*
X061258Y024634D01*
X061238Y024601D01*
X061221Y024565D01*
X061208Y024528D01*
X061199Y024490D01*
X061193Y024451D01*
X061191Y024412D01*
X061193Y024373D01*
X061199Y024334D01*
X061208Y024296D01*
X061221Y024259D01*
X061238Y024223D01*
X061258Y024190D01*
X061282Y024158D01*
X061308Y024129D01*
X061337Y024103D01*
X061369Y024079D01*
X061402Y024059D01*
X061438Y024042D01*
X061475Y024029D01*
X061513Y024020D01*
X061552Y024014D01*
X061591Y024012D01*
X061591Y023262D01*
X051591Y023262D01*
X049620Y026725D02*
X044320Y026725D01*
X044320Y046725D01*
X046520Y046725D01*
X046507Y046855D02*
X046080Y046855D01*
X046294Y046855D02*
X046294Y047496D01*
X046080Y047283D01*
X045863Y047389D02*
X045756Y047496D01*
X045436Y047496D01*
X045436Y046855D01*
X045756Y046855D01*
X045863Y046962D01*
X045863Y047389D01*
X045218Y047389D02*
X045218Y046962D01*
X045112Y046855D01*
X044791Y046855D01*
X044791Y047496D01*
X045112Y047496D01*
X045218Y047389D01*
X046520Y046725D02*
X046522Y046686D01*
X046528Y046647D01*
X046537Y046609D01*
X046550Y046572D01*
X046567Y046536D01*
X046587Y046503D01*
X046611Y046471D01*
X046637Y046442D01*
X046666Y046416D01*
X046698Y046392D01*
X046731Y046372D01*
X046767Y046355D01*
X046804Y046342D01*
X046842Y046333D01*
X046881Y046327D01*
X046920Y046325D01*
X046959Y046327D01*
X046998Y046333D01*
X047036Y046342D01*
X047073Y046355D01*
X047109Y046372D01*
X047142Y046392D01*
X047174Y046416D01*
X047203Y046442D01*
X047229Y046471D01*
X047253Y046503D01*
X047273Y046536D01*
X047290Y046572D01*
X047303Y046609D01*
X047312Y046647D01*
X047318Y046686D01*
X047320Y046725D01*
X049620Y046725D01*
X049620Y026725D01*
X054195Y030725D02*
X059495Y030725D01*
X059495Y046725D01*
X057245Y046725D01*
X057103Y046905D02*
X056889Y046905D01*
X056783Y047012D01*
X056889Y047226D02*
X057210Y047226D01*
X057210Y047439D02*
X057210Y047012D01*
X057103Y046905D01*
X057245Y046725D02*
X057243Y046686D01*
X057237Y046647D01*
X057228Y046609D01*
X057215Y046572D01*
X057198Y046536D01*
X057178Y046503D01*
X057154Y046471D01*
X057128Y046442D01*
X057099Y046416D01*
X057067Y046392D01*
X057034Y046372D01*
X056998Y046355D01*
X056961Y046342D01*
X056923Y046333D01*
X056884Y046327D01*
X056845Y046325D01*
X056806Y046327D01*
X056767Y046333D01*
X056729Y046342D01*
X056692Y046355D01*
X056656Y046372D01*
X056623Y046392D01*
X056591Y046416D01*
X056562Y046442D01*
X056536Y046471D01*
X056512Y046503D01*
X056492Y046536D01*
X056475Y046572D01*
X056462Y046609D01*
X056453Y046647D01*
X056447Y046686D01*
X056445Y046725D01*
X054195Y046725D01*
X054195Y030725D01*
X046608Y031950D02*
X046608Y032100D01*
X046558Y032150D01*
X046558Y034050D01*
X046608Y034100D01*
X046608Y034250D01*
X046606Y034267D01*
X046602Y034284D01*
X046595Y034300D01*
X046585Y034314D01*
X046572Y034327D01*
X046558Y034337D01*
X046542Y034344D01*
X046525Y034348D01*
X046508Y034350D01*
X045808Y034350D01*
X045791Y034348D01*
X045774Y034344D01*
X045758Y034337D01*
X045744Y034327D01*
X045731Y034314D01*
X045721Y034300D01*
X045714Y034284D01*
X045710Y034267D01*
X045708Y034250D01*
X045708Y034100D01*
X045758Y034050D01*
X045758Y032150D01*
X045708Y032100D01*
X045708Y031950D01*
X045710Y031933D01*
X045714Y031916D01*
X045721Y031900D01*
X045731Y031886D01*
X045744Y031873D01*
X045758Y031863D01*
X045774Y031856D01*
X045791Y031852D01*
X045808Y031850D01*
X046508Y031850D01*
X046525Y031852D01*
X046542Y031856D01*
X046558Y031863D01*
X046572Y031873D01*
X046585Y031886D01*
X046595Y031900D01*
X046602Y031916D01*
X046606Y031933D01*
X046608Y031950D01*
X039195Y026325D02*
X039195Y047125D01*
X033995Y047125D01*
X033995Y026325D01*
X036095Y026325D01*
X036097Y026369D01*
X036103Y026412D01*
X036112Y026454D01*
X036125Y026496D01*
X036142Y026536D01*
X036162Y026575D01*
X036185Y026612D01*
X036212Y026646D01*
X036241Y026679D01*
X036274Y026708D01*
X036308Y026735D01*
X036345Y026758D01*
X036384Y026778D01*
X036424Y026795D01*
X036466Y026808D01*
X036508Y026817D01*
X036551Y026823D01*
X036595Y026825D01*
X036639Y026823D01*
X036682Y026817D01*
X036724Y026808D01*
X036766Y026795D01*
X036806Y026778D01*
X036845Y026758D01*
X036882Y026735D01*
X036916Y026708D01*
X036949Y026679D01*
X036978Y026646D01*
X037005Y026612D01*
X037028Y026575D01*
X037048Y026536D01*
X037065Y026496D01*
X037078Y026454D01*
X037087Y026412D01*
X037093Y026369D01*
X037095Y026325D01*
X039195Y026325D01*
X030782Y029846D02*
X030355Y029846D01*
X030355Y029205D01*
X030138Y029312D02*
X030138Y029739D01*
X030031Y029846D01*
X029818Y029846D01*
X029711Y029739D01*
X029711Y029633D01*
X029818Y029526D01*
X030138Y029526D01*
X030138Y029312D02*
X030031Y029205D01*
X029818Y029205D01*
X029711Y029312D01*
X029493Y029526D02*
X029066Y029526D01*
X029387Y029846D01*
X029387Y029205D01*
X028849Y029205D02*
X028422Y029205D01*
X028635Y029205D02*
X028635Y029846D01*
X028422Y029633D01*
X028204Y029633D02*
X028204Y029739D01*
X028098Y029846D01*
X027884Y029846D01*
X027777Y029739D01*
X027560Y029846D02*
X027560Y029205D01*
X027777Y029205D02*
X028204Y029633D01*
X028204Y029205D02*
X027777Y029205D01*
X027346Y029633D02*
X027560Y029846D01*
X027416Y030105D02*
X027737Y030105D01*
X027843Y030212D01*
X027843Y030639D01*
X027737Y030746D01*
X027416Y030746D01*
X027416Y030105D01*
X027133Y029846D02*
X027346Y029633D01*
X027133Y029846D02*
X027133Y029205D01*
X026702Y029205D02*
X026702Y029526D01*
X026915Y029739D01*
X026915Y029846D01*
X026702Y029526D02*
X026488Y029739D01*
X026488Y029846D01*
X025845Y029500D02*
X025845Y030250D01*
X018845Y030250D01*
X018845Y027950D01*
X025845Y027950D01*
X025845Y028700D01*
X025806Y028702D01*
X025767Y028708D01*
X025729Y028717D01*
X025692Y028730D01*
X025656Y028747D01*
X025623Y028767D01*
X025591Y028791D01*
X025562Y028817D01*
X025536Y028846D01*
X025512Y028878D01*
X025492Y028911D01*
X025475Y028947D01*
X025462Y028984D01*
X025453Y029022D01*
X025447Y029061D01*
X025445Y029100D01*
X025447Y029139D01*
X025453Y029178D01*
X025462Y029216D01*
X025475Y029253D01*
X025492Y029289D01*
X025512Y029322D01*
X025536Y029354D01*
X025562Y029383D01*
X025591Y029409D01*
X025623Y029433D01*
X025656Y029453D01*
X025692Y029470D01*
X025729Y029483D01*
X025767Y029492D01*
X025806Y029498D01*
X025845Y029500D01*
X028061Y030105D02*
X028381Y030105D01*
X028488Y030212D01*
X028488Y030639D01*
X028381Y030746D01*
X028061Y030746D01*
X028061Y030105D01*
X028705Y030212D02*
X028812Y030105D01*
X029026Y030105D01*
X029132Y030212D01*
X029132Y030639D01*
X029026Y030746D01*
X028812Y030746D01*
X028705Y030639D01*
X028705Y030533D01*
X028812Y030426D01*
X029132Y030426D01*
X030355Y029526D02*
X030569Y029526D01*
X030345Y032075D02*
X030345Y034375D01*
X030306Y034377D01*
X030267Y034383D01*
X030229Y034392D01*
X030192Y034405D01*
X030156Y034422D01*
X030123Y034442D01*
X030091Y034466D01*
X030062Y034492D01*
X030036Y034521D01*
X030012Y034553D01*
X029992Y034586D01*
X029975Y034622D01*
X029962Y034659D01*
X029953Y034697D01*
X029947Y034736D01*
X029945Y034775D01*
X029947Y034814D01*
X029953Y034853D01*
X029962Y034891D01*
X029975Y034928D01*
X029992Y034964D01*
X030012Y034997D01*
X030036Y035029D01*
X030062Y035058D01*
X030091Y035084D01*
X030123Y035108D01*
X030156Y035128D01*
X030192Y035145D01*
X030229Y035158D01*
X030267Y035167D01*
X030306Y035173D01*
X030345Y035175D01*
X030345Y037375D01*
X010345Y037375D01*
X010345Y032075D01*
X030345Y032075D01*
X024395Y038875D02*
X024395Y038975D01*
X024295Y038975D01*
X024395Y038975D02*
X024395Y039075D01*
X024395Y038975D02*
X024495Y038975D01*
X024145Y038975D02*
X024145Y039475D01*
X024145Y039975D01*
X023945Y039975D01*
X023945Y038975D01*
X024145Y038975D01*
X024145Y039475D02*
X024495Y039475D01*
X022845Y039475D02*
X022847Y039538D01*
X022853Y039600D01*
X022863Y039662D01*
X022876Y039724D01*
X022894Y039784D01*
X022915Y039843D01*
X022940Y039901D01*
X022969Y039957D01*
X023001Y040011D01*
X023036Y040063D01*
X023074Y040112D01*
X023116Y040160D01*
X023160Y040204D01*
X023208Y040246D01*
X023257Y040284D01*
X023309Y040319D01*
X023363Y040351D01*
X023419Y040380D01*
X023477Y040405D01*
X023536Y040426D01*
X023596Y040444D01*
X023658Y040457D01*
X023720Y040467D01*
X023782Y040473D01*
X023845Y040475D01*
X023908Y040473D01*
X023970Y040467D01*
X024032Y040457D01*
X024094Y040444D01*
X024154Y040426D01*
X024213Y040405D01*
X024271Y040380D01*
X024327Y040351D01*
X024381Y040319D01*
X024433Y040284D01*
X024482Y040246D01*
X024530Y040204D01*
X024574Y040160D01*
X024616Y040112D01*
X024654Y040063D01*
X024689Y040011D01*
X024721Y039957D01*
X024750Y039901D01*
X024775Y039843D01*
X024796Y039784D01*
X024814Y039724D01*
X024827Y039662D01*
X024837Y039600D01*
X024843Y039538D01*
X024845Y039475D01*
X024843Y039412D01*
X024837Y039350D01*
X024827Y039288D01*
X024814Y039226D01*
X024796Y039166D01*
X024775Y039107D01*
X024750Y039049D01*
X024721Y038993D01*
X024689Y038939D01*
X024654Y038887D01*
X024616Y038838D01*
X024574Y038790D01*
X024530Y038746D01*
X024482Y038704D01*
X024433Y038666D01*
X024381Y038631D01*
X024327Y038599D01*
X024271Y038570D01*
X024213Y038545D01*
X024154Y038524D01*
X024094Y038506D01*
X024032Y038493D01*
X023970Y038483D01*
X023908Y038477D01*
X023845Y038475D01*
X023782Y038477D01*
X023720Y038483D01*
X023658Y038493D01*
X023596Y038506D01*
X023536Y038524D01*
X023477Y038545D01*
X023419Y038570D01*
X023363Y038599D01*
X023309Y038631D01*
X023257Y038666D01*
X023208Y038704D01*
X023160Y038746D01*
X023116Y038790D01*
X023074Y038838D01*
X023036Y038887D01*
X023001Y038939D01*
X022969Y038993D01*
X022940Y039049D01*
X022915Y039107D01*
X022894Y039166D01*
X022876Y039226D01*
X022863Y039288D01*
X022853Y039350D01*
X022847Y039412D01*
X022845Y039475D01*
X023195Y039475D02*
X023595Y039475D01*
X023445Y040975D02*
X023195Y041225D01*
X023195Y042225D01*
X023195Y042675D01*
X022995Y042875D01*
X022995Y043125D01*
X022695Y043125D01*
X022695Y042875D01*
X022495Y042675D01*
X022495Y042225D01*
X022495Y041225D01*
X022245Y040975D01*
X021945Y040975D01*
X021695Y041225D01*
X021695Y042225D01*
X021695Y042675D01*
X021495Y042875D01*
X021495Y043125D01*
X021195Y043125D01*
X021195Y042875D01*
X020995Y042675D01*
X020995Y042225D01*
X020995Y041225D01*
X020745Y040975D01*
X020445Y040975D01*
X020195Y041225D01*
X020195Y042225D01*
X020195Y042675D01*
X019995Y042875D01*
X019995Y043125D01*
X019695Y043125D01*
X019695Y042875D01*
X019495Y042675D01*
X019495Y042225D01*
X019495Y041225D01*
X019245Y040975D01*
X018945Y040975D01*
X018695Y041225D01*
X018695Y042225D01*
X018695Y042675D01*
X018495Y042875D01*
X018495Y043125D01*
X018195Y043125D01*
X018195Y042875D01*
X017995Y042675D01*
X017995Y042225D01*
X017995Y041225D01*
X017745Y040975D01*
X017445Y040975D01*
X017195Y041225D01*
X017195Y042225D01*
X017195Y042675D01*
X016995Y042875D01*
X016995Y043125D01*
X016695Y043125D01*
X016695Y042875D01*
X016495Y042675D01*
X016495Y042225D01*
X016495Y041225D01*
X016245Y040975D01*
X015945Y040975D01*
X015695Y041225D01*
X015695Y042225D01*
X015695Y042675D01*
X015495Y042875D01*
X015495Y043125D01*
X015195Y043125D01*
X015195Y042875D01*
X014995Y042675D01*
X014995Y042225D01*
X014995Y041225D01*
X014745Y040975D01*
X014445Y040975D01*
X014195Y041225D01*
X014195Y042225D01*
X014195Y042675D01*
X013995Y042875D01*
X013995Y043125D01*
X013695Y043125D01*
X013695Y042875D01*
X013495Y042675D01*
X013495Y042225D01*
X013495Y041225D01*
X013245Y040975D01*
X012945Y040975D01*
X012695Y041225D01*
X012695Y042225D01*
X012695Y042675D01*
X012495Y042875D01*
X012495Y043125D01*
X012195Y043125D01*
X012195Y042875D01*
X011995Y042675D01*
X011995Y042225D01*
X011995Y041225D01*
X011745Y040975D01*
X011445Y040975D01*
X011195Y041225D01*
X011195Y042225D01*
X011195Y042675D01*
X010995Y042875D01*
X010995Y043125D01*
X010695Y043125D01*
X010695Y042875D01*
X010495Y042675D01*
X010495Y042225D01*
X010495Y041225D01*
X010245Y040975D01*
X009945Y040975D01*
X009695Y041225D01*
X009695Y042225D01*
X009695Y042675D01*
X009495Y042875D01*
X009495Y043125D01*
X009195Y043125D01*
X009195Y042875D01*
X008995Y042675D01*
X008995Y042225D01*
X008995Y041225D01*
X008745Y040975D01*
X008445Y040975D01*
X008195Y041225D01*
X008195Y042225D01*
X008195Y043725D01*
X008745Y043725D01*
X009945Y043725D01*
X010245Y043725D01*
X011445Y043725D01*
X011745Y043725D01*
X012945Y043725D01*
X013245Y043725D01*
X014445Y043725D01*
X014745Y043725D01*
X015945Y043725D01*
X016245Y043725D01*
X017445Y043725D01*
X017745Y043725D01*
X018945Y043725D01*
X019245Y043725D01*
X020445Y043725D01*
X020745Y043725D01*
X021945Y043725D01*
X022245Y043725D01*
X023445Y043725D01*
X023995Y043725D01*
X025345Y043725D01*
X029095Y043725D01*
X029095Y044925D01*
X025345Y044925D01*
X025345Y048075D01*
X006845Y048075D01*
X006845Y044925D01*
X006845Y043725D01*
X008195Y043725D01*
X006845Y043725D02*
X003095Y043725D01*
X003095Y044925D01*
X006845Y044925D01*
X004595Y045325D02*
X004595Y043325D01*
X004845Y042100D02*
X005095Y041850D01*
X005345Y042100D01*
X005845Y042100D01*
X006095Y041850D01*
X006095Y041350D01*
X005845Y041100D01*
X005345Y041100D01*
X005095Y041350D01*
X004845Y041100D01*
X004345Y041100D01*
X004095Y041350D01*
X003845Y041100D01*
X003345Y041100D01*
X003095Y041350D01*
X003095Y041850D01*
X003345Y042100D01*
X003845Y042100D01*
X004095Y041850D01*
X004345Y042100D01*
X004845Y042100D01*
X002520Y040788D02*
X002320Y040788D01*
X002320Y039788D01*
X002520Y039788D01*
X002520Y040288D01*
X002520Y040788D01*
X002520Y040288D02*
X002870Y040288D01*
X002770Y039888D02*
X002770Y039788D01*
X002770Y039688D01*
X002770Y039788D02*
X002670Y039788D01*
X002770Y039788D02*
X002870Y039788D01*
X001220Y040288D02*
X001222Y040351D01*
X001228Y040413D01*
X001238Y040475D01*
X001251Y040537D01*
X001269Y040597D01*
X001290Y040656D01*
X001315Y040714D01*
X001344Y040770D01*
X001376Y040824D01*
X001411Y040876D01*
X001449Y040925D01*
X001491Y040973D01*
X001535Y041017D01*
X001583Y041059D01*
X001632Y041097D01*
X001684Y041132D01*
X001738Y041164D01*
X001794Y041193D01*
X001852Y041218D01*
X001911Y041239D01*
X001971Y041257D01*
X002033Y041270D01*
X002095Y041280D01*
X002157Y041286D01*
X002220Y041288D01*
X002283Y041286D01*
X002345Y041280D01*
X002407Y041270D01*
X002469Y041257D01*
X002529Y041239D01*
X002588Y041218D01*
X002646Y041193D01*
X002702Y041164D01*
X002756Y041132D01*
X002808Y041097D01*
X002857Y041059D01*
X002905Y041017D01*
X002949Y040973D01*
X002991Y040925D01*
X003029Y040876D01*
X003064Y040824D01*
X003096Y040770D01*
X003125Y040714D01*
X003150Y040656D01*
X003171Y040597D01*
X003189Y040537D01*
X003202Y040475D01*
X003212Y040413D01*
X003218Y040351D01*
X003220Y040288D01*
X003218Y040225D01*
X003212Y040163D01*
X003202Y040101D01*
X003189Y040039D01*
X003171Y039979D01*
X003150Y039920D01*
X003125Y039862D01*
X003096Y039806D01*
X003064Y039752D01*
X003029Y039700D01*
X002991Y039651D01*
X002949Y039603D01*
X002905Y039559D01*
X002857Y039517D01*
X002808Y039479D01*
X002756Y039444D01*
X002702Y039412D01*
X002646Y039383D01*
X002588Y039358D01*
X002529Y039337D01*
X002469Y039319D01*
X002407Y039306D01*
X002345Y039296D01*
X002283Y039290D01*
X002220Y039288D01*
X002157Y039290D01*
X002095Y039296D01*
X002033Y039306D01*
X001971Y039319D01*
X001911Y039337D01*
X001852Y039358D01*
X001794Y039383D01*
X001738Y039412D01*
X001684Y039444D01*
X001632Y039479D01*
X001583Y039517D01*
X001535Y039559D01*
X001491Y039603D01*
X001449Y039651D01*
X001411Y039700D01*
X001376Y039752D01*
X001344Y039806D01*
X001315Y039862D01*
X001290Y039920D01*
X001269Y039979D01*
X001251Y040039D01*
X001238Y040101D01*
X001228Y040163D01*
X001222Y040225D01*
X001220Y040288D01*
X001570Y040288D02*
X001970Y040288D01*
X003745Y039025D02*
X003745Y026925D01*
X006945Y026925D01*
X006945Y039025D01*
X005595Y039025D01*
X005593Y038995D01*
X005588Y038965D01*
X005579Y038936D01*
X005566Y038909D01*
X005551Y038883D01*
X005532Y038859D01*
X005511Y038838D01*
X005487Y038819D01*
X005461Y038804D01*
X005434Y038791D01*
X005405Y038782D01*
X005375Y038777D01*
X005345Y038775D01*
X005315Y038777D01*
X005285Y038782D01*
X005256Y038791D01*
X005229Y038804D01*
X005203Y038819D01*
X005179Y038838D01*
X005158Y038859D01*
X005139Y038883D01*
X005124Y038909D01*
X005111Y038936D01*
X005102Y038965D01*
X005097Y038995D01*
X005095Y039025D01*
X003745Y039025D01*
X010570Y039475D02*
X010970Y039475D01*
X010220Y039475D02*
X010222Y039538D01*
X010228Y039600D01*
X010238Y039662D01*
X010251Y039724D01*
X010269Y039784D01*
X010290Y039843D01*
X010315Y039901D01*
X010344Y039957D01*
X010376Y040011D01*
X010411Y040063D01*
X010449Y040112D01*
X010491Y040160D01*
X010535Y040204D01*
X010583Y040246D01*
X010632Y040284D01*
X010684Y040319D01*
X010738Y040351D01*
X010794Y040380D01*
X010852Y040405D01*
X010911Y040426D01*
X010971Y040444D01*
X011033Y040457D01*
X011095Y040467D01*
X011157Y040473D01*
X011220Y040475D01*
X011283Y040473D01*
X011345Y040467D01*
X011407Y040457D01*
X011469Y040444D01*
X011529Y040426D01*
X011588Y040405D01*
X011646Y040380D01*
X011702Y040351D01*
X011756Y040319D01*
X011808Y040284D01*
X011857Y040246D01*
X011905Y040204D01*
X011949Y040160D01*
X011991Y040112D01*
X012029Y040063D01*
X012064Y040011D01*
X012096Y039957D01*
X012125Y039901D01*
X012150Y039843D01*
X012171Y039784D01*
X012189Y039724D01*
X012202Y039662D01*
X012212Y039600D01*
X012218Y039538D01*
X012220Y039475D01*
X012218Y039412D01*
X012212Y039350D01*
X012202Y039288D01*
X012189Y039226D01*
X012171Y039166D01*
X012150Y039107D01*
X012125Y039049D01*
X012096Y038993D01*
X012064Y038939D01*
X012029Y038887D01*
X011991Y038838D01*
X011949Y038790D01*
X011905Y038746D01*
X011857Y038704D01*
X011808Y038666D01*
X011756Y038631D01*
X011702Y038599D01*
X011646Y038570D01*
X011588Y038545D01*
X011529Y038524D01*
X011469Y038506D01*
X011407Y038493D01*
X011345Y038483D01*
X011283Y038477D01*
X011220Y038475D01*
X011157Y038477D01*
X011095Y038483D01*
X011033Y038493D01*
X010971Y038506D01*
X010911Y038524D01*
X010852Y038545D01*
X010794Y038570D01*
X010738Y038599D01*
X010684Y038631D01*
X010632Y038666D01*
X010583Y038704D01*
X010535Y038746D01*
X010491Y038790D01*
X010449Y038838D01*
X010411Y038887D01*
X010376Y038939D01*
X010344Y038993D01*
X010315Y039049D01*
X010290Y039107D01*
X010269Y039166D01*
X010251Y039226D01*
X010238Y039288D01*
X010228Y039350D01*
X010222Y039412D01*
X010220Y039475D01*
X011320Y038975D02*
X011520Y038975D01*
X011520Y039475D01*
X011520Y039975D01*
X011320Y039975D01*
X011320Y038975D01*
X011670Y038975D02*
X011770Y038975D01*
X011770Y038875D01*
X011770Y038975D02*
X011770Y039075D01*
X011770Y038975D02*
X011870Y038975D01*
X011870Y039475D02*
X011520Y039475D01*
X012945Y040100D02*
X013345Y040100D01*
X012595Y040100D02*
X012597Y040163D01*
X012603Y040225D01*
X012613Y040287D01*
X012626Y040349D01*
X012644Y040409D01*
X012665Y040468D01*
X012690Y040526D01*
X012719Y040582D01*
X012751Y040636D01*
X012786Y040688D01*
X012824Y040737D01*
X012866Y040785D01*
X012910Y040829D01*
X012958Y040871D01*
X013007Y040909D01*
X013059Y040944D01*
X013113Y040976D01*
X013169Y041005D01*
X013227Y041030D01*
X013286Y041051D01*
X013346Y041069D01*
X013408Y041082D01*
X013470Y041092D01*
X013532Y041098D01*
X013595Y041100D01*
X013658Y041098D01*
X013720Y041092D01*
X013782Y041082D01*
X013844Y041069D01*
X013904Y041051D01*
X013963Y041030D01*
X014021Y041005D01*
X014077Y040976D01*
X014131Y040944D01*
X014183Y040909D01*
X014232Y040871D01*
X014280Y040829D01*
X014324Y040785D01*
X014366Y040737D01*
X014404Y040688D01*
X014439Y040636D01*
X014471Y040582D01*
X014500Y040526D01*
X014525Y040468D01*
X014546Y040409D01*
X014564Y040349D01*
X014577Y040287D01*
X014587Y040225D01*
X014593Y040163D01*
X014595Y040100D01*
X014593Y040037D01*
X014587Y039975D01*
X014577Y039913D01*
X014564Y039851D01*
X014546Y039791D01*
X014525Y039732D01*
X014500Y039674D01*
X014471Y039618D01*
X014439Y039564D01*
X014404Y039512D01*
X014366Y039463D01*
X014324Y039415D01*
X014280Y039371D01*
X014232Y039329D01*
X014183Y039291D01*
X014131Y039256D01*
X014077Y039224D01*
X014021Y039195D01*
X013963Y039170D01*
X013904Y039149D01*
X013844Y039131D01*
X013782Y039118D01*
X013720Y039108D01*
X013658Y039102D01*
X013595Y039100D01*
X013532Y039102D01*
X013470Y039108D01*
X013408Y039118D01*
X013346Y039131D01*
X013286Y039149D01*
X013227Y039170D01*
X013169Y039195D01*
X013113Y039224D01*
X013059Y039256D01*
X013007Y039291D01*
X012958Y039329D01*
X012910Y039371D01*
X012866Y039415D01*
X012824Y039463D01*
X012786Y039512D01*
X012751Y039564D01*
X012719Y039618D01*
X012690Y039674D01*
X012665Y039732D01*
X012644Y039791D01*
X012626Y039851D01*
X012613Y039913D01*
X012603Y039975D01*
X012597Y040037D01*
X012595Y040100D01*
X013695Y039600D02*
X013895Y039600D01*
X013895Y040100D01*
X013895Y040600D01*
X013695Y040600D01*
X013695Y039600D01*
X014045Y039600D02*
X014145Y039600D01*
X014145Y039500D01*
X014145Y039600D02*
X014145Y039700D01*
X014145Y039600D02*
X014245Y039600D01*
X014245Y040100D02*
X013895Y040100D01*
X015695Y040100D02*
X016095Y040100D01*
X015345Y040100D02*
X015347Y040163D01*
X015353Y040225D01*
X015363Y040287D01*
X015376Y040349D01*
X015394Y040409D01*
X015415Y040468D01*
X015440Y040526D01*
X015469Y040582D01*
X015501Y040636D01*
X015536Y040688D01*
X015574Y040737D01*
X015616Y040785D01*
X015660Y040829D01*
X015708Y040871D01*
X015757Y040909D01*
X015809Y040944D01*
X015863Y040976D01*
X015919Y041005D01*
X015977Y041030D01*
X016036Y041051D01*
X016096Y041069D01*
X016158Y041082D01*
X016220Y041092D01*
X016282Y041098D01*
X016345Y041100D01*
X016408Y041098D01*
X016470Y041092D01*
X016532Y041082D01*
X016594Y041069D01*
X016654Y041051D01*
X016713Y041030D01*
X016771Y041005D01*
X016827Y040976D01*
X016881Y040944D01*
X016933Y040909D01*
X016982Y040871D01*
X017030Y040829D01*
X017074Y040785D01*
X017116Y040737D01*
X017154Y040688D01*
X017189Y040636D01*
X017221Y040582D01*
X017250Y040526D01*
X017275Y040468D01*
X017296Y040409D01*
X017314Y040349D01*
X017327Y040287D01*
X017337Y040225D01*
X017343Y040163D01*
X017345Y040100D01*
X017343Y040037D01*
X017337Y039975D01*
X017327Y039913D01*
X017314Y039851D01*
X017296Y039791D01*
X017275Y039732D01*
X017250Y039674D01*
X017221Y039618D01*
X017189Y039564D01*
X017154Y039512D01*
X017116Y039463D01*
X017074Y039415D01*
X017030Y039371D01*
X016982Y039329D01*
X016933Y039291D01*
X016881Y039256D01*
X016827Y039224D01*
X016771Y039195D01*
X016713Y039170D01*
X016654Y039149D01*
X016594Y039131D01*
X016532Y039118D01*
X016470Y039108D01*
X016408Y039102D01*
X016345Y039100D01*
X016282Y039102D01*
X016220Y039108D01*
X016158Y039118D01*
X016096Y039131D01*
X016036Y039149D01*
X015977Y039170D01*
X015919Y039195D01*
X015863Y039224D01*
X015809Y039256D01*
X015757Y039291D01*
X015708Y039329D01*
X015660Y039371D01*
X015616Y039415D01*
X015574Y039463D01*
X015536Y039512D01*
X015501Y039564D01*
X015469Y039618D01*
X015440Y039674D01*
X015415Y039732D01*
X015394Y039791D01*
X015376Y039851D01*
X015363Y039913D01*
X015353Y039975D01*
X015347Y040037D01*
X015345Y040100D01*
X016445Y039600D02*
X016645Y039600D01*
X016645Y040100D01*
X016645Y040600D01*
X016445Y040600D01*
X016445Y039600D01*
X016795Y039600D02*
X016895Y039600D01*
X016895Y039500D01*
X016895Y039600D02*
X016895Y039700D01*
X016895Y039600D02*
X016995Y039600D01*
X016995Y040100D02*
X016645Y040100D01*
X018695Y040100D02*
X019095Y040100D01*
X018345Y040100D02*
X018347Y040163D01*
X018353Y040225D01*
X018363Y040287D01*
X018376Y040349D01*
X018394Y040409D01*
X018415Y040468D01*
X018440Y040526D01*
X018469Y040582D01*
X018501Y040636D01*
X018536Y040688D01*
X018574Y040737D01*
X018616Y040785D01*
X018660Y040829D01*
X018708Y040871D01*
X018757Y040909D01*
X018809Y040944D01*
X018863Y040976D01*
X018919Y041005D01*
X018977Y041030D01*
X019036Y041051D01*
X019096Y041069D01*
X019158Y041082D01*
X019220Y041092D01*
X019282Y041098D01*
X019345Y041100D01*
X019408Y041098D01*
X019470Y041092D01*
X019532Y041082D01*
X019594Y041069D01*
X019654Y041051D01*
X019713Y041030D01*
X019771Y041005D01*
X019827Y040976D01*
X019881Y040944D01*
X019933Y040909D01*
X019982Y040871D01*
X020030Y040829D01*
X020074Y040785D01*
X020116Y040737D01*
X020154Y040688D01*
X020189Y040636D01*
X020221Y040582D01*
X020250Y040526D01*
X020275Y040468D01*
X020296Y040409D01*
X020314Y040349D01*
X020327Y040287D01*
X020337Y040225D01*
X020343Y040163D01*
X020345Y040100D01*
X020343Y040037D01*
X020337Y039975D01*
X020327Y039913D01*
X020314Y039851D01*
X020296Y039791D01*
X020275Y039732D01*
X020250Y039674D01*
X020221Y039618D01*
X020189Y039564D01*
X020154Y039512D01*
X020116Y039463D01*
X020074Y039415D01*
X020030Y039371D01*
X019982Y039329D01*
X019933Y039291D01*
X019881Y039256D01*
X019827Y039224D01*
X019771Y039195D01*
X019713Y039170D01*
X019654Y039149D01*
X019594Y039131D01*
X019532Y039118D01*
X019470Y039108D01*
X019408Y039102D01*
X019345Y039100D01*
X019282Y039102D01*
X019220Y039108D01*
X019158Y039118D01*
X019096Y039131D01*
X019036Y039149D01*
X018977Y039170D01*
X018919Y039195D01*
X018863Y039224D01*
X018809Y039256D01*
X018757Y039291D01*
X018708Y039329D01*
X018660Y039371D01*
X018616Y039415D01*
X018574Y039463D01*
X018536Y039512D01*
X018501Y039564D01*
X018469Y039618D01*
X018440Y039674D01*
X018415Y039732D01*
X018394Y039791D01*
X018376Y039851D01*
X018363Y039913D01*
X018353Y039975D01*
X018347Y040037D01*
X018345Y040100D01*
X019445Y039600D02*
X019645Y039600D01*
X019645Y040100D01*
X019645Y040600D01*
X019445Y040600D01*
X019445Y039600D01*
X019795Y039600D02*
X019895Y039600D01*
X019895Y039500D01*
X019895Y039600D02*
X019895Y039700D01*
X019895Y039600D02*
X019995Y039600D01*
X019995Y040100D02*
X019645Y040100D01*
X023445Y040975D02*
X023745Y040975D01*
X023995Y041225D01*
X023995Y042225D01*
X023995Y043725D01*
X025345Y043725D02*
X025345Y044925D01*
X027595Y045325D02*
X027595Y043325D01*
X025945Y042650D02*
X025845Y042650D01*
X025845Y042550D01*
X025845Y042650D02*
X025745Y042650D01*
X025845Y042650D02*
X025845Y042750D01*
X025845Y042400D02*
X025345Y042400D01*
X024845Y042400D01*
X024845Y042200D01*
X025845Y042200D01*
X025845Y042400D01*
X025345Y042400D02*
X025345Y042750D01*
X024345Y042100D02*
X024347Y042163D01*
X024353Y042225D01*
X024363Y042287D01*
X024376Y042349D01*
X024394Y042409D01*
X024415Y042468D01*
X024440Y042526D01*
X024469Y042582D01*
X024501Y042636D01*
X024536Y042688D01*
X024574Y042737D01*
X024616Y042785D01*
X024660Y042829D01*
X024708Y042871D01*
X024757Y042909D01*
X024809Y042944D01*
X024863Y042976D01*
X024919Y043005D01*
X024977Y043030D01*
X025036Y043051D01*
X025096Y043069D01*
X025158Y043082D01*
X025220Y043092D01*
X025282Y043098D01*
X025345Y043100D01*
X025408Y043098D01*
X025470Y043092D01*
X025532Y043082D01*
X025594Y043069D01*
X025654Y043051D01*
X025713Y043030D01*
X025771Y043005D01*
X025827Y042976D01*
X025881Y042944D01*
X025933Y042909D01*
X025982Y042871D01*
X026030Y042829D01*
X026074Y042785D01*
X026116Y042737D01*
X026154Y042688D01*
X026189Y042636D01*
X026221Y042582D01*
X026250Y042526D01*
X026275Y042468D01*
X026296Y042409D01*
X026314Y042349D01*
X026327Y042287D01*
X026337Y042225D01*
X026343Y042163D01*
X026345Y042100D01*
X026343Y042037D01*
X026337Y041975D01*
X026327Y041913D01*
X026314Y041851D01*
X026296Y041791D01*
X026275Y041732D01*
X026250Y041674D01*
X026221Y041618D01*
X026189Y041564D01*
X026154Y041512D01*
X026116Y041463D01*
X026074Y041415D01*
X026030Y041371D01*
X025982Y041329D01*
X025933Y041291D01*
X025881Y041256D01*
X025827Y041224D01*
X025771Y041195D01*
X025713Y041170D01*
X025654Y041149D01*
X025594Y041131D01*
X025532Y041118D01*
X025470Y041108D01*
X025408Y041102D01*
X025345Y041100D01*
X025282Y041102D01*
X025220Y041108D01*
X025158Y041118D01*
X025096Y041131D01*
X025036Y041149D01*
X024977Y041170D01*
X024919Y041195D01*
X024863Y041224D01*
X024809Y041256D01*
X024757Y041291D01*
X024708Y041329D01*
X024660Y041371D01*
X024616Y041415D01*
X024574Y041463D01*
X024536Y041512D01*
X024501Y041564D01*
X024469Y041618D01*
X024440Y041674D01*
X024415Y041732D01*
X024394Y041791D01*
X024376Y041851D01*
X024363Y041913D01*
X024353Y041975D01*
X024347Y042037D01*
X024345Y042100D01*
X025345Y041850D02*
X025345Y041450D01*
X026595Y040213D02*
X026595Y040013D01*
X027595Y040013D01*
X027595Y040213D01*
X027095Y040213D01*
X026595Y040213D01*
X027095Y040213D02*
X027095Y040563D01*
X027545Y040963D02*
X027545Y041263D01*
X027395Y041113D02*
X027695Y041113D01*
X025495Y039913D02*
X025497Y039993D01*
X025503Y040072D01*
X025513Y040151D01*
X025527Y040230D01*
X025544Y040308D01*
X025566Y040385D01*
X025591Y040460D01*
X025621Y040534D01*
X025653Y040607D01*
X025690Y040678D01*
X025730Y040747D01*
X025773Y040814D01*
X025820Y040879D01*
X025869Y040941D01*
X025922Y041001D01*
X025978Y041058D01*
X026036Y041113D01*
X026097Y041164D01*
X026161Y041212D01*
X026227Y041257D01*
X026295Y041299D01*
X026365Y041337D01*
X026437Y041371D01*
X026510Y041402D01*
X026585Y041430D01*
X026662Y041453D01*
X026739Y041473D01*
X026817Y041489D01*
X026896Y041501D01*
X026975Y041509D01*
X027055Y041513D01*
X027135Y041513D01*
X027215Y041509D01*
X027294Y041501D01*
X027373Y041489D01*
X027451Y041473D01*
X027528Y041453D01*
X027605Y041430D01*
X027680Y041402D01*
X027753Y041371D01*
X027825Y041337D01*
X027895Y041299D01*
X027963Y041257D01*
X028029Y041212D01*
X028093Y041164D01*
X028154Y041113D01*
X028212Y041058D01*
X028268Y041001D01*
X028321Y040941D01*
X028370Y040879D01*
X028417Y040814D01*
X028460Y040747D01*
X028500Y040678D01*
X028537Y040607D01*
X028569Y040534D01*
X028599Y040460D01*
X028624Y040385D01*
X028646Y040308D01*
X028663Y040230D01*
X028677Y040151D01*
X028687Y040072D01*
X028693Y039993D01*
X028695Y039913D01*
X028693Y039833D01*
X028687Y039754D01*
X028677Y039675D01*
X028663Y039596D01*
X028646Y039518D01*
X028624Y039441D01*
X028599Y039366D01*
X028569Y039292D01*
X028537Y039219D01*
X028500Y039148D01*
X028460Y039079D01*
X028417Y039012D01*
X028370Y038947D01*
X028321Y038885D01*
X028268Y038825D01*
X028212Y038768D01*
X028154Y038713D01*
X028093Y038662D01*
X028029Y038614D01*
X027963Y038569D01*
X027895Y038527D01*
X027825Y038489D01*
X027753Y038455D01*
X027680Y038424D01*
X027605Y038396D01*
X027528Y038373D01*
X027451Y038353D01*
X027373Y038337D01*
X027294Y038325D01*
X027215Y038317D01*
X027135Y038313D01*
X027055Y038313D01*
X026975Y038317D01*
X026896Y038325D01*
X026817Y038337D01*
X026739Y038353D01*
X026662Y038373D01*
X026585Y038396D01*
X026510Y038424D01*
X026437Y038455D01*
X026365Y038489D01*
X026295Y038527D01*
X026227Y038569D01*
X026161Y038614D01*
X026097Y038662D01*
X026036Y038713D01*
X025978Y038768D01*
X025922Y038825D01*
X025869Y038885D01*
X025820Y038947D01*
X025773Y039012D01*
X025730Y039079D01*
X025690Y039148D01*
X025653Y039219D01*
X025621Y039292D01*
X025591Y039366D01*
X025566Y039441D01*
X025544Y039518D01*
X025527Y039596D01*
X025513Y039675D01*
X025503Y039754D01*
X025497Y039833D01*
X025495Y039913D01*
X027095Y039663D02*
X027095Y039263D01*
X016370Y029975D02*
X011470Y029975D01*
X009970Y030975D02*
X009720Y030725D01*
X009220Y030725D01*
X008970Y030975D01*
X008970Y031475D01*
X009220Y031725D01*
X008970Y031975D01*
X008970Y032475D01*
X009220Y032725D01*
X008970Y032975D01*
X008970Y033475D01*
X009220Y033725D01*
X009720Y033725D01*
X009970Y033475D01*
X009970Y032975D01*
X009720Y032725D01*
X009970Y032475D01*
X009970Y031975D01*
X009720Y031725D01*
X009970Y031475D01*
X009970Y030975D01*
X008545Y029450D02*
X008545Y029350D01*
X008645Y029350D01*
X008545Y029350D02*
X008545Y029250D01*
X008545Y029350D02*
X008445Y029350D01*
X008795Y029350D02*
X008795Y028850D01*
X008795Y028350D01*
X008995Y028350D01*
X008995Y029350D01*
X008795Y029350D01*
X008795Y028850D02*
X008445Y028850D01*
X008095Y028850D02*
X008097Y028913D01*
X008103Y028975D01*
X008113Y029037D01*
X008126Y029099D01*
X008144Y029159D01*
X008165Y029218D01*
X008190Y029276D01*
X008219Y029332D01*
X008251Y029386D01*
X008286Y029438D01*
X008324Y029487D01*
X008366Y029535D01*
X008410Y029579D01*
X008458Y029621D01*
X008507Y029659D01*
X008559Y029694D01*
X008613Y029726D01*
X008669Y029755D01*
X008727Y029780D01*
X008786Y029801D01*
X008846Y029819D01*
X008908Y029832D01*
X008970Y029842D01*
X009032Y029848D01*
X009095Y029850D01*
X009158Y029848D01*
X009220Y029842D01*
X009282Y029832D01*
X009344Y029819D01*
X009404Y029801D01*
X009463Y029780D01*
X009521Y029755D01*
X009577Y029726D01*
X009631Y029694D01*
X009683Y029659D01*
X009732Y029621D01*
X009780Y029579D01*
X009824Y029535D01*
X009866Y029487D01*
X009904Y029438D01*
X009939Y029386D01*
X009971Y029332D01*
X010000Y029276D01*
X010025Y029218D01*
X010046Y029159D01*
X010064Y029099D01*
X010077Y029037D01*
X010087Y028975D01*
X010093Y028913D01*
X010095Y028850D01*
X010093Y028787D01*
X010087Y028725D01*
X010077Y028663D01*
X010064Y028601D01*
X010046Y028541D01*
X010025Y028482D01*
X010000Y028424D01*
X009971Y028368D01*
X009939Y028314D01*
X009904Y028262D01*
X009866Y028213D01*
X009824Y028165D01*
X009780Y028121D01*
X009732Y028079D01*
X009683Y028041D01*
X009631Y028006D01*
X009577Y027974D01*
X009521Y027945D01*
X009463Y027920D01*
X009404Y027899D01*
X009344Y027881D01*
X009282Y027868D01*
X009220Y027858D01*
X009158Y027852D01*
X009095Y027850D01*
X009032Y027852D01*
X008970Y027858D01*
X008908Y027868D01*
X008846Y027881D01*
X008786Y027899D01*
X008727Y027920D01*
X008669Y027945D01*
X008613Y027974D01*
X008559Y028006D01*
X008507Y028041D01*
X008458Y028079D01*
X008410Y028121D01*
X008366Y028165D01*
X008324Y028213D01*
X008286Y028262D01*
X008251Y028314D01*
X008219Y028368D01*
X008190Y028424D01*
X008165Y028482D01*
X008144Y028541D01*
X008126Y028601D01*
X008113Y028663D01*
X008103Y028725D01*
X008097Y028787D01*
X008095Y028850D01*
X009345Y028850D02*
X009745Y028850D01*
X009845Y025625D02*
X009845Y023325D01*
X002845Y023325D01*
X002845Y024075D01*
X002884Y024077D01*
X002923Y024083D01*
X002961Y024092D01*
X002998Y024105D01*
X003034Y024122D01*
X003067Y024142D01*
X003099Y024166D01*
X003128Y024192D01*
X003154Y024221D01*
X003178Y024253D01*
X003198Y024286D01*
X003215Y024322D01*
X003228Y024359D01*
X003237Y024397D01*
X003243Y024436D01*
X003245Y024475D01*
X003243Y024514D01*
X003237Y024553D01*
X003228Y024591D01*
X003215Y024628D01*
X003198Y024664D01*
X003178Y024697D01*
X003154Y024729D01*
X003128Y024758D01*
X003099Y024784D01*
X003067Y024808D01*
X003034Y024828D01*
X002998Y024845D01*
X002961Y024858D01*
X002923Y024867D01*
X002884Y024873D01*
X002845Y024875D01*
X002845Y025625D01*
X009845Y025625D01*
X010970Y024600D02*
X012470Y024600D01*
X012720Y024350D01*
X012720Y023850D01*
X012470Y023600D01*
X012720Y023350D01*
X012720Y022850D01*
X012470Y022600D01*
X012720Y022350D01*
X012720Y021850D01*
X012470Y021600D01*
X010970Y021600D01*
X010720Y021850D01*
X010720Y022350D01*
X010970Y022600D01*
X010720Y022850D01*
X010720Y023350D01*
X010970Y023600D01*
X010720Y023850D01*
X010720Y024350D01*
X010970Y024600D01*
X011470Y025975D02*
X016370Y025975D01*
X016400Y025977D01*
X016430Y025982D01*
X016459Y025991D01*
X016486Y026004D01*
X016512Y026019D01*
X016536Y026038D01*
X016557Y026059D01*
X016576Y026083D01*
X016591Y026109D01*
X016604Y026136D01*
X016613Y026165D01*
X016618Y026195D01*
X016620Y026225D01*
X016620Y029725D01*
X016618Y029755D01*
X016613Y029785D01*
X016604Y029814D01*
X016591Y029841D01*
X016576Y029867D01*
X016557Y029891D01*
X016536Y029912D01*
X016512Y029931D01*
X016486Y029946D01*
X016459Y029959D01*
X016430Y029968D01*
X016400Y029973D01*
X016370Y029975D01*
X015470Y028725D02*
X015470Y028345D01*
X015470Y027605D02*
X015470Y027225D01*
X014845Y025475D02*
X014595Y025225D01*
X014595Y024725D01*
X014845Y024475D01*
X014595Y024225D01*
X014595Y023725D01*
X014845Y023475D01*
X014595Y023225D01*
X014595Y022725D01*
X014845Y022475D01*
X014595Y022225D01*
X014595Y021725D01*
X014845Y021475D01*
X014595Y021225D01*
X014595Y020725D01*
X014845Y020475D01*
X016345Y020475D01*
X016595Y020725D01*
X016595Y021225D01*
X016345Y021475D01*
X016595Y021725D01*
X016595Y022225D01*
X016345Y022475D01*
X016595Y022725D01*
X016595Y023225D01*
X016345Y023475D01*
X016595Y023725D01*
X016595Y024225D01*
X016345Y024475D01*
X016595Y024725D01*
X016595Y025225D01*
X016345Y025475D01*
X014845Y025475D01*
X009245Y021975D02*
X009245Y018475D01*
X009243Y018445D01*
X009238Y018415D01*
X009229Y018386D01*
X009216Y018359D01*
X009201Y018333D01*
X009182Y018309D01*
X009161Y018288D01*
X009137Y018269D01*
X009111Y018254D01*
X009084Y018241D01*
X009055Y018232D01*
X009025Y018227D01*
X008995Y018225D01*
X004095Y018225D01*
X003345Y017887D02*
X003345Y017564D01*
X002845Y017564D02*
X002845Y017887D01*
X008095Y019475D02*
X008095Y019855D01*
X008095Y020595D02*
X008095Y020975D01*
X009245Y021975D02*
X009243Y022005D01*
X009238Y022035D01*
X009229Y022064D01*
X009216Y022091D01*
X009201Y022117D01*
X009182Y022141D01*
X009161Y022162D01*
X009137Y022181D01*
X009111Y022196D01*
X009084Y022209D01*
X009055Y022218D01*
X009025Y022223D01*
X008995Y022225D01*
X004095Y022225D01*
X009695Y019725D02*
X010095Y019725D01*
X009345Y019725D02*
X009347Y019788D01*
X009353Y019850D01*
X009363Y019912D01*
X009376Y019974D01*
X009394Y020034D01*
X009415Y020093D01*
X009440Y020151D01*
X009469Y020207D01*
X009501Y020261D01*
X009536Y020313D01*
X009574Y020362D01*
X009616Y020410D01*
X009660Y020454D01*
X009708Y020496D01*
X009757Y020534D01*
X009809Y020569D01*
X009863Y020601D01*
X009919Y020630D01*
X009977Y020655D01*
X010036Y020676D01*
X010096Y020694D01*
X010158Y020707D01*
X010220Y020717D01*
X010282Y020723D01*
X010345Y020725D01*
X010408Y020723D01*
X010470Y020717D01*
X010532Y020707D01*
X010594Y020694D01*
X010654Y020676D01*
X010713Y020655D01*
X010771Y020630D01*
X010827Y020601D01*
X010881Y020569D01*
X010933Y020534D01*
X010982Y020496D01*
X011030Y020454D01*
X011074Y020410D01*
X011116Y020362D01*
X011154Y020313D01*
X011189Y020261D01*
X011221Y020207D01*
X011250Y020151D01*
X011275Y020093D01*
X011296Y020034D01*
X011314Y019974D01*
X011327Y019912D01*
X011337Y019850D01*
X011343Y019788D01*
X011345Y019725D01*
X011343Y019662D01*
X011337Y019600D01*
X011327Y019538D01*
X011314Y019476D01*
X011296Y019416D01*
X011275Y019357D01*
X011250Y019299D01*
X011221Y019243D01*
X011189Y019189D01*
X011154Y019137D01*
X011116Y019088D01*
X011074Y019040D01*
X011030Y018996D01*
X010982Y018954D01*
X010933Y018916D01*
X010881Y018881D01*
X010827Y018849D01*
X010771Y018820D01*
X010713Y018795D01*
X010654Y018774D01*
X010594Y018756D01*
X010532Y018743D01*
X010470Y018733D01*
X010408Y018727D01*
X010345Y018725D01*
X010282Y018727D01*
X010220Y018733D01*
X010158Y018743D01*
X010096Y018756D01*
X010036Y018774D01*
X009977Y018795D01*
X009919Y018820D01*
X009863Y018849D01*
X009809Y018881D01*
X009757Y018916D01*
X009708Y018954D01*
X009660Y018996D01*
X009616Y019040D01*
X009574Y019088D01*
X009536Y019137D01*
X009501Y019189D01*
X009469Y019243D01*
X009440Y019299D01*
X009415Y019357D01*
X009394Y019416D01*
X009376Y019476D01*
X009363Y019538D01*
X009353Y019600D01*
X009347Y019662D01*
X009345Y019725D01*
X010445Y019225D02*
X010645Y019225D01*
X010645Y019725D01*
X010645Y020225D01*
X010445Y020225D01*
X010445Y019225D01*
X010795Y019225D02*
X010895Y019225D01*
X010895Y019125D01*
X010895Y019225D02*
X010895Y019325D01*
X010895Y019225D02*
X010995Y019225D01*
X010995Y019725D02*
X010645Y019725D01*
X016770Y017875D02*
X016770Y017725D01*
X016820Y017675D01*
X016820Y015775D01*
X016770Y015725D01*
X016770Y015575D01*
X016772Y015558D01*
X016776Y015541D01*
X016783Y015525D01*
X016793Y015511D01*
X016806Y015498D01*
X016820Y015488D01*
X016836Y015481D01*
X016853Y015477D01*
X016870Y015475D01*
X017570Y015475D01*
X017587Y015477D01*
X017604Y015481D01*
X017620Y015488D01*
X017634Y015498D01*
X017647Y015511D01*
X017657Y015525D01*
X017664Y015541D01*
X017668Y015558D01*
X017670Y015575D01*
X017670Y015725D01*
X017620Y015775D01*
X017620Y017675D01*
X017670Y017725D01*
X017670Y017875D01*
X017668Y017892D01*
X017664Y017909D01*
X017657Y017925D01*
X017647Y017939D01*
X017634Y017952D01*
X017620Y017962D01*
X017604Y017969D01*
X017587Y017973D01*
X017570Y017975D01*
X016870Y017975D01*
X016853Y017973D01*
X016836Y017969D01*
X016820Y017962D01*
X016806Y017952D01*
X016793Y017939D01*
X016783Y017925D01*
X016776Y017909D01*
X016772Y017892D01*
X016770Y017875D01*
X016620Y012475D02*
X017320Y012475D01*
X017337Y012473D01*
X017354Y012469D01*
X017370Y012462D01*
X017384Y012452D01*
X017397Y012439D01*
X017407Y012425D01*
X017414Y012409D01*
X017418Y012392D01*
X017420Y012375D01*
X017420Y012225D01*
X017370Y012175D01*
X017370Y010275D01*
X017420Y010225D01*
X017420Y010075D01*
X017418Y010058D01*
X017414Y010041D01*
X017407Y010025D01*
X017397Y010011D01*
X017384Y009998D01*
X017370Y009988D01*
X017354Y009981D01*
X017337Y009977D01*
X017320Y009975D01*
X016620Y009975D01*
X016603Y009977D01*
X016586Y009981D01*
X016570Y009988D01*
X016556Y009998D01*
X016543Y010011D01*
X016533Y010025D01*
X016526Y010041D01*
X016522Y010058D01*
X016520Y010075D01*
X016520Y010225D01*
X016570Y010275D01*
X016570Y012175D01*
X016520Y012225D01*
X016520Y012375D01*
X016522Y012392D01*
X016526Y012409D01*
X016533Y012425D01*
X016543Y012439D01*
X016556Y012452D01*
X016570Y012462D01*
X016586Y012469D01*
X016603Y012473D01*
X016620Y012475D01*
X015911Y007354D02*
X015913Y007395D01*
X015919Y007436D01*
X015929Y007476D01*
X015942Y007515D01*
X015959Y007553D01*
X015980Y007589D01*
X016004Y007622D01*
X016031Y007653D01*
X016061Y007682D01*
X016093Y007708D01*
X016128Y007730D01*
X016165Y007749D01*
X016203Y007764D01*
X016243Y007776D01*
X016283Y007784D01*
X016324Y007788D01*
X016366Y007788D01*
X016407Y007784D01*
X016447Y007776D01*
X016487Y007764D01*
X016525Y007749D01*
X016562Y007730D01*
X016597Y007708D01*
X016629Y007682D01*
X016659Y007653D01*
X016686Y007622D01*
X016710Y007589D01*
X016731Y007553D01*
X016748Y007515D01*
X016761Y007476D01*
X016771Y007436D01*
X016777Y007395D01*
X016779Y007354D01*
X016777Y007313D01*
X016771Y007272D01*
X016761Y007232D01*
X016748Y007193D01*
X016731Y007155D01*
X016710Y007119D01*
X016686Y007086D01*
X016659Y007055D01*
X016629Y007026D01*
X016597Y007000D01*
X016562Y006978D01*
X016525Y006959D01*
X016487Y006944D01*
X016447Y006932D01*
X016407Y006924D01*
X016366Y006920D01*
X016324Y006920D01*
X016283Y006924D01*
X016243Y006932D01*
X016203Y006944D01*
X016165Y006959D01*
X016128Y006978D01*
X016093Y007000D01*
X016061Y007026D01*
X016031Y007055D01*
X016004Y007086D01*
X015980Y007119D01*
X015959Y007155D01*
X015942Y007193D01*
X015929Y007232D01*
X015919Y007272D01*
X015913Y007313D01*
X015911Y007354D01*
X017911Y007354D02*
X017913Y007395D01*
X017919Y007436D01*
X017929Y007476D01*
X017942Y007515D01*
X017959Y007553D01*
X017980Y007589D01*
X018004Y007622D01*
X018031Y007653D01*
X018061Y007682D01*
X018093Y007708D01*
X018128Y007730D01*
X018165Y007749D01*
X018203Y007764D01*
X018243Y007776D01*
X018283Y007784D01*
X018324Y007788D01*
X018366Y007788D01*
X018407Y007784D01*
X018447Y007776D01*
X018487Y007764D01*
X018525Y007749D01*
X018562Y007730D01*
X018597Y007708D01*
X018629Y007682D01*
X018659Y007653D01*
X018686Y007622D01*
X018710Y007589D01*
X018731Y007553D01*
X018748Y007515D01*
X018761Y007476D01*
X018771Y007436D01*
X018777Y007395D01*
X018779Y007354D01*
X018777Y007313D01*
X018771Y007272D01*
X018761Y007232D01*
X018748Y007193D01*
X018731Y007155D01*
X018710Y007119D01*
X018686Y007086D01*
X018659Y007055D01*
X018629Y007026D01*
X018597Y007000D01*
X018562Y006978D01*
X018525Y006959D01*
X018487Y006944D01*
X018447Y006932D01*
X018407Y006924D01*
X018366Y006920D01*
X018324Y006920D01*
X018283Y006924D01*
X018243Y006932D01*
X018203Y006944D01*
X018165Y006959D01*
X018128Y006978D01*
X018093Y007000D01*
X018061Y007026D01*
X018031Y007055D01*
X018004Y007086D01*
X017980Y007119D01*
X017959Y007155D01*
X017942Y007193D01*
X017929Y007232D01*
X017919Y007272D01*
X017913Y007313D01*
X017911Y007354D01*
X019911Y007354D02*
X019913Y007395D01*
X019919Y007436D01*
X019929Y007476D01*
X019942Y007515D01*
X019959Y007553D01*
X019980Y007589D01*
X020004Y007622D01*
X020031Y007653D01*
X020061Y007682D01*
X020093Y007708D01*
X020128Y007730D01*
X020165Y007749D01*
X020203Y007764D01*
X020243Y007776D01*
X020283Y007784D01*
X020324Y007788D01*
X020366Y007788D01*
X020407Y007784D01*
X020447Y007776D01*
X020487Y007764D01*
X020525Y007749D01*
X020562Y007730D01*
X020597Y007708D01*
X020629Y007682D01*
X020659Y007653D01*
X020686Y007622D01*
X020710Y007589D01*
X020731Y007553D01*
X020748Y007515D01*
X020761Y007476D01*
X020771Y007436D01*
X020777Y007395D01*
X020779Y007354D01*
X020777Y007313D01*
X020771Y007272D01*
X020761Y007232D01*
X020748Y007193D01*
X020731Y007155D01*
X020710Y007119D01*
X020686Y007086D01*
X020659Y007055D01*
X020629Y007026D01*
X020597Y007000D01*
X020562Y006978D01*
X020525Y006959D01*
X020487Y006944D01*
X020447Y006932D01*
X020407Y006924D01*
X020366Y006920D01*
X020324Y006920D01*
X020283Y006924D01*
X020243Y006932D01*
X020203Y006944D01*
X020165Y006959D01*
X020128Y006978D01*
X020093Y007000D01*
X020061Y007026D01*
X020031Y007055D01*
X020004Y007086D01*
X019980Y007119D01*
X019959Y007155D01*
X019942Y007193D01*
X019929Y007232D01*
X019919Y007272D01*
X019913Y007313D01*
X019911Y007354D01*
X021911Y007354D02*
X021913Y007395D01*
X021919Y007436D01*
X021929Y007476D01*
X021942Y007515D01*
X021959Y007553D01*
X021980Y007589D01*
X022004Y007622D01*
X022031Y007653D01*
X022061Y007682D01*
X022093Y007708D01*
X022128Y007730D01*
X022165Y007749D01*
X022203Y007764D01*
X022243Y007776D01*
X022283Y007784D01*
X022324Y007788D01*
X022366Y007788D01*
X022407Y007784D01*
X022447Y007776D01*
X022487Y007764D01*
X022525Y007749D01*
X022562Y007730D01*
X022597Y007708D01*
X022629Y007682D01*
X022659Y007653D01*
X022686Y007622D01*
X022710Y007589D01*
X022731Y007553D01*
X022748Y007515D01*
X022761Y007476D01*
X022771Y007436D01*
X022777Y007395D01*
X022779Y007354D01*
X022777Y007313D01*
X022771Y007272D01*
X022761Y007232D01*
X022748Y007193D01*
X022731Y007155D01*
X022710Y007119D01*
X022686Y007086D01*
X022659Y007055D01*
X022629Y007026D01*
X022597Y007000D01*
X022562Y006978D01*
X022525Y006959D01*
X022487Y006944D01*
X022447Y006932D01*
X022407Y006924D01*
X022366Y006920D01*
X022324Y006920D01*
X022283Y006924D01*
X022243Y006932D01*
X022203Y006944D01*
X022165Y006959D01*
X022128Y006978D01*
X022093Y007000D01*
X022061Y007026D01*
X022031Y007055D01*
X022004Y007086D01*
X021980Y007119D01*
X021959Y007155D01*
X021942Y007193D01*
X021929Y007232D01*
X021919Y007272D01*
X021913Y007313D01*
X021911Y007354D01*
X023500Y007505D02*
X023820Y007505D01*
X023927Y007612D01*
X023927Y008039D01*
X023820Y008146D01*
X023500Y008146D01*
X023500Y007505D01*
X024145Y007505D02*
X024145Y008146D01*
X024465Y008146D01*
X024572Y008039D01*
X024572Y007612D01*
X024465Y007505D01*
X024145Y007505D01*
X024789Y007505D02*
X025216Y007933D01*
X025216Y008039D01*
X025109Y008146D01*
X024896Y008146D01*
X024789Y008039D01*
X024789Y007505D02*
X025216Y007505D01*
X025875Y007505D02*
X025875Y008146D01*
X026302Y008146D01*
X026520Y008146D02*
X026840Y008146D01*
X026947Y008039D01*
X026947Y007826D01*
X026840Y007719D01*
X026520Y007719D01*
X026520Y007505D02*
X026520Y008146D01*
X026089Y007826D02*
X025875Y007826D01*
X025875Y007505D02*
X026302Y007505D01*
X027164Y007505D02*
X027164Y008146D01*
X027378Y007933D01*
X027591Y008146D01*
X027591Y007505D01*
X027809Y007505D02*
X027809Y007612D01*
X028236Y008039D01*
X028236Y008146D01*
X027809Y008146D01*
X028453Y007933D02*
X028667Y008146D01*
X028667Y007505D01*
X028880Y007505D02*
X028453Y007505D01*
X029098Y007505D02*
X029525Y007933D01*
X029525Y008039D01*
X029418Y008146D01*
X029205Y008146D01*
X029098Y008039D01*
X029098Y007505D02*
X029525Y007505D01*
X029742Y007612D02*
X029742Y007719D01*
X029849Y007826D01*
X030063Y007826D01*
X030169Y007719D01*
X030169Y007612D01*
X030063Y007505D01*
X029849Y007505D01*
X029742Y007612D01*
X029849Y007826D02*
X029742Y007933D01*
X029742Y008039D01*
X029849Y008146D01*
X030063Y008146D01*
X030169Y008039D01*
X030169Y007933D01*
X030063Y007826D01*
X030387Y007826D02*
X030814Y007826D01*
X031031Y007612D02*
X031138Y007505D01*
X031245Y007505D01*
X031352Y007612D01*
X031352Y008146D01*
X031458Y008146D02*
X031245Y008146D01*
X031676Y008039D02*
X031676Y007933D01*
X031783Y007826D01*
X031996Y007826D01*
X032103Y007719D01*
X032103Y007612D01*
X031996Y007505D01*
X031783Y007505D01*
X031676Y007612D01*
X031676Y007719D01*
X031783Y007826D01*
X031996Y007826D02*
X032103Y007933D01*
X032103Y008039D01*
X031996Y008146D01*
X031783Y008146D01*
X031676Y008039D01*
X032320Y007826D02*
X032748Y007826D01*
X032641Y008146D02*
X032320Y007826D01*
X032641Y007505D02*
X032641Y008146D01*
X004288Y012093D02*
X003533Y012093D01*
X003533Y012733D02*
X004288Y012733D01*
X047316Y046830D02*
X047743Y046830D01*
X047961Y046937D02*
X047961Y047044D01*
X048068Y047151D01*
X048281Y047151D01*
X048388Y047044D01*
X048388Y046937D01*
X048281Y046830D01*
X048068Y046830D01*
X047961Y046937D01*
X048068Y047151D02*
X047961Y047258D01*
X047961Y047364D01*
X048068Y047471D01*
X048281Y047471D01*
X048388Y047364D01*
X048388Y047258D01*
X048281Y047151D01*
X048605Y047364D02*
X048712Y047471D01*
X048926Y047471D01*
X049032Y047364D01*
X048605Y046937D01*
X048712Y046830D01*
X048926Y046830D01*
X049032Y046937D01*
X049032Y047364D01*
X048605Y047364D02*
X048605Y046937D01*
X047743Y047364D02*
X047316Y046937D01*
X047316Y046830D01*
X047316Y047471D02*
X047743Y047471D01*
X047743Y047364D01*
X053291Y047546D02*
X053291Y046905D01*
X053612Y046905D01*
X053718Y047012D01*
X053718Y047439D01*
X053612Y047546D01*
X053291Y047546D01*
X053936Y047546D02*
X053936Y046905D01*
X054256Y046905D01*
X054363Y047012D01*
X054363Y047439D01*
X054256Y047546D01*
X053936Y047546D01*
X054580Y047439D02*
X054580Y047333D01*
X054687Y047226D01*
X054901Y047226D01*
X055007Y047119D01*
X055007Y047012D01*
X054901Y046905D01*
X054687Y046905D01*
X054580Y047012D01*
X054580Y047119D01*
X054687Y047226D01*
X054901Y047226D02*
X055007Y047333D01*
X055007Y047439D01*
X054901Y047546D01*
X054687Y047546D01*
X054580Y047439D01*
X055494Y047546D02*
X055494Y046905D01*
X055707Y047119D01*
X055921Y046905D01*
X055921Y047546D01*
X056138Y047439D02*
X056245Y047546D01*
X056458Y047546D01*
X056565Y047439D01*
X056565Y047333D01*
X056138Y046905D01*
X056565Y046905D01*
X056889Y047226D02*
X056783Y047333D01*
X056783Y047439D01*
X056889Y047546D01*
X057103Y047546D01*
X057210Y047439D01*
X057427Y047439D02*
X057427Y047012D01*
X057534Y046905D01*
X057748Y046905D01*
X057854Y047012D01*
X058072Y047012D02*
X058499Y047439D01*
X058499Y047012D01*
X058392Y046905D01*
X058179Y046905D01*
X058072Y047012D01*
X058072Y047439D01*
X058179Y047546D01*
X058392Y047546D01*
X058499Y047439D01*
X058716Y047439D02*
X058823Y047546D01*
X059037Y047546D01*
X059143Y047439D01*
X059143Y047333D01*
X058716Y046905D01*
X059143Y046905D01*
X059361Y047012D02*
X059788Y047439D01*
X059788Y047012D01*
X059681Y046905D01*
X059468Y046905D01*
X059361Y047012D01*
X059361Y047439D01*
X059468Y047546D01*
X059681Y047546D01*
X059788Y047439D01*
X060005Y047439D02*
X060005Y047012D01*
X060112Y046905D01*
X060326Y046905D01*
X060432Y047012D01*
X060432Y047439D02*
X060326Y047546D01*
X060112Y047546D01*
X060005Y047439D01*
X057854Y047439D02*
X057748Y047546D01*
X057534Y047546D01*
X057427Y047439D01*
X061720Y040788D02*
X061470Y040538D01*
X061470Y040038D01*
X061720Y039788D01*
X062220Y039788D01*
X062470Y040038D01*
X062720Y039788D01*
X063220Y039788D01*
X063470Y040038D01*
X063720Y039788D01*
X064220Y039788D01*
X064470Y040038D01*
X064720Y039788D01*
X065220Y039788D01*
X065470Y040038D01*
X065470Y040538D01*
X065220Y040788D01*
X064720Y040788D01*
X064470Y040538D01*
X064220Y040788D01*
X063720Y040788D01*
X063470Y040538D01*
X063220Y040788D01*
X062720Y040788D01*
X062470Y040538D01*
X062220Y040788D01*
X061720Y040788D01*
D17*
X038656Y024716D02*
X038656Y024506D01*
X038551Y024401D01*
X038235Y024401D01*
X038235Y024190D02*
X038235Y024821D01*
X038551Y024821D01*
X038656Y024716D01*
X038011Y024506D02*
X037591Y024506D01*
X037367Y024401D02*
X037262Y024506D01*
X036946Y024506D01*
X036946Y024296D01*
X037051Y024190D01*
X037262Y024190D01*
X037367Y024296D01*
X037367Y024401D01*
X037157Y024716D02*
X036946Y024506D01*
X037157Y024716D02*
X037367Y024821D01*
X036722Y024190D02*
X036302Y024190D01*
X036512Y024190D02*
X036512Y024821D01*
X036302Y024611D01*
X036078Y024611D02*
X036078Y024190D01*
X036078Y024506D02*
X035657Y024506D01*
X035657Y024611D02*
X035657Y024190D01*
X035433Y024296D02*
X035433Y024506D01*
X035223Y024506D01*
X035433Y024716D02*
X035328Y024821D01*
X035118Y024821D01*
X035013Y024716D01*
X035013Y024296D01*
X035118Y024190D01*
X035328Y024190D01*
X035433Y024296D01*
X035657Y024611D02*
X035867Y024821D01*
X036078Y024611D01*
X035235Y025185D02*
X035235Y025291D01*
X035656Y025711D01*
X035656Y025816D01*
X035235Y025816D01*
X035011Y025711D02*
X035011Y025291D01*
X034906Y025185D01*
X034591Y025185D01*
X034591Y025816D01*
X034906Y025816D01*
X035011Y025711D01*
X034367Y025711D02*
X034367Y025291D01*
X034262Y025185D01*
X033946Y025185D01*
X033946Y025816D01*
X034262Y025816D01*
X034367Y025711D01*
X034368Y024821D02*
X034368Y024190D01*
X034789Y024190D01*
X034578Y024506D02*
X034368Y024506D01*
X034368Y024821D02*
X034789Y024821D01*
X034144Y024821D02*
X034144Y024190D01*
X033724Y024190D02*
X033724Y024821D01*
X033934Y024611D01*
X034144Y024821D01*
X007730Y039348D02*
X007625Y039243D01*
X007415Y039243D01*
X007310Y039348D01*
X007310Y039558D02*
X007520Y039663D01*
X007625Y039663D01*
X007730Y039558D01*
X007730Y039348D01*
X007310Y039558D02*
X007310Y039874D01*
X007730Y039874D01*
X007086Y039558D02*
X006665Y039558D01*
X006981Y039874D01*
X006981Y039243D01*
X006441Y039348D02*
X006441Y039453D01*
X006336Y039558D01*
X006021Y039558D01*
X006021Y039348D01*
X006126Y039243D01*
X006336Y039243D01*
X006441Y039348D01*
X006231Y039768D02*
X006021Y039558D01*
X006231Y039768D02*
X006441Y039874D01*
X006214Y040045D02*
X005794Y040045D01*
X006004Y040045D02*
X006004Y040676D01*
X005794Y040466D01*
X005570Y040466D02*
X005360Y040676D01*
X005150Y040466D01*
X005150Y040045D01*
X004925Y040151D02*
X004925Y040571D01*
X004820Y040676D01*
X004505Y040676D01*
X004505Y040045D01*
X004820Y040045D01*
X004925Y040151D01*
X004942Y039874D02*
X004732Y039663D01*
X004732Y039243D01*
X004507Y039243D02*
X004087Y039874D01*
X003863Y039768D02*
X003758Y039874D01*
X003548Y039874D01*
X003443Y039768D01*
X003443Y039348D01*
X003548Y039243D01*
X003758Y039243D01*
X003863Y039348D01*
X004087Y039243D02*
X004507Y039874D01*
X004732Y039558D02*
X005152Y039558D01*
X005152Y039663D02*
X005152Y039243D01*
X005376Y039243D02*
X005797Y039243D01*
X005586Y039243D02*
X005586Y039874D01*
X005376Y039663D01*
X005152Y039663D02*
X004942Y039874D01*
X005150Y040361D02*
X005570Y040361D01*
X005570Y040466D02*
X005570Y040045D01*
X015468Y045166D02*
X015573Y045060D01*
X015783Y045060D01*
X015889Y045166D01*
X015889Y045271D01*
X015783Y045376D01*
X015573Y045376D01*
X015468Y045481D01*
X015468Y045586D01*
X015573Y045691D01*
X015783Y045691D01*
X015889Y045586D01*
X016113Y045586D02*
X016113Y045166D01*
X016218Y045060D01*
X016428Y045060D01*
X016533Y045166D01*
X016757Y045060D02*
X016757Y045481D01*
X016967Y045691D01*
X017178Y045481D01*
X017178Y045060D01*
X017402Y045060D02*
X017402Y045691D01*
X017717Y045691D01*
X017822Y045586D01*
X017822Y045376D01*
X017717Y045271D01*
X017402Y045271D01*
X017612Y045271D02*
X017822Y045060D01*
X018257Y045060D02*
X018257Y045691D01*
X018467Y045691D02*
X018046Y045691D01*
X018691Y045376D02*
X019111Y045376D01*
X019335Y045376D02*
X019546Y045376D01*
X019756Y045691D02*
X019335Y045691D01*
X019335Y045060D01*
X017178Y045376D02*
X016757Y045376D01*
X016533Y045586D02*
X016428Y045691D01*
X016218Y045691D01*
X016113Y045586D01*
X025755Y045991D02*
X025860Y045885D01*
X026070Y045885D01*
X026175Y045991D01*
X026175Y046096D01*
X026070Y046201D01*
X025860Y046201D01*
X025755Y046306D01*
X025755Y046411D01*
X025860Y046516D01*
X026070Y046516D01*
X026175Y046411D01*
X026400Y046411D02*
X026400Y045991D01*
X026505Y045885D01*
X026715Y045885D01*
X026820Y045991D01*
X027044Y045885D02*
X027044Y046306D01*
X027254Y046516D01*
X027464Y046306D01*
X027464Y045885D01*
X027689Y045885D02*
X027689Y046516D01*
X028004Y046516D01*
X028109Y046411D01*
X028109Y046201D01*
X028004Y046096D01*
X027689Y046096D01*
X027899Y046096D02*
X028109Y045885D01*
X028543Y045885D02*
X028543Y046516D01*
X028333Y046516D02*
X028754Y046516D01*
X028978Y046201D02*
X029398Y046201D01*
X029622Y046201D02*
X029832Y046201D01*
X029622Y046516D02*
X029622Y045885D01*
X029622Y046516D02*
X030043Y046516D01*
X027464Y046201D02*
X027044Y046201D01*
X026820Y046411D02*
X026715Y046516D01*
X026505Y046516D01*
X026400Y046411D01*
X026400Y046960D02*
X026820Y047381D01*
X026820Y047486D01*
X026715Y047591D01*
X026505Y047591D01*
X026400Y047486D01*
X026175Y047591D02*
X025755Y046960D01*
X026175Y046960D02*
X025755Y047591D01*
X026400Y046960D02*
X026820Y046960D01*
X034630Y005516D02*
X034945Y005516D01*
X035050Y005411D01*
X035050Y004991D01*
X034945Y004885D01*
X034630Y004885D01*
X034630Y005516D01*
X035275Y005516D02*
X035275Y004885D01*
X035590Y004885D01*
X035695Y004991D01*
X035695Y005411D01*
X035590Y005516D01*
X035275Y005516D01*
X035919Y005201D02*
X036234Y005201D01*
X036339Y005096D01*
X036339Y004991D01*
X036234Y004885D01*
X036024Y004885D01*
X035919Y004991D01*
X035919Y005201D01*
X036129Y005411D01*
X036339Y005516D01*
X037130Y005206D02*
X037445Y005206D01*
X037550Y005101D01*
X037550Y004996D01*
X037445Y004890D01*
X037235Y004890D01*
X037130Y004996D01*
X037130Y005206D01*
X037340Y005416D01*
X037550Y005521D01*
X037775Y005416D02*
X037880Y005521D01*
X038090Y005521D01*
X038195Y005416D01*
X038195Y005311D01*
X037775Y004890D01*
X038195Y004890D01*
X038419Y004890D02*
X038839Y005311D01*
X038839Y005416D01*
X038734Y005521D01*
X038524Y005521D01*
X038419Y005416D01*
X038419Y004890D02*
X038839Y004890D01*
X039064Y004996D02*
X039169Y004890D01*
X039379Y004890D01*
X039484Y004996D01*
X039484Y005206D01*
X039379Y005311D01*
X039274Y005311D01*
X039064Y005206D01*
X039064Y005521D01*
X039484Y005521D01*
X039708Y005206D02*
X039918Y005416D01*
X040129Y005521D01*
X040023Y005206D02*
X039708Y005206D01*
X039708Y004996D01*
X039813Y004890D01*
X040023Y004890D01*
X040129Y004996D01*
X040129Y005101D01*
X040023Y005206D01*
D18*
X011470Y025975D02*
X011470Y029975D01*
X004095Y022225D02*
X004095Y018225D01*
D19*
X007595Y019855D02*
X008095Y019855D01*
X008595Y019855D01*
X008595Y020105D02*
X008595Y020355D01*
X007595Y020355D01*
X007595Y020105D01*
X008595Y020105D01*
X008595Y020595D02*
X008095Y020595D01*
X007595Y020595D01*
X014970Y027605D02*
X015470Y027605D01*
X015970Y027605D01*
X015970Y027855D02*
X015970Y028105D01*
X014970Y028105D01*
X014970Y027855D01*
X015970Y027855D01*
X015970Y028345D02*
X015470Y028345D01*
X014970Y028345D01*
D20*
X002274Y018393D02*
X001967Y018393D01*
X001967Y018163D01*
X002121Y018240D01*
X002197Y018240D01*
X002274Y018163D01*
X002274Y018010D01*
X002197Y017933D01*
X002044Y017933D01*
X001967Y018010D01*
X001814Y017933D02*
X001507Y017933D01*
X001814Y018240D01*
X001814Y018317D01*
X001737Y018393D01*
X001583Y018393D01*
X001507Y018317D01*
X001353Y018317D02*
X001277Y018393D01*
X001046Y018393D01*
X001046Y017933D01*
X001046Y018086D02*
X001277Y018086D01*
X001353Y018163D01*
X001353Y018317D01*
X001200Y018086D02*
X001353Y017933D01*
X001737Y017643D02*
X001737Y017183D01*
X001890Y017183D02*
X001583Y017183D01*
X001583Y017490D02*
X001737Y017643D01*
X002044Y017643D02*
X002044Y017183D01*
X002044Y017336D02*
X002274Y017490D01*
X002044Y017336D02*
X002274Y017183D01*
X002086Y016250D02*
X002086Y015789D01*
X001933Y015789D02*
X002240Y015789D01*
X002259Y015527D02*
X002259Y015220D01*
X002259Y015374D02*
X002413Y015527D01*
X002490Y015527D01*
X002106Y015451D02*
X002106Y015374D01*
X001799Y015374D01*
X001799Y015297D02*
X001799Y015451D01*
X001876Y015527D01*
X002029Y015527D01*
X002106Y015451D01*
X002029Y015220D02*
X001876Y015220D01*
X001799Y015297D01*
X001646Y015297D02*
X001646Y015527D01*
X001646Y015297D02*
X001569Y015220D01*
X001492Y015297D01*
X001415Y015220D01*
X001339Y015297D01*
X001339Y015527D01*
X001185Y015451D02*
X001108Y015527D01*
X000955Y015527D01*
X000878Y015451D01*
X000878Y015297D01*
X000955Y015220D01*
X001108Y015220D01*
X001185Y015297D01*
X001185Y015451D01*
X001319Y015789D02*
X001319Y016250D01*
X001472Y016250D02*
X001472Y015789D01*
X001779Y015789D01*
X001933Y016096D02*
X002086Y016250D01*
X001319Y016019D02*
X001012Y016019D01*
X001012Y015789D02*
X001012Y016250D01*
X000648Y015527D02*
X000725Y015451D01*
X000725Y015297D01*
X000648Y015220D01*
X000418Y015220D01*
X000418Y015067D02*
X000418Y015527D01*
X000648Y015527D01*
X000887Y014500D02*
X000887Y014039D01*
X000850Y013931D02*
X000850Y013470D01*
X000620Y013470D01*
X000543Y013547D01*
X000543Y013701D01*
X000620Y013777D01*
X000850Y013777D01*
X001003Y013701D02*
X001003Y013547D01*
X001080Y013470D01*
X001310Y013470D01*
X001464Y013547D02*
X001540Y013624D01*
X001771Y013624D01*
X001771Y013701D02*
X001771Y013470D01*
X001540Y013470D01*
X001464Y013547D01*
X001540Y013777D02*
X001694Y013777D01*
X001771Y013701D01*
X001924Y013777D02*
X001924Y013470D01*
X001924Y013624D02*
X002077Y013777D01*
X002154Y013777D01*
X002308Y013701D02*
X002384Y013777D01*
X002615Y013777D01*
X002615Y013931D02*
X002615Y013470D01*
X002384Y013470D01*
X002308Y013547D01*
X002308Y013701D01*
X002115Y014039D02*
X001808Y014039D01*
X002115Y014346D01*
X002115Y014423D01*
X002038Y014500D01*
X001884Y014500D01*
X001808Y014423D01*
X001654Y014039D02*
X001347Y014039D01*
X001347Y014500D01*
X001194Y014500D02*
X001194Y014039D01*
X001194Y014269D02*
X000887Y014269D01*
X001080Y013777D02*
X001003Y013701D01*
X001080Y013777D02*
X001310Y013777D01*
X000389Y013777D02*
X000159Y013777D01*
X000082Y013701D01*
X000159Y013624D01*
X000313Y013624D01*
X000389Y013547D01*
X000313Y013470D01*
X000082Y013470D01*
X001359Y012831D02*
X001589Y012831D01*
X001666Y012754D01*
X001666Y012601D01*
X001589Y012524D01*
X001359Y012524D01*
X001512Y012524D02*
X001666Y012370D01*
X001819Y012370D02*
X002126Y012677D01*
X002126Y012754D01*
X002049Y012831D01*
X001896Y012831D01*
X001819Y012754D01*
X001819Y012370D02*
X002126Y012370D01*
X002280Y012447D02*
X002356Y012370D01*
X002510Y012370D01*
X002587Y012447D01*
X002587Y012524D01*
X002510Y012601D01*
X002280Y012601D01*
X002280Y012447D01*
X002280Y012601D02*
X002433Y012754D01*
X002587Y012831D01*
X002294Y012143D02*
X002294Y011683D01*
X002294Y011836D02*
X002524Y011990D01*
X002294Y011836D02*
X002524Y011683D01*
X002140Y011683D02*
X001833Y011683D01*
X001987Y011683D02*
X001987Y012143D01*
X001833Y011990D01*
X001359Y012370D02*
X001359Y012831D01*
X004003Y013976D02*
X004003Y014725D01*
X004437Y014725D01*
X004437Y013976D01*
X004003Y013976D01*
X004003Y015976D02*
X004437Y015976D01*
X004437Y016725D01*
X004003Y016725D01*
X004003Y015976D01*
X008254Y004981D02*
X008177Y004904D01*
X008177Y004827D01*
X008254Y004751D01*
X008408Y004751D01*
X008484Y004674D01*
X008484Y004597D01*
X008408Y004520D01*
X008254Y004520D01*
X008177Y004597D01*
X008254Y004981D02*
X008408Y004981D01*
X008484Y004904D01*
X008638Y004981D02*
X008868Y004981D01*
X008945Y004904D01*
X008945Y004597D01*
X008868Y004520D01*
X008638Y004520D01*
X008638Y004981D01*
X009098Y004520D02*
X009405Y004981D01*
X009559Y004981D02*
X009712Y004827D01*
X009866Y004981D01*
X009866Y004520D01*
X010019Y004520D02*
X010019Y004981D01*
X010172Y004827D01*
X010326Y004981D01*
X010326Y004520D01*
X010479Y004597D02*
X010556Y004520D01*
X010710Y004520D01*
X010786Y004597D01*
X010479Y004597D02*
X010479Y004904D01*
X010556Y004981D01*
X010710Y004981D01*
X010786Y004904D01*
X011400Y004904D02*
X011400Y004597D01*
X011477Y004520D01*
X011630Y004520D01*
X011707Y004597D01*
X011861Y004597D02*
X011937Y004674D01*
X012167Y004674D01*
X012167Y004751D02*
X012167Y004520D01*
X011937Y004520D01*
X011861Y004597D01*
X011937Y004827D02*
X012091Y004827D01*
X012167Y004751D01*
X012321Y004827D02*
X012321Y004520D01*
X012321Y004674D02*
X012474Y004827D01*
X012551Y004827D01*
X012705Y004751D02*
X012781Y004827D01*
X013012Y004827D01*
X013012Y004981D02*
X013012Y004520D01*
X012781Y004520D01*
X012705Y004597D01*
X012705Y004751D01*
X011707Y004904D02*
X011630Y004981D01*
X011477Y004981D01*
X011400Y004904D01*
X009559Y004981D02*
X009559Y004520D01*
X015718Y004499D02*
X015718Y004039D01*
X015718Y004192D02*
X015949Y004192D01*
X016025Y004269D01*
X016025Y004422D01*
X015949Y004499D01*
X015718Y004499D01*
X015872Y004192D02*
X016025Y004039D01*
X016179Y003962D02*
X016486Y003962D01*
X016639Y004039D02*
X016869Y004039D01*
X016946Y004116D01*
X016946Y004192D01*
X016869Y004269D01*
X016639Y004269D01*
X016639Y004039D02*
X016639Y004499D01*
X016869Y004499D01*
X016946Y004422D01*
X016946Y004346D01*
X016869Y004269D01*
X017718Y004192D02*
X017949Y004192D01*
X018025Y004269D01*
X018025Y004422D01*
X017949Y004499D01*
X017718Y004499D01*
X017718Y004039D01*
X017872Y004192D02*
X018025Y004039D01*
X018179Y003962D02*
X018486Y003962D01*
X018639Y004116D02*
X018716Y004039D01*
X018869Y004039D01*
X018946Y004116D01*
X018946Y004269D01*
X018793Y004269D01*
X018946Y004422D02*
X018869Y004499D01*
X018716Y004499D01*
X018639Y004422D01*
X018639Y004116D01*
X019593Y004192D02*
X019824Y004192D01*
X019900Y004269D01*
X019900Y004422D01*
X019824Y004499D01*
X019593Y004499D01*
X019593Y004039D01*
X019747Y004192D02*
X019900Y004039D01*
X020054Y003962D02*
X020361Y003962D01*
X020514Y004039D02*
X020514Y004499D01*
X020744Y004499D01*
X020821Y004422D01*
X020821Y004269D01*
X020744Y004192D01*
X020514Y004192D01*
X020668Y004192D02*
X020821Y004039D01*
X021468Y004039D02*
X021468Y004499D01*
X021699Y004499D01*
X021775Y004422D01*
X021775Y004269D01*
X021699Y004192D01*
X021468Y004192D01*
X021622Y004192D02*
X021775Y004039D01*
X021929Y003962D02*
X022236Y003962D01*
X022389Y004116D02*
X022466Y004039D01*
X022619Y004039D01*
X022696Y004116D01*
X022696Y004192D01*
X022619Y004269D01*
X022466Y004269D01*
X022389Y004346D01*
X022389Y004422D01*
X022466Y004499D01*
X022619Y004499D01*
X022696Y004422D01*
X022850Y004422D02*
X023003Y004269D01*
X023003Y004039D01*
X023003Y004269D02*
X023156Y004422D01*
X023156Y004499D01*
X022850Y004499D02*
X022850Y004422D01*
X041831Y014779D02*
X041831Y014856D01*
X042138Y015163D01*
X042138Y015239D01*
X041831Y015239D01*
X042292Y015009D02*
X042599Y015009D01*
X042752Y015009D02*
X043059Y015009D01*
X043213Y015163D02*
X043213Y014856D01*
X043289Y014779D01*
X043443Y014779D01*
X043520Y014856D01*
X043673Y014779D02*
X043980Y015086D01*
X043980Y015163D01*
X043903Y015239D01*
X043750Y015239D01*
X043673Y015163D01*
X043520Y015163D02*
X043443Y015239D01*
X043289Y015239D01*
X043213Y015163D01*
X043059Y015239D02*
X043059Y014779D01*
X042752Y014779D02*
X042752Y015239D01*
X042522Y015239D02*
X042292Y015009D01*
X042522Y014779D02*
X042522Y015239D01*
X043673Y014779D02*
X043980Y014779D01*
X044133Y015009D02*
X044440Y015009D01*
X044594Y015009D02*
X044747Y015086D01*
X044824Y015086D01*
X044901Y015009D01*
X044901Y014856D01*
X044824Y014779D01*
X044671Y014779D01*
X044594Y014856D01*
X044594Y015009D02*
X044594Y015239D01*
X044901Y015239D01*
X045054Y015239D02*
X045361Y014779D01*
X045361Y015239D01*
X045054Y015239D02*
X045054Y014779D01*
X044364Y014779D02*
X044364Y015239D01*
X044133Y015009D01*
X047707Y014907D02*
X047707Y014830D01*
X047707Y014907D02*
X048014Y015214D01*
X048014Y015291D01*
X047707Y015291D01*
X048168Y015060D02*
X048475Y015060D01*
X048628Y015060D02*
X048935Y015060D01*
X049089Y015214D02*
X049089Y014907D01*
X049165Y014830D01*
X049319Y014830D01*
X049396Y014907D01*
X049549Y014830D02*
X049856Y015137D01*
X049856Y015214D01*
X049779Y015291D01*
X049626Y015291D01*
X049549Y015214D01*
X049396Y015214D02*
X049319Y015291D01*
X049165Y015291D01*
X049089Y015214D01*
X048935Y015291D02*
X048935Y014830D01*
X048628Y014830D02*
X048628Y015291D01*
X048398Y015291D02*
X048398Y014830D01*
X048168Y015060D02*
X048398Y015291D01*
X049549Y014830D02*
X049856Y014830D01*
X050009Y015060D02*
X050316Y015060D01*
X050470Y015060D02*
X050623Y015137D01*
X050700Y015137D01*
X050777Y015060D01*
X050777Y014907D01*
X050700Y014830D01*
X050547Y014830D01*
X050470Y014907D01*
X050470Y015060D02*
X050470Y015291D01*
X050777Y015291D01*
X050930Y015291D02*
X051237Y014830D01*
X051237Y015291D01*
X050930Y015291D02*
X050930Y014830D01*
X050240Y014830D02*
X050240Y015291D01*
X050009Y015060D01*
X061769Y023409D02*
X061769Y023486D01*
X062076Y023793D01*
X062076Y023870D01*
X061769Y023870D01*
X061791Y024204D02*
X062022Y024204D01*
X062098Y024281D01*
X062098Y024588D01*
X062022Y024664D01*
X061791Y024664D01*
X061791Y024204D01*
X062252Y024204D02*
X062252Y024664D01*
X062482Y024664D01*
X062559Y024588D01*
X062559Y024281D01*
X062482Y024204D01*
X062252Y024204D01*
X062460Y023870D02*
X062229Y023640D01*
X062536Y023640D01*
X062690Y023640D02*
X062997Y023640D01*
X063150Y023793D02*
X063150Y023486D01*
X063227Y023409D01*
X063380Y023409D01*
X063457Y023486D01*
X063611Y023409D02*
X063917Y023716D01*
X063917Y023793D01*
X063841Y023870D01*
X063687Y023870D01*
X063611Y023793D01*
X063457Y023793D02*
X063380Y023870D01*
X063227Y023870D01*
X063150Y023793D01*
X062997Y023870D02*
X062997Y023409D01*
X062690Y023409D02*
X062690Y023870D01*
X062460Y023870D02*
X062460Y023409D01*
X062712Y024204D02*
X063019Y024204D01*
X062866Y024204D02*
X062866Y024664D01*
X062712Y024511D01*
X063173Y024588D02*
X063173Y024281D01*
X063480Y024588D01*
X063480Y024281D01*
X063403Y024204D01*
X063249Y024204D01*
X063173Y024281D01*
X063173Y024588D02*
X063249Y024664D01*
X063403Y024664D01*
X063480Y024588D01*
X064301Y023870D02*
X064071Y023640D01*
X064378Y023640D01*
X064531Y023640D02*
X064685Y023716D01*
X064761Y023716D01*
X064838Y023640D01*
X064838Y023486D01*
X064761Y023409D01*
X064608Y023409D01*
X064531Y023486D01*
X064531Y023640D02*
X064531Y023870D01*
X064838Y023870D01*
X064992Y023870D02*
X065299Y023409D01*
X065299Y023870D01*
X064992Y023870D02*
X064992Y023409D01*
X064301Y023409D02*
X064301Y023870D01*
X063917Y023409D02*
X063611Y023409D01*
X063428Y041245D02*
X063121Y041245D01*
X063428Y041552D01*
X063428Y041629D01*
X063351Y041706D01*
X063198Y041706D01*
X063121Y041629D01*
X062968Y041706D02*
X062661Y041245D01*
X062507Y041322D02*
X062431Y041245D01*
X062277Y041245D01*
X062200Y041322D01*
X062277Y041476D02*
X062431Y041476D01*
X062507Y041399D01*
X062507Y041322D01*
X062277Y041476D02*
X062200Y041552D01*
X062200Y041629D01*
X062277Y041706D01*
X062431Y041706D01*
X062507Y041629D01*
X062615Y041995D02*
X062922Y042456D01*
X063075Y042379D02*
X063152Y042456D01*
X063306Y042456D01*
X063382Y042379D01*
X063382Y042302D01*
X063306Y042226D01*
X063382Y042149D01*
X063382Y042072D01*
X063306Y041995D01*
X063152Y041995D01*
X063075Y042072D01*
X062922Y041995D02*
X062615Y042456D01*
X063229Y042226D02*
X063306Y042226D01*
X064042Y041706D02*
X064042Y041245D01*
X064042Y041399D02*
X064349Y041706D01*
X064502Y041706D02*
X064733Y041706D01*
X064809Y041629D01*
X064809Y041552D01*
X064733Y041476D01*
X064502Y041476D01*
X064502Y041706D02*
X064502Y041245D01*
X064733Y041245D01*
X064809Y041322D01*
X064809Y041399D01*
X064733Y041476D01*
X064349Y041245D02*
X064119Y041476D01*
X062047Y041476D02*
X061970Y041399D01*
X061740Y041399D01*
X061740Y041245D02*
X061740Y041706D01*
X061970Y041706D01*
X062047Y041629D01*
X062047Y041476D01*
X032996Y046691D02*
X032996Y046998D01*
X032996Y047283D02*
X032690Y047283D01*
X032843Y047283D02*
X032843Y047743D01*
X032690Y047590D01*
X032536Y047743D02*
X032229Y047283D01*
X032229Y046998D02*
X032229Y046768D01*
X032383Y046845D01*
X032459Y046845D01*
X032536Y046768D01*
X032536Y046615D01*
X032459Y046538D01*
X032306Y046538D01*
X032229Y046615D01*
X032229Y046998D02*
X032536Y046998D01*
X032690Y046998D02*
X032690Y046691D01*
X032843Y046538D01*
X032996Y046691D01*
X032536Y047283D02*
X032229Y047743D01*
X042813Y004435D02*
X043043Y004435D01*
X043120Y004358D01*
X043120Y004051D01*
X043043Y003974D01*
X042813Y003974D01*
X042813Y004435D01*
X043273Y004435D02*
X043273Y003974D01*
X043503Y003974D01*
X043580Y004051D01*
X043580Y004358D01*
X043503Y004435D01*
X043273Y004435D01*
X043734Y004205D02*
X044040Y004205D01*
X043964Y004435D02*
X043734Y004205D01*
X043964Y003974D02*
X043964Y004435D01*
X048512Y004436D02*
X048512Y003975D01*
X048742Y003975D01*
X048819Y004052D01*
X048819Y004359D01*
X048742Y004436D01*
X048512Y004436D01*
X048972Y004436D02*
X048972Y003975D01*
X049202Y003975D01*
X049279Y004052D01*
X049279Y004359D01*
X049202Y004436D01*
X048972Y004436D01*
X049432Y004436D02*
X049432Y004206D01*
X049586Y004282D01*
X049663Y004282D01*
X049739Y004206D01*
X049739Y004052D01*
X049663Y003975D01*
X049509Y003975D01*
X049432Y004052D01*
X049432Y004436D02*
X049739Y004436D01*
D21*
X016970Y009805D03*
X016970Y012645D03*
X017220Y015305D03*
X017220Y018145D03*
X046158Y031680D03*
X046158Y034520D03*
D22*
X023645Y039475D03*
X019145Y040100D03*
X016145Y040100D03*
X013395Y040100D03*
X011020Y039475D03*
X002020Y040288D03*
X009295Y028850D03*
X010145Y019725D03*
D23*
X011220Y022100D03*
X012220Y022100D03*
X012220Y023100D03*
X011220Y023100D03*
X011220Y024100D03*
X012220Y024100D03*
X015095Y023975D03*
X016095Y023975D03*
X016095Y022975D03*
X015095Y022975D03*
X015095Y021975D03*
X016095Y021975D03*
X016095Y020975D03*
X015095Y020975D03*
X015095Y024975D03*
X016095Y024975D03*
X009470Y031225D03*
X009470Y032225D03*
X009470Y033225D03*
X005595Y041600D03*
X004595Y041600D03*
X003595Y041600D03*
X061970Y040288D03*
X062970Y040288D03*
X063970Y040288D03*
X064970Y040288D03*
D24*
X066226Y042719D02*
X060714Y042719D01*
X060714Y047600D01*
X066226Y047600D01*
X066226Y042719D01*
X066226Y047207D02*
X060714Y047207D01*
D25*
X023231Y008063D02*
X021459Y008063D01*
X021459Y004638D01*
X023231Y004638D01*
X023231Y008063D01*
X021231Y008063D02*
X021231Y004638D01*
X019459Y004638D01*
X019459Y008063D01*
X021231Y008063D01*
X019231Y008063D02*
X019231Y004638D01*
X017459Y004638D01*
X017459Y008063D01*
X019231Y008063D01*
X017231Y008063D02*
X017231Y004638D01*
X015459Y004638D01*
X015459Y008063D01*
X017231Y008063D01*
D26*
X016345Y007354D03*
X018345Y007354D03*
X020345Y007354D03*
X022345Y007354D03*
D27*
X027095Y039713D03*
X025345Y041900D03*
D28*
X024945Y043875D02*
X024945Y047925D01*
X007245Y047925D02*
X007245Y043875D01*
D29*
X004210Y016419D02*
X004151Y016360D01*
X004220Y016291D01*
X004279Y016350D01*
X004210Y016419D01*
X004220Y014410D02*
X004289Y014341D01*
X004230Y014282D01*
X004161Y014350D01*
X004220Y014410D01*
D30*
X004063Y014242D03*
X004377Y016459D03*
D31*
X003096Y017438D03*
X003096Y018018D03*
D32*
X003388Y012413D03*
X004428Y012413D03*
D33*
X003095Y018100D02*
X002408Y019788D01*
X015595Y020100D02*
X019970Y020600D01*
X028845Y019787D02*
X028720Y016163D01*
M02*
