G75*
G70*
%OFA0B0*%
%FSLAX24Y24*%
%IPPOS*%
%LPD*%
%AMOC8*
5,1,8,0,0,1.08239X$1,22.5*
%
%ADD10C,0.0700*%
%ADD11C,0.0635*%
%ADD12C,0.0630*%
%ADD13C,0.0860*%
%ADD14OC8,0.0860*%
%ADD15C,0.0669*%
%ADD16C,0.1266*%
%ADD17C,0.0827*%
%ADD18C,0.0835*%
%ADD19R,0.0500X0.1000*%
%ADD20R,0.0280X0.0560*%
%ADD21C,0.0715*%
%ADD22C,0.0787*%
%ADD23C,0.1181*%
%ADD24R,0.0472X0.0472*%
%ADD25R,0.0591X0.0512*%
%ADD26C,0.0320*%
%ADD27C,0.0400*%
%ADD28C,0.0160*%
%ADD29C,0.0240*%
%ADD30C,0.0120*%
%ADD31C,0.1969*%
D10*
X050268Y032126D03*
X051268Y032126D03*
X051268Y031126D03*
X052268Y031126D03*
X052268Y032126D03*
X053268Y032126D03*
X053268Y031126D03*
X054268Y031126D03*
X054268Y032126D03*
X055268Y032126D03*
X055268Y031126D03*
X056268Y031126D03*
X056268Y032126D03*
X057268Y032126D03*
X057268Y031126D03*
X058268Y031126D03*
X058268Y032126D03*
X059268Y032126D03*
X059268Y031126D03*
X060268Y031126D03*
X060268Y032126D03*
X061268Y032126D03*
X061268Y031126D03*
X062268Y032126D03*
X062268Y033126D03*
X061268Y033126D03*
X061268Y034126D03*
X062268Y034126D03*
X062268Y035126D03*
X061268Y035126D03*
X061268Y036126D03*
X062268Y036126D03*
X062268Y037126D03*
X061268Y037126D03*
X061268Y038126D03*
X061268Y039126D03*
X062268Y039126D03*
X062268Y038126D03*
X062268Y040126D03*
X061268Y040126D03*
X061268Y041126D03*
X062268Y041126D03*
X062268Y042126D03*
X061268Y042126D03*
X060268Y042126D03*
X060268Y043126D03*
X061268Y043126D03*
X059268Y043126D03*
X058268Y043126D03*
X057268Y043126D03*
X056268Y043126D03*
X055268Y043126D03*
X054268Y043126D03*
X053268Y043126D03*
X052268Y043126D03*
X051268Y043126D03*
X051268Y042126D03*
X050268Y042126D03*
X050268Y041126D03*
X050268Y040126D03*
X051268Y040126D03*
X051268Y041126D03*
X052268Y042126D03*
X053268Y042126D03*
X054268Y042126D03*
X055268Y042126D03*
X056268Y042126D03*
X057268Y042126D03*
X058268Y042126D03*
X059268Y042126D03*
X051268Y039126D03*
X050268Y039126D03*
X050268Y038126D03*
X050268Y037126D03*
X051268Y037126D03*
X051268Y038126D03*
X051268Y036126D03*
X050268Y036126D03*
X050268Y035126D03*
X051268Y035126D03*
X051268Y034126D03*
X050268Y034126D03*
X050268Y033126D03*
X051268Y033126D03*
D11*
X047336Y033626D02*
X046701Y033626D01*
X046701Y034626D02*
X047336Y034626D01*
X047336Y035626D02*
X046701Y035626D01*
X046701Y036626D02*
X047336Y036626D01*
X047336Y037626D02*
X046701Y037626D01*
X046701Y038626D02*
X047336Y038626D01*
X047336Y039626D02*
X046701Y039626D01*
X046701Y040626D02*
X047336Y040626D01*
X047336Y041626D02*
X046701Y041626D01*
X046701Y042626D02*
X047336Y042626D01*
X047336Y043626D02*
X046701Y043626D01*
X046701Y044626D02*
X047336Y044626D01*
X047336Y045626D02*
X046701Y045626D01*
X046701Y046626D02*
X047336Y046626D01*
X041336Y046626D02*
X040701Y046626D01*
X040701Y045626D02*
X041336Y045626D01*
X041336Y044626D02*
X040701Y044626D01*
X040701Y043626D02*
X041336Y043626D01*
X041336Y042626D02*
X040701Y042626D01*
X039582Y042622D02*
X038947Y042622D01*
X038947Y041622D02*
X039582Y041622D01*
X039582Y040622D02*
X038947Y040622D01*
X040701Y040626D02*
X041336Y040626D01*
X041336Y041626D02*
X040701Y041626D01*
X040701Y039626D02*
X041336Y039626D01*
X041336Y038626D02*
X040701Y038626D01*
X039582Y038622D02*
X038947Y038622D01*
X038947Y039622D02*
X039582Y039622D01*
X040701Y037626D02*
X041336Y037626D01*
X041336Y036626D02*
X040701Y036626D01*
X040701Y035626D02*
X041336Y035626D01*
X041336Y034626D02*
X040701Y034626D01*
X040701Y033626D02*
X041336Y033626D01*
X036582Y038622D02*
X035947Y038622D01*
X035947Y039622D02*
X036582Y039622D01*
X036582Y040622D02*
X035947Y040622D01*
X035947Y041622D02*
X036582Y041622D01*
X036582Y042622D02*
X035947Y042622D01*
X035947Y043622D02*
X036582Y043622D01*
X036582Y044622D02*
X035947Y044622D01*
X035947Y045622D02*
X036582Y045622D01*
X036582Y046622D02*
X035947Y046622D01*
X035947Y047622D02*
X036582Y047622D01*
X038947Y047622D02*
X039582Y047622D01*
X039582Y046622D02*
X038947Y046622D01*
X038947Y045622D02*
X039582Y045622D01*
X039582Y044622D02*
X038947Y044622D01*
X038947Y043622D02*
X039582Y043622D01*
X033883Y043621D02*
X033248Y043621D01*
X033248Y044621D02*
X033883Y044621D01*
X033883Y045621D02*
X033248Y045621D01*
X033248Y046621D02*
X033883Y046621D01*
X033883Y047621D02*
X033248Y047621D01*
X030883Y047621D02*
X030248Y047621D01*
X030248Y046621D02*
X030883Y046621D01*
X030883Y045621D02*
X030248Y045621D01*
X030248Y044621D02*
X030883Y044621D01*
X030883Y043621D02*
X030248Y043621D01*
X030248Y042621D02*
X030883Y042621D01*
X030883Y041621D02*
X030248Y041621D01*
X030248Y040621D02*
X030883Y040621D01*
X030883Y039621D02*
X030248Y039621D01*
X030248Y038621D02*
X030883Y038621D01*
X033248Y038621D02*
X033883Y038621D01*
X033883Y039621D02*
X033248Y039621D01*
X033248Y040621D02*
X033883Y040621D01*
X033883Y041621D02*
X033248Y041621D01*
X033248Y042621D02*
X033883Y042621D01*
X027711Y042626D02*
X027076Y042626D01*
X027076Y043626D02*
X027711Y043626D01*
X027711Y044626D02*
X027076Y044626D01*
X027076Y045626D02*
X027711Y045626D01*
X027711Y046626D02*
X027076Y046626D01*
X027076Y047626D02*
X027711Y047626D01*
X021711Y047626D02*
X021076Y047626D01*
X021076Y046626D02*
X021711Y046626D01*
X021711Y045626D02*
X021076Y045626D01*
X021076Y044626D02*
X021711Y044626D01*
X021711Y043626D02*
X021076Y043626D01*
X021076Y042626D02*
X021711Y042626D01*
X021711Y041626D02*
X021076Y041626D01*
X021076Y040626D02*
X021711Y040626D01*
X021711Y039626D02*
X021076Y039626D01*
X021076Y038626D02*
X021711Y038626D01*
X021711Y037626D02*
X021076Y037626D01*
X021076Y036626D02*
X021711Y036626D01*
X021711Y035626D02*
X021076Y035626D01*
X021076Y034626D02*
X021711Y034626D01*
X021711Y033626D02*
X021076Y033626D01*
X021076Y032626D02*
X021711Y032626D01*
X022147Y030132D02*
X022147Y029497D01*
X021147Y029497D02*
X021147Y030132D01*
X020147Y030132D02*
X020147Y029497D01*
X023147Y029497D02*
X023147Y030132D01*
X024147Y030132D02*
X024147Y029497D01*
X025147Y029497D02*
X025147Y030132D01*
X026147Y030132D02*
X026147Y029497D01*
X027147Y029497D02*
X027147Y030132D01*
X028147Y030132D02*
X028147Y029497D01*
X029147Y029497D02*
X029147Y030132D01*
X027711Y032626D02*
X027076Y032626D01*
X027076Y033626D02*
X027711Y033626D01*
X027711Y034626D02*
X027076Y034626D01*
X027076Y035626D02*
X027711Y035626D01*
X027711Y036626D02*
X027076Y036626D01*
X027076Y037626D02*
X027711Y037626D01*
X027711Y038626D02*
X027076Y038626D01*
X027076Y039626D02*
X027711Y039626D01*
X027711Y040626D02*
X027076Y040626D01*
X027076Y041626D02*
X027711Y041626D01*
X028147Y027132D02*
X028147Y026497D01*
X027147Y026497D02*
X027147Y027132D01*
X026147Y027132D02*
X026147Y026497D01*
X025147Y026497D02*
X025147Y027132D01*
X024147Y027132D02*
X024147Y026497D01*
X023147Y026497D02*
X023147Y027132D01*
X022147Y027132D02*
X022147Y026497D01*
X021147Y026497D02*
X021147Y027132D01*
X020147Y027132D02*
X020147Y026497D01*
X021076Y021501D02*
X021711Y021501D01*
X021711Y020501D02*
X021076Y020501D01*
X021076Y019501D02*
X021711Y019501D01*
X021711Y018501D02*
X021076Y018501D01*
X021076Y017501D02*
X021711Y017501D01*
X021711Y016501D02*
X021076Y016501D01*
X021076Y015501D02*
X021711Y015501D01*
X021711Y014501D02*
X021076Y014501D01*
X021076Y013501D02*
X021711Y013501D01*
X021711Y012501D02*
X021076Y012501D01*
X021076Y011501D02*
X021711Y011501D01*
X021711Y010501D02*
X021076Y010501D01*
X021076Y009501D02*
X021711Y009501D01*
X021711Y008501D02*
X021076Y008501D01*
X021076Y007501D02*
X021711Y007501D01*
X021711Y006501D02*
X021076Y006501D01*
X027076Y006501D02*
X027711Y006501D01*
X027711Y007501D02*
X027076Y007501D01*
X027076Y008501D02*
X027711Y008501D01*
X027711Y009501D02*
X027076Y009501D01*
X027076Y010501D02*
X027711Y010501D01*
X027711Y011501D02*
X027076Y011501D01*
X027076Y012501D02*
X027711Y012501D01*
X027711Y013501D02*
X027076Y013501D01*
X027076Y014501D02*
X027711Y014501D01*
X027711Y015501D02*
X027076Y015501D01*
X027076Y016501D02*
X027711Y016501D01*
X027711Y017501D02*
X027076Y017501D01*
X027076Y018501D02*
X027711Y018501D01*
X027711Y019501D02*
X027076Y019501D01*
X027076Y020501D02*
X027711Y020501D01*
X027711Y021501D02*
X027076Y021501D01*
X030951Y021501D02*
X031586Y021501D01*
X031586Y020501D02*
X030951Y020501D01*
X030951Y019501D02*
X031586Y019501D01*
X031586Y018501D02*
X030951Y018501D01*
X030951Y017501D02*
X031586Y017501D01*
X031586Y016501D02*
X030951Y016501D01*
X030951Y015501D02*
X031586Y015501D01*
X031586Y014501D02*
X030951Y014501D01*
X030951Y013501D02*
X031586Y013501D01*
X031586Y012501D02*
X030951Y012501D01*
X030951Y011501D02*
X031586Y011501D01*
X031586Y010501D02*
X030951Y010501D01*
X030951Y009501D02*
X031586Y009501D01*
X031586Y008501D02*
X030951Y008501D01*
X030951Y007501D02*
X031586Y007501D01*
X031586Y006501D02*
X030951Y006501D01*
X036951Y006501D02*
X037586Y006501D01*
X037586Y007501D02*
X036951Y007501D01*
X036951Y008501D02*
X037586Y008501D01*
X037586Y009501D02*
X036951Y009501D01*
X036951Y010501D02*
X037586Y010501D01*
X037586Y011501D02*
X036951Y011501D01*
X036951Y012501D02*
X037586Y012501D01*
X037586Y013501D02*
X036951Y013501D01*
X036951Y014501D02*
X037586Y014501D01*
X037586Y015501D02*
X036951Y015501D01*
X036951Y016501D02*
X037586Y016501D01*
X037586Y017501D02*
X036951Y017501D01*
X036951Y018501D02*
X037586Y018501D01*
X037586Y019501D02*
X036951Y019501D01*
X036951Y020501D02*
X037586Y020501D01*
X037586Y021501D02*
X036951Y021501D01*
X036951Y022501D02*
X037586Y022501D01*
X037586Y023501D02*
X036951Y023501D01*
X036951Y024501D02*
X037586Y024501D01*
X037586Y025501D02*
X036951Y025501D01*
X041326Y025501D02*
X041961Y025501D01*
X041961Y024501D02*
X041326Y024501D01*
X041326Y023501D02*
X041961Y023501D01*
X041961Y022501D02*
X041326Y022501D01*
X041326Y021501D02*
X041961Y021501D01*
X041961Y020501D02*
X041326Y020501D01*
X041326Y019501D02*
X041961Y019501D01*
X041961Y018501D02*
X041326Y018501D01*
X041326Y017501D02*
X041961Y017501D01*
X041961Y016501D02*
X041326Y016501D01*
X041326Y015501D02*
X041961Y015501D01*
X041961Y014501D02*
X041326Y014501D01*
X041326Y013501D02*
X041961Y013501D01*
X041961Y012501D02*
X041326Y012501D01*
X041326Y011501D02*
X041961Y011501D01*
X041961Y010501D02*
X041326Y010501D01*
X041326Y009501D02*
X041961Y009501D01*
X041961Y008501D02*
X041326Y008501D01*
X041326Y007501D02*
X041961Y007501D01*
X041961Y006501D02*
X041326Y006501D01*
X047326Y006501D02*
X047961Y006501D01*
X047961Y007501D02*
X047326Y007501D01*
X047326Y008501D02*
X047961Y008501D01*
X047961Y009501D02*
X047326Y009501D01*
X047326Y010501D02*
X047961Y010501D01*
X047961Y011501D02*
X047326Y011501D01*
X047326Y012501D02*
X047961Y012501D01*
X047961Y013501D02*
X047326Y013501D01*
X047326Y014501D02*
X047961Y014501D01*
X047961Y015501D02*
X047326Y015501D01*
X047326Y016501D02*
X047961Y016501D01*
X047961Y017501D02*
X047326Y017501D01*
X047326Y018501D02*
X047961Y018501D01*
X047961Y019501D02*
X047326Y019501D01*
X047326Y020501D02*
X047961Y020501D01*
X047961Y021501D02*
X047326Y021501D01*
X047326Y022501D02*
X047961Y022501D01*
X047961Y023501D02*
X047326Y023501D01*
X047326Y024501D02*
X047961Y024501D01*
X047961Y025501D02*
X047326Y025501D01*
X051393Y021318D02*
X051393Y020683D01*
X052393Y020683D02*
X052393Y021318D01*
X053393Y021318D02*
X053393Y020683D01*
X054393Y020683D02*
X054393Y021318D01*
X055393Y021318D02*
X055393Y020683D01*
X056393Y020683D02*
X056393Y021318D01*
X057393Y021318D02*
X057393Y020683D01*
X058393Y020683D02*
X058393Y021318D01*
X059393Y021318D02*
X059393Y020683D01*
X060393Y020683D02*
X060393Y021318D01*
X061393Y021318D02*
X061393Y020683D01*
X062393Y020683D02*
X062393Y021318D01*
X063393Y021318D02*
X063393Y020683D01*
X064393Y020683D02*
X064393Y021318D01*
X065393Y021318D02*
X065393Y020683D01*
X066393Y020683D02*
X066393Y021318D01*
X067393Y021318D02*
X067393Y020683D01*
X068393Y020683D02*
X068393Y021318D01*
X069393Y021318D02*
X069393Y020683D01*
X070393Y020683D02*
X070393Y021318D01*
X073576Y021251D02*
X074211Y021251D01*
X074211Y022251D02*
X073576Y022251D01*
X073576Y023251D02*
X074211Y023251D01*
X074211Y024251D02*
X073576Y024251D01*
X073576Y025251D02*
X074211Y025251D01*
X073893Y026433D02*
X073893Y027068D01*
X072893Y027068D02*
X072893Y026433D01*
X071893Y026433D02*
X071893Y027068D01*
X074893Y027068D02*
X074893Y026433D01*
X075893Y026433D02*
X075893Y027068D01*
X076893Y027068D02*
X076893Y026433D01*
X077576Y025251D02*
X078211Y025251D01*
X077893Y026433D02*
X077893Y027068D01*
X077893Y029433D02*
X077893Y030068D01*
X076893Y030068D02*
X076893Y029433D01*
X075893Y029433D02*
X075893Y030068D01*
X074893Y030068D02*
X074893Y029433D01*
X073893Y029433D02*
X073893Y030068D01*
X072893Y030068D02*
X072893Y029433D01*
X071893Y029433D02*
X071893Y030068D01*
X066836Y033001D02*
X066201Y033001D01*
X066201Y034001D02*
X066836Y034001D01*
X066836Y035001D02*
X066201Y035001D01*
X077576Y024251D02*
X078211Y024251D01*
X078211Y023251D02*
X077576Y023251D01*
X077576Y022251D02*
X078211Y022251D01*
X078211Y021251D02*
X077576Y021251D01*
X077576Y020251D02*
X078211Y020251D01*
X078211Y019251D02*
X077576Y019251D01*
X077576Y018251D02*
X078211Y018251D01*
X078211Y017251D02*
X077576Y017251D01*
X077576Y016251D02*
X078211Y016251D01*
X078211Y015251D02*
X077576Y015251D01*
X077576Y014251D02*
X078211Y014251D01*
X074211Y014251D02*
X073576Y014251D01*
X073576Y015251D02*
X074211Y015251D01*
X074211Y016251D02*
X073576Y016251D01*
X073576Y017251D02*
X074211Y017251D01*
X074211Y018251D02*
X073576Y018251D01*
X073576Y019251D02*
X074211Y019251D01*
X074211Y020251D02*
X073576Y020251D01*
X070393Y015318D02*
X070393Y014683D01*
X069393Y014683D02*
X069393Y015318D01*
X068393Y015318D02*
X068393Y014683D01*
X067393Y014683D02*
X067393Y015318D01*
X066393Y015318D02*
X066393Y014683D01*
X065393Y014683D02*
X065393Y015318D01*
X064393Y015318D02*
X064393Y014683D01*
X063393Y014683D02*
X063393Y015318D01*
X062393Y015318D02*
X062393Y014683D01*
X061393Y014683D02*
X061393Y015318D01*
X060393Y015318D02*
X060393Y014683D01*
X059393Y014683D02*
X059393Y015318D01*
X058393Y015318D02*
X058393Y014683D01*
X057393Y014683D02*
X057393Y015318D01*
X056393Y015318D02*
X056393Y014683D01*
X055393Y014683D02*
X055393Y015318D01*
X054393Y015318D02*
X054393Y014683D01*
X053393Y014683D02*
X053393Y015318D01*
X052393Y015318D02*
X052393Y014683D01*
X051393Y014683D02*
X051393Y015318D01*
X031586Y022501D02*
X030951Y022501D01*
X030951Y023501D02*
X031586Y023501D01*
X031586Y024501D02*
X030951Y024501D01*
X030951Y025501D02*
X031586Y025501D01*
X029147Y026497D02*
X029147Y027132D01*
D12*
X043704Y033626D02*
X044333Y033626D01*
X044333Y034626D02*
X043704Y034626D01*
X043704Y035626D02*
X044333Y035626D01*
X044333Y036626D02*
X043704Y036626D01*
X043704Y037626D02*
X044333Y037626D01*
X044333Y038626D02*
X043704Y038626D01*
X043704Y039626D02*
X044333Y039626D01*
X044333Y040626D02*
X043704Y040626D01*
X043704Y041626D02*
X044333Y041626D01*
X044333Y042626D02*
X043704Y042626D01*
X043704Y043626D02*
X044333Y043626D01*
X044333Y044626D02*
X043704Y044626D01*
X043704Y045626D02*
X044333Y045626D01*
X044333Y046626D02*
X043704Y046626D01*
D13*
X047643Y047751D03*
X055831Y041251D03*
X056268Y038063D03*
X052893Y038001D03*
X058768Y029626D03*
X060143Y029626D03*
X061893Y029251D03*
X062393Y028376D03*
X062268Y026876D03*
X061268Y027001D03*
X060268Y027251D03*
X057393Y028501D03*
X056268Y028501D03*
X055143Y028501D03*
X053268Y025751D03*
X052143Y025751D03*
X051268Y028001D03*
X045643Y026251D03*
X043018Y026376D03*
X041768Y026501D03*
X039768Y025126D03*
X039143Y026751D03*
X041268Y029001D03*
X044268Y030001D03*
X038268Y031501D03*
X036268Y032751D03*
X034643Y030126D03*
X031643Y026751D03*
X034143Y025626D03*
X033393Y024751D03*
X035081Y021501D03*
X038643Y021626D03*
X038643Y018001D03*
X035081Y017501D03*
X033393Y013876D03*
X034768Y012626D03*
X033518Y012001D03*
X032768Y011376D03*
X035643Y010751D03*
X033518Y008626D03*
X039393Y007626D03*
X039893Y009001D03*
X039268Y013876D03*
X045018Y015001D03*
X044643Y018001D03*
X045143Y018876D03*
X056893Y013251D03*
X055893Y010126D03*
X061393Y012626D03*
X064393Y012626D03*
X067143Y012626D03*
X069518Y013251D03*
X069518Y016626D03*
X069518Y019126D03*
X065143Y022876D03*
X064018Y022626D03*
X067518Y023751D03*
X070643Y023301D03*
X072643Y023876D03*
X070643Y025201D03*
X069018Y030626D03*
X070143Y033001D03*
X069893Y034126D03*
X068643Y034126D03*
X067768Y033376D03*
X069268Y035001D03*
X071018Y035001D03*
X072143Y035001D03*
X073956Y034938D03*
X077643Y033701D03*
X077643Y031801D03*
X077893Y036876D03*
X078393Y038626D03*
X077018Y041001D03*
X077768Y042001D03*
X065268Y037501D03*
X064018Y038001D03*
X064268Y039501D03*
X064268Y043501D03*
X064018Y034001D03*
X063268Y029626D03*
X033143Y035626D03*
X024393Y046001D03*
X019143Y034251D03*
X018893Y023126D03*
X019768Y021626D03*
X016768Y021376D03*
X016518Y019001D03*
X019518Y016626D03*
X020268Y015001D03*
X016393Y010751D03*
X024768Y008501D03*
X025143Y011501D03*
D14*
X055893Y011126D03*
X057893Y013251D03*
X062393Y012626D03*
X065393Y012626D03*
X068143Y012626D03*
X070518Y013251D03*
X071643Y023876D03*
X070018Y028626D03*
X069018Y028626D03*
X069018Y029626D03*
X070018Y029626D03*
X070018Y030626D03*
X071143Y033001D03*
X066143Y031751D03*
X065143Y031751D03*
X065143Y030751D03*
X066143Y030751D03*
X066143Y029751D03*
X065143Y029751D03*
X065143Y028751D03*
X066143Y028751D03*
X066143Y027751D03*
X065143Y027751D03*
D15*
X019107Y009456D03*
X019107Y008472D03*
X018280Y008472D03*
X017257Y008472D03*
X016430Y008472D03*
X016430Y009456D03*
D16*
X017768Y006976D03*
D17*
X058893Y045376D03*
X058893Y046376D03*
X058893Y047376D03*
X060893Y047376D03*
X060893Y046376D03*
X060893Y045376D03*
X062893Y045376D03*
X062893Y046376D03*
X062893Y047376D03*
X064893Y047376D03*
X064893Y046376D03*
X064893Y045376D03*
D18*
X065143Y011418D02*
X065143Y010583D01*
X066643Y010583D02*
X066643Y011418D01*
X068143Y011418D02*
X068143Y010583D01*
X067393Y009418D02*
X067393Y008583D01*
X065893Y008583D02*
X065893Y009418D01*
X064393Y009418D02*
X064393Y008583D01*
X062893Y008583D02*
X062893Y009418D01*
X061393Y009418D02*
X061393Y008583D01*
X059893Y008583D02*
X059893Y009418D01*
X058393Y009418D02*
X058393Y008583D01*
X057643Y010583D02*
X057643Y011418D01*
X059143Y011418D02*
X059143Y010583D01*
X060643Y010583D02*
X060643Y011418D01*
X062143Y011418D02*
X062143Y010583D01*
X063643Y010583D02*
X063643Y011418D01*
X068893Y009418D02*
X068893Y008583D01*
X070393Y008583D02*
X070393Y009418D01*
X069643Y010583D02*
X069643Y011418D01*
X071143Y011418D02*
X071143Y010583D01*
X071893Y009418D02*
X071893Y008583D01*
X072643Y010583D02*
X072643Y011418D01*
D19*
X076093Y036626D03*
X076093Y042126D03*
X066093Y036626D03*
X065393Y042126D03*
D20*
X066993Y035826D03*
X067993Y035826D03*
X068993Y035826D03*
X069993Y035826D03*
X070993Y035826D03*
X071993Y035826D03*
X072993Y035826D03*
X073993Y035826D03*
X074593Y035826D03*
X075093Y035826D03*
X075593Y035826D03*
D21*
X072126Y020126D02*
X071411Y020126D01*
X071411Y019126D02*
X072126Y019126D01*
X072126Y018126D02*
X071411Y018126D01*
X075643Y011983D02*
X075643Y011268D01*
X076643Y011268D02*
X076643Y011983D01*
X077643Y011983D02*
X077643Y011268D01*
D22*
X061893Y022126D03*
X060893Y022126D03*
X059893Y022126D03*
X058893Y022126D03*
X057893Y022126D03*
X056893Y022126D03*
X055893Y022126D03*
X055893Y025126D03*
X056893Y025126D03*
X057893Y025126D03*
X058893Y025126D03*
X059893Y025126D03*
X060893Y025126D03*
X061893Y025126D03*
D23*
X050268Y009219D03*
X051351Y008235D03*
X050268Y007251D03*
D24*
X077018Y036212D03*
X077018Y037039D03*
X077018Y037712D03*
X077018Y038539D03*
D25*
X077018Y039252D03*
X077018Y040000D03*
X077768Y035750D03*
X077768Y035002D03*
D26*
X016643Y005626D02*
X015393Y006876D01*
X015393Y010751D01*
X016393Y010751D01*
X015393Y010751D02*
X015393Y042251D01*
X020393Y047251D01*
X020393Y048126D01*
X020643Y048376D01*
X022018Y048376D01*
X022768Y047626D01*
X020518Y039126D02*
X020143Y039126D01*
X019643Y038626D01*
X018268Y037251D01*
X018268Y031694D01*
X020147Y029815D01*
X020268Y032626D02*
X019143Y033751D01*
X019143Y034251D01*
X020268Y032626D02*
X021393Y032626D01*
X029147Y026815D02*
X029832Y026815D01*
X031518Y028501D01*
X031518Y032626D01*
X031143Y033001D01*
X031143Y037251D01*
X030518Y037876D01*
X030518Y038573D01*
X030566Y038621D01*
X036265Y038622D02*
X036265Y033626D01*
X036268Y032751D01*
X029147Y026815D02*
X029397Y025755D01*
X029393Y021501D01*
X029393Y017501D01*
X029393Y011251D01*
X021393Y006501D02*
X020018Y005626D01*
X016643Y005626D01*
X029393Y017501D02*
X031268Y017501D01*
X029393Y021501D02*
X027393Y021501D01*
X047643Y016501D02*
X048768Y016501D01*
X050268Y015001D01*
X051393Y015001D01*
X049518Y014501D02*
X048518Y015501D01*
X047643Y015501D01*
X049518Y014501D02*
X049518Y010501D01*
X050268Y009751D01*
X050268Y009219D01*
X048768Y008751D02*
X048768Y012001D01*
X048581Y012188D01*
X048768Y008751D02*
X050268Y007251D01*
X058768Y016126D02*
X059268Y016126D01*
X062893Y019751D01*
X066893Y019751D01*
X067393Y020251D01*
X067393Y021001D01*
X076093Y036626D02*
X076093Y036876D01*
X065871Y037501D02*
X065268Y037501D01*
D27*
X065998Y037373D02*
X066093Y036626D01*
X065998Y037373D02*
X065935Y037873D01*
X065932Y037896D01*
X065393Y042126D01*
X072893Y042126D01*
X076093Y042126D01*
X076093Y040801D01*
X076093Y039176D02*
X076093Y037751D01*
X076093Y036876D01*
X065393Y042126D02*
X062268Y042126D01*
X056268Y043126D02*
X055643Y044126D01*
X051268Y044126D01*
X050518Y044126D01*
X048018Y046626D01*
X047018Y046626D01*
X045772Y047622D01*
X039265Y047622D01*
X033566Y047621D02*
X030566Y047621D01*
X027393Y045626D02*
X026143Y045626D01*
X024143Y047626D01*
X022768Y047626D01*
X022768Y039376D01*
X022518Y039126D01*
X051268Y043126D02*
X051268Y044126D01*
X073893Y014251D02*
X077893Y014251D01*
D28*
X078643Y013251D02*
X079393Y014001D01*
X079393Y036501D01*
X077643Y038251D01*
X077643Y039251D01*
X078893Y040501D01*
X078893Y042376D01*
X076643Y044626D01*
X067768Y044626D01*
X066893Y045501D01*
X066893Y047001D01*
X065768Y048126D01*
X060393Y048126D01*
X060143Y047876D01*
X060143Y046251D01*
X059893Y046001D01*
X059893Y044126D01*
X060268Y043751D01*
X060268Y043126D01*
X059268Y042126D02*
X059393Y041751D01*
X059643Y041501D01*
X060143Y041376D01*
X060518Y041001D01*
X060518Y039876D01*
X060768Y039626D01*
X060018Y040626D02*
X060018Y038126D01*
X059518Y037376D01*
X062268Y037126D02*
X062518Y037126D01*
X063018Y036626D01*
X063018Y035001D01*
X064018Y034001D01*
X064768Y033626D02*
X064768Y034376D01*
X063518Y035626D01*
X063518Y037001D01*
X062393Y038126D01*
X062268Y038126D01*
X065393Y036626D02*
X066093Y036626D01*
X065393Y036626D02*
X065393Y035001D01*
X066518Y035001D01*
X065393Y035001D02*
X065393Y032626D01*
X065518Y032626D01*
X066143Y032001D01*
X066143Y031751D01*
X067018Y032001D02*
X067768Y033376D01*
X067893Y032251D02*
X069143Y032251D01*
X069893Y032251D01*
X070768Y031376D01*
X070768Y030001D01*
X070018Y029626D01*
X069018Y029626D02*
X068518Y029626D01*
X068143Y029251D01*
X068143Y026251D01*
X066893Y025001D01*
X065018Y025001D01*
X062893Y023251D01*
X051393Y023251D01*
X049643Y025001D01*
X049643Y025751D01*
X048643Y026751D01*
X046768Y026751D01*
X046268Y026251D01*
X046268Y021751D01*
X043518Y019001D01*
X043518Y017501D01*
X044143Y016876D01*
X044393Y016876D01*
X045768Y015501D01*
X045768Y014626D01*
X045518Y014376D01*
X044518Y014376D01*
X044143Y014751D01*
X044143Y015501D01*
X043018Y016626D01*
X042643Y017501D01*
X042643Y018126D01*
X042268Y018501D01*
X041643Y018501D01*
X041643Y019501D02*
X042143Y019501D01*
X044893Y022251D01*
X044893Y026751D01*
X045393Y027251D01*
X048768Y027251D01*
X050143Y025876D01*
X050143Y025126D01*
X051643Y023626D01*
X062643Y023626D01*
X064893Y025501D01*
X066643Y025501D01*
X067768Y026626D01*
X067768Y030126D01*
X068268Y030626D01*
X069018Y030626D01*
X067393Y031751D02*
X067893Y032251D01*
X067393Y031751D02*
X067393Y027001D01*
X066393Y026001D01*
X064768Y026001D01*
X062393Y024001D01*
X052018Y024001D01*
X050643Y025376D01*
X050643Y026126D01*
X049018Y027751D01*
X044893Y027751D01*
X044268Y027126D01*
X044268Y022501D01*
X042268Y020501D01*
X041643Y020501D01*
X041643Y021501D02*
X042518Y021501D01*
X043768Y022751D01*
X043768Y027626D01*
X044393Y028251D01*
X049143Y028251D01*
X051143Y026251D01*
X051143Y025626D01*
X052268Y024501D01*
X062268Y024501D01*
X064643Y026501D01*
X066143Y026501D01*
X067018Y027376D01*
X067018Y032001D01*
X065393Y032626D02*
X064643Y032626D01*
X064268Y032251D01*
X064268Y027251D01*
X064518Y027001D01*
X065768Y027001D01*
X066143Y027376D01*
X066143Y027751D01*
X063768Y026626D02*
X063768Y029376D01*
X063268Y029626D01*
X062518Y029501D02*
X062518Y029876D01*
X063643Y031126D01*
X063643Y032501D01*
X064768Y033626D01*
X063018Y034376D02*
X063018Y031751D01*
X061643Y030376D01*
X059768Y030376D01*
X058768Y029626D01*
X059018Y028876D02*
X060143Y029626D01*
X059893Y028876D02*
X061893Y028626D01*
X062393Y028376D01*
X062643Y027751D02*
X062143Y027751D01*
X061268Y028376D01*
X060018Y028376D01*
X058393Y027876D01*
X055518Y027876D01*
X055143Y028501D01*
X055143Y030626D01*
X055268Y031126D01*
X054268Y031126D02*
X054268Y027751D01*
X054643Y027501D01*
X059143Y027501D01*
X059893Y027876D01*
X061268Y027876D01*
X062268Y027126D01*
X062268Y026876D01*
X062643Y026251D02*
X063393Y027001D01*
X063393Y028626D01*
X062518Y029501D01*
X062393Y029251D02*
X061893Y029251D01*
X062393Y029251D02*
X063018Y028626D01*
X063018Y028126D01*
X062643Y027751D01*
X063768Y026626D02*
X063018Y025876D01*
X054518Y025876D01*
X053893Y025001D01*
X052518Y025001D01*
X052143Y025751D01*
X053268Y025751D02*
X053768Y026251D01*
X062643Y026251D01*
X060268Y027126D02*
X060268Y027251D01*
X060268Y027126D02*
X054518Y027126D01*
X053268Y028001D01*
X053268Y031126D01*
X052268Y031126D02*
X052268Y029001D01*
X051268Y028001D01*
X052768Y027751D02*
X054018Y026751D01*
X059518Y026751D01*
X059143Y028501D02*
X059893Y028876D01*
X059143Y028501D02*
X057393Y028501D01*
X057393Y028751D01*
X056268Y029501D01*
X056268Y031126D01*
X055768Y030251D02*
X055768Y028876D01*
X056268Y028501D01*
X057768Y029501D02*
X058393Y028876D01*
X059018Y028876D01*
X057768Y029501D02*
X057768Y030751D01*
X062768Y034626D02*
X063018Y034376D01*
X065998Y037373D02*
X065871Y037501D01*
X065911Y037626D02*
X065932Y037896D01*
X065935Y037873D02*
X066062Y038001D01*
X067993Y036726D02*
X071393Y040126D01*
X076892Y040126D01*
X077018Y040000D01*
X077018Y039252D02*
X077018Y038539D01*
X076093Y037751D02*
X076068Y037776D01*
X074143Y037776D01*
X072993Y036626D01*
X072993Y035826D01*
X072993Y033851D01*
X072143Y033001D01*
X071143Y033001D01*
X071893Y032251D01*
X071893Y029751D01*
X070018Y028626D01*
X068893Y028501D02*
X068893Y026251D01*
X067018Y024376D01*
X065018Y024376D01*
X063143Y022876D01*
X051018Y022876D01*
X049143Y024751D01*
X049143Y025501D01*
X048393Y026251D01*
X046893Y026251D01*
X046643Y026001D01*
X046643Y021376D01*
X043893Y018626D01*
X043893Y017751D01*
X044393Y017251D01*
X044643Y017251D01*
X046268Y015626D01*
X046268Y014376D01*
X045893Y014001D01*
X044268Y014001D01*
X043643Y014626D01*
X043643Y015376D01*
X042518Y016501D01*
X042518Y016751D01*
X042268Y017251D01*
X042018Y017501D01*
X041643Y017501D01*
X041643Y016501D02*
X041893Y016501D01*
X043143Y015251D01*
X043143Y014376D01*
X044018Y013501D01*
X046018Y013501D01*
X046643Y014126D01*
X046643Y015251D01*
X046893Y015501D01*
X047643Y015501D01*
X049768Y016626D02*
X048018Y018501D01*
X047643Y018501D01*
X046643Y018501D01*
X046143Y018001D01*
X044643Y018001D01*
X045143Y018876D02*
X046018Y018876D01*
X046643Y019501D01*
X047643Y019501D01*
X047893Y019501D01*
X050143Y017126D01*
X058018Y017126D01*
X060393Y019501D01*
X060393Y021001D01*
X059393Y021001D02*
X059393Y019251D01*
X057768Y017626D01*
X050518Y017626D01*
X048143Y020376D01*
X047643Y020501D01*
X048143Y021251D02*
X047643Y021501D01*
X048143Y021251D02*
X050643Y018126D01*
X057518Y018126D01*
X058393Y019001D01*
X058393Y021001D01*
X057393Y021001D02*
X057393Y018876D01*
X057143Y018626D01*
X050893Y018626D01*
X047893Y022501D01*
X047643Y022501D01*
X047643Y023501D02*
X048018Y023501D01*
X048643Y022876D01*
X048643Y022376D01*
X051018Y019126D01*
X055893Y019126D01*
X056393Y019626D01*
X056393Y021001D01*
X055393Y021001D02*
X055393Y020126D01*
X054893Y019626D01*
X051268Y019626D01*
X049143Y022376D01*
X049143Y023376D01*
X048018Y024501D01*
X047643Y024501D01*
X047643Y025501D02*
X048268Y025501D01*
X048643Y025126D01*
X048643Y024626D01*
X051143Y022001D01*
X054018Y022001D01*
X054393Y021626D01*
X054393Y021001D01*
X051393Y016126D02*
X051393Y015001D01*
X051393Y016126D02*
X058768Y016126D01*
X058393Y016626D02*
X061393Y019626D01*
X061393Y021001D01*
X062893Y021876D02*
X067268Y021876D01*
X067393Y021001D01*
X067643Y022876D02*
X065143Y022876D01*
X064393Y022251D02*
X071643Y022251D01*
X072893Y021001D01*
X072893Y020126D01*
X073268Y019751D01*
X073268Y019251D02*
X072893Y018876D01*
X072893Y017751D01*
X072393Y017251D01*
X070394Y017251D01*
X069518Y018127D01*
X069518Y019126D01*
X069518Y016626D02*
X070643Y016626D01*
X071768Y015501D01*
X071768Y014501D01*
X073018Y013251D01*
X078643Y013251D01*
X077893Y019251D02*
X075143Y019251D01*
X074643Y019751D01*
X073893Y019251D02*
X073268Y019251D01*
X076518Y020626D02*
X076893Y020251D01*
X077893Y020251D01*
X076518Y020626D02*
X076518Y025001D01*
X075643Y025876D01*
X073268Y025876D01*
X071643Y024251D01*
X071643Y023876D01*
X070768Y024251D02*
X071893Y025376D01*
X071893Y026751D01*
X071893Y028501D02*
X072393Y028501D01*
X072893Y029001D01*
X072893Y029751D01*
X071893Y028501D02*
X067643Y024251D01*
X067518Y023751D01*
X067643Y022876D02*
X069018Y024251D01*
X070768Y024251D01*
X064393Y022251D02*
X064018Y022626D01*
X058393Y016626D02*
X049768Y016626D01*
X048643Y013001D02*
X048643Y012251D01*
X048581Y012188D01*
X048393Y012001D01*
X048268Y012001D01*
X048268Y013001D02*
X048643Y013001D01*
X047018Y013001D02*
X046643Y013001D01*
X046643Y012126D01*
X046768Y012001D01*
X047018Y012001D01*
X046643Y013001D02*
X043768Y013001D01*
X042643Y014126D01*
X042643Y014876D01*
X042018Y015501D01*
X041643Y015501D01*
X040331Y014688D02*
X040206Y014938D01*
X040206Y022438D01*
X040768Y023001D01*
X040893Y023501D02*
X040643Y023751D01*
X040643Y025376D01*
X040143Y025876D01*
X039393Y025876D01*
X038893Y025376D01*
X038893Y023251D01*
X039393Y022751D01*
X039393Y015251D01*
X038643Y014501D01*
X038643Y009626D01*
X038018Y009001D01*
X037893Y009001D01*
X037268Y009501D02*
X037018Y009501D01*
X036643Y010001D02*
X035268Y010001D01*
X034393Y010876D01*
X034393Y012001D01*
X034018Y012501D01*
X034018Y012876D01*
X034518Y013376D01*
X034518Y015876D01*
X033956Y016438D01*
X033956Y022563D01*
X034893Y023501D01*
X034893Y026001D01*
X033393Y027501D01*
X033393Y035376D01*
X033143Y035626D01*
X032268Y035126D02*
X032768Y034626D01*
X032768Y025626D01*
X032643Y025501D01*
X032643Y013501D01*
X032768Y013376D01*
X032768Y011376D01*
X032018Y011001D02*
X032518Y010501D01*
X034143Y010501D01*
X035643Y009001D01*
X036643Y009001D01*
X035893Y008001D02*
X033893Y010001D01*
X032018Y010001D01*
X032393Y009501D02*
X033643Y009501D01*
X035768Y007376D01*
X037268Y007501D01*
X037893Y007001D02*
X038518Y006376D01*
X040268Y006376D01*
X040893Y007001D01*
X040643Y007501D02*
X040018Y006876D01*
X038768Y006876D01*
X038268Y007376D01*
X038268Y007751D01*
X038018Y008001D01*
X039018Y008001D02*
X039393Y007626D01*
X039018Y008001D02*
X039018Y009251D01*
X039268Y009501D01*
X039268Y013876D01*
X039768Y013313D02*
X039768Y009126D01*
X039893Y009001D01*
X040643Y010126D02*
X040643Y007501D01*
X042393Y007001D02*
X043143Y007001D01*
X045643Y009501D01*
X047643Y009501D01*
X047643Y008501D02*
X045893Y008501D01*
X043268Y005876D01*
X030643Y005876D01*
X030393Y006126D01*
X030393Y007001D01*
X030893Y007501D01*
X031268Y007501D01*
X031268Y006501D02*
X031393Y006376D01*
X033518Y006376D01*
X033518Y008626D01*
X032393Y009501D02*
X031893Y009001D01*
X031268Y008501D02*
X030768Y008501D01*
X030018Y007251D01*
X030018Y005876D01*
X030518Y005376D01*
X044018Y005376D01*
X046143Y007501D01*
X047643Y007501D01*
X041643Y010501D02*
X041018Y010501D01*
X040643Y010126D01*
X041018Y011501D02*
X041643Y011501D01*
X041018Y011501D02*
X040331Y012188D01*
X040331Y014688D01*
X039956Y014251D02*
X039768Y014563D01*
X039768Y025126D01*
X040893Y023501D02*
X041643Y023501D01*
X042143Y023001D02*
X042268Y023001D01*
X042643Y023376D01*
X042643Y025751D01*
X041768Y026501D01*
X043018Y026376D02*
X043143Y026251D01*
X043143Y022751D01*
X042393Y022001D01*
X042268Y022001D01*
X041018Y022001D02*
X040706Y021688D01*
X040706Y013813D01*
X041018Y013501D01*
X041643Y013501D01*
X039956Y013501D02*
X039956Y014251D01*
X039956Y013501D02*
X039768Y013313D01*
X038143Y015251D02*
X037893Y015501D01*
X037268Y015501D01*
X038143Y015251D02*
X038143Y010251D01*
X037893Y010001D01*
X037268Y010501D02*
X036768Y010626D01*
X035893Y011501D01*
X035893Y016376D01*
X036018Y016501D01*
X036018Y026501D01*
X040768Y031251D01*
X041393Y031251D01*
X043018Y032876D01*
X044643Y032876D01*
X045018Y033251D01*
X045018Y036126D01*
X046018Y037126D01*
X046643Y037126D01*
X046393Y036126D02*
X046143Y036126D01*
X045518Y035501D01*
X045518Y033001D01*
X044893Y032376D01*
X043268Y032376D01*
X041643Y030751D01*
X041018Y030751D01*
X036393Y026126D01*
X036393Y011751D01*
X036643Y011501D01*
X037268Y011501D01*
X035643Y010751D02*
X035518Y010876D01*
X035518Y016876D01*
X035768Y017126D01*
X035018Y016376D02*
X034393Y017001D01*
X034393Y022126D01*
X035268Y023001D01*
X035268Y026501D01*
X033893Y027876D01*
X033893Y031251D01*
X034393Y031751D01*
X036518Y031751D01*
X037518Y032751D01*
X037518Y042126D01*
X037022Y042622D01*
X036265Y042622D01*
X036265Y041622D02*
X035758Y041622D01*
X035262Y041126D01*
X032643Y041126D01*
X032268Y040751D01*
X032268Y035126D01*
X031768Y034751D02*
X031768Y043251D01*
X031393Y043626D01*
X030571Y043626D01*
X030566Y043621D01*
X028393Y043376D02*
X028393Y032251D01*
X028018Y031876D02*
X027143Y031876D01*
X026643Y031376D01*
X026643Y030376D01*
X025643Y030376D02*
X025643Y033626D01*
X026643Y034626D01*
X027393Y034626D01*
X027393Y035626D02*
X026643Y035626D01*
X024643Y033626D01*
X024643Y030376D01*
X023893Y031001D02*
X023893Y033876D01*
X026643Y036626D01*
X027393Y036626D01*
X027393Y037626D02*
X026643Y037626D01*
X026268Y038001D01*
X026268Y043751D01*
X026643Y044126D01*
X028143Y044126D01*
X028393Y044376D01*
X028393Y045876D01*
X028143Y046126D01*
X026518Y046126D01*
X026143Y046501D01*
X026143Y047876D01*
X026768Y048501D01*
X048143Y048501D01*
X048643Y048001D01*
X054268Y048001D01*
X057768Y044501D01*
X057768Y043501D01*
X056768Y043501D02*
X056768Y044626D01*
X054018Y047376D01*
X048018Y047376D01*
X047643Y047751D01*
X052331Y041438D02*
X055018Y041438D01*
X055831Y041251D01*
X056206Y040501D02*
X056768Y041063D01*
X056768Y041688D01*
X057768Y041751D02*
X057768Y040751D01*
X056268Y039251D01*
X056268Y038063D01*
X056206Y040501D02*
X053268Y040501D01*
X052893Y040126D01*
X052893Y038001D01*
X051893Y040751D02*
X051893Y041001D01*
X052331Y041438D01*
X046393Y039126D02*
X044643Y039126D01*
X043268Y039126D02*
X042768Y039126D01*
X042143Y038501D01*
X042143Y033501D01*
X040893Y032251D01*
X040143Y032251D01*
X038643Y030751D01*
X035268Y030751D01*
X034643Y030126D01*
X032268Y027376D02*
X032268Y034251D01*
X031768Y034751D01*
X030393Y036751D02*
X030393Y032251D01*
X030643Y032001D01*
X030643Y029001D01*
X029518Y027876D01*
X027893Y027876D01*
X027643Y027626D01*
X027268Y028376D02*
X026643Y027751D01*
X026643Y027501D01*
X026147Y026815D02*
X026143Y026811D01*
X026143Y025501D01*
X024893Y024251D01*
X024893Y017501D01*
X026393Y016001D01*
X026393Y016501D02*
X025268Y017626D01*
X025268Y023626D01*
X026643Y025001D01*
X026643Y026001D01*
X027143Y026811D02*
X027147Y026815D01*
X027143Y026811D02*
X027143Y024626D01*
X025643Y023126D01*
X025643Y017876D01*
X026518Y017001D01*
X026643Y017001D01*
X026518Y017501D02*
X026018Y018001D01*
X026018Y022626D01*
X027643Y024251D01*
X027643Y026126D01*
X028143Y026811D02*
X028147Y026815D01*
X028143Y026811D02*
X028143Y023751D01*
X026518Y022126D01*
X026518Y020751D01*
X026768Y020501D01*
X027393Y020501D01*
X027393Y019501D02*
X026893Y019501D01*
X026393Y019001D01*
X026393Y018376D01*
X026768Y018001D01*
X026518Y017501D02*
X027393Y017501D01*
X028018Y018001D02*
X028143Y018001D01*
X028393Y017751D01*
X028393Y017251D01*
X028143Y017001D01*
X028018Y017001D01*
X028768Y016751D02*
X028768Y018001D01*
X028268Y018501D01*
X027393Y018501D01*
X027393Y016501D02*
X026393Y016501D01*
X028018Y016001D02*
X028768Y016751D01*
X030518Y019501D02*
X030143Y019876D01*
X030143Y025876D01*
X031018Y026751D01*
X031643Y026751D01*
X032268Y027376D02*
X032393Y027251D01*
X032393Y026251D01*
X032206Y026063D01*
X032206Y012813D01*
X031893Y012501D01*
X031268Y012501D01*
X030643Y011001D02*
X029768Y010126D01*
X029768Y009001D01*
X029643Y008876D01*
X030143Y009001D02*
X030143Y009751D01*
X030393Y010001D01*
X030518Y010001D01*
X028768Y010376D02*
X028768Y009001D01*
X028018Y008001D01*
X026893Y008001D02*
X026768Y008001D01*
X026518Y007751D01*
X026518Y007251D01*
X026768Y007001D01*
X026893Y007001D01*
X026143Y006501D02*
X026768Y005876D01*
X028143Y005876D01*
X028518Y006251D01*
X030143Y009001D01*
X030643Y009001D02*
X030268Y008501D01*
X028643Y005501D01*
X026393Y005501D01*
X025643Y006251D01*
X025643Y007001D01*
X021945Y007001D01*
X020768Y007001D02*
X020518Y007001D01*
X020268Y007251D01*
X020268Y009876D01*
X019018Y011126D01*
X019018Y012126D01*
X018268Y012876D01*
X018268Y015126D01*
X017518Y015876D01*
X017518Y022126D01*
X017143Y022501D01*
X017143Y038001D01*
X019768Y040626D01*
X021393Y040626D01*
X021393Y039626D02*
X019643Y039626D01*
X017643Y037626D01*
X017643Y022876D01*
X018018Y022501D01*
X018018Y016126D01*
X018643Y015501D01*
X018643Y013251D01*
X019643Y012251D01*
X019643Y011251D01*
X020393Y010501D01*
X021393Y010501D01*
X020768Y011001D02*
X020643Y011001D01*
X020143Y011501D01*
X020143Y012501D01*
X019018Y013626D01*
X019018Y015876D01*
X018518Y016376D01*
X018518Y022751D01*
X018893Y023126D01*
X019768Y022751D02*
X019768Y025876D01*
X019393Y026251D01*
X019393Y027751D01*
X020643Y029001D01*
X020643Y029126D01*
X021147Y029815D02*
X021143Y029819D01*
X021143Y030126D01*
X022893Y031876D01*
X022893Y034751D01*
X024393Y036251D01*
X024393Y046001D01*
X026268Y044626D02*
X027393Y044626D01*
X027393Y043626D02*
X028143Y043626D01*
X028393Y043376D01*
X026268Y044626D02*
X025018Y043376D01*
X025018Y036001D01*
X023393Y034376D01*
X023393Y031501D01*
X022643Y030751D01*
X022643Y030626D01*
X023643Y030751D02*
X023893Y031001D01*
X023643Y030751D02*
X023643Y030501D01*
X022643Y029001D02*
X022268Y028626D01*
X021518Y028626D01*
X020643Y027751D01*
X020643Y027501D01*
X021147Y026815D02*
X021143Y026811D01*
X021393Y025876D01*
X021393Y021501D01*
X021393Y020501D02*
X022018Y020501D01*
X022393Y020876D01*
X022393Y022751D01*
X022143Y023001D01*
X022143Y026811D01*
X022147Y026815D01*
X023147Y026815D02*
X023147Y026130D01*
X022893Y025876D01*
X022893Y020376D01*
X022018Y019501D01*
X021393Y019501D01*
X021393Y018501D02*
X021893Y018501D01*
X023393Y020001D01*
X023393Y025376D01*
X024143Y026126D01*
X024143Y026811D01*
X024147Y026815D01*
X024143Y026819D01*
X024143Y027626D01*
X025643Y029126D01*
X025643Y029251D01*
X026643Y029251D02*
X024643Y027501D01*
X025643Y027626D02*
X027018Y028876D01*
X028393Y028876D01*
X028643Y029126D01*
X029018Y028376D02*
X027268Y028376D01*
X029018Y028376D02*
X030143Y029501D01*
X030143Y031376D01*
X029643Y031876D01*
X029643Y036626D01*
X029143Y037126D01*
X029143Y039871D01*
X029893Y040621D01*
X030566Y040621D01*
X028893Y040751D02*
X028768Y040501D01*
X028768Y036751D01*
X029018Y036501D01*
X029018Y031626D01*
X028643Y031251D01*
X028643Y030501D01*
X025643Y026001D02*
X024393Y024751D01*
X024393Y013626D01*
X026518Y011501D01*
X027393Y011501D01*
X026768Y011001D02*
X025643Y011001D01*
X025143Y011501D01*
X025018Y010501D02*
X023893Y011626D01*
X023893Y025126D01*
X024643Y025876D01*
X024643Y026126D01*
X020643Y026126D02*
X020643Y022501D01*
X019768Y021626D01*
X019018Y022001D02*
X019768Y022751D01*
X019018Y022001D02*
X019018Y021251D01*
X019768Y020501D01*
X019768Y018376D01*
X020643Y017501D01*
X021393Y017501D01*
X019518Y016626D02*
X019518Y013876D01*
X020893Y012501D01*
X021393Y012501D01*
X021393Y011501D02*
X022268Y011501D01*
X022518Y011751D01*
X022518Y014751D01*
X022268Y015001D01*
X022018Y015001D01*
X022268Y011001D02*
X022518Y010751D01*
X022518Y009751D01*
X022268Y009501D01*
X021393Y009501D01*
X024768Y009001D02*
X024768Y008501D01*
X024768Y009001D02*
X025768Y010001D01*
X026768Y010001D01*
X026143Y009501D02*
X025643Y009001D01*
X025643Y007001D01*
X026143Y006501D02*
X026143Y008626D01*
X026518Y009001D01*
X026768Y009001D01*
X026143Y009501D02*
X027393Y009501D01*
X027393Y010501D02*
X025018Y010501D01*
X028018Y011001D02*
X028143Y011001D01*
X028768Y010376D01*
X031893Y011001D02*
X032018Y011001D01*
X033518Y012001D02*
X033518Y013001D01*
X034143Y013626D01*
X034143Y015001D01*
X033518Y015626D01*
X033518Y023001D01*
X034143Y023626D01*
X034143Y025626D01*
X033393Y024751D02*
X033393Y023751D01*
X033081Y023438D01*
X033081Y014938D01*
X033268Y014376D01*
X033393Y013876D01*
X035018Y013126D02*
X035018Y016376D01*
X038643Y018001D02*
X038643Y021626D01*
X038268Y022251D02*
X038268Y027126D01*
X041393Y030251D01*
X041893Y030251D01*
X043518Y031876D01*
X045143Y031876D01*
X046018Y032751D01*
X046018Y034876D01*
X046268Y035126D01*
X046393Y035126D01*
X047393Y032626D02*
X049393Y034626D01*
X049143Y033626D02*
X047643Y032126D01*
X046893Y032126D01*
X045643Y030876D01*
X044018Y030876D01*
X042768Y029626D01*
X042768Y029376D01*
X041518Y028126D01*
X040518Y028126D01*
X039143Y026751D01*
X041268Y029001D02*
X042018Y029751D01*
X042143Y029751D01*
X043768Y031376D01*
X045393Y031376D01*
X046643Y032626D01*
X047393Y032626D01*
X047143Y031626D02*
X045893Y030376D01*
X044643Y030376D01*
X044268Y030001D01*
X047143Y031626D02*
X047893Y031626D01*
X048893Y032626D01*
X049893Y032626D01*
X049768Y033626D02*
X049143Y033626D01*
X052768Y030251D02*
X052768Y027751D01*
X045643Y026251D02*
X045643Y022126D01*
X043143Y019626D01*
X043143Y017251D01*
X045018Y015376D01*
X045018Y015001D01*
X038268Y022251D02*
X037268Y021501D01*
X031268Y019501D02*
X030518Y019501D01*
X035018Y013126D02*
X034768Y012626D01*
X036518Y007001D02*
X035893Y006376D01*
X033518Y006376D01*
X016518Y019001D02*
X016518Y020376D01*
X016143Y020751D01*
X016143Y042001D01*
X020768Y046626D01*
X021393Y046626D01*
X021393Y044626D02*
X020768Y044626D01*
X016643Y040501D01*
X016643Y021501D01*
X016768Y021376D01*
X020643Y030501D02*
X022393Y032251D01*
X022393Y034376D01*
X022143Y034626D01*
X021393Y034626D01*
X022143Y038126D02*
X020143Y038126D01*
X019643Y038626D01*
X022018Y039126D02*
X022518Y039126D01*
X022518Y038501D01*
X022143Y038126D01*
X028893Y040751D02*
X028893Y046001D01*
X028268Y046626D01*
X027393Y046626D01*
X030018Y039621D02*
X029643Y039246D01*
X029643Y037501D01*
X030018Y039621D02*
X030566Y039621D01*
X039518Y037001D02*
X039518Y032751D01*
X038268Y031501D01*
X040393Y031751D02*
X035643Y027001D01*
X035643Y026751D01*
X040393Y031751D02*
X041143Y031751D01*
X042643Y033251D01*
X042643Y037751D01*
X043018Y038126D01*
X043268Y038126D01*
X041018Y037626D02*
X040143Y037626D01*
X039518Y037001D01*
X058768Y041501D02*
X060018Y040626D01*
X058768Y041501D02*
X058768Y041751D01*
X062018Y045126D02*
X062893Y044251D01*
X064643Y044251D01*
X065518Y043376D01*
X076393Y043376D01*
X076893Y042876D01*
X076893Y041126D01*
X077018Y041001D01*
X077768Y042001D02*
X077768Y042751D01*
X076518Y044001D01*
X065643Y044001D01*
X064893Y044751D01*
X064268Y044751D01*
X063893Y045126D01*
X063893Y045876D01*
X063393Y046376D01*
X062893Y046376D01*
X062018Y045876D02*
X062018Y045126D01*
X062018Y045876D02*
X061518Y046376D01*
X060893Y046376D01*
X059643Y046876D02*
X059643Y048126D01*
X060018Y048501D01*
X066268Y048501D01*
X067643Y047126D01*
X067643Y045751D01*
X068143Y045251D01*
X076893Y045251D01*
X079518Y042626D01*
X079518Y039876D01*
X078393Y038626D01*
X077018Y037712D02*
X077018Y037251D01*
X077143Y037126D01*
X077643Y037126D01*
X077893Y036876D01*
X077018Y037039D02*
X077018Y037251D01*
X076143Y036576D02*
X076093Y036626D01*
X076143Y036576D02*
X076143Y035751D01*
X076892Y035002D01*
X077768Y035002D01*
X078643Y034127D01*
X078643Y026376D01*
X069143Y032251D02*
X069143Y033376D01*
X069893Y034126D01*
X068643Y034126D02*
X068143Y034626D01*
X067993Y034901D01*
X067993Y035826D01*
X067993Y036726D01*
X068993Y035826D02*
X068993Y035401D01*
X069268Y035001D01*
X069993Y035826D02*
X069993Y036626D01*
X072993Y036626D01*
X071993Y035826D02*
X071993Y035401D01*
X072143Y035001D01*
X071018Y035001D02*
X070993Y035276D01*
X070993Y035826D01*
X073993Y035826D02*
X073993Y035401D01*
X073956Y034938D01*
X077018Y036212D02*
X077481Y035750D01*
X077768Y035750D01*
X072993Y042026D02*
X072893Y042126D01*
X059643Y046876D02*
X059143Y046376D01*
X058893Y046376D01*
D29*
X029393Y011251D02*
X029268Y010876D01*
X029268Y009001D01*
X028268Y007501D01*
X027393Y007501D01*
D30*
X026893Y008001D02*
X028018Y008001D01*
X028143Y009001D02*
X028393Y009251D01*
X028393Y009751D01*
X028143Y010001D01*
X026768Y010001D01*
X026768Y011001D02*
X028018Y011001D01*
X030518Y010001D02*
X032018Y010001D01*
X031893Y011001D02*
X030643Y011001D01*
X030643Y009001D02*
X031893Y009001D01*
X029643Y008876D02*
X028518Y007001D01*
X026893Y007001D01*
X026768Y009001D02*
X028143Y009001D01*
X022268Y011001D02*
X020768Y011001D01*
X020768Y007001D02*
X021945Y007001D01*
X022018Y015001D02*
X020268Y015001D01*
X026393Y016001D02*
X028018Y016001D01*
X028018Y017001D02*
X026643Y017001D01*
X026768Y018001D02*
X028018Y018001D01*
X035643Y017876D02*
X035768Y017751D01*
X035768Y017126D01*
X035643Y017876D02*
X035643Y020876D01*
X035768Y021001D01*
X035768Y021751D01*
X035643Y021876D01*
X035643Y026751D01*
X040768Y023001D02*
X042143Y023001D01*
X042268Y022001D02*
X041018Y022001D01*
X052768Y030251D02*
X052768Y031626D01*
X053268Y032126D01*
X051893Y032813D02*
X051643Y032626D01*
X049893Y032626D01*
X049768Y033626D02*
X051768Y033626D01*
X052268Y033126D01*
X059456Y033251D01*
X060893Y034626D01*
X061518Y034626D01*
X062268Y035126D01*
X062018Y034626D02*
X061268Y034126D01*
X061893Y033626D02*
X060518Y033626D01*
X059706Y032813D01*
X051893Y032813D01*
X052768Y033501D02*
X051643Y034626D01*
X049393Y034626D01*
X048393Y035126D02*
X046393Y035126D01*
X046393Y036126D02*
X048393Y036126D01*
X048893Y036626D01*
X053206Y036626D01*
X053643Y036876D01*
X058831Y036876D01*
X059143Y036626D01*
X061768Y036626D01*
X062268Y037126D01*
X061268Y038126D02*
X060768Y038126D01*
X060018Y037126D01*
X052331Y037126D01*
X051581Y037626D01*
X048893Y037626D01*
X048393Y037126D01*
X046643Y037126D01*
X046393Y039126D02*
X047893Y039126D01*
X049393Y040626D01*
X051768Y040626D01*
X051893Y040751D01*
X051768Y038626D02*
X048893Y038626D01*
X048393Y038126D01*
X043268Y038126D01*
X043268Y039126D02*
X044643Y039126D01*
X048393Y035126D02*
X048893Y035626D01*
X051643Y035626D01*
X053393Y033876D01*
X058893Y033876D01*
X060143Y035126D01*
X060143Y035751D01*
X060518Y036126D01*
X061268Y036126D01*
X060643Y035626D02*
X060518Y035501D01*
X060518Y034876D01*
X059143Y033501D01*
X052768Y033501D01*
X055768Y031626D02*
X055768Y030251D01*
X055768Y031626D02*
X056268Y032126D01*
X057768Y031626D02*
X057768Y030751D01*
X057768Y031626D02*
X058268Y032126D01*
X061893Y033626D02*
X062268Y034126D01*
X062018Y034626D02*
X062768Y034626D01*
X061893Y035626D02*
X060643Y035626D01*
X061893Y035626D02*
X062268Y036126D01*
X059518Y037376D02*
X052518Y037376D01*
X051768Y038626D01*
X056768Y041688D02*
X056768Y043501D01*
X057768Y043501D02*
X057768Y041751D01*
X058768Y041751D02*
X058768Y042376D01*
X059268Y043126D01*
X060768Y039626D02*
X061768Y039626D01*
X062268Y039126D01*
X061393Y027126D02*
X060768Y026626D01*
X059768Y026626D01*
X059518Y026751D01*
X061268Y027001D02*
X061393Y027126D01*
X061893Y022126D02*
X062643Y022126D01*
X062893Y021876D01*
X073268Y019751D02*
X074643Y019751D01*
X048268Y013001D02*
X047018Y013001D01*
X047018Y012001D02*
X048268Y012001D01*
X042393Y007001D02*
X040893Y007001D01*
X038018Y008001D02*
X035893Y008001D01*
X036518Y007001D02*
X037893Y007001D01*
X037893Y009001D02*
X036643Y009001D01*
X036643Y010001D02*
X037893Y010001D01*
X027643Y026126D02*
X027643Y027626D01*
X026643Y027501D02*
X026643Y026001D01*
X025643Y026001D02*
X025643Y027626D01*
X024643Y027501D02*
X024643Y026126D01*
X023518Y027876D02*
X022518Y027876D01*
X022143Y027501D01*
X022143Y026819D01*
X022147Y026815D01*
X022143Y026311D01*
X021147Y026815D02*
X021143Y026819D01*
X021143Y027501D01*
X021893Y028251D01*
X023018Y028251D01*
X023643Y028876D01*
X023643Y030501D01*
X022643Y030626D02*
X022643Y029001D01*
X023518Y027876D02*
X024643Y029001D01*
X024643Y030376D01*
X025643Y030376D02*
X025643Y029251D01*
X026643Y029251D02*
X026643Y030376D01*
X028643Y030501D02*
X028643Y029126D01*
X028018Y031876D02*
X028393Y032251D01*
X030393Y036751D02*
X029643Y037501D01*
X022018Y039126D02*
X020518Y039126D01*
X030561Y043626D02*
X030566Y043621D01*
X020643Y030501D02*
X020643Y029126D01*
X020643Y027501D02*
X020643Y026126D01*
D31*
X016893Y014376D03*
X036143Y029376D03*
X017518Y046376D03*
X056643Y047626D03*
X078268Y046376D03*
X051518Y011751D03*
X085518Y010876D03*
M02*
