G75*
G70*
%OFA0B0*%
%FSLAX24Y24*%
%IPPOS*%
%LPD*%
%AMOC8*
5,1,8,0,0,1.08239X$1,22.5*
%
%ADD10C,0.0160*%
%ADD11C,0.0240*%
%ADD12C,0.0051*%
%ADD13C,0.0110*%
%ADD14C,0.0080*%
%ADD15C,0.0050*%
%ADD16C,0.0010*%
%ADD17C,0.0060*%
%ADD18C,0.0070*%
%ADD19C,0.0320*%
%ADD20C,0.0120*%
%ADD21C,0.0040*%
%ADD22R,0.0240X0.0340*%
%ADD23R,0.0200X0.1000*%
%ADD24R,0.0200X0.0200*%
%ADD25C,0.0100*%
%ADD26R,0.0118X0.0827*%
%ADD27R,0.1000X0.0200*%
%ADD28C,0.0020*%
%ADD29C,0.0025*%
%ADD30C,0.0098*%
%ADD31R,0.0551X0.0256*%
%ADD32R,0.0290X0.0690*%
%ADD33R,0.0571X0.0295*%
%ADD34C,0.0000*%
D10*
X026095Y017038D02*
X025220Y018413D01*
X026095Y017038D02*
X027345Y017038D01*
X028720Y016163D01*
X024970Y022100D02*
X024970Y023100D01*
X019970Y020538D02*
X019470Y020163D01*
X015845Y020163D01*
X015095Y021913D01*
D11*
X017220Y018725D02*
X017220Y018325D01*
X017220Y015125D02*
X017220Y014725D01*
X016970Y013225D02*
X016970Y012825D01*
X016970Y009625D02*
X016970Y009225D01*
X004045Y019275D02*
X003345Y019275D01*
X003345Y021175D02*
X004045Y021175D01*
X011220Y027338D02*
X011920Y027338D01*
X011920Y029238D02*
X011220Y029238D01*
X032908Y019538D02*
X032908Y014413D01*
X046158Y031100D02*
X046158Y031500D01*
X046158Y034700D02*
X046158Y035100D01*
D12*
X000220Y003038D02*
X000220Y000126D01*
X000220Y000913D02*
X001244Y000811D01*
X001244Y000787D02*
X000220Y000913D01*
X001244Y001015D01*
X001244Y001039D02*
X001244Y000787D01*
X001244Y000862D02*
X000220Y000913D01*
X001244Y000964D01*
X001244Y001039D02*
X000220Y000913D01*
X066595Y000913D01*
X065571Y000811D01*
X065571Y000787D02*
X066595Y000913D01*
X065571Y001015D01*
X065571Y001039D02*
X065571Y000787D01*
X065571Y000862D02*
X066595Y000913D01*
X065571Y000964D01*
X065571Y001039D02*
X066595Y000913D01*
X066595Y000126D02*
X066595Y003038D01*
X067470Y003663D02*
X070257Y003663D01*
X069470Y003663D02*
X069572Y004687D01*
X069596Y004687D02*
X069470Y003663D01*
X069368Y004687D01*
X069344Y004687D02*
X069596Y004687D01*
X069521Y004687D02*
X069470Y003663D01*
X069419Y004687D01*
X069344Y004687D02*
X069470Y003663D01*
X069470Y047913D01*
X069572Y046889D01*
X069596Y046889D02*
X069470Y047913D01*
X069368Y046889D01*
X069344Y046889D02*
X069596Y046889D01*
X069521Y046889D02*
X069470Y047913D01*
X069419Y046889D01*
X069344Y046889D02*
X069470Y047913D01*
X070257Y047913D02*
X067220Y047913D01*
X066595Y048788D02*
X066595Y054450D01*
X066595Y053663D02*
X067619Y053765D01*
X067619Y053789D02*
X067619Y053537D01*
X066595Y053663D01*
X067619Y053561D01*
X067619Y053612D02*
X066595Y053663D01*
X067619Y053714D01*
X067619Y053789D02*
X066595Y053663D01*
X072552Y053663D01*
X071595Y047913D02*
X076132Y047913D01*
X075345Y047913D02*
X075447Y046889D01*
X075471Y046889D02*
X075345Y047913D01*
X075243Y046889D01*
X075219Y046889D02*
X075471Y046889D01*
X075396Y046889D02*
X075345Y047913D01*
X075294Y046889D01*
X075219Y046889D02*
X075345Y047913D01*
X075345Y040288D01*
X075447Y041312D01*
X075471Y041312D02*
X075345Y040288D01*
X075243Y041312D01*
X075219Y041312D02*
X075471Y041312D01*
X075396Y041312D02*
X075345Y040288D01*
X075294Y041312D01*
X075219Y041312D02*
X075345Y040288D01*
X076132Y040288D02*
X070595Y040288D01*
X060345Y049163D02*
X060345Y054450D01*
X060345Y053663D02*
X059321Y053561D01*
X059321Y053537D02*
X060345Y053663D01*
X059321Y053765D01*
X059321Y053789D02*
X059321Y053537D01*
X059321Y053612D02*
X060345Y053663D01*
X059321Y053714D01*
X059321Y053789D02*
X060345Y053663D01*
X058298Y053663D01*
D13*
X067674Y054112D02*
X068520Y054112D01*
X068097Y054112D02*
X068097Y055381D01*
X067674Y054958D01*
X068942Y054746D02*
X069365Y054958D01*
X069577Y054958D01*
X069788Y054746D01*
X069788Y054323D01*
X069577Y054112D01*
X069154Y054112D01*
X068942Y054323D01*
X068942Y054746D02*
X068942Y055381D01*
X069788Y055381D01*
X070846Y055169D02*
X070846Y054958D01*
X071057Y054746D01*
X071480Y054746D01*
X071692Y054535D01*
X071692Y054323D01*
X071480Y054112D01*
X071057Y054112D01*
X070846Y054323D01*
X070846Y054535D01*
X071057Y054746D01*
X071480Y054746D02*
X071692Y054958D01*
X071692Y055169D01*
X071480Y055381D01*
X071057Y055381D01*
X070846Y055169D01*
X070423Y054323D02*
X070423Y054112D01*
X070211Y054112D01*
X070211Y054323D01*
X070423Y054323D01*
X072114Y054323D02*
X072326Y054112D01*
X072749Y054112D01*
X072960Y054323D01*
X072960Y054535D01*
X072749Y054746D01*
X072326Y054746D01*
X072114Y054958D01*
X072114Y055169D01*
X072326Y055381D01*
X072749Y055381D01*
X072960Y055169D01*
X072960Y054958D01*
X072749Y054746D01*
X072326Y054746D02*
X072114Y054535D01*
X072114Y054323D01*
X073627Y046975D02*
X073839Y046975D01*
X074685Y046129D01*
X074896Y046129D01*
X074685Y045707D02*
X074896Y045495D01*
X074896Y045072D01*
X074685Y044861D01*
X074685Y044438D02*
X074896Y044438D01*
X074896Y044226D01*
X074685Y044226D01*
X074685Y044438D01*
X074685Y043803D02*
X073839Y043803D01*
X073627Y043592D01*
X073627Y043169D01*
X073839Y042957D01*
X074050Y042957D01*
X074262Y043169D01*
X074262Y043803D01*
X074685Y043803D02*
X074896Y043592D01*
X074896Y043169D01*
X074685Y042957D01*
X074896Y042535D02*
X074896Y041689D01*
X074896Y042112D02*
X073627Y042112D01*
X074050Y041689D01*
X073839Y044861D02*
X073627Y045072D01*
X073627Y045495D01*
X073839Y045707D01*
X074050Y045707D01*
X074262Y045495D01*
X074473Y045707D01*
X074685Y045707D01*
X074262Y045495D02*
X074262Y045284D01*
X073627Y046129D02*
X073627Y046975D01*
X068387Y028603D02*
X068387Y027757D01*
X067752Y028392D01*
X069021Y028392D01*
X069021Y027334D02*
X069021Y027123D01*
X068810Y027123D01*
X068810Y027334D01*
X069021Y027334D01*
X069021Y026700D02*
X069021Y025854D01*
X068175Y026700D01*
X067964Y026700D01*
X067752Y026488D01*
X067752Y026065D01*
X067964Y025854D01*
X069021Y025431D02*
X069021Y024585D01*
X069021Y024162D02*
X069021Y023316D01*
X069021Y023739D02*
X067752Y023739D01*
X068175Y023316D01*
X068175Y024585D02*
X067752Y025008D01*
X069021Y025008D01*
X037003Y002419D02*
X037003Y001573D01*
X036792Y001362D01*
X036368Y001362D01*
X036157Y001573D01*
X035734Y001573D02*
X035734Y001996D01*
X035523Y002208D01*
X035311Y002208D01*
X034888Y001996D01*
X034888Y002631D01*
X035734Y002631D01*
X036157Y002419D02*
X036157Y002208D01*
X036368Y001996D01*
X037003Y001996D01*
X037003Y002419D02*
X036792Y002631D01*
X036368Y002631D01*
X036157Y002419D01*
X035734Y001573D02*
X035523Y001362D01*
X035100Y001362D01*
X034888Y001573D01*
X034465Y001573D02*
X034465Y001362D01*
X034254Y001362D01*
X034254Y001573D01*
X034465Y001573D01*
X033831Y001573D02*
X033831Y001785D01*
X033620Y001996D01*
X033196Y001996D01*
X032985Y002208D01*
X032985Y002419D01*
X033196Y002631D01*
X033620Y002631D01*
X033831Y002419D01*
X033831Y002208D01*
X033620Y001996D01*
X033196Y001996D02*
X032985Y001785D01*
X032985Y001573D01*
X033196Y001362D01*
X033620Y001362D01*
X033831Y001573D01*
X032562Y001573D02*
X032562Y001785D01*
X032351Y001996D01*
X031716Y001996D01*
X031716Y001573D01*
X031928Y001362D01*
X032351Y001362D01*
X032562Y001573D01*
X032139Y002419D02*
X031716Y001996D01*
X032139Y002419D02*
X032562Y002631D01*
X030870Y002631D02*
X030870Y001362D01*
X030447Y001362D02*
X031293Y001362D01*
X030447Y002208D02*
X030870Y002631D01*
D14*
X061955Y039078D02*
X062095Y039078D01*
X062165Y039148D01*
X061955Y039078D02*
X061885Y039148D01*
X061885Y039428D01*
X061955Y039498D01*
X062095Y039498D01*
X062165Y039428D01*
X062885Y039498D02*
X062885Y039078D01*
X063095Y039078D01*
X063165Y039148D01*
X063165Y039428D01*
X063095Y039498D01*
X062885Y039498D01*
X063885Y039498D02*
X063885Y039218D01*
X064025Y039078D01*
X064165Y039218D01*
X064165Y039498D01*
X064885Y039428D02*
X064885Y039148D01*
X064955Y039078D01*
X065095Y039078D01*
X065165Y039148D01*
X065165Y039288D01*
X065025Y039288D01*
X064885Y039428D02*
X064955Y039498D01*
X065095Y039498D01*
X065165Y039428D01*
X066226Y042719D02*
X060714Y042719D01*
X060714Y047600D01*
X066226Y047600D01*
X066226Y042719D01*
X066226Y047207D02*
X060714Y047207D01*
D15*
X061195Y040513D02*
X061195Y040063D01*
X061045Y040063D02*
X061345Y040063D01*
X061045Y040363D02*
X061195Y040513D01*
X061295Y038663D02*
X060995Y038213D01*
X061295Y038213D02*
X060995Y038663D01*
X061455Y038588D02*
X061530Y038663D01*
X061681Y038663D01*
X061756Y038588D01*
X061756Y038513D01*
X061681Y038438D01*
X061756Y038363D01*
X061756Y038288D01*
X061681Y038213D01*
X061530Y038213D01*
X061455Y038288D01*
X061606Y038438D02*
X061681Y038438D01*
X061916Y038363D02*
X062141Y038363D01*
X062216Y038438D01*
X062216Y038588D01*
X062141Y038663D01*
X061916Y038663D01*
X061916Y038213D01*
X062745Y038213D02*
X062745Y038663D01*
X062820Y038438D02*
X063045Y038213D01*
X063205Y038213D02*
X063431Y038213D01*
X063506Y038288D01*
X063506Y038363D01*
X063431Y038438D01*
X063205Y038438D01*
X063205Y038213D02*
X063205Y038663D01*
X063431Y038663D01*
X063506Y038588D01*
X063506Y038513D01*
X063431Y038438D01*
X063045Y038663D02*
X062745Y038363D01*
X065595Y040288D02*
X065820Y040513D01*
X065820Y040063D01*
X065895Y040288D02*
X065595Y040288D01*
X046383Y034232D02*
X046232Y034007D01*
X046082Y034232D01*
X045932Y034007D02*
X046383Y034007D01*
X046307Y033847D02*
X046383Y033772D01*
X046383Y033622D01*
X046307Y033546D01*
X046007Y033847D01*
X046307Y033847D01*
X046007Y033847D02*
X045932Y033772D01*
X045932Y033622D01*
X046007Y033546D01*
X046307Y033546D01*
X046383Y033386D02*
X046383Y033086D01*
X046358Y033040D02*
X046358Y032740D01*
X046358Y032890D02*
X045907Y032890D01*
X046057Y032740D01*
X046057Y032580D02*
X045982Y032580D01*
X045907Y032505D01*
X045907Y032355D01*
X045982Y032280D01*
X045982Y032120D02*
X046132Y032120D01*
X046207Y032045D01*
X046207Y031819D01*
X046207Y031969D02*
X046358Y032120D01*
X046358Y032280D02*
X046057Y032580D01*
X046358Y032580D02*
X046358Y032280D01*
X045982Y032120D02*
X045907Y032045D01*
X045907Y031819D01*
X046358Y031819D01*
X046082Y033086D02*
X045932Y033236D01*
X046383Y033236D01*
X031954Y043507D02*
X031954Y048035D01*
X029986Y048035D01*
X029986Y043507D01*
X031954Y043507D01*
X028562Y042251D02*
X028487Y042176D01*
X028487Y041800D01*
X028251Y041800D02*
X028251Y042026D01*
X028176Y042101D01*
X028101Y042026D01*
X028101Y041800D01*
X027951Y041800D02*
X027951Y042101D01*
X028026Y042101D01*
X028101Y042026D01*
X028412Y042026D02*
X028562Y042026D01*
X027791Y042176D02*
X027491Y041876D01*
X027566Y041800D01*
X027716Y041800D01*
X027791Y041876D01*
X027791Y042176D01*
X027716Y042251D01*
X027566Y042251D01*
X027491Y042176D01*
X027491Y041876D01*
X027331Y041800D02*
X027030Y041800D01*
X027331Y042101D01*
X027331Y042176D01*
X027256Y042251D01*
X027105Y042251D01*
X027030Y042176D01*
X026870Y042176D02*
X026795Y042251D01*
X026645Y042251D01*
X026570Y042176D01*
X026870Y042176D02*
X026870Y042101D01*
X026570Y041800D01*
X026870Y041800D01*
X026980Y042500D02*
X027131Y042500D01*
X027206Y042576D01*
X027206Y042876D01*
X027131Y042951D01*
X026980Y042951D01*
X026905Y042876D01*
X026905Y042801D01*
X026980Y042726D01*
X027206Y042726D01*
X027366Y042651D02*
X027591Y042651D01*
X027666Y042726D01*
X027666Y042876D01*
X027591Y042951D01*
X027366Y042951D01*
X027366Y042500D01*
X026980Y042500D02*
X026905Y042576D01*
X026745Y042576D02*
X026670Y042500D01*
X026520Y042500D01*
X026445Y042576D01*
X026445Y042876D01*
X026520Y042951D01*
X026670Y042951D01*
X026745Y042876D01*
X026070Y040678D02*
X026370Y040528D01*
X026070Y040378D01*
X026070Y040217D02*
X026145Y040142D01*
X026220Y040217D01*
X026295Y040217D01*
X026370Y040142D01*
X026370Y039992D01*
X026295Y039917D01*
X026295Y039762D02*
X026370Y039762D01*
X026370Y039687D01*
X026295Y039687D01*
X026295Y039762D01*
X026295Y039527D02*
X026220Y039527D01*
X026145Y039452D01*
X026145Y039227D01*
X026295Y039227D01*
X026370Y039302D01*
X026370Y039452D01*
X026295Y039527D01*
X025995Y039377D02*
X026145Y039227D01*
X026070Y039066D02*
X026370Y038766D01*
X026370Y038534D02*
X025995Y038534D01*
X025920Y038609D01*
X026070Y038766D02*
X026370Y039066D01*
X025995Y039377D02*
X025920Y039527D01*
X025995Y039917D02*
X025920Y039992D01*
X025920Y040142D01*
X025995Y040217D01*
X026070Y040217D01*
X026145Y040142D02*
X026145Y040067D01*
X026145Y038609D02*
X026145Y038459D01*
X026145Y038299D02*
X026370Y038299D01*
X026370Y038149D02*
X026145Y038149D01*
X026070Y038224D01*
X026145Y038299D01*
X026145Y038149D02*
X026070Y038074D01*
X026070Y037999D01*
X026370Y037999D01*
X026295Y037839D02*
X026370Y037764D01*
X026370Y037614D01*
X026295Y037539D01*
X025995Y037839D01*
X026295Y037839D01*
X025995Y037839D02*
X025920Y037764D01*
X025920Y037614D01*
X025995Y037539D01*
X026295Y037539D01*
X026295Y037378D02*
X026370Y037303D01*
X026370Y037153D01*
X026295Y037078D01*
X025995Y037378D01*
X026295Y037378D01*
X026295Y037078D02*
X025995Y037078D01*
X025920Y037153D01*
X025920Y037303D01*
X025995Y037378D01*
X025995Y036918D02*
X025920Y036843D01*
X025920Y036693D01*
X025995Y036618D01*
X026295Y036618D01*
X025995Y036918D01*
X026295Y036918D01*
X026370Y036843D01*
X026370Y036693D01*
X026295Y036618D01*
X026370Y036458D02*
X026370Y036157D01*
X026370Y036307D02*
X025920Y036307D01*
X026070Y036157D01*
X028220Y037792D02*
X028295Y037717D01*
X028595Y037717D01*
X028670Y037792D01*
X028670Y037942D01*
X028595Y038017D01*
X028670Y038178D02*
X028670Y038478D01*
X028670Y038328D02*
X028220Y038328D01*
X028370Y038178D01*
X028295Y038017D02*
X028220Y037942D01*
X028220Y037792D01*
X022510Y038700D02*
X022510Y038926D01*
X022435Y039001D01*
X022360Y038926D01*
X022360Y038700D01*
X022210Y038700D02*
X022210Y039001D01*
X022285Y039001D01*
X022360Y038926D01*
X022049Y038700D02*
X021749Y038700D01*
X021899Y038700D02*
X021899Y039151D01*
X021749Y039001D01*
X021749Y039375D02*
X022049Y039676D01*
X022049Y039751D01*
X021974Y039826D01*
X021824Y039826D01*
X021749Y039751D01*
X021589Y039751D02*
X021514Y039826D01*
X021364Y039826D01*
X021289Y039751D01*
X021289Y039451D01*
X021364Y039375D01*
X021514Y039375D01*
X021589Y039451D01*
X021749Y039375D02*
X022049Y039375D01*
X022360Y039375D02*
X022360Y039601D01*
X022510Y039751D01*
X022510Y039826D01*
X022360Y039601D02*
X022210Y039751D01*
X022210Y039826D01*
X020933Y039846D02*
X020632Y039846D01*
X020632Y039921D01*
X020707Y039996D01*
X020632Y040071D01*
X020707Y040146D01*
X020933Y040146D01*
X020933Y039996D02*
X020707Y039996D01*
X020707Y040306D02*
X020707Y040456D01*
X020557Y040381D02*
X020933Y040381D01*
X020557Y040381D02*
X020482Y040456D01*
X020557Y039686D02*
X020857Y039385D01*
X020933Y039460D01*
X020933Y039610D01*
X020857Y039686D01*
X020557Y039686D01*
X020482Y039610D01*
X020482Y039460D01*
X020557Y039385D01*
X020857Y039385D01*
X020933Y039225D02*
X020933Y038925D01*
X020632Y039225D01*
X020557Y039225D01*
X020482Y039150D01*
X020482Y039000D01*
X020557Y038925D01*
X020557Y038765D02*
X020482Y038690D01*
X020482Y038540D01*
X020557Y038464D01*
X020557Y038765D02*
X020632Y038765D01*
X020933Y038464D01*
X020933Y038765D01*
X020010Y038726D02*
X019935Y038651D01*
X019710Y038651D01*
X019710Y038500D02*
X019710Y038951D01*
X019935Y038951D01*
X020010Y038876D01*
X020010Y038726D01*
X019549Y038801D02*
X019474Y038726D01*
X019324Y038726D01*
X019249Y038801D01*
X019249Y038876D01*
X019324Y038951D01*
X019474Y038951D01*
X019549Y038876D01*
X019549Y038801D01*
X019474Y038726D02*
X019549Y038651D01*
X019549Y038576D01*
X019474Y038500D01*
X019324Y038500D01*
X019249Y038576D01*
X019249Y038651D01*
X019324Y038726D01*
X019089Y038876D02*
X019014Y038951D01*
X018864Y038951D01*
X018789Y038876D01*
X018789Y038576D01*
X018864Y038500D01*
X019014Y038500D01*
X019089Y038576D01*
X017933Y038464D02*
X017632Y038765D01*
X017557Y038765D01*
X017482Y038690D01*
X017482Y038540D01*
X017557Y038464D01*
X017933Y038464D02*
X017933Y038765D01*
X017933Y038925D02*
X017632Y039225D01*
X017557Y039225D01*
X017482Y039150D01*
X017482Y039000D01*
X017557Y038925D01*
X017933Y038925D02*
X017933Y039225D01*
X017857Y039385D02*
X017557Y039686D01*
X017857Y039686D01*
X017933Y039610D01*
X017933Y039460D01*
X017857Y039385D01*
X017557Y039385D01*
X017482Y039460D01*
X017482Y039610D01*
X017557Y039686D01*
X017632Y039846D02*
X017632Y039921D01*
X017707Y039996D01*
X017632Y040071D01*
X017707Y040146D01*
X017933Y040146D01*
X017933Y039996D02*
X017707Y039996D01*
X017632Y039846D02*
X017933Y039846D01*
X017707Y040306D02*
X017707Y040456D01*
X017557Y040381D02*
X017482Y040456D01*
X017557Y040381D02*
X017933Y040381D01*
X016985Y038951D02*
X016985Y038500D01*
X016835Y038500D02*
X017135Y038500D01*
X016835Y038801D02*
X016985Y038951D01*
X016674Y038876D02*
X016674Y038726D01*
X016599Y038651D01*
X016374Y038651D01*
X016374Y038500D02*
X016374Y038951D01*
X016599Y038951D01*
X016674Y038876D01*
X016214Y038876D02*
X016214Y038801D01*
X016139Y038726D01*
X015989Y038726D01*
X015914Y038801D01*
X015914Y038876D01*
X015989Y038951D01*
X016139Y038951D01*
X016214Y038876D01*
X016139Y038726D02*
X016214Y038651D01*
X016214Y038576D01*
X016139Y038500D01*
X015989Y038500D01*
X015914Y038576D01*
X015914Y038651D01*
X015989Y038726D01*
X015754Y038876D02*
X015679Y038951D01*
X015528Y038951D01*
X015453Y038876D01*
X015453Y038576D01*
X015528Y038500D01*
X015679Y038500D01*
X015754Y038576D01*
X015183Y038464D02*
X014882Y038765D01*
X014807Y038765D01*
X014732Y038690D01*
X014732Y038540D01*
X014807Y038464D01*
X015183Y038464D02*
X015183Y038765D01*
X015183Y038925D02*
X014882Y039225D01*
X014807Y039225D01*
X014732Y039150D01*
X014732Y039000D01*
X014807Y038925D01*
X015183Y038925D02*
X015183Y039225D01*
X015107Y039385D02*
X014807Y039686D01*
X015107Y039686D01*
X015183Y039610D01*
X015183Y039460D01*
X015107Y039385D01*
X014807Y039385D01*
X014732Y039460D01*
X014732Y039610D01*
X014807Y039686D01*
X014882Y039846D02*
X014882Y039921D01*
X014957Y039996D01*
X014882Y040071D01*
X014957Y040146D01*
X015183Y040146D01*
X015183Y039996D02*
X014957Y039996D01*
X014882Y039846D02*
X015183Y039846D01*
X014957Y040306D02*
X014957Y040456D01*
X014807Y040381D02*
X014732Y040456D01*
X014807Y040381D02*
X015183Y040381D01*
X014185Y038951D02*
X014035Y038951D01*
X013960Y038876D01*
X013799Y038876D02*
X013799Y038726D01*
X013724Y038651D01*
X013499Y038651D01*
X013499Y038500D02*
X013499Y038951D01*
X013724Y038951D01*
X013799Y038876D01*
X014185Y038951D02*
X014260Y038876D01*
X014260Y038801D01*
X013960Y038500D01*
X014260Y038500D01*
X013339Y038576D02*
X013339Y038651D01*
X013264Y038726D01*
X013114Y038726D01*
X013039Y038801D01*
X013039Y038876D01*
X013114Y038951D01*
X013264Y038951D01*
X013339Y038876D01*
X013339Y038801D01*
X013264Y038726D01*
X013114Y038726D02*
X013039Y038651D01*
X013039Y038576D01*
X013114Y038500D01*
X013264Y038500D01*
X013339Y038576D01*
X012879Y038576D02*
X012804Y038500D01*
X012653Y038500D01*
X012578Y038576D01*
X012578Y038876D01*
X012653Y038951D01*
X012804Y038951D01*
X012879Y038876D01*
X009635Y039325D02*
X009635Y039551D01*
X009560Y039626D01*
X009485Y039551D01*
X009485Y039325D01*
X009335Y039325D02*
X009335Y039626D01*
X009410Y039626D01*
X009485Y039551D01*
X009485Y039875D02*
X009485Y040101D01*
X009635Y040251D01*
X009635Y040326D01*
X009485Y040101D02*
X009335Y040251D01*
X009335Y040326D01*
X009024Y040326D02*
X009024Y039875D01*
X009024Y039776D02*
X009024Y039325D01*
X008874Y039325D02*
X009174Y039325D01*
X008874Y039626D02*
X009024Y039776D01*
X008874Y039875D02*
X009174Y039875D01*
X008874Y040176D02*
X009024Y040326D01*
X008714Y040251D02*
X008639Y040326D01*
X008489Y040326D01*
X008414Y040251D01*
X008414Y039951D01*
X008489Y039875D01*
X008639Y039875D01*
X008714Y039951D01*
X006460Y041375D02*
X006160Y041375D01*
X006310Y041375D02*
X006310Y041826D01*
X006160Y041676D01*
X005085Y042475D02*
X004785Y042475D01*
X005085Y042776D01*
X005085Y042851D01*
X005010Y042926D01*
X004860Y042926D01*
X004785Y042851D01*
X004624Y042851D02*
X004624Y042701D01*
X004549Y042626D01*
X004324Y042626D01*
X004324Y042475D02*
X004324Y042926D01*
X004549Y042926D01*
X004624Y042851D01*
X004164Y042926D02*
X004014Y042926D01*
X004089Y042926D02*
X004089Y042551D01*
X004014Y042475D01*
X003939Y042475D01*
X003864Y042551D01*
X007810Y044150D02*
X008110Y044150D01*
X007960Y044150D02*
X007960Y044601D01*
X007810Y044451D01*
X002385Y039013D02*
X002085Y039013D01*
X002385Y039013D02*
X002385Y038938D01*
X002085Y038638D01*
X002085Y038563D01*
X001924Y038563D02*
X001624Y038563D01*
X001774Y038563D02*
X001774Y039013D01*
X001624Y038863D01*
X001464Y038938D02*
X001389Y039013D01*
X001239Y039013D01*
X001164Y038938D01*
X001164Y038638D01*
X001239Y038563D01*
X001389Y038563D01*
X001464Y038638D01*
X001392Y038213D02*
X001542Y038213D01*
X001618Y038138D01*
X001317Y037838D01*
X001392Y037763D01*
X001542Y037763D01*
X001618Y037838D01*
X001618Y038138D01*
X001778Y038063D02*
X001853Y038063D01*
X001928Y037988D01*
X002003Y038063D01*
X002078Y037988D01*
X002078Y037763D01*
X001928Y037763D02*
X001928Y037988D01*
X001778Y038063D02*
X001778Y037763D01*
X001317Y037838D02*
X001317Y038138D01*
X001392Y038213D01*
X001157Y038138D02*
X001082Y038213D01*
X000932Y038213D01*
X000857Y038138D01*
X000697Y038138D02*
X000697Y038063D01*
X000396Y037763D01*
X000697Y037763D01*
X000857Y037763D02*
X001157Y038063D01*
X001157Y038138D01*
X001157Y037763D02*
X000857Y037763D01*
X000697Y038138D02*
X000622Y038213D01*
X000472Y038213D01*
X000396Y038138D01*
X002238Y037988D02*
X002388Y037988D01*
X002313Y038138D02*
X002313Y037763D01*
X002313Y038138D02*
X002388Y038213D01*
X008764Y034926D02*
X008914Y034926D01*
X008839Y034926D02*
X008839Y034551D01*
X008764Y034475D01*
X008689Y034475D01*
X008614Y034551D01*
X009074Y034626D02*
X009299Y034626D01*
X009374Y034701D01*
X009374Y034851D01*
X009299Y034926D01*
X009074Y034926D01*
X009074Y034475D01*
X009535Y034475D02*
X009835Y034475D01*
X009685Y034475D02*
X009685Y034926D01*
X009535Y034776D01*
X009695Y034090D02*
X009695Y033790D01*
X009695Y033940D02*
X009245Y033940D01*
X009395Y033790D01*
X012695Y030038D02*
X012995Y030038D01*
X012995Y029963D01*
X012695Y029663D01*
X012695Y029588D01*
X012995Y029588D01*
X013155Y029588D02*
X013456Y029888D01*
X013456Y029963D01*
X013381Y030038D01*
X013230Y030038D01*
X013155Y029963D01*
X013155Y029588D02*
X013456Y029588D01*
X013541Y027513D02*
X013391Y027438D01*
X013241Y027288D01*
X013466Y027288D01*
X013541Y027213D01*
X013541Y027138D01*
X013466Y027063D01*
X013316Y027063D01*
X013241Y027138D01*
X013241Y027288D01*
X013081Y027213D02*
X013081Y027138D01*
X013006Y027063D01*
X012855Y027063D01*
X012780Y027138D01*
X012780Y027213D01*
X012855Y027288D01*
X013006Y027288D01*
X013081Y027213D01*
X013006Y027288D02*
X013081Y027363D01*
X013081Y027438D01*
X013006Y027513D01*
X012855Y027513D01*
X012780Y027438D01*
X012780Y027363D01*
X012855Y027288D01*
X012620Y027213D02*
X012620Y027138D01*
X012545Y027063D01*
X012395Y027063D01*
X012320Y027138D01*
X012320Y027213D01*
X012395Y027288D01*
X012545Y027288D01*
X012620Y027213D01*
X012545Y027288D02*
X012620Y027363D01*
X012620Y027438D01*
X012545Y027513D01*
X012395Y027513D01*
X012320Y027438D01*
X012320Y027363D01*
X012395Y027288D01*
X013701Y027138D02*
X013701Y027063D01*
X013701Y027138D02*
X014001Y027438D01*
X014001Y027513D01*
X013701Y027513D01*
X014162Y027138D02*
X014237Y027138D01*
X014237Y027063D01*
X014162Y027063D01*
X014162Y027138D01*
X014392Y027063D02*
X014692Y027363D01*
X014692Y027438D01*
X014617Y027513D01*
X014467Y027513D01*
X014392Y027438D01*
X014392Y027063D02*
X014692Y027063D01*
X014852Y027138D02*
X014927Y027063D01*
X015077Y027063D01*
X015152Y027138D01*
X015152Y027213D01*
X015077Y027288D01*
X015002Y027288D01*
X015077Y027288D02*
X015152Y027363D01*
X015152Y027438D01*
X015077Y027513D01*
X014927Y027513D01*
X014852Y027438D01*
X015313Y027438D02*
X015388Y027513D01*
X015538Y027513D01*
X015613Y027438D01*
X015613Y027363D01*
X015313Y027063D01*
X015613Y027063D01*
X015773Y027063D02*
X015773Y027513D01*
X015848Y027288D02*
X016073Y027063D01*
X016233Y027063D02*
X016233Y027513D01*
X016073Y027513D02*
X015773Y027213D01*
X016233Y027288D02*
X016534Y027288D01*
X016694Y027363D02*
X016994Y027363D01*
X016694Y027063D01*
X016994Y027063D01*
X016534Y027063D02*
X016534Y027513D01*
X017615Y027063D02*
X017915Y027513D01*
X018535Y027288D02*
X018836Y027288D01*
X018996Y027138D02*
X019071Y027138D01*
X019071Y027063D01*
X018996Y027063D01*
X018996Y027138D01*
X019226Y027138D02*
X019301Y027138D01*
X019301Y027063D01*
X019226Y027063D01*
X019226Y027138D01*
X019456Y027063D02*
X019756Y027363D01*
X019756Y027438D01*
X019681Y027513D01*
X019531Y027513D01*
X019456Y027438D01*
X019456Y027063D02*
X019756Y027063D01*
X019916Y027138D02*
X020217Y027438D01*
X020217Y027138D01*
X020142Y027063D01*
X019992Y027063D01*
X019916Y027138D01*
X019916Y027438D01*
X019992Y027513D01*
X020142Y027513D01*
X020217Y027438D01*
X020377Y027363D02*
X020602Y027363D01*
X020677Y027288D01*
X020677Y027138D01*
X020602Y027063D01*
X020377Y027063D01*
X020377Y026913D02*
X020377Y027363D01*
X020837Y027288D02*
X020987Y027288D01*
X020912Y027438D02*
X020912Y027063D01*
X020912Y027438D02*
X020987Y027513D01*
X022608Y026913D02*
X022608Y026463D01*
X022833Y026463D01*
X022908Y026538D01*
X022908Y026838D01*
X022833Y026913D01*
X022608Y026913D01*
X023068Y026913D02*
X023068Y026463D01*
X023293Y026463D01*
X023368Y026538D01*
X023368Y026838D01*
X023293Y026913D01*
X023068Y026913D01*
X023528Y026763D02*
X023678Y026913D01*
X023678Y026463D01*
X023528Y026463D02*
X023829Y026463D01*
X023989Y026463D02*
X024289Y026763D01*
X024289Y026838D01*
X024214Y026913D01*
X024064Y026913D01*
X023989Y026838D01*
X023989Y026463D02*
X024289Y026463D01*
X024199Y026201D02*
X024274Y026126D01*
X024274Y026051D01*
X024124Y025901D01*
X024124Y025826D02*
X024124Y025750D01*
X024435Y025750D02*
X024735Y026051D01*
X024735Y026126D01*
X024660Y026201D01*
X024510Y026201D01*
X024435Y026126D01*
X024199Y026201D02*
X024049Y026201D01*
X023974Y026126D01*
X023814Y026126D02*
X023814Y026051D01*
X023664Y025901D01*
X023664Y025826D02*
X023664Y025750D01*
X023354Y025826D02*
X023279Y025750D01*
X023128Y025750D01*
X023053Y025826D01*
X023053Y025976D02*
X023204Y026051D01*
X023279Y026051D01*
X023354Y025976D01*
X023354Y025826D01*
X023053Y025976D02*
X023053Y026201D01*
X023354Y026201D01*
X023514Y026126D02*
X023589Y026201D01*
X023739Y026201D01*
X023814Y026126D01*
X024435Y025750D02*
X024735Y025750D01*
X022893Y025826D02*
X022818Y025750D01*
X022668Y025750D01*
X022593Y025826D01*
X022593Y025976D02*
X022743Y026051D01*
X022818Y026051D01*
X022893Y025976D01*
X022893Y025826D01*
X022593Y025976D02*
X022593Y026201D01*
X022893Y026201D01*
X022283Y026201D02*
X022283Y025750D01*
X022133Y025750D02*
X022433Y025750D01*
X022133Y026051D02*
X022283Y026201D01*
X021973Y026126D02*
X021973Y026051D01*
X021822Y025901D01*
X021822Y025826D02*
X021822Y025750D01*
X021672Y026126D02*
X021747Y026201D01*
X021897Y026201D01*
X021973Y026126D01*
X021301Y025213D02*
X021226Y025213D01*
X021076Y025063D01*
X021076Y024913D02*
X021076Y025213D01*
X020916Y025138D02*
X020841Y025213D01*
X020691Y025213D01*
X020616Y025138D01*
X020616Y024988D01*
X020691Y024913D01*
X020841Y024913D01*
X020916Y025063D02*
X020616Y025063D01*
X020459Y024913D02*
X020384Y024988D01*
X020384Y025288D01*
X020309Y025213D02*
X020459Y025213D01*
X020149Y025213D02*
X019923Y025213D01*
X019848Y025138D01*
X019923Y025063D01*
X020074Y025063D01*
X020149Y024988D01*
X020074Y024913D01*
X019848Y024913D01*
X019688Y024913D02*
X019463Y024913D01*
X019388Y024988D01*
X019463Y025063D01*
X019688Y025063D01*
X019688Y025138D02*
X019688Y024913D01*
X019688Y025138D02*
X019613Y025213D01*
X019463Y025213D01*
X019156Y025363D02*
X019156Y024913D01*
X019081Y024913D02*
X019231Y024913D01*
X018921Y024988D02*
X018846Y024913D01*
X018621Y024913D01*
X018621Y025363D01*
X018846Y025363D01*
X018921Y025288D01*
X018921Y025213D01*
X018846Y025138D01*
X018621Y025138D01*
X018460Y025138D02*
X018460Y025063D01*
X018160Y025063D01*
X018160Y024988D02*
X018160Y025138D01*
X018235Y025213D01*
X018385Y025213D01*
X018460Y025138D01*
X018385Y024913D02*
X018235Y024913D01*
X018160Y024988D01*
X018003Y024913D02*
X017928Y024988D01*
X017928Y025288D01*
X017853Y025213D02*
X018003Y025213D01*
X017693Y025213D02*
X017693Y024838D01*
X017618Y024763D01*
X017543Y024763D01*
X017468Y024913D02*
X017693Y024913D01*
X017468Y024913D02*
X017393Y024988D01*
X017393Y025213D01*
X017233Y025213D02*
X017158Y025138D01*
X016933Y025138D01*
X017158Y025138D02*
X017233Y025063D01*
X017233Y024988D01*
X017158Y024913D01*
X016933Y024913D01*
X016933Y025363D01*
X017158Y025363D01*
X017233Y025288D01*
X017233Y025213D01*
X017295Y025650D02*
X016995Y026101D01*
X017295Y026101D02*
X016995Y025650D01*
X017455Y025726D02*
X017530Y025650D01*
X017681Y025650D01*
X017756Y025726D01*
X017756Y025876D01*
X017681Y025951D01*
X017606Y025951D01*
X017455Y025876D01*
X017455Y026101D01*
X017756Y026101D01*
X018760Y027063D02*
X018760Y027513D01*
X018535Y027288D01*
X019081Y025363D02*
X019156Y025363D01*
X018921Y025063D02*
X018921Y024988D01*
X018921Y025063D02*
X018846Y025138D01*
X020916Y025138D02*
X020916Y025063D01*
X020306Y022736D02*
X020306Y022125D01*
X020103Y022125D02*
X020510Y022125D01*
X020103Y022533D02*
X020306Y022736D01*
X019699Y022736D02*
X019699Y022125D01*
X019902Y022125D02*
X019495Y022125D01*
X019495Y022533D02*
X019699Y022736D01*
X018720Y022850D02*
X017720Y021850D01*
X017720Y009100D01*
X018097Y009625D02*
X017995Y009727D01*
X018097Y009625D02*
X018300Y009625D01*
X018402Y009727D01*
X018402Y009829D01*
X018300Y009931D01*
X018199Y009931D01*
X018300Y009931D02*
X018402Y010033D01*
X018402Y010134D01*
X018300Y010236D01*
X018097Y010236D01*
X017995Y010134D01*
X018603Y010134D02*
X018704Y010236D01*
X018908Y010236D01*
X019010Y010134D01*
X019010Y010033D01*
X018603Y009625D01*
X019010Y009625D01*
X019085Y009201D02*
X018881Y009201D01*
X018780Y009099D01*
X018983Y008896D02*
X019085Y008896D01*
X019187Y008794D01*
X019187Y008692D01*
X019085Y008590D01*
X018881Y008590D01*
X018780Y008692D01*
X019085Y008896D02*
X019187Y008998D01*
X019187Y009099D01*
X019085Y009201D01*
X019387Y009099D02*
X019489Y009201D01*
X019693Y009201D01*
X019794Y009099D01*
X019794Y008998D01*
X019693Y008896D01*
X019794Y008794D01*
X019794Y008692D01*
X019693Y008590D01*
X019489Y008590D01*
X019387Y008692D01*
X019591Y008896D02*
X019693Y008896D01*
X018470Y008350D02*
X018416Y008352D01*
X018363Y008358D01*
X018311Y008367D01*
X018259Y008380D01*
X018208Y008397D01*
X018158Y008418D01*
X018111Y008442D01*
X018065Y008469D01*
X018021Y008500D01*
X017979Y008533D01*
X017940Y008570D01*
X017903Y008609D01*
X017870Y008651D01*
X017839Y008695D01*
X017812Y008741D01*
X017788Y008788D01*
X017767Y008838D01*
X017750Y008889D01*
X017737Y008941D01*
X017728Y008993D01*
X017722Y009046D01*
X017720Y009100D01*
X017170Y010030D02*
X016720Y010030D01*
X016720Y010255D01*
X016795Y010330D01*
X016945Y010330D01*
X017020Y010255D01*
X017020Y010030D01*
X017020Y010180D02*
X017170Y010330D01*
X017170Y010490D02*
X017095Y010490D01*
X016795Y010790D01*
X016720Y010790D01*
X016720Y010490D01*
X016970Y011009D02*
X016970Y011310D01*
X017120Y011470D02*
X017195Y011470D01*
X017120Y011470D02*
X016820Y011770D01*
X016745Y011770D01*
X016745Y011470D01*
X016745Y011235D02*
X016970Y011009D01*
X017195Y011235D02*
X016745Y011235D01*
X016820Y011930D02*
X016745Y012005D01*
X016745Y012155D01*
X016820Y012230D01*
X017120Y011930D01*
X017195Y012005D01*
X017195Y012155D01*
X017120Y012230D01*
X016820Y012230D01*
X016820Y011930D02*
X017120Y011930D01*
X015645Y010200D02*
X015145Y010200D01*
X015145Y002400D01*
X005845Y002400D01*
X005845Y010200D01*
X015145Y010200D01*
X015645Y010200D02*
X015645Y013700D01*
X014945Y014600D01*
X014945Y016600D01*
X005345Y016600D01*
X005345Y010200D01*
X005845Y010200D01*
X005845Y007000D02*
X005845Y006800D01*
X008942Y014425D02*
X008942Y014876D01*
X009017Y014651D02*
X009242Y014425D01*
X009552Y014425D02*
X009552Y014876D01*
X009402Y014876D02*
X009702Y014876D01*
X009863Y014876D02*
X009863Y014651D01*
X010013Y014726D01*
X010088Y014726D01*
X010163Y014651D01*
X010163Y014501D01*
X010088Y014425D01*
X009938Y014425D01*
X009863Y014501D01*
X009863Y014876D02*
X010163Y014876D01*
X010323Y014801D02*
X010398Y014876D01*
X010548Y014876D01*
X010623Y014801D01*
X010323Y014501D01*
X010398Y014425D01*
X010548Y014425D01*
X010623Y014501D01*
X010623Y014801D01*
X010783Y014801D02*
X010858Y014876D01*
X011009Y014876D01*
X011084Y014801D01*
X011084Y014726D01*
X011009Y014651D01*
X011084Y014576D01*
X011084Y014501D01*
X011009Y014425D01*
X010858Y014425D01*
X010783Y014501D01*
X010934Y014651D02*
X011009Y014651D01*
X011244Y014801D02*
X011319Y014876D01*
X011469Y014876D01*
X011544Y014801D01*
X011544Y014726D01*
X011394Y014576D01*
X011394Y014501D02*
X011394Y014425D01*
X011704Y014576D02*
X011704Y014726D01*
X011854Y014876D01*
X012011Y014876D02*
X012236Y014876D01*
X012311Y014801D01*
X012311Y014726D01*
X012236Y014651D01*
X012011Y014651D01*
X012011Y014876D02*
X012011Y014425D01*
X012236Y014425D01*
X012311Y014501D01*
X012311Y014576D01*
X012236Y014651D01*
X012471Y014801D02*
X012471Y014501D01*
X012547Y014425D01*
X012697Y014425D01*
X012772Y014501D01*
X012932Y014501D02*
X013007Y014425D01*
X013157Y014425D01*
X013232Y014501D01*
X013232Y014576D01*
X013157Y014651D01*
X013082Y014651D01*
X013157Y014651D02*
X013232Y014726D01*
X013232Y014801D01*
X013157Y014876D01*
X013007Y014876D01*
X012932Y014801D01*
X012772Y014801D02*
X012697Y014876D01*
X012547Y014876D01*
X012471Y014801D01*
X012639Y015050D02*
X012789Y015201D01*
X012789Y015501D01*
X012949Y015501D02*
X013249Y015501D01*
X013099Y015501D02*
X013099Y015050D01*
X013410Y015050D02*
X013710Y015050D01*
X013560Y015050D02*
X013560Y015501D01*
X013410Y015351D01*
X013467Y014876D02*
X013617Y014876D01*
X013693Y014801D01*
X013693Y014726D01*
X013617Y014651D01*
X013693Y014576D01*
X013693Y014501D01*
X013617Y014425D01*
X013467Y014425D01*
X013392Y014501D01*
X013542Y014651D02*
X013617Y014651D01*
X013392Y014801D02*
X013467Y014876D01*
X013853Y014876D02*
X014153Y014876D01*
X014153Y014801D01*
X013853Y014501D01*
X013853Y014425D01*
X014313Y014425D02*
X014463Y014576D01*
X014463Y014726D01*
X014313Y014876D01*
X012639Y015050D02*
X012489Y015201D01*
X012489Y015501D01*
X011704Y014576D02*
X011854Y014425D01*
X010323Y014501D02*
X010323Y014801D01*
X009242Y014876D02*
X008942Y014576D01*
X014070Y017901D02*
X014070Y019550D01*
X014670Y019774D02*
X014670Y019278D01*
X014670Y019173D01*
X014670Y018278D01*
X014670Y018173D01*
X014670Y017677D01*
X014282Y017771D02*
X014226Y017798D01*
X014172Y017829D01*
X014120Y017863D01*
X014070Y017900D01*
X014670Y017676D02*
X014734Y017675D01*
X014798Y017678D01*
X014862Y017685D01*
X014925Y017695D01*
X014987Y017710D01*
X015048Y017728D01*
X015109Y017750D01*
X015167Y017775D01*
X014670Y017676D02*
X014611Y017681D01*
X014553Y017688D01*
X014495Y017699D01*
X014438Y017714D01*
X014382Y017731D01*
X014327Y017751D01*
X014273Y017775D01*
X014670Y019774D02*
X014734Y019775D01*
X014798Y019772D01*
X014862Y019765D01*
X014925Y019755D01*
X014987Y019740D01*
X015048Y019722D01*
X015109Y019700D01*
X015167Y019675D01*
X014273Y019676D02*
X014219Y019649D01*
X014168Y019619D01*
X014118Y019586D01*
X014070Y019551D01*
X015167Y019675D02*
X015224Y019646D01*
X015280Y019613D01*
X015333Y019578D01*
X015384Y019538D01*
X015432Y019496D01*
X015478Y019451D01*
X015521Y019404D01*
X015561Y019354D01*
X015598Y019301D01*
X015631Y019246D01*
X015662Y019190D01*
X015688Y019131D01*
X015711Y019071D01*
X015731Y019010D01*
X015746Y018948D01*
X015758Y018885D01*
X015766Y018821D01*
X015770Y018757D01*
X015770Y018693D01*
X015766Y018629D01*
X015758Y018565D01*
X015746Y018502D01*
X015731Y018440D01*
X015711Y018379D01*
X015688Y018319D01*
X015662Y018260D01*
X015631Y018204D01*
X015598Y018149D01*
X015561Y018096D01*
X015521Y018046D01*
X015478Y017999D01*
X015432Y017954D01*
X015384Y017912D01*
X015333Y017872D01*
X015280Y017837D01*
X015224Y017804D01*
X015167Y017775D01*
X014670Y019774D02*
X014611Y019769D01*
X014553Y019762D01*
X014495Y019751D01*
X014438Y019736D01*
X014382Y019719D01*
X014327Y019699D01*
X014273Y019675D01*
X013931Y021010D02*
X014081Y021160D01*
X014081Y021310D01*
X013931Y021461D01*
X013774Y021461D02*
X013699Y021386D01*
X013699Y021010D01*
X013464Y021010D02*
X013464Y021235D01*
X013388Y021310D01*
X013313Y021235D01*
X013313Y021010D01*
X013163Y021010D02*
X013163Y021310D01*
X013238Y021310D01*
X013313Y021235D01*
X013624Y021235D02*
X013774Y021235D01*
X013003Y021386D02*
X012703Y021085D01*
X012703Y021010D01*
X012468Y021010D02*
X012468Y021461D01*
X012242Y021235D01*
X012543Y021235D01*
X012703Y021461D02*
X013003Y021461D01*
X013003Y021386D01*
X013045Y021875D02*
X012895Y022026D01*
X013345Y022026D01*
X013345Y022176D02*
X013345Y021875D01*
X012086Y021461D02*
X011936Y021310D01*
X011936Y021160D01*
X012086Y021010D01*
X011779Y021235D02*
X011629Y021235D01*
X011469Y021235D02*
X011469Y021010D01*
X011318Y021010D02*
X011318Y021235D01*
X011393Y021310D01*
X011469Y021235D01*
X011318Y021235D02*
X011243Y021310D01*
X011168Y021310D01*
X011168Y021010D01*
X011008Y021085D02*
X010933Y021010D01*
X010783Y021010D01*
X010708Y021085D01*
X011008Y021386D01*
X011008Y021085D01*
X010708Y021085D02*
X010708Y021386D01*
X010783Y021461D01*
X010933Y021461D01*
X011008Y021386D01*
X010548Y021386D02*
X010473Y021461D01*
X010323Y021461D01*
X010247Y021386D01*
X010087Y021386D02*
X010012Y021461D01*
X009862Y021461D01*
X009787Y021386D01*
X010087Y021386D02*
X010087Y021310D01*
X009787Y021010D01*
X010087Y021010D01*
X010247Y021010D02*
X010548Y021310D01*
X010548Y021386D01*
X010506Y021750D02*
X010581Y021826D01*
X010581Y022126D01*
X010506Y022201D01*
X010355Y022201D01*
X010280Y022126D01*
X010280Y022051D01*
X010355Y021976D01*
X010581Y021976D01*
X010506Y021750D02*
X010355Y021750D01*
X010280Y021826D01*
X010120Y021826D02*
X010045Y021750D01*
X009895Y021750D01*
X009820Y021826D01*
X009820Y022126D01*
X009895Y022201D01*
X010045Y022201D01*
X010120Y022126D01*
X010247Y021010D02*
X010548Y021010D01*
X011704Y021010D02*
X011704Y021386D01*
X011779Y021461D01*
X011370Y024725D02*
X011445Y024801D01*
X011445Y024951D01*
X011370Y025026D01*
X011295Y025026D01*
X011220Y024951D01*
X011220Y024725D01*
X011370Y024725D01*
X011220Y024725D02*
X011070Y024876D01*
X010995Y025026D01*
X011370Y025100D02*
X011370Y025401D01*
X011520Y025551D01*
X011670Y025401D01*
X011670Y025100D01*
X011830Y025251D02*
X011981Y025100D01*
X012131Y025251D01*
X012131Y025551D01*
X012291Y025551D02*
X012291Y025100D01*
X012268Y025063D02*
X012493Y025063D01*
X012568Y024988D01*
X012568Y024913D01*
X012493Y024838D01*
X012343Y024838D01*
X012268Y024913D01*
X012268Y025063D01*
X012418Y025213D01*
X012568Y025288D01*
X012591Y025326D02*
X012516Y025251D01*
X012291Y025251D01*
X012441Y025251D02*
X012591Y025100D01*
X012751Y025100D02*
X012901Y025100D01*
X012826Y025100D02*
X012826Y025551D01*
X012751Y025551D02*
X012901Y025551D01*
X013058Y025476D02*
X013058Y025401D01*
X013133Y025326D01*
X013283Y025326D01*
X013358Y025251D01*
X013358Y025176D01*
X013283Y025100D01*
X013133Y025100D01*
X013058Y025176D01*
X013058Y025476D02*
X013133Y025551D01*
X013283Y025551D01*
X013358Y025476D01*
X013518Y025551D02*
X013744Y025551D01*
X013819Y025476D01*
X013819Y025326D01*
X013744Y025251D01*
X013518Y025251D01*
X013518Y025100D02*
X013518Y025551D01*
X013970Y025486D02*
X014045Y025561D01*
X014345Y025261D01*
X014420Y025336D01*
X014420Y025486D01*
X014345Y025561D01*
X014045Y025561D01*
X013970Y025486D02*
X013970Y025336D01*
X014045Y025261D01*
X014345Y025261D01*
X014420Y025101D02*
X014420Y024800D01*
X014420Y024951D02*
X013970Y024951D01*
X014120Y024800D01*
X012591Y025326D02*
X012591Y025476D01*
X012516Y025551D01*
X012291Y025551D01*
X012108Y025288D02*
X011808Y024838D01*
X012108Y024838D02*
X011808Y025288D01*
X011830Y025251D02*
X011830Y025551D01*
X011670Y025326D02*
X011370Y025326D01*
X009438Y026825D02*
X009438Y027201D01*
X009513Y027276D01*
X009513Y027051D02*
X009363Y027051D01*
X009203Y027051D02*
X009203Y026825D01*
X009053Y026825D02*
X009053Y027051D01*
X009128Y027126D01*
X009203Y027051D01*
X009053Y027051D02*
X008978Y027126D01*
X008903Y027126D01*
X008903Y026825D01*
X008743Y026901D02*
X008667Y026825D01*
X008517Y026825D01*
X008442Y026901D01*
X008743Y027201D01*
X008743Y026901D01*
X008743Y027201D02*
X008667Y027276D01*
X008517Y027276D01*
X008442Y027201D01*
X008442Y026901D01*
X008282Y026825D02*
X007982Y026825D01*
X008132Y026825D02*
X008132Y027276D01*
X007982Y027126D01*
X008239Y027375D02*
X008389Y027375D01*
X008464Y027451D01*
X008624Y027451D02*
X008699Y027375D01*
X008849Y027375D01*
X008924Y027451D01*
X008924Y027526D01*
X008849Y027601D01*
X008624Y027601D01*
X008624Y027451D01*
X008624Y027601D02*
X008774Y027751D01*
X008924Y027826D01*
X009085Y027826D02*
X009310Y027826D01*
X009385Y027751D01*
X009385Y027601D01*
X009310Y027526D01*
X009085Y027526D01*
X009085Y027375D02*
X009085Y027826D01*
X008464Y027751D02*
X008389Y027826D01*
X008239Y027826D01*
X008164Y027751D01*
X008164Y027451D01*
X008239Y027375D01*
X006632Y024701D02*
X006632Y024250D01*
X006482Y024250D02*
X006783Y024250D01*
X006482Y024551D02*
X006632Y024701D01*
X006322Y024626D02*
X006247Y024701D01*
X006097Y024701D01*
X006022Y024626D01*
X005862Y024626D02*
X005862Y024551D01*
X005712Y024401D01*
X005712Y024326D02*
X005712Y024250D01*
X005401Y024326D02*
X005326Y024250D01*
X005176Y024250D01*
X005101Y024326D01*
X005101Y024476D02*
X005251Y024551D01*
X005326Y024551D01*
X005401Y024476D01*
X005401Y024326D01*
X005101Y024476D02*
X005101Y024701D01*
X005401Y024701D01*
X005562Y024626D02*
X005637Y024701D01*
X005787Y024701D01*
X005862Y024626D01*
X006172Y024401D02*
X006322Y024551D01*
X006322Y024626D01*
X006172Y024326D02*
X006172Y024250D01*
X004941Y024326D02*
X004866Y024250D01*
X004716Y024250D01*
X004641Y024326D01*
X004641Y024476D02*
X004791Y024551D01*
X004866Y024551D01*
X004941Y024476D01*
X004941Y024326D01*
X004641Y024476D02*
X004641Y024701D01*
X004941Y024701D01*
X004481Y024701D02*
X004180Y024701D01*
X004180Y024476D01*
X004331Y024551D01*
X004406Y024551D01*
X004481Y024476D01*
X004481Y024326D01*
X004406Y024250D01*
X004255Y024250D01*
X004180Y024326D01*
X004020Y024551D02*
X003870Y024401D01*
X003870Y024326D02*
X003870Y024250D01*
X004020Y024551D02*
X004020Y024626D01*
X003945Y024701D01*
X003795Y024701D01*
X003720Y024626D01*
X002670Y024682D02*
X002670Y024982D01*
X002670Y024832D02*
X002220Y024832D01*
X002370Y024682D01*
X002670Y024522D02*
X002670Y024221D01*
X002670Y024371D02*
X002220Y024371D01*
X002370Y024221D01*
X002295Y024061D02*
X002220Y023986D01*
X002220Y023761D01*
X002670Y023761D01*
X002670Y023986D01*
X002595Y024061D01*
X002295Y024061D01*
X002295Y023601D02*
X002220Y023526D01*
X002220Y023300D01*
X002670Y023300D01*
X002670Y023526D01*
X002595Y023601D01*
X002295Y023601D01*
X002310Y021776D02*
X002160Y021626D01*
X001999Y021701D02*
X001699Y021401D01*
X001699Y021325D01*
X001999Y021325D01*
X002160Y021325D02*
X002460Y021325D01*
X002310Y021325D02*
X002310Y021776D01*
X001999Y021776D02*
X001999Y021701D01*
X001999Y021776D02*
X001699Y021776D01*
X001664Y021001D02*
X001514Y020851D01*
X001364Y021001D01*
X001364Y020550D01*
X001129Y020550D02*
X001129Y021001D01*
X000903Y020776D01*
X001204Y020776D01*
X001664Y021001D02*
X001664Y020550D01*
X001824Y020550D02*
X001824Y021001D01*
X001899Y020851D02*
X002049Y020851D01*
X002124Y020776D01*
X002124Y020550D01*
X002285Y020550D02*
X002585Y020550D01*
X002285Y020550D02*
X002585Y020851D01*
X002285Y020851D01*
X001899Y020851D02*
X001824Y020776D01*
X000743Y020550D02*
X000443Y020550D01*
X000593Y020550D02*
X000593Y021001D01*
X000443Y020851D01*
X016770Y020951D02*
X017220Y020951D01*
X017220Y021101D02*
X017220Y020800D01*
X016920Y020800D02*
X016770Y020951D01*
X017995Y021125D02*
X018402Y021125D01*
X018603Y021125D02*
X019010Y021533D01*
X019010Y021634D01*
X018908Y021736D01*
X018704Y021736D01*
X018603Y021634D01*
X018199Y021736D02*
X018199Y021125D01*
X018603Y021125D02*
X019010Y021125D01*
X018199Y021736D02*
X017995Y021533D01*
X018720Y022850D02*
X031470Y022850D01*
X031524Y022848D01*
X031577Y022842D01*
X031629Y022833D01*
X031681Y022820D01*
X031732Y022803D01*
X031782Y022782D01*
X031829Y022758D01*
X031875Y022731D01*
X031919Y022700D01*
X031961Y022667D01*
X032000Y022630D01*
X032037Y022591D01*
X032070Y022549D01*
X032101Y022505D01*
X032128Y022459D01*
X032152Y022412D01*
X032173Y022362D01*
X032190Y022311D01*
X032203Y022259D01*
X032212Y022207D01*
X032218Y022154D01*
X032220Y022100D01*
X032220Y009100D01*
X031693Y009465D02*
X031693Y010076D01*
X031387Y009771D01*
X031794Y009771D01*
X031187Y009771D02*
X031187Y009567D01*
X031085Y009465D01*
X030881Y009465D01*
X030780Y009567D01*
X030780Y009771D02*
X030983Y009873D01*
X031085Y009873D01*
X031187Y009771D01*
X031187Y010076D02*
X030780Y010076D01*
X030780Y009771D01*
X030408Y009111D02*
X030510Y009009D01*
X030510Y008908D01*
X030408Y008806D01*
X030510Y008704D01*
X030510Y008602D01*
X030408Y008500D01*
X030204Y008500D01*
X030103Y008602D01*
X029902Y008602D02*
X029800Y008500D01*
X029597Y008500D01*
X029495Y008602D01*
X029495Y008806D02*
X029699Y008908D01*
X029800Y008908D01*
X029902Y008806D01*
X029902Y008602D01*
X030306Y008806D02*
X030408Y008806D01*
X030408Y009111D02*
X030204Y009111D01*
X030103Y009009D01*
X029902Y009111D02*
X029495Y009111D01*
X029495Y008806D01*
X031470Y008350D02*
X031524Y008352D01*
X031577Y008358D01*
X031629Y008367D01*
X031681Y008380D01*
X031732Y008397D01*
X031782Y008418D01*
X031829Y008442D01*
X031875Y008469D01*
X031919Y008500D01*
X031961Y008533D01*
X032000Y008570D01*
X032037Y008609D01*
X032070Y008651D01*
X032101Y008695D01*
X032128Y008741D01*
X032152Y008788D01*
X032173Y008838D01*
X032190Y008889D01*
X032203Y008941D01*
X032212Y008993D01*
X032218Y009046D01*
X032220Y009100D01*
X031470Y008350D02*
X018470Y008350D01*
X017420Y015319D02*
X016970Y015319D01*
X016970Y015545D01*
X017045Y015620D01*
X017195Y015620D01*
X017270Y015545D01*
X017270Y015319D01*
X017270Y015469D02*
X017420Y015620D01*
X017420Y015780D02*
X017120Y016080D01*
X017045Y016080D01*
X016970Y016005D01*
X016970Y015855D01*
X017045Y015780D01*
X017420Y015780D02*
X017420Y016080D01*
X017195Y016240D02*
X017195Y016540D01*
X017420Y016465D02*
X016970Y016465D01*
X017195Y016240D01*
X017070Y016860D02*
X016995Y016936D01*
X016995Y017086D01*
X017070Y017161D01*
X017145Y017161D01*
X017445Y016860D01*
X017445Y017161D01*
X017445Y017321D02*
X016995Y017321D01*
X017145Y017546D02*
X017295Y017321D01*
X017445Y017546D01*
X017445Y017705D02*
X017145Y018005D01*
X017070Y018005D01*
X016995Y017930D01*
X016995Y017780D01*
X017070Y017705D01*
X017445Y017705D02*
X017445Y018005D01*
X029495Y022125D02*
X029495Y022227D01*
X029902Y022634D01*
X029902Y022736D01*
X029495Y022736D01*
X030103Y022736D02*
X030103Y022431D01*
X030306Y022533D01*
X030408Y022533D01*
X030510Y022431D01*
X030510Y022227D01*
X030408Y022125D01*
X030204Y022125D01*
X030103Y022227D01*
X030103Y022736D02*
X030510Y022736D01*
X030780Y021826D02*
X031187Y021826D01*
X031187Y021724D01*
X030780Y021317D01*
X030780Y021215D01*
X031387Y021521D02*
X031794Y021521D01*
X031693Y021826D02*
X031387Y021521D01*
X031693Y021215D02*
X031693Y021826D01*
X024360Y044150D02*
X024060Y044150D01*
X024210Y044150D02*
X024210Y044601D01*
X024060Y044451D01*
X023899Y044451D02*
X023899Y044526D01*
X023824Y044601D01*
X023674Y044601D01*
X023599Y044526D01*
X023899Y044451D02*
X023599Y044150D01*
X023899Y044150D01*
D16*
X022057Y018514D02*
X022057Y012687D01*
X027883Y012687D01*
X027883Y018514D01*
X022057Y018514D01*
D17*
X017670Y017875D02*
X017670Y017725D01*
X017620Y017675D01*
X017620Y015775D01*
X017670Y015725D01*
X017670Y015575D01*
X017668Y015558D01*
X017664Y015541D01*
X017657Y015525D01*
X017647Y015511D01*
X017634Y015498D01*
X017620Y015488D01*
X017604Y015481D01*
X017587Y015477D01*
X017570Y015475D01*
X016870Y015475D01*
X016853Y015477D01*
X016836Y015481D01*
X016820Y015488D01*
X016806Y015498D01*
X016793Y015511D01*
X016783Y015525D01*
X016776Y015541D01*
X016772Y015558D01*
X016770Y015575D01*
X016770Y015725D01*
X016820Y015775D01*
X016820Y017675D01*
X016770Y017725D01*
X016770Y017875D01*
X016772Y017892D01*
X016776Y017909D01*
X016783Y017925D01*
X016793Y017939D01*
X016806Y017952D01*
X016820Y017962D01*
X016836Y017969D01*
X016853Y017973D01*
X016870Y017975D01*
X017570Y017975D01*
X017587Y017973D01*
X017604Y017969D01*
X017620Y017962D01*
X017634Y017952D01*
X017647Y017939D01*
X017657Y017925D01*
X017664Y017909D01*
X017668Y017892D01*
X017670Y017875D01*
X016345Y020475D02*
X014845Y020475D01*
X014595Y020725D01*
X014595Y021225D01*
X014845Y021475D01*
X014595Y021725D01*
X014595Y022225D01*
X014845Y022475D01*
X014595Y022725D01*
X014595Y023225D01*
X014845Y023475D01*
X014595Y023725D01*
X014595Y024225D01*
X014845Y024475D01*
X014595Y024725D01*
X014595Y025225D01*
X014845Y025475D01*
X016345Y025475D01*
X016595Y025225D01*
X016595Y024725D01*
X016345Y024475D01*
X016595Y024225D01*
X016595Y023725D01*
X016345Y023475D01*
X016595Y023225D01*
X016595Y022725D01*
X016345Y022475D01*
X016595Y022225D01*
X016595Y021725D01*
X016345Y021475D01*
X016595Y021225D01*
X016595Y020725D01*
X016345Y020475D01*
X012720Y021850D02*
X012470Y021600D01*
X010970Y021600D01*
X010720Y021850D01*
X010720Y022350D01*
X010970Y022600D01*
X010720Y022850D01*
X010720Y023350D01*
X010970Y023600D01*
X010720Y023850D01*
X010720Y024350D01*
X010970Y024600D01*
X012470Y024600D01*
X012720Y024350D01*
X012720Y023850D01*
X012470Y023600D01*
X012720Y023350D01*
X012720Y022850D01*
X012470Y022600D01*
X012720Y022350D01*
X012720Y021850D01*
X010895Y020350D02*
X010695Y020350D01*
X010695Y019350D01*
X010895Y019350D01*
X010895Y019850D01*
X010895Y020350D01*
X010895Y019850D02*
X011245Y019850D01*
X011245Y019500D02*
X011245Y019350D01*
X011245Y019200D01*
X011245Y019350D02*
X011095Y019350D01*
X011245Y019350D02*
X011395Y019350D01*
X009495Y019850D02*
X009497Y019916D01*
X009503Y019981D01*
X009513Y020046D01*
X009526Y020111D01*
X009544Y020174D01*
X009565Y020237D01*
X009590Y020297D01*
X009619Y020357D01*
X009651Y020414D01*
X009686Y020470D01*
X009725Y020523D01*
X009767Y020574D01*
X009811Y020622D01*
X009859Y020667D01*
X009909Y020710D01*
X009962Y020749D01*
X010017Y020786D01*
X010074Y020819D01*
X010133Y020848D01*
X010193Y020874D01*
X010255Y020896D01*
X010318Y020915D01*
X010382Y020929D01*
X010447Y020940D01*
X010513Y020947D01*
X010579Y020950D01*
X010644Y020949D01*
X010710Y020944D01*
X010775Y020935D01*
X010840Y020922D01*
X010903Y020906D01*
X010966Y020886D01*
X011027Y020861D01*
X011087Y020834D01*
X011145Y020803D01*
X011201Y020768D01*
X011255Y020730D01*
X011306Y020689D01*
X011355Y020645D01*
X011401Y020598D01*
X011445Y020549D01*
X011485Y020497D01*
X011522Y020442D01*
X011556Y020386D01*
X011586Y020327D01*
X011613Y020267D01*
X011636Y020206D01*
X011655Y020143D01*
X011671Y020079D01*
X011683Y020014D01*
X011691Y019949D01*
X011695Y019883D01*
X011695Y019817D01*
X011691Y019751D01*
X011683Y019686D01*
X011671Y019621D01*
X011655Y019557D01*
X011636Y019494D01*
X011613Y019433D01*
X011586Y019373D01*
X011556Y019314D01*
X011522Y019258D01*
X011485Y019203D01*
X011445Y019151D01*
X011401Y019102D01*
X011355Y019055D01*
X011306Y019011D01*
X011255Y018970D01*
X011201Y018932D01*
X011145Y018897D01*
X011087Y018866D01*
X011027Y018839D01*
X010966Y018814D01*
X010903Y018794D01*
X010840Y018778D01*
X010775Y018765D01*
X010710Y018756D01*
X010644Y018751D01*
X010579Y018750D01*
X010513Y018753D01*
X010447Y018760D01*
X010382Y018771D01*
X010318Y018785D01*
X010255Y018804D01*
X010193Y018826D01*
X010133Y018852D01*
X010074Y018881D01*
X010017Y018914D01*
X009962Y018951D01*
X009909Y018990D01*
X009859Y019033D01*
X009811Y019078D01*
X009767Y019126D01*
X009725Y019177D01*
X009686Y019230D01*
X009651Y019286D01*
X009619Y019343D01*
X009590Y019403D01*
X009565Y019463D01*
X009544Y019526D01*
X009526Y019589D01*
X009513Y019654D01*
X009503Y019719D01*
X009497Y019784D01*
X009495Y019850D01*
X009945Y019850D02*
X010345Y019850D01*
X009245Y018475D02*
X009245Y021975D01*
X009243Y022005D01*
X009238Y022035D01*
X009229Y022064D01*
X009216Y022091D01*
X009201Y022117D01*
X009182Y022141D01*
X009161Y022162D01*
X009137Y022181D01*
X009111Y022196D01*
X009084Y022209D01*
X009055Y022218D01*
X009025Y022223D01*
X008995Y022225D01*
X004095Y022225D01*
X002845Y023325D02*
X002845Y024075D01*
X002884Y024077D01*
X002923Y024083D01*
X002961Y024092D01*
X002998Y024105D01*
X003034Y024122D01*
X003067Y024142D01*
X003099Y024166D01*
X003128Y024192D01*
X003154Y024221D01*
X003178Y024253D01*
X003198Y024286D01*
X003215Y024322D01*
X003228Y024359D01*
X003237Y024397D01*
X003243Y024436D01*
X003245Y024475D01*
X003243Y024514D01*
X003237Y024553D01*
X003228Y024591D01*
X003215Y024628D01*
X003198Y024664D01*
X003178Y024697D01*
X003154Y024729D01*
X003128Y024758D01*
X003099Y024784D01*
X003067Y024808D01*
X003034Y024828D01*
X002998Y024845D01*
X002961Y024858D01*
X002923Y024867D01*
X002884Y024873D01*
X002845Y024875D01*
X002845Y025625D01*
X009845Y025625D01*
X009845Y023325D01*
X002845Y023325D01*
X003745Y026925D02*
X003745Y039025D01*
X005095Y039025D01*
X005097Y038995D01*
X005102Y038965D01*
X005111Y038936D01*
X005124Y038909D01*
X005139Y038883D01*
X005158Y038859D01*
X005179Y038838D01*
X005203Y038819D01*
X005229Y038804D01*
X005256Y038791D01*
X005285Y038782D01*
X005315Y038777D01*
X005345Y038775D01*
X005375Y038777D01*
X005405Y038782D01*
X005434Y038791D01*
X005461Y038804D01*
X005487Y038819D01*
X005511Y038838D01*
X005532Y038859D01*
X005551Y038883D01*
X005566Y038909D01*
X005579Y038936D01*
X005588Y038965D01*
X005593Y038995D01*
X005595Y039025D01*
X006945Y039025D01*
X006945Y026925D01*
X003745Y026925D01*
X008320Y028975D02*
X008670Y028975D01*
X008670Y029475D01*
X008870Y029475D01*
X008870Y028475D01*
X008670Y028475D01*
X008670Y028975D01*
X007970Y028975D02*
X007972Y029038D01*
X007978Y029100D01*
X007988Y029162D01*
X008001Y029224D01*
X008019Y029284D01*
X008040Y029343D01*
X008065Y029401D01*
X008094Y029457D01*
X008126Y029511D01*
X008161Y029563D01*
X008199Y029612D01*
X008241Y029660D01*
X008285Y029704D01*
X008333Y029746D01*
X008382Y029784D01*
X008434Y029819D01*
X008488Y029851D01*
X008544Y029880D01*
X008602Y029905D01*
X008661Y029926D01*
X008721Y029944D01*
X008783Y029957D01*
X008845Y029967D01*
X008907Y029973D01*
X008970Y029975D01*
X009033Y029973D01*
X009095Y029967D01*
X009157Y029957D01*
X009219Y029944D01*
X009279Y029926D01*
X009338Y029905D01*
X009396Y029880D01*
X009452Y029851D01*
X009506Y029819D01*
X009558Y029784D01*
X009607Y029746D01*
X009655Y029704D01*
X009699Y029660D01*
X009741Y029612D01*
X009779Y029563D01*
X009814Y029511D01*
X009846Y029457D01*
X009875Y029401D01*
X009900Y029343D01*
X009921Y029284D01*
X009939Y029224D01*
X009952Y029162D01*
X009962Y029100D01*
X009968Y029038D01*
X009970Y028975D01*
X009968Y028912D01*
X009962Y028850D01*
X009952Y028788D01*
X009939Y028726D01*
X009921Y028666D01*
X009900Y028607D01*
X009875Y028549D01*
X009846Y028493D01*
X009814Y028439D01*
X009779Y028387D01*
X009741Y028338D01*
X009699Y028290D01*
X009655Y028246D01*
X009607Y028204D01*
X009558Y028166D01*
X009506Y028131D01*
X009452Y028099D01*
X009396Y028070D01*
X009338Y028045D01*
X009279Y028024D01*
X009219Y028006D01*
X009157Y027993D01*
X009095Y027983D01*
X009033Y027977D01*
X008970Y027975D01*
X008907Y027977D01*
X008845Y027983D01*
X008783Y027993D01*
X008721Y028006D01*
X008661Y028024D01*
X008602Y028045D01*
X008544Y028070D01*
X008488Y028099D01*
X008434Y028131D01*
X008382Y028166D01*
X008333Y028204D01*
X008285Y028246D01*
X008241Y028290D01*
X008199Y028338D01*
X008161Y028387D01*
X008126Y028439D01*
X008094Y028493D01*
X008065Y028549D01*
X008040Y028607D01*
X008019Y028666D01*
X008001Y028726D01*
X007988Y028788D01*
X007978Y028850D01*
X007972Y028912D01*
X007970Y028975D01*
X008420Y029375D02*
X008420Y029475D01*
X008420Y029575D01*
X008420Y029475D02*
X008520Y029475D01*
X008420Y029475D02*
X008320Y029475D01*
X009220Y028975D02*
X009620Y028975D01*
X009720Y030725D02*
X009220Y030725D01*
X008970Y030975D01*
X008970Y031475D01*
X009220Y031725D01*
X008970Y031975D01*
X008970Y032475D01*
X009220Y032725D01*
X008970Y032975D01*
X008970Y033475D01*
X009220Y033725D01*
X009720Y033725D01*
X009970Y033475D01*
X009970Y032975D01*
X009720Y032725D01*
X009970Y032475D01*
X009970Y031975D01*
X009720Y031725D01*
X009970Y031475D01*
X009970Y030975D01*
X009720Y030725D01*
X010345Y032075D02*
X010345Y037375D01*
X030345Y037375D01*
X030345Y035175D01*
X030306Y035173D01*
X030267Y035167D01*
X030229Y035158D01*
X030192Y035145D01*
X030156Y035128D01*
X030123Y035108D01*
X030091Y035084D01*
X030062Y035058D01*
X030036Y035029D01*
X030012Y034997D01*
X029992Y034964D01*
X029975Y034928D01*
X029962Y034891D01*
X029953Y034853D01*
X029947Y034814D01*
X029945Y034775D01*
X029947Y034736D01*
X029953Y034697D01*
X029962Y034659D01*
X029975Y034622D01*
X029992Y034586D01*
X030012Y034553D01*
X030036Y034521D01*
X030062Y034492D01*
X030091Y034466D01*
X030123Y034442D01*
X030156Y034422D01*
X030192Y034405D01*
X030229Y034392D01*
X030267Y034383D01*
X030306Y034377D01*
X030345Y034375D01*
X030345Y032075D01*
X010345Y032075D01*
X011970Y030288D02*
X016870Y030288D01*
X016900Y030286D01*
X016930Y030281D01*
X016959Y030272D01*
X016986Y030259D01*
X017012Y030244D01*
X017036Y030225D01*
X017057Y030204D01*
X017076Y030180D01*
X017091Y030154D01*
X017104Y030127D01*
X017113Y030098D01*
X017118Y030068D01*
X017120Y030038D01*
X017120Y026538D01*
X017118Y026508D01*
X017113Y026478D01*
X017104Y026449D01*
X017091Y026422D01*
X017076Y026396D01*
X017057Y026372D01*
X017036Y026351D01*
X017012Y026332D01*
X016986Y026317D01*
X016959Y026304D01*
X016930Y026295D01*
X016900Y026290D01*
X016870Y026288D01*
X011970Y026288D01*
X015970Y027538D02*
X015970Y027918D01*
X015970Y028658D02*
X015970Y029038D01*
X018845Y027950D02*
X018845Y030250D01*
X025845Y030250D01*
X025845Y029500D01*
X025806Y029498D01*
X025767Y029492D01*
X025729Y029483D01*
X025692Y029470D01*
X025656Y029453D01*
X025623Y029433D01*
X025591Y029409D01*
X025562Y029383D01*
X025536Y029354D01*
X025512Y029322D01*
X025492Y029289D01*
X025475Y029253D01*
X025462Y029216D01*
X025453Y029178D01*
X025447Y029139D01*
X025445Y029100D01*
X025447Y029061D01*
X025453Y029022D01*
X025462Y028984D01*
X025475Y028947D01*
X025492Y028911D01*
X025512Y028878D01*
X025536Y028846D01*
X025562Y028817D01*
X025591Y028791D01*
X025623Y028767D01*
X025656Y028747D01*
X025692Y028730D01*
X025729Y028717D01*
X025767Y028708D01*
X025806Y028702D01*
X025845Y028700D01*
X025845Y027950D01*
X018845Y027950D01*
X026488Y029739D02*
X026702Y029526D01*
X026702Y029205D01*
X026702Y029526D02*
X026915Y029739D01*
X026915Y029846D01*
X027133Y029846D02*
X027346Y029633D01*
X027560Y029846D01*
X027560Y029205D01*
X027777Y029205D02*
X028204Y029633D01*
X028204Y029739D01*
X028098Y029846D01*
X027884Y029846D01*
X027777Y029739D01*
X027737Y030105D02*
X027843Y030212D01*
X027843Y030639D01*
X027737Y030746D01*
X027416Y030746D01*
X027416Y030105D01*
X027737Y030105D01*
X028061Y030105D02*
X028381Y030105D01*
X028488Y030212D01*
X028488Y030639D01*
X028381Y030746D01*
X028061Y030746D01*
X028061Y030105D01*
X028422Y029633D02*
X028635Y029846D01*
X028635Y029205D01*
X028422Y029205D02*
X028849Y029205D01*
X029066Y029526D02*
X029387Y029846D01*
X029387Y029205D01*
X029493Y029526D02*
X029066Y029526D01*
X029026Y030105D02*
X028812Y030105D01*
X028705Y030212D01*
X028812Y030426D02*
X029132Y030426D01*
X029132Y030639D02*
X029026Y030746D01*
X028812Y030746D01*
X028705Y030639D01*
X028705Y030533D01*
X028812Y030426D01*
X029132Y030212D02*
X029132Y030639D01*
X029132Y030212D02*
X029026Y030105D01*
X029711Y029739D02*
X029711Y029633D01*
X029818Y029526D01*
X030138Y029526D01*
X030138Y029739D02*
X030138Y029312D01*
X030031Y029205D01*
X029818Y029205D01*
X029711Y029312D01*
X029711Y029739D02*
X029818Y029846D01*
X030031Y029846D01*
X030138Y029739D01*
X030355Y029846D02*
X030782Y029846D01*
X030569Y029526D02*
X030355Y029526D01*
X030355Y029846D02*
X030355Y029205D01*
X028204Y029205D02*
X027777Y029205D01*
X027133Y029205D02*
X027133Y029846D01*
X026488Y029846D02*
X026488Y029739D01*
X033995Y026325D02*
X033995Y047125D01*
X039195Y047125D01*
X039195Y026325D01*
X037095Y026325D01*
X037093Y026369D01*
X037087Y026412D01*
X037078Y026454D01*
X037065Y026496D01*
X037048Y026536D01*
X037028Y026575D01*
X037005Y026612D01*
X036978Y026646D01*
X036949Y026679D01*
X036916Y026708D01*
X036882Y026735D01*
X036845Y026758D01*
X036806Y026778D01*
X036766Y026795D01*
X036724Y026808D01*
X036682Y026817D01*
X036639Y026823D01*
X036595Y026825D01*
X036551Y026823D01*
X036508Y026817D01*
X036466Y026808D01*
X036424Y026795D01*
X036384Y026778D01*
X036345Y026758D01*
X036308Y026735D01*
X036274Y026708D01*
X036241Y026679D01*
X036212Y026646D01*
X036185Y026612D01*
X036162Y026575D01*
X036142Y026536D01*
X036125Y026496D01*
X036112Y026454D01*
X036103Y026412D01*
X036097Y026369D01*
X036095Y026325D01*
X033995Y026325D01*
X034620Y019550D02*
X034620Y005650D01*
X036720Y005650D01*
X036722Y005694D01*
X036728Y005737D01*
X036737Y005779D01*
X036750Y005821D01*
X036767Y005861D01*
X036787Y005900D01*
X036810Y005937D01*
X036837Y005971D01*
X036866Y006004D01*
X036899Y006033D01*
X036933Y006060D01*
X036970Y006083D01*
X037009Y006103D01*
X037049Y006120D01*
X037091Y006133D01*
X037133Y006142D01*
X037176Y006148D01*
X037220Y006150D01*
X037264Y006148D01*
X037307Y006142D01*
X037349Y006133D01*
X037391Y006120D01*
X037431Y006103D01*
X037470Y006083D01*
X037507Y006060D01*
X037541Y006033D01*
X037574Y006004D01*
X037603Y005971D01*
X037630Y005937D01*
X037653Y005900D01*
X037673Y005861D01*
X037690Y005821D01*
X037703Y005779D01*
X037712Y005737D01*
X037718Y005694D01*
X037720Y005650D01*
X039820Y005650D01*
X039820Y019550D01*
X034620Y019550D01*
X042324Y014604D02*
X044624Y014604D01*
X044624Y004604D01*
X043874Y004604D01*
X043872Y004643D01*
X043866Y004682D01*
X043857Y004720D01*
X043844Y004757D01*
X043827Y004793D01*
X043807Y004826D01*
X043783Y004858D01*
X043757Y004887D01*
X043728Y004913D01*
X043696Y004937D01*
X043663Y004957D01*
X043627Y004974D01*
X043590Y004987D01*
X043552Y004996D01*
X043513Y005002D01*
X043474Y005004D01*
X043435Y005002D01*
X043396Y004996D01*
X043358Y004987D01*
X043321Y004974D01*
X043285Y004957D01*
X043252Y004937D01*
X043220Y004913D01*
X043191Y004887D01*
X043165Y004858D01*
X043141Y004826D01*
X043121Y004793D01*
X043104Y004757D01*
X043091Y004720D01*
X043082Y004682D01*
X043076Y004643D01*
X043074Y004604D01*
X042324Y004604D01*
X042324Y014604D01*
X048023Y014605D02*
X050323Y014605D01*
X050323Y004605D01*
X049573Y004605D01*
X049571Y004644D01*
X049565Y004683D01*
X049556Y004721D01*
X049543Y004758D01*
X049526Y004794D01*
X049506Y004827D01*
X049482Y004859D01*
X049456Y004888D01*
X049427Y004914D01*
X049395Y004938D01*
X049362Y004958D01*
X049326Y004975D01*
X049289Y004988D01*
X049251Y004997D01*
X049212Y005003D01*
X049173Y005005D01*
X049134Y005003D01*
X049095Y004997D01*
X049057Y004988D01*
X049020Y004975D01*
X048984Y004958D01*
X048951Y004938D01*
X048919Y004914D01*
X048890Y004888D01*
X048864Y004859D01*
X048840Y004827D01*
X048820Y004794D01*
X048803Y004758D01*
X048790Y004721D01*
X048781Y004683D01*
X048775Y004644D01*
X048773Y004605D01*
X048023Y004605D01*
X048023Y014605D01*
X054195Y020600D02*
X059495Y020600D01*
X059495Y004600D01*
X057245Y004600D01*
X057285Y004421D02*
X057072Y004208D01*
X056854Y004208D02*
X056854Y004314D01*
X056748Y004421D01*
X056534Y004421D01*
X056427Y004314D01*
X056210Y004421D02*
X055996Y004314D01*
X055783Y004101D01*
X056103Y004101D01*
X056210Y003994D01*
X056210Y003887D01*
X056103Y003780D01*
X055889Y003780D01*
X055783Y003887D01*
X055783Y004101D01*
X055632Y004208D02*
X055526Y004101D01*
X055632Y003994D01*
X055632Y003887D01*
X055526Y003780D01*
X055312Y003780D01*
X055205Y003887D01*
X054988Y003887D02*
X054988Y004314D01*
X054881Y004421D01*
X054561Y004421D01*
X054561Y003780D01*
X054881Y003780D01*
X054988Y003887D01*
X055205Y004314D02*
X055312Y004421D01*
X055526Y004421D01*
X055632Y004314D01*
X055632Y004208D01*
X055526Y004101D02*
X055419Y004101D01*
X056427Y003780D02*
X056854Y004208D01*
X057245Y004600D02*
X057243Y004639D01*
X057237Y004678D01*
X057228Y004716D01*
X057215Y004753D01*
X057198Y004789D01*
X057178Y004822D01*
X057154Y004854D01*
X057128Y004883D01*
X057099Y004909D01*
X057067Y004933D01*
X057034Y004953D01*
X056998Y004970D01*
X056961Y004983D01*
X056923Y004992D01*
X056884Y004998D01*
X056845Y005000D01*
X056806Y004998D01*
X056767Y004992D01*
X056729Y004983D01*
X056692Y004970D01*
X056656Y004953D01*
X056623Y004933D01*
X056591Y004909D01*
X056562Y004883D01*
X056536Y004854D01*
X056512Y004822D01*
X056492Y004789D01*
X056475Y004753D01*
X056462Y004716D01*
X056453Y004678D01*
X056447Y004639D01*
X056445Y004600D01*
X054195Y004600D01*
X054195Y020600D01*
X051591Y023262D02*
X051591Y025562D01*
X061591Y025562D01*
X061591Y024812D01*
X061552Y024810D01*
X061513Y024804D01*
X061475Y024795D01*
X061438Y024782D01*
X061402Y024765D01*
X061369Y024745D01*
X061337Y024721D01*
X061308Y024695D01*
X061282Y024666D01*
X061258Y024634D01*
X061238Y024601D01*
X061221Y024565D01*
X061208Y024528D01*
X061199Y024490D01*
X061193Y024451D01*
X061191Y024412D01*
X061193Y024373D01*
X061199Y024334D01*
X061208Y024296D01*
X061221Y024259D01*
X061238Y024223D01*
X061258Y024190D01*
X061282Y024158D01*
X061308Y024129D01*
X061337Y024103D01*
X061369Y024079D01*
X061402Y024059D01*
X061438Y024042D01*
X061475Y024029D01*
X061513Y024020D01*
X061552Y024014D01*
X061591Y024012D01*
X061591Y023262D01*
X051591Y023262D01*
X049620Y026725D02*
X044320Y026725D01*
X044320Y046725D01*
X046520Y046725D01*
X046507Y046855D02*
X046080Y046855D01*
X046294Y046855D02*
X046294Y047496D01*
X046080Y047283D01*
X045863Y047389D02*
X045756Y047496D01*
X045436Y047496D01*
X045436Y046855D01*
X045756Y046855D01*
X045863Y046962D01*
X045863Y047389D01*
X045218Y047389D02*
X045218Y046962D01*
X045112Y046855D01*
X044791Y046855D01*
X044791Y047496D01*
X045112Y047496D01*
X045218Y047389D01*
X046520Y046725D02*
X046522Y046686D01*
X046528Y046647D01*
X046537Y046609D01*
X046550Y046572D01*
X046567Y046536D01*
X046587Y046503D01*
X046611Y046471D01*
X046637Y046442D01*
X046666Y046416D01*
X046698Y046392D01*
X046731Y046372D01*
X046767Y046355D01*
X046804Y046342D01*
X046842Y046333D01*
X046881Y046327D01*
X046920Y046325D01*
X046959Y046327D01*
X046998Y046333D01*
X047036Y046342D01*
X047073Y046355D01*
X047109Y046372D01*
X047142Y046392D01*
X047174Y046416D01*
X047203Y046442D01*
X047229Y046471D01*
X047253Y046503D01*
X047273Y046536D01*
X047290Y046572D01*
X047303Y046609D01*
X047312Y046647D01*
X047318Y046686D01*
X047320Y046725D01*
X049620Y046725D01*
X049620Y026725D01*
X054195Y030725D02*
X059495Y030725D01*
X059495Y046725D01*
X057245Y046725D01*
X057103Y046905D02*
X057210Y047012D01*
X057210Y047439D01*
X057103Y047546D01*
X056889Y047546D01*
X056783Y047439D01*
X056783Y047333D01*
X056889Y047226D01*
X057210Y047226D01*
X057427Y047439D02*
X057427Y047012D01*
X057534Y046905D01*
X057748Y046905D01*
X057854Y047012D01*
X058072Y047012D02*
X058499Y047439D01*
X058499Y047012D01*
X058392Y046905D01*
X058179Y046905D01*
X058072Y047012D01*
X058072Y047439D01*
X058179Y047546D01*
X058392Y047546D01*
X058499Y047439D01*
X058716Y047439D02*
X058823Y047546D01*
X059037Y047546D01*
X059143Y047439D01*
X059143Y047333D01*
X058716Y046905D01*
X059143Y046905D01*
X059361Y047012D02*
X059788Y047439D01*
X059788Y047012D01*
X059681Y046905D01*
X059468Y046905D01*
X059361Y047012D01*
X059361Y047439D01*
X059468Y047546D01*
X059681Y047546D01*
X059788Y047439D01*
X060005Y047439D02*
X060005Y047012D01*
X060112Y046905D01*
X060326Y046905D01*
X060432Y047012D01*
X060432Y047439D02*
X060326Y047546D01*
X060112Y047546D01*
X060005Y047439D01*
X057854Y047439D02*
X057748Y047546D01*
X057534Y047546D01*
X057427Y047439D01*
X057103Y046905D02*
X056889Y046905D01*
X056783Y047012D01*
X056565Y046905D02*
X056138Y046905D01*
X056565Y047333D01*
X056565Y047439D01*
X056458Y047546D01*
X056245Y047546D01*
X056138Y047439D01*
X055921Y047546D02*
X055921Y046905D01*
X055707Y047119D01*
X055494Y046905D01*
X055494Y047546D01*
X055007Y047439D02*
X055007Y047333D01*
X054901Y047226D01*
X054687Y047226D01*
X054580Y047333D01*
X054580Y047439D01*
X054687Y047546D01*
X054901Y047546D01*
X055007Y047439D01*
X054901Y047226D02*
X055007Y047119D01*
X055007Y047012D01*
X054901Y046905D01*
X054687Y046905D01*
X054580Y047012D01*
X054580Y047119D01*
X054687Y047226D01*
X054363Y047439D02*
X054256Y047546D01*
X053936Y047546D01*
X053936Y046905D01*
X054256Y046905D01*
X054363Y047012D01*
X054363Y047439D01*
X053718Y047439D02*
X053718Y047012D01*
X053612Y046905D01*
X053291Y046905D01*
X053291Y047546D01*
X053612Y047546D01*
X053718Y047439D01*
X054195Y046725D02*
X056445Y046725D01*
X056447Y046686D01*
X056453Y046647D01*
X056462Y046609D01*
X056475Y046572D01*
X056492Y046536D01*
X056512Y046503D01*
X056536Y046471D01*
X056562Y046442D01*
X056591Y046416D01*
X056623Y046392D01*
X056656Y046372D01*
X056692Y046355D01*
X056729Y046342D01*
X056767Y046333D01*
X056806Y046327D01*
X056845Y046325D01*
X056884Y046327D01*
X056923Y046333D01*
X056961Y046342D01*
X056998Y046355D01*
X057034Y046372D01*
X057067Y046392D01*
X057099Y046416D01*
X057128Y046442D01*
X057154Y046471D01*
X057178Y046503D01*
X057198Y046536D01*
X057215Y046572D01*
X057228Y046609D01*
X057237Y046647D01*
X057243Y046686D01*
X057245Y046725D01*
X054195Y046725D02*
X054195Y030725D01*
X046608Y031950D02*
X046608Y032100D01*
X046558Y032150D01*
X046558Y034050D01*
X046608Y034100D01*
X046608Y034250D01*
X046606Y034267D01*
X046602Y034284D01*
X046595Y034300D01*
X046585Y034314D01*
X046572Y034327D01*
X046558Y034337D01*
X046542Y034344D01*
X046525Y034348D01*
X046508Y034350D01*
X045808Y034350D01*
X045791Y034348D01*
X045774Y034344D01*
X045758Y034337D01*
X045744Y034327D01*
X045731Y034314D01*
X045721Y034300D01*
X045714Y034284D01*
X045710Y034267D01*
X045708Y034250D01*
X045708Y034100D01*
X045758Y034050D01*
X045758Y032150D01*
X045708Y032100D01*
X045708Y031950D01*
X045710Y031933D01*
X045714Y031916D01*
X045721Y031900D01*
X045731Y031886D01*
X045744Y031873D01*
X045758Y031863D01*
X045774Y031856D01*
X045791Y031852D01*
X045808Y031850D01*
X046508Y031850D01*
X046525Y031852D01*
X046542Y031856D01*
X046558Y031863D01*
X046572Y031873D01*
X046585Y031886D01*
X046595Y031900D01*
X046602Y031916D01*
X046606Y031933D01*
X046608Y031950D01*
X061470Y040038D02*
X061720Y039788D01*
X062220Y039788D01*
X062470Y040038D01*
X062720Y039788D01*
X063220Y039788D01*
X063470Y040038D01*
X063720Y039788D01*
X064220Y039788D01*
X064470Y040038D01*
X064720Y039788D01*
X065220Y039788D01*
X065470Y040038D01*
X065470Y040538D01*
X065220Y040788D01*
X064720Y040788D01*
X064470Y040538D01*
X064220Y040788D01*
X063720Y040788D01*
X063470Y040538D01*
X063220Y040788D01*
X062720Y040788D01*
X062470Y040538D01*
X062220Y040788D01*
X061720Y040788D01*
X061470Y040538D01*
X061470Y040038D01*
X049032Y046937D02*
X048926Y046830D01*
X048712Y046830D01*
X048605Y046937D01*
X049032Y047364D01*
X049032Y046937D01*
X048605Y046937D02*
X048605Y047364D01*
X048712Y047471D01*
X048926Y047471D01*
X049032Y047364D01*
X048388Y047364D02*
X048388Y047258D01*
X048281Y047151D01*
X048068Y047151D01*
X047961Y047258D01*
X047961Y047364D01*
X048068Y047471D01*
X048281Y047471D01*
X048388Y047364D01*
X048281Y047151D02*
X048388Y047044D01*
X048388Y046937D01*
X048281Y046830D01*
X048068Y046830D01*
X047961Y046937D01*
X047961Y047044D01*
X048068Y047151D01*
X047743Y047364D02*
X047316Y046937D01*
X047316Y046830D01*
X047743Y046830D01*
X047743Y047364D02*
X047743Y047471D01*
X047316Y047471D01*
X029095Y044925D02*
X029095Y043725D01*
X025345Y043725D01*
X025345Y044925D01*
X025345Y048075D01*
X006845Y048075D01*
X006845Y044925D01*
X006845Y043725D01*
X008195Y043725D01*
X008195Y042225D01*
X008195Y041225D01*
X008445Y040975D01*
X008745Y040975D01*
X008995Y041225D01*
X008995Y042225D01*
X008995Y042675D01*
X009195Y042875D01*
X009195Y043125D01*
X009495Y043125D01*
X009495Y042875D01*
X009695Y042675D01*
X009695Y042225D01*
X009695Y041225D01*
X009945Y040975D01*
X010245Y040975D01*
X010495Y041225D01*
X010495Y042225D01*
X010495Y042675D01*
X010695Y042875D01*
X010695Y043125D01*
X010995Y043125D01*
X010995Y042875D01*
X011195Y042675D01*
X011195Y042225D01*
X011195Y041225D01*
X011445Y040975D01*
X011745Y040975D01*
X011995Y041225D01*
X011995Y042225D01*
X011995Y042675D01*
X012195Y042875D01*
X012195Y043125D01*
X012495Y043125D01*
X012495Y042875D01*
X012695Y042675D01*
X012695Y042225D01*
X012695Y041225D01*
X012945Y040975D01*
X013245Y040975D01*
X013495Y041225D01*
X013495Y042225D01*
X013495Y042675D01*
X013695Y042875D01*
X013695Y043125D01*
X013995Y043125D01*
X013995Y042875D01*
X014195Y042675D01*
X014195Y042225D01*
X014195Y041225D01*
X014445Y040975D01*
X014745Y040975D01*
X014995Y041225D01*
X014995Y042225D01*
X014995Y042675D01*
X015195Y042875D01*
X015195Y043125D01*
X015495Y043125D01*
X015495Y042875D01*
X015695Y042675D01*
X015695Y042225D01*
X015695Y041225D01*
X015945Y040975D01*
X016245Y040975D01*
X016495Y041225D01*
X016495Y042225D01*
X016495Y042675D01*
X016695Y042875D01*
X016695Y043125D01*
X016995Y043125D01*
X016995Y042875D01*
X017195Y042675D01*
X017195Y042225D01*
X017195Y041225D01*
X017445Y040975D01*
X017745Y040975D01*
X017995Y041225D01*
X017995Y042225D01*
X017995Y042675D01*
X018195Y042875D01*
X018195Y043125D01*
X018495Y043125D01*
X018495Y042875D01*
X018695Y042675D01*
X018695Y042225D01*
X018695Y041225D01*
X018945Y040975D01*
X019245Y040975D01*
X019495Y041225D01*
X019495Y042225D01*
X019495Y042675D01*
X019695Y042875D01*
X019695Y043125D01*
X019995Y043125D01*
X019995Y042875D01*
X020195Y042675D01*
X020195Y042225D01*
X020195Y041225D01*
X020445Y040975D01*
X020745Y040975D01*
X020995Y041225D01*
X020995Y042225D01*
X020995Y042675D01*
X021195Y042875D01*
X021195Y043125D01*
X021495Y043125D01*
X021495Y042875D01*
X021695Y042675D01*
X021695Y042225D01*
X021695Y041225D01*
X021945Y040975D01*
X022245Y040975D01*
X022495Y041225D01*
X022495Y042225D01*
X022495Y042675D01*
X022695Y042875D01*
X022695Y043125D01*
X022995Y043125D01*
X022995Y042875D01*
X023195Y042675D01*
X023195Y042225D01*
X023195Y041225D01*
X023445Y040975D01*
X023745Y040975D01*
X023995Y041225D01*
X023995Y042225D01*
X023995Y043725D01*
X025345Y043725D01*
X025845Y042900D02*
X025845Y042750D01*
X025995Y042750D01*
X025845Y042750D02*
X025845Y042600D01*
X025845Y042750D02*
X025695Y042750D01*
X025345Y042750D02*
X025345Y042400D01*
X025845Y042400D01*
X025845Y042200D01*
X024845Y042200D01*
X024845Y042400D01*
X025345Y042400D01*
X024245Y042100D02*
X024247Y042166D01*
X024253Y042231D01*
X024263Y042296D01*
X024276Y042361D01*
X024294Y042424D01*
X024315Y042487D01*
X024340Y042547D01*
X024369Y042607D01*
X024401Y042664D01*
X024436Y042720D01*
X024475Y042773D01*
X024517Y042824D01*
X024561Y042872D01*
X024609Y042917D01*
X024659Y042960D01*
X024712Y042999D01*
X024767Y043036D01*
X024824Y043069D01*
X024883Y043098D01*
X024943Y043124D01*
X025005Y043146D01*
X025068Y043165D01*
X025132Y043179D01*
X025197Y043190D01*
X025263Y043197D01*
X025329Y043200D01*
X025394Y043199D01*
X025460Y043194D01*
X025525Y043185D01*
X025590Y043172D01*
X025653Y043156D01*
X025716Y043136D01*
X025777Y043111D01*
X025837Y043084D01*
X025895Y043053D01*
X025951Y043018D01*
X026005Y042980D01*
X026056Y042939D01*
X026105Y042895D01*
X026151Y042848D01*
X026195Y042799D01*
X026235Y042747D01*
X026272Y042692D01*
X026306Y042636D01*
X026336Y042577D01*
X026363Y042517D01*
X026386Y042456D01*
X026405Y042393D01*
X026421Y042329D01*
X026433Y042264D01*
X026441Y042199D01*
X026445Y042133D01*
X026445Y042067D01*
X026441Y042001D01*
X026433Y041936D01*
X026421Y041871D01*
X026405Y041807D01*
X026386Y041744D01*
X026363Y041683D01*
X026336Y041623D01*
X026306Y041564D01*
X026272Y041508D01*
X026235Y041453D01*
X026195Y041401D01*
X026151Y041352D01*
X026105Y041305D01*
X026056Y041261D01*
X026005Y041220D01*
X025951Y041182D01*
X025895Y041147D01*
X025837Y041116D01*
X025777Y041089D01*
X025716Y041064D01*
X025653Y041044D01*
X025590Y041028D01*
X025525Y041015D01*
X025460Y041006D01*
X025394Y041001D01*
X025329Y041000D01*
X025263Y041003D01*
X025197Y041010D01*
X025132Y041021D01*
X025068Y041035D01*
X025005Y041054D01*
X024943Y041076D01*
X024883Y041102D01*
X024824Y041131D01*
X024767Y041164D01*
X024712Y041201D01*
X024659Y041240D01*
X024609Y041283D01*
X024561Y041328D01*
X024517Y041376D01*
X024475Y041427D01*
X024436Y041480D01*
X024401Y041536D01*
X024369Y041593D01*
X024340Y041653D01*
X024315Y041713D01*
X024294Y041776D01*
X024276Y041839D01*
X024263Y041904D01*
X024253Y041969D01*
X024247Y042034D01*
X024245Y042100D01*
X025345Y041850D02*
X025345Y041450D01*
X027095Y040563D02*
X027095Y040213D01*
X027595Y040213D01*
X027595Y040013D01*
X026595Y040013D01*
X026595Y040213D01*
X027095Y040213D01*
X025495Y039913D02*
X025497Y039993D01*
X025503Y040072D01*
X025513Y040151D01*
X025527Y040230D01*
X025544Y040308D01*
X025566Y040385D01*
X025591Y040460D01*
X025621Y040534D01*
X025653Y040607D01*
X025690Y040678D01*
X025730Y040747D01*
X025773Y040814D01*
X025820Y040879D01*
X025869Y040941D01*
X025922Y041001D01*
X025978Y041058D01*
X026036Y041113D01*
X026097Y041164D01*
X026161Y041212D01*
X026227Y041257D01*
X026295Y041299D01*
X026365Y041337D01*
X026437Y041371D01*
X026510Y041402D01*
X026585Y041430D01*
X026662Y041453D01*
X026739Y041473D01*
X026817Y041489D01*
X026896Y041501D01*
X026975Y041509D01*
X027055Y041513D01*
X027135Y041513D01*
X027215Y041509D01*
X027294Y041501D01*
X027373Y041489D01*
X027451Y041473D01*
X027528Y041453D01*
X027605Y041430D01*
X027680Y041402D01*
X027753Y041371D01*
X027825Y041337D01*
X027895Y041299D01*
X027963Y041257D01*
X028029Y041212D01*
X028093Y041164D01*
X028154Y041113D01*
X028212Y041058D01*
X028268Y041001D01*
X028321Y040941D01*
X028370Y040879D01*
X028417Y040814D01*
X028460Y040747D01*
X028500Y040678D01*
X028537Y040607D01*
X028569Y040534D01*
X028599Y040460D01*
X028624Y040385D01*
X028646Y040308D01*
X028663Y040230D01*
X028677Y040151D01*
X028687Y040072D01*
X028693Y039993D01*
X028695Y039913D01*
X028693Y039833D01*
X028687Y039754D01*
X028677Y039675D01*
X028663Y039596D01*
X028646Y039518D01*
X028624Y039441D01*
X028599Y039366D01*
X028569Y039292D01*
X028537Y039219D01*
X028500Y039148D01*
X028460Y039079D01*
X028417Y039012D01*
X028370Y038947D01*
X028321Y038885D01*
X028268Y038825D01*
X028212Y038768D01*
X028154Y038713D01*
X028093Y038662D01*
X028029Y038614D01*
X027963Y038569D01*
X027895Y038527D01*
X027825Y038489D01*
X027753Y038455D01*
X027680Y038424D01*
X027605Y038396D01*
X027528Y038373D01*
X027451Y038353D01*
X027373Y038337D01*
X027294Y038325D01*
X027215Y038317D01*
X027135Y038313D01*
X027055Y038313D01*
X026975Y038317D01*
X026896Y038325D01*
X026817Y038337D01*
X026739Y038353D01*
X026662Y038373D01*
X026585Y038396D01*
X026510Y038424D01*
X026437Y038455D01*
X026365Y038489D01*
X026295Y038527D01*
X026227Y038569D01*
X026161Y038614D01*
X026097Y038662D01*
X026036Y038713D01*
X025978Y038768D01*
X025922Y038825D01*
X025869Y038885D01*
X025820Y038947D01*
X025773Y039012D01*
X025730Y039079D01*
X025690Y039148D01*
X025653Y039219D01*
X025621Y039292D01*
X025591Y039366D01*
X025566Y039441D01*
X025544Y039518D01*
X025527Y039596D01*
X025513Y039675D01*
X025503Y039754D01*
X025497Y039833D01*
X025495Y039913D01*
X024495Y039475D02*
X024145Y039475D01*
X024145Y038975D01*
X023945Y038975D01*
X023945Y039975D01*
X024145Y039975D01*
X024145Y039475D01*
X022845Y039475D02*
X022847Y039538D01*
X022853Y039600D01*
X022863Y039662D01*
X022876Y039724D01*
X022894Y039784D01*
X022915Y039843D01*
X022940Y039901D01*
X022969Y039957D01*
X023001Y040011D01*
X023036Y040063D01*
X023074Y040112D01*
X023116Y040160D01*
X023160Y040204D01*
X023208Y040246D01*
X023257Y040284D01*
X023309Y040319D01*
X023363Y040351D01*
X023419Y040380D01*
X023477Y040405D01*
X023536Y040426D01*
X023596Y040444D01*
X023658Y040457D01*
X023720Y040467D01*
X023782Y040473D01*
X023845Y040475D01*
X023908Y040473D01*
X023970Y040467D01*
X024032Y040457D01*
X024094Y040444D01*
X024154Y040426D01*
X024213Y040405D01*
X024271Y040380D01*
X024327Y040351D01*
X024381Y040319D01*
X024433Y040284D01*
X024482Y040246D01*
X024530Y040204D01*
X024574Y040160D01*
X024616Y040112D01*
X024654Y040063D01*
X024689Y040011D01*
X024721Y039957D01*
X024750Y039901D01*
X024775Y039843D01*
X024796Y039784D01*
X024814Y039724D01*
X024827Y039662D01*
X024837Y039600D01*
X024843Y039538D01*
X024845Y039475D01*
X024843Y039412D01*
X024837Y039350D01*
X024827Y039288D01*
X024814Y039226D01*
X024796Y039166D01*
X024775Y039107D01*
X024750Y039049D01*
X024721Y038993D01*
X024689Y038939D01*
X024654Y038887D01*
X024616Y038838D01*
X024574Y038790D01*
X024530Y038746D01*
X024482Y038704D01*
X024433Y038666D01*
X024381Y038631D01*
X024327Y038599D01*
X024271Y038570D01*
X024213Y038545D01*
X024154Y038524D01*
X024094Y038506D01*
X024032Y038493D01*
X023970Y038483D01*
X023908Y038477D01*
X023845Y038475D01*
X023782Y038477D01*
X023720Y038483D01*
X023658Y038493D01*
X023596Y038506D01*
X023536Y038524D01*
X023477Y038545D01*
X023419Y038570D01*
X023363Y038599D01*
X023309Y038631D01*
X023257Y038666D01*
X023208Y038704D01*
X023160Y038746D01*
X023116Y038790D01*
X023074Y038838D01*
X023036Y038887D01*
X023001Y038939D01*
X022969Y038993D01*
X022940Y039049D01*
X022915Y039107D01*
X022894Y039166D01*
X022876Y039226D01*
X022863Y039288D01*
X022853Y039350D01*
X022847Y039412D01*
X022845Y039475D01*
X023195Y039475D02*
X023595Y039475D01*
X024295Y038975D02*
X024395Y038975D01*
X024395Y038875D01*
X024395Y038975D02*
X024395Y039075D01*
X024395Y038975D02*
X024495Y038975D01*
X027095Y039263D02*
X027095Y039663D01*
X027545Y040963D02*
X027545Y041263D01*
X027395Y041113D02*
X027695Y041113D01*
X027595Y043325D02*
X027595Y045325D01*
X029095Y044925D02*
X025345Y044925D01*
X023995Y043725D02*
X023445Y043725D01*
X022245Y043725D01*
X021945Y043725D01*
X020745Y043725D01*
X020445Y043725D01*
X019245Y043725D01*
X018945Y043725D01*
X017745Y043725D01*
X017445Y043725D01*
X016245Y043725D01*
X015945Y043725D01*
X014745Y043725D01*
X014445Y043725D01*
X013245Y043725D01*
X012945Y043725D01*
X011745Y043725D01*
X011445Y043725D01*
X010245Y043725D01*
X009945Y043725D01*
X008745Y043725D01*
X008195Y043725D01*
X006845Y043725D02*
X003095Y043725D01*
X003095Y044925D01*
X006845Y044925D01*
X004595Y045325D02*
X004595Y043325D01*
X004345Y042100D02*
X004845Y042100D01*
X005095Y041850D01*
X005345Y042100D01*
X005845Y042100D01*
X006095Y041850D01*
X006095Y041350D01*
X005845Y041100D01*
X005345Y041100D01*
X005095Y041350D01*
X004845Y041100D01*
X004345Y041100D01*
X004095Y041350D01*
X003845Y041100D01*
X003345Y041100D01*
X003095Y041350D01*
X003095Y041850D01*
X003345Y042100D01*
X003845Y042100D01*
X004095Y041850D01*
X004345Y042100D01*
X002520Y040788D02*
X002320Y040788D01*
X002320Y039788D01*
X002520Y039788D01*
X002520Y040288D01*
X002520Y040788D01*
X002520Y040288D02*
X002870Y040288D01*
X002870Y039938D02*
X002870Y039788D01*
X002870Y039638D01*
X002870Y039788D02*
X002720Y039788D01*
X002870Y039788D02*
X003020Y039788D01*
X001120Y040288D02*
X001122Y040354D01*
X001128Y040419D01*
X001138Y040484D01*
X001151Y040549D01*
X001169Y040612D01*
X001190Y040675D01*
X001215Y040735D01*
X001244Y040795D01*
X001276Y040852D01*
X001311Y040908D01*
X001350Y040961D01*
X001392Y041012D01*
X001436Y041060D01*
X001484Y041105D01*
X001534Y041148D01*
X001587Y041187D01*
X001642Y041224D01*
X001699Y041257D01*
X001758Y041286D01*
X001818Y041312D01*
X001880Y041334D01*
X001943Y041353D01*
X002007Y041367D01*
X002072Y041378D01*
X002138Y041385D01*
X002204Y041388D01*
X002269Y041387D01*
X002335Y041382D01*
X002400Y041373D01*
X002465Y041360D01*
X002528Y041344D01*
X002591Y041324D01*
X002652Y041299D01*
X002712Y041272D01*
X002770Y041241D01*
X002826Y041206D01*
X002880Y041168D01*
X002931Y041127D01*
X002980Y041083D01*
X003026Y041036D01*
X003070Y040987D01*
X003110Y040935D01*
X003147Y040880D01*
X003181Y040824D01*
X003211Y040765D01*
X003238Y040705D01*
X003261Y040644D01*
X003280Y040581D01*
X003296Y040517D01*
X003308Y040452D01*
X003316Y040387D01*
X003320Y040321D01*
X003320Y040255D01*
X003316Y040189D01*
X003308Y040124D01*
X003296Y040059D01*
X003280Y039995D01*
X003261Y039932D01*
X003238Y039871D01*
X003211Y039811D01*
X003181Y039752D01*
X003147Y039696D01*
X003110Y039641D01*
X003070Y039589D01*
X003026Y039540D01*
X002980Y039493D01*
X002931Y039449D01*
X002880Y039408D01*
X002826Y039370D01*
X002770Y039335D01*
X002712Y039304D01*
X002652Y039277D01*
X002591Y039252D01*
X002528Y039232D01*
X002465Y039216D01*
X002400Y039203D01*
X002335Y039194D01*
X002269Y039189D01*
X002204Y039188D01*
X002138Y039191D01*
X002072Y039198D01*
X002007Y039209D01*
X001943Y039223D01*
X001880Y039242D01*
X001818Y039264D01*
X001758Y039290D01*
X001699Y039319D01*
X001642Y039352D01*
X001587Y039389D01*
X001534Y039428D01*
X001484Y039471D01*
X001436Y039516D01*
X001392Y039564D01*
X001350Y039615D01*
X001311Y039668D01*
X001276Y039724D01*
X001244Y039781D01*
X001215Y039841D01*
X001190Y039901D01*
X001169Y039964D01*
X001151Y040027D01*
X001138Y040092D01*
X001128Y040157D01*
X001122Y040222D01*
X001120Y040288D01*
X001570Y040288D02*
X001970Y040288D01*
X010320Y039725D02*
X010720Y039725D01*
X009970Y039725D02*
X009972Y039788D01*
X009978Y039850D01*
X009988Y039912D01*
X010001Y039974D01*
X010019Y040034D01*
X010040Y040093D01*
X010065Y040151D01*
X010094Y040207D01*
X010126Y040261D01*
X010161Y040313D01*
X010199Y040362D01*
X010241Y040410D01*
X010285Y040454D01*
X010333Y040496D01*
X010382Y040534D01*
X010434Y040569D01*
X010488Y040601D01*
X010544Y040630D01*
X010602Y040655D01*
X010661Y040676D01*
X010721Y040694D01*
X010783Y040707D01*
X010845Y040717D01*
X010907Y040723D01*
X010970Y040725D01*
X011033Y040723D01*
X011095Y040717D01*
X011157Y040707D01*
X011219Y040694D01*
X011279Y040676D01*
X011338Y040655D01*
X011396Y040630D01*
X011452Y040601D01*
X011506Y040569D01*
X011558Y040534D01*
X011607Y040496D01*
X011655Y040454D01*
X011699Y040410D01*
X011741Y040362D01*
X011779Y040313D01*
X011814Y040261D01*
X011846Y040207D01*
X011875Y040151D01*
X011900Y040093D01*
X011921Y040034D01*
X011939Y039974D01*
X011952Y039912D01*
X011962Y039850D01*
X011968Y039788D01*
X011970Y039725D01*
X011968Y039662D01*
X011962Y039600D01*
X011952Y039538D01*
X011939Y039476D01*
X011921Y039416D01*
X011900Y039357D01*
X011875Y039299D01*
X011846Y039243D01*
X011814Y039189D01*
X011779Y039137D01*
X011741Y039088D01*
X011699Y039040D01*
X011655Y038996D01*
X011607Y038954D01*
X011558Y038916D01*
X011506Y038881D01*
X011452Y038849D01*
X011396Y038820D01*
X011338Y038795D01*
X011279Y038774D01*
X011219Y038756D01*
X011157Y038743D01*
X011095Y038733D01*
X011033Y038727D01*
X010970Y038725D01*
X010907Y038727D01*
X010845Y038733D01*
X010783Y038743D01*
X010721Y038756D01*
X010661Y038774D01*
X010602Y038795D01*
X010544Y038820D01*
X010488Y038849D01*
X010434Y038881D01*
X010382Y038916D01*
X010333Y038954D01*
X010285Y038996D01*
X010241Y039040D01*
X010199Y039088D01*
X010161Y039137D01*
X010126Y039189D01*
X010094Y039243D01*
X010065Y039299D01*
X010040Y039357D01*
X010019Y039416D01*
X010001Y039476D01*
X009988Y039538D01*
X009978Y039600D01*
X009972Y039662D01*
X009970Y039725D01*
X011070Y040225D02*
X011070Y039225D01*
X011270Y039225D01*
X011270Y039725D01*
X011270Y040225D01*
X011070Y040225D01*
X011270Y039725D02*
X011620Y039725D01*
X011520Y039325D02*
X011520Y039225D01*
X011520Y039125D01*
X011520Y039225D02*
X011420Y039225D01*
X011520Y039225D02*
X011620Y039225D01*
X012945Y040100D02*
X013345Y040100D01*
X012495Y040100D02*
X012497Y040166D01*
X012503Y040231D01*
X012513Y040296D01*
X012526Y040361D01*
X012544Y040424D01*
X012565Y040487D01*
X012590Y040547D01*
X012619Y040607D01*
X012651Y040664D01*
X012686Y040720D01*
X012725Y040773D01*
X012767Y040824D01*
X012811Y040872D01*
X012859Y040917D01*
X012909Y040960D01*
X012962Y040999D01*
X013017Y041036D01*
X013074Y041069D01*
X013133Y041098D01*
X013193Y041124D01*
X013255Y041146D01*
X013318Y041165D01*
X013382Y041179D01*
X013447Y041190D01*
X013513Y041197D01*
X013579Y041200D01*
X013644Y041199D01*
X013710Y041194D01*
X013775Y041185D01*
X013840Y041172D01*
X013903Y041156D01*
X013966Y041136D01*
X014027Y041111D01*
X014087Y041084D01*
X014145Y041053D01*
X014201Y041018D01*
X014255Y040980D01*
X014306Y040939D01*
X014355Y040895D01*
X014401Y040848D01*
X014445Y040799D01*
X014485Y040747D01*
X014522Y040692D01*
X014556Y040636D01*
X014586Y040577D01*
X014613Y040517D01*
X014636Y040456D01*
X014655Y040393D01*
X014671Y040329D01*
X014683Y040264D01*
X014691Y040199D01*
X014695Y040133D01*
X014695Y040067D01*
X014691Y040001D01*
X014683Y039936D01*
X014671Y039871D01*
X014655Y039807D01*
X014636Y039744D01*
X014613Y039683D01*
X014586Y039623D01*
X014556Y039564D01*
X014522Y039508D01*
X014485Y039453D01*
X014445Y039401D01*
X014401Y039352D01*
X014355Y039305D01*
X014306Y039261D01*
X014255Y039220D01*
X014201Y039182D01*
X014145Y039147D01*
X014087Y039116D01*
X014027Y039089D01*
X013966Y039064D01*
X013903Y039044D01*
X013840Y039028D01*
X013775Y039015D01*
X013710Y039006D01*
X013644Y039001D01*
X013579Y039000D01*
X013513Y039003D01*
X013447Y039010D01*
X013382Y039021D01*
X013318Y039035D01*
X013255Y039054D01*
X013193Y039076D01*
X013133Y039102D01*
X013074Y039131D01*
X013017Y039164D01*
X012962Y039201D01*
X012909Y039240D01*
X012859Y039283D01*
X012811Y039328D01*
X012767Y039376D01*
X012725Y039427D01*
X012686Y039480D01*
X012651Y039536D01*
X012619Y039593D01*
X012590Y039653D01*
X012565Y039713D01*
X012544Y039776D01*
X012526Y039839D01*
X012513Y039904D01*
X012503Y039969D01*
X012497Y040034D01*
X012495Y040100D01*
X013695Y039600D02*
X013895Y039600D01*
X013895Y040100D01*
X013895Y040600D01*
X013695Y040600D01*
X013695Y039600D01*
X014095Y039600D02*
X014245Y039600D01*
X014245Y039450D01*
X014245Y039600D02*
X014245Y039750D01*
X014245Y039600D02*
X014395Y039600D01*
X014245Y040100D02*
X013895Y040100D01*
X015695Y040100D02*
X016095Y040100D01*
X015245Y040100D02*
X015247Y040166D01*
X015253Y040231D01*
X015263Y040296D01*
X015276Y040361D01*
X015294Y040424D01*
X015315Y040487D01*
X015340Y040547D01*
X015369Y040607D01*
X015401Y040664D01*
X015436Y040720D01*
X015475Y040773D01*
X015517Y040824D01*
X015561Y040872D01*
X015609Y040917D01*
X015659Y040960D01*
X015712Y040999D01*
X015767Y041036D01*
X015824Y041069D01*
X015883Y041098D01*
X015943Y041124D01*
X016005Y041146D01*
X016068Y041165D01*
X016132Y041179D01*
X016197Y041190D01*
X016263Y041197D01*
X016329Y041200D01*
X016394Y041199D01*
X016460Y041194D01*
X016525Y041185D01*
X016590Y041172D01*
X016653Y041156D01*
X016716Y041136D01*
X016777Y041111D01*
X016837Y041084D01*
X016895Y041053D01*
X016951Y041018D01*
X017005Y040980D01*
X017056Y040939D01*
X017105Y040895D01*
X017151Y040848D01*
X017195Y040799D01*
X017235Y040747D01*
X017272Y040692D01*
X017306Y040636D01*
X017336Y040577D01*
X017363Y040517D01*
X017386Y040456D01*
X017405Y040393D01*
X017421Y040329D01*
X017433Y040264D01*
X017441Y040199D01*
X017445Y040133D01*
X017445Y040067D01*
X017441Y040001D01*
X017433Y039936D01*
X017421Y039871D01*
X017405Y039807D01*
X017386Y039744D01*
X017363Y039683D01*
X017336Y039623D01*
X017306Y039564D01*
X017272Y039508D01*
X017235Y039453D01*
X017195Y039401D01*
X017151Y039352D01*
X017105Y039305D01*
X017056Y039261D01*
X017005Y039220D01*
X016951Y039182D01*
X016895Y039147D01*
X016837Y039116D01*
X016777Y039089D01*
X016716Y039064D01*
X016653Y039044D01*
X016590Y039028D01*
X016525Y039015D01*
X016460Y039006D01*
X016394Y039001D01*
X016329Y039000D01*
X016263Y039003D01*
X016197Y039010D01*
X016132Y039021D01*
X016068Y039035D01*
X016005Y039054D01*
X015943Y039076D01*
X015883Y039102D01*
X015824Y039131D01*
X015767Y039164D01*
X015712Y039201D01*
X015659Y039240D01*
X015609Y039283D01*
X015561Y039328D01*
X015517Y039376D01*
X015475Y039427D01*
X015436Y039480D01*
X015401Y039536D01*
X015369Y039593D01*
X015340Y039653D01*
X015315Y039713D01*
X015294Y039776D01*
X015276Y039839D01*
X015263Y039904D01*
X015253Y039969D01*
X015247Y040034D01*
X015245Y040100D01*
X016445Y039600D02*
X016645Y039600D01*
X016645Y040100D01*
X016645Y040600D01*
X016445Y040600D01*
X016445Y039600D01*
X016845Y039600D02*
X016995Y039600D01*
X016995Y039450D01*
X016995Y039600D02*
X016995Y039750D01*
X016995Y039600D02*
X017145Y039600D01*
X016995Y040100D02*
X016645Y040100D01*
X018695Y040100D02*
X019095Y040100D01*
X018245Y040100D02*
X018247Y040166D01*
X018253Y040231D01*
X018263Y040296D01*
X018276Y040361D01*
X018294Y040424D01*
X018315Y040487D01*
X018340Y040547D01*
X018369Y040607D01*
X018401Y040664D01*
X018436Y040720D01*
X018475Y040773D01*
X018517Y040824D01*
X018561Y040872D01*
X018609Y040917D01*
X018659Y040960D01*
X018712Y040999D01*
X018767Y041036D01*
X018824Y041069D01*
X018883Y041098D01*
X018943Y041124D01*
X019005Y041146D01*
X019068Y041165D01*
X019132Y041179D01*
X019197Y041190D01*
X019263Y041197D01*
X019329Y041200D01*
X019394Y041199D01*
X019460Y041194D01*
X019525Y041185D01*
X019590Y041172D01*
X019653Y041156D01*
X019716Y041136D01*
X019777Y041111D01*
X019837Y041084D01*
X019895Y041053D01*
X019951Y041018D01*
X020005Y040980D01*
X020056Y040939D01*
X020105Y040895D01*
X020151Y040848D01*
X020195Y040799D01*
X020235Y040747D01*
X020272Y040692D01*
X020306Y040636D01*
X020336Y040577D01*
X020363Y040517D01*
X020386Y040456D01*
X020405Y040393D01*
X020421Y040329D01*
X020433Y040264D01*
X020441Y040199D01*
X020445Y040133D01*
X020445Y040067D01*
X020441Y040001D01*
X020433Y039936D01*
X020421Y039871D01*
X020405Y039807D01*
X020386Y039744D01*
X020363Y039683D01*
X020336Y039623D01*
X020306Y039564D01*
X020272Y039508D01*
X020235Y039453D01*
X020195Y039401D01*
X020151Y039352D01*
X020105Y039305D01*
X020056Y039261D01*
X020005Y039220D01*
X019951Y039182D01*
X019895Y039147D01*
X019837Y039116D01*
X019777Y039089D01*
X019716Y039064D01*
X019653Y039044D01*
X019590Y039028D01*
X019525Y039015D01*
X019460Y039006D01*
X019394Y039001D01*
X019329Y039000D01*
X019263Y039003D01*
X019197Y039010D01*
X019132Y039021D01*
X019068Y039035D01*
X019005Y039054D01*
X018943Y039076D01*
X018883Y039102D01*
X018824Y039131D01*
X018767Y039164D01*
X018712Y039201D01*
X018659Y039240D01*
X018609Y039283D01*
X018561Y039328D01*
X018517Y039376D01*
X018475Y039427D01*
X018436Y039480D01*
X018401Y039536D01*
X018369Y039593D01*
X018340Y039653D01*
X018315Y039713D01*
X018294Y039776D01*
X018276Y039839D01*
X018263Y039904D01*
X018253Y039969D01*
X018247Y040034D01*
X018245Y040100D01*
X019445Y039600D02*
X019645Y039600D01*
X019645Y040100D01*
X019645Y040600D01*
X019445Y040600D01*
X019445Y039600D01*
X019845Y039600D02*
X019995Y039600D01*
X019995Y039450D01*
X019995Y039600D02*
X019995Y039750D01*
X019995Y039600D02*
X020145Y039600D01*
X019995Y040100D02*
X019645Y040100D01*
X008095Y020975D02*
X008095Y020595D01*
X008095Y019855D02*
X008095Y019475D01*
X009245Y018475D02*
X009243Y018445D01*
X009238Y018415D01*
X009229Y018386D01*
X009216Y018359D01*
X009201Y018333D01*
X009182Y018309D01*
X009161Y018288D01*
X009137Y018269D01*
X009111Y018254D01*
X009084Y018241D01*
X009055Y018232D01*
X009025Y018227D01*
X008995Y018225D01*
X004095Y018225D01*
X003345Y017887D02*
X003345Y017564D01*
X002845Y017564D02*
X002845Y017887D01*
X003283Y012733D02*
X004038Y012733D01*
X004038Y012093D02*
X003283Y012093D01*
X016520Y012225D02*
X016570Y012175D01*
X016570Y010275D01*
X016520Y010225D01*
X016520Y010075D01*
X016522Y010058D01*
X016526Y010041D01*
X016533Y010025D01*
X016543Y010011D01*
X016556Y009998D01*
X016570Y009988D01*
X016586Y009981D01*
X016603Y009977D01*
X016620Y009975D01*
X017320Y009975D01*
X017337Y009977D01*
X017354Y009981D01*
X017370Y009988D01*
X017384Y009998D01*
X017397Y010011D01*
X017407Y010025D01*
X017414Y010041D01*
X017418Y010058D01*
X017420Y010075D01*
X017420Y010225D01*
X017370Y010275D01*
X017370Y012175D01*
X017420Y012225D01*
X017420Y012375D01*
X017418Y012392D01*
X017414Y012409D01*
X017407Y012425D01*
X017397Y012439D01*
X017384Y012452D01*
X017370Y012462D01*
X017354Y012469D01*
X017337Y012473D01*
X017320Y012475D01*
X016620Y012475D01*
X016603Y012473D01*
X016586Y012469D01*
X016570Y012462D01*
X016556Y012452D01*
X016543Y012439D01*
X016533Y012425D01*
X016526Y012409D01*
X016522Y012392D01*
X016520Y012375D01*
X016520Y012225D01*
X016161Y007354D02*
X016163Y007395D01*
X016169Y007436D01*
X016179Y007476D01*
X016192Y007515D01*
X016209Y007553D01*
X016230Y007589D01*
X016254Y007622D01*
X016281Y007653D01*
X016311Y007682D01*
X016343Y007708D01*
X016378Y007730D01*
X016415Y007749D01*
X016453Y007764D01*
X016493Y007776D01*
X016533Y007784D01*
X016574Y007788D01*
X016616Y007788D01*
X016657Y007784D01*
X016697Y007776D01*
X016737Y007764D01*
X016775Y007749D01*
X016812Y007730D01*
X016847Y007708D01*
X016879Y007682D01*
X016909Y007653D01*
X016936Y007622D01*
X016960Y007589D01*
X016981Y007553D01*
X016998Y007515D01*
X017011Y007476D01*
X017021Y007436D01*
X017027Y007395D01*
X017029Y007354D01*
X017027Y007313D01*
X017021Y007272D01*
X017011Y007232D01*
X016998Y007193D01*
X016981Y007155D01*
X016960Y007119D01*
X016936Y007086D01*
X016909Y007055D01*
X016879Y007026D01*
X016847Y007000D01*
X016812Y006978D01*
X016775Y006959D01*
X016737Y006944D01*
X016697Y006932D01*
X016657Y006924D01*
X016616Y006920D01*
X016574Y006920D01*
X016533Y006924D01*
X016493Y006932D01*
X016453Y006944D01*
X016415Y006959D01*
X016378Y006978D01*
X016343Y007000D01*
X016311Y007026D01*
X016281Y007055D01*
X016254Y007086D01*
X016230Y007119D01*
X016209Y007155D01*
X016192Y007193D01*
X016179Y007232D01*
X016169Y007272D01*
X016163Y007313D01*
X016161Y007354D01*
X018161Y007354D02*
X018163Y007395D01*
X018169Y007436D01*
X018179Y007476D01*
X018192Y007515D01*
X018209Y007553D01*
X018230Y007589D01*
X018254Y007622D01*
X018281Y007653D01*
X018311Y007682D01*
X018343Y007708D01*
X018378Y007730D01*
X018415Y007749D01*
X018453Y007764D01*
X018493Y007776D01*
X018533Y007784D01*
X018574Y007788D01*
X018616Y007788D01*
X018657Y007784D01*
X018697Y007776D01*
X018737Y007764D01*
X018775Y007749D01*
X018812Y007730D01*
X018847Y007708D01*
X018879Y007682D01*
X018909Y007653D01*
X018936Y007622D01*
X018960Y007589D01*
X018981Y007553D01*
X018998Y007515D01*
X019011Y007476D01*
X019021Y007436D01*
X019027Y007395D01*
X019029Y007354D01*
X019027Y007313D01*
X019021Y007272D01*
X019011Y007232D01*
X018998Y007193D01*
X018981Y007155D01*
X018960Y007119D01*
X018936Y007086D01*
X018909Y007055D01*
X018879Y007026D01*
X018847Y007000D01*
X018812Y006978D01*
X018775Y006959D01*
X018737Y006944D01*
X018697Y006932D01*
X018657Y006924D01*
X018616Y006920D01*
X018574Y006920D01*
X018533Y006924D01*
X018493Y006932D01*
X018453Y006944D01*
X018415Y006959D01*
X018378Y006978D01*
X018343Y007000D01*
X018311Y007026D01*
X018281Y007055D01*
X018254Y007086D01*
X018230Y007119D01*
X018209Y007155D01*
X018192Y007193D01*
X018179Y007232D01*
X018169Y007272D01*
X018163Y007313D01*
X018161Y007354D01*
X020036Y007354D02*
X020038Y007395D01*
X020044Y007436D01*
X020054Y007476D01*
X020067Y007515D01*
X020084Y007553D01*
X020105Y007589D01*
X020129Y007622D01*
X020156Y007653D01*
X020186Y007682D01*
X020218Y007708D01*
X020253Y007730D01*
X020290Y007749D01*
X020328Y007764D01*
X020368Y007776D01*
X020408Y007784D01*
X020449Y007788D01*
X020491Y007788D01*
X020532Y007784D01*
X020572Y007776D01*
X020612Y007764D01*
X020650Y007749D01*
X020687Y007730D01*
X020722Y007708D01*
X020754Y007682D01*
X020784Y007653D01*
X020811Y007622D01*
X020835Y007589D01*
X020856Y007553D01*
X020873Y007515D01*
X020886Y007476D01*
X020896Y007436D01*
X020902Y007395D01*
X020904Y007354D01*
X020902Y007313D01*
X020896Y007272D01*
X020886Y007232D01*
X020873Y007193D01*
X020856Y007155D01*
X020835Y007119D01*
X020811Y007086D01*
X020784Y007055D01*
X020754Y007026D01*
X020722Y007000D01*
X020687Y006978D01*
X020650Y006959D01*
X020612Y006944D01*
X020572Y006932D01*
X020532Y006924D01*
X020491Y006920D01*
X020449Y006920D01*
X020408Y006924D01*
X020368Y006932D01*
X020328Y006944D01*
X020290Y006959D01*
X020253Y006978D01*
X020218Y007000D01*
X020186Y007026D01*
X020156Y007055D01*
X020129Y007086D01*
X020105Y007119D01*
X020084Y007155D01*
X020067Y007193D01*
X020054Y007232D01*
X020044Y007272D01*
X020038Y007313D01*
X020036Y007354D01*
X022036Y007354D02*
X022038Y007395D01*
X022044Y007436D01*
X022054Y007476D01*
X022067Y007515D01*
X022084Y007553D01*
X022105Y007589D01*
X022129Y007622D01*
X022156Y007653D01*
X022186Y007682D01*
X022218Y007708D01*
X022253Y007730D01*
X022290Y007749D01*
X022328Y007764D01*
X022368Y007776D01*
X022408Y007784D01*
X022449Y007788D01*
X022491Y007788D01*
X022532Y007784D01*
X022572Y007776D01*
X022612Y007764D01*
X022650Y007749D01*
X022687Y007730D01*
X022722Y007708D01*
X022754Y007682D01*
X022784Y007653D01*
X022811Y007622D01*
X022835Y007589D01*
X022856Y007553D01*
X022873Y007515D01*
X022886Y007476D01*
X022896Y007436D01*
X022902Y007395D01*
X022904Y007354D01*
X022902Y007313D01*
X022896Y007272D01*
X022886Y007232D01*
X022873Y007193D01*
X022856Y007155D01*
X022835Y007119D01*
X022811Y007086D01*
X022784Y007055D01*
X022754Y007026D01*
X022722Y007000D01*
X022687Y006978D01*
X022650Y006959D01*
X022612Y006944D01*
X022572Y006932D01*
X022532Y006924D01*
X022491Y006920D01*
X022449Y006920D01*
X022408Y006924D01*
X022368Y006932D01*
X022328Y006944D01*
X022290Y006959D01*
X022253Y006978D01*
X022218Y007000D01*
X022186Y007026D01*
X022156Y007055D01*
X022129Y007086D01*
X022105Y007119D01*
X022084Y007155D01*
X022067Y007193D01*
X022054Y007232D01*
X022044Y007272D01*
X022038Y007313D01*
X022036Y007354D01*
X023500Y007505D02*
X023820Y007505D01*
X023927Y007612D01*
X023927Y008039D01*
X023820Y008146D01*
X023500Y008146D01*
X023500Y007505D01*
X024145Y007505D02*
X024145Y008146D01*
X024465Y008146D01*
X024572Y008039D01*
X024572Y007612D01*
X024465Y007505D01*
X024145Y007505D01*
X024789Y007505D02*
X025216Y007933D01*
X025216Y008039D01*
X025109Y008146D01*
X024896Y008146D01*
X024789Y008039D01*
X024789Y007505D02*
X025216Y007505D01*
X025875Y007505D02*
X026302Y007505D01*
X026520Y007505D02*
X026520Y008146D01*
X026840Y008146D01*
X026947Y008039D01*
X026947Y007826D01*
X026840Y007719D01*
X026520Y007719D01*
X026089Y007826D02*
X025875Y007826D01*
X025875Y008146D02*
X025875Y007505D01*
X025875Y008146D02*
X026302Y008146D01*
X027164Y008146D02*
X027164Y007505D01*
X027591Y007505D02*
X027591Y008146D01*
X027378Y007933D01*
X027164Y008146D01*
X027809Y008146D02*
X028236Y008146D01*
X028236Y008039D01*
X027809Y007612D01*
X027809Y007505D01*
X028453Y007505D02*
X028880Y007505D01*
X028667Y007505D02*
X028667Y008146D01*
X028453Y007933D01*
X029098Y008039D02*
X029205Y008146D01*
X029418Y008146D01*
X029525Y008039D01*
X029525Y007933D01*
X029098Y007505D01*
X029525Y007505D01*
X029742Y007612D02*
X029742Y007719D01*
X029849Y007826D01*
X030063Y007826D01*
X030169Y007719D01*
X030169Y007612D01*
X030063Y007505D01*
X029849Y007505D01*
X029742Y007612D01*
X029849Y007826D02*
X029742Y007933D01*
X029742Y008039D01*
X029849Y008146D01*
X030063Y008146D01*
X030169Y008039D01*
X030169Y007933D01*
X030063Y007826D01*
X030387Y007933D02*
X030494Y007826D01*
X030707Y007826D01*
X030814Y007719D01*
X030814Y007612D01*
X030707Y007505D01*
X030494Y007505D01*
X030387Y007612D01*
X030387Y007933D02*
X030387Y008039D01*
X030494Y008146D01*
X030707Y008146D01*
X030814Y008039D01*
X031031Y008146D02*
X031031Y007505D01*
X031458Y007505D01*
X031676Y007612D02*
X031783Y007505D01*
X031996Y007505D01*
X032103Y007612D01*
X032320Y007612D02*
X032320Y007719D01*
X032427Y007826D01*
X032641Y007826D01*
X032748Y007719D01*
X032748Y007612D01*
X032641Y007505D01*
X032427Y007505D01*
X032320Y007612D01*
X032427Y007826D02*
X032320Y007933D01*
X032320Y008039D01*
X032427Y008146D01*
X032641Y008146D01*
X032748Y008039D01*
X032748Y007933D01*
X032641Y007826D01*
X032965Y007826D02*
X033285Y008146D01*
X033285Y007505D01*
X033392Y007826D02*
X032965Y007826D01*
X033610Y007826D02*
X034037Y007826D01*
X034254Y007933D02*
X034468Y008146D01*
X034468Y007505D01*
X034681Y007505D02*
X034254Y007505D01*
X034899Y007612D02*
X035005Y007505D01*
X035219Y007505D01*
X035326Y007612D01*
X035326Y007826D01*
X035219Y007933D01*
X035112Y007933D01*
X034899Y007826D01*
X034899Y008146D01*
X035326Y008146D01*
X032103Y008039D02*
X031996Y008146D01*
X031783Y008146D01*
X031676Y008039D01*
X031676Y007612D01*
X053916Y004421D02*
X053916Y003780D01*
X054237Y003780D01*
X054343Y003887D01*
X054343Y004314D01*
X054237Y004421D01*
X053916Y004421D01*
X056427Y003780D02*
X056854Y003780D01*
X057072Y003780D02*
X057499Y003780D01*
X057285Y003780D02*
X057285Y004421D01*
X057716Y004314D02*
X057823Y004421D01*
X058037Y004421D01*
X058143Y004314D01*
X057716Y003887D01*
X057823Y003780D01*
X058037Y003780D01*
X058143Y003887D01*
X058143Y004314D01*
X058361Y004314D02*
X058468Y004421D01*
X058681Y004421D01*
X058788Y004314D01*
X058788Y004208D01*
X058361Y003780D01*
X058788Y003780D01*
X059005Y004101D02*
X059432Y004101D01*
X059326Y004421D02*
X059005Y004101D01*
X059326Y003780D02*
X059326Y004421D01*
X057716Y004314D02*
X057716Y003887D01*
D18*
X040129Y004871D02*
X040129Y004976D01*
X040023Y005081D01*
X039708Y005081D01*
X039708Y004871D01*
X039813Y004765D01*
X040023Y004765D01*
X040129Y004871D01*
X039918Y005291D02*
X039708Y005081D01*
X039484Y005081D02*
X039484Y004871D01*
X039379Y004765D01*
X039169Y004765D01*
X039064Y004871D01*
X039064Y005081D02*
X039274Y005186D01*
X039379Y005186D01*
X039484Y005081D01*
X039484Y005396D02*
X039064Y005396D01*
X039064Y005081D01*
X038839Y005186D02*
X038419Y004765D01*
X038839Y004765D01*
X038839Y005186D02*
X038839Y005291D01*
X038734Y005396D01*
X038524Y005396D01*
X038419Y005291D01*
X038195Y005291D02*
X038090Y005396D01*
X037880Y005396D01*
X037775Y005291D01*
X037550Y005396D02*
X037340Y005291D01*
X037130Y005081D01*
X037445Y005081D01*
X037550Y004976D01*
X037550Y004871D01*
X037445Y004765D01*
X037235Y004765D01*
X037130Y004871D01*
X037130Y005081D01*
X037775Y004765D02*
X038195Y005186D01*
X038195Y005291D01*
X038195Y004765D02*
X037775Y004765D01*
X036339Y004866D02*
X036339Y004971D01*
X036234Y005076D01*
X035919Y005076D01*
X035919Y004866D01*
X036024Y004760D01*
X036234Y004760D01*
X036339Y004866D01*
X036129Y005286D02*
X035919Y005076D01*
X036129Y005286D02*
X036339Y005391D01*
X035695Y005286D02*
X035695Y004866D01*
X035590Y004760D01*
X035275Y004760D01*
X035275Y005391D01*
X035590Y005391D01*
X035695Y005286D01*
X035050Y005286D02*
X035050Y004866D01*
X034945Y004760D01*
X034630Y004760D01*
X034630Y005391D01*
X034945Y005391D01*
X035050Y005286D01*
X039918Y005291D02*
X040129Y005396D01*
X039110Y024440D02*
X039110Y025071D01*
X039426Y025071D01*
X039531Y024966D01*
X039531Y024756D01*
X039426Y024651D01*
X039110Y024651D01*
X038886Y024756D02*
X038466Y024756D01*
X038242Y024861D02*
X038242Y024966D01*
X038137Y025071D01*
X037926Y025071D01*
X037821Y024966D01*
X037597Y024966D02*
X037597Y024861D01*
X037492Y024756D01*
X037597Y024651D01*
X037597Y024546D01*
X037492Y024440D01*
X037282Y024440D01*
X037177Y024546D01*
X036953Y024440D02*
X036953Y024861D01*
X036742Y025071D01*
X036532Y024861D01*
X036532Y024440D01*
X036308Y024546D02*
X036308Y024756D01*
X036098Y024756D01*
X036308Y024966D02*
X036203Y025071D01*
X035993Y025071D01*
X035888Y024966D01*
X035888Y024546D01*
X035993Y024440D01*
X036203Y024440D01*
X036308Y024546D01*
X036532Y024756D02*
X036953Y024756D01*
X037177Y024966D02*
X037282Y025071D01*
X037492Y025071D01*
X037597Y024966D01*
X037492Y024756D02*
X037387Y024756D01*
X037821Y024440D02*
X038242Y024861D01*
X038242Y024440D02*
X037821Y024440D01*
X036985Y025310D02*
X036985Y025416D01*
X037406Y025836D01*
X037406Y025941D01*
X036985Y025941D01*
X036761Y025836D02*
X036656Y025941D01*
X036341Y025941D01*
X036341Y025310D01*
X036656Y025310D01*
X036761Y025416D01*
X036761Y025836D01*
X036117Y025836D02*
X036117Y025416D01*
X036012Y025310D01*
X035696Y025310D01*
X035696Y025941D01*
X036012Y025941D01*
X036117Y025836D01*
X035664Y025071D02*
X035243Y025071D01*
X035243Y024440D01*
X035664Y024440D01*
X035453Y024756D02*
X035243Y024756D01*
X035019Y025071D02*
X035019Y024440D01*
X034599Y024440D02*
X034599Y025071D01*
X034809Y024861D01*
X035019Y025071D01*
X034374Y025071D02*
X033954Y025071D01*
X034164Y025071D02*
X034164Y024440D01*
X033730Y024440D02*
X033730Y024861D01*
X033520Y025071D01*
X033309Y024861D01*
X033309Y024440D01*
X033309Y024756D02*
X033730Y024756D01*
X008375Y039558D02*
X008270Y039453D01*
X007954Y039453D01*
X007954Y039243D02*
X007954Y039874D01*
X008270Y039874D01*
X008375Y039768D01*
X008375Y039558D01*
X007730Y039558D02*
X007730Y039348D01*
X007625Y039243D01*
X007415Y039243D01*
X007310Y039348D01*
X007310Y039558D02*
X007520Y039663D01*
X007625Y039663D01*
X007730Y039558D01*
X007730Y039874D02*
X007310Y039874D01*
X007310Y039558D01*
X007086Y039558D02*
X006665Y039558D01*
X006981Y039874D01*
X006981Y039243D01*
X006441Y039348D02*
X006441Y039453D01*
X006336Y039558D01*
X006021Y039558D01*
X006021Y039348D01*
X006126Y039243D01*
X006336Y039243D01*
X006441Y039348D01*
X006231Y039768D02*
X006021Y039558D01*
X006231Y039768D02*
X006441Y039874D01*
X006214Y040045D02*
X005794Y040045D01*
X006004Y040045D02*
X006004Y040676D01*
X005794Y040466D01*
X005570Y040466D02*
X005570Y040045D01*
X005586Y039874D02*
X005586Y039243D01*
X005376Y039243D02*
X005797Y039243D01*
X005376Y039663D02*
X005586Y039874D01*
X005150Y040045D02*
X005150Y040466D01*
X005360Y040676D01*
X005570Y040466D01*
X005570Y040361D02*
X005150Y040361D01*
X004925Y040571D02*
X004820Y040676D01*
X004505Y040676D01*
X004505Y040045D01*
X004820Y040045D01*
X004925Y040151D01*
X004925Y040571D01*
X004942Y039874D02*
X005152Y039663D01*
X005152Y039243D01*
X005152Y039558D02*
X004732Y039558D01*
X004732Y039663D02*
X004942Y039874D01*
X004732Y039663D02*
X004732Y039243D01*
X004507Y039243D02*
X004087Y039874D01*
X003863Y039768D02*
X003758Y039874D01*
X003548Y039874D01*
X003443Y039768D01*
X003443Y039348D01*
X003548Y039243D01*
X003758Y039243D01*
X003863Y039348D01*
X004087Y039243D02*
X004507Y039874D01*
X015468Y045166D02*
X015573Y045060D01*
X015783Y045060D01*
X015889Y045166D01*
X015889Y045271D01*
X015783Y045376D01*
X015573Y045376D01*
X015468Y045481D01*
X015468Y045586D01*
X015573Y045691D01*
X015783Y045691D01*
X015889Y045586D01*
X016113Y045586D02*
X016113Y045166D01*
X016218Y045060D01*
X016428Y045060D01*
X016533Y045166D01*
X016757Y045060D02*
X016757Y045481D01*
X016967Y045691D01*
X017178Y045481D01*
X017178Y045060D01*
X017402Y045060D02*
X017402Y045691D01*
X017717Y045691D01*
X017822Y045586D01*
X017822Y045376D01*
X017717Y045271D01*
X017402Y045271D01*
X017612Y045271D02*
X017822Y045060D01*
X018257Y045060D02*
X018257Y045691D01*
X018467Y045691D02*
X018046Y045691D01*
X018691Y045376D02*
X019111Y045376D01*
X019335Y045376D02*
X019546Y045376D01*
X019756Y045691D02*
X019335Y045691D01*
X019335Y045060D01*
X017178Y045376D02*
X016757Y045376D01*
X016533Y045586D02*
X016428Y045691D01*
X016218Y045691D01*
X016113Y045586D01*
X025755Y045991D02*
X025860Y045885D01*
X026070Y045885D01*
X026175Y045991D01*
X026175Y046096D01*
X026070Y046201D01*
X025860Y046201D01*
X025755Y046306D01*
X025755Y046411D01*
X025860Y046516D01*
X026070Y046516D01*
X026175Y046411D01*
X026400Y046411D02*
X026400Y045991D01*
X026505Y045885D01*
X026715Y045885D01*
X026820Y045991D01*
X027044Y045885D02*
X027044Y046306D01*
X027254Y046516D01*
X027464Y046306D01*
X027464Y045885D01*
X027689Y045885D02*
X027689Y046516D01*
X028004Y046516D01*
X028109Y046411D01*
X028109Y046201D01*
X028004Y046096D01*
X027689Y046096D01*
X027899Y046096D02*
X028109Y045885D01*
X028543Y045885D02*
X028543Y046516D01*
X028333Y046516D02*
X028754Y046516D01*
X028978Y046201D02*
X029398Y046201D01*
X029622Y046201D02*
X029832Y046201D01*
X029622Y046516D02*
X029622Y045885D01*
X029622Y046516D02*
X030043Y046516D01*
X027464Y046201D02*
X027044Y046201D01*
X026820Y046411D02*
X026715Y046516D01*
X026505Y046516D01*
X026400Y046411D01*
X026400Y046960D02*
X026820Y047381D01*
X026820Y047486D01*
X026715Y047591D01*
X026505Y047591D01*
X026400Y047486D01*
X026175Y047591D02*
X025755Y046960D01*
X026175Y046960D02*
X025755Y047591D01*
X026400Y046960D02*
X026820Y046960D01*
D19*
X011970Y030288D02*
X011970Y026288D01*
X004095Y022225D02*
X004095Y018225D01*
D20*
X007595Y019855D02*
X008095Y019855D01*
X008595Y019855D01*
X008595Y020105D02*
X008595Y020355D01*
X007595Y020355D01*
X007595Y020105D01*
X008595Y020105D01*
X008595Y020595D02*
X008095Y020595D01*
X007595Y020595D01*
X015470Y027918D02*
X015970Y027918D01*
X016470Y027918D01*
X016470Y028168D02*
X015470Y028168D01*
X015470Y028418D01*
X016470Y028418D01*
X016470Y028168D01*
X016470Y028658D02*
X015970Y028658D01*
X015470Y028658D01*
D21*
X002355Y033085D02*
X002355Y033375D01*
X001835Y033375D02*
X001835Y033075D01*
X001623Y034245D02*
X001316Y034245D01*
X001240Y034322D01*
X001240Y034476D01*
X001316Y034552D01*
X001316Y034706D02*
X001240Y034783D01*
X001240Y034936D01*
X001316Y035013D01*
X001393Y035013D01*
X001700Y034706D01*
X001700Y035013D01*
X001623Y035166D02*
X001316Y035473D01*
X001623Y035473D01*
X001700Y035396D01*
X001700Y035243D01*
X001623Y035166D01*
X001316Y035166D01*
X001240Y035243D01*
X001240Y035396D01*
X001316Y035473D01*
X001240Y035627D02*
X001240Y035857D01*
X001316Y035934D01*
X001470Y035934D01*
X001547Y035857D01*
X001547Y035627D01*
X001700Y035627D02*
X001240Y035627D01*
X001990Y035138D02*
X002066Y035138D01*
X002373Y034831D01*
X002450Y034831D01*
X002450Y034601D02*
X001990Y034601D01*
X002220Y034370D01*
X002220Y034677D01*
X001990Y034831D02*
X001990Y035138D01*
X001623Y034552D02*
X001700Y034476D01*
X001700Y034322D01*
X001623Y034245D01*
X001583Y018393D02*
X001507Y018317D01*
X001583Y018393D02*
X001737Y018393D01*
X001814Y018317D01*
X001814Y018240D01*
X001737Y018163D01*
X001814Y018086D01*
X001814Y018010D01*
X001737Y017933D01*
X001583Y017933D01*
X001507Y018010D01*
X001353Y017933D02*
X001200Y018086D01*
X001277Y018086D02*
X001046Y018086D01*
X001046Y017933D02*
X001046Y018393D01*
X001277Y018393D01*
X001353Y018317D01*
X001353Y018163D01*
X001277Y018086D01*
X001660Y018163D02*
X001737Y018163D01*
X001967Y018163D02*
X002274Y018163D01*
X002197Y017933D02*
X002197Y018393D01*
X001967Y018163D01*
X002044Y017643D02*
X002197Y017643D01*
X002274Y017567D01*
X001967Y017260D01*
X002044Y017183D01*
X002197Y017183D01*
X002274Y017260D01*
X002274Y017567D01*
X002044Y017643D02*
X001967Y017567D01*
X001967Y017260D01*
X001814Y017260D02*
X001737Y017183D01*
X001583Y017183D01*
X001507Y017260D01*
X001507Y017413D02*
X001660Y017490D01*
X001737Y017490D01*
X001814Y017413D01*
X001814Y017260D01*
X001507Y017413D02*
X001507Y017643D01*
X001814Y017643D01*
X001200Y017643D02*
X001200Y017183D01*
X001353Y017183D02*
X001046Y017183D01*
X001046Y017490D02*
X001200Y017643D01*
X001319Y016250D02*
X001319Y015789D01*
X001472Y015789D02*
X001779Y015789D01*
X001933Y015789D02*
X002240Y015789D01*
X002086Y015789D02*
X002086Y016250D01*
X001933Y016096D01*
X001472Y016250D02*
X001472Y015789D01*
X001499Y015578D02*
X001422Y015501D01*
X001422Y015347D01*
X001499Y015271D01*
X001653Y015271D01*
X001729Y015347D01*
X001729Y015501D01*
X001653Y015578D01*
X001499Y015578D01*
X001269Y015501D02*
X001269Y015347D01*
X001192Y015271D01*
X000962Y015271D01*
X000962Y015117D02*
X000962Y015578D01*
X001192Y015578D01*
X001269Y015501D01*
X001012Y015789D02*
X001012Y016250D01*
X001012Y016019D02*
X001319Y016019D01*
X001883Y015578D02*
X001883Y015347D01*
X001959Y015271D01*
X002036Y015347D01*
X002113Y015271D01*
X002190Y015347D01*
X002190Y015578D01*
X002343Y015501D02*
X002420Y015578D01*
X002573Y015578D01*
X002650Y015501D01*
X002650Y015424D01*
X002343Y015424D01*
X002343Y015347D02*
X002343Y015501D01*
X002343Y015347D02*
X002420Y015271D01*
X002573Y015271D01*
X002804Y015271D02*
X002804Y015578D01*
X002957Y015578D02*
X003034Y015578D01*
X002957Y015578D02*
X002804Y015424D01*
X002038Y014500D02*
X001884Y014500D01*
X001808Y014423D01*
X002038Y014500D02*
X002115Y014423D01*
X002115Y014346D01*
X001808Y014039D01*
X002115Y014039D01*
X002190Y013703D02*
X001959Y013703D01*
X001883Y013626D01*
X001883Y013472D01*
X001959Y013396D01*
X002190Y013396D01*
X002343Y013472D02*
X002420Y013549D01*
X002650Y013549D01*
X002650Y013626D02*
X002650Y013396D01*
X002420Y013396D01*
X002343Y013472D01*
X002420Y013703D02*
X002573Y013703D01*
X002650Y013626D01*
X002804Y013703D02*
X002804Y013396D01*
X002804Y013549D02*
X002957Y013703D01*
X003034Y013703D01*
X003187Y013626D02*
X003264Y013703D01*
X003494Y013703D01*
X003494Y013856D02*
X003494Y013396D01*
X003264Y013396D01*
X003187Y013472D01*
X003187Y013626D01*
X004003Y013976D02*
X004437Y013976D01*
X004437Y014725D01*
X004003Y014725D01*
X004003Y013976D01*
X002337Y012754D02*
X002337Y012677D01*
X002260Y012601D01*
X002337Y012524D01*
X002337Y012447D01*
X002260Y012370D01*
X002106Y012370D01*
X002030Y012447D01*
X001876Y012447D02*
X001799Y012370D01*
X001646Y012370D01*
X001569Y012447D01*
X001416Y012370D02*
X001262Y012524D01*
X001339Y012524D02*
X001109Y012524D01*
X001109Y012370D02*
X001109Y012831D01*
X001339Y012831D01*
X001416Y012754D01*
X001416Y012601D01*
X001339Y012524D01*
X001569Y012754D02*
X001646Y012831D01*
X001799Y012831D01*
X001876Y012754D01*
X001876Y012677D01*
X001799Y012601D01*
X001876Y012524D01*
X001876Y012447D01*
X001799Y012601D02*
X001723Y012601D01*
X002030Y012754D02*
X002106Y012831D01*
X002260Y012831D01*
X002337Y012754D01*
X002260Y012601D02*
X002183Y012601D01*
X002197Y012143D02*
X002274Y012067D01*
X001967Y011760D01*
X002044Y011683D01*
X002197Y011683D01*
X002274Y011760D01*
X002274Y012067D01*
X002197Y012143D02*
X002044Y012143D01*
X001967Y012067D01*
X001967Y011760D01*
X001814Y011760D02*
X001737Y011683D01*
X001583Y011683D01*
X001507Y011760D01*
X001507Y011913D02*
X001660Y011990D01*
X001737Y011990D01*
X001814Y011913D01*
X001814Y011760D01*
X001507Y011913D02*
X001507Y012143D01*
X001814Y012143D01*
X001200Y012143D02*
X001200Y011683D01*
X001353Y011683D02*
X001046Y011683D01*
X001046Y011990D02*
X001200Y012143D01*
X001192Y013396D02*
X001269Y013472D01*
X001192Y013549D01*
X001039Y013549D01*
X000962Y013626D01*
X001039Y013703D01*
X001269Y013703D01*
X001422Y013626D02*
X001499Y013703D01*
X001729Y013703D01*
X001729Y013856D02*
X001729Y013396D01*
X001499Y013396D01*
X001422Y013472D01*
X001422Y013626D01*
X001192Y013396D02*
X000962Y013396D01*
X000887Y014039D02*
X000887Y014500D01*
X000887Y014269D02*
X001194Y014269D01*
X001194Y014039D02*
X001194Y014500D01*
X001347Y014500D02*
X001347Y014039D01*
X001654Y014039D01*
X004003Y015976D02*
X004437Y015976D01*
X004437Y016725D01*
X004003Y016725D01*
X004003Y015976D01*
X015213Y007989D02*
X015366Y007758D01*
X015520Y007989D01*
X015520Y007758D02*
X015059Y007758D01*
X015059Y007452D02*
X015520Y007452D01*
X015520Y007605D02*
X015520Y007298D01*
X015213Y007298D02*
X015059Y007452D01*
X017059Y007452D02*
X017520Y007452D01*
X017520Y007605D02*
X017520Y007298D01*
X017213Y007298D02*
X017059Y007452D01*
X017059Y007758D02*
X017520Y007758D01*
X017366Y007758D02*
X017213Y007989D01*
X017366Y007758D02*
X017520Y007989D01*
X018934Y007758D02*
X019395Y007758D01*
X019395Y007605D02*
X019395Y007298D01*
X019395Y007452D02*
X018934Y007452D01*
X019088Y007298D01*
X019241Y007758D02*
X019088Y007989D01*
X019241Y007758D02*
X019395Y007989D01*
X020934Y007758D02*
X021395Y007758D01*
X021395Y007605D02*
X021395Y007298D01*
X021395Y007452D02*
X020934Y007452D01*
X021088Y007298D01*
X021241Y007758D02*
X021088Y007989D01*
X021241Y007758D02*
X021395Y007989D01*
X021593Y004499D02*
X021824Y004499D01*
X021900Y004422D01*
X021900Y004269D01*
X021824Y004192D01*
X021593Y004192D01*
X021593Y004039D02*
X021593Y004499D01*
X021747Y004192D02*
X021900Y004039D01*
X022054Y003962D02*
X022361Y003962D01*
X022514Y004116D02*
X022591Y004039D01*
X022744Y004039D01*
X022821Y004116D01*
X022821Y004192D01*
X022744Y004269D01*
X022591Y004269D01*
X022514Y004346D01*
X022514Y004422D01*
X022591Y004499D01*
X022744Y004499D01*
X022821Y004422D01*
X022975Y004422D02*
X022975Y004499D01*
X022975Y004422D02*
X023128Y004269D01*
X023128Y004039D01*
X023128Y004269D02*
X023281Y004422D01*
X023281Y004499D01*
X020946Y004422D02*
X020946Y004269D01*
X020869Y004192D01*
X020639Y004192D01*
X020639Y004039D02*
X020639Y004499D01*
X020869Y004499D01*
X020946Y004422D01*
X020793Y004192D02*
X020946Y004039D01*
X020486Y003962D02*
X020179Y003962D01*
X020025Y004039D02*
X019872Y004192D01*
X019949Y004192D02*
X019718Y004192D01*
X019718Y004039D02*
X019718Y004499D01*
X019949Y004499D01*
X020025Y004422D01*
X020025Y004269D01*
X019949Y004192D01*
X019196Y004116D02*
X019196Y004269D01*
X019043Y004269D01*
X019196Y004422D02*
X019119Y004499D01*
X018966Y004499D01*
X018889Y004422D01*
X018889Y004116D01*
X018966Y004039D01*
X019119Y004039D01*
X019196Y004116D01*
X018736Y003962D02*
X018429Y003962D01*
X018275Y004039D02*
X018122Y004192D01*
X018199Y004192D02*
X017968Y004192D01*
X017968Y004039D02*
X017968Y004499D01*
X018199Y004499D01*
X018275Y004422D01*
X018275Y004269D01*
X018199Y004192D01*
X017196Y004192D02*
X017196Y004116D01*
X017119Y004039D01*
X016889Y004039D01*
X016889Y004499D01*
X017119Y004499D01*
X017196Y004422D01*
X017196Y004346D01*
X017119Y004269D01*
X016889Y004269D01*
X017119Y004269D02*
X017196Y004192D01*
X016736Y003962D02*
X016429Y003962D01*
X016275Y004039D02*
X016122Y004192D01*
X016199Y004192D02*
X015968Y004192D01*
X015968Y004039D02*
X015968Y004499D01*
X016199Y004499D01*
X016275Y004422D01*
X016275Y004269D01*
X016199Y004192D01*
X013012Y004520D02*
X012781Y004520D01*
X012705Y004597D01*
X012705Y004751D01*
X012781Y004827D01*
X013012Y004827D01*
X013012Y004981D02*
X013012Y004520D01*
X012551Y004827D02*
X012474Y004827D01*
X012321Y004674D01*
X012321Y004827D02*
X012321Y004520D01*
X012167Y004520D02*
X011937Y004520D01*
X011861Y004597D01*
X011937Y004674D01*
X012167Y004674D01*
X012167Y004751D02*
X012167Y004520D01*
X012167Y004751D02*
X012091Y004827D01*
X011937Y004827D01*
X011707Y004904D02*
X011630Y004981D01*
X011477Y004981D01*
X011400Y004904D01*
X011400Y004597D01*
X011477Y004520D01*
X011630Y004520D01*
X011707Y004597D01*
X010786Y004597D02*
X010710Y004520D01*
X010556Y004520D01*
X010479Y004597D01*
X010479Y004904D01*
X010556Y004981D01*
X010710Y004981D01*
X010786Y004904D01*
X010326Y004981D02*
X010326Y004520D01*
X010019Y004520D02*
X010019Y004981D01*
X010172Y004827D01*
X010326Y004981D01*
X009866Y004981D02*
X009866Y004520D01*
X009559Y004520D02*
X009559Y004981D01*
X009712Y004827D01*
X009866Y004981D01*
X009405Y004981D02*
X009098Y004520D01*
X008945Y004597D02*
X008945Y004904D01*
X008868Y004981D01*
X008638Y004981D01*
X008638Y004520D01*
X008868Y004520D01*
X008945Y004597D01*
X008484Y004597D02*
X008408Y004520D01*
X008254Y004520D01*
X008177Y004597D01*
X008254Y004751D02*
X008408Y004751D01*
X008484Y004674D01*
X008484Y004597D01*
X008254Y004751D02*
X008177Y004827D01*
X008177Y004904D01*
X008254Y004981D01*
X008408Y004981D01*
X008484Y004904D01*
X041831Y014779D02*
X041831Y014856D01*
X042138Y015163D01*
X042138Y015239D01*
X041831Y015239D01*
X042292Y015009D02*
X042599Y015009D01*
X042752Y015009D02*
X043059Y015009D01*
X043213Y014856D02*
X043289Y014779D01*
X043443Y014779D01*
X043520Y014856D01*
X043520Y015163D02*
X043443Y015239D01*
X043289Y015239D01*
X043213Y015163D01*
X043213Y014856D01*
X043059Y014779D02*
X043059Y015239D01*
X042752Y015239D02*
X042752Y014779D01*
X042522Y014779D02*
X042522Y015239D01*
X042292Y015009D01*
X043673Y015239D02*
X043980Y015239D01*
X043826Y015239D02*
X043826Y014779D01*
X044133Y014779D02*
X044440Y015086D01*
X044440Y015163D01*
X044364Y015239D01*
X044210Y015239D01*
X044133Y015163D01*
X044133Y014779D02*
X044440Y014779D01*
X044594Y015009D02*
X044901Y015009D01*
X045054Y015009D02*
X045054Y015239D01*
X045361Y015239D01*
X045515Y015239D02*
X045822Y014779D01*
X045822Y015239D01*
X045515Y015239D02*
X045515Y014779D01*
X045361Y014856D02*
X045284Y014779D01*
X045131Y014779D01*
X045054Y014856D01*
X045054Y015009D02*
X045208Y015086D01*
X045284Y015086D01*
X045361Y015009D01*
X045361Y014856D01*
X044824Y014779D02*
X044824Y015239D01*
X044594Y015009D01*
X047707Y014907D02*
X047707Y014830D01*
X047707Y014907D02*
X048014Y015214D01*
X048014Y015291D01*
X047707Y015291D01*
X048168Y015060D02*
X048475Y015060D01*
X048628Y015060D02*
X048935Y015060D01*
X049089Y014907D02*
X049165Y014830D01*
X049319Y014830D01*
X049396Y014907D01*
X049396Y015214D02*
X049319Y015291D01*
X049165Y015291D01*
X049089Y015214D01*
X049089Y014907D01*
X048935Y014830D02*
X048935Y015291D01*
X048628Y015291D02*
X048628Y014830D01*
X048398Y014830D02*
X048398Y015291D01*
X048168Y015060D01*
X049549Y015291D02*
X049856Y015291D01*
X049702Y015291D02*
X049702Y014830D01*
X050009Y014830D02*
X050316Y015137D01*
X050316Y015214D01*
X050240Y015291D01*
X050086Y015291D01*
X050009Y015214D01*
X050009Y014830D02*
X050316Y014830D01*
X050470Y015060D02*
X050700Y015291D01*
X050700Y014830D01*
X050930Y014907D02*
X051007Y014830D01*
X051160Y014830D01*
X051237Y014907D01*
X051237Y015060D01*
X051160Y015137D01*
X051084Y015137D01*
X050930Y015060D01*
X050930Y015291D01*
X051237Y015291D01*
X051391Y015291D02*
X051697Y014830D01*
X051697Y015291D01*
X051391Y015291D02*
X051391Y014830D01*
X050777Y015060D02*
X050470Y015060D01*
X061769Y023409D02*
X061769Y023486D01*
X062076Y023793D01*
X062076Y023870D01*
X061769Y023870D01*
X061791Y024204D02*
X062022Y024204D01*
X062098Y024281D01*
X062098Y024588D01*
X062022Y024664D01*
X061791Y024664D01*
X061791Y024204D01*
X062252Y024204D02*
X062482Y024204D01*
X062559Y024281D01*
X062559Y024588D01*
X062482Y024664D01*
X062252Y024664D01*
X062252Y024204D01*
X062460Y023870D02*
X062229Y023640D01*
X062536Y023640D01*
X062690Y023640D02*
X062997Y023640D01*
X063150Y023793D02*
X063150Y023486D01*
X063227Y023409D01*
X063380Y023409D01*
X063457Y023486D01*
X063457Y023793D02*
X063380Y023870D01*
X063227Y023870D01*
X063150Y023793D01*
X062997Y023870D02*
X062997Y023409D01*
X062690Y023409D02*
X062690Y023870D01*
X062460Y023870D02*
X062460Y023409D01*
X062712Y024204D02*
X063019Y024204D01*
X062866Y024204D02*
X062866Y024664D01*
X062712Y024511D01*
X063173Y024588D02*
X063249Y024664D01*
X063403Y024664D01*
X063480Y024588D01*
X063173Y024281D01*
X063249Y024204D01*
X063403Y024204D01*
X063480Y024281D01*
X063480Y024588D01*
X063173Y024588D02*
X063173Y024281D01*
X063611Y023870D02*
X063917Y023870D01*
X063764Y023870D02*
X063764Y023409D01*
X064071Y023409D02*
X064378Y023716D01*
X064378Y023793D01*
X064301Y023870D01*
X064148Y023870D01*
X064071Y023793D01*
X064071Y023409D02*
X064378Y023409D01*
X064531Y023640D02*
X064838Y023640D01*
X064992Y023640D02*
X065145Y023716D01*
X065222Y023716D01*
X065299Y023640D01*
X065299Y023486D01*
X065222Y023409D01*
X065068Y023409D01*
X064992Y023486D01*
X064992Y023640D02*
X064992Y023870D01*
X065299Y023870D01*
X065452Y023870D02*
X065759Y023409D01*
X065759Y023870D01*
X065452Y023870D02*
X065452Y023409D01*
X064761Y023409D02*
X064761Y023870D01*
X064531Y023640D01*
X064792Y041995D02*
X064792Y042456D01*
X064869Y042226D02*
X065099Y041995D01*
X065252Y041995D02*
X065483Y041995D01*
X065559Y042072D01*
X065559Y042149D01*
X065483Y042226D01*
X065252Y042226D01*
X065252Y042456D02*
X065483Y042456D01*
X065559Y042379D01*
X065559Y042302D01*
X065483Y042226D01*
X065252Y042456D02*
X065252Y041995D01*
X064792Y042149D02*
X065099Y042456D01*
X064178Y042379D02*
X064101Y042456D01*
X063948Y042456D01*
X063871Y042379D01*
X063718Y042456D02*
X063411Y041995D01*
X063257Y042072D02*
X063181Y041995D01*
X063027Y041995D01*
X062950Y042072D01*
X063027Y042226D02*
X063181Y042226D01*
X063257Y042149D01*
X063257Y042072D01*
X063027Y042226D02*
X062950Y042302D01*
X062950Y042379D01*
X063027Y042456D01*
X063181Y042456D01*
X063257Y042379D01*
X062797Y042379D02*
X062797Y042226D01*
X062720Y042149D01*
X062490Y042149D01*
X062490Y041995D02*
X062490Y042456D01*
X062720Y042456D01*
X062797Y042379D01*
X061882Y042379D02*
X061882Y042302D01*
X061806Y042226D01*
X061882Y042149D01*
X061882Y042072D01*
X061806Y041995D01*
X061652Y041995D01*
X061575Y042072D01*
X061422Y041995D02*
X061115Y042456D01*
X061422Y042456D02*
X061115Y041995D01*
X061575Y042379D02*
X061652Y042456D01*
X061806Y042456D01*
X061882Y042379D01*
X061806Y042226D02*
X061729Y042226D01*
X063871Y041995D02*
X064178Y042302D01*
X064178Y042379D01*
X064178Y041995D02*
X063871Y041995D01*
X032996Y046691D02*
X032996Y046998D01*
X032996Y047283D02*
X032690Y047283D01*
X032843Y047283D02*
X032843Y047743D01*
X032690Y047590D01*
X032536Y047743D02*
X032229Y047283D01*
X032229Y046998D02*
X032229Y046768D01*
X032383Y046845D01*
X032459Y046845D01*
X032536Y046768D01*
X032536Y046615D01*
X032459Y046538D01*
X032306Y046538D01*
X032229Y046615D01*
X032229Y046998D02*
X032536Y046998D01*
X032690Y046998D02*
X032690Y046691D01*
X032843Y046538D01*
X032996Y046691D01*
X032536Y047283D02*
X032229Y047743D01*
X042813Y004435D02*
X043043Y004435D01*
X043120Y004358D01*
X043120Y004051D01*
X043043Y003974D01*
X042813Y003974D01*
X042813Y004435D01*
X043273Y004435D02*
X043503Y004435D01*
X043580Y004358D01*
X043580Y004051D01*
X043503Y003974D01*
X043273Y003974D01*
X043273Y004435D01*
X043734Y004205D02*
X044040Y004205D01*
X043964Y004435D02*
X043734Y004205D01*
X043964Y003974D02*
X043964Y004435D01*
X048512Y004436D02*
X048742Y004436D01*
X048819Y004359D01*
X048819Y004052D01*
X048742Y003975D01*
X048512Y003975D01*
X048512Y004436D01*
X048972Y004436D02*
X049202Y004436D01*
X049279Y004359D01*
X049279Y004052D01*
X049202Y003975D01*
X048972Y003975D01*
X048972Y004436D01*
X049432Y004436D02*
X049432Y004206D01*
X049586Y004282D01*
X049663Y004282D01*
X049739Y004206D01*
X049739Y004052D01*
X049663Y003975D01*
X049509Y003975D01*
X049432Y004052D01*
X049432Y004436D02*
X049739Y004436D01*
D22*
X016970Y009805D03*
X016970Y012645D03*
X017220Y015305D03*
X017220Y018145D03*
X046158Y031680D03*
X046158Y034520D03*
D23*
X023645Y039475D03*
X019145Y040100D03*
X016145Y040100D03*
X013395Y040100D03*
X010770Y039725D03*
X002020Y040288D03*
X009170Y028975D03*
X010395Y019850D03*
D24*
X011220Y022100D03*
X012220Y022100D03*
X012220Y023100D03*
X011220Y023100D03*
X011220Y024100D03*
X012220Y024100D03*
X015095Y023975D03*
X016095Y023975D03*
X016095Y022975D03*
X016095Y021975D03*
X016095Y020975D03*
X015095Y020975D03*
X015095Y021975D03*
X015095Y024975D03*
X016095Y024975D03*
X009470Y031225D03*
X009470Y032225D03*
X009470Y033225D03*
X005595Y041600D03*
X004595Y041600D03*
X003595Y041600D03*
X061970Y040288D03*
X062970Y040288D03*
X063970Y040288D03*
X064970Y040288D03*
D25*
X023356Y008063D02*
X021584Y008063D01*
X021584Y004638D01*
X023356Y004638D01*
X023356Y008063D01*
X021356Y008063D02*
X021356Y004638D01*
X019584Y004638D01*
X019584Y008063D01*
X021356Y008063D01*
X019481Y008063D02*
X019481Y004638D01*
X017709Y004638D01*
X017709Y008063D01*
X019481Y008063D01*
X017481Y008063D02*
X017481Y004638D01*
X015709Y004638D01*
X015709Y008063D01*
X017481Y008063D01*
D26*
X016595Y007354D03*
X018595Y007354D03*
X020470Y007354D03*
X022470Y007354D03*
D27*
X027095Y039713D03*
X025345Y041900D03*
D28*
X024945Y043875D02*
X024945Y047925D01*
X007245Y047925D02*
X007245Y043875D01*
D29*
X004210Y016419D02*
X004151Y016360D01*
X004220Y016291D01*
X004279Y016350D01*
X004210Y016419D01*
X004220Y014410D02*
X004289Y014341D01*
X004230Y014282D01*
X004161Y014350D01*
X004220Y014410D01*
D30*
X004063Y014242D03*
X004377Y016459D03*
D31*
X003096Y017438D03*
X003096Y018018D03*
D32*
X003138Y012413D03*
X004178Y012413D03*
D33*
X002095Y032943D03*
X002095Y033513D03*
D34*
X009470Y028975D02*
X009595Y028913D01*
X015595Y020100D02*
X019970Y020600D01*
X028845Y019787D02*
X028720Y016163D01*
X003095Y018100D02*
X002408Y019788D01*
X029845Y037725D02*
X029845Y037788D01*
X030970Y045475D02*
X030970Y045538D01*
M02*
