G75*
G70*
%OFA0B0*%
%FSLAX24Y24*%
%IPPOS*%
%LPD*%
%AMOC8*
5,1,8,0,0,1.08239X$1,22.5*
%
%ADD10C,0.0780*%
%ADD11C,0.0715*%
%ADD12C,0.0635*%
%ADD13R,0.0592X0.0671*%
%ADD14R,0.0671X0.0592*%
%ADD15R,0.0790X0.0710*%
%ADD16R,0.0710X0.0789*%
%ADD17C,0.0795*%
%ADD18OC8,0.0795*%
%ADD19OC8,0.0715*%
%ADD20C,0.0980*%
%ADD21C,0.0749*%
%ADD22C,0.1346*%
%ADD23C,0.0635*%
%ADD24C,0.0715*%
%ADD25R,0.0592X0.0710*%
%ADD26R,0.0710X0.0592*%
%ADD27C,0.0915*%
%ADD28C,0.1270*%
%ADD29C,0.0710*%
%ADD30C,0.0513*%
%ADD31C,0.0940*%
%ADD32C,0.0640*%
%ADD33R,0.0940X0.0940*%
D10*
X036086Y012392D03*
X037086Y012392D03*
X037086Y011392D03*
X038086Y011392D03*
X039086Y011392D03*
X040086Y011392D03*
X041086Y011392D03*
X042086Y011392D03*
X043086Y011392D03*
X044086Y011392D03*
X045086Y011392D03*
X046086Y011392D03*
X047086Y011392D03*
X047086Y012392D03*
X048086Y012392D03*
X048086Y013392D03*
X047086Y013392D03*
X047086Y014392D03*
X048086Y014392D03*
X048086Y015392D03*
X047086Y015392D03*
X047086Y016392D03*
X048086Y016392D03*
X048086Y017392D03*
X047086Y017392D03*
X047086Y018392D03*
X048086Y018392D03*
X048086Y019392D03*
X047086Y019392D03*
X047086Y020392D03*
X048086Y020392D03*
X048086Y021392D03*
X047086Y021392D03*
X047086Y022392D03*
X048086Y022392D03*
X047086Y023392D03*
X046086Y023392D03*
X046086Y022392D03*
X045086Y022392D03*
X044086Y022392D03*
X043086Y022392D03*
X042086Y022392D03*
X041086Y022392D03*
X040086Y022392D03*
X039086Y022392D03*
X038086Y022392D03*
X037086Y022392D03*
X036086Y022392D03*
X037086Y023392D03*
X038086Y023392D03*
X039086Y023392D03*
X040086Y023392D03*
X041086Y023392D03*
X042086Y023392D03*
X043086Y023392D03*
X044086Y023392D03*
X045086Y023392D03*
X037086Y021392D03*
X037086Y020392D03*
X036086Y020392D03*
X036086Y021392D03*
X036086Y019392D03*
X036086Y018392D03*
X036086Y017392D03*
X037086Y017392D03*
X037086Y018392D03*
X037086Y019392D03*
X037086Y016392D03*
X037086Y015392D03*
X036086Y015392D03*
X036086Y016392D03*
X036086Y014392D03*
X036086Y013392D03*
X037086Y013392D03*
X037086Y014392D03*
X038086Y012392D03*
X039086Y012392D03*
X040086Y012392D03*
X041086Y012392D03*
X042086Y012392D03*
X043086Y012392D03*
X044086Y012392D03*
X045086Y012392D03*
X046086Y012392D03*
D11*
X051018Y011892D02*
X051653Y011892D01*
X051653Y012892D02*
X051018Y012892D01*
X051018Y013892D02*
X051653Y013892D01*
X051653Y014892D02*
X051018Y014892D01*
X051018Y015892D02*
X051653Y015892D01*
X051653Y016892D02*
X051018Y016892D01*
X051018Y017892D02*
X051653Y017892D01*
X051653Y018892D02*
X051018Y018892D01*
X051018Y019892D02*
X051653Y019892D01*
X051653Y020892D02*
X051018Y020892D01*
X053893Y020892D02*
X054528Y020892D01*
X054528Y019892D02*
X053893Y019892D01*
X053893Y018892D02*
X054528Y018892D01*
X054528Y017892D02*
X053893Y017892D01*
X053893Y016892D02*
X054528Y016892D01*
X054528Y015892D02*
X053893Y015892D01*
X053893Y014892D02*
X054528Y014892D01*
X054528Y013892D02*
X053893Y013892D01*
X053893Y012892D02*
X054528Y012892D01*
X054528Y011892D02*
X053893Y011892D01*
X053893Y010892D02*
X054528Y010892D01*
X054528Y009892D02*
X053893Y009892D01*
X053893Y008892D02*
X054528Y008892D01*
X054528Y007892D02*
X053893Y007892D01*
X051653Y007892D02*
X051018Y007892D01*
X051018Y008892D02*
X051653Y008892D01*
X051653Y009892D02*
X051018Y009892D01*
X051018Y010892D02*
X051653Y010892D01*
X057018Y010892D02*
X057653Y010892D01*
X057653Y009892D02*
X057018Y009892D01*
X057018Y008892D02*
X057653Y008892D01*
X057653Y007892D02*
X057018Y007892D01*
X058772Y007521D02*
X059407Y007521D01*
X059407Y006521D02*
X058772Y006521D01*
X058772Y008521D02*
X059407Y008521D01*
X059407Y009521D02*
X058772Y009521D01*
X058772Y010521D02*
X059407Y010521D01*
X059407Y011521D02*
X058772Y011521D01*
X057653Y011892D02*
X057018Y011892D01*
X057018Y012892D02*
X057653Y012892D01*
X058772Y012521D02*
X059407Y012521D01*
X059407Y013521D02*
X058772Y013521D01*
X058772Y014521D02*
X059407Y014521D01*
X059407Y015521D02*
X058772Y015521D01*
X057653Y015892D02*
X057018Y015892D01*
X057018Y014892D02*
X057653Y014892D01*
X057653Y013892D02*
X057018Y013892D01*
X057018Y016892D02*
X057653Y016892D01*
X057653Y017892D02*
X057018Y017892D01*
X057018Y018892D02*
X057653Y018892D01*
X057653Y019892D02*
X057018Y019892D01*
X057018Y020892D02*
X057653Y020892D01*
X063580Y020646D02*
X064214Y020646D01*
X064214Y019646D02*
X063580Y019646D01*
X063580Y018646D02*
X064214Y018646D01*
X064214Y017646D02*
X063580Y017646D01*
X063580Y016646D02*
X064214Y016646D01*
X064214Y015646D02*
X063580Y015646D01*
X062407Y015521D02*
X061772Y015521D01*
X061772Y014521D02*
X062407Y014521D01*
X062407Y013521D02*
X061772Y013521D01*
X061772Y012521D02*
X062407Y012521D01*
X063596Y012022D02*
X064231Y012022D01*
X064231Y013022D02*
X063596Y013022D01*
X063596Y014022D02*
X064231Y014022D01*
X066596Y014022D02*
X067231Y014022D01*
X067231Y013022D02*
X066596Y013022D01*
X066596Y012022D02*
X067231Y012022D01*
X067231Y011022D02*
X066596Y011022D01*
X066596Y010022D02*
X067231Y010022D01*
X067231Y009022D02*
X066596Y009022D01*
X066596Y008022D02*
X067231Y008022D01*
X067231Y007022D02*
X066596Y007022D01*
X066596Y006022D02*
X067231Y006022D01*
X067231Y005022D02*
X066596Y005022D01*
X064231Y005022D02*
X063596Y005022D01*
X063596Y006022D02*
X064231Y006022D01*
X062407Y006521D02*
X061772Y006521D01*
X061772Y007521D02*
X062407Y007521D01*
X063596Y007022D02*
X064231Y007022D01*
X064231Y008022D02*
X063596Y008022D01*
X062407Y008521D02*
X061772Y008521D01*
X061772Y009521D02*
X062407Y009521D01*
X063596Y009022D02*
X064231Y009022D01*
X064231Y010022D02*
X063596Y010022D01*
X063596Y011022D02*
X064231Y011022D01*
X062407Y011521D02*
X061772Y011521D01*
X061772Y010521D02*
X062407Y010521D01*
X066580Y015646D02*
X067214Y015646D01*
X067214Y016646D02*
X066580Y016646D01*
X066580Y017646D02*
X067214Y017646D01*
X067214Y018646D02*
X066580Y018646D01*
X066580Y019646D02*
X067214Y019646D01*
X067214Y020646D02*
X066580Y020646D01*
X066580Y021646D02*
X067214Y021646D01*
X067214Y022646D02*
X066580Y022646D01*
X066580Y023646D02*
X067214Y023646D01*
X067214Y024646D02*
X066580Y024646D01*
X064214Y024646D02*
X063580Y024646D01*
X063580Y023646D02*
X064214Y023646D01*
X064214Y022646D02*
X063580Y022646D01*
X063580Y021646D02*
X064214Y021646D01*
X069768Y020017D02*
X070403Y020017D01*
X070403Y019017D02*
X069768Y019017D01*
X069768Y018017D02*
X070403Y018017D01*
X070403Y017017D02*
X069768Y017017D01*
X069768Y016017D02*
X070403Y016017D01*
X070403Y015017D02*
X069768Y015017D01*
X069768Y014017D02*
X070403Y014017D01*
X070403Y013017D02*
X069768Y013017D01*
X069768Y012017D02*
X070403Y012017D01*
X070403Y011017D02*
X069768Y011017D01*
X069768Y010017D02*
X070403Y010017D01*
X070403Y009017D02*
X069768Y009017D01*
X069768Y008017D02*
X070403Y008017D01*
X070403Y007017D02*
X069768Y007017D01*
X069768Y006017D02*
X070403Y006017D01*
X070403Y005017D02*
X069768Y005017D01*
X075768Y005017D02*
X076403Y005017D01*
X076403Y006017D02*
X075768Y006017D01*
X075768Y007017D02*
X076403Y007017D01*
X076403Y008017D02*
X075768Y008017D01*
X075768Y009017D02*
X076403Y009017D01*
X076403Y010017D02*
X075768Y010017D01*
X075768Y011017D02*
X076403Y011017D01*
X076403Y012017D02*
X075768Y012017D01*
X075768Y013017D02*
X076403Y013017D01*
X076403Y014017D02*
X075768Y014017D01*
X075768Y015017D02*
X076403Y015017D01*
X076403Y016017D02*
X075768Y016017D01*
X075768Y017017D02*
X076403Y017017D01*
X076403Y018017D02*
X075768Y018017D01*
X075768Y019017D02*
X076403Y019017D01*
X076403Y020017D02*
X075768Y020017D01*
X067653Y027767D02*
X067018Y027767D01*
X067018Y028767D02*
X067653Y028767D01*
X067653Y029767D02*
X067018Y029767D01*
X067018Y030767D02*
X067653Y030767D01*
X067653Y031767D02*
X067018Y031767D01*
X067018Y032767D02*
X067653Y032767D01*
X067653Y033767D02*
X067018Y033767D01*
X067018Y034767D02*
X067653Y034767D01*
X067653Y035767D02*
X067018Y035767D01*
X067018Y036767D02*
X067653Y036767D01*
X067653Y037767D02*
X067018Y037767D01*
X067018Y038767D02*
X067653Y038767D01*
X067653Y039767D02*
X067018Y039767D01*
X067018Y040767D02*
X067653Y040767D01*
X067653Y041767D02*
X067018Y041767D01*
X067018Y042767D02*
X067653Y042767D01*
X067653Y043767D02*
X067018Y043767D01*
X067018Y044767D02*
X067653Y044767D01*
X067653Y045767D02*
X067018Y045767D01*
X067018Y046767D02*
X067653Y046767D01*
X069768Y046767D02*
X070403Y046767D01*
X070403Y045767D02*
X069768Y045767D01*
X069768Y044767D02*
X070403Y044767D01*
X070403Y043767D02*
X069768Y043767D01*
X069768Y042767D02*
X070403Y042767D01*
X070403Y041767D02*
X069768Y041767D01*
X069768Y040767D02*
X070403Y040767D01*
X070403Y039767D02*
X069768Y039767D01*
X069768Y038767D02*
X070403Y038767D01*
X070403Y037767D02*
X069768Y037767D01*
X069768Y036767D02*
X070403Y036767D01*
X070403Y035767D02*
X069768Y035767D01*
X069768Y034767D02*
X070403Y034767D01*
X070403Y033767D02*
X069768Y033767D01*
X069768Y032767D02*
X070403Y032767D01*
X070403Y031767D02*
X069768Y031767D01*
X075768Y031767D02*
X076403Y031767D01*
X076403Y032767D02*
X075768Y032767D01*
X075768Y033767D02*
X076403Y033767D01*
X076403Y034767D02*
X075768Y034767D01*
X075768Y035767D02*
X076403Y035767D01*
X076403Y036767D02*
X075768Y036767D01*
X075768Y037767D02*
X076403Y037767D01*
X076403Y038767D02*
X075768Y038767D01*
X075768Y039767D02*
X076403Y039767D01*
X076403Y040767D02*
X075768Y040767D01*
X075768Y041767D02*
X076403Y041767D01*
X076403Y042767D02*
X075768Y042767D01*
X075768Y043767D02*
X076403Y043767D01*
X076403Y044767D02*
X075768Y044767D01*
X075768Y045767D02*
X076403Y045767D01*
X076403Y046767D02*
X075768Y046767D01*
X070336Y052700D02*
X070336Y053335D01*
X069336Y053335D02*
X069336Y052700D01*
X068336Y052700D02*
X068336Y053335D01*
X067336Y053335D02*
X067336Y052700D01*
X066336Y052700D02*
X066336Y053335D01*
X065336Y053335D02*
X065336Y052700D01*
X064336Y052700D02*
X064336Y053335D01*
X063336Y053335D02*
X063336Y052700D01*
X062336Y052700D02*
X062336Y053335D01*
X061336Y053335D02*
X061336Y052700D01*
X060336Y052700D02*
X060336Y053335D01*
X059336Y053335D02*
X059336Y052700D01*
X058336Y052700D02*
X058336Y053335D01*
X057336Y053335D02*
X057336Y052700D01*
X056336Y052700D02*
X056336Y053335D01*
X055336Y053335D02*
X055336Y052700D01*
X054336Y052700D02*
X054336Y053335D01*
X053336Y053335D02*
X053336Y052700D01*
X052336Y052700D02*
X052336Y053335D01*
X051336Y053335D02*
X051336Y052700D01*
X051336Y058700D02*
X051336Y059335D01*
X052336Y059335D02*
X052336Y058700D01*
X053336Y058700D02*
X053336Y059335D01*
X054336Y059335D02*
X054336Y058700D01*
X055336Y058700D02*
X055336Y059335D01*
X056336Y059335D02*
X056336Y058700D01*
X057336Y058700D02*
X057336Y059335D01*
X058336Y059335D02*
X058336Y058700D01*
X059336Y058700D02*
X059336Y059335D01*
X060336Y059335D02*
X060336Y058700D01*
X061336Y058700D02*
X061336Y059335D01*
X062336Y059335D02*
X062336Y058700D01*
X063336Y058700D02*
X063336Y059335D01*
X064336Y059335D02*
X064336Y058700D01*
X065336Y058700D02*
X065336Y059335D01*
X066336Y059335D02*
X066336Y058700D01*
X067336Y058700D02*
X067336Y059335D01*
X068336Y059335D02*
X068336Y058700D01*
X069336Y058700D02*
X069336Y059335D01*
X070336Y059335D02*
X070336Y058700D01*
X061653Y046767D02*
X061018Y046767D01*
X061018Y045767D02*
X061653Y045767D01*
X061653Y044767D02*
X061018Y044767D01*
X061018Y043767D02*
X061653Y043767D01*
X061653Y042767D02*
X061018Y042767D01*
X061018Y041767D02*
X061653Y041767D01*
X061653Y040767D02*
X061018Y040767D01*
X061018Y039767D02*
X061653Y039767D01*
X061653Y038767D02*
X061018Y038767D01*
X061018Y037767D02*
X061653Y037767D01*
X061653Y036767D02*
X061018Y036767D01*
X061018Y035767D02*
X061653Y035767D01*
X061653Y034767D02*
X061018Y034767D01*
X061018Y033767D02*
X061653Y033767D01*
X061653Y032767D02*
X061018Y032767D01*
X061018Y031767D02*
X061653Y031767D01*
X061653Y030767D02*
X061018Y030767D01*
X061018Y029767D02*
X061653Y029767D01*
X061653Y028767D02*
X061018Y028767D01*
X061018Y027767D02*
X061653Y027767D01*
X056403Y027767D02*
X055768Y027767D01*
X055768Y028767D02*
X056403Y028767D01*
X056403Y029767D02*
X055768Y029767D01*
X055768Y030767D02*
X056403Y030767D01*
X056403Y031767D02*
X055768Y031767D01*
X055768Y032767D02*
X056403Y032767D01*
X056403Y033767D02*
X055768Y033767D01*
X055768Y034767D02*
X056403Y034767D01*
X056403Y035767D02*
X055768Y035767D01*
X055768Y036767D02*
X056403Y036767D01*
X056403Y037767D02*
X055768Y037767D01*
X055768Y038767D02*
X056403Y038767D01*
X056403Y039767D02*
X055768Y039767D01*
X055768Y040767D02*
X056403Y040767D01*
X056403Y041767D02*
X055768Y041767D01*
X055768Y042767D02*
X056403Y042767D01*
X056403Y043767D02*
X055768Y043767D01*
X055768Y044767D02*
X056403Y044767D01*
X056403Y045767D02*
X055768Y045767D01*
X055768Y046767D02*
X056403Y046767D01*
X050403Y046767D02*
X049768Y046767D01*
X049768Y045767D02*
X050403Y045767D01*
X050403Y044767D02*
X049768Y044767D01*
X049768Y043767D02*
X050403Y043767D01*
X050403Y042767D02*
X049768Y042767D01*
X049768Y041767D02*
X050403Y041767D01*
X050403Y040767D02*
X049768Y040767D01*
X049768Y039767D02*
X050403Y039767D01*
X050403Y038767D02*
X049768Y038767D01*
X049768Y037767D02*
X050403Y037767D01*
X050403Y036767D02*
X049768Y036767D01*
X049768Y035767D02*
X050403Y035767D01*
X050403Y034767D02*
X049768Y034767D01*
X049768Y033767D02*
X050403Y033767D01*
X050403Y032767D02*
X049768Y032767D01*
X049768Y031767D02*
X050403Y031767D01*
X050403Y030767D02*
X049768Y030767D01*
X049768Y029767D02*
X050403Y029767D01*
X050403Y028767D02*
X049768Y028767D01*
X049768Y027767D02*
X050403Y027767D01*
X041153Y032392D02*
X040518Y032392D01*
X040518Y033392D02*
X041153Y033392D01*
X041153Y034392D02*
X040518Y034392D01*
X040518Y035392D02*
X041153Y035392D01*
X041153Y036392D02*
X040518Y036392D01*
X040518Y037392D02*
X041153Y037392D01*
X041153Y038392D02*
X040518Y038392D01*
X040518Y039392D02*
X041153Y039392D01*
X041153Y040392D02*
X040518Y040392D01*
X040518Y041392D02*
X041153Y041392D01*
X041153Y042392D02*
X040518Y042392D01*
X040518Y043392D02*
X041153Y043392D01*
X037153Y043392D02*
X036518Y043392D01*
X036518Y042392D02*
X037153Y042392D01*
X037153Y041392D02*
X036518Y041392D01*
X036518Y040392D02*
X037153Y040392D01*
X037153Y039392D02*
X036518Y039392D01*
X036518Y038392D02*
X037153Y038392D01*
X037153Y037392D02*
X036518Y037392D01*
X036518Y036392D02*
X037153Y036392D01*
X037153Y035392D02*
X036518Y035392D01*
X036518Y034392D02*
X037153Y034392D01*
X037153Y033392D02*
X036518Y033392D01*
X036518Y032392D02*
X037153Y032392D01*
X011586Y011960D02*
X011586Y011325D01*
X010586Y011325D02*
X010586Y011960D01*
X009586Y011960D02*
X009586Y011325D01*
X008586Y011325D02*
X008586Y011960D01*
X007586Y011960D02*
X007586Y011325D01*
X006586Y011325D02*
X006586Y011960D01*
X005586Y011960D02*
X005586Y011325D01*
X005586Y008960D02*
X005586Y008325D01*
X006586Y008325D02*
X006586Y008960D01*
X007586Y008960D02*
X007586Y008325D01*
X008586Y008325D02*
X008586Y008960D01*
X009586Y008960D02*
X009586Y008325D01*
X010586Y008325D02*
X010586Y008960D01*
X011586Y008960D02*
X011586Y008325D01*
D12*
X006336Y007045D02*
X006336Y006490D01*
X008336Y006490D02*
X008336Y007045D01*
X008461Y013615D02*
X008461Y014170D01*
X006461Y014170D02*
X006461Y013615D01*
D13*
X006712Y010642D03*
X007460Y010642D03*
X007587Y009767D03*
X008335Y009767D03*
X008587Y010642D03*
X009335Y010642D03*
X006335Y009767D03*
X005587Y009767D03*
X011337Y023267D03*
X012085Y023267D03*
X024837Y033517D03*
X025585Y033517D03*
X034962Y036392D03*
X035710Y036392D03*
X039087Y035392D03*
X039835Y035392D03*
X039835Y034392D03*
X039087Y034392D03*
X039087Y033392D03*
X039835Y033392D03*
X039710Y040392D03*
X038962Y040392D03*
X035710Y040642D03*
X034962Y040642D03*
X034962Y041517D03*
X035710Y041517D03*
X037837Y043392D03*
X038585Y043392D03*
X033585Y045267D03*
X032837Y045267D03*
X045712Y044392D03*
X046460Y044392D03*
X046962Y046767D03*
X047710Y046767D03*
X059337Y037017D03*
X060085Y037017D03*
X060210Y035767D03*
X059462Y035767D03*
X063962Y031767D03*
X064710Y031767D03*
X072712Y046392D03*
X073460Y046392D03*
X066085Y055267D03*
X065337Y055267D03*
X067712Y056267D03*
X068460Y056267D03*
X066460Y057642D03*
X065712Y057642D03*
X064710Y057642D03*
X063962Y057642D03*
X038710Y015392D03*
X037962Y015392D03*
X037962Y013517D03*
X038710Y013517D03*
D14*
X035836Y011141D03*
X035836Y010393D03*
X036961Y010266D03*
X036961Y009518D03*
X037961Y009518D03*
X037961Y010266D03*
X034711Y012768D03*
X034711Y013516D03*
X009711Y022393D03*
X009711Y023141D03*
X054961Y036893D03*
X054961Y037641D03*
X058336Y037518D03*
X058336Y038266D03*
X059086Y038266D03*
X059086Y037518D03*
X058336Y036266D03*
X058336Y035518D03*
X062711Y036643D03*
X062711Y037391D03*
X063211Y040768D03*
X063211Y041516D03*
X063336Y055393D03*
X064711Y056018D03*
X064711Y056766D03*
X063336Y056141D03*
X067336Y057143D03*
X067336Y057891D03*
X068336Y057891D03*
X068336Y057143D03*
X069336Y057143D03*
X069336Y057891D03*
X070336Y057891D03*
X070336Y057143D03*
X072711Y057018D03*
X072711Y057766D03*
X065586Y015266D03*
X065586Y014518D03*
D15*
X052336Y037707D03*
X051336Y037707D03*
X051336Y038827D03*
X052336Y038827D03*
X047211Y043207D03*
X047211Y044327D03*
X068336Y054082D03*
X068336Y055202D03*
D16*
X071660Y055517D03*
X072762Y055517D03*
X033387Y029517D03*
X032285Y029517D03*
D17*
X046711Y040767D03*
D18*
X046711Y039767D03*
X047711Y039767D03*
X047711Y040767D03*
X047711Y038767D03*
X046711Y038767D03*
X034836Y021892D03*
X034836Y020892D03*
X033836Y020892D03*
X033836Y021892D03*
X033836Y019892D03*
X033836Y018892D03*
X034836Y018892D03*
X034836Y019892D03*
X034836Y017892D03*
X033836Y017892D03*
D19*
X035586Y009392D03*
X039586Y009392D03*
X040086Y030642D03*
X032586Y037517D03*
X032711Y040017D03*
X032586Y042017D03*
D20*
X091585Y064225D03*
X092557Y063229D03*
X094530Y064221D03*
X096494Y063233D03*
X097494Y064225D03*
X096494Y068155D03*
X092554Y068155D03*
D21*
X008917Y024356D03*
X007932Y024356D03*
X007932Y023529D03*
X007932Y022506D03*
X007932Y021679D03*
X008917Y021679D03*
D22*
X006436Y023017D03*
D23*
X029836Y011642D03*
X030836Y011642D03*
X031836Y011642D03*
X031836Y009642D03*
X030836Y009642D03*
X029836Y009642D03*
X029836Y007642D03*
X030836Y007642D03*
X031836Y007642D03*
X031836Y005642D03*
X030836Y005642D03*
X029836Y005642D03*
D24*
X039086Y030642D03*
X033586Y037517D03*
X033711Y040017D03*
X033586Y042017D03*
D25*
X034962Y039767D03*
X035710Y039767D03*
X037837Y038392D03*
X038585Y038392D03*
X035710Y037267D03*
X034962Y037267D03*
D26*
X034961Y038143D03*
X034961Y038891D03*
D27*
X032003Y039142D02*
X031168Y039142D01*
X030003Y038392D02*
X029168Y038392D01*
X029168Y036892D02*
X030003Y036892D01*
X031168Y036142D02*
X032003Y036142D01*
X032003Y034642D02*
X031168Y034642D01*
X030003Y035392D02*
X029168Y035392D01*
X029168Y033892D02*
X030003Y033892D01*
X031168Y033142D02*
X032003Y033142D01*
X032003Y031642D02*
X031168Y031642D01*
X030003Y030892D02*
X029168Y030892D01*
X029168Y032392D02*
X030003Y032392D01*
X031168Y030142D02*
X032003Y030142D01*
X032003Y037642D02*
X031168Y037642D01*
X030003Y039892D02*
X029168Y039892D01*
X029168Y041392D02*
X030003Y041392D01*
X031168Y040642D02*
X032003Y040642D01*
X032003Y042142D02*
X031168Y042142D01*
X030003Y042892D02*
X029168Y042892D01*
X031168Y043642D02*
X032003Y043642D01*
X030003Y044392D02*
X029168Y044392D01*
X031168Y045142D02*
X032003Y045142D01*
D28*
X029686Y048042D03*
X028286Y048042D03*
X028286Y027242D03*
X029686Y027242D03*
D29*
X047436Y050492D03*
D30*
X047436Y058792D03*
D31*
X066211Y043267D03*
X065836Y041267D03*
X064711Y041017D03*
X060086Y041517D03*
X060086Y039767D03*
X051836Y030767D03*
X062086Y024142D03*
X064586Y027767D03*
X075086Y023642D03*
X060336Y009017D03*
D32*
X054211Y016892D03*
D33*
X052711Y023392D03*
M02*
