G75*
G70*
%OFA0B0*%
%FSLAX24Y24*%
%IPPOS*%
%LPD*%
%AMOC8*
5,1,8,0,0,1.08239X$1,22.5*
%
%ADD10C,0.0160*%
%ADD11C,0.0240*%
%ADD12C,0.0051*%
%ADD13C,0.0110*%
%ADD14C,0.0080*%
%ADD15C,0.0060*%
%ADD16C,0.0050*%
%ADD17C,0.0010*%
%ADD18C,0.0070*%
%ADD19C,0.0320*%
%ADD20C,0.0120*%
%ADD21C,0.0040*%
%ADD22R,0.0240X0.0340*%
%ADD23R,0.0200X0.1000*%
%ADD24R,0.0200X0.0200*%
%ADD25C,0.0100*%
%ADD26R,0.0118X0.0827*%
%ADD27R,0.1000X0.0200*%
%ADD28C,0.0020*%
%ADD29C,0.0025*%
%ADD30C,0.0098*%
%ADD31R,0.0551X0.0256*%
%ADD32R,0.0290X0.0690*%
%ADD33R,0.0571X0.0295*%
%ADD34C,0.0000*%
D10*
X026095Y017581D02*
X027345Y017581D01*
X028720Y016706D01*
X026095Y017581D02*
X025220Y018956D01*
X019970Y021081D02*
X019470Y020706D01*
X015845Y020706D01*
X015095Y022456D01*
X024970Y022643D02*
X024970Y023643D01*
D11*
X032908Y020081D02*
X032908Y014956D01*
X017220Y015268D02*
X017220Y015668D01*
X016970Y013768D02*
X016970Y013368D01*
X016970Y010168D02*
X016970Y009768D01*
X017220Y018868D02*
X017220Y019268D01*
X011545Y027881D02*
X010845Y027881D01*
X010845Y029781D02*
X011545Y029781D01*
X004045Y021718D02*
X003345Y021718D01*
X003345Y019818D02*
X004045Y019818D01*
X046158Y031768D02*
X046158Y032168D01*
X047470Y031356D02*
X047470Y030956D01*
X047470Y034556D02*
X047470Y034956D01*
X046158Y035368D02*
X046158Y035768D01*
D12*
X000220Y003581D02*
X000220Y000126D01*
X000220Y000893D02*
X001244Y000791D01*
X001244Y000768D02*
X000220Y000893D01*
X001244Y000996D01*
X001244Y001019D02*
X001244Y000768D01*
X001244Y000842D02*
X000220Y000893D01*
X001244Y000944D01*
X001244Y001019D02*
X000220Y000893D01*
X066595Y000893D01*
X065571Y000791D01*
X065571Y000768D02*
X066595Y000893D01*
X065571Y000996D01*
X065571Y001019D02*
X065571Y000768D01*
X065571Y000842D02*
X066595Y000893D01*
X065571Y000944D01*
X065571Y001019D02*
X066595Y000893D01*
X066595Y000126D02*
X066595Y003581D01*
X067470Y004206D02*
X070238Y004206D01*
X069470Y004206D02*
X069572Y005229D01*
X069596Y005229D02*
X069470Y004206D01*
X069368Y005229D01*
X069344Y005229D02*
X069596Y005229D01*
X069521Y005229D02*
X069470Y004206D01*
X069419Y005229D01*
X069344Y005229D02*
X069470Y004206D01*
X069470Y048456D01*
X069572Y047432D01*
X069596Y047432D02*
X069470Y048456D01*
X069368Y047432D01*
X069344Y047432D02*
X069596Y047432D01*
X069521Y047432D02*
X069470Y048456D01*
X069419Y047432D01*
X069344Y047432D02*
X069470Y048456D01*
X070238Y048456D02*
X067220Y048456D01*
D13*
X068385Y029146D02*
X068385Y028300D01*
X067750Y028934D01*
X069019Y028934D01*
X069019Y027877D02*
X068808Y027877D01*
X068808Y027666D01*
X069019Y027666D01*
X069019Y027877D01*
X069019Y027243D02*
X069019Y026397D01*
X068173Y027243D01*
X067962Y027243D01*
X067750Y027031D01*
X067750Y026608D01*
X067962Y026397D01*
X067750Y025551D02*
X069019Y025551D01*
X069019Y025128D02*
X069019Y025974D01*
X068173Y025128D02*
X067750Y025551D01*
X069019Y024705D02*
X069019Y023859D01*
X069019Y024282D02*
X067750Y024282D01*
X068173Y023859D01*
X037003Y002402D02*
X036792Y002613D01*
X036368Y002613D01*
X036157Y002402D01*
X036157Y002190D01*
X036368Y001978D01*
X037003Y001978D01*
X037003Y001555D02*
X037003Y002402D01*
X037003Y001555D02*
X036792Y001344D01*
X036368Y001344D01*
X036157Y001555D01*
X035734Y001555D02*
X035523Y001344D01*
X035100Y001344D01*
X034888Y001555D01*
X034465Y001555D02*
X034465Y001344D01*
X034254Y001344D01*
X034254Y001555D01*
X034465Y001555D01*
X034888Y001978D02*
X035311Y002190D01*
X035523Y002190D01*
X035734Y001978D01*
X035734Y001555D01*
X034888Y001978D02*
X034888Y002613D01*
X035734Y002613D01*
X033831Y002402D02*
X033831Y002190D01*
X033620Y001978D01*
X033196Y001978D01*
X032985Y002190D01*
X032985Y002402D01*
X033196Y002613D01*
X033620Y002613D01*
X033831Y002402D01*
X033620Y001978D02*
X033831Y001767D01*
X033831Y001555D01*
X033620Y001344D01*
X033196Y001344D01*
X032985Y001555D01*
X032985Y001767D01*
X033196Y001978D01*
X032562Y001767D02*
X032351Y001978D01*
X031716Y001978D01*
X031716Y001555D01*
X031928Y001344D01*
X032351Y001344D01*
X032562Y001555D01*
X032562Y001767D01*
X032139Y002402D02*
X031716Y001978D01*
X032139Y002402D02*
X032562Y002613D01*
X030870Y002613D02*
X030870Y001344D01*
X030447Y001344D02*
X031293Y001344D01*
X030447Y002190D02*
X030870Y002613D01*
D14*
X061955Y039621D02*
X061885Y039691D01*
X061885Y039971D01*
X061955Y040041D01*
X062095Y040041D01*
X062165Y039971D01*
X062165Y039691D02*
X062095Y039621D01*
X061955Y039621D01*
X062885Y039621D02*
X062885Y040041D01*
X063095Y040041D01*
X063165Y039971D01*
X063165Y039691D01*
X063095Y039621D01*
X062885Y039621D01*
X063885Y039761D02*
X063885Y040041D01*
X063885Y039761D02*
X064025Y039621D01*
X064165Y039761D01*
X064165Y040041D01*
X064885Y039971D02*
X064885Y039691D01*
X064955Y039621D01*
X065095Y039621D01*
X065165Y039691D01*
X065165Y039831D01*
X065025Y039831D01*
X064885Y039971D02*
X064955Y040041D01*
X065095Y040041D01*
X065165Y039971D01*
X066226Y043261D02*
X060714Y043261D01*
X060714Y048143D01*
X066226Y048143D01*
X066226Y043261D01*
X066226Y047750D02*
X060714Y047750D01*
D15*
X060432Y047555D02*
X060326Y047448D01*
X060112Y047448D01*
X060005Y047555D01*
X060005Y047982D01*
X060112Y048089D01*
X060326Y048089D01*
X060432Y047982D01*
X059788Y047982D02*
X059361Y047555D01*
X059468Y047448D01*
X059681Y047448D01*
X059788Y047555D01*
X059788Y047982D01*
X059681Y048089D01*
X059468Y048089D01*
X059361Y047982D01*
X059361Y047555D01*
X059143Y047448D02*
X058716Y047448D01*
X059143Y047875D01*
X059143Y047982D01*
X059037Y048089D01*
X058823Y048089D01*
X058716Y047982D01*
X058499Y047982D02*
X058072Y047555D01*
X058179Y047448D01*
X058392Y047448D01*
X058499Y047555D01*
X058499Y047982D01*
X058392Y048089D01*
X058179Y048089D01*
X058072Y047982D01*
X058072Y047555D01*
X057854Y047555D02*
X057748Y047448D01*
X057534Y047448D01*
X057427Y047555D01*
X057427Y047982D01*
X057534Y048089D01*
X057748Y048089D01*
X057854Y047982D01*
X057210Y047982D02*
X057210Y047555D01*
X057103Y047448D01*
X056889Y047448D01*
X056783Y047555D01*
X056889Y047769D02*
X057210Y047769D01*
X057210Y047982D02*
X057103Y048089D01*
X056889Y048089D01*
X056783Y047982D01*
X056783Y047875D01*
X056889Y047769D01*
X056565Y047875D02*
X056565Y047982D01*
X056458Y048089D01*
X056245Y048089D01*
X056138Y047982D01*
X055921Y048089D02*
X055921Y047448D01*
X055707Y047662D01*
X055494Y047448D01*
X055494Y048089D01*
X055007Y047982D02*
X055007Y047875D01*
X054901Y047769D01*
X054687Y047769D01*
X054580Y047875D01*
X054580Y047982D01*
X054687Y048089D01*
X054901Y048089D01*
X055007Y047982D01*
X054901Y047769D02*
X055007Y047662D01*
X055007Y047555D01*
X054901Y047448D01*
X054687Y047448D01*
X054580Y047555D01*
X054580Y047662D01*
X054687Y047769D01*
X054363Y047982D02*
X054363Y047555D01*
X054256Y047448D01*
X053936Y047448D01*
X053936Y048089D01*
X054256Y048089D01*
X054363Y047982D01*
X053718Y047982D02*
X053718Y047555D01*
X053612Y047448D01*
X053291Y047448D01*
X053291Y048089D01*
X053612Y048089D01*
X053718Y047982D01*
X054195Y047268D02*
X056445Y047268D01*
X056565Y047448D02*
X056138Y047448D01*
X056565Y047875D01*
X056445Y047268D02*
X056447Y047229D01*
X056453Y047190D01*
X056462Y047152D01*
X056475Y047115D01*
X056492Y047079D01*
X056512Y047046D01*
X056536Y047014D01*
X056562Y046985D01*
X056591Y046959D01*
X056623Y046935D01*
X056656Y046915D01*
X056692Y046898D01*
X056729Y046885D01*
X056767Y046876D01*
X056806Y046870D01*
X056845Y046868D01*
X056884Y046870D01*
X056923Y046876D01*
X056961Y046885D01*
X056998Y046898D01*
X057034Y046915D01*
X057067Y046935D01*
X057099Y046959D01*
X057128Y046985D01*
X057154Y047014D01*
X057178Y047046D01*
X057198Y047079D01*
X057215Y047115D01*
X057228Y047152D01*
X057237Y047190D01*
X057243Y047229D01*
X057245Y047268D01*
X059495Y047268D01*
X059495Y031268D01*
X054195Y031268D01*
X054195Y047268D01*
X049620Y047268D02*
X047320Y047268D01*
X047316Y047373D02*
X047743Y047373D01*
X047961Y047480D02*
X047961Y047587D01*
X048068Y047694D01*
X048281Y047694D01*
X048388Y047587D01*
X048388Y047480D01*
X048281Y047373D01*
X048068Y047373D01*
X047961Y047480D01*
X048068Y047694D02*
X047961Y047800D01*
X047961Y047907D01*
X048068Y048014D01*
X048281Y048014D01*
X048388Y047907D01*
X048388Y047800D01*
X048281Y047694D01*
X048605Y047907D02*
X048712Y048014D01*
X048926Y048014D01*
X049032Y047907D01*
X048605Y047480D01*
X048712Y047373D01*
X048926Y047373D01*
X049032Y047480D01*
X049032Y047907D01*
X048605Y047907D02*
X048605Y047480D01*
X049620Y047268D02*
X049620Y027268D01*
X044320Y027268D01*
X044320Y047268D01*
X046520Y047268D01*
X046507Y047398D02*
X046080Y047398D01*
X046294Y047398D02*
X046294Y048039D01*
X046080Y047825D01*
X045863Y047932D02*
X045756Y048039D01*
X045436Y048039D01*
X045436Y047398D01*
X045756Y047398D01*
X045863Y047505D01*
X045863Y047932D01*
X045218Y047932D02*
X045218Y047505D01*
X045112Y047398D01*
X044791Y047398D01*
X044791Y048039D01*
X045112Y048039D01*
X045218Y047932D01*
X046520Y047268D02*
X046522Y047229D01*
X046528Y047190D01*
X046537Y047152D01*
X046550Y047115D01*
X046567Y047079D01*
X046587Y047046D01*
X046611Y047014D01*
X046637Y046985D01*
X046666Y046959D01*
X046698Y046935D01*
X046731Y046915D01*
X046767Y046898D01*
X046804Y046885D01*
X046842Y046876D01*
X046881Y046870D01*
X046920Y046868D01*
X046959Y046870D01*
X046998Y046876D01*
X047036Y046885D01*
X047073Y046898D01*
X047109Y046915D01*
X047142Y046935D01*
X047174Y046959D01*
X047203Y046985D01*
X047229Y047014D01*
X047253Y047046D01*
X047273Y047079D01*
X047290Y047115D01*
X047303Y047152D01*
X047312Y047190D01*
X047318Y047229D01*
X047320Y047268D01*
X047316Y047373D02*
X047316Y047480D01*
X047743Y047907D01*
X047743Y048014D01*
X047316Y048014D01*
X039195Y047668D02*
X039195Y026868D01*
X037095Y026868D01*
X037093Y026912D01*
X037087Y026955D01*
X037078Y026997D01*
X037065Y027039D01*
X037048Y027079D01*
X037028Y027118D01*
X037005Y027155D01*
X036978Y027189D01*
X036949Y027222D01*
X036916Y027251D01*
X036882Y027278D01*
X036845Y027301D01*
X036806Y027321D01*
X036766Y027338D01*
X036724Y027351D01*
X036682Y027360D01*
X036639Y027366D01*
X036595Y027368D01*
X036551Y027366D01*
X036508Y027360D01*
X036466Y027351D01*
X036424Y027338D01*
X036384Y027321D01*
X036345Y027301D01*
X036308Y027278D01*
X036274Y027251D01*
X036241Y027222D01*
X036212Y027189D01*
X036185Y027155D01*
X036162Y027118D01*
X036142Y027079D01*
X036125Y027039D01*
X036112Y026997D01*
X036103Y026955D01*
X036097Y026912D01*
X036095Y026868D01*
X033995Y026868D01*
X033995Y047668D01*
X039195Y047668D01*
X029095Y045468D02*
X029095Y044268D01*
X025345Y044268D01*
X025345Y045468D01*
X025345Y048618D01*
X006845Y048618D01*
X006845Y045468D01*
X006845Y044268D01*
X008195Y044268D01*
X008195Y042768D01*
X008195Y041768D01*
X008445Y041518D01*
X008745Y041518D01*
X008995Y041768D01*
X008995Y042768D01*
X008995Y043218D01*
X009195Y043418D01*
X009195Y043668D01*
X009495Y043668D01*
X009495Y043418D01*
X009695Y043218D01*
X009695Y042768D01*
X009695Y041768D01*
X009945Y041518D01*
X010245Y041518D01*
X010495Y041768D01*
X010495Y042768D01*
X010495Y043218D01*
X010695Y043418D01*
X010695Y043668D01*
X010995Y043668D01*
X010995Y043418D01*
X011195Y043218D01*
X011195Y042768D01*
X011195Y041768D01*
X011445Y041518D01*
X011745Y041518D01*
X011995Y041768D01*
X011995Y042768D01*
X011995Y043218D01*
X012195Y043418D01*
X012195Y043668D01*
X012495Y043668D01*
X012495Y043418D01*
X012695Y043218D01*
X012695Y042768D01*
X012695Y041768D01*
X012945Y041518D01*
X013245Y041518D01*
X013495Y041768D01*
X013495Y042768D01*
X013495Y043218D01*
X013695Y043418D01*
X013695Y043668D01*
X013995Y043668D01*
X013995Y043418D01*
X014195Y043218D01*
X014195Y042768D01*
X014195Y041768D01*
X014445Y041518D01*
X014745Y041518D01*
X014995Y041768D01*
X014995Y042768D01*
X014995Y043218D01*
X015195Y043418D01*
X015195Y043668D01*
X015495Y043668D01*
X015495Y043418D01*
X015695Y043218D01*
X015695Y042768D01*
X015695Y041768D01*
X015945Y041518D01*
X016245Y041518D01*
X016495Y041768D01*
X016495Y042768D01*
X016495Y043218D01*
X016695Y043418D01*
X016695Y043668D01*
X016995Y043668D01*
X016995Y043418D01*
X017195Y043218D01*
X017195Y042768D01*
X017195Y041768D01*
X017445Y041518D01*
X017745Y041518D01*
X017995Y041768D01*
X017995Y042768D01*
X017995Y043218D01*
X018195Y043418D01*
X018195Y043668D01*
X018495Y043668D01*
X018495Y043418D01*
X018695Y043218D01*
X018695Y042768D01*
X018695Y041768D01*
X018945Y041518D01*
X019245Y041518D01*
X019495Y041768D01*
X019495Y042768D01*
X019495Y043218D01*
X019695Y043418D01*
X019695Y043668D01*
X019995Y043668D01*
X019995Y043418D01*
X020195Y043218D01*
X020195Y042768D01*
X020195Y041768D01*
X020445Y041518D01*
X020745Y041518D01*
X020995Y041768D01*
X020995Y042768D01*
X020995Y043218D01*
X021195Y043418D01*
X021195Y043668D01*
X021495Y043668D01*
X021495Y043418D01*
X021695Y043218D01*
X021695Y042768D01*
X021695Y041768D01*
X021945Y041518D01*
X022245Y041518D01*
X022495Y041768D01*
X022495Y042768D01*
X022495Y043218D01*
X022695Y043418D01*
X022695Y043668D01*
X022995Y043668D01*
X022995Y043418D01*
X023195Y043218D01*
X023195Y042768D01*
X023195Y041768D01*
X023445Y041518D01*
X023745Y041518D01*
X023995Y041768D01*
X023995Y042768D01*
X023995Y044268D01*
X025345Y044268D01*
X025845Y043443D02*
X025845Y043293D01*
X025995Y043293D01*
X025845Y043293D02*
X025845Y043143D01*
X025845Y043293D02*
X025695Y043293D01*
X025345Y043293D02*
X025345Y042943D01*
X025845Y042943D01*
X025845Y042743D01*
X024845Y042743D01*
X024845Y042943D01*
X025345Y042943D01*
X024245Y042643D02*
X024247Y042709D01*
X024253Y042774D01*
X024263Y042839D01*
X024276Y042904D01*
X024294Y042967D01*
X024315Y043030D01*
X024340Y043090D01*
X024369Y043150D01*
X024401Y043207D01*
X024436Y043263D01*
X024475Y043316D01*
X024517Y043367D01*
X024561Y043415D01*
X024609Y043460D01*
X024659Y043503D01*
X024712Y043542D01*
X024767Y043579D01*
X024824Y043612D01*
X024883Y043641D01*
X024943Y043667D01*
X025005Y043689D01*
X025068Y043708D01*
X025132Y043722D01*
X025197Y043733D01*
X025263Y043740D01*
X025329Y043743D01*
X025394Y043742D01*
X025460Y043737D01*
X025525Y043728D01*
X025590Y043715D01*
X025653Y043699D01*
X025716Y043679D01*
X025777Y043654D01*
X025837Y043627D01*
X025895Y043596D01*
X025951Y043561D01*
X026005Y043523D01*
X026056Y043482D01*
X026105Y043438D01*
X026151Y043391D01*
X026195Y043342D01*
X026235Y043290D01*
X026272Y043235D01*
X026306Y043179D01*
X026336Y043120D01*
X026363Y043060D01*
X026386Y042999D01*
X026405Y042936D01*
X026421Y042872D01*
X026433Y042807D01*
X026441Y042742D01*
X026445Y042676D01*
X026445Y042610D01*
X026441Y042544D01*
X026433Y042479D01*
X026421Y042414D01*
X026405Y042350D01*
X026386Y042287D01*
X026363Y042226D01*
X026336Y042166D01*
X026306Y042107D01*
X026272Y042051D01*
X026235Y041996D01*
X026195Y041944D01*
X026151Y041895D01*
X026105Y041848D01*
X026056Y041804D01*
X026005Y041763D01*
X025951Y041725D01*
X025895Y041690D01*
X025837Y041659D01*
X025777Y041632D01*
X025716Y041607D01*
X025653Y041587D01*
X025590Y041571D01*
X025525Y041558D01*
X025460Y041549D01*
X025394Y041544D01*
X025329Y041543D01*
X025263Y041546D01*
X025197Y041553D01*
X025132Y041564D01*
X025068Y041578D01*
X025005Y041597D01*
X024943Y041619D01*
X024883Y041645D01*
X024824Y041674D01*
X024767Y041707D01*
X024712Y041744D01*
X024659Y041783D01*
X024609Y041826D01*
X024561Y041871D01*
X024517Y041919D01*
X024475Y041970D01*
X024436Y042023D01*
X024401Y042079D01*
X024369Y042136D01*
X024340Y042196D01*
X024315Y042256D01*
X024294Y042319D01*
X024276Y042382D01*
X024263Y042447D01*
X024253Y042512D01*
X024247Y042577D01*
X024245Y042643D01*
X025345Y042393D02*
X025345Y041993D01*
X027095Y041106D02*
X027095Y040756D01*
X027595Y040756D01*
X027595Y040556D01*
X026595Y040556D01*
X026595Y040756D01*
X027095Y040756D01*
X025495Y040456D02*
X025497Y040536D01*
X025503Y040615D01*
X025513Y040694D01*
X025527Y040773D01*
X025544Y040851D01*
X025566Y040928D01*
X025591Y041003D01*
X025621Y041077D01*
X025653Y041150D01*
X025690Y041221D01*
X025730Y041290D01*
X025773Y041357D01*
X025820Y041422D01*
X025869Y041484D01*
X025922Y041544D01*
X025978Y041601D01*
X026036Y041656D01*
X026097Y041707D01*
X026161Y041755D01*
X026227Y041800D01*
X026295Y041842D01*
X026365Y041880D01*
X026437Y041914D01*
X026510Y041945D01*
X026585Y041973D01*
X026662Y041996D01*
X026739Y042016D01*
X026817Y042032D01*
X026896Y042044D01*
X026975Y042052D01*
X027055Y042056D01*
X027135Y042056D01*
X027215Y042052D01*
X027294Y042044D01*
X027373Y042032D01*
X027451Y042016D01*
X027528Y041996D01*
X027605Y041973D01*
X027680Y041945D01*
X027753Y041914D01*
X027825Y041880D01*
X027895Y041842D01*
X027963Y041800D01*
X028029Y041755D01*
X028093Y041707D01*
X028154Y041656D01*
X028212Y041601D01*
X028268Y041544D01*
X028321Y041484D01*
X028370Y041422D01*
X028417Y041357D01*
X028460Y041290D01*
X028500Y041221D01*
X028537Y041150D01*
X028569Y041077D01*
X028599Y041003D01*
X028624Y040928D01*
X028646Y040851D01*
X028663Y040773D01*
X028677Y040694D01*
X028687Y040615D01*
X028693Y040536D01*
X028695Y040456D01*
X028693Y040376D01*
X028687Y040297D01*
X028677Y040218D01*
X028663Y040139D01*
X028646Y040061D01*
X028624Y039984D01*
X028599Y039909D01*
X028569Y039835D01*
X028537Y039762D01*
X028500Y039691D01*
X028460Y039622D01*
X028417Y039555D01*
X028370Y039490D01*
X028321Y039428D01*
X028268Y039368D01*
X028212Y039311D01*
X028154Y039256D01*
X028093Y039205D01*
X028029Y039157D01*
X027963Y039112D01*
X027895Y039070D01*
X027825Y039032D01*
X027753Y038998D01*
X027680Y038967D01*
X027605Y038939D01*
X027528Y038916D01*
X027451Y038896D01*
X027373Y038880D01*
X027294Y038868D01*
X027215Y038860D01*
X027135Y038856D01*
X027055Y038856D01*
X026975Y038860D01*
X026896Y038868D01*
X026817Y038880D01*
X026739Y038896D01*
X026662Y038916D01*
X026585Y038939D01*
X026510Y038967D01*
X026437Y038998D01*
X026365Y039032D01*
X026295Y039070D01*
X026227Y039112D01*
X026161Y039157D01*
X026097Y039205D01*
X026036Y039256D01*
X025978Y039311D01*
X025922Y039368D01*
X025869Y039428D01*
X025820Y039490D01*
X025773Y039555D01*
X025730Y039622D01*
X025690Y039691D01*
X025653Y039762D01*
X025621Y039835D01*
X025591Y039909D01*
X025566Y039984D01*
X025544Y040061D01*
X025527Y040139D01*
X025513Y040218D01*
X025503Y040297D01*
X025497Y040376D01*
X025495Y040456D01*
X024495Y040018D02*
X024145Y040018D01*
X024145Y039518D01*
X023945Y039518D01*
X023945Y040518D01*
X024145Y040518D01*
X024145Y040018D01*
X022845Y040018D02*
X022847Y040081D01*
X022853Y040143D01*
X022863Y040205D01*
X022876Y040267D01*
X022894Y040327D01*
X022915Y040386D01*
X022940Y040444D01*
X022969Y040500D01*
X023001Y040554D01*
X023036Y040606D01*
X023074Y040655D01*
X023116Y040703D01*
X023160Y040747D01*
X023208Y040789D01*
X023257Y040827D01*
X023309Y040862D01*
X023363Y040894D01*
X023419Y040923D01*
X023477Y040948D01*
X023536Y040969D01*
X023596Y040987D01*
X023658Y041000D01*
X023720Y041010D01*
X023782Y041016D01*
X023845Y041018D01*
X023908Y041016D01*
X023970Y041010D01*
X024032Y041000D01*
X024094Y040987D01*
X024154Y040969D01*
X024213Y040948D01*
X024271Y040923D01*
X024327Y040894D01*
X024381Y040862D01*
X024433Y040827D01*
X024482Y040789D01*
X024530Y040747D01*
X024574Y040703D01*
X024616Y040655D01*
X024654Y040606D01*
X024689Y040554D01*
X024721Y040500D01*
X024750Y040444D01*
X024775Y040386D01*
X024796Y040327D01*
X024814Y040267D01*
X024827Y040205D01*
X024837Y040143D01*
X024843Y040081D01*
X024845Y040018D01*
X024843Y039955D01*
X024837Y039893D01*
X024827Y039831D01*
X024814Y039769D01*
X024796Y039709D01*
X024775Y039650D01*
X024750Y039592D01*
X024721Y039536D01*
X024689Y039482D01*
X024654Y039430D01*
X024616Y039381D01*
X024574Y039333D01*
X024530Y039289D01*
X024482Y039247D01*
X024433Y039209D01*
X024381Y039174D01*
X024327Y039142D01*
X024271Y039113D01*
X024213Y039088D01*
X024154Y039067D01*
X024094Y039049D01*
X024032Y039036D01*
X023970Y039026D01*
X023908Y039020D01*
X023845Y039018D01*
X023782Y039020D01*
X023720Y039026D01*
X023658Y039036D01*
X023596Y039049D01*
X023536Y039067D01*
X023477Y039088D01*
X023419Y039113D01*
X023363Y039142D01*
X023309Y039174D01*
X023257Y039209D01*
X023208Y039247D01*
X023160Y039289D01*
X023116Y039333D01*
X023074Y039381D01*
X023036Y039430D01*
X023001Y039482D01*
X022969Y039536D01*
X022940Y039592D01*
X022915Y039650D01*
X022894Y039709D01*
X022876Y039769D01*
X022863Y039831D01*
X022853Y039893D01*
X022847Y039955D01*
X022845Y040018D01*
X023195Y040018D02*
X023595Y040018D01*
X024295Y039518D02*
X024395Y039518D01*
X024395Y039418D01*
X024395Y039518D02*
X024395Y039618D01*
X024395Y039518D02*
X024495Y039518D01*
X027095Y039806D02*
X027095Y040206D01*
X027545Y041506D02*
X027545Y041806D01*
X027395Y041656D02*
X027695Y041656D01*
X027595Y043868D02*
X027595Y045868D01*
X029095Y045468D02*
X025345Y045468D01*
X023995Y044268D02*
X023445Y044268D01*
X022245Y044268D01*
X021945Y044268D01*
X020745Y044268D01*
X020445Y044268D01*
X019245Y044268D01*
X018945Y044268D01*
X017745Y044268D01*
X017445Y044268D01*
X016245Y044268D01*
X015945Y044268D01*
X014745Y044268D01*
X014445Y044268D01*
X013245Y044268D01*
X012945Y044268D01*
X011745Y044268D01*
X011445Y044268D01*
X010245Y044268D01*
X009945Y044268D01*
X008745Y044268D01*
X008195Y044268D01*
X006845Y044268D02*
X003095Y044268D01*
X003095Y045468D01*
X006845Y045468D01*
X004595Y045868D02*
X004595Y043868D01*
X004845Y042643D02*
X005095Y042393D01*
X005345Y042643D01*
X005845Y042643D01*
X006095Y042393D01*
X006095Y041893D01*
X005845Y041643D01*
X005345Y041643D01*
X005095Y041893D01*
X004845Y041643D01*
X004345Y041643D01*
X004095Y041893D01*
X003845Y041643D01*
X003345Y041643D01*
X003095Y041893D01*
X003095Y042393D01*
X003345Y042643D01*
X003845Y042643D01*
X004095Y042393D01*
X004345Y042643D01*
X004845Y042643D01*
X002520Y041331D02*
X002320Y041331D01*
X002320Y040331D01*
X002520Y040331D01*
X002520Y040831D01*
X002520Y041331D01*
X002520Y040831D02*
X002870Y040831D01*
X002870Y040481D02*
X002870Y040331D01*
X002870Y040181D01*
X002870Y040331D02*
X002720Y040331D01*
X002870Y040331D02*
X003020Y040331D01*
X001120Y040831D02*
X001122Y040897D01*
X001128Y040962D01*
X001138Y041027D01*
X001151Y041092D01*
X001169Y041155D01*
X001190Y041218D01*
X001215Y041278D01*
X001244Y041338D01*
X001276Y041395D01*
X001311Y041451D01*
X001350Y041504D01*
X001392Y041555D01*
X001436Y041603D01*
X001484Y041648D01*
X001534Y041691D01*
X001587Y041730D01*
X001642Y041767D01*
X001699Y041800D01*
X001758Y041829D01*
X001818Y041855D01*
X001880Y041877D01*
X001943Y041896D01*
X002007Y041910D01*
X002072Y041921D01*
X002138Y041928D01*
X002204Y041931D01*
X002269Y041930D01*
X002335Y041925D01*
X002400Y041916D01*
X002465Y041903D01*
X002528Y041887D01*
X002591Y041867D01*
X002652Y041842D01*
X002712Y041815D01*
X002770Y041784D01*
X002826Y041749D01*
X002880Y041711D01*
X002931Y041670D01*
X002980Y041626D01*
X003026Y041579D01*
X003070Y041530D01*
X003110Y041478D01*
X003147Y041423D01*
X003181Y041367D01*
X003211Y041308D01*
X003238Y041248D01*
X003261Y041187D01*
X003280Y041124D01*
X003296Y041060D01*
X003308Y040995D01*
X003316Y040930D01*
X003320Y040864D01*
X003320Y040798D01*
X003316Y040732D01*
X003308Y040667D01*
X003296Y040602D01*
X003280Y040538D01*
X003261Y040475D01*
X003238Y040414D01*
X003211Y040354D01*
X003181Y040295D01*
X003147Y040239D01*
X003110Y040184D01*
X003070Y040132D01*
X003026Y040083D01*
X002980Y040036D01*
X002931Y039992D01*
X002880Y039951D01*
X002826Y039913D01*
X002770Y039878D01*
X002712Y039847D01*
X002652Y039820D01*
X002591Y039795D01*
X002528Y039775D01*
X002465Y039759D01*
X002400Y039746D01*
X002335Y039737D01*
X002269Y039732D01*
X002204Y039731D01*
X002138Y039734D01*
X002072Y039741D01*
X002007Y039752D01*
X001943Y039766D01*
X001880Y039785D01*
X001818Y039807D01*
X001758Y039833D01*
X001699Y039862D01*
X001642Y039895D01*
X001587Y039932D01*
X001534Y039971D01*
X001484Y040014D01*
X001436Y040059D01*
X001392Y040107D01*
X001350Y040158D01*
X001311Y040211D01*
X001276Y040267D01*
X001244Y040324D01*
X001215Y040384D01*
X001190Y040444D01*
X001169Y040507D01*
X001151Y040570D01*
X001138Y040635D01*
X001128Y040700D01*
X001122Y040765D01*
X001120Y040831D01*
X001570Y040831D02*
X001970Y040831D01*
X003745Y039568D02*
X003745Y027468D01*
X006945Y027468D01*
X006945Y039568D01*
X005595Y039568D01*
X005593Y039538D01*
X005588Y039508D01*
X005579Y039479D01*
X005566Y039452D01*
X005551Y039426D01*
X005532Y039402D01*
X005511Y039381D01*
X005487Y039362D01*
X005461Y039347D01*
X005434Y039334D01*
X005405Y039325D01*
X005375Y039320D01*
X005345Y039318D01*
X005315Y039320D01*
X005285Y039325D01*
X005256Y039334D01*
X005229Y039347D01*
X005203Y039362D01*
X005179Y039381D01*
X005158Y039402D01*
X005139Y039426D01*
X005124Y039452D01*
X005111Y039479D01*
X005102Y039508D01*
X005097Y039538D01*
X005095Y039568D01*
X003745Y039568D01*
X010320Y040268D02*
X010720Y040268D01*
X009970Y040268D02*
X009972Y040331D01*
X009978Y040393D01*
X009988Y040455D01*
X010001Y040517D01*
X010019Y040577D01*
X010040Y040636D01*
X010065Y040694D01*
X010094Y040750D01*
X010126Y040804D01*
X010161Y040856D01*
X010199Y040905D01*
X010241Y040953D01*
X010285Y040997D01*
X010333Y041039D01*
X010382Y041077D01*
X010434Y041112D01*
X010488Y041144D01*
X010544Y041173D01*
X010602Y041198D01*
X010661Y041219D01*
X010721Y041237D01*
X010783Y041250D01*
X010845Y041260D01*
X010907Y041266D01*
X010970Y041268D01*
X011033Y041266D01*
X011095Y041260D01*
X011157Y041250D01*
X011219Y041237D01*
X011279Y041219D01*
X011338Y041198D01*
X011396Y041173D01*
X011452Y041144D01*
X011506Y041112D01*
X011558Y041077D01*
X011607Y041039D01*
X011655Y040997D01*
X011699Y040953D01*
X011741Y040905D01*
X011779Y040856D01*
X011814Y040804D01*
X011846Y040750D01*
X011875Y040694D01*
X011900Y040636D01*
X011921Y040577D01*
X011939Y040517D01*
X011952Y040455D01*
X011962Y040393D01*
X011968Y040331D01*
X011970Y040268D01*
X011968Y040205D01*
X011962Y040143D01*
X011952Y040081D01*
X011939Y040019D01*
X011921Y039959D01*
X011900Y039900D01*
X011875Y039842D01*
X011846Y039786D01*
X011814Y039732D01*
X011779Y039680D01*
X011741Y039631D01*
X011699Y039583D01*
X011655Y039539D01*
X011607Y039497D01*
X011558Y039459D01*
X011506Y039424D01*
X011452Y039392D01*
X011396Y039363D01*
X011338Y039338D01*
X011279Y039317D01*
X011219Y039299D01*
X011157Y039286D01*
X011095Y039276D01*
X011033Y039270D01*
X010970Y039268D01*
X010907Y039270D01*
X010845Y039276D01*
X010783Y039286D01*
X010721Y039299D01*
X010661Y039317D01*
X010602Y039338D01*
X010544Y039363D01*
X010488Y039392D01*
X010434Y039424D01*
X010382Y039459D01*
X010333Y039497D01*
X010285Y039539D01*
X010241Y039583D01*
X010199Y039631D01*
X010161Y039680D01*
X010126Y039732D01*
X010094Y039786D01*
X010065Y039842D01*
X010040Y039900D01*
X010019Y039959D01*
X010001Y040019D01*
X009988Y040081D01*
X009978Y040143D01*
X009972Y040205D01*
X009970Y040268D01*
X011070Y039768D02*
X011270Y039768D01*
X011270Y040268D01*
X011270Y040768D01*
X011070Y040768D01*
X011070Y039768D01*
X011420Y039768D02*
X011520Y039768D01*
X011520Y039668D01*
X011520Y039768D02*
X011520Y039868D01*
X011520Y039768D02*
X011620Y039768D01*
X011620Y040268D02*
X011270Y040268D01*
X012945Y040643D02*
X013345Y040643D01*
X012495Y040643D02*
X012497Y040709D01*
X012503Y040774D01*
X012513Y040839D01*
X012526Y040904D01*
X012544Y040967D01*
X012565Y041030D01*
X012590Y041090D01*
X012619Y041150D01*
X012651Y041207D01*
X012686Y041263D01*
X012725Y041316D01*
X012767Y041367D01*
X012811Y041415D01*
X012859Y041460D01*
X012909Y041503D01*
X012962Y041542D01*
X013017Y041579D01*
X013074Y041612D01*
X013133Y041641D01*
X013193Y041667D01*
X013255Y041689D01*
X013318Y041708D01*
X013382Y041722D01*
X013447Y041733D01*
X013513Y041740D01*
X013579Y041743D01*
X013644Y041742D01*
X013710Y041737D01*
X013775Y041728D01*
X013840Y041715D01*
X013903Y041699D01*
X013966Y041679D01*
X014027Y041654D01*
X014087Y041627D01*
X014145Y041596D01*
X014201Y041561D01*
X014255Y041523D01*
X014306Y041482D01*
X014355Y041438D01*
X014401Y041391D01*
X014445Y041342D01*
X014485Y041290D01*
X014522Y041235D01*
X014556Y041179D01*
X014586Y041120D01*
X014613Y041060D01*
X014636Y040999D01*
X014655Y040936D01*
X014671Y040872D01*
X014683Y040807D01*
X014691Y040742D01*
X014695Y040676D01*
X014695Y040610D01*
X014691Y040544D01*
X014683Y040479D01*
X014671Y040414D01*
X014655Y040350D01*
X014636Y040287D01*
X014613Y040226D01*
X014586Y040166D01*
X014556Y040107D01*
X014522Y040051D01*
X014485Y039996D01*
X014445Y039944D01*
X014401Y039895D01*
X014355Y039848D01*
X014306Y039804D01*
X014255Y039763D01*
X014201Y039725D01*
X014145Y039690D01*
X014087Y039659D01*
X014027Y039632D01*
X013966Y039607D01*
X013903Y039587D01*
X013840Y039571D01*
X013775Y039558D01*
X013710Y039549D01*
X013644Y039544D01*
X013579Y039543D01*
X013513Y039546D01*
X013447Y039553D01*
X013382Y039564D01*
X013318Y039578D01*
X013255Y039597D01*
X013193Y039619D01*
X013133Y039645D01*
X013074Y039674D01*
X013017Y039707D01*
X012962Y039744D01*
X012909Y039783D01*
X012859Y039826D01*
X012811Y039871D01*
X012767Y039919D01*
X012725Y039970D01*
X012686Y040023D01*
X012651Y040079D01*
X012619Y040136D01*
X012590Y040196D01*
X012565Y040256D01*
X012544Y040319D01*
X012526Y040382D01*
X012513Y040447D01*
X012503Y040512D01*
X012497Y040577D01*
X012495Y040643D01*
X013695Y040143D02*
X013895Y040143D01*
X013895Y040643D01*
X013895Y041143D01*
X013695Y041143D01*
X013695Y040143D01*
X014095Y040143D02*
X014245Y040143D01*
X014245Y039993D01*
X014245Y040143D02*
X014245Y040293D01*
X014245Y040143D02*
X014395Y040143D01*
X014245Y040643D02*
X013895Y040643D01*
X015695Y040643D02*
X016095Y040643D01*
X015245Y040643D02*
X015247Y040709D01*
X015253Y040774D01*
X015263Y040839D01*
X015276Y040904D01*
X015294Y040967D01*
X015315Y041030D01*
X015340Y041090D01*
X015369Y041150D01*
X015401Y041207D01*
X015436Y041263D01*
X015475Y041316D01*
X015517Y041367D01*
X015561Y041415D01*
X015609Y041460D01*
X015659Y041503D01*
X015712Y041542D01*
X015767Y041579D01*
X015824Y041612D01*
X015883Y041641D01*
X015943Y041667D01*
X016005Y041689D01*
X016068Y041708D01*
X016132Y041722D01*
X016197Y041733D01*
X016263Y041740D01*
X016329Y041743D01*
X016394Y041742D01*
X016460Y041737D01*
X016525Y041728D01*
X016590Y041715D01*
X016653Y041699D01*
X016716Y041679D01*
X016777Y041654D01*
X016837Y041627D01*
X016895Y041596D01*
X016951Y041561D01*
X017005Y041523D01*
X017056Y041482D01*
X017105Y041438D01*
X017151Y041391D01*
X017195Y041342D01*
X017235Y041290D01*
X017272Y041235D01*
X017306Y041179D01*
X017336Y041120D01*
X017363Y041060D01*
X017386Y040999D01*
X017405Y040936D01*
X017421Y040872D01*
X017433Y040807D01*
X017441Y040742D01*
X017445Y040676D01*
X017445Y040610D01*
X017441Y040544D01*
X017433Y040479D01*
X017421Y040414D01*
X017405Y040350D01*
X017386Y040287D01*
X017363Y040226D01*
X017336Y040166D01*
X017306Y040107D01*
X017272Y040051D01*
X017235Y039996D01*
X017195Y039944D01*
X017151Y039895D01*
X017105Y039848D01*
X017056Y039804D01*
X017005Y039763D01*
X016951Y039725D01*
X016895Y039690D01*
X016837Y039659D01*
X016777Y039632D01*
X016716Y039607D01*
X016653Y039587D01*
X016590Y039571D01*
X016525Y039558D01*
X016460Y039549D01*
X016394Y039544D01*
X016329Y039543D01*
X016263Y039546D01*
X016197Y039553D01*
X016132Y039564D01*
X016068Y039578D01*
X016005Y039597D01*
X015943Y039619D01*
X015883Y039645D01*
X015824Y039674D01*
X015767Y039707D01*
X015712Y039744D01*
X015659Y039783D01*
X015609Y039826D01*
X015561Y039871D01*
X015517Y039919D01*
X015475Y039970D01*
X015436Y040023D01*
X015401Y040079D01*
X015369Y040136D01*
X015340Y040196D01*
X015315Y040256D01*
X015294Y040319D01*
X015276Y040382D01*
X015263Y040447D01*
X015253Y040512D01*
X015247Y040577D01*
X015245Y040643D01*
X016445Y040143D02*
X016645Y040143D01*
X016645Y040643D01*
X016645Y041143D01*
X016445Y041143D01*
X016445Y040143D01*
X016845Y040143D02*
X016995Y040143D01*
X016995Y039993D01*
X016995Y040143D02*
X016995Y040293D01*
X016995Y040143D02*
X017145Y040143D01*
X016995Y040643D02*
X016645Y040643D01*
X018695Y040643D02*
X019095Y040643D01*
X018245Y040643D02*
X018247Y040709D01*
X018253Y040774D01*
X018263Y040839D01*
X018276Y040904D01*
X018294Y040967D01*
X018315Y041030D01*
X018340Y041090D01*
X018369Y041150D01*
X018401Y041207D01*
X018436Y041263D01*
X018475Y041316D01*
X018517Y041367D01*
X018561Y041415D01*
X018609Y041460D01*
X018659Y041503D01*
X018712Y041542D01*
X018767Y041579D01*
X018824Y041612D01*
X018883Y041641D01*
X018943Y041667D01*
X019005Y041689D01*
X019068Y041708D01*
X019132Y041722D01*
X019197Y041733D01*
X019263Y041740D01*
X019329Y041743D01*
X019394Y041742D01*
X019460Y041737D01*
X019525Y041728D01*
X019590Y041715D01*
X019653Y041699D01*
X019716Y041679D01*
X019777Y041654D01*
X019837Y041627D01*
X019895Y041596D01*
X019951Y041561D01*
X020005Y041523D01*
X020056Y041482D01*
X020105Y041438D01*
X020151Y041391D01*
X020195Y041342D01*
X020235Y041290D01*
X020272Y041235D01*
X020306Y041179D01*
X020336Y041120D01*
X020363Y041060D01*
X020386Y040999D01*
X020405Y040936D01*
X020421Y040872D01*
X020433Y040807D01*
X020441Y040742D01*
X020445Y040676D01*
X020445Y040610D01*
X020441Y040544D01*
X020433Y040479D01*
X020421Y040414D01*
X020405Y040350D01*
X020386Y040287D01*
X020363Y040226D01*
X020336Y040166D01*
X020306Y040107D01*
X020272Y040051D01*
X020235Y039996D01*
X020195Y039944D01*
X020151Y039895D01*
X020105Y039848D01*
X020056Y039804D01*
X020005Y039763D01*
X019951Y039725D01*
X019895Y039690D01*
X019837Y039659D01*
X019777Y039632D01*
X019716Y039607D01*
X019653Y039587D01*
X019590Y039571D01*
X019525Y039558D01*
X019460Y039549D01*
X019394Y039544D01*
X019329Y039543D01*
X019263Y039546D01*
X019197Y039553D01*
X019132Y039564D01*
X019068Y039578D01*
X019005Y039597D01*
X018943Y039619D01*
X018883Y039645D01*
X018824Y039674D01*
X018767Y039707D01*
X018712Y039744D01*
X018659Y039783D01*
X018609Y039826D01*
X018561Y039871D01*
X018517Y039919D01*
X018475Y039970D01*
X018436Y040023D01*
X018401Y040079D01*
X018369Y040136D01*
X018340Y040196D01*
X018315Y040256D01*
X018294Y040319D01*
X018276Y040382D01*
X018263Y040447D01*
X018253Y040512D01*
X018247Y040577D01*
X018245Y040643D01*
X019445Y040143D02*
X019645Y040143D01*
X019645Y040643D01*
X019645Y041143D01*
X019445Y041143D01*
X019445Y040143D01*
X019845Y040143D02*
X019995Y040143D01*
X019995Y039993D01*
X019995Y040143D02*
X019995Y040293D01*
X019995Y040143D02*
X020145Y040143D01*
X019995Y040643D02*
X019645Y040643D01*
X010345Y037918D02*
X010345Y032618D01*
X030345Y032618D01*
X030345Y034918D01*
X030306Y034920D01*
X030267Y034926D01*
X030229Y034935D01*
X030192Y034948D01*
X030156Y034965D01*
X030123Y034985D01*
X030091Y035009D01*
X030062Y035035D01*
X030036Y035064D01*
X030012Y035096D01*
X029992Y035129D01*
X029975Y035165D01*
X029962Y035202D01*
X029953Y035240D01*
X029947Y035279D01*
X029945Y035318D01*
X029947Y035357D01*
X029953Y035396D01*
X029962Y035434D01*
X029975Y035471D01*
X029992Y035507D01*
X030012Y035540D01*
X030036Y035572D01*
X030062Y035601D01*
X030091Y035627D01*
X030123Y035651D01*
X030156Y035671D01*
X030192Y035688D01*
X030229Y035701D01*
X030267Y035710D01*
X030306Y035716D01*
X030345Y035718D01*
X030345Y037918D01*
X010345Y037918D01*
X009720Y034268D02*
X009970Y034018D01*
X009970Y033518D01*
X009720Y033268D01*
X009970Y033018D01*
X009970Y032518D01*
X009720Y032268D01*
X009970Y032018D01*
X009970Y031518D01*
X009720Y031268D01*
X009220Y031268D01*
X008970Y031518D01*
X008970Y032018D01*
X009220Y032268D01*
X008970Y032518D01*
X008970Y033018D01*
X009220Y033268D01*
X008970Y033518D01*
X008970Y034018D01*
X009220Y034268D01*
X009720Y034268D01*
X006991Y032018D02*
X006993Y032055D01*
X006999Y032092D01*
X007008Y032127D01*
X007022Y032162D01*
X007038Y032195D01*
X007059Y032226D01*
X007082Y032255D01*
X007108Y032281D01*
X007137Y032304D01*
X007168Y032325D01*
X007201Y032341D01*
X007236Y032355D01*
X007271Y032364D01*
X007308Y032370D01*
X007345Y032372D01*
X007382Y032370D01*
X007419Y032364D01*
X007454Y032355D01*
X007489Y032341D01*
X007522Y032325D01*
X007553Y032304D01*
X007582Y032281D01*
X007608Y032255D01*
X007631Y032226D01*
X007652Y032195D01*
X007668Y032162D01*
X007682Y032127D01*
X007691Y032092D01*
X007697Y032055D01*
X007699Y032018D01*
X007697Y031981D01*
X007691Y031944D01*
X007682Y031909D01*
X007668Y031874D01*
X007652Y031841D01*
X007631Y031810D01*
X007608Y031781D01*
X007582Y031755D01*
X007553Y031732D01*
X007522Y031711D01*
X007489Y031695D01*
X007454Y031681D01*
X007419Y031672D01*
X007382Y031666D01*
X007345Y031664D01*
X007308Y031666D01*
X007271Y031672D01*
X007236Y031681D01*
X007201Y031695D01*
X007168Y031711D01*
X007137Y031732D01*
X007108Y031755D01*
X007082Y031781D01*
X007059Y031810D01*
X007038Y031841D01*
X007022Y031874D01*
X007008Y031909D01*
X006999Y031944D01*
X006993Y031981D01*
X006991Y032018D01*
X008420Y029618D02*
X008420Y029518D01*
X008520Y029518D01*
X008420Y029518D02*
X008420Y029418D01*
X008420Y029518D02*
X008320Y029518D01*
X008670Y029518D02*
X008670Y029018D01*
X008670Y028518D01*
X008870Y028518D01*
X008870Y029518D01*
X008670Y029518D01*
X008670Y029018D02*
X008320Y029018D01*
X007970Y029018D02*
X007972Y029081D01*
X007978Y029143D01*
X007988Y029205D01*
X008001Y029267D01*
X008019Y029327D01*
X008040Y029386D01*
X008065Y029444D01*
X008094Y029500D01*
X008126Y029554D01*
X008161Y029606D01*
X008199Y029655D01*
X008241Y029703D01*
X008285Y029747D01*
X008333Y029789D01*
X008382Y029827D01*
X008434Y029862D01*
X008488Y029894D01*
X008544Y029923D01*
X008602Y029948D01*
X008661Y029969D01*
X008721Y029987D01*
X008783Y030000D01*
X008845Y030010D01*
X008907Y030016D01*
X008970Y030018D01*
X009033Y030016D01*
X009095Y030010D01*
X009157Y030000D01*
X009219Y029987D01*
X009279Y029969D01*
X009338Y029948D01*
X009396Y029923D01*
X009452Y029894D01*
X009506Y029862D01*
X009558Y029827D01*
X009607Y029789D01*
X009655Y029747D01*
X009699Y029703D01*
X009741Y029655D01*
X009779Y029606D01*
X009814Y029554D01*
X009846Y029500D01*
X009875Y029444D01*
X009900Y029386D01*
X009921Y029327D01*
X009939Y029267D01*
X009952Y029205D01*
X009962Y029143D01*
X009968Y029081D01*
X009970Y029018D01*
X009968Y028955D01*
X009962Y028893D01*
X009952Y028831D01*
X009939Y028769D01*
X009921Y028709D01*
X009900Y028650D01*
X009875Y028592D01*
X009846Y028536D01*
X009814Y028482D01*
X009779Y028430D01*
X009741Y028381D01*
X009699Y028333D01*
X009655Y028289D01*
X009607Y028247D01*
X009558Y028209D01*
X009506Y028174D01*
X009452Y028142D01*
X009396Y028113D01*
X009338Y028088D01*
X009279Y028067D01*
X009219Y028049D01*
X009157Y028036D01*
X009095Y028026D01*
X009033Y028020D01*
X008970Y028018D01*
X008907Y028020D01*
X008845Y028026D01*
X008783Y028036D01*
X008721Y028049D01*
X008661Y028067D01*
X008602Y028088D01*
X008544Y028113D01*
X008488Y028142D01*
X008434Y028174D01*
X008382Y028209D01*
X008333Y028247D01*
X008285Y028289D01*
X008241Y028333D01*
X008199Y028381D01*
X008161Y028430D01*
X008126Y028482D01*
X008094Y028536D01*
X008065Y028592D01*
X008040Y028650D01*
X008019Y028709D01*
X008001Y028769D01*
X007988Y028831D01*
X007978Y028893D01*
X007972Y028955D01*
X007970Y029018D01*
X009220Y029018D02*
X009620Y029018D01*
X011595Y030831D02*
X016495Y030831D01*
X016525Y030829D01*
X016555Y030824D01*
X016584Y030815D01*
X016611Y030802D01*
X016637Y030787D01*
X016661Y030768D01*
X016682Y030747D01*
X016701Y030723D01*
X016716Y030697D01*
X016729Y030670D01*
X016738Y030641D01*
X016743Y030611D01*
X016745Y030581D01*
X016745Y027081D01*
X016743Y027051D01*
X016738Y027021D01*
X016729Y026992D01*
X016716Y026965D01*
X016701Y026939D01*
X016682Y026915D01*
X016661Y026894D01*
X016637Y026875D01*
X016611Y026860D01*
X016584Y026847D01*
X016555Y026838D01*
X016525Y026833D01*
X016495Y026831D01*
X011595Y026831D01*
X009845Y026168D02*
X009845Y023868D01*
X002845Y023868D01*
X002845Y024618D01*
X002884Y024620D01*
X002923Y024626D01*
X002961Y024635D01*
X002998Y024648D01*
X003034Y024665D01*
X003067Y024685D01*
X003099Y024709D01*
X003128Y024735D01*
X003154Y024764D01*
X003178Y024796D01*
X003198Y024829D01*
X003215Y024865D01*
X003228Y024902D01*
X003237Y024940D01*
X003243Y024979D01*
X003245Y025018D01*
X003243Y025057D01*
X003237Y025096D01*
X003228Y025134D01*
X003215Y025171D01*
X003198Y025207D01*
X003178Y025240D01*
X003154Y025272D01*
X003128Y025301D01*
X003099Y025327D01*
X003067Y025351D01*
X003034Y025371D01*
X002998Y025388D01*
X002961Y025401D01*
X002923Y025410D01*
X002884Y025416D01*
X002845Y025418D01*
X002845Y026168D01*
X009845Y026168D01*
X010970Y025143D02*
X012470Y025143D01*
X012720Y024893D01*
X012720Y024393D01*
X012470Y024143D01*
X012720Y023893D01*
X012720Y023393D01*
X012470Y023143D01*
X012720Y022893D01*
X012720Y022393D01*
X012470Y022143D01*
X010970Y022143D01*
X010720Y022393D01*
X010720Y022893D01*
X010970Y023143D01*
X010720Y023393D01*
X010720Y023893D01*
X010970Y024143D01*
X010720Y024393D01*
X010720Y024893D01*
X010970Y025143D01*
X011970Y023143D02*
X012470Y023143D01*
X011970Y023143D02*
X011720Y022893D01*
X011720Y022143D01*
X010895Y020893D02*
X010695Y020893D01*
X010695Y019893D01*
X010895Y019893D01*
X010895Y020393D01*
X010895Y020893D01*
X010895Y020393D02*
X011245Y020393D01*
X011245Y020043D02*
X011245Y019893D01*
X011245Y019743D01*
X011245Y019893D02*
X011095Y019893D01*
X011245Y019893D02*
X011395Y019893D01*
X009495Y020393D02*
X009497Y020459D01*
X009503Y020524D01*
X009513Y020589D01*
X009526Y020654D01*
X009544Y020717D01*
X009565Y020780D01*
X009590Y020840D01*
X009619Y020900D01*
X009651Y020957D01*
X009686Y021013D01*
X009725Y021066D01*
X009767Y021117D01*
X009811Y021165D01*
X009859Y021210D01*
X009909Y021253D01*
X009962Y021292D01*
X010017Y021329D01*
X010074Y021362D01*
X010133Y021391D01*
X010193Y021417D01*
X010255Y021439D01*
X010318Y021458D01*
X010382Y021472D01*
X010447Y021483D01*
X010513Y021490D01*
X010579Y021493D01*
X010644Y021492D01*
X010710Y021487D01*
X010775Y021478D01*
X010840Y021465D01*
X010903Y021449D01*
X010966Y021429D01*
X011027Y021404D01*
X011087Y021377D01*
X011145Y021346D01*
X011201Y021311D01*
X011255Y021273D01*
X011306Y021232D01*
X011355Y021188D01*
X011401Y021141D01*
X011445Y021092D01*
X011485Y021040D01*
X011522Y020985D01*
X011556Y020929D01*
X011586Y020870D01*
X011613Y020810D01*
X011636Y020749D01*
X011655Y020686D01*
X011671Y020622D01*
X011683Y020557D01*
X011691Y020492D01*
X011695Y020426D01*
X011695Y020360D01*
X011691Y020294D01*
X011683Y020229D01*
X011671Y020164D01*
X011655Y020100D01*
X011636Y020037D01*
X011613Y019976D01*
X011586Y019916D01*
X011556Y019857D01*
X011522Y019801D01*
X011485Y019746D01*
X011445Y019694D01*
X011401Y019645D01*
X011355Y019598D01*
X011306Y019554D01*
X011255Y019513D01*
X011201Y019475D01*
X011145Y019440D01*
X011087Y019409D01*
X011027Y019382D01*
X010966Y019357D01*
X010903Y019337D01*
X010840Y019321D01*
X010775Y019308D01*
X010710Y019299D01*
X010644Y019294D01*
X010579Y019293D01*
X010513Y019296D01*
X010447Y019303D01*
X010382Y019314D01*
X010318Y019328D01*
X010255Y019347D01*
X010193Y019369D01*
X010133Y019395D01*
X010074Y019424D01*
X010017Y019457D01*
X009962Y019494D01*
X009909Y019533D01*
X009859Y019576D01*
X009811Y019621D01*
X009767Y019669D01*
X009725Y019720D01*
X009686Y019773D01*
X009651Y019829D01*
X009619Y019886D01*
X009590Y019946D01*
X009565Y020006D01*
X009544Y020069D01*
X009526Y020132D01*
X009513Y020197D01*
X009503Y020262D01*
X009497Y020327D01*
X009495Y020393D01*
X009945Y020393D02*
X010345Y020393D01*
X009245Y019018D02*
X009245Y022518D01*
X009243Y022548D01*
X009238Y022578D01*
X009229Y022607D01*
X009216Y022634D01*
X009201Y022660D01*
X009182Y022684D01*
X009161Y022705D01*
X009137Y022724D01*
X009111Y022739D01*
X009084Y022752D01*
X009055Y022761D01*
X009025Y022766D01*
X008995Y022768D01*
X004095Y022768D01*
X008095Y021518D02*
X008095Y021138D01*
X008095Y020398D02*
X008095Y020018D01*
X009245Y019018D02*
X009243Y018988D01*
X009238Y018958D01*
X009229Y018929D01*
X009216Y018902D01*
X009201Y018876D01*
X009182Y018852D01*
X009161Y018831D01*
X009137Y018812D01*
X009111Y018797D01*
X009084Y018784D01*
X009055Y018775D01*
X009025Y018770D01*
X008995Y018768D01*
X004095Y018768D01*
X003345Y018430D02*
X003345Y018107D01*
X002845Y018107D02*
X002845Y018430D01*
X003283Y013276D02*
X004038Y013276D01*
X004038Y012636D02*
X003283Y012636D01*
X014595Y021268D02*
X014845Y021018D01*
X016345Y021018D01*
X016595Y021268D01*
X016595Y021768D01*
X016345Y022018D01*
X016595Y022268D01*
X016595Y022768D01*
X016345Y023018D01*
X016595Y023268D01*
X016595Y023768D01*
X016345Y024018D01*
X016595Y024268D01*
X016595Y024768D01*
X016345Y025018D01*
X016595Y025268D01*
X016595Y025768D01*
X016345Y026018D01*
X014845Y026018D01*
X014595Y025768D01*
X014595Y025268D01*
X014845Y025018D01*
X014595Y024768D01*
X014595Y024268D01*
X014845Y024018D01*
X014595Y023768D01*
X014595Y023268D01*
X014845Y023018D01*
X014595Y022768D01*
X014595Y022268D01*
X014845Y022018D01*
X014595Y021768D01*
X014595Y021268D01*
X015595Y021018D02*
X015595Y021768D01*
X015845Y022018D01*
X016345Y022018D01*
X019616Y021143D02*
X019618Y021180D01*
X019624Y021217D01*
X019633Y021252D01*
X019647Y021287D01*
X019663Y021320D01*
X019684Y021351D01*
X019707Y021380D01*
X019733Y021406D01*
X019762Y021429D01*
X019793Y021450D01*
X019826Y021466D01*
X019861Y021480D01*
X019896Y021489D01*
X019933Y021495D01*
X019970Y021497D01*
X020007Y021495D01*
X020044Y021489D01*
X020079Y021480D01*
X020114Y021466D01*
X020147Y021450D01*
X020178Y021429D01*
X020207Y021406D01*
X020233Y021380D01*
X020256Y021351D01*
X020277Y021320D01*
X020293Y021287D01*
X020307Y021252D01*
X020316Y021217D01*
X020322Y021180D01*
X020324Y021143D01*
X020322Y021106D01*
X020316Y021069D01*
X020307Y021034D01*
X020293Y020999D01*
X020277Y020966D01*
X020256Y020935D01*
X020233Y020906D01*
X020207Y020880D01*
X020178Y020857D01*
X020147Y020836D01*
X020114Y020820D01*
X020079Y020806D01*
X020044Y020797D01*
X020007Y020791D01*
X019970Y020789D01*
X019933Y020791D01*
X019896Y020797D01*
X019861Y020806D01*
X019826Y020820D01*
X019793Y020836D01*
X019762Y020857D01*
X019733Y020880D01*
X019707Y020906D01*
X019684Y020935D01*
X019663Y020966D01*
X019647Y020999D01*
X019633Y021034D01*
X019624Y021069D01*
X019618Y021106D01*
X019616Y021143D01*
X017570Y018518D02*
X016870Y018518D01*
X016853Y018516D01*
X016836Y018512D01*
X016820Y018505D01*
X016806Y018495D01*
X016793Y018482D01*
X016783Y018468D01*
X016776Y018452D01*
X016772Y018435D01*
X016770Y018418D01*
X016770Y018268D01*
X016820Y018218D01*
X016820Y016318D01*
X016770Y016268D01*
X016770Y016118D01*
X016772Y016101D01*
X016776Y016084D01*
X016783Y016068D01*
X016793Y016054D01*
X016806Y016041D01*
X016820Y016031D01*
X016836Y016024D01*
X016853Y016020D01*
X016870Y016018D01*
X017570Y016018D01*
X017587Y016020D01*
X017604Y016024D01*
X017620Y016031D01*
X017634Y016041D01*
X017647Y016054D01*
X017657Y016068D01*
X017664Y016084D01*
X017668Y016101D01*
X017670Y016118D01*
X017670Y016268D01*
X017620Y016318D01*
X017620Y018218D01*
X017670Y018268D01*
X017670Y018418D01*
X017668Y018435D01*
X017664Y018452D01*
X017657Y018468D01*
X017647Y018482D01*
X017634Y018495D01*
X017620Y018505D01*
X017604Y018512D01*
X017587Y018516D01*
X017570Y018518D01*
X018616Y014143D02*
X018618Y014180D01*
X018624Y014217D01*
X018633Y014252D01*
X018647Y014287D01*
X018663Y014320D01*
X018684Y014351D01*
X018707Y014380D01*
X018733Y014406D01*
X018762Y014429D01*
X018793Y014450D01*
X018826Y014466D01*
X018861Y014480D01*
X018896Y014489D01*
X018933Y014495D01*
X018970Y014497D01*
X019007Y014495D01*
X019044Y014489D01*
X019079Y014480D01*
X019114Y014466D01*
X019147Y014450D01*
X019178Y014429D01*
X019207Y014406D01*
X019233Y014380D01*
X019256Y014351D01*
X019277Y014320D01*
X019293Y014287D01*
X019307Y014252D01*
X019316Y014217D01*
X019322Y014180D01*
X019324Y014143D01*
X019322Y014106D01*
X019316Y014069D01*
X019307Y014034D01*
X019293Y013999D01*
X019277Y013966D01*
X019256Y013935D01*
X019233Y013906D01*
X019207Y013880D01*
X019178Y013857D01*
X019147Y013836D01*
X019114Y013820D01*
X019079Y013806D01*
X019044Y013797D01*
X019007Y013791D01*
X018970Y013789D01*
X018933Y013791D01*
X018896Y013797D01*
X018861Y013806D01*
X018826Y013820D01*
X018793Y013836D01*
X018762Y013857D01*
X018733Y013880D01*
X018707Y013906D01*
X018684Y013935D01*
X018663Y013966D01*
X018647Y013999D01*
X018633Y014034D01*
X018624Y014069D01*
X018618Y014106D01*
X018616Y014143D01*
X017420Y012918D02*
X017420Y012768D01*
X017370Y012718D01*
X017370Y010818D01*
X017420Y010768D01*
X017420Y010618D01*
X017418Y010601D01*
X017414Y010584D01*
X017407Y010568D01*
X017397Y010554D01*
X017384Y010541D01*
X017370Y010531D01*
X017354Y010524D01*
X017337Y010520D01*
X017320Y010518D01*
X016620Y010518D01*
X016603Y010520D01*
X016586Y010524D01*
X016570Y010531D01*
X016556Y010541D01*
X016543Y010554D01*
X016533Y010568D01*
X016526Y010584D01*
X016522Y010601D01*
X016520Y010618D01*
X016520Y010768D01*
X016570Y010818D01*
X016570Y012718D01*
X016520Y012768D01*
X016520Y012918D01*
X016522Y012935D01*
X016526Y012952D01*
X016533Y012968D01*
X016543Y012982D01*
X016556Y012995D01*
X016570Y013005D01*
X016586Y013012D01*
X016603Y013016D01*
X016620Y013018D01*
X017320Y013018D01*
X017337Y013016D01*
X017354Y013012D01*
X017370Y013005D01*
X017384Y012995D01*
X017397Y012982D01*
X017407Y012968D01*
X017414Y012952D01*
X017418Y012935D01*
X017420Y012918D01*
X021616Y011143D02*
X021618Y011180D01*
X021624Y011217D01*
X021633Y011252D01*
X021647Y011287D01*
X021663Y011320D01*
X021684Y011351D01*
X021707Y011380D01*
X021733Y011406D01*
X021762Y011429D01*
X021793Y011450D01*
X021826Y011466D01*
X021861Y011480D01*
X021896Y011489D01*
X021933Y011495D01*
X021970Y011497D01*
X022007Y011495D01*
X022044Y011489D01*
X022079Y011480D01*
X022114Y011466D01*
X022147Y011450D01*
X022178Y011429D01*
X022207Y011406D01*
X022233Y011380D01*
X022256Y011351D01*
X022277Y011320D01*
X022293Y011287D01*
X022307Y011252D01*
X022316Y011217D01*
X022322Y011180D01*
X022324Y011143D01*
X022322Y011106D01*
X022316Y011069D01*
X022307Y011034D01*
X022293Y010999D01*
X022277Y010966D01*
X022256Y010935D01*
X022233Y010906D01*
X022207Y010880D01*
X022178Y010857D01*
X022147Y010836D01*
X022114Y010820D01*
X022079Y010806D01*
X022044Y010797D01*
X022007Y010791D01*
X021970Y010789D01*
X021933Y010791D01*
X021896Y010797D01*
X021861Y010806D01*
X021826Y010820D01*
X021793Y010836D01*
X021762Y010857D01*
X021733Y010880D01*
X021707Y010906D01*
X021684Y010935D01*
X021663Y010966D01*
X021647Y010999D01*
X021633Y011034D01*
X021624Y011069D01*
X021618Y011106D01*
X021616Y011143D01*
X023500Y008689D02*
X023820Y008689D01*
X023927Y008582D01*
X023927Y008155D01*
X023820Y008048D01*
X023500Y008048D01*
X023500Y008689D01*
X024145Y008689D02*
X024145Y008048D01*
X024465Y008048D01*
X024572Y008155D01*
X024572Y008582D01*
X024465Y008689D01*
X024145Y008689D01*
X024789Y008582D02*
X024896Y008689D01*
X025109Y008689D01*
X025216Y008582D01*
X025216Y008475D01*
X024789Y008048D01*
X025216Y008048D01*
X025875Y008048D02*
X025875Y008689D01*
X026302Y008689D01*
X026520Y008689D02*
X026840Y008689D01*
X026947Y008582D01*
X026947Y008369D01*
X026840Y008262D01*
X026520Y008262D01*
X026520Y008048D02*
X026520Y008689D01*
X026089Y008369D02*
X025875Y008369D01*
X025875Y008048D02*
X026302Y008048D01*
X027164Y008048D02*
X027164Y008689D01*
X027378Y008475D01*
X027591Y008689D01*
X027591Y008048D01*
X027809Y008048D02*
X027809Y008155D01*
X028236Y008582D01*
X028236Y008689D01*
X027809Y008689D01*
X028453Y008475D02*
X028667Y008689D01*
X028667Y008048D01*
X028880Y008048D02*
X028453Y008048D01*
X029098Y008048D02*
X029525Y008475D01*
X029525Y008582D01*
X029418Y008689D01*
X029205Y008689D01*
X029098Y008582D01*
X029098Y008048D02*
X029525Y008048D01*
X029742Y008155D02*
X029742Y008262D01*
X029849Y008369D01*
X030063Y008369D01*
X030169Y008262D01*
X030169Y008155D01*
X030063Y008048D01*
X029849Y008048D01*
X029742Y008155D01*
X029849Y008369D02*
X029742Y008475D01*
X029742Y008582D01*
X029849Y008689D01*
X030063Y008689D01*
X030169Y008582D01*
X030169Y008475D01*
X030063Y008369D01*
X030387Y008475D02*
X030494Y008369D01*
X030707Y008369D01*
X030814Y008262D01*
X030814Y008155D01*
X030707Y008048D01*
X030494Y008048D01*
X030387Y008155D01*
X030387Y008475D02*
X030387Y008582D01*
X030494Y008689D01*
X030707Y008689D01*
X030814Y008582D01*
X031031Y008689D02*
X031031Y008048D01*
X031458Y008048D01*
X031676Y008155D02*
X031676Y008582D01*
X031783Y008689D01*
X031996Y008689D01*
X032103Y008582D01*
X032320Y008582D02*
X032320Y008475D01*
X032427Y008369D01*
X032641Y008369D01*
X032748Y008262D01*
X032748Y008155D01*
X032641Y008048D01*
X032427Y008048D01*
X032320Y008155D01*
X032320Y008262D01*
X032427Y008369D01*
X032641Y008369D02*
X032748Y008475D01*
X032748Y008582D01*
X032641Y008689D01*
X032427Y008689D01*
X032320Y008582D01*
X032103Y008155D02*
X031996Y008048D01*
X031783Y008048D01*
X031676Y008155D01*
X032965Y008369D02*
X033392Y008369D01*
X033610Y008369D02*
X034037Y008369D01*
X034254Y008475D02*
X034468Y008689D01*
X034468Y008048D01*
X034681Y008048D02*
X034254Y008048D01*
X034899Y008155D02*
X035005Y008048D01*
X035219Y008048D01*
X035326Y008155D01*
X035326Y008369D01*
X035219Y008475D01*
X035112Y008475D01*
X034899Y008369D01*
X034899Y008689D01*
X035326Y008689D01*
X033285Y008689D02*
X033285Y008048D01*
X032965Y008369D02*
X033285Y008689D01*
X034620Y006193D02*
X034620Y020093D01*
X039820Y020093D01*
X039820Y006193D01*
X037720Y006193D01*
X037718Y006237D01*
X037712Y006280D01*
X037703Y006322D01*
X037690Y006364D01*
X037673Y006404D01*
X037653Y006443D01*
X037630Y006480D01*
X037603Y006514D01*
X037574Y006547D01*
X037541Y006576D01*
X037507Y006603D01*
X037470Y006626D01*
X037431Y006646D01*
X037391Y006663D01*
X037349Y006676D01*
X037307Y006685D01*
X037264Y006691D01*
X037220Y006693D01*
X037176Y006691D01*
X037133Y006685D01*
X037091Y006676D01*
X037049Y006663D01*
X037009Y006646D01*
X036970Y006626D01*
X036933Y006603D01*
X036899Y006576D01*
X036866Y006547D01*
X036837Y006514D01*
X036810Y006480D01*
X036787Y006443D01*
X036767Y006404D01*
X036750Y006364D01*
X036737Y006322D01*
X036728Y006280D01*
X036722Y006237D01*
X036720Y006193D01*
X034620Y006193D01*
X029616Y010143D02*
X029618Y010180D01*
X029624Y010217D01*
X029633Y010252D01*
X029647Y010287D01*
X029663Y010320D01*
X029684Y010351D01*
X029707Y010380D01*
X029733Y010406D01*
X029762Y010429D01*
X029793Y010450D01*
X029826Y010466D01*
X029861Y010480D01*
X029896Y010489D01*
X029933Y010495D01*
X029970Y010497D01*
X030007Y010495D01*
X030044Y010489D01*
X030079Y010480D01*
X030114Y010466D01*
X030147Y010450D01*
X030178Y010429D01*
X030207Y010406D01*
X030233Y010380D01*
X030256Y010351D01*
X030277Y010320D01*
X030293Y010287D01*
X030307Y010252D01*
X030316Y010217D01*
X030322Y010180D01*
X030324Y010143D01*
X030322Y010106D01*
X030316Y010069D01*
X030307Y010034D01*
X030293Y009999D01*
X030277Y009966D01*
X030256Y009935D01*
X030233Y009906D01*
X030207Y009880D01*
X030178Y009857D01*
X030147Y009836D01*
X030114Y009820D01*
X030079Y009806D01*
X030044Y009797D01*
X030007Y009791D01*
X029970Y009789D01*
X029933Y009791D01*
X029896Y009797D01*
X029861Y009806D01*
X029826Y009820D01*
X029793Y009836D01*
X029762Y009857D01*
X029733Y009880D01*
X029707Y009906D01*
X029684Y009935D01*
X029663Y009966D01*
X029647Y009999D01*
X029633Y010034D01*
X029624Y010069D01*
X029618Y010106D01*
X029616Y010143D01*
X024616Y010143D02*
X024618Y010180D01*
X024624Y010217D01*
X024633Y010252D01*
X024647Y010287D01*
X024663Y010320D01*
X024684Y010351D01*
X024707Y010380D01*
X024733Y010406D01*
X024762Y010429D01*
X024793Y010450D01*
X024826Y010466D01*
X024861Y010480D01*
X024896Y010489D01*
X024933Y010495D01*
X024970Y010497D01*
X025007Y010495D01*
X025044Y010489D01*
X025079Y010480D01*
X025114Y010466D01*
X025147Y010450D01*
X025178Y010429D01*
X025207Y010406D01*
X025233Y010380D01*
X025256Y010351D01*
X025277Y010320D01*
X025293Y010287D01*
X025307Y010252D01*
X025316Y010217D01*
X025322Y010180D01*
X025324Y010143D01*
X025322Y010106D01*
X025316Y010069D01*
X025307Y010034D01*
X025293Y009999D01*
X025277Y009966D01*
X025256Y009935D01*
X025233Y009906D01*
X025207Y009880D01*
X025178Y009857D01*
X025147Y009836D01*
X025114Y009820D01*
X025079Y009806D01*
X025044Y009797D01*
X025007Y009791D01*
X024970Y009789D01*
X024933Y009791D01*
X024896Y009797D01*
X024861Y009806D01*
X024826Y009820D01*
X024793Y009836D01*
X024762Y009857D01*
X024733Y009880D01*
X024707Y009906D01*
X024684Y009935D01*
X024663Y009966D01*
X024647Y009999D01*
X024633Y010034D01*
X024624Y010069D01*
X024618Y010106D01*
X024616Y010143D01*
X022036Y007897D02*
X022038Y007938D01*
X022044Y007979D01*
X022054Y008019D01*
X022067Y008058D01*
X022084Y008096D01*
X022105Y008132D01*
X022129Y008165D01*
X022156Y008196D01*
X022186Y008225D01*
X022218Y008251D01*
X022253Y008273D01*
X022290Y008292D01*
X022328Y008307D01*
X022368Y008319D01*
X022408Y008327D01*
X022449Y008331D01*
X022491Y008331D01*
X022532Y008327D01*
X022572Y008319D01*
X022612Y008307D01*
X022650Y008292D01*
X022687Y008273D01*
X022722Y008251D01*
X022754Y008225D01*
X022784Y008196D01*
X022811Y008165D01*
X022835Y008132D01*
X022856Y008096D01*
X022873Y008058D01*
X022886Y008019D01*
X022896Y007979D01*
X022902Y007938D01*
X022904Y007897D01*
X022902Y007856D01*
X022896Y007815D01*
X022886Y007775D01*
X022873Y007736D01*
X022856Y007698D01*
X022835Y007662D01*
X022811Y007629D01*
X022784Y007598D01*
X022754Y007569D01*
X022722Y007543D01*
X022687Y007521D01*
X022650Y007502D01*
X022612Y007487D01*
X022572Y007475D01*
X022532Y007467D01*
X022491Y007463D01*
X022449Y007463D01*
X022408Y007467D01*
X022368Y007475D01*
X022328Y007487D01*
X022290Y007502D01*
X022253Y007521D01*
X022218Y007543D01*
X022186Y007569D01*
X022156Y007598D01*
X022129Y007629D01*
X022105Y007662D01*
X022084Y007698D01*
X022067Y007736D01*
X022054Y007775D01*
X022044Y007815D01*
X022038Y007856D01*
X022036Y007897D01*
X020036Y007897D02*
X020038Y007938D01*
X020044Y007979D01*
X020054Y008019D01*
X020067Y008058D01*
X020084Y008096D01*
X020105Y008132D01*
X020129Y008165D01*
X020156Y008196D01*
X020186Y008225D01*
X020218Y008251D01*
X020253Y008273D01*
X020290Y008292D01*
X020328Y008307D01*
X020368Y008319D01*
X020408Y008327D01*
X020449Y008331D01*
X020491Y008331D01*
X020532Y008327D01*
X020572Y008319D01*
X020612Y008307D01*
X020650Y008292D01*
X020687Y008273D01*
X020722Y008251D01*
X020754Y008225D01*
X020784Y008196D01*
X020811Y008165D01*
X020835Y008132D01*
X020856Y008096D01*
X020873Y008058D01*
X020886Y008019D01*
X020896Y007979D01*
X020902Y007938D01*
X020904Y007897D01*
X020902Y007856D01*
X020896Y007815D01*
X020886Y007775D01*
X020873Y007736D01*
X020856Y007698D01*
X020835Y007662D01*
X020811Y007629D01*
X020784Y007598D01*
X020754Y007569D01*
X020722Y007543D01*
X020687Y007521D01*
X020650Y007502D01*
X020612Y007487D01*
X020572Y007475D01*
X020532Y007467D01*
X020491Y007463D01*
X020449Y007463D01*
X020408Y007467D01*
X020368Y007475D01*
X020328Y007487D01*
X020290Y007502D01*
X020253Y007521D01*
X020218Y007543D01*
X020186Y007569D01*
X020156Y007598D01*
X020129Y007629D01*
X020105Y007662D01*
X020084Y007698D01*
X020067Y007736D01*
X020054Y007775D01*
X020044Y007815D01*
X020038Y007856D01*
X020036Y007897D01*
X018161Y007897D02*
X018163Y007938D01*
X018169Y007979D01*
X018179Y008019D01*
X018192Y008058D01*
X018209Y008096D01*
X018230Y008132D01*
X018254Y008165D01*
X018281Y008196D01*
X018311Y008225D01*
X018343Y008251D01*
X018378Y008273D01*
X018415Y008292D01*
X018453Y008307D01*
X018493Y008319D01*
X018533Y008327D01*
X018574Y008331D01*
X018616Y008331D01*
X018657Y008327D01*
X018697Y008319D01*
X018737Y008307D01*
X018775Y008292D01*
X018812Y008273D01*
X018847Y008251D01*
X018879Y008225D01*
X018909Y008196D01*
X018936Y008165D01*
X018960Y008132D01*
X018981Y008096D01*
X018998Y008058D01*
X019011Y008019D01*
X019021Y007979D01*
X019027Y007938D01*
X019029Y007897D01*
X019027Y007856D01*
X019021Y007815D01*
X019011Y007775D01*
X018998Y007736D01*
X018981Y007698D01*
X018960Y007662D01*
X018936Y007629D01*
X018909Y007598D01*
X018879Y007569D01*
X018847Y007543D01*
X018812Y007521D01*
X018775Y007502D01*
X018737Y007487D01*
X018697Y007475D01*
X018657Y007467D01*
X018616Y007463D01*
X018574Y007463D01*
X018533Y007467D01*
X018493Y007475D01*
X018453Y007487D01*
X018415Y007502D01*
X018378Y007521D01*
X018343Y007543D01*
X018311Y007569D01*
X018281Y007598D01*
X018254Y007629D01*
X018230Y007662D01*
X018209Y007698D01*
X018192Y007736D01*
X018179Y007775D01*
X018169Y007815D01*
X018163Y007856D01*
X018161Y007897D01*
X016161Y007897D02*
X016163Y007938D01*
X016169Y007979D01*
X016179Y008019D01*
X016192Y008058D01*
X016209Y008096D01*
X016230Y008132D01*
X016254Y008165D01*
X016281Y008196D01*
X016311Y008225D01*
X016343Y008251D01*
X016378Y008273D01*
X016415Y008292D01*
X016453Y008307D01*
X016493Y008319D01*
X016533Y008327D01*
X016574Y008331D01*
X016616Y008331D01*
X016657Y008327D01*
X016697Y008319D01*
X016737Y008307D01*
X016775Y008292D01*
X016812Y008273D01*
X016847Y008251D01*
X016879Y008225D01*
X016909Y008196D01*
X016936Y008165D01*
X016960Y008132D01*
X016981Y008096D01*
X016998Y008058D01*
X017011Y008019D01*
X017021Y007979D01*
X017027Y007938D01*
X017029Y007897D01*
X017027Y007856D01*
X017021Y007815D01*
X017011Y007775D01*
X016998Y007736D01*
X016981Y007698D01*
X016960Y007662D01*
X016936Y007629D01*
X016909Y007598D01*
X016879Y007569D01*
X016847Y007543D01*
X016812Y007521D01*
X016775Y007502D01*
X016737Y007487D01*
X016697Y007475D01*
X016657Y007467D01*
X016616Y007463D01*
X016574Y007463D01*
X016533Y007467D01*
X016493Y007475D01*
X016453Y007487D01*
X016415Y007502D01*
X016378Y007521D01*
X016343Y007543D01*
X016311Y007569D01*
X016281Y007598D01*
X016254Y007629D01*
X016230Y007662D01*
X016209Y007698D01*
X016192Y007736D01*
X016179Y007775D01*
X016169Y007815D01*
X016163Y007856D01*
X016161Y007897D01*
X030616Y017143D02*
X030618Y017180D01*
X030624Y017217D01*
X030633Y017252D01*
X030647Y017287D01*
X030663Y017320D01*
X030684Y017351D01*
X030707Y017380D01*
X030733Y017406D01*
X030762Y017429D01*
X030793Y017450D01*
X030826Y017466D01*
X030861Y017480D01*
X030896Y017489D01*
X030933Y017495D01*
X030970Y017497D01*
X031007Y017495D01*
X031044Y017489D01*
X031079Y017480D01*
X031114Y017466D01*
X031147Y017450D01*
X031178Y017429D01*
X031207Y017406D01*
X031233Y017380D01*
X031256Y017351D01*
X031277Y017320D01*
X031293Y017287D01*
X031307Y017252D01*
X031316Y017217D01*
X031322Y017180D01*
X031324Y017143D01*
X031322Y017106D01*
X031316Y017069D01*
X031307Y017034D01*
X031293Y016999D01*
X031277Y016966D01*
X031256Y016935D01*
X031233Y016906D01*
X031207Y016880D01*
X031178Y016857D01*
X031147Y016836D01*
X031114Y016820D01*
X031079Y016806D01*
X031044Y016797D01*
X031007Y016791D01*
X030970Y016789D01*
X030933Y016791D01*
X030896Y016797D01*
X030861Y016806D01*
X030826Y016820D01*
X030793Y016836D01*
X030762Y016857D01*
X030733Y016880D01*
X030707Y016906D01*
X030684Y016935D01*
X030663Y016966D01*
X030647Y016999D01*
X030633Y017034D01*
X030624Y017069D01*
X030618Y017106D01*
X030616Y017143D01*
X028616Y021143D02*
X028618Y021180D01*
X028624Y021217D01*
X028633Y021252D01*
X028647Y021287D01*
X028663Y021320D01*
X028684Y021351D01*
X028707Y021380D01*
X028733Y021406D01*
X028762Y021429D01*
X028793Y021450D01*
X028826Y021466D01*
X028861Y021480D01*
X028896Y021489D01*
X028933Y021495D01*
X028970Y021497D01*
X029007Y021495D01*
X029044Y021489D01*
X029079Y021480D01*
X029114Y021466D01*
X029147Y021450D01*
X029178Y021429D01*
X029207Y021406D01*
X029233Y021380D01*
X029256Y021351D01*
X029277Y021320D01*
X029293Y021287D01*
X029307Y021252D01*
X029316Y021217D01*
X029322Y021180D01*
X029324Y021143D01*
X029322Y021106D01*
X029316Y021069D01*
X029307Y021034D01*
X029293Y020999D01*
X029277Y020966D01*
X029256Y020935D01*
X029233Y020906D01*
X029207Y020880D01*
X029178Y020857D01*
X029147Y020836D01*
X029114Y020820D01*
X029079Y020806D01*
X029044Y020797D01*
X029007Y020791D01*
X028970Y020789D01*
X028933Y020791D01*
X028896Y020797D01*
X028861Y020806D01*
X028826Y020820D01*
X028793Y020836D01*
X028762Y020857D01*
X028733Y020880D01*
X028707Y020906D01*
X028684Y020935D01*
X028663Y020966D01*
X028647Y020999D01*
X028633Y021034D01*
X028624Y021069D01*
X028618Y021106D01*
X028616Y021143D01*
X023616Y022143D02*
X023618Y022180D01*
X023624Y022217D01*
X023633Y022252D01*
X023647Y022287D01*
X023663Y022320D01*
X023684Y022351D01*
X023707Y022380D01*
X023733Y022406D01*
X023762Y022429D01*
X023793Y022450D01*
X023826Y022466D01*
X023861Y022480D01*
X023896Y022489D01*
X023933Y022495D01*
X023970Y022497D01*
X024007Y022495D01*
X024044Y022489D01*
X024079Y022480D01*
X024114Y022466D01*
X024147Y022450D01*
X024178Y022429D01*
X024207Y022406D01*
X024233Y022380D01*
X024256Y022351D01*
X024277Y022320D01*
X024293Y022287D01*
X024307Y022252D01*
X024316Y022217D01*
X024322Y022180D01*
X024324Y022143D01*
X024322Y022106D01*
X024316Y022069D01*
X024307Y022034D01*
X024293Y021999D01*
X024277Y021966D01*
X024256Y021935D01*
X024233Y021906D01*
X024207Y021880D01*
X024178Y021857D01*
X024147Y021836D01*
X024114Y021820D01*
X024079Y021806D01*
X024044Y021797D01*
X024007Y021791D01*
X023970Y021789D01*
X023933Y021791D01*
X023896Y021797D01*
X023861Y021806D01*
X023826Y021820D01*
X023793Y021836D01*
X023762Y021857D01*
X023733Y021880D01*
X023707Y021906D01*
X023684Y021935D01*
X023663Y021966D01*
X023647Y021999D01*
X023633Y022034D01*
X023624Y022069D01*
X023618Y022106D01*
X023616Y022143D01*
X015595Y028081D02*
X015595Y028461D01*
X015595Y029201D02*
X015595Y029581D01*
X018845Y028493D02*
X018845Y030793D01*
X025845Y030793D01*
X025845Y030043D01*
X025806Y030041D01*
X025767Y030035D01*
X025729Y030026D01*
X025692Y030013D01*
X025656Y029996D01*
X025623Y029976D01*
X025591Y029952D01*
X025562Y029926D01*
X025536Y029897D01*
X025512Y029865D01*
X025492Y029832D01*
X025475Y029796D01*
X025462Y029759D01*
X025453Y029721D01*
X025447Y029682D01*
X025445Y029643D01*
X025447Y029604D01*
X025453Y029565D01*
X025462Y029527D01*
X025475Y029490D01*
X025492Y029454D01*
X025512Y029421D01*
X025536Y029389D01*
X025562Y029360D01*
X025591Y029334D01*
X025623Y029310D01*
X025656Y029290D01*
X025692Y029273D01*
X025729Y029260D01*
X025767Y029251D01*
X025806Y029245D01*
X025845Y029243D01*
X025845Y028493D01*
X018845Y028493D01*
X026488Y030282D02*
X026702Y030069D01*
X026702Y029748D01*
X026702Y030069D02*
X026915Y030282D01*
X026915Y030389D01*
X027133Y030389D02*
X027346Y030175D01*
X027560Y030389D01*
X027560Y029748D01*
X027777Y029748D02*
X028204Y030175D01*
X028204Y030282D01*
X028098Y030389D01*
X027884Y030389D01*
X027777Y030282D01*
X027737Y030648D02*
X027843Y030755D01*
X027843Y031182D01*
X027737Y031289D01*
X027416Y031289D01*
X027416Y030648D01*
X027737Y030648D01*
X028061Y030648D02*
X028381Y030648D01*
X028488Y030755D01*
X028488Y031182D01*
X028381Y031289D01*
X028061Y031289D01*
X028061Y030648D01*
X028422Y030175D02*
X028635Y030389D01*
X028635Y029748D01*
X028422Y029748D02*
X028849Y029748D01*
X029066Y030069D02*
X029493Y030069D01*
X029711Y030175D02*
X029711Y030282D01*
X029818Y030389D01*
X030031Y030389D01*
X030138Y030282D01*
X030138Y029855D01*
X030031Y029748D01*
X029818Y029748D01*
X029711Y029855D01*
X029818Y030069D02*
X030138Y030069D01*
X030355Y030069D02*
X030569Y030069D01*
X030355Y030389D02*
X030782Y030389D01*
X030355Y030389D02*
X030355Y029748D01*
X029818Y030069D02*
X029711Y030175D01*
X029387Y030389D02*
X029066Y030069D01*
X029387Y029748D02*
X029387Y030389D01*
X029026Y030648D02*
X029132Y030755D01*
X029132Y031182D01*
X029026Y031289D01*
X028812Y031289D01*
X028705Y031182D01*
X028705Y031075D01*
X028812Y030969D01*
X029132Y030969D01*
X029026Y030648D02*
X028812Y030648D01*
X028705Y030755D01*
X028204Y029748D02*
X027777Y029748D01*
X027133Y029748D02*
X027133Y030389D01*
X026488Y030389D02*
X026488Y030282D01*
X045708Y032618D02*
X045708Y032768D01*
X045758Y032818D01*
X045758Y034718D01*
X045708Y034768D01*
X045708Y034918D01*
X045710Y034935D01*
X045714Y034952D01*
X045721Y034968D01*
X045731Y034982D01*
X045744Y034995D01*
X045758Y035005D01*
X045774Y035012D01*
X045791Y035016D01*
X045808Y035018D01*
X046508Y035018D01*
X046525Y035016D01*
X046542Y035012D01*
X046558Y035005D01*
X046572Y034995D01*
X046585Y034982D01*
X046595Y034968D01*
X046602Y034952D01*
X046606Y034935D01*
X046608Y034918D01*
X046608Y034768D01*
X046558Y034718D01*
X046558Y032818D01*
X046608Y032768D01*
X046608Y032618D01*
X046606Y032601D01*
X046602Y032584D01*
X046595Y032568D01*
X046585Y032554D01*
X046572Y032541D01*
X046558Y032531D01*
X046542Y032524D01*
X046525Y032520D01*
X046508Y032518D01*
X045808Y032518D01*
X045791Y032520D01*
X045774Y032524D01*
X045758Y032531D01*
X045744Y032541D01*
X045731Y032554D01*
X045721Y032568D01*
X045714Y032584D01*
X045710Y032601D01*
X045708Y032618D01*
X047020Y031956D02*
X047020Y031806D01*
X047022Y031789D01*
X047026Y031772D01*
X047033Y031756D01*
X047043Y031742D01*
X047056Y031729D01*
X047070Y031719D01*
X047086Y031712D01*
X047103Y031708D01*
X047120Y031706D01*
X047820Y031706D01*
X047837Y031708D01*
X047854Y031712D01*
X047870Y031719D01*
X047884Y031729D01*
X047897Y031742D01*
X047907Y031756D01*
X047914Y031772D01*
X047918Y031789D01*
X047920Y031806D01*
X047920Y031956D01*
X047870Y032006D01*
X047870Y033906D01*
X047920Y033956D01*
X047920Y034106D01*
X047918Y034123D01*
X047914Y034140D01*
X047907Y034156D01*
X047897Y034170D01*
X047884Y034183D01*
X047870Y034193D01*
X047854Y034200D01*
X047837Y034204D01*
X047820Y034206D01*
X047120Y034206D01*
X047103Y034204D01*
X047086Y034200D01*
X047070Y034193D01*
X047056Y034183D01*
X047043Y034170D01*
X047033Y034156D01*
X047026Y034140D01*
X047022Y034123D01*
X047020Y034106D01*
X047020Y033956D01*
X047070Y033906D01*
X047070Y032006D01*
X047020Y031956D01*
X051591Y026104D02*
X051591Y023804D01*
X061591Y023804D01*
X061591Y024554D01*
X061552Y024556D01*
X061513Y024562D01*
X061475Y024571D01*
X061438Y024584D01*
X061402Y024601D01*
X061369Y024621D01*
X061337Y024645D01*
X061308Y024671D01*
X061282Y024700D01*
X061258Y024732D01*
X061238Y024765D01*
X061221Y024801D01*
X061208Y024838D01*
X061199Y024876D01*
X061193Y024915D01*
X061191Y024954D01*
X061193Y024993D01*
X061199Y025032D01*
X061208Y025070D01*
X061221Y025107D01*
X061238Y025143D01*
X061258Y025176D01*
X061282Y025208D01*
X061308Y025237D01*
X061337Y025263D01*
X061369Y025287D01*
X061402Y025307D01*
X061438Y025324D01*
X061475Y025337D01*
X061513Y025346D01*
X061552Y025352D01*
X061591Y025354D01*
X061591Y026104D01*
X051591Y026104D01*
X054195Y021143D02*
X059495Y021143D01*
X059495Y005143D01*
X057245Y005143D01*
X057315Y005026D02*
X057101Y005026D01*
X056995Y004920D01*
X056777Y005026D02*
X056564Y004920D01*
X056350Y004706D01*
X056670Y004706D01*
X056777Y004599D01*
X056777Y004493D01*
X056670Y004386D01*
X056457Y004386D01*
X056350Y004493D01*
X056350Y004706D01*
X056445Y005143D02*
X054195Y005143D01*
X054195Y021143D01*
X050323Y015148D02*
X048023Y015148D01*
X048023Y005148D01*
X048773Y005148D01*
X048775Y005187D01*
X048781Y005226D01*
X048790Y005264D01*
X048803Y005301D01*
X048820Y005337D01*
X048840Y005370D01*
X048864Y005402D01*
X048890Y005431D01*
X048919Y005457D01*
X048951Y005481D01*
X048984Y005501D01*
X049020Y005518D01*
X049057Y005531D01*
X049095Y005540D01*
X049134Y005546D01*
X049173Y005548D01*
X049212Y005546D01*
X049251Y005540D01*
X049289Y005531D01*
X049326Y005518D01*
X049362Y005501D01*
X049395Y005481D01*
X049427Y005457D01*
X049456Y005431D01*
X049482Y005402D01*
X049506Y005370D01*
X049526Y005337D01*
X049543Y005301D01*
X049556Y005264D01*
X049565Y005226D01*
X049571Y005187D01*
X049573Y005148D01*
X050323Y005148D01*
X050323Y015148D01*
X044624Y015147D02*
X042324Y015147D01*
X042324Y005147D01*
X043074Y005147D01*
X043076Y005186D01*
X043082Y005225D01*
X043091Y005263D01*
X043104Y005300D01*
X043121Y005336D01*
X043141Y005369D01*
X043165Y005401D01*
X043191Y005430D01*
X043220Y005456D01*
X043252Y005480D01*
X043285Y005500D01*
X043321Y005517D01*
X043358Y005530D01*
X043396Y005539D01*
X043435Y005545D01*
X043474Y005547D01*
X043513Y005545D01*
X043552Y005539D01*
X043590Y005530D01*
X043627Y005517D01*
X043663Y005500D01*
X043696Y005480D01*
X043728Y005456D01*
X043757Y005430D01*
X043783Y005401D01*
X043807Y005369D01*
X043827Y005336D01*
X043844Y005300D01*
X043857Y005263D01*
X043866Y005225D01*
X043872Y005186D01*
X043874Y005147D01*
X044624Y005147D01*
X044624Y015147D01*
X053916Y004964D02*
X054237Y004964D01*
X054343Y004857D01*
X054343Y004430D01*
X054237Y004323D01*
X053916Y004323D01*
X053916Y004964D01*
X054561Y004964D02*
X054881Y004964D01*
X054988Y004857D01*
X054988Y004430D01*
X054881Y004323D01*
X054561Y004323D01*
X054561Y004964D01*
X055205Y004857D02*
X055312Y004964D01*
X055526Y004964D01*
X055632Y004857D01*
X055632Y004750D01*
X055526Y004644D01*
X055632Y004537D01*
X055632Y004430D01*
X055526Y004323D01*
X055312Y004323D01*
X055205Y004430D01*
X055419Y004644D02*
X055526Y004644D01*
X056445Y005143D02*
X056447Y005182D01*
X056453Y005221D01*
X056462Y005259D01*
X056475Y005296D01*
X056492Y005332D01*
X056512Y005365D01*
X056536Y005397D01*
X056562Y005426D01*
X056591Y005452D01*
X056623Y005476D01*
X056656Y005496D01*
X056692Y005513D01*
X056729Y005526D01*
X056767Y005535D01*
X056806Y005541D01*
X056845Y005543D01*
X056884Y005541D01*
X056923Y005535D01*
X056961Y005526D01*
X056998Y005513D01*
X057034Y005496D01*
X057067Y005476D01*
X057099Y005452D01*
X057128Y005426D01*
X057154Y005397D01*
X057178Y005365D01*
X057198Y005332D01*
X057215Y005296D01*
X057228Y005259D01*
X057237Y005221D01*
X057243Y005182D01*
X057245Y005143D01*
X057315Y005026D02*
X057422Y004920D01*
X057422Y004813D01*
X056995Y004386D01*
X057422Y004386D01*
X057639Y004386D02*
X058066Y004386D01*
X057853Y004386D02*
X057853Y005026D01*
X057639Y004813D01*
X058284Y004920D02*
X058390Y005026D01*
X058604Y005026D01*
X058711Y004920D01*
X058284Y004493D01*
X058390Y004386D01*
X058604Y004386D01*
X058711Y004493D01*
X058711Y004920D01*
X058928Y004920D02*
X059035Y005026D01*
X059248Y005026D01*
X059355Y004920D01*
X059355Y004813D01*
X058928Y004386D01*
X059355Y004386D01*
X059573Y004706D02*
X060000Y004706D01*
X059893Y004386D02*
X059893Y005026D01*
X059573Y004706D01*
X058284Y004493D02*
X058284Y004920D01*
X061720Y040331D02*
X062220Y040331D01*
X062470Y040581D01*
X062720Y040331D01*
X063220Y040331D01*
X063470Y040581D01*
X063720Y040331D01*
X064220Y040331D01*
X064470Y040581D01*
X064720Y040331D01*
X065220Y040331D01*
X065470Y040581D01*
X065470Y041081D01*
X065220Y041331D01*
X064720Y041331D01*
X064470Y041081D01*
X064220Y041331D01*
X063720Y041331D01*
X063470Y041081D01*
X063220Y041331D01*
X062720Y041331D01*
X062470Y041081D01*
X062220Y041331D01*
X061720Y041331D01*
X061470Y041081D01*
X061470Y040581D01*
X061720Y040331D01*
D16*
X061345Y040606D02*
X061045Y040606D01*
X061195Y040606D02*
X061195Y041056D01*
X061045Y040906D01*
X060995Y039206D02*
X061295Y038756D01*
X061455Y038831D02*
X061530Y038756D01*
X061681Y038756D01*
X061756Y038831D01*
X061756Y038906D01*
X061681Y038981D01*
X061606Y038981D01*
X061681Y038981D02*
X061756Y039056D01*
X061756Y039131D01*
X061681Y039206D01*
X061530Y039206D01*
X061455Y039131D01*
X061295Y039206D02*
X060995Y038756D01*
X061916Y038756D02*
X061916Y039206D01*
X062141Y039206D01*
X062216Y039131D01*
X062216Y038981D01*
X062141Y038906D01*
X061916Y038906D01*
X062745Y038906D02*
X063045Y039206D01*
X063205Y039206D02*
X063431Y039206D01*
X063506Y039131D01*
X063506Y039056D01*
X063431Y038981D01*
X063205Y038981D01*
X063205Y038756D02*
X063205Y039206D01*
X063431Y038981D02*
X063506Y038906D01*
X063506Y038831D01*
X063431Y038756D01*
X063205Y038756D01*
X063045Y038756D02*
X062820Y038981D01*
X062745Y039206D02*
X062745Y038756D01*
X065595Y040831D02*
X065895Y040831D01*
X065820Y041056D02*
X065595Y040831D01*
X065820Y040606D02*
X065820Y041056D01*
X048470Y033837D02*
X048470Y033537D01*
X048170Y033837D01*
X048095Y033837D01*
X048020Y033762D01*
X048020Y033612D01*
X048095Y033537D01*
X048245Y033377D02*
X048245Y033077D01*
X048020Y033302D01*
X048470Y033302D01*
X048470Y032916D02*
X048470Y032616D01*
X048470Y032766D02*
X048020Y032766D01*
X048170Y032616D01*
X048245Y032456D02*
X048320Y032381D01*
X048320Y032156D01*
X048320Y032306D02*
X048470Y032456D01*
X048245Y032456D02*
X048095Y032456D01*
X048020Y032381D01*
X048020Y032156D01*
X048470Y032156D01*
X047758Y032691D02*
X047758Y032992D01*
X047758Y032841D02*
X047307Y032841D01*
X047457Y032691D01*
X047382Y033152D02*
X047307Y033227D01*
X047307Y033377D01*
X047382Y033452D01*
X047682Y033152D01*
X047758Y033227D01*
X047758Y033377D01*
X047682Y033452D01*
X047382Y033452D01*
X047307Y033612D02*
X047758Y033612D01*
X047607Y033612D02*
X047457Y033837D01*
X047607Y033612D02*
X047758Y033837D01*
X047682Y033152D02*
X047382Y033152D01*
X046358Y033248D02*
X046358Y032948D01*
X046057Y033248D01*
X045982Y033248D01*
X045907Y033173D01*
X045907Y033023D01*
X045982Y032948D01*
X045982Y032787D02*
X046132Y032787D01*
X046207Y032712D01*
X046207Y032487D01*
X046207Y032637D02*
X046358Y032787D01*
X046358Y032487D02*
X045907Y032487D01*
X045907Y032712D01*
X045982Y032787D01*
X046057Y033408D02*
X045907Y033558D01*
X046358Y033558D01*
X046358Y033408D02*
X046358Y033708D01*
X046383Y033754D02*
X046383Y034054D01*
X046383Y033904D02*
X045932Y033904D01*
X046082Y033754D01*
X046007Y034214D02*
X045932Y034289D01*
X045932Y034439D01*
X046007Y034515D01*
X046307Y034214D01*
X046383Y034289D01*
X046383Y034439D01*
X046307Y034515D01*
X046007Y034515D01*
X045932Y034675D02*
X046383Y034675D01*
X046232Y034675D02*
X046082Y034900D01*
X046232Y034675D02*
X046383Y034900D01*
X046307Y034214D02*
X046007Y034214D01*
X031954Y044050D02*
X031954Y048577D01*
X029986Y048577D01*
X029986Y044050D01*
X031954Y044050D01*
X028562Y042794D02*
X028487Y042719D01*
X028487Y042343D01*
X028251Y042343D02*
X028251Y042568D01*
X028176Y042644D01*
X028101Y042568D01*
X028101Y042343D01*
X027951Y042343D02*
X027951Y042644D01*
X028026Y042644D01*
X028101Y042568D01*
X028412Y042568D02*
X028562Y042568D01*
X027791Y042418D02*
X027716Y042343D01*
X027566Y042343D01*
X027491Y042418D01*
X027791Y042719D01*
X027791Y042418D01*
X027491Y042418D02*
X027491Y042719D01*
X027566Y042794D01*
X027716Y042794D01*
X027791Y042719D01*
X027331Y042719D02*
X027256Y042794D01*
X027105Y042794D01*
X027030Y042719D01*
X026870Y042719D02*
X026795Y042794D01*
X026645Y042794D01*
X026570Y042719D01*
X026870Y042719D02*
X026870Y042644D01*
X026570Y042343D01*
X026870Y042343D01*
X027030Y042343D02*
X027331Y042644D01*
X027331Y042719D01*
X027366Y043043D02*
X027366Y043494D01*
X027591Y043494D01*
X027666Y043419D01*
X027666Y043268D01*
X027591Y043193D01*
X027366Y043193D01*
X027206Y043118D02*
X027206Y043419D01*
X027131Y043494D01*
X026980Y043494D01*
X026905Y043419D01*
X026905Y043344D01*
X026980Y043268D01*
X027206Y043268D01*
X027206Y043118D02*
X027131Y043043D01*
X026980Y043043D01*
X026905Y043118D01*
X026745Y043118D02*
X026670Y043043D01*
X026520Y043043D01*
X026445Y043118D01*
X026445Y043419D01*
X026520Y043494D01*
X026670Y043494D01*
X026745Y043419D01*
X027030Y042343D02*
X027331Y042343D01*
X026370Y041071D02*
X026070Y041221D01*
X026070Y040920D02*
X026370Y041071D01*
X026295Y040760D02*
X026370Y040685D01*
X026370Y040535D01*
X026295Y040460D01*
X026295Y040305D02*
X026370Y040305D01*
X026370Y040230D01*
X026295Y040230D01*
X026295Y040305D01*
X026295Y040070D02*
X026220Y040070D01*
X026145Y039995D01*
X026145Y039769D01*
X026295Y039769D01*
X026370Y039844D01*
X026370Y039995D01*
X026295Y040070D01*
X025995Y039920D02*
X026145Y039769D01*
X026070Y039609D02*
X026370Y039309D01*
X026370Y039077D02*
X025995Y039077D01*
X025920Y039152D01*
X026070Y039309D02*
X026370Y039609D01*
X025995Y039920D02*
X025920Y040070D01*
X025995Y040460D02*
X025920Y040535D01*
X025920Y040685D01*
X025995Y040760D01*
X026070Y040760D01*
X026145Y040685D01*
X026220Y040760D01*
X026295Y040760D01*
X026145Y040685D02*
X026145Y040610D01*
X026145Y039152D02*
X026145Y039002D01*
X026145Y038842D02*
X026370Y038842D01*
X026370Y038692D02*
X026145Y038692D01*
X026070Y038767D01*
X026145Y038842D01*
X026145Y038692D02*
X026070Y038617D01*
X026070Y038542D01*
X026370Y038542D01*
X026295Y038382D02*
X025995Y038382D01*
X026295Y038081D01*
X026370Y038156D01*
X026370Y038307D01*
X026295Y038382D01*
X025995Y038382D02*
X025920Y038307D01*
X025920Y038156D01*
X025995Y038081D01*
X026295Y038081D01*
X026295Y037921D02*
X025995Y037921D01*
X026295Y037621D01*
X026370Y037696D01*
X026370Y037846D01*
X026295Y037921D01*
X026295Y037621D02*
X025995Y037621D01*
X025920Y037696D01*
X025920Y037846D01*
X025995Y037921D01*
X025995Y037461D02*
X026295Y037161D01*
X026370Y037236D01*
X026370Y037386D01*
X026295Y037461D01*
X025995Y037461D01*
X025920Y037386D01*
X025920Y037236D01*
X025995Y037161D01*
X026295Y037161D01*
X026370Y037000D02*
X026370Y036700D01*
X026370Y036850D02*
X025920Y036850D01*
X026070Y036700D01*
X028220Y038335D02*
X028295Y038260D01*
X028595Y038260D01*
X028670Y038335D01*
X028670Y038485D01*
X028595Y038560D01*
X028670Y038720D02*
X028670Y039021D01*
X028670Y038871D02*
X028220Y038871D01*
X028370Y038720D01*
X028295Y038560D02*
X028220Y038485D01*
X028220Y038335D01*
X022510Y039243D02*
X022510Y039468D01*
X022435Y039544D01*
X022360Y039468D01*
X022360Y039243D01*
X022210Y039243D02*
X022210Y039544D01*
X022285Y039544D01*
X022360Y039468D01*
X022049Y039243D02*
X021749Y039243D01*
X021899Y039243D02*
X021899Y039694D01*
X021749Y039544D01*
X021749Y039918D02*
X022049Y040219D01*
X022049Y040294D01*
X021974Y040369D01*
X021824Y040369D01*
X021749Y040294D01*
X021589Y040294D02*
X021514Y040369D01*
X021364Y040369D01*
X021289Y040294D01*
X021289Y039993D01*
X021364Y039918D01*
X021514Y039918D01*
X021589Y039993D01*
X021749Y039918D02*
X022049Y039918D01*
X022360Y039918D02*
X022360Y040143D01*
X022510Y040294D01*
X022510Y040369D01*
X022360Y040143D02*
X022210Y040294D01*
X022210Y040369D01*
X020933Y040388D02*
X020632Y040388D01*
X020632Y040464D01*
X020707Y040539D01*
X020632Y040614D01*
X020707Y040689D01*
X020933Y040689D01*
X020933Y040539D02*
X020707Y040539D01*
X020707Y040849D02*
X020707Y040999D01*
X020557Y040924D02*
X020482Y040999D01*
X020557Y040924D02*
X020933Y040924D01*
X020857Y040228D02*
X020933Y040153D01*
X020933Y040003D01*
X020857Y039928D01*
X020557Y040228D01*
X020857Y040228D01*
X020557Y040228D02*
X020482Y040153D01*
X020482Y040003D01*
X020557Y039928D01*
X020857Y039928D01*
X020933Y039768D02*
X020933Y039468D01*
X020632Y039768D01*
X020557Y039768D01*
X020482Y039693D01*
X020482Y039543D01*
X020557Y039468D01*
X020557Y039308D02*
X020482Y039232D01*
X020482Y039082D01*
X020557Y039007D01*
X020557Y039308D02*
X020632Y039308D01*
X020933Y039007D01*
X020933Y039308D01*
X020010Y039268D02*
X019935Y039193D01*
X019710Y039193D01*
X019710Y039043D02*
X019710Y039494D01*
X019935Y039494D01*
X020010Y039419D01*
X020010Y039268D01*
X019549Y039193D02*
X019549Y039118D01*
X019474Y039043D01*
X019324Y039043D01*
X019249Y039118D01*
X019249Y039193D01*
X019324Y039268D01*
X019474Y039268D01*
X019549Y039193D01*
X019474Y039268D02*
X019549Y039344D01*
X019549Y039419D01*
X019474Y039494D01*
X019324Y039494D01*
X019249Y039419D01*
X019249Y039344D01*
X019324Y039268D01*
X019089Y039118D02*
X019014Y039043D01*
X018864Y039043D01*
X018789Y039118D01*
X018789Y039419D01*
X018864Y039494D01*
X019014Y039494D01*
X019089Y039419D01*
X017933Y039468D02*
X017632Y039768D01*
X017557Y039768D01*
X017482Y039693D01*
X017482Y039543D01*
X017557Y039468D01*
X017557Y039308D02*
X017482Y039232D01*
X017482Y039082D01*
X017557Y039007D01*
X017557Y039308D02*
X017632Y039308D01*
X017933Y039007D01*
X017933Y039308D01*
X017933Y039468D02*
X017933Y039768D01*
X017857Y039928D02*
X017557Y040228D01*
X017857Y040228D01*
X017933Y040153D01*
X017933Y040003D01*
X017857Y039928D01*
X017557Y039928D01*
X017482Y040003D01*
X017482Y040153D01*
X017557Y040228D01*
X017632Y040388D02*
X017632Y040464D01*
X017707Y040539D01*
X017632Y040614D01*
X017707Y040689D01*
X017933Y040689D01*
X017933Y040539D02*
X017707Y040539D01*
X017632Y040388D02*
X017933Y040388D01*
X017707Y040849D02*
X017707Y040999D01*
X017557Y040924D02*
X017482Y040999D01*
X017557Y040924D02*
X017933Y040924D01*
X017060Y039494D02*
X016835Y039494D01*
X016835Y039043D01*
X016835Y039193D02*
X017060Y039193D01*
X017135Y039268D01*
X017135Y039419D01*
X017060Y039494D01*
X016674Y039419D02*
X016374Y039118D01*
X016449Y039043D01*
X016599Y039043D01*
X016674Y039118D01*
X016674Y039419D01*
X016599Y039494D01*
X016449Y039494D01*
X016374Y039419D01*
X016374Y039118D01*
X016214Y039043D02*
X015914Y039043D01*
X016064Y039043D02*
X016064Y039494D01*
X015914Y039344D01*
X015754Y039419D02*
X015679Y039494D01*
X015528Y039494D01*
X015453Y039419D01*
X015453Y039118D01*
X015528Y039043D01*
X015679Y039043D01*
X015754Y039118D01*
X015183Y039007D02*
X014882Y039308D01*
X014807Y039308D01*
X014732Y039232D01*
X014732Y039082D01*
X014807Y039007D01*
X015183Y039007D02*
X015183Y039308D01*
X015183Y039468D02*
X014882Y039768D01*
X014807Y039768D01*
X014732Y039693D01*
X014732Y039543D01*
X014807Y039468D01*
X015183Y039468D02*
X015183Y039768D01*
X015107Y039928D02*
X014807Y040228D01*
X015107Y040228D01*
X015183Y040153D01*
X015183Y040003D01*
X015107Y039928D01*
X014807Y039928D01*
X014732Y040003D01*
X014732Y040153D01*
X014807Y040228D01*
X014882Y040388D02*
X014882Y040464D01*
X014957Y040539D01*
X014882Y040614D01*
X014957Y040689D01*
X015183Y040689D01*
X015183Y040539D02*
X014957Y040539D01*
X014882Y040388D02*
X015183Y040388D01*
X014957Y040849D02*
X014957Y040999D01*
X014807Y040924D02*
X014732Y040999D01*
X014807Y040924D02*
X015183Y040924D01*
X014185Y039494D02*
X013960Y039494D01*
X013960Y039043D01*
X013960Y039193D02*
X014185Y039193D01*
X014260Y039268D01*
X014260Y039419D01*
X014185Y039494D01*
X013649Y039494D02*
X013649Y039043D01*
X013499Y039043D02*
X013799Y039043D01*
X013499Y039344D02*
X013649Y039494D01*
X013189Y039494D02*
X013189Y039043D01*
X013039Y039043D02*
X013339Y039043D01*
X013039Y039344D02*
X013189Y039494D01*
X012879Y039419D02*
X012804Y039494D01*
X012653Y039494D01*
X012578Y039419D01*
X012578Y039118D01*
X012653Y039043D01*
X012804Y039043D01*
X012879Y039118D01*
X009635Y039868D02*
X009635Y040093D01*
X009560Y040169D01*
X009485Y040093D01*
X009485Y039868D01*
X009335Y039868D02*
X009335Y040169D01*
X009410Y040169D01*
X009485Y040093D01*
X009485Y040418D02*
X009485Y040643D01*
X009635Y040794D01*
X009635Y040869D01*
X009485Y040643D02*
X009335Y040794D01*
X009335Y040869D01*
X009024Y040869D02*
X009024Y040418D01*
X009024Y040319D02*
X009024Y039868D01*
X008874Y039868D02*
X009174Y039868D01*
X008874Y040169D02*
X009024Y040319D01*
X008874Y040418D02*
X009174Y040418D01*
X008874Y040719D02*
X009024Y040869D01*
X008714Y040794D02*
X008639Y040869D01*
X008489Y040869D01*
X008414Y040794D01*
X008414Y040493D01*
X008489Y040418D01*
X008639Y040418D01*
X008714Y040493D01*
X006460Y041918D02*
X006160Y041918D01*
X006310Y041918D02*
X006310Y042369D01*
X006160Y042219D01*
X005085Y043018D02*
X004785Y043018D01*
X005085Y043319D01*
X005085Y043394D01*
X005010Y043469D01*
X004860Y043469D01*
X004785Y043394D01*
X004624Y043394D02*
X004624Y043243D01*
X004549Y043168D01*
X004324Y043168D01*
X004324Y043018D02*
X004324Y043469D01*
X004549Y043469D01*
X004624Y043394D01*
X004164Y043469D02*
X004014Y043469D01*
X004089Y043469D02*
X004089Y043093D01*
X004014Y043018D01*
X003939Y043018D01*
X003864Y043093D01*
X007810Y044693D02*
X008110Y044693D01*
X007960Y044693D02*
X007960Y045144D01*
X007810Y044994D01*
X002385Y039556D02*
X002085Y039556D01*
X002385Y039556D02*
X002385Y039481D01*
X002085Y039181D01*
X002085Y039106D01*
X001924Y039106D02*
X001624Y039106D01*
X001774Y039106D02*
X001774Y039556D01*
X001624Y039406D01*
X001464Y039481D02*
X001389Y039556D01*
X001239Y039556D01*
X001164Y039481D01*
X001164Y039181D01*
X001239Y039106D01*
X001389Y039106D01*
X001464Y039181D01*
X001392Y038756D02*
X001542Y038756D01*
X001618Y038681D01*
X001317Y038381D01*
X001392Y038306D01*
X001542Y038306D01*
X001618Y038381D01*
X001618Y038681D01*
X001778Y038606D02*
X001853Y038606D01*
X001928Y038531D01*
X002003Y038606D01*
X002078Y038531D01*
X002078Y038306D01*
X001928Y038306D02*
X001928Y038531D01*
X001778Y038606D02*
X001778Y038306D01*
X001317Y038381D02*
X001317Y038681D01*
X001392Y038756D01*
X001157Y038681D02*
X001082Y038756D01*
X000932Y038756D01*
X000857Y038681D01*
X000697Y038681D02*
X000622Y038756D01*
X000472Y038756D01*
X000396Y038681D01*
X000697Y038681D02*
X000697Y038606D01*
X000396Y038306D01*
X000697Y038306D01*
X000857Y038306D02*
X001157Y038606D01*
X001157Y038681D01*
X001157Y038306D02*
X000857Y038306D01*
X002238Y038531D02*
X002388Y038531D01*
X002313Y038681D02*
X002388Y038756D01*
X002313Y038681D02*
X002313Y038306D01*
X008764Y035469D02*
X008914Y035469D01*
X008839Y035469D02*
X008839Y035093D01*
X008764Y035018D01*
X008689Y035018D01*
X008614Y035093D01*
X009074Y035018D02*
X009074Y035469D01*
X009299Y035469D01*
X009374Y035394D01*
X009374Y035243D01*
X009299Y035168D01*
X009074Y035168D01*
X009535Y035018D02*
X009835Y035018D01*
X009685Y035018D02*
X009685Y035469D01*
X009535Y035319D01*
X009695Y034633D02*
X009695Y034333D01*
X009695Y034483D02*
X009245Y034483D01*
X009395Y034333D01*
X012320Y030581D02*
X012620Y030581D01*
X012620Y030506D01*
X012320Y030206D01*
X012320Y030131D01*
X012620Y030131D01*
X012780Y030131D02*
X013081Y030431D01*
X013081Y030506D01*
X013006Y030581D01*
X012855Y030581D01*
X012780Y030506D01*
X012780Y030131D02*
X013081Y030131D01*
X013166Y028056D02*
X013016Y027981D01*
X012866Y027831D01*
X013091Y027831D01*
X013166Y027756D01*
X013166Y027681D01*
X013091Y027606D01*
X012941Y027606D01*
X012866Y027681D01*
X012866Y027831D01*
X012706Y027906D02*
X012631Y027831D01*
X012480Y027831D01*
X012405Y027906D01*
X012405Y027981D01*
X012480Y028056D01*
X012631Y028056D01*
X012706Y027981D01*
X012706Y027906D01*
X012631Y027831D02*
X012706Y027756D01*
X012706Y027681D01*
X012631Y027606D01*
X012480Y027606D01*
X012405Y027681D01*
X012405Y027756D01*
X012480Y027831D01*
X012245Y027756D02*
X012170Y027831D01*
X012020Y027831D01*
X011945Y027906D01*
X011945Y027981D01*
X012020Y028056D01*
X012170Y028056D01*
X012245Y027981D01*
X012245Y027906D01*
X012170Y027831D01*
X012245Y027756D02*
X012245Y027681D01*
X012170Y027606D01*
X012020Y027606D01*
X011945Y027681D01*
X011945Y027756D01*
X012020Y027831D01*
X013326Y027681D02*
X013326Y027606D01*
X013326Y027681D02*
X013626Y027981D01*
X013626Y028056D01*
X013326Y028056D01*
X013787Y027681D02*
X013862Y027681D01*
X013862Y027606D01*
X013787Y027606D01*
X013787Y027681D01*
X014017Y027606D02*
X014317Y027906D01*
X014317Y027981D01*
X014242Y028056D01*
X014092Y028056D01*
X014017Y027981D01*
X014017Y027606D02*
X014317Y027606D01*
X014477Y027681D02*
X014552Y027606D01*
X014702Y027606D01*
X014777Y027681D01*
X014777Y027756D01*
X014702Y027831D01*
X014627Y027831D01*
X014702Y027831D02*
X014777Y027906D01*
X014777Y027981D01*
X014702Y028056D01*
X014552Y028056D01*
X014477Y027981D01*
X014938Y027981D02*
X015013Y028056D01*
X015163Y028056D01*
X015238Y027981D01*
X015238Y027906D01*
X014938Y027606D01*
X015238Y027606D01*
X015398Y027606D02*
X015398Y028056D01*
X015473Y027831D02*
X015698Y027606D01*
X015858Y027606D02*
X015858Y028056D01*
X015698Y028056D02*
X015398Y027756D01*
X015858Y027831D02*
X016159Y027831D01*
X016319Y027906D02*
X016619Y027906D01*
X016319Y027606D01*
X016619Y027606D01*
X016159Y027606D02*
X016159Y028056D01*
X017240Y027606D02*
X017540Y028056D01*
X018160Y027831D02*
X018461Y027831D01*
X018621Y027681D02*
X018696Y027681D01*
X018696Y027606D01*
X018621Y027606D01*
X018621Y027681D01*
X018851Y027681D02*
X018926Y027681D01*
X018926Y027606D01*
X018851Y027606D01*
X018851Y027681D01*
X019081Y027606D02*
X019381Y027906D01*
X019381Y027981D01*
X019306Y028056D01*
X019156Y028056D01*
X019081Y027981D01*
X019081Y027606D02*
X019381Y027606D01*
X019541Y027681D02*
X019842Y027981D01*
X019842Y027681D01*
X019767Y027606D01*
X019617Y027606D01*
X019541Y027681D01*
X019541Y027981D01*
X019617Y028056D01*
X019767Y028056D01*
X019842Y027981D01*
X020002Y027906D02*
X020227Y027906D01*
X020302Y027831D01*
X020302Y027681D01*
X020227Y027606D01*
X020002Y027606D01*
X020002Y027456D02*
X020002Y027906D01*
X020462Y027831D02*
X020612Y027831D01*
X020537Y027981D02*
X020612Y028056D01*
X020537Y027981D02*
X020537Y027606D01*
X022133Y026744D02*
X022433Y026744D01*
X022433Y026669D01*
X022133Y026368D01*
X022133Y026293D01*
X022593Y026518D02*
X022893Y026518D01*
X022818Y026293D02*
X022818Y026744D01*
X022593Y026518D01*
X022608Y027006D02*
X022833Y027006D01*
X022908Y027081D01*
X022908Y027381D01*
X022833Y027456D01*
X022608Y027456D01*
X022608Y027006D01*
X023068Y027006D02*
X023293Y027006D01*
X023368Y027081D01*
X023368Y027381D01*
X023293Y027456D01*
X023068Y027456D01*
X023068Y027006D01*
X023053Y026744D02*
X023053Y026293D01*
X023354Y026293D01*
X023514Y026368D02*
X023589Y026293D01*
X023739Y026293D01*
X023814Y026368D01*
X023814Y026443D01*
X023739Y026518D01*
X023589Y026518D01*
X023514Y026594D01*
X023514Y026669D01*
X023589Y026744D01*
X023739Y026744D01*
X023814Y026669D01*
X023974Y026744D02*
X024274Y026744D01*
X024274Y026669D01*
X023974Y026368D01*
X023974Y026293D01*
X024435Y026518D02*
X024735Y026518D01*
X024660Y026293D02*
X024660Y026744D01*
X024435Y026518D01*
X024289Y027006D02*
X023989Y027006D01*
X024289Y027306D01*
X024289Y027381D01*
X024214Y027456D01*
X024064Y027456D01*
X023989Y027381D01*
X023678Y027456D02*
X023678Y027006D01*
X023528Y027006D02*
X023829Y027006D01*
X023528Y027306D02*
X023678Y027456D01*
X021301Y025756D02*
X021226Y025756D01*
X021076Y025606D01*
X021076Y025456D02*
X021076Y025756D01*
X020916Y025681D02*
X020916Y025606D01*
X020616Y025606D01*
X020616Y025681D02*
X020691Y025756D01*
X020841Y025756D01*
X020916Y025681D01*
X020841Y025456D02*
X020691Y025456D01*
X020616Y025531D01*
X020616Y025681D01*
X020459Y025756D02*
X020309Y025756D01*
X020384Y025831D02*
X020384Y025531D01*
X020459Y025456D01*
X020149Y025531D02*
X020074Y025606D01*
X019923Y025606D01*
X019848Y025681D01*
X019923Y025756D01*
X020149Y025756D01*
X020149Y025531D02*
X020074Y025456D01*
X019848Y025456D01*
X019688Y025456D02*
X019463Y025456D01*
X019388Y025531D01*
X019463Y025606D01*
X019688Y025606D01*
X019688Y025681D02*
X019688Y025456D01*
X019688Y025681D02*
X019613Y025756D01*
X019463Y025756D01*
X019156Y025906D02*
X019156Y025456D01*
X019081Y025456D02*
X019231Y025456D01*
X018921Y025531D02*
X018846Y025456D01*
X018621Y025456D01*
X018621Y025906D01*
X018846Y025906D01*
X018921Y025831D01*
X018921Y025756D01*
X018846Y025681D01*
X018621Y025681D01*
X018460Y025681D02*
X018460Y025606D01*
X018160Y025606D01*
X018160Y025681D02*
X018235Y025756D01*
X018385Y025756D01*
X018460Y025681D01*
X018385Y025456D02*
X018235Y025456D01*
X018160Y025531D01*
X018160Y025681D01*
X018003Y025756D02*
X017853Y025756D01*
X017928Y025831D02*
X017928Y025531D01*
X018003Y025456D01*
X017693Y025456D02*
X017468Y025456D01*
X017393Y025531D01*
X017393Y025756D01*
X017233Y025756D02*
X017158Y025681D01*
X016933Y025681D01*
X017158Y025681D02*
X017233Y025606D01*
X017233Y025531D01*
X017158Y025456D01*
X016933Y025456D01*
X016933Y025906D01*
X017158Y025906D01*
X017233Y025831D01*
X017233Y025756D01*
X017295Y026193D02*
X016995Y026644D01*
X017295Y026644D02*
X016995Y026193D01*
X017455Y026268D02*
X017530Y026193D01*
X017681Y026193D01*
X017756Y026268D01*
X017756Y026418D01*
X017681Y026494D01*
X017606Y026494D01*
X017455Y026418D01*
X017455Y026644D01*
X017756Y026644D01*
X017693Y025756D02*
X017693Y025381D01*
X017618Y025306D01*
X017543Y025306D01*
X018846Y025681D02*
X018921Y025606D01*
X018921Y025531D01*
X019081Y025906D02*
X019156Y025906D01*
X018385Y027606D02*
X018385Y028056D01*
X018160Y027831D01*
X014420Y026029D02*
X014420Y025879D01*
X014345Y025804D01*
X014045Y026104D01*
X014345Y026104D01*
X014420Y026029D01*
X014345Y025804D02*
X014045Y025804D01*
X013970Y025879D01*
X013970Y026029D01*
X014045Y026104D01*
X013819Y026019D02*
X013819Y025868D01*
X013744Y025793D01*
X013518Y025793D01*
X013518Y025643D02*
X013518Y026094D01*
X013744Y026094D01*
X013819Y026019D01*
X013358Y026019D02*
X013283Y026094D01*
X013133Y026094D01*
X013058Y026019D01*
X013058Y025944D01*
X013133Y025868D01*
X013283Y025868D01*
X013358Y025793D01*
X013358Y025718D01*
X013283Y025643D01*
X013133Y025643D01*
X013058Y025718D01*
X012901Y025643D02*
X012751Y025643D01*
X012826Y025643D02*
X012826Y026094D01*
X012751Y026094D02*
X012901Y026094D01*
X012591Y026019D02*
X012591Y025868D01*
X012516Y025793D01*
X012291Y025793D01*
X012418Y025756D02*
X012268Y025606D01*
X012493Y025606D01*
X012568Y025531D01*
X012568Y025456D01*
X012493Y025381D01*
X012343Y025381D01*
X012268Y025456D01*
X012268Y025606D01*
X012291Y025643D02*
X012291Y026094D01*
X012516Y026094D01*
X012591Y026019D01*
X012568Y025831D02*
X012418Y025756D01*
X012441Y025793D02*
X012591Y025643D01*
X012131Y025793D02*
X012131Y026094D01*
X012108Y025831D02*
X011808Y025381D01*
X011670Y025643D02*
X011670Y025944D01*
X011520Y026094D01*
X011370Y025944D01*
X011370Y025643D01*
X011370Y025569D02*
X011295Y025569D01*
X011220Y025493D01*
X011220Y025268D01*
X011370Y025268D01*
X011445Y025343D01*
X011445Y025493D01*
X011370Y025569D01*
X011370Y025868D02*
X011670Y025868D01*
X011808Y025831D02*
X012108Y025381D01*
X011981Y025643D02*
X012131Y025793D01*
X011981Y025643D02*
X011830Y025793D01*
X011830Y026094D01*
X010995Y025569D02*
X011070Y025418D01*
X011220Y025268D01*
X009438Y026868D02*
X009438Y027244D01*
X009513Y027319D01*
X009513Y027093D02*
X009363Y027093D01*
X009203Y027093D02*
X009203Y026868D01*
X009053Y026868D02*
X009053Y027093D01*
X009128Y027169D01*
X009203Y027093D01*
X009053Y027093D02*
X008978Y027169D01*
X008903Y027169D01*
X008903Y026868D01*
X008743Y026943D02*
X008667Y026868D01*
X008517Y026868D01*
X008442Y026943D01*
X008743Y027244D01*
X008743Y026943D01*
X008743Y027244D02*
X008667Y027319D01*
X008517Y027319D01*
X008442Y027244D01*
X008442Y026943D01*
X008282Y026868D02*
X007982Y026868D01*
X008132Y026868D02*
X008132Y027319D01*
X007982Y027169D01*
X008239Y027418D02*
X008389Y027418D01*
X008464Y027493D01*
X008624Y027493D02*
X008699Y027418D01*
X008849Y027418D01*
X008924Y027493D01*
X008924Y027568D01*
X008849Y027643D01*
X008624Y027643D01*
X008624Y027493D01*
X008624Y027643D02*
X008774Y027794D01*
X008924Y027869D01*
X009085Y027869D02*
X009310Y027869D01*
X009385Y027794D01*
X009385Y027643D01*
X009310Y027568D01*
X009085Y027568D01*
X009085Y027418D02*
X009085Y027869D01*
X008464Y027794D02*
X008389Y027869D01*
X008239Y027869D01*
X008164Y027794D01*
X008164Y027493D01*
X008239Y027418D01*
X006247Y025244D02*
X006022Y025018D01*
X006322Y025018D01*
X006247Y024793D02*
X006247Y025244D01*
X005862Y025169D02*
X005562Y024868D01*
X005637Y024793D01*
X005787Y024793D01*
X005862Y024868D01*
X005862Y025169D01*
X005787Y025244D01*
X005637Y025244D01*
X005562Y025169D01*
X005562Y024868D01*
X005401Y024868D02*
X005326Y024793D01*
X005176Y024793D01*
X005101Y024868D01*
X005176Y025018D02*
X005326Y025018D01*
X005401Y024943D01*
X005401Y024868D01*
X005176Y025018D02*
X005101Y025094D01*
X005101Y025169D01*
X005176Y025244D01*
X005326Y025244D01*
X005401Y025169D01*
X004941Y024793D02*
X004641Y024793D01*
X004641Y025244D01*
X004406Y025244D02*
X004180Y025018D01*
X004481Y025018D01*
X004406Y024793D02*
X004406Y025244D01*
X004020Y025244D02*
X004020Y025169D01*
X003720Y024868D01*
X003720Y024793D01*
X003720Y025244D02*
X004020Y025244D01*
X002670Y025224D02*
X002670Y025525D01*
X002670Y025375D02*
X002220Y025375D01*
X002370Y025224D01*
X002670Y025064D02*
X002670Y024764D01*
X002670Y024914D02*
X002220Y024914D01*
X002370Y024764D01*
X002295Y024604D02*
X002220Y024529D01*
X002220Y024304D01*
X002670Y024304D01*
X002670Y024529D01*
X002595Y024604D01*
X002295Y024604D01*
X002295Y024144D02*
X002220Y024068D01*
X002220Y023843D01*
X002670Y023843D01*
X002670Y024068D01*
X002595Y024144D01*
X002295Y024144D01*
X002310Y022319D02*
X002310Y021868D01*
X002160Y021868D02*
X002460Y021868D01*
X002160Y022169D02*
X002310Y022319D01*
X001999Y022319D02*
X001999Y022244D01*
X001699Y021943D01*
X001699Y021868D01*
X001999Y021868D01*
X001824Y021544D02*
X001824Y021093D01*
X001664Y021093D02*
X001664Y021544D01*
X001514Y021394D01*
X001364Y021544D01*
X001364Y021093D01*
X001129Y021093D02*
X001129Y021544D01*
X000903Y021318D01*
X001204Y021318D01*
X000743Y021093D02*
X000443Y021093D01*
X000593Y021093D02*
X000593Y021544D01*
X000443Y021394D01*
X001824Y021318D02*
X001899Y021394D01*
X002049Y021394D01*
X002124Y021318D01*
X002124Y021093D01*
X002285Y021093D02*
X002585Y021093D01*
X002285Y021093D02*
X002585Y021394D01*
X002285Y021394D01*
X001999Y022319D02*
X001699Y022319D01*
X005345Y017143D02*
X005345Y010743D01*
X005845Y010743D01*
X005845Y002943D01*
X015145Y002943D01*
X015145Y010743D01*
X015645Y010743D01*
X015645Y014243D01*
X014945Y015143D01*
X014945Y017143D01*
X005345Y017143D01*
X009787Y021553D02*
X010087Y021853D01*
X010087Y021928D01*
X010012Y022003D01*
X009862Y022003D01*
X009787Y021928D01*
X009787Y021553D02*
X010087Y021553D01*
X010247Y021553D02*
X010548Y021853D01*
X010548Y021928D01*
X010473Y022003D01*
X010323Y022003D01*
X010247Y021928D01*
X010247Y021553D02*
X010548Y021553D01*
X010708Y021628D02*
X011008Y021928D01*
X011008Y021628D01*
X010933Y021553D01*
X010783Y021553D01*
X010708Y021628D01*
X010708Y021928D01*
X010783Y022003D01*
X010933Y022003D01*
X011008Y021928D01*
X011168Y021853D02*
X011243Y021853D01*
X011318Y021778D01*
X011393Y021853D01*
X011469Y021778D01*
X011469Y021553D01*
X011318Y021553D02*
X011318Y021778D01*
X011168Y021853D02*
X011168Y021553D01*
X011629Y021778D02*
X011779Y021778D01*
X011704Y021928D02*
X011779Y022003D01*
X011704Y021928D02*
X011704Y021553D01*
X011936Y021703D02*
X011936Y021853D01*
X012086Y022003D01*
X012242Y021778D02*
X012468Y022003D01*
X012468Y021553D01*
X012703Y021553D02*
X012703Y021628D01*
X013003Y021928D01*
X013003Y022003D01*
X012703Y022003D01*
X012543Y021778D02*
X012242Y021778D01*
X012086Y021553D02*
X011936Y021703D01*
X010581Y022368D02*
X010581Y022669D01*
X010506Y022744D01*
X010355Y022744D01*
X010280Y022669D01*
X010280Y022594D01*
X010355Y022518D01*
X010581Y022518D01*
X010581Y022368D02*
X010506Y022293D01*
X010355Y022293D01*
X010280Y022368D01*
X010120Y022368D02*
X010045Y022293D01*
X009895Y022293D01*
X009820Y022368D01*
X009820Y022669D01*
X009895Y022744D01*
X010045Y022744D01*
X010120Y022669D01*
X012895Y022568D02*
X013045Y022418D01*
X012895Y022568D02*
X013345Y022568D01*
X013345Y022418D02*
X013345Y022719D01*
X013774Y022003D02*
X013699Y021928D01*
X013699Y021553D01*
X013931Y021553D02*
X014081Y021703D01*
X014081Y021853D01*
X013931Y022003D01*
X013774Y021778D02*
X013624Y021778D01*
X013464Y021778D02*
X013464Y021553D01*
X013313Y021553D02*
X013313Y021778D01*
X013388Y021853D01*
X013464Y021778D01*
X013313Y021778D02*
X013238Y021853D01*
X013163Y021853D01*
X013163Y021553D01*
X014070Y020093D02*
X014070Y018444D01*
X014670Y018219D02*
X014670Y018716D01*
X014670Y018821D01*
X014670Y019716D01*
X014670Y019821D01*
X014670Y020317D01*
X014273Y020219D02*
X014219Y020192D01*
X014168Y020162D01*
X014118Y020129D01*
X014070Y020094D01*
X014670Y020317D02*
X014734Y020318D01*
X014798Y020315D01*
X014862Y020308D01*
X014925Y020298D01*
X014987Y020283D01*
X015048Y020265D01*
X015109Y020243D01*
X015167Y020218D01*
X014670Y020317D02*
X014611Y020312D01*
X014553Y020305D01*
X014495Y020294D01*
X014438Y020279D01*
X014382Y020262D01*
X014327Y020242D01*
X014273Y020218D01*
X014670Y018219D02*
X014734Y018218D01*
X014798Y018221D01*
X014862Y018228D01*
X014925Y018238D01*
X014987Y018253D01*
X015048Y018271D01*
X015109Y018293D01*
X015167Y018318D01*
X014282Y018314D02*
X014226Y018341D01*
X014172Y018372D01*
X014120Y018406D01*
X014070Y018443D01*
X015167Y018318D02*
X015224Y018347D01*
X015280Y018380D01*
X015333Y018415D01*
X015384Y018455D01*
X015432Y018497D01*
X015478Y018542D01*
X015521Y018589D01*
X015561Y018639D01*
X015598Y018692D01*
X015631Y018747D01*
X015662Y018803D01*
X015688Y018862D01*
X015711Y018922D01*
X015731Y018983D01*
X015746Y019045D01*
X015758Y019108D01*
X015766Y019172D01*
X015770Y019236D01*
X015770Y019300D01*
X015766Y019364D01*
X015758Y019428D01*
X015746Y019491D01*
X015731Y019553D01*
X015711Y019614D01*
X015688Y019674D01*
X015662Y019733D01*
X015631Y019789D01*
X015598Y019844D01*
X015561Y019897D01*
X015521Y019947D01*
X015478Y019994D01*
X015432Y020039D01*
X015384Y020081D01*
X015333Y020121D01*
X015280Y020156D01*
X015224Y020189D01*
X015167Y020218D01*
X014670Y018219D02*
X014611Y018224D01*
X014553Y018231D01*
X014495Y018242D01*
X014438Y018257D01*
X014382Y018274D01*
X014327Y018294D01*
X014273Y018318D01*
X016995Y018322D02*
X017070Y018247D01*
X016995Y018322D02*
X016995Y018473D01*
X017070Y018548D01*
X017145Y018548D01*
X017445Y018247D01*
X017445Y018548D01*
X017445Y018089D02*
X017295Y017864D01*
X017145Y018089D01*
X016995Y017864D02*
X017445Y017864D01*
X017445Y017704D02*
X017445Y017403D01*
X017145Y017704D01*
X017070Y017704D01*
X016995Y017628D01*
X016995Y017478D01*
X017070Y017403D01*
X017195Y017083D02*
X017195Y016783D01*
X016970Y017008D01*
X017420Y017008D01*
X017420Y016623D02*
X017420Y016323D01*
X017120Y016623D01*
X017045Y016623D01*
X016970Y016548D01*
X016970Y016398D01*
X017045Y016323D01*
X017045Y016162D02*
X017195Y016162D01*
X017270Y016087D01*
X017270Y015862D01*
X017420Y015862D02*
X016970Y015862D01*
X016970Y016087D01*
X017045Y016162D01*
X017270Y016012D02*
X017420Y016162D01*
X014460Y015419D02*
X014460Y015344D01*
X014160Y015043D01*
X014160Y014968D01*
X013999Y015043D02*
X013999Y015118D01*
X013924Y015193D01*
X013849Y015193D01*
X013924Y015193D02*
X013999Y015269D01*
X013999Y015344D01*
X013924Y015419D01*
X013774Y015419D01*
X013699Y015344D01*
X013539Y015344D02*
X013539Y015269D01*
X013464Y015193D01*
X013539Y015118D01*
X013539Y015043D01*
X013464Y014968D01*
X013314Y014968D01*
X013239Y015043D01*
X013079Y015043D02*
X013004Y014968D01*
X012853Y014968D01*
X012778Y015043D01*
X012778Y015344D01*
X012853Y015419D01*
X013004Y015419D01*
X013079Y015344D01*
X013239Y015344D02*
X013314Y015419D01*
X013464Y015419D01*
X013539Y015344D01*
X013464Y015193D02*
X013389Y015193D01*
X013699Y015043D02*
X013774Y014968D01*
X013924Y014968D01*
X013999Y015043D01*
X014160Y015419D02*
X014460Y015419D01*
X013710Y015593D02*
X013410Y015593D01*
X013560Y015593D02*
X013560Y016044D01*
X013410Y015894D01*
X013249Y016044D02*
X012949Y016044D01*
X013099Y016044D02*
X013099Y015593D01*
X012789Y015743D02*
X012789Y016044D01*
X012489Y016044D02*
X012489Y015743D01*
X012639Y015593D01*
X012789Y015743D01*
X012543Y015419D02*
X012618Y015344D01*
X012618Y015269D01*
X012543Y015193D01*
X012318Y015193D01*
X012318Y014968D02*
X012318Y015419D01*
X012543Y015419D01*
X012543Y015193D02*
X012618Y015118D01*
X012618Y015043D01*
X012543Y014968D01*
X012318Y014968D01*
X016745Y012698D02*
X016745Y012548D01*
X016820Y012473D01*
X017120Y012473D01*
X016820Y012773D01*
X017120Y012773D01*
X017195Y012698D01*
X017195Y012548D01*
X017120Y012473D01*
X016820Y012313D02*
X017120Y012013D01*
X017195Y012013D01*
X017195Y011777D02*
X016745Y011777D01*
X016970Y011552D01*
X016970Y011852D01*
X016745Y012013D02*
X016745Y012313D01*
X016820Y012313D01*
X016745Y012698D02*
X016820Y012773D01*
X016795Y011333D02*
X017095Y011033D01*
X017170Y011033D01*
X017170Y010873D02*
X017020Y010723D01*
X017020Y010798D02*
X017020Y010573D01*
X017170Y010573D02*
X016720Y010573D01*
X016720Y010798D01*
X016795Y010873D01*
X016945Y010873D01*
X017020Y010798D01*
X016720Y011033D02*
X016720Y011333D01*
X016795Y011333D01*
X017995Y010677D02*
X018097Y010779D01*
X018300Y010779D01*
X018402Y010677D01*
X018402Y010575D01*
X018300Y010474D01*
X018402Y010372D01*
X018402Y010270D01*
X018300Y010168D01*
X018097Y010168D01*
X017995Y010270D01*
X018199Y010474D02*
X018300Y010474D01*
X018603Y010677D02*
X018704Y010779D01*
X018908Y010779D01*
X019010Y010677D01*
X019010Y010575D01*
X018603Y010168D01*
X019010Y010168D01*
X019085Y009744D02*
X018881Y009744D01*
X018780Y009642D01*
X018983Y009439D02*
X019085Y009439D01*
X019187Y009337D01*
X019187Y009235D01*
X019085Y009133D01*
X018881Y009133D01*
X018780Y009235D01*
X019085Y009439D02*
X019187Y009540D01*
X019187Y009642D01*
X019085Y009744D01*
X019387Y009642D02*
X019489Y009744D01*
X019693Y009744D01*
X019794Y009642D01*
X019794Y009540D01*
X019693Y009439D01*
X019794Y009337D01*
X019794Y009235D01*
X019693Y009133D01*
X019489Y009133D01*
X019387Y009235D01*
X019591Y009439D02*
X019693Y009439D01*
X018470Y008893D02*
X018416Y008895D01*
X018363Y008901D01*
X018311Y008910D01*
X018259Y008923D01*
X018208Y008940D01*
X018158Y008961D01*
X018111Y008985D01*
X018065Y009012D01*
X018021Y009043D01*
X017979Y009076D01*
X017940Y009113D01*
X017903Y009152D01*
X017870Y009194D01*
X017839Y009238D01*
X017812Y009284D01*
X017788Y009331D01*
X017767Y009381D01*
X017750Y009432D01*
X017737Y009484D01*
X017728Y009536D01*
X017722Y009589D01*
X017720Y009643D01*
X017720Y022393D01*
X018720Y023393D01*
X031470Y023393D01*
X031524Y023391D01*
X031577Y023385D01*
X031629Y023376D01*
X031681Y023363D01*
X031732Y023346D01*
X031782Y023325D01*
X031829Y023301D01*
X031875Y023274D01*
X031919Y023243D01*
X031961Y023210D01*
X032000Y023173D01*
X032037Y023134D01*
X032070Y023092D01*
X032101Y023048D01*
X032128Y023002D01*
X032152Y022955D01*
X032173Y022905D01*
X032190Y022854D01*
X032203Y022802D01*
X032212Y022750D01*
X032218Y022697D01*
X032220Y022643D01*
X032220Y009643D01*
X031693Y010008D02*
X031693Y010619D01*
X031387Y010314D01*
X031794Y010314D01*
X031187Y010314D02*
X031187Y010110D01*
X031085Y010008D01*
X030881Y010008D01*
X030780Y010110D01*
X030780Y010314D02*
X030983Y010415D01*
X031085Y010415D01*
X031187Y010314D01*
X031187Y010619D02*
X030780Y010619D01*
X030780Y010314D01*
X030408Y009654D02*
X030204Y009654D01*
X030103Y009552D01*
X029902Y009654D02*
X029495Y009654D01*
X029495Y009349D01*
X029699Y009450D01*
X029800Y009450D01*
X029902Y009349D01*
X029902Y009145D01*
X029800Y009043D01*
X029597Y009043D01*
X029495Y009145D01*
X030103Y009145D02*
X030204Y009043D01*
X030408Y009043D01*
X030510Y009145D01*
X030510Y009247D01*
X030408Y009349D01*
X030306Y009349D01*
X030408Y009349D02*
X030510Y009450D01*
X030510Y009552D01*
X030408Y009654D01*
X031470Y008893D02*
X031524Y008895D01*
X031577Y008901D01*
X031629Y008910D01*
X031681Y008923D01*
X031732Y008940D01*
X031782Y008961D01*
X031829Y008985D01*
X031875Y009012D01*
X031919Y009043D01*
X031961Y009076D01*
X032000Y009113D01*
X032037Y009152D01*
X032070Y009194D01*
X032101Y009238D01*
X032128Y009284D01*
X032152Y009331D01*
X032173Y009381D01*
X032190Y009432D01*
X032203Y009484D01*
X032212Y009536D01*
X032218Y009589D01*
X032220Y009643D01*
X031470Y008893D02*
X018470Y008893D01*
X015145Y010743D02*
X005845Y010743D01*
X005845Y007543D02*
X005845Y007343D01*
X016920Y021343D02*
X016770Y021493D01*
X017220Y021493D01*
X017220Y021343D02*
X017220Y021644D01*
X017995Y021668D02*
X018402Y021668D01*
X018603Y021668D02*
X019010Y022075D01*
X019010Y022177D01*
X018908Y022279D01*
X018704Y022279D01*
X018603Y022177D01*
X018199Y022279D02*
X018199Y021668D01*
X018603Y021668D02*
X019010Y021668D01*
X018199Y022279D02*
X017995Y022075D01*
X019495Y022668D02*
X019902Y022668D01*
X020103Y022668D02*
X020510Y022668D01*
X020306Y022668D02*
X020306Y023279D01*
X020103Y023075D01*
X019699Y023279D02*
X019699Y022668D01*
X019495Y023075D02*
X019699Y023279D01*
X014420Y025343D02*
X014420Y025644D01*
X014420Y025493D02*
X013970Y025493D01*
X014120Y025343D01*
X029495Y023279D02*
X029902Y023279D01*
X029902Y023177D01*
X029495Y022770D01*
X029495Y022668D01*
X030103Y022770D02*
X030204Y022668D01*
X030408Y022668D01*
X030510Y022770D01*
X030510Y022974D01*
X030408Y023075D01*
X030306Y023075D01*
X030103Y022974D01*
X030103Y023279D01*
X030510Y023279D01*
X030780Y022369D02*
X031187Y022369D01*
X031187Y022267D01*
X030780Y021860D01*
X030780Y021758D01*
X031387Y022064D02*
X031794Y022064D01*
X031693Y022369D02*
X031387Y022064D01*
X031693Y021758D02*
X031693Y022369D01*
X024360Y044693D02*
X024060Y044693D01*
X024210Y044693D02*
X024210Y045144D01*
X024060Y044994D01*
X023899Y044994D02*
X023599Y044693D01*
X023899Y044693D01*
X023899Y044994D02*
X023899Y045069D01*
X023824Y045144D01*
X023674Y045144D01*
X023599Y045069D01*
D17*
X022057Y019057D02*
X022057Y013230D01*
X027883Y013230D01*
X027883Y019057D01*
X022057Y019057D01*
D18*
X033309Y024983D02*
X033309Y025404D01*
X033520Y025614D01*
X033730Y025404D01*
X033730Y024983D01*
X033730Y025299D02*
X033309Y025299D01*
X033954Y025614D02*
X034374Y025614D01*
X034164Y025614D02*
X034164Y024983D01*
X034599Y024983D02*
X034599Y025614D01*
X034809Y025404D01*
X035019Y025614D01*
X035019Y024983D01*
X035243Y024983D02*
X035243Y025614D01*
X035664Y025614D01*
X035696Y025853D02*
X036012Y025853D01*
X036117Y025958D01*
X036117Y026379D01*
X036012Y026484D01*
X035696Y026484D01*
X035696Y025853D01*
X035993Y025614D02*
X035888Y025509D01*
X035888Y025088D01*
X035993Y024983D01*
X036203Y024983D01*
X036308Y025088D01*
X036308Y025299D01*
X036098Y025299D01*
X036308Y025509D02*
X036203Y025614D01*
X035993Y025614D01*
X036341Y025853D02*
X036656Y025853D01*
X036761Y025958D01*
X036761Y026379D01*
X036656Y026484D01*
X036341Y026484D01*
X036341Y025853D01*
X036742Y025614D02*
X036532Y025404D01*
X036532Y024983D01*
X036532Y025299D02*
X036953Y025299D01*
X036953Y025404D02*
X036953Y024983D01*
X037177Y025088D02*
X037282Y024983D01*
X037492Y024983D01*
X037597Y025088D01*
X037597Y025193D01*
X037492Y025299D01*
X037387Y025299D01*
X037492Y025299D02*
X037597Y025404D01*
X037597Y025509D01*
X037492Y025614D01*
X037282Y025614D01*
X037177Y025509D01*
X036953Y025404D02*
X036742Y025614D01*
X036985Y025853D02*
X036985Y025958D01*
X037406Y026379D01*
X037406Y026484D01*
X036985Y026484D01*
X037926Y025614D02*
X037821Y025509D01*
X037926Y025614D02*
X038137Y025614D01*
X038242Y025509D01*
X038242Y025404D01*
X037821Y024983D01*
X038242Y024983D01*
X038466Y025299D02*
X038886Y025299D01*
X039110Y025193D02*
X039426Y025193D01*
X039531Y025299D01*
X039531Y025509D01*
X039426Y025614D01*
X039110Y025614D01*
X039110Y024983D01*
X035664Y024983D02*
X035243Y024983D01*
X035243Y025299D02*
X035453Y025299D01*
X035590Y005934D02*
X035275Y005934D01*
X035275Y005303D01*
X035590Y005303D01*
X035695Y005408D01*
X035695Y005829D01*
X035590Y005934D01*
X035919Y005619D02*
X036234Y005619D01*
X036339Y005513D01*
X036339Y005408D01*
X036234Y005303D01*
X036024Y005303D01*
X035919Y005408D01*
X035919Y005619D01*
X036129Y005829D01*
X036339Y005934D01*
X037130Y005624D02*
X037445Y005624D01*
X037550Y005518D01*
X037550Y005413D01*
X037445Y005308D01*
X037235Y005308D01*
X037130Y005413D01*
X037130Y005624D01*
X037340Y005834D01*
X037550Y005939D01*
X037775Y005834D02*
X037880Y005939D01*
X038090Y005939D01*
X038195Y005834D01*
X038195Y005729D01*
X037775Y005308D01*
X038195Y005308D01*
X038419Y005308D02*
X038839Y005729D01*
X038839Y005834D01*
X038734Y005939D01*
X038524Y005939D01*
X038419Y005834D01*
X038419Y005308D02*
X038839Y005308D01*
X039064Y005413D02*
X039169Y005308D01*
X039379Y005308D01*
X039484Y005413D01*
X039484Y005624D01*
X039379Y005729D01*
X039274Y005729D01*
X039064Y005624D01*
X039064Y005939D01*
X039484Y005939D01*
X039708Y005624D02*
X040023Y005624D01*
X040129Y005518D01*
X040129Y005413D01*
X040023Y005308D01*
X039813Y005308D01*
X039708Y005413D01*
X039708Y005624D01*
X039918Y005834D01*
X040129Y005939D01*
X035050Y005829D02*
X034945Y005934D01*
X034630Y005934D01*
X034630Y005303D01*
X034945Y005303D01*
X035050Y005408D01*
X035050Y005829D01*
X007954Y039786D02*
X007954Y040416D01*
X008270Y040416D01*
X008375Y040311D01*
X008375Y040101D01*
X008270Y039996D01*
X007954Y039996D01*
X007730Y040101D02*
X007730Y039891D01*
X007625Y039786D01*
X007415Y039786D01*
X007310Y039891D01*
X007310Y040101D02*
X007520Y040206D01*
X007625Y040206D01*
X007730Y040101D01*
X007730Y040416D02*
X007310Y040416D01*
X007310Y040101D01*
X007086Y040101D02*
X006665Y040101D01*
X006981Y040416D01*
X006981Y039786D01*
X006441Y039891D02*
X006441Y039996D01*
X006336Y040101D01*
X006021Y040101D01*
X006021Y039891D01*
X006126Y039786D01*
X006336Y039786D01*
X006441Y039891D01*
X006231Y040311D02*
X006021Y040101D01*
X006231Y040311D02*
X006441Y040416D01*
X006214Y040588D02*
X005794Y040588D01*
X006004Y040588D02*
X006004Y041219D01*
X005794Y041009D01*
X005570Y041009D02*
X005570Y040588D01*
X005586Y040416D02*
X005586Y039786D01*
X005376Y039786D02*
X005797Y039786D01*
X005376Y040206D02*
X005586Y040416D01*
X005150Y040588D02*
X005150Y041009D01*
X005360Y041219D01*
X005570Y041009D01*
X005570Y040904D02*
X005150Y040904D01*
X004925Y041114D02*
X004820Y041219D01*
X004505Y041219D01*
X004505Y040588D01*
X004820Y040588D01*
X004925Y040693D01*
X004925Y041114D01*
X004942Y040416D02*
X004732Y040206D01*
X004732Y039786D01*
X004507Y039786D02*
X004087Y040416D01*
X003863Y040311D02*
X003758Y040416D01*
X003548Y040416D01*
X003443Y040311D01*
X003443Y039891D01*
X003548Y039786D01*
X003758Y039786D01*
X003863Y039891D01*
X004087Y039786D02*
X004507Y040416D01*
X004732Y040101D02*
X005152Y040101D01*
X005152Y040206D02*
X005152Y039786D01*
X005152Y040206D02*
X004942Y040416D01*
X015468Y045708D02*
X015573Y045603D01*
X015783Y045603D01*
X015889Y045708D01*
X015889Y045813D01*
X015783Y045919D01*
X015573Y045919D01*
X015468Y046024D01*
X015468Y046129D01*
X015573Y046234D01*
X015783Y046234D01*
X015889Y046129D01*
X016113Y046129D02*
X016113Y045708D01*
X016218Y045603D01*
X016428Y045603D01*
X016533Y045708D01*
X016757Y045603D02*
X016757Y046024D01*
X016967Y046234D01*
X017178Y046024D01*
X017178Y045603D01*
X017402Y045603D02*
X017402Y046234D01*
X017717Y046234D01*
X017822Y046129D01*
X017822Y045919D01*
X017717Y045813D01*
X017402Y045813D01*
X017612Y045813D02*
X017822Y045603D01*
X018257Y045603D02*
X018257Y046234D01*
X018467Y046234D02*
X018046Y046234D01*
X018691Y045919D02*
X019111Y045919D01*
X019335Y045919D02*
X019546Y045919D01*
X019756Y046234D02*
X019335Y046234D01*
X019335Y045603D01*
X017178Y045919D02*
X016757Y045919D01*
X016533Y046129D02*
X016428Y046234D01*
X016218Y046234D01*
X016113Y046129D01*
X025755Y046533D02*
X025860Y046428D01*
X026070Y046428D01*
X026175Y046533D01*
X026175Y046638D01*
X026070Y046744D01*
X025860Y046744D01*
X025755Y046849D01*
X025755Y046954D01*
X025860Y047059D01*
X026070Y047059D01*
X026175Y046954D01*
X026400Y046954D02*
X026400Y046533D01*
X026505Y046428D01*
X026715Y046428D01*
X026820Y046533D01*
X027044Y046428D02*
X027044Y046849D01*
X027254Y047059D01*
X027464Y046849D01*
X027464Y046428D01*
X027689Y046428D02*
X027689Y047059D01*
X028004Y047059D01*
X028109Y046954D01*
X028109Y046744D01*
X028004Y046638D01*
X027689Y046638D01*
X027899Y046638D02*
X028109Y046428D01*
X028543Y046428D02*
X028543Y047059D01*
X028333Y047059D02*
X028754Y047059D01*
X028978Y046744D02*
X029398Y046744D01*
X029622Y046744D02*
X029832Y046744D01*
X029622Y047059D02*
X029622Y046428D01*
X029622Y047059D02*
X030043Y047059D01*
X027464Y046744D02*
X027044Y046744D01*
X026820Y046954D02*
X026715Y047059D01*
X026505Y047059D01*
X026400Y046954D01*
X026400Y047503D02*
X026820Y047924D01*
X026820Y048029D01*
X026715Y048134D01*
X026505Y048134D01*
X026400Y048029D01*
X026175Y048134D02*
X025755Y047503D01*
X026175Y047503D02*
X025755Y048134D01*
X026400Y047503D02*
X026820Y047503D01*
D19*
X011595Y030831D02*
X011595Y026831D01*
X004095Y022768D02*
X004095Y018768D01*
D20*
X007595Y020398D02*
X008095Y020398D01*
X008595Y020398D01*
X008595Y020648D02*
X008595Y020898D01*
X007595Y020898D01*
X007595Y020648D01*
X008595Y020648D01*
X008595Y021138D02*
X008095Y021138D01*
X007595Y021138D01*
X015095Y028461D02*
X015595Y028461D01*
X016095Y028461D01*
X016095Y028711D02*
X016095Y028961D01*
X015095Y028961D01*
X015095Y028711D01*
X016095Y028711D01*
X016095Y029201D02*
X015595Y029201D01*
X015095Y029201D01*
D21*
X002355Y033628D02*
X002355Y033918D01*
X001835Y033918D02*
X001835Y033618D01*
X001623Y034788D02*
X001316Y034788D01*
X001240Y034865D01*
X001240Y035019D01*
X001316Y035095D01*
X001393Y035249D02*
X001240Y035402D01*
X001700Y035402D01*
X001700Y035249D02*
X001700Y035556D01*
X001700Y035709D02*
X001393Y036016D01*
X001316Y036016D01*
X001240Y035939D01*
X001240Y035786D01*
X001316Y035709D01*
X001700Y035709D02*
X001700Y036016D01*
X001700Y036169D02*
X001240Y036169D01*
X001240Y036400D01*
X001316Y036476D01*
X001470Y036476D01*
X001547Y036400D01*
X001547Y036169D01*
X001990Y035681D02*
X002066Y035681D01*
X002373Y035374D01*
X002450Y035374D01*
X002450Y035144D02*
X001990Y035144D01*
X002220Y034913D01*
X002220Y035220D01*
X001990Y035374D02*
X001990Y035681D01*
X001623Y035095D02*
X001700Y035019D01*
X001700Y034865D01*
X001623Y034788D01*
X001583Y018936D02*
X001737Y018936D01*
X001814Y018859D01*
X001814Y018783D01*
X001737Y018706D01*
X001814Y018629D01*
X001814Y018553D01*
X001737Y018476D01*
X001583Y018476D01*
X001507Y018553D01*
X001353Y018476D02*
X001200Y018629D01*
X001277Y018629D02*
X001046Y018629D01*
X001046Y018476D02*
X001046Y018936D01*
X001277Y018936D01*
X001353Y018859D01*
X001353Y018706D01*
X001277Y018629D01*
X001507Y018859D02*
X001583Y018936D01*
X001660Y018706D02*
X001737Y018706D01*
X001967Y018706D02*
X002274Y018706D01*
X002197Y018476D02*
X002197Y018936D01*
X001967Y018706D01*
X002044Y018186D02*
X002197Y018186D01*
X002274Y018109D01*
X001967Y017803D01*
X002044Y017726D01*
X002197Y017726D01*
X002274Y017803D01*
X002274Y018109D01*
X002044Y018186D02*
X001967Y018109D01*
X001967Y017803D01*
X001814Y017803D02*
X001737Y017726D01*
X001583Y017726D01*
X001507Y017803D01*
X001507Y017956D02*
X001660Y018033D01*
X001737Y018033D01*
X001814Y017956D01*
X001814Y017803D01*
X001507Y017956D02*
X001507Y018186D01*
X001814Y018186D01*
X001200Y018186D02*
X001200Y017726D01*
X001353Y017726D02*
X001046Y017726D01*
X001046Y018033D02*
X001200Y018186D01*
X001319Y016792D02*
X001319Y016332D01*
X001472Y016332D02*
X001472Y016792D01*
X001319Y016562D02*
X001012Y016562D01*
X001012Y016332D02*
X001012Y016792D01*
X001472Y016332D02*
X001779Y016332D01*
X001933Y016332D02*
X002240Y016332D01*
X002086Y016332D02*
X002086Y016792D01*
X001933Y016639D01*
X001883Y016120D02*
X001883Y015890D01*
X001959Y015813D01*
X002036Y015890D01*
X002113Y015813D01*
X002190Y015890D01*
X002190Y016120D01*
X002343Y016044D02*
X002420Y016120D01*
X002573Y016120D01*
X002650Y016044D01*
X002650Y015967D01*
X002343Y015967D01*
X002343Y015890D02*
X002343Y016044D01*
X002343Y015890D02*
X002420Y015813D01*
X002573Y015813D01*
X002804Y015813D02*
X002804Y016120D01*
X002804Y015967D02*
X002957Y016120D01*
X003034Y016120D01*
X004003Y016519D02*
X004437Y016519D01*
X004437Y017267D01*
X004003Y017267D01*
X004003Y016519D01*
X004003Y015267D02*
X004003Y014519D01*
X004437Y014519D01*
X004437Y015267D01*
X004003Y015267D01*
X003494Y014399D02*
X003494Y013938D01*
X003264Y013938D01*
X003187Y014015D01*
X003187Y014169D01*
X003264Y014245D01*
X003494Y014245D01*
X003034Y014245D02*
X002957Y014245D01*
X002804Y014092D01*
X002804Y014245D02*
X002804Y013938D01*
X002650Y013938D02*
X002420Y013938D01*
X002343Y014015D01*
X002420Y014092D01*
X002650Y014092D01*
X002650Y014169D02*
X002650Y013938D01*
X002650Y014169D02*
X002573Y014245D01*
X002420Y014245D01*
X002190Y014245D02*
X001959Y014245D01*
X001883Y014169D01*
X001883Y014015D01*
X001959Y013938D01*
X002190Y013938D01*
X001729Y013938D02*
X001729Y014399D01*
X001729Y014245D02*
X001499Y014245D01*
X001422Y014169D01*
X001422Y014015D01*
X001499Y013938D01*
X001729Y013938D01*
X001269Y014015D02*
X001192Y014092D01*
X001039Y014092D01*
X000962Y014169D01*
X001039Y014245D01*
X001269Y014245D01*
X001269Y014015D02*
X001192Y013938D01*
X000962Y013938D01*
X001109Y013374D02*
X001339Y013374D01*
X001416Y013297D01*
X001416Y013144D01*
X001339Y013067D01*
X001109Y013067D01*
X001262Y013067D02*
X001416Y012913D01*
X001569Y012990D02*
X001646Y012913D01*
X001799Y012913D01*
X001876Y012990D01*
X001876Y013067D01*
X001799Y013144D01*
X001723Y013144D01*
X001799Y013144D02*
X001876Y013220D01*
X001876Y013297D01*
X001799Y013374D01*
X001646Y013374D01*
X001569Y013297D01*
X002030Y013297D02*
X002106Y013374D01*
X002260Y013374D01*
X002337Y013297D01*
X002337Y013220D01*
X002260Y013144D01*
X002337Y013067D01*
X002337Y012990D01*
X002260Y012913D01*
X002106Y012913D01*
X002030Y012990D01*
X002183Y013144D02*
X002260Y013144D01*
X002197Y012686D02*
X002274Y012609D01*
X001967Y012303D01*
X002044Y012226D01*
X002197Y012226D01*
X002274Y012303D01*
X002274Y012609D01*
X002197Y012686D02*
X002044Y012686D01*
X001967Y012609D01*
X001967Y012303D01*
X001814Y012303D02*
X001737Y012226D01*
X001583Y012226D01*
X001507Y012303D01*
X001507Y012456D02*
X001660Y012533D01*
X001737Y012533D01*
X001814Y012456D01*
X001814Y012303D01*
X001507Y012456D02*
X001507Y012686D01*
X001814Y012686D01*
X001200Y012686D02*
X001200Y012226D01*
X001353Y012226D02*
X001046Y012226D01*
X001046Y012533D02*
X001200Y012686D01*
X001109Y012913D02*
X001109Y013374D01*
X001194Y014582D02*
X001194Y015042D01*
X001347Y015042D02*
X001347Y014582D01*
X001654Y014582D01*
X001808Y014582D02*
X002115Y014889D01*
X002115Y014966D01*
X002038Y015042D01*
X001884Y015042D01*
X001808Y014966D01*
X001808Y014582D02*
X002115Y014582D01*
X001194Y014812D02*
X000887Y014812D01*
X000887Y014582D02*
X000887Y015042D01*
X000962Y015660D02*
X000962Y016120D01*
X001192Y016120D01*
X001269Y016044D01*
X001269Y015890D01*
X001192Y015813D01*
X000962Y015813D01*
X001422Y015890D02*
X001499Y015813D01*
X001653Y015813D01*
X001729Y015890D01*
X001729Y016044D01*
X001653Y016120D01*
X001499Y016120D01*
X001422Y016044D01*
X001422Y015890D01*
X015059Y008301D02*
X015520Y008301D01*
X015520Y008148D02*
X015520Y007841D01*
X015520Y007994D02*
X015059Y007994D01*
X015213Y007841D01*
X015366Y008301D02*
X015213Y008531D01*
X015366Y008301D02*
X015520Y008531D01*
X017059Y008301D02*
X017520Y008301D01*
X017520Y008148D02*
X017520Y007841D01*
X017520Y007994D02*
X017059Y007994D01*
X017213Y007841D01*
X017366Y008301D02*
X017213Y008531D01*
X017366Y008301D02*
X017520Y008531D01*
X018934Y008301D02*
X019395Y008301D01*
X019395Y008148D02*
X019395Y007841D01*
X019395Y007994D02*
X018934Y007994D01*
X019088Y007841D01*
X019241Y008301D02*
X019088Y008531D01*
X019241Y008301D02*
X019395Y008531D01*
X020934Y008301D02*
X021395Y008301D01*
X021395Y008148D02*
X021395Y007841D01*
X021395Y007994D02*
X020934Y007994D01*
X021088Y007841D01*
X021241Y008301D02*
X021088Y008531D01*
X021241Y008301D02*
X021395Y008531D01*
X021593Y005042D02*
X021824Y005042D01*
X021900Y004965D01*
X021900Y004812D01*
X021824Y004735D01*
X021593Y004735D01*
X021593Y004582D02*
X021593Y005042D01*
X021747Y004735D02*
X021900Y004582D01*
X022054Y004505D02*
X022361Y004505D01*
X022514Y004658D02*
X022591Y004582D01*
X022744Y004582D01*
X022821Y004658D01*
X022821Y004735D01*
X022744Y004812D01*
X022591Y004812D01*
X022514Y004889D01*
X022514Y004965D01*
X022591Y005042D01*
X022744Y005042D01*
X022821Y004965D01*
X022975Y004965D02*
X023128Y004812D01*
X023128Y004582D01*
X023128Y004812D02*
X023281Y004965D01*
X023281Y005042D01*
X022975Y005042D02*
X022975Y004965D01*
X020946Y004965D02*
X020946Y004812D01*
X020869Y004735D01*
X020639Y004735D01*
X020639Y004582D02*
X020639Y005042D01*
X020869Y005042D01*
X020946Y004965D01*
X020793Y004735D02*
X020946Y004582D01*
X020486Y004505D02*
X020179Y004505D01*
X020025Y004582D02*
X019872Y004735D01*
X019949Y004735D02*
X019718Y004735D01*
X019718Y004582D02*
X019718Y005042D01*
X019949Y005042D01*
X020025Y004965D01*
X020025Y004812D01*
X019949Y004735D01*
X019196Y004658D02*
X019196Y004812D01*
X019043Y004812D01*
X019196Y004965D02*
X019119Y005042D01*
X018966Y005042D01*
X018889Y004965D01*
X018889Y004658D01*
X018966Y004582D01*
X019119Y004582D01*
X019196Y004658D01*
X018736Y004505D02*
X018429Y004505D01*
X018275Y004582D02*
X018122Y004735D01*
X018199Y004735D02*
X017968Y004735D01*
X017968Y004582D02*
X017968Y005042D01*
X018199Y005042D01*
X018275Y004965D01*
X018275Y004812D01*
X018199Y004735D01*
X017196Y004735D02*
X017196Y004658D01*
X017119Y004582D01*
X016889Y004582D01*
X016889Y005042D01*
X017119Y005042D01*
X017196Y004965D01*
X017196Y004889D01*
X017119Y004812D01*
X016889Y004812D01*
X017119Y004812D02*
X017196Y004735D01*
X016736Y004505D02*
X016429Y004505D01*
X016275Y004582D02*
X016122Y004735D01*
X016199Y004735D02*
X015968Y004735D01*
X015968Y004582D02*
X015968Y005042D01*
X016199Y005042D01*
X016275Y004965D01*
X016275Y004812D01*
X016199Y004735D01*
X013012Y005063D02*
X012781Y005063D01*
X012705Y005140D01*
X012705Y005294D01*
X012781Y005370D01*
X013012Y005370D01*
X013012Y005524D02*
X013012Y005063D01*
X012551Y005370D02*
X012474Y005370D01*
X012321Y005217D01*
X012321Y005370D02*
X012321Y005063D01*
X012167Y005063D02*
X011937Y005063D01*
X011861Y005140D01*
X011937Y005217D01*
X012167Y005217D01*
X012167Y005294D02*
X012167Y005063D01*
X012167Y005294D02*
X012091Y005370D01*
X011937Y005370D01*
X011707Y005447D02*
X011630Y005524D01*
X011477Y005524D01*
X011400Y005447D01*
X011400Y005140D01*
X011477Y005063D01*
X011630Y005063D01*
X011707Y005140D01*
X010786Y005140D02*
X010710Y005063D01*
X010556Y005063D01*
X010479Y005140D01*
X010479Y005447D01*
X010556Y005524D01*
X010710Y005524D01*
X010786Y005447D01*
X010326Y005524D02*
X010326Y005063D01*
X010019Y005063D02*
X010019Y005524D01*
X010172Y005370D01*
X010326Y005524D01*
X009866Y005524D02*
X009866Y005063D01*
X009559Y005063D02*
X009559Y005524D01*
X009712Y005370D01*
X009866Y005524D01*
X009405Y005524D02*
X009098Y005063D01*
X008945Y005140D02*
X008945Y005447D01*
X008868Y005524D01*
X008638Y005524D01*
X008638Y005063D01*
X008868Y005063D01*
X008945Y005140D01*
X008484Y005140D02*
X008408Y005063D01*
X008254Y005063D01*
X008177Y005140D01*
X008254Y005294D02*
X008408Y005294D01*
X008484Y005217D01*
X008484Y005140D01*
X008254Y005294D02*
X008177Y005370D01*
X008177Y005447D01*
X008254Y005524D01*
X008408Y005524D01*
X008484Y005447D01*
X041831Y015322D02*
X041831Y015399D01*
X042138Y015706D01*
X042138Y015782D01*
X041831Y015782D01*
X042292Y015552D02*
X042599Y015552D01*
X042752Y015552D02*
X043059Y015552D01*
X043213Y015399D02*
X043289Y015322D01*
X043443Y015322D01*
X043520Y015399D01*
X043520Y015706D02*
X043443Y015782D01*
X043289Y015782D01*
X043213Y015706D01*
X043213Y015399D01*
X043059Y015322D02*
X043059Y015782D01*
X042752Y015782D02*
X042752Y015322D01*
X042522Y015322D02*
X042522Y015782D01*
X042292Y015552D01*
X043673Y015782D02*
X043980Y015782D01*
X043826Y015782D02*
X043826Y015322D01*
X044133Y015322D02*
X044440Y015629D01*
X044440Y015706D01*
X044364Y015782D01*
X044210Y015782D01*
X044133Y015706D01*
X044133Y015322D02*
X044440Y015322D01*
X044594Y015552D02*
X044901Y015552D01*
X045054Y015552D02*
X045208Y015629D01*
X045284Y015629D01*
X045361Y015552D01*
X045361Y015399D01*
X045284Y015322D01*
X045131Y015322D01*
X045054Y015399D01*
X045054Y015552D02*
X045054Y015782D01*
X045361Y015782D01*
X045515Y015782D02*
X045822Y015322D01*
X045822Y015782D01*
X045515Y015782D02*
X045515Y015322D01*
X044824Y015322D02*
X044824Y015782D01*
X044594Y015552D01*
X047707Y015450D02*
X047707Y015373D01*
X047707Y015450D02*
X048014Y015757D01*
X048014Y015833D01*
X047707Y015833D01*
X048168Y015603D02*
X048475Y015603D01*
X048628Y015603D02*
X048935Y015603D01*
X049089Y015757D02*
X049089Y015450D01*
X049165Y015373D01*
X049319Y015373D01*
X049396Y015450D01*
X049396Y015757D02*
X049319Y015833D01*
X049165Y015833D01*
X049089Y015757D01*
X048935Y015833D02*
X048935Y015373D01*
X048628Y015373D02*
X048628Y015833D01*
X048398Y015833D02*
X048398Y015373D01*
X048168Y015603D02*
X048398Y015833D01*
X049549Y015833D02*
X049856Y015833D01*
X049702Y015833D02*
X049702Y015373D01*
X050009Y015373D02*
X050316Y015680D01*
X050316Y015757D01*
X050240Y015833D01*
X050086Y015833D01*
X050009Y015757D01*
X050009Y015373D02*
X050316Y015373D01*
X050470Y015603D02*
X050777Y015603D01*
X050930Y015603D02*
X051084Y015680D01*
X051160Y015680D01*
X051237Y015603D01*
X051237Y015450D01*
X051160Y015373D01*
X051007Y015373D01*
X050930Y015450D01*
X050930Y015603D02*
X050930Y015833D01*
X051237Y015833D01*
X051391Y015833D02*
X051697Y015373D01*
X051697Y015833D01*
X051391Y015833D02*
X051391Y015373D01*
X050700Y015373D02*
X050700Y015833D01*
X050470Y015603D01*
X061769Y023952D02*
X061769Y024029D01*
X062076Y024336D01*
X062076Y024413D01*
X061769Y024413D01*
X061791Y024747D02*
X062022Y024747D01*
X062098Y024824D01*
X062098Y025131D01*
X062022Y025207D01*
X061791Y025207D01*
X061791Y024747D01*
X062252Y024747D02*
X062252Y025207D01*
X062482Y025207D01*
X062559Y025131D01*
X062559Y024824D01*
X062482Y024747D01*
X062252Y024747D01*
X062460Y024413D02*
X062229Y024182D01*
X062536Y024182D01*
X062690Y024182D02*
X062997Y024182D01*
X063150Y024029D02*
X063227Y023952D01*
X063380Y023952D01*
X063457Y024029D01*
X063150Y024029D02*
X063150Y024336D01*
X063227Y024413D01*
X063380Y024413D01*
X063457Y024336D01*
X063611Y024413D02*
X063917Y024413D01*
X063764Y024413D02*
X063764Y023952D01*
X064071Y023952D02*
X064378Y024259D01*
X064378Y024336D01*
X064301Y024413D01*
X064148Y024413D01*
X064071Y024336D01*
X064071Y023952D02*
X064378Y023952D01*
X064531Y024182D02*
X064838Y024182D01*
X064992Y024182D02*
X065145Y024259D01*
X065222Y024259D01*
X065299Y024182D01*
X065299Y024029D01*
X065222Y023952D01*
X065068Y023952D01*
X064992Y024029D01*
X064992Y024182D02*
X064992Y024413D01*
X065299Y024413D01*
X065452Y024413D02*
X065759Y023952D01*
X065759Y024413D01*
X065452Y024413D02*
X065452Y023952D01*
X064761Y023952D02*
X064761Y024413D01*
X064531Y024182D01*
X063480Y024824D02*
X063403Y024747D01*
X063249Y024747D01*
X063173Y024824D01*
X063480Y025131D01*
X063480Y024824D01*
X063480Y025131D02*
X063403Y025207D01*
X063249Y025207D01*
X063173Y025131D01*
X063173Y024824D01*
X063019Y024747D02*
X062712Y024747D01*
X062866Y024747D02*
X062866Y025207D01*
X062712Y025054D01*
X062690Y024413D02*
X062690Y023952D01*
X062460Y023952D02*
X062460Y024413D01*
X062997Y024413D02*
X062997Y023952D01*
X063027Y042538D02*
X062950Y042615D01*
X063027Y042538D02*
X063181Y042538D01*
X063257Y042615D01*
X063257Y042692D01*
X063181Y042769D01*
X063027Y042769D01*
X062950Y042845D01*
X062950Y042922D01*
X063027Y042999D01*
X063181Y042999D01*
X063257Y042922D01*
X063411Y042538D02*
X063718Y042999D01*
X063871Y042922D02*
X063948Y042999D01*
X064101Y042999D01*
X064178Y042922D01*
X064178Y042845D01*
X063871Y042538D01*
X064178Y042538D01*
X064792Y042538D02*
X064792Y042999D01*
X064869Y042769D02*
X065099Y042538D01*
X065252Y042538D02*
X065483Y042538D01*
X065559Y042615D01*
X065559Y042692D01*
X065483Y042769D01*
X065252Y042769D01*
X065252Y042999D02*
X065252Y042538D01*
X065483Y042769D02*
X065559Y042845D01*
X065559Y042922D01*
X065483Y042999D01*
X065252Y042999D01*
X065099Y042999D02*
X064792Y042692D01*
X062797Y042769D02*
X062720Y042692D01*
X062490Y042692D01*
X062490Y042538D02*
X062490Y042999D01*
X062720Y042999D01*
X062797Y042922D01*
X062797Y042769D01*
X061882Y042845D02*
X061806Y042769D01*
X061882Y042692D01*
X061882Y042615D01*
X061806Y042538D01*
X061652Y042538D01*
X061575Y042615D01*
X061422Y042538D02*
X061115Y042999D01*
X061422Y042999D02*
X061115Y042538D01*
X061575Y042922D02*
X061652Y042999D01*
X061806Y042999D01*
X061882Y042922D01*
X061882Y042845D01*
X061806Y042769D02*
X061729Y042769D01*
X032996Y047234D02*
X032996Y047541D01*
X032996Y047826D02*
X032690Y047826D01*
X032843Y047826D02*
X032843Y048286D01*
X032690Y048133D01*
X032536Y048286D02*
X032229Y047826D01*
X032229Y047541D02*
X032229Y047311D01*
X032383Y047388D01*
X032459Y047388D01*
X032536Y047311D01*
X032536Y047157D01*
X032459Y047081D01*
X032306Y047081D01*
X032229Y047157D01*
X032229Y047541D02*
X032536Y047541D01*
X032690Y047541D02*
X032690Y047234D01*
X032843Y047081D01*
X032996Y047234D01*
X032536Y047826D02*
X032229Y048286D01*
X042813Y004978D02*
X043043Y004978D01*
X043120Y004901D01*
X043120Y004594D01*
X043043Y004517D01*
X042813Y004517D01*
X042813Y004978D01*
X043273Y004978D02*
X043273Y004517D01*
X043503Y004517D01*
X043580Y004594D01*
X043580Y004901D01*
X043503Y004978D01*
X043273Y004978D01*
X043734Y004747D02*
X044040Y004747D01*
X043964Y004517D02*
X043964Y004978D01*
X043734Y004747D01*
X048512Y004518D02*
X048742Y004518D01*
X048819Y004595D01*
X048819Y004902D01*
X048742Y004979D01*
X048512Y004979D01*
X048512Y004518D01*
X048972Y004518D02*
X048972Y004979D01*
X049202Y004979D01*
X049279Y004902D01*
X049279Y004595D01*
X049202Y004518D01*
X048972Y004518D01*
X049432Y004595D02*
X049509Y004518D01*
X049663Y004518D01*
X049739Y004595D01*
X049739Y004748D01*
X049663Y004825D01*
X049586Y004825D01*
X049432Y004748D01*
X049432Y004979D01*
X049739Y004979D01*
D22*
X016970Y010348D03*
X016970Y013188D03*
X017220Y015848D03*
X017220Y018688D03*
X046158Y032348D03*
X047470Y031536D03*
X047470Y034376D03*
X046158Y035188D03*
D23*
X023645Y040018D03*
X019145Y040643D03*
X016145Y040643D03*
X013395Y040643D03*
X010770Y040268D03*
X002020Y040831D03*
X009170Y029018D03*
X010395Y020393D03*
D24*
X011220Y022643D03*
X012220Y022643D03*
X012220Y023643D03*
X011220Y023643D03*
X011220Y024643D03*
X012220Y024643D03*
X015095Y024518D03*
X016095Y024518D03*
X016095Y023518D03*
X016095Y022518D03*
X015095Y022518D03*
X015095Y021518D03*
X016095Y021518D03*
X016095Y025518D03*
X015095Y025518D03*
X009470Y031768D03*
X009470Y032768D03*
X009470Y033768D03*
X005595Y042143D03*
X004595Y042143D03*
X003595Y042143D03*
X061970Y040831D03*
X062970Y040831D03*
X063970Y040831D03*
X064970Y040831D03*
D25*
X023356Y008606D02*
X021584Y008606D01*
X021584Y005181D01*
X023356Y005181D01*
X023356Y008606D01*
X021356Y008606D02*
X021356Y005181D01*
X019584Y005181D01*
X019584Y008606D01*
X021356Y008606D01*
X019481Y008606D02*
X019481Y005181D01*
X017709Y005181D01*
X017709Y008606D01*
X019481Y008606D01*
X017481Y008606D02*
X017481Y005181D01*
X015709Y005181D01*
X015709Y008606D01*
X017481Y008606D01*
D26*
X016595Y007897D03*
X018595Y007897D03*
X020470Y007897D03*
X022470Y007897D03*
D27*
X027095Y040256D03*
X025345Y042443D03*
D28*
X024945Y044418D02*
X024945Y048468D01*
X007245Y048468D02*
X007245Y044418D01*
D29*
X004210Y016962D02*
X004151Y016903D01*
X004220Y016834D01*
X004279Y016893D01*
X004210Y016962D01*
X004220Y014952D02*
X004289Y014883D01*
X004230Y014824D01*
X004161Y014893D01*
X004220Y014952D01*
D30*
X004063Y014785D03*
X004377Y017002D03*
D31*
X003096Y017980D03*
X003096Y018560D03*
D32*
X003138Y012956D03*
X004178Y012956D03*
D33*
X002095Y033486D03*
X002095Y034056D03*
D34*
X015595Y020643D02*
X019970Y021143D01*
X028720Y020205D02*
X028720Y016706D01*
X003095Y018642D02*
X002408Y020331D01*
M02*
