G75*
G70*
%OFA0B0*%
%FSLAX24Y24*%
%IPPOS*%
%LPD*%
%AMOC8*
5,1,8,0,0,1.08239X$1,22.5*
%
%ADD10C,0.0060*%
%ADD11C,0.0001*%
%ADD12C,0.0000*%
%ADD13C,0.0050*%
D10*
X074521Y025615D02*
X074521Y026256D01*
X074735Y026042D01*
X074948Y026256D01*
X074948Y025615D01*
X075166Y025615D02*
X075379Y025615D01*
X075272Y025615D02*
X075272Y026042D01*
X075166Y026042D01*
X075272Y026256D02*
X075272Y026362D01*
X075595Y026042D02*
X075916Y026042D01*
X076022Y025935D01*
X076022Y025615D01*
X076240Y025615D02*
X076453Y025615D01*
X076347Y025615D02*
X076347Y026042D01*
X076240Y026042D01*
X076347Y026256D02*
X076347Y026362D01*
X076670Y025935D02*
X077097Y025935D01*
X077314Y026042D02*
X077421Y025935D01*
X077634Y025935D01*
X077741Y025829D01*
X077741Y025722D01*
X077634Y025615D01*
X077421Y025615D01*
X077314Y025722D01*
X077314Y026042D02*
X077314Y026149D01*
X077421Y026256D01*
X077634Y026256D01*
X077741Y026149D01*
X077959Y026256D02*
X078386Y026256D01*
X078172Y026256D02*
X078172Y025615D01*
X078603Y025615D02*
X079030Y026256D01*
X078603Y026256D02*
X079030Y025615D01*
X079892Y025615D02*
X080319Y025615D01*
X080106Y025615D02*
X080106Y026256D01*
X079892Y026042D01*
X080537Y025935D02*
X080964Y025935D01*
X081181Y025722D02*
X081181Y025615D01*
X081181Y025722D02*
X081609Y026149D01*
X081609Y026256D01*
X081181Y026256D01*
X080857Y026256D02*
X080537Y025935D01*
X080857Y025615D02*
X080857Y026256D01*
X081826Y026149D02*
X082253Y025722D01*
X082253Y025935D02*
X081826Y025935D01*
X081826Y025722D02*
X082253Y026149D01*
X082040Y026149D02*
X082040Y025722D01*
X082471Y025615D02*
X082898Y025615D01*
X082684Y025615D02*
X082684Y026256D01*
X082471Y026042D01*
X083115Y025935D02*
X083542Y025935D01*
X083760Y025722D02*
X084187Y026149D01*
X084187Y025722D01*
X084080Y025615D01*
X083866Y025615D01*
X083760Y025722D01*
X083760Y026149D01*
X083866Y026256D01*
X084080Y026256D01*
X084187Y026149D01*
X083435Y026256D02*
X083115Y025935D01*
X083435Y025615D02*
X083435Y026256D01*
X075595Y026042D02*
X075595Y025615D01*
D11*
X031749Y006010D02*
X031749Y004610D01*
X032949Y004610D02*
X032949Y006010D01*
X052549Y006010D02*
X052549Y004610D01*
X053749Y004610D02*
X053749Y006010D01*
D12*
X052554Y006010D02*
X052556Y006058D01*
X052562Y006107D01*
X052572Y006154D01*
X052585Y006201D01*
X052603Y006246D01*
X052624Y006290D01*
X052648Y006332D01*
X052676Y006371D01*
X052707Y006409D01*
X052741Y006443D01*
X052778Y006475D01*
X052817Y006504D01*
X052859Y006529D01*
X052902Y006551D01*
X052947Y006570D01*
X052993Y006584D01*
X053040Y006595D01*
X053088Y006602D01*
X053137Y006605D01*
X053185Y006604D01*
X053234Y006599D01*
X053281Y006590D01*
X053328Y006577D01*
X053374Y006561D01*
X053418Y006541D01*
X053460Y006517D01*
X053501Y006490D01*
X053539Y006460D01*
X053574Y006426D01*
X053607Y006390D01*
X053636Y006352D01*
X053662Y006311D01*
X053685Y006268D01*
X053704Y006224D01*
X053720Y006178D01*
X053732Y006131D01*
X053740Y006083D01*
X053744Y006034D01*
X053744Y005986D01*
X053740Y005937D01*
X053732Y005889D01*
X053720Y005842D01*
X053704Y005796D01*
X053685Y005752D01*
X053662Y005709D01*
X053636Y005668D01*
X053607Y005630D01*
X053574Y005594D01*
X053539Y005560D01*
X053501Y005530D01*
X053460Y005503D01*
X053418Y005479D01*
X053374Y005459D01*
X053328Y005443D01*
X053281Y005430D01*
X053234Y005421D01*
X053185Y005416D01*
X053137Y005415D01*
X053088Y005418D01*
X053040Y005425D01*
X052993Y005436D01*
X052947Y005450D01*
X052902Y005469D01*
X052859Y005491D01*
X052817Y005516D01*
X052778Y005545D01*
X052741Y005577D01*
X052707Y005611D01*
X052676Y005649D01*
X052648Y005688D01*
X052624Y005730D01*
X052603Y005774D01*
X052585Y005819D01*
X052572Y005866D01*
X052562Y005913D01*
X052556Y005962D01*
X052554Y006010D01*
X052549Y006010D02*
X052551Y006058D01*
X052557Y006106D01*
X052566Y006154D01*
X052580Y006200D01*
X052597Y006245D01*
X052618Y006289D01*
X052642Y006331D01*
X052669Y006370D01*
X052700Y006408D01*
X052733Y006443D01*
X052770Y006475D01*
X052808Y006504D01*
X052849Y006530D01*
X052892Y006552D01*
X052936Y006571D01*
X052982Y006586D01*
X053029Y006598D01*
X053077Y006606D01*
X053125Y006610D01*
X053173Y006610D01*
X053221Y006606D01*
X053269Y006598D01*
X053316Y006586D01*
X053362Y006571D01*
X053406Y006552D01*
X053449Y006530D01*
X053490Y006504D01*
X053528Y006475D01*
X053565Y006443D01*
X053598Y006408D01*
X053629Y006370D01*
X053656Y006331D01*
X053680Y006289D01*
X053701Y006245D01*
X053718Y006200D01*
X053732Y006154D01*
X053741Y006106D01*
X053747Y006058D01*
X053749Y006010D01*
X052554Y004610D02*
X052556Y004658D01*
X052562Y004707D01*
X052572Y004754D01*
X052585Y004801D01*
X052603Y004846D01*
X052624Y004890D01*
X052648Y004932D01*
X052676Y004971D01*
X052707Y005009D01*
X052741Y005043D01*
X052778Y005075D01*
X052817Y005104D01*
X052859Y005129D01*
X052902Y005151D01*
X052947Y005170D01*
X052993Y005184D01*
X053040Y005195D01*
X053088Y005202D01*
X053137Y005205D01*
X053185Y005204D01*
X053234Y005199D01*
X053281Y005190D01*
X053328Y005177D01*
X053374Y005161D01*
X053418Y005141D01*
X053460Y005117D01*
X053501Y005090D01*
X053539Y005060D01*
X053574Y005026D01*
X053607Y004990D01*
X053636Y004952D01*
X053662Y004911D01*
X053685Y004868D01*
X053704Y004824D01*
X053720Y004778D01*
X053732Y004731D01*
X053740Y004683D01*
X053744Y004634D01*
X053744Y004586D01*
X053740Y004537D01*
X053732Y004489D01*
X053720Y004442D01*
X053704Y004396D01*
X053685Y004352D01*
X053662Y004309D01*
X053636Y004268D01*
X053607Y004230D01*
X053574Y004194D01*
X053539Y004160D01*
X053501Y004130D01*
X053460Y004103D01*
X053418Y004079D01*
X053374Y004059D01*
X053328Y004043D01*
X053281Y004030D01*
X053234Y004021D01*
X053185Y004016D01*
X053137Y004015D01*
X053088Y004018D01*
X053040Y004025D01*
X052993Y004036D01*
X052947Y004050D01*
X052902Y004069D01*
X052859Y004091D01*
X052817Y004116D01*
X052778Y004145D01*
X052741Y004177D01*
X052707Y004211D01*
X052676Y004249D01*
X052648Y004288D01*
X052624Y004330D01*
X052603Y004374D01*
X052585Y004419D01*
X052572Y004466D01*
X052562Y004513D01*
X052556Y004562D01*
X052554Y004610D01*
X052549Y004610D02*
X052551Y004562D01*
X052557Y004514D01*
X052566Y004466D01*
X052580Y004420D01*
X052597Y004375D01*
X052618Y004331D01*
X052642Y004289D01*
X052669Y004250D01*
X052700Y004212D01*
X052733Y004177D01*
X052770Y004145D01*
X052808Y004116D01*
X052849Y004090D01*
X052892Y004068D01*
X052936Y004049D01*
X052982Y004034D01*
X053029Y004022D01*
X053077Y004014D01*
X053125Y004010D01*
X053173Y004010D01*
X053221Y004014D01*
X053269Y004022D01*
X053316Y004034D01*
X053362Y004049D01*
X053406Y004068D01*
X053449Y004090D01*
X053490Y004116D01*
X053528Y004145D01*
X053565Y004177D01*
X053598Y004212D01*
X053629Y004250D01*
X053656Y004289D01*
X053680Y004331D01*
X053701Y004375D01*
X053718Y004420D01*
X053732Y004466D01*
X053741Y004514D01*
X053747Y004562D01*
X053749Y004610D01*
X031754Y004610D02*
X031756Y004658D01*
X031762Y004707D01*
X031772Y004754D01*
X031785Y004801D01*
X031803Y004846D01*
X031824Y004890D01*
X031848Y004932D01*
X031876Y004971D01*
X031907Y005009D01*
X031941Y005043D01*
X031978Y005075D01*
X032017Y005104D01*
X032059Y005129D01*
X032102Y005151D01*
X032147Y005170D01*
X032193Y005184D01*
X032240Y005195D01*
X032288Y005202D01*
X032337Y005205D01*
X032385Y005204D01*
X032434Y005199D01*
X032481Y005190D01*
X032528Y005177D01*
X032574Y005161D01*
X032618Y005141D01*
X032660Y005117D01*
X032701Y005090D01*
X032739Y005060D01*
X032774Y005026D01*
X032807Y004990D01*
X032836Y004952D01*
X032862Y004911D01*
X032885Y004868D01*
X032904Y004824D01*
X032920Y004778D01*
X032932Y004731D01*
X032940Y004683D01*
X032944Y004634D01*
X032944Y004586D01*
X032940Y004537D01*
X032932Y004489D01*
X032920Y004442D01*
X032904Y004396D01*
X032885Y004352D01*
X032862Y004309D01*
X032836Y004268D01*
X032807Y004230D01*
X032774Y004194D01*
X032739Y004160D01*
X032701Y004130D01*
X032660Y004103D01*
X032618Y004079D01*
X032574Y004059D01*
X032528Y004043D01*
X032481Y004030D01*
X032434Y004021D01*
X032385Y004016D01*
X032337Y004015D01*
X032288Y004018D01*
X032240Y004025D01*
X032193Y004036D01*
X032147Y004050D01*
X032102Y004069D01*
X032059Y004091D01*
X032017Y004116D01*
X031978Y004145D01*
X031941Y004177D01*
X031907Y004211D01*
X031876Y004249D01*
X031848Y004288D01*
X031824Y004330D01*
X031803Y004374D01*
X031785Y004419D01*
X031772Y004466D01*
X031762Y004513D01*
X031756Y004562D01*
X031754Y004610D01*
X031749Y004610D02*
X031751Y004562D01*
X031757Y004514D01*
X031766Y004466D01*
X031780Y004420D01*
X031797Y004375D01*
X031818Y004331D01*
X031842Y004289D01*
X031869Y004250D01*
X031900Y004212D01*
X031933Y004177D01*
X031970Y004145D01*
X032008Y004116D01*
X032049Y004090D01*
X032092Y004068D01*
X032136Y004049D01*
X032182Y004034D01*
X032229Y004022D01*
X032277Y004014D01*
X032325Y004010D01*
X032373Y004010D01*
X032421Y004014D01*
X032469Y004022D01*
X032516Y004034D01*
X032562Y004049D01*
X032606Y004068D01*
X032649Y004090D01*
X032690Y004116D01*
X032728Y004145D01*
X032765Y004177D01*
X032798Y004212D01*
X032829Y004250D01*
X032856Y004289D01*
X032880Y004331D01*
X032901Y004375D01*
X032918Y004420D01*
X032932Y004466D01*
X032941Y004514D01*
X032947Y004562D01*
X032949Y004610D01*
X031754Y006010D02*
X031756Y006058D01*
X031762Y006107D01*
X031772Y006154D01*
X031785Y006201D01*
X031803Y006246D01*
X031824Y006290D01*
X031848Y006332D01*
X031876Y006371D01*
X031907Y006409D01*
X031941Y006443D01*
X031978Y006475D01*
X032017Y006504D01*
X032059Y006529D01*
X032102Y006551D01*
X032147Y006570D01*
X032193Y006584D01*
X032240Y006595D01*
X032288Y006602D01*
X032337Y006605D01*
X032385Y006604D01*
X032434Y006599D01*
X032481Y006590D01*
X032528Y006577D01*
X032574Y006561D01*
X032618Y006541D01*
X032660Y006517D01*
X032701Y006490D01*
X032739Y006460D01*
X032774Y006426D01*
X032807Y006390D01*
X032836Y006352D01*
X032862Y006311D01*
X032885Y006268D01*
X032904Y006224D01*
X032920Y006178D01*
X032932Y006131D01*
X032940Y006083D01*
X032944Y006034D01*
X032944Y005986D01*
X032940Y005937D01*
X032932Y005889D01*
X032920Y005842D01*
X032904Y005796D01*
X032885Y005752D01*
X032862Y005709D01*
X032836Y005668D01*
X032807Y005630D01*
X032774Y005594D01*
X032739Y005560D01*
X032701Y005530D01*
X032660Y005503D01*
X032618Y005479D01*
X032574Y005459D01*
X032528Y005443D01*
X032481Y005430D01*
X032434Y005421D01*
X032385Y005416D01*
X032337Y005415D01*
X032288Y005418D01*
X032240Y005425D01*
X032193Y005436D01*
X032147Y005450D01*
X032102Y005469D01*
X032059Y005491D01*
X032017Y005516D01*
X031978Y005545D01*
X031941Y005577D01*
X031907Y005611D01*
X031876Y005649D01*
X031848Y005688D01*
X031824Y005730D01*
X031803Y005774D01*
X031785Y005819D01*
X031772Y005866D01*
X031762Y005913D01*
X031756Y005962D01*
X031754Y006010D01*
X031749Y006010D02*
X031751Y006058D01*
X031757Y006106D01*
X031766Y006154D01*
X031780Y006200D01*
X031797Y006245D01*
X031818Y006289D01*
X031842Y006331D01*
X031869Y006370D01*
X031900Y006408D01*
X031933Y006443D01*
X031970Y006475D01*
X032008Y006504D01*
X032049Y006530D01*
X032092Y006552D01*
X032136Y006571D01*
X032182Y006586D01*
X032229Y006598D01*
X032277Y006606D01*
X032325Y006610D01*
X032373Y006610D01*
X032421Y006606D01*
X032469Y006598D01*
X032516Y006586D01*
X032562Y006571D01*
X032606Y006552D01*
X032649Y006530D01*
X032690Y006504D01*
X032728Y006475D01*
X032765Y006443D01*
X032798Y006408D01*
X032829Y006370D01*
X032856Y006331D01*
X032880Y006289D01*
X032901Y006245D01*
X032918Y006200D01*
X032932Y006154D01*
X032941Y006106D01*
X032947Y006058D01*
X032949Y006010D01*
X067057Y035135D02*
X067059Y035164D01*
X067065Y035192D01*
X067074Y035220D01*
X067087Y035246D01*
X067104Y035269D01*
X067123Y035291D01*
X067145Y035310D01*
X067170Y035325D01*
X067196Y035338D01*
X067224Y035346D01*
X067252Y035351D01*
X067281Y035352D01*
X067310Y035349D01*
X067338Y035342D01*
X067365Y035332D01*
X067391Y035318D01*
X067414Y035301D01*
X067435Y035281D01*
X067453Y035258D01*
X067468Y035233D01*
X067479Y035206D01*
X067487Y035178D01*
X067491Y035149D01*
X067491Y035121D01*
X067487Y035092D01*
X067479Y035064D01*
X067468Y035037D01*
X067453Y035012D01*
X067435Y034989D01*
X067414Y034969D01*
X067391Y034952D01*
X067365Y034938D01*
X067338Y034928D01*
X067310Y034921D01*
X067281Y034918D01*
X067252Y034919D01*
X067224Y034924D01*
X067196Y034932D01*
X067170Y034945D01*
X067145Y034960D01*
X067123Y034979D01*
X067104Y035001D01*
X067087Y035024D01*
X067074Y035050D01*
X067065Y035078D01*
X067059Y035106D01*
X067057Y035135D01*
X066959Y043435D02*
X066961Y043470D01*
X066967Y043505D01*
X066977Y043539D01*
X066990Y043572D01*
X067007Y043603D01*
X067028Y043631D01*
X067051Y043658D01*
X067078Y043681D01*
X067106Y043702D01*
X067137Y043719D01*
X067170Y043732D01*
X067204Y043742D01*
X067239Y043748D01*
X067274Y043750D01*
X067309Y043748D01*
X067344Y043742D01*
X067378Y043732D01*
X067411Y043719D01*
X067442Y043702D01*
X067470Y043681D01*
X067497Y043658D01*
X067520Y043631D01*
X067541Y043603D01*
X067558Y043572D01*
X067571Y043539D01*
X067581Y043505D01*
X067587Y043470D01*
X067589Y043435D01*
X067587Y043400D01*
X067581Y043365D01*
X067571Y043331D01*
X067558Y043298D01*
X067541Y043267D01*
X067520Y043239D01*
X067497Y043212D01*
X067470Y043189D01*
X067442Y043168D01*
X067411Y043151D01*
X067378Y043138D01*
X067344Y043128D01*
X067309Y043122D01*
X067274Y043120D01*
X067239Y043122D01*
X067204Y043128D01*
X067170Y043138D01*
X067137Y043151D01*
X067106Y043168D01*
X067078Y043189D01*
X067051Y043212D01*
X067028Y043239D01*
X067007Y043267D01*
X066990Y043298D01*
X066977Y043331D01*
X066967Y043365D01*
X066961Y043400D01*
X066959Y043435D01*
D13*
X072774Y044335D02*
X072774Y035035D01*
M02*
