G75*
G70*
%OFA0B0*%
%FSLAX24Y24*%
%IPPOS*%
%LPD*%
%AMOC8*
5,1,8,0,0,1.08239X$1,22.5*
%
%ADD10C,0.0051*%
%ADD11C,0.0110*%
%ADD12C,0.0160*%
%ADD13C,0.0050*%
%ADD14C,0.0060*%
%ADD15C,0.0070*%
%ADD16C,0.0020*%
%ADD17C,0.0040*%
%ADD18C,0.0240*%
%ADD19R,0.0240X0.0340*%
%ADD20R,0.0200X0.0200*%
%ADD21C,0.0080*%
%ADD22C,0.0010*%
%ADD23C,0.0100*%
%ADD24R,0.0827X0.0118*%
%ADD25R,0.0200X0.1000*%
%ADD26R,0.1000X0.0200*%
%ADD27R,0.0551X0.0256*%
%ADD28C,0.0000*%
D10*
X001544Y006038D02*
X004706Y006038D01*
X005044Y006038D02*
X078706Y006038D01*
X073581Y000163D02*
X073581Y057700D01*
X073581Y056913D02*
X072557Y056811D01*
X072557Y056787D02*
X073581Y056913D01*
X072557Y057015D01*
X072557Y057039D02*
X072557Y056787D01*
X072557Y056862D02*
X073581Y056913D01*
X072557Y056964D01*
X072557Y057039D02*
X073581Y056913D01*
X010581Y056913D01*
X011605Y056811D01*
X011605Y056787D02*
X010581Y056913D01*
X011605Y057015D01*
X011605Y057039D02*
X011605Y056787D01*
X011605Y056862D02*
X010581Y056913D01*
X011605Y056964D01*
X011605Y057039D02*
X010581Y056913D01*
X010581Y057700D02*
X010581Y004663D01*
X010581Y004288D02*
X010581Y000126D01*
X010581Y000913D02*
X009557Y000811D01*
X009557Y000787D02*
X010581Y000913D01*
X009557Y001015D01*
X009557Y001039D02*
X009557Y000787D01*
X009557Y000862D02*
X010581Y000913D01*
X009557Y000964D01*
X009557Y001039D02*
X010581Y000913D01*
X008534Y000913D01*
X011706Y000913D02*
X012730Y000811D01*
X012730Y000787D02*
X011706Y000913D01*
X012730Y001015D01*
X012730Y001039D02*
X012730Y000787D01*
X012730Y000862D02*
X011706Y000913D01*
X012730Y000964D01*
X012730Y001039D02*
X011706Y000913D01*
X016567Y000913D01*
X011706Y000126D02*
X011706Y016663D01*
X013581Y015663D02*
X001544Y015663D01*
X002331Y015663D02*
X002433Y014639D01*
X002457Y014639D02*
X002331Y015663D01*
X002229Y014639D01*
X002205Y014639D02*
X002457Y014639D01*
X002382Y014639D02*
X002331Y015663D01*
X002280Y014639D01*
X002205Y014639D02*
X002331Y015663D01*
X002331Y006038D01*
X002433Y007062D01*
X002457Y007062D02*
X002331Y006038D01*
X002229Y007062D01*
X002205Y007062D02*
X002457Y007062D01*
X002382Y007062D02*
X002331Y006038D01*
X002280Y007062D01*
X002205Y007062D02*
X002331Y006038D01*
X005831Y006038D02*
X005933Y007062D01*
X005957Y007062D02*
X005831Y006038D01*
X005729Y007062D01*
X005705Y007062D02*
X005957Y007062D01*
X005882Y007062D02*
X005831Y006038D01*
X005780Y007062D01*
X005705Y007062D02*
X005831Y006038D01*
X005831Y050413D01*
X005933Y049389D01*
X005957Y049389D02*
X005831Y050413D01*
X005729Y049389D01*
X005705Y049389D02*
X005957Y049389D01*
X005882Y049389D02*
X005831Y050413D01*
X005780Y049389D01*
X005705Y049389D02*
X005831Y050413D01*
X005044Y050413D02*
X077331Y050413D01*
X016567Y059038D02*
X011706Y059038D01*
X012730Y058936D01*
X012730Y058912D02*
X012730Y059164D01*
X011706Y059038D01*
X012730Y059140D01*
X012730Y059089D02*
X011706Y059038D01*
X012730Y058987D01*
X012730Y058912D02*
X011706Y059038D01*
X011706Y059825D02*
X011706Y046413D01*
X014581Y048663D02*
X003669Y048663D01*
X004456Y048663D02*
X004558Y047639D01*
X004582Y047639D02*
X004456Y048663D01*
X004354Y047639D01*
X004330Y047639D02*
X004582Y047639D01*
X004507Y047639D02*
X004456Y048663D01*
X004405Y047639D01*
X004330Y047639D02*
X004456Y048663D01*
X004456Y046616D01*
X004456Y050288D02*
X004558Y051312D01*
X004582Y051312D02*
X004456Y050288D01*
X004354Y051312D01*
X004330Y051312D02*
X004582Y051312D01*
X004507Y051312D02*
X004456Y050288D01*
X004405Y051312D01*
X004330Y051312D02*
X004456Y050288D01*
X004456Y055149D01*
X009557Y058912D02*
X010581Y059038D01*
X009557Y058936D01*
X009557Y058912D02*
X009557Y059164D01*
X010581Y059038D01*
X009557Y059140D01*
X009557Y059089D02*
X010581Y059038D01*
X009557Y058987D01*
X008534Y059038D02*
X010581Y059038D01*
X010581Y058413D02*
X010581Y059825D01*
X009331Y050288D02*
X003669Y050288D01*
D11*
X003373Y051367D02*
X003373Y052213D01*
X003796Y052635D02*
X003796Y052847D01*
X004007Y052847D01*
X004007Y052635D01*
X003796Y052635D01*
X004007Y052001D02*
X002738Y052001D01*
X003373Y051367D01*
X003161Y053270D02*
X002738Y053693D01*
X004007Y053693D01*
X004007Y053270D02*
X004007Y054116D01*
X003796Y054539D02*
X004007Y054750D01*
X004007Y055173D01*
X003796Y055385D01*
X003584Y055385D01*
X003373Y055173D01*
X003373Y054962D01*
X003373Y055173D02*
X003161Y055385D01*
X002950Y055385D01*
X002738Y055173D01*
X002738Y054750D01*
X002950Y054539D01*
X012785Y059487D02*
X013631Y060333D01*
X013631Y060544D01*
X013419Y060756D01*
X012996Y060756D01*
X012785Y060544D01*
X012785Y059487D02*
X013631Y059487D01*
X014053Y059487D02*
X014053Y059698D01*
X014265Y059698D01*
X014265Y059487D01*
X014053Y059487D01*
X014688Y059698D02*
X014688Y059910D01*
X014899Y060121D01*
X015322Y060121D01*
X015534Y059910D01*
X015534Y059698D01*
X015322Y059487D01*
X014899Y059487D01*
X014688Y059698D01*
X014899Y060121D02*
X014688Y060333D01*
X014688Y060544D01*
X014899Y060756D01*
X015322Y060756D01*
X015534Y060544D01*
X015534Y060333D01*
X015322Y060121D01*
X015957Y060121D02*
X016380Y060544D01*
X016803Y060756D01*
X016591Y060121D02*
X015957Y060121D01*
X015957Y059698D01*
X016168Y059487D01*
X016591Y059487D01*
X016803Y059698D01*
X016803Y059910D01*
X016591Y060121D01*
X039121Y058208D02*
X039544Y058631D01*
X039544Y057362D01*
X039121Y057362D02*
X039967Y057362D01*
X040390Y057573D02*
X040601Y057362D01*
X041024Y057362D01*
X041236Y057573D01*
X041236Y057785D01*
X041024Y057996D01*
X040390Y057996D01*
X040390Y057573D01*
X040390Y057996D02*
X040813Y058419D01*
X041236Y058631D01*
X041658Y058419D02*
X041870Y058631D01*
X042293Y058631D01*
X042504Y058419D01*
X041658Y057573D01*
X041870Y057362D01*
X042293Y057362D01*
X042504Y057573D01*
X042504Y058419D01*
X041658Y058419D02*
X041658Y057573D01*
X042927Y057573D02*
X043139Y057573D01*
X043139Y057362D01*
X042927Y057362D01*
X042927Y057573D01*
X043562Y057573D02*
X044408Y058419D01*
X044408Y057573D01*
X044196Y057362D01*
X043773Y057362D01*
X043562Y057573D01*
X043562Y058419D01*
X043773Y058631D01*
X044196Y058631D01*
X044408Y058419D01*
X044830Y058419D02*
X045042Y058631D01*
X045465Y058631D01*
X045676Y058419D01*
X045676Y058208D01*
X044830Y057362D01*
X045676Y057362D01*
X005382Y031761D02*
X005382Y030915D01*
X005382Y031338D02*
X004113Y031338D01*
X004536Y030915D01*
X004325Y030492D02*
X005171Y029646D01*
X005382Y029646D01*
X005382Y029224D02*
X005382Y029012D01*
X005171Y029012D01*
X005171Y029224D01*
X005382Y029224D01*
X005382Y028589D02*
X005382Y027743D01*
X004536Y028589D01*
X004325Y028589D01*
X004113Y028378D01*
X004113Y027955D01*
X004325Y027743D01*
X005382Y027320D02*
X005382Y026474D01*
X005382Y026052D02*
X005382Y025206D01*
X005382Y025629D02*
X004113Y025629D01*
X004536Y025206D01*
X004536Y026474D02*
X004113Y026897D01*
X005382Y026897D01*
X004113Y029646D02*
X004113Y030492D01*
X004325Y030492D01*
X001671Y013725D02*
X001882Y013514D01*
X001882Y013091D01*
X001671Y012879D01*
X001248Y012879D02*
X001036Y013302D01*
X001036Y013514D01*
X001248Y013725D01*
X001671Y013725D01*
X000613Y013725D02*
X000613Y012879D01*
X001248Y012879D01*
X001248Y012457D02*
X001248Y011611D01*
X000613Y012245D01*
X001882Y012245D01*
X001882Y011188D02*
X001671Y011188D01*
X001671Y010976D01*
X001882Y010976D01*
X001882Y011188D01*
X001248Y010553D02*
X001248Y009707D01*
X000613Y010342D01*
X001882Y010342D01*
X001882Y009285D02*
X001882Y008439D01*
X001036Y009285D01*
X000825Y009285D01*
X000613Y009073D01*
X000613Y008650D01*
X000825Y008439D01*
X012785Y002419D02*
X012996Y002631D01*
X013419Y002631D01*
X013631Y002419D01*
X013631Y002208D01*
X012785Y001362D01*
X013631Y001362D01*
X014053Y001362D02*
X014265Y001362D01*
X014265Y001573D01*
X014053Y001573D01*
X014053Y001362D01*
X014688Y001573D02*
X014688Y001785D01*
X014899Y001996D01*
X015322Y001996D01*
X015534Y001785D01*
X015534Y001573D01*
X015322Y001362D01*
X014899Y001362D01*
X014688Y001573D01*
X014899Y001996D02*
X014688Y002208D01*
X014688Y002419D01*
X014899Y002631D01*
X015322Y002631D01*
X015534Y002419D01*
X015534Y002208D01*
X015322Y001996D01*
X015957Y001996D02*
X015957Y001573D01*
X016168Y001362D01*
X016591Y001362D01*
X016803Y001573D01*
X016803Y001785D01*
X016591Y001996D01*
X015957Y001996D01*
X016380Y002419D01*
X016803Y002631D01*
D12*
X052081Y030913D02*
X052081Y031913D01*
D13*
X056391Y031685D02*
X056594Y031889D01*
X056594Y031278D01*
X056391Y031278D02*
X056798Y031278D01*
X056998Y031278D02*
X057405Y031278D01*
X057202Y031278D02*
X057202Y031889D01*
X056998Y031685D01*
X057891Y032278D02*
X058298Y032278D01*
X058498Y032278D02*
X058905Y032685D01*
X058905Y032787D01*
X058804Y032889D01*
X058600Y032889D01*
X058498Y032787D01*
X058094Y032889D02*
X058094Y032278D01*
X058498Y032278D02*
X058905Y032278D01*
X059331Y032163D02*
X058331Y031163D01*
X045581Y031163D01*
X046391Y031278D02*
X046391Y031380D01*
X046798Y031787D01*
X046798Y031889D01*
X046391Y031889D01*
X046019Y032188D02*
X046019Y032799D01*
X045714Y032493D01*
X046121Y032493D01*
X045513Y032697D02*
X045106Y032290D01*
X045106Y032188D01*
X044831Y031913D02*
X044831Y044913D01*
X045106Y044549D02*
X045106Y044243D01*
X045309Y044345D01*
X045411Y044345D01*
X045513Y044243D01*
X045513Y044040D01*
X045411Y043938D01*
X045208Y043938D01*
X045106Y044040D01*
X045106Y044549D02*
X045513Y044549D01*
X045714Y044243D02*
X046121Y044243D01*
X046019Y043938D02*
X046019Y044549D01*
X045714Y044243D01*
X044831Y044913D02*
X044833Y044967D01*
X044839Y045020D01*
X044848Y045072D01*
X044861Y045124D01*
X044878Y045175D01*
X044899Y045225D01*
X044923Y045272D01*
X044950Y045318D01*
X044981Y045362D01*
X045014Y045404D01*
X045051Y045443D01*
X045090Y045480D01*
X045132Y045513D01*
X045176Y045544D01*
X045222Y045571D01*
X045269Y045595D01*
X045319Y045616D01*
X045370Y045633D01*
X045422Y045646D01*
X045474Y045655D01*
X045527Y045661D01*
X045581Y045663D01*
X058581Y045663D01*
X058635Y045661D01*
X058688Y045655D01*
X058740Y045646D01*
X058792Y045633D01*
X058843Y045616D01*
X058893Y045595D01*
X058940Y045571D01*
X058986Y045544D01*
X059030Y045513D01*
X059072Y045480D01*
X059111Y045443D01*
X059148Y045404D01*
X059181Y045362D01*
X059212Y045318D01*
X059239Y045272D01*
X059263Y045225D01*
X059284Y045175D01*
X059301Y045124D01*
X059314Y045072D01*
X059323Y045020D01*
X059329Y044967D01*
X059331Y044913D01*
X059331Y032163D01*
X058094Y032889D02*
X057891Y032685D01*
X061631Y032992D02*
X062081Y032992D01*
X062081Y032842D02*
X062081Y033142D01*
X062006Y033303D02*
X061706Y033603D01*
X062006Y033603D01*
X062081Y033528D01*
X062081Y033378D01*
X062006Y033303D01*
X061706Y033303D01*
X061631Y033378D01*
X061631Y033528D01*
X061706Y033603D01*
X061631Y032992D02*
X061781Y032842D01*
X061631Y035017D02*
X062081Y035317D01*
X062006Y035478D02*
X062081Y035553D01*
X062081Y035703D01*
X062006Y035778D01*
X061856Y035778D01*
X061781Y035703D01*
X061781Y035628D01*
X061856Y035478D01*
X061631Y035478D01*
X061631Y035778D01*
X061631Y035317D02*
X062081Y035017D01*
X062481Y035788D02*
X062481Y037788D01*
X061781Y038688D01*
X061781Y042188D01*
X062281Y042188D01*
X062281Y049988D01*
X071581Y049988D01*
X071581Y042188D01*
X072081Y042188D01*
X072081Y035788D01*
X062481Y035788D01*
X063381Y037767D02*
X063831Y038067D01*
X063756Y038228D02*
X063831Y038303D01*
X063831Y038453D01*
X063756Y038528D01*
X063681Y038528D01*
X063606Y038453D01*
X063606Y038228D01*
X063756Y038228D01*
X063606Y038228D02*
X063456Y038378D01*
X063381Y038528D01*
X063381Y038067D02*
X063831Y037767D01*
X063781Y039103D02*
X063781Y039403D01*
X063781Y039253D02*
X063331Y039253D01*
X063481Y039103D01*
X065231Y036553D02*
X065306Y036403D01*
X065456Y036253D01*
X065456Y036478D01*
X065531Y036553D01*
X065606Y036553D01*
X065681Y036478D01*
X065681Y036328D01*
X065606Y036253D01*
X065456Y036253D01*
X059281Y037303D02*
X059281Y037603D01*
X059281Y037453D02*
X058831Y037453D01*
X058981Y037303D01*
X059706Y042842D02*
X059706Y043067D01*
X059781Y043142D01*
X059931Y043142D01*
X060006Y043067D01*
X060006Y042842D01*
X060156Y042842D02*
X059706Y042842D01*
X060006Y042992D02*
X060156Y043142D01*
X060156Y043303D02*
X060081Y043303D01*
X059781Y043603D01*
X059706Y043603D01*
X059706Y043303D01*
X058905Y043778D02*
X058498Y043778D01*
X058905Y044185D01*
X058905Y044287D01*
X058804Y044389D01*
X058600Y044389D01*
X058498Y044287D01*
X058298Y044287D02*
X058298Y044185D01*
X058196Y044083D01*
X058298Y043981D01*
X058298Y043880D01*
X058196Y043778D01*
X057992Y043778D01*
X057891Y043880D01*
X058094Y044083D02*
X058196Y044083D01*
X058298Y044287D02*
X058196Y044389D01*
X057992Y044389D01*
X057891Y044287D01*
X057304Y044903D02*
X057100Y044903D01*
X056998Y045005D01*
X056798Y045005D02*
X056696Y044903D01*
X056492Y044903D01*
X056391Y045005D01*
X056594Y045208D02*
X056696Y045208D01*
X056798Y045106D01*
X056798Y045005D01*
X056696Y045208D02*
X056798Y045310D01*
X056798Y045412D01*
X056696Y045514D01*
X056492Y045514D01*
X056391Y045412D01*
X056998Y045412D02*
X057100Y045514D01*
X057304Y045514D01*
X057405Y045412D01*
X057405Y045310D01*
X057304Y045208D01*
X057405Y045106D01*
X057405Y045005D01*
X057304Y044903D01*
X057304Y045208D02*
X057202Y045208D01*
X047405Y045106D02*
X047405Y045005D01*
X047304Y044903D01*
X047100Y044903D01*
X046998Y045005D01*
X046798Y045005D02*
X046696Y044903D01*
X046492Y044903D01*
X046391Y045005D01*
X046391Y045208D02*
X046594Y045310D01*
X046696Y045310D01*
X046798Y045208D01*
X046798Y045005D01*
X047202Y045208D02*
X047304Y045208D01*
X047405Y045106D01*
X047304Y045208D02*
X047405Y045310D01*
X047405Y045412D01*
X047304Y045514D01*
X047100Y045514D01*
X046998Y045412D01*
X046798Y045514D02*
X046391Y045514D01*
X046391Y045208D01*
X045513Y032799D02*
X045106Y032799D01*
X045513Y032799D02*
X045513Y032697D01*
X044831Y031913D02*
X044833Y031859D01*
X044839Y031806D01*
X044848Y031754D01*
X044861Y031702D01*
X044878Y031651D01*
X044899Y031601D01*
X044923Y031554D01*
X044950Y031508D01*
X044981Y031464D01*
X045014Y031422D01*
X045051Y031383D01*
X045090Y031346D01*
X045132Y031313D01*
X045176Y031282D01*
X045222Y031255D01*
X045269Y031231D01*
X045319Y031210D01*
X045370Y031193D01*
X045422Y031180D01*
X045474Y031171D01*
X045527Y031165D01*
X045581Y031163D01*
X046998Y031380D02*
X047100Y031278D01*
X047304Y031278D01*
X047405Y031380D01*
X047405Y031583D01*
X047304Y031685D01*
X047202Y031685D01*
X046998Y031583D01*
X046998Y031889D01*
X047405Y031889D01*
X031143Y020709D02*
X031143Y020409D01*
X031143Y020559D02*
X030693Y020559D01*
X030843Y020409D01*
X030843Y020249D02*
X030768Y020249D01*
X030693Y020174D01*
X030693Y020023D01*
X030768Y019948D01*
X030768Y019788D02*
X030918Y019788D01*
X030993Y019713D01*
X030993Y019488D01*
X030993Y019638D02*
X031143Y019788D01*
X031143Y019948D02*
X030843Y020249D01*
X031143Y020249D02*
X031143Y019948D01*
X030768Y019788D02*
X030693Y019713D01*
X030693Y019488D01*
X031143Y019488D01*
X048706Y009913D02*
X048781Y009988D01*
X048931Y009988D01*
X049006Y009913D01*
X049006Y009838D01*
X048706Y009538D01*
X049006Y009538D01*
X049166Y009538D02*
X049467Y009538D01*
X049316Y009538D02*
X049316Y009988D01*
X049166Y009838D01*
X064956Y009838D02*
X065106Y009988D01*
X065106Y009538D01*
X064956Y009538D02*
X065256Y009538D01*
X066356Y025488D02*
X066656Y025488D01*
X066816Y025488D02*
X067117Y025788D01*
X067117Y025863D01*
X067042Y025938D01*
X066891Y025938D01*
X066816Y025863D01*
X066656Y025863D02*
X066356Y025563D01*
X066356Y025488D01*
X066356Y025938D02*
X066656Y025938D01*
X066656Y025863D01*
X066816Y025488D02*
X067117Y025488D01*
X069881Y028296D02*
X069881Y028522D01*
X069956Y028597D01*
X070256Y028597D01*
X070331Y028522D01*
X070331Y028296D01*
X069881Y028296D01*
X069881Y028757D02*
X069881Y028982D01*
X069956Y029057D01*
X070256Y029057D01*
X070331Y028982D01*
X070331Y028757D01*
X069881Y028757D01*
X070031Y029217D02*
X069881Y029367D01*
X070331Y029367D01*
X070331Y029217D02*
X070331Y029517D01*
X070331Y029678D02*
X070331Y029978D01*
X070331Y029828D02*
X069881Y029828D01*
X070031Y029678D01*
X068242Y031363D02*
X067941Y031363D01*
X068091Y031363D02*
X068091Y031813D01*
X067941Y031663D01*
X067781Y031738D02*
X067481Y031438D01*
X067481Y031363D01*
X067781Y031363D01*
X067781Y031738D02*
X067781Y031813D01*
X067481Y031813D01*
X084606Y043313D02*
X084906Y043313D01*
X084756Y043313D02*
X084756Y043763D01*
X084606Y043613D01*
X085981Y044288D02*
X086056Y044213D01*
X086131Y044213D01*
X086206Y044288D01*
X086206Y044663D01*
X086131Y044663D02*
X086281Y044663D01*
X086441Y044663D02*
X086667Y044663D01*
X086742Y044588D01*
X086742Y044438D01*
X086667Y044363D01*
X086441Y044363D01*
X086441Y044213D02*
X086441Y044663D01*
X086902Y044588D02*
X086977Y044663D01*
X087127Y044663D01*
X087202Y044588D01*
X087202Y044513D01*
X086902Y044213D01*
X087202Y044213D01*
X087681Y040944D02*
X087606Y040869D01*
X087606Y040719D01*
X087681Y040644D01*
X087681Y040484D02*
X087831Y040484D01*
X087906Y040409D01*
X087906Y040184D01*
X088056Y040184D02*
X087606Y040184D01*
X087606Y040409D01*
X087681Y040484D01*
X088056Y040644D02*
X087756Y040944D01*
X087681Y040944D01*
X088056Y040944D02*
X088056Y040644D01*
X087981Y040024D02*
X088056Y039949D01*
X088056Y039798D01*
X087981Y039723D01*
X087906Y039723D01*
X087831Y039798D01*
X087831Y039949D01*
X087906Y040024D01*
X087981Y040024D01*
X087831Y039949D02*
X087756Y040024D01*
X087681Y040024D01*
X087606Y039949D01*
X087606Y039798D01*
X087681Y039723D01*
X087756Y039723D01*
X087831Y039798D01*
X087981Y039563D02*
X088056Y039488D01*
X088056Y039338D01*
X087981Y039263D01*
X087681Y039263D01*
X087606Y039338D01*
X087606Y039488D01*
X087681Y039563D01*
X088306Y037819D02*
X088306Y037519D01*
X088306Y037669D02*
X087856Y037669D01*
X088006Y037519D01*
X087931Y037359D02*
X088081Y037359D01*
X088156Y037284D01*
X088156Y037059D01*
X088306Y037059D02*
X087856Y037059D01*
X087856Y037284D01*
X087931Y037359D01*
X087931Y036899D02*
X088006Y036899D01*
X088081Y036824D01*
X088081Y036673D01*
X088006Y036598D01*
X087931Y036598D01*
X087856Y036673D01*
X087856Y036824D01*
X087931Y036899D01*
X088081Y036824D02*
X088156Y036899D01*
X088231Y036899D01*
X088306Y036824D01*
X088306Y036673D01*
X088231Y036598D01*
X088156Y036598D01*
X088081Y036673D01*
X088231Y036438D02*
X088306Y036363D01*
X088306Y036213D01*
X088231Y036138D01*
X087931Y036138D01*
X087856Y036213D01*
X087856Y036363D01*
X087931Y036438D01*
X087931Y035609D02*
X088081Y035609D01*
X088156Y035534D01*
X088156Y035309D01*
X088306Y035309D02*
X087856Y035309D01*
X087856Y035534D01*
X087931Y035609D01*
X087931Y035149D02*
X088006Y035149D01*
X088081Y035074D01*
X088081Y034923D01*
X088006Y034848D01*
X087931Y034848D01*
X087856Y034923D01*
X087856Y035074D01*
X087931Y035149D01*
X088081Y035074D02*
X088156Y035149D01*
X088231Y035149D01*
X088306Y035074D01*
X088306Y034923D01*
X088231Y034848D01*
X088156Y034848D01*
X088081Y034923D01*
X088231Y034688D02*
X088306Y034613D01*
X088306Y034463D01*
X088231Y034388D01*
X087931Y034388D01*
X087856Y034463D01*
X087856Y034613D01*
X087931Y034688D01*
X087706Y034653D02*
X087706Y034353D01*
X087706Y034503D02*
X087256Y034503D01*
X087406Y034353D01*
X087481Y034192D02*
X087556Y034117D01*
X087556Y033892D01*
X087706Y033892D02*
X087256Y033892D01*
X087256Y034117D01*
X087331Y034192D01*
X087481Y034192D01*
X087256Y033732D02*
X087256Y033582D01*
X087256Y033657D02*
X087631Y033657D01*
X087706Y033582D01*
X087706Y033507D01*
X087631Y033432D01*
X090271Y032988D02*
X090421Y033138D01*
X090421Y032688D01*
X090271Y032688D02*
X090571Y032688D01*
X089956Y031703D02*
X089806Y031703D01*
X089731Y031628D01*
X089731Y031403D01*
X090181Y031403D01*
X090031Y031403D02*
X090031Y031628D01*
X089956Y031703D01*
X089956Y031242D02*
X089956Y031017D01*
X089881Y030942D01*
X089806Y030942D01*
X089731Y031017D01*
X089731Y031167D01*
X089806Y031242D01*
X090106Y031242D01*
X090181Y031167D01*
X090181Y031017D01*
X090106Y030942D01*
X090106Y030782D02*
X090181Y030707D01*
X090181Y030557D01*
X090106Y030482D01*
X089806Y030482D01*
X089731Y030557D01*
X089731Y030707D01*
X089806Y030782D01*
X088056Y029528D02*
X087606Y029528D01*
X087606Y029753D01*
X087681Y029828D01*
X087831Y029828D01*
X087906Y029753D01*
X087906Y029528D01*
X087906Y029367D02*
X087831Y029292D01*
X087831Y029067D01*
X087981Y029067D01*
X088056Y029142D01*
X088056Y029292D01*
X087981Y029367D01*
X087906Y029367D01*
X087681Y029217D02*
X087831Y029067D01*
X087681Y029217D02*
X087606Y029367D01*
X087681Y028907D02*
X087606Y028832D01*
X087606Y028682D01*
X087681Y028607D01*
X087981Y028607D01*
X088056Y028682D01*
X088056Y028832D01*
X087981Y028907D01*
X070781Y043888D02*
X069131Y043888D01*
X069192Y043913D02*
X068966Y043913D01*
X068891Y043988D01*
X068891Y044063D01*
X068966Y044138D01*
X069117Y044138D01*
X069192Y044063D01*
X069192Y043763D01*
X069117Y043688D01*
X068966Y043688D01*
X068891Y043763D01*
X068731Y043763D02*
X068656Y043688D01*
X068506Y043688D01*
X068431Y043763D01*
X068431Y044063D01*
X068506Y044138D01*
X068656Y044138D01*
X068731Y044063D01*
X068907Y044488D02*
X069403Y044488D01*
X069509Y044488D01*
X070403Y044488D01*
X070509Y044488D01*
X071005Y044488D01*
X070910Y044100D02*
X070883Y044044D01*
X070852Y043990D01*
X070818Y043938D01*
X070781Y043888D01*
X071005Y044488D02*
X071006Y044552D01*
X071003Y044616D01*
X070996Y044680D01*
X070986Y044743D01*
X070971Y044805D01*
X070953Y044866D01*
X070931Y044927D01*
X070906Y044985D01*
X071581Y045388D02*
X071581Y045588D01*
X070202Y045763D02*
X069902Y045763D01*
X070052Y045763D02*
X070052Y046213D01*
X069902Y046063D01*
X069742Y046213D02*
X069441Y046213D01*
X069591Y046213D02*
X069591Y045763D01*
X069281Y045913D02*
X069281Y046213D01*
X069281Y045913D02*
X069131Y045763D01*
X068981Y045913D01*
X068981Y046213D01*
X069006Y044091D02*
X069033Y044037D01*
X069063Y043986D01*
X069096Y043936D01*
X069131Y043888D01*
X068907Y044488D02*
X068906Y044552D01*
X068909Y044616D01*
X068916Y044680D01*
X068926Y044743D01*
X068941Y044805D01*
X068959Y044866D01*
X068981Y044927D01*
X069006Y044985D01*
X068907Y044488D02*
X068912Y044429D01*
X068919Y044371D01*
X068930Y044313D01*
X068945Y044256D01*
X068962Y044200D01*
X068982Y044145D01*
X069006Y044091D01*
X069006Y044985D02*
X069035Y045042D01*
X069068Y045098D01*
X069103Y045151D01*
X069143Y045202D01*
X069185Y045250D01*
X069230Y045296D01*
X069277Y045339D01*
X069327Y045379D01*
X069380Y045416D01*
X069435Y045449D01*
X069491Y045480D01*
X069550Y045506D01*
X069610Y045529D01*
X069671Y045549D01*
X069733Y045564D01*
X069796Y045576D01*
X069860Y045584D01*
X069924Y045588D01*
X069988Y045588D01*
X070052Y045584D01*
X070116Y045576D01*
X070179Y045564D01*
X070241Y045549D01*
X070302Y045529D01*
X070362Y045506D01*
X070421Y045480D01*
X070477Y045449D01*
X070532Y045416D01*
X070585Y045379D01*
X070635Y045339D01*
X070682Y045296D01*
X070727Y045250D01*
X070769Y045202D01*
X070809Y045151D01*
X070844Y045098D01*
X070877Y045042D01*
X070906Y044985D01*
X071005Y044488D02*
X071000Y044429D01*
X070993Y044371D01*
X070982Y044313D01*
X070967Y044256D01*
X070950Y044200D01*
X070930Y044145D01*
X070906Y044091D01*
D14*
X068106Y043163D02*
X067706Y043163D01*
X066456Y043163D02*
X066458Y043226D01*
X066464Y043288D01*
X066474Y043350D01*
X066487Y043412D01*
X066505Y043472D01*
X066526Y043531D01*
X066551Y043589D01*
X066580Y043645D01*
X066612Y043699D01*
X066647Y043751D01*
X066685Y043800D01*
X066727Y043848D01*
X066771Y043892D01*
X066819Y043934D01*
X066868Y043972D01*
X066920Y044007D01*
X066974Y044039D01*
X067030Y044068D01*
X067088Y044093D01*
X067147Y044114D01*
X067207Y044132D01*
X067269Y044145D01*
X067331Y044155D01*
X067393Y044161D01*
X067456Y044163D01*
X067519Y044161D01*
X067581Y044155D01*
X067643Y044145D01*
X067705Y044132D01*
X067765Y044114D01*
X067824Y044093D01*
X067882Y044068D01*
X067938Y044039D01*
X067992Y044007D01*
X068044Y043972D01*
X068093Y043934D01*
X068141Y043892D01*
X068185Y043848D01*
X068227Y043800D01*
X068265Y043751D01*
X068300Y043699D01*
X068332Y043645D01*
X068361Y043589D01*
X068386Y043531D01*
X068407Y043472D01*
X068425Y043412D01*
X068438Y043350D01*
X068448Y043288D01*
X068454Y043226D01*
X068456Y043163D01*
X068454Y043100D01*
X068448Y043038D01*
X068438Y042976D01*
X068425Y042914D01*
X068407Y042854D01*
X068386Y042795D01*
X068361Y042737D01*
X068332Y042681D01*
X068300Y042627D01*
X068265Y042575D01*
X068227Y042526D01*
X068185Y042478D01*
X068141Y042434D01*
X068093Y042392D01*
X068044Y042354D01*
X067992Y042319D01*
X067938Y042287D01*
X067882Y042258D01*
X067824Y042233D01*
X067765Y042212D01*
X067705Y042194D01*
X067643Y042181D01*
X067581Y042171D01*
X067519Y042165D01*
X067456Y042163D01*
X067393Y042165D01*
X067331Y042171D01*
X067269Y042181D01*
X067207Y042194D01*
X067147Y042212D01*
X067088Y042233D01*
X067030Y042258D01*
X066974Y042287D01*
X066920Y042319D01*
X066868Y042354D01*
X066819Y042392D01*
X066771Y042434D01*
X066727Y042478D01*
X066685Y042526D01*
X066647Y042575D01*
X066612Y042627D01*
X066580Y042681D01*
X066551Y042737D01*
X066526Y042795D01*
X066505Y042854D01*
X066487Y042914D01*
X066474Y042976D01*
X066464Y043038D01*
X066458Y043100D01*
X066456Y043163D01*
X066806Y043163D02*
X067156Y043163D01*
X067156Y043663D01*
X067356Y043663D01*
X067356Y042663D01*
X067156Y042663D01*
X067156Y043163D01*
X066906Y043563D02*
X066906Y043663D01*
X066906Y043763D01*
X066906Y043663D02*
X067006Y043663D01*
X066906Y043663D02*
X066806Y043663D01*
X065706Y039788D02*
X064206Y039788D01*
X063956Y039538D01*
X063956Y039038D01*
X064206Y038788D01*
X063956Y038538D01*
X063956Y038038D01*
X064206Y037788D01*
X063956Y037538D01*
X063956Y037038D01*
X064206Y036788D01*
X065706Y036788D01*
X065956Y037038D01*
X065956Y037538D01*
X065706Y037788D01*
X065956Y038038D01*
X065956Y038538D01*
X065706Y038788D01*
X065956Y039038D01*
X065956Y039538D01*
X065706Y039788D01*
X061456Y037788D02*
X061456Y037288D01*
X061206Y037038D01*
X061456Y036788D01*
X061456Y036288D01*
X061206Y036038D01*
X061456Y035788D01*
X061456Y035288D01*
X061206Y035038D01*
X061456Y034788D01*
X061456Y034288D01*
X061206Y034038D01*
X061456Y033788D01*
X061456Y033288D01*
X061206Y033038D01*
X059706Y033038D01*
X059456Y033288D01*
X059456Y033788D01*
X059706Y034038D01*
X059456Y034288D01*
X059456Y034788D01*
X059706Y035038D01*
X059456Y035288D01*
X059456Y035788D01*
X059706Y036038D01*
X059456Y036288D01*
X059456Y036788D01*
X059706Y037038D01*
X059456Y037288D01*
X059456Y037788D01*
X059706Y038038D01*
X061206Y038038D01*
X061456Y037788D01*
X060306Y041413D02*
X059606Y041413D01*
X059589Y041415D01*
X059572Y041419D01*
X059556Y041426D01*
X059542Y041436D01*
X059529Y041449D01*
X059519Y041463D01*
X059512Y041479D01*
X059508Y041496D01*
X059506Y041513D01*
X059506Y041663D01*
X059556Y041713D01*
X059556Y043613D01*
X059506Y043663D01*
X059506Y043813D01*
X059508Y043830D01*
X059512Y043847D01*
X059519Y043863D01*
X059529Y043877D01*
X059542Y043890D01*
X059556Y043900D01*
X059572Y043907D01*
X059589Y043911D01*
X059606Y043913D01*
X060306Y043913D01*
X060323Y043911D01*
X060340Y043907D01*
X060356Y043900D01*
X060370Y043890D01*
X060383Y043877D01*
X060393Y043863D01*
X060400Y043847D01*
X060404Y043830D01*
X060406Y043813D01*
X060406Y043663D01*
X060356Y043613D01*
X060356Y041713D01*
X060406Y041663D01*
X060406Y041513D01*
X060404Y041496D01*
X060400Y041479D01*
X060393Y041463D01*
X060383Y041449D01*
X060370Y041436D01*
X060356Y041426D01*
X060340Y041419D01*
X060323Y041415D01*
X060306Y041413D01*
X052202Y045943D02*
X051775Y045943D01*
X052202Y046370D01*
X052202Y046477D01*
X052095Y046584D01*
X051882Y046584D01*
X051775Y046477D01*
X051558Y046477D02*
X051451Y046584D01*
X051131Y046584D01*
X051131Y045943D01*
X051451Y045943D01*
X051558Y046050D01*
X051558Y046477D01*
X050913Y046477D02*
X050806Y046584D01*
X050486Y046584D01*
X050486Y045943D01*
X050806Y045943D01*
X050913Y046050D01*
X050913Y046477D01*
X042431Y048363D02*
X042431Y034463D01*
X037231Y034463D01*
X037231Y048363D01*
X039331Y048363D01*
X039333Y048319D01*
X039339Y048276D01*
X039348Y048234D01*
X039361Y048192D01*
X039378Y048152D01*
X039398Y048113D01*
X039421Y048076D01*
X039448Y048042D01*
X039477Y048009D01*
X039510Y047980D01*
X039544Y047953D01*
X039581Y047930D01*
X039620Y047910D01*
X039660Y047893D01*
X039702Y047880D01*
X039744Y047871D01*
X039787Y047865D01*
X039831Y047863D01*
X039875Y047865D01*
X039918Y047871D01*
X039960Y047880D01*
X040002Y047893D01*
X040042Y047910D01*
X040081Y047930D01*
X040118Y047953D01*
X040152Y047980D01*
X040185Y048009D01*
X040214Y048042D01*
X040241Y048076D01*
X040264Y048113D01*
X040284Y048152D01*
X040301Y048192D01*
X040314Y048234D01*
X040323Y048276D01*
X040329Y048319D01*
X040331Y048363D01*
X042431Y048363D01*
X034727Y049409D02*
X033977Y049409D01*
X033975Y049370D01*
X033969Y049331D01*
X033960Y049293D01*
X033947Y049256D01*
X033930Y049220D01*
X033910Y049187D01*
X033886Y049155D01*
X033860Y049126D01*
X033831Y049100D01*
X033799Y049076D01*
X033766Y049056D01*
X033730Y049039D01*
X033693Y049026D01*
X033655Y049017D01*
X033616Y049011D01*
X033577Y049009D01*
X033538Y049011D01*
X033499Y049017D01*
X033461Y049026D01*
X033424Y049039D01*
X033388Y049056D01*
X033355Y049076D01*
X033323Y049100D01*
X033294Y049126D01*
X033268Y049155D01*
X033244Y049187D01*
X033224Y049220D01*
X033207Y049256D01*
X033194Y049293D01*
X033185Y049331D01*
X033179Y049370D01*
X033177Y049409D01*
X032427Y049409D01*
X032427Y039409D01*
X034727Y039409D01*
X034727Y049409D01*
X029028Y049408D02*
X028278Y049408D01*
X028276Y049369D01*
X028270Y049330D01*
X028261Y049292D01*
X028248Y049255D01*
X028231Y049219D01*
X028211Y049186D01*
X028187Y049154D01*
X028161Y049125D01*
X028132Y049099D01*
X028100Y049075D01*
X028067Y049055D01*
X028031Y049038D01*
X027994Y049025D01*
X027956Y049016D01*
X027917Y049010D01*
X027878Y049008D01*
X027839Y049010D01*
X027800Y049016D01*
X027762Y049025D01*
X027725Y049038D01*
X027689Y049055D01*
X027656Y049075D01*
X027624Y049099D01*
X027595Y049125D01*
X027569Y049154D01*
X027545Y049186D01*
X027525Y049219D01*
X027508Y049255D01*
X027495Y049292D01*
X027486Y049330D01*
X027480Y049369D01*
X027478Y049408D01*
X026728Y049408D01*
X026728Y039408D01*
X029028Y039408D01*
X029028Y049408D01*
X022856Y049413D02*
X020606Y049413D01*
X020604Y049374D01*
X020598Y049335D01*
X020589Y049297D01*
X020576Y049260D01*
X020559Y049224D01*
X020539Y049191D01*
X020515Y049159D01*
X020489Y049130D01*
X020460Y049104D01*
X020428Y049080D01*
X020395Y049060D01*
X020359Y049043D01*
X020322Y049030D01*
X020284Y049021D01*
X020245Y049015D01*
X020206Y049013D01*
X020167Y049015D01*
X020128Y049021D01*
X020090Y049030D01*
X020053Y049043D01*
X020017Y049060D01*
X019984Y049080D01*
X019952Y049104D01*
X019923Y049130D01*
X019897Y049159D01*
X019873Y049191D01*
X019853Y049224D01*
X019836Y049260D01*
X019823Y049297D01*
X019814Y049335D01*
X019808Y049374D01*
X019806Y049413D01*
X017556Y049413D01*
X017556Y033413D01*
X022856Y033413D01*
X022856Y049413D01*
X025460Y030752D02*
X015460Y030752D01*
X015460Y030002D01*
X015499Y030000D01*
X015538Y029994D01*
X015576Y029985D01*
X015613Y029972D01*
X015649Y029955D01*
X015682Y029935D01*
X015714Y029911D01*
X015743Y029885D01*
X015769Y029856D01*
X015793Y029824D01*
X015813Y029791D01*
X015830Y029755D01*
X015843Y029718D01*
X015852Y029680D01*
X015858Y029641D01*
X015860Y029602D01*
X015858Y029563D01*
X015852Y029524D01*
X015843Y029486D01*
X015830Y029449D01*
X015813Y029413D01*
X015793Y029380D01*
X015769Y029348D01*
X015743Y029319D01*
X015714Y029293D01*
X015682Y029269D01*
X015649Y029249D01*
X015613Y029232D01*
X015576Y029219D01*
X015538Y029210D01*
X015499Y029204D01*
X015460Y029202D01*
X015460Y028452D01*
X025460Y028452D01*
X025460Y030752D01*
X027431Y027288D02*
X032731Y027288D01*
X032731Y007288D01*
X030531Y007288D01*
X030529Y007327D01*
X030523Y007366D01*
X030514Y007404D01*
X030501Y007441D01*
X030484Y007477D01*
X030464Y007510D01*
X030440Y007542D01*
X030414Y007571D01*
X030385Y007597D01*
X030353Y007621D01*
X030320Y007641D01*
X030284Y007658D01*
X030247Y007671D01*
X030209Y007680D01*
X030170Y007686D01*
X030131Y007688D01*
X030092Y007686D01*
X030053Y007680D01*
X030015Y007671D01*
X029978Y007658D01*
X029942Y007641D01*
X029909Y007621D01*
X029877Y007597D01*
X029848Y007571D01*
X029822Y007542D01*
X029798Y007510D01*
X029778Y007477D01*
X029761Y007441D01*
X029748Y007404D01*
X029739Y007366D01*
X029733Y007327D01*
X029731Y007288D01*
X027431Y007288D01*
X027431Y027288D01*
X022856Y023288D02*
X017556Y023288D01*
X017556Y007288D01*
X019806Y007288D01*
X019922Y007109D02*
X020242Y007109D01*
X020349Y007002D01*
X020349Y006575D01*
X020242Y006468D01*
X019922Y006468D01*
X019922Y007109D01*
X019704Y007002D02*
X019598Y007109D01*
X019277Y007109D01*
X019277Y006468D01*
X019598Y006468D01*
X019704Y006575D01*
X019704Y007002D01*
X019806Y007288D02*
X019808Y007327D01*
X019814Y007366D01*
X019823Y007404D01*
X019836Y007441D01*
X019853Y007477D01*
X019873Y007510D01*
X019897Y007542D01*
X019923Y007571D01*
X019952Y007597D01*
X019984Y007621D01*
X020017Y007641D01*
X020053Y007658D01*
X020090Y007671D01*
X020128Y007680D01*
X020167Y007686D01*
X020206Y007688D01*
X020245Y007686D01*
X020284Y007680D01*
X020322Y007671D01*
X020359Y007658D01*
X020395Y007641D01*
X020428Y007621D01*
X020460Y007597D01*
X020489Y007571D01*
X020515Y007542D01*
X020539Y007510D01*
X020559Y007477D01*
X020576Y007441D01*
X020589Y007404D01*
X020598Y007366D01*
X020604Y007327D01*
X020606Y007288D01*
X022856Y007288D01*
X022856Y023288D01*
X030443Y021938D02*
X030443Y021788D01*
X030493Y021738D01*
X030493Y019838D01*
X030443Y019788D01*
X030443Y019638D01*
X030445Y019621D01*
X030449Y019604D01*
X030456Y019588D01*
X030466Y019574D01*
X030479Y019561D01*
X030493Y019551D01*
X030509Y019544D01*
X030526Y019540D01*
X030543Y019538D01*
X031243Y019538D01*
X031260Y019540D01*
X031277Y019544D01*
X031293Y019551D01*
X031307Y019561D01*
X031320Y019574D01*
X031330Y019588D01*
X031337Y019604D01*
X031341Y019621D01*
X031343Y019638D01*
X031343Y019788D01*
X031293Y019838D01*
X031293Y021738D01*
X031343Y021788D01*
X031343Y021938D01*
X031341Y021955D01*
X031337Y021972D01*
X031330Y021988D01*
X031320Y022002D01*
X031307Y022015D01*
X031293Y022025D01*
X031277Y022032D01*
X031260Y022036D01*
X031243Y022038D01*
X030543Y022038D01*
X030526Y022036D01*
X030509Y022032D01*
X030493Y022025D01*
X030479Y022015D01*
X030466Y022002D01*
X030456Y021988D01*
X030449Y021972D01*
X030445Y021955D01*
X030443Y021938D01*
X037856Y027688D02*
X037856Y006888D01*
X043056Y006888D01*
X043056Y027688D01*
X040956Y027688D01*
X040954Y027644D01*
X040948Y027601D01*
X040939Y027559D01*
X040926Y027517D01*
X040909Y027477D01*
X040889Y027438D01*
X040866Y027401D01*
X040839Y027367D01*
X040810Y027334D01*
X040777Y027305D01*
X040743Y027278D01*
X040706Y027255D01*
X040667Y027235D01*
X040627Y027218D01*
X040585Y027205D01*
X040543Y027196D01*
X040500Y027190D01*
X040456Y027188D01*
X040412Y027190D01*
X040369Y027196D01*
X040327Y027205D01*
X040285Y027218D01*
X040245Y027235D01*
X040206Y027255D01*
X040169Y027278D01*
X040135Y027305D01*
X040102Y027334D01*
X040073Y027367D01*
X040046Y027401D01*
X040023Y027438D01*
X040003Y027477D01*
X039986Y027517D01*
X039973Y027559D01*
X039964Y027601D01*
X039958Y027644D01*
X039956Y027688D01*
X037856Y027688D01*
X047581Y022438D02*
X047581Y020138D01*
X047620Y020136D01*
X047659Y020130D01*
X047697Y020121D01*
X047734Y020108D01*
X047770Y020091D01*
X047803Y020071D01*
X047835Y020047D01*
X047864Y020021D01*
X047890Y019992D01*
X047914Y019960D01*
X047934Y019927D01*
X047951Y019891D01*
X047964Y019854D01*
X047973Y019816D01*
X047979Y019777D01*
X047981Y019738D01*
X047979Y019699D01*
X047973Y019660D01*
X047964Y019622D01*
X047951Y019585D01*
X047934Y019549D01*
X047914Y019516D01*
X047890Y019484D01*
X047864Y019455D01*
X047835Y019429D01*
X047803Y019405D01*
X047770Y019385D01*
X047734Y019368D01*
X047697Y019355D01*
X047659Y019346D01*
X047620Y019340D01*
X047581Y019338D01*
X047581Y017138D01*
X067581Y017138D01*
X067581Y022438D01*
X047581Y022438D01*
X047244Y018934D02*
X046817Y018934D01*
X046710Y018827D01*
X046710Y018614D01*
X046817Y018507D01*
X046924Y018507D01*
X047031Y018614D01*
X047031Y018934D01*
X047244Y018934D02*
X047351Y018827D01*
X047351Y018614D01*
X047244Y018507D01*
X047244Y018290D02*
X046817Y018290D01*
X046710Y018183D01*
X046710Y017863D01*
X047351Y017863D01*
X047351Y018183D01*
X047244Y018290D01*
X047244Y017645D02*
X046817Y017645D01*
X046710Y017538D01*
X046710Y017218D01*
X047351Y017218D01*
X047351Y017538D01*
X047244Y017645D01*
X049431Y013163D02*
X049181Y012913D01*
X049181Y011913D01*
X049181Y010413D01*
X047831Y010413D01*
X044081Y010413D01*
X044081Y009213D01*
X047831Y009213D01*
X047831Y006063D01*
X066331Y006063D01*
X066331Y009213D01*
X066331Y010413D01*
X064981Y010413D01*
X064981Y011913D01*
X064981Y012913D01*
X064731Y013163D01*
X064431Y013163D01*
X064181Y012913D01*
X064181Y011913D01*
X064181Y011463D01*
X063981Y011263D01*
X063981Y011013D01*
X063681Y011013D01*
X063681Y011263D01*
X063481Y011463D01*
X063481Y011913D01*
X063481Y012913D01*
X063231Y013163D01*
X062931Y013163D01*
X062681Y012913D01*
X062681Y011913D01*
X062681Y011463D01*
X062481Y011263D01*
X062481Y011013D01*
X062181Y011013D01*
X062181Y011263D01*
X061981Y011463D01*
X061981Y011913D01*
X061981Y012913D01*
X061731Y013163D01*
X061431Y013163D01*
X061181Y012913D01*
X061181Y011913D01*
X061181Y011463D01*
X060981Y011263D01*
X060981Y011013D01*
X060681Y011013D01*
X060681Y011263D01*
X060481Y011463D01*
X060481Y011913D01*
X060481Y012913D01*
X060231Y013163D01*
X059931Y013163D01*
X059681Y012913D01*
X059681Y011913D01*
X059681Y011463D01*
X059481Y011263D01*
X059481Y011013D01*
X059181Y011013D01*
X059181Y011263D01*
X058981Y011463D01*
X058981Y011913D01*
X058981Y012913D01*
X058731Y013163D01*
X058431Y013163D01*
X058181Y012913D01*
X058181Y011913D01*
X058181Y011463D01*
X057981Y011263D01*
X057981Y011013D01*
X057681Y011013D01*
X057681Y011263D01*
X057481Y011463D01*
X057481Y011913D01*
X057481Y012913D01*
X057231Y013163D01*
X056931Y013163D01*
X056681Y012913D01*
X056681Y011913D01*
X056681Y011463D01*
X056481Y011263D01*
X056481Y011013D01*
X056181Y011013D01*
X056181Y011263D01*
X055981Y011463D01*
X055981Y011913D01*
X055981Y012913D01*
X055731Y013163D01*
X055431Y013163D01*
X055181Y012913D01*
X055181Y011913D01*
X055181Y011463D01*
X054981Y011263D01*
X054981Y011013D01*
X054681Y011013D01*
X054681Y011263D01*
X054481Y011463D01*
X054481Y011913D01*
X054481Y012913D01*
X054231Y013163D01*
X053931Y013163D01*
X053681Y012913D01*
X053681Y011913D01*
X053681Y011463D01*
X053481Y011263D01*
X053481Y011013D01*
X053181Y011013D01*
X053181Y011263D01*
X052981Y011463D01*
X052981Y011913D01*
X052981Y012913D01*
X052731Y013163D01*
X052431Y013163D01*
X052181Y012913D01*
X052181Y011913D01*
X052181Y011463D01*
X051981Y011263D01*
X051981Y011013D01*
X051681Y011013D01*
X051681Y011263D01*
X051481Y011463D01*
X051481Y011913D01*
X051481Y012913D01*
X051231Y013163D01*
X050931Y013163D01*
X050681Y012913D01*
X050681Y011913D01*
X050681Y011463D01*
X050481Y011263D01*
X050481Y011013D01*
X050181Y011013D01*
X050181Y011263D01*
X049981Y011463D01*
X049981Y011913D01*
X049981Y012913D01*
X049731Y013163D01*
X049431Y013163D01*
X045581Y010813D02*
X045581Y008813D01*
X047831Y009213D02*
X047831Y010413D01*
X049181Y010413D02*
X049731Y010413D01*
X050931Y010413D01*
X051231Y010413D01*
X052431Y010413D01*
X052731Y010413D01*
X053931Y010413D01*
X054231Y010413D01*
X055431Y010413D01*
X055731Y010413D01*
X056931Y010413D01*
X057231Y010413D01*
X058431Y010413D01*
X058731Y010413D01*
X059931Y010413D01*
X060231Y010413D01*
X061431Y010413D01*
X061731Y010413D01*
X062931Y010413D01*
X063231Y010413D01*
X064431Y010413D01*
X064981Y010413D01*
X066331Y010413D02*
X070081Y010413D01*
X070081Y009213D01*
X066331Y009213D01*
X068581Y008813D02*
X068581Y010813D01*
X068181Y024888D02*
X065481Y024888D01*
X065422Y024890D01*
X065364Y024896D01*
X065305Y024905D01*
X065248Y024919D01*
X065192Y024936D01*
X065137Y024957D01*
X065083Y024981D01*
X065031Y025009D01*
X064981Y025040D01*
X064933Y025074D01*
X064888Y025111D01*
X064845Y025152D01*
X064804Y025195D01*
X064767Y025240D01*
X064733Y025288D01*
X064702Y025338D01*
X064674Y025390D01*
X064650Y025444D01*
X064629Y025499D01*
X064612Y025555D01*
X064598Y025612D01*
X064589Y025671D01*
X064583Y025729D01*
X064581Y025788D01*
X064583Y025847D01*
X064589Y025905D01*
X064598Y025964D01*
X064612Y026021D01*
X064629Y026077D01*
X064650Y026132D01*
X064674Y026186D01*
X064702Y026238D01*
X064733Y026288D01*
X064767Y026336D01*
X064804Y026381D01*
X064845Y026424D01*
X064888Y026465D01*
X064933Y026502D01*
X064981Y026536D01*
X065031Y026567D01*
X065083Y026595D01*
X065137Y026619D01*
X065192Y026640D01*
X065248Y026657D01*
X065305Y026671D01*
X065364Y026680D01*
X065422Y026686D01*
X065481Y026688D01*
X068181Y026688D01*
X068240Y026686D01*
X068298Y026680D01*
X068357Y026671D01*
X068414Y026657D01*
X068470Y026640D01*
X068525Y026619D01*
X068579Y026595D01*
X068631Y026567D01*
X068681Y026536D01*
X068729Y026502D01*
X068774Y026465D01*
X068817Y026424D01*
X068858Y026381D01*
X068895Y026336D01*
X068929Y026288D01*
X068960Y026238D01*
X068988Y026186D01*
X069012Y026132D01*
X069033Y026077D01*
X069050Y026021D01*
X069064Y025964D01*
X069073Y025905D01*
X069079Y025847D01*
X069081Y025788D01*
X069079Y025729D01*
X069073Y025671D01*
X069064Y025612D01*
X069050Y025555D01*
X069033Y025499D01*
X069012Y025444D01*
X068988Y025390D01*
X068960Y025338D01*
X068929Y025288D01*
X068895Y025240D01*
X068858Y025195D01*
X068817Y025152D01*
X068774Y025111D01*
X068729Y025074D01*
X068681Y025040D01*
X068631Y025009D01*
X068579Y024981D01*
X068525Y024957D01*
X068470Y024936D01*
X068414Y024919D01*
X068357Y024905D01*
X068298Y024896D01*
X068240Y024890D01*
X068181Y024888D01*
X069706Y027763D02*
X069706Y028513D01*
X069667Y028515D01*
X069628Y028521D01*
X069590Y028530D01*
X069553Y028543D01*
X069517Y028560D01*
X069484Y028580D01*
X069452Y028604D01*
X069423Y028630D01*
X069397Y028659D01*
X069373Y028691D01*
X069353Y028724D01*
X069336Y028760D01*
X069323Y028797D01*
X069314Y028835D01*
X069308Y028874D01*
X069306Y028913D01*
X069308Y028952D01*
X069314Y028991D01*
X069323Y029029D01*
X069336Y029066D01*
X069353Y029102D01*
X069373Y029135D01*
X069397Y029167D01*
X069423Y029196D01*
X069452Y029222D01*
X069484Y029246D01*
X069517Y029266D01*
X069553Y029283D01*
X069590Y029296D01*
X069628Y029305D01*
X069667Y029311D01*
X069706Y029313D01*
X069706Y030063D01*
X062706Y030063D01*
X062706Y027763D01*
X069706Y027763D01*
X069306Y030763D02*
X066606Y030763D01*
X066547Y030765D01*
X066489Y030771D01*
X066430Y030780D01*
X066373Y030794D01*
X066317Y030811D01*
X066262Y030832D01*
X066208Y030856D01*
X066156Y030884D01*
X066106Y030915D01*
X066058Y030949D01*
X066013Y030986D01*
X065970Y031027D01*
X065929Y031070D01*
X065892Y031115D01*
X065858Y031163D01*
X065827Y031213D01*
X065799Y031265D01*
X065775Y031319D01*
X065754Y031374D01*
X065737Y031430D01*
X065723Y031487D01*
X065714Y031546D01*
X065708Y031604D01*
X065706Y031663D01*
X065708Y031722D01*
X065714Y031780D01*
X065723Y031839D01*
X065737Y031896D01*
X065754Y031952D01*
X065775Y032007D01*
X065799Y032061D01*
X065827Y032113D01*
X065858Y032163D01*
X065892Y032211D01*
X065929Y032256D01*
X065970Y032299D01*
X066013Y032340D01*
X066058Y032377D01*
X066106Y032411D01*
X066156Y032442D01*
X066208Y032470D01*
X066262Y032494D01*
X066317Y032515D01*
X066373Y032532D01*
X066430Y032546D01*
X066489Y032555D01*
X066547Y032561D01*
X066606Y032563D01*
X069306Y032563D01*
X069365Y032561D01*
X069423Y032555D01*
X069482Y032546D01*
X069539Y032532D01*
X069595Y032515D01*
X069650Y032494D01*
X069704Y032470D01*
X069756Y032442D01*
X069806Y032411D01*
X069854Y032377D01*
X069899Y032340D01*
X069942Y032299D01*
X069983Y032256D01*
X070020Y032211D01*
X070054Y032163D01*
X070085Y032113D01*
X070113Y032061D01*
X070137Y032007D01*
X070158Y031952D01*
X070175Y031896D01*
X070189Y031839D01*
X070198Y031780D01*
X070204Y031722D01*
X070206Y031663D01*
X070204Y031604D01*
X070198Y031546D01*
X070189Y031487D01*
X070175Y031430D01*
X070158Y031374D01*
X070137Y031319D01*
X070113Y031265D01*
X070085Y031213D01*
X070054Y031163D01*
X070020Y031115D01*
X069983Y031070D01*
X069942Y031027D01*
X069899Y030986D01*
X069854Y030949D01*
X069806Y030915D01*
X069756Y030884D01*
X069704Y030856D01*
X069650Y030832D01*
X069595Y030811D01*
X069539Y030794D01*
X069482Y030780D01*
X069423Y030771D01*
X069365Y030765D01*
X069306Y030763D01*
X071456Y037377D02*
X071456Y037699D01*
X071956Y037699D02*
X071956Y037377D01*
X082731Y042463D02*
X082731Y030363D01*
X085931Y030363D01*
X085931Y042463D01*
X084581Y042463D01*
X084579Y042433D01*
X084574Y042403D01*
X084565Y042374D01*
X084552Y042347D01*
X084537Y042321D01*
X084518Y042297D01*
X084497Y042276D01*
X084473Y042257D01*
X084447Y042242D01*
X084420Y042229D01*
X084391Y042220D01*
X084361Y042215D01*
X084331Y042213D01*
X084301Y042215D01*
X084271Y042220D01*
X084242Y042229D01*
X084215Y042242D01*
X084189Y042257D01*
X084165Y042276D01*
X084144Y042297D01*
X084125Y042321D01*
X084110Y042347D01*
X084097Y042374D01*
X084088Y042403D01*
X084083Y042433D01*
X084081Y042463D01*
X082731Y042463D01*
X085081Y043288D02*
X085081Y043788D01*
X085331Y044038D01*
X085831Y044038D01*
X086081Y043788D01*
X086331Y044038D01*
X086831Y044038D01*
X087081Y043788D01*
X087331Y044038D01*
X087831Y044038D01*
X088081Y043788D01*
X088081Y043288D01*
X087831Y043038D01*
X087331Y043038D01*
X087081Y043288D01*
X086831Y043038D01*
X086331Y043038D01*
X086081Y043288D01*
X085831Y043038D01*
X085331Y043038D01*
X085081Y043288D01*
X088806Y040038D02*
X088906Y040038D01*
X088906Y040138D01*
X088906Y040038D02*
X089006Y040038D01*
X088906Y040038D02*
X088906Y039938D01*
X089156Y040038D02*
X089156Y039538D01*
X089156Y039038D01*
X089356Y039038D01*
X089356Y040038D01*
X089156Y040038D01*
X089156Y039538D02*
X088806Y039538D01*
X088456Y039538D02*
X088458Y039601D01*
X088464Y039663D01*
X088474Y039725D01*
X088487Y039787D01*
X088505Y039847D01*
X088526Y039906D01*
X088551Y039964D01*
X088580Y040020D01*
X088612Y040074D01*
X088647Y040126D01*
X088685Y040175D01*
X088727Y040223D01*
X088771Y040267D01*
X088819Y040309D01*
X088868Y040347D01*
X088920Y040382D01*
X088974Y040414D01*
X089030Y040443D01*
X089088Y040468D01*
X089147Y040489D01*
X089207Y040507D01*
X089269Y040520D01*
X089331Y040530D01*
X089393Y040536D01*
X089456Y040538D01*
X089519Y040536D01*
X089581Y040530D01*
X089643Y040520D01*
X089705Y040507D01*
X089765Y040489D01*
X089824Y040468D01*
X089882Y040443D01*
X089938Y040414D01*
X089992Y040382D01*
X090044Y040347D01*
X090093Y040309D01*
X090141Y040267D01*
X090185Y040223D01*
X090227Y040175D01*
X090265Y040126D01*
X090300Y040074D01*
X090332Y040020D01*
X090361Y039964D01*
X090386Y039906D01*
X090407Y039847D01*
X090425Y039787D01*
X090438Y039725D01*
X090448Y039663D01*
X090454Y039601D01*
X090456Y039538D01*
X090454Y039475D01*
X090448Y039413D01*
X090438Y039351D01*
X090425Y039289D01*
X090407Y039229D01*
X090386Y039170D01*
X090361Y039112D01*
X090332Y039056D01*
X090300Y039002D01*
X090265Y038950D01*
X090227Y038901D01*
X090185Y038853D01*
X090141Y038809D01*
X090093Y038767D01*
X090044Y038729D01*
X089992Y038694D01*
X089938Y038662D01*
X089882Y038633D01*
X089824Y038608D01*
X089765Y038587D01*
X089705Y038569D01*
X089643Y038556D01*
X089581Y038546D01*
X089519Y038540D01*
X089456Y038538D01*
X089393Y038540D01*
X089331Y038546D01*
X089269Y038556D01*
X089207Y038569D01*
X089147Y038587D01*
X089088Y038608D01*
X089030Y038633D01*
X088974Y038662D01*
X088920Y038694D01*
X088868Y038729D01*
X088819Y038767D01*
X088771Y038809D01*
X088727Y038853D01*
X088685Y038901D01*
X088647Y038950D01*
X088612Y039002D01*
X088580Y039056D01*
X088551Y039112D01*
X088526Y039170D01*
X088505Y039229D01*
X088487Y039289D01*
X088474Y039351D01*
X088464Y039413D01*
X088458Y039475D01*
X088456Y039538D01*
X089706Y039538D02*
X090106Y039538D01*
X089356Y037538D02*
X089156Y037538D01*
X089156Y037038D01*
X089156Y036538D01*
X089356Y036538D01*
X089356Y037538D01*
X089006Y037538D02*
X088906Y037538D01*
X088906Y037638D01*
X088906Y037538D02*
X088906Y037438D01*
X088906Y037538D02*
X088806Y037538D01*
X088806Y037038D02*
X089156Y037038D01*
X088456Y037038D02*
X088458Y037101D01*
X088464Y037163D01*
X088474Y037225D01*
X088487Y037287D01*
X088505Y037347D01*
X088526Y037406D01*
X088551Y037464D01*
X088580Y037520D01*
X088612Y037574D01*
X088647Y037626D01*
X088685Y037675D01*
X088727Y037723D01*
X088771Y037767D01*
X088819Y037809D01*
X088868Y037847D01*
X088920Y037882D01*
X088974Y037914D01*
X089030Y037943D01*
X089088Y037968D01*
X089147Y037989D01*
X089207Y038007D01*
X089269Y038020D01*
X089331Y038030D01*
X089393Y038036D01*
X089456Y038038D01*
X089519Y038036D01*
X089581Y038030D01*
X089643Y038020D01*
X089705Y038007D01*
X089765Y037989D01*
X089824Y037968D01*
X089882Y037943D01*
X089938Y037914D01*
X089992Y037882D01*
X090044Y037847D01*
X090093Y037809D01*
X090141Y037767D01*
X090185Y037723D01*
X090227Y037675D01*
X090265Y037626D01*
X090300Y037574D01*
X090332Y037520D01*
X090361Y037464D01*
X090386Y037406D01*
X090407Y037347D01*
X090425Y037287D01*
X090438Y037225D01*
X090448Y037163D01*
X090454Y037101D01*
X090456Y037038D01*
X090454Y036975D01*
X090448Y036913D01*
X090438Y036851D01*
X090425Y036789D01*
X090407Y036729D01*
X090386Y036670D01*
X090361Y036612D01*
X090332Y036556D01*
X090300Y036502D01*
X090265Y036450D01*
X090227Y036401D01*
X090185Y036353D01*
X090141Y036309D01*
X090093Y036267D01*
X090044Y036229D01*
X089992Y036194D01*
X089938Y036162D01*
X089882Y036133D01*
X089824Y036108D01*
X089765Y036087D01*
X089705Y036069D01*
X089643Y036056D01*
X089581Y036046D01*
X089519Y036040D01*
X089456Y036038D01*
X089393Y036040D01*
X089331Y036046D01*
X089269Y036056D01*
X089207Y036069D01*
X089147Y036087D01*
X089088Y036108D01*
X089030Y036133D01*
X088974Y036162D01*
X088920Y036194D01*
X088868Y036229D01*
X088819Y036267D01*
X088771Y036309D01*
X088727Y036353D01*
X088685Y036401D01*
X088647Y036450D01*
X088612Y036502D01*
X088580Y036556D01*
X088551Y036612D01*
X088526Y036670D01*
X088505Y036729D01*
X088487Y036789D01*
X088474Y036851D01*
X088464Y036913D01*
X088458Y036975D01*
X088456Y037038D01*
X089706Y037038D02*
X090106Y037038D01*
X089356Y035413D02*
X089156Y035413D01*
X089156Y034913D01*
X089156Y034413D01*
X089356Y034413D01*
X089356Y035413D01*
X089006Y035413D02*
X088906Y035413D01*
X088906Y035513D01*
X088906Y035413D02*
X088906Y035313D01*
X088906Y035413D02*
X088806Y035413D01*
X088806Y034913D02*
X089156Y034913D01*
X088456Y034913D02*
X088458Y034976D01*
X088464Y035038D01*
X088474Y035100D01*
X088487Y035162D01*
X088505Y035222D01*
X088526Y035281D01*
X088551Y035339D01*
X088580Y035395D01*
X088612Y035449D01*
X088647Y035501D01*
X088685Y035550D01*
X088727Y035598D01*
X088771Y035642D01*
X088819Y035684D01*
X088868Y035722D01*
X088920Y035757D01*
X088974Y035789D01*
X089030Y035818D01*
X089088Y035843D01*
X089147Y035864D01*
X089207Y035882D01*
X089269Y035895D01*
X089331Y035905D01*
X089393Y035911D01*
X089456Y035913D01*
X089519Y035911D01*
X089581Y035905D01*
X089643Y035895D01*
X089705Y035882D01*
X089765Y035864D01*
X089824Y035843D01*
X089882Y035818D01*
X089938Y035789D01*
X089992Y035757D01*
X090044Y035722D01*
X090093Y035684D01*
X090141Y035642D01*
X090185Y035598D01*
X090227Y035550D01*
X090265Y035501D01*
X090300Y035449D01*
X090332Y035395D01*
X090361Y035339D01*
X090386Y035281D01*
X090407Y035222D01*
X090425Y035162D01*
X090438Y035100D01*
X090448Y035038D01*
X090454Y034976D01*
X090456Y034913D01*
X090454Y034850D01*
X090448Y034788D01*
X090438Y034726D01*
X090425Y034664D01*
X090407Y034604D01*
X090386Y034545D01*
X090361Y034487D01*
X090332Y034431D01*
X090300Y034377D01*
X090265Y034325D01*
X090227Y034276D01*
X090185Y034228D01*
X090141Y034184D01*
X090093Y034142D01*
X090044Y034104D01*
X089992Y034069D01*
X089938Y034037D01*
X089882Y034008D01*
X089824Y033983D01*
X089765Y033962D01*
X089705Y033944D01*
X089643Y033931D01*
X089581Y033921D01*
X089519Y033915D01*
X089456Y033913D01*
X089393Y033915D01*
X089331Y033921D01*
X089269Y033931D01*
X089207Y033944D01*
X089147Y033962D01*
X089088Y033983D01*
X089030Y034008D01*
X088974Y034037D01*
X088920Y034069D01*
X088868Y034104D01*
X088819Y034142D01*
X088771Y034184D01*
X088727Y034228D01*
X088685Y034276D01*
X088647Y034325D01*
X088612Y034377D01*
X088580Y034431D01*
X088551Y034487D01*
X088526Y034545D01*
X088505Y034604D01*
X088487Y034664D01*
X088474Y034726D01*
X088464Y034788D01*
X088458Y034850D01*
X088456Y034913D01*
X089706Y034913D02*
X090106Y034913D01*
X089956Y033413D02*
X089456Y033413D01*
X089206Y033163D01*
X088956Y033413D01*
X088456Y033413D01*
X088206Y033163D01*
X087956Y033413D01*
X087456Y033413D01*
X087206Y033163D01*
X087206Y032663D01*
X087456Y032413D01*
X087956Y032413D01*
X088206Y032663D01*
X088456Y032413D01*
X088956Y032413D01*
X089206Y032663D01*
X089456Y032413D01*
X089956Y032413D01*
X090206Y032663D01*
X090206Y033163D01*
X089956Y033413D01*
X088456Y031688D02*
X088456Y031588D01*
X088556Y031588D01*
X088456Y031588D02*
X088456Y031488D01*
X088456Y031588D02*
X088356Y031588D01*
X088456Y031338D02*
X087956Y031338D01*
X087456Y031338D01*
X087456Y031138D01*
X088456Y031138D01*
X088456Y031338D01*
X087956Y031338D02*
X087956Y031688D01*
X086956Y031038D02*
X086958Y031101D01*
X086964Y031163D01*
X086974Y031225D01*
X086987Y031287D01*
X087005Y031347D01*
X087026Y031406D01*
X087051Y031464D01*
X087080Y031520D01*
X087112Y031574D01*
X087147Y031626D01*
X087185Y031675D01*
X087227Y031723D01*
X087271Y031767D01*
X087319Y031809D01*
X087368Y031847D01*
X087420Y031882D01*
X087474Y031914D01*
X087530Y031943D01*
X087588Y031968D01*
X087647Y031989D01*
X087707Y032007D01*
X087769Y032020D01*
X087831Y032030D01*
X087893Y032036D01*
X087956Y032038D01*
X088019Y032036D01*
X088081Y032030D01*
X088143Y032020D01*
X088205Y032007D01*
X088265Y031989D01*
X088324Y031968D01*
X088382Y031943D01*
X088438Y031914D01*
X088492Y031882D01*
X088544Y031847D01*
X088593Y031809D01*
X088641Y031767D01*
X088685Y031723D01*
X088727Y031675D01*
X088765Y031626D01*
X088800Y031574D01*
X088832Y031520D01*
X088861Y031464D01*
X088886Y031406D01*
X088907Y031347D01*
X088925Y031287D01*
X088938Y031225D01*
X088948Y031163D01*
X088954Y031101D01*
X088956Y031038D01*
X088954Y030975D01*
X088948Y030913D01*
X088938Y030851D01*
X088925Y030789D01*
X088907Y030729D01*
X088886Y030670D01*
X088861Y030612D01*
X088832Y030556D01*
X088800Y030502D01*
X088765Y030450D01*
X088727Y030401D01*
X088685Y030353D01*
X088641Y030309D01*
X088593Y030267D01*
X088544Y030229D01*
X088492Y030194D01*
X088438Y030162D01*
X088382Y030133D01*
X088324Y030108D01*
X088265Y030087D01*
X088205Y030069D01*
X088143Y030056D01*
X088081Y030046D01*
X088019Y030040D01*
X087956Y030038D01*
X087893Y030040D01*
X087831Y030046D01*
X087769Y030056D01*
X087707Y030069D01*
X087647Y030087D01*
X087588Y030108D01*
X087530Y030133D01*
X087474Y030162D01*
X087420Y030194D01*
X087368Y030229D01*
X087319Y030267D01*
X087271Y030309D01*
X087227Y030353D01*
X087185Y030401D01*
X087147Y030450D01*
X087112Y030502D01*
X087080Y030556D01*
X087051Y030612D01*
X087026Y030670D01*
X087005Y030729D01*
X086987Y030789D01*
X086974Y030851D01*
X086964Y030913D01*
X086958Y030975D01*
X086956Y031038D01*
X087956Y030788D02*
X087956Y030388D01*
X088806Y029913D02*
X088906Y029913D01*
X088906Y030013D01*
X088906Y029913D02*
X089006Y029913D01*
X088906Y029913D02*
X088906Y029813D01*
X089156Y029913D02*
X089156Y029413D01*
X089156Y028913D01*
X089356Y028913D01*
X089356Y029913D01*
X089156Y029913D01*
X089156Y029413D02*
X088806Y029413D01*
X088456Y029413D02*
X088458Y029476D01*
X088464Y029538D01*
X088474Y029600D01*
X088487Y029662D01*
X088505Y029722D01*
X088526Y029781D01*
X088551Y029839D01*
X088580Y029895D01*
X088612Y029949D01*
X088647Y030001D01*
X088685Y030050D01*
X088727Y030098D01*
X088771Y030142D01*
X088819Y030184D01*
X088868Y030222D01*
X088920Y030257D01*
X088974Y030289D01*
X089030Y030318D01*
X089088Y030343D01*
X089147Y030364D01*
X089207Y030382D01*
X089269Y030395D01*
X089331Y030405D01*
X089393Y030411D01*
X089456Y030413D01*
X089519Y030411D01*
X089581Y030405D01*
X089643Y030395D01*
X089705Y030382D01*
X089765Y030364D01*
X089824Y030343D01*
X089882Y030318D01*
X089938Y030289D01*
X089992Y030257D01*
X090044Y030222D01*
X090093Y030184D01*
X090141Y030142D01*
X090185Y030098D01*
X090227Y030050D01*
X090265Y030001D01*
X090300Y029949D01*
X090332Y029895D01*
X090361Y029839D01*
X090386Y029781D01*
X090407Y029722D01*
X090425Y029662D01*
X090438Y029600D01*
X090448Y029538D01*
X090454Y029476D01*
X090456Y029413D01*
X090454Y029350D01*
X090448Y029288D01*
X090438Y029226D01*
X090425Y029164D01*
X090407Y029104D01*
X090386Y029045D01*
X090361Y028987D01*
X090332Y028931D01*
X090300Y028877D01*
X090265Y028825D01*
X090227Y028776D01*
X090185Y028728D01*
X090141Y028684D01*
X090093Y028642D01*
X090044Y028604D01*
X089992Y028569D01*
X089938Y028537D01*
X089882Y028508D01*
X089824Y028483D01*
X089765Y028462D01*
X089705Y028444D01*
X089643Y028431D01*
X089581Y028421D01*
X089519Y028415D01*
X089456Y028413D01*
X089393Y028415D01*
X089331Y028421D01*
X089269Y028431D01*
X089207Y028444D01*
X089147Y028462D01*
X089088Y028483D01*
X089030Y028508D01*
X088974Y028537D01*
X088920Y028569D01*
X088868Y028604D01*
X088819Y028642D01*
X088771Y028684D01*
X088727Y028728D01*
X088685Y028776D01*
X088647Y028825D01*
X088612Y028877D01*
X088580Y028931D01*
X088551Y028987D01*
X088526Y029045D01*
X088505Y029104D01*
X088487Y029164D01*
X088474Y029226D01*
X088464Y029288D01*
X088458Y029350D01*
X088456Y029413D01*
X089706Y029413D02*
X090106Y029413D01*
X065651Y053538D02*
X065653Y053579D01*
X065659Y053620D01*
X065669Y053660D01*
X065682Y053699D01*
X065699Y053737D01*
X065720Y053773D01*
X065744Y053806D01*
X065771Y053837D01*
X065801Y053866D01*
X065833Y053892D01*
X065868Y053914D01*
X065905Y053933D01*
X065943Y053948D01*
X065983Y053960D01*
X066023Y053968D01*
X066064Y053972D01*
X066106Y053972D01*
X066147Y053968D01*
X066187Y053960D01*
X066227Y053948D01*
X066265Y053933D01*
X066302Y053914D01*
X066337Y053892D01*
X066369Y053866D01*
X066399Y053837D01*
X066426Y053806D01*
X066450Y053773D01*
X066471Y053737D01*
X066488Y053699D01*
X066501Y053660D01*
X066511Y053620D01*
X066517Y053579D01*
X066519Y053538D01*
X066517Y053497D01*
X066511Y053456D01*
X066501Y053416D01*
X066488Y053377D01*
X066471Y053339D01*
X066450Y053303D01*
X066426Y053270D01*
X066399Y053239D01*
X066369Y053210D01*
X066337Y053184D01*
X066302Y053162D01*
X066265Y053143D01*
X066227Y053128D01*
X066187Y053116D01*
X066147Y053108D01*
X066106Y053104D01*
X066064Y053104D01*
X066023Y053108D01*
X065983Y053116D01*
X065943Y053128D01*
X065905Y053143D01*
X065868Y053162D01*
X065833Y053184D01*
X065801Y053210D01*
X065771Y053239D01*
X065744Y053270D01*
X065720Y053303D01*
X065699Y053339D01*
X065682Y053377D01*
X065669Y053416D01*
X065659Y053456D01*
X065653Y053497D01*
X065651Y053538D01*
X065651Y055538D02*
X065653Y055579D01*
X065659Y055620D01*
X065669Y055660D01*
X065682Y055699D01*
X065699Y055737D01*
X065720Y055773D01*
X065744Y055806D01*
X065771Y055837D01*
X065801Y055866D01*
X065833Y055892D01*
X065868Y055914D01*
X065905Y055933D01*
X065943Y055948D01*
X065983Y055960D01*
X066023Y055968D01*
X066064Y055972D01*
X066106Y055972D01*
X066147Y055968D01*
X066187Y055960D01*
X066227Y055948D01*
X066265Y055933D01*
X066302Y055914D01*
X066337Y055892D01*
X066369Y055866D01*
X066399Y055837D01*
X066426Y055806D01*
X066450Y055773D01*
X066471Y055737D01*
X066488Y055699D01*
X066501Y055660D01*
X066511Y055620D01*
X066517Y055579D01*
X066519Y055538D01*
X066517Y055497D01*
X066511Y055456D01*
X066501Y055416D01*
X066488Y055377D01*
X066471Y055339D01*
X066450Y055303D01*
X066426Y055270D01*
X066399Y055239D01*
X066369Y055210D01*
X066337Y055184D01*
X066302Y055162D01*
X066265Y055143D01*
X066227Y055128D01*
X066187Y055116D01*
X066147Y055108D01*
X066106Y055104D01*
X066064Y055104D01*
X066023Y055108D01*
X065983Y055116D01*
X065943Y055128D01*
X065905Y055143D01*
X065868Y055162D01*
X065833Y055184D01*
X065801Y055210D01*
X065771Y055239D01*
X065744Y055270D01*
X065720Y055303D01*
X065699Y055339D01*
X065682Y055377D01*
X065669Y055416D01*
X065659Y055456D01*
X065653Y055497D01*
X065651Y055538D01*
X062026Y055538D02*
X062028Y055579D01*
X062034Y055620D01*
X062044Y055660D01*
X062057Y055699D01*
X062074Y055737D01*
X062095Y055773D01*
X062119Y055806D01*
X062146Y055837D01*
X062176Y055866D01*
X062208Y055892D01*
X062243Y055914D01*
X062280Y055933D01*
X062318Y055948D01*
X062358Y055960D01*
X062398Y055968D01*
X062439Y055972D01*
X062481Y055972D01*
X062522Y055968D01*
X062562Y055960D01*
X062602Y055948D01*
X062640Y055933D01*
X062677Y055914D01*
X062712Y055892D01*
X062744Y055866D01*
X062774Y055837D01*
X062801Y055806D01*
X062825Y055773D01*
X062846Y055737D01*
X062863Y055699D01*
X062876Y055660D01*
X062886Y055620D01*
X062892Y055579D01*
X062894Y055538D01*
X062892Y055497D01*
X062886Y055456D01*
X062876Y055416D01*
X062863Y055377D01*
X062846Y055339D01*
X062825Y055303D01*
X062801Y055270D01*
X062774Y055239D01*
X062744Y055210D01*
X062712Y055184D01*
X062677Y055162D01*
X062640Y055143D01*
X062602Y055128D01*
X062562Y055116D01*
X062522Y055108D01*
X062481Y055104D01*
X062439Y055104D01*
X062398Y055108D01*
X062358Y055116D01*
X062318Y055128D01*
X062280Y055143D01*
X062243Y055162D01*
X062208Y055184D01*
X062176Y055210D01*
X062146Y055239D01*
X062119Y055270D01*
X062095Y055303D01*
X062074Y055339D01*
X062057Y055377D01*
X062044Y055416D01*
X062034Y055456D01*
X062028Y055497D01*
X062026Y055538D01*
X062026Y053538D02*
X062028Y053579D01*
X062034Y053620D01*
X062044Y053660D01*
X062057Y053699D01*
X062074Y053737D01*
X062095Y053773D01*
X062119Y053806D01*
X062146Y053837D01*
X062176Y053866D01*
X062208Y053892D01*
X062243Y053914D01*
X062280Y053933D01*
X062318Y053948D01*
X062358Y053960D01*
X062398Y053968D01*
X062439Y053972D01*
X062481Y053972D01*
X062522Y053968D01*
X062562Y053960D01*
X062602Y053948D01*
X062640Y053933D01*
X062677Y053914D01*
X062712Y053892D01*
X062744Y053866D01*
X062774Y053837D01*
X062801Y053806D01*
X062825Y053773D01*
X062846Y053737D01*
X062863Y053699D01*
X062876Y053660D01*
X062886Y053620D01*
X062892Y053579D01*
X062894Y053538D01*
X062892Y053497D01*
X062886Y053456D01*
X062876Y053416D01*
X062863Y053377D01*
X062846Y053339D01*
X062825Y053303D01*
X062801Y053270D01*
X062774Y053239D01*
X062744Y053210D01*
X062712Y053184D01*
X062677Y053162D01*
X062640Y053143D01*
X062602Y053128D01*
X062562Y053116D01*
X062522Y053108D01*
X062481Y053104D01*
X062439Y053104D01*
X062398Y053108D01*
X062358Y053116D01*
X062318Y053128D01*
X062280Y053143D01*
X062243Y053162D01*
X062208Y053184D01*
X062176Y053210D01*
X062146Y053239D01*
X062119Y053270D01*
X062095Y053303D01*
X062074Y053339D01*
X062057Y053377D01*
X062044Y053416D01*
X062034Y053456D01*
X062028Y053497D01*
X062026Y053538D01*
X029389Y007034D02*
X029389Y006393D01*
X029602Y006393D02*
X029175Y006393D01*
X028958Y006500D02*
X028958Y006927D01*
X028851Y007034D01*
X028531Y007034D01*
X028531Y006393D01*
X028851Y006393D01*
X028958Y006500D01*
X029175Y006820D02*
X029389Y007034D01*
X028313Y006927D02*
X028313Y006500D01*
X028206Y006393D01*
X027886Y006393D01*
X027886Y007034D01*
X028206Y007034D01*
X028313Y006927D01*
X020993Y006895D02*
X020887Y006788D01*
X020673Y006788D01*
X020566Y006895D01*
X020566Y007002D01*
X020673Y007109D01*
X020887Y007109D01*
X020993Y007002D01*
X020993Y006895D01*
X020887Y006788D02*
X020993Y006682D01*
X020993Y006575D01*
X020887Y006468D01*
X020673Y006468D01*
X020566Y006575D01*
X020566Y006682D01*
X020673Y006788D01*
D15*
X039616Y027823D02*
X039931Y027823D01*
X040036Y027928D01*
X040036Y028348D01*
X039931Y028454D01*
X039616Y028454D01*
X039616Y027823D01*
X040261Y027823D02*
X040261Y028454D01*
X040576Y028454D01*
X040681Y028348D01*
X040681Y027928D01*
X040576Y027823D01*
X040261Y027823D01*
X040905Y027823D02*
X040905Y027928D01*
X041325Y028348D01*
X041325Y028454D01*
X040905Y028454D01*
X053371Y009079D02*
X053266Y008973D01*
X053266Y008868D01*
X053371Y008763D01*
X053581Y008763D01*
X053686Y008658D01*
X053686Y008553D01*
X053581Y008448D01*
X053371Y008448D01*
X053266Y008553D01*
X053371Y009079D02*
X053581Y009079D01*
X053686Y008973D01*
X053911Y008973D02*
X053911Y008553D01*
X054016Y008448D01*
X054226Y008448D01*
X054331Y008553D01*
X054555Y008448D02*
X054555Y008868D01*
X054765Y009079D01*
X054975Y008868D01*
X054975Y008448D01*
X055200Y008448D02*
X055200Y009079D01*
X055515Y009079D01*
X055620Y008973D01*
X055620Y008763D01*
X055515Y008658D01*
X055200Y008658D01*
X055410Y008658D02*
X055620Y008448D01*
X056054Y008448D02*
X056054Y009079D01*
X055844Y009079D02*
X056265Y009079D01*
X056489Y008763D02*
X056909Y008763D01*
X057133Y008763D02*
X057343Y008763D01*
X057133Y008448D02*
X057133Y009079D01*
X057554Y009079D01*
X059241Y008779D02*
X059661Y008148D01*
X059886Y008148D02*
X060306Y008568D01*
X060306Y008673D01*
X060201Y008779D01*
X059991Y008779D01*
X059886Y008673D01*
X059661Y008779D02*
X059241Y008148D01*
X059886Y008148D02*
X060306Y008148D01*
X054975Y008763D02*
X054555Y008763D01*
X054331Y008973D02*
X054226Y009079D01*
X054016Y009079D01*
X053911Y008973D01*
X082991Y042608D02*
X083306Y042608D01*
X083411Y042713D01*
X083411Y043133D01*
X083306Y043239D01*
X082991Y043239D01*
X082991Y042608D01*
X083636Y042608D02*
X083636Y043028D01*
X083846Y043239D01*
X084056Y043028D01*
X084056Y042608D01*
X084280Y042608D02*
X084700Y042608D01*
X084490Y042608D02*
X084490Y043239D01*
X084280Y043028D01*
X084056Y042923D02*
X083636Y042923D01*
X041825Y048678D02*
X041825Y048783D01*
X041720Y048888D01*
X041405Y048888D01*
X041405Y048678D01*
X041510Y048573D01*
X041720Y048573D01*
X041825Y048678D01*
X041615Y049098D02*
X041405Y048888D01*
X041615Y049098D02*
X041825Y049204D01*
X041181Y049098D02*
X041181Y048678D01*
X041076Y048573D01*
X040761Y048573D01*
X040761Y049204D01*
X041076Y049204D01*
X041181Y049098D01*
X040536Y049098D02*
X040536Y048678D01*
X040431Y048573D01*
X040116Y048573D01*
X040116Y049204D01*
X040431Y049204D01*
X040536Y049098D01*
D16*
X066606Y032363D02*
X069306Y032363D01*
X069357Y032361D01*
X069408Y032356D01*
X069458Y032346D01*
X069508Y032333D01*
X069556Y032317D01*
X069603Y032297D01*
X069649Y032273D01*
X069692Y032247D01*
X069734Y032217D01*
X069773Y032184D01*
X069810Y032149D01*
X069844Y032111D01*
X069875Y032070D01*
X069904Y032028D01*
X069929Y031983D01*
X069950Y031937D01*
X069969Y031889D01*
X069983Y031840D01*
X069994Y031790D01*
X070002Y031740D01*
X070006Y031689D01*
X070006Y031637D01*
X070002Y031586D01*
X069994Y031536D01*
X069983Y031486D01*
X069969Y031437D01*
X069950Y031389D01*
X069929Y031343D01*
X069904Y031298D01*
X069875Y031256D01*
X069844Y031215D01*
X069810Y031177D01*
X069773Y031142D01*
X069734Y031109D01*
X069692Y031079D01*
X069649Y031053D01*
X069603Y031029D01*
X069556Y031009D01*
X069508Y030993D01*
X069458Y030980D01*
X069408Y030970D01*
X069357Y030965D01*
X069306Y030963D01*
X066606Y030963D01*
X066555Y030965D01*
X066504Y030970D01*
X066454Y030980D01*
X066404Y030993D01*
X066356Y031009D01*
X066309Y031029D01*
X066263Y031053D01*
X066220Y031079D01*
X066178Y031109D01*
X066139Y031142D01*
X066102Y031177D01*
X066068Y031215D01*
X066037Y031256D01*
X066008Y031298D01*
X065983Y031343D01*
X065962Y031389D01*
X065943Y031437D01*
X065929Y031486D01*
X065918Y031536D01*
X065910Y031586D01*
X065906Y031637D01*
X065906Y031689D01*
X065910Y031740D01*
X065918Y031790D01*
X065929Y031840D01*
X065943Y031889D01*
X065962Y031937D01*
X065983Y031983D01*
X066008Y032028D01*
X066037Y032070D01*
X066068Y032111D01*
X066102Y032149D01*
X066139Y032184D01*
X066178Y032217D01*
X066220Y032247D01*
X066263Y032273D01*
X066309Y032297D01*
X066356Y032317D01*
X066404Y032333D01*
X066454Y032346D01*
X066504Y032356D01*
X066555Y032361D01*
X066606Y032363D01*
X065481Y026488D02*
X068181Y026488D01*
X068232Y026486D01*
X068283Y026481D01*
X068333Y026471D01*
X068383Y026458D01*
X068431Y026442D01*
X068478Y026422D01*
X068524Y026398D01*
X068567Y026372D01*
X068609Y026342D01*
X068648Y026309D01*
X068685Y026274D01*
X068719Y026236D01*
X068750Y026195D01*
X068779Y026153D01*
X068804Y026108D01*
X068825Y026062D01*
X068844Y026014D01*
X068858Y025965D01*
X068869Y025915D01*
X068877Y025865D01*
X068881Y025814D01*
X068881Y025762D01*
X068877Y025711D01*
X068869Y025661D01*
X068858Y025611D01*
X068844Y025562D01*
X068825Y025514D01*
X068804Y025468D01*
X068779Y025423D01*
X068750Y025381D01*
X068719Y025340D01*
X068685Y025302D01*
X068648Y025267D01*
X068609Y025234D01*
X068567Y025204D01*
X068524Y025178D01*
X068478Y025154D01*
X068431Y025134D01*
X068383Y025118D01*
X068333Y025105D01*
X068283Y025095D01*
X068232Y025090D01*
X068181Y025088D01*
X065481Y025088D01*
X065430Y025090D01*
X065379Y025095D01*
X065329Y025105D01*
X065279Y025118D01*
X065231Y025134D01*
X065184Y025154D01*
X065138Y025178D01*
X065095Y025204D01*
X065053Y025234D01*
X065014Y025267D01*
X064977Y025302D01*
X064943Y025340D01*
X064912Y025381D01*
X064883Y025423D01*
X064858Y025468D01*
X064837Y025514D01*
X064818Y025562D01*
X064804Y025611D01*
X064793Y025661D01*
X064785Y025711D01*
X064781Y025762D01*
X064781Y025814D01*
X064785Y025865D01*
X064793Y025915D01*
X064804Y025965D01*
X064818Y026014D01*
X064837Y026062D01*
X064858Y026108D01*
X064883Y026153D01*
X064912Y026195D01*
X064943Y026236D01*
X064977Y026274D01*
X065014Y026309D01*
X065053Y026342D01*
X065095Y026372D01*
X065138Y026398D01*
X065184Y026422D01*
X065231Y026442D01*
X065279Y026458D01*
X065329Y026471D01*
X065379Y026481D01*
X065430Y026486D01*
X065481Y026488D01*
X065931Y010263D02*
X065931Y006213D01*
X048231Y006213D02*
X048231Y010263D01*
D17*
X015165Y028672D02*
X015165Y028902D01*
X015088Y028979D01*
X014781Y028979D01*
X014705Y028902D01*
X014705Y028672D01*
X015165Y028672D01*
X015165Y029132D02*
X014705Y029132D01*
X014705Y029363D01*
X014781Y029439D01*
X015088Y029439D01*
X015165Y029363D01*
X015165Y029132D01*
X015165Y029593D02*
X015165Y029900D01*
X015165Y029746D02*
X014705Y029746D01*
X014858Y029593D01*
X014781Y030053D02*
X015088Y030053D01*
X014781Y030360D01*
X015088Y030360D01*
X015165Y030283D01*
X015165Y030130D01*
X015088Y030053D01*
X014781Y030053D02*
X014705Y030130D01*
X014705Y030283D01*
X014781Y030360D01*
X019626Y049583D02*
X019856Y049583D01*
X019933Y049660D01*
X019933Y049967D01*
X019856Y050043D01*
X019626Y050043D01*
X019626Y049583D01*
X020086Y049583D02*
X020317Y049583D01*
X020393Y049660D01*
X020393Y049967D01*
X020317Y050043D01*
X020086Y050043D01*
X020086Y049583D01*
X020547Y049660D02*
X020623Y049583D01*
X020777Y049583D01*
X020854Y049660D01*
X020854Y049736D01*
X020777Y049813D01*
X020700Y049813D01*
X020777Y049813D02*
X020854Y049890D01*
X020854Y049967D01*
X020777Y050043D01*
X020623Y050043D01*
X020547Y049967D01*
X027198Y050038D02*
X027198Y049578D01*
X027428Y049578D01*
X027505Y049655D01*
X027505Y049962D01*
X027428Y050038D01*
X027198Y050038D01*
X027659Y050038D02*
X027889Y050038D01*
X027966Y049962D01*
X027966Y049655D01*
X027889Y049578D01*
X027659Y049578D01*
X027659Y050038D01*
X028119Y050038D02*
X028119Y049808D01*
X028272Y049885D01*
X028349Y049885D01*
X028426Y049808D01*
X028426Y049655D01*
X028349Y049578D01*
X028196Y049578D01*
X028119Y049655D01*
X028119Y050038D02*
X028426Y050038D01*
X032897Y050039D02*
X032897Y049579D01*
X033127Y049579D01*
X033204Y049656D01*
X033204Y049963D01*
X033127Y050039D01*
X032897Y050039D01*
X033357Y050039D02*
X033588Y050039D01*
X033664Y049963D01*
X033664Y049656D01*
X033588Y049579D01*
X033357Y049579D01*
X033357Y050039D01*
X033818Y049809D02*
X034125Y049809D01*
X034048Y049579D02*
X034048Y050039D01*
X033818Y049809D01*
X059894Y052613D02*
X059894Y052843D01*
X059971Y052920D01*
X060124Y052920D01*
X060201Y052843D01*
X060201Y052613D01*
X060354Y052613D02*
X059894Y052613D01*
X060201Y052767D02*
X060354Y052920D01*
X060431Y053073D02*
X060431Y053380D01*
X060278Y053534D02*
X060354Y053611D01*
X060354Y053764D01*
X060278Y053841D01*
X060201Y053841D01*
X060124Y053764D01*
X060124Y053611D01*
X060047Y053534D01*
X059971Y053534D01*
X059894Y053611D01*
X059894Y053764D01*
X059971Y053841D01*
X059971Y053994D02*
X060124Y054148D01*
X060354Y054148D01*
X060124Y054148D02*
X059971Y054301D01*
X059894Y054301D01*
X059894Y053994D02*
X059971Y053994D01*
X059894Y054823D02*
X059894Y055054D01*
X059971Y055130D01*
X060124Y055130D01*
X060201Y055054D01*
X060201Y054823D01*
X060354Y054823D02*
X059894Y054823D01*
X060201Y054977D02*
X060354Y055130D01*
X060431Y055284D02*
X060431Y055591D01*
X060278Y055744D02*
X060354Y055821D01*
X060354Y055974D01*
X060278Y056051D01*
X060124Y056051D01*
X060124Y055898D01*
X059971Y056051D02*
X059894Y055974D01*
X059894Y055821D01*
X059971Y055744D01*
X060278Y055744D01*
X063519Y055744D02*
X063519Y055974D01*
X063596Y056051D01*
X063672Y056051D01*
X063749Y055974D01*
X063749Y055744D01*
X063979Y055744D02*
X063519Y055744D01*
X063749Y055974D02*
X063826Y056051D01*
X063903Y056051D01*
X063979Y055974D01*
X063979Y055744D01*
X064056Y055591D02*
X064056Y055284D01*
X063979Y055130D02*
X063826Y054977D01*
X063826Y055054D02*
X063826Y054823D01*
X063979Y054823D02*
X063519Y054823D01*
X063519Y055054D01*
X063596Y055130D01*
X063749Y055130D01*
X063826Y055054D01*
X063854Y054176D02*
X063701Y054023D01*
X063701Y054099D02*
X063701Y053869D01*
X063854Y053869D02*
X063394Y053869D01*
X063394Y054099D01*
X063471Y054176D01*
X063624Y054176D01*
X063701Y054099D01*
X063931Y053716D02*
X063931Y053409D01*
X063854Y053255D02*
X063701Y053102D01*
X063701Y053179D02*
X063701Y052948D01*
X063854Y052948D02*
X063394Y052948D01*
X063394Y053179D01*
X063471Y053255D01*
X063624Y053255D01*
X063701Y053179D01*
X064378Y047868D02*
X064301Y047792D01*
X064301Y047715D01*
X064378Y047638D01*
X064531Y047638D01*
X064608Y047561D01*
X064608Y047485D01*
X064531Y047408D01*
X064378Y047408D01*
X064301Y047485D01*
X064378Y047868D02*
X064531Y047868D01*
X064608Y047792D01*
X064761Y047868D02*
X064761Y047408D01*
X064992Y047408D01*
X065068Y047485D01*
X065068Y047792D01*
X064992Y047868D01*
X064761Y047868D01*
X065222Y047408D02*
X065529Y047868D01*
X065682Y047868D02*
X065836Y047715D01*
X065989Y047868D01*
X065989Y047408D01*
X066143Y047408D02*
X066143Y047868D01*
X066296Y047715D01*
X066449Y047868D01*
X066449Y047408D01*
X066603Y047485D02*
X066680Y047408D01*
X066833Y047408D01*
X066910Y047485D01*
X066910Y047792D02*
X066833Y047868D01*
X066680Y047868D01*
X066603Y047792D01*
X066603Y047485D01*
X067524Y047485D02*
X067600Y047408D01*
X067754Y047408D01*
X067831Y047485D01*
X067984Y047485D02*
X068061Y047561D01*
X068291Y047561D01*
X068291Y047638D02*
X068291Y047408D01*
X068061Y047408D01*
X067984Y047485D01*
X068061Y047715D02*
X068214Y047715D01*
X068291Y047638D01*
X068445Y047561D02*
X068598Y047715D01*
X068675Y047715D01*
X068828Y047638D02*
X068905Y047715D01*
X069135Y047715D01*
X069135Y047868D02*
X069135Y047408D01*
X068905Y047408D01*
X068828Y047485D01*
X068828Y047638D01*
X068445Y047715D02*
X068445Y047408D01*
X067831Y047792D02*
X067754Y047868D01*
X067600Y047868D01*
X067524Y047792D01*
X067524Y047485D01*
X065682Y047408D02*
X065682Y047868D01*
X070802Y038536D02*
X070879Y038536D01*
X070956Y038459D01*
X071033Y038536D01*
X071109Y038536D01*
X071186Y038459D01*
X071186Y038306D01*
X071109Y038229D01*
X071186Y038075D02*
X071186Y037768D01*
X071186Y037615D02*
X071033Y037461D01*
X071033Y037538D02*
X071033Y037308D01*
X071186Y037308D02*
X070726Y037308D01*
X070726Y037538D01*
X070802Y037615D01*
X070956Y037615D01*
X071033Y037538D01*
X070879Y037768D02*
X070726Y037922D01*
X071186Y037922D01*
X070802Y038229D02*
X070726Y038306D01*
X070726Y038459D01*
X070802Y038536D01*
X070956Y038459D02*
X070956Y038382D01*
D18*
X059956Y040663D02*
X059956Y041063D01*
X059956Y044263D02*
X059956Y044663D01*
X030893Y022788D02*
X030893Y022388D01*
X030893Y019188D02*
X030893Y018788D01*
D19*
X030893Y019368D03*
X030893Y022208D03*
X059956Y041243D03*
X059956Y044083D03*
D20*
X064456Y039288D03*
X065456Y039288D03*
X065456Y038288D03*
X064456Y038288D03*
X064456Y037288D03*
X065456Y037288D03*
X060956Y037538D03*
X059956Y037538D03*
X059956Y036538D03*
X060956Y036538D03*
X060956Y035538D03*
X060956Y034538D03*
X059956Y034538D03*
X059956Y035538D03*
X059956Y033538D03*
X060956Y033538D03*
X085581Y043538D03*
X086581Y043538D03*
X087581Y043538D03*
X087706Y032913D03*
X088706Y032913D03*
X089706Y032913D03*
D21*
X016337Y011295D02*
X016337Y006413D01*
X010825Y006413D01*
X010825Y011295D01*
X016337Y011295D01*
X016337Y006807D02*
X010825Y006807D01*
D22*
X014849Y008258D02*
X014849Y008408D01*
X014924Y008408D01*
X014949Y008383D01*
X014949Y008333D01*
X014924Y008308D01*
X014849Y008308D01*
X014997Y008283D02*
X015022Y008258D01*
X015072Y008258D01*
X015097Y008283D01*
X015097Y008308D01*
X015072Y008333D01*
X015022Y008333D01*
X014997Y008358D01*
X014997Y008383D01*
X015022Y008408D01*
X015072Y008408D01*
X015097Y008383D01*
X015144Y008383D02*
X015169Y008408D01*
X015219Y008408D01*
X015244Y008383D01*
X015244Y008358D01*
X015144Y008258D01*
X015244Y008258D01*
X015291Y008258D02*
X015291Y008408D01*
X015316Y008333D02*
X015391Y008258D01*
X015439Y008258D02*
X015514Y008258D01*
X015539Y008283D01*
X015539Y008308D01*
X015514Y008333D01*
X015439Y008333D01*
X015514Y008333D02*
X015539Y008358D01*
X015539Y008383D01*
X015514Y008408D01*
X015439Y008408D01*
X015439Y008258D01*
X015291Y008308D02*
X015391Y008408D01*
D23*
X059743Y052652D02*
X063169Y052652D01*
X063169Y054424D01*
X059743Y054424D01*
X059743Y052652D01*
X059743Y054652D02*
X063169Y054652D01*
X063169Y056424D01*
X059743Y056424D01*
X059743Y054652D01*
X063368Y054652D02*
X066794Y054652D01*
X066794Y056424D01*
X063368Y056424D01*
X063368Y054652D01*
X063368Y054424D02*
X066794Y054424D01*
X066794Y052652D01*
X063368Y052652D01*
X063368Y054424D01*
D24*
X062460Y053538D03*
X062460Y055538D03*
X066085Y055538D03*
X066085Y053538D03*
D25*
X067656Y043163D03*
X089656Y039538D03*
X089656Y037038D03*
X089656Y034913D03*
X089656Y029413D03*
D26*
X087956Y030838D03*
D27*
X071705Y037246D03*
X071705Y037826D03*
D28*
X071706Y037912D02*
X064456Y038288D01*
X038581Y019913D01*
X038581Y020913D02*
X064456Y039288D01*
X070456Y037914D01*
X070181Y035488D01*
X069181Y035488D02*
X068456Y037287D01*
X068456Y036539D02*
X068181Y035488D01*
X067181Y035488D02*
X070456Y038662D01*
X069080Y040163D01*
X066956Y043163D01*
X065082Y039663D01*
X065456Y039288D02*
X060456Y039223D01*
X059331Y039103D02*
X058081Y038413D01*
X058581Y038913D02*
X059956Y037538D01*
X060456Y036913D02*
X057081Y033413D01*
X053081Y032413D01*
X048081Y033413D01*
X048081Y022788D01*
X048455Y021663D02*
X044331Y016914D01*
X043456Y016788D01*
X037456Y017788D01*
X037456Y016788D02*
X043456Y017788D01*
X044331Y017662D01*
X048081Y016788D01*
X049581Y012413D01*
X052581Y012413D01*
X055581Y012413D01*
X054081Y012413D02*
X089956Y034163D01*
X089956Y036538D02*
X057081Y012413D01*
X058581Y012413D02*
X061581Y012413D01*
X063081Y012413D02*
X055581Y016163D01*
X054206Y015038D01*
X053206Y015038D02*
X052581Y016163D01*
X051581Y016288D02*
X051331Y015413D01*
X051331Y014413D02*
X064581Y012413D01*
X063205Y010288D02*
X063206Y009163D01*
X060081Y012413D02*
X089956Y039538D01*
X084705Y039913D02*
X082331Y039913D01*
X082331Y040913D02*
X084205Y039163D01*
X083457Y039163D02*
X067581Y054663D01*
X067206Y056288D02*
X083957Y039913D01*
X083955Y040538D02*
X082331Y038913D01*
X083207Y040538D02*
X065081Y053538D01*
X064081Y055538D02*
X060456Y055538D01*
X060456Y053538D02*
X058081Y043413D01*
X053081Y043413D01*
X050581Y043663D01*
X052581Y043038D02*
X055081Y043413D01*
X057831Y044163D02*
X057470Y047024D01*
X056942Y047552D02*
X056456Y047788D01*
X056942Y047552D02*
X059810Y046434D01*
X060602Y045642D02*
X058831Y040913D01*
X058081Y043413D02*
X061581Y041788D01*
X065830Y039663D02*
X064181Y035488D01*
X065181Y035488D02*
X065456Y037789D01*
X067206Y038414D01*
X067206Y039162D02*
X068332Y040163D01*
X069181Y041638D01*
X069331Y041788D02*
X067956Y043163D01*
X068956Y044538D02*
X065830Y039663D01*
X065456Y038537D02*
X065456Y038288D01*
X038456Y022038D01*
X038831Y022913D02*
X069706Y042164D01*
X069331Y041788D02*
X070706Y042912D01*
X070956Y044538D01*
X069956Y044538D02*
X069706Y042912D01*
X070706Y042164D01*
X072281Y041788D02*
X082331Y041913D01*
X082331Y036913D02*
X063206Y027413D01*
X063206Y030413D02*
X061581Y033538D01*
X059956Y035538D02*
X059456Y035538D01*
X059956Y036538D02*
X058581Y036913D01*
X057081Y036413D02*
X060956Y037538D01*
X061581Y037538D02*
X062281Y036288D01*
X064456Y037288D02*
X038706Y018788D01*
X032081Y020038D02*
X031331Y020663D01*
X047146Y020538D02*
X050081Y017914D01*
X055831Y019287D02*
X066706Y019038D01*
X066081Y022788D02*
X066080Y023681D01*
X065081Y023913D02*
X065081Y022788D01*
X063081Y022788D02*
X069206Y027413D01*
X082331Y030288D01*
X084021Y030913D02*
X087956Y030538D01*
X089956Y029413D02*
X051081Y012413D01*
X059081Y022788D02*
X059081Y023788D01*
X061081Y024163D02*
X061081Y022788D01*
X064206Y030413D02*
X051081Y032413D01*
X048081Y033413D02*
X046081Y037413D01*
X055331Y034288D02*
X057081Y036413D01*
X065456Y037288D02*
X066181Y035488D01*
X068456Y036539D02*
X071706Y037164D01*
X082331Y032913D02*
X061456Y047038D01*
M02*
