G75*
G70*
%OFA0B0*%
%FSLAX24Y24*%
%IPPOS*%
%LPD*%
%AMOC8*
5,1,8,0,0,1.08239X$1,22.5*
%
%ADD10C,0.0051*%
%ADD11C,0.0110*%
%ADD12C,0.0700*%
%ADD13C,0.0635*%
%ADD14C,0.0555*%
%ADD15OC8,0.0635*%
%ADD16C,0.0635*%
%ADD17C,0.0715*%
%ADD18OC8,0.0715*%
%ADD19C,0.0669*%
%ADD20C,0.1266*%
%ADD21C,0.0555*%
%ADD22C,0.0835*%
%ADD23R,0.1000X0.0500*%
%ADD24R,0.0560X0.0280*%
%ADD25R,0.0512X0.0591*%
%ADD26C,0.0715*%
%ADD27C,0.0320*%
%ADD28C,0.0860*%
%ADD29C,0.0400*%
%ADD30C,0.0160*%
%ADD31C,0.0120*%
%ADD32C,0.0240*%
%ADD33C,0.0560*%
%ADD34R,0.0860X0.0860*%
%ADD35C,0.1969*%
D10*
X014499Y019660D02*
X014499Y089072D01*
X014499Y088285D02*
X015523Y088183D01*
X015523Y088159D02*
X014499Y088285D01*
X015523Y088387D01*
X015523Y088411D02*
X015523Y088159D01*
X015523Y088234D02*
X014499Y088285D01*
X015523Y088336D01*
X015523Y088411D02*
X014499Y088285D01*
X064374Y088285D01*
X063351Y088183D01*
X063351Y088159D02*
X064374Y088285D01*
X063351Y088387D01*
X063351Y088411D02*
X063351Y088159D01*
X063351Y088234D02*
X064374Y088285D01*
X063351Y088336D01*
X063351Y088411D02*
X064374Y088285D01*
X064374Y089072D02*
X064374Y030035D01*
X093874Y038160D02*
X011087Y038160D01*
X011874Y038160D02*
X011977Y039184D01*
X012000Y039184D02*
X011874Y038160D01*
X011772Y039184D01*
X011749Y039184D02*
X012000Y039184D01*
X011925Y039184D02*
X011874Y038160D01*
X011823Y039184D01*
X011749Y039184D02*
X011874Y038160D01*
X011874Y081410D01*
X011977Y080386D01*
X012000Y080386D02*
X011874Y081410D01*
X011772Y080386D01*
X011749Y080386D02*
X012000Y080386D01*
X011925Y080386D02*
X011874Y081410D01*
X011823Y080386D01*
X011749Y080386D02*
X011874Y081410D01*
X011087Y081410D02*
X085374Y081410D01*
D11*
X043032Y088945D02*
X042821Y088734D01*
X042398Y088734D01*
X042186Y088945D01*
X042186Y089157D01*
X042398Y089368D01*
X042821Y089368D01*
X043032Y089157D01*
X043032Y088945D01*
X042821Y089368D02*
X043032Y089580D01*
X043032Y089791D01*
X042821Y090003D01*
X042398Y090003D01*
X042186Y089791D01*
X042186Y089580D01*
X042398Y089368D01*
X041763Y089157D02*
X041552Y089368D01*
X040917Y089368D01*
X040917Y088945D01*
X041129Y088734D01*
X041552Y088734D01*
X041763Y088945D01*
X041763Y089157D01*
X041340Y089791D02*
X040917Y089368D01*
X040495Y088945D02*
X040495Y088734D01*
X040283Y088734D01*
X040283Y088945D01*
X040495Y088945D01*
X039860Y088945D02*
X039860Y089157D01*
X039649Y089368D01*
X039014Y089368D01*
X039014Y088945D01*
X039226Y088734D01*
X039649Y088734D01*
X039860Y088945D01*
X039437Y089791D02*
X039014Y089368D01*
X038591Y089580D02*
X037745Y088734D01*
X038591Y088734D01*
X038591Y089580D02*
X038591Y089791D01*
X038380Y090003D01*
X037957Y090003D01*
X037745Y089791D01*
X036900Y090003D02*
X036900Y088734D01*
X036477Y088734D02*
X037323Y088734D01*
X036477Y089580D02*
X036900Y090003D01*
X039437Y089791D02*
X039860Y090003D01*
X041340Y089791D02*
X041763Y090003D01*
X011426Y063169D02*
X011214Y063381D01*
X011003Y063381D01*
X010791Y063169D01*
X010791Y062534D01*
X011214Y062534D01*
X011426Y062746D01*
X011426Y063169D01*
X010791Y062534D02*
X010368Y062957D01*
X010157Y063381D01*
X010368Y062112D02*
X010157Y061900D01*
X010157Y061477D01*
X010368Y061266D01*
X010580Y061266D01*
X010791Y061477D01*
X010791Y061900D01*
X011003Y062112D01*
X011214Y062112D01*
X011426Y061900D01*
X011426Y061477D01*
X011214Y061266D01*
X011003Y061266D01*
X010791Y061477D01*
X010791Y061900D02*
X010580Y062112D01*
X010368Y062112D01*
X011214Y060843D02*
X011426Y060843D01*
X011426Y060631D01*
X011214Y060631D01*
X011214Y060843D01*
X011214Y060209D02*
X010368Y060209D01*
X010157Y059997D01*
X010157Y059574D01*
X010368Y059362D01*
X010580Y059362D01*
X010791Y059574D01*
X010791Y060209D01*
X011214Y060209D02*
X011426Y059997D01*
X011426Y059574D01*
X011214Y059362D01*
X011214Y058940D02*
X011426Y058728D01*
X011426Y058305D01*
X011214Y058094D01*
X010368Y058940D01*
X011214Y058940D01*
X010368Y058940D02*
X010157Y058728D01*
X010157Y058305D01*
X010368Y058094D01*
X011214Y058094D01*
X011426Y057671D02*
X011426Y056825D01*
X011426Y057248D02*
X010157Y057248D01*
X010580Y056825D01*
D12*
X032124Y046660D03*
X048374Y062910D03*
X048374Y063910D03*
X048374Y064910D03*
X048374Y065910D03*
X048374Y066910D03*
X048374Y067910D03*
X049374Y067910D03*
X049374Y066910D03*
X049374Y065910D03*
X049374Y064910D03*
X049374Y063910D03*
X049374Y062910D03*
X049374Y061910D03*
X050374Y061910D03*
X050374Y062910D03*
X051374Y062910D03*
X051374Y061910D03*
X052374Y061910D03*
X052374Y062910D03*
X053374Y062910D03*
X053374Y061910D03*
X054374Y061910D03*
X054374Y062910D03*
X055374Y062910D03*
X055374Y061910D03*
X056374Y061910D03*
X056374Y062910D03*
X057374Y062910D03*
X057374Y061910D03*
X058374Y061910D03*
X058374Y062910D03*
X059374Y062910D03*
X059374Y061910D03*
X060374Y062910D03*
X060374Y063910D03*
X060374Y064910D03*
X060374Y065910D03*
X060374Y066910D03*
X060374Y067910D03*
X059374Y067910D03*
X059374Y066910D03*
X059374Y065910D03*
X059374Y064910D03*
X059374Y063910D03*
X059374Y068910D03*
X059374Y069910D03*
X059374Y070910D03*
X059374Y071910D03*
X059374Y072910D03*
X058374Y072910D03*
X057374Y072910D03*
X056374Y072910D03*
X055374Y072910D03*
X054374Y072910D03*
X053374Y072910D03*
X052374Y072910D03*
X051374Y072910D03*
X050374Y072910D03*
X049374Y072910D03*
X048374Y072910D03*
X048374Y071910D03*
X048374Y070910D03*
X048374Y069910D03*
X048374Y068910D03*
X049374Y068910D03*
X049374Y069910D03*
X049374Y070910D03*
X049374Y071910D03*
X049374Y073910D03*
X050374Y073910D03*
X051374Y073910D03*
X052374Y073910D03*
X053374Y073910D03*
X054374Y073910D03*
X055374Y073910D03*
X056374Y073910D03*
X057374Y073910D03*
X058374Y073910D03*
X059374Y073910D03*
X060374Y072910D03*
X060374Y071910D03*
X060374Y070910D03*
X060374Y069910D03*
X060374Y068910D03*
D13*
X060374Y055227D02*
X060374Y054593D01*
X061374Y054593D02*
X061374Y055227D01*
X059374Y055227D02*
X059374Y054593D01*
X058374Y054593D02*
X058374Y055227D01*
X057374Y055227D02*
X057374Y054593D01*
X056374Y054593D02*
X056374Y055227D01*
X055374Y055227D02*
X055374Y054593D01*
X054374Y054593D02*
X054374Y055227D01*
X053374Y055227D02*
X053374Y054593D01*
X052374Y054593D02*
X052374Y055227D01*
X051374Y055227D02*
X051374Y054593D01*
X050374Y054593D02*
X050374Y055227D01*
X049374Y055227D02*
X049374Y054593D01*
X048374Y054593D02*
X048374Y055227D01*
X047374Y055227D02*
X047374Y054593D01*
X046374Y054593D02*
X046374Y055227D01*
X045374Y055227D02*
X045374Y054593D01*
X044374Y054593D02*
X044374Y055227D01*
X043374Y055227D02*
X043374Y054593D01*
X042374Y054593D02*
X042374Y055227D01*
X036567Y055160D02*
X035932Y055160D01*
X035932Y054160D02*
X036567Y054160D01*
X036567Y053160D02*
X035932Y053160D01*
X035932Y052160D02*
X036567Y052160D01*
X036567Y051160D02*
X035932Y051160D01*
X035932Y050160D02*
X036567Y050160D01*
X036567Y049160D02*
X035932Y049160D01*
X035932Y048160D02*
X036567Y048160D01*
X036567Y047160D02*
X035932Y047160D01*
X035932Y046160D02*
X036567Y046160D01*
X036567Y045160D02*
X035932Y045160D01*
X035932Y044160D02*
X036567Y044160D01*
X036567Y043160D02*
X035932Y043160D01*
X035932Y042160D02*
X036567Y042160D01*
X036567Y041160D02*
X035932Y041160D01*
X035932Y040160D02*
X036567Y040160D01*
X036567Y039160D02*
X035932Y039160D01*
X030567Y039160D02*
X029932Y039160D01*
X029932Y040160D02*
X030567Y040160D01*
X030567Y041160D02*
X029932Y041160D01*
X029932Y042160D02*
X030567Y042160D01*
X030567Y043160D02*
X029932Y043160D01*
X029932Y044160D02*
X030567Y044160D01*
X030567Y045160D02*
X029932Y045160D01*
X029932Y046160D02*
X030567Y046160D01*
X030567Y047160D02*
X029932Y047160D01*
X029932Y048160D02*
X030567Y048160D01*
X030567Y049160D02*
X029932Y049160D01*
X029932Y050160D02*
X030567Y050160D01*
X030567Y051160D02*
X029932Y051160D01*
X029932Y052160D02*
X030567Y052160D01*
X030567Y053160D02*
X029932Y053160D01*
X029932Y054160D02*
X030567Y054160D01*
X030567Y055160D02*
X029932Y055160D01*
X029932Y056160D02*
X030567Y056160D01*
X030567Y057160D02*
X029932Y057160D01*
X029932Y058160D02*
X030567Y058160D01*
X028378Y059656D02*
X028378Y060291D01*
X027378Y060291D02*
X027378Y059656D01*
X026378Y059656D02*
X026378Y060291D01*
X025378Y060291D02*
X025378Y059656D01*
X024378Y059656D02*
X024378Y060291D01*
X023378Y060291D02*
X023378Y059656D01*
X022378Y059656D02*
X022378Y060291D01*
X021378Y060291D02*
X021378Y059656D01*
X020378Y059656D02*
X020378Y060291D01*
X019378Y060291D02*
X019378Y059656D01*
X019378Y062656D02*
X019378Y063291D01*
X020378Y063291D02*
X020378Y062656D01*
X021378Y062656D02*
X021378Y063291D01*
X022378Y063291D02*
X022378Y062656D01*
X023378Y062656D02*
X023378Y063291D01*
X024378Y063291D02*
X024378Y062656D01*
X025378Y062656D02*
X025378Y063291D01*
X026378Y063291D02*
X026378Y062656D01*
X027378Y062656D02*
X027378Y063291D01*
X028378Y063291D02*
X028378Y062656D01*
X026692Y065285D02*
X026057Y065285D01*
X026057Y066285D02*
X026692Y066285D01*
X026692Y067285D02*
X026057Y067285D01*
X026057Y068285D02*
X026692Y068285D01*
X026692Y069285D02*
X026057Y069285D01*
X026057Y070285D02*
X026692Y070285D01*
X026692Y071285D02*
X026057Y071285D01*
X026057Y072285D02*
X026692Y072285D01*
X026692Y073285D02*
X026057Y073285D01*
X026057Y074285D02*
X026692Y074285D01*
X026692Y075285D02*
X026057Y075285D01*
X026057Y076285D02*
X026692Y076285D01*
X026692Y077285D02*
X026057Y077285D01*
X026057Y078285D02*
X026692Y078285D01*
X026692Y079285D02*
X026057Y079285D01*
X026057Y080285D02*
X026692Y080285D01*
X029229Y080280D02*
X029864Y080280D01*
X029864Y079280D02*
X029229Y079280D01*
X029229Y078280D02*
X029864Y078280D01*
X029864Y077280D02*
X029229Y077280D01*
X029229Y076280D02*
X029864Y076280D01*
X029864Y075280D02*
X029229Y075280D01*
X029229Y074280D02*
X029864Y074280D01*
X029864Y073280D02*
X029229Y073280D01*
X029229Y072280D02*
X029864Y072280D01*
X029864Y071280D02*
X029229Y071280D01*
X032229Y071280D02*
X032864Y071280D01*
X032864Y072280D02*
X032229Y072280D01*
X032229Y073280D02*
X032864Y073280D01*
X032864Y074280D02*
X032229Y074280D01*
X032229Y075280D02*
X032864Y075280D01*
X032864Y076280D02*
X032229Y076280D01*
X032229Y077280D02*
X032864Y077280D01*
X032864Y078280D02*
X032229Y078280D01*
X032229Y079280D02*
X032864Y079280D01*
X032864Y080280D02*
X032229Y080280D01*
X034053Y078781D02*
X034688Y078781D01*
X034688Y077781D02*
X034053Y077781D01*
X034053Y076781D02*
X034688Y076781D01*
X034688Y075781D02*
X034053Y075781D01*
X034053Y074781D02*
X034688Y074781D01*
X034688Y073781D02*
X034053Y073781D01*
X034053Y072781D02*
X034688Y072781D01*
X034688Y071781D02*
X034053Y071781D01*
X034053Y070781D02*
X034688Y070781D01*
X034688Y069781D02*
X034053Y069781D01*
X037053Y069781D02*
X037688Y069781D01*
X037688Y070781D02*
X037053Y070781D01*
X037053Y071781D02*
X037688Y071781D01*
X037688Y072781D02*
X037053Y072781D01*
X037053Y073781D02*
X037688Y073781D01*
X037688Y074781D02*
X037053Y074781D01*
X037053Y075781D02*
X037688Y075781D01*
X037688Y076781D02*
X037053Y076781D01*
X037053Y077781D02*
X037688Y077781D01*
X037688Y078781D02*
X037053Y078781D01*
X038807Y077410D02*
X039442Y077410D01*
X039442Y076410D02*
X038807Y076410D01*
X038807Y075410D02*
X039442Y075410D01*
X039442Y074410D02*
X038807Y074410D01*
X038807Y073410D02*
X039442Y073410D01*
X039442Y072410D02*
X038807Y072410D01*
X038807Y071410D02*
X039442Y071410D01*
X039442Y070410D02*
X038807Y070410D01*
X038807Y069410D02*
X039442Y069410D01*
X039442Y068410D02*
X038807Y068410D01*
X038807Y067410D02*
X039442Y067410D01*
X039442Y066410D02*
X038807Y066410D01*
X038807Y065410D02*
X039442Y065410D01*
X039442Y064410D02*
X038807Y064410D01*
X041932Y064410D02*
X042567Y064410D01*
X042567Y065410D02*
X041932Y065410D01*
X041932Y066410D02*
X042567Y066410D01*
X042567Y067410D02*
X041932Y067410D01*
X041932Y068410D02*
X042567Y068410D01*
X042567Y069410D02*
X041932Y069410D01*
X041932Y070410D02*
X042567Y070410D01*
X042567Y071410D02*
X041932Y071410D01*
X041932Y072410D02*
X042567Y072410D01*
X042567Y073410D02*
X041932Y073410D01*
X041932Y074410D02*
X042567Y074410D01*
X042567Y075410D02*
X041932Y075410D01*
X041932Y076410D02*
X042567Y076410D01*
X042567Y077410D02*
X041932Y077410D01*
X044807Y077410D02*
X045442Y077410D01*
X045442Y076410D02*
X044807Y076410D01*
X044807Y075410D02*
X045442Y075410D01*
X045442Y074410D02*
X044807Y074410D01*
X044807Y073410D02*
X045442Y073410D01*
X045442Y072410D02*
X044807Y072410D01*
X044807Y071410D02*
X045442Y071410D01*
X045442Y070410D02*
X044807Y070410D01*
X044807Y069410D02*
X045442Y069410D01*
X045442Y068410D02*
X044807Y068410D01*
X044807Y067410D02*
X045442Y067410D01*
X045442Y066410D02*
X044807Y066410D01*
X044807Y065410D02*
X045442Y065410D01*
X045442Y064410D02*
X044807Y064410D01*
X036567Y058160D02*
X035932Y058160D01*
X035932Y057160D02*
X036567Y057160D01*
X036567Y056160D02*
X035932Y056160D01*
X042374Y049227D02*
X042374Y048593D01*
X043374Y048593D02*
X043374Y049227D01*
X044374Y049227D02*
X044374Y048593D01*
X045374Y048593D02*
X045374Y049227D01*
X046374Y049227D02*
X046374Y048593D01*
X047374Y048593D02*
X047374Y049227D01*
X048374Y049227D02*
X048374Y048593D01*
X049374Y048593D02*
X049374Y049227D01*
X050374Y049227D02*
X050374Y048593D01*
X051374Y048593D02*
X051374Y049227D01*
X052374Y049227D02*
X052374Y048593D01*
X053374Y048593D02*
X053374Y049227D01*
X054374Y049227D02*
X054374Y048593D01*
X055374Y048593D02*
X055374Y049227D01*
X056374Y049227D02*
X056374Y048593D01*
X057374Y048593D02*
X057374Y049227D01*
X058374Y049227D02*
X058374Y048593D01*
X059374Y048593D02*
X059374Y049227D01*
X060374Y049227D02*
X060374Y048593D01*
X061374Y048593D02*
X061374Y049227D01*
X061374Y045977D02*
X061374Y045343D01*
X060374Y045343D02*
X060374Y045977D01*
X059374Y045977D02*
X059374Y045343D01*
X058374Y045343D02*
X058374Y045977D01*
X057374Y045977D02*
X057374Y045343D01*
X056374Y045343D02*
X056374Y045977D01*
X055374Y045977D02*
X055374Y045343D01*
X054374Y045343D02*
X054374Y045977D01*
X053374Y045977D02*
X053374Y045343D01*
X052374Y045343D02*
X052374Y045977D01*
X051374Y045977D02*
X051374Y045343D01*
X050374Y045343D02*
X050374Y045977D01*
X049374Y045977D02*
X049374Y045343D01*
X048374Y045343D02*
X048374Y045977D01*
X047374Y045977D02*
X047374Y045343D01*
X046374Y045343D02*
X046374Y045977D01*
X045374Y045977D02*
X045374Y045343D01*
X044374Y045343D02*
X044374Y045977D01*
X043374Y045977D02*
X043374Y045343D01*
X042374Y045343D02*
X042374Y045977D01*
X042374Y039977D02*
X042374Y039343D01*
X043374Y039343D02*
X043374Y039977D01*
X044374Y039977D02*
X044374Y039343D01*
X045374Y039343D02*
X045374Y039977D01*
X046374Y039977D02*
X046374Y039343D01*
X047374Y039343D02*
X047374Y039977D01*
X048374Y039977D02*
X048374Y039343D01*
X049374Y039343D02*
X049374Y039977D01*
X050374Y039977D02*
X050374Y039343D01*
X051374Y039343D02*
X051374Y039977D01*
X052374Y039977D02*
X052374Y039343D01*
X053374Y039343D02*
X053374Y039977D01*
X054374Y039977D02*
X054374Y039343D01*
X055374Y039343D02*
X055374Y039977D01*
X056374Y039977D02*
X056374Y039343D01*
X057374Y039343D02*
X057374Y039977D01*
X058374Y039977D02*
X058374Y039343D01*
X059374Y039343D02*
X059374Y039977D01*
X060374Y039977D02*
X060374Y039343D01*
X061374Y039343D02*
X061374Y039977D01*
X075057Y039535D02*
X075692Y039535D01*
X075692Y038535D02*
X075057Y038535D01*
X075057Y037535D02*
X075692Y037535D01*
X083874Y037852D02*
X083874Y037218D01*
X084874Y037218D02*
X084874Y037852D01*
X085874Y037852D02*
X085874Y037218D01*
X086874Y037218D02*
X086874Y037852D01*
X087874Y037852D02*
X087874Y037218D01*
X088874Y037218D02*
X088874Y037852D01*
X089874Y037852D02*
X089874Y037218D01*
X089874Y040218D02*
X089874Y040852D01*
X088874Y040852D02*
X088874Y040218D01*
X087874Y040218D02*
X087874Y040852D01*
X086874Y040852D02*
X086874Y040218D01*
X085874Y040218D02*
X085874Y040852D01*
X084874Y040852D02*
X084874Y040218D01*
X083874Y040218D02*
X083874Y040852D01*
X048874Y017227D02*
X048874Y016593D01*
X047874Y016593D02*
X047874Y017227D01*
X046874Y017227D02*
X046874Y016593D01*
X045874Y016593D02*
X045874Y017227D01*
X044874Y017227D02*
X044874Y016593D01*
X043874Y016593D02*
X043874Y017227D01*
X042874Y017227D02*
X042874Y016593D01*
X041874Y016593D02*
X041874Y017227D01*
X040874Y017227D02*
X040874Y016593D01*
X039874Y016593D02*
X039874Y017227D01*
X038874Y017227D02*
X038874Y016593D01*
X037874Y016593D02*
X037874Y017227D01*
X037874Y013227D02*
X037874Y012593D01*
X038874Y012593D02*
X038874Y013227D01*
X039874Y013227D02*
X039874Y012593D01*
X040874Y012593D02*
X040874Y013227D01*
X041874Y013227D02*
X041874Y012593D01*
X042874Y012593D02*
X042874Y013227D01*
X043874Y013227D02*
X043874Y012593D01*
X044874Y012593D02*
X044874Y013227D01*
X045874Y013227D02*
X045874Y012593D01*
X046874Y012593D02*
X046874Y013227D01*
X047874Y013227D02*
X047874Y012593D01*
X048874Y012593D02*
X048874Y013227D01*
X026692Y039160D02*
X026057Y039160D01*
X026057Y040160D02*
X026692Y040160D01*
X026692Y041160D02*
X026057Y041160D01*
X026057Y042160D02*
X026692Y042160D01*
X026692Y043160D02*
X026057Y043160D01*
X026057Y044160D02*
X026692Y044160D01*
X026692Y045160D02*
X026057Y045160D01*
X026057Y046160D02*
X026692Y046160D01*
X026692Y047160D02*
X026057Y047160D01*
X026057Y048160D02*
X026692Y048160D01*
X026692Y049160D02*
X026057Y049160D01*
X026057Y050160D02*
X026692Y050160D01*
X026692Y051160D02*
X026057Y051160D01*
X026057Y052160D02*
X026692Y052160D01*
X026692Y053160D02*
X026057Y053160D01*
X026057Y054160D02*
X026692Y054160D01*
X020692Y054160D02*
X020057Y054160D01*
X020057Y053160D02*
X020692Y053160D01*
X020692Y052160D02*
X020057Y052160D01*
X020057Y051160D02*
X020692Y051160D01*
X020692Y050160D02*
X020057Y050160D01*
X020057Y049160D02*
X020692Y049160D01*
X020692Y048160D02*
X020057Y048160D01*
X020057Y047160D02*
X020692Y047160D01*
X020692Y046160D02*
X020057Y046160D01*
X020057Y045160D02*
X020692Y045160D01*
X020692Y044160D02*
X020057Y044160D01*
X020057Y043160D02*
X020692Y043160D01*
X020692Y042160D02*
X020057Y042160D01*
X020057Y041160D02*
X020692Y041160D01*
X020692Y040160D02*
X020057Y040160D01*
X020057Y039160D02*
X020692Y039160D01*
X020692Y065285D02*
X020057Y065285D01*
X020057Y066285D02*
X020692Y066285D01*
X020692Y067285D02*
X020057Y067285D01*
X020057Y068285D02*
X020692Y068285D01*
X020692Y069285D02*
X020057Y069285D01*
X020057Y070285D02*
X020692Y070285D01*
X020692Y071285D02*
X020057Y071285D01*
X020057Y072285D02*
X020692Y072285D01*
X020692Y073285D02*
X020057Y073285D01*
X020057Y074285D02*
X020692Y074285D01*
X020692Y075285D02*
X020057Y075285D01*
X020057Y076285D02*
X020692Y076285D01*
X020692Y077285D02*
X020057Y077285D01*
X020057Y078285D02*
X020692Y078285D01*
X020692Y079285D02*
X020057Y079285D01*
X020057Y080285D02*
X020692Y080285D01*
D14*
X086499Y036187D02*
X086499Y035633D01*
X088499Y035633D02*
X088499Y036187D01*
X087624Y041508D02*
X087624Y042062D01*
X089624Y042062D02*
X089624Y041508D01*
D15*
X073999Y040535D03*
X067124Y031785D03*
X070999Y031535D03*
X046499Y009285D03*
X043999Y009285D03*
X041874Y009285D03*
X037499Y011285D03*
X036374Y009285D03*
X034374Y050035D03*
X034374Y054035D03*
X061624Y070535D03*
X061624Y074535D03*
D16*
X073999Y041535D03*
X066124Y031785D03*
X069999Y031535D03*
X046499Y010285D03*
X043999Y010285D03*
X041874Y010285D03*
X038499Y011285D03*
X036374Y010285D03*
D17*
X071499Y036285D03*
D18*
X070499Y036285D03*
X070499Y037285D03*
X070499Y038285D03*
X071499Y038285D03*
X071499Y037285D03*
X062999Y063410D03*
X061999Y063410D03*
X061999Y064410D03*
X061999Y065410D03*
X061999Y066410D03*
X061999Y067410D03*
X062999Y067410D03*
X062999Y066410D03*
X062999Y065410D03*
X062999Y064410D03*
D19*
X076544Y052249D03*
X077528Y052249D03*
X077528Y051422D03*
X077528Y050398D03*
X077528Y049571D03*
X076544Y049571D03*
D20*
X079024Y050910D03*
D21*
X060249Y077910D03*
X059249Y077910D03*
X058249Y077910D03*
X056624Y077910D03*
X055624Y077910D03*
X054624Y077910D03*
X054624Y079910D03*
X055624Y079910D03*
X056624Y079910D03*
X058249Y079910D03*
X059249Y079910D03*
X060249Y079910D03*
D22*
X050249Y008327D02*
X050249Y007493D01*
X049499Y006327D02*
X049499Y005493D01*
X047999Y005493D02*
X047999Y006327D01*
X046499Y006327D02*
X046499Y005493D01*
X044999Y005493D02*
X044999Y006327D01*
X043499Y006327D02*
X043499Y005493D01*
X041999Y005493D02*
X041999Y006327D01*
X041249Y007493D02*
X041249Y008327D01*
X039749Y008327D02*
X039749Y007493D01*
X038999Y006327D02*
X038999Y005493D01*
X040499Y005493D02*
X040499Y006327D01*
X038249Y007493D02*
X038249Y008327D01*
X036749Y008327D02*
X036749Y007493D01*
X035249Y007493D02*
X035249Y008327D01*
X035999Y006327D02*
X035999Y005493D01*
X037499Y005493D02*
X037499Y006327D01*
X042749Y007493D02*
X042749Y008327D01*
X044249Y008327D02*
X044249Y007493D01*
X045749Y007493D02*
X045749Y008327D01*
X047249Y008327D02*
X047249Y007493D01*
X048749Y007493D02*
X048749Y008327D01*
D23*
X066874Y034335D03*
X072374Y034335D03*
X066874Y044335D03*
X072374Y045035D03*
D24*
X066074Y043435D03*
X066074Y042435D03*
X066074Y041435D03*
X066074Y040435D03*
X066074Y039435D03*
X066074Y038435D03*
X066074Y037435D03*
X066074Y036435D03*
X066074Y035835D03*
X066074Y035335D03*
X066074Y034835D03*
D25*
X073125Y031160D03*
X073873Y031160D03*
D26*
X050857Y013660D02*
X050142Y013660D01*
X050142Y012660D02*
X050857Y012660D01*
X050857Y011660D02*
X050142Y011660D01*
X040232Y011535D02*
X039517Y011535D01*
X039517Y010535D02*
X040232Y010535D01*
X040232Y009535D02*
X039517Y009535D01*
D27*
X066874Y034335D02*
X072374Y034335D01*
X036249Y049160D02*
X035499Y049160D01*
X035124Y049535D01*
X035124Y054910D01*
X034749Y055285D01*
X034749Y059285D01*
X030124Y060535D02*
X030124Y069910D01*
X029499Y070535D01*
X029499Y071233D01*
X029546Y071280D01*
X034370Y069781D02*
X034370Y064535D01*
X034374Y064285D01*
X030124Y060535D02*
X029563Y059974D01*
X028378Y059974D01*
X028378Y054539D01*
X028374Y054160D01*
X028374Y050160D01*
X028374Y040910D01*
X027624Y040160D01*
X026374Y040160D01*
X020374Y039160D02*
X019374Y039160D01*
X016624Y041910D01*
X016624Y077035D01*
X019874Y080285D01*
X021499Y080285D01*
X023124Y080285D01*
X025124Y078285D01*
X026374Y078285D01*
X029546Y080280D02*
X032546Y080280D01*
X037370Y078781D02*
X043753Y078781D01*
X045124Y077410D01*
X028374Y054160D02*
X026374Y054160D01*
X028374Y050160D02*
X030249Y050160D01*
D28*
X031749Y044660D03*
X032874Y044660D03*
X031374Y042660D03*
X019749Y055410D03*
X022749Y056785D03*
X032124Y057410D03*
X032874Y058160D03*
X034374Y064285D03*
X032124Y068035D03*
X023374Y078660D03*
X055374Y076035D03*
X058124Y065160D03*
X057749Y064160D03*
D29*
X054374Y073910D02*
X054374Y074910D01*
X049374Y074910D01*
X046749Y074910D01*
X046749Y077410D01*
X045124Y077410D01*
X049374Y074910D02*
X049374Y073910D01*
X066874Y044335D02*
X072374Y045035D01*
X072374Y042160D01*
X072374Y039035D01*
X072374Y034335D01*
D30*
X072374Y039035D02*
X072349Y039060D01*
X066074Y037435D01*
X066074Y040435D02*
X072274Y042060D01*
X072374Y042160D01*
X058374Y042535D02*
X042374Y042535D01*
X042374Y039660D01*
X037249Y043160D02*
X037999Y052035D01*
X038374Y052035D02*
X052999Y053785D01*
X053374Y054160D01*
X053374Y054910D01*
X058249Y054785D02*
X058249Y053035D01*
X058249Y054785D02*
X058374Y054910D01*
X058374Y045660D02*
X058374Y042535D01*
X037249Y043160D02*
X036249Y043160D01*
X036249Y042160D02*
X035999Y042160D01*
X032874Y046285D02*
X032874Y058160D01*
X033624Y057910D02*
X033624Y049285D01*
X034749Y048160D01*
X036249Y048160D01*
X031499Y045535D02*
X031499Y057410D01*
X031499Y057660D01*
X031499Y057410D02*
X030999Y068035D01*
X030999Y079035D01*
X027874Y078660D02*
X027249Y079285D01*
X026374Y079285D01*
X027124Y078785D02*
X025499Y078785D01*
X025124Y079160D01*
X025124Y080535D01*
X025624Y081035D01*
X033499Y081035D01*
X034874Y079660D01*
X046499Y079660D01*
X042999Y068410D02*
X042249Y068410D01*
X042999Y068410D02*
X043249Y068160D01*
X043249Y063251D01*
X042408Y062410D01*
X041874Y062410D01*
X033624Y057910D02*
X032124Y061660D01*
X032124Y068035D01*
X028624Y069285D02*
X028624Y064535D01*
X029124Y064035D01*
X027374Y065035D02*
X027374Y076035D01*
X027124Y076285D01*
X026374Y076285D01*
X025624Y076785D02*
X027124Y076785D01*
X027374Y077035D01*
X027374Y078535D01*
X027124Y078785D01*
X027874Y078660D02*
X027874Y073410D01*
X027749Y073160D01*
X027749Y069410D01*
X028124Y069785D02*
X028624Y069285D01*
X028124Y069785D02*
X028124Y072530D01*
X028874Y073280D01*
X029546Y073280D01*
X029546Y072280D02*
X028999Y072280D01*
X028624Y071905D01*
X028624Y070160D01*
X026374Y070285D02*
X025624Y070285D01*
X025249Y070660D01*
X025249Y076410D01*
X025624Y076785D01*
X025249Y077285D02*
X026374Y077285D01*
X025249Y077285D02*
X023999Y076035D01*
X023999Y068660D01*
X022374Y067035D01*
X022374Y064160D01*
X021874Y063660D01*
X021874Y063535D01*
X022874Y063535D02*
X022874Y066535D01*
X025624Y069285D01*
X026374Y069285D01*
X026374Y068285D02*
X025624Y068285D01*
X023874Y066535D01*
X023874Y063535D01*
X024874Y063535D02*
X024874Y066535D01*
X025624Y067285D01*
X026374Y067285D01*
X026124Y064660D02*
X025874Y064410D01*
X025874Y063535D01*
X026124Y064660D02*
X026999Y064660D01*
X024874Y062410D02*
X024874Y062285D01*
X023374Y060785D01*
X023374Y059978D01*
X023378Y059974D01*
X021499Y061785D02*
X021874Y062160D01*
X021499Y061785D02*
X020749Y061785D01*
X019874Y060910D01*
X019874Y060660D01*
X020378Y059974D02*
X020374Y059970D01*
X020374Y058910D01*
X020624Y058660D01*
X020624Y054785D01*
X020374Y054535D01*
X020374Y054160D01*
X020374Y053160D02*
X020874Y053160D01*
X021124Y051160D02*
X020374Y051160D01*
X020374Y050160D02*
X018874Y050160D01*
X018249Y050785D01*
X018249Y060535D01*
X019874Y062160D01*
X019874Y062285D01*
X020378Y062974D02*
X020374Y062978D01*
X020374Y063160D01*
X021874Y064660D01*
X021874Y067410D01*
X023374Y068910D01*
X023374Y078660D01*
X021499Y080285D02*
X021499Y071785D01*
X021499Y071035D01*
X021249Y070785D01*
X021124Y070785D01*
X020999Y071785D02*
X021499Y071785D01*
X020374Y073285D02*
X019874Y073285D01*
X018124Y071535D01*
X018124Y061410D01*
X017874Y061160D01*
X017874Y048910D01*
X019124Y047660D01*
X021374Y047660D01*
X021999Y047035D01*
X021999Y043410D01*
X021249Y042660D01*
X019624Y042660D01*
X019124Y042160D01*
X019624Y041660D01*
X024874Y041660D01*
X025374Y042160D01*
X026374Y042160D01*
X022749Y043535D02*
X022749Y056785D01*
X019749Y058785D02*
X019874Y059285D01*
X019749Y058785D02*
X019749Y055410D01*
X025374Y051660D02*
X025374Y051035D01*
X025749Y050660D01*
X026374Y051160D02*
X027249Y051160D01*
X027749Y050660D01*
X027749Y049410D01*
X026999Y048660D01*
X026374Y049160D02*
X025374Y049160D01*
X026999Y049660D02*
X027124Y049660D01*
X027374Y049910D01*
X027374Y050410D01*
X027124Y050660D01*
X026999Y050660D01*
X026374Y052160D02*
X025874Y052160D01*
X025374Y051660D01*
X020374Y046160D02*
X019124Y046160D01*
X017499Y047785D01*
X017499Y072285D01*
X019499Y074285D01*
X020374Y074285D01*
X020374Y067285D02*
X021124Y067285D01*
X021374Y067035D01*
X021374Y064910D01*
X020499Y064035D01*
X020249Y064035D01*
X031499Y045535D02*
X030874Y045160D01*
X030249Y045160D01*
X022749Y043535D02*
X021374Y042160D01*
X020374Y042160D01*
D31*
X023124Y046410D02*
X023124Y056035D01*
X023874Y056785D01*
X023874Y060660D01*
X025874Y062410D01*
X025874Y063535D01*
X024874Y063535D02*
X024874Y062410D01*
X023874Y062160D02*
X022749Y061035D01*
X021749Y061035D01*
X021374Y060660D01*
X021374Y059978D01*
X021378Y059974D01*
X021374Y059970D01*
X021374Y058410D01*
X021124Y057660D01*
X021124Y055410D01*
X021499Y055035D01*
X021499Y053535D01*
X021124Y053160D01*
X020874Y053160D01*
X020374Y052160D02*
X021374Y052160D01*
X021999Y052785D01*
X021999Y055160D01*
X021499Y055535D01*
X021499Y057285D01*
X022374Y058660D01*
X022374Y059970D01*
X022378Y059974D01*
X021378Y059974D02*
X021374Y059470D01*
X020378Y059974D02*
X020374Y059978D01*
X020374Y060660D01*
X021124Y061410D01*
X022249Y061410D01*
X022874Y062035D01*
X022874Y063535D01*
X021874Y063535D02*
X021874Y062160D01*
X023874Y062160D02*
X023874Y063535D01*
X026124Y061785D02*
X024874Y060785D01*
X024874Y057160D01*
X023499Y055785D01*
X023499Y047035D01*
X026374Y044160D01*
X026374Y043160D02*
X023124Y046410D01*
X025374Y048660D02*
X023874Y050160D01*
X023874Y055535D01*
X025374Y057035D01*
X025374Y059970D01*
X025378Y059974D01*
X025874Y060660D02*
X025874Y056910D01*
X024249Y055285D01*
X024249Y050285D01*
X025374Y049160D01*
X025374Y048660D02*
X026999Y048660D01*
X026999Y049660D02*
X025499Y049660D01*
X024624Y050535D01*
X024624Y055035D01*
X026374Y056785D01*
X026374Y059970D01*
X026378Y059974D01*
X025874Y060660D02*
X026999Y061535D01*
X029124Y062285D01*
X029124Y064035D01*
X027374Y065035D02*
X026999Y064660D01*
X027874Y062285D02*
X027624Y062035D01*
X026999Y062035D01*
X026749Y061785D01*
X026124Y061785D01*
X026874Y060910D02*
X026874Y056660D01*
X024999Y054785D01*
X024999Y050660D01*
X025499Y050160D01*
X026374Y050160D01*
X026999Y050660D02*
X025749Y050660D01*
X025749Y053160D02*
X025499Y053410D01*
X025499Y054660D01*
X027374Y056535D01*
X027374Y059970D01*
X027378Y059974D01*
X026874Y060910D02*
X029499Y061910D01*
X029499Y069285D01*
X028624Y070160D01*
X027749Y069410D02*
X027874Y069285D01*
X027874Y062285D01*
X023378Y059974D02*
X023378Y059039D01*
X021999Y057160D01*
X021999Y055910D01*
X022374Y055410D01*
X022374Y052410D01*
X021124Y051160D01*
X025749Y053160D02*
X026374Y053160D01*
X032124Y057410D02*
X032124Y046660D01*
X032874Y046285D02*
X031749Y045160D01*
X031749Y044660D01*
X032874Y044660D02*
X032874Y040035D01*
X031999Y039160D01*
X030249Y039160D01*
X032249Y038535D01*
X039999Y038285D01*
X040999Y051035D01*
X056999Y051410D01*
X058249Y053035D01*
X056624Y052160D02*
X039624Y050535D01*
X038874Y039160D01*
X036249Y039160D01*
X036249Y040160D02*
X038499Y040035D01*
X038999Y050910D01*
X055624Y052660D01*
X056374Y054910D01*
X055374Y054910D02*
X054749Y053160D01*
X038624Y051160D01*
X038249Y041160D01*
X036249Y041160D01*
X035999Y042160D02*
X037874Y042035D01*
X038374Y051535D01*
X054249Y053410D01*
X054374Y054910D01*
X057374Y054910D02*
X056624Y052160D01*
X059124Y046660D02*
X059374Y046410D01*
X059374Y045660D01*
X059124Y046660D02*
X043749Y046660D01*
X042374Y048035D01*
X042374Y048910D01*
X038374Y052035D02*
X037999Y052035D01*
X040624Y057410D02*
X041124Y057910D01*
X041749Y057910D01*
X040999Y058785D01*
X040999Y074160D01*
X040249Y074910D01*
X038499Y074910D01*
X037999Y075285D01*
X036124Y075285D01*
X035628Y075781D01*
X034370Y075781D01*
X034370Y074781D02*
X035878Y074781D01*
X036374Y074285D01*
X037999Y074285D01*
X038499Y073910D01*
X039999Y073910D01*
X040499Y073410D01*
X040499Y059160D01*
X040124Y058785D01*
X039624Y058785D01*
X040249Y057785D01*
X038749Y058660D02*
X038124Y059285D01*
X038124Y067660D01*
X036499Y069285D01*
X036499Y073160D01*
X035878Y073781D01*
X034370Y073781D01*
X029546Y076280D02*
X029542Y076285D01*
X028624Y076285D01*
X028374Y076535D01*
X028374Y079285D01*
X028874Y079785D01*
X030374Y079785D01*
X030999Y079035D01*
X020999Y071785D02*
X019749Y071785D01*
X019249Y070785D02*
X021124Y070785D01*
X020249Y064035D02*
X019874Y063660D01*
X019874Y062285D01*
X019874Y060660D02*
X019874Y059285D01*
X031374Y042660D02*
X031374Y040160D01*
X030249Y040160D01*
X050749Y057410D02*
X049624Y059785D01*
X050374Y061910D01*
X050124Y059535D02*
X051249Y057285D01*
X051749Y057410D02*
X050624Y059160D01*
X052874Y059160D01*
X053874Y060160D01*
X053874Y062410D01*
X054374Y062910D01*
X053374Y061910D02*
X053374Y060285D01*
X052624Y059535D01*
X050124Y059535D01*
X057749Y064160D02*
X055874Y066660D01*
X055874Y075785D01*
X055374Y076035D01*
X055874Y077035D02*
X049124Y077035D01*
X046499Y079660D01*
X055624Y079910D02*
X056374Y080660D01*
X061374Y080660D01*
X061749Y079035D02*
X060124Y079035D01*
X059249Y079910D01*
X060499Y078785D02*
X063999Y076910D01*
X063499Y076160D02*
X061249Y076910D01*
X059749Y076910D01*
X059249Y077910D01*
X059374Y076160D02*
X062374Y076160D01*
X061999Y075535D02*
X062624Y074910D01*
X062749Y069285D01*
X063624Y068410D01*
X060374Y069910D02*
X059906Y070442D01*
X058374Y070410D01*
X057460Y070910D01*
X057374Y072910D01*
X057374Y073910D02*
X057374Y074160D01*
X059374Y076160D01*
X059249Y075410D02*
X061999Y075535D01*
X059249Y075410D02*
X058374Y074535D01*
X058374Y073910D01*
X056874Y076035D02*
X055874Y077035D01*
X055624Y077910D02*
X056499Y078785D01*
X060499Y078785D01*
X056874Y076035D02*
X056874Y066910D01*
X058124Y065160D01*
D32*
X019378Y062974D02*
X019249Y063103D01*
X019249Y070785D01*
X019249Y071410D01*
X019624Y071785D01*
X019749Y071785D01*
D33*
X042249Y068410D03*
D34*
X041874Y062410D03*
D35*
X048999Y079410D03*
X063874Y079410D03*
X089624Y062660D03*
X093124Y054660D03*
X017499Y079410D03*
X001124Y079160D03*
M02*
