G75*
G70*
%OFA0B0*%
%FSLAX24Y24*%
%IPPOS*%
%LPD*%
%AMOC8*
5,1,8,0,0,1.08239X$1,22.5*
%
%ADD10C,0.0060*%
%ADD11C,0.0040*%
%ADD12R,0.0256X0.0551*%
%ADD13R,0.0690X0.0290*%
%ADD14R,0.0720X0.0230*%
%ADD15R,0.0551X0.0256*%
%ADD16R,0.0290X0.0690*%
%ADD17R,0.0295X0.0571*%
%ADD18C,0.0050*%
%ADD19R,0.1000X0.0200*%
%ADD20R,0.0200X0.1000*%
%ADD21R,0.0230X0.0720*%
%ADD22R,0.0295X0.0669*%
%ADD23R,0.0560X0.0140*%
%ADD24R,0.0571X0.0295*%
%ADD25R,0.0669X0.0295*%
D10*
X009045Y004875D02*
X009367Y004875D01*
X009367Y005375D02*
X009045Y005375D01*
X009045Y005875D02*
X009367Y005875D01*
X009367Y006375D02*
X009045Y006375D01*
X031751Y021175D02*
X031751Y022075D01*
X032411Y022075D02*
X032411Y021175D01*
X031036Y023675D02*
X031036Y024575D01*
X030376Y024575D02*
X030376Y023675D01*
X043826Y023555D02*
X044581Y023555D01*
X044581Y024195D02*
X043826Y024195D01*
X045456Y023661D02*
X045456Y023339D01*
X045956Y023339D02*
X045956Y023661D01*
X046261Y024125D02*
X046261Y024880D01*
X046901Y024880D02*
X046901Y024125D01*
X047331Y024589D02*
X047331Y024911D01*
X047831Y024911D02*
X047831Y024589D01*
X048331Y024470D02*
X048331Y025030D01*
X048831Y025030D02*
X048831Y024470D01*
X049331Y024464D02*
X049331Y024786D01*
X049831Y024786D02*
X049831Y024464D01*
X050331Y024464D02*
X050331Y024786D01*
X050831Y024786D02*
X050831Y024464D01*
X051331Y024464D02*
X051331Y024786D01*
X051831Y024786D02*
X051831Y024464D01*
X052331Y024464D02*
X052331Y024786D01*
X052831Y024786D02*
X052831Y024464D01*
X053331Y024464D02*
X053331Y024786D01*
X053831Y024786D02*
X053831Y024464D01*
X054331Y024464D02*
X054331Y024786D01*
X054831Y024786D02*
X054831Y024464D01*
X051581Y023036D02*
X051581Y022714D01*
X051081Y022714D02*
X051081Y023036D01*
X052081Y022411D02*
X052081Y022089D01*
X052581Y022089D02*
X052581Y022411D01*
X049456Y021695D02*
X048701Y021695D01*
X049045Y022000D02*
X049367Y022000D01*
X049367Y022500D02*
X049045Y022500D01*
X048331Y022805D02*
X047576Y022805D01*
X047576Y023445D02*
X048331Y023445D01*
X047831Y021786D02*
X047831Y021464D01*
X047331Y021464D02*
X047331Y021786D01*
X046831Y021786D02*
X046831Y021464D01*
X046331Y021464D02*
X046331Y021786D01*
X045492Y021750D02*
X045170Y021750D01*
X045170Y022250D02*
X045492Y022250D01*
X048701Y021055D02*
X049456Y021055D01*
X049906Y018875D02*
X050106Y018875D01*
X050106Y017875D01*
X049906Y017875D01*
X049906Y018375D01*
X049906Y018875D01*
X049906Y018375D02*
X049556Y018375D01*
X049556Y018025D02*
X049556Y017875D01*
X049556Y017725D01*
X049556Y017875D02*
X049706Y017875D01*
X049556Y017875D02*
X049406Y017875D01*
X049106Y018375D02*
X049108Y018441D01*
X049114Y018506D01*
X049124Y018571D01*
X049137Y018636D01*
X049155Y018699D01*
X049176Y018762D01*
X049201Y018822D01*
X049230Y018882D01*
X049262Y018939D01*
X049297Y018995D01*
X049336Y019048D01*
X049378Y019099D01*
X049422Y019147D01*
X049470Y019192D01*
X049520Y019235D01*
X049573Y019274D01*
X049628Y019311D01*
X049685Y019344D01*
X049744Y019373D01*
X049804Y019399D01*
X049866Y019421D01*
X049929Y019440D01*
X049993Y019454D01*
X050058Y019465D01*
X050124Y019472D01*
X050190Y019475D01*
X050255Y019474D01*
X050321Y019469D01*
X050386Y019460D01*
X050451Y019447D01*
X050514Y019431D01*
X050577Y019411D01*
X050638Y019386D01*
X050698Y019359D01*
X050756Y019328D01*
X050812Y019293D01*
X050866Y019255D01*
X050917Y019214D01*
X050966Y019170D01*
X051012Y019123D01*
X051056Y019074D01*
X051096Y019022D01*
X051133Y018967D01*
X051167Y018911D01*
X051197Y018852D01*
X051224Y018792D01*
X051247Y018731D01*
X051266Y018668D01*
X051282Y018604D01*
X051294Y018539D01*
X051302Y018474D01*
X051306Y018408D01*
X051306Y018342D01*
X051302Y018276D01*
X051294Y018211D01*
X051282Y018146D01*
X051266Y018082D01*
X051247Y018019D01*
X051224Y017958D01*
X051197Y017898D01*
X051167Y017839D01*
X051133Y017783D01*
X051096Y017728D01*
X051056Y017676D01*
X051012Y017627D01*
X050966Y017580D01*
X050917Y017536D01*
X050866Y017495D01*
X050812Y017457D01*
X050756Y017422D01*
X050698Y017391D01*
X050638Y017364D01*
X050577Y017339D01*
X050514Y017319D01*
X050451Y017303D01*
X050386Y017290D01*
X050321Y017281D01*
X050255Y017276D01*
X050190Y017275D01*
X050124Y017278D01*
X050058Y017285D01*
X049993Y017296D01*
X049929Y017310D01*
X049866Y017329D01*
X049804Y017351D01*
X049744Y017377D01*
X049685Y017406D01*
X049628Y017439D01*
X049573Y017476D01*
X049520Y017515D01*
X049470Y017558D01*
X049422Y017603D01*
X049378Y017651D01*
X049336Y017702D01*
X049297Y017755D01*
X049262Y017811D01*
X049230Y017868D01*
X049201Y017928D01*
X049176Y017988D01*
X049155Y018051D01*
X049137Y018114D01*
X049124Y018179D01*
X049114Y018244D01*
X049108Y018309D01*
X049106Y018375D01*
X048331Y018350D02*
X047331Y018350D01*
X047331Y018550D01*
X047831Y018550D01*
X048331Y018550D01*
X048331Y018350D01*
X046731Y018250D02*
X046733Y018316D01*
X046739Y018381D01*
X046749Y018446D01*
X046762Y018511D01*
X046780Y018574D01*
X046801Y018637D01*
X046826Y018697D01*
X046855Y018757D01*
X046887Y018814D01*
X046922Y018870D01*
X046961Y018923D01*
X047003Y018974D01*
X047047Y019022D01*
X047095Y019067D01*
X047145Y019110D01*
X047198Y019149D01*
X047253Y019186D01*
X047310Y019219D01*
X047369Y019248D01*
X047429Y019274D01*
X047491Y019296D01*
X047554Y019315D01*
X047618Y019329D01*
X047683Y019340D01*
X047749Y019347D01*
X047815Y019350D01*
X047880Y019349D01*
X047946Y019344D01*
X048011Y019335D01*
X048076Y019322D01*
X048139Y019306D01*
X048202Y019286D01*
X048263Y019261D01*
X048323Y019234D01*
X048381Y019203D01*
X048437Y019168D01*
X048491Y019130D01*
X048542Y019089D01*
X048591Y019045D01*
X048637Y018998D01*
X048681Y018949D01*
X048721Y018897D01*
X048758Y018842D01*
X048792Y018786D01*
X048822Y018727D01*
X048849Y018667D01*
X048872Y018606D01*
X048891Y018543D01*
X048907Y018479D01*
X048919Y018414D01*
X048927Y018349D01*
X048931Y018283D01*
X048931Y018217D01*
X048927Y018151D01*
X048919Y018086D01*
X048907Y018021D01*
X048891Y017957D01*
X048872Y017894D01*
X048849Y017833D01*
X048822Y017773D01*
X048792Y017714D01*
X048758Y017658D01*
X048721Y017603D01*
X048681Y017551D01*
X048637Y017502D01*
X048591Y017455D01*
X048542Y017411D01*
X048491Y017370D01*
X048437Y017332D01*
X048381Y017297D01*
X048323Y017266D01*
X048263Y017239D01*
X048202Y017214D01*
X048139Y017194D01*
X048076Y017178D01*
X048011Y017165D01*
X047946Y017156D01*
X047880Y017151D01*
X047815Y017150D01*
X047749Y017153D01*
X047683Y017160D01*
X047618Y017171D01*
X047554Y017185D01*
X047491Y017204D01*
X047429Y017226D01*
X047369Y017252D01*
X047310Y017281D01*
X047253Y017314D01*
X047198Y017351D01*
X047145Y017390D01*
X047095Y017433D01*
X047047Y017478D01*
X047003Y017526D01*
X046961Y017577D01*
X046922Y017630D01*
X046887Y017686D01*
X046855Y017743D01*
X046826Y017803D01*
X046801Y017863D01*
X046780Y017926D01*
X046762Y017989D01*
X046749Y018054D01*
X046739Y018119D01*
X046733Y018184D01*
X046731Y018250D01*
X047331Y018750D02*
X047331Y018900D01*
X047181Y018900D01*
X047331Y018900D02*
X047481Y018900D01*
X047331Y018900D02*
X047331Y019050D01*
X047831Y018900D02*
X047831Y018550D01*
X047831Y018000D02*
X047831Y017600D01*
X050456Y018375D02*
X050856Y018375D01*
X059170Y013875D02*
X059492Y013875D01*
X059492Y013375D02*
X059170Y013375D01*
X061331Y024464D02*
X061331Y024786D01*
X061831Y024786D02*
X061831Y024464D01*
X075670Y032750D02*
X075992Y032750D01*
X075992Y033250D02*
X075670Y033250D01*
X076670Y033625D02*
X076992Y033625D01*
X076992Y034125D02*
X076670Y034125D01*
X077670Y033250D02*
X077992Y033250D01*
X077992Y032750D02*
X077670Y032750D01*
X078670Y033625D02*
X078992Y033625D01*
X078992Y034125D02*
X078670Y034125D01*
X082576Y043180D02*
X083331Y043180D01*
X083331Y043820D02*
X082576Y043820D01*
X087011Y043755D02*
X087011Y043000D01*
X087651Y043000D02*
X087651Y043755D01*
X083531Y048170D02*
X082631Y048170D01*
X082631Y048830D02*
X083531Y048830D01*
X086201Y050805D02*
X086956Y050805D01*
X086956Y051445D02*
X086201Y051445D01*
X087011Y053125D02*
X087011Y053880D01*
X087651Y053880D02*
X087651Y053125D01*
X087581Y055470D02*
X087581Y056030D01*
X087081Y056030D02*
X087081Y055470D01*
X100331Y048786D02*
X100331Y048464D01*
X100831Y048464D02*
X100831Y048786D01*
X102081Y049089D02*
X102081Y049411D01*
X102581Y049411D02*
X102581Y049089D01*
X100742Y049875D02*
X100420Y049875D01*
X100420Y050375D02*
X100742Y050375D01*
X104581Y052839D02*
X104581Y053161D01*
X105081Y053161D02*
X105081Y052839D01*
X105581Y052839D02*
X105581Y053161D01*
X106081Y053161D02*
X106081Y052839D01*
X105831Y048911D02*
X105831Y048589D01*
X105331Y048589D02*
X105331Y048911D01*
X103831Y047536D02*
X103831Y047214D01*
X103331Y047214D02*
X103331Y047536D01*
X057201Y049333D02*
X056667Y049866D01*
X056215Y049414D02*
X056748Y048880D01*
X054867Y048500D02*
X054545Y048500D01*
X054545Y048000D02*
X054867Y048000D01*
X055795Y046000D02*
X056117Y046000D01*
X056117Y045500D02*
X055795Y045500D01*
X055795Y045125D02*
X056117Y045125D01*
X056117Y044625D02*
X055795Y044625D01*
X055511Y043005D02*
X055511Y042250D01*
X056151Y042250D02*
X056151Y043005D01*
X051831Y048964D02*
X051831Y049286D01*
X051331Y049286D02*
X051331Y048964D01*
X053415Y050187D02*
X053643Y049959D01*
X053997Y050313D02*
X053769Y050541D01*
D11*
X009396Y004145D02*
X009089Y004145D01*
X009396Y004145D02*
X009089Y004452D01*
X009089Y004529D01*
X009166Y004605D01*
X009320Y004605D01*
X009396Y004529D01*
X009550Y004529D02*
X009627Y004605D01*
X009780Y004605D01*
X009857Y004529D01*
X010010Y004529D02*
X010010Y004375D01*
X010087Y004298D01*
X010317Y004298D01*
X010317Y004145D02*
X010317Y004605D01*
X010087Y004605D01*
X010010Y004529D01*
X010164Y004298D02*
X010010Y004145D01*
X009857Y004145D02*
X009550Y004452D01*
X009550Y004529D01*
X009550Y004145D02*
X009857Y004145D01*
X009857Y005145D02*
X009550Y005452D01*
X009550Y005529D01*
X009627Y005605D01*
X009780Y005605D01*
X009857Y005529D01*
X010010Y005529D02*
X010010Y005375D01*
X010087Y005298D01*
X010317Y005298D01*
X010317Y005145D02*
X010317Y005605D01*
X010087Y005605D01*
X010010Y005529D01*
X010164Y005298D02*
X010010Y005145D01*
X009857Y005145D02*
X009550Y005145D01*
X009396Y005222D02*
X009320Y005145D01*
X009166Y005145D01*
X009089Y005222D01*
X009089Y005298D01*
X009166Y005375D01*
X009243Y005375D01*
X009166Y005375D02*
X009089Y005452D01*
X009089Y005529D01*
X009166Y005605D01*
X009320Y005605D01*
X009396Y005529D01*
X014646Y012245D02*
X014646Y013005D01*
X015266Y013005D02*
X015266Y012245D01*
X015476Y012222D02*
X015476Y012375D01*
X015553Y012452D01*
X015476Y012605D02*
X015629Y012759D01*
X015476Y012912D01*
X015936Y012912D01*
X015860Y013066D02*
X015936Y013143D01*
X015936Y013296D01*
X015860Y013373D01*
X015783Y013373D01*
X015476Y013066D01*
X015476Y013373D01*
X015553Y013526D02*
X015476Y013603D01*
X015476Y013756D01*
X015553Y013833D01*
X015860Y013833D01*
X015936Y013756D01*
X015936Y013603D01*
X015860Y013526D01*
X015783Y013526D01*
X015706Y013603D01*
X015706Y013833D01*
X015936Y012605D02*
X015476Y012605D01*
X015476Y012222D02*
X015553Y012145D01*
X015860Y012145D01*
X015936Y012222D01*
X015936Y012375D01*
X015860Y012452D01*
X027476Y019755D02*
X027476Y019909D01*
X027553Y019985D01*
X027553Y020139D02*
X027476Y020139D01*
X027476Y020446D01*
X027553Y020599D02*
X027629Y020599D01*
X027706Y020676D01*
X027706Y020829D01*
X027629Y020906D01*
X027553Y020906D01*
X027476Y020829D01*
X027476Y020676D01*
X027553Y020599D01*
X027706Y020676D02*
X027783Y020599D01*
X027860Y020599D01*
X027936Y020676D01*
X027936Y020829D01*
X027860Y020906D01*
X027783Y020906D01*
X027706Y020829D01*
X027553Y021060D02*
X027860Y021367D01*
X027553Y021367D01*
X027476Y021290D01*
X027476Y021136D01*
X027553Y021060D01*
X027860Y021060D01*
X027936Y021136D01*
X027936Y021290D01*
X027860Y021367D01*
X028196Y021150D02*
X028196Y020850D01*
X027936Y020446D02*
X027860Y020446D01*
X027553Y020139D01*
X027860Y019985D02*
X027936Y019909D01*
X027936Y019755D01*
X027860Y019678D01*
X027553Y019678D01*
X027476Y019755D01*
X027936Y020139D02*
X027936Y020446D01*
X028716Y020850D02*
X028716Y021140D01*
X032601Y021145D02*
X033061Y021145D01*
X033061Y021375D01*
X032985Y021452D01*
X032831Y021452D01*
X032754Y021375D01*
X032754Y021145D01*
X032754Y021298D02*
X032601Y021452D01*
X032601Y021605D02*
X032601Y021912D01*
X032601Y021759D02*
X033061Y021759D01*
X032908Y021605D01*
X032908Y022066D02*
X032831Y022143D01*
X032831Y022373D01*
X032678Y022373D02*
X032985Y022373D01*
X033061Y022296D01*
X033061Y022143D01*
X032985Y022066D01*
X032908Y022066D01*
X032678Y022066D02*
X032601Y022143D01*
X032601Y022296D01*
X032678Y022373D01*
X031686Y023645D02*
X031226Y023645D01*
X031379Y023645D02*
X031379Y023875D01*
X031456Y023952D01*
X031610Y023952D01*
X031686Y023875D01*
X031686Y023645D01*
X031379Y023798D02*
X031226Y023952D01*
X031226Y024105D02*
X031226Y024412D01*
X031226Y024259D02*
X031686Y024259D01*
X031533Y024105D01*
X038946Y020775D02*
X038946Y020485D01*
X039466Y020475D02*
X039466Y020775D01*
X039726Y020912D02*
X040186Y020912D01*
X040033Y020759D01*
X040186Y020605D01*
X039726Y020605D01*
X039803Y020452D02*
X039726Y020375D01*
X039726Y020222D01*
X039803Y020145D01*
X040110Y020145D01*
X040186Y020222D01*
X040186Y020375D01*
X040110Y020452D01*
X040033Y021066D02*
X040186Y021219D01*
X039726Y021219D01*
X039726Y021066D02*
X039726Y021373D01*
X039803Y021526D02*
X039726Y021603D01*
X039726Y021756D01*
X039803Y021833D01*
X039879Y021833D01*
X039956Y021756D01*
X039956Y021526D01*
X039803Y021526D01*
X039956Y021526D02*
X040110Y021680D01*
X040186Y021833D01*
X043839Y023279D02*
X043993Y023125D01*
X043993Y022895D01*
X043993Y023125D02*
X044146Y023279D01*
X044146Y023355D01*
X044300Y023279D02*
X044300Y023202D01*
X044377Y023125D01*
X044300Y023048D01*
X044300Y022972D01*
X044377Y022895D01*
X044530Y022895D01*
X044607Y022972D01*
X044640Y022980D02*
X044640Y022904D01*
X044487Y022750D01*
X044487Y022520D01*
X044487Y022750D02*
X044333Y022904D01*
X044333Y022980D01*
X044377Y023125D02*
X044453Y023125D01*
X044300Y023279D02*
X044377Y023355D01*
X044530Y023355D01*
X044607Y023279D01*
X044760Y023279D02*
X044760Y023125D01*
X044837Y023048D01*
X045067Y023048D01*
X045101Y022980D02*
X045101Y022750D01*
X044947Y022827D01*
X044870Y022827D01*
X044794Y022750D01*
X044794Y022597D01*
X044870Y022520D01*
X045024Y022520D01*
X045101Y022597D01*
X045186Y022619D02*
X045110Y022696D01*
X044956Y022696D01*
X044879Y022619D01*
X044879Y022389D01*
X044726Y022389D02*
X045186Y022389D01*
X045186Y022619D01*
X045254Y022520D02*
X045408Y022673D01*
X045331Y022673D02*
X045561Y022673D01*
X045561Y022520D02*
X045561Y022980D01*
X045331Y022980D01*
X045254Y022904D01*
X045254Y022750D01*
X045331Y022673D01*
X045110Y022849D02*
X045033Y022849D01*
X044956Y022926D01*
X044956Y023079D01*
X044879Y023156D01*
X044803Y023156D01*
X044726Y023079D01*
X044726Y022926D01*
X044803Y022849D01*
X044879Y022849D01*
X044956Y022926D01*
X045067Y022895D02*
X045067Y023355D01*
X044837Y023355D01*
X044760Y023279D01*
X044726Y023463D02*
X044956Y023463D01*
X045110Y023617D01*
X045186Y023617D01*
X044956Y023463D02*
X045110Y023310D01*
X045186Y023310D01*
X045110Y023156D02*
X045033Y023156D01*
X044956Y023079D01*
X044914Y023048D02*
X044760Y022895D01*
X044794Y022980D02*
X045101Y022980D01*
X045186Y022926D02*
X045186Y023079D01*
X045110Y023156D01*
X045186Y022926D02*
X045110Y022849D01*
X044879Y022542D02*
X044726Y022696D01*
X043839Y023279D02*
X043839Y023355D01*
X045601Y023639D02*
X046061Y023639D01*
X046061Y023869D01*
X045985Y023946D01*
X045831Y023946D01*
X045754Y023869D01*
X045754Y023639D01*
X045754Y023792D02*
X045601Y023946D01*
X045831Y024099D02*
X045831Y024406D01*
X045985Y024560D02*
X045831Y024713D01*
X045601Y024713D01*
X045831Y024713D02*
X045985Y024867D01*
X046061Y024867D01*
X046061Y024560D02*
X045985Y024560D01*
X046061Y024329D02*
X045601Y024329D01*
X045831Y024099D02*
X046061Y024329D01*
X046601Y024253D02*
X047061Y024253D01*
X046908Y024099D01*
X046985Y023946D02*
X046831Y023946D01*
X046754Y023869D01*
X046754Y023639D01*
X046601Y023639D02*
X047061Y023639D01*
X047061Y023869D01*
X046985Y023946D01*
X046754Y023792D02*
X046601Y023946D01*
X046601Y024099D02*
X046601Y024406D01*
X046601Y024560D02*
X046601Y024790D01*
X046678Y024867D01*
X046985Y024867D01*
X047061Y024790D01*
X047061Y024560D01*
X046601Y024560D01*
X047601Y024656D02*
X047601Y024349D01*
X047908Y024656D01*
X047985Y024656D01*
X048061Y024579D01*
X048061Y024426D01*
X047985Y024349D01*
X047985Y024196D02*
X047831Y024196D01*
X047754Y024119D01*
X047754Y023889D01*
X047601Y023889D02*
X048061Y023889D01*
X048061Y024119D01*
X047985Y024196D01*
X047754Y024042D02*
X047601Y024196D01*
X047601Y024810D02*
X047601Y025040D01*
X047678Y025117D01*
X047985Y025117D01*
X048061Y025040D01*
X048061Y024810D01*
X047601Y024810D01*
X048601Y024665D02*
X048678Y024742D01*
X048985Y024742D01*
X049061Y024665D01*
X049061Y024435D01*
X048601Y024435D01*
X048601Y024665D01*
X048678Y024281D02*
X048601Y024204D01*
X048601Y024051D01*
X048678Y023974D01*
X048601Y023821D02*
X048754Y023667D01*
X048754Y023744D02*
X048754Y023514D01*
X048601Y023514D02*
X049061Y023514D01*
X049061Y023744D01*
X048985Y023821D01*
X048831Y023821D01*
X048754Y023744D01*
X048985Y023974D02*
X049061Y024051D01*
X049061Y024204D01*
X048985Y024281D01*
X048908Y024281D01*
X048831Y024204D01*
X048754Y024281D01*
X048678Y024281D01*
X048831Y024204D02*
X048831Y024128D01*
X049601Y024204D02*
X050061Y024204D01*
X049831Y023974D01*
X049831Y024281D01*
X049601Y024435D02*
X049601Y024665D01*
X049678Y024742D01*
X049985Y024742D01*
X050061Y024665D01*
X050061Y024435D01*
X049601Y024435D01*
X049601Y023821D02*
X049754Y023667D01*
X049754Y023744D02*
X049754Y023514D01*
X049601Y023514D02*
X050061Y023514D01*
X050061Y023744D01*
X049985Y023821D01*
X049831Y023821D01*
X049754Y023744D01*
X050601Y023821D02*
X050754Y023667D01*
X050754Y023744D02*
X050754Y023514D01*
X050601Y023514D02*
X051061Y023514D01*
X051061Y023744D01*
X050985Y023821D01*
X050831Y023821D01*
X050754Y023744D01*
X050678Y023974D02*
X050601Y024051D01*
X050601Y024204D01*
X050678Y024281D01*
X050831Y024281D01*
X050908Y024204D01*
X050908Y024128D01*
X050831Y023974D01*
X051061Y023974D01*
X051061Y024281D01*
X051061Y024435D02*
X051061Y024665D01*
X050985Y024742D01*
X050678Y024742D01*
X050601Y024665D01*
X050601Y024435D01*
X051061Y024435D01*
X051601Y024435D02*
X051601Y024665D01*
X051678Y024742D01*
X051985Y024742D01*
X052061Y024665D01*
X052061Y024435D01*
X051601Y024435D01*
X051678Y024281D02*
X051754Y024281D01*
X051831Y024204D01*
X051831Y023974D01*
X051678Y023974D01*
X051601Y024051D01*
X051601Y024204D01*
X051678Y024281D01*
X051985Y024128D02*
X051831Y023974D01*
X051831Y023821D02*
X051754Y023744D01*
X051754Y023514D01*
X051601Y023514D02*
X052061Y023514D01*
X052061Y023744D01*
X051985Y023821D01*
X051831Y023821D01*
X051851Y023719D02*
X052081Y023719D01*
X052235Y023873D01*
X052311Y023873D01*
X052081Y023719D02*
X052235Y023566D01*
X052311Y023566D01*
X052235Y023412D02*
X052311Y023336D01*
X052311Y023182D01*
X052235Y023105D01*
X052158Y023105D01*
X052081Y023182D01*
X052081Y023412D01*
X051928Y023412D02*
X052235Y023412D01*
X051928Y023412D02*
X051851Y023336D01*
X051851Y023182D01*
X051928Y023105D01*
X051851Y022952D02*
X052004Y022798D01*
X052004Y022875D02*
X052004Y022645D01*
X051851Y022645D02*
X052311Y022645D01*
X052311Y022875D01*
X052235Y022952D01*
X052081Y022952D01*
X052004Y022875D01*
X051754Y023667D02*
X051601Y023821D01*
X051985Y024128D02*
X052061Y024281D01*
X052601Y024435D02*
X052601Y024665D01*
X052678Y024742D01*
X052985Y024742D01*
X053061Y024665D01*
X053061Y024435D01*
X052601Y024435D01*
X052985Y024281D02*
X052678Y023974D01*
X052601Y023974D01*
X052601Y023821D02*
X052754Y023667D01*
X052754Y023744D02*
X052754Y023514D01*
X052601Y023514D02*
X053061Y023514D01*
X053061Y023744D01*
X052985Y023821D01*
X052831Y023821D01*
X052754Y023744D01*
X053061Y023974D02*
X053061Y024281D01*
X052985Y024281D01*
X053601Y024204D02*
X053601Y024051D01*
X053678Y023974D01*
X053754Y023974D01*
X053831Y024051D01*
X053831Y024204D01*
X053754Y024281D01*
X053678Y024281D01*
X053601Y024204D01*
X053831Y024204D02*
X053908Y024281D01*
X053985Y024281D01*
X054061Y024204D01*
X054061Y024051D01*
X053985Y023974D01*
X053908Y023974D01*
X053831Y024051D01*
X053831Y023821D02*
X053754Y023744D01*
X053754Y023514D01*
X053601Y023514D02*
X054061Y023514D01*
X054061Y023744D01*
X053985Y023821D01*
X053831Y023821D01*
X053754Y023667D02*
X053601Y023821D01*
X053601Y024435D02*
X053601Y024665D01*
X053678Y024742D01*
X053985Y024742D01*
X054061Y024665D01*
X054061Y024435D01*
X053601Y024435D01*
X052851Y023248D02*
X052851Y022941D01*
X052851Y023094D02*
X053311Y023094D01*
X053158Y022941D01*
X053235Y022787D02*
X053081Y022787D01*
X053004Y022711D01*
X053004Y022480D01*
X052851Y022480D02*
X053311Y022480D01*
X053311Y022711D01*
X053235Y022787D01*
X053004Y022634D02*
X052851Y022787D01*
X052928Y022327D02*
X053235Y022020D01*
X053235Y022173D02*
X052928Y022173D01*
X052928Y022020D02*
X053235Y022327D01*
X053081Y022327D02*
X053081Y022020D01*
X051817Y020779D02*
X051817Y020472D01*
X051740Y020395D01*
X051587Y020395D01*
X051510Y020472D01*
X051357Y020472D02*
X051280Y020395D01*
X051127Y020395D01*
X051050Y020472D01*
X051050Y020548D01*
X051127Y020625D01*
X051203Y020625D01*
X051127Y020625D02*
X051050Y020702D01*
X051050Y020779D01*
X051127Y020855D01*
X051280Y020855D01*
X051357Y020779D01*
X051510Y020779D02*
X051587Y020855D01*
X051740Y020855D01*
X051817Y020779D01*
X051106Y021115D02*
X050806Y021115D01*
X050896Y020855D02*
X050896Y020779D01*
X050743Y020625D01*
X050743Y020395D01*
X050743Y020625D02*
X050589Y020779D01*
X050589Y020855D01*
X050317Y021270D02*
X050317Y021730D01*
X050087Y021730D01*
X050010Y021654D01*
X050010Y021500D01*
X050087Y021423D01*
X050317Y021423D01*
X050164Y021423D02*
X050010Y021270D01*
X049857Y021270D02*
X049857Y021347D01*
X049550Y021654D01*
X049550Y021730D01*
X049857Y021730D01*
X049396Y021730D02*
X049396Y021654D01*
X049243Y021500D01*
X049243Y021270D01*
X049243Y021500D02*
X049089Y021654D01*
X049089Y021730D01*
X049124Y022222D02*
X049124Y022529D01*
X048971Y022529D02*
X049278Y022222D01*
X049278Y022375D02*
X048971Y022375D01*
X048971Y022222D02*
X049278Y022529D01*
X048817Y022529D02*
X048510Y022222D01*
X048485Y022316D02*
X048331Y022469D01*
X048101Y022469D01*
X048050Y022529D02*
X048050Y022375D01*
X048127Y022298D01*
X048357Y022298D01*
X048485Y022316D02*
X048561Y022316D01*
X048510Y022375D02*
X048817Y022375D01*
X048817Y022222D02*
X048510Y022529D01*
X048485Y022623D02*
X048331Y022469D01*
X048357Y022605D02*
X048357Y022145D01*
X048203Y022298D02*
X048050Y022145D01*
X048101Y022162D02*
X048101Y021855D01*
X048101Y021702D02*
X048254Y021548D01*
X048254Y021625D02*
X048254Y021395D01*
X048101Y021395D02*
X048561Y021395D01*
X048561Y021625D01*
X048485Y021702D01*
X048331Y021702D01*
X048254Y021625D01*
X048408Y021855D02*
X048561Y022009D01*
X048101Y022009D01*
X047896Y022145D02*
X047589Y022452D01*
X047589Y022529D01*
X047666Y022605D01*
X047820Y022605D01*
X047896Y022529D01*
X048050Y022529D02*
X048127Y022605D01*
X048357Y022605D01*
X048485Y022623D02*
X048561Y022623D01*
X048664Y022529D02*
X048664Y022222D01*
X047896Y022145D02*
X047589Y022145D01*
X047561Y022086D02*
X047561Y021932D01*
X047485Y021855D01*
X047485Y021702D02*
X047331Y021702D01*
X047254Y021625D01*
X047254Y021395D01*
X047101Y021395D02*
X047561Y021395D01*
X047561Y021625D01*
X047485Y021702D01*
X047254Y021548D02*
X047101Y021702D01*
X047101Y021855D02*
X047408Y022162D01*
X047485Y022162D01*
X047561Y022086D01*
X047561Y022316D02*
X047485Y022316D01*
X047331Y022469D01*
X047101Y022469D01*
X047331Y022469D02*
X047485Y022623D01*
X047561Y022623D01*
X047101Y022162D02*
X047101Y021855D01*
X048714Y020855D02*
X048714Y020779D01*
X048868Y020625D01*
X048868Y020395D01*
X048868Y020625D02*
X049021Y020779D01*
X049021Y020855D01*
X049175Y020855D02*
X049328Y020779D01*
X049482Y020625D01*
X049252Y020625D01*
X049175Y020548D01*
X049175Y020472D01*
X049252Y020395D01*
X049405Y020395D01*
X049482Y020472D01*
X049482Y020625D01*
X049635Y020625D02*
X049712Y020548D01*
X049942Y020548D01*
X049942Y020395D02*
X049942Y020855D01*
X049712Y020855D01*
X049635Y020779D01*
X049635Y020625D01*
X049789Y020548D02*
X049635Y020395D01*
X050816Y021635D02*
X051106Y021635D01*
X044721Y024740D02*
X044431Y024740D01*
X044431Y025260D02*
X044731Y025260D01*
X044831Y025520D02*
X044754Y025597D01*
X044831Y025520D02*
X044984Y025520D01*
X045061Y025597D01*
X045061Y025904D01*
X044984Y025980D01*
X044831Y025980D01*
X044754Y025904D01*
X044601Y025904D02*
X044447Y025750D01*
X044447Y025520D01*
X044447Y025750D02*
X044294Y025904D01*
X044294Y025980D01*
X044601Y025980D02*
X044601Y025904D01*
X062101Y025546D02*
X062101Y025393D01*
X062178Y025316D01*
X062485Y025623D01*
X062178Y025623D01*
X062101Y025546D01*
X062178Y025316D02*
X062485Y025316D01*
X062561Y025393D01*
X062561Y025546D01*
X062485Y025623D01*
X062485Y025162D02*
X062561Y025086D01*
X062561Y024932D01*
X062485Y024855D01*
X062485Y024702D02*
X062331Y024702D01*
X062254Y024625D01*
X062254Y024395D01*
X062101Y024395D02*
X062561Y024395D01*
X062561Y024625D01*
X062485Y024702D01*
X062254Y024548D02*
X062101Y024702D01*
X062101Y024855D02*
X062408Y025162D01*
X062485Y025162D01*
X062101Y025162D02*
X062101Y024855D01*
X073912Y033597D02*
X073989Y033520D01*
X074143Y033520D01*
X074219Y033597D01*
X074373Y033520D02*
X074680Y033520D01*
X074373Y033827D01*
X074373Y033904D01*
X074450Y033980D01*
X074603Y033980D01*
X074680Y033904D01*
X074833Y033904D02*
X074910Y033980D01*
X075063Y033980D01*
X075140Y033904D01*
X074833Y033904D02*
X074833Y033827D01*
X075140Y033520D01*
X074833Y033520D01*
X075294Y033520D02*
X075601Y033520D01*
X075754Y033520D02*
X075908Y033673D01*
X075831Y033673D02*
X076061Y033673D01*
X076061Y033520D02*
X076061Y033980D01*
X075831Y033980D01*
X075754Y033904D01*
X075754Y033750D01*
X075831Y033673D01*
X075601Y033827D02*
X075447Y033980D01*
X075447Y033520D01*
X075373Y034395D02*
X075680Y034395D01*
X075373Y034702D01*
X075373Y034779D01*
X075450Y034855D01*
X075603Y034855D01*
X075680Y034779D01*
X075987Y034855D02*
X075987Y034395D01*
X076140Y034395D02*
X075833Y034395D01*
X076140Y034702D02*
X075987Y034855D01*
X076447Y034855D02*
X076447Y034395D01*
X076294Y034395D02*
X076601Y034395D01*
X076754Y034395D02*
X076908Y034548D01*
X076831Y034548D02*
X077061Y034548D01*
X077061Y034395D02*
X077061Y034855D01*
X076831Y034855D01*
X076754Y034779D01*
X076754Y034625D01*
X076831Y034548D01*
X076601Y034702D02*
X076447Y034855D01*
X076910Y033980D02*
X076833Y033904D01*
X076833Y033827D01*
X076910Y033750D01*
X076833Y033673D01*
X076833Y033597D01*
X076910Y033520D01*
X077063Y033520D01*
X077140Y033597D01*
X077294Y033520D02*
X077447Y033673D01*
X077370Y033673D02*
X077601Y033673D01*
X077601Y033520D02*
X077601Y033980D01*
X077370Y033980D01*
X077294Y033904D01*
X077294Y033750D01*
X077370Y033673D01*
X077140Y033904D02*
X077063Y033980D01*
X076910Y033980D01*
X076910Y033750D02*
X076987Y033750D01*
X077754Y033750D02*
X078061Y033750D01*
X077910Y034395D02*
X077910Y034855D01*
X078140Y034625D01*
X077833Y034625D01*
X078294Y034548D02*
X078294Y034472D01*
X078370Y034395D01*
X078524Y034395D01*
X078601Y034472D01*
X078754Y034395D02*
X078908Y034548D01*
X078831Y034548D02*
X079061Y034548D01*
X079061Y034395D02*
X079061Y034855D01*
X078831Y034855D01*
X078754Y034779D01*
X078754Y034625D01*
X078831Y034548D01*
X078601Y034779D02*
X078524Y034855D01*
X078370Y034855D01*
X078294Y034779D01*
X078294Y034702D01*
X078370Y034625D01*
X078294Y034548D01*
X078370Y034625D02*
X078447Y034625D01*
X074219Y033904D02*
X074143Y033980D01*
X073989Y033980D01*
X073912Y033904D01*
X073912Y033827D01*
X073989Y033750D01*
X073912Y033673D01*
X073912Y033597D01*
X073989Y033750D02*
X074066Y033750D01*
X082896Y042520D02*
X082896Y042980D01*
X082666Y042980D01*
X082589Y042904D01*
X082589Y042750D01*
X082666Y042673D01*
X082896Y042673D01*
X083050Y042673D02*
X083127Y042750D01*
X083357Y042750D01*
X083357Y042597D01*
X083280Y042520D01*
X083127Y042520D01*
X083050Y042597D01*
X083050Y042673D01*
X083203Y042904D02*
X083357Y042750D01*
X083510Y042750D02*
X083587Y042673D01*
X083817Y042673D01*
X083817Y042520D02*
X083817Y042980D01*
X083587Y042980D01*
X083510Y042904D01*
X083510Y042750D01*
X083664Y042673D02*
X083510Y042520D01*
X083203Y042904D02*
X083050Y042980D01*
X083127Y043520D02*
X083280Y043520D01*
X083357Y043597D01*
X083357Y043750D02*
X083203Y043827D01*
X083127Y043827D01*
X083050Y043750D01*
X083050Y043597D01*
X083127Y043520D01*
X082896Y043520D02*
X082896Y043980D01*
X082666Y043980D01*
X082589Y043904D01*
X082589Y043750D01*
X082666Y043673D01*
X082896Y043673D01*
X083050Y043980D02*
X083357Y043980D01*
X083357Y043750D01*
X083510Y043597D02*
X083587Y043520D01*
X083740Y043520D01*
X083817Y043597D01*
X083817Y043904D01*
X083740Y043980D01*
X083587Y043980D01*
X083510Y043904D01*
X083336Y044190D02*
X082576Y044190D01*
X082576Y044810D02*
X083336Y044810D01*
X086351Y043435D02*
X086811Y043435D01*
X086811Y043665D01*
X086735Y043742D01*
X086581Y043742D01*
X086504Y043665D01*
X086504Y043435D01*
X086428Y043281D02*
X086735Y043281D01*
X086811Y043204D01*
X086811Y043051D01*
X086735Y042974D01*
X086658Y042974D01*
X086581Y043051D01*
X086581Y043281D01*
X086428Y043281D02*
X086351Y043204D01*
X086351Y043051D01*
X086428Y042974D01*
X086351Y042821D02*
X086504Y042667D01*
X086504Y042744D02*
X086504Y042514D01*
X086351Y042514D02*
X086811Y042514D01*
X086811Y042744D01*
X086735Y042821D01*
X086581Y042821D01*
X086504Y042744D01*
X083942Y047520D02*
X083942Y047980D01*
X083712Y047980D01*
X083635Y047904D01*
X083635Y047750D01*
X083712Y047673D01*
X083942Y047673D01*
X083789Y047673D02*
X083635Y047520D01*
X083482Y047597D02*
X083405Y047520D01*
X083252Y047520D01*
X083175Y047597D01*
X083175Y047750D01*
X083252Y047827D01*
X083328Y047827D01*
X083482Y047750D01*
X083482Y047980D01*
X083175Y047980D01*
X083021Y047980D02*
X082791Y047980D01*
X082714Y047904D01*
X082714Y047750D01*
X082791Y047673D01*
X083021Y047673D01*
X083021Y047520D02*
X083021Y047980D01*
X082346Y049740D02*
X082056Y049740D01*
X082056Y050260D02*
X082356Y050260D01*
X082456Y050520D02*
X082379Y050597D01*
X082456Y050520D02*
X082609Y050520D01*
X082686Y050597D01*
X082686Y050904D01*
X082609Y050980D01*
X082456Y050980D01*
X082379Y050904D01*
X082300Y050770D02*
X082607Y050770D01*
X082300Y051077D01*
X082300Y051154D01*
X082377Y051230D01*
X082530Y051230D01*
X082607Y051154D01*
X082760Y051154D02*
X082837Y051230D01*
X082990Y051230D01*
X083067Y051154D01*
X083067Y050847D01*
X082990Y050770D01*
X082837Y050770D01*
X082760Y050847D01*
X082226Y050750D02*
X081919Y050750D01*
X081765Y050673D02*
X081535Y050673D01*
X081458Y050750D01*
X081458Y050904D01*
X081535Y050980D01*
X081765Y050980D01*
X081765Y050520D01*
X081995Y050520D02*
X081995Y050980D01*
X082226Y050750D01*
X082146Y050770D02*
X082146Y051230D01*
X081916Y051230D01*
X081839Y051154D01*
X081839Y051000D01*
X081916Y050923D01*
X082146Y050923D01*
X082056Y051490D02*
X082356Y051490D01*
X082416Y051673D02*
X082646Y051673D01*
X082646Y051520D02*
X082646Y051980D01*
X082416Y051980D01*
X082339Y051904D01*
X082339Y051750D01*
X082416Y051673D01*
X082356Y052010D02*
X082066Y052010D01*
X082050Y052145D02*
X082357Y052145D01*
X082203Y052145D02*
X082203Y052605D01*
X082357Y052452D01*
X082510Y052529D02*
X082587Y052605D01*
X082740Y052605D01*
X082817Y052529D01*
X082817Y052222D01*
X082740Y052145D01*
X082587Y052145D01*
X082510Y052222D01*
X082556Y052240D02*
X082856Y052240D01*
X082877Y051980D02*
X082800Y051904D01*
X082800Y051827D01*
X082877Y051750D01*
X082800Y051673D01*
X082800Y051597D01*
X082877Y051520D01*
X083030Y051520D01*
X083107Y051597D01*
X083260Y051597D02*
X083337Y051520D01*
X083490Y051520D01*
X083567Y051597D01*
X083567Y051904D01*
X083490Y051980D01*
X083337Y051980D01*
X083260Y051904D01*
X083107Y051904D02*
X083030Y051980D01*
X082877Y051980D01*
X082877Y051750D02*
X082953Y051750D01*
X081896Y052145D02*
X081896Y052605D01*
X081666Y052605D01*
X081589Y052529D01*
X081589Y052375D01*
X081666Y052298D01*
X081896Y052298D01*
X081806Y052865D02*
X082106Y052865D01*
X082566Y052760D02*
X082856Y052760D01*
X082106Y053385D02*
X081816Y053385D01*
X086351Y053560D02*
X086658Y053867D01*
X086735Y053867D01*
X086811Y053790D01*
X086811Y053636D01*
X086735Y053560D01*
X086735Y053406D02*
X086581Y053406D01*
X086504Y053329D01*
X086504Y053099D01*
X086351Y053099D02*
X086811Y053099D01*
X086811Y053329D01*
X086735Y053406D01*
X086351Y053560D02*
X086351Y053867D01*
X086351Y054889D02*
X086811Y054889D01*
X086811Y055119D01*
X086735Y055196D01*
X086581Y055196D01*
X086504Y055119D01*
X086504Y054889D01*
X086504Y055042D02*
X086351Y055196D01*
X086428Y055349D02*
X086504Y055349D01*
X086581Y055426D01*
X086581Y055579D01*
X086504Y055656D01*
X086428Y055656D01*
X086351Y055579D01*
X086351Y055426D01*
X086428Y055349D01*
X086581Y055426D02*
X086658Y055349D01*
X086735Y055349D01*
X086811Y055426D01*
X086811Y055579D01*
X086735Y055656D01*
X086658Y055656D01*
X086581Y055579D01*
X086504Y055810D02*
X086504Y056040D01*
X086581Y056117D01*
X086735Y056117D01*
X086811Y056040D01*
X086811Y055810D01*
X086351Y055810D01*
X086428Y052946D02*
X086735Y052946D01*
X086811Y052869D01*
X086811Y052716D01*
X086735Y052639D01*
X086658Y052639D01*
X086581Y052716D01*
X086581Y052946D01*
X086428Y052946D02*
X086351Y052869D01*
X086351Y052716D01*
X086428Y052639D01*
X086351Y052485D02*
X086504Y052332D01*
X086504Y052409D02*
X086504Y052178D01*
X086351Y052178D02*
X086811Y052178D01*
X086811Y052409D01*
X086735Y052485D01*
X086581Y052485D01*
X086504Y052409D01*
X086368Y050605D02*
X086368Y050145D01*
X086521Y050145D02*
X086214Y050145D01*
X086521Y050452D02*
X086368Y050605D01*
X086675Y050529D02*
X086675Y050375D01*
X086752Y050298D01*
X086982Y050298D01*
X086982Y050145D02*
X086982Y050605D01*
X086752Y050605D01*
X086675Y050529D01*
X087135Y050529D02*
X087212Y050605D01*
X087365Y050605D01*
X087442Y050529D01*
X087442Y050452D01*
X087365Y050375D01*
X087135Y050375D01*
X087135Y050222D02*
X087135Y050529D01*
X087135Y050222D02*
X087212Y050145D01*
X087365Y050145D01*
X087442Y050222D01*
X087596Y050145D02*
X087749Y050298D01*
X087672Y050298D02*
X087903Y050298D01*
X087903Y050145D02*
X087903Y050605D01*
X087672Y050605D01*
X087596Y050529D01*
X087596Y050375D01*
X087672Y050298D01*
X098474Y049077D02*
X098474Y048770D01*
X098474Y049000D02*
X098780Y049000D01*
X098780Y049077D02*
X098780Y048770D01*
X098934Y048770D02*
X098934Y049077D01*
X099011Y049077D01*
X099087Y049000D01*
X099164Y049077D01*
X099241Y049000D01*
X099241Y048770D01*
X099394Y048770D02*
X099625Y048770D01*
X099701Y048847D01*
X099701Y049000D01*
X099625Y049077D01*
X099394Y049077D01*
X099394Y048617D01*
X099087Y048770D02*
X099087Y049000D01*
X098780Y049077D02*
X098627Y049230D01*
X098474Y049077D01*
X099855Y049000D02*
X099931Y049077D01*
X100085Y049077D01*
X100162Y049000D01*
X100162Y048770D01*
X100315Y048847D02*
X100315Y049000D01*
X100392Y049077D01*
X100545Y049077D01*
X100622Y049000D01*
X100622Y048923D01*
X100315Y048923D01*
X100315Y048847D02*
X100392Y048770D01*
X100545Y048770D01*
X100775Y048770D02*
X100775Y049077D01*
X101006Y049077D01*
X101082Y049000D01*
X101082Y048770D01*
X101101Y048702D02*
X101254Y048548D01*
X101254Y048625D02*
X101254Y048395D01*
X101351Y048446D02*
X101504Y048292D01*
X101504Y048369D02*
X101504Y048139D01*
X101351Y048139D02*
X101811Y048139D01*
X101811Y048369D01*
X101735Y048446D01*
X101581Y048446D01*
X101504Y048369D01*
X101561Y048395D02*
X101561Y048625D01*
X101485Y048702D01*
X101331Y048702D01*
X101254Y048625D01*
X101351Y048599D02*
X101351Y048906D01*
X101408Y048855D02*
X101561Y049009D01*
X101101Y049009D01*
X101236Y049000D02*
X101236Y048847D01*
X101313Y048770D01*
X101466Y048770D01*
X101543Y048847D01*
X101543Y049000D01*
X101466Y049077D01*
X101313Y049077D01*
X101236Y049000D01*
X101101Y048855D02*
X101101Y049162D01*
X101178Y049316D02*
X101101Y049393D01*
X101101Y049546D01*
X101178Y049623D01*
X101331Y049623D01*
X101408Y049546D01*
X101408Y049469D01*
X101331Y049316D01*
X101561Y049316D01*
X101561Y049623D01*
X101581Y049367D02*
X101581Y049060D01*
X101811Y049290D01*
X101351Y049290D01*
X101696Y049230D02*
X101773Y049230D01*
X101773Y048770D01*
X101811Y048753D02*
X101351Y048753D01*
X101658Y048599D02*
X101811Y048753D01*
X101850Y048770D02*
X101696Y048770D01*
X101561Y048395D02*
X101101Y048395D01*
X099855Y048770D02*
X099855Y049230D01*
X099813Y050645D02*
X099660Y050645D01*
X099583Y050722D01*
X099583Y050798D01*
X099660Y050875D01*
X099890Y050875D01*
X099890Y050722D01*
X099813Y050645D01*
X100044Y050645D02*
X100351Y050645D01*
X100504Y050645D02*
X100658Y050798D01*
X100581Y050798D02*
X100811Y050798D01*
X100811Y050645D02*
X100811Y051105D01*
X100581Y051105D01*
X100504Y051029D01*
X100504Y050875D01*
X100581Y050798D01*
X100351Y050952D02*
X100197Y051105D01*
X100197Y050645D01*
X099890Y050875D02*
X099737Y051029D01*
X099583Y051105D01*
X102464Y049230D02*
X102617Y049077D01*
X102771Y049230D01*
X102771Y048770D01*
X102924Y048770D02*
X102924Y049230D01*
X103077Y049077D01*
X103231Y049230D01*
X103231Y048770D01*
X103384Y048847D02*
X103461Y048770D01*
X103615Y048770D01*
X103691Y048847D01*
X103845Y048770D02*
X104152Y049230D01*
X104305Y049154D02*
X104305Y049077D01*
X104382Y049000D01*
X104535Y049000D01*
X104612Y048923D01*
X104612Y048847D01*
X104535Y048770D01*
X104382Y048770D01*
X104305Y048847D01*
X104305Y049154D02*
X104382Y049230D01*
X104535Y049230D01*
X104612Y049154D01*
X104766Y049230D02*
X104766Y048770D01*
X104996Y048770D01*
X105072Y048847D01*
X105072Y049154D01*
X104996Y049230D01*
X104766Y049230D01*
X103691Y049154D02*
X103615Y049230D01*
X103461Y049230D01*
X103384Y049154D01*
X103384Y048847D01*
X102464Y048770D02*
X102464Y049230D01*
X103681Y050365D02*
X103971Y050365D01*
X103981Y050885D02*
X103681Y050885D01*
X103620Y051145D02*
X103774Y051145D01*
X103851Y051222D01*
X103851Y051298D01*
X103774Y051375D01*
X103620Y051375D01*
X103544Y051298D01*
X103544Y051222D01*
X103620Y051145D01*
X103620Y051375D02*
X103544Y051452D01*
X103544Y051529D01*
X103620Y051605D01*
X103774Y051605D01*
X103851Y051529D01*
X103851Y051452D01*
X103774Y051375D01*
X104004Y051222D02*
X104081Y051145D01*
X104234Y051145D01*
X104311Y051222D01*
X104311Y051529D01*
X104234Y051605D01*
X104081Y051605D01*
X104004Y051529D01*
X104004Y051889D02*
X104004Y052119D01*
X104081Y052196D01*
X104235Y052196D01*
X104311Y052119D01*
X104311Y051889D01*
X103851Y051889D01*
X104004Y052042D02*
X103851Y052196D01*
X103851Y052349D02*
X103851Y052656D01*
X103851Y052503D02*
X104311Y052503D01*
X104158Y052349D01*
X104311Y052810D02*
X104311Y053117D01*
X104235Y053117D01*
X103928Y052810D01*
X103851Y052810D01*
X104851Y052886D02*
X104928Y052810D01*
X105004Y052810D01*
X105081Y052886D01*
X105081Y053040D01*
X105004Y053117D01*
X104928Y053117D01*
X104851Y053040D01*
X104851Y052886D01*
X104851Y052656D02*
X104851Y052349D01*
X104851Y052196D02*
X105004Y052042D01*
X105004Y052119D02*
X105004Y051889D01*
X104851Y051889D02*
X105311Y051889D01*
X105311Y052119D01*
X105235Y052196D01*
X105081Y052196D01*
X105004Y052119D01*
X105158Y052349D02*
X105311Y052503D01*
X104851Y052503D01*
X105158Y052810D02*
X105235Y052810D01*
X105311Y052886D01*
X105311Y053040D01*
X105235Y053117D01*
X105158Y053117D01*
X105081Y053040D01*
X105081Y052886D02*
X105158Y052810D01*
X106101Y049748D02*
X106101Y049441D01*
X106101Y049594D02*
X106561Y049594D01*
X106408Y049441D01*
X106561Y049134D02*
X106101Y049134D01*
X106101Y049287D02*
X106101Y048980D01*
X106101Y048827D02*
X106254Y048673D01*
X106254Y048750D02*
X106254Y048520D01*
X106101Y048520D02*
X106561Y048520D01*
X106561Y048750D01*
X106485Y048827D01*
X106331Y048827D01*
X106254Y048750D01*
X106408Y048980D02*
X106561Y049134D01*
X103061Y047415D02*
X103061Y047261D01*
X102985Y047185D01*
X103061Y047415D02*
X102985Y047492D01*
X102908Y047492D01*
X102601Y047185D01*
X102601Y047492D01*
X102601Y047031D02*
X102601Y046724D01*
X102601Y046571D02*
X102754Y046417D01*
X102754Y046494D02*
X102754Y046264D01*
X102601Y046264D02*
X103061Y046264D01*
X103061Y046494D01*
X102985Y046571D01*
X102831Y046571D01*
X102754Y046494D01*
X102908Y046724D02*
X103061Y046878D01*
X102601Y046878D01*
X057739Y049729D02*
X057413Y049403D01*
X057522Y049512D02*
X057359Y049675D01*
X057359Y049783D01*
X057467Y049892D01*
X057576Y049892D01*
X057739Y049729D01*
X057413Y049620D02*
X057196Y049620D01*
X057142Y049783D02*
X057033Y049783D01*
X056925Y049892D01*
X056925Y050000D01*
X056979Y050054D01*
X057088Y050054D01*
X057250Y049892D01*
X057142Y049783D01*
X057250Y049892D02*
X057250Y050109D01*
X057196Y050271D01*
X054562Y050781D02*
X054399Y050943D01*
X054291Y050943D01*
X054182Y050835D01*
X054182Y050726D01*
X054345Y050564D01*
X054236Y050672D02*
X054019Y050672D01*
X053965Y050835D02*
X053856Y050835D01*
X053748Y050943D01*
X053748Y051052D01*
X053965Y051269D01*
X054074Y051269D01*
X054182Y051160D01*
X054182Y051052D01*
X054128Y050998D01*
X054019Y050998D01*
X053856Y051160D01*
X054236Y050455D02*
X054562Y050781D01*
X052561Y049586D02*
X052331Y049355D01*
X052331Y049662D01*
X052101Y049586D02*
X052561Y049586D01*
X052485Y049202D02*
X052331Y049202D01*
X052254Y049125D01*
X052254Y048895D01*
X052101Y048895D02*
X052561Y048895D01*
X052561Y049125D01*
X052485Y049202D01*
X052254Y049048D02*
X052101Y049202D01*
X054589Y047654D02*
X054896Y047347D01*
X054820Y047270D01*
X054666Y047270D01*
X054589Y047347D01*
X054589Y047654D01*
X054666Y047730D01*
X054820Y047730D01*
X054896Y047654D01*
X054896Y047347D01*
X055050Y047270D02*
X055357Y047270D01*
X055510Y047270D02*
X055664Y047423D01*
X055587Y047423D02*
X055817Y047423D01*
X055817Y047270D02*
X055817Y047730D01*
X055587Y047730D01*
X055510Y047654D01*
X055510Y047500D01*
X055587Y047423D01*
X055357Y047577D02*
X055203Y047730D01*
X055203Y047270D01*
X055916Y045230D02*
X055839Y045154D01*
X055839Y045077D01*
X055916Y045000D01*
X056070Y045000D01*
X056146Y045077D01*
X056146Y045154D01*
X056070Y045230D01*
X055916Y045230D01*
X055916Y045000D02*
X055839Y044923D01*
X055839Y044847D01*
X055916Y044770D01*
X056070Y044770D01*
X056146Y044847D01*
X056146Y044923D01*
X056070Y045000D01*
X056300Y045000D02*
X056377Y044923D01*
X056607Y044923D01*
X056607Y044770D02*
X056607Y045230D01*
X056377Y045230D01*
X056300Y045154D01*
X056300Y045000D01*
X056453Y044923D02*
X056300Y044770D01*
X056377Y044355D02*
X056300Y044279D01*
X056300Y044125D01*
X056377Y044048D01*
X056607Y044048D01*
X056607Y043895D02*
X056607Y044355D01*
X056377Y044355D01*
X056146Y044355D02*
X056146Y044125D01*
X055993Y044202D01*
X055916Y044202D01*
X055839Y044125D01*
X055839Y043972D01*
X055916Y043895D01*
X056070Y043895D01*
X056146Y043972D01*
X056300Y043895D02*
X056453Y044048D01*
X056146Y044355D02*
X055839Y044355D01*
X055311Y042915D02*
X055081Y042685D01*
X055081Y042992D01*
X054851Y042915D02*
X055311Y042915D01*
X055235Y042531D02*
X055311Y042454D01*
X055311Y042301D01*
X055235Y042224D01*
X055235Y042071D02*
X055081Y042071D01*
X055004Y041994D01*
X055004Y041764D01*
X054851Y041764D02*
X055311Y041764D01*
X055311Y041994D01*
X055235Y042071D01*
X055004Y041917D02*
X054851Y042071D01*
X054851Y042224D02*
X055158Y042531D01*
X055235Y042531D01*
X054851Y042531D02*
X054851Y042224D01*
X050067Y044472D02*
X049990Y044395D01*
X049837Y044395D01*
X049760Y044472D01*
X049607Y044395D02*
X049607Y044855D01*
X049300Y044855D01*
X049146Y044702D02*
X048993Y044855D01*
X048993Y044395D01*
X049146Y044395D02*
X048839Y044395D01*
X049300Y044395D02*
X049607Y044395D01*
X049607Y044625D02*
X049453Y044625D01*
X049760Y044779D02*
X049837Y044855D01*
X049990Y044855D01*
X050067Y044779D01*
X050067Y044472D01*
X049356Y045115D02*
X049056Y045115D01*
X049066Y045635D02*
X049356Y045635D01*
X013686Y037631D02*
X013686Y037478D01*
X013610Y037401D01*
X013303Y037401D01*
X013226Y037478D01*
X013226Y037631D01*
X013303Y037708D01*
X013610Y037708D02*
X013686Y037631D01*
X013686Y037248D02*
X013226Y037248D01*
X013456Y037248D02*
X013456Y036941D01*
X013533Y036787D02*
X013610Y036787D01*
X013686Y036711D01*
X013686Y036557D01*
X013610Y036480D01*
X013610Y036327D02*
X013686Y036250D01*
X013686Y036097D01*
X013610Y036020D01*
X013303Y036020D01*
X013226Y036097D01*
X013226Y036250D01*
X013303Y036327D01*
X013226Y036480D02*
X013533Y036787D01*
X013686Y036941D02*
X013226Y036941D01*
X013226Y036787D02*
X013226Y036480D01*
X013016Y036120D02*
X013016Y036880D01*
X012396Y036880D02*
X012396Y036120D01*
X059214Y013029D02*
X059291Y013105D01*
X059445Y013105D01*
X059521Y013029D01*
X059675Y013029D02*
X059675Y012875D01*
X059752Y012798D01*
X059982Y012798D01*
X059982Y012645D02*
X059982Y013105D01*
X059752Y013105D01*
X059675Y013029D01*
X059828Y012798D02*
X059675Y012645D01*
X059521Y012645D02*
X059214Y012952D01*
X059214Y013029D01*
X059214Y012645D02*
X059521Y012645D01*
X060135Y012722D02*
X060442Y013029D01*
X060289Y013029D02*
X060289Y012722D01*
X060442Y012722D02*
X060135Y013029D01*
X060135Y012875D02*
X060442Y012875D01*
D12*
X059619Y013624D03*
X059039Y013624D03*
X049494Y022249D03*
X048914Y022249D03*
X045623Y022001D03*
X045043Y022001D03*
X075543Y033001D03*
X076123Y033001D03*
X076543Y033876D03*
X077123Y033876D03*
X078543Y033876D03*
X079123Y033876D03*
X078123Y033001D03*
X077543Y033001D03*
X056244Y044874D03*
X055664Y044874D03*
X055664Y045749D03*
X056244Y045749D03*
X054994Y048249D03*
X054414Y048249D03*
G36*
X054016Y050328D02*
X054197Y050147D01*
X053810Y049760D01*
X053629Y049941D01*
X054016Y050328D01*
G37*
G36*
X053606Y050738D02*
X053787Y050557D01*
X053400Y050170D01*
X053219Y050351D01*
X053606Y050738D01*
G37*
X100293Y050126D03*
X100873Y050126D03*
X009494Y006124D03*
X008914Y006124D03*
X008914Y005124D03*
X009494Y005124D03*
D13*
X046581Y023980D03*
X046581Y025020D03*
X055831Y042105D03*
X055831Y043145D03*
X087331Y042855D03*
X087331Y043895D03*
X087331Y052980D03*
X087331Y054020D03*
D14*
X032081Y022180D03*
X032081Y021070D03*
X030706Y023570D03*
X030706Y024680D03*
D15*
X045705Y023792D03*
X045705Y023212D03*
X046582Y021913D03*
X046582Y021333D03*
X047582Y021333D03*
X047582Y021913D03*
X049580Y024337D03*
X049580Y024917D03*
X050580Y024917D03*
X050580Y024337D03*
X051580Y024337D03*
X051580Y024917D03*
X052580Y024917D03*
X052580Y024337D03*
X053580Y024337D03*
X053580Y024917D03*
X054580Y024917D03*
X054580Y024337D03*
X052332Y022538D03*
X052332Y021958D03*
X051332Y022583D03*
X051332Y023163D03*
X047580Y024462D03*
X047580Y025042D03*
X061582Y024913D03*
X061582Y024333D03*
X103580Y047087D03*
X103580Y047667D03*
X102330Y048962D03*
X102330Y049542D03*
X100582Y048913D03*
X100582Y048333D03*
X105582Y048458D03*
X105582Y049038D03*
X105830Y052712D03*
X105830Y053292D03*
X104830Y053292D03*
X104830Y052712D03*
X051582Y049413D03*
X051582Y048833D03*
D16*
G36*
X056479Y050089D02*
X056684Y049884D01*
X056197Y049397D01*
X055992Y049602D01*
X056479Y050089D01*
G37*
G36*
X057215Y049353D02*
X057420Y049148D01*
X056933Y048661D01*
X056728Y048866D01*
X057215Y049353D01*
G37*
X082436Y043500D03*
X083476Y043500D03*
X086061Y051125D03*
X087101Y051125D03*
X044726Y023875D03*
X043686Y023875D03*
X047436Y023125D03*
X048476Y023125D03*
X048561Y021375D03*
X049601Y021375D03*
D17*
X050674Y021375D03*
X051244Y021375D03*
X044863Y025000D03*
X044293Y025000D03*
X048924Y045375D03*
X049494Y045375D03*
X081674Y053125D03*
X082244Y053125D03*
X082424Y052500D03*
X082994Y052500D03*
X082494Y051750D03*
X081924Y051750D03*
X081918Y050000D03*
X082488Y050000D03*
X103543Y050625D03*
X104113Y050625D03*
D18*
X052612Y017675D02*
X052612Y017375D01*
X052537Y017300D01*
X052387Y017300D01*
X052312Y017375D01*
X052152Y017300D02*
X051852Y017600D01*
X051852Y017675D01*
X051927Y017750D01*
X052077Y017750D01*
X052152Y017675D01*
X052312Y017675D02*
X052387Y017750D01*
X052537Y017750D01*
X052612Y017675D01*
X052152Y017300D02*
X051852Y017300D01*
X051541Y017300D02*
X051541Y017525D01*
X051391Y017675D01*
X051391Y017750D01*
X051541Y017525D02*
X051691Y017675D01*
X051691Y017750D01*
X047206Y017065D02*
X047131Y017065D01*
X046981Y016915D01*
X046756Y016915D01*
X046981Y016915D02*
X047131Y016765D01*
X047206Y016765D01*
X047206Y016454D02*
X046756Y016454D01*
X046756Y016304D02*
X046756Y016604D01*
X047056Y016304D02*
X047206Y016454D01*
X047131Y016144D02*
X047206Y016069D01*
X047206Y015919D01*
X047131Y015844D01*
X046831Y015844D01*
X046756Y015919D01*
X046756Y016069D01*
X046831Y016144D01*
D19*
X047831Y018050D03*
D20*
X050406Y018375D03*
D21*
X082526Y048500D03*
X083636Y048500D03*
D22*
X083478Y044500D03*
X082434Y044500D03*
D23*
X087331Y055410D03*
X087331Y056090D03*
X048581Y025090D03*
X048581Y024410D03*
D24*
X039206Y020913D03*
X039206Y020343D03*
X028456Y020712D03*
X028456Y021282D03*
D25*
X014956Y013147D03*
X014956Y012103D03*
X012706Y035978D03*
X012706Y037022D03*
M02*
