G75*
G70*
%OFA0B0*%
%FSLAX24Y24*%
%IPPOS*%
%LPD*%
%AMOC8*
5,1,8,0,0,1.08239X$1,22.5*
%
%ADD10C,0.0060*%
%ADD11C,0.0040*%
%ADD12R,0.0256X0.0551*%
%ADD13R,0.0551X0.0256*%
%ADD14R,0.0690X0.0290*%
%ADD15R,0.0290X0.0690*%
%ADD16R,0.0571X0.0295*%
%ADD17R,0.0669X0.0295*%
%ADD18R,0.0560X0.0140*%
%ADD19R,0.0295X0.0571*%
%ADD20R,0.0140X0.0560*%
%ADD21C,0.0050*%
%ADD22R,0.0200X0.0100*%
D10*
X020586Y009297D02*
X020586Y009620D01*
X021086Y009620D02*
X021086Y009297D01*
X021800Y009459D02*
X022122Y009459D01*
X022122Y008959D02*
X021800Y008959D01*
X021872Y008459D02*
X021550Y008459D01*
X021550Y007959D02*
X021872Y007959D01*
X021997Y006834D02*
X021675Y006834D01*
X021675Y006334D02*
X021997Y006334D01*
X023300Y006834D02*
X023622Y006834D01*
X023622Y007334D02*
X023300Y007334D01*
X026675Y011334D02*
X026997Y011334D01*
X026997Y011834D02*
X026675Y011834D01*
X027586Y012547D02*
X027586Y012870D01*
X028086Y012870D02*
X028086Y012547D01*
X020747Y012709D02*
X020425Y012709D01*
X020425Y013209D02*
X020747Y013209D01*
X008122Y024459D02*
X007800Y024459D01*
X007800Y024959D02*
X008122Y024959D01*
X008800Y025334D02*
X009122Y025334D01*
X009122Y025834D02*
X008800Y025834D01*
X007247Y025834D02*
X006925Y025834D01*
X006925Y025334D02*
X007247Y025334D01*
X006122Y024959D02*
X005800Y024959D01*
X005800Y024459D02*
X006122Y024459D01*
X016961Y033929D02*
X016961Y034489D01*
X017461Y034489D02*
X017461Y033929D01*
X018336Y036804D02*
X018336Y037364D01*
X018836Y037364D02*
X018836Y036804D01*
X019211Y036922D02*
X019211Y037245D01*
X019711Y037245D02*
X019711Y036922D01*
X020086Y036922D02*
X020086Y037245D01*
X020586Y037245D02*
X020586Y036922D01*
X021961Y034370D02*
X021961Y034047D01*
X022461Y034047D02*
X022461Y034370D01*
X017616Y037209D02*
X017056Y037209D01*
X017056Y037709D02*
X017616Y037709D01*
X016336Y037364D02*
X016336Y036804D01*
X015836Y036804D02*
X015836Y037364D01*
X015461Y037245D02*
X015461Y036922D01*
X014961Y036922D02*
X014961Y037245D01*
X025711Y040672D02*
X025711Y040995D01*
X026211Y040995D02*
X026211Y040672D01*
X026247Y041834D02*
X025925Y041834D01*
X025925Y042334D02*
X026247Y042334D01*
X026247Y042834D02*
X025925Y042834D01*
X025925Y043334D02*
X026247Y043334D01*
X026247Y043834D02*
X025925Y043834D01*
X025925Y044334D02*
X026247Y044334D01*
X026247Y044834D02*
X025925Y044834D01*
X025925Y045334D02*
X026247Y045334D01*
X026372Y047209D02*
X026050Y047209D01*
X026050Y047709D02*
X026372Y047709D01*
X028586Y043404D02*
X029341Y043404D01*
X029341Y042764D02*
X028586Y042764D01*
X027586Y042672D02*
X027586Y042995D01*
X027086Y042995D02*
X027086Y042672D01*
X028086Y040620D02*
X028086Y040297D01*
X028586Y040297D02*
X028586Y040620D01*
X027372Y039709D02*
X027050Y039709D01*
X027050Y039209D02*
X027372Y039209D01*
X027675Y038334D02*
X027997Y038334D01*
X027997Y037834D02*
X027675Y037834D01*
X032891Y041704D02*
X032891Y042459D01*
X033531Y042459D02*
X033531Y041704D01*
X032247Y042459D02*
X031925Y042459D01*
X031925Y042959D02*
X032247Y042959D01*
X033175Y044834D02*
X033497Y044834D01*
X033497Y045334D02*
X033175Y045334D01*
X027747Y053834D02*
X027425Y053834D01*
X027425Y054334D02*
X027747Y054334D01*
X037016Y036959D02*
X037016Y036204D01*
X037656Y036204D02*
X037656Y036959D01*
X038016Y036964D02*
X038016Y036209D01*
X038656Y036209D02*
X038656Y036964D01*
X044086Y036370D02*
X044086Y036047D01*
X044586Y036047D02*
X044586Y036370D01*
X044836Y036370D02*
X044836Y036047D01*
X045336Y036047D02*
X045336Y036370D01*
X045550Y035584D02*
X045872Y035584D01*
X045872Y035084D02*
X045550Y035084D01*
X045675Y034334D02*
X045997Y034334D01*
X045997Y033834D02*
X045675Y033834D01*
X044586Y034047D02*
X044586Y034370D01*
X044086Y034370D02*
X044086Y034047D01*
X050175Y030334D02*
X050497Y030334D01*
X050497Y029834D02*
X050175Y029834D01*
X040711Y019709D02*
X039711Y019709D01*
X039711Y018809D01*
X039811Y018709D01*
X039711Y018609D01*
X039711Y017809D01*
X039811Y017709D01*
X039711Y017609D01*
X039711Y016809D01*
X039811Y016709D01*
X039711Y016609D01*
X039711Y015809D01*
X039811Y015709D01*
X039711Y015609D01*
X039711Y014809D01*
X039811Y014709D01*
X039711Y014609D01*
X039711Y013809D01*
X039811Y013709D01*
X039711Y013609D01*
X039711Y012709D01*
X039711Y011809D01*
X039811Y011709D01*
X039711Y011609D01*
X039711Y010809D01*
X039811Y010709D01*
X039711Y010609D01*
X039711Y009809D01*
X039811Y009709D01*
X039711Y009609D01*
X039711Y008809D01*
X039811Y008709D01*
X039711Y008609D01*
X039711Y007809D01*
X039811Y007709D01*
X039711Y007609D01*
X039711Y006809D01*
X039811Y006709D01*
X039711Y006609D01*
X039711Y005709D01*
X040711Y005709D01*
X040711Y006609D01*
X040611Y006709D01*
X040711Y006809D01*
X040711Y007609D01*
X040611Y007709D01*
X040711Y007809D01*
X040711Y008609D01*
X040611Y008709D01*
X040711Y008809D01*
X040711Y009609D01*
X040611Y009709D01*
X040711Y009809D01*
X040711Y010609D01*
X040611Y010709D01*
X040711Y010809D01*
X040711Y011609D01*
X040611Y011709D01*
X040711Y011809D01*
X040711Y012709D01*
X039711Y012709D01*
X040711Y012709D01*
X040711Y013609D01*
X040611Y013709D01*
X040711Y013809D01*
X040711Y014609D01*
X040611Y014709D01*
X040711Y014809D01*
X040711Y015609D01*
X040611Y015709D01*
X040711Y015809D01*
X040711Y016609D01*
X040611Y016709D01*
X040711Y016809D01*
X040711Y017609D01*
X040611Y017709D01*
X040711Y017809D01*
X040711Y018609D01*
X040611Y018709D01*
X040711Y018809D01*
X040711Y019709D01*
X040411Y019409D02*
X040411Y019309D01*
X040511Y019309D01*
X040511Y019109D01*
X040411Y019109D01*
X040411Y019009D01*
X040011Y019009D01*
X040011Y019109D01*
X039911Y019109D01*
X039911Y019309D01*
X040011Y019309D01*
X040011Y019409D01*
X040411Y019409D01*
X040411Y018409D02*
X040411Y018309D01*
X040511Y018309D01*
X040511Y018109D01*
X040411Y018109D01*
X040411Y018009D01*
X040011Y018009D01*
X040011Y018109D01*
X039911Y018109D01*
X039911Y018309D01*
X040011Y018309D01*
X040011Y018409D01*
X040411Y018409D01*
X040411Y017409D02*
X040411Y017309D01*
X040511Y017309D01*
X040511Y017109D01*
X040411Y017109D01*
X040411Y017009D01*
X040011Y017009D01*
X040011Y017109D01*
X039911Y017109D01*
X039911Y017309D01*
X040011Y017309D01*
X040011Y017409D01*
X040411Y017409D01*
X040411Y016409D02*
X040411Y016309D01*
X040511Y016309D01*
X040511Y016109D01*
X040411Y016109D01*
X040411Y016009D01*
X040011Y016009D01*
X040011Y016109D01*
X039911Y016109D01*
X039911Y016309D01*
X040011Y016309D01*
X040011Y016409D01*
X040411Y016409D01*
X040411Y015409D02*
X040411Y015309D01*
X040511Y015309D01*
X040511Y015109D01*
X040411Y015109D01*
X040411Y015009D01*
X040011Y015009D01*
X040011Y015109D01*
X039911Y015109D01*
X039911Y015309D01*
X040011Y015309D01*
X040011Y015409D01*
X040411Y015409D01*
X040411Y014409D02*
X040411Y014309D01*
X040511Y014309D01*
X040511Y014109D01*
X040411Y014109D01*
X040411Y014009D01*
X040011Y014009D01*
X040011Y014109D01*
X039911Y014109D01*
X039911Y014309D01*
X040011Y014309D01*
X040011Y014409D01*
X040411Y014409D01*
X040411Y013409D02*
X040411Y013309D01*
X040511Y013309D01*
X040511Y013109D01*
X040411Y013109D01*
X040411Y013009D01*
X040011Y013009D01*
X040011Y013109D01*
X039911Y013109D01*
X039911Y013309D01*
X040011Y013309D01*
X040011Y013409D01*
X040411Y013409D01*
X040411Y012409D02*
X040411Y012309D01*
X040511Y012309D01*
X040511Y012109D01*
X040411Y012109D01*
X040411Y012009D01*
X040011Y012009D01*
X040011Y012109D01*
X039911Y012109D01*
X039911Y012309D01*
X040011Y012309D01*
X040011Y012409D01*
X040411Y012409D01*
X040411Y011409D02*
X040411Y011309D01*
X040511Y011309D01*
X040511Y011109D01*
X040411Y011109D01*
X040411Y011009D01*
X040011Y011009D01*
X040011Y011109D01*
X039911Y011109D01*
X039911Y011309D01*
X040011Y011309D01*
X040011Y011409D01*
X040411Y011409D01*
X040411Y010409D02*
X040411Y010309D01*
X040511Y010309D01*
X040511Y010109D01*
X040411Y010109D01*
X040411Y010009D01*
X040011Y010009D01*
X040011Y010109D01*
X039911Y010109D01*
X039911Y010309D01*
X040011Y010309D01*
X040011Y010409D01*
X040411Y010409D01*
X040411Y009409D02*
X040411Y009309D01*
X040511Y009309D01*
X040511Y009109D01*
X040411Y009109D01*
X040411Y009009D01*
X040011Y009009D01*
X040011Y009109D01*
X039911Y009109D01*
X039911Y009309D01*
X040011Y009309D01*
X040011Y009409D01*
X040411Y009409D01*
X040411Y008409D02*
X040411Y008309D01*
X040511Y008309D01*
X040511Y008109D01*
X040411Y008109D01*
X040411Y008009D01*
X040011Y008009D01*
X040011Y008109D01*
X039911Y008109D01*
X039911Y008309D01*
X040011Y008309D01*
X040011Y008409D01*
X040411Y008409D01*
X040411Y007409D02*
X040411Y007309D01*
X040511Y007309D01*
X040511Y007109D01*
X040411Y007109D01*
X040411Y007009D01*
X040011Y007009D01*
X040011Y007109D01*
X039911Y007109D01*
X039911Y007309D01*
X040011Y007309D01*
X040011Y007409D01*
X040411Y007409D01*
X040411Y006409D02*
X040411Y006309D01*
X040511Y006309D01*
X040511Y006109D01*
X040411Y006109D01*
X040411Y006009D01*
X040011Y006009D01*
X040011Y006109D01*
X039911Y006109D01*
X039911Y006309D01*
X040011Y006309D01*
X040011Y006409D01*
X040411Y006409D01*
X050175Y051084D02*
X050497Y051084D01*
X050497Y051584D02*
X050175Y051584D01*
X050175Y052084D02*
X050497Y052084D01*
X050497Y052584D02*
X050175Y052584D01*
D11*
X050106Y052854D02*
X049799Y053161D01*
X049799Y053237D01*
X049875Y053314D01*
X050029Y053314D01*
X050106Y053237D01*
X050259Y053237D02*
X050259Y053084D01*
X050336Y053007D01*
X050566Y053007D01*
X050566Y052854D02*
X050566Y053314D01*
X050336Y053314D01*
X050259Y053237D01*
X050412Y053007D02*
X050259Y052854D01*
X050106Y052854D02*
X049799Y052854D01*
X049645Y052854D02*
X049338Y053161D01*
X049338Y053237D01*
X049415Y053314D01*
X049568Y053314D01*
X049645Y053237D01*
X049645Y052854D02*
X049338Y052854D01*
X049415Y052314D02*
X049338Y052237D01*
X049338Y052161D01*
X049415Y052084D01*
X049338Y052007D01*
X049338Y051930D01*
X049415Y051854D01*
X049568Y051854D01*
X049645Y051930D01*
X049799Y051854D02*
X050106Y051854D01*
X049799Y052161D01*
X049799Y052237D01*
X049875Y052314D01*
X050029Y052314D01*
X050106Y052237D01*
X050259Y052237D02*
X050259Y052084D01*
X050336Y052007D01*
X050566Y052007D01*
X050566Y051854D02*
X050566Y052314D01*
X050336Y052314D01*
X050259Y052237D01*
X050412Y052007D02*
X050259Y051854D01*
X049645Y052237D02*
X049568Y052314D01*
X049415Y052314D01*
X049415Y052084D02*
X049492Y052084D01*
X034447Y044564D02*
X034217Y044564D01*
X034140Y044487D01*
X034140Y044334D01*
X034217Y044257D01*
X034447Y044257D01*
X034294Y044257D02*
X034140Y044104D01*
X033987Y044104D02*
X033680Y044411D01*
X033680Y044487D01*
X033757Y044564D01*
X033910Y044564D01*
X033987Y044487D01*
X033987Y044104D02*
X033680Y044104D01*
X033526Y044180D02*
X033219Y044487D01*
X033219Y044180D01*
X033296Y044104D01*
X033450Y044104D01*
X033526Y044180D01*
X033526Y044487D01*
X033450Y044564D01*
X033296Y044564D01*
X033219Y044487D01*
X034447Y044564D02*
X034447Y044104D01*
X034191Y042831D02*
X034115Y042678D01*
X033961Y042524D01*
X033961Y042755D01*
X033884Y042831D01*
X033808Y042831D01*
X033731Y042755D01*
X033731Y042601D01*
X033808Y042524D01*
X033961Y042524D01*
X033884Y042371D02*
X033961Y042294D01*
X033961Y042217D01*
X033961Y042294D02*
X034038Y042371D01*
X034115Y042371D01*
X034191Y042294D01*
X034191Y042141D01*
X034115Y042064D01*
X034115Y041911D02*
X033961Y041911D01*
X033884Y041834D01*
X033884Y041604D01*
X033731Y041604D02*
X034191Y041604D01*
X034191Y041834D01*
X034115Y041911D01*
X033884Y041757D02*
X033731Y041911D01*
X033808Y042064D02*
X033731Y042141D01*
X033731Y042294D01*
X033808Y042371D01*
X033884Y042371D01*
X033197Y042189D02*
X032967Y042189D01*
X032890Y042112D01*
X032890Y041959D01*
X032967Y041882D01*
X033197Y041882D01*
X033044Y041882D02*
X032890Y041729D01*
X032737Y041805D02*
X032660Y041729D01*
X032507Y041729D01*
X032430Y041805D01*
X032430Y041882D01*
X032507Y041959D01*
X032583Y041959D01*
X032507Y041959D02*
X032430Y042036D01*
X032430Y042112D01*
X032507Y042189D01*
X032660Y042189D01*
X032737Y042112D01*
X033197Y042189D02*
X033197Y041729D01*
X032276Y041805D02*
X032200Y041729D01*
X032046Y041729D01*
X031969Y041805D01*
X031969Y041959D01*
X032046Y042036D01*
X032123Y042036D01*
X032276Y041959D01*
X032276Y042189D01*
X031969Y042189D01*
X029441Y043604D02*
X029441Y044064D01*
X029211Y044064D01*
X029134Y043987D01*
X029134Y043834D01*
X029211Y043757D01*
X029441Y043757D01*
X029287Y043757D02*
X029134Y043604D01*
X028981Y043604D02*
X028674Y043911D01*
X028674Y043987D01*
X028750Y044064D01*
X028904Y044064D01*
X028981Y043987D01*
X028981Y043604D02*
X028674Y043604D01*
X028520Y043680D02*
X028520Y043757D01*
X028443Y043834D01*
X028290Y043834D01*
X028213Y043757D01*
X028213Y043680D01*
X028290Y043604D01*
X028443Y043604D01*
X028520Y043680D01*
X028443Y043834D02*
X028520Y043911D01*
X028520Y043987D01*
X028443Y044064D01*
X028290Y044064D01*
X028213Y043987D01*
X028213Y043911D01*
X028290Y043834D01*
X027197Y042564D02*
X026967Y042564D01*
X026890Y042487D01*
X026890Y042334D01*
X026967Y042257D01*
X027197Y042257D01*
X027044Y042257D02*
X026890Y042104D01*
X026737Y042104D02*
X026430Y042411D01*
X026430Y042487D01*
X026507Y042564D01*
X026660Y042564D01*
X026737Y042487D01*
X026816Y042413D02*
X026586Y042183D01*
X026586Y042490D01*
X026433Y042643D02*
X026356Y042720D01*
X026356Y042873D01*
X026433Y042950D01*
X026509Y042950D01*
X026586Y042873D01*
X026586Y042797D01*
X026586Y042873D02*
X026663Y042950D01*
X026740Y042950D01*
X026816Y042873D01*
X026816Y042720D01*
X026740Y042643D01*
X026816Y042413D02*
X026356Y042413D01*
X026276Y042334D02*
X026046Y042334D01*
X025969Y042257D01*
X025969Y042180D01*
X026046Y042104D01*
X026200Y042104D01*
X026276Y042180D01*
X026276Y042334D01*
X026123Y042487D01*
X025969Y042564D01*
X026430Y042104D02*
X026737Y042104D01*
X026740Y042029D02*
X026586Y042029D01*
X026509Y041953D01*
X026509Y041722D01*
X026356Y041722D02*
X026816Y041722D01*
X026816Y041953D01*
X026740Y042029D01*
X026509Y041876D02*
X026356Y042029D01*
X026433Y041569D02*
X026740Y041262D01*
X026740Y041416D02*
X026433Y041416D01*
X026430Y041411D02*
X026430Y041487D01*
X026507Y041564D01*
X026660Y041564D01*
X026737Y041487D01*
X026740Y041569D02*
X026433Y041262D01*
X026430Y041411D02*
X026737Y041104D01*
X026430Y041104D01*
X026276Y041180D02*
X026200Y041104D01*
X026046Y041104D01*
X025969Y041180D01*
X025969Y041334D01*
X026046Y041411D01*
X026123Y041411D01*
X026276Y041334D01*
X026276Y041564D01*
X025969Y041564D01*
X026586Y041569D02*
X026586Y041262D01*
X026890Y041334D02*
X026967Y041257D01*
X027197Y041257D01*
X027044Y041257D02*
X026890Y041104D01*
X026890Y041334D02*
X026890Y041487D01*
X026967Y041564D01*
X027197Y041564D01*
X027197Y041104D01*
X027356Y040575D02*
X027356Y040268D01*
X027287Y040132D02*
X027134Y039979D01*
X027211Y040132D02*
X027134Y040209D01*
X027134Y040362D01*
X027211Y040439D01*
X027441Y040439D01*
X027441Y039979D01*
X027509Y039961D02*
X027356Y040115D01*
X027441Y040132D02*
X027211Y040132D01*
X026981Y040055D02*
X026904Y039979D01*
X026750Y039979D01*
X026674Y040055D01*
X026674Y040132D01*
X026750Y040209D01*
X026827Y040209D01*
X026750Y040209D02*
X026674Y040286D01*
X026674Y040362D01*
X026750Y040439D01*
X026904Y040439D01*
X026981Y040362D01*
X027356Y040422D02*
X027816Y040422D01*
X027663Y040268D01*
X027740Y040115D02*
X027586Y040115D01*
X027509Y040038D01*
X027509Y039808D01*
X027356Y039808D02*
X027816Y039808D01*
X027816Y040038D01*
X027740Y040115D01*
X027740Y039654D02*
X027433Y039347D01*
X027586Y039347D02*
X027586Y039654D01*
X027433Y039654D02*
X027740Y039347D01*
X027740Y039501D02*
X027433Y039501D01*
X026520Y039979D02*
X026213Y039979D01*
X026367Y039979D02*
X026367Y040439D01*
X026520Y040286D01*
X026221Y039224D02*
X026221Y038934D01*
X025701Y038934D02*
X025701Y039234D01*
X025441Y039143D02*
X025211Y039143D01*
X025288Y039297D01*
X025288Y039373D01*
X025211Y039450D01*
X025058Y039450D01*
X024981Y039373D01*
X024981Y039220D01*
X025058Y039143D01*
X024981Y038990D02*
X024981Y038683D01*
X024981Y038836D02*
X025441Y038836D01*
X025288Y038683D01*
X025365Y038529D02*
X025441Y038453D01*
X025441Y038299D01*
X025365Y038222D01*
X025058Y038222D01*
X024981Y038299D01*
X024981Y038453D01*
X025058Y038529D01*
X025441Y039143D02*
X025441Y039450D01*
X025441Y039722D02*
X025441Y039953D01*
X025365Y040029D01*
X025211Y040029D01*
X025134Y039953D01*
X025134Y039722D01*
X024981Y039722D02*
X025441Y039722D01*
X025134Y039876D02*
X024981Y040029D01*
X025058Y040183D02*
X024981Y040260D01*
X024981Y040413D01*
X025058Y040490D01*
X025134Y040490D01*
X025211Y040413D01*
X025211Y040336D01*
X025211Y040413D02*
X025288Y040490D01*
X025365Y040490D01*
X025441Y040413D01*
X025441Y040260D01*
X025365Y040183D01*
X025365Y040643D02*
X025441Y040720D01*
X025441Y040873D01*
X025365Y040950D01*
X025058Y040643D01*
X024981Y040720D01*
X024981Y040873D01*
X025058Y040950D01*
X025365Y040950D01*
X025365Y040643D02*
X025058Y040643D01*
X027197Y042104D02*
X027197Y042564D01*
X026316Y044604D02*
X026316Y045064D01*
X026086Y045064D01*
X026009Y044987D01*
X026009Y044834D01*
X026086Y044757D01*
X026316Y044757D01*
X026162Y044757D02*
X026009Y044604D01*
X025856Y044604D02*
X025549Y044911D01*
X025549Y044987D01*
X025625Y045064D01*
X025779Y045064D01*
X025856Y044987D01*
X025856Y044604D02*
X025549Y044604D01*
X025395Y044680D02*
X025318Y044604D01*
X025165Y044604D01*
X025088Y044680D01*
X025088Y044987D01*
X025165Y045064D01*
X025318Y045064D01*
X025395Y044987D01*
X025395Y044911D01*
X025318Y044834D01*
X025088Y044834D01*
X025088Y045604D02*
X025395Y045604D01*
X025088Y045911D01*
X025088Y045987D01*
X025165Y046064D01*
X025318Y046064D01*
X025395Y045987D01*
X025549Y045987D02*
X025549Y045911D01*
X025625Y045834D01*
X025549Y045757D01*
X025549Y045680D01*
X025625Y045604D01*
X025779Y045604D01*
X025856Y045680D01*
X026009Y045604D02*
X026162Y045757D01*
X026086Y045757D02*
X026316Y045757D01*
X026316Y045604D02*
X026316Y046064D01*
X026086Y046064D01*
X026009Y045987D01*
X026009Y045834D01*
X026086Y045757D01*
X025856Y045987D02*
X025779Y046064D01*
X025625Y046064D01*
X025549Y045987D01*
X025625Y045834D02*
X025702Y045834D01*
X027106Y046174D02*
X027106Y046328D01*
X027183Y046404D01*
X027106Y046558D02*
X027106Y046865D01*
X027106Y046711D02*
X027566Y046711D01*
X027413Y046558D01*
X027490Y046404D02*
X027566Y046328D01*
X027566Y046174D01*
X027490Y046097D01*
X027183Y046097D01*
X027106Y046174D01*
X027776Y046579D02*
X027776Y047339D01*
X027566Y047248D02*
X027106Y047248D01*
X027336Y047325D02*
X027336Y047018D01*
X027566Y047248D01*
X028396Y047339D02*
X028396Y046579D01*
X026441Y047979D02*
X026441Y048439D01*
X026211Y048439D01*
X026134Y048362D01*
X026134Y048209D01*
X026211Y048132D01*
X026441Y048132D01*
X026287Y048132D02*
X026134Y047979D01*
X025981Y047979D02*
X025674Y048286D01*
X025674Y048362D01*
X025750Y048439D01*
X025904Y048439D01*
X025981Y048362D01*
X025981Y047979D02*
X025674Y047979D01*
X025520Y047979D02*
X025520Y048055D01*
X025213Y048362D01*
X025213Y048439D01*
X025520Y048439D01*
X026588Y054604D02*
X026895Y054604D01*
X026588Y054911D01*
X026588Y054987D01*
X026665Y055064D01*
X026818Y055064D01*
X026895Y054987D01*
X027049Y054987D02*
X027049Y054834D01*
X027125Y054757D01*
X027356Y054757D01*
X027356Y054604D02*
X027356Y055064D01*
X027125Y055064D01*
X027049Y054987D01*
X027202Y054757D02*
X027049Y054604D01*
X027509Y054680D02*
X027816Y054987D01*
X027816Y054834D02*
X027509Y054834D01*
X027509Y054987D02*
X027816Y054680D01*
X027662Y054680D02*
X027662Y054987D01*
X017952Y045362D02*
X017876Y045439D01*
X017646Y045439D01*
X017646Y044979D01*
X017876Y044979D01*
X017952Y045055D01*
X017952Y045362D01*
X017492Y045362D02*
X017415Y045439D01*
X017262Y045439D01*
X017185Y045362D01*
X017185Y045286D01*
X017262Y045209D01*
X017415Y045209D01*
X017492Y045132D01*
X017492Y045055D01*
X017415Y044979D01*
X017262Y044979D01*
X017185Y045055D01*
X017032Y045439D02*
X016725Y044979D01*
X016571Y045055D02*
X016495Y044979D01*
X016341Y044979D01*
X016264Y045055D01*
X016264Y045362D01*
X016341Y045439D01*
X016495Y045439D01*
X016571Y045362D01*
X016111Y045439D02*
X016111Y044979D01*
X015804Y044979D02*
X015804Y045439D01*
X015957Y045286D01*
X016111Y045439D01*
X015651Y045439D02*
X015651Y044979D01*
X015344Y044979D02*
X015344Y045439D01*
X015497Y045286D01*
X015651Y045439D01*
X014653Y045439D02*
X014653Y044979D01*
X014576Y044979D02*
X014730Y044979D01*
X014423Y045055D02*
X014423Y045209D01*
X014346Y045286D01*
X014193Y045286D01*
X014116Y045209D01*
X014116Y045055D01*
X014193Y044979D01*
X014346Y044979D01*
X014423Y045055D01*
X014576Y045439D02*
X014653Y045439D01*
X013962Y045209D02*
X013962Y044979D01*
X013962Y045209D02*
X013886Y045286D01*
X013655Y045286D01*
X013655Y044979D01*
X013502Y045132D02*
X013195Y045132D01*
X013195Y045055D02*
X013195Y045209D01*
X013272Y045286D01*
X013425Y045286D01*
X013502Y045209D01*
X013502Y045132D01*
X013425Y044979D02*
X013272Y044979D01*
X013195Y045055D01*
X013042Y044979D02*
X013042Y045209D01*
X012965Y045286D01*
X012811Y045286D01*
X012735Y045209D01*
X012581Y045209D02*
X012581Y045055D01*
X012505Y044979D01*
X012274Y044979D01*
X012121Y044979D02*
X012121Y045209D01*
X012044Y045286D01*
X011967Y045209D01*
X011967Y044979D01*
X011814Y044979D02*
X011814Y045286D01*
X011891Y045286D01*
X011967Y045209D01*
X011660Y045209D02*
X011354Y045209D01*
X011354Y045286D02*
X011507Y045439D01*
X011660Y045286D01*
X011660Y044979D01*
X011354Y044979D02*
X011354Y045286D01*
X012274Y045286D02*
X012505Y045286D01*
X012581Y045209D01*
X012735Y045439D02*
X012735Y044979D01*
X012274Y044825D02*
X012274Y045286D01*
X016606Y040977D02*
X016606Y040824D01*
X016683Y040747D01*
X016836Y040747D02*
X016913Y040901D01*
X016913Y040977D01*
X016836Y041054D01*
X016683Y041054D01*
X016606Y040977D01*
X016836Y040747D02*
X017066Y040747D01*
X017066Y041054D01*
X017066Y040594D02*
X016990Y040594D01*
X016683Y040287D01*
X016606Y040287D01*
X016683Y040133D02*
X016606Y040057D01*
X016606Y039903D01*
X016683Y039826D01*
X016990Y040133D01*
X016683Y040133D01*
X016990Y040133D02*
X017066Y040057D01*
X017066Y039903D01*
X016990Y039826D01*
X016683Y039826D01*
X016606Y039673D02*
X016606Y039366D01*
X016913Y039673D01*
X016990Y039673D01*
X017066Y039596D01*
X017066Y039443D01*
X016990Y039366D01*
X016913Y039213D02*
X017066Y039059D01*
X016913Y038906D01*
X016606Y038906D01*
X016606Y038752D02*
X017066Y038445D01*
X016990Y038292D02*
X017066Y038215D01*
X017066Y038062D01*
X016990Y037985D01*
X016683Y037985D01*
X016606Y038062D01*
X016606Y038215D01*
X016683Y038292D01*
X016606Y038445D02*
X017066Y038752D01*
X016836Y038906D02*
X016836Y039213D01*
X016913Y039213D02*
X016606Y039213D01*
X017066Y040287D02*
X017066Y040594D01*
X019106Y040824D02*
X019183Y040747D01*
X019106Y040824D02*
X019106Y040977D01*
X019183Y041054D01*
X019336Y041054D01*
X019413Y040977D01*
X019413Y040901D01*
X019336Y040747D01*
X019566Y040747D01*
X019566Y041054D01*
X019566Y040594D02*
X019490Y040594D01*
X019183Y040287D01*
X019106Y040287D01*
X019183Y040133D02*
X019106Y040057D01*
X019106Y039903D01*
X019183Y039826D01*
X019490Y040133D01*
X019183Y040133D01*
X019490Y040133D02*
X019566Y040057D01*
X019566Y039903D01*
X019490Y039826D01*
X019183Y039826D01*
X019106Y039673D02*
X019106Y039366D01*
X019413Y039673D01*
X019490Y039673D01*
X019566Y039596D01*
X019566Y039443D01*
X019490Y039366D01*
X019413Y039213D02*
X019106Y039213D01*
X019336Y039213D02*
X019336Y038906D01*
X019413Y038906D02*
X019566Y039059D01*
X019413Y039213D01*
X019413Y038906D02*
X019106Y038906D01*
X019106Y038752D02*
X019566Y038445D01*
X019490Y038292D02*
X019566Y038215D01*
X019566Y038062D01*
X019490Y037985D01*
X019183Y037985D01*
X019106Y038062D01*
X019106Y038215D01*
X019183Y038292D01*
X019106Y038445D02*
X019566Y038752D01*
X020365Y038081D02*
X020058Y037774D01*
X019981Y037774D01*
X019981Y037621D02*
X019981Y037314D01*
X019981Y037161D02*
X020134Y037007D01*
X020134Y037084D02*
X020134Y036854D01*
X020039Y036862D02*
X020039Y036555D01*
X019962Y036479D01*
X019809Y036479D01*
X019732Y036555D01*
X019578Y036479D02*
X019271Y036939D01*
X019336Y036911D02*
X019259Y036834D01*
X019259Y036604D01*
X019271Y036479D02*
X019578Y036939D01*
X019490Y036911D02*
X019566Y036834D01*
X019566Y036604D01*
X019106Y036604D01*
X019118Y036709D02*
X018811Y036709D01*
X018811Y036786D02*
X018811Y036479D01*
X018658Y036479D02*
X018351Y036786D01*
X018351Y036862D01*
X018427Y036939D01*
X018581Y036939D01*
X018658Y036862D01*
X018811Y036786D02*
X018964Y036939D01*
X019118Y036786D01*
X019118Y036479D01*
X019259Y036757D02*
X019106Y036911D01*
X019183Y037064D02*
X019106Y037141D01*
X019106Y037294D01*
X019183Y037371D01*
X019259Y037371D01*
X019336Y037294D01*
X019336Y037217D01*
X019336Y037294D02*
X019413Y037371D01*
X019490Y037371D01*
X019566Y037294D01*
X019566Y037141D01*
X019490Y037064D01*
X019490Y036911D02*
X019336Y036911D01*
X019732Y036862D02*
X019809Y036939D01*
X019962Y036939D01*
X020039Y036862D01*
X019981Y036854D02*
X020441Y036854D01*
X020441Y037084D01*
X020365Y037161D01*
X020211Y037161D01*
X020134Y037084D01*
X020288Y037314D02*
X020441Y037467D01*
X019981Y037467D01*
X020441Y037774D02*
X020441Y038081D01*
X020365Y038081D01*
X020856Y038005D02*
X020856Y037851D01*
X020933Y037774D01*
X021009Y037774D01*
X021086Y037851D01*
X021086Y038005D01*
X021009Y038081D01*
X020933Y038081D01*
X020856Y038005D01*
X021086Y038005D02*
X021163Y038081D01*
X021240Y038081D01*
X021316Y038005D01*
X021316Y037851D01*
X021240Y037774D01*
X021163Y037774D01*
X021086Y037851D01*
X020856Y037621D02*
X020856Y037314D01*
X020856Y037161D02*
X021009Y037007D01*
X021009Y037084D02*
X021009Y036854D01*
X020959Y036862D02*
X020883Y036939D01*
X020729Y036939D01*
X020653Y036862D01*
X020653Y036786D01*
X020959Y036479D01*
X020653Y036479D01*
X020499Y036402D02*
X020192Y036402D01*
X020856Y036854D02*
X021316Y036854D01*
X021316Y037084D01*
X021240Y037161D01*
X021086Y037161D01*
X021009Y037084D01*
X021190Y036939D02*
X021113Y036862D01*
X021113Y036709D01*
X021190Y036632D01*
X021420Y036632D01*
X021420Y036479D02*
X021420Y036939D01*
X021190Y036939D01*
X021266Y036632D02*
X021113Y036479D01*
X021163Y037314D02*
X021316Y037467D01*
X020856Y037467D01*
X019029Y037524D02*
X019029Y037831D01*
X018120Y036939D02*
X017967Y036939D01*
X017890Y036862D01*
X018197Y036555D01*
X018120Y036479D01*
X017967Y036479D01*
X017890Y036555D01*
X017890Y036862D01*
X017737Y036939D02*
X017430Y036939D01*
X017430Y036862D01*
X017737Y036555D01*
X017737Y036479D01*
X018197Y036555D02*
X018197Y036862D01*
X018120Y036939D01*
X018351Y036479D02*
X018658Y036479D01*
X017276Y036555D02*
X017200Y036479D01*
X017046Y036479D01*
X016969Y036555D01*
X016969Y036709D01*
X017046Y036786D01*
X017123Y036786D01*
X017276Y036709D01*
X017276Y036939D01*
X016969Y036939D01*
X016990Y036911D02*
X016836Y036911D01*
X016759Y036834D01*
X016759Y036604D01*
X016606Y036604D02*
X017066Y036604D01*
X017066Y036834D01*
X016990Y036911D01*
X016913Y037064D02*
X017066Y037217D01*
X016606Y037217D01*
X016606Y037064D02*
X016606Y037371D01*
X016529Y037524D02*
X016529Y037831D01*
X016191Y037851D02*
X016191Y038005D01*
X016115Y038081D01*
X016038Y038081D01*
X015961Y038005D01*
X015884Y038081D01*
X015808Y038081D01*
X015731Y038005D01*
X015731Y037851D01*
X015808Y037774D01*
X015731Y037621D02*
X015731Y037314D01*
X015731Y037161D02*
X015884Y037007D01*
X015884Y037084D02*
X015884Y036854D01*
X015731Y036854D02*
X016191Y036854D01*
X016191Y037084D01*
X016115Y037161D01*
X015961Y037161D01*
X015884Y037084D01*
X016038Y037314D02*
X016191Y037467D01*
X015731Y037467D01*
X016115Y037774D02*
X016191Y037851D01*
X015961Y037928D02*
X015961Y038005D01*
X016606Y036911D02*
X016759Y036757D01*
X017731Y034880D02*
X018191Y034880D01*
X017961Y034649D01*
X017961Y034956D01*
X017731Y034496D02*
X017731Y034189D01*
X017731Y034036D02*
X017884Y033882D01*
X017884Y033959D02*
X017884Y033729D01*
X017731Y033729D02*
X018191Y033729D01*
X018191Y033959D01*
X018115Y034036D01*
X017961Y034036D01*
X017884Y033959D01*
X018038Y034189D02*
X018191Y034342D01*
X017731Y034342D01*
X018231Y033373D02*
X018691Y033373D01*
X018461Y033143D01*
X018461Y033450D01*
X018308Y032990D02*
X018231Y032913D01*
X018231Y032760D01*
X018308Y032683D01*
X018615Y032683D01*
X018691Y032760D01*
X018691Y032913D01*
X018615Y032990D01*
X018951Y032934D02*
X018951Y033234D01*
X019471Y033224D02*
X019471Y032934D01*
X022731Y033979D02*
X023191Y033979D01*
X023191Y034209D01*
X023115Y034286D01*
X022961Y034286D01*
X022884Y034209D01*
X022884Y033979D01*
X022884Y034132D02*
X022731Y034286D01*
X022731Y034439D02*
X022731Y034746D01*
X022731Y034592D02*
X023191Y034592D01*
X023038Y034439D01*
X022961Y034899D02*
X022808Y034899D01*
X022731Y034976D01*
X022731Y035130D01*
X022808Y035206D01*
X022884Y035206D01*
X022961Y035130D01*
X022961Y034899D01*
X023115Y035053D01*
X023191Y035206D01*
X027719Y037180D02*
X027796Y037104D01*
X027950Y037104D01*
X028026Y037180D01*
X028180Y037180D02*
X028257Y037104D01*
X028410Y037104D01*
X028487Y037180D01*
X028640Y037104D02*
X028794Y037257D01*
X028717Y037257D02*
X028947Y037257D01*
X028947Y037104D02*
X028947Y037564D01*
X028717Y037564D01*
X028640Y037487D01*
X028640Y037334D01*
X028717Y037257D01*
X028487Y037487D02*
X028410Y037564D01*
X028257Y037564D01*
X028180Y037487D01*
X028180Y037411D01*
X028257Y037334D01*
X028180Y037257D01*
X028180Y037180D01*
X028257Y037334D02*
X028333Y037334D01*
X028026Y037487D02*
X027950Y037564D01*
X027796Y037564D01*
X027719Y037487D01*
X027719Y037411D01*
X027796Y037334D01*
X027719Y037257D01*
X027719Y037180D01*
X027796Y037334D02*
X027873Y037334D01*
X019566Y040287D02*
X019566Y040594D01*
X013615Y033325D02*
X013538Y033325D01*
X013461Y033248D01*
X013384Y033325D01*
X013308Y033325D01*
X013231Y033248D01*
X013231Y033095D01*
X013308Y033018D01*
X013308Y032865D02*
X013231Y032788D01*
X013231Y032635D01*
X013308Y032558D01*
X013615Y032558D01*
X013691Y032635D01*
X013691Y032788D01*
X013615Y032865D01*
X013615Y033018D02*
X013691Y033095D01*
X013691Y033248D01*
X013615Y033325D01*
X013461Y033248D02*
X013461Y033172D01*
X013471Y033099D02*
X013471Y032809D01*
X013951Y032809D02*
X013951Y033109D01*
X014471Y033099D02*
X014471Y032809D01*
X012951Y032809D02*
X012951Y033109D01*
X012691Y033095D02*
X012691Y033248D01*
X012615Y033325D01*
X012538Y033325D01*
X012231Y033018D01*
X012231Y033325D01*
X012471Y033099D02*
X012471Y032809D01*
X012615Y032865D02*
X012691Y032788D01*
X012691Y032635D01*
X012615Y032558D01*
X012308Y032558D01*
X012231Y032635D01*
X012231Y032788D01*
X012308Y032865D01*
X012615Y033018D02*
X012691Y033095D01*
X011951Y033109D02*
X011951Y032809D01*
X011691Y032788D02*
X011691Y032635D01*
X011615Y032558D01*
X011308Y032558D01*
X011231Y032635D01*
X011231Y032788D01*
X011308Y032865D01*
X011231Y033018D02*
X011231Y033325D01*
X011231Y033172D02*
X011691Y033172D01*
X011538Y033018D01*
X011615Y032865D02*
X011691Y032788D01*
X010072Y025064D02*
X009842Y025064D01*
X009765Y024987D01*
X009765Y024834D01*
X009842Y024757D01*
X010072Y024757D01*
X009919Y024757D02*
X009765Y024604D01*
X009612Y024604D02*
X009305Y024604D01*
X009458Y024604D02*
X009458Y025064D01*
X009612Y024911D01*
X009151Y024987D02*
X009075Y025064D01*
X008921Y025064D01*
X008844Y024987D01*
X008844Y024911D01*
X009151Y024604D01*
X008844Y024604D01*
X008919Y024189D02*
X008919Y023729D01*
X009072Y023729D02*
X008765Y023729D01*
X008612Y023729D02*
X008305Y023729D01*
X008458Y023729D02*
X008458Y024189D01*
X008612Y024036D01*
X008919Y024189D02*
X009072Y024036D01*
X009226Y024112D02*
X009226Y023959D01*
X009302Y023882D01*
X009533Y023882D01*
X009533Y023729D02*
X009533Y024189D01*
X009302Y024189D01*
X009226Y024112D01*
X009379Y023882D02*
X009226Y023729D01*
X008151Y023729D02*
X007844Y024036D01*
X007844Y024112D01*
X007921Y024189D01*
X008075Y024189D01*
X008151Y024112D01*
X008151Y023729D02*
X007844Y023729D01*
X007072Y023729D02*
X007072Y024189D01*
X006842Y024189D01*
X006765Y024112D01*
X006765Y023959D01*
X006842Y023882D01*
X007072Y023882D01*
X006919Y023882D02*
X006765Y023729D01*
X006612Y023805D02*
X006535Y023729D01*
X006382Y023729D01*
X006305Y023805D01*
X006305Y023882D01*
X006382Y023959D01*
X006458Y023959D01*
X006382Y023959D02*
X006305Y024036D01*
X006305Y024112D01*
X006382Y024189D01*
X006535Y024189D01*
X006612Y024112D01*
X006151Y023959D02*
X005844Y023959D01*
X005921Y024189D02*
X006151Y023959D01*
X005921Y023729D02*
X005921Y024189D01*
X006969Y024680D02*
X007046Y024604D01*
X007200Y024604D01*
X007276Y024680D01*
X007430Y024604D02*
X007583Y024757D01*
X007507Y024757D02*
X007737Y024757D01*
X007737Y024604D02*
X007737Y025064D01*
X007507Y025064D01*
X007430Y024987D01*
X007430Y024834D01*
X007507Y024757D01*
X007276Y024987D02*
X007200Y025064D01*
X007046Y025064D01*
X006969Y024987D01*
X006969Y024911D01*
X007046Y024834D01*
X006969Y024757D01*
X006969Y024680D01*
X007046Y024834D02*
X007123Y024834D01*
X010072Y024604D02*
X010072Y025064D01*
X020049Y013939D02*
X020356Y013939D01*
X020356Y013709D01*
X020202Y013786D01*
X020125Y013786D01*
X020049Y013709D01*
X020049Y013555D01*
X020125Y013479D01*
X020279Y013479D01*
X020356Y013555D01*
X020509Y013479D02*
X020662Y013632D01*
X020586Y013632D02*
X020816Y013632D01*
X020816Y013479D02*
X020816Y013939D01*
X020586Y013939D01*
X020509Y013862D01*
X020509Y013709D01*
X020586Y013632D01*
X021586Y010456D02*
X021586Y010149D01*
X021816Y010380D01*
X021356Y010380D01*
X021424Y010189D02*
X021424Y010112D01*
X021731Y009805D01*
X021731Y009729D01*
X021740Y009689D02*
X021816Y009766D01*
X021816Y009919D01*
X021740Y009996D01*
X021663Y009996D01*
X021356Y009689D01*
X021356Y009996D01*
X021424Y010189D02*
X021731Y010189D01*
X021884Y010112D02*
X021961Y010189D01*
X022191Y010189D01*
X022191Y009729D01*
X022191Y009882D02*
X021961Y009882D01*
X021884Y009959D01*
X021884Y010112D01*
X022037Y009882D02*
X021884Y009729D01*
X021740Y009536D02*
X021586Y009536D01*
X021509Y009459D01*
X021509Y009229D01*
X021356Y009229D02*
X021816Y009229D01*
X021816Y009459D01*
X021740Y009536D01*
X021509Y009382D02*
X021356Y009536D01*
X021250Y009189D02*
X021481Y008959D01*
X021174Y008959D01*
X021250Y008729D02*
X021250Y009189D01*
X021634Y009112D02*
X021634Y008959D01*
X021711Y008882D01*
X021941Y008882D01*
X021941Y008729D02*
X021941Y009189D01*
X021711Y009189D01*
X021634Y009112D01*
X021787Y008882D02*
X021634Y008729D01*
X021529Y007564D02*
X021375Y007564D01*
X021299Y007487D01*
X021299Y007411D01*
X021375Y007334D01*
X021529Y007334D01*
X021606Y007411D01*
X021606Y007487D01*
X021529Y007564D01*
X021529Y007334D02*
X021606Y007257D01*
X021606Y007180D01*
X021529Y007104D01*
X021375Y007104D01*
X021299Y007180D01*
X021299Y007257D01*
X021375Y007334D01*
X021759Y007334D02*
X021836Y007257D01*
X022066Y007257D01*
X022066Y007104D02*
X022066Y007564D01*
X021836Y007564D01*
X021759Y007487D01*
X021759Y007334D01*
X021912Y007257D02*
X021759Y007104D01*
X023344Y006487D02*
X023651Y006180D01*
X023575Y006104D01*
X023421Y006104D01*
X023344Y006180D01*
X023344Y006487D01*
X023421Y006564D01*
X023575Y006564D01*
X023651Y006487D01*
X023651Y006180D01*
X023805Y006104D02*
X024112Y006104D01*
X024265Y006104D02*
X024419Y006257D01*
X024342Y006257D02*
X024572Y006257D01*
X024572Y006104D02*
X024572Y006564D01*
X024342Y006564D01*
X024265Y006487D01*
X024265Y006334D01*
X024342Y006257D01*
X024112Y006411D02*
X023958Y006564D01*
X023958Y006104D01*
X026061Y006824D02*
X026351Y006824D01*
X026361Y007343D02*
X026061Y007343D01*
X026000Y007604D02*
X025924Y007680D01*
X025924Y007757D01*
X026000Y007834D01*
X026231Y007834D01*
X026231Y007680D01*
X026154Y007604D01*
X026000Y007604D01*
X026231Y007834D02*
X026077Y007987D01*
X025924Y008064D01*
X026384Y007987D02*
X026461Y008064D01*
X026614Y008064D01*
X026691Y007987D01*
X026691Y007680D01*
X026614Y007604D01*
X026461Y007604D01*
X026384Y007680D01*
X026796Y010604D02*
X026719Y010680D01*
X026719Y010757D01*
X026796Y010834D01*
X027026Y010834D01*
X027026Y010680D01*
X026950Y010604D01*
X026796Y010604D01*
X027026Y010834D02*
X026873Y010987D01*
X026719Y011064D01*
X027180Y010987D02*
X027180Y010834D01*
X027257Y010757D01*
X027487Y010757D01*
X027487Y010604D02*
X027487Y011064D01*
X027257Y011064D01*
X027180Y010987D01*
X027333Y010757D02*
X027180Y010604D01*
X028356Y012479D02*
X028816Y012479D01*
X028816Y012709D01*
X028740Y012786D01*
X028586Y012786D01*
X028509Y012709D01*
X028509Y012479D01*
X028509Y012632D02*
X028356Y012786D01*
X028433Y012939D02*
X028356Y013016D01*
X028356Y013169D01*
X028433Y013246D01*
X028740Y013246D01*
X028816Y013169D01*
X028816Y013016D01*
X028740Y012939D01*
X028663Y012939D01*
X028586Y013016D01*
X028586Y013246D01*
X042651Y001464D02*
X042651Y000704D01*
X043271Y000704D02*
X043271Y001464D01*
X043481Y001371D02*
X043481Y001064D01*
X043481Y001217D02*
X043941Y001217D01*
X043788Y001064D01*
X043865Y000911D02*
X043941Y000834D01*
X043941Y000680D01*
X043865Y000604D01*
X043558Y000604D01*
X043481Y000680D01*
X043481Y000834D01*
X043558Y000911D01*
X043558Y001524D02*
X043481Y001601D01*
X043481Y001755D01*
X043558Y001831D01*
X043634Y001831D01*
X043711Y001755D01*
X043711Y001678D01*
X043711Y001755D02*
X043788Y001831D01*
X043865Y001831D01*
X043941Y001755D01*
X043941Y001601D01*
X043865Y001524D01*
X050219Y029104D02*
X050526Y029104D01*
X050373Y029104D02*
X050373Y029564D01*
X050526Y029411D01*
X050680Y029411D02*
X050680Y029487D01*
X050757Y029564D01*
X050910Y029564D01*
X050987Y029487D01*
X051140Y029487D02*
X051140Y029334D01*
X051217Y029257D01*
X051447Y029257D01*
X051294Y029257D02*
X051140Y029104D01*
X050987Y029104D02*
X050680Y029411D01*
X050680Y029104D02*
X050987Y029104D01*
X051140Y029487D02*
X051217Y029564D01*
X051447Y029564D01*
X051447Y029104D01*
X045316Y033979D02*
X045316Y034209D01*
X045240Y034286D01*
X045086Y034286D01*
X045009Y034209D01*
X045009Y033979D01*
X044856Y033979D02*
X045316Y033979D01*
X045009Y034132D02*
X044856Y034286D01*
X045086Y034439D02*
X045086Y034746D01*
X045145Y034680D02*
X045145Y034604D01*
X045145Y034680D02*
X044838Y034987D01*
X044838Y035064D01*
X045145Y035064D01*
X045163Y035206D02*
X045240Y035206D01*
X045316Y035130D01*
X045316Y034976D01*
X045240Y034899D01*
X045299Y034911D02*
X045375Y034834D01*
X045299Y034757D01*
X045299Y034680D01*
X045375Y034604D01*
X045529Y034604D01*
X045606Y034680D01*
X045759Y034604D02*
X045912Y034757D01*
X045836Y034757D02*
X046066Y034757D01*
X046066Y034604D02*
X046066Y035064D01*
X045836Y035064D01*
X045759Y034987D01*
X045759Y034834D01*
X045836Y034757D01*
X045606Y034987D02*
X045529Y035064D01*
X045375Y035064D01*
X045299Y034987D01*
X045299Y034911D01*
X045375Y034834D02*
X045452Y034834D01*
X045316Y034669D02*
X045086Y034439D01*
X044856Y034669D02*
X045316Y034669D01*
X044856Y034899D02*
X044856Y035206D01*
X044856Y034899D02*
X045163Y035206D01*
X044566Y035097D02*
X044566Y035328D01*
X044490Y035404D01*
X044336Y035404D01*
X044259Y035328D01*
X044259Y035097D01*
X044106Y035097D02*
X044566Y035097D01*
X044259Y035251D02*
X044106Y035404D01*
X044336Y035558D02*
X044336Y035865D01*
X044183Y036018D02*
X044490Y036325D01*
X044183Y036325D01*
X044106Y036248D01*
X044106Y036095D01*
X044183Y036018D01*
X044490Y036018D01*
X044566Y036095D01*
X044566Y036248D01*
X044490Y036325D01*
X044867Y036314D02*
X044867Y035854D01*
X045020Y035854D02*
X044713Y035854D01*
X044566Y035788D02*
X044106Y035788D01*
X043816Y035788D02*
X043740Y035865D01*
X043663Y035865D01*
X043586Y035788D01*
X043509Y035865D01*
X043433Y035865D01*
X043356Y035788D01*
X043356Y035635D01*
X043433Y035558D01*
X043356Y035404D02*
X043509Y035251D01*
X043509Y035328D02*
X043509Y035097D01*
X043356Y035097D02*
X043816Y035097D01*
X043816Y035328D01*
X043740Y035404D01*
X043586Y035404D01*
X043509Y035328D01*
X043740Y035558D02*
X043816Y035635D01*
X043816Y035788D01*
X043586Y035788D02*
X043586Y035711D01*
X043509Y036018D02*
X043586Y036095D01*
X043586Y036248D01*
X043509Y036325D01*
X043433Y036325D01*
X043356Y036248D01*
X043356Y036095D01*
X043433Y036018D01*
X043509Y036018D01*
X043586Y036095D02*
X043663Y036018D01*
X043740Y036018D01*
X043816Y036095D01*
X043816Y036248D01*
X043740Y036325D01*
X043663Y036325D01*
X043586Y036248D01*
X044336Y035558D02*
X044566Y035788D01*
X045020Y036161D02*
X044867Y036314D01*
X045250Y036314D02*
X045481Y036084D01*
X045174Y036084D01*
X045250Y035854D02*
X045250Y036314D01*
X045634Y036237D02*
X045634Y036084D01*
X045711Y036007D01*
X045941Y036007D01*
X045941Y035854D02*
X045941Y036314D01*
X045711Y036314D01*
X045634Y036237D01*
X045787Y036007D02*
X045634Y035854D01*
X038316Y036104D02*
X038316Y036334D01*
X038240Y036411D01*
X038086Y036411D01*
X038009Y036334D01*
X038009Y036104D01*
X037856Y036104D02*
X038316Y036104D01*
X038009Y036257D02*
X037856Y036411D01*
X037816Y036413D02*
X037740Y036490D01*
X037663Y036490D01*
X037586Y036413D01*
X037509Y036490D01*
X037433Y036490D01*
X037356Y036413D01*
X037356Y036260D01*
X037433Y036183D01*
X037356Y036029D02*
X037509Y035876D01*
X037509Y035953D02*
X037509Y035722D01*
X037356Y035722D02*
X037816Y035722D01*
X037816Y035953D01*
X037740Y036029D01*
X037586Y036029D01*
X037509Y035953D01*
X037740Y036183D02*
X037816Y036260D01*
X037816Y036413D01*
X037856Y036564D02*
X037856Y036871D01*
X037816Y036873D02*
X037816Y036720D01*
X037740Y036643D01*
X037663Y036643D01*
X037586Y036720D01*
X037586Y036950D01*
X037433Y036950D02*
X037740Y036950D01*
X037816Y036873D01*
X037856Y036717D02*
X038316Y036717D01*
X038163Y036564D01*
X038163Y037024D02*
X038086Y037101D01*
X038086Y037331D01*
X037933Y037331D02*
X038240Y037331D01*
X038316Y037255D01*
X038316Y037101D01*
X038240Y037024D01*
X038163Y037024D01*
X037933Y037024D02*
X037856Y037101D01*
X037856Y037255D01*
X037933Y037331D01*
X037433Y036950D02*
X037356Y036873D01*
X037356Y036720D01*
X037433Y036643D01*
X037586Y036413D02*
X037586Y036336D01*
D12*
X020298Y012959D03*
X020878Y012959D03*
X021673Y009209D03*
X022253Y009209D03*
X022003Y008209D03*
X021423Y008209D03*
X023169Y007083D03*
X023749Y007083D03*
X022128Y006584D03*
X021548Y006584D03*
X026544Y011583D03*
X027124Y011583D03*
X009249Y025583D03*
X008669Y025583D03*
X008249Y024708D03*
X007669Y024708D03*
X007374Y025583D03*
X006794Y025583D03*
X006249Y024708D03*
X005669Y024708D03*
X026923Y039459D03*
X027503Y039459D03*
X027544Y038083D03*
X028124Y038083D03*
X026374Y042083D03*
X025794Y042083D03*
X025794Y043083D03*
X026374Y043083D03*
X026378Y044084D03*
X025798Y044084D03*
X025798Y045084D03*
X026378Y045084D03*
X026503Y047459D03*
X025923Y047459D03*
X031794Y042708D03*
X032374Y042708D03*
X033044Y045083D03*
X033624Y045083D03*
X027878Y054084D03*
X027298Y054084D03*
X050048Y052334D03*
X050628Y052334D03*
X050628Y051334D03*
X050048Y051334D03*
X046003Y035334D03*
X045423Y035334D03*
X045548Y034084D03*
X046128Y034084D03*
X050044Y030083D03*
X050624Y030083D03*
D13*
X044337Y033917D03*
X044337Y034497D03*
X044335Y035921D03*
X044335Y036501D03*
X045085Y036501D03*
X045085Y035921D03*
X028335Y040171D03*
X028335Y040751D03*
X027335Y042546D03*
X027335Y043126D03*
X025960Y041126D03*
X025960Y040546D03*
X020337Y037372D03*
X020337Y036792D03*
X019462Y036792D03*
X019462Y037372D03*
X022212Y034497D03*
X022212Y033917D03*
X015212Y036792D03*
X015212Y037372D03*
X027837Y012997D03*
X027837Y012417D03*
X020837Y009747D03*
X020837Y009167D03*
D14*
X037336Y036064D03*
X038336Y036064D03*
X038336Y037104D03*
X037336Y037104D03*
X033211Y041564D03*
X033211Y042604D03*
D15*
X029481Y043084D03*
X028441Y043084D03*
D16*
X025961Y039366D03*
X025961Y038796D03*
X019211Y033366D03*
X019211Y032796D03*
X014211Y032671D03*
X014211Y033241D03*
X013211Y033241D03*
X013211Y032671D03*
X012211Y032671D03*
X012211Y033241D03*
D17*
X028086Y046436D03*
X028086Y047481D03*
X042961Y001606D03*
X042961Y000561D03*
D18*
X017211Y033869D03*
X017211Y034549D03*
X016086Y036744D03*
X016086Y037424D03*
X018586Y037424D03*
X018586Y036744D03*
D19*
X025923Y007084D03*
X026493Y007084D03*
D20*
X017676Y037459D03*
X016996Y037459D03*
D21*
X040836Y019034D02*
X040911Y019034D01*
X041211Y019334D01*
X041286Y019334D01*
X041286Y019034D01*
X040886Y015455D02*
X040886Y015154D01*
X040886Y015305D02*
X041336Y015305D01*
X041186Y015154D01*
X041036Y014994D02*
X041336Y014994D01*
X041036Y014994D02*
X040886Y014844D01*
X041036Y014694D01*
X041336Y014694D01*
X041261Y014534D02*
X041336Y014459D01*
X041336Y014309D01*
X041261Y014234D01*
X041186Y014234D01*
X041111Y014309D01*
X041111Y014459D01*
X041036Y014534D01*
X040961Y014534D01*
X040886Y014459D01*
X040886Y014309D01*
X040961Y014234D01*
X040836Y013334D02*
X040836Y013034D01*
X040836Y013184D02*
X041286Y013184D01*
X041136Y013034D01*
X041211Y012334D02*
X040911Y012034D01*
X040836Y012034D01*
X041286Y012034D02*
X041286Y012334D01*
X041211Y012334D01*
X041186Y008455D02*
X041111Y008380D01*
X041036Y008455D01*
X040961Y008455D01*
X040886Y008380D01*
X040886Y008229D01*
X040961Y008154D01*
X041036Y007994D02*
X041336Y007994D01*
X041261Y008154D02*
X041336Y008229D01*
X041336Y008380D01*
X041261Y008455D01*
X041186Y008455D01*
X041111Y008380D02*
X041111Y008305D01*
X041036Y007994D02*
X040886Y007844D01*
X041036Y007694D01*
X041336Y007694D01*
X041261Y007534D02*
X041336Y007459D01*
X041336Y007309D01*
X041261Y007234D01*
X041186Y007234D01*
X041111Y007309D01*
X041111Y007459D01*
X041036Y007534D01*
X040961Y007534D01*
X040886Y007459D01*
X040886Y007309D01*
X040961Y007234D01*
X040836Y006334D02*
X040836Y006034D01*
X040836Y006184D02*
X041286Y006184D01*
X041136Y006034D01*
D22*
X040411Y006209D03*
X040011Y006209D03*
X040011Y007209D03*
X040411Y007209D03*
X040411Y008209D03*
X040011Y008209D03*
X040011Y009209D03*
X040411Y009209D03*
X040411Y010209D03*
X040011Y010209D03*
X040011Y011209D03*
X040411Y011209D03*
X040411Y012209D03*
X040011Y012209D03*
X040011Y013209D03*
X040411Y013209D03*
X040411Y014209D03*
X040011Y014209D03*
X040011Y015209D03*
X040411Y015209D03*
X040411Y016209D03*
X040011Y016209D03*
X040011Y017209D03*
X040411Y017209D03*
X040411Y018209D03*
X040011Y018209D03*
X040011Y019209D03*
X040411Y019209D03*
M02*
