G75*
G70*
%OFA0B0*%
%FSLAX24Y24*%
%IPPOS*%
%LPD*%
%AMOC8*
5,1,8,0,0,1.08239X$1,22.5*
%
%ADD10C,0.0160*%
%ADD11C,0.0700*%
%ADD12C,0.0635*%
%ADD13C,0.0630*%
%ADD14C,0.0860*%
%ADD15OC8,0.0860*%
%ADD16R,0.0669X0.0669*%
%ADD17C,0.1772*%
%ADD18C,0.0827*%
%ADD19C,0.0835*%
%ADD20R,0.0500X0.1000*%
%ADD21R,0.0280X0.0560*%
%ADD22C,0.0715*%
%ADD23C,0.0787*%
%ADD24C,0.0787*%
%ADD25R,0.0709X0.0709*%
%ADD26C,0.1181*%
%ADD27R,0.0472X0.0472*%
%ADD28R,0.0591X0.0512*%
%ADD29C,0.0320*%
%ADD30C,0.0400*%
%ADD31C,0.0240*%
%ADD32C,0.0120*%
%ADD33C,0.1969*%
D10*
X004275Y005200D02*
X001650Y007825D01*
X001650Y010575D01*
X002775Y011825D01*
X003525Y012200D02*
X003525Y011200D01*
X002275Y009950D01*
X002275Y008075D01*
X004525Y005825D01*
X013400Y005825D01*
X014275Y004950D01*
X014275Y003450D01*
X015400Y002325D01*
X020775Y002325D01*
X021025Y002575D01*
X021025Y006013D01*
X020525Y006513D01*
X019150Y005325D02*
X018275Y006200D01*
X016525Y006200D01*
X015650Y007075D01*
X004775Y007075D01*
X004275Y007575D01*
X004275Y009325D01*
X004150Y009450D01*
X004276Y010325D02*
X004150Y010451D01*
X004276Y010325D02*
X009775Y010325D01*
X013175Y013725D01*
X013175Y014625D01*
X013175Y015675D01*
X012525Y016325D01*
X012025Y017075D02*
X011275Y016325D01*
X012025Y017075D02*
X012025Y018200D01*
X011275Y018200D01*
X010400Y019075D01*
X010400Y020450D01*
X011150Y020825D01*
X011150Y021825D02*
X009713Y021825D01*
X009275Y021388D01*
X009275Y020700D01*
X009275Y018200D01*
X009775Y017450D01*
X009025Y017450D01*
X008175Y016600D01*
X008175Y014625D01*
X008175Y013825D01*
X007025Y012675D01*
X005100Y012675D01*
X005100Y012575D01*
X004981Y012575D01*
X004150Y012738D02*
X004150Y013200D01*
X004025Y013325D01*
X003525Y013325D01*
X003275Y013575D01*
X004150Y013412D02*
X004150Y013200D01*
X004981Y013825D02*
X005025Y013875D01*
X005025Y014700D01*
X004276Y015449D01*
X003400Y015449D01*
X003400Y014701D02*
X003687Y014701D01*
X004150Y014238D01*
X003525Y012200D02*
X001775Y013950D01*
X001775Y036450D01*
X002525Y037200D01*
X008025Y037200D01*
X009400Y035825D01*
X009400Y034950D01*
X010525Y033825D01*
X011650Y033825D01*
X008275Y030325D02*
X007900Y030700D01*
X008275Y030325D02*
X008275Y028638D01*
X008713Y028200D01*
X016775Y028200D01*
X017150Y027825D01*
X016025Y027575D02*
X012775Y027575D01*
X010775Y025575D01*
X010025Y025575D01*
X009275Y024825D01*
X009275Y023700D01*
X007900Y024575D02*
X005400Y024575D01*
X004650Y025325D01*
X003900Y024575D01*
X002900Y024575D01*
X002338Y024013D01*
X002338Y017513D01*
X007213Y015513D02*
X007175Y015050D01*
X007175Y014625D01*
X008175Y013825D02*
X011175Y013825D01*
X011175Y014625D01*
X010175Y014625D02*
X010175Y015175D01*
X010150Y015450D01*
X009175Y015050D02*
X009175Y014625D01*
X009175Y015050D02*
X009025Y015450D01*
X011900Y015450D02*
X012175Y015050D01*
X012175Y014625D01*
X015169Y013825D02*
X015775Y013825D01*
X015775Y017825D01*
X015650Y017825D01*
X015025Y018450D01*
X015025Y018700D01*
X014150Y018450D02*
X013400Y017075D01*
X013275Y018200D02*
X012025Y018200D01*
X013275Y018200D02*
X013775Y018700D01*
X013775Y023450D01*
X014775Y024450D01*
X016400Y024450D01*
X018775Y026450D01*
X029150Y026450D01*
X030525Y025075D01*
X030525Y024325D01*
X032150Y022700D01*
X036275Y022700D01*
X036900Y023325D01*
X036900Y027950D01*
X038900Y029950D01*
X039525Y029950D01*
X039525Y028950D02*
X038650Y028950D01*
X037400Y027700D01*
X037400Y022825D01*
X036775Y022200D01*
X032025Y022200D01*
X030025Y024200D01*
X030025Y024825D01*
X028900Y025950D01*
X018900Y025950D01*
X016525Y023950D01*
X015025Y023950D01*
X014150Y023075D01*
X014150Y018450D01*
X015025Y019638D02*
X015650Y017888D01*
X019400Y017888D01*
X019900Y018263D01*
X019900Y018325D02*
X020463Y017763D01*
X021275Y015888D02*
X020713Y015325D01*
X019900Y015325D01*
X018150Y015450D02*
X017150Y016450D01*
X016400Y016075D02*
X017650Y014825D01*
X017650Y013450D01*
X018775Y012325D01*
X018900Y012325D01*
X018900Y013325D02*
X018650Y013325D01*
X018150Y013825D01*
X018150Y015450D01*
X016400Y016075D02*
X016400Y016825D01*
X017525Y017950D01*
X017525Y019325D01*
X018650Y020575D01*
X018650Y020950D01*
X017775Y021825D01*
X017775Y023450D01*
X018525Y024200D01*
X027400Y024200D01*
X027900Y024700D01*
X027275Y025450D02*
X026588Y024575D01*
X018150Y024575D01*
X017400Y023825D01*
X017400Y021075D01*
X017900Y020825D01*
X018775Y021200D02*
X018150Y021825D01*
X018150Y022325D01*
X018525Y022700D01*
X019025Y022700D01*
X019838Y022138D01*
X022150Y022138D01*
X022775Y022450D01*
X025525Y022450D01*
X026025Y021950D01*
X026025Y021700D01*
X026025Y019825D01*
X025400Y019825D02*
X025400Y021200D01*
X024900Y021700D01*
X023775Y021700D02*
X023775Y021013D01*
X024900Y019888D01*
X023400Y019700D02*
X023400Y020075D01*
X022400Y021075D01*
X021275Y021075D01*
X021713Y021763D02*
X019838Y021763D01*
X018775Y022075D01*
X019900Y022575D02*
X018900Y023325D01*
X018900Y023575D01*
X019900Y022575D02*
X021650Y022575D01*
X022400Y022950D01*
X026150Y022950D01*
X026900Y022200D01*
X026900Y020013D01*
X027900Y020013D02*
X027900Y022075D01*
X027869Y022106D01*
X026650Y023325D01*
X020900Y023325D01*
X020900Y023200D01*
X021650Y023700D02*
X027150Y023700D01*
X028400Y022450D01*
X028400Y019825D01*
X028900Y020013D02*
X028900Y021438D01*
X028993Y021531D01*
X029900Y022325D01*
X028993Y021531D02*
X028900Y021450D01*
X030150Y020700D02*
X036400Y020700D01*
X036900Y020013D02*
X037775Y020888D01*
X037775Y021763D01*
X039150Y023138D01*
X040150Y023138D01*
X040400Y023388D01*
X040650Y022325D02*
X039650Y022325D01*
X038400Y021075D01*
X038400Y020825D01*
X037150Y019575D01*
X035525Y019575D01*
X034275Y018325D01*
X033525Y018325D01*
X032025Y016825D01*
X031525Y016825D01*
X031775Y015825D02*
X033775Y017825D01*
X034525Y017825D01*
X035775Y019075D01*
X037400Y019075D01*
X039025Y020700D01*
X039150Y020700D01*
X039900Y021450D01*
X040650Y022325D02*
X042025Y023700D01*
X042900Y023325D02*
X039775Y020200D01*
X039275Y020200D01*
X037650Y018575D01*
X036025Y018575D01*
X035150Y017700D01*
X035150Y015575D01*
X034900Y015325D01*
X034650Y015325D01*
X034650Y014325D02*
X035025Y014325D01*
X035650Y014950D01*
X035650Y017450D01*
X036275Y018075D01*
X037900Y018075D01*
X039525Y019700D01*
X040150Y019700D01*
X044775Y024325D01*
X044775Y038700D01*
X044525Y038950D01*
X043900Y038950D01*
X043900Y039950D02*
X044400Y039825D01*
X045275Y038950D01*
X045275Y034075D01*
X045150Y033950D01*
X045150Y023950D01*
X040400Y019200D01*
X039775Y019200D01*
X038150Y017575D01*
X036525Y017575D01*
X036150Y017200D01*
X036150Y014325D01*
X035150Y013325D01*
X034525Y013325D01*
X034650Y011325D02*
X036650Y011325D01*
X037775Y011325D02*
X038400Y011325D01*
X039025Y011950D01*
X039025Y016950D01*
X040275Y018200D01*
X041025Y018200D01*
X042525Y019700D01*
X045900Y019700D01*
X046525Y020325D01*
X047275Y019200D02*
X046775Y018700D01*
X044650Y018700D01*
X043650Y017700D01*
X043650Y008325D01*
X044146Y007829D01*
X044904Y007829D01*
X044904Y008829D02*
X045911Y008829D01*
X046407Y009325D01*
X047157Y009325D01*
X048150Y009325D02*
X048525Y009325D01*
X048900Y009700D01*
X048900Y016575D01*
X048525Y017200D01*
X048525Y022388D01*
X048400Y022513D01*
X048400Y024825D01*
X048525Y024950D01*
X048525Y036950D01*
X048400Y037075D01*
X048400Y039075D01*
X049150Y039450D02*
X048650Y039950D01*
X047025Y039950D01*
X045525Y041450D01*
X044525Y041450D01*
X044150Y040950D02*
X043900Y040950D01*
X043275Y040450D02*
X043025Y040200D01*
X043025Y035200D01*
X043275Y034950D01*
X043900Y034950D01*
X042525Y035950D02*
X042525Y040825D01*
X043150Y041450D01*
X043275Y041450D01*
X042150Y041200D02*
X042150Y042450D01*
X041775Y042825D01*
X041150Y043575D02*
X040525Y042950D01*
X040525Y040325D01*
X040150Y039950D01*
X039525Y039950D01*
X039525Y038950D02*
X040150Y038950D01*
X040838Y038263D01*
X040838Y035763D01*
X040963Y035513D01*
X040963Y028013D01*
X040400Y027450D01*
X040275Y026950D02*
X039525Y026950D01*
X039025Y027450D02*
X038900Y027450D01*
X038525Y027075D01*
X038525Y024700D01*
X039400Y023950D01*
X038150Y024075D02*
X038025Y024200D01*
X038025Y027700D01*
X038775Y028450D01*
X038900Y028450D01*
X040150Y028450D02*
X040463Y028763D01*
X040463Y036638D01*
X040150Y036950D01*
X039525Y036950D01*
X038525Y036325D02*
X037400Y037450D01*
X034525Y037450D01*
X034525Y038325D01*
X034400Y038450D01*
X034150Y038450D01*
X034150Y037450D02*
X034525Y037450D01*
X035150Y036950D02*
X034525Y036325D01*
X034525Y035200D01*
X034275Y034950D01*
X033525Y034950D01*
X034900Y034825D02*
X034900Y036075D01*
X035275Y036450D01*
X036900Y036450D01*
X037525Y035825D01*
X037525Y035075D01*
X038650Y033950D01*
X038650Y033700D01*
X038900Y033200D01*
X039150Y032950D01*
X039525Y032950D01*
X038525Y032950D02*
X038150Y033825D01*
X037025Y034950D01*
X037025Y035700D01*
X036650Y036075D01*
X035650Y036075D01*
X035400Y035825D01*
X035400Y034950D01*
X036775Y033575D01*
X037025Y033575D01*
X037650Y032950D01*
X037650Y031450D01*
X034900Y028700D01*
X034900Y024200D01*
X034400Y023700D01*
X032525Y023700D01*
X031525Y024700D01*
X031525Y025450D01*
X029775Y027200D01*
X018275Y027200D01*
X016150Y025450D01*
X014275Y025450D01*
X013025Y024200D01*
X013025Y021200D01*
X012650Y020825D01*
X012150Y020825D01*
X012150Y019825D02*
X012900Y019825D01*
X013400Y020325D01*
X013400Y023825D01*
X014525Y024950D01*
X016275Y024950D01*
X018525Y026825D01*
X029525Y026825D01*
X031025Y025325D01*
X031025Y024575D01*
X032400Y023200D01*
X035775Y023200D01*
X036275Y023700D01*
X036275Y028200D01*
X039025Y030950D01*
X039525Y030950D01*
X039525Y031950D02*
X038900Y031950D01*
X038525Y032325D01*
X038525Y032950D01*
X038025Y033200D02*
X036150Y035075D01*
X036150Y035450D01*
X034900Y034825D02*
X036525Y033200D01*
X036775Y033200D01*
X037275Y032700D01*
X037275Y031825D01*
X034525Y029075D01*
X034525Y024450D01*
X034275Y024200D01*
X032775Y024200D01*
X032025Y024950D01*
X032025Y025700D01*
X030150Y027575D01*
X018025Y027575D01*
X016150Y026075D01*
X014150Y026075D01*
X012275Y024200D01*
X012275Y021950D01*
X012150Y021825D01*
X015025Y022700D02*
X015025Y023075D01*
X015400Y023450D01*
X016525Y023450D01*
X016900Y023075D01*
X016900Y018200D01*
X016525Y017825D01*
X015775Y017825D01*
X018775Y021200D02*
X019400Y021200D01*
X021713Y021763D02*
X022025Y021700D01*
X023775Y021700D01*
X027275Y025450D02*
X028650Y025450D01*
X029025Y024700D01*
X032525Y025325D02*
X032900Y024950D01*
X033525Y024950D01*
X033525Y025950D02*
X033150Y025950D01*
X032025Y027075D01*
X032025Y027950D01*
X029900Y030825D01*
X026275Y030825D01*
X025775Y030325D01*
X025775Y029450D01*
X024775Y029450D02*
X024775Y030825D01*
X025275Y031325D01*
X030150Y031325D01*
X032525Y028075D01*
X032525Y027575D01*
X033150Y026950D01*
X033525Y026950D01*
X033525Y027950D02*
X033275Y027950D01*
X030275Y031825D01*
X024025Y031825D01*
X023775Y031575D01*
X023775Y029450D01*
X022775Y029450D02*
X022775Y031450D01*
X023650Y032325D01*
X030525Y032325D01*
X033025Y029200D01*
X033525Y028950D01*
X033525Y029950D02*
X033025Y030075D01*
X030775Y032825D01*
X023400Y032825D01*
X021775Y031200D01*
X021775Y029450D01*
X020775Y029450D02*
X020775Y030950D01*
X023150Y033325D01*
X031025Y033325D01*
X033150Y030950D01*
X033525Y030950D01*
X034525Y030950D01*
X035150Y031575D01*
X036025Y031575D01*
X036525Y032450D02*
X035025Y032450D01*
X034525Y031950D01*
X033525Y031950D01*
X033150Y031950D01*
X031400Y033825D01*
X022775Y033825D01*
X019775Y030825D01*
X019775Y029450D01*
X018275Y028575D02*
X014213Y028575D01*
X013775Y029013D01*
X013775Y029450D01*
X013275Y026950D02*
X013275Y026200D01*
X008275Y021200D01*
X008275Y020700D01*
X007900Y024575D02*
X009525Y026200D01*
X009525Y026575D01*
X004650Y025325D02*
X004650Y029825D01*
X004275Y030200D01*
X003275Y030200D01*
X003275Y031200D02*
X006025Y031200D01*
X006525Y030700D01*
X022400Y034325D02*
X029775Y034325D01*
X029775Y035450D01*
X032525Y037450D02*
X032525Y038200D01*
X032588Y038263D01*
X032775Y038450D01*
X032900Y038450D01*
X032900Y037450D02*
X032525Y037450D01*
X035150Y036950D02*
X037150Y036950D01*
X038025Y036075D01*
X038025Y035200D01*
X039275Y033950D01*
X039525Y033950D01*
X038025Y033200D02*
X038025Y030825D01*
X035525Y028325D01*
X035525Y024200D01*
X032525Y025325D02*
X032525Y025825D01*
X030025Y028450D01*
X027150Y028450D01*
X026775Y028825D01*
X026775Y029450D01*
X038525Y035575D02*
X038525Y036325D01*
X038525Y035575D02*
X039150Y034950D01*
X039525Y034950D01*
X041400Y035888D02*
X041213Y036200D01*
X041213Y036950D01*
X041400Y037138D01*
X041400Y041325D01*
X041275Y041450D01*
X041900Y040950D02*
X042150Y041200D01*
X041900Y040950D02*
X041900Y036575D01*
X041400Y035888D02*
X041400Y025325D01*
X041775Y024575D02*
X042275Y025075D01*
X042275Y027200D01*
X041775Y027700D01*
X041775Y035200D01*
X042525Y035950D01*
X045650Y033575D02*
X045650Y039575D01*
X045525Y039700D01*
X045900Y040450D02*
X044525Y040450D01*
X045900Y040450D02*
X046775Y039575D01*
X046775Y038450D01*
X047150Y037950D01*
X047150Y037575D01*
X046650Y037075D01*
X046650Y034575D01*
X047213Y034013D01*
X047213Y027888D01*
X046275Y026950D01*
X046275Y024450D01*
X047775Y022950D01*
X047775Y015075D01*
X048025Y014825D01*
X050775Y013700D02*
X050775Y018200D01*
X050525Y018450D01*
X050525Y021450D01*
X051650Y022575D01*
X053275Y022575D01*
X053525Y022825D01*
X053900Y022075D02*
X054525Y022700D01*
X054525Y023075D01*
X055021Y023636D02*
X055025Y023640D01*
X055025Y024950D01*
X056275Y026200D01*
X056275Y033075D01*
X054900Y034450D01*
X054775Y033950D02*
X053775Y033950D01*
X053150Y033450D02*
X053025Y033450D01*
X052775Y033200D01*
X052775Y032700D01*
X053025Y032450D01*
X053150Y032450D01*
X052900Y031950D02*
X053775Y031950D01*
X054400Y032450D02*
X054775Y032075D01*
X054775Y031450D01*
X054275Y030950D01*
X053775Y030950D01*
X053775Y029950D02*
X054400Y029950D01*
X054650Y029700D01*
X054650Y028325D01*
X053025Y026700D01*
X053025Y023640D01*
X053021Y023636D01*
X053525Y024200D02*
X053525Y026200D01*
X055150Y027825D01*
X055150Y032450D01*
X054650Y032950D01*
X053775Y032950D01*
X054525Y033450D02*
X054650Y033450D01*
X055525Y032575D01*
X055525Y027325D01*
X054025Y025825D01*
X054025Y023640D01*
X054021Y023636D01*
X054525Y024200D02*
X054525Y025450D01*
X055900Y026825D01*
X055900Y032825D01*
X054775Y033950D01*
X055150Y035388D02*
X056775Y033763D01*
X056775Y025700D01*
X055525Y024450D01*
X056525Y024575D02*
X056525Y024325D01*
X056525Y024575D02*
X057275Y025325D01*
X057275Y034388D01*
X055900Y035763D01*
X055900Y037763D01*
X056775Y038638D01*
X056775Y039388D01*
X056213Y039950D01*
X053775Y039950D01*
X053150Y039450D02*
X053025Y039450D01*
X052400Y040075D01*
X052400Y041450D01*
X053150Y042450D01*
X054275Y042450D02*
X054400Y042450D01*
X054650Y042700D01*
X054650Y043200D01*
X054400Y043450D01*
X054275Y043450D01*
X055025Y043950D02*
X054400Y044575D01*
X053025Y044575D01*
X052650Y044200D01*
X051025Y041450D01*
X051025Y040700D01*
X050775Y040450D01*
X050650Y040450D01*
X051400Y040325D02*
X051400Y041450D01*
X051525Y041575D01*
X050900Y041950D02*
X050525Y041450D01*
X050400Y041950D02*
X049900Y041950D01*
X050400Y041950D02*
X051150Y043200D01*
X051150Y044575D01*
X050650Y045075D01*
X037150Y045075D01*
X035025Y042950D01*
X033525Y042950D01*
X033525Y041950D02*
X035275Y041950D01*
X037900Y044575D01*
X050525Y044575D01*
X050775Y044325D01*
X050775Y043450D01*
X050275Y042950D01*
X049900Y042950D01*
X049900Y043950D02*
X048150Y043950D01*
X047650Y043450D01*
X047650Y041825D01*
X047525Y040950D02*
X048775Y040950D01*
X049275Y041450D01*
X049150Y040450D02*
X047275Y040450D01*
X045275Y042450D01*
X044525Y042450D01*
X043900Y042950D02*
X045525Y042950D01*
X047525Y040950D01*
X049150Y039450D02*
X049275Y039450D01*
X050525Y039450D02*
X051400Y040325D01*
X053775Y040950D02*
X055025Y040950D01*
X055525Y041450D01*
X055525Y043450D01*
X059223Y043450D01*
X060400Y043450D02*
X060650Y043450D01*
X060900Y043200D01*
X060900Y040575D01*
X063400Y038763D01*
X063900Y038638D02*
X064525Y039263D01*
X065650Y039263D01*
X065775Y039388D01*
X063900Y038638D02*
X063900Y038013D01*
X063400Y036950D02*
X062775Y036325D01*
X062775Y035263D01*
X063650Y034388D01*
X063650Y028325D01*
X064025Y027950D01*
X064025Y012450D01*
X061400Y009825D01*
X059775Y009825D01*
X059775Y010825D02*
X061525Y010825D01*
X063525Y012825D01*
X063525Y027575D01*
X063150Y027950D01*
X063150Y034325D01*
X062025Y035450D01*
X062025Y036513D01*
X062400Y036888D01*
X062400Y037325D01*
X061525Y036763D02*
X061525Y035325D01*
X062650Y034200D01*
X062650Y027700D01*
X062275Y027325D01*
X061400Y027700D02*
X061400Y024575D01*
X061775Y024200D01*
X061775Y022700D01*
X060525Y021450D01*
X060525Y021325D01*
X059650Y021825D02*
X058900Y021825D01*
X058525Y021450D01*
X059650Y021825D02*
X060525Y022700D01*
X060525Y023075D01*
X060025Y023640D02*
X060021Y023636D01*
X060025Y023640D02*
X059775Y024575D01*
X059775Y028950D01*
X058775Y029575D02*
X058775Y027700D01*
X059025Y027450D01*
X059025Y023640D01*
X059021Y023636D01*
X058021Y023636D02*
X058021Y024321D01*
X058275Y024575D01*
X058275Y030075D01*
X059150Y030950D01*
X059775Y030950D01*
X059775Y029950D02*
X059150Y029950D01*
X058775Y029575D01*
X057775Y030450D02*
X057775Y025075D01*
X057025Y024325D01*
X057025Y023640D01*
X057021Y023636D01*
X057025Y023632D01*
X057025Y022825D01*
X055525Y021325D01*
X055525Y021200D01*
X054525Y021200D02*
X056525Y022950D01*
X055525Y022825D02*
X054150Y021575D01*
X052775Y021575D01*
X052525Y021325D01*
X052150Y022075D02*
X053900Y022075D01*
X052150Y022075D02*
X051025Y020950D01*
X051025Y019075D01*
X051525Y018575D01*
X051525Y013825D01*
X052025Y013325D01*
X052025Y010580D01*
X051275Y009830D01*
X050603Y009830D01*
X050603Y010830D02*
X051150Y010830D01*
X051525Y011205D01*
X051525Y012950D01*
X052400Y013700D02*
X052150Y013950D01*
X052150Y018825D01*
X052525Y019200D01*
X052525Y020075D01*
X053150Y018575D02*
X054025Y018575D01*
X054525Y019075D01*
X054525Y020075D01*
X055525Y020075D02*
X055525Y016825D01*
X054525Y015825D01*
X053775Y015825D01*
X053775Y014825D02*
X054525Y014825D01*
X056525Y016825D01*
X056525Y020075D01*
X057275Y019450D02*
X057275Y016575D01*
X054525Y013825D01*
X053775Y013825D01*
X052400Y013700D02*
X052400Y009950D01*
X052275Y009700D01*
X052275Y004450D01*
X052900Y003825D01*
X053775Y003825D01*
X053025Y004325D02*
X052775Y004575D01*
X052775Y006075D01*
X053025Y006325D01*
X053025Y006825D02*
X052775Y007075D01*
X052775Y018200D01*
X049400Y017075D02*
X049400Y007200D01*
X049775Y006825D01*
X050598Y006825D01*
X050603Y006830D01*
X051338Y005325D02*
X051775Y004888D01*
X051775Y003388D01*
X053088Y002075D01*
X054400Y002075D01*
X055025Y002700D01*
X055025Y003950D01*
X054650Y004325D01*
X054900Y005825D02*
X053775Y005825D01*
X054525Y006325D02*
X054900Y006700D01*
X054900Y012450D01*
X054525Y012825D01*
X053775Y012825D01*
X056150Y014450D02*
X056150Y007075D01*
X054900Y005825D01*
X053775Y006825D02*
X053025Y006825D01*
X056775Y004450D02*
X056775Y014200D01*
X058275Y015700D01*
X058275Y018575D01*
X060025Y020325D01*
X060025Y020632D01*
X060021Y020636D01*
X060525Y019950D02*
X058775Y018200D01*
X058775Y016075D01*
X059025Y015825D01*
X059775Y015825D01*
X057775Y016075D02*
X056150Y014450D01*
X057775Y016075D02*
X057775Y018950D01*
X058525Y019700D01*
X058525Y020075D01*
X057525Y020075D02*
X057525Y019700D01*
X057275Y019450D01*
X060525Y024325D02*
X060525Y027950D01*
X061400Y028825D01*
X062150Y028450D02*
X061400Y027700D01*
X062150Y028450D02*
X062150Y029200D01*
X061400Y029950D01*
X061400Y032075D01*
X060525Y032950D01*
X059775Y032950D01*
X059775Y031950D02*
X059275Y031950D01*
X057775Y030450D01*
X061588Y033700D02*
X060775Y034513D01*
X060775Y037513D01*
X060338Y037950D01*
X059775Y037950D01*
X059775Y038950D02*
X058650Y038950D01*
X057275Y037575D01*
X057275Y035825D01*
X055150Y035388D02*
X055150Y038263D01*
X054463Y038950D01*
X053775Y038950D01*
X054400Y039450D02*
X055275Y039450D01*
X055775Y038950D01*
X055400Y040450D02*
X054400Y040450D01*
X054400Y041450D02*
X054650Y041450D01*
X055025Y041825D01*
X055025Y043950D01*
X055525Y044200D02*
X055525Y043450D01*
X055525Y044200D02*
X054775Y044950D01*
X052525Y044950D01*
X050900Y041950D01*
X047650Y043450D02*
X044650Y043450D01*
X043275Y043450D02*
X042650Y044075D01*
X040900Y044075D01*
X040275Y043450D01*
X041150Y043575D02*
X042400Y043575D01*
X042900Y043075D01*
X042900Y042700D01*
X043150Y042450D01*
X038775Y043450D02*
X038025Y043450D01*
X035525Y040950D01*
X033525Y040950D01*
X042525Y032450D02*
X043025Y032450D01*
X043525Y031950D01*
X043900Y031950D01*
X042525Y032450D02*
X042525Y028825D01*
X042900Y028200D02*
X042900Y023325D01*
X041775Y024575D02*
X041025Y024575D01*
X040525Y025075D01*
X040525Y026700D01*
X040275Y026950D01*
X042900Y028200D02*
X043900Y028950D01*
X045525Y029450D02*
X045525Y032200D01*
X046775Y033450D02*
X046775Y028325D01*
X045900Y027450D01*
X045900Y023950D01*
X047275Y022575D01*
X047275Y019200D01*
X049150Y017575D02*
X049150Y022825D01*
X048775Y023200D01*
X048775Y024200D01*
X048963Y024388D01*
X048963Y037638D01*
X049275Y037950D01*
X049900Y037950D01*
X047650Y037450D02*
X047025Y036825D01*
X047025Y035450D01*
X047650Y034825D01*
X047650Y027450D01*
X047025Y026825D01*
X047025Y024825D01*
X047775Y025700D02*
X047775Y026700D01*
X048088Y027013D01*
X048088Y035513D01*
X047900Y036075D01*
X047775Y036575D01*
X047650Y037450D02*
X047650Y038450D01*
X046400Y037825D02*
X046150Y037325D01*
X046150Y034075D01*
X046775Y033450D01*
X049900Y030950D02*
X050650Y030950D01*
X051025Y030575D01*
X051025Y024575D01*
X050150Y023700D01*
X049525Y023700D01*
X045525Y023700D02*
X045525Y023450D01*
X040775Y018700D01*
X040025Y018700D01*
X038525Y017200D01*
X038525Y012700D01*
X038150Y012325D01*
X037775Y012325D01*
X040150Y012825D02*
X041025Y012825D01*
X041650Y013450D01*
X041650Y017700D01*
X042900Y018950D01*
X036900Y020013D02*
X031650Y020013D01*
X030463Y018825D01*
X029400Y019950D02*
X030150Y020700D01*
X025150Y016138D02*
X026025Y014763D01*
X027275Y014763D01*
X028650Y013888D01*
X027963Y014075D02*
X028713Y014825D01*
X029650Y014825D01*
X029650Y015825D02*
X029025Y015825D01*
X027650Y014450D01*
X022400Y014450D01*
X022463Y014075D02*
X027963Y014075D01*
X027838Y013700D02*
X028275Y013263D01*
X028900Y013263D01*
X029463Y013825D01*
X029588Y013825D01*
X029588Y012825D02*
X028025Y012825D01*
X027525Y013325D01*
X022088Y013325D01*
X022213Y013700D02*
X027838Y013700D01*
X027088Y012888D02*
X028150Y011825D01*
X029588Y011825D01*
X029275Y010825D02*
X029150Y010700D01*
X028963Y010825D01*
X028900Y009825D02*
X028525Y009575D01*
X026963Y009575D01*
X026025Y010513D01*
X026025Y011763D01*
X025275Y012513D01*
X021525Y012513D01*
X022150Y012888D02*
X027088Y012888D01*
X024900Y011638D02*
X024900Y010638D01*
X026400Y009138D01*
X028900Y009138D01*
X029213Y008825D01*
X029400Y008825D01*
X031338Y009825D02*
X031713Y009825D01*
X033213Y008325D01*
X033525Y008325D01*
X034713Y008325D02*
X036588Y008325D01*
X037713Y008325D02*
X039588Y008325D01*
X042775Y008325D02*
X043650Y007450D01*
X043650Y005325D01*
X058650Y011325D02*
X058650Y011950D01*
X059025Y012325D01*
X061025Y012325D01*
X061525Y011825D01*
X059150Y011325D02*
X058650Y011325D01*
X060400Y005825D02*
X064525Y009950D01*
X064525Y028950D01*
X064400Y029075D01*
X065025Y029700D02*
X064650Y030075D01*
X064650Y031450D01*
X065025Y029700D02*
X065025Y008450D01*
X060400Y003825D01*
X059775Y003825D01*
X059775Y005825D02*
X060400Y005825D01*
X049400Y017075D02*
X049150Y017575D01*
X052900Y031950D02*
X052400Y032450D01*
X052400Y033700D01*
X053150Y034450D01*
X058650Y039700D02*
X058900Y039450D01*
X058650Y039700D02*
X058650Y040700D01*
X058900Y040950D01*
X059775Y040950D01*
X059775Y039950D02*
X060775Y039950D01*
X062400Y038763D01*
X061150Y037825D02*
X061150Y037138D01*
X061525Y036763D01*
X061150Y037825D02*
X060775Y038200D01*
X060775Y039200D01*
X060525Y039450D01*
X060400Y039450D01*
X056400Y041450D02*
X056400Y041950D01*
X056400Y041450D02*
X055400Y040450D01*
X061588Y033700D02*
X061900Y033700D01*
X022400Y008950D02*
X022400Y008700D01*
X022400Y008950D02*
X021150Y010200D01*
X021150Y011513D01*
X020900Y011763D01*
X020400Y010825D02*
X020650Y010575D01*
X020650Y010013D01*
X021900Y008763D01*
X021900Y008325D01*
X019150Y005325D02*
X019150Y004575D01*
X019650Y004075D01*
X020275Y004075D01*
X021525Y003575D02*
X021525Y002325D01*
X021150Y001950D01*
X014900Y001950D01*
X013525Y003325D01*
X013525Y004700D01*
X013025Y005200D01*
X004275Y005200D01*
X004650Y006450D02*
X003400Y007700D01*
X003400Y008450D01*
X004650Y006450D02*
X015525Y006450D01*
X016275Y005700D01*
X016900Y005700D01*
X017275Y005325D01*
X017275Y004575D01*
X017775Y004075D01*
X018275Y004075D01*
X021525Y003575D02*
X022025Y004075D01*
X022275Y004075D01*
X008275Y008325D02*
X008175Y008425D01*
X004150Y011199D02*
X004150Y011912D01*
D11*
X018900Y012325D03*
X019900Y012325D03*
X019900Y011325D03*
X018900Y011325D03*
X018900Y010325D03*
X019900Y010325D03*
X019900Y009325D03*
X018900Y009325D03*
X018900Y008325D03*
X019900Y008325D03*
X020900Y008325D03*
X021900Y008325D03*
X022900Y008325D03*
X023900Y008325D03*
X024900Y008325D03*
X025900Y008325D03*
X026900Y008325D03*
X027900Y008325D03*
X028900Y008325D03*
X029900Y008325D03*
X029900Y009325D03*
X029900Y010325D03*
X029900Y011325D03*
X029900Y012325D03*
X030900Y012325D03*
X030900Y011325D03*
X030900Y010325D03*
X030900Y009325D03*
X030900Y008325D03*
X029900Y007325D03*
X028900Y007325D03*
X027900Y007325D03*
X026900Y007325D03*
X025900Y007325D03*
X024900Y007325D03*
X023900Y007325D03*
X022900Y007325D03*
X021900Y007325D03*
X020900Y007325D03*
X019900Y007325D03*
X019900Y013325D03*
X018900Y013325D03*
X018900Y014325D03*
X019900Y014325D03*
X019900Y015325D03*
X018900Y015325D03*
X018900Y016325D03*
X019900Y016325D03*
X019900Y017325D03*
X018900Y017325D03*
X018900Y018325D03*
X019900Y018325D03*
X020900Y018325D03*
X021900Y018325D03*
X022900Y018325D03*
X023900Y018325D03*
X024900Y018325D03*
X025900Y018325D03*
X026900Y018325D03*
X027900Y018325D03*
X028900Y018325D03*
X029900Y018325D03*
X029900Y017325D03*
X029900Y016325D03*
X029900Y015325D03*
X029900Y014325D03*
X029900Y013325D03*
X030900Y013325D03*
X030900Y014325D03*
X030900Y015325D03*
X030900Y016325D03*
X030900Y017325D03*
X030900Y018325D03*
X029900Y019325D03*
X028900Y019325D03*
X027900Y019325D03*
X026900Y019325D03*
X025900Y019325D03*
X024900Y019325D03*
X023900Y019325D03*
X022900Y019325D03*
X021900Y019325D03*
X020900Y019325D03*
X019900Y019325D03*
X021275Y015888D03*
X063912Y041979D03*
X064739Y040994D03*
D12*
X060092Y040950D02*
X059458Y040950D01*
X059458Y041950D02*
X060092Y041950D01*
X060092Y042950D02*
X059458Y042950D01*
X059458Y043950D02*
X060092Y043950D01*
X060092Y039950D02*
X059458Y039950D01*
X059458Y038950D02*
X060092Y038950D01*
X060092Y037950D02*
X059458Y037950D01*
X059458Y036950D02*
X060092Y036950D01*
X060092Y035950D02*
X059458Y035950D01*
X059458Y034950D02*
X060092Y034950D01*
X060092Y033950D02*
X059458Y033950D01*
X059458Y032950D02*
X060092Y032950D01*
X060092Y031950D02*
X059458Y031950D01*
X059458Y030950D02*
X060092Y030950D01*
X060092Y029950D02*
X059458Y029950D01*
X059458Y028950D02*
X060092Y028950D01*
X054092Y028950D02*
X053458Y028950D01*
X053458Y029950D02*
X054092Y029950D01*
X054092Y030950D02*
X053458Y030950D01*
X053458Y031950D02*
X054092Y031950D01*
X054092Y032950D02*
X053458Y032950D01*
X053458Y033950D02*
X054092Y033950D01*
X054092Y034950D02*
X053458Y034950D01*
X053458Y035950D02*
X054092Y035950D01*
X054092Y036950D02*
X053458Y036950D01*
X053458Y037950D02*
X054092Y037950D01*
X054092Y038950D02*
X053458Y038950D01*
X053458Y039950D02*
X054092Y039950D01*
X054092Y040950D02*
X053458Y040950D01*
X053458Y041950D02*
X054092Y041950D01*
X054092Y042950D02*
X053458Y042950D01*
X053458Y043950D02*
X054092Y043950D01*
X050217Y043950D02*
X049583Y043950D01*
X049583Y042950D02*
X050217Y042950D01*
X050217Y041950D02*
X049583Y041950D01*
X049583Y040950D02*
X050217Y040950D01*
X050217Y039950D02*
X049583Y039950D01*
X049583Y038950D02*
X050217Y038950D01*
X050217Y037950D02*
X049583Y037950D01*
X049583Y036950D02*
X050217Y036950D01*
X050217Y035950D02*
X049583Y035950D01*
X049583Y034950D02*
X050217Y034950D01*
X050217Y033950D02*
X049583Y033950D01*
X049583Y032950D02*
X050217Y032950D01*
X050217Y031950D02*
X049583Y031950D01*
X049583Y030950D02*
X050217Y030950D01*
X050217Y029950D02*
X049583Y029950D01*
X049583Y028950D02*
X050217Y028950D01*
X050217Y027950D02*
X049583Y027950D01*
X049583Y026950D02*
X050217Y026950D01*
X050217Y025950D02*
X049583Y025950D01*
X049583Y024950D02*
X050217Y024950D01*
X052021Y023954D02*
X052021Y023319D01*
X053021Y023319D02*
X053021Y023954D01*
X054021Y023954D02*
X054021Y023319D01*
X055021Y023319D02*
X055021Y023954D01*
X056021Y023954D02*
X056021Y023319D01*
X057021Y023319D02*
X057021Y023954D01*
X058021Y023954D02*
X058021Y023319D01*
X059021Y023319D02*
X059021Y023954D01*
X060021Y023954D02*
X060021Y023319D01*
X061021Y023319D02*
X061021Y023954D01*
X061021Y020954D02*
X061021Y020319D01*
X060021Y020319D02*
X060021Y020954D01*
X059021Y020954D02*
X059021Y020319D01*
X058021Y020319D02*
X058021Y020954D01*
X057021Y020954D02*
X057021Y020319D01*
X056021Y020319D02*
X056021Y020954D01*
X055021Y020954D02*
X055021Y020319D01*
X054021Y020319D02*
X054021Y020954D01*
X053021Y020954D02*
X053021Y020319D01*
X052021Y020319D02*
X052021Y020954D01*
X053458Y017825D02*
X054092Y017825D01*
X054092Y016825D02*
X053458Y016825D01*
X053458Y015825D02*
X054092Y015825D01*
X054092Y014825D02*
X053458Y014825D01*
X053458Y013825D02*
X054092Y013825D01*
X054092Y012825D02*
X053458Y012825D01*
X053458Y011825D02*
X054092Y011825D01*
X054092Y010825D02*
X053458Y010825D01*
X053458Y009825D02*
X054092Y009825D01*
X054092Y008825D02*
X053458Y008825D01*
X053458Y007825D02*
X054092Y007825D01*
X054092Y006825D02*
X053458Y006825D01*
X053458Y005825D02*
X054092Y005825D01*
X054092Y004825D02*
X053458Y004825D01*
X053458Y003825D02*
X054092Y003825D01*
X054092Y002825D02*
X053458Y002825D01*
X050920Y002830D02*
X050285Y002830D01*
X050285Y003830D02*
X050920Y003830D01*
X050920Y004830D02*
X050285Y004830D01*
X050285Y005830D02*
X050920Y005830D01*
X050920Y006830D02*
X050285Y006830D01*
X050285Y007830D02*
X050920Y007830D01*
X050920Y008830D02*
X050285Y008830D01*
X050285Y009830D02*
X050920Y009830D01*
X050920Y010830D02*
X050285Y010830D01*
X050285Y011830D02*
X050920Y011830D01*
X047920Y011830D02*
X047285Y011830D01*
X047285Y010830D02*
X047920Y010830D01*
X047920Y009830D02*
X047285Y009830D01*
X047285Y008830D02*
X047920Y008830D01*
X047920Y007830D02*
X047285Y007830D01*
X047285Y006830D02*
X047920Y006830D01*
X047920Y005830D02*
X047285Y005830D01*
X047285Y004830D02*
X047920Y004830D01*
X047920Y003830D02*
X047285Y003830D01*
X047285Y002830D02*
X047920Y002830D01*
X045221Y002829D02*
X044586Y002829D01*
X044586Y003829D02*
X045221Y003829D01*
X045221Y004829D02*
X044586Y004829D01*
X044586Y005829D02*
X045221Y005829D01*
X045221Y006829D02*
X044586Y006829D01*
X044586Y007829D02*
X045221Y007829D01*
X045221Y008829D02*
X044586Y008829D01*
X044586Y009829D02*
X045221Y009829D01*
X045221Y010829D02*
X044586Y010829D01*
X044586Y011829D02*
X045221Y011829D01*
X042221Y011829D02*
X041586Y011829D01*
X041586Y010829D02*
X042221Y010829D01*
X042221Y009829D02*
X041586Y009829D01*
X041586Y008829D02*
X042221Y008829D01*
X042221Y007829D02*
X041586Y007829D01*
X040467Y007825D02*
X039833Y007825D01*
X039833Y008825D02*
X040467Y008825D01*
X040467Y009825D02*
X039833Y009825D01*
X039833Y010825D02*
X040467Y010825D01*
X040467Y011825D02*
X039833Y011825D01*
X039833Y012825D02*
X040467Y012825D01*
X040467Y013825D02*
X039833Y013825D01*
X039833Y014825D02*
X040467Y014825D01*
X040467Y015825D02*
X039833Y015825D01*
X039833Y016825D02*
X040467Y016825D01*
X034467Y016825D02*
X033833Y016825D01*
X033833Y015825D02*
X034467Y015825D01*
X034467Y014825D02*
X033833Y014825D01*
X033833Y013825D02*
X034467Y013825D01*
X034467Y012825D02*
X033833Y012825D01*
X033833Y011825D02*
X034467Y011825D01*
X034467Y010825D02*
X033833Y010825D01*
X033833Y009825D02*
X034467Y009825D01*
X034467Y008825D02*
X033833Y008825D01*
X033833Y007825D02*
X034467Y007825D01*
X034467Y006825D02*
X033833Y006825D01*
X033833Y005825D02*
X034467Y005825D01*
X034467Y004825D02*
X033833Y004825D01*
X033833Y003825D02*
X034467Y003825D01*
X039833Y003825D02*
X040467Y003825D01*
X040467Y004825D02*
X039833Y004825D01*
X039833Y005825D02*
X040467Y005825D01*
X040467Y006825D02*
X039833Y006825D01*
X041586Y006829D02*
X042221Y006829D01*
X042221Y005829D02*
X041586Y005829D01*
X041586Y004829D02*
X042221Y004829D01*
X042221Y003829D02*
X041586Y003829D01*
X041586Y002829D02*
X042221Y002829D01*
X059458Y002825D02*
X060092Y002825D01*
X060092Y003825D02*
X059458Y003825D01*
X059458Y004825D02*
X060092Y004825D01*
X060092Y005825D02*
X059458Y005825D01*
X059458Y006825D02*
X060092Y006825D01*
X060092Y007825D02*
X059458Y007825D01*
X059458Y008825D02*
X060092Y008825D01*
X060092Y009825D02*
X059458Y009825D01*
X059458Y010825D02*
X060092Y010825D01*
X060092Y011825D02*
X059458Y011825D01*
X059458Y012825D02*
X060092Y012825D01*
X060092Y013825D02*
X059458Y013825D01*
X059458Y014825D02*
X060092Y014825D01*
X060092Y015825D02*
X059458Y015825D01*
X059458Y016825D02*
X060092Y016825D01*
X060092Y017825D02*
X059458Y017825D01*
X044217Y024950D02*
X043583Y024950D01*
X043583Y025950D02*
X044217Y025950D01*
X044217Y026950D02*
X043583Y026950D01*
X043583Y027950D02*
X044217Y027950D01*
X044217Y028950D02*
X043583Y028950D01*
X043583Y029950D02*
X044217Y029950D01*
X044217Y030950D02*
X043583Y030950D01*
X043583Y031950D02*
X044217Y031950D01*
X044217Y032950D02*
X043583Y032950D01*
X043583Y033950D02*
X044217Y033950D01*
X044217Y034950D02*
X043583Y034950D01*
X043583Y035950D02*
X044217Y035950D01*
X044217Y036950D02*
X043583Y036950D01*
X043583Y037950D02*
X044217Y037950D01*
X044217Y038950D02*
X043583Y038950D01*
X043583Y039950D02*
X044217Y039950D01*
X044217Y040950D02*
X043583Y040950D01*
X043583Y041950D02*
X044217Y041950D01*
X044217Y042950D02*
X043583Y042950D01*
X043583Y043950D02*
X044217Y043950D01*
X039842Y043950D02*
X039208Y043950D01*
X039208Y042950D02*
X039842Y042950D01*
X039842Y041950D02*
X039208Y041950D01*
X039208Y040950D02*
X039842Y040950D01*
X039842Y039950D02*
X039208Y039950D01*
X039208Y038950D02*
X039842Y038950D01*
X039842Y037950D02*
X039208Y037950D01*
X039208Y036950D02*
X039842Y036950D01*
X039842Y035950D02*
X039208Y035950D01*
X039208Y034950D02*
X039842Y034950D01*
X039842Y033950D02*
X039208Y033950D01*
X039208Y032950D02*
X039842Y032950D01*
X039842Y031950D02*
X039208Y031950D01*
X039208Y030950D02*
X039842Y030950D01*
X039842Y029950D02*
X039208Y029950D01*
X039208Y028950D02*
X039842Y028950D01*
X039842Y027950D02*
X039208Y027950D01*
X039208Y026950D02*
X039842Y026950D01*
X039842Y025950D02*
X039208Y025950D01*
X039208Y024950D02*
X039842Y024950D01*
X033842Y024950D02*
X033208Y024950D01*
X033208Y025950D02*
X033842Y025950D01*
X033842Y026950D02*
X033208Y026950D01*
X033208Y027950D02*
X033842Y027950D01*
X033842Y028950D02*
X033208Y028950D01*
X033208Y029950D02*
X033842Y029950D01*
X033842Y030950D02*
X033208Y030950D01*
X033208Y031950D02*
X033842Y031950D01*
X033842Y032950D02*
X033208Y032950D01*
X033208Y033950D02*
X033842Y033950D01*
X033842Y034950D02*
X033208Y034950D01*
X033208Y035950D02*
X033842Y035950D01*
X033842Y036950D02*
X033208Y036950D01*
X033208Y037950D02*
X033842Y037950D01*
X033842Y038950D02*
X033208Y038950D01*
X033208Y039950D02*
X033842Y039950D01*
X033842Y040950D02*
X033208Y040950D01*
X033208Y041950D02*
X033842Y041950D01*
X033842Y042950D02*
X033208Y042950D01*
X033208Y043950D02*
X033842Y043950D01*
X029775Y035767D02*
X029775Y035133D01*
X028775Y035133D02*
X028775Y035767D01*
X027775Y035767D02*
X027775Y035133D01*
X026775Y035133D02*
X026775Y035767D01*
X025775Y035767D02*
X025775Y035133D01*
X024775Y035133D02*
X024775Y035767D01*
X023775Y035767D02*
X023775Y035133D01*
X022775Y035133D02*
X022775Y035767D01*
X021775Y035767D02*
X021775Y035133D01*
X020775Y035133D02*
X020775Y035767D01*
X019775Y035767D02*
X019775Y035133D01*
X018775Y035133D02*
X018775Y035767D01*
X017775Y035767D02*
X017775Y035133D01*
X016775Y035133D02*
X016775Y035767D01*
X015775Y035767D02*
X015775Y035133D01*
X014775Y035133D02*
X014775Y035767D01*
X013775Y035767D02*
X013775Y035133D01*
X012775Y035133D02*
X012775Y035767D01*
X011775Y035767D02*
X011775Y035133D01*
X010775Y035133D02*
X010775Y035767D01*
X007592Y036200D02*
X006958Y036200D01*
X006958Y035200D02*
X007592Y035200D01*
X007592Y034200D02*
X006958Y034200D01*
X006958Y033200D02*
X007592Y033200D01*
X007592Y032200D02*
X006958Y032200D01*
X006958Y031200D02*
X007592Y031200D01*
X007592Y030200D02*
X006958Y030200D01*
X006958Y029200D02*
X007592Y029200D01*
X007592Y028200D02*
X006958Y028200D01*
X006958Y027200D02*
X007592Y027200D01*
X007592Y026200D02*
X006958Y026200D01*
X006958Y025200D02*
X007592Y025200D01*
X007275Y024017D02*
X007275Y023383D01*
X006275Y023383D02*
X006275Y024017D01*
X005275Y024017D02*
X005275Y023383D01*
X004275Y023383D02*
X004275Y024017D01*
X003275Y024017D02*
X003275Y023383D01*
X002958Y025200D02*
X003592Y025200D01*
X003592Y026200D02*
X002958Y026200D01*
X002958Y027200D02*
X003592Y027200D01*
X003592Y028200D02*
X002958Y028200D01*
X002958Y029200D02*
X003592Y029200D01*
X003592Y030200D02*
X002958Y030200D01*
X002958Y031200D02*
X003592Y031200D01*
X003592Y032200D02*
X002958Y032200D01*
X002958Y033200D02*
X003592Y033200D01*
X003592Y034200D02*
X002958Y034200D01*
X002958Y035200D02*
X003592Y035200D01*
X003592Y036200D02*
X002958Y036200D01*
X010775Y029767D02*
X010775Y029133D01*
X011775Y029133D02*
X011775Y029767D01*
X012775Y029767D02*
X012775Y029133D01*
X013775Y029133D02*
X013775Y029767D01*
X014775Y029767D02*
X014775Y029133D01*
X015775Y029133D02*
X015775Y029767D01*
X016775Y029767D02*
X016775Y029133D01*
X017775Y029133D02*
X017775Y029767D01*
X018775Y029767D02*
X018775Y029133D01*
X019775Y029133D02*
X019775Y029767D01*
X020775Y029767D02*
X020775Y029133D01*
X021775Y029133D02*
X021775Y029767D01*
X022775Y029767D02*
X022775Y029133D01*
X023775Y029133D02*
X023775Y029767D01*
X024775Y029767D02*
X024775Y029133D01*
X025775Y029133D02*
X025775Y029767D01*
X026775Y029767D02*
X026775Y029133D01*
X027775Y029133D02*
X027775Y029767D01*
X028775Y029767D02*
X028775Y029133D01*
X029775Y029133D02*
X029775Y029767D01*
X014967Y017450D02*
X014333Y017450D01*
X014333Y016450D02*
X014967Y016450D01*
X014967Y015450D02*
X014333Y015450D01*
X009275Y020383D02*
X009275Y021017D01*
X008275Y021017D02*
X008275Y020383D01*
X007275Y020383D02*
X007275Y021017D01*
X006275Y021017D02*
X006275Y020383D01*
X005275Y020383D02*
X005275Y021017D01*
X004275Y021017D02*
X004275Y020383D01*
X003275Y020383D02*
X003275Y021017D01*
X008275Y023383D02*
X008275Y024017D01*
X009275Y024017D02*
X009275Y023383D01*
D13*
X036835Y016825D02*
X037465Y016825D01*
X037465Y015825D02*
X036835Y015825D01*
X036835Y014825D02*
X037465Y014825D01*
X037465Y013825D02*
X036835Y013825D01*
X036835Y012825D02*
X037465Y012825D01*
X037465Y011825D02*
X036835Y011825D01*
X036835Y010825D02*
X037465Y010825D01*
X037465Y009825D02*
X036835Y009825D01*
X036835Y008825D02*
X037465Y008825D01*
X037465Y007825D02*
X036835Y007825D01*
X036835Y006825D02*
X037465Y006825D01*
X037465Y005825D02*
X036835Y005825D01*
X036835Y004825D02*
X037465Y004825D01*
X037465Y003825D02*
X036835Y003825D01*
D14*
X028963Y010825D03*
X024900Y011638D03*
X021525Y012513D03*
X017150Y012450D03*
X015900Y012950D03*
X016900Y010950D03*
X016900Y006950D03*
X020525Y006513D03*
X028650Y013888D03*
X025150Y016138D03*
X021275Y021075D03*
X019400Y021200D03*
X018775Y022075D03*
X018900Y023575D03*
X019900Y023450D03*
X020900Y023200D03*
X023775Y021700D03*
X024900Y021700D03*
X026025Y021700D03*
X029900Y022325D03*
X029025Y024700D03*
X027900Y024700D03*
X035525Y024200D03*
X038150Y024075D03*
X039400Y023950D03*
X040400Y023388D03*
X042025Y023700D03*
X041400Y025325D03*
X042525Y028825D03*
X046088Y028825D03*
X047775Y025700D03*
X047025Y024825D03*
X049525Y023700D03*
X046525Y020325D03*
X042900Y018950D03*
X044900Y017700D03*
X048025Y014825D03*
X039900Y021450D03*
X036400Y020700D03*
X036025Y031575D03*
X036525Y032450D03*
X036150Y035450D03*
X041900Y036575D03*
X046400Y037825D03*
X047650Y038450D03*
X048400Y039075D03*
X045525Y039700D03*
X047650Y041825D03*
X041775Y042825D03*
X041275Y041450D03*
X047775Y036575D03*
X046088Y032825D03*
X042525Y032450D03*
X055775Y038950D03*
X056400Y041950D03*
X057275Y035825D03*
X061900Y033700D03*
X064650Y031450D03*
X064400Y029075D03*
X062275Y027325D03*
X061400Y028825D03*
X062025Y016200D03*
X056775Y004450D03*
X017900Y020825D03*
X012150Y019825D03*
X010775Y017450D03*
X011275Y016325D03*
X011900Y015450D03*
X012525Y016325D03*
X013400Y017075D03*
X010150Y015450D03*
X009025Y015450D03*
X007213Y015513D03*
X003275Y016750D03*
X003275Y018650D03*
X003275Y013575D03*
X002775Y011825D03*
X004150Y009450D03*
X003400Y008450D03*
X001275Y006388D03*
X017150Y016450D03*
X010525Y024750D03*
X008525Y026575D03*
X010525Y026650D03*
X013275Y026950D03*
X016025Y027575D03*
X017150Y027825D03*
X011650Y031824D03*
X011650Y033825D03*
X011650Y037200D03*
X014025Y037825D03*
X016775Y037825D03*
X019775Y037825D03*
X024275Y037200D03*
X025275Y040325D03*
X002650Y038013D03*
X001650Y039388D03*
D15*
X001650Y038013D03*
X010650Y037200D03*
X013025Y037825D03*
X015775Y037825D03*
X018775Y037825D03*
X023275Y037200D03*
X025275Y039325D03*
X009525Y026575D03*
X015025Y022700D03*
X015025Y021700D03*
X015025Y020700D03*
X016025Y020700D03*
X016025Y021700D03*
X016025Y022700D03*
X012150Y021825D03*
X012150Y020825D03*
X011150Y020825D03*
X011150Y019825D03*
X011150Y021825D03*
X015025Y019700D03*
X015025Y018700D03*
X016025Y018700D03*
X016025Y019700D03*
X009775Y017450D03*
D16*
X062061Y040994D03*
X062061Y041979D03*
X062888Y041979D03*
X064739Y041979D03*
D17*
X063400Y043475D03*
D18*
X022275Y005075D03*
X022275Y004075D03*
X022275Y003075D03*
X020275Y003075D03*
X020275Y004075D03*
X020275Y005075D03*
X018275Y005075D03*
X018275Y004075D03*
X018275Y003075D03*
X016275Y003075D03*
X016275Y004075D03*
X016275Y005075D03*
D19*
X016025Y039033D02*
X016025Y039867D01*
X017525Y039867D02*
X017525Y039033D01*
X019025Y039033D02*
X019025Y039867D01*
X020525Y039867D02*
X020525Y039033D01*
X022025Y039033D02*
X022025Y039867D01*
X023525Y039867D02*
X023525Y039033D01*
X022775Y041033D02*
X022775Y041867D01*
X021275Y041867D02*
X021275Y041033D01*
X019775Y041033D02*
X019775Y041867D01*
X018275Y041867D02*
X018275Y041033D01*
X016775Y041033D02*
X016775Y041867D01*
X015275Y041867D02*
X015275Y041033D01*
X013775Y041033D02*
X013775Y041867D01*
X012275Y041867D02*
X012275Y041033D01*
X010775Y041033D02*
X010775Y041867D01*
X009275Y041867D02*
X009275Y041033D01*
X008525Y039867D02*
X008525Y039033D01*
X010025Y039033D02*
X010025Y039867D01*
X011525Y039867D02*
X011525Y039033D01*
X013025Y039033D02*
X013025Y039867D01*
X014525Y039867D02*
X014525Y039033D01*
D20*
X015169Y013825D03*
X015775Y008325D03*
X005075Y008325D03*
X004981Y013825D03*
D21*
X005575Y014625D03*
X006075Y014625D03*
X006575Y014625D03*
X007175Y014625D03*
X008175Y014625D03*
X009175Y014625D03*
X010175Y014625D03*
X011175Y014625D03*
X012175Y014625D03*
X013175Y014625D03*
X014175Y014625D03*
D22*
X009757Y028950D02*
X009043Y028950D01*
X009043Y029950D02*
X009757Y029950D01*
X009757Y030950D02*
X009043Y030950D01*
X005525Y038968D02*
X005525Y039682D01*
X004525Y039682D02*
X004525Y038968D01*
X003525Y038968D02*
X003525Y039682D01*
X061900Y038370D02*
X061900Y037655D01*
X062900Y037655D02*
X062900Y038370D01*
X063900Y038370D02*
X063900Y037655D01*
X064900Y037655D02*
X064900Y038370D01*
D23*
X026062Y028325D02*
X025275Y028325D01*
D24*
X024275Y028325D03*
X023275Y028325D03*
X022275Y028325D03*
X021275Y028325D03*
X020275Y028325D03*
X019275Y028325D03*
X021275Y025325D03*
X022275Y025325D03*
X023275Y025325D03*
X024275Y025325D03*
X025275Y025325D03*
D25*
X020275Y025325D03*
X019275Y025325D03*
D26*
X030900Y041231D03*
X029817Y042216D03*
X030900Y043200D03*
D27*
X004150Y014238D03*
X004150Y013412D03*
X004150Y012738D03*
X004150Y011912D03*
D28*
X004150Y011199D03*
X004150Y010451D03*
X003400Y014701D03*
X003400Y015449D03*
D29*
X000900Y006763D02*
X000900Y038638D01*
X001650Y039388D01*
X008525Y031888D02*
X011213Y031888D01*
X011650Y031824D01*
X013775Y030200D02*
X013775Y029450D01*
X013775Y030200D02*
X014275Y030700D01*
X018275Y030700D01*
X021900Y034325D01*
X022400Y034325D01*
X029775Y035450D02*
X030900Y035450D01*
X032400Y033950D01*
X033525Y033950D01*
X033525Y034950D02*
X032650Y034950D01*
X031650Y035950D01*
X031650Y039950D01*
X030900Y040700D01*
X030900Y041231D01*
X032400Y041700D02*
X032400Y038450D01*
X032588Y038263D01*
X032400Y041700D02*
X030900Y043200D01*
X049900Y032950D02*
X051775Y032950D01*
X051775Y039200D01*
X059775Y043950D02*
X061150Y044825D01*
X064525Y044825D01*
X065775Y043575D01*
X065775Y039388D01*
X065775Y008200D01*
X060775Y003200D01*
X060775Y002325D01*
X060525Y002075D01*
X059150Y002075D01*
X058400Y002825D01*
X060650Y011325D02*
X061025Y011325D01*
X061525Y011825D01*
X062900Y013200D01*
X062900Y018757D01*
X061021Y020636D01*
X060900Y017825D02*
X059775Y017825D01*
X060900Y017825D02*
X062025Y016700D01*
X062025Y016200D01*
X052021Y023636D02*
X051336Y023636D01*
X049900Y021950D01*
X049900Y017950D01*
X050025Y017700D01*
X050025Y013200D01*
X050650Y012575D01*
X050650Y011877D01*
X050603Y011830D01*
X044904Y011829D02*
X044904Y016825D01*
X044900Y017700D01*
X052021Y023636D02*
X051771Y024696D01*
X051775Y028950D01*
X051775Y032950D01*
X051775Y028950D02*
X053775Y028950D01*
X024900Y019888D02*
X024900Y019325D01*
X008525Y031888D02*
X007838Y031200D01*
X007275Y031200D01*
X024900Y007013D02*
X024525Y006638D01*
X001275Y006388D02*
X000900Y006763D01*
D30*
X005075Y008325D02*
X005075Y009650D01*
X004981Y010825D02*
X004981Y012575D01*
X004981Y013825D01*
X005075Y008325D02*
X008275Y008325D01*
X015775Y008325D01*
X015775Y011763D01*
X015170Y012367D01*
X015170Y012888D01*
X015233Y012950D01*
X015900Y012950D01*
X015170Y012888D02*
X015170Y013078D01*
X015169Y013825D01*
X015775Y008325D02*
X018900Y008325D01*
X024900Y007325D02*
X025525Y006325D01*
X029900Y006325D01*
X030650Y006325D01*
X033150Y003825D01*
X034150Y003825D01*
X035396Y002829D01*
X041904Y002829D01*
X047603Y002830D02*
X050603Y002830D01*
X053775Y004825D02*
X055025Y004825D01*
X057025Y002825D01*
X058400Y002825D01*
X058400Y011075D01*
X058650Y011325D01*
X029900Y007325D02*
X029900Y006325D01*
X028900Y019325D02*
X028900Y020013D01*
X027900Y020013D02*
X027900Y019325D01*
X026900Y019325D02*
X026900Y020013D01*
X026025Y019825D02*
X025900Y019325D01*
X007275Y036200D02*
X003275Y036200D01*
D31*
X051775Y039200D02*
X051900Y039575D01*
X051900Y041450D01*
X052900Y042950D01*
X053775Y042950D01*
D32*
X054275Y042450D02*
X053150Y042450D01*
X053025Y041450D02*
X052775Y041200D01*
X052775Y040700D01*
X053025Y040450D01*
X054400Y040450D01*
X054400Y041450D02*
X053025Y041450D01*
X051525Y041575D02*
X052650Y043450D01*
X054275Y043450D01*
X050525Y041450D02*
X049275Y041450D01*
X049150Y040450D02*
X050650Y040450D01*
X050525Y039450D02*
X049275Y039450D01*
X053150Y039450D02*
X054400Y039450D01*
X058900Y039450D02*
X060400Y039450D01*
X062400Y038763D02*
X062400Y037325D01*
X063400Y036950D02*
X063400Y038763D01*
X060400Y043450D02*
X059223Y043450D01*
X054900Y034450D02*
X053150Y034450D01*
X053150Y033450D02*
X054525Y033450D01*
X054400Y032450D02*
X053150Y032450D01*
X045650Y033575D02*
X045400Y033325D01*
X045400Y032325D01*
X045525Y032200D01*
X045525Y029450D02*
X045400Y029325D01*
X045400Y028450D01*
X045525Y028325D01*
X045525Y023700D01*
X040400Y027450D02*
X039025Y027450D01*
X038900Y028450D02*
X040150Y028450D01*
X029400Y019950D02*
X029400Y018013D01*
X028838Y017450D01*
X020900Y017450D01*
X020275Y016825D01*
X019275Y016825D01*
X018900Y016325D01*
X019650Y015825D02*
X020338Y015825D01*
X021275Y016763D01*
X029275Y016763D01*
X029338Y016825D01*
X031525Y016825D01*
X031775Y015825D02*
X029650Y015825D01*
X029650Y014825D02*
X032275Y014825D01*
X032775Y015325D01*
X034650Y015325D01*
X034650Y014325D02*
X032525Y014325D01*
X032025Y013825D01*
X029588Y013825D01*
X029588Y012825D02*
X032275Y012825D01*
X032775Y013325D01*
X034525Y013325D01*
X032775Y012325D02*
X037775Y012325D01*
X037775Y011325D02*
X036650Y011325D01*
X034650Y011325D02*
X033275Y011325D01*
X032775Y010825D01*
X029275Y010825D01*
X029588Y011825D02*
X032275Y011825D01*
X032775Y012325D01*
X031338Y009825D02*
X028900Y009825D01*
X029400Y008825D02*
X031650Y008825D01*
X033150Y007325D01*
X038088Y007325D01*
X038775Y006638D01*
X038775Y004763D01*
X039213Y004325D01*
X041408Y004325D01*
X041904Y003829D01*
X043650Y005325D02*
X051338Y005325D01*
X050608Y006825D02*
X050603Y006830D01*
X053025Y006325D02*
X054525Y006325D01*
X054650Y004325D02*
X053025Y004325D01*
X048150Y009325D02*
X047157Y009325D01*
X042775Y008325D02*
X039588Y008325D01*
X037713Y008325D02*
X036588Y008325D01*
X034713Y008325D02*
X033525Y008325D01*
X026900Y007325D02*
X026400Y008075D01*
X026400Y008700D01*
X026088Y009013D01*
X024588Y009013D01*
X023900Y008325D01*
X022400Y008075D02*
X022400Y008700D01*
X021900Y008325D02*
X021900Y008263D01*
X021400Y007763D01*
X021400Y006888D01*
X021650Y006638D01*
X024525Y006638D01*
X024900Y007013D02*
X024900Y007325D01*
X022400Y008075D02*
X021900Y007325D01*
X020400Y010825D02*
X019400Y010825D01*
X018900Y011325D01*
X019900Y012325D02*
X020213Y012325D01*
X020525Y012638D01*
X020525Y013138D01*
X020900Y013513D01*
X021775Y013513D01*
X022088Y013325D01*
X021775Y013138D02*
X021150Y013138D01*
X020900Y012888D01*
X020900Y011763D01*
X021775Y013138D02*
X022150Y012888D01*
X022213Y013700D02*
X022025Y013825D01*
X019400Y013825D01*
X018900Y013325D01*
X018900Y014325D02*
X019275Y014825D01*
X021650Y014825D01*
X022400Y014450D01*
X022463Y014075D02*
X021775Y014325D01*
X019900Y014325D01*
X018900Y015325D02*
X019650Y015825D01*
X019900Y016325D02*
X020338Y016325D01*
X021150Y017138D01*
X028900Y017138D01*
X029588Y017825D01*
X030213Y017825D01*
X030400Y018013D01*
X030400Y018763D01*
X030463Y018825D01*
X028400Y018825D02*
X028400Y019825D01*
X028400Y018825D02*
X027900Y018325D01*
X025400Y018825D02*
X025400Y019825D01*
X024400Y018888D02*
X024400Y017888D01*
X024275Y017763D01*
X020463Y017763D01*
X022900Y018325D02*
X023400Y018825D01*
X023400Y019700D01*
X023900Y019325D02*
X023963Y019325D01*
X024400Y018888D01*
X024900Y018325D02*
X025400Y018825D01*
X020400Y023825D02*
X019775Y023325D01*
X019900Y023450D01*
X020400Y023825D02*
X021400Y023825D01*
X021650Y023700D01*
X019275Y028325D02*
X018525Y028325D01*
X018275Y028575D01*
X007900Y030700D02*
X006525Y030700D01*
X032900Y037450D02*
X034150Y037450D01*
X034150Y038450D02*
X032900Y038450D01*
X038775Y043450D02*
X040275Y043450D01*
X043275Y043450D02*
X044650Y043450D01*
X044525Y042450D02*
X043150Y042450D01*
X043275Y041450D02*
X044525Y041450D01*
X044525Y040450D02*
X043275Y040450D01*
X055525Y024450D02*
X055525Y022825D01*
X056525Y022950D02*
X056525Y024325D01*
X054525Y024200D02*
X054525Y023075D01*
X053525Y022825D02*
X053525Y024200D01*
X052525Y021325D02*
X052525Y020075D01*
X053150Y018575D02*
X052775Y018200D01*
X054525Y020075D02*
X054525Y021200D01*
X055525Y021200D02*
X055525Y020075D01*
X056525Y020075D02*
X056525Y021450D01*
X057650Y022575D01*
X058650Y022575D01*
X059025Y022950D01*
X059025Y023632D01*
X059021Y023636D01*
X059025Y024140D01*
X060021Y023636D02*
X060025Y023632D01*
X060025Y022950D01*
X059275Y022200D01*
X058150Y022200D01*
X057525Y021575D01*
X057525Y020075D01*
X058525Y020075D02*
X058525Y021450D01*
X060525Y021325D02*
X060525Y019950D01*
X060525Y023075D02*
X060525Y024325D01*
X050775Y013700D02*
X051525Y012950D01*
X059150Y011325D02*
X060650Y011325D01*
D33*
X002900Y004075D03*
X024525Y002825D03*
X045025Y021075D03*
X064525Y035450D03*
X029650Y038700D03*
X063650Y004075D03*
M02*
