G75*
G70*
%OFA0B0*%
%FSLAX24Y24*%
%IPPOS*%
%LPD*%
%AMOC8*
5,1,8,0,0,1.08239X$1,22.5*
%
%ADD10C,0.0700*%
%ADD11C,0.0635*%
%ADD12C,0.0630*%
%ADD13C,0.0555*%
%ADD14R,0.0512X0.0591*%
%ADD15C,0.0860*%
%ADD16R,0.0787X0.0630*%
%ADD17R,0.0591X0.0512*%
%ADD18R,0.0710X0.0630*%
%ADD19R,0.0630X0.0710*%
%ADD20OC8,0.0635*%
%ADD21C,0.0635*%
%ADD22C,0.0715*%
%ADD23OC8,0.0715*%
%ADD24C,0.0669*%
%ADD25C,0.1266*%
%ADD26C,0.0827*%
%ADD27R,0.0630X0.0787*%
%ADD28R,0.0630X0.0709*%
%ADD29R,0.0630X0.0512*%
%ADD30C,0.0835*%
%ADD31R,0.0709X0.0630*%
%ADD32C,0.0127*%
%ADD33C,0.0715*%
%ADD34R,0.0787X0.0591*%
%ADD35R,0.0787X0.1496*%
%ADD36OC8,0.1575*%
%ADD37C,0.0320*%
%ADD38C,0.0240*%
%ADD39C,0.0120*%
%ADD40C,0.0160*%
%ADD41C,0.0400*%
%ADD42C,0.1969*%
D10*
X050268Y035580D03*
X050268Y036580D03*
X051268Y036580D03*
X051268Y035580D03*
X051268Y034580D03*
X052268Y034580D03*
X052268Y035580D03*
X053268Y035580D03*
X053268Y034580D03*
X054268Y034580D03*
X054268Y035580D03*
X055268Y035580D03*
X055268Y034580D03*
X056268Y034580D03*
X056268Y035580D03*
X057268Y035580D03*
X057268Y034580D03*
X058268Y034580D03*
X058268Y035580D03*
X059268Y035580D03*
X059268Y034580D03*
X060268Y034580D03*
X060268Y035580D03*
X061268Y035580D03*
X061268Y034580D03*
X062268Y035580D03*
X062268Y036580D03*
X061268Y036580D03*
X061268Y037580D03*
X061268Y038580D03*
X062268Y038580D03*
X062268Y037580D03*
X062268Y039580D03*
X061268Y039580D03*
X061268Y040580D03*
X062268Y040580D03*
X062268Y041580D03*
X061268Y041580D03*
X061268Y042580D03*
X061268Y043580D03*
X062268Y043580D03*
X062268Y042580D03*
X062268Y044580D03*
X061268Y044580D03*
X061268Y045580D03*
X060268Y045580D03*
X059268Y045580D03*
X058268Y045580D03*
X057268Y045580D03*
X056268Y045580D03*
X055268Y045580D03*
X054268Y045580D03*
X053268Y045580D03*
X052268Y045580D03*
X051268Y045580D03*
X050268Y045580D03*
X050268Y044580D03*
X051268Y044580D03*
X051268Y043580D03*
X050268Y043580D03*
X050268Y042580D03*
X050268Y041580D03*
X051268Y041580D03*
X051268Y042580D03*
X051268Y040580D03*
X050268Y040580D03*
X050268Y039580D03*
X051268Y039580D03*
X051268Y038580D03*
X050268Y038580D03*
X050268Y037580D03*
X051268Y037580D03*
X062268Y045580D03*
X061268Y046580D03*
X060268Y046580D03*
X059268Y046580D03*
X058268Y046580D03*
X057268Y046580D03*
X056268Y046580D03*
X055268Y046580D03*
X054268Y046580D03*
X053268Y046580D03*
X052268Y046580D03*
X051268Y046580D03*
D11*
X047336Y046080D02*
X046701Y046080D01*
X046701Y047080D02*
X047336Y047080D01*
X047336Y048080D02*
X046701Y048080D01*
X046701Y049080D02*
X047336Y049080D01*
X047336Y050080D02*
X046701Y050080D01*
X041336Y050080D02*
X040701Y050080D01*
X039582Y050076D02*
X038947Y050076D01*
X038947Y051076D02*
X039582Y051076D01*
X039582Y049076D02*
X038947Y049076D01*
X038947Y048076D02*
X039582Y048076D01*
X040701Y048080D02*
X041336Y048080D01*
X041336Y049080D02*
X040701Y049080D01*
X040701Y047080D02*
X041336Y047080D01*
X041336Y046080D02*
X040701Y046080D01*
X039582Y046076D02*
X038947Y046076D01*
X038947Y047076D02*
X039582Y047076D01*
X039582Y045076D02*
X038947Y045076D01*
X038947Y044076D02*
X039582Y044076D01*
X039582Y043076D02*
X038947Y043076D01*
X040701Y043080D02*
X041336Y043080D01*
X041336Y044080D02*
X040701Y044080D01*
X040701Y045080D02*
X041336Y045080D01*
X041336Y042080D02*
X040701Y042080D01*
X040701Y041080D02*
X041336Y041080D01*
X041336Y040080D02*
X040701Y040080D01*
X040701Y039080D02*
X041336Y039080D01*
X041336Y038080D02*
X040701Y038080D01*
X040701Y037080D02*
X041336Y037080D01*
X046701Y037080D02*
X047336Y037080D01*
X047336Y038080D02*
X046701Y038080D01*
X046701Y039080D02*
X047336Y039080D01*
X047336Y040080D02*
X046701Y040080D01*
X046701Y041080D02*
X047336Y041080D01*
X047336Y042080D02*
X046701Y042080D01*
X046701Y043080D02*
X047336Y043080D01*
X047336Y044080D02*
X046701Y044080D01*
X046701Y045080D02*
X047336Y045080D01*
X039582Y042076D02*
X038947Y042076D01*
X036582Y042076D02*
X035947Y042076D01*
X035947Y043076D02*
X036582Y043076D01*
X036582Y044076D02*
X035947Y044076D01*
X035947Y045076D02*
X036582Y045076D01*
X036582Y046076D02*
X035947Y046076D01*
X035947Y047076D02*
X036582Y047076D01*
X036582Y048076D02*
X035947Y048076D01*
X035947Y049076D02*
X036582Y049076D01*
X036582Y050076D02*
X035947Y050076D01*
X035947Y051076D02*
X036582Y051076D01*
X033883Y051075D02*
X033248Y051075D01*
X033248Y050075D02*
X033883Y050075D01*
X033883Y049075D02*
X033248Y049075D01*
X033248Y048075D02*
X033883Y048075D01*
X033883Y047075D02*
X033248Y047075D01*
X033248Y046075D02*
X033883Y046075D01*
X033883Y045075D02*
X033248Y045075D01*
X033248Y044075D02*
X033883Y044075D01*
X033883Y043075D02*
X033248Y043075D01*
X033248Y042075D02*
X033883Y042075D01*
X030883Y042075D02*
X030248Y042075D01*
X030248Y043075D02*
X030883Y043075D01*
X030883Y044075D02*
X030248Y044075D01*
X030248Y045075D02*
X030883Y045075D01*
X030883Y046075D02*
X030248Y046075D01*
X030248Y047075D02*
X030883Y047075D01*
X030883Y048075D02*
X030248Y048075D01*
X030248Y049075D02*
X030883Y049075D01*
X030883Y050075D02*
X030248Y050075D01*
X030248Y051075D02*
X030883Y051075D01*
X027711Y051080D02*
X027076Y051080D01*
X027076Y050080D02*
X027711Y050080D01*
X027711Y049080D02*
X027076Y049080D01*
X027076Y048080D02*
X027711Y048080D01*
X027711Y047080D02*
X027076Y047080D01*
X027076Y046080D02*
X027711Y046080D01*
X027711Y045080D02*
X027076Y045080D01*
X027076Y044080D02*
X027711Y044080D01*
X027711Y043080D02*
X027076Y043080D01*
X027076Y042080D02*
X027711Y042080D01*
X027711Y041080D02*
X027076Y041080D01*
X027076Y040080D02*
X027711Y040080D01*
X027711Y039080D02*
X027076Y039080D01*
X027076Y038080D02*
X027711Y038080D01*
X027711Y037080D02*
X027076Y037080D01*
X027076Y036080D02*
X027711Y036080D01*
X028147Y033587D02*
X028147Y032952D01*
X027147Y032952D02*
X027147Y033587D01*
X026147Y033587D02*
X026147Y032952D01*
X025147Y032952D02*
X025147Y033587D01*
X024147Y033587D02*
X024147Y032952D01*
X023147Y032952D02*
X023147Y033587D01*
X022147Y033587D02*
X022147Y032952D01*
X021147Y032952D02*
X021147Y033587D01*
X020147Y033587D02*
X020147Y032952D01*
X020147Y030587D02*
X020147Y029952D01*
X021147Y029952D02*
X021147Y030587D01*
X022147Y030587D02*
X022147Y029952D01*
X023147Y029952D02*
X023147Y030587D01*
X024147Y030587D02*
X024147Y029952D01*
X025147Y029952D02*
X025147Y030587D01*
X026147Y030587D02*
X026147Y029952D01*
X027147Y029952D02*
X027147Y030587D01*
X028147Y030587D02*
X028147Y029952D01*
X029147Y029952D02*
X029147Y030587D01*
X030951Y028955D02*
X031586Y028955D01*
X031586Y027955D02*
X030951Y027955D01*
X030951Y026955D02*
X031586Y026955D01*
X031586Y025955D02*
X030951Y025955D01*
X030951Y024955D02*
X031586Y024955D01*
X031586Y023955D02*
X030951Y023955D01*
X030951Y022955D02*
X031586Y022955D01*
X031586Y021955D02*
X030951Y021955D01*
X030951Y020955D02*
X031586Y020955D01*
X031586Y019955D02*
X030951Y019955D01*
X030951Y018955D02*
X031586Y018955D01*
X031586Y017955D02*
X030951Y017955D01*
X030951Y016955D02*
X031586Y016955D01*
X031586Y015955D02*
X030951Y015955D01*
X030951Y014955D02*
X031586Y014955D01*
X031586Y013955D02*
X030951Y013955D01*
X030951Y012955D02*
X031586Y012955D01*
X031586Y011955D02*
X030951Y011955D01*
X030951Y010955D02*
X031586Y010955D01*
X031586Y009955D02*
X030951Y009955D01*
X027711Y009955D02*
X027076Y009955D01*
X027076Y010955D02*
X027711Y010955D01*
X027711Y011955D02*
X027076Y011955D01*
X027076Y012955D02*
X027711Y012955D01*
X027711Y013955D02*
X027076Y013955D01*
X027076Y014955D02*
X027711Y014955D01*
X027711Y015955D02*
X027076Y015955D01*
X027076Y016955D02*
X027711Y016955D01*
X027711Y017955D02*
X027076Y017955D01*
X027076Y018955D02*
X027711Y018955D01*
X027711Y019955D02*
X027076Y019955D01*
X027076Y020955D02*
X027711Y020955D01*
X027711Y021955D02*
X027076Y021955D01*
X027076Y022955D02*
X027711Y022955D01*
X027711Y023955D02*
X027076Y023955D01*
X027076Y024955D02*
X027711Y024955D01*
X021711Y024955D02*
X021076Y024955D01*
X021076Y023955D02*
X021711Y023955D01*
X021711Y022955D02*
X021076Y022955D01*
X021076Y021955D02*
X021711Y021955D01*
X021711Y020955D02*
X021076Y020955D01*
X021076Y019955D02*
X021711Y019955D01*
X021711Y018955D02*
X021076Y018955D01*
X021076Y017955D02*
X021711Y017955D01*
X021711Y016955D02*
X021076Y016955D01*
X021076Y015955D02*
X021711Y015955D01*
X021711Y014955D02*
X021076Y014955D01*
X021076Y013955D02*
X021711Y013955D01*
X021711Y012955D02*
X021076Y012955D01*
X021076Y011955D02*
X021711Y011955D01*
X021711Y010955D02*
X021076Y010955D01*
X021076Y009955D02*
X021711Y009955D01*
X036951Y009955D02*
X037586Y009955D01*
X037586Y010955D02*
X036951Y010955D01*
X036951Y011955D02*
X037586Y011955D01*
X037586Y012955D02*
X036951Y012955D01*
X036951Y013955D02*
X037586Y013955D01*
X037586Y014955D02*
X036951Y014955D01*
X036951Y015955D02*
X037586Y015955D01*
X037586Y016955D02*
X036951Y016955D01*
X036951Y017955D02*
X037586Y017955D01*
X037586Y018955D02*
X036951Y018955D01*
X036951Y019955D02*
X037586Y019955D01*
X037586Y020955D02*
X036951Y020955D01*
X036951Y021955D02*
X037586Y021955D01*
X037586Y022955D02*
X036951Y022955D01*
X036951Y023955D02*
X037586Y023955D01*
X037586Y024955D02*
X036951Y024955D01*
X036951Y025955D02*
X037586Y025955D01*
X037586Y026955D02*
X036951Y026955D01*
X036951Y027955D02*
X037586Y027955D01*
X037586Y028955D02*
X036951Y028955D01*
X041326Y028955D02*
X041961Y028955D01*
X041961Y027955D02*
X041326Y027955D01*
X041326Y026955D02*
X041961Y026955D01*
X041961Y025955D02*
X041326Y025955D01*
X041326Y024955D02*
X041961Y024955D01*
X041961Y023955D02*
X041326Y023955D01*
X041326Y022955D02*
X041961Y022955D01*
X041961Y021955D02*
X041326Y021955D01*
X041326Y020955D02*
X041961Y020955D01*
X041961Y019955D02*
X041326Y019955D01*
X041326Y018955D02*
X041961Y018955D01*
X041961Y017955D02*
X041326Y017955D01*
X041326Y016955D02*
X041961Y016955D01*
X041961Y015955D02*
X041326Y015955D01*
X041326Y014955D02*
X041961Y014955D01*
X041961Y013955D02*
X041326Y013955D01*
X041326Y012955D02*
X041961Y012955D01*
X041961Y011955D02*
X041326Y011955D01*
X041326Y010955D02*
X041961Y010955D01*
X041961Y009955D02*
X041326Y009955D01*
X047326Y009955D02*
X047961Y009955D01*
X047961Y010955D02*
X047326Y010955D01*
X047326Y011955D02*
X047961Y011955D01*
X047961Y012955D02*
X047326Y012955D01*
X047326Y013955D02*
X047961Y013955D01*
X047961Y014955D02*
X047326Y014955D01*
X047326Y015955D02*
X047961Y015955D01*
X047961Y016955D02*
X047326Y016955D01*
X047326Y017955D02*
X047961Y017955D01*
X047961Y018955D02*
X047326Y018955D01*
X047326Y019955D02*
X047961Y019955D01*
X047961Y020955D02*
X047326Y020955D01*
X047326Y021955D02*
X047961Y021955D01*
X047961Y022955D02*
X047326Y022955D01*
X047326Y023955D02*
X047961Y023955D01*
X047961Y024955D02*
X047326Y024955D01*
X047326Y025955D02*
X047961Y025955D01*
X047961Y026955D02*
X047326Y026955D01*
X047326Y027955D02*
X047961Y027955D01*
X047961Y028955D02*
X047326Y028955D01*
X051393Y024773D02*
X051393Y024138D01*
X052393Y024138D02*
X052393Y024773D01*
X053393Y024773D02*
X053393Y024138D01*
X054393Y024138D02*
X054393Y024773D01*
X055393Y024773D02*
X055393Y024138D01*
X056393Y024138D02*
X056393Y024773D01*
X057393Y024773D02*
X057393Y024138D01*
X058393Y024138D02*
X058393Y024773D01*
X059393Y024773D02*
X059393Y024138D01*
X060393Y024138D02*
X060393Y024773D01*
X061393Y024773D02*
X061393Y024138D01*
X062393Y024138D02*
X062393Y024773D01*
X063393Y024773D02*
X063393Y024138D01*
X064393Y024138D02*
X064393Y024773D01*
X065393Y024773D02*
X065393Y024138D01*
X066393Y024138D02*
X066393Y024773D01*
X067393Y024773D02*
X067393Y024138D01*
X068393Y024138D02*
X068393Y024773D01*
X069393Y024773D02*
X069393Y024138D01*
X070393Y024138D02*
X070393Y024773D01*
X073826Y025080D02*
X074461Y025080D01*
X074461Y024080D02*
X073826Y024080D01*
X073826Y023080D02*
X074461Y023080D01*
X074461Y022080D02*
X073826Y022080D01*
X073826Y021080D02*
X074461Y021080D01*
X074461Y020080D02*
X073826Y020080D01*
X073826Y019080D02*
X074461Y019080D01*
X074461Y018080D02*
X073826Y018080D01*
X073826Y017080D02*
X074461Y017080D01*
X074461Y016080D02*
X073826Y016080D01*
X070393Y018138D02*
X070393Y018773D01*
X069393Y018773D02*
X069393Y018138D01*
X068393Y018138D02*
X068393Y018773D01*
X067393Y018773D02*
X067393Y018138D01*
X066393Y018138D02*
X066393Y018773D01*
X065393Y018773D02*
X065393Y018138D01*
X064393Y018138D02*
X064393Y018773D01*
X063393Y018773D02*
X063393Y018138D01*
X062393Y018138D02*
X062393Y018773D01*
X061393Y018773D02*
X061393Y018138D01*
X060393Y018138D02*
X060393Y018773D01*
X059393Y018773D02*
X059393Y018138D01*
X058393Y018138D02*
X058393Y018773D01*
X057393Y018773D02*
X057393Y018138D01*
X056393Y018138D02*
X056393Y018773D01*
X055393Y018773D02*
X055393Y018138D01*
X054393Y018138D02*
X054393Y018773D01*
X053393Y018773D02*
X053393Y018138D01*
X052393Y018138D02*
X052393Y018773D01*
X051393Y018773D02*
X051393Y018138D01*
X072268Y030638D02*
X072268Y031273D01*
X073268Y031273D02*
X073268Y030638D01*
X074268Y030638D02*
X074268Y031273D01*
X075268Y031273D02*
X075268Y030638D01*
X076268Y030638D02*
X076268Y031273D01*
X077268Y031273D02*
X077268Y030638D01*
X078268Y030638D02*
X078268Y031273D01*
X078268Y033638D02*
X078268Y034273D01*
X077268Y034273D02*
X077268Y033638D01*
X076268Y033638D02*
X076268Y034273D01*
X075268Y034273D02*
X075268Y033638D01*
X074268Y033638D02*
X074268Y034273D01*
X073268Y034273D02*
X073268Y033638D01*
X072268Y033638D02*
X072268Y034273D01*
X067086Y036455D02*
X066451Y036455D01*
X066451Y037455D02*
X067086Y037455D01*
X067086Y038455D02*
X066451Y038455D01*
X073826Y027080D02*
X074461Y027080D01*
X074461Y026080D02*
X073826Y026080D01*
X077826Y026080D02*
X078461Y026080D01*
X078461Y027080D02*
X077826Y027080D01*
X077826Y025080D02*
X078461Y025080D01*
X078461Y024080D02*
X077826Y024080D01*
X077826Y023080D02*
X078461Y023080D01*
X078461Y022080D02*
X077826Y022080D01*
X077826Y021080D02*
X078461Y021080D01*
X078461Y020080D02*
X077826Y020080D01*
X077826Y019080D02*
X078461Y019080D01*
X078461Y018080D02*
X077826Y018080D01*
X077826Y017080D02*
X078461Y017080D01*
X078461Y016080D02*
X077826Y016080D01*
X029147Y032952D02*
X029147Y033587D01*
X021711Y036080D02*
X021076Y036080D01*
X021076Y037080D02*
X021711Y037080D01*
X021711Y038080D02*
X021076Y038080D01*
X021076Y039080D02*
X021711Y039080D01*
X021711Y040080D02*
X021076Y040080D01*
X021076Y041080D02*
X021711Y041080D01*
X021711Y042080D02*
X021076Y042080D01*
X021076Y043080D02*
X021711Y043080D01*
X021711Y044080D02*
X021076Y044080D01*
X021076Y045080D02*
X021711Y045080D01*
X021711Y046080D02*
X021076Y046080D01*
X021076Y047080D02*
X021711Y047080D01*
X021711Y048080D02*
X021076Y048080D01*
X021076Y049080D02*
X021711Y049080D01*
X021711Y050080D02*
X021076Y050080D01*
X021076Y051080D02*
X021711Y051080D01*
D12*
X043704Y050080D02*
X044333Y050080D01*
X044333Y049080D02*
X043704Y049080D01*
X043704Y048080D02*
X044333Y048080D01*
X044333Y047080D02*
X043704Y047080D01*
X043704Y046080D02*
X044333Y046080D01*
X044333Y045080D02*
X043704Y045080D01*
X043704Y044080D02*
X044333Y044080D01*
X044333Y043080D02*
X043704Y043080D01*
X043704Y042080D02*
X044333Y042080D01*
X044333Y041080D02*
X043704Y041080D01*
X043704Y040080D02*
X044333Y040080D01*
X044333Y039080D02*
X043704Y039080D01*
X043704Y038080D02*
X044333Y038080D01*
X044333Y037080D02*
X043704Y037080D01*
D13*
X074893Y029608D02*
X074893Y029053D01*
X076893Y029053D02*
X076893Y029608D01*
X076018Y034928D02*
X076018Y035483D01*
X078018Y035483D02*
X078018Y034928D01*
D14*
X078142Y032830D03*
X077394Y032830D03*
X077142Y031955D03*
X076394Y031955D03*
X076142Y032830D03*
X075394Y032830D03*
X075142Y031955D03*
X074394Y031955D03*
X072142Y036080D03*
X071394Y036080D03*
X070267Y035955D03*
X069519Y035955D03*
X072519Y040080D03*
X073267Y040080D03*
X070142Y040205D03*
X069394Y040205D03*
X064142Y043955D03*
X063394Y043955D03*
X063394Y044830D03*
X064142Y044830D03*
X064142Y045705D03*
X063394Y045705D03*
X062955Y047018D03*
X062207Y047018D03*
X059955Y047705D03*
X059207Y047705D03*
X056392Y020455D03*
X055644Y020455D03*
X057394Y019705D03*
X058142Y019705D03*
X066144Y015830D03*
X066892Y015830D03*
X076269Y020580D03*
X077017Y020580D03*
X034142Y020955D03*
X033394Y020955D03*
X018392Y015080D03*
X017644Y015080D03*
X017394Y012830D03*
X018142Y012830D03*
D15*
X016393Y014205D03*
X020268Y018455D03*
X019518Y020080D03*
X016518Y022455D03*
X016768Y024830D03*
X018893Y026580D03*
X019768Y025080D03*
X031643Y030205D03*
X033393Y028205D03*
X034143Y029080D03*
X035081Y024955D03*
X038643Y025080D03*
X038643Y021455D03*
X035081Y020955D03*
X033393Y017330D03*
X034768Y016080D03*
X033518Y015455D03*
X032768Y014830D03*
X035643Y014205D03*
X033518Y012080D03*
X039393Y011080D03*
X039893Y012455D03*
X039268Y017330D03*
X045018Y018455D03*
X044643Y021455D03*
X045143Y022330D03*
X039768Y028580D03*
X039143Y030205D03*
X041768Y029955D03*
X043018Y029830D03*
X045643Y029705D03*
X044268Y033455D03*
X041268Y032455D03*
X038268Y034955D03*
X036268Y036205D03*
X034643Y033580D03*
X033143Y039080D03*
X024393Y049455D03*
X019143Y037705D03*
X047643Y051205D03*
X055831Y044705D03*
X056268Y041518D03*
X052893Y041455D03*
X063143Y033205D03*
X062143Y032205D03*
X061393Y030830D03*
X062268Y030330D03*
X060268Y030580D03*
X060268Y033080D03*
X058768Y033080D03*
X057393Y031580D03*
X056268Y031580D03*
X055143Y031580D03*
X053268Y029205D03*
X052143Y029205D03*
X051268Y031455D03*
X064018Y037455D03*
X068393Y036580D03*
X069268Y037330D03*
X070268Y036830D03*
X069268Y038455D03*
X072893Y038330D03*
X072893Y037330D03*
X074643Y038205D03*
X065268Y040955D03*
X064018Y041455D03*
X064268Y042955D03*
X064268Y046955D03*
X025143Y014955D03*
X024768Y011955D03*
D16*
X038393Y022404D03*
X038393Y023506D03*
X039768Y021006D03*
X039768Y019904D03*
D17*
X046518Y019204D03*
X046518Y018456D03*
X051268Y021456D03*
X051268Y022204D03*
X052143Y022204D03*
X052143Y021456D03*
X053393Y020329D03*
X053393Y019581D03*
X054393Y019581D03*
X054393Y020329D03*
X054768Y022581D03*
X054768Y023329D03*
X056518Y023329D03*
X056518Y022581D03*
X057393Y022581D03*
X057393Y023329D03*
X058393Y023329D03*
X058393Y022581D03*
X059393Y022581D03*
X059393Y023329D03*
X060393Y023329D03*
X060393Y022581D03*
X061393Y022581D03*
X061393Y023329D03*
X059143Y020954D03*
X059143Y020206D03*
X058143Y020831D03*
X058143Y021579D03*
X055893Y026831D03*
X055893Y027579D03*
X068393Y023329D03*
X068393Y022581D03*
X079893Y019329D03*
X079893Y018581D03*
X081518Y018954D03*
X081518Y018206D03*
X082393Y017829D03*
X082393Y017081D03*
X074143Y040206D03*
X074143Y040954D03*
X069393Y041831D03*
X069393Y042579D03*
X068018Y042579D03*
X068018Y041831D03*
X068518Y040954D03*
X068518Y040206D03*
X056268Y047394D03*
X056268Y048142D03*
D18*
X065206Y045390D03*
X065206Y044270D03*
X072518Y042140D03*
X072518Y041020D03*
X053893Y023390D03*
X053893Y022270D03*
X053018Y022265D03*
X053018Y021145D03*
X054643Y010640D03*
X054643Y009520D03*
X057268Y010020D03*
X057268Y011140D03*
X061143Y011140D03*
X061143Y010020D03*
X063018Y010020D03*
X063018Y011140D03*
D19*
X056453Y019580D03*
X055334Y019580D03*
X055578Y021330D03*
X054459Y021330D03*
X052453Y020080D03*
X051334Y020080D03*
X075334Y027080D03*
X076453Y027080D03*
D20*
X072893Y027455D03*
X068643Y016580D03*
X064018Y016705D03*
X060143Y016580D03*
X058018Y016830D03*
X057393Y014205D03*
X055518Y015580D03*
D21*
X054518Y015580D03*
X056393Y014205D03*
X057018Y016830D03*
X061143Y016580D03*
X063018Y016705D03*
X067643Y016580D03*
X062393Y025705D03*
X061393Y025705D03*
X060393Y025705D03*
X059393Y025705D03*
X058393Y025705D03*
X057393Y025705D03*
X056393Y025705D03*
X056393Y028705D03*
X057393Y028705D03*
X058393Y028705D03*
X059393Y028705D03*
X060393Y028705D03*
X061393Y028705D03*
X062393Y028705D03*
X072893Y026455D03*
X076068Y035205D03*
X077968Y035205D03*
X071872Y037934D03*
D22*
X068643Y033705D03*
D23*
X069643Y033705D03*
X070643Y033705D03*
X070643Y034705D03*
X069643Y034705D03*
X068643Y034705D03*
X066143Y034205D03*
X065143Y034205D03*
X065143Y033205D03*
X066143Y033205D03*
X066143Y032205D03*
X065143Y032205D03*
X065143Y031205D03*
X066143Y031205D03*
X066143Y035205D03*
X065143Y035205D03*
D24*
X019107Y012911D03*
X019107Y011927D03*
X018280Y011927D03*
X017257Y011927D03*
X016430Y011927D03*
X016430Y012911D03*
D25*
X017768Y010430D03*
D26*
X050123Y011095D03*
X050723Y011095D03*
X052393Y011975D03*
X052393Y012575D03*
X050723Y013455D03*
X050123Y013455D03*
X058893Y048955D03*
X058893Y049955D03*
X058893Y050955D03*
X060893Y050955D03*
X060893Y049955D03*
X060893Y048955D03*
X062893Y048955D03*
X062893Y049955D03*
X062893Y050955D03*
X064893Y050955D03*
X064893Y049955D03*
X064893Y048955D03*
D27*
X075217Y022080D03*
X076320Y022080D03*
X019320Y013955D03*
X018217Y013955D03*
D28*
X075342Y026080D03*
X076445Y026080D03*
D29*
X055643Y023329D03*
X055643Y022581D03*
D30*
X058518Y014873D02*
X058518Y014038D01*
X059268Y012873D02*
X059268Y012038D01*
X060768Y012038D02*
X060768Y012873D01*
X060018Y014038D02*
X060018Y014873D01*
X061518Y014873D02*
X061518Y014038D01*
X062268Y012873D02*
X062268Y012038D01*
X063768Y012038D02*
X063768Y012873D01*
X063018Y014038D02*
X063018Y014873D01*
X064518Y014873D02*
X064518Y014038D01*
X065268Y012873D02*
X065268Y012038D01*
X066768Y012038D02*
X066768Y012873D01*
X066018Y014038D02*
X066018Y014873D01*
X067518Y014873D02*
X067518Y014038D01*
X068268Y012873D02*
X068268Y012038D01*
X069768Y012038D02*
X069768Y012873D01*
X069018Y014038D02*
X069018Y014873D01*
X070518Y014873D02*
X070518Y014038D01*
X071268Y012873D02*
X071268Y012038D01*
X072768Y012038D02*
X072768Y012873D01*
X072018Y014038D02*
X072018Y014873D01*
X073518Y014873D02*
X073518Y014038D01*
D31*
X056768Y026654D03*
X056768Y027756D03*
X022643Y012006D03*
X022643Y010904D03*
X020268Y034779D03*
X020268Y035881D03*
D32*
X070976Y037186D02*
X070912Y037122D01*
X070912Y037332D01*
X071060Y037480D01*
X071270Y037480D01*
X071418Y037332D01*
X071418Y037122D01*
X071270Y036974D01*
X071060Y036974D01*
X070912Y037122D01*
X071007Y037161D01*
X071007Y037293D01*
X071099Y037385D01*
X071231Y037385D01*
X071323Y037293D01*
X071323Y037161D01*
X071231Y037069D01*
X071099Y037069D01*
X071007Y037161D01*
X071103Y037201D01*
X071103Y037253D01*
X071139Y037289D01*
X071191Y037289D01*
X071227Y037253D01*
X071227Y037201D01*
X071191Y037165D01*
X071139Y037165D01*
X071103Y037201D01*
D33*
X071911Y022830D02*
X072626Y022830D01*
X072626Y021830D02*
X071911Y021830D01*
X071911Y020830D02*
X072626Y020830D01*
X072876Y018455D02*
X072161Y018455D01*
X072161Y017455D02*
X072876Y017455D01*
X072876Y016455D02*
X072161Y016455D01*
D34*
X067903Y043550D03*
X067903Y044455D03*
X067903Y045361D03*
D35*
X070384Y044455D03*
D36*
X050423Y013455D03*
X052393Y012275D03*
X050423Y011095D03*
D37*
X051393Y018455D02*
X051334Y020080D01*
X052453Y020080D02*
X053017Y020329D01*
X053393Y020329D01*
X054393Y020329D02*
X055334Y019580D01*
X054393Y019581D02*
X054393Y018455D01*
X056453Y019580D02*
X057394Y019705D01*
X058142Y019705D02*
X058143Y020831D01*
X058143Y021579D02*
X055452Y021579D01*
X055578Y021330D01*
X056392Y020455D02*
X056453Y019580D01*
X058143Y021579D02*
X059143Y021579D01*
X059143Y020954D01*
X059393Y022581D02*
X058393Y022581D01*
X057393Y022581D01*
X056518Y022581D01*
X055643Y022581D01*
X054768Y022581D01*
X054768Y023329D02*
X054393Y024455D01*
X053393Y024455D02*
X053893Y023390D01*
X055643Y023329D02*
X055393Y024455D01*
X056393Y024455D02*
X056518Y023329D01*
X057393Y023329D02*
X057393Y024455D01*
X058393Y024455D02*
X058393Y023329D01*
X059393Y023329D02*
X059393Y024455D01*
X060393Y024455D02*
X060393Y023329D01*
X060393Y022581D02*
X059393Y022581D01*
X060393Y022581D02*
X061393Y022581D01*
X063393Y022581D01*
X063393Y024455D01*
X063393Y022581D02*
X066393Y022581D01*
X068393Y022581D01*
X068393Y023329D02*
X068393Y024455D01*
X066393Y024455D02*
X066393Y022581D01*
X061393Y023329D02*
X061393Y024455D01*
X061518Y014455D02*
X060768Y012455D01*
X063768Y012455D02*
X064518Y014455D01*
X070518Y014455D02*
X071268Y012455D01*
X044643Y037080D02*
X044018Y037080D01*
X041018Y037080D01*
X037393Y037080D01*
X036268Y036205D01*
X034143Y041330D02*
X032643Y041330D01*
X031773Y042075D01*
X030566Y042075D01*
X034143Y041330D02*
X035393Y042080D01*
X036261Y042080D01*
X027393Y049080D02*
X026643Y049080D01*
X026143Y049580D01*
X026143Y051080D01*
X027393Y051080D01*
X022643Y012006D02*
X021393Y011955D01*
X021393Y010955D02*
X022643Y010904D01*
X021393Y010955D02*
X021393Y009955D01*
D38*
X022643Y012006D02*
X023217Y012006D01*
X024643Y010955D01*
X027393Y010955D01*
X028018Y028330D02*
X019393Y028330D01*
X018518Y029205D01*
X018518Y037080D01*
X019143Y037705D01*
X020268Y035881D02*
X020592Y036080D01*
X021393Y036080D01*
X020268Y034779D02*
X020147Y034533D01*
X020147Y033269D01*
X028018Y028330D02*
X029143Y029455D01*
X029143Y030265D01*
X030566Y042075D02*
X030571Y042080D01*
X036261Y042080D02*
X036265Y042076D01*
X044643Y037080D02*
X045393Y036330D01*
X048268Y036330D01*
X048518Y036580D01*
X050268Y036580D01*
X052143Y022204D02*
X053018Y022265D01*
X053893Y022270D01*
X054393Y020329D02*
X053393Y020329D01*
X073268Y030955D02*
X074268Y030955D01*
X074893Y029330D01*
X075268Y030955D02*
X076268Y030955D01*
X076394Y031955D01*
X077142Y031955D02*
X077268Y030955D01*
X076893Y029330D01*
X075268Y030955D02*
X075142Y031955D01*
X074394Y031955D02*
X074268Y030955D01*
X075394Y032830D02*
X075268Y033955D01*
X076018Y035205D01*
X076268Y033955D02*
X076142Y032830D01*
X077394Y032830D02*
X077268Y033955D01*
X076268Y033955D01*
X075268Y033955D02*
X074268Y033955D01*
X078018Y035205D02*
X078268Y033955D01*
X078142Y032830D01*
X064893Y050955D02*
X062893Y050955D01*
X060893Y050955D01*
X058893Y050955D01*
X030566Y051075D02*
X030561Y051080D01*
D39*
X028143Y050080D02*
X027393Y050080D01*
X028143Y050080D02*
X029647Y048576D01*
X031147Y048576D01*
X032893Y049580D01*
X034268Y049580D01*
X036265Y050076D01*
X035768Y050580D02*
X036768Y050580D01*
X037522Y050076D01*
X039265Y050076D01*
X040018Y049580D02*
X037893Y049580D01*
X036893Y048580D01*
X035643Y048580D01*
X034018Y047080D01*
X033566Y047075D01*
X033571Y047080D01*
X034143Y046580D02*
X031143Y046580D01*
X028765Y046576D01*
X028268Y046080D01*
X027393Y046080D01*
X026768Y045580D02*
X028393Y045580D01*
X028889Y046075D01*
X030566Y046075D01*
X031143Y045580D02*
X029015Y045576D01*
X028518Y045080D01*
X027393Y045080D01*
X026768Y044580D02*
X028643Y044580D01*
X029139Y045075D01*
X030566Y045075D01*
X031143Y044580D02*
X029265Y044576D01*
X028768Y044080D01*
X027393Y044080D01*
X026768Y043580D02*
X028893Y043580D01*
X029389Y044075D01*
X030566Y044075D01*
X031143Y044580D02*
X034143Y044580D01*
X035643Y046080D01*
X036265Y046076D01*
X035768Y045580D02*
X039768Y045580D01*
X040518Y046080D01*
X041018Y046080D01*
X040643Y046580D02*
X039265Y046076D01*
X039768Y046580D02*
X035643Y046580D01*
X034143Y045080D01*
X033566Y045075D01*
X033571Y045080D01*
X034143Y045580D02*
X031143Y045580D01*
X030566Y047075D02*
X030561Y047080D01*
X028518Y047080D01*
X028018Y046580D01*
X026768Y046580D01*
X027393Y047080D02*
X027893Y047080D01*
X028393Y047580D01*
X031143Y047580D01*
X032893Y048580D01*
X034268Y048580D01*
X035018Y048705D01*
X036265Y049076D01*
X036265Y048076D02*
X035893Y048080D01*
X035643Y047955D01*
X034143Y046580D01*
X034143Y046080D02*
X035768Y047580D01*
X039768Y047580D01*
X040768Y048080D01*
X041018Y048080D01*
X040643Y047580D02*
X039265Y047076D01*
X039768Y046580D02*
X040643Y047080D01*
X041018Y047080D01*
X040643Y046580D02*
X045393Y046580D01*
X045893Y046080D01*
X047018Y046080D01*
X047768Y046080D01*
X049268Y047580D01*
X049893Y047580D01*
X050268Y047955D01*
X052518Y047955D01*
X053268Y047205D01*
X053268Y046580D01*
X052768Y046080D02*
X052768Y047080D01*
X052268Y047580D01*
X050518Y047580D01*
X050143Y047205D01*
X049518Y047205D01*
X047893Y045580D01*
X045768Y045580D01*
X045268Y046080D01*
X045143Y045580D02*
X040518Y045580D01*
X039265Y045076D01*
X039768Y044580D02*
X035643Y044580D01*
X034143Y043080D01*
X033566Y043075D01*
X033571Y043080D01*
X034143Y043580D02*
X035768Y045076D01*
X036265Y045076D01*
X035768Y045580D02*
X034143Y044080D01*
X033571Y044080D01*
X033566Y044075D01*
X034143Y043580D02*
X029515Y043576D01*
X028518Y042580D01*
X026768Y042580D01*
X027393Y042080D02*
X028643Y042080D01*
X029639Y043075D01*
X030566Y043075D01*
X031143Y042580D02*
X029765Y042576D01*
X028768Y041580D01*
X026768Y041580D01*
X026643Y040580D02*
X028018Y040580D01*
X028143Y039580D02*
X026643Y039580D01*
X026768Y038580D02*
X028393Y038580D01*
X028143Y037580D02*
X026768Y037580D01*
X026893Y036580D02*
X028143Y036580D01*
X025643Y033830D02*
X025643Y032580D01*
X024643Y032580D02*
X024643Y033830D01*
X021643Y033955D02*
X021643Y032580D01*
X020643Y032580D02*
X020643Y033955D01*
X023643Y030955D02*
X023643Y029580D01*
X028643Y029580D02*
X028643Y031080D01*
X033393Y028205D02*
X036018Y028080D01*
X036518Y028455D01*
X037893Y028455D01*
X038018Y027455D02*
X036643Y027455D01*
X036643Y026455D02*
X038018Y026455D01*
X038268Y025455D02*
X038643Y025080D01*
X038268Y025455D02*
X036643Y025455D01*
X036643Y024455D02*
X039018Y024455D01*
X039018Y024080D02*
X037893Y024080D01*
X037768Y023955D01*
X037268Y023955D01*
X037268Y022955D02*
X039768Y022955D01*
X040393Y023455D01*
X042268Y023455D01*
X042268Y022455D02*
X036643Y022455D01*
X036143Y023455D02*
X038143Y023455D01*
X040893Y025455D02*
X042393Y025455D01*
X042268Y027455D02*
X041018Y027455D01*
X046893Y027455D02*
X048268Y027455D01*
X048268Y026455D02*
X046893Y026455D01*
X042268Y021455D02*
X041018Y021455D01*
X041643Y019955D02*
X037268Y019955D01*
X036644Y018455D02*
X037893Y018455D01*
X038143Y017455D02*
X036393Y017455D01*
X033393Y017330D02*
X032018Y017455D01*
X030643Y017455D01*
X028018Y018455D01*
X025268Y018455D01*
X023768Y019955D01*
X021393Y019955D01*
X020643Y019455D02*
X023268Y019455D01*
X024893Y017955D01*
X027393Y017955D01*
X027893Y017455D02*
X030643Y016455D01*
X031893Y016455D01*
X030768Y015955D02*
X027893Y016955D01*
X027393Y016955D01*
X027768Y016455D02*
X030643Y015455D01*
X032018Y015455D01*
X031268Y014955D02*
X030518Y014955D01*
X027643Y015955D01*
X027393Y015955D01*
X027768Y016455D02*
X026893Y016455D01*
X027893Y017455D02*
X024518Y017455D01*
X022893Y018955D01*
X021393Y018955D01*
X020643Y017455D02*
X022768Y017455D01*
X022393Y016455D02*
X020768Y016455D01*
X022393Y016455D02*
X024018Y014955D01*
X025143Y014955D01*
X026768Y014455D02*
X027893Y014455D01*
X030768Y013455D01*
X031893Y013455D01*
X031268Y012955D02*
X030643Y012955D01*
X027768Y013955D01*
X027393Y013955D01*
X026768Y013455D02*
X028143Y013455D01*
X030643Y011955D01*
X031268Y011955D01*
X031768Y010455D02*
X030643Y010455D01*
X030643Y009455D02*
X031893Y009455D01*
X028143Y012455D02*
X026768Y012455D01*
X027393Y014955D02*
X027893Y014955D01*
X030893Y013955D01*
X031268Y013955D01*
X030643Y014455D02*
X032143Y014455D01*
X032768Y014830D01*
X030643Y014455D02*
X027893Y015455D01*
X026768Y015455D01*
X027393Y018955D02*
X025768Y018955D01*
X024268Y020455D01*
X020643Y020455D01*
X020518Y021455D02*
X022268Y021455D01*
X022143Y022455D02*
X020643Y022455D01*
X020393Y022705D01*
X020393Y023080D01*
X020643Y023455D01*
X022143Y023455D01*
X022518Y023830D01*
X022518Y024580D01*
X022143Y024955D01*
X021393Y022955D02*
X025143Y022955D01*
X026643Y021455D01*
X028268Y021455D01*
X030643Y020455D01*
X032518Y020455D01*
X031768Y021455D02*
X029643Y021455D01*
X028518Y021955D01*
X027393Y021955D01*
X026768Y022455D02*
X028018Y022455D01*
X028143Y020955D02*
X027393Y020955D01*
X028143Y020955D02*
X030518Y019955D01*
X031268Y019955D01*
X030643Y019455D02*
X032018Y019455D01*
X031268Y018955D02*
X030643Y018955D01*
X028018Y019955D01*
X027393Y019955D01*
X028018Y019455D02*
X026393Y019455D01*
X027393Y018955D02*
X028018Y018955D01*
X030643Y017955D01*
X031268Y017955D01*
X030643Y018455D02*
X032768Y018455D01*
X030643Y018455D02*
X028018Y019455D01*
X028143Y020455D02*
X026393Y020455D01*
X028143Y020455D02*
X030643Y019455D01*
X030643Y022455D02*
X031893Y022455D01*
X031893Y023455D02*
X030518Y023455D01*
X029768Y024455D02*
X030518Y025455D01*
X032018Y025455D01*
X028018Y024455D02*
X026643Y024455D01*
X018768Y014705D02*
X018768Y013249D01*
X020393Y012455D02*
X022018Y012455D01*
X023143Y011455D02*
X020768Y011455D01*
X040893Y010455D02*
X042393Y010455D01*
X042268Y011455D02*
X041018Y011455D01*
X041018Y012455D02*
X042268Y012455D01*
X042268Y014455D02*
X041143Y014455D01*
X041143Y015455D02*
X042143Y015455D01*
X042268Y016455D02*
X041018Y016455D01*
X041143Y017455D02*
X042268Y017455D01*
X042268Y018455D02*
X041018Y018455D01*
X041018Y019455D02*
X042268Y019455D01*
X047018Y016455D02*
X048393Y016455D01*
X052143Y021456D02*
X052642Y021705D01*
X053518Y021705D01*
X055018Y021830D02*
X055018Y020705D01*
X055644Y020455D01*
X055893Y020206D01*
X055893Y017830D01*
X054893Y017955D02*
X054893Y019079D01*
X055334Y019580D01*
X058893Y019706D02*
X058893Y017830D01*
X058893Y019706D02*
X059143Y020206D01*
X062393Y025705D02*
X061445Y026654D01*
X056768Y026654D01*
X056393Y027205D02*
X057518Y027205D01*
X057518Y027330D01*
X057581Y027268D01*
X059831Y027268D01*
X057518Y027330D02*
X057518Y028580D01*
X057393Y028705D01*
X056768Y028330D02*
X056393Y028705D01*
X056768Y028330D02*
X056768Y027756D01*
X056393Y027205D02*
X056019Y026831D01*
X055893Y026831D01*
X056768Y034080D02*
X056768Y035080D01*
X057268Y035580D01*
X058768Y035080D02*
X058768Y034205D01*
X059268Y034580D02*
X059757Y035215D01*
X059757Y035966D01*
X060268Y036205D02*
X060268Y035580D01*
X060768Y035080D02*
X060768Y036205D01*
X060518Y036455D01*
X061268Y036580D02*
X061768Y036080D01*
X062768Y036080D01*
X062893Y035955D01*
X061268Y034580D02*
X060768Y035080D01*
X059268Y035580D02*
X058768Y035080D01*
X061768Y040080D02*
X062768Y040080D01*
X061768Y040080D02*
X061268Y040580D01*
X060893Y041080D02*
X062643Y041080D01*
X062643Y042080D02*
X061018Y042080D01*
X061268Y042580D02*
X061768Y043080D01*
X062768Y043080D01*
X062768Y043580D02*
X063643Y042955D01*
X064268Y042955D01*
X064142Y043955D02*
X064142Y044830D01*
X065768Y044831D01*
X063394Y044830D02*
X062518Y044830D01*
X062268Y044580D01*
X061768Y044080D02*
X062894Y044080D01*
X063394Y043955D01*
X062768Y043580D02*
X062268Y043580D01*
X061768Y044080D02*
X061268Y043580D01*
X061268Y045580D02*
X062018Y046330D01*
X060268Y045580D02*
X059768Y046080D01*
X059768Y046955D01*
X060018Y047268D01*
X059955Y047705D01*
X059207Y047705D02*
X059143Y048329D01*
X058893Y048955D01*
X058768Y047080D02*
X058768Y046080D01*
X058268Y045580D01*
X058768Y044955D02*
X057081Y044955D01*
X056768Y045268D01*
X056768Y045830D01*
X056268Y046580D01*
X056768Y046393D02*
X056768Y046955D01*
X056893Y047080D01*
X056768Y046393D02*
X057268Y045580D01*
X056268Y045580D02*
X055768Y046080D01*
X055768Y047205D01*
X053518Y049455D01*
X049018Y049455D01*
X048143Y048580D01*
X047893Y048580D01*
X047018Y048080D01*
X046518Y048080D01*
X046018Y048580D01*
X039893Y048580D01*
X039265Y048076D01*
X040643Y047580D02*
X045643Y047580D01*
X046143Y047080D01*
X047018Y047080D01*
X047643Y047080D01*
X049018Y048455D01*
X049393Y048455D01*
X049643Y048705D01*
X053018Y048705D01*
X054768Y046955D01*
X054768Y046330D01*
X055268Y045580D01*
X054768Y045830D02*
X054768Y045205D01*
X054268Y045580D02*
X053768Y046080D01*
X053768Y047330D01*
X052768Y048330D01*
X050018Y048330D01*
X049643Y047955D01*
X049018Y047955D01*
X047643Y046580D01*
X046018Y046580D01*
X045518Y047080D01*
X046393Y047580D02*
X045893Y048080D01*
X046393Y047580D02*
X047518Y047580D01*
X048018Y048080D01*
X048229Y048080D01*
X049229Y049080D01*
X053268Y049080D01*
X055268Y047080D01*
X055268Y046580D01*
X054768Y045830D02*
X054268Y046580D01*
X053268Y045580D02*
X052768Y046080D01*
X052268Y045580D02*
X051768Y046080D01*
X050768Y046080D01*
X050518Y046330D01*
X049893Y046330D01*
X048143Y044580D01*
X045518Y044580D01*
X045018Y045080D01*
X045143Y045580D02*
X045643Y045080D01*
X047018Y045080D01*
X048018Y045080D01*
X049768Y046830D01*
X050518Y046830D01*
X050893Y047205D01*
X051643Y047205D01*
X052268Y046580D01*
X051268Y045580D02*
X050768Y045080D01*
X049643Y045080D01*
X048143Y043580D01*
X046393Y043580D01*
X045893Y044080D01*
X045643Y043580D02*
X035768Y043580D01*
X034268Y042080D01*
X033566Y042075D01*
X033571Y042080D01*
X034268Y042580D02*
X031143Y042580D01*
X034268Y042580D02*
X035643Y044080D01*
X036265Y044076D01*
X034143Y045580D02*
X035768Y047080D01*
X036265Y047076D01*
X034143Y046080D02*
X033768Y046080D01*
X033566Y046075D01*
X030566Y048075D02*
X029398Y048075D01*
X028893Y048580D01*
X026768Y048580D01*
X022018Y048580D02*
X020768Y048580D01*
X020768Y047580D02*
X021893Y047580D01*
X022018Y045580D02*
X020768Y045580D01*
X020643Y039580D02*
X022143Y039580D01*
X033566Y050075D02*
X033571Y050080D01*
X033768Y050080D01*
X035768Y050580D01*
X040018Y049580D02*
X041018Y050080D01*
X045768Y049080D02*
X046143Y049580D01*
X047893Y049580D01*
X048518Y050205D01*
X054018Y050205D01*
X053768Y049830D02*
X048768Y049830D01*
X048018Y049080D01*
X046268Y050580D02*
X054268Y050580D01*
X050268Y045580D02*
X049643Y045580D01*
X048143Y044080D01*
X047018Y044080D01*
X047018Y043080D02*
X046143Y043080D01*
X045643Y043580D01*
X045518Y043080D02*
X046018Y042580D01*
X048268Y042580D01*
X049768Y044080D01*
X050768Y044080D01*
X051268Y044580D01*
X050268Y044580D02*
X049643Y044580D01*
X048143Y043080D01*
X047018Y043080D01*
X047018Y042080D02*
X048393Y042080D01*
X049893Y043580D01*
X050268Y043580D01*
X050268Y042580D02*
X049518Y042580D01*
X048518Y041580D01*
X046143Y041580D01*
X045643Y042080D01*
X045518Y041580D02*
X040268Y041580D01*
X040393Y040580D02*
X045643Y040580D01*
X046143Y040080D01*
X047018Y040080D01*
X048268Y040080D01*
X049268Y041080D01*
X050768Y041080D01*
X051268Y041580D01*
X051018Y042080D02*
X051768Y042080D01*
X051268Y042580D02*
X050518Y042080D01*
X049643Y042080D01*
X048643Y041080D01*
X047018Y041080D01*
X046018Y041080D01*
X045518Y041580D01*
X045518Y040080D02*
X046018Y039580D01*
X048393Y039580D01*
X049393Y040580D01*
X050268Y040580D01*
X050643Y040080D02*
X049643Y040080D01*
X048518Y039080D01*
X047018Y039080D01*
X045893Y039080D01*
X045393Y039580D01*
X040393Y039580D01*
X040393Y038580D02*
X045268Y038580D01*
X045768Y038080D01*
X047018Y038080D01*
X048768Y038080D01*
X049268Y038580D01*
X050268Y038580D01*
X050768Y038080D02*
X049393Y038080D01*
X048893Y037580D01*
X045768Y037580D01*
X045268Y038080D01*
X045143Y037580D02*
X040393Y037580D01*
X045143Y037580D02*
X045643Y037080D01*
X047018Y037080D01*
X049018Y037080D01*
X049518Y037580D01*
X050268Y037580D01*
X050768Y037080D02*
X051643Y037080D01*
X051268Y036580D02*
X050768Y036080D01*
X049893Y036080D01*
X050268Y036580D02*
X050768Y037080D01*
X050768Y038080D02*
X051268Y038580D01*
X050768Y039080D02*
X049143Y039080D01*
X048643Y038580D01*
X045768Y038580D01*
X045268Y039080D01*
X050643Y040080D02*
X051268Y040580D01*
X051268Y039580D02*
X050768Y039080D01*
X050268Y041580D02*
X051018Y042080D01*
X058768Y044955D02*
X059268Y045455D01*
X059268Y045580D01*
X051268Y035580D02*
X050393Y034705D01*
X041018Y045080D02*
X040518Y045080D01*
X039768Y044580D01*
X045893Y050080D02*
X046268Y050580D01*
X069643Y033705D02*
X070393Y034205D01*
X071268Y034330D01*
X072018Y035080D01*
X074018Y037705D01*
X073643Y038580D01*
X073268Y039205D01*
X079518Y043330D02*
X074143Y048705D01*
X078268Y045705D02*
X081518Y042455D01*
X081518Y018954D01*
X082393Y017829D02*
X082393Y043205D01*
X079018Y046580D01*
X078143Y045455D02*
X079893Y043705D01*
X079893Y019329D01*
X078143Y022080D02*
X076320Y022080D01*
X076445Y026080D01*
X076453Y026839D01*
X076453Y027080D01*
X075893Y027455D02*
X076143Y027705D01*
X077768Y027705D01*
X078143Y027330D01*
X078143Y027080D01*
X078143Y025080D02*
X078518Y025080D01*
X079518Y024830D01*
X079518Y043330D01*
X075893Y027455D02*
X075893Y025830D01*
X075768Y025705D01*
X075768Y021330D01*
X075518Y021080D01*
X074143Y021080D01*
X073518Y020580D02*
X074893Y020580D01*
X075393Y020080D01*
X075393Y017955D01*
X074893Y017580D01*
X073393Y017580D01*
X074143Y018080D02*
X074518Y018080D01*
X076269Y016081D02*
X076268Y016080D01*
X076269Y016081D02*
X076269Y020580D01*
X076269Y022030D01*
X076320Y022080D01*
X075217Y022080D02*
X074143Y022080D01*
X073518Y023580D02*
X074893Y023580D01*
X075018Y023705D01*
X075018Y024955D01*
X074893Y025080D01*
X074143Y025080D01*
X075342Y026080D02*
X075342Y026821D01*
X075334Y027080D01*
X072018Y015205D02*
X069893Y009205D01*
X062518Y009330D01*
X061143Y010020D01*
X061643Y008705D02*
X069893Y008705D01*
X073268Y010580D01*
X069643Y009955D02*
X071268Y014955D01*
X069518Y014830D02*
X068518Y010580D01*
X056518Y010580D01*
X054643Y009520D01*
X057268Y010020D02*
X061643Y008705D01*
X063018Y010020D02*
X069643Y009955D01*
X048268Y010455D02*
X044893Y010455D01*
D40*
X015643Y010580D02*
X015643Y014830D01*
X016893Y016080D01*
X019018Y016080D01*
X019893Y016955D01*
X021393Y016955D01*
X022518Y016955D01*
X023893Y015705D01*
X025768Y015705D01*
X026018Y015455D01*
X026768Y015455D01*
X026518Y015955D02*
X026143Y016330D01*
X023893Y016330D01*
X022768Y017455D01*
X023143Y017955D02*
X021393Y017955D01*
X020643Y017455D02*
X019518Y017455D01*
X016518Y020455D01*
X016518Y022455D01*
X017393Y022830D02*
X015518Y024830D01*
X015518Y044080D01*
X020018Y048580D01*
X020768Y048580D01*
X021393Y048080D02*
X022643Y048080D01*
X025143Y045580D01*
X026768Y045580D01*
X027393Y045080D02*
X024893Y045080D01*
X022393Y047580D01*
X021893Y047580D01*
X022143Y047080D02*
X021393Y047080D01*
X020768Y047080D01*
X016518Y042830D01*
X016518Y027080D01*
X018893Y024705D01*
X018893Y021580D01*
X020018Y020455D01*
X020643Y020455D01*
X020268Y020955D02*
X021393Y020955D01*
X020518Y021455D02*
X019893Y022080D01*
X019893Y023330D01*
X020393Y023955D01*
X021393Y023955D01*
X021393Y024955D02*
X022143Y024955D01*
X022143Y025580D02*
X020893Y025580D01*
X020518Y025205D01*
X020518Y024705D01*
X020143Y024330D01*
X020018Y024330D01*
X019393Y023580D01*
X019393Y021830D01*
X020268Y020955D01*
X019518Y020080D02*
X018393Y021205D01*
X018393Y024455D01*
X016018Y026830D01*
X016018Y043080D01*
X020518Y047580D01*
X020768Y047580D01*
X022143Y047080D02*
X024643Y044580D01*
X026768Y044580D01*
X026768Y043580D02*
X024893Y043580D01*
X022393Y046080D01*
X021393Y046080D01*
X020768Y045580D02*
X020518Y045580D01*
X017018Y042080D01*
X017018Y027455D01*
X018643Y025830D01*
X019643Y025830D01*
X020143Y026330D01*
X028893Y026330D01*
X030018Y027455D01*
X030018Y027955D01*
X030768Y028705D01*
X031268Y028955D01*
X033893Y028955D01*
X034143Y029080D01*
X035143Y029080D01*
X039268Y033205D01*
X043143Y033205D01*
X043643Y032705D01*
X044643Y032705D01*
X045643Y033705D01*
X056518Y033705D01*
X056768Y033955D01*
X056768Y034080D01*
X057018Y033205D02*
X058143Y034330D01*
X058268Y034580D01*
X058768Y034205D02*
X058768Y034080D01*
X057393Y032705D01*
X046143Y032705D01*
X045143Y031705D01*
X042393Y031705D01*
X041893Y031205D01*
X041143Y031205D01*
X039768Y029705D01*
X039768Y028580D01*
X038643Y027455D01*
X038018Y027455D01*
X038143Y027955D02*
X037268Y027955D01*
X036643Y027455D02*
X032518Y027455D01*
X032018Y027955D01*
X031268Y027955D01*
X030768Y027955D01*
X030393Y027580D01*
X030393Y027080D01*
X029143Y025830D01*
X022768Y025830D01*
X022643Y025955D01*
X020643Y025955D01*
X019768Y025080D01*
X018893Y026580D02*
X020018Y026830D01*
X028643Y026830D01*
X029643Y027830D01*
X029643Y028205D01*
X030268Y028830D01*
X030393Y029205D01*
X030893Y029955D01*
X030893Y030955D01*
X033518Y033580D01*
X034643Y033580D01*
X034643Y033330D01*
X033393Y034330D02*
X030393Y031330D01*
X030393Y029955D01*
X030018Y029330D01*
X029893Y029080D01*
X029143Y028330D01*
X029143Y028080D01*
X028393Y027330D01*
X018893Y027330D01*
X017518Y028705D01*
X017518Y038705D01*
X020893Y042080D01*
X021393Y042080D01*
X021393Y041080D02*
X022143Y041080D01*
X022393Y040830D01*
X022393Y039830D01*
X022143Y039580D01*
X021393Y039080D02*
X020893Y039080D01*
X020393Y038580D01*
X020393Y037080D01*
X019518Y036205D01*
X019518Y029705D01*
X019893Y029330D01*
X022893Y029330D01*
X023147Y029584D01*
X023147Y030269D01*
X023643Y030955D02*
X023393Y031205D01*
X021768Y031205D01*
X020643Y032330D01*
X020643Y032580D01*
X020147Y033269D02*
X020147Y030269D01*
X019018Y029455D02*
X019018Y036455D01*
X019893Y037330D01*
X019893Y038830D01*
X020643Y039580D01*
X020018Y040080D02*
X021393Y040080D01*
X020018Y040080D02*
X018018Y038080D01*
X018018Y028955D01*
X019143Y027830D01*
X028143Y027830D01*
X029518Y029205D01*
X029893Y029955D01*
X029893Y031580D01*
X030643Y032455D01*
X033018Y034830D01*
X037018Y034830D01*
X038018Y035830D01*
X044268Y035830D01*
X044893Y035205D01*
X048643Y035205D01*
X049018Y035580D01*
X050268Y035580D01*
X049893Y036080D02*
X048768Y036080D01*
X048393Y035705D01*
X045143Y035705D01*
X044518Y036330D01*
X037768Y036330D01*
X036768Y035330D01*
X032643Y035330D01*
X030143Y032830D01*
X028643Y031080D01*
X028147Y031451D02*
X027768Y031830D01*
X026393Y031830D01*
X025643Y032580D01*
X025147Y033269D02*
X025147Y033959D01*
X025268Y034080D01*
X025268Y035830D01*
X026018Y036580D01*
X026893Y036580D01*
X026518Y036080D02*
X027393Y036080D01*
X026518Y036080D02*
X025768Y035330D01*
X025768Y034080D01*
X025643Y033955D01*
X025643Y033830D01*
X026147Y033959D02*
X026147Y033269D01*
X026147Y033959D02*
X027893Y035205D01*
X028026Y035205D01*
X030901Y037330D01*
X034143Y037330D01*
X036268Y039080D01*
X041018Y039080D01*
X044018Y039080D01*
X045268Y039080D01*
X045268Y038080D02*
X044018Y038080D01*
X041018Y038080D01*
X036518Y038080D01*
X034393Y036330D01*
X031518Y036330D01*
X028143Y033830D01*
X028143Y033273D01*
X028147Y033269D01*
X027147Y033269D02*
X027147Y033959D01*
X027893Y034455D01*
X031143Y036830D01*
X034268Y036830D01*
X036393Y038580D01*
X040393Y038580D01*
X040393Y037580D02*
X036643Y037580D01*
X034643Y035830D01*
X031893Y035830D01*
X029147Y033709D01*
X029147Y033269D01*
X028147Y031451D02*
X028147Y030269D01*
X028643Y029580D02*
X028393Y029330D01*
X027893Y029330D01*
X027393Y028830D01*
X019643Y028830D01*
X019018Y029455D01*
X021643Y032205D02*
X022143Y031705D01*
X024268Y031705D01*
X025147Y030826D01*
X025147Y030269D01*
X026147Y030269D02*
X026147Y030701D01*
X024643Y032205D01*
X024643Y032580D01*
X024147Y033269D02*
X024147Y034209D01*
X024268Y034330D01*
X024268Y036705D01*
X025143Y037580D01*
X026768Y037580D01*
X027393Y037080D02*
X025518Y037080D01*
X024768Y036330D01*
X024768Y034205D01*
X024643Y034080D01*
X024643Y033830D01*
X023768Y034580D02*
X023768Y037205D01*
X025143Y038580D01*
X026768Y038580D01*
X027393Y038080D02*
X028768Y038080D01*
X030143Y039080D01*
X033143Y039080D01*
X033893Y038330D02*
X036143Y040080D01*
X041018Y040080D01*
X044018Y040080D01*
X045518Y040080D01*
X044018Y041080D02*
X041018Y041080D01*
X040393Y040580D02*
X036018Y040580D01*
X035018Y039830D01*
X030143Y039830D01*
X028393Y038580D01*
X028143Y037580D02*
X029143Y037580D01*
X030143Y038330D01*
X033893Y038330D01*
X034018Y037830D02*
X030518Y037830D01*
X028893Y036580D01*
X028143Y036580D01*
X028143Y039580D02*
X028643Y039580D01*
X029643Y040330D01*
X034768Y040330D01*
X035893Y041080D01*
X039768Y041080D01*
X040268Y041580D01*
X041018Y042080D02*
X039265Y042076D01*
X039265Y043076D02*
X041018Y043080D01*
X044018Y043080D01*
X045518Y043080D01*
X045893Y044080D02*
X044018Y044080D01*
X041018Y044080D01*
X039265Y044076D01*
X041018Y045080D02*
X044018Y045080D01*
X045018Y045080D01*
X045268Y046080D02*
X044018Y046080D01*
X041018Y046080D01*
X041018Y047080D02*
X044018Y047080D01*
X045518Y047080D01*
X045893Y048080D02*
X044018Y048080D01*
X041018Y048080D01*
X041015Y049076D02*
X041018Y049080D01*
X044018Y049080D01*
X045768Y049080D01*
X047018Y049080D02*
X048018Y049080D01*
X045893Y050080D02*
X044018Y050080D01*
X041018Y050080D01*
X039890Y050076D02*
X040268Y051455D01*
X047393Y051455D01*
X047643Y051205D01*
X053768Y049830D02*
X054643Y048955D01*
X056706Y048955D01*
X057268Y048393D01*
X057268Y046580D01*
X056893Y047080D02*
X056893Y048018D01*
X056768Y048143D01*
X056269Y048143D01*
X056268Y048142D01*
X056268Y047394D02*
X056268Y046580D01*
X057706Y047455D02*
X057706Y048580D01*
X056893Y049393D01*
X054831Y049393D01*
X054018Y050205D01*
X054268Y050580D02*
X055018Y049830D01*
X057206Y049830D01*
X058143Y048893D01*
X058143Y047705D01*
X058768Y047080D01*
X058268Y046893D02*
X057706Y047455D01*
X058268Y046893D02*
X058268Y046580D01*
X055956Y044580D02*
X055831Y044705D01*
X055956Y044580D02*
X061268Y044580D01*
X060581Y043330D02*
X059706Y044205D01*
X056831Y044205D01*
X056206Y043643D01*
X055893Y043643D01*
X055018Y044268D01*
X054706Y044580D01*
X052581Y044580D01*
X052206Y044205D01*
X052206Y043580D01*
X051893Y043205D01*
X051893Y042205D01*
X051768Y042080D01*
X051956Y041768D02*
X052268Y042080D01*
X052268Y042955D01*
X052581Y043268D01*
X052581Y044018D01*
X052768Y044205D01*
X054581Y044205D01*
X054893Y043893D01*
X055643Y043330D01*
X056581Y043330D01*
X057081Y043830D01*
X059331Y043830D01*
X059747Y043414D01*
X059747Y041977D01*
X060768Y041080D01*
X060893Y041080D01*
X060831Y042080D02*
X060581Y042330D01*
X060581Y043330D01*
X060831Y042080D02*
X061018Y042080D01*
X062268Y042580D02*
X062643Y042580D01*
X063518Y041830D01*
X064018Y041455D01*
X064018Y041080D01*
X065643Y039080D01*
X065643Y036205D01*
X066893Y035580D01*
X066893Y034330D01*
X066268Y034330D01*
X066143Y034205D01*
X066893Y034330D02*
X068643Y034705D01*
X069519Y035955D02*
X069268Y036331D01*
X069268Y037330D01*
X070268Y036830D02*
X070268Y039579D01*
X070142Y040205D01*
X069394Y040205D02*
X069394Y041205D01*
X069393Y041831D01*
X069393Y042579D02*
X068018Y042579D01*
X067903Y043550D01*
X068018Y042579D02*
X066892Y042579D01*
X065268Y040955D01*
X064643Y041455D02*
X064018Y041455D01*
X064643Y041455D02*
X066518Y043330D01*
X066518Y044580D01*
X067299Y045361D01*
X067903Y045361D01*
X067903Y044455D02*
X070384Y044455D01*
X071893Y044455D01*
X073518Y042830D01*
X073518Y041706D01*
X073392Y041580D01*
X071768Y041580D01*
X071393Y041205D01*
X071393Y038330D01*
X071872Y037934D01*
X072518Y037330D02*
X072019Y036831D01*
X071394Y036080D01*
X070894Y035955D01*
X070267Y035955D01*
X070643Y034705D02*
X071518Y035206D01*
X072142Y036080D01*
X072518Y037330D02*
X072893Y037330D01*
X072852Y037371D01*
X072893Y038330D02*
X072518Y040079D01*
X072519Y040080D01*
X072518Y040081D01*
X072518Y041020D01*
X073392Y041580D02*
X074143Y040954D01*
X074143Y040206D02*
X074643Y038205D01*
X074518Y036705D01*
X071768Y034580D01*
X071268Y033455D01*
X068393Y036580D02*
X068393Y040081D01*
X068518Y040206D01*
X068518Y040954D02*
X068018Y041205D01*
X067768Y040955D01*
X067768Y037705D01*
X067518Y037455D01*
X066768Y037455D01*
X065143Y038830D02*
X065143Y035205D01*
X064393Y034705D02*
X064768Y034205D01*
X065143Y034205D01*
X064393Y034705D02*
X064393Y036705D01*
X064768Y037080D01*
X064768Y037830D01*
X063643Y038955D01*
X063643Y039955D01*
X063018Y040580D01*
X063018Y040705D01*
X062643Y041080D01*
X063018Y041455D02*
X062643Y042080D01*
X063018Y041455D02*
X063643Y040705D01*
X065143Y038830D01*
X063018Y039830D02*
X063018Y037080D01*
X063893Y036205D01*
X063893Y034330D01*
X064893Y033205D01*
X065143Y033205D01*
X064018Y033455D02*
X064018Y032080D01*
X064768Y031205D01*
X065143Y031205D01*
X064268Y030955D02*
X064643Y028455D01*
X065768Y026205D01*
X068518Y026205D01*
X069393Y025455D01*
X069393Y024455D01*
X068393Y024455D02*
X068393Y025455D01*
X068143Y025830D01*
X065518Y025830D01*
X064143Y028330D01*
X063768Y030705D01*
X062768Y031705D01*
X062143Y032205D01*
X061393Y032205D02*
X061393Y032955D01*
X061643Y033205D01*
X062268Y033205D01*
X062893Y032455D01*
X064268Y030955D01*
X063268Y030580D02*
X063768Y027955D01*
X064268Y026830D01*
X064643Y025455D01*
X064518Y025205D01*
X064393Y024455D01*
X064018Y025830D02*
X063018Y025455D01*
X062393Y024455D01*
X064018Y025830D02*
X062768Y029830D01*
X062268Y030330D01*
X062518Y031205D02*
X061768Y031205D01*
X061393Y030830D01*
X060643Y031080D02*
X061393Y032205D01*
X061018Y032580D02*
X060393Y031580D01*
X057643Y029330D01*
X055268Y029330D01*
X054018Y026580D01*
X050893Y026580D01*
X050518Y026205D01*
X050518Y017205D01*
X049143Y015830D01*
X049143Y010705D01*
X048393Y009955D01*
X047643Y009955D01*
X048268Y010455D02*
X048643Y010830D01*
X048643Y015955D01*
X050018Y017330D01*
X050018Y026705D01*
X050393Y027080D01*
X053643Y027080D01*
X054893Y029705D01*
X057393Y029705D01*
X060143Y032080D01*
X060268Y033080D01*
X061018Y033205D02*
X061018Y032580D01*
X061018Y033205D02*
X062268Y034455D01*
X062268Y035580D01*
X062893Y035955D02*
X062893Y033455D01*
X063143Y033205D01*
X063393Y034080D02*
X064018Y033455D01*
X063393Y034080D02*
X063393Y036080D01*
X062893Y036580D01*
X062268Y036580D01*
X060518Y036455D02*
X060518Y036768D01*
X059643Y037643D01*
X059643Y039393D01*
X058456Y040580D01*
X056831Y040580D01*
X056268Y041143D01*
X056268Y041518D01*
X052893Y041455D02*
X052456Y041018D01*
X052456Y037830D01*
X053393Y036893D01*
X059643Y036893D01*
X060268Y036268D01*
X060268Y036205D01*
X059768Y036205D02*
X059768Y035977D01*
X059757Y035966D01*
X059768Y036205D02*
X059518Y036455D01*
X054268Y036455D01*
X054268Y035580D01*
X054268Y036455D02*
X052393Y036455D01*
X051768Y037080D01*
X051643Y037080D01*
X051518Y037580D02*
X051956Y038018D01*
X051956Y041768D01*
X051643Y043580D02*
X051893Y043830D01*
X051893Y044455D01*
X052393Y044955D01*
X054518Y044955D01*
X054768Y045205D01*
X051643Y043580D02*
X051268Y043580D01*
X045643Y042080D02*
X044018Y042080D01*
X041018Y042080D01*
X040393Y039580D02*
X036268Y039580D01*
X034018Y037830D01*
X034643Y040830D02*
X029268Y040830D01*
X028643Y040580D01*
X028018Y040580D01*
X026643Y040580D02*
X024643Y040580D01*
X022143Y043080D01*
X021393Y043080D01*
X021393Y044080D02*
X021893Y044080D01*
X024393Y041580D01*
X026768Y041580D01*
X026768Y042580D02*
X024268Y042580D01*
X021768Y045080D01*
X021393Y045080D01*
X022018Y045580D02*
X022143Y045580D01*
X024643Y043080D01*
X027393Y043080D01*
X027393Y046080D02*
X025268Y046080D01*
X022768Y048580D01*
X022018Y048580D01*
X021393Y049080D02*
X023018Y049080D01*
X025518Y046580D01*
X026768Y046580D01*
X026768Y048580D02*
X024268Y048580D01*
X022768Y050080D01*
X021393Y050080D01*
X024393Y049455D02*
X025893Y051705D01*
X031268Y051705D01*
X032898Y050075D01*
X033566Y050075D01*
X039265Y050076D02*
X039890Y050076D01*
X039265Y049076D02*
X041015Y049076D01*
X037147Y043076D02*
X036265Y043076D01*
X037147Y043076D02*
X037268Y042955D01*
X037268Y041830D01*
X036893Y041455D01*
X035643Y041455D01*
X034643Y040830D01*
X038268Y034955D02*
X038768Y034705D01*
X050393Y034705D01*
X050893Y034205D02*
X051268Y034580D01*
X050893Y034205D02*
X037643Y034205D01*
X037393Y034330D01*
X033393Y034330D01*
X035393Y030205D02*
X038893Y033705D01*
X043143Y033705D01*
X044268Y033455D01*
X044893Y032205D02*
X042143Y032205D01*
X041643Y031705D01*
X039518Y031705D01*
X038143Y030330D01*
X038143Y028705D01*
X037893Y028455D01*
X038143Y027955D02*
X038643Y028455D01*
X038643Y029705D01*
X039143Y030205D01*
X040518Y029705D02*
X041393Y030705D01*
X042143Y030705D01*
X042768Y031330D01*
X045518Y031330D01*
X046393Y032205D01*
X057893Y032205D01*
X058768Y033080D01*
X059518Y033455D02*
X059518Y032205D01*
X057018Y030080D01*
X054518Y030080D01*
X053393Y027580D01*
X049893Y027580D01*
X049518Y027205D01*
X049518Y017580D01*
X048393Y016455D01*
X048268Y016955D02*
X047643Y016955D01*
X046768Y016955D01*
X044268Y014455D01*
X042268Y014455D01*
X042143Y015455D02*
X044518Y015455D01*
X046768Y017705D01*
X047643Y017955D01*
X046894Y018456D02*
X047393Y018955D01*
X047643Y018955D01*
X046894Y018456D02*
X046518Y018456D01*
X046518Y019204D02*
X047269Y019955D01*
X047643Y019955D01*
X046643Y020205D02*
X045643Y019205D01*
X044643Y019205D01*
X044143Y018705D01*
X044143Y018080D01*
X042518Y016455D01*
X042268Y016455D01*
X041643Y015955D02*
X043018Y015955D01*
X045018Y017955D01*
X045018Y018455D01*
X045393Y019705D02*
X044268Y019705D01*
X043643Y019080D01*
X043643Y018580D01*
X042518Y017455D01*
X042268Y017455D01*
X041143Y017455D02*
X040893Y017455D01*
X040018Y016580D01*
X038393Y016580D01*
X038018Y016955D01*
X037268Y016955D01*
X036393Y016955D01*
X032018Y019455D01*
X032268Y019955D02*
X031268Y019955D01*
X031268Y020955D02*
X033394Y020955D01*
X033393Y020704D01*
X033393Y020455D01*
X036644Y018455D01*
X036518Y017955D02*
X037268Y017955D01*
X037893Y017955D01*
X041018Y018455D01*
X041143Y018955D02*
X041643Y018955D01*
X041143Y018955D02*
X037893Y018455D01*
X037893Y018955D02*
X037268Y018955D01*
X037893Y018955D02*
X041018Y019455D01*
X042268Y019455D02*
X043518Y020705D01*
X044893Y020705D01*
X045393Y021205D01*
X045393Y021955D01*
X045143Y022330D01*
X044643Y021455D02*
X042268Y021455D01*
X041643Y020955D02*
X039768Y021006D01*
X039268Y021955D02*
X038643Y021455D01*
X038143Y021455D01*
X037643Y021955D01*
X037268Y021955D01*
X036643Y022455D02*
X036518Y022455D01*
X036268Y022205D01*
X036268Y021205D01*
X036518Y020955D01*
X037268Y020955D01*
X037268Y019955D02*
X036081Y019955D01*
X035081Y020955D01*
X034142Y020955D01*
X033018Y021955D02*
X032518Y021455D01*
X031768Y021455D01*
X031893Y022455D02*
X032393Y022455D01*
X032768Y022830D01*
X035518Y022830D01*
X036143Y023455D01*
X036268Y022955D02*
X037268Y022955D01*
X036268Y022955D02*
X035393Y021955D01*
X033018Y021955D01*
X032518Y020455D02*
X036518Y017955D01*
X036393Y017455D02*
X032268Y019955D01*
X032768Y018455D02*
X037268Y015955D01*
X040393Y015955D01*
X040893Y016455D01*
X041018Y016455D01*
X041143Y015455D02*
X039143Y015455D01*
X038143Y014330D01*
X037268Y013955D01*
X037268Y012955D02*
X038143Y013205D01*
X039143Y014580D01*
X041143Y014455D01*
X040268Y013205D02*
X039518Y013205D01*
X038268Y011955D01*
X037268Y011955D01*
X036643Y011955D01*
X036393Y012205D01*
X036393Y014580D01*
X036018Y014955D01*
X035268Y014955D01*
X034893Y014580D01*
X034893Y012330D01*
X033018Y010455D01*
X031768Y010455D01*
X032018Y010955D02*
X031268Y010955D01*
X032018Y010955D02*
X032518Y011455D01*
X032518Y013080D01*
X032143Y013455D01*
X031893Y013455D01*
X033518Y013955D02*
X033518Y012080D01*
X033518Y013955D02*
X034768Y015205D01*
X034768Y016080D01*
X034268Y016080D01*
X033768Y016455D01*
X031893Y016455D01*
X031268Y015955D02*
X030768Y015955D01*
X032018Y015455D02*
X032393Y015455D01*
X032518Y015580D01*
X033393Y015580D01*
X033518Y015455D01*
X035643Y014205D02*
X035643Y012330D01*
X032768Y009455D01*
X031893Y009455D01*
X030643Y009455D02*
X028143Y011955D01*
X027393Y011955D01*
X026768Y012455D02*
X026143Y012455D01*
X025893Y012705D01*
X024393Y012705D01*
X024018Y013080D01*
X023143Y013080D01*
X022268Y013955D01*
X021393Y013955D01*
X022268Y012705D02*
X022018Y012455D01*
X022268Y012705D02*
X023268Y012705D01*
X024268Y011955D01*
X024768Y011955D01*
X023143Y011455D02*
X025893Y009330D01*
X026143Y009080D01*
X035768Y009080D01*
X036643Y009955D01*
X037268Y009955D01*
X040393Y009955D01*
X040893Y010455D01*
X041643Y009955D02*
X044393Y009955D01*
X044893Y010455D01*
X043393Y010455D02*
X046893Y013955D01*
X047643Y013955D01*
X047643Y014955D02*
X047143Y014955D01*
X043643Y011455D01*
X042268Y011455D01*
X041643Y010955D02*
X039893Y010955D01*
X039393Y011080D01*
X039018Y011830D02*
X038143Y010955D01*
X037268Y010955D01*
X039018Y011830D02*
X039768Y011830D01*
X040268Y011455D01*
X041018Y011455D01*
X040518Y011955D02*
X041643Y011955D01*
X041018Y012455D02*
X040893Y012455D01*
X040268Y013205D01*
X039893Y012455D02*
X040518Y011955D01*
X041643Y012955D02*
X043518Y012955D01*
X047018Y016455D01*
X047268Y015955D02*
X047643Y015955D01*
X047268Y015955D02*
X043768Y012455D01*
X042268Y012455D01*
X042393Y010455D02*
X043393Y010455D01*
X039268Y017330D02*
X038143Y017455D01*
X037268Y019955D02*
X039768Y019904D01*
X040893Y021455D02*
X040393Y021955D01*
X039268Y021955D01*
X040893Y021455D02*
X041018Y021455D01*
X042268Y022455D02*
X043268Y022455D01*
X045018Y024205D01*
X045018Y025205D01*
X046768Y026955D01*
X047643Y026955D01*
X048268Y026455D02*
X048393Y026455D01*
X048643Y026205D01*
X048643Y024205D01*
X048393Y023955D01*
X047643Y023955D01*
X046643Y024455D02*
X046643Y020205D01*
X046143Y020455D02*
X045393Y019705D01*
X045143Y020205D02*
X044018Y020205D01*
X042268Y018455D01*
X045143Y020205D02*
X045768Y020830D01*
X045768Y025330D01*
X046893Y026455D01*
X047018Y025955D02*
X046143Y025080D01*
X046143Y020455D01*
X049018Y017705D02*
X048268Y016955D01*
X049018Y017705D02*
X049018Y027580D01*
X049518Y028080D01*
X052893Y028080D01*
X053268Y028580D01*
X053268Y029205D01*
X052893Y029955D02*
X053268Y030455D01*
X056268Y030455D01*
X057393Y031580D01*
X056268Y031580D02*
X056268Y031080D01*
X055893Y030830D01*
X052893Y030830D01*
X052518Y030455D01*
X049018Y030455D01*
X048893Y030580D01*
X046768Y030580D01*
X045893Y029705D01*
X045643Y029705D01*
X046143Y029330D02*
X046143Y029080D01*
X044518Y027455D01*
X042518Y027455D01*
X042268Y027455D01*
X042518Y027455D02*
X042518Y028705D01*
X042268Y028955D01*
X041643Y028955D01*
X041768Y029955D02*
X042268Y030205D01*
X043268Y030955D01*
X045893Y030955D01*
X046643Y031705D01*
X051018Y031705D01*
X051268Y031455D01*
X050768Y030830D02*
X050518Y031080D01*
X046643Y031080D01*
X046018Y030455D01*
X043768Y030455D01*
X043393Y030330D01*
X043018Y029830D01*
X041643Y027955D02*
X040893Y027955D01*
X038893Y025955D01*
X037268Y025955D01*
X036643Y025455D02*
X036143Y025455D01*
X035643Y025955D01*
X032893Y025955D01*
X032393Y025455D01*
X032018Y025455D01*
X032018Y025955D02*
X031268Y025955D01*
X032018Y025955D02*
X032518Y026455D01*
X036643Y026455D01*
X038018Y026455D02*
X038768Y026455D01*
X040518Y028205D01*
X040518Y029705D01*
X039393Y032455D02*
X037268Y030330D01*
X037268Y028955D01*
X035393Y030205D02*
X031643Y030205D01*
X029147Y030269D02*
X029143Y030265D01*
X027147Y030269D02*
X027143Y030265D01*
X027143Y029580D01*
X026893Y029330D01*
X023893Y029330D01*
X023643Y029580D01*
X021643Y032205D02*
X021643Y032580D01*
X022147Y033269D02*
X022143Y033273D01*
X022143Y033705D01*
X023268Y034830D01*
X023268Y037830D01*
X025018Y039580D01*
X026643Y039580D01*
X022768Y037455D02*
X022768Y035080D01*
X021643Y033955D01*
X021268Y034330D02*
X020643Y033955D01*
X021268Y034330D02*
X022268Y035330D01*
X022268Y036705D01*
X021893Y037080D01*
X021393Y037080D01*
X022143Y038080D02*
X022768Y037455D01*
X022143Y038080D02*
X021393Y038080D01*
X023768Y034580D02*
X023147Y033959D01*
X023147Y033269D01*
X022143Y025580D02*
X023268Y024455D01*
X026643Y024455D01*
X026643Y023955D02*
X027393Y023955D01*
X026643Y023955D02*
X026393Y023705D01*
X026393Y022705D01*
X026643Y022455D01*
X026768Y022455D01*
X027393Y022955D02*
X030018Y022955D01*
X030518Y023455D01*
X031268Y023955D02*
X035143Y023955D01*
X035643Y024455D01*
X036643Y024455D01*
X037268Y023955D02*
X035893Y023955D01*
X035393Y023455D01*
X031893Y023455D01*
X030643Y022455D02*
X028018Y022455D01*
X026393Y020455D02*
X024393Y022455D01*
X022143Y022455D01*
X022268Y021455D02*
X024393Y021455D01*
X026393Y019455D01*
X027393Y017955D02*
X028018Y017955D01*
X030768Y016955D01*
X031268Y016955D01*
X027393Y015955D02*
X026518Y015955D01*
X026768Y016455D02*
X026268Y016955D01*
X024143Y016955D01*
X023143Y017955D01*
X020768Y016455D02*
X020643Y016455D01*
X019320Y015131D01*
X019320Y013955D01*
X018768Y013249D02*
X019107Y012911D01*
X019938Y012911D01*
X020393Y012455D01*
X020768Y011455D02*
X018768Y009455D01*
X016768Y009455D01*
X015643Y010580D01*
X016430Y011927D02*
X016958Y012580D01*
X017394Y012830D01*
X017268Y012956D01*
X017268Y014205D01*
X016393Y014205D01*
X017268Y014205D02*
X017268Y014705D01*
X017644Y015080D01*
X018392Y015080D02*
X018518Y015080D01*
X018768Y014830D01*
X018768Y014705D01*
X018217Y013955D02*
X018142Y012830D01*
X018280Y012692D01*
X018280Y011927D01*
X021393Y014955D02*
X022268Y014955D01*
X023393Y013830D01*
X024143Y013830D01*
X024518Y013455D01*
X026768Y013455D01*
X026768Y014455D02*
X026143Y014455D01*
X025768Y014080D01*
X024768Y014080D01*
X024393Y014455D01*
X023643Y014455D01*
X022143Y015955D01*
X021393Y015955D01*
X020268Y018455D02*
X019268Y018455D01*
X017393Y020330D01*
X017393Y022830D01*
X017893Y023705D02*
X017893Y020580D01*
X019268Y019205D01*
X019768Y019205D01*
X020018Y019455D01*
X020643Y019455D01*
X017893Y023705D02*
X016768Y024830D01*
X028018Y024455D02*
X029768Y024455D01*
X031268Y024955D02*
X035081Y024955D01*
X039018Y024455D02*
X039143Y024455D01*
X039643Y024955D01*
X039643Y026080D01*
X041018Y027455D01*
X041643Y025955D02*
X043768Y025955D01*
X046643Y028830D01*
X046643Y029205D01*
X047018Y029580D01*
X048268Y029580D01*
X048643Y029205D01*
X052143Y029205D01*
X052893Y029955D02*
X048768Y029955D01*
X048643Y030080D01*
X046893Y030080D01*
X046143Y029330D01*
X046518Y027955D02*
X044018Y025455D01*
X042393Y025455D01*
X040893Y025455D02*
X039518Y024080D01*
X039018Y024080D01*
X042268Y023455D02*
X043518Y023455D01*
X044518Y024455D01*
X044518Y025330D01*
X046643Y027455D01*
X046893Y027455D01*
X046518Y027955D02*
X047643Y027955D01*
X048268Y027455D02*
X048643Y027830D01*
X048643Y028580D01*
X048268Y028955D01*
X047643Y028955D01*
X050768Y030830D02*
X051768Y030830D01*
X052393Y031455D01*
X055143Y031580D01*
X057018Y033205D02*
X045893Y033205D01*
X044893Y032205D01*
X041268Y032455D02*
X039393Y032455D01*
X047018Y025955D02*
X047643Y025955D01*
X047643Y024955D02*
X047143Y024955D01*
X046643Y024455D01*
X051268Y024330D02*
X051268Y022204D01*
X051268Y023080D01*
X053143Y023080D01*
X053393Y022830D01*
X054144Y022830D01*
X054768Y022581D01*
X054203Y022270D02*
X053893Y022270D01*
X054203Y022270D02*
X055018Y021830D01*
X054459Y021330D02*
X053893Y021330D01*
X053518Y021705D01*
X053018Y021145D02*
X052703Y020830D01*
X052268Y020830D01*
X051893Y020580D01*
X051893Y019580D01*
X052018Y019455D01*
X053267Y019455D01*
X053393Y019581D01*
X053393Y018455D01*
X054893Y017955D02*
X054893Y017580D01*
X056018Y016205D01*
X057518Y015955D01*
X058768Y016330D01*
X059518Y016330D01*
X058518Y017080D02*
X058893Y017455D01*
X058893Y017830D01*
X056393Y017080D02*
X055893Y017580D01*
X055893Y017830D01*
X051334Y020080D02*
X051334Y021391D01*
X051268Y021456D01*
X052143Y021456D01*
X051268Y024330D02*
X051393Y024455D01*
X051643Y025705D01*
X054268Y025705D01*
X055518Y028455D01*
X056393Y028705D01*
X055893Y027579D01*
X055893Y026831D02*
X056393Y025705D01*
X057393Y025705D01*
X058393Y025705D01*
X059393Y025705D01*
X059831Y027268D02*
X060393Y028705D01*
X061518Y029330D02*
X062393Y028705D01*
X061518Y029330D02*
X058893Y029330D01*
X058393Y028705D01*
X060268Y030580D02*
X060643Y031080D01*
X062518Y031205D02*
X063268Y030580D01*
X060268Y034205D02*
X059518Y033455D01*
X060268Y034205D02*
X060268Y034580D01*
X063018Y039830D02*
X062768Y040080D01*
X063768Y042205D02*
X062768Y043080D01*
X063768Y042205D02*
X064643Y042205D01*
X065206Y042768D01*
X065206Y044270D01*
X065768Y044831D02*
X066018Y045081D01*
X066018Y047080D01*
X064893Y048205D01*
X064893Y048955D01*
X064893Y049955D02*
X075518Y049955D01*
X078393Y047080D01*
X072518Y042140D02*
X072018Y042580D01*
X070519Y042579D01*
X069393Y042579D01*
X068018Y041831D02*
X068018Y041205D01*
X069394Y040205D02*
X069394Y038829D01*
X069268Y038455D01*
X073268Y039205D02*
X073268Y040079D01*
X073267Y040080D01*
X065206Y045390D02*
X065206Y047143D01*
X063393Y048955D01*
X062893Y048955D01*
X062643Y047830D02*
X061643Y047830D01*
X060893Y048580D01*
X060893Y048955D01*
X062643Y047830D02*
X062955Y047519D01*
X062955Y047018D01*
X063956Y047018D01*
X064268Y046955D01*
X063268Y046080D02*
X063268Y045706D01*
X063394Y045705D01*
X063268Y046080D02*
X063018Y046330D01*
X062018Y046330D01*
X062207Y047018D02*
X061706Y047018D01*
X061268Y046580D01*
X064142Y045705D02*
X064891Y045705D01*
X065206Y045390D01*
X051518Y037580D02*
X051268Y037580D01*
X072893Y026455D02*
X073018Y026080D01*
X074143Y026080D01*
X074143Y027080D02*
X075334Y027080D01*
X073518Y023580D02*
X073268Y023330D01*
X073268Y020830D01*
X073518Y020580D01*
X073393Y017580D02*
X073268Y017580D01*
X073893Y017080D02*
X074143Y017080D01*
X074143Y016080D02*
X076143Y016080D01*
X076144Y016081D01*
X076143Y016080D02*
X076268Y016080D01*
X078143Y016080D01*
X072018Y014455D02*
X071018Y015954D01*
X066892Y015830D01*
X066518Y012581D02*
X071268Y012455D01*
X030643Y010455D02*
X028643Y012455D01*
X028143Y012455D01*
X026893Y016455D02*
X026768Y016455D01*
D41*
X021393Y011955D02*
X019136Y011955D01*
X019136Y011572D01*
X017768Y010455D01*
X019107Y011927D02*
X019136Y011955D01*
X030566Y049075D02*
X030566Y050075D01*
X030566Y051075D01*
X030561Y051080D02*
X027393Y051080D01*
X033566Y051075D02*
X033567Y051076D01*
X036265Y051076D01*
X039265Y051076D01*
D42*
X056643Y051080D03*
X078893Y049830D03*
X036143Y032830D03*
X016893Y017830D03*
X051518Y015830D03*
X077643Y013830D03*
X016893Y049830D03*
M02*
