G75*
G70*
%OFA0B0*%
%FSLAX24Y24*%
%IPPOS*%
%LPD*%
%AMOC8*
5,1,8,0,0,1.08239X$1,22.5*
%
%ADD10C,0.0700*%
%ADD11C,0.0635*%
%ADD12C,0.0630*%
%ADD13C,0.0555*%
%ADD14C,0.0860*%
%ADD15OC8,0.0635*%
%ADD16C,0.0635*%
%ADD17C,0.0715*%
%ADD18OC8,0.0715*%
%ADD19C,0.0669*%
%ADD20C,0.1266*%
%ADD21C,0.0827*%
%ADD22C,0.0835*%
%ADD23R,0.0500X0.1000*%
%ADD24R,0.0280X0.0560*%
%ADD25C,0.0715*%
%ADD26C,0.0320*%
%ADD27C,0.0400*%
%ADD28C,0.0160*%
%ADD29C,0.0240*%
%ADD30C,0.0120*%
%ADD31C,0.1969*%
D10*
X051268Y032158D03*
X051268Y033158D03*
X050268Y033158D03*
X050268Y034158D03*
X050268Y035158D03*
X051268Y035158D03*
X051268Y034158D03*
X052268Y033158D03*
X052268Y032158D03*
X053268Y032158D03*
X053268Y033158D03*
X054268Y033158D03*
X054268Y032158D03*
X055268Y032158D03*
X055268Y033158D03*
X056268Y033158D03*
X056268Y032158D03*
X057268Y032158D03*
X057268Y033158D03*
X058268Y033158D03*
X058268Y032158D03*
X059268Y032158D03*
X059268Y033158D03*
X060268Y033158D03*
X060268Y032158D03*
X061268Y032158D03*
X061268Y033158D03*
X062268Y033158D03*
X062268Y034158D03*
X061268Y034158D03*
X061268Y035158D03*
X062268Y035158D03*
X062268Y036158D03*
X061268Y036158D03*
X061268Y037158D03*
X062268Y037158D03*
X062268Y038158D03*
X061268Y038158D03*
X061268Y039158D03*
X062268Y039158D03*
X062268Y040158D03*
X061268Y040158D03*
X061268Y041158D03*
X061268Y042158D03*
X062268Y042158D03*
X062268Y041158D03*
X062268Y043158D03*
X061268Y043158D03*
X060268Y043158D03*
X059268Y043158D03*
X058268Y043158D03*
X057268Y043158D03*
X056268Y043158D03*
X055268Y043158D03*
X054268Y043158D03*
X053268Y043158D03*
X052268Y043158D03*
X051268Y043158D03*
X050268Y043158D03*
X051268Y044158D03*
X052268Y044158D03*
X053268Y044158D03*
X054268Y044158D03*
X055268Y044158D03*
X056268Y044158D03*
X057268Y044158D03*
X058268Y044158D03*
X059268Y044158D03*
X060268Y044158D03*
X061268Y044158D03*
X051268Y042158D03*
X050268Y042158D03*
X050268Y041158D03*
X050268Y040158D03*
X051268Y040158D03*
X051268Y041158D03*
X051268Y039158D03*
X050268Y039158D03*
X050268Y038158D03*
X051268Y038158D03*
X051268Y037158D03*
X050268Y037158D03*
X050268Y036158D03*
X051268Y036158D03*
D11*
X047336Y035658D02*
X046701Y035658D01*
X046701Y036658D02*
X047336Y036658D01*
X047336Y037658D02*
X046701Y037658D01*
X046701Y038658D02*
X047336Y038658D01*
X047336Y039658D02*
X046701Y039658D01*
X046701Y040658D02*
X047336Y040658D01*
X047336Y041658D02*
X046701Y041658D01*
X046701Y042658D02*
X047336Y042658D01*
X047336Y043658D02*
X046701Y043658D01*
X046701Y044658D02*
X047336Y044658D01*
X047336Y045658D02*
X046701Y045658D01*
X046701Y046658D02*
X047336Y046658D01*
X047336Y047658D02*
X046701Y047658D01*
X041336Y047658D02*
X040701Y047658D01*
X039582Y047654D02*
X038947Y047654D01*
X038947Y048654D02*
X039582Y048654D01*
X039582Y046654D02*
X038947Y046654D01*
X038947Y045654D02*
X039582Y045654D01*
X040701Y045658D02*
X041336Y045658D01*
X041336Y046658D02*
X040701Y046658D01*
X040701Y044658D02*
X041336Y044658D01*
X041336Y043658D02*
X040701Y043658D01*
X039582Y043654D02*
X038947Y043654D01*
X038947Y044654D02*
X039582Y044654D01*
X039582Y042654D02*
X038947Y042654D01*
X038947Y041654D02*
X039582Y041654D01*
X040701Y041658D02*
X041336Y041658D01*
X041336Y042658D02*
X040701Y042658D01*
X040701Y040658D02*
X041336Y040658D01*
X041336Y039658D02*
X040701Y039658D01*
X039582Y039654D02*
X038947Y039654D01*
X038947Y040654D02*
X039582Y040654D01*
X040701Y038658D02*
X041336Y038658D01*
X041336Y037658D02*
X040701Y037658D01*
X040701Y036658D02*
X041336Y036658D01*
X041336Y035658D02*
X040701Y035658D01*
X040701Y034658D02*
X041336Y034658D01*
X046701Y034658D02*
X047336Y034658D01*
X036582Y039654D02*
X035947Y039654D01*
X035947Y040654D02*
X036582Y040654D01*
X036582Y041654D02*
X035947Y041654D01*
X035947Y042654D02*
X036582Y042654D01*
X036582Y043654D02*
X035947Y043654D01*
X035947Y044654D02*
X036582Y044654D01*
X036582Y045654D02*
X035947Y045654D01*
X035947Y046654D02*
X036582Y046654D01*
X036582Y047654D02*
X035947Y047654D01*
X035947Y048654D02*
X036582Y048654D01*
X033883Y048653D02*
X033248Y048653D01*
X033248Y047653D02*
X033883Y047653D01*
X033883Y046653D02*
X033248Y046653D01*
X033248Y045653D02*
X033883Y045653D01*
X033883Y044653D02*
X033248Y044653D01*
X033248Y043653D02*
X033883Y043653D01*
X033883Y042653D02*
X033248Y042653D01*
X033248Y041653D02*
X033883Y041653D01*
X033883Y040653D02*
X033248Y040653D01*
X033248Y039653D02*
X033883Y039653D01*
X030883Y039653D02*
X030248Y039653D01*
X030248Y040653D02*
X030883Y040653D01*
X030883Y041653D02*
X030248Y041653D01*
X030248Y042653D02*
X030883Y042653D01*
X030883Y043653D02*
X030248Y043653D01*
X030248Y044653D02*
X030883Y044653D01*
X030883Y045653D02*
X030248Y045653D01*
X030248Y046653D02*
X030883Y046653D01*
X030883Y047653D02*
X030248Y047653D01*
X030248Y048653D02*
X030883Y048653D01*
X027711Y048658D02*
X027076Y048658D01*
X027076Y047658D02*
X027711Y047658D01*
X027711Y046658D02*
X027076Y046658D01*
X027076Y045658D02*
X027711Y045658D01*
X027711Y044658D02*
X027076Y044658D01*
X027076Y043658D02*
X027711Y043658D01*
X027711Y042658D02*
X027076Y042658D01*
X027076Y041658D02*
X027711Y041658D01*
X027711Y040658D02*
X027076Y040658D01*
X027076Y039658D02*
X027711Y039658D01*
X027711Y038658D02*
X027076Y038658D01*
X027076Y037658D02*
X027711Y037658D01*
X027711Y036658D02*
X027076Y036658D01*
X027076Y035658D02*
X027711Y035658D01*
X027711Y034658D02*
X027076Y034658D01*
X027076Y033658D02*
X027711Y033658D01*
X028147Y031165D02*
X028147Y030530D01*
X027147Y030530D02*
X027147Y031165D01*
X026147Y031165D02*
X026147Y030530D01*
X025147Y030530D02*
X025147Y031165D01*
X024147Y031165D02*
X024147Y030530D01*
X023147Y030530D02*
X023147Y031165D01*
X022147Y031165D02*
X022147Y030530D01*
X021147Y030530D02*
X021147Y031165D01*
X020147Y031165D02*
X020147Y030530D01*
X020147Y028165D02*
X020147Y027530D01*
X021147Y027530D02*
X021147Y028165D01*
X022147Y028165D02*
X022147Y027530D01*
X023147Y027530D02*
X023147Y028165D01*
X024147Y028165D02*
X024147Y027530D01*
X025147Y027530D02*
X025147Y028165D01*
X026147Y028165D02*
X026147Y027530D01*
X027147Y027530D02*
X027147Y028165D01*
X028147Y028165D02*
X028147Y027530D01*
X029147Y027530D02*
X029147Y028165D01*
X029147Y030530D02*
X029147Y031165D01*
X021711Y033658D02*
X021076Y033658D01*
X021076Y034658D02*
X021711Y034658D01*
X021711Y035658D02*
X021076Y035658D01*
X021076Y036658D02*
X021711Y036658D01*
X021711Y037658D02*
X021076Y037658D01*
X021076Y038658D02*
X021711Y038658D01*
X021711Y039658D02*
X021076Y039658D01*
X021076Y040658D02*
X021711Y040658D01*
X021711Y041658D02*
X021076Y041658D01*
X021076Y042658D02*
X021711Y042658D01*
X021711Y043658D02*
X021076Y043658D01*
X021076Y044658D02*
X021711Y044658D01*
X021711Y045658D02*
X021076Y045658D01*
X021076Y046658D02*
X021711Y046658D01*
X021711Y047658D02*
X021076Y047658D01*
X021076Y048658D02*
X021711Y048658D01*
X030951Y026533D02*
X031586Y026533D01*
X031586Y025533D02*
X030951Y025533D01*
X030951Y024533D02*
X031586Y024533D01*
X031586Y023533D02*
X030951Y023533D01*
X030951Y022533D02*
X031586Y022533D01*
X031586Y021533D02*
X030951Y021533D01*
X030951Y020533D02*
X031586Y020533D01*
X031586Y019533D02*
X030951Y019533D01*
X030951Y018533D02*
X031586Y018533D01*
X031586Y017533D02*
X030951Y017533D01*
X030951Y016533D02*
X031586Y016533D01*
X031586Y015533D02*
X030951Y015533D01*
X030951Y014533D02*
X031586Y014533D01*
X031586Y013533D02*
X030951Y013533D01*
X030951Y012533D02*
X031586Y012533D01*
X031586Y011533D02*
X030951Y011533D01*
X030951Y010533D02*
X031586Y010533D01*
X031586Y009533D02*
X030951Y009533D01*
X030951Y008533D02*
X031586Y008533D01*
X031586Y007533D02*
X030951Y007533D01*
X027711Y007533D02*
X027076Y007533D01*
X027076Y008533D02*
X027711Y008533D01*
X027711Y009533D02*
X027076Y009533D01*
X027076Y010533D02*
X027711Y010533D01*
X027711Y011533D02*
X027076Y011533D01*
X027076Y012533D02*
X027711Y012533D01*
X027711Y013533D02*
X027076Y013533D01*
X027076Y014533D02*
X027711Y014533D01*
X027711Y015533D02*
X027076Y015533D01*
X027076Y016533D02*
X027711Y016533D01*
X027711Y017533D02*
X027076Y017533D01*
X027076Y018533D02*
X027711Y018533D01*
X027711Y019533D02*
X027076Y019533D01*
X027076Y020533D02*
X027711Y020533D01*
X027711Y021533D02*
X027076Y021533D01*
X027076Y022533D02*
X027711Y022533D01*
X021711Y022533D02*
X021076Y022533D01*
X021076Y021533D02*
X021711Y021533D01*
X021711Y020533D02*
X021076Y020533D01*
X021076Y019533D02*
X021711Y019533D01*
X021711Y018533D02*
X021076Y018533D01*
X021076Y017533D02*
X021711Y017533D01*
X021711Y016533D02*
X021076Y016533D01*
X021076Y015533D02*
X021711Y015533D01*
X021711Y014533D02*
X021076Y014533D01*
X021076Y013533D02*
X021711Y013533D01*
X021711Y012533D02*
X021076Y012533D01*
X021076Y011533D02*
X021711Y011533D01*
X021711Y010533D02*
X021076Y010533D01*
X021076Y009533D02*
X021711Y009533D01*
X021711Y008533D02*
X021076Y008533D01*
X021076Y007533D02*
X021711Y007533D01*
X036951Y007533D02*
X037586Y007533D01*
X037586Y008533D02*
X036951Y008533D01*
X036951Y009533D02*
X037586Y009533D01*
X037586Y010533D02*
X036951Y010533D01*
X036951Y011533D02*
X037586Y011533D01*
X037586Y012533D02*
X036951Y012533D01*
X036951Y013533D02*
X037586Y013533D01*
X037586Y014533D02*
X036951Y014533D01*
X036951Y015533D02*
X037586Y015533D01*
X037586Y016533D02*
X036951Y016533D01*
X036951Y017533D02*
X037586Y017533D01*
X037586Y018533D02*
X036951Y018533D01*
X036951Y019533D02*
X037586Y019533D01*
X037586Y020533D02*
X036951Y020533D01*
X036951Y021533D02*
X037586Y021533D01*
X037586Y022533D02*
X036951Y022533D01*
X036951Y023533D02*
X037586Y023533D01*
X037586Y024533D02*
X036951Y024533D01*
X036951Y025533D02*
X037586Y025533D01*
X037586Y026533D02*
X036951Y026533D01*
X041326Y026533D02*
X041961Y026533D01*
X041961Y025533D02*
X041326Y025533D01*
X041326Y024533D02*
X041961Y024533D01*
X041961Y023533D02*
X041326Y023533D01*
X041326Y022533D02*
X041961Y022533D01*
X041961Y021533D02*
X041326Y021533D01*
X041326Y020533D02*
X041961Y020533D01*
X041961Y019533D02*
X041326Y019533D01*
X041326Y018533D02*
X041961Y018533D01*
X041961Y017533D02*
X041326Y017533D01*
X041326Y016533D02*
X041961Y016533D01*
X041961Y015533D02*
X041326Y015533D01*
X041326Y014533D02*
X041961Y014533D01*
X041961Y013533D02*
X041326Y013533D01*
X041326Y012533D02*
X041961Y012533D01*
X041961Y011533D02*
X041326Y011533D01*
X041326Y010533D02*
X041961Y010533D01*
X041961Y009533D02*
X041326Y009533D01*
X041326Y008533D02*
X041961Y008533D01*
X041961Y007533D02*
X041326Y007533D01*
X047326Y007533D02*
X047961Y007533D01*
X047961Y008533D02*
X047326Y008533D01*
X047326Y009533D02*
X047961Y009533D01*
X047961Y010533D02*
X047326Y010533D01*
X047326Y011533D02*
X047961Y011533D01*
X047961Y012533D02*
X047326Y012533D01*
X047326Y013533D02*
X047961Y013533D01*
X047961Y014533D02*
X047326Y014533D01*
X047326Y015533D02*
X047961Y015533D01*
X047961Y016533D02*
X047326Y016533D01*
X047326Y017533D02*
X047961Y017533D01*
X047961Y018533D02*
X047326Y018533D01*
X047326Y019533D02*
X047961Y019533D01*
X047961Y020533D02*
X047326Y020533D01*
X047326Y021533D02*
X047961Y021533D01*
X047961Y022533D02*
X047326Y022533D01*
X047326Y023533D02*
X047961Y023533D01*
X047961Y024533D02*
X047326Y024533D01*
X047326Y025533D02*
X047961Y025533D01*
X047961Y026533D02*
X047326Y026533D01*
X051393Y022851D02*
X051393Y022216D01*
X052393Y022216D02*
X052393Y022851D01*
X053393Y022851D02*
X053393Y022216D01*
X054393Y022216D02*
X054393Y022851D01*
X055393Y022851D02*
X055393Y022216D01*
X056393Y022216D02*
X056393Y022851D01*
X057393Y022851D02*
X057393Y022216D01*
X058393Y022216D02*
X058393Y022851D01*
X059393Y022851D02*
X059393Y022216D01*
X060393Y022216D02*
X060393Y022851D01*
X061393Y022851D02*
X061393Y022216D01*
X062393Y022216D02*
X062393Y022851D01*
X063393Y022851D02*
X063393Y022216D01*
X064393Y022216D02*
X064393Y022851D01*
X065393Y022851D02*
X065393Y022216D01*
X066393Y022216D02*
X066393Y022851D01*
X067393Y022851D02*
X067393Y022216D01*
X068393Y022216D02*
X068393Y022851D01*
X069393Y022851D02*
X069393Y022216D01*
X070393Y022216D02*
X070393Y022851D01*
X079701Y022658D02*
X080336Y022658D01*
X080336Y021658D02*
X079701Y021658D01*
X079701Y020658D02*
X080336Y020658D01*
X080336Y019658D02*
X079701Y019658D01*
X079701Y018658D02*
X080336Y018658D01*
X080336Y017658D02*
X079701Y017658D01*
X079701Y016658D02*
X080336Y016658D01*
X080336Y015658D02*
X079701Y015658D01*
X079701Y014658D02*
X080336Y014658D01*
X080336Y013658D02*
X079701Y013658D01*
X079701Y012658D02*
X080336Y012658D01*
X080336Y011658D02*
X079701Y011658D01*
X083701Y011658D02*
X084336Y011658D01*
X084336Y012658D02*
X083701Y012658D01*
X083701Y013658D02*
X084336Y013658D01*
X084336Y014658D02*
X083701Y014658D01*
X083701Y015658D02*
X084336Y015658D01*
X084336Y016658D02*
X083701Y016658D01*
X083701Y017658D02*
X084336Y017658D01*
X084336Y018658D02*
X083701Y018658D01*
X083701Y019658D02*
X084336Y019658D01*
X084336Y020658D02*
X083701Y020658D01*
X083701Y021658D02*
X084336Y021658D01*
X084336Y022658D02*
X083701Y022658D01*
X090451Y028533D02*
X091086Y028533D01*
X091086Y029533D02*
X090451Y029533D01*
X090451Y030533D02*
X091086Y030533D01*
X091086Y031533D02*
X090451Y031533D01*
X090451Y032533D02*
X091086Y032533D01*
X091086Y033533D02*
X090451Y033533D01*
X090451Y034533D02*
X091086Y034533D01*
X093451Y034533D02*
X094086Y034533D01*
X094086Y033533D02*
X093451Y033533D01*
X093451Y032533D02*
X094086Y032533D01*
X094086Y031533D02*
X093451Y031533D01*
X093451Y030533D02*
X094086Y030533D01*
X094086Y029533D02*
X093451Y029533D01*
X093451Y028533D02*
X094086Y028533D01*
X101518Y028466D02*
X101518Y029101D01*
X102518Y029101D02*
X102518Y028466D01*
X103518Y028466D02*
X103518Y029101D01*
X104518Y029101D02*
X104518Y028466D01*
X105518Y028466D02*
X105518Y029101D01*
X106518Y029101D02*
X106518Y028466D01*
X107518Y028466D02*
X107518Y029101D01*
X107518Y026101D02*
X107518Y025466D01*
X106518Y025466D02*
X106518Y026101D01*
X105518Y026101D02*
X105518Y025466D01*
X104518Y025466D02*
X104518Y026101D01*
X103518Y026101D02*
X103518Y025466D01*
X102518Y025466D02*
X102518Y026101D01*
X101518Y026101D02*
X101518Y025466D01*
X070393Y016851D02*
X070393Y016216D01*
X069393Y016216D02*
X069393Y016851D01*
X068393Y016851D02*
X068393Y016216D01*
X067393Y016216D02*
X067393Y016851D01*
X066393Y016851D02*
X066393Y016216D01*
X065393Y016216D02*
X065393Y016851D01*
X064393Y016851D02*
X064393Y016216D01*
X063393Y016216D02*
X063393Y016851D01*
X062393Y016851D02*
X062393Y016216D01*
X061393Y016216D02*
X061393Y016851D01*
X060393Y016851D02*
X060393Y016216D01*
X059393Y016216D02*
X059393Y016851D01*
X058393Y016851D02*
X058393Y016216D01*
X057393Y016216D02*
X057393Y016851D01*
X056393Y016851D02*
X056393Y016216D01*
X055393Y016216D02*
X055393Y016851D01*
X054393Y016851D02*
X054393Y016216D01*
X053393Y016216D02*
X053393Y016851D01*
X052393Y016851D02*
X052393Y016216D01*
X051393Y016216D02*
X051393Y016851D01*
X066451Y034033D02*
X067086Y034033D01*
X067086Y035033D02*
X066451Y035033D01*
X066451Y036033D02*
X067086Y036033D01*
D12*
X044333Y035658D02*
X043704Y035658D01*
X043704Y036658D02*
X044333Y036658D01*
X044333Y037658D02*
X043704Y037658D01*
X043704Y038658D02*
X044333Y038658D01*
X044333Y039658D02*
X043704Y039658D01*
X043704Y040658D02*
X044333Y040658D01*
X044333Y041658D02*
X043704Y041658D01*
X043704Y042658D02*
X044333Y042658D01*
X044333Y043658D02*
X043704Y043658D01*
X043704Y044658D02*
X044333Y044658D01*
X044333Y045658D02*
X043704Y045658D01*
X043704Y046658D02*
X044333Y046658D01*
X044333Y047658D02*
X043704Y047658D01*
X043704Y034658D02*
X044333Y034658D01*
D13*
X088866Y031908D02*
X089421Y031908D01*
X089421Y029908D02*
X088866Y029908D01*
X094741Y030783D02*
X095296Y030783D01*
X095296Y028783D02*
X094741Y028783D01*
D14*
X074768Y035283D03*
X073143Y035283D03*
X072018Y035283D03*
X070268Y035033D03*
X069268Y035408D03*
X069268Y034408D03*
X068768Y033408D03*
X064018Y035033D03*
X064018Y039033D03*
X065143Y038908D03*
X064268Y040533D03*
X064268Y044533D03*
X055831Y042283D03*
X056268Y039096D03*
X052893Y039033D03*
X044268Y031033D03*
X041268Y030033D03*
X038268Y032533D03*
X036268Y033783D03*
X034643Y031158D03*
X031643Y027783D03*
X034143Y026658D03*
X033393Y025783D03*
X035081Y022533D03*
X038643Y022658D03*
X039768Y026158D03*
X039143Y027783D03*
X041768Y027533D03*
X043018Y027408D03*
X045643Y027283D03*
X051268Y029033D03*
X053393Y026783D03*
X052393Y026408D03*
X055143Y028783D03*
X056268Y028783D03*
X057393Y028783D03*
X058768Y030033D03*
X060268Y030033D03*
X062268Y029283D03*
X062268Y027908D03*
X061268Y027908D03*
X060268Y027908D03*
X063143Y030783D03*
X045143Y019908D03*
X044643Y019033D03*
X045018Y016033D03*
X039268Y014908D03*
X034768Y013658D03*
X033518Y013033D03*
X032768Y012408D03*
X035643Y011783D03*
X033518Y009658D03*
X039393Y008658D03*
X039893Y010033D03*
X033393Y014908D03*
X035081Y018533D03*
X038643Y019033D03*
X025143Y012533D03*
X024768Y009533D03*
X016393Y011783D03*
X020268Y016033D03*
X019518Y017658D03*
X016518Y020033D03*
X016768Y022408D03*
X018893Y024158D03*
X019768Y022658D03*
X019143Y035283D03*
X033143Y036658D03*
X024393Y047033D03*
X047643Y048783D03*
D15*
X071268Y033783D03*
X087643Y020283D03*
X087643Y017783D03*
X087643Y015658D03*
X085643Y011283D03*
X087643Y010158D03*
X060893Y014658D03*
X058018Y014658D03*
D16*
X057018Y014658D03*
X059893Y014658D03*
X085643Y012283D03*
X086643Y010158D03*
X086643Y015658D03*
X086643Y017783D03*
X086643Y020283D03*
X072268Y033783D03*
X083318Y039908D03*
X085218Y039908D03*
D17*
X074518Y031908D03*
D18*
X073518Y031908D03*
X073518Y032908D03*
X073518Y033908D03*
X074518Y033908D03*
X074518Y032908D03*
X066143Y032783D03*
X065143Y032783D03*
X065143Y031783D03*
X065143Y030783D03*
X066143Y030783D03*
X066143Y031783D03*
X066143Y029783D03*
X065143Y029783D03*
X065143Y028783D03*
X066143Y028783D03*
D19*
X019107Y010489D03*
X019107Y009505D03*
X018280Y009505D03*
X017257Y009505D03*
X016430Y009505D03*
X016430Y010489D03*
D20*
X017768Y008009D03*
D21*
X058893Y046533D03*
X058893Y047533D03*
X058893Y048533D03*
X060893Y048533D03*
X060893Y047533D03*
X060893Y046533D03*
X062893Y046533D03*
X062893Y047533D03*
X062893Y048533D03*
X064893Y048533D03*
X064893Y047533D03*
X064893Y046533D03*
D22*
X064268Y012576D02*
X064268Y011741D01*
X062768Y011741D02*
X062768Y012576D01*
X061268Y012576D02*
X061268Y011741D01*
X059768Y011741D02*
X059768Y012576D01*
X058268Y012576D02*
X058268Y011741D01*
X056768Y011741D02*
X056768Y012576D01*
X055268Y012576D02*
X055268Y011741D01*
X054518Y010576D02*
X054518Y009741D01*
X056018Y009741D02*
X056018Y010576D01*
X057518Y010576D02*
X057518Y009741D01*
X059018Y009741D02*
X059018Y010576D01*
X060518Y010576D02*
X060518Y009741D01*
X062018Y009741D02*
X062018Y010576D01*
X063518Y010576D02*
X063518Y009741D01*
X065018Y009741D02*
X065018Y010576D01*
X066518Y010576D02*
X066518Y009741D01*
X068018Y009741D02*
X068018Y010576D01*
X067268Y011741D02*
X067268Y012576D01*
X068768Y012576D02*
X068768Y011741D01*
X065768Y011741D02*
X065768Y012576D01*
X053768Y012576D02*
X053768Y011741D01*
D23*
X066093Y037658D03*
X065393Y043158D03*
X076093Y043158D03*
X076093Y037658D03*
D24*
X075593Y036858D03*
X075093Y036858D03*
X074593Y036858D03*
X073993Y036858D03*
X072993Y036858D03*
X071993Y036858D03*
X070993Y036858D03*
X069993Y036858D03*
X068993Y036858D03*
X067993Y036858D03*
X066993Y036858D03*
D25*
X083268Y024641D02*
X083268Y023926D01*
X084268Y023926D02*
X084268Y024641D01*
X085268Y024641D02*
X085268Y023926D01*
X085393Y014016D02*
X085393Y013301D01*
X086393Y013301D02*
X086393Y014016D01*
X087393Y014016D02*
X087393Y013301D01*
D26*
X016643Y006658D02*
X015393Y007908D01*
X015393Y011783D01*
X016393Y011783D01*
X015393Y011783D02*
X015393Y043283D01*
X020768Y048658D01*
X020518Y040158D02*
X020143Y040158D01*
X019643Y039658D01*
X018268Y038283D01*
X018268Y032726D01*
X020147Y030847D01*
X020268Y033658D02*
X019143Y034783D01*
X019143Y035283D01*
X020268Y033658D02*
X021393Y033658D01*
X029147Y027847D02*
X029832Y027847D01*
X031518Y029533D01*
X031518Y033658D01*
X031143Y034033D01*
X031143Y038283D01*
X030518Y038908D01*
X030518Y039606D01*
X030566Y039653D01*
X036265Y039654D02*
X036265Y034658D01*
X036268Y033783D01*
X029147Y027847D02*
X029397Y026787D01*
X029393Y022533D01*
X029393Y018533D01*
X029393Y012283D01*
X021393Y007533D02*
X020018Y006658D01*
X016643Y006658D01*
X029393Y018533D02*
X031268Y018533D01*
X029393Y022533D02*
X027393Y022533D01*
X047643Y017533D02*
X048643Y017533D01*
X048768Y017533D01*
X049768Y016533D01*
X051393Y016533D01*
X076093Y037658D02*
X076093Y038033D01*
X076093Y043158D01*
D27*
X072893Y043158D01*
X070143Y043158D01*
X065393Y043158D01*
X062268Y043158D01*
X065393Y043158D02*
X065932Y038929D01*
X066093Y037658D01*
X065911Y038908D02*
X065143Y038908D01*
X056268Y044158D02*
X055643Y045158D01*
X051268Y045158D01*
X050518Y045158D01*
X048018Y047658D01*
X047018Y047658D01*
X045772Y048654D01*
X039265Y048654D01*
X033566Y048653D02*
X030566Y048653D01*
X027393Y046658D02*
X026143Y046658D01*
X024143Y048658D01*
X022768Y048658D01*
X020768Y048658D01*
X022768Y048658D02*
X022768Y040408D01*
X022518Y040158D01*
X051268Y044158D02*
X051268Y045158D01*
D28*
X052331Y042471D02*
X055018Y042471D01*
X055831Y042283D01*
X056206Y041533D02*
X053268Y041533D01*
X052893Y041158D01*
X052893Y039033D01*
X051893Y041783D02*
X051893Y042033D01*
X052331Y042471D01*
X056206Y041533D02*
X056768Y042096D01*
X056768Y042721D01*
X057768Y042783D02*
X057768Y041783D01*
X056268Y040283D01*
X056268Y039096D01*
X059518Y038408D02*
X060018Y039158D01*
X060018Y041658D01*
X058768Y042533D01*
X058768Y042783D01*
X059393Y042783D02*
X059268Y043158D01*
X059393Y042783D02*
X059643Y042533D01*
X060143Y042408D01*
X060518Y042033D01*
X060518Y040908D01*
X060768Y040658D01*
X062268Y039158D02*
X062393Y039158D01*
X063518Y038033D01*
X063518Y036658D01*
X064768Y035408D01*
X064768Y034658D01*
X063643Y033533D01*
X063643Y032408D01*
X062268Y031033D01*
X062268Y030533D01*
X063018Y029783D01*
X063018Y027658D01*
X062393Y027033D01*
X061393Y027033D01*
X060893Y026533D01*
X053268Y026533D01*
X053393Y026783D01*
X054143Y027033D02*
X060393Y027033D01*
X061268Y027908D01*
X061643Y028658D02*
X060143Y028658D01*
X059643Y028408D01*
X059018Y028408D01*
X058643Y028033D01*
X054768Y028033D01*
X054268Y028533D01*
X054268Y032158D01*
X053268Y032158D02*
X053268Y028658D01*
X054393Y027533D01*
X059893Y027533D01*
X060268Y027908D01*
X059393Y028783D02*
X060393Y029283D01*
X062268Y029283D01*
X061643Y028658D02*
X062143Y028283D01*
X062268Y027908D01*
X063518Y027408D02*
X063518Y030408D01*
X063143Y030783D01*
X061268Y031033D02*
X063018Y032783D01*
X063018Y035408D01*
X062768Y035658D01*
X063018Y036033D02*
X063018Y037658D01*
X062518Y038158D01*
X062268Y038158D01*
X065393Y037658D02*
X066093Y037658D01*
X065393Y037658D02*
X065393Y036033D01*
X066768Y036033D01*
X065393Y036033D02*
X065393Y033658D01*
X066143Y032783D01*
X067518Y032158D01*
X068018Y031658D01*
X067393Y029908D01*
X066643Y029158D01*
X066143Y028783D01*
X066143Y028033D02*
X067268Y029158D01*
X067893Y029658D01*
X068518Y032908D01*
X068768Y033408D01*
X069018Y032408D02*
X069643Y032783D01*
X070018Y031783D01*
X071143Y031658D01*
X071893Y032658D01*
X072643Y032658D01*
X073393Y032908D01*
X073518Y032908D01*
X073518Y033908D02*
X072518Y033158D01*
X071643Y033158D01*
X071268Y033783D01*
X070268Y036158D01*
X069993Y036858D01*
X069993Y037908D01*
X072993Y037908D01*
X076093Y037908D01*
X076093Y038033D01*
X076093Y037658D02*
X076143Y037608D01*
X073993Y036858D02*
X074618Y035308D01*
X074768Y035283D01*
X074518Y033908D02*
X077393Y031908D01*
X072018Y030408D01*
X071393Y029283D01*
X069893Y027783D01*
X068268Y026408D01*
X066768Y025408D01*
X065893Y025658D01*
X062768Y023533D01*
X051393Y023533D01*
X049893Y025033D01*
X049893Y025783D01*
X048393Y027283D01*
X046893Y027283D01*
X046643Y027033D01*
X046643Y022408D01*
X043893Y019658D01*
X043893Y018783D01*
X044393Y018283D01*
X044643Y018283D01*
X046268Y016658D01*
X046268Y015408D01*
X045893Y015033D01*
X044268Y015033D01*
X043643Y015658D01*
X043643Y016408D01*
X042518Y017533D01*
X042518Y017783D01*
X042268Y018283D01*
X042018Y018533D01*
X041643Y018533D01*
X041643Y019533D02*
X042268Y019533D01*
X042643Y019158D01*
X042643Y018533D01*
X043018Y017658D01*
X044143Y016533D01*
X044143Y015783D01*
X044518Y015408D01*
X045518Y015408D01*
X045768Y015658D01*
X045768Y016533D01*
X044393Y017908D01*
X044143Y017908D01*
X043518Y018533D01*
X043518Y020033D01*
X046268Y022783D01*
X046268Y027283D01*
X046768Y027783D01*
X048643Y027783D01*
X050393Y026033D01*
X050393Y025283D01*
X051643Y024033D01*
X062643Y024033D01*
X065518Y026908D01*
X066893Y026158D01*
X069893Y030658D01*
X074643Y031658D01*
X076018Y032158D01*
X074518Y032908D01*
X074518Y031908D02*
X074768Y031408D01*
X070643Y031283D01*
X069268Y031283D01*
X068643Y029408D01*
X067393Y028033D01*
X066768Y027408D01*
X065018Y027033D01*
X062518Y024533D01*
X051768Y024533D01*
X050893Y025408D01*
X050893Y026158D01*
X048768Y028283D01*
X045393Y028283D01*
X044893Y027783D01*
X044893Y023283D01*
X042143Y020533D01*
X041643Y020533D01*
X041643Y021533D02*
X042268Y021533D01*
X044268Y023533D01*
X044268Y028158D01*
X044893Y028783D01*
X049018Y028783D01*
X051393Y026408D01*
X051393Y025658D01*
X052018Y025033D01*
X062018Y025033D01*
X065768Y027658D01*
X067018Y028283D01*
X068393Y029408D01*
X069018Y032408D01*
X069643Y032783D02*
X070143Y033783D01*
X070268Y035033D01*
X069268Y035408D02*
X068993Y036433D01*
X068993Y036858D01*
X067993Y036858D02*
X068618Y035058D01*
X069268Y034408D01*
X067768Y034033D01*
X066768Y034033D01*
X064018Y035033D02*
X063018Y036033D01*
X065911Y038908D02*
X065932Y038929D01*
X070993Y036858D02*
X070993Y036308D01*
X072018Y035283D01*
X071893Y034533D01*
X072268Y033783D01*
X073143Y035283D02*
X071993Y036433D01*
X071993Y036858D01*
X072993Y036858D02*
X072993Y037908D01*
X078893Y038408D02*
X079643Y034533D01*
X080143Y023908D01*
X070018Y018783D01*
X067393Y017658D02*
X051393Y017658D01*
X051393Y016533D01*
X049768Y018158D02*
X048393Y019533D01*
X047643Y019533D01*
X046643Y019533D01*
X046143Y019033D01*
X044643Y019033D01*
X045143Y019908D02*
X046018Y019908D01*
X046643Y020533D01*
X047643Y020533D01*
X048268Y020533D01*
X050143Y018658D01*
X058018Y018658D01*
X060393Y021033D01*
X060393Y022533D01*
X059393Y022533D02*
X059393Y020783D01*
X057768Y019158D01*
X050518Y019158D01*
X048143Y021533D01*
X047643Y021533D01*
X047643Y022533D02*
X048018Y022533D01*
X050518Y019658D01*
X057518Y019658D01*
X058393Y020533D01*
X058393Y022533D01*
X057393Y022533D02*
X057393Y020408D01*
X057143Y020158D01*
X050643Y020158D01*
X047893Y023533D01*
X047643Y023533D01*
X048643Y023533D02*
X048643Y023908D01*
X048018Y024533D01*
X047643Y024533D01*
X047643Y025533D02*
X048018Y025533D01*
X049143Y024408D01*
X049143Y023658D01*
X050893Y021158D01*
X054893Y021158D01*
X055393Y021658D01*
X055393Y022533D01*
X054393Y022533D02*
X054393Y021908D01*
X054143Y021658D01*
X051018Y021658D01*
X049643Y023783D01*
X049643Y024658D01*
X048643Y025658D01*
X048643Y026158D01*
X048268Y026533D01*
X047643Y026533D01*
X045643Y027283D02*
X045643Y023158D01*
X043143Y020658D01*
X043143Y018283D01*
X045018Y016408D01*
X045018Y016033D01*
X046643Y016283D02*
X046643Y015158D01*
X046018Y014533D01*
X044018Y014533D01*
X043143Y015408D01*
X043143Y016283D01*
X041893Y017533D01*
X041643Y017533D01*
X041643Y016533D02*
X042018Y016533D01*
X042643Y015908D01*
X042643Y015158D01*
X043768Y014033D01*
X046643Y014033D01*
X046643Y013158D01*
X046768Y013033D01*
X047018Y013033D01*
X047018Y014033D02*
X046643Y014033D01*
X048268Y014033D02*
X048643Y014033D01*
X048643Y013283D01*
X048393Y013033D01*
X048268Y013033D01*
X048643Y014033D02*
X048643Y017533D01*
X047643Y016533D02*
X046893Y016533D01*
X046643Y016283D01*
X049768Y018158D02*
X058393Y018158D01*
X061393Y021158D01*
X061393Y022533D01*
X062268Y025533D02*
X064018Y027283D01*
X066143Y028033D01*
X063518Y027408D02*
X062643Y026533D01*
X061643Y026533D01*
X061143Y026033D01*
X052768Y026033D01*
X052393Y026408D01*
X051768Y026658D02*
X051768Y026033D01*
X052268Y025533D01*
X062268Y025533D01*
X059393Y028783D02*
X057393Y028783D01*
X057393Y029408D01*
X056268Y030533D01*
X056268Y032158D01*
X055268Y032158D02*
X055143Y031658D01*
X055143Y028783D01*
X055768Y029283D02*
X056268Y028783D01*
X055768Y029283D02*
X055768Y031283D01*
X057768Y031283D02*
X057768Y029783D01*
X058268Y029283D01*
X059518Y029283D01*
X060268Y030033D01*
X059768Y031033D02*
X058768Y030033D01*
X059768Y031033D02*
X061268Y031033D01*
X054143Y027033D02*
X052768Y028408D01*
X052768Y031283D01*
X052268Y032158D02*
X052268Y030033D01*
X051268Y029033D01*
X049143Y029283D02*
X051768Y026658D01*
X049143Y029283D02*
X044393Y029283D01*
X043768Y028658D01*
X043768Y023783D01*
X042518Y022533D01*
X041643Y022533D01*
X041018Y023033D02*
X040706Y022721D01*
X040706Y014846D01*
X041018Y014533D01*
X041643Y014533D01*
X039956Y014533D02*
X039768Y014346D01*
X039768Y010158D01*
X039893Y010033D01*
X039268Y010533D02*
X039018Y010283D01*
X039018Y009033D01*
X039393Y008658D01*
X038768Y007908D02*
X038268Y008408D01*
X038268Y008783D01*
X038018Y009033D01*
X037268Y008533D02*
X035768Y008408D01*
X033643Y010533D01*
X032393Y010533D01*
X031893Y010033D01*
X031268Y009533D02*
X030768Y009533D01*
X030018Y008283D01*
X030018Y006908D01*
X030518Y006408D01*
X044018Y006408D01*
X046143Y008533D01*
X047643Y008533D01*
X047643Y009533D02*
X045893Y009533D01*
X043268Y006908D01*
X030643Y006908D01*
X030393Y007158D01*
X030393Y008033D01*
X030893Y008533D01*
X031268Y008533D01*
X031268Y007533D02*
X031393Y007408D01*
X033518Y007408D01*
X033518Y009658D01*
X033893Y011033D02*
X032018Y011033D01*
X032518Y011533D02*
X032018Y012033D01*
X031893Y012033D01*
X032518Y011533D02*
X034143Y011533D01*
X035643Y010033D01*
X036643Y010033D01*
X037018Y010533D02*
X037268Y010533D01*
X036643Y011033D02*
X035268Y011033D01*
X034393Y011908D01*
X034393Y013033D01*
X034018Y013533D01*
X034018Y013908D01*
X034518Y014408D01*
X034518Y016908D01*
X033956Y017471D01*
X033956Y023596D01*
X034893Y024533D01*
X034893Y027033D01*
X033393Y028533D01*
X033393Y036408D01*
X033143Y036658D01*
X032268Y036158D02*
X032768Y035658D01*
X032768Y026658D01*
X032643Y026533D01*
X032643Y014533D01*
X032768Y014408D01*
X032768Y012408D01*
X033518Y013033D02*
X033518Y014033D01*
X034143Y014658D01*
X034143Y016033D01*
X033518Y016658D01*
X033518Y024033D01*
X034143Y024658D01*
X034143Y026658D01*
X035268Y027533D02*
X033893Y028908D01*
X033893Y032283D01*
X034393Y032783D01*
X036518Y032783D01*
X037518Y033783D01*
X037518Y043158D01*
X037022Y043654D01*
X036265Y043654D01*
X036265Y042654D02*
X035758Y042654D01*
X035262Y042158D01*
X032643Y042158D01*
X032268Y041783D01*
X032268Y036158D01*
X031768Y035783D02*
X031768Y044283D01*
X031393Y044658D01*
X030571Y044658D01*
X030566Y044653D01*
X028393Y044408D02*
X028393Y033283D01*
X028018Y032908D02*
X027143Y032908D01*
X026643Y032408D01*
X026643Y031408D01*
X025643Y031408D02*
X025643Y034658D01*
X026643Y035658D01*
X027393Y035658D01*
X027393Y036658D02*
X026643Y036658D01*
X024643Y034658D01*
X024643Y031408D01*
X023893Y032033D02*
X023893Y034908D01*
X026643Y037658D01*
X027393Y037658D01*
X027393Y038658D02*
X026643Y038658D01*
X026268Y039033D01*
X026268Y044783D01*
X026643Y045158D01*
X028143Y045158D01*
X028393Y045408D01*
X028393Y046908D01*
X028143Y047158D01*
X026518Y047158D01*
X026143Y047533D01*
X026143Y048908D01*
X026768Y049533D01*
X048143Y049533D01*
X048643Y049033D01*
X054268Y049033D01*
X057768Y045533D01*
X057768Y044533D01*
X056768Y044533D02*
X056768Y045658D01*
X054018Y048408D01*
X048018Y048408D01*
X047643Y048783D01*
X046393Y040158D02*
X044643Y040158D01*
X043268Y040158D02*
X042768Y040158D01*
X042143Y039533D01*
X042143Y034533D01*
X040893Y033283D01*
X040143Y033283D01*
X038643Y031783D01*
X035268Y031783D01*
X034643Y031158D01*
X038268Y032533D02*
X039518Y033783D01*
X039518Y038033D01*
X040143Y038658D01*
X041018Y038658D01*
X042643Y038783D02*
X042643Y034283D01*
X041143Y032783D01*
X040393Y032783D01*
X035643Y028033D01*
X035643Y027783D01*
X035268Y027533D02*
X035268Y024033D01*
X034393Y023158D01*
X034393Y018033D01*
X035018Y017408D01*
X035018Y014158D01*
X034768Y013658D01*
X035893Y012533D02*
X035893Y017783D01*
X036018Y017908D01*
X036018Y027533D01*
X040768Y032283D01*
X041393Y032283D01*
X043018Y033908D01*
X044643Y033908D01*
X045018Y034283D01*
X045018Y037158D01*
X046018Y038158D01*
X046643Y038158D01*
X046393Y037158D02*
X046143Y037158D01*
X045518Y036533D01*
X045518Y034033D01*
X044893Y033408D01*
X043268Y033408D01*
X041643Y031783D01*
X041018Y031783D01*
X036393Y027158D01*
X036393Y012783D01*
X036643Y012533D01*
X037268Y012533D01*
X037268Y011533D02*
X036768Y011658D01*
X035893Y012533D01*
X035518Y011908D02*
X035643Y011783D01*
X035518Y011908D02*
X035518Y017908D01*
X035768Y018158D01*
X037268Y016533D02*
X037893Y016533D01*
X038143Y016283D01*
X038143Y011283D01*
X037893Y011033D01*
X038643Y010658D02*
X038018Y010033D01*
X037893Y010033D01*
X038643Y010658D02*
X038643Y015533D01*
X039393Y016283D01*
X039393Y023783D01*
X038893Y024283D01*
X038893Y026408D01*
X039393Y026908D01*
X040143Y026908D01*
X040643Y026408D01*
X040643Y024783D01*
X040893Y024533D01*
X041643Y024533D01*
X042143Y024033D02*
X042268Y024033D01*
X042643Y024408D01*
X042643Y026783D01*
X041768Y027533D01*
X043018Y027408D02*
X043143Y027283D01*
X043143Y023783D01*
X042393Y023033D01*
X042268Y023033D01*
X040768Y024033D02*
X040206Y023471D01*
X040206Y015971D01*
X040331Y015721D01*
X040331Y013221D01*
X041018Y012533D01*
X041643Y012533D01*
X041643Y011533D02*
X041018Y011533D01*
X040643Y011158D01*
X040643Y008533D01*
X040018Y007908D01*
X038768Y007908D01*
X038518Y007408D02*
X037893Y008033D01*
X038518Y007408D02*
X040268Y007408D01*
X040893Y008033D01*
X042393Y008033D02*
X043143Y008033D01*
X045643Y010533D01*
X047643Y010533D01*
X039268Y010533D02*
X039268Y014908D01*
X039956Y015283D02*
X039956Y014533D01*
X039956Y015283D02*
X039768Y015596D01*
X039768Y026158D01*
X039143Y027783D02*
X040518Y029158D01*
X041518Y029158D01*
X042768Y030408D01*
X042768Y030658D01*
X044018Y031908D01*
X045643Y031908D01*
X046893Y033158D01*
X047643Y033158D01*
X049143Y034658D01*
X049768Y034658D01*
X049893Y033658D02*
X048893Y033658D01*
X047893Y032658D01*
X047143Y032658D01*
X045893Y031408D01*
X044643Y031408D01*
X044268Y031033D01*
X043768Y032408D02*
X042143Y030783D01*
X042018Y030783D01*
X041268Y030033D01*
X041393Y031283D02*
X041893Y031283D01*
X043518Y032908D01*
X045143Y032908D01*
X046018Y033783D01*
X046018Y035908D01*
X046268Y036158D01*
X046393Y036158D01*
X047393Y033658D02*
X049393Y035658D01*
X047393Y033658D02*
X046643Y033658D01*
X045393Y032408D01*
X043768Y032408D01*
X041393Y031283D02*
X038268Y028158D01*
X038268Y023283D01*
X037268Y022533D01*
X038643Y022658D02*
X038643Y019033D01*
X033081Y015971D02*
X033268Y015408D01*
X033393Y014908D01*
X032206Y013846D02*
X032206Y027096D01*
X032393Y027283D01*
X032393Y028283D01*
X032268Y028408D01*
X032268Y035283D01*
X031768Y035783D01*
X030393Y037783D02*
X030393Y033283D01*
X030643Y033033D01*
X030643Y030033D01*
X029518Y028908D01*
X027893Y028908D01*
X027643Y028658D01*
X027268Y029408D02*
X026643Y028783D01*
X026643Y028533D01*
X026147Y027847D02*
X026143Y027843D01*
X026143Y026533D01*
X024893Y025283D01*
X024893Y018533D01*
X026393Y017033D01*
X026393Y017533D02*
X025268Y018658D01*
X025268Y024658D01*
X026643Y026033D01*
X026643Y027033D01*
X027143Y027843D02*
X027147Y027847D01*
X027143Y027843D02*
X027143Y025658D01*
X025643Y024158D01*
X025643Y018908D01*
X026518Y018033D01*
X026643Y018033D01*
X026518Y018533D02*
X026018Y019033D01*
X026018Y023658D01*
X027643Y025283D01*
X027643Y027158D01*
X028143Y027843D02*
X028147Y027847D01*
X028143Y027843D02*
X028143Y024783D01*
X026518Y023158D01*
X026518Y021783D01*
X026768Y021533D01*
X027393Y021533D01*
X027393Y020533D02*
X026893Y020533D01*
X026393Y020033D01*
X026393Y019408D01*
X026768Y019033D01*
X026518Y018533D02*
X027393Y018533D01*
X028018Y018033D02*
X028143Y018033D01*
X028393Y018283D01*
X028393Y018783D01*
X028143Y019033D01*
X028018Y019033D01*
X028268Y019533D02*
X027393Y019533D01*
X028268Y019533D02*
X028768Y019033D01*
X028768Y017783D01*
X028018Y017033D01*
X027393Y017533D02*
X026393Y017533D01*
X024393Y014658D02*
X024393Y025783D01*
X025643Y027033D01*
X024643Y026908D02*
X023893Y026158D01*
X023893Y012658D01*
X025018Y011533D01*
X027393Y011533D01*
X026768Y011033D02*
X025768Y011033D01*
X024768Y010033D01*
X024768Y009533D01*
X025643Y010033D02*
X026143Y010533D01*
X027393Y010533D01*
X026768Y010033D02*
X026518Y010033D01*
X026143Y009658D01*
X026143Y007533D01*
X026768Y006908D01*
X028143Y006908D01*
X028518Y007283D01*
X030143Y010033D01*
X030143Y010783D01*
X030393Y011033D01*
X030518Y011033D01*
X029768Y011158D02*
X030643Y012033D01*
X029768Y011158D02*
X029768Y010033D01*
X029643Y009908D01*
X030268Y009533D02*
X030643Y010033D01*
X030268Y009533D02*
X028643Y006533D01*
X026393Y006533D01*
X025643Y007283D01*
X025643Y008033D01*
X021945Y008033D01*
X020768Y008033D02*
X020518Y008033D01*
X020268Y008283D01*
X020268Y010908D01*
X019018Y012158D01*
X019018Y013158D01*
X018268Y013908D01*
X018268Y016158D01*
X017518Y016908D01*
X017518Y023158D01*
X017143Y023533D01*
X017143Y039033D01*
X019768Y041658D01*
X021393Y041658D01*
X021393Y040658D02*
X019643Y040658D01*
X017643Y038658D01*
X017643Y023908D01*
X018018Y023533D01*
X018018Y017158D01*
X018643Y016533D01*
X018643Y014283D01*
X019643Y013283D01*
X019643Y012283D01*
X020393Y011533D01*
X021393Y011533D01*
X020768Y012033D02*
X020643Y012033D01*
X020143Y012533D01*
X020143Y013533D01*
X019018Y014658D01*
X019018Y016908D01*
X018518Y017408D01*
X018518Y023783D01*
X018893Y024158D01*
X019768Y023783D02*
X019768Y026908D01*
X019393Y027283D01*
X019393Y028783D01*
X020643Y030033D01*
X020643Y030158D01*
X021147Y030847D02*
X021143Y030851D01*
X021143Y031158D01*
X022893Y032908D01*
X022893Y035783D01*
X024393Y037283D01*
X024393Y047033D01*
X026268Y045658D02*
X027393Y045658D01*
X026268Y045658D02*
X025018Y044408D01*
X025018Y037033D01*
X023393Y035408D01*
X023393Y032533D01*
X022643Y031783D01*
X022643Y031658D01*
X023643Y031533D02*
X023643Y031783D01*
X023893Y032033D01*
X022393Y033283D02*
X022393Y035408D01*
X022143Y035658D01*
X021393Y035658D01*
X022393Y033283D02*
X020643Y031533D01*
X022268Y029658D02*
X022643Y030033D01*
X022268Y029658D02*
X021518Y029658D01*
X020643Y028783D01*
X020643Y028533D01*
X021147Y027847D02*
X021143Y027843D01*
X021393Y026908D01*
X021393Y022533D01*
X022018Y021533D02*
X022393Y021908D01*
X022393Y023783D01*
X022143Y024033D01*
X022143Y027843D01*
X022147Y027847D01*
X023147Y027847D02*
X023147Y027162D01*
X022893Y026908D01*
X022893Y021408D01*
X022018Y020533D01*
X021393Y020533D01*
X021393Y021533D02*
X022018Y021533D01*
X023393Y021033D02*
X023393Y026408D01*
X024143Y027158D01*
X024143Y027843D01*
X024147Y027847D01*
X024143Y027851D01*
X024143Y028658D01*
X025643Y030158D01*
X025643Y030283D01*
X026643Y030283D02*
X024643Y028533D01*
X025643Y028658D02*
X027018Y029908D01*
X028393Y029908D01*
X028643Y030158D01*
X029018Y029408D02*
X027268Y029408D01*
X029018Y029408D02*
X030143Y030533D01*
X030143Y032408D01*
X029643Y032908D01*
X029643Y037658D01*
X029143Y038158D01*
X029143Y040903D01*
X029893Y041653D01*
X030566Y041653D01*
X030566Y040653D02*
X030018Y040653D01*
X029643Y040278D01*
X029643Y038533D01*
X028768Y037783D02*
X029018Y037533D01*
X029018Y032658D01*
X028643Y032283D01*
X028643Y031533D01*
X031018Y027783D02*
X031643Y027783D01*
X031018Y027783D02*
X030143Y026908D01*
X030143Y020908D01*
X030518Y020533D01*
X031268Y020533D01*
X033081Y024471D02*
X033393Y024783D01*
X033393Y025783D01*
X033081Y024471D02*
X033081Y015971D01*
X032206Y013846D02*
X031893Y013533D01*
X031268Y013533D01*
X028768Y011408D02*
X028143Y012033D01*
X028018Y012033D01*
X027393Y012533D02*
X026518Y012533D01*
X024393Y014658D01*
X022518Y015783D02*
X022518Y012783D01*
X022268Y012533D01*
X021393Y012533D01*
X021393Y013533D02*
X020893Y013533D01*
X019518Y014908D01*
X019518Y017658D01*
X020643Y018533D02*
X019768Y019408D01*
X019768Y021533D01*
X019018Y022283D01*
X019018Y023033D01*
X019768Y023783D01*
X020643Y023533D02*
X019768Y022658D01*
X020643Y023533D02*
X020643Y027158D01*
X024643Y027158D02*
X024643Y026908D01*
X016768Y022408D02*
X016643Y022533D01*
X016643Y041533D01*
X020768Y045658D01*
X021393Y045658D01*
X021393Y047658D02*
X020768Y047658D01*
X016143Y043033D01*
X016143Y021783D01*
X016518Y021408D01*
X016518Y020033D01*
X020643Y018533D02*
X021393Y018533D01*
X021393Y019533D02*
X021893Y019533D01*
X023393Y021033D01*
X022268Y016033D02*
X022518Y015783D01*
X022268Y016033D02*
X022018Y016033D01*
X025143Y012533D02*
X025643Y012033D01*
X026768Y012033D01*
X028768Y011408D02*
X028768Y010033D01*
X028018Y009033D01*
X026893Y009033D02*
X026768Y009033D01*
X026518Y008783D01*
X026518Y008283D01*
X026768Y008033D01*
X026893Y008033D01*
X025643Y008033D02*
X025643Y010033D01*
X022518Y010783D02*
X022518Y011783D01*
X022268Y012033D01*
X022518Y010783D02*
X022268Y010533D01*
X021393Y010533D01*
X033518Y007408D02*
X035893Y007408D01*
X036518Y008033D01*
X035893Y009033D02*
X033893Y011033D01*
X048643Y023533D02*
X050768Y020658D01*
X055893Y020658D01*
X056393Y021158D01*
X056393Y022533D01*
X067393Y022533D02*
X067393Y017658D01*
X043018Y039158D02*
X042643Y038783D01*
X043018Y039158D02*
X043268Y039158D01*
X028768Y037783D02*
X028768Y041533D01*
X028893Y041783D01*
X028893Y047033D01*
X028268Y047658D01*
X027393Y047658D01*
X027393Y044658D02*
X028143Y044658D01*
X028393Y044408D01*
X022518Y040158D02*
X022518Y039533D01*
X022143Y039158D01*
X020143Y039158D01*
X019643Y039658D01*
X022018Y040158D02*
X022518Y040158D01*
X069993Y043008D02*
X070143Y043158D01*
X072893Y043158D02*
X072993Y043058D01*
D29*
X029393Y012283D02*
X029268Y011908D01*
X029268Y010033D01*
X028268Y008533D01*
X027393Y008533D01*
D30*
X026893Y008033D02*
X028518Y008033D01*
X029643Y009908D01*
X030643Y010033D02*
X031893Y010033D01*
X032018Y011033D02*
X030518Y011033D01*
X030643Y012033D02*
X031893Y012033D01*
X028393Y010783D02*
X028143Y011033D01*
X026768Y011033D01*
X026768Y012033D02*
X028018Y012033D01*
X028393Y010783D02*
X028393Y010283D01*
X028143Y010033D01*
X026768Y010033D01*
X026893Y009033D02*
X028018Y009033D01*
X021945Y008033D02*
X020768Y008033D01*
X020768Y012033D02*
X022268Y012033D01*
X022018Y016033D02*
X020268Y016033D01*
X026393Y017033D02*
X028018Y017033D01*
X028018Y018033D02*
X026643Y018033D01*
X026768Y019033D02*
X028018Y019033D01*
X035643Y018908D02*
X035768Y018783D01*
X035768Y018158D01*
X035643Y018908D02*
X035643Y021908D01*
X035768Y022033D01*
X035768Y022783D01*
X035643Y022908D01*
X035643Y027783D01*
X040768Y024033D02*
X042143Y024033D01*
X042268Y023033D02*
X041018Y023033D01*
X028643Y030158D02*
X028643Y031533D01*
X028018Y032908D02*
X028393Y033283D01*
X026643Y031408D02*
X026643Y030283D01*
X025643Y030283D02*
X025643Y031408D01*
X024643Y031408D02*
X024643Y030033D01*
X023518Y028908D01*
X022518Y028908D01*
X022143Y028533D01*
X022143Y027851D01*
X022147Y027847D01*
X022143Y027343D01*
X021147Y027847D02*
X021143Y027851D01*
X021143Y028533D01*
X021893Y029283D01*
X023018Y029283D01*
X023643Y029908D01*
X023643Y031533D01*
X022643Y031658D02*
X022643Y030033D01*
X020643Y030158D02*
X020643Y031533D01*
X025643Y028658D02*
X025643Y027033D01*
X026643Y027033D02*
X026643Y028533D01*
X027643Y028658D02*
X027643Y027158D01*
X024643Y027158D02*
X024643Y028533D01*
X020643Y028533D02*
X020643Y027158D01*
X030393Y037783D02*
X029643Y038533D01*
X022018Y040158D02*
X020518Y040158D01*
X030561Y044658D02*
X030566Y044653D01*
X043268Y040158D02*
X044643Y040158D01*
X046393Y040158D02*
X047893Y040158D01*
X049393Y041658D01*
X051768Y041658D01*
X051893Y041783D01*
X051768Y039658D02*
X048893Y039658D01*
X048393Y039158D01*
X043268Y039158D01*
X046643Y038158D02*
X048393Y038158D01*
X048893Y038658D01*
X051581Y038658D01*
X052331Y038158D01*
X060018Y038158D01*
X060768Y039158D01*
X061268Y039158D01*
X062268Y038158D02*
X061768Y037658D01*
X059143Y037658D01*
X058831Y037908D01*
X053643Y037908D01*
X053206Y037658D01*
X048893Y037658D01*
X048393Y037158D01*
X046393Y037158D01*
X046393Y036158D02*
X048393Y036158D01*
X048893Y036658D01*
X051643Y036658D01*
X053393Y034908D01*
X058893Y034908D01*
X060143Y036158D01*
X060143Y036783D01*
X060518Y037158D01*
X061268Y037158D01*
X060643Y036658D02*
X060518Y036533D01*
X060518Y035908D01*
X059143Y034533D01*
X052768Y034533D01*
X051643Y035658D01*
X049393Y035658D01*
X049768Y034658D02*
X051768Y034658D01*
X052268Y034158D01*
X059456Y034158D01*
X060893Y035658D01*
X061518Y035658D01*
X062268Y036158D01*
X062018Y035658D02*
X061268Y035158D01*
X061893Y034658D02*
X060518Y034658D01*
X059706Y033846D01*
X051893Y033846D01*
X051643Y033658D01*
X049893Y033658D01*
X052768Y032658D02*
X052768Y031283D01*
X052768Y032658D02*
X053268Y033158D01*
X055768Y032658D02*
X055768Y031283D01*
X055768Y032658D02*
X056268Y033158D01*
X057768Y032658D02*
X057768Y031283D01*
X057768Y032658D02*
X058268Y033158D01*
X061893Y034658D02*
X062268Y035158D01*
X062018Y035658D02*
X062768Y035658D01*
X061893Y036658D02*
X060643Y036658D01*
X061893Y036658D02*
X062268Y037158D01*
X059518Y038408D02*
X052518Y038408D01*
X051768Y039658D01*
X056768Y042721D02*
X056768Y044533D01*
X057768Y044533D02*
X057768Y042783D01*
X058768Y042783D02*
X058768Y043408D01*
X059268Y044158D01*
X060268Y044158D02*
X060268Y044783D01*
X061143Y045658D01*
X075393Y045658D01*
X076768Y044783D01*
X079018Y043408D01*
X078893Y038408D01*
X062268Y040158D02*
X061768Y040658D01*
X060768Y040658D01*
X048268Y014033D02*
X047018Y014033D01*
X047018Y013033D02*
X048268Y013033D01*
X042393Y008033D02*
X040893Y008033D01*
X037893Y008033D02*
X036518Y008033D01*
X035893Y009033D02*
X038018Y009033D01*
X037893Y010033D02*
X036643Y010033D01*
X036643Y011033D02*
X037893Y011033D01*
D31*
X051018Y012533D03*
X036143Y030408D03*
X016893Y015408D03*
X016893Y047408D03*
X056643Y048658D03*
X078893Y047408D03*
X098518Y042033D03*
M02*
