G75*
G70*
%OFA0B0*%
%FSLAX24Y24*%
%IPPOS*%
%LPD*%
%AMOC8*
5,1,8,0,0,1.08239X$1,22.5*
%
%ADD10C,0.0160*%
%ADD11C,0.0050*%
%ADD12C,0.0040*%
%ADD13C,0.0060*%
%ADD14C,0.0070*%
%ADD15C,0.0020*%
%ADD16C,0.0240*%
%ADD17R,0.0240X0.0340*%
%ADD18R,0.0200X0.0200*%
%ADD19C,0.0080*%
%ADD20C,0.0010*%
%ADD21C,0.0100*%
%ADD22R,0.0827X0.0118*%
%ADD23R,0.1000X0.0200*%
%ADD24R,0.0200X0.1000*%
%ADD25R,0.0256X0.0551*%
%ADD26C,0.0000*%
D10*
X054374Y060410D02*
X054374Y061410D01*
D11*
X058684Y061182D02*
X058887Y061386D01*
X058887Y060775D01*
X058684Y060775D02*
X059091Y060775D01*
X059292Y060775D02*
X059699Y060775D01*
X059495Y060775D02*
X059495Y061386D01*
X059292Y061182D01*
X060684Y062525D02*
X061091Y062525D01*
X061292Y062525D02*
X061699Y062932D01*
X061699Y063034D01*
X061597Y063136D01*
X061393Y063136D01*
X061292Y063034D01*
X060887Y063136D02*
X060887Y062525D01*
X061292Y062525D02*
X061699Y062525D01*
X060887Y063136D02*
X060684Y062932D01*
X063674Y062864D02*
X064124Y062864D01*
X064124Y062714D02*
X064124Y063014D01*
X064049Y063175D02*
X064124Y063250D01*
X064124Y063400D01*
X064049Y063475D01*
X063749Y063475D01*
X064049Y063175D01*
X063749Y063175D01*
X063674Y063250D01*
X063674Y063400D01*
X063749Y063475D01*
X063674Y062864D02*
X063824Y062714D01*
X063674Y064889D02*
X064124Y065189D01*
X064049Y065350D02*
X064124Y065425D01*
X064124Y065575D01*
X064049Y065650D01*
X063899Y065650D01*
X063824Y065575D01*
X063824Y065500D01*
X063899Y065350D01*
X063674Y065350D01*
X063674Y065650D01*
X063674Y065189D02*
X064124Y064889D01*
X061324Y067175D02*
X061324Y067475D01*
X061324Y067325D02*
X060874Y067325D01*
X061024Y067175D01*
X060989Y072525D02*
X060786Y072525D01*
X060684Y072627D01*
X060887Y072830D02*
X060989Y072830D01*
X061091Y072729D01*
X061091Y072627D01*
X060989Y072525D01*
X061292Y072525D02*
X061699Y072932D01*
X061699Y073034D01*
X061597Y073136D01*
X061393Y073136D01*
X061292Y073034D01*
X061374Y072939D02*
X061449Y073014D01*
X061599Y073014D01*
X061674Y072939D01*
X061674Y072714D01*
X061824Y072714D02*
X061374Y072714D01*
X061374Y072939D01*
X061374Y073175D02*
X061374Y073475D01*
X061449Y073475D01*
X061749Y073175D01*
X061824Y073175D01*
X061824Y073014D02*
X061674Y072864D01*
X061699Y072525D02*
X061292Y072525D01*
X060989Y072830D02*
X061091Y072932D01*
X061091Y073034D01*
X060989Y073136D01*
X060786Y073136D01*
X060684Y073034D01*
X059597Y074525D02*
X059393Y074525D01*
X059292Y074627D01*
X059091Y074627D02*
X058989Y074525D01*
X058786Y074525D01*
X058684Y074627D01*
X058887Y074830D02*
X058989Y074830D01*
X059091Y074729D01*
X059091Y074627D01*
X058989Y074830D02*
X059091Y074932D01*
X059091Y075034D01*
X058989Y075136D01*
X058786Y075136D01*
X058684Y075034D01*
X059292Y075034D02*
X059393Y075136D01*
X059597Y075136D01*
X059699Y075034D01*
X059699Y074932D01*
X059597Y074830D01*
X059699Y074729D01*
X059699Y074627D01*
X059597Y074525D01*
X059597Y074830D02*
X059495Y074830D01*
X049699Y074729D02*
X049699Y074627D01*
X049597Y074525D01*
X049393Y074525D01*
X049292Y074627D01*
X049091Y074627D02*
X048989Y074525D01*
X048786Y074525D01*
X048684Y074627D01*
X048684Y074830D02*
X048887Y074932D01*
X048989Y074932D01*
X049091Y074830D01*
X049091Y074627D01*
X049495Y074830D02*
X049597Y074830D01*
X049699Y074729D01*
X049597Y074830D02*
X049699Y074932D01*
X049699Y075034D01*
X049597Y075136D01*
X049393Y075136D01*
X049292Y075034D01*
X049091Y075136D02*
X048684Y075136D01*
X048684Y074830D01*
X047597Y073136D02*
X047292Y072830D01*
X047699Y072830D01*
X047597Y072525D02*
X047597Y073136D01*
X047091Y073136D02*
X046684Y073136D01*
X046684Y072830D01*
X046887Y072932D01*
X046989Y072932D01*
X047091Y072830D01*
X047091Y072627D01*
X046989Y072525D01*
X046786Y072525D01*
X046684Y072627D01*
X046684Y063136D02*
X047091Y063136D01*
X047091Y063034D01*
X046684Y062627D01*
X046684Y062525D01*
X047292Y062830D02*
X047699Y062830D01*
X047597Y062525D02*
X047597Y063136D01*
X047292Y062830D01*
X048684Y061386D02*
X049091Y061386D01*
X049091Y061284D01*
X048684Y060877D01*
X048684Y060775D01*
X049292Y060877D02*
X049393Y060775D01*
X049597Y060775D01*
X049699Y060877D01*
X049699Y061080D01*
X049597Y061182D01*
X049495Y061182D01*
X049292Y061080D01*
X049292Y061386D01*
X049699Y061386D01*
X034624Y052706D02*
X034624Y052406D01*
X034624Y052556D02*
X034174Y052556D01*
X034324Y052406D01*
X034324Y052246D02*
X034249Y052246D01*
X034174Y052171D01*
X034174Y052020D01*
X034249Y051945D01*
X034249Y051785D02*
X034399Y051785D01*
X034474Y051710D01*
X034474Y051485D01*
X034474Y051635D02*
X034624Y051785D01*
X034624Y051945D02*
X034324Y052246D01*
X034624Y052246D02*
X034624Y051945D01*
X034249Y051785D02*
X034174Y051710D01*
X034174Y051485D01*
X034624Y051485D01*
X066374Y044135D02*
X066374Y034535D01*
X072774Y034535D01*
X072774Y035035D01*
X080574Y035035D01*
X080574Y044335D01*
X072774Y044335D01*
X072774Y044835D01*
X069274Y044835D01*
X068374Y044135D01*
X066374Y044135D01*
X070274Y039210D02*
X070349Y039060D01*
X070499Y038910D01*
X070499Y039135D01*
X070574Y039210D01*
X070649Y039210D01*
X070724Y039135D01*
X070724Y038985D01*
X070649Y038910D01*
X070499Y038910D01*
X072124Y037696D02*
X072199Y037546D01*
X072349Y037395D01*
X072349Y037621D01*
X072424Y037696D01*
X072499Y037696D01*
X072574Y037621D01*
X072574Y037470D01*
X072499Y037395D01*
X072349Y037395D01*
X072124Y037235D02*
X072574Y036935D01*
X072574Y037235D02*
X072124Y036935D01*
X072174Y036210D02*
X072624Y036210D01*
X072624Y036060D02*
X072624Y036360D01*
X072324Y036060D02*
X072174Y036210D01*
X074724Y037710D02*
X074724Y039360D01*
X074599Y039489D02*
X074524Y039414D01*
X074524Y039264D01*
X074599Y039189D01*
X074899Y039189D01*
X074974Y039264D01*
X074974Y039414D01*
X074899Y039489D01*
X074899Y039650D02*
X074974Y039725D01*
X074974Y039875D01*
X074899Y039950D01*
X074599Y039950D01*
X074524Y039875D01*
X074524Y039725D01*
X074599Y039650D01*
X074674Y039650D01*
X074749Y039725D01*
X074749Y039950D01*
X075324Y039584D02*
X075324Y039088D01*
X075324Y038982D01*
X075324Y038088D01*
X075324Y037982D01*
X075324Y037486D01*
X074936Y037581D02*
X074880Y037608D01*
X074826Y037639D01*
X074774Y037673D01*
X074724Y037710D01*
X075324Y037486D02*
X075388Y037485D01*
X075452Y037488D01*
X075516Y037495D01*
X075579Y037505D01*
X075641Y037520D01*
X075702Y037538D01*
X075763Y037560D01*
X075821Y037585D01*
X076599Y038179D02*
X076899Y038179D01*
X077049Y038329D01*
X076899Y038479D01*
X076599Y038479D01*
X076599Y038639D02*
X076599Y038939D01*
X076599Y038789D02*
X077049Y038789D01*
X077049Y039100D02*
X077049Y039400D01*
X077049Y039250D02*
X076599Y039250D01*
X076749Y039100D01*
X074927Y039485D02*
X074873Y039458D01*
X074822Y039428D01*
X074772Y039395D01*
X074724Y039360D01*
X075324Y039584D02*
X075388Y039585D01*
X075452Y039582D01*
X075516Y039575D01*
X075579Y039565D01*
X075641Y039550D01*
X075702Y039532D01*
X075763Y039510D01*
X075821Y039485D01*
X075324Y039584D02*
X075265Y039579D01*
X075207Y039572D01*
X075149Y039561D01*
X075092Y039546D01*
X075036Y039529D01*
X074981Y039509D01*
X074927Y039485D01*
X075821Y039485D02*
X075878Y039456D01*
X075934Y039423D01*
X075987Y039388D01*
X076038Y039348D01*
X076086Y039306D01*
X076132Y039261D01*
X076175Y039214D01*
X076215Y039164D01*
X076252Y039111D01*
X076285Y039056D01*
X076316Y039000D01*
X076342Y038941D01*
X076365Y038881D01*
X076385Y038820D01*
X076400Y038758D01*
X076412Y038695D01*
X076420Y038631D01*
X076424Y038567D01*
X076424Y038503D01*
X076420Y038439D01*
X076412Y038375D01*
X076400Y038312D01*
X076385Y038250D01*
X076365Y038189D01*
X076342Y038129D01*
X076316Y038070D01*
X076285Y038014D01*
X076252Y037959D01*
X076215Y037906D01*
X076175Y037856D01*
X076132Y037809D01*
X076086Y037764D01*
X076038Y037722D01*
X075987Y037682D01*
X075934Y037647D01*
X075878Y037614D01*
X075821Y037585D01*
X075324Y037486D02*
X075265Y037491D01*
X075207Y037498D01*
X075149Y037509D01*
X075092Y037524D01*
X075036Y037541D01*
X074981Y037561D01*
X074927Y037585D01*
X075974Y035035D02*
X076174Y035035D01*
X087024Y035610D02*
X087325Y035610D01*
X087485Y035610D02*
X087785Y035910D01*
X087785Y035985D01*
X087710Y036060D01*
X087560Y036060D01*
X087485Y035985D01*
X087325Y035985D02*
X087024Y035685D01*
X087024Y035610D01*
X087024Y036060D02*
X087325Y036060D01*
X087325Y035985D01*
X087485Y035610D02*
X087785Y035610D01*
X090549Y038418D02*
X090549Y038644D01*
X090624Y038719D01*
X090924Y038719D01*
X090999Y038644D01*
X090999Y038418D01*
X090549Y038418D01*
X090549Y038879D02*
X090549Y039104D01*
X090624Y039179D01*
X090924Y039179D01*
X090999Y039104D01*
X090999Y038879D01*
X090549Y038879D01*
X090699Y039339D02*
X090549Y039489D01*
X090999Y039489D01*
X090999Y039339D02*
X090999Y039639D01*
X090999Y039800D02*
X090999Y040100D01*
X090999Y039950D02*
X090549Y039950D01*
X090699Y039800D01*
X088910Y041485D02*
X088610Y041485D01*
X088760Y041485D02*
X088760Y041935D01*
X088610Y041785D01*
X088450Y041860D02*
X088149Y041560D01*
X088149Y041485D01*
X088450Y041485D01*
X088450Y041860D02*
X088450Y041935D01*
X088149Y041935D01*
X051624Y013150D02*
X051624Y012850D01*
X051324Y013150D01*
X051249Y013150D01*
X051174Y013075D01*
X051174Y012925D01*
X051249Y012850D01*
X051249Y012689D02*
X051399Y012689D01*
X051474Y012614D01*
X051474Y012389D01*
X051624Y012389D02*
X051174Y012389D01*
X051174Y012614D01*
X051249Y012689D01*
X051174Y012229D02*
X051174Y012079D01*
X051174Y012154D02*
X051549Y012154D01*
X051624Y012079D01*
X051624Y012004D01*
X051549Y011929D01*
X050724Y014225D02*
X050724Y014525D01*
X050724Y014375D02*
X050274Y014375D01*
X050424Y014225D01*
X047831Y011635D02*
X047680Y011635D01*
X047605Y011560D01*
X047445Y011560D02*
X047445Y011410D01*
X047370Y011335D01*
X047145Y011335D01*
X047145Y011185D02*
X047145Y011635D01*
X047370Y011635D01*
X047445Y011560D01*
X047831Y011635D02*
X047906Y011560D01*
X047906Y011485D01*
X047605Y011185D01*
X047906Y011185D01*
X046985Y011260D02*
X046910Y011185D01*
X046760Y011185D01*
X046685Y011260D01*
X046685Y011335D01*
X046760Y011410D01*
X046910Y011410D01*
X046985Y011335D01*
X046985Y011260D01*
X046910Y011410D02*
X046985Y011485D01*
X046985Y011560D01*
X046910Y011635D01*
X046760Y011635D01*
X046685Y011560D01*
X046685Y011485D01*
X046760Y011410D01*
X046525Y011260D02*
X046449Y011185D01*
X046299Y011185D01*
X046224Y011260D01*
X046224Y011560D01*
X046299Y011635D01*
X046449Y011635D01*
X046525Y011560D01*
X044781Y010935D02*
X044480Y010935D01*
X044631Y010935D02*
X044631Y011385D01*
X044480Y011235D01*
X044320Y011160D02*
X044245Y011085D01*
X044020Y011085D01*
X044020Y010935D02*
X044020Y011385D01*
X044245Y011385D01*
X044320Y011310D01*
X044320Y011160D01*
X043860Y011085D02*
X043860Y011010D01*
X043785Y010935D01*
X043635Y010935D01*
X043560Y011010D01*
X043560Y011085D01*
X043635Y011160D01*
X043785Y011160D01*
X043860Y011085D01*
X043785Y011160D02*
X043860Y011235D01*
X043860Y011310D01*
X043785Y011385D01*
X043635Y011385D01*
X043560Y011310D01*
X043560Y011235D01*
X043635Y011160D01*
X043400Y011010D02*
X043324Y010935D01*
X043174Y010935D01*
X043099Y011010D01*
X043099Y011310D01*
X043174Y011385D01*
X043324Y011385D01*
X043400Y011310D01*
X042570Y011310D02*
X042570Y011160D01*
X042495Y011085D01*
X042270Y011085D01*
X042270Y010935D02*
X042270Y011385D01*
X042495Y011385D01*
X042570Y011310D01*
X042110Y011310D02*
X042110Y011235D01*
X042035Y011160D01*
X041885Y011160D01*
X041810Y011235D01*
X041810Y011310D01*
X041885Y011385D01*
X042035Y011385D01*
X042110Y011310D01*
X042035Y011160D02*
X042110Y011085D01*
X042110Y011010D01*
X042035Y010935D01*
X041885Y010935D01*
X041810Y011010D01*
X041810Y011085D01*
X041885Y011160D01*
X041650Y011010D02*
X041574Y010935D01*
X041424Y010935D01*
X041349Y011010D01*
X041349Y011310D01*
X041424Y011385D01*
X041574Y011385D01*
X041650Y011310D01*
X041614Y011535D02*
X041314Y011535D01*
X041464Y011535D02*
X041464Y011985D01*
X041314Y011835D01*
X041154Y011910D02*
X041154Y011760D01*
X041079Y011685D01*
X040853Y011685D01*
X040853Y011535D02*
X040853Y011985D01*
X041079Y011985D01*
X041154Y011910D01*
X040693Y011985D02*
X040543Y011985D01*
X040618Y011985D02*
X040618Y011610D01*
X040543Y011535D01*
X040468Y011535D01*
X040393Y011610D01*
X038589Y009510D02*
X038664Y009435D01*
X038664Y009285D01*
X038589Y009210D01*
X038364Y009210D01*
X038364Y009060D02*
X038364Y009510D01*
X038589Y009510D01*
X038204Y009435D02*
X038129Y009510D01*
X037979Y009510D01*
X037903Y009435D01*
X037903Y009360D01*
X037979Y009285D01*
X038204Y009285D01*
X038204Y009135D02*
X038204Y009435D01*
X038204Y009135D02*
X038129Y009060D01*
X037979Y009060D01*
X037903Y009135D01*
X037743Y009135D02*
X037668Y009060D01*
X037518Y009060D01*
X037443Y009135D01*
X037443Y009435D01*
X037518Y009510D01*
X037668Y009510D01*
X037743Y009435D01*
X039649Y008710D02*
X040099Y008710D01*
X040099Y008560D02*
X040099Y008860D01*
X039799Y008560D02*
X039649Y008710D01*
X036789Y011410D02*
X036714Y011335D01*
X036489Y011335D01*
X036489Y011185D02*
X036489Y011635D01*
X036714Y011635D01*
X036789Y011560D01*
X036789Y011410D01*
X036329Y011335D02*
X036254Y011410D01*
X036028Y011410D01*
X036028Y011260D01*
X036104Y011185D01*
X036254Y011185D01*
X036329Y011260D01*
X036329Y011335D01*
X036179Y011560D02*
X036028Y011410D01*
X036179Y011560D02*
X036329Y011635D01*
X035868Y011560D02*
X035793Y011635D01*
X035643Y011635D01*
X035568Y011560D01*
X035568Y011260D01*
X035643Y011185D01*
X035793Y011185D01*
X035868Y011260D01*
X034985Y005485D02*
X034985Y005035D01*
X034835Y005035D02*
X035135Y005035D01*
X034835Y005335D02*
X034985Y005485D01*
X034675Y005410D02*
X034599Y005485D01*
X034449Y005485D01*
X034374Y005410D01*
X034675Y005410D02*
X034675Y005335D01*
X034374Y005035D01*
X034675Y005035D01*
X050624Y005035D02*
X050925Y005035D01*
X050774Y005035D02*
X050774Y005485D01*
X050624Y005335D01*
D12*
X072388Y030180D02*
X072388Y030640D01*
X072618Y030640D01*
X072695Y030564D01*
X072695Y030410D01*
X072618Y030333D01*
X072388Y030333D01*
X072542Y030333D02*
X072695Y030180D01*
X072848Y030180D02*
X073155Y030180D01*
X073002Y030180D02*
X073002Y030640D01*
X072848Y030487D01*
X073309Y030564D02*
X073386Y030640D01*
X073539Y030640D01*
X073616Y030564D01*
X073616Y030487D01*
X073539Y030410D01*
X073616Y030333D01*
X073616Y030257D01*
X073539Y030180D01*
X073386Y030180D01*
X073309Y030257D01*
X073462Y030410D02*
X073539Y030410D01*
X078071Y037367D02*
X078147Y037367D01*
X078224Y037444D01*
X078224Y037598D01*
X078301Y037674D01*
X078378Y037674D01*
X078454Y037598D01*
X078454Y037444D01*
X078378Y037367D01*
X078071Y037367D02*
X077994Y037444D01*
X077994Y037598D01*
X078071Y037674D01*
X077994Y037828D02*
X077994Y038058D01*
X078071Y038135D01*
X078378Y038135D01*
X078454Y038058D01*
X078454Y037828D01*
X077994Y037828D01*
X078454Y038288D02*
X077994Y038595D01*
X077994Y038749D02*
X078147Y038902D01*
X077994Y039056D01*
X078454Y039056D01*
X078454Y039209D02*
X077994Y039209D01*
X078147Y039362D01*
X077994Y039516D01*
X078454Y039516D01*
X078378Y039669D02*
X078454Y039746D01*
X078454Y039900D01*
X078378Y039976D01*
X078378Y039669D02*
X078071Y039669D01*
X077994Y039746D01*
X077994Y039900D01*
X078071Y039976D01*
X078071Y040590D02*
X078378Y040590D01*
X078454Y040667D01*
X078454Y040820D01*
X078378Y040897D01*
X078378Y041051D02*
X078301Y041127D01*
X078301Y041357D01*
X078224Y041357D02*
X078454Y041357D01*
X078454Y041127D01*
X078378Y041051D01*
X078147Y041127D02*
X078147Y041281D01*
X078224Y041357D01*
X078147Y041511D02*
X078454Y041511D01*
X078301Y041511D02*
X078147Y041664D01*
X078147Y041741D01*
X078224Y041895D02*
X078147Y041971D01*
X078147Y042202D01*
X077994Y042202D02*
X078454Y042202D01*
X078454Y041971D01*
X078378Y041895D01*
X078224Y041895D01*
X078071Y040897D02*
X077994Y040820D01*
X077994Y040667D01*
X078071Y040590D01*
X077994Y038749D02*
X078454Y038749D01*
X055741Y064680D02*
X055434Y064680D01*
X055741Y064987D01*
X055741Y065064D01*
X055664Y065140D01*
X055511Y065140D01*
X055434Y065064D01*
X055280Y065064D02*
X055204Y065140D01*
X054973Y065140D01*
X054973Y064680D01*
X055204Y064680D01*
X055280Y064757D01*
X055280Y065064D01*
X054820Y065064D02*
X054743Y065140D01*
X054513Y065140D01*
X054513Y064680D01*
X054743Y064680D01*
X054820Y064757D01*
X054820Y065064D01*
X054523Y076985D02*
X054062Y076985D01*
X054062Y077215D01*
X054139Y077292D01*
X054292Y077292D01*
X054369Y077215D01*
X054369Y076985D01*
X054369Y077139D02*
X054523Y077292D01*
X054599Y077445D02*
X054599Y077752D01*
X054446Y077906D02*
X054523Y077983D01*
X054523Y078136D01*
X054446Y078213D01*
X054369Y078213D01*
X054292Y078136D01*
X054292Y077983D01*
X054216Y077906D01*
X054139Y077906D01*
X054062Y077983D01*
X054062Y078136D01*
X054139Y078213D01*
X054139Y078366D02*
X054292Y078520D01*
X054523Y078520D01*
X054292Y078520D02*
X054139Y078673D01*
X054062Y078673D01*
X054062Y078366D02*
X054139Y078366D01*
X054062Y079195D02*
X054062Y079426D01*
X054139Y079502D01*
X054292Y079502D01*
X054369Y079426D01*
X054369Y079195D01*
X054523Y079195D02*
X054062Y079195D01*
X054369Y079349D02*
X054523Y079502D01*
X054599Y079656D02*
X054599Y079963D01*
X054446Y080116D02*
X054523Y080193D01*
X054523Y080346D01*
X054446Y080423D01*
X054292Y080423D01*
X054292Y080270D01*
X054139Y080423D02*
X054062Y080346D01*
X054062Y080193D01*
X054139Y080116D01*
X054446Y080116D01*
X057687Y080116D02*
X057687Y080346D01*
X057764Y080423D01*
X057841Y080423D01*
X057917Y080346D01*
X057917Y080116D01*
X057687Y080116D02*
X058148Y080116D01*
X058148Y080346D01*
X058071Y080423D01*
X057994Y080423D01*
X057917Y080346D01*
X058224Y079963D02*
X058224Y079656D01*
X058148Y079502D02*
X057994Y079349D01*
X057994Y079426D02*
X057994Y079195D01*
X058148Y079195D02*
X057687Y079195D01*
X057687Y079426D01*
X057764Y079502D01*
X057917Y079502D01*
X057994Y079426D01*
X058023Y078548D02*
X057869Y078395D01*
X057869Y078471D02*
X057869Y078241D01*
X058023Y078241D02*
X057562Y078241D01*
X057562Y078471D01*
X057639Y078548D01*
X057792Y078548D01*
X057869Y078471D01*
X058099Y078088D02*
X058099Y077781D01*
X058023Y077627D02*
X057869Y077474D01*
X057869Y077551D02*
X057869Y077320D01*
X058023Y077320D02*
X057562Y077320D01*
X057562Y077551D01*
X057639Y077627D01*
X057792Y077627D01*
X057869Y077551D01*
X036418Y079681D02*
X036111Y079681D01*
X036341Y079911D01*
X036341Y079451D01*
X035958Y079528D02*
X035958Y079835D01*
X035881Y079911D01*
X035651Y079911D01*
X035651Y079451D01*
X035881Y079451D01*
X035958Y079528D01*
X035497Y079528D02*
X035497Y079835D01*
X035421Y079911D01*
X035190Y079911D01*
X035190Y079451D01*
X035421Y079451D01*
X035497Y079528D01*
X031594Y081027D02*
X031517Y080950D01*
X031364Y080950D01*
X031287Y081027D01*
X031134Y081027D02*
X031134Y081334D01*
X031057Y081410D01*
X030827Y081410D01*
X030827Y080950D01*
X031057Y080950D01*
X031134Y081027D01*
X031287Y081180D02*
X031441Y081257D01*
X031517Y081257D01*
X031594Y081180D01*
X031594Y081027D01*
X031287Y081180D02*
X031287Y081410D01*
X031594Y081410D01*
X030673Y081334D02*
X030597Y081410D01*
X030366Y081410D01*
X030366Y080950D01*
X030597Y080950D01*
X030673Y081027D01*
X030673Y081334D01*
X018506Y062232D02*
X018583Y062155D01*
X018583Y062002D01*
X018506Y061925D01*
X018200Y062232D01*
X018506Y062232D01*
X018200Y062232D02*
X018123Y062155D01*
X018123Y062002D01*
X018200Y061925D01*
X018506Y061925D01*
X018583Y061772D02*
X018583Y061465D01*
X018583Y061618D02*
X018123Y061618D01*
X018276Y061465D01*
X018200Y061311D02*
X018123Y061235D01*
X018123Y061004D01*
X018583Y061004D01*
X018583Y061235D01*
X018506Y061311D01*
X018200Y061311D01*
X018200Y060851D02*
X018123Y060774D01*
X018123Y060544D01*
X018583Y060544D01*
X018583Y060774D01*
X018506Y060851D01*
X018200Y060851D01*
D13*
X029749Y004710D02*
X033499Y004710D01*
X033499Y001560D01*
X051999Y001560D01*
X051999Y004710D01*
X051999Y005910D01*
X050649Y005910D01*
X050649Y007410D01*
X050649Y008410D01*
X050399Y008660D01*
X050099Y008660D01*
X049849Y008410D01*
X049849Y007410D01*
X049849Y006960D01*
X049649Y006760D01*
X049649Y006510D01*
X049349Y006510D01*
X049349Y006760D01*
X049149Y006960D01*
X049149Y007410D01*
X049149Y008410D01*
X048899Y008660D01*
X048599Y008660D01*
X048349Y008410D01*
X048349Y007410D01*
X048349Y006960D01*
X048149Y006760D01*
X048149Y006510D01*
X047849Y006510D01*
X047849Y006760D01*
X047649Y006960D01*
X047649Y007410D01*
X047649Y008410D01*
X047399Y008660D01*
X047099Y008660D01*
X046849Y008410D01*
X046849Y007410D01*
X046849Y006960D01*
X046649Y006760D01*
X046649Y006510D01*
X046349Y006510D01*
X046349Y006760D01*
X046149Y006960D01*
X046149Y007410D01*
X046149Y008410D01*
X045899Y008660D01*
X045599Y008660D01*
X045349Y008410D01*
X045349Y007410D01*
X045349Y006960D01*
X045149Y006760D01*
X045149Y006510D01*
X044849Y006510D01*
X044849Y006760D01*
X044649Y006960D01*
X044649Y007410D01*
X044649Y008410D01*
X044399Y008660D01*
X044099Y008660D01*
X043849Y008410D01*
X043849Y007410D01*
X043849Y006960D01*
X043649Y006760D01*
X043649Y006510D01*
X043349Y006510D01*
X043349Y006760D01*
X043149Y006960D01*
X043149Y007410D01*
X043149Y008410D01*
X042899Y008660D01*
X042599Y008660D01*
X042349Y008410D01*
X042349Y007410D01*
X042349Y006960D01*
X042149Y006760D01*
X042149Y006510D01*
X041849Y006510D01*
X041849Y006760D01*
X041649Y006960D01*
X041649Y007410D01*
X041649Y008410D01*
X041399Y008660D01*
X041099Y008660D01*
X040849Y008410D01*
X040849Y007410D01*
X040849Y006960D01*
X040649Y006760D01*
X040649Y006510D01*
X040349Y006510D01*
X040349Y006760D01*
X040149Y006960D01*
X040149Y007410D01*
X040149Y008410D01*
X039899Y008660D01*
X039599Y008660D01*
X039349Y008410D01*
X039349Y007410D01*
X039349Y006960D01*
X039149Y006760D01*
X039149Y006510D01*
X038849Y006510D01*
X038849Y006760D01*
X038649Y006960D01*
X038649Y007410D01*
X038649Y008410D01*
X038399Y008660D01*
X038099Y008660D01*
X037849Y008410D01*
X037849Y007410D01*
X037849Y006960D01*
X037649Y006760D01*
X037649Y006510D01*
X037349Y006510D01*
X037349Y006760D01*
X037149Y006960D01*
X037149Y007410D01*
X037149Y008410D01*
X036899Y008660D01*
X036599Y008660D01*
X036349Y008410D01*
X036349Y007410D01*
X036349Y006960D01*
X036149Y006760D01*
X036149Y006510D01*
X035849Y006510D01*
X035849Y006760D01*
X035649Y006960D01*
X035649Y007410D01*
X035649Y008410D01*
X035399Y008660D01*
X035099Y008660D01*
X034849Y008410D01*
X034849Y007410D01*
X034849Y005910D01*
X033499Y005910D01*
X029749Y005910D01*
X029749Y004710D01*
X031249Y004310D02*
X031249Y006310D01*
X033499Y005910D02*
X033499Y004710D01*
X034849Y005910D02*
X035399Y005910D01*
X036599Y005910D01*
X036899Y005910D01*
X038099Y005910D01*
X038399Y005910D01*
X039599Y005910D01*
X039899Y005910D01*
X041099Y005910D01*
X041399Y005910D01*
X042599Y005910D01*
X042899Y005910D01*
X044099Y005910D01*
X044399Y005910D01*
X045599Y005910D01*
X045899Y005910D01*
X047099Y005910D01*
X047399Y005910D01*
X048599Y005910D01*
X048899Y005910D01*
X050099Y005910D01*
X050649Y005910D01*
X051999Y005910D02*
X055749Y005910D01*
X055749Y004710D01*
X051999Y004710D01*
X054249Y004310D02*
X054249Y006310D01*
X050749Y011160D02*
X050249Y011160D01*
X049999Y011410D01*
X049999Y011910D01*
X050249Y012160D01*
X049999Y012410D01*
X049999Y012910D01*
X050249Y013160D01*
X049999Y013410D01*
X049999Y013910D01*
X050249Y014160D01*
X050749Y014160D01*
X050999Y013910D01*
X050999Y013410D01*
X050749Y013160D01*
X050999Y012910D01*
X050999Y012410D01*
X050749Y012160D01*
X050999Y011910D01*
X050999Y011410D01*
X050749Y011160D01*
X049424Y013310D02*
X037324Y013310D01*
X037324Y016510D01*
X049424Y016510D01*
X049424Y015160D01*
X049394Y015158D01*
X049364Y015153D01*
X049335Y015144D01*
X049308Y015131D01*
X049282Y015116D01*
X049258Y015097D01*
X049237Y015076D01*
X049218Y015052D01*
X049203Y015026D01*
X049190Y014999D01*
X049181Y014970D01*
X049176Y014940D01*
X049174Y014910D01*
X049176Y014880D01*
X049181Y014850D01*
X049190Y014821D01*
X049203Y014794D01*
X049218Y014768D01*
X049237Y014744D01*
X049258Y014723D01*
X049282Y014704D01*
X049308Y014689D01*
X049335Y014676D01*
X049364Y014667D01*
X049394Y014662D01*
X049424Y014660D01*
X049424Y013310D01*
X046999Y010435D02*
X046999Y010335D01*
X047099Y010335D01*
X046999Y010335D02*
X046999Y010235D01*
X046999Y010335D02*
X046899Y010335D01*
X046999Y010085D02*
X046499Y010085D01*
X045999Y010085D01*
X045999Y009885D01*
X046999Y009885D01*
X046999Y010085D01*
X046499Y010085D02*
X046499Y010435D01*
X045499Y009785D02*
X045501Y009848D01*
X045507Y009910D01*
X045517Y009972D01*
X045530Y010034D01*
X045548Y010094D01*
X045569Y010153D01*
X045594Y010211D01*
X045623Y010267D01*
X045655Y010321D01*
X045690Y010373D01*
X045728Y010422D01*
X045770Y010470D01*
X045814Y010514D01*
X045862Y010556D01*
X045911Y010594D01*
X045963Y010629D01*
X046017Y010661D01*
X046073Y010690D01*
X046131Y010715D01*
X046190Y010736D01*
X046250Y010754D01*
X046312Y010767D01*
X046374Y010777D01*
X046436Y010783D01*
X046499Y010785D01*
X046562Y010783D01*
X046624Y010777D01*
X046686Y010767D01*
X046748Y010754D01*
X046808Y010736D01*
X046867Y010715D01*
X046925Y010690D01*
X046981Y010661D01*
X047035Y010629D01*
X047087Y010594D01*
X047136Y010556D01*
X047184Y010514D01*
X047228Y010470D01*
X047270Y010422D01*
X047308Y010373D01*
X047343Y010321D01*
X047375Y010267D01*
X047404Y010211D01*
X047429Y010153D01*
X047450Y010094D01*
X047468Y010034D01*
X047481Y009972D01*
X047491Y009910D01*
X047497Y009848D01*
X047499Y009785D01*
X047497Y009722D01*
X047491Y009660D01*
X047481Y009598D01*
X047468Y009536D01*
X047450Y009476D01*
X047429Y009417D01*
X047404Y009359D01*
X047375Y009303D01*
X047343Y009249D01*
X047308Y009197D01*
X047270Y009148D01*
X047228Y009100D01*
X047184Y009056D01*
X047136Y009014D01*
X047087Y008976D01*
X047035Y008941D01*
X046981Y008909D01*
X046925Y008880D01*
X046867Y008855D01*
X046808Y008834D01*
X046748Y008816D01*
X046686Y008803D01*
X046624Y008793D01*
X046562Y008787D01*
X046499Y008785D01*
X046436Y008787D01*
X046374Y008793D01*
X046312Y008803D01*
X046250Y008816D01*
X046190Y008834D01*
X046131Y008855D01*
X046073Y008880D01*
X046017Y008909D01*
X045963Y008941D01*
X045911Y008976D01*
X045862Y009014D01*
X045814Y009056D01*
X045770Y009100D01*
X045728Y009148D01*
X045690Y009197D01*
X045655Y009249D01*
X045623Y009303D01*
X045594Y009359D01*
X045569Y009417D01*
X045548Y009476D01*
X045530Y009536D01*
X045517Y009598D01*
X045507Y009660D01*
X045501Y009722D01*
X045499Y009785D01*
X044499Y009885D02*
X044499Y010085D01*
X043999Y010085D01*
X043499Y010085D01*
X043499Y009885D01*
X044499Y009885D01*
X044499Y010235D02*
X044499Y010335D01*
X044599Y010335D01*
X044499Y010335D02*
X044399Y010335D01*
X044499Y010335D02*
X044499Y010435D01*
X043999Y010435D02*
X043999Y010085D01*
X042999Y009785D02*
X043001Y009848D01*
X043007Y009910D01*
X043017Y009972D01*
X043030Y010034D01*
X043048Y010094D01*
X043069Y010153D01*
X043094Y010211D01*
X043123Y010267D01*
X043155Y010321D01*
X043190Y010373D01*
X043228Y010422D01*
X043270Y010470D01*
X043314Y010514D01*
X043362Y010556D01*
X043411Y010594D01*
X043463Y010629D01*
X043517Y010661D01*
X043573Y010690D01*
X043631Y010715D01*
X043690Y010736D01*
X043750Y010754D01*
X043812Y010767D01*
X043874Y010777D01*
X043936Y010783D01*
X043999Y010785D01*
X044062Y010783D01*
X044124Y010777D01*
X044186Y010767D01*
X044248Y010754D01*
X044308Y010736D01*
X044367Y010715D01*
X044425Y010690D01*
X044481Y010661D01*
X044535Y010629D01*
X044587Y010594D01*
X044636Y010556D01*
X044684Y010514D01*
X044728Y010470D01*
X044770Y010422D01*
X044808Y010373D01*
X044843Y010321D01*
X044875Y010267D01*
X044904Y010211D01*
X044929Y010153D01*
X044950Y010094D01*
X044968Y010034D01*
X044981Y009972D01*
X044991Y009910D01*
X044997Y009848D01*
X044999Y009785D01*
X044997Y009722D01*
X044991Y009660D01*
X044981Y009598D01*
X044968Y009536D01*
X044950Y009476D01*
X044929Y009417D01*
X044904Y009359D01*
X044875Y009303D01*
X044843Y009249D01*
X044808Y009197D01*
X044770Y009148D01*
X044728Y009100D01*
X044684Y009056D01*
X044636Y009014D01*
X044587Y008976D01*
X044535Y008941D01*
X044481Y008909D01*
X044425Y008880D01*
X044367Y008855D01*
X044308Y008834D01*
X044248Y008816D01*
X044186Y008803D01*
X044124Y008793D01*
X044062Y008787D01*
X043999Y008785D01*
X043936Y008787D01*
X043874Y008793D01*
X043812Y008803D01*
X043750Y008816D01*
X043690Y008834D01*
X043631Y008855D01*
X043573Y008880D01*
X043517Y008909D01*
X043463Y008941D01*
X043411Y008976D01*
X043362Y009014D01*
X043314Y009056D01*
X043270Y009100D01*
X043228Y009148D01*
X043190Y009197D01*
X043155Y009249D01*
X043123Y009303D01*
X043094Y009359D01*
X043069Y009417D01*
X043048Y009476D01*
X043030Y009536D01*
X043017Y009598D01*
X043007Y009660D01*
X043001Y009722D01*
X042999Y009785D01*
X042374Y009885D02*
X042374Y010085D01*
X041874Y010085D01*
X041374Y010085D01*
X041374Y009885D01*
X042374Y009885D01*
X042374Y010235D02*
X042374Y010335D01*
X042474Y010335D01*
X042374Y010335D02*
X042274Y010335D01*
X042374Y010335D02*
X042374Y010435D01*
X041874Y010435D02*
X041874Y010085D01*
X040874Y009785D02*
X040876Y009848D01*
X040882Y009910D01*
X040892Y009972D01*
X040905Y010034D01*
X040923Y010094D01*
X040944Y010153D01*
X040969Y010211D01*
X040998Y010267D01*
X041030Y010321D01*
X041065Y010373D01*
X041103Y010422D01*
X041145Y010470D01*
X041189Y010514D01*
X041237Y010556D01*
X041286Y010594D01*
X041338Y010629D01*
X041392Y010661D01*
X041448Y010690D01*
X041506Y010715D01*
X041565Y010736D01*
X041625Y010754D01*
X041687Y010767D01*
X041749Y010777D01*
X041811Y010783D01*
X041874Y010785D01*
X041937Y010783D01*
X041999Y010777D01*
X042061Y010767D01*
X042123Y010754D01*
X042183Y010736D01*
X042242Y010715D01*
X042300Y010690D01*
X042356Y010661D01*
X042410Y010629D01*
X042462Y010594D01*
X042511Y010556D01*
X042559Y010514D01*
X042603Y010470D01*
X042645Y010422D01*
X042683Y010373D01*
X042718Y010321D01*
X042750Y010267D01*
X042779Y010211D01*
X042804Y010153D01*
X042825Y010094D01*
X042843Y010034D01*
X042856Y009972D01*
X042866Y009910D01*
X042872Y009848D01*
X042874Y009785D01*
X042872Y009722D01*
X042866Y009660D01*
X042856Y009598D01*
X042843Y009536D01*
X042825Y009476D01*
X042804Y009417D01*
X042779Y009359D01*
X042750Y009303D01*
X042718Y009249D01*
X042683Y009197D01*
X042645Y009148D01*
X042603Y009100D01*
X042559Y009056D01*
X042511Y009014D01*
X042462Y008976D01*
X042410Y008941D01*
X042356Y008909D01*
X042300Y008880D01*
X042242Y008855D01*
X042183Y008834D01*
X042123Y008816D01*
X042061Y008803D01*
X041999Y008793D01*
X041937Y008787D01*
X041874Y008785D01*
X041811Y008787D01*
X041749Y008793D01*
X041687Y008803D01*
X041625Y008816D01*
X041565Y008834D01*
X041506Y008855D01*
X041448Y008880D01*
X041392Y008909D01*
X041338Y008941D01*
X041286Y008976D01*
X041237Y009014D01*
X041189Y009056D01*
X041145Y009100D01*
X041103Y009148D01*
X041065Y009197D01*
X041030Y009249D01*
X040998Y009303D01*
X040969Y009359D01*
X040944Y009417D01*
X040923Y009476D01*
X040905Y009536D01*
X040892Y009598D01*
X040882Y009660D01*
X040876Y009722D01*
X040874Y009785D01*
X040374Y009785D02*
X040124Y010035D01*
X040374Y010285D01*
X040374Y010785D01*
X040124Y011035D01*
X040374Y011285D01*
X040374Y011785D01*
X040124Y012035D01*
X039624Y012035D01*
X039374Y011785D01*
X039374Y011285D01*
X039624Y011035D01*
X039374Y010785D01*
X039374Y010285D01*
X039624Y010035D01*
X039374Y009785D01*
X039374Y009285D01*
X039624Y009035D01*
X040124Y009035D01*
X040374Y009285D01*
X040374Y009785D01*
X038649Y010785D02*
X038549Y010785D01*
X038549Y010685D01*
X038549Y010785D02*
X038449Y010785D01*
X038549Y010785D02*
X038549Y010885D01*
X038299Y010785D02*
X038299Y011285D01*
X038299Y011785D01*
X038099Y011785D01*
X038099Y010785D01*
X038299Y010785D01*
X038299Y011285D02*
X038649Y011285D01*
X036999Y011285D02*
X037001Y011348D01*
X037007Y011410D01*
X037017Y011472D01*
X037030Y011534D01*
X037048Y011594D01*
X037069Y011653D01*
X037094Y011711D01*
X037123Y011767D01*
X037155Y011821D01*
X037190Y011873D01*
X037228Y011922D01*
X037270Y011970D01*
X037314Y012014D01*
X037362Y012056D01*
X037411Y012094D01*
X037463Y012129D01*
X037517Y012161D01*
X037573Y012190D01*
X037631Y012215D01*
X037690Y012236D01*
X037750Y012254D01*
X037812Y012267D01*
X037874Y012277D01*
X037936Y012283D01*
X037999Y012285D01*
X038062Y012283D01*
X038124Y012277D01*
X038186Y012267D01*
X038248Y012254D01*
X038308Y012236D01*
X038367Y012215D01*
X038425Y012190D01*
X038481Y012161D01*
X038535Y012129D01*
X038587Y012094D01*
X038636Y012056D01*
X038684Y012014D01*
X038728Y011970D01*
X038770Y011922D01*
X038808Y011873D01*
X038843Y011821D01*
X038875Y011767D01*
X038904Y011711D01*
X038929Y011653D01*
X038950Y011594D01*
X038968Y011534D01*
X038981Y011472D01*
X038991Y011410D01*
X038997Y011348D01*
X038999Y011285D01*
X038997Y011222D01*
X038991Y011160D01*
X038981Y011098D01*
X038968Y011036D01*
X038950Y010976D01*
X038929Y010917D01*
X038904Y010859D01*
X038875Y010803D01*
X038843Y010749D01*
X038808Y010697D01*
X038770Y010648D01*
X038728Y010600D01*
X038684Y010556D01*
X038636Y010514D01*
X038587Y010476D01*
X038535Y010441D01*
X038481Y010409D01*
X038425Y010380D01*
X038367Y010355D01*
X038308Y010334D01*
X038248Y010316D01*
X038186Y010303D01*
X038124Y010293D01*
X038062Y010287D01*
X037999Y010285D01*
X037936Y010287D01*
X037874Y010293D01*
X037812Y010303D01*
X037750Y010316D01*
X037690Y010334D01*
X037631Y010355D01*
X037573Y010380D01*
X037517Y010409D01*
X037463Y010441D01*
X037411Y010476D01*
X037362Y010514D01*
X037314Y010556D01*
X037270Y010600D01*
X037228Y010648D01*
X037190Y010697D01*
X037155Y010749D01*
X037123Y010803D01*
X037094Y010859D01*
X037069Y010917D01*
X037048Y010976D01*
X037030Y011036D01*
X037017Y011098D01*
X037007Y011160D01*
X037001Y011222D01*
X036999Y011285D01*
X037349Y011285D02*
X037749Y011285D01*
X036874Y010435D02*
X036874Y010335D01*
X036974Y010335D01*
X036874Y010335D02*
X036874Y010235D01*
X036874Y010335D02*
X036774Y010335D01*
X036874Y010085D02*
X036374Y010085D01*
X035874Y010085D01*
X035874Y009885D01*
X036874Y009885D01*
X036874Y010085D01*
X036374Y010085D02*
X036374Y010435D01*
X035374Y009785D02*
X035376Y009848D01*
X035382Y009910D01*
X035392Y009972D01*
X035405Y010034D01*
X035423Y010094D01*
X035444Y010153D01*
X035469Y010211D01*
X035498Y010267D01*
X035530Y010321D01*
X035565Y010373D01*
X035603Y010422D01*
X035645Y010470D01*
X035689Y010514D01*
X035737Y010556D01*
X035786Y010594D01*
X035838Y010629D01*
X035892Y010661D01*
X035948Y010690D01*
X036006Y010715D01*
X036065Y010736D01*
X036125Y010754D01*
X036187Y010767D01*
X036249Y010777D01*
X036311Y010783D01*
X036374Y010785D01*
X036437Y010783D01*
X036499Y010777D01*
X036561Y010767D01*
X036623Y010754D01*
X036683Y010736D01*
X036742Y010715D01*
X036800Y010690D01*
X036856Y010661D01*
X036910Y010629D01*
X036962Y010594D01*
X037011Y010556D01*
X037059Y010514D01*
X037103Y010470D01*
X037145Y010422D01*
X037183Y010373D01*
X037218Y010321D01*
X037250Y010267D01*
X037279Y010211D01*
X037304Y010153D01*
X037325Y010094D01*
X037343Y010034D01*
X037356Y009972D01*
X037366Y009910D01*
X037372Y009848D01*
X037374Y009785D01*
X037372Y009722D01*
X037366Y009660D01*
X037356Y009598D01*
X037343Y009536D01*
X037325Y009476D01*
X037304Y009417D01*
X037279Y009359D01*
X037250Y009303D01*
X037218Y009249D01*
X037183Y009197D01*
X037145Y009148D01*
X037103Y009100D01*
X037059Y009056D01*
X037011Y009014D01*
X036962Y008976D01*
X036910Y008941D01*
X036856Y008909D01*
X036800Y008880D01*
X036742Y008855D01*
X036683Y008834D01*
X036623Y008816D01*
X036561Y008803D01*
X036499Y008793D01*
X036437Y008787D01*
X036374Y008785D01*
X036311Y008787D01*
X036249Y008793D01*
X036187Y008803D01*
X036125Y008816D01*
X036065Y008834D01*
X036006Y008855D01*
X035948Y008880D01*
X035892Y008909D01*
X035838Y008941D01*
X035786Y008976D01*
X035737Y009014D01*
X035689Y009056D01*
X035645Y009100D01*
X035603Y009148D01*
X035565Y009197D01*
X035530Y009249D01*
X035498Y009303D01*
X035469Y009359D01*
X035444Y009417D01*
X035423Y009476D01*
X035405Y009536D01*
X035392Y009598D01*
X035382Y009660D01*
X035376Y009722D01*
X035374Y009785D01*
X036374Y009535D02*
X036374Y009135D01*
X041874Y009135D02*
X041874Y009535D01*
X043999Y009535D02*
X043999Y009135D01*
X046499Y009135D02*
X046499Y009535D01*
X073338Y030910D02*
X073661Y030910D01*
X073661Y031410D02*
X073338Y031410D01*
X071749Y035785D02*
X070249Y035785D01*
X069999Y036035D01*
X069999Y036535D01*
X070249Y036785D01*
X069999Y037035D01*
X069999Y037535D01*
X070249Y037785D01*
X069999Y038035D01*
X069999Y038535D01*
X070249Y038785D01*
X071749Y038785D01*
X071999Y038535D01*
X071999Y038035D01*
X071749Y037785D01*
X071999Y037535D01*
X071999Y037035D01*
X071749Y036785D01*
X071999Y036535D01*
X071999Y036035D01*
X071749Y035785D01*
X073999Y040385D02*
X073999Y040785D01*
X072999Y041035D02*
X073001Y041098D01*
X073007Y041160D01*
X073017Y041222D01*
X073030Y041284D01*
X073048Y041344D01*
X073069Y041403D01*
X073094Y041461D01*
X073123Y041517D01*
X073155Y041571D01*
X073190Y041623D01*
X073228Y041672D01*
X073270Y041720D01*
X073314Y041764D01*
X073362Y041806D01*
X073411Y041844D01*
X073463Y041879D01*
X073517Y041911D01*
X073573Y041940D01*
X073631Y041965D01*
X073690Y041986D01*
X073750Y042004D01*
X073812Y042017D01*
X073874Y042027D01*
X073936Y042033D01*
X073999Y042035D01*
X074062Y042033D01*
X074124Y042027D01*
X074186Y042017D01*
X074248Y042004D01*
X074308Y041986D01*
X074367Y041965D01*
X074425Y041940D01*
X074481Y041911D01*
X074535Y041879D01*
X074587Y041844D01*
X074636Y041806D01*
X074684Y041764D01*
X074728Y041720D01*
X074770Y041672D01*
X074808Y041623D01*
X074843Y041571D01*
X074875Y041517D01*
X074904Y041461D01*
X074929Y041403D01*
X074950Y041344D01*
X074968Y041284D01*
X074981Y041222D01*
X074991Y041160D01*
X074997Y041098D01*
X074999Y041035D01*
X074997Y040972D01*
X074991Y040910D01*
X074981Y040848D01*
X074968Y040786D01*
X074950Y040726D01*
X074929Y040667D01*
X074904Y040609D01*
X074875Y040553D01*
X074843Y040499D01*
X074808Y040447D01*
X074770Y040398D01*
X074728Y040350D01*
X074684Y040306D01*
X074636Y040264D01*
X074587Y040226D01*
X074535Y040191D01*
X074481Y040159D01*
X074425Y040130D01*
X074367Y040105D01*
X074308Y040084D01*
X074248Y040066D01*
X074186Y040053D01*
X074124Y040043D01*
X074062Y040037D01*
X073999Y040035D01*
X073936Y040037D01*
X073874Y040043D01*
X073812Y040053D01*
X073750Y040066D01*
X073690Y040084D01*
X073631Y040105D01*
X073573Y040130D01*
X073517Y040159D01*
X073463Y040191D01*
X073411Y040226D01*
X073362Y040264D01*
X073314Y040306D01*
X073270Y040350D01*
X073228Y040398D01*
X073190Y040447D01*
X073155Y040499D01*
X073123Y040553D01*
X073094Y040609D01*
X073069Y040667D01*
X073048Y040726D01*
X073030Y040786D01*
X073017Y040848D01*
X073007Y040910D01*
X073001Y040972D01*
X072999Y041035D01*
X073499Y041135D02*
X074499Y041135D01*
X074499Y041335D01*
X073999Y041335D01*
X073499Y041335D01*
X073499Y041135D01*
X073999Y041335D02*
X073999Y041685D01*
X074399Y041585D02*
X074499Y041585D01*
X074599Y041585D01*
X074499Y041585D02*
X074499Y041485D01*
X074499Y041585D02*
X074499Y041685D01*
X083374Y040185D02*
X083374Y037885D01*
X090374Y037885D01*
X090374Y038635D01*
X090335Y038637D01*
X090296Y038643D01*
X090258Y038652D01*
X090221Y038665D01*
X090185Y038682D01*
X090152Y038702D01*
X090120Y038726D01*
X090091Y038752D01*
X090065Y038781D01*
X090041Y038813D01*
X090021Y038846D01*
X090004Y038882D01*
X089991Y038919D01*
X089982Y038957D01*
X089976Y038996D01*
X089974Y039035D01*
X089976Y039074D01*
X089982Y039113D01*
X089991Y039151D01*
X090004Y039188D01*
X090021Y039224D01*
X090041Y039257D01*
X090065Y039289D01*
X090091Y039318D01*
X090120Y039344D01*
X090152Y039368D01*
X090185Y039388D01*
X090221Y039405D01*
X090258Y039418D01*
X090296Y039427D01*
X090335Y039433D01*
X090374Y039435D01*
X090374Y040185D01*
X083374Y040185D01*
X087274Y040885D02*
X089974Y040885D01*
X090033Y040887D01*
X090091Y040893D01*
X090150Y040902D01*
X090207Y040916D01*
X090263Y040933D01*
X090318Y040954D01*
X090372Y040978D01*
X090424Y041006D01*
X090474Y041037D01*
X090522Y041071D01*
X090567Y041108D01*
X090610Y041149D01*
X090651Y041192D01*
X090688Y041237D01*
X090722Y041285D01*
X090753Y041335D01*
X090781Y041387D01*
X090805Y041441D01*
X090826Y041496D01*
X090843Y041552D01*
X090857Y041609D01*
X090866Y041668D01*
X090872Y041726D01*
X090874Y041785D01*
X090872Y041844D01*
X090866Y041902D01*
X090857Y041961D01*
X090843Y042018D01*
X090826Y042074D01*
X090805Y042129D01*
X090781Y042183D01*
X090753Y042235D01*
X090722Y042285D01*
X090688Y042333D01*
X090651Y042378D01*
X090610Y042421D01*
X090567Y042462D01*
X090522Y042499D01*
X090474Y042533D01*
X090424Y042564D01*
X090372Y042592D01*
X090318Y042616D01*
X090263Y042637D01*
X090207Y042654D01*
X090150Y042668D01*
X090091Y042677D01*
X090033Y042683D01*
X089974Y042685D01*
X087274Y042685D01*
X087215Y042683D01*
X087157Y042677D01*
X087098Y042668D01*
X087041Y042654D01*
X086985Y042637D01*
X086930Y042616D01*
X086876Y042592D01*
X086824Y042564D01*
X086774Y042533D01*
X086726Y042499D01*
X086681Y042462D01*
X086638Y042421D01*
X086597Y042378D01*
X086560Y042333D01*
X086526Y042285D01*
X086495Y042235D01*
X086467Y042183D01*
X086443Y042129D01*
X086422Y042074D01*
X086405Y042018D01*
X086391Y041961D01*
X086382Y041902D01*
X086376Y041844D01*
X086374Y041785D01*
X086376Y041726D01*
X086382Y041668D01*
X086391Y041609D01*
X086405Y041552D01*
X086422Y041496D01*
X086443Y041441D01*
X086467Y041387D01*
X086495Y041335D01*
X086526Y041285D01*
X086560Y041237D01*
X086597Y041192D01*
X086638Y041149D01*
X086681Y041108D01*
X086726Y041071D01*
X086774Y041037D01*
X086824Y041006D01*
X086876Y040978D01*
X086930Y040954D01*
X086985Y040933D01*
X087041Y040916D01*
X087098Y040902D01*
X087157Y040893D01*
X087215Y040887D01*
X087274Y040885D01*
X086149Y036810D02*
X088849Y036810D01*
X088908Y036808D01*
X088966Y036802D01*
X089025Y036793D01*
X089082Y036779D01*
X089138Y036762D01*
X089193Y036741D01*
X089247Y036717D01*
X089299Y036689D01*
X089349Y036658D01*
X089397Y036624D01*
X089442Y036587D01*
X089485Y036546D01*
X089526Y036503D01*
X089563Y036458D01*
X089597Y036410D01*
X089628Y036360D01*
X089656Y036308D01*
X089680Y036254D01*
X089701Y036199D01*
X089718Y036143D01*
X089732Y036086D01*
X089741Y036027D01*
X089747Y035969D01*
X089749Y035910D01*
X089747Y035851D01*
X089741Y035793D01*
X089732Y035734D01*
X089718Y035677D01*
X089701Y035621D01*
X089680Y035566D01*
X089656Y035512D01*
X089628Y035460D01*
X089597Y035410D01*
X089563Y035362D01*
X089526Y035317D01*
X089485Y035274D01*
X089442Y035233D01*
X089397Y035196D01*
X089349Y035162D01*
X089299Y035131D01*
X089247Y035103D01*
X089193Y035079D01*
X089138Y035058D01*
X089082Y035041D01*
X089025Y035027D01*
X088966Y035018D01*
X088908Y035012D01*
X088849Y035010D01*
X086149Y035010D01*
X086090Y035012D01*
X086032Y035018D01*
X085973Y035027D01*
X085916Y035041D01*
X085860Y035058D01*
X085805Y035079D01*
X085751Y035103D01*
X085699Y035131D01*
X085649Y035162D01*
X085601Y035196D01*
X085556Y035233D01*
X085513Y035274D01*
X085472Y035317D01*
X085435Y035362D01*
X085401Y035410D01*
X085370Y035460D01*
X085342Y035512D01*
X085318Y035566D01*
X085297Y035621D01*
X085280Y035677D01*
X085266Y035734D01*
X085257Y035793D01*
X085251Y035851D01*
X085249Y035910D01*
X085251Y035969D01*
X085257Y036027D01*
X085266Y036086D01*
X085280Y036143D01*
X085297Y036199D01*
X085318Y036254D01*
X085342Y036308D01*
X085370Y036360D01*
X085401Y036410D01*
X085435Y036458D01*
X085472Y036503D01*
X085513Y036546D01*
X085556Y036587D01*
X085601Y036624D01*
X085649Y036658D01*
X085699Y036689D01*
X085751Y036717D01*
X085805Y036741D01*
X085860Y036762D01*
X085916Y036779D01*
X085973Y036793D01*
X086032Y036802D01*
X086090Y036808D01*
X086149Y036810D01*
X062274Y049310D02*
X041474Y049310D01*
X041474Y051410D01*
X041518Y051412D01*
X041561Y051418D01*
X041603Y051427D01*
X041645Y051440D01*
X041685Y051457D01*
X041724Y051477D01*
X041761Y051500D01*
X041795Y051527D01*
X041828Y051556D01*
X041857Y051589D01*
X041884Y051623D01*
X041907Y051660D01*
X041927Y051699D01*
X041944Y051739D01*
X041957Y051781D01*
X041966Y051823D01*
X041972Y051866D01*
X041974Y051910D01*
X041972Y051954D01*
X041966Y051997D01*
X041957Y052039D01*
X041944Y052081D01*
X041927Y052121D01*
X041907Y052160D01*
X041884Y052197D01*
X041857Y052231D01*
X041828Y052264D01*
X041795Y052293D01*
X041761Y052320D01*
X041724Y052343D01*
X041685Y052363D01*
X041645Y052380D01*
X041603Y052393D01*
X041561Y052402D01*
X041518Y052408D01*
X041474Y052410D01*
X041474Y054510D01*
X062274Y054510D01*
X062274Y049310D01*
X061874Y045310D02*
X061874Y040010D01*
X041874Y040010D01*
X041874Y042210D01*
X041913Y042212D01*
X041952Y042218D01*
X041990Y042227D01*
X042027Y042240D01*
X042063Y042257D01*
X042096Y042277D01*
X042128Y042301D01*
X042157Y042327D01*
X042183Y042356D01*
X042207Y042388D01*
X042227Y042421D01*
X042244Y042457D01*
X042257Y042494D01*
X042266Y042532D01*
X042272Y042571D01*
X042274Y042610D01*
X042272Y042649D01*
X042266Y042688D01*
X042257Y042726D01*
X042244Y042763D01*
X042227Y042799D01*
X042207Y042832D01*
X042183Y042864D01*
X042157Y042893D01*
X042128Y042919D01*
X042096Y042943D01*
X042063Y042963D01*
X042027Y042980D01*
X041990Y042993D01*
X041952Y043002D01*
X041913Y043008D01*
X041874Y043010D01*
X041874Y045310D01*
X061874Y045310D01*
X061749Y062910D02*
X061499Y063160D01*
X061499Y063660D01*
X061749Y063910D01*
X061499Y064160D01*
X061499Y064660D01*
X061749Y064910D01*
X061499Y065160D01*
X061499Y065660D01*
X061749Y065910D01*
X061499Y066160D01*
X061499Y066660D01*
X061749Y066910D01*
X061499Y067160D01*
X061499Y067660D01*
X061749Y067910D01*
X063249Y067910D01*
X063499Y067660D01*
X063499Y067160D01*
X063249Y066910D01*
X063499Y066660D01*
X063499Y066160D01*
X063249Y065910D01*
X063499Y065660D01*
X063499Y065160D01*
X063249Y064910D01*
X063499Y064660D01*
X063499Y064160D01*
X063249Y063910D01*
X063499Y063660D01*
X063499Y063160D01*
X063249Y062910D01*
X061749Y062910D01*
X061974Y071285D02*
X061274Y071285D01*
X061257Y071287D01*
X061240Y071291D01*
X061224Y071298D01*
X061210Y071308D01*
X061197Y071321D01*
X061187Y071335D01*
X061180Y071351D01*
X061176Y071368D01*
X061174Y071385D01*
X061174Y071535D01*
X061224Y071585D01*
X061224Y073485D01*
X061174Y073535D01*
X061174Y073685D01*
X061176Y073702D01*
X061180Y073719D01*
X061187Y073735D01*
X061197Y073749D01*
X061210Y073762D01*
X061224Y073772D01*
X061240Y073779D01*
X061257Y073783D01*
X061274Y073785D01*
X061974Y073785D01*
X061991Y073783D01*
X062008Y073779D01*
X062024Y073772D01*
X062038Y073762D01*
X062051Y073749D01*
X062061Y073735D01*
X062068Y073719D01*
X062072Y073702D01*
X062074Y073685D01*
X062074Y073535D01*
X062024Y073485D01*
X062024Y071585D01*
X062074Y071535D01*
X062074Y071385D01*
X062072Y071368D01*
X062068Y071351D01*
X062061Y071335D01*
X062051Y071321D01*
X062038Y071308D01*
X062024Y071298D01*
X062008Y071291D01*
X061991Y071287D01*
X061974Y071285D01*
X059819Y077910D02*
X059821Y077951D01*
X059827Y077992D01*
X059837Y078032D01*
X059850Y078071D01*
X059867Y078109D01*
X059888Y078145D01*
X059912Y078178D01*
X059939Y078209D01*
X059969Y078238D01*
X060001Y078264D01*
X060036Y078286D01*
X060073Y078305D01*
X060111Y078320D01*
X060151Y078332D01*
X060191Y078340D01*
X060232Y078344D01*
X060274Y078344D01*
X060315Y078340D01*
X060355Y078332D01*
X060395Y078320D01*
X060433Y078305D01*
X060470Y078286D01*
X060505Y078264D01*
X060537Y078238D01*
X060567Y078209D01*
X060594Y078178D01*
X060618Y078145D01*
X060639Y078109D01*
X060656Y078071D01*
X060669Y078032D01*
X060679Y077992D01*
X060685Y077951D01*
X060687Y077910D01*
X060685Y077869D01*
X060679Y077828D01*
X060669Y077788D01*
X060656Y077749D01*
X060639Y077711D01*
X060618Y077675D01*
X060594Y077642D01*
X060567Y077611D01*
X060537Y077582D01*
X060505Y077556D01*
X060470Y077534D01*
X060433Y077515D01*
X060395Y077500D01*
X060355Y077488D01*
X060315Y077480D01*
X060274Y077476D01*
X060232Y077476D01*
X060191Y077480D01*
X060151Y077488D01*
X060111Y077500D01*
X060073Y077515D01*
X060036Y077534D01*
X060001Y077556D01*
X059969Y077582D01*
X059939Y077611D01*
X059912Y077642D01*
X059888Y077675D01*
X059867Y077711D01*
X059850Y077749D01*
X059837Y077788D01*
X059827Y077828D01*
X059821Y077869D01*
X059819Y077910D01*
X059819Y079910D02*
X059821Y079951D01*
X059827Y079992D01*
X059837Y080032D01*
X059850Y080071D01*
X059867Y080109D01*
X059888Y080145D01*
X059912Y080178D01*
X059939Y080209D01*
X059969Y080238D01*
X060001Y080264D01*
X060036Y080286D01*
X060073Y080305D01*
X060111Y080320D01*
X060151Y080332D01*
X060191Y080340D01*
X060232Y080344D01*
X060274Y080344D01*
X060315Y080340D01*
X060355Y080332D01*
X060395Y080320D01*
X060433Y080305D01*
X060470Y080286D01*
X060505Y080264D01*
X060537Y080238D01*
X060567Y080209D01*
X060594Y080178D01*
X060618Y080145D01*
X060639Y080109D01*
X060656Y080071D01*
X060669Y080032D01*
X060679Y079992D01*
X060685Y079951D01*
X060687Y079910D01*
X060685Y079869D01*
X060679Y079828D01*
X060669Y079788D01*
X060656Y079749D01*
X060639Y079711D01*
X060618Y079675D01*
X060594Y079642D01*
X060567Y079611D01*
X060537Y079582D01*
X060505Y079556D01*
X060470Y079534D01*
X060433Y079515D01*
X060395Y079500D01*
X060355Y079488D01*
X060315Y079480D01*
X060274Y079476D01*
X060232Y079476D01*
X060191Y079480D01*
X060151Y079488D01*
X060111Y079500D01*
X060073Y079515D01*
X060036Y079534D01*
X060001Y079556D01*
X059969Y079582D01*
X059939Y079611D01*
X059912Y079642D01*
X059888Y079675D01*
X059867Y079711D01*
X059850Y079749D01*
X059837Y079788D01*
X059827Y079828D01*
X059821Y079869D01*
X059819Y079910D01*
X056194Y079910D02*
X056196Y079951D01*
X056202Y079992D01*
X056212Y080032D01*
X056225Y080071D01*
X056242Y080109D01*
X056263Y080145D01*
X056287Y080178D01*
X056314Y080209D01*
X056344Y080238D01*
X056376Y080264D01*
X056411Y080286D01*
X056448Y080305D01*
X056486Y080320D01*
X056526Y080332D01*
X056566Y080340D01*
X056607Y080344D01*
X056649Y080344D01*
X056690Y080340D01*
X056730Y080332D01*
X056770Y080320D01*
X056808Y080305D01*
X056845Y080286D01*
X056880Y080264D01*
X056912Y080238D01*
X056942Y080209D01*
X056969Y080178D01*
X056993Y080145D01*
X057014Y080109D01*
X057031Y080071D01*
X057044Y080032D01*
X057054Y079992D01*
X057060Y079951D01*
X057062Y079910D01*
X057060Y079869D01*
X057054Y079828D01*
X057044Y079788D01*
X057031Y079749D01*
X057014Y079711D01*
X056993Y079675D01*
X056969Y079642D01*
X056942Y079611D01*
X056912Y079582D01*
X056880Y079556D01*
X056845Y079534D01*
X056808Y079515D01*
X056770Y079500D01*
X056730Y079488D01*
X056690Y079480D01*
X056649Y079476D01*
X056607Y079476D01*
X056566Y079480D01*
X056526Y079488D01*
X056486Y079500D01*
X056448Y079515D01*
X056411Y079534D01*
X056376Y079556D01*
X056344Y079582D01*
X056314Y079611D01*
X056287Y079642D01*
X056263Y079675D01*
X056242Y079711D01*
X056225Y079749D01*
X056212Y079788D01*
X056202Y079828D01*
X056196Y079869D01*
X056194Y079910D01*
X056194Y077910D02*
X056196Y077951D01*
X056202Y077992D01*
X056212Y078032D01*
X056225Y078071D01*
X056242Y078109D01*
X056263Y078145D01*
X056287Y078178D01*
X056314Y078209D01*
X056344Y078238D01*
X056376Y078264D01*
X056411Y078286D01*
X056448Y078305D01*
X056486Y078320D01*
X056526Y078332D01*
X056566Y078340D01*
X056607Y078344D01*
X056649Y078344D01*
X056690Y078340D01*
X056730Y078332D01*
X056770Y078320D01*
X056808Y078305D01*
X056845Y078286D01*
X056880Y078264D01*
X056912Y078238D01*
X056942Y078209D01*
X056969Y078178D01*
X056993Y078145D01*
X057014Y078109D01*
X057031Y078071D01*
X057044Y078032D01*
X057054Y077992D01*
X057060Y077951D01*
X057062Y077910D01*
X057060Y077869D01*
X057054Y077828D01*
X057044Y077788D01*
X057031Y077749D01*
X057014Y077711D01*
X056993Y077675D01*
X056969Y077642D01*
X056942Y077611D01*
X056912Y077582D01*
X056880Y077556D01*
X056845Y077534D01*
X056808Y077515D01*
X056770Y077500D01*
X056730Y077488D01*
X056690Y077480D01*
X056649Y077476D01*
X056607Y077476D01*
X056566Y077480D01*
X056526Y077488D01*
X056486Y077500D01*
X056448Y077515D01*
X056411Y077534D01*
X056376Y077556D01*
X056344Y077582D01*
X056314Y077611D01*
X056287Y077642D01*
X056263Y077675D01*
X056242Y077711D01*
X056225Y077749D01*
X056212Y077788D01*
X056202Y077828D01*
X056196Y077869D01*
X056194Y077910D01*
X044724Y077860D02*
X044724Y063960D01*
X039524Y063960D01*
X039524Y077860D01*
X041624Y077860D01*
X041626Y077816D01*
X041632Y077773D01*
X041641Y077731D01*
X041654Y077689D01*
X041671Y077649D01*
X041691Y077610D01*
X041714Y077573D01*
X041741Y077539D01*
X041770Y077506D01*
X041803Y077477D01*
X041837Y077450D01*
X041874Y077427D01*
X041913Y077407D01*
X041953Y077390D01*
X041995Y077377D01*
X042037Y077368D01*
X042080Y077362D01*
X042124Y077360D01*
X042168Y077362D01*
X042211Y077368D01*
X042253Y077377D01*
X042295Y077390D01*
X042335Y077407D01*
X042374Y077427D01*
X042411Y077450D01*
X042445Y077477D01*
X042478Y077506D01*
X042507Y077539D01*
X042534Y077573D01*
X042557Y077610D01*
X042577Y077649D01*
X042594Y077689D01*
X042607Y077731D01*
X042616Y077773D01*
X042622Y077816D01*
X042624Y077860D01*
X044724Y077860D01*
X037020Y079281D02*
X036270Y079281D01*
X036268Y079242D01*
X036262Y079203D01*
X036253Y079165D01*
X036240Y079128D01*
X036223Y079092D01*
X036203Y079059D01*
X036179Y079027D01*
X036153Y078998D01*
X036124Y078972D01*
X036092Y078948D01*
X036059Y078928D01*
X036023Y078911D01*
X035986Y078898D01*
X035948Y078889D01*
X035909Y078883D01*
X035870Y078881D01*
X035831Y078883D01*
X035792Y078889D01*
X035754Y078898D01*
X035717Y078911D01*
X035681Y078928D01*
X035648Y078948D01*
X035616Y078972D01*
X035587Y078998D01*
X035561Y079027D01*
X035537Y079059D01*
X035517Y079092D01*
X035500Y079128D01*
X035487Y079165D01*
X035478Y079203D01*
X035472Y079242D01*
X035470Y079281D01*
X034720Y079281D01*
X034720Y069281D01*
X037020Y069281D01*
X037020Y079281D01*
X032196Y080780D02*
X031446Y080780D01*
X031444Y080741D01*
X031438Y080702D01*
X031429Y080664D01*
X031416Y080627D01*
X031399Y080591D01*
X031379Y080558D01*
X031355Y080526D01*
X031329Y080497D01*
X031300Y080471D01*
X031268Y080447D01*
X031235Y080427D01*
X031199Y080410D01*
X031162Y080397D01*
X031124Y080388D01*
X031085Y080382D01*
X031046Y080380D01*
X031007Y080382D01*
X030968Y080388D01*
X030930Y080397D01*
X030893Y080410D01*
X030857Y080427D01*
X030824Y080447D01*
X030792Y080471D01*
X030763Y080497D01*
X030737Y080526D01*
X030713Y080558D01*
X030693Y080591D01*
X030676Y080627D01*
X030663Y080664D01*
X030654Y080702D01*
X030648Y080741D01*
X030646Y080780D01*
X029896Y080780D01*
X029896Y070780D01*
X032196Y070780D01*
X032196Y080780D01*
X026024Y080785D02*
X023774Y080785D01*
X023700Y080965D02*
X023593Y081072D01*
X023700Y080965D02*
X023914Y080965D01*
X024020Y081072D01*
X024020Y081179D01*
X023914Y081285D01*
X023807Y081285D01*
X023914Y081285D02*
X024020Y081392D01*
X024020Y081499D01*
X023914Y081606D01*
X023700Y081606D01*
X023593Y081499D01*
X023376Y081499D02*
X023269Y081606D01*
X022949Y081606D01*
X022949Y080965D01*
X023269Y080965D01*
X023376Y081072D01*
X023376Y081499D01*
X022731Y081499D02*
X022625Y081606D01*
X022304Y081606D01*
X022304Y080965D01*
X022625Y080965D01*
X022731Y081072D01*
X022731Y081499D01*
X022974Y080785D02*
X020724Y080785D01*
X020724Y064785D01*
X026024Y064785D01*
X026024Y080785D01*
X023774Y080785D02*
X023772Y080746D01*
X023766Y080707D01*
X023757Y080669D01*
X023744Y080632D01*
X023727Y080596D01*
X023707Y080563D01*
X023683Y080531D01*
X023657Y080502D01*
X023628Y080476D01*
X023596Y080452D01*
X023563Y080432D01*
X023527Y080415D01*
X023490Y080402D01*
X023452Y080393D01*
X023413Y080387D01*
X023374Y080385D01*
X023335Y080387D01*
X023296Y080393D01*
X023258Y080402D01*
X023221Y080415D01*
X023185Y080432D01*
X023152Y080452D01*
X023120Y080476D01*
X023091Y080502D01*
X023065Y080531D01*
X023041Y080563D01*
X023021Y080596D01*
X023004Y080632D01*
X022991Y080669D01*
X022982Y080707D01*
X022976Y080746D01*
X022974Y080785D01*
X018878Y062624D02*
X018878Y061874D01*
X018917Y061872D01*
X018956Y061866D01*
X018994Y061857D01*
X019031Y061844D01*
X019067Y061827D01*
X019100Y061807D01*
X019132Y061783D01*
X019161Y061757D01*
X019187Y061728D01*
X019211Y061696D01*
X019231Y061663D01*
X019248Y061627D01*
X019261Y061590D01*
X019270Y061552D01*
X019276Y061513D01*
X019278Y061474D01*
X019276Y061435D01*
X019270Y061396D01*
X019261Y061358D01*
X019248Y061321D01*
X019231Y061285D01*
X019211Y061252D01*
X019187Y061220D01*
X019161Y061191D01*
X019132Y061165D01*
X019100Y061141D01*
X019067Y061121D01*
X019031Y061104D01*
X018994Y061091D01*
X018956Y061082D01*
X018917Y061076D01*
X018878Y061074D01*
X018878Y060324D01*
X028878Y060324D01*
X028878Y062624D01*
X018878Y062624D01*
X020724Y054660D02*
X026024Y054660D01*
X026024Y038660D01*
X023774Y038660D01*
X024071Y038481D02*
X024391Y038481D01*
X024498Y038374D01*
X024498Y037947D01*
X024391Y037840D01*
X024071Y037840D01*
X024071Y038481D01*
X024715Y038481D02*
X024715Y037840D01*
X025035Y037840D01*
X025142Y037947D01*
X025142Y038374D01*
X025035Y038481D01*
X024715Y038481D01*
X025360Y038374D02*
X025360Y038267D01*
X025466Y038160D01*
X025680Y038160D01*
X025787Y038054D01*
X025787Y037947D01*
X025680Y037840D01*
X025466Y037840D01*
X025360Y037947D01*
X025360Y038054D01*
X025466Y038160D01*
X025680Y038160D02*
X025787Y038267D01*
X025787Y038374D01*
X025680Y038481D01*
X025466Y038481D01*
X025360Y038374D01*
X023774Y038660D02*
X023772Y038699D01*
X023766Y038738D01*
X023757Y038776D01*
X023744Y038813D01*
X023727Y038849D01*
X023707Y038882D01*
X023683Y038914D01*
X023657Y038943D01*
X023628Y038969D01*
X023596Y038993D01*
X023563Y039013D01*
X023527Y039030D01*
X023490Y039043D01*
X023452Y039052D01*
X023413Y039058D01*
X023374Y039060D01*
X023335Y039058D01*
X023296Y039052D01*
X023258Y039043D01*
X023221Y039030D01*
X023185Y039013D01*
X023152Y038993D01*
X023120Y038969D01*
X023091Y038943D01*
X023065Y038914D01*
X023041Y038882D01*
X023021Y038849D01*
X023004Y038813D01*
X022991Y038776D01*
X022982Y038738D01*
X022976Y038699D01*
X022974Y038660D01*
X020724Y038660D01*
X020724Y054660D01*
X030599Y058660D02*
X035899Y058660D01*
X035899Y038660D01*
X033699Y038660D01*
X033946Y038431D02*
X033946Y037790D01*
X034266Y037790D01*
X034373Y037897D01*
X034373Y038324D01*
X034266Y038431D01*
X033946Y038431D01*
X034590Y038431D02*
X034910Y038431D01*
X035017Y038324D01*
X035017Y037897D01*
X034910Y037790D01*
X034590Y037790D01*
X034590Y038431D01*
X035235Y038217D02*
X035448Y038431D01*
X035448Y037790D01*
X035235Y037790D02*
X035662Y037790D01*
X033699Y038660D02*
X033697Y038699D01*
X033691Y038738D01*
X033682Y038776D01*
X033669Y038813D01*
X033652Y038849D01*
X033632Y038882D01*
X033608Y038914D01*
X033582Y038943D01*
X033553Y038969D01*
X033521Y038993D01*
X033488Y039013D01*
X033452Y039030D01*
X033415Y039043D01*
X033377Y039052D01*
X033338Y039058D01*
X033299Y039060D01*
X033260Y039058D01*
X033221Y039052D01*
X033183Y039043D01*
X033146Y039030D01*
X033110Y039013D01*
X033077Y038993D01*
X033045Y038969D01*
X033016Y038943D01*
X032990Y038914D01*
X032966Y038882D01*
X032946Y038849D01*
X032929Y038813D01*
X032916Y038776D01*
X032907Y038738D01*
X032901Y038699D01*
X032899Y038660D01*
X030599Y038660D01*
X030599Y058660D01*
X034024Y053285D02*
X034724Y053285D01*
X034741Y053283D01*
X034758Y053279D01*
X034774Y053272D01*
X034788Y053262D01*
X034801Y053249D01*
X034811Y053235D01*
X034818Y053219D01*
X034822Y053202D01*
X034824Y053185D01*
X034824Y053035D01*
X034774Y052985D01*
X034774Y051085D01*
X034824Y051035D01*
X034824Y050885D01*
X034822Y050868D01*
X034818Y050851D01*
X034811Y050835D01*
X034801Y050821D01*
X034788Y050808D01*
X034774Y050798D01*
X034758Y050791D01*
X034741Y050787D01*
X034724Y050785D01*
X034024Y050785D01*
X034007Y050787D01*
X033990Y050791D01*
X033974Y050798D01*
X033960Y050808D01*
X033947Y050821D01*
X033937Y050835D01*
X033930Y050851D01*
X033926Y050868D01*
X033924Y050885D01*
X033924Y051035D01*
X033974Y051085D01*
X033974Y052985D01*
X033924Y053035D01*
X033924Y053185D01*
X033926Y053202D01*
X033930Y053219D01*
X033937Y053235D01*
X033947Y053249D01*
X033960Y053262D01*
X033974Y053272D01*
X033990Y053279D01*
X034007Y053283D01*
X034024Y053285D01*
X041110Y041806D02*
X041004Y041699D01*
X041004Y041486D01*
X041110Y041379D01*
X041217Y041379D01*
X041324Y041486D01*
X041324Y041806D01*
X041537Y041806D02*
X041110Y041806D01*
X041537Y041806D02*
X041644Y041699D01*
X041644Y041486D01*
X041537Y041379D01*
X041537Y041162D02*
X041110Y041162D01*
X041004Y041055D01*
X041004Y040735D01*
X041644Y040735D01*
X041644Y041055D01*
X041537Y041162D01*
X041537Y040517D02*
X041110Y040517D01*
X041004Y040410D01*
X041004Y040090D01*
X041644Y040090D01*
X041644Y040410D01*
X041537Y040517D01*
D14*
X041339Y049445D02*
X041339Y049760D01*
X041234Y049865D01*
X040814Y049865D01*
X040709Y049760D01*
X040709Y049445D01*
X041339Y049445D01*
X041339Y050090D02*
X041339Y050405D01*
X041234Y050510D01*
X040814Y050510D01*
X040709Y050405D01*
X040709Y050090D01*
X041339Y050090D01*
X041339Y050734D02*
X041234Y050734D01*
X040814Y051154D01*
X040709Y051154D01*
X040709Y050734D01*
X042409Y078070D02*
X042725Y078070D01*
X042830Y078175D01*
X042830Y078595D01*
X042725Y078701D01*
X042409Y078701D01*
X042409Y078070D01*
X043054Y078070D02*
X043369Y078070D01*
X043474Y078175D01*
X043474Y078595D01*
X043369Y078701D01*
X043054Y078701D01*
X043054Y078070D01*
X043698Y078175D02*
X043803Y078070D01*
X044014Y078070D01*
X044119Y078175D01*
X044119Y078280D01*
X044014Y078385D01*
X043698Y078385D01*
X043698Y078175D01*
X043698Y078385D02*
X043909Y078595D01*
X044119Y078701D01*
X050199Y016096D02*
X050199Y015675D01*
X050199Y015886D02*
X049569Y015886D01*
X049779Y015675D01*
X049779Y015451D02*
X050199Y015451D01*
X049884Y015451D02*
X049884Y015031D01*
X049779Y015031D02*
X049569Y015241D01*
X049779Y015451D01*
X049779Y015031D02*
X050199Y015031D01*
X050094Y014807D02*
X049674Y014807D01*
X049569Y014702D01*
X049569Y014386D01*
X050199Y014386D01*
X050199Y014702D01*
X050094Y014807D01*
X043222Y004576D02*
X042802Y004576D01*
X042802Y003945D01*
X042802Y004260D02*
X043012Y004260D01*
X042577Y004260D02*
X042157Y004260D01*
X041933Y004576D02*
X041512Y004576D01*
X041723Y004576D02*
X041723Y003945D01*
X041288Y003945D02*
X041078Y004155D01*
X041183Y004155D02*
X040868Y004155D01*
X040868Y003945D02*
X040868Y004576D01*
X041183Y004576D01*
X041288Y004470D01*
X041288Y004260D01*
X041183Y004155D01*
X040644Y004260D02*
X040223Y004260D01*
X040223Y004365D02*
X040434Y004576D01*
X040644Y004365D01*
X040644Y003945D01*
X040223Y003945D02*
X040223Y004365D01*
X039999Y004470D02*
X039894Y004576D01*
X039684Y004576D01*
X039579Y004470D01*
X039579Y004050D01*
X039684Y003945D01*
X039894Y003945D01*
X039999Y004050D01*
X039355Y004050D02*
X039250Y003945D01*
X039039Y003945D01*
X038934Y004050D01*
X039039Y004260D02*
X039250Y004260D01*
X039355Y004155D01*
X039355Y004050D01*
X039039Y004260D02*
X038934Y004365D01*
X038934Y004470D01*
X039039Y004576D01*
X039250Y004576D01*
X039355Y004470D01*
X044909Y004276D02*
X045330Y003645D01*
X045554Y003645D02*
X045974Y004065D01*
X045974Y004170D01*
X045869Y004276D01*
X045659Y004276D01*
X045554Y004170D01*
X045330Y004276D02*
X044909Y003645D01*
X045554Y003645D02*
X045974Y003645D01*
D15*
X051599Y001710D02*
X051599Y005760D01*
X033899Y005760D02*
X033899Y001710D01*
X086149Y035210D02*
X088849Y035210D01*
X088900Y035212D01*
X088951Y035217D01*
X089001Y035227D01*
X089051Y035240D01*
X089099Y035256D01*
X089146Y035276D01*
X089192Y035300D01*
X089235Y035326D01*
X089277Y035356D01*
X089316Y035389D01*
X089353Y035424D01*
X089387Y035462D01*
X089418Y035503D01*
X089447Y035545D01*
X089472Y035590D01*
X089493Y035636D01*
X089512Y035684D01*
X089526Y035733D01*
X089537Y035783D01*
X089545Y035833D01*
X089549Y035884D01*
X089549Y035936D01*
X089545Y035987D01*
X089537Y036037D01*
X089526Y036087D01*
X089512Y036136D01*
X089493Y036184D01*
X089472Y036230D01*
X089447Y036275D01*
X089418Y036317D01*
X089387Y036358D01*
X089353Y036396D01*
X089316Y036431D01*
X089277Y036464D01*
X089235Y036494D01*
X089192Y036520D01*
X089146Y036544D01*
X089099Y036564D01*
X089051Y036580D01*
X089001Y036593D01*
X088951Y036603D01*
X088900Y036608D01*
X088849Y036610D01*
X086149Y036610D01*
X086098Y036608D01*
X086047Y036603D01*
X085997Y036593D01*
X085947Y036580D01*
X085899Y036564D01*
X085852Y036544D01*
X085806Y036520D01*
X085763Y036494D01*
X085721Y036464D01*
X085682Y036431D01*
X085645Y036396D01*
X085611Y036358D01*
X085580Y036317D01*
X085551Y036275D01*
X085526Y036230D01*
X085505Y036184D01*
X085486Y036136D01*
X085472Y036087D01*
X085461Y036037D01*
X085453Y035987D01*
X085449Y035936D01*
X085449Y035884D01*
X085453Y035833D01*
X085461Y035783D01*
X085472Y035733D01*
X085486Y035684D01*
X085505Y035636D01*
X085526Y035590D01*
X085551Y035545D01*
X085580Y035503D01*
X085611Y035462D01*
X085645Y035424D01*
X085682Y035389D01*
X085721Y035356D01*
X085763Y035326D01*
X085806Y035300D01*
X085852Y035276D01*
X085899Y035256D01*
X085947Y035240D01*
X085997Y035227D01*
X086047Y035217D01*
X086098Y035212D01*
X086149Y035210D01*
X087274Y041085D02*
X089974Y041085D01*
X090025Y041087D01*
X090076Y041092D01*
X090126Y041102D01*
X090176Y041115D01*
X090224Y041131D01*
X090271Y041151D01*
X090317Y041175D01*
X090360Y041201D01*
X090402Y041231D01*
X090441Y041264D01*
X090478Y041299D01*
X090512Y041337D01*
X090543Y041378D01*
X090572Y041420D01*
X090597Y041465D01*
X090618Y041511D01*
X090637Y041559D01*
X090651Y041608D01*
X090662Y041658D01*
X090670Y041708D01*
X090674Y041759D01*
X090674Y041811D01*
X090670Y041862D01*
X090662Y041912D01*
X090651Y041962D01*
X090637Y042011D01*
X090618Y042059D01*
X090597Y042105D01*
X090572Y042150D01*
X090543Y042192D01*
X090512Y042233D01*
X090478Y042271D01*
X090441Y042306D01*
X090402Y042339D01*
X090360Y042369D01*
X090317Y042395D01*
X090271Y042419D01*
X090224Y042439D01*
X090176Y042455D01*
X090126Y042468D01*
X090076Y042478D01*
X090025Y042483D01*
X089974Y042485D01*
X087274Y042485D01*
X087223Y042483D01*
X087172Y042478D01*
X087122Y042468D01*
X087072Y042455D01*
X087024Y042439D01*
X086977Y042419D01*
X086931Y042395D01*
X086888Y042369D01*
X086846Y042339D01*
X086807Y042306D01*
X086770Y042271D01*
X086736Y042233D01*
X086705Y042192D01*
X086676Y042150D01*
X086651Y042105D01*
X086630Y042059D01*
X086611Y042011D01*
X086597Y041962D01*
X086586Y041912D01*
X086578Y041862D01*
X086574Y041811D01*
X086574Y041759D01*
X086578Y041708D01*
X086586Y041658D01*
X086597Y041608D01*
X086611Y041559D01*
X086630Y041511D01*
X086651Y041465D01*
X086676Y041420D01*
X086705Y041378D01*
X086736Y041337D01*
X086770Y041299D01*
X086807Y041264D01*
X086846Y041231D01*
X086888Y041201D01*
X086931Y041175D01*
X086977Y041151D01*
X087024Y041131D01*
X087072Y041115D01*
X087122Y041102D01*
X087172Y041092D01*
X087223Y041087D01*
X087274Y041085D01*
D16*
X061624Y070535D02*
X061624Y070935D01*
X061624Y074135D02*
X061624Y074535D01*
X034374Y054035D02*
X034374Y053635D01*
X034374Y050435D02*
X034374Y050035D01*
D17*
X034374Y050615D03*
X034374Y053455D03*
X061624Y071115D03*
X061624Y073955D03*
D18*
X061999Y067410D03*
X061999Y066410D03*
X061999Y065410D03*
X061999Y064410D03*
X062999Y064410D03*
X062999Y065410D03*
X062999Y066410D03*
X062999Y067410D03*
X062999Y063410D03*
X061999Y063410D03*
X070499Y038285D03*
X070499Y037285D03*
X070499Y036285D03*
X071499Y036285D03*
X071499Y037285D03*
X071499Y038285D03*
X050499Y013660D03*
X050499Y012660D03*
X050499Y011660D03*
X039874Y011535D03*
X039874Y010535D03*
X039874Y009535D03*
D19*
X075992Y048154D02*
X075992Y053666D01*
X080874Y053666D01*
X080874Y048154D01*
X075992Y048154D01*
X080481Y048154D02*
X080481Y053666D01*
D20*
X079029Y052843D02*
X079029Y052768D01*
X078879Y052768D01*
X078879Y052843D01*
X078904Y052868D01*
X078929Y052868D01*
X078954Y052843D01*
X078954Y052768D01*
X078954Y052843D02*
X078979Y052868D01*
X079004Y052868D01*
X079029Y052843D01*
X079029Y052720D02*
X078954Y052645D01*
X078979Y052620D02*
X078879Y052720D01*
X078879Y052620D02*
X079029Y052620D01*
X079029Y052573D02*
X079029Y052473D01*
X078929Y052573D01*
X078904Y052573D01*
X078879Y052548D01*
X078879Y052498D01*
X078904Y052473D01*
X078904Y052426D02*
X078879Y052401D01*
X078879Y052351D01*
X078904Y052326D01*
X078929Y052326D01*
X078954Y052351D01*
X078954Y052401D01*
X078979Y052426D01*
X079004Y052426D01*
X079029Y052401D01*
X079029Y052351D01*
X079004Y052326D01*
X078954Y052278D02*
X078979Y052253D01*
X078979Y052178D01*
X079029Y052178D02*
X078879Y052178D01*
X078879Y052253D01*
X078904Y052278D01*
X078954Y052278D01*
D21*
X060962Y077024D02*
X057537Y077024D01*
X057537Y078796D01*
X060962Y078796D01*
X060962Y077024D01*
X060962Y079024D02*
X057537Y079024D01*
X057537Y080796D01*
X060962Y080796D01*
X060962Y079024D01*
X057337Y079024D02*
X053912Y079024D01*
X053912Y080796D01*
X057337Y080796D01*
X057337Y079024D01*
X057337Y078796D02*
X057337Y077024D01*
X053912Y077024D01*
X053912Y078796D01*
X057337Y078796D01*
D22*
X056628Y077910D03*
X056628Y079910D03*
X060253Y079910D03*
X060253Y077910D03*
D23*
X073999Y040835D03*
X046499Y009585D03*
X043999Y009585D03*
X041874Y009585D03*
X036374Y009585D03*
D24*
X037799Y011285D03*
D25*
X073211Y031159D03*
X073791Y031159D03*
D26*
X073873Y031160D02*
X066074Y038435D01*
X067375Y040035D01*
X068123Y040035D02*
X066074Y040435D01*
X058374Y042535D01*
X059374Y043786D02*
X070499Y036285D01*
X075249Y050536D01*
X076249Y050536D01*
X077528Y049571D01*
X089874Y037535D01*
X084874Y040535D02*
X054374Y048910D01*
X051249Y057285D01*
X050749Y057410D02*
X056374Y048910D01*
X055374Y048910D02*
X051749Y057410D01*
X050374Y059660D02*
X045499Y059785D01*
X048749Y057910D02*
X049249Y054660D01*
X049374Y054910D02*
X037874Y053660D01*
X037374Y052410D02*
X044374Y054910D01*
X043374Y054910D02*
X036249Y053160D01*
X036249Y052160D02*
X042374Y054910D01*
X045374Y046160D01*
X043748Y044035D02*
X037874Y016910D01*
X039874Y016910D02*
X055624Y077910D01*
X054624Y077910D02*
X052374Y073910D01*
X052874Y071160D02*
X052398Y065933D01*
X050249Y063785D02*
X059374Y071910D01*
X060374Y072910D02*
X055374Y072910D01*
X054874Y072535D02*
X057374Y072910D01*
X057374Y073910D02*
X037124Y041660D01*
X036249Y044160D02*
X060374Y067910D01*
X061624Y068600D01*
X061124Y069160D02*
X061999Y067410D01*
X061999Y066410D02*
X060874Y066410D01*
X060374Y066910D02*
X052999Y060410D01*
X054624Y060285D02*
X061374Y048910D01*
X060374Y048910D02*
X037124Y046660D01*
X037499Y046160D02*
X045874Y048160D01*
X045374Y048910D02*
X062624Y053160D01*
X060374Y054910D02*
X041749Y057910D01*
X040624Y057410D02*
X030249Y041160D01*
X031374Y042660D02*
X040249Y057785D01*
X059374Y054910D01*
X059874Y055160D02*
X059374Y048910D01*
X058374Y048910D02*
X058374Y049785D01*
X057374Y048910D02*
X075249Y051284D01*
X076544Y052249D01*
X077528Y052249D02*
X072374Y045035D01*
X070499Y043409D02*
X073999Y041535D01*
X070999Y039411D01*
X069498Y038035D01*
X066074Y039435D01*
X066074Y041435D02*
X068625Y043035D01*
X069250Y041285D01*
X069998Y041285D02*
X070999Y040159D01*
X070499Y038285D01*
X070499Y037285D02*
X069373Y043035D01*
X047374Y048910D01*
X046999Y048035D02*
X038499Y045160D01*
X037499Y047160D02*
X047374Y050785D01*
X048374Y050660D02*
X037124Y048160D01*
X037124Y048660D02*
X041625Y044535D01*
X042374Y045660D02*
X036249Y049160D01*
X038624Y051160D02*
X034874Y069160D01*
X028378Y059974D02*
X020139Y064800D01*
X019360Y064020D02*
X019249Y063103D01*
X030249Y053160D02*
X042374Y048910D01*
X044374Y048910D02*
X076249Y051284D01*
X077528Y051422D01*
X081499Y045535D02*
X070999Y031535D01*
X049874Y039035D01*
X048749Y007910D01*
X047249Y007910D02*
X044249Y007910D01*
X041249Y007910D02*
X038249Y007910D01*
X035249Y007910D01*
X042874Y016910D02*
X042374Y039660D01*
X044374Y040786D02*
X041064Y043410D01*
X045874Y039160D02*
X066124Y031785D01*
X067124Y031785D02*
X050249Y007910D01*
X048873Y004535D02*
X048874Y003410D01*
X047874Y016910D02*
X047874Y017786D01*
X047874Y018534D02*
X060124Y079035D01*
X058249Y079910D02*
X054624Y079910D01*
X055624Y079910D02*
X046874Y018534D01*
X046874Y017786D02*
X046874Y016910D01*
X045874Y016910D02*
X045874Y017786D01*
X045874Y018534D02*
X059749Y076910D01*
X059374Y068910D02*
X053374Y054910D01*
X052374Y054910D02*
X051873Y053785D01*
X051425Y051285D01*
X051374Y048910D01*
X050374Y048910D02*
X050323Y051285D01*
X050374Y048910D02*
X071499Y038285D01*
X071499Y037285D02*
X049374Y048910D01*
X048374Y048910D02*
X066074Y036435D01*
X068750Y038035D01*
X071499Y036285D01*
X071499Y037285D02*
X073125Y031160D01*
X069999Y031535D02*
X046874Y038859D01*
X050124Y042784D02*
X063624Y068410D01*
X062999Y067410D02*
X059374Y065910D01*
X057855Y065927D01*
X057863Y062545D01*
X059374Y062910D02*
X062999Y066410D01*
X061999Y065410D02*
X061749Y065410D01*
X060374Y064910D02*
X030249Y052160D01*
X036249Y054160D02*
X059374Y066910D01*
X060374Y065910D02*
X053874Y056410D01*
X054374Y057035D02*
X051374Y061910D01*
X050874Y062410D02*
X051249Y054535D01*
X051374Y054910D02*
X051125Y053785D01*
X050374Y054035D02*
X052374Y061910D01*
X054374Y061910D02*
X059124Y046660D01*
X066074Y042435D02*
X070499Y042661D01*
X075374Y039535D01*
X075374Y038535D02*
X073748Y038785D01*
X073000Y037785D01*
X073748Y037785D02*
X075374Y037535D01*
X083874Y040535D01*
X083874Y037535D02*
X043874Y016910D01*
X067124Y031785D02*
X082874Y045035D01*
X073999Y040535D02*
X072349Y039060D01*
X070999Y040159D01*
X072374Y039035D02*
X073748Y037785D01*
X073000Y038785D02*
X046374Y048910D01*
X040999Y051035D02*
X038749Y058660D01*
X048624Y057160D02*
X048499Y055535D01*
X052374Y054910D02*
X055374Y061910D01*
X059374Y062910D01*
X059374Y064910D02*
X057624Y061285D01*
X056374Y061910D02*
X054999Y060160D01*
X055374Y061910D02*
X050374Y062910D01*
X048374Y066910D01*
X060374Y068910D02*
X054374Y054910D01*
M02*
