G75*
G70*
%OFA0B0*%
%FSLAX24Y24*%
%IPPOS*%
%LPD*%
%AMOC8*
5,1,8,0,0,1.08239X$1,22.5*
%
%ADD10C,0.0780*%
%ADD11C,0.1340*%
%ADD12C,0.0715*%
%ADD13C,0.0710*%
%ADD14C,0.0940*%
%ADD15R,0.0671X0.0592*%
%ADD16R,0.0710X0.0592*%
%ADD17R,0.0592X0.0671*%
%ADD18R,0.0710X0.0790*%
%ADD19R,0.0790X0.0710*%
%ADD20OC8,0.0940*%
%ADD21R,0.0749X0.0749*%
%ADD22C,0.1852*%
%ADD23C,0.0907*%
%ADD24R,0.0710X0.0867*%
%ADD25R,0.0710X0.0789*%
%ADD26C,0.0915*%
%ADD27C,0.1270*%
%ADD28C,0.0710*%
%ADD29C,0.0513*%
%ADD30R,0.0789X0.0710*%
%ADD31C,0.0795*%
%ADD32R,0.0867X0.0710*%
%ADD33C,0.0867*%
%ADD34C,0.0867*%
%ADD35R,0.0789X0.0789*%
%ADD36R,0.0867X0.0671*%
%ADD37R,0.0867X0.1576*%
%ADD38C,0.1261*%
%ADD39C,0.2049*%
D10*
X018900Y010600D03*
X019900Y010600D03*
X020900Y010600D03*
X020900Y009600D03*
X019900Y009600D03*
X021900Y009600D03*
X022900Y009600D03*
X023900Y009600D03*
X024900Y009600D03*
X025900Y009600D03*
X026900Y009600D03*
X027900Y009600D03*
X028900Y009600D03*
X029900Y009600D03*
X029900Y010600D03*
X028900Y010600D03*
X027900Y010600D03*
X026900Y010600D03*
X025900Y010600D03*
X024900Y010600D03*
X023900Y010600D03*
X022900Y010600D03*
X021900Y010600D03*
X019900Y011600D03*
X018900Y011600D03*
X018900Y012600D03*
X019900Y012600D03*
X019900Y013600D03*
X018900Y013600D03*
X018900Y014600D03*
X019900Y014600D03*
X019900Y015600D03*
X018900Y015600D03*
X018900Y016600D03*
X019900Y016600D03*
X019900Y017600D03*
X018900Y017600D03*
X018900Y018600D03*
X019900Y018600D03*
X019900Y019600D03*
X018900Y019600D03*
X018900Y020600D03*
X019900Y020600D03*
X020900Y020600D03*
X021900Y020600D03*
X022900Y020600D03*
X023900Y020600D03*
X024900Y020600D03*
X025900Y020600D03*
X026900Y020600D03*
X027900Y020600D03*
X028900Y020600D03*
X029900Y020600D03*
X030900Y020600D03*
X030900Y019600D03*
X029900Y019600D03*
X029900Y018600D03*
X030900Y018600D03*
X030900Y017600D03*
X029900Y017600D03*
X029900Y016600D03*
X030900Y016600D03*
X030900Y015600D03*
X029900Y015600D03*
X029900Y014600D03*
X030900Y014600D03*
X030900Y013600D03*
X029900Y013600D03*
X029900Y012600D03*
X030900Y012600D03*
X030900Y011600D03*
X029900Y011600D03*
X030900Y010600D03*
X021275Y018163D03*
X020900Y021600D03*
X019900Y021600D03*
X021900Y021600D03*
X022900Y021600D03*
X023900Y021600D03*
X024900Y021600D03*
X025900Y021600D03*
X026900Y021600D03*
X027900Y021600D03*
X028900Y021600D03*
X029900Y021600D03*
X063912Y044254D03*
X064739Y043270D03*
D11*
X027162Y017862D03*
X022638Y017862D03*
X022638Y013339D03*
X027162Y013339D03*
D12*
X033833Y013100D02*
X034467Y013100D01*
X034467Y012100D02*
X033833Y012100D01*
X033833Y011100D02*
X034467Y011100D01*
X034467Y010100D02*
X033833Y010100D01*
X033833Y009100D02*
X034467Y009100D01*
X034467Y008100D02*
X033833Y008100D01*
X033833Y007100D02*
X034467Y007100D01*
X034467Y006100D02*
X033833Y006100D01*
X039833Y006100D02*
X040467Y006100D01*
X040467Y007100D02*
X039833Y007100D01*
X039833Y008100D02*
X040467Y008100D01*
X040467Y009100D02*
X039833Y009100D01*
X039833Y010100D02*
X040467Y010100D01*
X041586Y010104D02*
X042221Y010104D01*
X042221Y009104D02*
X041586Y009104D01*
X041586Y008104D02*
X042221Y008104D01*
X042221Y007104D02*
X041586Y007104D01*
X041586Y006104D02*
X042221Y006104D01*
X042221Y005104D02*
X041586Y005104D01*
X044586Y005104D02*
X045221Y005104D01*
X045221Y006104D02*
X044586Y006104D01*
X044586Y007104D02*
X045221Y007104D01*
X045221Y008104D02*
X044586Y008104D01*
X044586Y009104D02*
X045221Y009104D01*
X045221Y010104D02*
X044586Y010104D01*
X044586Y011104D02*
X045221Y011104D01*
X045221Y012104D02*
X044586Y012104D01*
X044586Y013104D02*
X045221Y013104D01*
X045221Y014104D02*
X044586Y014104D01*
X042221Y014104D02*
X041586Y014104D01*
X041586Y013104D02*
X042221Y013104D01*
X042221Y012104D02*
X041586Y012104D01*
X041586Y011104D02*
X042221Y011104D01*
X040467Y011100D02*
X039833Y011100D01*
X039833Y012100D02*
X040467Y012100D01*
X040467Y013100D02*
X039833Y013100D01*
X039833Y014100D02*
X040467Y014100D01*
X040467Y015100D02*
X039833Y015100D01*
X039833Y016100D02*
X040467Y016100D01*
X040467Y017100D02*
X039833Y017100D01*
X039833Y018100D02*
X040467Y018100D01*
X040467Y019100D02*
X039833Y019100D01*
X034467Y019100D02*
X033833Y019100D01*
X033833Y018100D02*
X034467Y018100D01*
X034467Y017100D02*
X033833Y017100D01*
X033833Y016100D02*
X034467Y016100D01*
X034467Y015100D02*
X033833Y015100D01*
X033833Y014100D02*
X034467Y014100D01*
X047285Y014105D02*
X047920Y014105D01*
X047920Y013105D02*
X047285Y013105D01*
X047285Y012105D02*
X047920Y012105D01*
X047920Y011105D02*
X047285Y011105D01*
X047285Y010105D02*
X047920Y010105D01*
X047920Y009105D02*
X047285Y009105D01*
X047285Y008105D02*
X047920Y008105D01*
X047920Y007105D02*
X047285Y007105D01*
X047285Y006105D02*
X047920Y006105D01*
X047920Y005105D02*
X047285Y005105D01*
X050285Y005105D02*
X050920Y005105D01*
X050920Y006105D02*
X050285Y006105D01*
X050285Y007105D02*
X050920Y007105D01*
X050920Y008105D02*
X050285Y008105D01*
X050285Y009105D02*
X050920Y009105D01*
X050920Y010105D02*
X050285Y010105D01*
X050285Y011105D02*
X050920Y011105D01*
X050920Y012105D02*
X050285Y012105D01*
X050285Y013105D02*
X050920Y013105D01*
X050920Y014105D02*
X050285Y014105D01*
X053458Y014100D02*
X054092Y014100D01*
X054092Y013100D02*
X053458Y013100D01*
X053458Y012100D02*
X054092Y012100D01*
X054092Y011100D02*
X053458Y011100D01*
X053458Y010100D02*
X054092Y010100D01*
X054092Y009100D02*
X053458Y009100D01*
X053458Y008100D02*
X054092Y008100D01*
X054092Y007100D02*
X053458Y007100D01*
X053458Y006100D02*
X054092Y006100D01*
X054092Y005100D02*
X053458Y005100D01*
X059458Y005100D02*
X060092Y005100D01*
X060092Y006100D02*
X059458Y006100D01*
X059458Y007100D02*
X060092Y007100D01*
X060092Y008100D02*
X059458Y008100D01*
X059458Y009100D02*
X060092Y009100D01*
X060092Y010100D02*
X059458Y010100D01*
X059458Y011100D02*
X060092Y011100D01*
X060092Y012100D02*
X059458Y012100D01*
X059458Y013100D02*
X060092Y013100D01*
X060092Y014100D02*
X059458Y014100D01*
X059458Y015100D02*
X060092Y015100D01*
X060092Y016100D02*
X059458Y016100D01*
X059458Y017100D02*
X060092Y017100D01*
X060092Y018100D02*
X059458Y018100D01*
X059458Y019100D02*
X060092Y019100D01*
X060092Y020100D02*
X059458Y020100D01*
X059021Y022594D02*
X059021Y023229D01*
X058021Y023229D02*
X058021Y022594D01*
X057021Y022594D02*
X057021Y023229D01*
X056021Y023229D02*
X056021Y022594D01*
X055021Y022594D02*
X055021Y023229D01*
X054021Y023229D02*
X054021Y022594D01*
X053021Y022594D02*
X053021Y023229D01*
X052021Y023229D02*
X052021Y022594D01*
X053458Y020100D02*
X054092Y020100D01*
X054092Y019100D02*
X053458Y019100D01*
X053458Y018100D02*
X054092Y018100D01*
X054092Y017100D02*
X053458Y017100D01*
X053458Y016100D02*
X054092Y016100D01*
X054092Y015100D02*
X053458Y015100D01*
X060021Y022594D02*
X060021Y023229D01*
X061021Y023229D02*
X061021Y022594D01*
X061021Y025594D02*
X061021Y026229D01*
X060021Y026229D02*
X060021Y025594D01*
X059021Y025594D02*
X059021Y026229D01*
X058021Y026229D02*
X058021Y025594D01*
X057021Y025594D02*
X057021Y026229D01*
X056021Y026229D02*
X056021Y025594D01*
X055021Y025594D02*
X055021Y026229D01*
X054021Y026229D02*
X054021Y025594D01*
X053021Y025594D02*
X053021Y026229D01*
X052021Y026229D02*
X052021Y025594D01*
X050217Y027225D02*
X049583Y027225D01*
X049583Y028225D02*
X050217Y028225D01*
X050217Y029225D02*
X049583Y029225D01*
X049583Y030225D02*
X050217Y030225D01*
X050217Y031225D02*
X049583Y031225D01*
X049583Y032225D02*
X050217Y032225D01*
X050217Y033225D02*
X049583Y033225D01*
X049583Y034225D02*
X050217Y034225D01*
X050217Y035225D02*
X049583Y035225D01*
X049583Y036225D02*
X050217Y036225D01*
X050217Y037225D02*
X049583Y037225D01*
X049583Y038225D02*
X050217Y038225D01*
X050217Y039225D02*
X049583Y039225D01*
X049583Y040225D02*
X050217Y040225D01*
X050217Y041225D02*
X049583Y041225D01*
X049583Y042225D02*
X050217Y042225D01*
X050217Y043225D02*
X049583Y043225D01*
X049583Y044225D02*
X050217Y044225D01*
X050217Y045225D02*
X049583Y045225D01*
X049583Y046225D02*
X050217Y046225D01*
X053458Y046225D02*
X054092Y046225D01*
X054092Y045225D02*
X053458Y045225D01*
X053458Y044225D02*
X054092Y044225D01*
X054092Y043225D02*
X053458Y043225D01*
X053458Y042225D02*
X054092Y042225D01*
X054092Y041225D02*
X053458Y041225D01*
X053458Y040225D02*
X054092Y040225D01*
X054092Y039225D02*
X053458Y039225D01*
X053458Y038225D02*
X054092Y038225D01*
X054092Y037225D02*
X053458Y037225D01*
X053458Y036225D02*
X054092Y036225D01*
X054092Y035225D02*
X053458Y035225D01*
X053458Y034225D02*
X054092Y034225D01*
X054092Y033225D02*
X053458Y033225D01*
X053458Y032225D02*
X054092Y032225D01*
X054092Y031225D02*
X053458Y031225D01*
X059458Y031225D02*
X060092Y031225D01*
X060092Y032225D02*
X059458Y032225D01*
X059458Y033225D02*
X060092Y033225D01*
X060092Y034225D02*
X059458Y034225D01*
X059458Y035225D02*
X060092Y035225D01*
X060092Y036225D02*
X059458Y036225D01*
X059458Y037225D02*
X060092Y037225D01*
X060092Y038225D02*
X059458Y038225D01*
X059458Y039225D02*
X060092Y039225D01*
X060092Y040225D02*
X059458Y040225D01*
X059458Y041225D02*
X060092Y041225D01*
X060092Y042225D02*
X059458Y042225D01*
X059458Y043225D02*
X060092Y043225D01*
X060092Y044225D02*
X059458Y044225D01*
X059458Y045225D02*
X060092Y045225D01*
X060092Y046225D02*
X059458Y046225D01*
X044217Y046225D02*
X043583Y046225D01*
X043583Y045225D02*
X044217Y045225D01*
X044217Y044225D02*
X043583Y044225D01*
X043583Y043225D02*
X044217Y043225D01*
X044217Y042225D02*
X043583Y042225D01*
X043583Y041225D02*
X044217Y041225D01*
X044217Y040225D02*
X043583Y040225D01*
X043583Y039225D02*
X044217Y039225D01*
X044217Y038225D02*
X043583Y038225D01*
X043583Y037225D02*
X044217Y037225D01*
X044217Y036225D02*
X043583Y036225D01*
X043583Y035225D02*
X044217Y035225D01*
X044217Y034225D02*
X043583Y034225D01*
X043583Y033225D02*
X044217Y033225D01*
X044217Y032225D02*
X043583Y032225D01*
X043583Y031225D02*
X044217Y031225D01*
X044217Y030225D02*
X043583Y030225D01*
X043583Y029225D02*
X044217Y029225D01*
X044217Y028225D02*
X043583Y028225D01*
X043583Y027225D02*
X044217Y027225D01*
X039842Y027225D02*
X039208Y027225D01*
X039208Y028225D02*
X039842Y028225D01*
X039842Y029225D02*
X039208Y029225D01*
X039208Y030225D02*
X039842Y030225D01*
X039842Y031225D02*
X039208Y031225D01*
X039208Y032225D02*
X039842Y032225D01*
X039842Y033225D02*
X039208Y033225D01*
X039208Y034225D02*
X039842Y034225D01*
X039842Y035225D02*
X039208Y035225D01*
X039208Y036225D02*
X039842Y036225D01*
X039842Y037225D02*
X039208Y037225D01*
X039208Y038225D02*
X039842Y038225D01*
X039842Y039225D02*
X039208Y039225D01*
X039208Y040225D02*
X039842Y040225D01*
X039842Y041225D02*
X039208Y041225D01*
X039208Y042225D02*
X039842Y042225D01*
X039842Y043225D02*
X039208Y043225D01*
X039208Y044225D02*
X039842Y044225D01*
X039842Y045225D02*
X039208Y045225D01*
X039208Y046225D02*
X039842Y046225D01*
X033842Y046225D02*
X033208Y046225D01*
X033208Y045225D02*
X033842Y045225D01*
X033842Y044225D02*
X033208Y044225D01*
X033208Y043225D02*
X033842Y043225D01*
X033842Y042225D02*
X033208Y042225D01*
X033208Y041225D02*
X033842Y041225D01*
X033842Y040225D02*
X033208Y040225D01*
X033208Y039225D02*
X033842Y039225D01*
X033842Y038225D02*
X033208Y038225D01*
X033208Y037225D02*
X033842Y037225D01*
X033842Y036225D02*
X033208Y036225D01*
X033208Y035225D02*
X033842Y035225D01*
X033842Y034225D02*
X033208Y034225D01*
X033208Y033225D02*
X033842Y033225D01*
X033842Y032225D02*
X033208Y032225D01*
X033208Y031225D02*
X033842Y031225D01*
X033842Y030225D02*
X033208Y030225D01*
X033208Y029225D02*
X033842Y029225D01*
X033842Y028225D02*
X033208Y028225D01*
X033208Y027225D02*
X033842Y027225D01*
X029775Y031408D02*
X029775Y032043D01*
X028775Y032043D02*
X028775Y031408D01*
X027775Y031408D02*
X027775Y032043D01*
X026775Y032043D02*
X026775Y031408D01*
X025775Y031408D02*
X025775Y032043D01*
X024775Y032043D02*
X024775Y031408D01*
X023775Y031408D02*
X023775Y032043D01*
X022775Y032043D02*
X022775Y031408D01*
X021775Y031408D02*
X021775Y032043D01*
X020775Y032043D02*
X020775Y031408D01*
X019775Y031408D02*
X019775Y032043D01*
X018775Y032043D02*
X018775Y031408D01*
X017775Y031408D02*
X017775Y032043D01*
X016775Y032043D02*
X016775Y031408D01*
X015775Y031408D02*
X015775Y032043D01*
X014775Y032043D02*
X014775Y031408D01*
X013775Y031408D02*
X013775Y032043D01*
X012775Y032043D02*
X012775Y031408D01*
X011775Y031408D02*
X011775Y032043D01*
X010775Y032043D02*
X010775Y031408D01*
X007592Y031475D02*
X006958Y031475D01*
X006958Y030475D02*
X007592Y030475D01*
X007592Y029475D02*
X006958Y029475D01*
X006958Y028475D02*
X007592Y028475D01*
X007592Y027475D02*
X006958Y027475D01*
X007275Y026293D02*
X007275Y025658D01*
X008275Y025658D02*
X008275Y026293D01*
X009275Y026293D02*
X009275Y025658D01*
X009275Y023293D02*
X009275Y022658D01*
X008275Y022658D02*
X008275Y023293D01*
X007275Y023293D02*
X007275Y022658D01*
X006275Y022658D02*
X006275Y023293D01*
X005275Y023293D02*
X005275Y022658D01*
X004275Y022658D02*
X004275Y023293D01*
X003275Y023293D02*
X003275Y022658D01*
X003275Y025658D02*
X003275Y026293D01*
X004275Y026293D02*
X004275Y025658D01*
X005275Y025658D02*
X005275Y026293D01*
X006275Y026293D02*
X006275Y025658D01*
X003592Y027475D02*
X002958Y027475D01*
X002958Y028475D02*
X003592Y028475D01*
X003592Y029475D02*
X002958Y029475D01*
X002958Y030475D02*
X003592Y030475D01*
X003592Y031475D02*
X002958Y031475D01*
X002958Y032475D02*
X003592Y032475D01*
X003592Y033475D02*
X002958Y033475D01*
X002958Y034475D02*
X003592Y034475D01*
X003592Y035475D02*
X002958Y035475D01*
X002958Y036475D02*
X003592Y036475D01*
X003592Y037475D02*
X002958Y037475D01*
X002958Y038475D02*
X003592Y038475D01*
X006958Y038475D02*
X007592Y038475D01*
X007592Y037475D02*
X006958Y037475D01*
X006958Y036475D02*
X007592Y036475D01*
X007592Y035475D02*
X006958Y035475D01*
X006958Y034475D02*
X007592Y034475D01*
X007592Y033475D02*
X006958Y033475D01*
X006958Y032475D02*
X007592Y032475D01*
X010775Y037408D02*
X010775Y038043D01*
X011775Y038043D02*
X011775Y037408D01*
X012775Y037408D02*
X012775Y038043D01*
X013775Y038043D02*
X013775Y037408D01*
X014775Y037408D02*
X014775Y038043D01*
X015775Y038043D02*
X015775Y037408D01*
X016775Y037408D02*
X016775Y038043D01*
X017775Y038043D02*
X017775Y037408D01*
X018775Y037408D02*
X018775Y038043D01*
X019775Y038043D02*
X019775Y037408D01*
X020775Y037408D02*
X020775Y038043D01*
X021775Y038043D02*
X021775Y037408D01*
X022775Y037408D02*
X022775Y038043D01*
X023775Y038043D02*
X023775Y037408D01*
X024775Y037408D02*
X024775Y038043D01*
X025775Y038043D02*
X025775Y037408D01*
X026775Y037408D02*
X026775Y038043D01*
X027775Y038043D02*
X027775Y037408D01*
X028775Y037408D02*
X028775Y038043D01*
X029775Y038043D02*
X029775Y037408D01*
X014967Y019725D02*
X014333Y019725D01*
X014333Y018725D02*
X014967Y018725D01*
X014967Y017725D02*
X014333Y017725D01*
D13*
X036835Y018100D02*
X037465Y018100D01*
X037465Y017100D02*
X036835Y017100D01*
X036835Y016100D02*
X037465Y016100D01*
X037465Y015100D02*
X036835Y015100D01*
X036835Y014100D02*
X037465Y014100D01*
X037465Y013100D02*
X036835Y013100D01*
X036835Y012100D02*
X037465Y012100D01*
X037465Y011100D02*
X036835Y011100D01*
X036835Y010100D02*
X037465Y010100D01*
X037465Y009100D02*
X036835Y009100D01*
X036835Y008100D02*
X037465Y008100D01*
X037465Y007100D02*
X036835Y007100D01*
X036835Y006100D02*
X037465Y006100D01*
X037465Y019100D02*
X036835Y019100D01*
D14*
X032838Y019600D03*
X036400Y022975D03*
X039900Y023725D03*
X040400Y025663D03*
X039400Y026225D03*
X038150Y026350D03*
X035525Y026475D03*
X029900Y024600D03*
X029025Y026975D03*
X027900Y026975D03*
X026025Y023975D03*
X024900Y023975D03*
X023775Y023975D03*
X021400Y023350D03*
X019400Y023475D03*
X018775Y024350D03*
X019150Y025850D03*
X020150Y025600D03*
X021150Y025475D03*
X017900Y022975D03*
X013400Y019350D03*
X012525Y018600D03*
X011275Y018600D03*
X011900Y017725D03*
X010150Y017725D03*
X009025Y017725D03*
X007213Y017788D03*
X008775Y019038D03*
X010775Y019725D03*
X012150Y022100D03*
X017150Y018725D03*
X015900Y015225D03*
X017150Y014725D03*
X016900Y013225D03*
X021525Y014788D03*
X024900Y013913D03*
X028650Y016163D03*
X025150Y018413D03*
X028963Y013100D03*
X032838Y014413D03*
X042900Y021225D03*
X044900Y019975D03*
X046525Y022600D03*
X049525Y025975D03*
X047025Y027100D03*
X047775Y027975D03*
X046088Y031100D03*
X042525Y031100D03*
X041400Y027600D03*
X042025Y025975D03*
X036025Y033850D03*
X036525Y034725D03*
X036150Y037725D03*
X041900Y038850D03*
X046400Y040100D03*
X047650Y040725D03*
X048525Y041225D03*
X047775Y038850D03*
X045525Y041975D03*
X047900Y043975D03*
X041775Y045100D03*
X041275Y043725D03*
X042525Y034725D03*
X046088Y035100D03*
X055775Y041225D03*
X056400Y044225D03*
X057275Y038100D03*
X061900Y035975D03*
X064650Y033725D03*
X064400Y031350D03*
X062275Y029600D03*
X061400Y031100D03*
X062025Y018475D03*
X048025Y017100D03*
X056775Y006663D03*
X055775Y005100D03*
X020525Y008788D03*
X016900Y009225D03*
X003400Y009975D03*
X003400Y010975D03*
X001150Y008288D03*
X002775Y014475D03*
X003025Y016350D03*
X003275Y019275D03*
X003275Y021175D03*
X010650Y027025D03*
X008525Y028850D03*
X010650Y028925D03*
X013275Y029225D03*
X016025Y029850D03*
X017150Y030100D03*
X011650Y034100D03*
X011650Y036100D03*
X011650Y039475D03*
X014025Y040100D03*
X016775Y040100D03*
X019775Y040100D03*
X024275Y039475D03*
X025275Y042600D03*
X002650Y040288D03*
X001650Y041663D03*
D15*
X012775Y033600D03*
X012775Y032851D03*
X019775Y032851D03*
X019775Y033600D03*
X020775Y033600D03*
X020775Y032851D03*
X021775Y032851D03*
X021775Y033600D03*
X022775Y033600D03*
X022775Y032851D03*
X023775Y032851D03*
X023775Y033600D03*
X024650Y033600D03*
X024650Y032851D03*
X026400Y032851D03*
X026400Y033600D03*
X029025Y033851D03*
X029025Y034600D03*
X029900Y034600D03*
X029900Y033851D03*
X027775Y035851D03*
X027775Y036600D03*
X026775Y036600D03*
X026775Y035851D03*
X023025Y035350D03*
X022025Y035226D03*
X022025Y035975D03*
X023025Y034601D03*
X025775Y029350D03*
X025775Y028601D03*
X034650Y036976D03*
X034650Y037725D03*
X028775Y019787D03*
X028775Y019039D03*
X024900Y008787D03*
X024900Y008039D03*
X021400Y008162D03*
X021400Y007414D03*
X013150Y013601D03*
X013150Y014350D03*
X012650Y015226D03*
X012650Y015975D03*
X011775Y014350D03*
X011775Y013601D03*
X007150Y014976D03*
X007150Y015725D03*
X001963Y012787D03*
X001963Y012039D03*
X004275Y021164D03*
X004275Y021912D03*
X060900Y021225D03*
X060900Y020476D03*
X061025Y024164D03*
X061025Y024912D03*
D16*
X040900Y035351D03*
X040900Y036100D03*
X025525Y033600D03*
X025525Y032851D03*
D17*
X025399Y035725D03*
X024651Y035725D03*
X023774Y036475D03*
X023026Y036475D03*
X029026Y043163D03*
X029774Y043163D03*
X047026Y035225D03*
X047774Y035225D03*
X063151Y043350D03*
X063899Y043350D03*
X017774Y012225D03*
X017026Y012225D03*
X017026Y011350D03*
X017774Y011350D03*
X017774Y010475D03*
X017026Y010475D03*
X018213Y009163D03*
X018962Y009163D03*
X010899Y014600D03*
X010151Y014600D03*
X011026Y015975D03*
X011774Y015975D03*
X009024Y016100D03*
X008276Y016100D03*
X011776Y019975D03*
X012524Y019975D03*
X006149Y021850D03*
X005401Y021850D03*
X005149Y024850D03*
X004401Y024850D03*
X006401Y024850D03*
X007149Y024850D03*
X005149Y030475D03*
X004401Y030475D03*
X004526Y034038D03*
X005274Y034038D03*
X010776Y040475D03*
X011524Y040475D03*
X002524Y009975D03*
X001776Y009975D03*
X005526Y008850D03*
X006274Y008850D03*
X043026Y005100D03*
X043774Y005100D03*
X048776Y005100D03*
X049524Y005100D03*
D18*
X009585Y027475D03*
X008465Y027475D03*
X008403Y035100D03*
X008403Y036100D03*
X009522Y036100D03*
X009522Y035100D03*
X024715Y036600D03*
X025835Y036600D03*
X025590Y034850D03*
X026710Y034850D03*
X028715Y036100D03*
X029835Y036100D03*
X021835Y045600D03*
X020715Y045600D03*
X060965Y042225D03*
X062085Y042225D03*
X063090Y042100D03*
X064210Y042100D03*
D19*
X028150Y034910D03*
X028150Y033791D03*
X027275Y033910D03*
X027275Y032791D03*
X019025Y045041D03*
X019025Y046160D03*
X009025Y015160D03*
X009025Y014041D03*
X015963Y011910D03*
X015963Y010791D03*
D20*
X009775Y019725D03*
X011150Y022100D03*
X011150Y023100D03*
X012150Y023100D03*
X012150Y024100D03*
X011150Y024100D03*
X015025Y023975D03*
X016025Y023975D03*
X016025Y022975D03*
X015025Y022975D03*
X015025Y021975D03*
X016025Y021975D03*
X016025Y020975D03*
X015025Y020975D03*
X015025Y024975D03*
X016025Y024975D03*
X009525Y028850D03*
X010650Y039475D03*
X013025Y040100D03*
X015775Y040100D03*
X018775Y040100D03*
X023275Y039475D03*
X025275Y041600D03*
X001650Y040288D03*
D21*
X062061Y043270D03*
X062061Y044254D03*
X062888Y044254D03*
X064739Y044254D03*
D22*
X063400Y045750D03*
D23*
X022275Y007350D03*
X022275Y006350D03*
X022275Y005350D03*
X020275Y005350D03*
X020275Y006350D03*
X020275Y007350D03*
X018275Y007350D03*
X018275Y006350D03*
X018275Y005350D03*
X016275Y005350D03*
X016275Y006350D03*
X016275Y007350D03*
D24*
X006076Y032475D03*
X004974Y032475D03*
D25*
X004724Y028475D03*
X005826Y028475D03*
D26*
X008525Y041308D02*
X008525Y042143D01*
X009275Y043308D02*
X009275Y044143D01*
X010775Y044143D02*
X010775Y043308D01*
X010025Y042143D02*
X010025Y041308D01*
X011525Y041308D02*
X011525Y042143D01*
X012275Y043308D02*
X012275Y044143D01*
X013775Y044143D02*
X013775Y043308D01*
X013025Y042143D02*
X013025Y041308D01*
X014525Y041308D02*
X014525Y042143D01*
X015275Y043308D02*
X015275Y044143D01*
X016775Y044143D02*
X016775Y043308D01*
X016025Y042143D02*
X016025Y041308D01*
X017525Y041308D02*
X017525Y042143D01*
X018275Y043308D02*
X018275Y044143D01*
X019775Y044143D02*
X019775Y043308D01*
X019025Y042143D02*
X019025Y041308D01*
X020525Y041308D02*
X020525Y042143D01*
X021275Y043308D02*
X021275Y044143D01*
X022775Y044143D02*
X022775Y043308D01*
X022025Y042143D02*
X022025Y041308D01*
X023525Y041308D02*
X023525Y042143D01*
D27*
X026425Y043625D03*
X026425Y045025D03*
X005625Y045025D03*
X005625Y043625D03*
D28*
X014175Y015700D03*
D29*
X005875Y015700D03*
D30*
X024650Y028424D03*
X024650Y029527D03*
X058525Y044174D03*
X058525Y045277D03*
D31*
X061900Y040645D02*
X061900Y039931D01*
X062900Y039931D02*
X062900Y040645D01*
X063900Y040645D02*
X063900Y039931D01*
X064900Y039931D02*
X064900Y040645D01*
X009757Y033225D02*
X009043Y033225D01*
X009043Y032225D02*
X009757Y032225D01*
X009757Y031225D02*
X009043Y031225D01*
X005525Y041243D02*
X005525Y041958D01*
X004525Y041958D02*
X004525Y041243D01*
X003525Y041243D02*
X003525Y041958D01*
D32*
X042775Y033777D03*
X042775Y032674D03*
D33*
X026062Y030600D02*
X025275Y030600D01*
D34*
X024275Y030600D03*
X023275Y030600D03*
X022275Y030600D03*
X021275Y030600D03*
X020275Y030600D03*
X019275Y030600D03*
X021275Y027600D03*
X022275Y027600D03*
X023275Y027600D03*
X024275Y027600D03*
X025275Y027600D03*
D35*
X020275Y027600D03*
X019275Y027600D03*
D36*
X013140Y012631D03*
X013140Y011725D03*
X013140Y010820D03*
D37*
X010660Y011725D03*
D38*
X030900Y043507D03*
X029817Y044491D03*
X030900Y045475D03*
D39*
X002900Y006350D03*
X024525Y005100D03*
X045025Y023350D03*
X064525Y037725D03*
X029650Y040975D03*
X063650Y006350D03*
M02*
