G75*
G70*
%OFA0B0*%
%FSLAX24Y24*%
%IPPOS*%
%LPD*%
%AMOC8*
5,1,8,0,0,1.08239X$1,22.5*
%
%ADD10C,0.0780*%
%ADD11C,0.2049*%
%ADD12C,0.0715*%
%ADD13C,0.0710*%
%ADD14C,0.0940*%
%ADD15R,0.0592X0.0671*%
%ADD16R,0.0867X0.0710*%
%ADD17R,0.0671X0.0592*%
%ADD18R,0.0790X0.0710*%
%ADD19R,0.0710X0.0790*%
%ADD20OC8,0.0940*%
%ADD21R,0.0749X0.0749*%
%ADD22C,0.1852*%
%ADD23C,0.0907*%
%ADD24R,0.0710X0.0867*%
%ADD25R,0.0710X0.0789*%
%ADD26R,0.0710X0.0592*%
%ADD27C,0.0915*%
%ADD28C,0.1270*%
%ADD29C,0.0710*%
%ADD30C,0.0513*%
%ADD31R,0.0789X0.0710*%
%ADD32C,0.0795*%
%ADD33C,0.0867*%
%ADD34C,0.0867*%
%ADD35R,0.0789X0.0789*%
%ADD36R,0.0867X0.0671*%
%ADD37R,0.0867X0.1576*%
%ADD38C,0.1261*%
D10*
X018900Y008325D03*
X019900Y008325D03*
X019900Y009325D03*
X018900Y009325D03*
X018900Y010325D03*
X019900Y010325D03*
X019900Y011325D03*
X018900Y011325D03*
X018900Y012325D03*
X019900Y012325D03*
X019900Y013325D03*
X018900Y013325D03*
X018900Y014325D03*
X019900Y014325D03*
X019900Y015325D03*
X018900Y015325D03*
X018900Y016325D03*
X019900Y016325D03*
X019900Y017325D03*
X018900Y017325D03*
X018900Y018325D03*
X019900Y018325D03*
X020900Y018325D03*
X021900Y018325D03*
X022900Y018325D03*
X023900Y018325D03*
X024900Y018325D03*
X025900Y018325D03*
X026900Y018325D03*
X027900Y018325D03*
X028900Y018325D03*
X029900Y018325D03*
X029900Y017325D03*
X029900Y016325D03*
X029900Y015325D03*
X029900Y014325D03*
X029900Y013325D03*
X030900Y013325D03*
X030900Y014325D03*
X030900Y015325D03*
X030900Y016325D03*
X030900Y017325D03*
X030900Y018325D03*
X029900Y019325D03*
X028900Y019325D03*
X027900Y019325D03*
X026900Y019325D03*
X025900Y019325D03*
X024900Y019325D03*
X023900Y019325D03*
X022900Y019325D03*
X021900Y019325D03*
X020900Y019325D03*
X019900Y019325D03*
X029900Y012325D03*
X029900Y011325D03*
X029900Y010325D03*
X029900Y009325D03*
X029900Y008325D03*
X028900Y008325D03*
X027900Y008325D03*
X026900Y008325D03*
X025900Y008325D03*
X024900Y008325D03*
X023900Y008325D03*
X022900Y008325D03*
X021900Y008325D03*
X020900Y008325D03*
X020900Y007325D03*
X021900Y007325D03*
X022900Y007325D03*
X023900Y007325D03*
X024900Y007325D03*
X025900Y007325D03*
X026900Y007325D03*
X027900Y007325D03*
X028900Y007325D03*
X029900Y007325D03*
X030900Y008325D03*
X030900Y009325D03*
X030900Y010325D03*
X030900Y011325D03*
X030900Y012325D03*
X019900Y007325D03*
X064739Y040994D03*
X063912Y041979D03*
D11*
X002900Y004075D03*
X023150Y011575D03*
X026650Y011575D03*
X026650Y015075D03*
X023150Y015075D03*
X024525Y002825D03*
X045025Y021075D03*
X064275Y036075D03*
X029650Y038700D03*
X063650Y004075D03*
D12*
X060092Y003825D02*
X059458Y003825D01*
X059458Y002825D02*
X060092Y002825D01*
X060092Y004825D02*
X059458Y004825D01*
X059458Y005825D02*
X060092Y005825D01*
X060092Y006825D02*
X059458Y006825D01*
X059458Y007825D02*
X060092Y007825D01*
X060092Y008825D02*
X059458Y008825D01*
X059458Y009825D02*
X060092Y009825D01*
X060092Y010825D02*
X059458Y010825D01*
X059458Y011825D02*
X060092Y011825D01*
X060092Y012825D02*
X059458Y012825D01*
X059458Y013825D02*
X060092Y013825D01*
X060092Y014825D02*
X059458Y014825D01*
X059458Y015825D02*
X060092Y015825D01*
X060092Y016825D02*
X059458Y016825D01*
X059458Y017825D02*
X060092Y017825D01*
X060021Y020319D02*
X060021Y020954D01*
X061021Y020954D02*
X061021Y020319D01*
X059021Y020319D02*
X059021Y020954D01*
X058021Y020954D02*
X058021Y020319D01*
X057021Y020319D02*
X057021Y020954D01*
X056021Y020954D02*
X056021Y020319D01*
X055021Y020319D02*
X055021Y020954D01*
X054021Y020954D02*
X054021Y020319D01*
X053021Y020319D02*
X053021Y020954D01*
X052021Y020954D02*
X052021Y020319D01*
X053458Y017825D02*
X054092Y017825D01*
X054092Y016825D02*
X053458Y016825D01*
X053458Y015825D02*
X054092Y015825D01*
X054092Y014825D02*
X053458Y014825D01*
X053458Y013825D02*
X054092Y013825D01*
X054092Y012825D02*
X053458Y012825D01*
X053458Y011825D02*
X054092Y011825D01*
X054092Y010825D02*
X053458Y010825D01*
X053458Y009825D02*
X054092Y009825D01*
X054092Y008825D02*
X053458Y008825D01*
X053458Y007825D02*
X054092Y007825D01*
X054092Y006825D02*
X053458Y006825D01*
X053458Y005825D02*
X054092Y005825D01*
X054092Y004825D02*
X053458Y004825D01*
X053458Y003825D02*
X054092Y003825D01*
X054092Y002825D02*
X053458Y002825D01*
X050920Y002830D02*
X050285Y002830D01*
X050285Y003830D02*
X050920Y003830D01*
X050920Y004830D02*
X050285Y004830D01*
X050285Y005830D02*
X050920Y005830D01*
X050920Y006830D02*
X050285Y006830D01*
X050285Y007830D02*
X050920Y007830D01*
X050920Y008830D02*
X050285Y008830D01*
X050285Y009830D02*
X050920Y009830D01*
X050920Y010830D02*
X050285Y010830D01*
X050285Y011830D02*
X050920Y011830D01*
X047920Y011830D02*
X047285Y011830D01*
X047285Y010830D02*
X047920Y010830D01*
X047920Y009830D02*
X047285Y009830D01*
X047285Y008830D02*
X047920Y008830D01*
X047920Y007830D02*
X047285Y007830D01*
X047285Y006830D02*
X047920Y006830D01*
X047920Y005830D02*
X047285Y005830D01*
X047285Y004830D02*
X047920Y004830D01*
X047920Y003830D02*
X047285Y003830D01*
X047285Y002830D02*
X047920Y002830D01*
X045221Y002829D02*
X044586Y002829D01*
X044586Y003829D02*
X045221Y003829D01*
X045221Y004829D02*
X044586Y004829D01*
X044586Y005829D02*
X045221Y005829D01*
X045221Y006829D02*
X044586Y006829D01*
X044586Y007829D02*
X045221Y007829D01*
X045221Y008829D02*
X044586Y008829D01*
X044586Y009829D02*
X045221Y009829D01*
X045221Y010829D02*
X044586Y010829D01*
X044586Y011829D02*
X045221Y011829D01*
X042221Y011829D02*
X041586Y011829D01*
X041586Y010829D02*
X042221Y010829D01*
X042221Y009829D02*
X041586Y009829D01*
X041586Y008829D02*
X042221Y008829D01*
X042221Y007829D02*
X041586Y007829D01*
X040467Y007825D02*
X039833Y007825D01*
X039833Y008825D02*
X040467Y008825D01*
X040467Y009825D02*
X039833Y009825D01*
X039833Y010825D02*
X040467Y010825D01*
X040467Y011825D02*
X039833Y011825D01*
X039833Y012825D02*
X040467Y012825D01*
X040467Y013825D02*
X039833Y013825D01*
X039833Y014825D02*
X040467Y014825D01*
X040467Y015825D02*
X039833Y015825D01*
X039833Y016825D02*
X040467Y016825D01*
X034467Y016825D02*
X033833Y016825D01*
X033833Y015825D02*
X034467Y015825D01*
X034467Y014825D02*
X033833Y014825D01*
X033833Y013825D02*
X034467Y013825D01*
X034467Y012825D02*
X033833Y012825D01*
X033833Y011825D02*
X034467Y011825D01*
X034467Y010825D02*
X033833Y010825D01*
X033833Y009825D02*
X034467Y009825D01*
X034467Y008825D02*
X033833Y008825D01*
X033833Y007825D02*
X034467Y007825D01*
X034467Y006825D02*
X033833Y006825D01*
X033833Y005825D02*
X034467Y005825D01*
X034467Y004825D02*
X033833Y004825D01*
X033833Y003825D02*
X034467Y003825D01*
X039833Y003825D02*
X040467Y003825D01*
X040467Y004825D02*
X039833Y004825D01*
X039833Y005825D02*
X040467Y005825D01*
X040467Y006825D02*
X039833Y006825D01*
X041586Y006829D02*
X042221Y006829D01*
X042221Y005829D02*
X041586Y005829D01*
X041586Y004829D02*
X042221Y004829D01*
X042221Y003829D02*
X041586Y003829D01*
X041586Y002829D02*
X042221Y002829D01*
X014967Y015450D02*
X014333Y015450D01*
X014333Y016450D02*
X014967Y016450D01*
X014967Y017450D02*
X014333Y017450D01*
X009275Y020383D02*
X009275Y021017D01*
X008275Y021017D02*
X008275Y020383D01*
X007275Y020383D02*
X007275Y021017D01*
X006275Y021017D02*
X006275Y020383D01*
X005275Y020383D02*
X005275Y021017D01*
X004275Y021017D02*
X004275Y020383D01*
X003275Y020383D02*
X003275Y021017D01*
X003275Y023383D02*
X003275Y024017D01*
X004275Y024017D02*
X004275Y023383D01*
X005275Y023383D02*
X005275Y024017D01*
X006275Y024017D02*
X006275Y023383D01*
X007275Y023383D02*
X007275Y024017D01*
X008275Y024017D02*
X008275Y023383D01*
X009275Y023383D02*
X009275Y024017D01*
X007592Y025200D02*
X006958Y025200D01*
X006958Y026200D02*
X007592Y026200D01*
X007592Y027200D02*
X006958Y027200D01*
X006958Y028200D02*
X007592Y028200D01*
X007592Y029200D02*
X006958Y029200D01*
X006958Y030200D02*
X007592Y030200D01*
X007592Y031200D02*
X006958Y031200D01*
X006958Y032200D02*
X007592Y032200D01*
X007592Y033200D02*
X006958Y033200D01*
X006958Y034200D02*
X007592Y034200D01*
X007592Y035200D02*
X006958Y035200D01*
X006958Y036200D02*
X007592Y036200D01*
X010775Y035767D02*
X010775Y035133D01*
X011775Y035133D02*
X011775Y035767D01*
X012775Y035767D02*
X012775Y035133D01*
X013775Y035133D02*
X013775Y035767D01*
X014775Y035767D02*
X014775Y035133D01*
X015775Y035133D02*
X015775Y035767D01*
X016775Y035767D02*
X016775Y035133D01*
X017775Y035133D02*
X017775Y035767D01*
X018775Y035767D02*
X018775Y035133D01*
X019775Y035133D02*
X019775Y035767D01*
X020775Y035767D02*
X020775Y035133D01*
X021775Y035133D02*
X021775Y035767D01*
X022775Y035767D02*
X022775Y035133D01*
X023775Y035133D02*
X023775Y035767D01*
X024775Y035767D02*
X024775Y035133D01*
X025775Y035133D02*
X025775Y035767D01*
X026775Y035767D02*
X026775Y035133D01*
X027775Y035133D02*
X027775Y035767D01*
X028775Y035767D02*
X028775Y035133D01*
X029775Y035133D02*
X029775Y035767D01*
X033208Y035950D02*
X033842Y035950D01*
X033842Y034950D02*
X033208Y034950D01*
X033208Y033950D02*
X033842Y033950D01*
X033842Y032950D02*
X033208Y032950D01*
X033208Y031950D02*
X033842Y031950D01*
X033842Y030950D02*
X033208Y030950D01*
X033208Y029950D02*
X033842Y029950D01*
X033842Y028950D02*
X033208Y028950D01*
X033208Y027950D02*
X033842Y027950D01*
X033842Y026950D02*
X033208Y026950D01*
X033208Y025950D02*
X033842Y025950D01*
X033842Y024950D02*
X033208Y024950D01*
X029775Y029133D02*
X029775Y029767D01*
X028775Y029767D02*
X028775Y029133D01*
X027775Y029133D02*
X027775Y029767D01*
X026775Y029767D02*
X026775Y029133D01*
X025775Y029133D02*
X025775Y029767D01*
X024775Y029767D02*
X024775Y029133D01*
X023775Y029133D02*
X023775Y029767D01*
X022775Y029767D02*
X022775Y029133D01*
X021775Y029133D02*
X021775Y029767D01*
X020775Y029767D02*
X020775Y029133D01*
X019775Y029133D02*
X019775Y029767D01*
X018775Y029767D02*
X018775Y029133D01*
X017775Y029133D02*
X017775Y029767D01*
X016775Y029767D02*
X016775Y029133D01*
X015775Y029133D02*
X015775Y029767D01*
X014775Y029767D02*
X014775Y029133D01*
X013775Y029133D02*
X013775Y029767D01*
X012775Y029767D02*
X012775Y029133D01*
X011775Y029133D02*
X011775Y029767D01*
X010775Y029767D02*
X010775Y029133D01*
X003592Y029200D02*
X002958Y029200D01*
X002958Y028200D02*
X003592Y028200D01*
X003592Y027200D02*
X002958Y027200D01*
X002958Y026200D02*
X003592Y026200D01*
X003592Y025200D02*
X002958Y025200D01*
X002958Y030200D02*
X003592Y030200D01*
X003592Y031200D02*
X002958Y031200D01*
X002958Y032200D02*
X003592Y032200D01*
X003592Y033200D02*
X002958Y033200D01*
X002958Y034200D02*
X003592Y034200D01*
X003592Y035200D02*
X002958Y035200D01*
X002958Y036200D02*
X003592Y036200D01*
X033208Y036950D02*
X033842Y036950D01*
X033842Y037950D02*
X033208Y037950D01*
X033208Y038950D02*
X033842Y038950D01*
X033842Y039950D02*
X033208Y039950D01*
X033208Y040950D02*
X033842Y040950D01*
X033842Y041950D02*
X033208Y041950D01*
X033208Y042950D02*
X033842Y042950D01*
X033842Y043950D02*
X033208Y043950D01*
X039208Y043950D02*
X039842Y043950D01*
X039842Y042950D02*
X039208Y042950D01*
X039208Y041950D02*
X039842Y041950D01*
X039842Y040950D02*
X039208Y040950D01*
X039208Y039950D02*
X039842Y039950D01*
X039842Y038950D02*
X039208Y038950D01*
X039208Y037950D02*
X039842Y037950D01*
X039842Y036950D02*
X039208Y036950D01*
X039208Y035950D02*
X039842Y035950D01*
X039842Y034950D02*
X039208Y034950D01*
X039208Y033950D02*
X039842Y033950D01*
X039842Y032950D02*
X039208Y032950D01*
X039208Y031950D02*
X039842Y031950D01*
X039842Y030950D02*
X039208Y030950D01*
X039208Y029950D02*
X039842Y029950D01*
X039842Y028950D02*
X039208Y028950D01*
X039208Y027950D02*
X039842Y027950D01*
X039842Y026950D02*
X039208Y026950D01*
X039208Y025950D02*
X039842Y025950D01*
X039842Y024950D02*
X039208Y024950D01*
X043583Y024950D02*
X044217Y024950D01*
X044217Y025950D02*
X043583Y025950D01*
X043583Y026950D02*
X044217Y026950D01*
X044217Y027950D02*
X043583Y027950D01*
X043583Y028950D02*
X044217Y028950D01*
X044217Y029950D02*
X043583Y029950D01*
X043583Y030950D02*
X044217Y030950D01*
X044217Y031950D02*
X043583Y031950D01*
X043583Y032950D02*
X044217Y032950D01*
X044217Y033950D02*
X043583Y033950D01*
X043583Y034950D02*
X044217Y034950D01*
X044217Y035950D02*
X043583Y035950D01*
X043583Y036950D02*
X044217Y036950D01*
X044217Y037950D02*
X043583Y037950D01*
X043583Y038950D02*
X044217Y038950D01*
X044217Y039950D02*
X043583Y039950D01*
X043583Y040950D02*
X044217Y040950D01*
X044217Y041950D02*
X043583Y041950D01*
X043583Y042950D02*
X044217Y042950D01*
X044217Y043950D02*
X043583Y043950D01*
X049583Y043950D02*
X050217Y043950D01*
X050217Y042950D02*
X049583Y042950D01*
X049583Y041950D02*
X050217Y041950D01*
X050217Y040950D02*
X049583Y040950D01*
X049583Y039950D02*
X050217Y039950D01*
X050217Y038950D02*
X049583Y038950D01*
X049583Y037950D02*
X050217Y037950D01*
X050217Y036950D02*
X049583Y036950D01*
X049583Y035950D02*
X050217Y035950D01*
X050217Y034950D02*
X049583Y034950D01*
X049583Y033950D02*
X050217Y033950D01*
X050217Y032950D02*
X049583Y032950D01*
X049583Y031950D02*
X050217Y031950D01*
X050217Y030950D02*
X049583Y030950D01*
X049583Y029950D02*
X050217Y029950D01*
X050217Y028950D02*
X049583Y028950D01*
X049583Y027950D02*
X050217Y027950D01*
X050217Y026950D02*
X049583Y026950D01*
X049583Y025950D02*
X050217Y025950D01*
X050217Y024950D02*
X049583Y024950D01*
X052021Y023954D02*
X052021Y023319D01*
X053021Y023319D02*
X053021Y023954D01*
X054021Y023954D02*
X054021Y023319D01*
X055021Y023319D02*
X055021Y023954D01*
X056021Y023954D02*
X056021Y023319D01*
X057021Y023319D02*
X057021Y023954D01*
X058021Y023954D02*
X058021Y023319D01*
X059021Y023319D02*
X059021Y023954D01*
X060021Y023954D02*
X060021Y023319D01*
X061021Y023319D02*
X061021Y023954D01*
X060092Y028950D02*
X059458Y028950D01*
X059458Y029950D02*
X060092Y029950D01*
X060092Y030950D02*
X059458Y030950D01*
X059458Y031950D02*
X060092Y031950D01*
X060092Y032950D02*
X059458Y032950D01*
X059458Y033950D02*
X060092Y033950D01*
X060092Y034950D02*
X059458Y034950D01*
X059458Y035950D02*
X060092Y035950D01*
X060092Y036950D02*
X059458Y036950D01*
X059458Y037950D02*
X060092Y037950D01*
X060092Y038950D02*
X059458Y038950D01*
X059458Y039950D02*
X060092Y039950D01*
X060092Y040950D02*
X059458Y040950D01*
X059458Y041950D02*
X060092Y041950D01*
X060092Y042950D02*
X059458Y042950D01*
X059458Y043950D02*
X060092Y043950D01*
X054092Y043950D02*
X053458Y043950D01*
X053458Y042950D02*
X054092Y042950D01*
X054092Y041950D02*
X053458Y041950D01*
X053458Y040950D02*
X054092Y040950D01*
X054092Y039950D02*
X053458Y039950D01*
X053458Y038950D02*
X054092Y038950D01*
X054092Y037950D02*
X053458Y037950D01*
X053458Y036950D02*
X054092Y036950D01*
X054092Y035950D02*
X053458Y035950D01*
X053458Y034950D02*
X054092Y034950D01*
X054092Y033950D02*
X053458Y033950D01*
X053458Y032950D02*
X054092Y032950D01*
X054092Y031950D02*
X053458Y031950D01*
X053458Y030950D02*
X054092Y030950D01*
X054092Y029950D02*
X053458Y029950D01*
X053458Y028950D02*
X054092Y028950D01*
D13*
X037465Y016825D02*
X036835Y016825D01*
X036835Y015825D02*
X037465Y015825D01*
X037465Y014825D02*
X036835Y014825D01*
X036835Y013825D02*
X037465Y013825D01*
X037465Y012825D02*
X036835Y012825D01*
X036835Y011825D02*
X037465Y011825D01*
X037465Y010825D02*
X036835Y010825D01*
X036835Y009825D02*
X037465Y009825D01*
X037465Y008825D02*
X036835Y008825D01*
X036835Y007825D02*
X037465Y007825D01*
X037465Y006825D02*
X036835Y006825D01*
X036835Y005825D02*
X037465Y005825D01*
X037465Y004825D02*
X036835Y004825D01*
X036835Y003825D02*
X037465Y003825D01*
D14*
X033525Y002700D03*
X025338Y009200D03*
X024900Y012388D03*
X028275Y012450D03*
X017150Y012450D03*
X015900Y012950D03*
X016900Y010950D03*
X016900Y006950D03*
X011900Y015450D03*
X011275Y016325D03*
X011025Y017450D03*
X012525Y016325D03*
X013400Y017075D03*
X010150Y015450D03*
X009025Y015450D03*
X007213Y015513D03*
X003525Y016750D03*
X003525Y018650D03*
X003275Y013575D03*
X002775Y011825D03*
X004150Y009450D03*
X003400Y008450D03*
X017150Y016450D03*
X012150Y019825D03*
X017900Y020825D03*
X019275Y021200D03*
X018775Y022075D03*
X018900Y023575D03*
X019900Y023450D03*
X020900Y023200D03*
X023775Y021950D03*
X024900Y021950D03*
X026025Y021950D03*
X029900Y022450D03*
X029025Y024700D03*
X027900Y024700D03*
X022400Y020825D03*
X021025Y020825D03*
X013275Y026950D03*
X010525Y027150D03*
X008525Y026575D03*
X010525Y025250D03*
X016025Y027575D03*
X017150Y027825D03*
X011650Y031824D03*
X011650Y033825D03*
X011650Y037200D03*
X014025Y037825D03*
X016775Y037825D03*
X019775Y037825D03*
X024275Y037200D03*
X025275Y040325D03*
X036150Y035450D03*
X036525Y032450D03*
X036025Y031575D03*
X042525Y032450D03*
X046088Y032950D03*
X047775Y036575D03*
X046400Y037825D03*
X047650Y038450D03*
X048400Y039075D03*
X045525Y039700D03*
X047650Y041825D03*
X041775Y042825D03*
X041275Y041450D03*
X041900Y036575D03*
X046088Y028950D03*
X042525Y028825D03*
X041400Y025325D03*
X039400Y023950D03*
X038150Y024075D03*
X035525Y024200D03*
X039900Y021450D03*
X036900Y020450D03*
X042025Y023700D03*
X047025Y024825D03*
X047775Y025700D03*
X049525Y023700D03*
X046525Y020325D03*
X042900Y018950D03*
X044900Y017700D03*
X048025Y014825D03*
X062025Y016200D03*
X062275Y027325D03*
X061400Y028825D03*
X064400Y029075D03*
X064650Y031450D03*
X061650Y033825D03*
X060900Y035450D03*
X056025Y038950D03*
X056400Y041950D03*
X064775Y039700D03*
X056775Y004450D03*
X002650Y038013D03*
D15*
X010776Y038200D03*
X011524Y038200D03*
X023026Y034200D03*
X023774Y034200D03*
X024651Y033450D03*
X025399Y033450D03*
X007149Y022575D03*
X006401Y022575D03*
X005149Y022575D03*
X004401Y022575D03*
X004149Y019575D03*
X003401Y019575D03*
X005401Y019575D03*
X006149Y019575D03*
X011901Y017950D03*
X012649Y017950D03*
X009024Y013825D03*
X008276Y013825D03*
X010151Y012325D03*
X010899Y012325D03*
X011026Y013700D03*
X011774Y013700D03*
X017026Y009950D03*
X017774Y009950D03*
X017774Y009075D03*
X017026Y009075D03*
X017026Y008200D03*
X017774Y008200D03*
X018213Y006888D03*
X018962Y006888D03*
X021213Y006200D03*
X021962Y006200D03*
X003149Y009575D03*
X002401Y009575D03*
X002524Y008450D03*
X001776Y008450D03*
X001776Y007075D03*
X002524Y007075D03*
X004401Y028200D03*
X005149Y028200D03*
X047026Y032950D03*
X047774Y032950D03*
X062776Y038825D03*
X063524Y038825D03*
X063774Y041075D03*
X063026Y041075D03*
D16*
X042775Y031501D03*
X042775Y030399D03*
X041400Y032899D03*
X041400Y034001D03*
D17*
X034650Y034701D03*
X034650Y035449D03*
X029900Y032324D03*
X029025Y032324D03*
X029025Y031576D03*
X029900Y031576D03*
X027775Y033576D03*
X027775Y034324D03*
X026775Y034324D03*
X026775Y033576D03*
X026400Y031324D03*
X026400Y030576D03*
X024650Y030576D03*
X024650Y031324D03*
X023775Y031324D03*
X022775Y031324D03*
X022775Y030576D03*
X023775Y030576D03*
X021775Y030576D03*
X020775Y030576D03*
X020775Y031324D03*
X021775Y031324D03*
X023025Y032326D03*
X022025Y032951D03*
X023025Y033074D03*
X022025Y033699D03*
X019775Y031324D03*
X019775Y030576D03*
X025775Y027074D03*
X025775Y026326D03*
X012775Y030576D03*
X012775Y031324D03*
X012650Y013699D03*
X012650Y012951D03*
X013150Y012074D03*
X013150Y011326D03*
X011775Y011326D03*
X011775Y012074D03*
X007150Y012701D03*
X007150Y013449D03*
X024900Y006512D03*
X024900Y005763D03*
D18*
X015963Y008515D03*
X015963Y009635D03*
X009025Y011765D03*
X009025Y012885D03*
X027275Y030515D03*
X027275Y031635D03*
X028150Y031515D03*
X028150Y032635D03*
X019025Y042765D03*
X019025Y043885D03*
D19*
X020715Y043325D03*
X021835Y043325D03*
X024715Y034325D03*
X025835Y034325D03*
X025590Y032575D03*
X026710Y032575D03*
X028715Y033825D03*
X029835Y033825D03*
X009522Y033825D03*
X009522Y032825D03*
X008403Y032825D03*
X008403Y033825D03*
X008465Y025325D03*
X009585Y025325D03*
D20*
X009525Y026575D03*
X015025Y022700D03*
X015025Y021700D03*
X015025Y020700D03*
X016025Y020700D03*
X016025Y021700D03*
X016025Y022700D03*
X012150Y021825D03*
X012150Y020825D03*
X011150Y020825D03*
X011150Y019825D03*
X011150Y021825D03*
X015025Y019700D03*
X015025Y018700D03*
X016025Y018700D03*
X016025Y019700D03*
X010025Y017450D03*
X010650Y037200D03*
X013025Y037825D03*
X015775Y037825D03*
X018775Y037825D03*
X023275Y037200D03*
X025275Y039325D03*
X001650Y038013D03*
D21*
X062061Y040994D03*
X062061Y041979D03*
X062888Y041979D03*
X064739Y041979D03*
D22*
X063400Y043475D03*
D23*
X022275Y005075D03*
X022275Y004075D03*
X022275Y003075D03*
X020275Y003075D03*
X020275Y004075D03*
X020275Y005075D03*
X018275Y005075D03*
X018275Y004075D03*
X018275Y003075D03*
X016275Y003075D03*
X016275Y004075D03*
X016275Y005075D03*
D24*
X006076Y030200D03*
X004974Y030200D03*
X061849Y039950D03*
X062951Y039950D03*
D25*
X005576Y031763D03*
X004474Y031763D03*
X004724Y026200D03*
X005826Y026200D03*
D26*
X025525Y030576D03*
X025525Y031324D03*
D27*
X023525Y039033D02*
X023525Y039867D01*
X022025Y039867D02*
X022025Y039033D01*
X020525Y039033D02*
X020525Y039867D01*
X019025Y039867D02*
X019025Y039033D01*
X017525Y039033D02*
X017525Y039867D01*
X016025Y039867D02*
X016025Y039033D01*
X014525Y039033D02*
X014525Y039867D01*
X013025Y039867D02*
X013025Y039033D01*
X011525Y039033D02*
X011525Y039867D01*
X010025Y039867D02*
X010025Y039033D01*
X008525Y039033D02*
X008525Y039867D01*
X009275Y041033D02*
X009275Y041867D01*
X010775Y041867D02*
X010775Y041033D01*
X012275Y041033D02*
X012275Y041867D01*
X013775Y041867D02*
X013775Y041033D01*
X015275Y041033D02*
X015275Y041867D01*
X016775Y041867D02*
X016775Y041033D01*
X018275Y041033D02*
X018275Y041867D01*
X019775Y041867D02*
X019775Y041033D01*
X021275Y041033D02*
X021275Y041867D01*
X022775Y041867D02*
X022775Y041033D01*
D28*
X026425Y041350D03*
X026425Y042750D03*
X005625Y042750D03*
X005625Y041350D03*
D29*
X014175Y013425D03*
D30*
X005875Y013425D03*
D31*
X024650Y026149D03*
X024650Y027251D03*
X058525Y041899D03*
X058525Y043001D03*
X060900Y019126D03*
X060900Y018024D03*
D32*
X009757Y028950D02*
X009043Y028950D01*
X009043Y029950D02*
X009757Y029950D01*
X009757Y030950D02*
X009043Y030950D01*
X005525Y038968D02*
X005525Y039682D01*
X004525Y039682D02*
X004525Y038968D01*
X003525Y038968D02*
X003525Y039682D01*
D33*
X025275Y028325D02*
X026062Y028325D01*
D34*
X024275Y028325D03*
X023275Y028325D03*
X022275Y028325D03*
X021275Y028325D03*
X020275Y028325D03*
X019275Y028325D03*
X021275Y025325D03*
X022275Y025325D03*
X023275Y025325D03*
X024275Y025325D03*
X025275Y025325D03*
D35*
X020275Y025325D03*
X019275Y025325D03*
D36*
X013140Y010356D03*
X013140Y009450D03*
X013140Y008544D03*
D37*
X010660Y009450D03*
D38*
X030900Y041231D03*
X029817Y042216D03*
X030900Y043200D03*
M02*
