G75*
G70*
%OFA0B0*%
%FSLAX24Y24*%
%IPPOS*%
%LPD*%
%AMOC8*
5,1,8,0,0,1.08239X$1,22.5*
%
%ADD10C,0.0060*%
%ADD11C,0.0000*%
%ADD12C,0.0001*%
%ADD13C,0.0050*%
D10*
X062603Y068675D02*
X062603Y069316D01*
X062816Y069102D01*
X063030Y069316D01*
X063030Y068675D01*
X063247Y068675D02*
X063461Y068675D01*
X063354Y068675D02*
X063354Y069102D01*
X063247Y069102D01*
X063354Y069316D02*
X063354Y069422D01*
X063677Y069102D02*
X063997Y069102D01*
X064104Y068995D01*
X064104Y068675D01*
X064322Y068675D02*
X064535Y068675D01*
X064428Y068675D02*
X064428Y069102D01*
X064322Y069102D01*
X064428Y069316D02*
X064428Y069422D01*
X064751Y068995D02*
X065178Y068995D01*
X065396Y069102D02*
X065503Y068995D01*
X065716Y068995D01*
X065823Y068889D01*
X065823Y068782D01*
X065716Y068675D01*
X065503Y068675D01*
X065396Y068782D01*
X065396Y069102D02*
X065396Y069209D01*
X065503Y069316D01*
X065716Y069316D01*
X065823Y069209D01*
X066040Y069316D02*
X066467Y069316D01*
X066254Y069316D02*
X066254Y068675D01*
X066685Y068675D02*
X067112Y069316D01*
X066685Y069316D02*
X067112Y068675D01*
X067974Y068675D02*
X068401Y068675D01*
X068188Y068675D02*
X068188Y069316D01*
X067974Y069102D01*
X068619Y068995D02*
X069046Y068995D01*
X069263Y068782D02*
X069263Y068675D01*
X069263Y068782D02*
X069690Y069209D01*
X069690Y069316D01*
X069263Y069316D01*
X068939Y069316D02*
X068619Y068995D01*
X068939Y068675D02*
X068939Y069316D01*
X069908Y069209D02*
X070335Y068782D01*
X070335Y068995D02*
X069908Y068995D01*
X069908Y068782D02*
X070335Y069209D01*
X070121Y069209D02*
X070121Y068782D01*
X070552Y068675D02*
X070979Y068675D01*
X070766Y068675D02*
X070766Y069316D01*
X070552Y069102D01*
X071197Y068995D02*
X071624Y068995D01*
X071841Y068782D02*
X072268Y069209D01*
X072268Y068782D01*
X072162Y068675D01*
X071948Y068675D01*
X071841Y068782D01*
X071841Y069209D01*
X071948Y069316D01*
X072162Y069316D01*
X072268Y069209D01*
X071517Y069316D02*
X071197Y068995D01*
X071517Y068675D02*
X071517Y069316D01*
X063677Y069102D02*
X063677Y068675D01*
D11*
X049347Y055595D02*
X049349Y055657D01*
X049355Y055720D01*
X049365Y055781D01*
X049379Y055842D01*
X049396Y055902D01*
X049417Y055961D01*
X049443Y056018D01*
X049471Y056073D01*
X049503Y056127D01*
X049539Y056178D01*
X049577Y056228D01*
X049619Y056274D01*
X049663Y056318D01*
X049711Y056359D01*
X049760Y056397D01*
X049812Y056431D01*
X049866Y056462D01*
X049922Y056490D01*
X049980Y056514D01*
X050039Y056535D01*
X050099Y056551D01*
X050160Y056564D01*
X050222Y056573D01*
X050284Y056578D01*
X050347Y056579D01*
X050409Y056576D01*
X050471Y056569D01*
X050533Y056558D01*
X050593Y056543D01*
X050653Y056525D01*
X050711Y056503D01*
X050768Y056477D01*
X050823Y056447D01*
X050876Y056414D01*
X050927Y056378D01*
X050975Y056339D01*
X051021Y056296D01*
X051064Y056251D01*
X051104Y056203D01*
X051141Y056153D01*
X051175Y056100D01*
X051206Y056046D01*
X051232Y055990D01*
X051256Y055932D01*
X051275Y055872D01*
X051291Y055812D01*
X051303Y055750D01*
X051311Y055689D01*
X051315Y055626D01*
X051315Y055564D01*
X051311Y055501D01*
X051303Y055440D01*
X051291Y055378D01*
X051275Y055318D01*
X051256Y055258D01*
X051232Y055200D01*
X051206Y055144D01*
X051175Y055090D01*
X051141Y055037D01*
X051104Y054987D01*
X051064Y054939D01*
X051021Y054894D01*
X050975Y054851D01*
X050927Y054812D01*
X050876Y054776D01*
X050823Y054743D01*
X050768Y054713D01*
X050711Y054687D01*
X050653Y054665D01*
X050593Y054647D01*
X050533Y054632D01*
X050471Y054621D01*
X050409Y054614D01*
X050347Y054611D01*
X050284Y054612D01*
X050222Y054617D01*
X050160Y054626D01*
X050099Y054639D01*
X050039Y054655D01*
X049980Y054676D01*
X049922Y054700D01*
X049866Y054728D01*
X049812Y054759D01*
X049760Y054793D01*
X049711Y054831D01*
X049663Y054872D01*
X049619Y054916D01*
X049577Y054962D01*
X049539Y055012D01*
X049503Y055063D01*
X049471Y055117D01*
X049443Y055172D01*
X049417Y055229D01*
X049396Y055288D01*
X049379Y055348D01*
X049365Y055409D01*
X049355Y055470D01*
X049349Y055533D01*
X049347Y055595D01*
X045847Y055595D02*
X045849Y055657D01*
X045855Y055720D01*
X045865Y055781D01*
X045879Y055842D01*
X045896Y055902D01*
X045917Y055961D01*
X045943Y056018D01*
X045971Y056073D01*
X046003Y056127D01*
X046039Y056178D01*
X046077Y056228D01*
X046119Y056274D01*
X046163Y056318D01*
X046211Y056359D01*
X046260Y056397D01*
X046312Y056431D01*
X046366Y056462D01*
X046422Y056490D01*
X046480Y056514D01*
X046539Y056535D01*
X046599Y056551D01*
X046660Y056564D01*
X046722Y056573D01*
X046784Y056578D01*
X046847Y056579D01*
X046909Y056576D01*
X046971Y056569D01*
X047033Y056558D01*
X047093Y056543D01*
X047153Y056525D01*
X047211Y056503D01*
X047268Y056477D01*
X047323Y056447D01*
X047376Y056414D01*
X047427Y056378D01*
X047475Y056339D01*
X047521Y056296D01*
X047564Y056251D01*
X047604Y056203D01*
X047641Y056153D01*
X047675Y056100D01*
X047706Y056046D01*
X047732Y055990D01*
X047756Y055932D01*
X047775Y055872D01*
X047791Y055812D01*
X047803Y055750D01*
X047811Y055689D01*
X047815Y055626D01*
X047815Y055564D01*
X047811Y055501D01*
X047803Y055440D01*
X047791Y055378D01*
X047775Y055318D01*
X047756Y055258D01*
X047732Y055200D01*
X047706Y055144D01*
X047675Y055090D01*
X047641Y055037D01*
X047604Y054987D01*
X047564Y054939D01*
X047521Y054894D01*
X047475Y054851D01*
X047427Y054812D01*
X047376Y054776D01*
X047323Y054743D01*
X047268Y054713D01*
X047211Y054687D01*
X047153Y054665D01*
X047093Y054647D01*
X047033Y054632D01*
X046971Y054621D01*
X046909Y054614D01*
X046847Y054611D01*
X046784Y054612D01*
X046722Y054617D01*
X046660Y054626D01*
X046599Y054639D01*
X046539Y054655D01*
X046480Y054676D01*
X046422Y054700D01*
X046366Y054728D01*
X046312Y054759D01*
X046260Y054793D01*
X046211Y054831D01*
X046163Y054872D01*
X046119Y054916D01*
X046077Y054962D01*
X046039Y055012D01*
X046003Y055063D01*
X045971Y055117D01*
X045943Y055172D01*
X045917Y055229D01*
X045896Y055288D01*
X045879Y055348D01*
X045865Y055409D01*
X045855Y055470D01*
X045849Y055533D01*
X045847Y055595D01*
X045847Y052095D02*
X045849Y052157D01*
X045855Y052220D01*
X045865Y052281D01*
X045879Y052342D01*
X045896Y052402D01*
X045917Y052461D01*
X045943Y052518D01*
X045971Y052573D01*
X046003Y052627D01*
X046039Y052678D01*
X046077Y052728D01*
X046119Y052774D01*
X046163Y052818D01*
X046211Y052859D01*
X046260Y052897D01*
X046312Y052931D01*
X046366Y052962D01*
X046422Y052990D01*
X046480Y053014D01*
X046539Y053035D01*
X046599Y053051D01*
X046660Y053064D01*
X046722Y053073D01*
X046784Y053078D01*
X046847Y053079D01*
X046909Y053076D01*
X046971Y053069D01*
X047033Y053058D01*
X047093Y053043D01*
X047153Y053025D01*
X047211Y053003D01*
X047268Y052977D01*
X047323Y052947D01*
X047376Y052914D01*
X047427Y052878D01*
X047475Y052839D01*
X047521Y052796D01*
X047564Y052751D01*
X047604Y052703D01*
X047641Y052653D01*
X047675Y052600D01*
X047706Y052546D01*
X047732Y052490D01*
X047756Y052432D01*
X047775Y052372D01*
X047791Y052312D01*
X047803Y052250D01*
X047811Y052189D01*
X047815Y052126D01*
X047815Y052064D01*
X047811Y052001D01*
X047803Y051940D01*
X047791Y051878D01*
X047775Y051818D01*
X047756Y051758D01*
X047732Y051700D01*
X047706Y051644D01*
X047675Y051590D01*
X047641Y051537D01*
X047604Y051487D01*
X047564Y051439D01*
X047521Y051394D01*
X047475Y051351D01*
X047427Y051312D01*
X047376Y051276D01*
X047323Y051243D01*
X047268Y051213D01*
X047211Y051187D01*
X047153Y051165D01*
X047093Y051147D01*
X047033Y051132D01*
X046971Y051121D01*
X046909Y051114D01*
X046847Y051111D01*
X046784Y051112D01*
X046722Y051117D01*
X046660Y051126D01*
X046599Y051139D01*
X046539Y051155D01*
X046480Y051176D01*
X046422Y051200D01*
X046366Y051228D01*
X046312Y051259D01*
X046260Y051293D01*
X046211Y051331D01*
X046163Y051372D01*
X046119Y051416D01*
X046077Y051462D01*
X046039Y051512D01*
X046003Y051563D01*
X045971Y051617D01*
X045943Y051672D01*
X045917Y051729D01*
X045896Y051788D01*
X045879Y051848D01*
X045865Y051909D01*
X045855Y051970D01*
X045849Y052033D01*
X045847Y052095D01*
X049347Y052095D02*
X049349Y052157D01*
X049355Y052220D01*
X049365Y052281D01*
X049379Y052342D01*
X049396Y052402D01*
X049417Y052461D01*
X049443Y052518D01*
X049471Y052573D01*
X049503Y052627D01*
X049539Y052678D01*
X049577Y052728D01*
X049619Y052774D01*
X049663Y052818D01*
X049711Y052859D01*
X049760Y052897D01*
X049812Y052931D01*
X049866Y052962D01*
X049922Y052990D01*
X049980Y053014D01*
X050039Y053035D01*
X050099Y053051D01*
X050160Y053064D01*
X050222Y053073D01*
X050284Y053078D01*
X050347Y053079D01*
X050409Y053076D01*
X050471Y053069D01*
X050533Y053058D01*
X050593Y053043D01*
X050653Y053025D01*
X050711Y053003D01*
X050768Y052977D01*
X050823Y052947D01*
X050876Y052914D01*
X050927Y052878D01*
X050975Y052839D01*
X051021Y052796D01*
X051064Y052751D01*
X051104Y052703D01*
X051141Y052653D01*
X051175Y052600D01*
X051206Y052546D01*
X051232Y052490D01*
X051256Y052432D01*
X051275Y052372D01*
X051291Y052312D01*
X051303Y052250D01*
X051311Y052189D01*
X051315Y052126D01*
X051315Y052064D01*
X051311Y052001D01*
X051303Y051940D01*
X051291Y051878D01*
X051275Y051818D01*
X051256Y051758D01*
X051232Y051700D01*
X051206Y051644D01*
X051175Y051590D01*
X051141Y051537D01*
X051104Y051487D01*
X051064Y051439D01*
X051021Y051394D01*
X050975Y051351D01*
X050927Y051312D01*
X050876Y051276D01*
X050823Y051243D01*
X050768Y051213D01*
X050711Y051187D01*
X050653Y051165D01*
X050593Y051147D01*
X050533Y051132D01*
X050471Y051121D01*
X050409Y051114D01*
X050347Y051111D01*
X050284Y051112D01*
X050222Y051117D01*
X050160Y051126D01*
X050099Y051139D01*
X050039Y051155D01*
X049980Y051176D01*
X049922Y051200D01*
X049866Y051228D01*
X049812Y051259D01*
X049760Y051293D01*
X049711Y051331D01*
X049663Y051372D01*
X049619Y051416D01*
X049577Y051462D01*
X049539Y051512D01*
X049503Y051563D01*
X049471Y051617D01*
X049443Y051672D01*
X049417Y051729D01*
X049396Y051788D01*
X049379Y051848D01*
X049365Y051909D01*
X049355Y051970D01*
X049349Y052033D01*
X049347Y052095D01*
X041961Y006070D02*
X041963Y006118D01*
X041969Y006167D01*
X041979Y006214D01*
X041992Y006261D01*
X042010Y006306D01*
X042031Y006350D01*
X042055Y006392D01*
X042083Y006431D01*
X042114Y006469D01*
X042148Y006503D01*
X042185Y006535D01*
X042224Y006564D01*
X042266Y006589D01*
X042309Y006611D01*
X042354Y006630D01*
X042400Y006644D01*
X042447Y006655D01*
X042495Y006662D01*
X042544Y006665D01*
X042592Y006664D01*
X042641Y006659D01*
X042688Y006650D01*
X042735Y006637D01*
X042781Y006621D01*
X042825Y006601D01*
X042867Y006577D01*
X042908Y006550D01*
X042946Y006520D01*
X042981Y006486D01*
X043014Y006450D01*
X043043Y006412D01*
X043069Y006371D01*
X043092Y006328D01*
X043111Y006284D01*
X043127Y006238D01*
X043139Y006191D01*
X043147Y006143D01*
X043151Y006094D01*
X043151Y006046D01*
X043147Y005997D01*
X043139Y005949D01*
X043127Y005902D01*
X043111Y005856D01*
X043092Y005812D01*
X043069Y005769D01*
X043043Y005728D01*
X043014Y005690D01*
X042981Y005654D01*
X042946Y005620D01*
X042908Y005590D01*
X042867Y005563D01*
X042825Y005539D01*
X042781Y005519D01*
X042735Y005503D01*
X042688Y005490D01*
X042641Y005481D01*
X042592Y005476D01*
X042544Y005475D01*
X042495Y005478D01*
X042447Y005485D01*
X042400Y005496D01*
X042354Y005510D01*
X042309Y005529D01*
X042266Y005551D01*
X042224Y005576D01*
X042185Y005605D01*
X042148Y005637D01*
X042114Y005671D01*
X042083Y005709D01*
X042055Y005748D01*
X042031Y005790D01*
X042010Y005834D01*
X041992Y005879D01*
X041979Y005926D01*
X041969Y005973D01*
X041963Y006022D01*
X041961Y006070D01*
X041956Y006070D02*
X041958Y006118D01*
X041964Y006166D01*
X041973Y006214D01*
X041987Y006260D01*
X042004Y006305D01*
X042025Y006349D01*
X042049Y006391D01*
X042076Y006430D01*
X042107Y006468D01*
X042140Y006503D01*
X042177Y006535D01*
X042215Y006564D01*
X042256Y006590D01*
X042299Y006612D01*
X042343Y006631D01*
X042389Y006646D01*
X042436Y006658D01*
X042484Y006666D01*
X042532Y006670D01*
X042580Y006670D01*
X042628Y006666D01*
X042676Y006658D01*
X042723Y006646D01*
X042769Y006631D01*
X042813Y006612D01*
X042856Y006590D01*
X042897Y006564D01*
X042935Y006535D01*
X042972Y006503D01*
X043005Y006468D01*
X043036Y006430D01*
X043063Y006391D01*
X043087Y006349D01*
X043108Y006305D01*
X043125Y006260D01*
X043139Y006214D01*
X043148Y006166D01*
X043154Y006118D01*
X043156Y006070D01*
X041961Y004670D02*
X041963Y004718D01*
X041969Y004767D01*
X041979Y004814D01*
X041992Y004861D01*
X042010Y004906D01*
X042031Y004950D01*
X042055Y004992D01*
X042083Y005031D01*
X042114Y005069D01*
X042148Y005103D01*
X042185Y005135D01*
X042224Y005164D01*
X042266Y005189D01*
X042309Y005211D01*
X042354Y005230D01*
X042400Y005244D01*
X042447Y005255D01*
X042495Y005262D01*
X042544Y005265D01*
X042592Y005264D01*
X042641Y005259D01*
X042688Y005250D01*
X042735Y005237D01*
X042781Y005221D01*
X042825Y005201D01*
X042867Y005177D01*
X042908Y005150D01*
X042946Y005120D01*
X042981Y005086D01*
X043014Y005050D01*
X043043Y005012D01*
X043069Y004971D01*
X043092Y004928D01*
X043111Y004884D01*
X043127Y004838D01*
X043139Y004791D01*
X043147Y004743D01*
X043151Y004694D01*
X043151Y004646D01*
X043147Y004597D01*
X043139Y004549D01*
X043127Y004502D01*
X043111Y004456D01*
X043092Y004412D01*
X043069Y004369D01*
X043043Y004328D01*
X043014Y004290D01*
X042981Y004254D01*
X042946Y004220D01*
X042908Y004190D01*
X042867Y004163D01*
X042825Y004139D01*
X042781Y004119D01*
X042735Y004103D01*
X042688Y004090D01*
X042641Y004081D01*
X042592Y004076D01*
X042544Y004075D01*
X042495Y004078D01*
X042447Y004085D01*
X042400Y004096D01*
X042354Y004110D01*
X042309Y004129D01*
X042266Y004151D01*
X042224Y004176D01*
X042185Y004205D01*
X042148Y004237D01*
X042114Y004271D01*
X042083Y004309D01*
X042055Y004348D01*
X042031Y004390D01*
X042010Y004434D01*
X041992Y004479D01*
X041979Y004526D01*
X041969Y004573D01*
X041963Y004622D01*
X041961Y004670D01*
X041956Y004670D02*
X041958Y004622D01*
X041964Y004574D01*
X041973Y004526D01*
X041987Y004480D01*
X042004Y004435D01*
X042025Y004391D01*
X042049Y004349D01*
X042076Y004310D01*
X042107Y004272D01*
X042140Y004237D01*
X042177Y004205D01*
X042215Y004176D01*
X042256Y004150D01*
X042299Y004128D01*
X042343Y004109D01*
X042389Y004094D01*
X042436Y004082D01*
X042484Y004074D01*
X042532Y004070D01*
X042580Y004070D01*
X042628Y004074D01*
X042676Y004082D01*
X042723Y004094D01*
X042769Y004109D01*
X042813Y004128D01*
X042856Y004150D01*
X042897Y004176D01*
X042935Y004205D01*
X042972Y004237D01*
X043005Y004272D01*
X043036Y004310D01*
X043063Y004349D01*
X043087Y004391D01*
X043108Y004435D01*
X043125Y004480D01*
X043139Y004526D01*
X043148Y004574D01*
X043154Y004622D01*
X043156Y004670D01*
X062761Y004670D02*
X062763Y004718D01*
X062769Y004767D01*
X062779Y004814D01*
X062792Y004861D01*
X062810Y004906D01*
X062831Y004950D01*
X062855Y004992D01*
X062883Y005031D01*
X062914Y005069D01*
X062948Y005103D01*
X062985Y005135D01*
X063024Y005164D01*
X063066Y005189D01*
X063109Y005211D01*
X063154Y005230D01*
X063200Y005244D01*
X063247Y005255D01*
X063295Y005262D01*
X063344Y005265D01*
X063392Y005264D01*
X063441Y005259D01*
X063488Y005250D01*
X063535Y005237D01*
X063581Y005221D01*
X063625Y005201D01*
X063667Y005177D01*
X063708Y005150D01*
X063746Y005120D01*
X063781Y005086D01*
X063814Y005050D01*
X063843Y005012D01*
X063869Y004971D01*
X063892Y004928D01*
X063911Y004884D01*
X063927Y004838D01*
X063939Y004791D01*
X063947Y004743D01*
X063951Y004694D01*
X063951Y004646D01*
X063947Y004597D01*
X063939Y004549D01*
X063927Y004502D01*
X063911Y004456D01*
X063892Y004412D01*
X063869Y004369D01*
X063843Y004328D01*
X063814Y004290D01*
X063781Y004254D01*
X063746Y004220D01*
X063708Y004190D01*
X063667Y004163D01*
X063625Y004139D01*
X063581Y004119D01*
X063535Y004103D01*
X063488Y004090D01*
X063441Y004081D01*
X063392Y004076D01*
X063344Y004075D01*
X063295Y004078D01*
X063247Y004085D01*
X063200Y004096D01*
X063154Y004110D01*
X063109Y004129D01*
X063066Y004151D01*
X063024Y004176D01*
X062985Y004205D01*
X062948Y004237D01*
X062914Y004271D01*
X062883Y004309D01*
X062855Y004348D01*
X062831Y004390D01*
X062810Y004434D01*
X062792Y004479D01*
X062779Y004526D01*
X062769Y004573D01*
X062763Y004622D01*
X062761Y004670D01*
X062756Y004670D02*
X062758Y004622D01*
X062764Y004574D01*
X062773Y004526D01*
X062787Y004480D01*
X062804Y004435D01*
X062825Y004391D01*
X062849Y004349D01*
X062876Y004310D01*
X062907Y004272D01*
X062940Y004237D01*
X062977Y004205D01*
X063015Y004176D01*
X063056Y004150D01*
X063099Y004128D01*
X063143Y004109D01*
X063189Y004094D01*
X063236Y004082D01*
X063284Y004074D01*
X063332Y004070D01*
X063380Y004070D01*
X063428Y004074D01*
X063476Y004082D01*
X063523Y004094D01*
X063569Y004109D01*
X063613Y004128D01*
X063656Y004150D01*
X063697Y004176D01*
X063735Y004205D01*
X063772Y004237D01*
X063805Y004272D01*
X063836Y004310D01*
X063863Y004349D01*
X063887Y004391D01*
X063908Y004435D01*
X063925Y004480D01*
X063939Y004526D01*
X063948Y004574D01*
X063954Y004622D01*
X063956Y004670D01*
X062761Y006070D02*
X062763Y006118D01*
X062769Y006167D01*
X062779Y006214D01*
X062792Y006261D01*
X062810Y006306D01*
X062831Y006350D01*
X062855Y006392D01*
X062883Y006431D01*
X062914Y006469D01*
X062948Y006503D01*
X062985Y006535D01*
X063024Y006564D01*
X063066Y006589D01*
X063109Y006611D01*
X063154Y006630D01*
X063200Y006644D01*
X063247Y006655D01*
X063295Y006662D01*
X063344Y006665D01*
X063392Y006664D01*
X063441Y006659D01*
X063488Y006650D01*
X063535Y006637D01*
X063581Y006621D01*
X063625Y006601D01*
X063667Y006577D01*
X063708Y006550D01*
X063746Y006520D01*
X063781Y006486D01*
X063814Y006450D01*
X063843Y006412D01*
X063869Y006371D01*
X063892Y006328D01*
X063911Y006284D01*
X063927Y006238D01*
X063939Y006191D01*
X063947Y006143D01*
X063951Y006094D01*
X063951Y006046D01*
X063947Y005997D01*
X063939Y005949D01*
X063927Y005902D01*
X063911Y005856D01*
X063892Y005812D01*
X063869Y005769D01*
X063843Y005728D01*
X063814Y005690D01*
X063781Y005654D01*
X063746Y005620D01*
X063708Y005590D01*
X063667Y005563D01*
X063625Y005539D01*
X063581Y005519D01*
X063535Y005503D01*
X063488Y005490D01*
X063441Y005481D01*
X063392Y005476D01*
X063344Y005475D01*
X063295Y005478D01*
X063247Y005485D01*
X063200Y005496D01*
X063154Y005510D01*
X063109Y005529D01*
X063066Y005551D01*
X063024Y005576D01*
X062985Y005605D01*
X062948Y005637D01*
X062914Y005671D01*
X062883Y005709D01*
X062855Y005748D01*
X062831Y005790D01*
X062810Y005834D01*
X062792Y005879D01*
X062779Y005926D01*
X062769Y005973D01*
X062763Y006022D01*
X062761Y006070D01*
X062756Y006070D02*
X062758Y006118D01*
X062764Y006166D01*
X062773Y006214D01*
X062787Y006260D01*
X062804Y006305D01*
X062825Y006349D01*
X062849Y006391D01*
X062876Y006430D01*
X062907Y006468D01*
X062940Y006503D01*
X062977Y006535D01*
X063015Y006564D01*
X063056Y006590D01*
X063099Y006612D01*
X063143Y006631D01*
X063189Y006646D01*
X063236Y006658D01*
X063284Y006666D01*
X063332Y006670D01*
X063380Y006670D01*
X063428Y006666D01*
X063476Y006658D01*
X063523Y006646D01*
X063569Y006631D01*
X063613Y006612D01*
X063656Y006590D01*
X063697Y006564D01*
X063735Y006535D01*
X063772Y006503D01*
X063805Y006468D01*
X063836Y006430D01*
X063863Y006391D01*
X063887Y006349D01*
X063908Y006305D01*
X063925Y006260D01*
X063939Y006214D01*
X063948Y006166D01*
X063954Y006118D01*
X063956Y006070D01*
X022014Y001620D02*
X022016Y001649D01*
X022022Y001677D01*
X022031Y001705D01*
X022044Y001731D01*
X022061Y001754D01*
X022080Y001776D01*
X022102Y001795D01*
X022127Y001810D01*
X022153Y001823D01*
X022181Y001831D01*
X022209Y001836D01*
X022238Y001837D01*
X022267Y001834D01*
X022295Y001827D01*
X022322Y001817D01*
X022348Y001803D01*
X022371Y001786D01*
X022392Y001766D01*
X022410Y001743D01*
X022425Y001718D01*
X022436Y001691D01*
X022444Y001663D01*
X022448Y001634D01*
X022448Y001606D01*
X022444Y001577D01*
X022436Y001549D01*
X022425Y001522D01*
X022410Y001497D01*
X022392Y001474D01*
X022371Y001454D01*
X022348Y001437D01*
X022322Y001423D01*
X022295Y001413D01*
X022267Y001406D01*
X022238Y001403D01*
X022209Y001404D01*
X022181Y001409D01*
X022153Y001417D01*
X022127Y001430D01*
X022102Y001445D01*
X022080Y001464D01*
X022061Y001486D01*
X022044Y001509D01*
X022031Y001535D01*
X022022Y001563D01*
X022016Y001591D01*
X022014Y001620D01*
X013616Y001620D02*
X013618Y001655D01*
X013624Y001690D01*
X013634Y001724D01*
X013647Y001757D01*
X013664Y001788D01*
X013685Y001816D01*
X013708Y001843D01*
X013735Y001866D01*
X013763Y001887D01*
X013794Y001904D01*
X013827Y001917D01*
X013861Y001927D01*
X013896Y001933D01*
X013931Y001935D01*
X013966Y001933D01*
X014001Y001927D01*
X014035Y001917D01*
X014068Y001904D01*
X014099Y001887D01*
X014127Y001866D01*
X014154Y001843D01*
X014177Y001816D01*
X014198Y001788D01*
X014215Y001757D01*
X014228Y001724D01*
X014238Y001690D01*
X014244Y001655D01*
X014246Y001620D01*
X014244Y001585D01*
X014238Y001550D01*
X014228Y001516D01*
X014215Y001483D01*
X014198Y001452D01*
X014177Y001424D01*
X014154Y001397D01*
X014127Y001374D01*
X014099Y001353D01*
X014068Y001336D01*
X014035Y001323D01*
X014001Y001313D01*
X013966Y001307D01*
X013931Y001305D01*
X013896Y001307D01*
X013861Y001313D01*
X013827Y001323D01*
X013794Y001336D01*
X013763Y001353D01*
X013735Y001374D01*
X013708Y001397D01*
X013685Y001424D01*
X013664Y001452D01*
X013647Y001483D01*
X013634Y001516D01*
X013624Y001550D01*
X013618Y001585D01*
X013616Y001620D01*
D12*
X041956Y004670D02*
X041956Y006070D01*
X043156Y006070D02*
X043156Y004670D01*
X062756Y004670D02*
X062756Y006070D01*
X063956Y006070D02*
X063956Y004670D01*
D13*
X022331Y007120D02*
X013031Y007120D01*
M02*
