G75*
G70*
%OFA0B0*%
%FSLAX24Y24*%
%IPPOS*%
%LPD*%
%AMOC8*
5,1,8,0,0,1.08239X$1,22.5*
%
%ADD10C,0.0060*%
%ADD11C,0.0040*%
%ADD12R,0.0551X0.0256*%
%ADD13R,0.0290X0.0690*%
%ADD14R,0.0256X0.0551*%
%ADD15R,0.0690X0.0290*%
%ADD16R,0.0571X0.0295*%
%ADD17R,0.0669X0.0295*%
%ADD18R,0.0560X0.0140*%
%ADD19R,0.0140X0.0560*%
%ADD20C,0.0050*%
%ADD21R,0.0100X0.0200*%
%ADD22R,0.0295X0.0571*%
D10*
X024456Y032538D02*
X025356Y032538D01*
X025456Y032638D01*
X025556Y032538D01*
X026356Y032538D01*
X026456Y032638D01*
X026556Y032538D01*
X027356Y032538D01*
X027456Y032638D01*
X027556Y032538D01*
X028356Y032538D01*
X028456Y032638D01*
X028556Y032538D01*
X029356Y032538D01*
X029456Y032638D01*
X029556Y032538D01*
X030356Y032538D01*
X030456Y032638D01*
X030556Y032538D01*
X031456Y032538D01*
X031456Y033538D01*
X030556Y033538D01*
X030456Y033438D01*
X030356Y033538D01*
X029556Y033538D01*
X029456Y033438D01*
X029356Y033538D01*
X028556Y033538D01*
X028456Y033438D01*
X028356Y033538D01*
X027556Y033538D01*
X027456Y033438D01*
X027356Y033538D01*
X026556Y033538D01*
X026456Y033438D01*
X026356Y033538D01*
X025556Y033538D01*
X025456Y033438D01*
X025356Y033538D01*
X024456Y033538D01*
X024456Y032538D01*
X024756Y032838D02*
X024756Y033238D01*
X024856Y033238D01*
X024856Y033338D01*
X025056Y033338D01*
X025056Y033238D01*
X025156Y033238D01*
X025156Y032838D01*
X025056Y032838D01*
X025056Y032738D01*
X024856Y032738D01*
X024856Y032838D01*
X024756Y032838D01*
X025756Y032838D02*
X025756Y033238D01*
X025856Y033238D01*
X025856Y033338D01*
X026056Y033338D01*
X026056Y033238D01*
X026156Y033238D01*
X026156Y032838D01*
X026056Y032838D01*
X026056Y032738D01*
X025856Y032738D01*
X025856Y032838D01*
X025756Y032838D01*
X026756Y032838D02*
X026756Y033238D01*
X026856Y033238D01*
X026856Y033338D01*
X027056Y033338D01*
X027056Y033238D01*
X027156Y033238D01*
X027156Y032838D01*
X027056Y032838D01*
X027056Y032738D01*
X026856Y032738D01*
X026856Y032838D01*
X026756Y032838D01*
X027756Y032838D02*
X027756Y033238D01*
X027856Y033238D01*
X027856Y033338D01*
X028056Y033338D01*
X028056Y033238D01*
X028156Y033238D01*
X028156Y032838D01*
X028056Y032838D01*
X028056Y032738D01*
X027856Y032738D01*
X027856Y032838D01*
X027756Y032838D01*
X028756Y032838D02*
X028756Y033238D01*
X028856Y033238D01*
X028856Y033338D01*
X029056Y033338D01*
X029056Y033238D01*
X029156Y033238D01*
X029156Y032838D01*
X029056Y032838D01*
X029056Y032738D01*
X028856Y032738D01*
X028856Y032838D01*
X028756Y032838D01*
X029756Y032838D02*
X029756Y033238D01*
X029856Y033238D01*
X029856Y033338D01*
X030056Y033338D01*
X030056Y033238D01*
X030156Y033238D01*
X030156Y032838D01*
X030056Y032838D01*
X030056Y032738D01*
X029856Y032738D01*
X029856Y032838D01*
X029756Y032838D01*
X030756Y032838D02*
X030756Y033238D01*
X030856Y033238D01*
X030856Y033338D01*
X031056Y033338D01*
X031056Y033238D01*
X031156Y033238D01*
X031156Y032838D01*
X031056Y032838D01*
X031056Y032738D01*
X030856Y032738D01*
X030856Y032838D01*
X030756Y032838D01*
X031456Y032538D02*
X032356Y032538D01*
X032456Y032638D01*
X032556Y032538D01*
X033356Y032538D01*
X033456Y032638D01*
X033556Y032538D01*
X034356Y032538D01*
X034456Y032638D01*
X034556Y032538D01*
X035356Y032538D01*
X035456Y032638D01*
X035556Y032538D01*
X036356Y032538D01*
X036456Y032638D01*
X036556Y032538D01*
X037356Y032538D01*
X037456Y032638D01*
X037556Y032538D01*
X038456Y032538D01*
X038456Y033538D01*
X037556Y033538D01*
X037456Y033438D01*
X037356Y033538D01*
X036556Y033538D01*
X036456Y033438D01*
X036356Y033538D01*
X035556Y033538D01*
X035456Y033438D01*
X035356Y033538D01*
X034556Y033538D01*
X034456Y033438D01*
X034356Y033538D01*
X033556Y033538D01*
X033456Y033438D01*
X033356Y033538D01*
X032556Y033538D01*
X032456Y033438D01*
X032356Y033538D01*
X031456Y033538D01*
X031456Y032538D01*
X031756Y032838D02*
X031756Y033238D01*
X031856Y033238D01*
X031856Y033338D01*
X032056Y033338D01*
X032056Y033238D01*
X032156Y033238D01*
X032156Y032838D01*
X032056Y032838D01*
X032056Y032738D01*
X031856Y032738D01*
X031856Y032838D01*
X031756Y032838D01*
X032756Y032838D02*
X032756Y033238D01*
X032856Y033238D01*
X032856Y033338D01*
X033056Y033338D01*
X033056Y033238D01*
X033156Y033238D01*
X033156Y032838D01*
X033056Y032838D01*
X033056Y032738D01*
X032856Y032738D01*
X032856Y032838D01*
X032756Y032838D01*
X033756Y032838D02*
X033756Y033238D01*
X033856Y033238D01*
X033856Y033338D01*
X034056Y033338D01*
X034056Y033238D01*
X034156Y033238D01*
X034156Y032838D01*
X034056Y032838D01*
X034056Y032738D01*
X033856Y032738D01*
X033856Y032838D01*
X033756Y032838D01*
X034756Y032838D02*
X034756Y033238D01*
X034856Y033238D01*
X034856Y033338D01*
X035056Y033338D01*
X035056Y033238D01*
X035156Y033238D01*
X035156Y032838D01*
X035056Y032838D01*
X035056Y032738D01*
X034856Y032738D01*
X034856Y032838D01*
X034756Y032838D01*
X035756Y032838D02*
X035756Y033238D01*
X035856Y033238D01*
X035856Y033338D01*
X036056Y033338D01*
X036056Y033238D01*
X036156Y033238D01*
X036156Y032838D01*
X036056Y032838D01*
X036056Y032738D01*
X035856Y032738D01*
X035856Y032838D01*
X035756Y032838D01*
X036756Y032838D02*
X036756Y033238D01*
X036856Y033238D01*
X036856Y033338D01*
X037056Y033338D01*
X037056Y033238D01*
X037156Y033238D01*
X037156Y032838D01*
X037056Y032838D01*
X037056Y032738D01*
X036856Y032738D01*
X036856Y032838D01*
X036756Y032838D01*
X037756Y032838D02*
X037756Y033238D01*
X037856Y033238D01*
X037856Y033338D01*
X038056Y033338D01*
X038056Y033238D01*
X038156Y033238D01*
X038156Y032838D01*
X038056Y032838D01*
X038056Y032738D01*
X037856Y032738D01*
X037856Y032838D01*
X037756Y032838D01*
X054951Y035593D02*
X055706Y035593D01*
X055706Y036233D02*
X054951Y036233D01*
X063581Y039752D02*
X063581Y040074D01*
X064081Y040074D02*
X064081Y039752D01*
X065331Y045127D02*
X065331Y045449D01*
X065831Y045449D02*
X065831Y045127D01*
X064117Y047538D02*
X063795Y047538D01*
X063795Y048038D02*
X064117Y048038D01*
X059242Y048913D02*
X058920Y048913D01*
X058920Y049413D02*
X059242Y049413D01*
X057456Y047949D02*
X057456Y047627D01*
X056956Y047627D02*
X056956Y047949D01*
X055456Y050502D02*
X055456Y050824D01*
X054956Y050824D02*
X054956Y050502D01*
X054581Y050502D02*
X054581Y050824D01*
X054081Y050824D02*
X054081Y050502D01*
X053706Y050383D02*
X053706Y050943D01*
X053206Y050943D02*
X053206Y050383D01*
X052831Y050383D02*
X052831Y050943D01*
X052331Y050943D02*
X052331Y050383D01*
X051611Y050538D02*
X051051Y050538D01*
X051051Y050038D02*
X051611Y050038D01*
X050331Y050502D02*
X050331Y050824D01*
X049831Y050824D02*
X049831Y050502D01*
X051956Y048068D02*
X051956Y047508D01*
X052456Y047508D02*
X052456Y048068D01*
X052158Y046788D02*
X051835Y046788D01*
X051835Y046288D02*
X052158Y046288D01*
X047456Y057377D02*
X047456Y057699D01*
X046956Y057699D02*
X046956Y057377D01*
X046581Y058377D02*
X046581Y058699D01*
X046081Y058699D02*
X046081Y058377D01*
X046956Y059377D02*
X046956Y059699D01*
X047456Y059699D02*
X047456Y059377D01*
X046581Y060377D02*
X046581Y060699D01*
X046081Y060699D02*
X046081Y060377D01*
X033581Y052733D02*
X032826Y052733D01*
X032826Y052093D02*
X033581Y052093D01*
X031206Y052377D02*
X031206Y052699D01*
X030706Y052699D02*
X030706Y052377D01*
X030331Y052377D02*
X030331Y052699D01*
X029831Y052699D02*
X029831Y052377D01*
X028706Y051449D02*
X028706Y051127D01*
X028206Y051127D02*
X028206Y051449D01*
X030768Y049079D02*
X030540Y048851D01*
X030894Y048497D02*
X031122Y048725D01*
X032081Y048627D02*
X032081Y048949D01*
X032581Y048949D02*
X032581Y048627D01*
X026867Y048413D02*
X026545Y048413D01*
X026545Y047913D02*
X026867Y047913D01*
X070795Y020788D02*
X071117Y020788D01*
X071117Y020288D02*
X070795Y020288D01*
X070795Y019788D02*
X071117Y019788D01*
X071117Y019288D02*
X070795Y019288D01*
X070795Y018788D02*
X071117Y018788D01*
X071117Y018288D02*
X070795Y018288D01*
X070795Y017788D02*
X071117Y017788D01*
X071117Y017288D02*
X070795Y017288D01*
X070795Y016788D02*
X071117Y016788D01*
X071117Y016288D02*
X070795Y016288D01*
X070795Y015788D02*
X071117Y015788D01*
X071117Y015288D02*
X070795Y015288D01*
X070551Y014788D02*
X071111Y014788D01*
X071111Y014288D02*
X070551Y014288D01*
X070670Y013788D02*
X070992Y013788D01*
X070992Y013288D02*
X070670Y013288D01*
X070701Y012733D02*
X071456Y012733D01*
X071456Y012093D02*
X070701Y012093D01*
X071920Y011663D02*
X072242Y011663D01*
X072242Y011163D02*
X071920Y011163D01*
X072026Y010163D02*
X072026Y009408D01*
X071386Y009408D02*
X071386Y010163D01*
X073331Y011127D02*
X073331Y011449D01*
X073831Y011449D02*
X073831Y011127D01*
X073795Y012288D02*
X074117Y012288D01*
X074117Y012788D02*
X073795Y012788D01*
X073795Y013288D02*
X074117Y013288D01*
X074117Y013788D02*
X073795Y013788D01*
X073886Y014658D02*
X073886Y015413D01*
X073581Y015324D02*
X073581Y015002D01*
X073081Y015002D02*
X073081Y015324D01*
X072776Y014288D02*
X072776Y013533D01*
X072136Y013533D02*
X072136Y014288D01*
X074526Y014658D02*
X074526Y015413D01*
X072867Y017038D02*
X072545Y017038D01*
X072545Y017538D02*
X072867Y017538D01*
X073170Y018038D02*
X073492Y018038D01*
X073492Y018538D02*
X073170Y018538D01*
D11*
X030825Y022183D02*
X030748Y022260D01*
X030825Y022183D02*
X030978Y022183D01*
X031055Y022260D01*
X031055Y022567D01*
X030978Y022643D01*
X030825Y022643D01*
X030748Y022567D01*
X031208Y022643D02*
X031208Y022183D01*
X031208Y022413D02*
X031515Y022413D01*
X031669Y022490D02*
X031669Y022567D01*
X031745Y022643D01*
X031899Y022643D01*
X031976Y022567D01*
X032129Y022567D02*
X032206Y022643D01*
X032359Y022643D01*
X032436Y022567D01*
X032436Y022260D01*
X032359Y022183D01*
X032206Y022183D01*
X032129Y022260D01*
X031976Y022183D02*
X031669Y022490D01*
X031515Y022643D02*
X031515Y022183D01*
X031669Y022183D02*
X031976Y022183D01*
X032106Y021923D02*
X031806Y021923D01*
X031806Y021403D02*
X032096Y021403D01*
X053589Y023885D02*
X053666Y023808D01*
X053820Y023808D01*
X053896Y023885D01*
X053589Y024192D01*
X053589Y023885D01*
X053589Y024192D02*
X053666Y024268D01*
X053820Y024268D01*
X053896Y024192D01*
X053896Y023885D01*
X054050Y023885D02*
X054127Y023808D01*
X054280Y023808D01*
X054357Y023885D01*
X054357Y023961D01*
X054280Y024038D01*
X054127Y024038D01*
X054050Y023961D01*
X054050Y023885D01*
X054127Y024038D02*
X054050Y024115D01*
X054050Y024192D01*
X054127Y024268D01*
X054280Y024268D01*
X054357Y024192D01*
X054357Y024115D01*
X054280Y024038D01*
X054510Y024192D02*
X054817Y023885D01*
X054817Y023808D01*
X054510Y023808D01*
X054510Y024192D02*
X054510Y024268D01*
X054817Y024268D01*
X054971Y024192D02*
X055047Y024268D01*
X055201Y024268D01*
X055278Y024192D01*
X055278Y023885D01*
X055201Y023808D01*
X055047Y023808D01*
X054971Y023885D01*
X054106Y024528D02*
X053806Y024528D01*
X053816Y025048D02*
X054106Y025048D01*
X054041Y031308D02*
X053964Y031385D01*
X053964Y031461D01*
X054041Y031538D01*
X054271Y031538D01*
X054271Y031385D01*
X054195Y031308D01*
X054041Y031308D01*
X054271Y031538D02*
X054118Y031692D01*
X053964Y031768D01*
X054181Y032028D02*
X054481Y032028D01*
X054578Y031768D02*
X054578Y031308D01*
X054425Y031308D02*
X054732Y031308D01*
X054885Y031308D02*
X054885Y031768D01*
X055039Y031615D01*
X055192Y031768D01*
X055192Y031308D01*
X055346Y031385D02*
X055422Y031308D01*
X055576Y031308D01*
X055653Y031385D01*
X055653Y031692D01*
X055576Y031768D01*
X055422Y031768D01*
X055346Y031692D01*
X054732Y031615D02*
X054578Y031768D01*
X054481Y032548D02*
X054191Y032548D01*
X055041Y034933D02*
X054964Y035010D01*
X054964Y035317D01*
X055041Y035393D01*
X055195Y035393D01*
X055271Y035317D01*
X055271Y035240D01*
X055195Y035163D01*
X054964Y035163D01*
X055041Y034933D02*
X055195Y034933D01*
X055271Y035010D01*
X055425Y034933D02*
X055732Y034933D01*
X055885Y034933D02*
X056039Y035086D01*
X055962Y035086D02*
X056192Y035086D01*
X056192Y034933D02*
X056192Y035393D01*
X055962Y035393D01*
X055885Y035317D01*
X055885Y035163D01*
X055962Y035086D01*
X055732Y035240D02*
X055578Y035393D01*
X055578Y034933D01*
X062851Y038802D02*
X063311Y038802D01*
X063311Y039032D01*
X063235Y039109D01*
X063081Y039109D01*
X063004Y039032D01*
X063004Y038802D01*
X063004Y038955D02*
X062851Y039109D01*
X062851Y039262D02*
X063158Y039569D01*
X063235Y039569D01*
X063311Y039492D01*
X063311Y039339D01*
X063235Y039262D01*
X062851Y039262D02*
X062851Y039569D01*
X062928Y039723D02*
X063235Y040030D01*
X062928Y040030D01*
X062851Y039953D01*
X062851Y039799D01*
X062928Y039723D01*
X063235Y039723D01*
X063311Y039799D01*
X063311Y039953D01*
X063235Y040030D01*
X064946Y041898D02*
X064946Y042188D01*
X065466Y042188D02*
X065466Y041888D01*
X065726Y041788D02*
X065726Y041635D01*
X065803Y041558D01*
X066110Y041558D01*
X066186Y041635D01*
X066186Y041788D01*
X066110Y041865D01*
X066186Y042018D02*
X065956Y042018D01*
X066033Y042172D01*
X066033Y042249D01*
X065956Y042325D01*
X065803Y042325D01*
X065726Y042249D01*
X065726Y042095D01*
X065803Y042018D01*
X065803Y041865D02*
X065726Y041788D01*
X066186Y042018D02*
X066186Y042325D01*
X066186Y042479D02*
X066186Y042709D01*
X066110Y042786D01*
X065956Y042786D01*
X065879Y042709D01*
X065879Y042479D01*
X065726Y042479D02*
X066186Y042479D01*
X066254Y045058D02*
X066254Y045288D01*
X066331Y045365D01*
X066485Y045365D01*
X066561Y045288D01*
X066561Y045058D01*
X066101Y045058D01*
X066254Y045211D02*
X066101Y045365D01*
X066101Y045518D02*
X066408Y045825D01*
X066485Y045825D01*
X066561Y045749D01*
X066561Y045595D01*
X066485Y045518D01*
X066101Y045518D02*
X066101Y045825D01*
X066178Y045979D02*
X066101Y046056D01*
X066101Y046209D01*
X066178Y046286D01*
X066254Y046286D01*
X066331Y046209D01*
X066331Y046132D01*
X066331Y046209D02*
X066408Y046286D01*
X066485Y046286D01*
X066561Y046209D01*
X066561Y046056D01*
X066485Y045979D01*
X064186Y048308D02*
X064186Y048768D01*
X063956Y048768D01*
X063879Y048692D01*
X063879Y048538D01*
X063956Y048461D01*
X064186Y048461D01*
X064033Y048461D02*
X063879Y048308D01*
X063726Y048308D02*
X063419Y048615D01*
X063419Y048692D01*
X063495Y048768D01*
X063649Y048768D01*
X063726Y048692D01*
X063726Y048308D02*
X063419Y048308D01*
X063265Y048308D02*
X062958Y048615D01*
X062958Y048692D01*
X063035Y048768D01*
X063188Y048768D01*
X063265Y048692D01*
X063265Y048308D02*
X062958Y048308D01*
X060192Y048260D02*
X059885Y048567D01*
X060039Y048567D02*
X060039Y048260D01*
X059885Y048260D02*
X060192Y048567D01*
X060192Y048413D02*
X059885Y048413D01*
X059732Y048336D02*
X059502Y048336D01*
X059425Y048413D01*
X059425Y048567D01*
X059502Y048643D01*
X059732Y048643D01*
X059732Y048183D01*
X059578Y048336D02*
X059425Y048183D01*
X059271Y048183D02*
X058964Y048490D01*
X058964Y048567D01*
X059041Y048643D01*
X059195Y048643D01*
X059271Y048567D01*
X059271Y048183D02*
X058964Y048183D01*
X058186Y048325D02*
X058110Y048172D01*
X057956Y048018D01*
X057956Y048249D01*
X057879Y048325D01*
X057803Y048325D01*
X057726Y048249D01*
X057726Y048095D01*
X057803Y048018D01*
X057956Y048018D01*
X057956Y047865D02*
X057879Y047788D01*
X057879Y047558D01*
X057726Y047558D02*
X058186Y047558D01*
X058186Y047788D01*
X058110Y047865D01*
X057956Y047865D01*
X057879Y047711D02*
X057726Y047865D01*
X057726Y048479D02*
X058186Y048479D01*
X058186Y048709D01*
X058110Y048786D01*
X057956Y048786D01*
X057879Y048709D01*
X057879Y048479D01*
X055415Y049308D02*
X055415Y049768D01*
X055185Y049768D01*
X055108Y049692D01*
X055108Y049538D01*
X055185Y049461D01*
X055415Y049461D01*
X055261Y049461D02*
X055108Y049308D01*
X054955Y049308D02*
X054648Y049308D01*
X054801Y049308D02*
X054801Y049768D01*
X054955Y049615D01*
X054494Y049231D02*
X054187Y049231D01*
X054034Y049385D02*
X053957Y049308D01*
X053804Y049308D01*
X053727Y049385D01*
X053573Y049308D02*
X053266Y049768D01*
X053113Y049615D02*
X052959Y049768D01*
X052806Y049615D01*
X052806Y049308D01*
X052653Y049308D02*
X052346Y049615D01*
X052346Y049692D01*
X052422Y049768D01*
X052576Y049768D01*
X052653Y049692D01*
X052806Y049538D02*
X053113Y049538D01*
X053113Y049615D02*
X053113Y049308D01*
X053266Y049308D02*
X053573Y049768D01*
X053727Y049692D02*
X053804Y049768D01*
X053957Y049768D01*
X054034Y049692D01*
X054034Y049385D01*
X053976Y050183D02*
X054436Y050183D01*
X054436Y050413D01*
X054360Y050490D01*
X054206Y050490D01*
X054129Y050413D01*
X054129Y050183D01*
X054129Y050336D02*
X053976Y050490D01*
X054053Y050643D02*
X053976Y050720D01*
X053976Y050874D01*
X054053Y050950D01*
X054129Y050950D01*
X054206Y050874D01*
X054206Y050797D01*
X054206Y050874D02*
X054283Y050950D01*
X054360Y050950D01*
X054436Y050874D01*
X054436Y050720D01*
X054360Y050643D01*
X054851Y050740D02*
X055004Y050586D01*
X055004Y050663D02*
X055004Y050433D01*
X054851Y050433D02*
X055311Y050433D01*
X055311Y050663D01*
X055235Y050740D01*
X055081Y050740D01*
X055004Y050663D01*
X054928Y050893D02*
X054851Y050893D01*
X054928Y050893D02*
X055235Y051200D01*
X055311Y051200D01*
X055311Y050893D01*
X055726Y050970D02*
X055726Y051124D01*
X055803Y051200D01*
X055879Y051200D01*
X055956Y051124D01*
X055956Y050970D01*
X056033Y050893D01*
X056110Y050893D01*
X056186Y050970D01*
X056186Y051124D01*
X056110Y051200D01*
X056033Y051200D01*
X055956Y051124D01*
X055956Y050970D02*
X055879Y050893D01*
X055803Y050893D01*
X055726Y050970D01*
X055726Y050740D02*
X055879Y050586D01*
X055879Y050663D02*
X055879Y050433D01*
X055726Y050433D02*
X056186Y050433D01*
X056186Y050663D01*
X056110Y050740D01*
X055956Y050740D01*
X055879Y050663D01*
X055879Y051354D02*
X055879Y051584D01*
X055956Y051661D01*
X056110Y051661D01*
X056186Y051584D01*
X056186Y051354D01*
X055726Y051354D01*
X055311Y051354D02*
X055311Y051584D01*
X055235Y051661D01*
X055081Y051661D01*
X055004Y051584D01*
X055004Y051354D01*
X054851Y051354D02*
X055311Y051354D01*
X054436Y051641D02*
X054360Y051564D01*
X054053Y051564D01*
X053976Y051641D01*
X053976Y051794D01*
X054053Y051871D01*
X053976Y052025D02*
X054436Y052331D01*
X054283Y052485D02*
X054436Y052638D01*
X054283Y052792D01*
X053976Y052792D01*
X053976Y052945D02*
X054283Y053252D01*
X054360Y053252D01*
X054436Y053176D01*
X054436Y053022D01*
X054360Y052945D01*
X054206Y052792D02*
X054206Y052485D01*
X054283Y052485D02*
X053976Y052485D01*
X053976Y052331D02*
X054436Y052025D01*
X054360Y051871D02*
X054436Y051794D01*
X054436Y051641D01*
X053899Y051411D02*
X053899Y051104D01*
X053561Y050874D02*
X053561Y050720D01*
X053485Y050643D01*
X053485Y050490D02*
X053331Y050490D01*
X053254Y050413D01*
X053254Y050183D01*
X053101Y050183D02*
X053561Y050183D01*
X053561Y050413D01*
X053485Y050490D01*
X053254Y050336D02*
X053101Y050490D01*
X053101Y050643D02*
X053408Y050950D01*
X053485Y050950D01*
X053561Y050874D01*
X053101Y050950D02*
X053101Y050643D01*
X053024Y051104D02*
X053024Y051411D01*
X053178Y051564D02*
X053101Y051641D01*
X053101Y051794D01*
X053178Y051871D01*
X053101Y052025D02*
X053561Y052331D01*
X053408Y052485D02*
X053561Y052638D01*
X053408Y052792D01*
X053101Y052792D01*
X053101Y052945D02*
X053408Y053252D01*
X053485Y053252D01*
X053561Y053176D01*
X053561Y053022D01*
X053485Y052945D01*
X053331Y052792D02*
X053331Y052485D01*
X053408Y052485D02*
X053101Y052485D01*
X053101Y052331D02*
X053561Y052025D01*
X053485Y051871D02*
X053561Y051794D01*
X053561Y051641D01*
X053485Y051564D01*
X053178Y051564D01*
X053101Y052945D02*
X053101Y053252D01*
X053178Y053406D02*
X053485Y053713D01*
X053178Y053713D01*
X053101Y053636D01*
X053101Y053482D01*
X053178Y053406D01*
X053485Y053406D01*
X053561Y053482D01*
X053561Y053636D01*
X053485Y053713D01*
X053561Y053866D02*
X053561Y054173D01*
X053485Y054173D01*
X053178Y053866D01*
X053101Y053866D01*
X053178Y054327D02*
X053101Y054403D01*
X053101Y054557D01*
X053178Y054633D01*
X053331Y054633D01*
X053408Y054557D01*
X053408Y054480D01*
X053331Y054327D01*
X053561Y054327D01*
X053561Y054633D01*
X053976Y054557D02*
X053976Y054403D01*
X054053Y054327D01*
X054206Y054327D02*
X054283Y054480D01*
X054283Y054557D01*
X054206Y054633D01*
X054053Y054633D01*
X053976Y054557D01*
X054206Y054327D02*
X054436Y054327D01*
X054436Y054633D01*
X054436Y054173D02*
X054360Y054173D01*
X054053Y053866D01*
X053976Y053866D01*
X054053Y053713D02*
X053976Y053636D01*
X053976Y053482D01*
X054053Y053406D01*
X054360Y053713D01*
X054053Y053713D01*
X054360Y053713D02*
X054436Y053636D01*
X054436Y053482D01*
X054360Y053406D01*
X054053Y053406D01*
X053976Y053252D02*
X053976Y052945D01*
X054436Y053866D02*
X054436Y054173D01*
X051061Y051584D02*
X050985Y051661D01*
X050831Y051661D01*
X050754Y051584D01*
X050754Y051354D01*
X050601Y051354D02*
X051061Y051354D01*
X051061Y051584D01*
X050985Y051200D02*
X051061Y051124D01*
X051061Y050970D01*
X050985Y050893D01*
X050908Y050893D01*
X050831Y050970D01*
X050831Y051200D01*
X050678Y051200D02*
X050985Y051200D01*
X050678Y051200D02*
X050601Y051124D01*
X050601Y050970D01*
X050678Y050893D01*
X050601Y050740D02*
X050754Y050586D01*
X050754Y050663D02*
X050754Y050433D01*
X050601Y050433D02*
X051061Y050433D01*
X051061Y050663D01*
X050985Y050740D01*
X050831Y050740D01*
X050754Y050663D01*
X050964Y049768D02*
X051271Y049768D01*
X051271Y049538D01*
X051118Y049615D01*
X051041Y049615D01*
X050964Y049538D01*
X050964Y049385D01*
X051041Y049308D01*
X051195Y049308D01*
X051271Y049385D01*
X051425Y049692D02*
X051732Y049385D01*
X051732Y049308D01*
X051885Y049385D02*
X051962Y049308D01*
X052115Y049308D01*
X052192Y049385D01*
X051885Y049692D01*
X051885Y049385D01*
X051885Y049692D02*
X051962Y049768D01*
X052115Y049768D01*
X052192Y049692D01*
X052192Y049385D01*
X052346Y049308D02*
X052653Y049308D01*
X052956Y048536D02*
X052879Y048459D01*
X052879Y048229D01*
X052726Y048229D02*
X053186Y048229D01*
X053186Y048459D01*
X053110Y048536D01*
X052956Y048536D01*
X052956Y048075D02*
X052803Y048075D01*
X052726Y047999D01*
X052726Y047845D01*
X052803Y047768D01*
X052956Y047768D02*
X053033Y047922D01*
X053033Y047999D01*
X052956Y048075D01*
X053186Y048075D02*
X053186Y047768D01*
X052956Y047768D01*
X052956Y047615D02*
X052879Y047538D01*
X052879Y047308D01*
X052726Y047308D02*
X053186Y047308D01*
X053186Y047538D01*
X053110Y047615D01*
X052956Y047615D01*
X052879Y047461D02*
X052726Y047615D01*
X053379Y046953D02*
X053379Y046723D01*
X053226Y046723D02*
X053686Y046723D01*
X053686Y046953D01*
X053610Y047030D01*
X053456Y047030D01*
X053379Y046953D01*
X053456Y046569D02*
X053456Y046262D01*
X053686Y046492D01*
X053226Y046492D01*
X053303Y046109D02*
X053226Y046032D01*
X053226Y045879D01*
X053303Y045802D01*
X053610Y045802D01*
X053686Y045879D01*
X053686Y046032D01*
X053610Y046109D01*
X053946Y046513D02*
X053946Y046813D01*
X054466Y046803D02*
X054466Y046513D01*
X051242Y046474D02*
X051165Y046398D01*
X051242Y046474D02*
X051242Y046628D01*
X051165Y046705D01*
X051089Y046705D01*
X050782Y046398D01*
X050782Y046705D01*
X050858Y046167D02*
X051242Y046167D01*
X051242Y046091D02*
X051242Y046244D01*
X050858Y046167D02*
X050782Y046091D01*
X050782Y046014D01*
X050858Y045937D01*
X051425Y049692D02*
X051425Y049768D01*
X051732Y049768D01*
X048216Y052138D02*
X048216Y052428D01*
X047696Y052438D02*
X047696Y052138D01*
X047436Y052041D02*
X046976Y052041D01*
X046976Y052194D02*
X046976Y051887D01*
X047053Y051734D02*
X046976Y051657D01*
X046976Y051504D01*
X047053Y051427D01*
X047360Y051427D01*
X047436Y051504D01*
X047436Y051657D01*
X047360Y051734D01*
X047283Y051887D02*
X047436Y052041D01*
X047436Y052348D02*
X047436Y052578D01*
X047360Y052655D01*
X047206Y052655D01*
X047129Y052578D01*
X047129Y052348D01*
X046976Y052348D02*
X047436Y052348D01*
X046591Y051303D02*
X046591Y051013D01*
X046071Y051013D02*
X046071Y051313D01*
X045811Y051223D02*
X045811Y051453D01*
X045735Y051530D01*
X045581Y051530D01*
X045504Y051453D01*
X045504Y051223D01*
X045351Y051223D02*
X045811Y051223D01*
X045735Y051069D02*
X045658Y051069D01*
X045581Y050992D01*
X045504Y051069D01*
X045428Y051069D01*
X045351Y050992D01*
X045351Y050839D01*
X045428Y050762D01*
X045428Y050609D02*
X045351Y050532D01*
X045351Y050379D01*
X045428Y050302D01*
X045735Y050302D01*
X045811Y050379D01*
X045811Y050532D01*
X045735Y050609D01*
X045735Y050762D02*
X045811Y050839D01*
X045811Y050992D01*
X045735Y051069D01*
X045581Y050992D02*
X045581Y050916D01*
X045466Y050553D02*
X045466Y050263D01*
X044946Y050263D02*
X044946Y050563D01*
X044686Y050473D02*
X044686Y050703D01*
X044610Y050780D01*
X044456Y050780D01*
X044379Y050703D01*
X044379Y050473D01*
X044226Y050473D02*
X044686Y050473D01*
X044610Y050319D02*
X044686Y050242D01*
X044686Y050089D01*
X044610Y050012D01*
X044610Y049859D02*
X044686Y049782D01*
X044686Y049629D01*
X044610Y049552D01*
X044303Y049552D01*
X044226Y049629D01*
X044226Y049782D01*
X044303Y049859D01*
X044226Y050012D02*
X044533Y050319D01*
X044610Y050319D01*
X044226Y050319D02*
X044226Y050012D01*
X046226Y055506D02*
X046686Y055506D01*
X046686Y055736D01*
X046610Y055813D01*
X046456Y055813D01*
X046379Y055736D01*
X046379Y055506D01*
X046379Y055659D02*
X046226Y055813D01*
X046226Y055966D02*
X046226Y056273D01*
X046226Y056120D02*
X046686Y056120D01*
X046533Y055966D01*
X046610Y056427D02*
X046686Y056504D01*
X046686Y056657D01*
X046610Y056734D01*
X046533Y056734D01*
X046226Y056427D01*
X046226Y056734D01*
X046226Y056887D02*
X046533Y057194D01*
X046610Y057194D01*
X046686Y057117D01*
X046686Y056964D01*
X046610Y056887D01*
X046226Y056887D02*
X046226Y057194D01*
X046303Y057348D02*
X046226Y057424D01*
X046226Y057578D01*
X046303Y057655D01*
X046379Y057655D01*
X046456Y057578D01*
X046456Y057501D01*
X046456Y057578D02*
X046533Y057655D01*
X046610Y057655D01*
X046686Y057578D01*
X046686Y057424D01*
X046610Y057348D01*
X045811Y057197D02*
X045811Y056966D01*
X045351Y056966D01*
X045504Y056966D02*
X045504Y057197D01*
X045581Y057273D01*
X045735Y057273D01*
X045811Y057197D01*
X045658Y057427D02*
X045811Y057580D01*
X045351Y057580D01*
X045351Y057427D02*
X045351Y057734D01*
X045351Y057887D02*
X045351Y058194D01*
X045351Y058041D02*
X045811Y058041D01*
X045658Y057887D01*
X045735Y058348D02*
X045811Y058424D01*
X045811Y058578D01*
X045735Y058655D01*
X045658Y058655D01*
X045351Y058348D01*
X045351Y058655D01*
X045351Y059427D02*
X045811Y059427D01*
X045811Y059657D01*
X045735Y059734D01*
X045581Y059734D01*
X045504Y059657D01*
X045504Y059427D01*
X045504Y059580D02*
X045351Y059734D01*
X045428Y059887D02*
X045351Y059964D01*
X045351Y060117D01*
X045428Y060194D01*
X045504Y060194D01*
X045581Y060117D01*
X045581Y060041D01*
X045581Y060117D02*
X045658Y060194D01*
X045735Y060194D01*
X045811Y060117D01*
X045811Y059964D01*
X045735Y059887D01*
X045581Y060348D02*
X045581Y060655D01*
X045351Y060578D02*
X045811Y060578D01*
X045581Y060348D01*
X046303Y059655D02*
X046226Y059578D01*
X046226Y059424D01*
X046303Y059348D01*
X046226Y059194D02*
X046379Y059041D01*
X046379Y059117D02*
X046379Y058887D01*
X046226Y058887D02*
X046686Y058887D01*
X046686Y059117D01*
X046610Y059194D01*
X046456Y059194D01*
X046379Y059117D01*
X046610Y059348D02*
X046686Y059424D01*
X046686Y059578D01*
X046610Y059655D01*
X046533Y059655D01*
X046456Y059578D01*
X046379Y059655D01*
X046303Y059655D01*
X046456Y059578D02*
X046456Y059501D01*
X046456Y058734D02*
X046456Y058427D01*
X045351Y057273D02*
X045504Y057120D01*
X034067Y051893D02*
X034067Y051433D01*
X034067Y051586D02*
X033837Y051586D01*
X033760Y051663D01*
X033760Y051817D01*
X033837Y051893D01*
X034067Y051893D01*
X033914Y051586D02*
X033760Y051433D01*
X033607Y051433D02*
X033300Y051740D01*
X033300Y051817D01*
X033377Y051893D01*
X033530Y051893D01*
X033607Y051817D01*
X033607Y051433D02*
X033300Y051433D01*
X033146Y051663D02*
X032839Y051663D01*
X032916Y051433D02*
X032916Y051893D01*
X033146Y051663D01*
X031936Y052308D02*
X031936Y052538D01*
X031860Y052615D01*
X031706Y052615D01*
X031629Y052538D01*
X031629Y052308D01*
X031476Y052308D02*
X031936Y052308D01*
X031629Y052461D02*
X031476Y052615D01*
X031553Y052768D02*
X031476Y052845D01*
X031476Y052999D01*
X031553Y053075D01*
X031706Y053075D01*
X031783Y052999D01*
X031783Y052922D01*
X031706Y052768D01*
X031936Y052768D01*
X031936Y053075D01*
X031061Y052999D02*
X030985Y053075D01*
X030908Y053075D01*
X030831Y052999D01*
X030831Y052845D01*
X030908Y052768D01*
X030985Y052768D01*
X031061Y052845D01*
X031061Y052999D01*
X030831Y052999D02*
X030754Y053075D01*
X030678Y053075D01*
X030601Y052999D01*
X030601Y052845D01*
X030678Y052768D01*
X030754Y052768D01*
X030831Y052845D01*
X030831Y052615D02*
X030754Y052538D01*
X030754Y052308D01*
X030601Y052308D02*
X031061Y052308D01*
X031061Y052538D01*
X030985Y052615D01*
X030831Y052615D01*
X030754Y052461D02*
X030601Y052615D01*
X029436Y052209D02*
X029360Y052286D01*
X029053Y051979D01*
X028976Y052056D01*
X028976Y052209D01*
X029053Y052286D01*
X029360Y052286D01*
X029436Y052209D02*
X029436Y052056D01*
X029360Y051979D01*
X029053Y051979D01*
X028976Y051825D02*
X028976Y051518D01*
X028976Y051365D02*
X029129Y051211D01*
X029129Y051288D02*
X029129Y051058D01*
X028976Y051058D02*
X029436Y051058D01*
X029436Y051288D01*
X029360Y051365D01*
X029206Y051365D01*
X029129Y051288D01*
X029283Y051518D02*
X029436Y051672D01*
X028976Y051672D01*
X030300Y049644D02*
X030138Y049481D01*
X030138Y049373D01*
X030246Y049264D01*
X030355Y049264D01*
X030517Y049427D01*
X030409Y049318D02*
X030409Y049101D01*
X030246Y049047D02*
X030246Y048939D01*
X030138Y048830D01*
X030029Y048830D01*
X029812Y049047D01*
X029812Y049156D01*
X029921Y049264D01*
X030029Y049264D01*
X030083Y049210D01*
X030083Y049101D01*
X029921Y048939D01*
X030626Y049318D02*
X030300Y049644D01*
X031351Y048828D02*
X031428Y048905D01*
X031504Y048905D01*
X031581Y048828D01*
X031581Y048598D01*
X031428Y048598D01*
X031351Y048674D01*
X031351Y048828D01*
X031581Y048598D02*
X031735Y048751D01*
X031811Y048905D01*
X031735Y048444D02*
X031581Y048444D01*
X031504Y048367D01*
X031504Y048137D01*
X031351Y048137D02*
X031811Y048137D01*
X031811Y048367D01*
X031735Y048444D01*
X031504Y048291D02*
X031351Y048444D01*
X026936Y048683D02*
X026936Y049143D01*
X026706Y049143D01*
X026629Y049067D01*
X026629Y048913D01*
X026706Y048836D01*
X026936Y048836D01*
X026783Y048836D02*
X026629Y048683D01*
X026476Y048913D02*
X026169Y048913D01*
X026245Y048683D02*
X026245Y049143D01*
X026476Y048913D01*
X070724Y041740D02*
X070724Y041433D01*
X070724Y041663D02*
X071030Y041663D01*
X071030Y041740D02*
X071030Y041433D01*
X071184Y041433D02*
X071184Y041740D01*
X071261Y041740D01*
X071337Y041663D01*
X071414Y041740D01*
X071491Y041663D01*
X071491Y041433D01*
X071644Y041433D02*
X071875Y041433D01*
X071951Y041510D01*
X071951Y041663D01*
X071875Y041740D01*
X071644Y041740D01*
X071644Y041280D01*
X071337Y041433D02*
X071337Y041663D01*
X071030Y041740D02*
X070877Y041893D01*
X070724Y041740D01*
X072105Y041663D02*
X072181Y041740D01*
X072335Y041740D01*
X072412Y041663D01*
X072412Y041433D01*
X072565Y041510D02*
X072565Y041663D01*
X072642Y041740D01*
X072795Y041740D01*
X072872Y041663D01*
X072872Y041586D01*
X072565Y041586D01*
X072565Y041510D02*
X072642Y041433D01*
X072795Y041433D01*
X073025Y041433D02*
X073025Y041740D01*
X073256Y041740D01*
X073332Y041663D01*
X073332Y041433D01*
X073486Y041510D02*
X073563Y041433D01*
X073716Y041433D01*
X073793Y041510D01*
X073793Y041663D01*
X073716Y041740D01*
X073563Y041740D01*
X073486Y041663D01*
X073486Y041510D01*
X073946Y041433D02*
X074100Y041433D01*
X074023Y041433D02*
X074023Y041893D01*
X073946Y041893D01*
X074714Y041893D02*
X074867Y041740D01*
X075021Y041893D01*
X075021Y041433D01*
X075174Y041433D02*
X075174Y041893D01*
X075327Y041740D01*
X075481Y041893D01*
X075481Y041433D01*
X075634Y041510D02*
X075711Y041433D01*
X075865Y041433D01*
X075941Y041510D01*
X076095Y041433D02*
X076402Y041893D01*
X076555Y041817D02*
X076555Y041740D01*
X076632Y041663D01*
X076785Y041663D01*
X076862Y041586D01*
X076862Y041510D01*
X076785Y041433D01*
X076632Y041433D01*
X076555Y041510D01*
X076555Y041817D02*
X076632Y041893D01*
X076785Y041893D01*
X076862Y041817D01*
X077016Y041893D02*
X077016Y041433D01*
X077246Y041433D01*
X077322Y041510D01*
X077322Y041817D01*
X077246Y041893D01*
X077016Y041893D01*
X075941Y041817D02*
X075865Y041893D01*
X075711Y041893D01*
X075634Y041817D01*
X075634Y041510D01*
X074714Y041433D02*
X074714Y041893D01*
X072105Y041893D02*
X072105Y041433D01*
X072067Y020018D02*
X071837Y020018D01*
X071760Y019942D01*
X071760Y019788D01*
X071837Y019711D01*
X072067Y019711D01*
X072067Y019558D02*
X072067Y020018D01*
X071914Y019711D02*
X071760Y019558D01*
X071607Y019635D02*
X071607Y019711D01*
X071530Y019788D01*
X071377Y019788D01*
X071300Y019711D01*
X071300Y019635D01*
X071377Y019558D01*
X071530Y019558D01*
X071607Y019635D01*
X071530Y019788D02*
X071607Y019865D01*
X071607Y019942D01*
X071530Y020018D01*
X071377Y020018D01*
X071300Y019942D01*
X071300Y019865D01*
X071377Y019788D01*
X071146Y019558D02*
X070916Y019558D01*
X070839Y019635D01*
X070839Y019942D01*
X070916Y020018D01*
X071146Y020018D01*
X071146Y019558D01*
X071146Y019018D02*
X070916Y019018D01*
X070839Y018942D01*
X070839Y018635D01*
X070916Y018558D01*
X071146Y018558D01*
X071146Y019018D01*
X071300Y019018D02*
X071300Y018942D01*
X071607Y018635D01*
X071607Y018558D01*
X071760Y018558D02*
X071914Y018711D01*
X071837Y018711D02*
X072067Y018711D01*
X072067Y018558D02*
X072067Y019018D01*
X071837Y019018D01*
X071760Y018942D01*
X071760Y018788D01*
X071837Y018711D01*
X071607Y019018D02*
X071300Y019018D01*
X071708Y018268D02*
X071708Y018192D01*
X071862Y018038D01*
X071862Y017808D01*
X071837Y017711D02*
X071760Y017788D01*
X071760Y017942D01*
X071837Y018018D01*
X072067Y018018D01*
X072067Y017558D01*
X072067Y017711D02*
X071837Y017711D01*
X071914Y017711D02*
X071760Y017558D01*
X071607Y017635D02*
X071607Y017788D01*
X071377Y017788D01*
X071300Y017711D01*
X071300Y017635D01*
X071377Y017558D01*
X071530Y017558D01*
X071607Y017635D01*
X071607Y017788D02*
X071453Y017942D01*
X071300Y018018D01*
X071146Y018018D02*
X070916Y018018D01*
X070839Y017942D01*
X070839Y017635D01*
X070916Y017558D01*
X071146Y017558D01*
X071146Y018018D01*
X071862Y018038D02*
X072015Y018192D01*
X072015Y018268D01*
X072169Y018192D02*
X072245Y018268D01*
X072399Y018268D01*
X072476Y018192D01*
X072476Y018115D01*
X072399Y018038D01*
X072169Y018038D01*
X072169Y017885D02*
X072169Y018192D01*
X072169Y017885D02*
X072245Y017808D01*
X072399Y017808D01*
X072476Y017885D01*
X072629Y017808D02*
X072783Y017961D01*
X072706Y017961D02*
X072936Y017961D01*
X072936Y017808D02*
X072936Y018268D01*
X072706Y018268D01*
X072629Y018192D01*
X072629Y018038D01*
X072706Y017961D01*
X072640Y018808D02*
X072333Y018808D01*
X072487Y018808D02*
X072487Y019268D01*
X072640Y019115D01*
X072794Y019192D02*
X072794Y019038D01*
X072870Y018961D01*
X073101Y018961D01*
X073101Y018808D02*
X073101Y019268D01*
X072870Y019268D01*
X072794Y019192D01*
X072947Y018961D02*
X072794Y018808D01*
X073254Y018885D02*
X073561Y019192D01*
X073408Y019192D02*
X073408Y018885D01*
X073561Y018885D02*
X073254Y019192D01*
X073254Y019038D02*
X073561Y019038D01*
X074726Y017507D02*
X074956Y017507D01*
X075110Y017661D01*
X075186Y017661D01*
X074956Y017507D02*
X075110Y017354D01*
X075186Y017354D01*
X075110Y017200D02*
X075033Y017200D01*
X074956Y017124D01*
X074879Y017200D01*
X074803Y017200D01*
X074726Y017124D01*
X074726Y016970D01*
X074803Y016893D01*
X074803Y016740D02*
X074726Y016663D01*
X074726Y016510D01*
X074803Y016433D01*
X075110Y016433D01*
X075186Y016510D01*
X075186Y016663D01*
X075110Y016740D01*
X075110Y016893D02*
X075186Y016970D01*
X075186Y017124D01*
X075110Y017200D01*
X074956Y017124D02*
X074956Y017047D01*
X074466Y017063D02*
X074466Y016763D01*
X073946Y016773D02*
X073946Y017063D01*
X074235Y016161D02*
X074311Y016161D01*
X074235Y016161D02*
X074081Y016007D01*
X073851Y016007D01*
X074081Y016007D02*
X074235Y015854D01*
X074311Y015854D01*
X074311Y015700D02*
X074235Y015700D01*
X073928Y015393D01*
X073851Y015393D01*
X073851Y015240D02*
X074004Y015086D01*
X074004Y015163D02*
X074004Y014933D01*
X073851Y014933D02*
X074311Y014933D01*
X074311Y015163D01*
X074235Y015240D01*
X074081Y015240D01*
X074004Y015163D01*
X074311Y015393D02*
X074311Y015700D01*
X074726Y015632D02*
X074956Y015632D01*
X075110Y015786D01*
X075186Y015786D01*
X074956Y015632D02*
X075110Y015479D01*
X075186Y015479D01*
X075186Y015325D02*
X075110Y015172D01*
X074956Y015018D01*
X074956Y015249D01*
X074879Y015325D01*
X074803Y015325D01*
X074726Y015249D01*
X074726Y015095D01*
X074803Y015018D01*
X074956Y015018D01*
X074956Y014865D02*
X074879Y014788D01*
X074879Y014558D01*
X074726Y014558D02*
X075186Y014558D01*
X075186Y014788D01*
X075110Y014865D01*
X074956Y014865D01*
X074879Y014711D02*
X074726Y014865D01*
X074186Y014518D02*
X073956Y014518D01*
X073879Y014442D01*
X073879Y014288D01*
X073956Y014211D01*
X074186Y014211D01*
X074186Y014058D02*
X074186Y014518D01*
X074033Y014211D02*
X073879Y014058D01*
X073726Y014058D02*
X073419Y014058D01*
X073360Y014047D02*
X073053Y014047D01*
X073112Y014058D02*
X073112Y014288D01*
X072958Y014442D01*
X072958Y014518D01*
X072976Y014661D02*
X073129Y014507D01*
X073129Y014584D02*
X073129Y014354D01*
X073112Y014288D02*
X073265Y014442D01*
X073265Y014518D01*
X073129Y014584D02*
X073206Y014661D01*
X073360Y014661D01*
X073436Y014584D01*
X073436Y014354D01*
X072976Y014354D01*
X073053Y014200D02*
X073360Y013893D01*
X073360Y013740D02*
X073053Y013433D01*
X072958Y013442D02*
X072958Y013518D01*
X072958Y013442D02*
X073112Y013288D01*
X073112Y013058D01*
X073112Y013288D02*
X073265Y013442D01*
X073265Y013518D01*
X073206Y013433D02*
X073206Y013740D01*
X073053Y013740D02*
X073360Y013433D01*
X073419Y013442D02*
X073495Y013518D01*
X073649Y013518D01*
X073726Y013442D01*
X073879Y013442D02*
X073879Y013288D01*
X073956Y013211D01*
X074186Y013211D01*
X074186Y013058D02*
X074186Y013518D01*
X073956Y013518D01*
X073879Y013442D01*
X074033Y013211D02*
X073879Y013058D01*
X073726Y013058D02*
X073419Y013365D01*
X073419Y013442D01*
X073360Y013586D02*
X073053Y013586D01*
X073053Y013893D02*
X073360Y014200D01*
X073206Y014200D02*
X073206Y013893D01*
X073572Y014058D02*
X073572Y014518D01*
X073726Y014365D01*
X073360Y014814D02*
X073436Y014891D01*
X073436Y015044D01*
X073360Y015121D01*
X073283Y015121D01*
X072976Y014814D01*
X072976Y015121D01*
X072067Y015018D02*
X072067Y014558D01*
X072067Y014711D02*
X071837Y014711D01*
X071760Y014788D01*
X071760Y014942D01*
X071837Y015018D01*
X072067Y015018D01*
X071914Y014711D02*
X071760Y014558D01*
X071607Y014635D02*
X071530Y014558D01*
X071377Y014558D01*
X071300Y014635D01*
X071300Y014711D01*
X071377Y014788D01*
X071453Y014788D01*
X071377Y014788D02*
X071300Y014865D01*
X071300Y014942D01*
X071377Y015018D01*
X071530Y015018D01*
X071607Y014942D01*
X071146Y015018D02*
X070916Y015018D01*
X070839Y014942D01*
X070839Y014635D01*
X070916Y014558D01*
X071146Y014558D01*
X071146Y015018D01*
X071146Y015558D02*
X070916Y015558D01*
X070839Y015635D01*
X070839Y015942D01*
X070916Y016018D01*
X071146Y016018D01*
X071146Y015558D01*
X071377Y015558D02*
X071377Y016018D01*
X071607Y015788D01*
X071300Y015788D01*
X071760Y015788D02*
X071837Y015711D01*
X072067Y015711D01*
X072067Y015558D02*
X072067Y016018D01*
X071837Y016018D01*
X071760Y015942D01*
X071760Y015788D01*
X071914Y015711D02*
X071760Y015558D01*
X071760Y016558D02*
X071914Y016711D01*
X071837Y016711D02*
X072067Y016711D01*
X072067Y016558D02*
X072067Y017018D01*
X071837Y017018D01*
X071760Y016942D01*
X071760Y016788D01*
X071837Y016711D01*
X071607Y016635D02*
X071530Y016558D01*
X071377Y016558D01*
X071300Y016635D01*
X071300Y016788D01*
X071377Y016865D01*
X071453Y016865D01*
X071607Y016788D01*
X071607Y017018D01*
X071300Y017018D01*
X071146Y017018D02*
X070916Y017018D01*
X070839Y016942D01*
X070839Y016635D01*
X070916Y016558D01*
X071146Y016558D01*
X071146Y017018D01*
X071155Y014018D02*
X071232Y013942D01*
X071155Y014018D02*
X071002Y014018D01*
X070925Y013942D01*
X070925Y013865D01*
X071232Y013558D01*
X070925Y013558D01*
X070771Y013558D02*
X070541Y013558D01*
X070464Y013635D01*
X070464Y013942D01*
X070541Y014018D01*
X070771Y014018D01*
X070771Y013558D01*
X070791Y013018D02*
X070714Y012942D01*
X070714Y012635D01*
X070791Y012558D01*
X071021Y012558D01*
X071021Y013018D01*
X070791Y013018D01*
X071328Y013018D02*
X071328Y012558D01*
X071175Y012558D02*
X071482Y012558D01*
X071635Y012558D02*
X071789Y012711D01*
X071712Y012711D02*
X071942Y012711D01*
X071942Y012558D02*
X071942Y013018D01*
X071712Y013018D01*
X071635Y012942D01*
X071635Y012788D01*
X071712Y012711D01*
X071482Y012865D02*
X071328Y013018D01*
X071385Y013558D02*
X071539Y013711D01*
X071462Y013711D02*
X071692Y013711D01*
X071692Y013558D02*
X071692Y014018D01*
X071462Y014018D01*
X071385Y013942D01*
X071385Y013788D01*
X071462Y013711D01*
X071252Y011893D02*
X071482Y011663D01*
X071175Y011663D01*
X071021Y011817D02*
X070868Y011663D01*
X070868Y011433D01*
X070868Y011663D02*
X070714Y011817D01*
X070714Y011893D01*
X071021Y011893D02*
X071021Y011817D01*
X071252Y011893D02*
X071252Y011433D01*
X071635Y011433D02*
X071789Y011586D01*
X071712Y011586D02*
X071942Y011586D01*
X071942Y011433D02*
X071942Y011893D01*
X071712Y011893D01*
X071635Y011817D01*
X071635Y011663D01*
X071712Y011586D01*
X071964Y010893D02*
X071964Y010817D01*
X072118Y010663D01*
X072118Y010433D01*
X072226Y010382D02*
X072456Y010382D01*
X072610Y010536D01*
X072686Y010536D01*
X072732Y010510D02*
X072732Y010586D01*
X072655Y010663D01*
X072502Y010663D01*
X072425Y010586D01*
X072425Y010510D01*
X072502Y010433D01*
X072655Y010433D01*
X072732Y010510D01*
X072831Y010484D02*
X072754Y010407D01*
X072754Y010177D01*
X072686Y010229D02*
X072610Y010229D01*
X072456Y010382D01*
X072601Y010484D02*
X072754Y010330D01*
X072885Y010433D02*
X073039Y010586D01*
X073061Y010637D02*
X072831Y010637D01*
X072908Y010791D01*
X072908Y010867D01*
X072831Y010944D01*
X072678Y010944D01*
X072601Y010867D01*
X072601Y010714D01*
X072678Y010637D01*
X072655Y010663D02*
X072732Y010740D01*
X072732Y010817D01*
X072655Y010893D01*
X072502Y010893D01*
X072425Y010817D01*
X072425Y010740D01*
X072502Y010663D01*
X072271Y010817D02*
X072118Y010663D01*
X072271Y010817D02*
X072271Y010893D01*
X072601Y011251D02*
X072831Y011251D01*
X072985Y011405D01*
X073061Y011405D01*
X072831Y011251D02*
X072985Y011098D01*
X073061Y011098D01*
X073061Y010944D02*
X073061Y010637D01*
X072962Y010586D02*
X073192Y010586D01*
X073192Y010433D02*
X073192Y010893D01*
X072962Y010893D01*
X072885Y010817D01*
X072885Y010663D01*
X072962Y010586D01*
X072985Y010484D02*
X072831Y010484D01*
X072985Y010484D02*
X073061Y010407D01*
X073061Y010177D01*
X072601Y010177D01*
X072610Y010075D02*
X072533Y010075D01*
X072456Y009999D01*
X072379Y010075D01*
X072303Y010075D01*
X072226Y009999D01*
X072226Y009845D01*
X072303Y009768D01*
X072226Y009615D02*
X072379Y009461D01*
X072379Y009538D02*
X072379Y009308D01*
X072226Y009308D02*
X072686Y009308D01*
X072686Y009538D01*
X072610Y009615D01*
X072456Y009615D01*
X072379Y009538D01*
X072610Y009768D02*
X072686Y009845D01*
X072686Y009999D01*
X072610Y010075D01*
X072456Y009999D02*
X072456Y009922D01*
X073419Y013058D02*
X073726Y013058D01*
X076396Y015658D02*
X076396Y016418D01*
X077016Y016418D02*
X077016Y015658D01*
X077226Y015635D02*
X077226Y015788D01*
X077303Y015865D01*
X077226Y016018D02*
X077533Y016325D01*
X077610Y016325D01*
X077686Y016249D01*
X077686Y016095D01*
X077610Y016018D01*
X077610Y015865D02*
X077686Y015788D01*
X077686Y015635D01*
X077610Y015558D01*
X077303Y015558D01*
X077226Y015635D01*
X077396Y015658D02*
X077396Y016418D01*
X077226Y016325D02*
X077226Y016018D01*
X077610Y016479D02*
X077456Y016632D01*
X077226Y016632D01*
X077456Y016632D02*
X077610Y016786D01*
X077686Y016786D01*
X077686Y016479D02*
X077610Y016479D01*
X078016Y016418D02*
X078016Y015658D01*
X078226Y015635D02*
X078226Y015788D01*
X078303Y015865D01*
X078226Y016018D02*
X078226Y016325D01*
X078226Y016172D02*
X078686Y016172D01*
X078533Y016018D01*
X078610Y015865D02*
X078686Y015788D01*
X078686Y015635D01*
X078610Y015558D01*
X078303Y015558D01*
X078226Y015635D01*
X078610Y016479D02*
X078456Y016632D01*
X078226Y016632D01*
X078456Y016632D02*
X078610Y016786D01*
X078686Y016786D01*
X078686Y016479D02*
X078610Y016479D01*
X063936Y014817D02*
X063936Y014510D01*
X063859Y014433D01*
X063706Y014433D01*
X063629Y014510D01*
X063476Y014433D02*
X063476Y014893D01*
X063629Y014817D02*
X063706Y014893D01*
X063859Y014893D01*
X063936Y014817D01*
X063476Y014433D02*
X063322Y014586D01*
X063169Y014433D01*
X063169Y014893D01*
X063015Y014817D02*
X062938Y014893D01*
X062785Y014893D01*
X062708Y014817D01*
X062708Y014740D01*
X063015Y014433D01*
X062708Y014433D01*
X062555Y014510D02*
X062478Y014433D01*
X062325Y014433D01*
X062248Y014510D01*
X062248Y014817D01*
X062325Y014893D01*
X062478Y014893D01*
X062555Y014817D01*
X062555Y014740D01*
X062478Y014663D01*
X062248Y014663D01*
X063306Y014173D02*
X063606Y014173D01*
X063596Y013653D02*
X063306Y013653D01*
D12*
X073332Y014871D03*
X073332Y015451D03*
X073580Y011580D03*
X073580Y011000D03*
X063830Y039625D03*
X063830Y040205D03*
X065582Y044996D03*
X065582Y045576D03*
X057207Y047496D03*
X057207Y048076D03*
X055207Y050371D03*
X055207Y050951D03*
X054332Y050951D03*
X054332Y050371D03*
X050082Y050371D03*
X050082Y050951D03*
X047205Y057250D03*
X047205Y057830D03*
X046330Y058250D03*
X046330Y058830D03*
X047205Y059250D03*
X047205Y059830D03*
X046330Y060250D03*
X046330Y060830D03*
X030957Y052826D03*
X030957Y052246D03*
X030082Y052246D03*
X030082Y052826D03*
X028457Y051576D03*
X028457Y050996D03*
X032330Y049080D03*
X032330Y048500D03*
D13*
X032686Y052413D03*
X033726Y052413D03*
X054811Y035913D03*
X055851Y035913D03*
X070561Y012413D03*
X071601Y012413D03*
D14*
X071119Y013537D03*
X070539Y013537D03*
X070664Y015537D03*
X071244Y015537D03*
X071244Y016537D03*
X070664Y016537D03*
X070664Y017537D03*
X071244Y017537D03*
X071244Y018537D03*
X070664Y018537D03*
X070664Y019537D03*
X071244Y019537D03*
X071244Y020537D03*
X070664Y020537D03*
X073043Y018289D03*
X073623Y018289D03*
X072998Y017289D03*
X072418Y017289D03*
X073668Y013539D03*
X074248Y013539D03*
X074248Y012539D03*
X073668Y012539D03*
X072369Y011412D03*
X071789Y011412D03*
X052284Y046537D03*
X051704Y046537D03*
X058789Y049162D03*
X059369Y049162D03*
X063668Y047789D03*
X064248Y047789D03*
G36*
X030753Y049098D02*
X030934Y049279D01*
X031321Y048892D01*
X031140Y048711D01*
X030753Y049098D01*
G37*
G36*
X030343Y048688D02*
X030524Y048869D01*
X030911Y048482D01*
X030730Y048301D01*
X030343Y048688D01*
G37*
X026998Y048164D03*
X026418Y048164D03*
D15*
X072456Y014433D03*
X072456Y013393D03*
X074206Y014518D03*
X074206Y015558D03*
X071706Y010308D03*
X071706Y009268D03*
D16*
X074206Y016631D03*
X074206Y017201D03*
X065206Y041756D03*
X065206Y042326D03*
X054206Y046375D03*
X054206Y046945D03*
X047956Y052000D03*
X047956Y052570D03*
X046331Y051445D03*
X046331Y050875D03*
X045206Y050695D03*
X045206Y050125D03*
D17*
X076706Y016560D03*
X077706Y016560D03*
X077706Y015516D03*
X076706Y015516D03*
D18*
X052206Y047448D03*
X052206Y048128D03*
X052581Y050323D03*
X052581Y051003D03*
X053456Y051003D03*
X053456Y050323D03*
D19*
X051671Y050288D03*
X050991Y050288D03*
X070491Y014538D03*
X071171Y014538D03*
D20*
X038191Y031963D02*
X038191Y032038D01*
X037891Y032338D01*
X037891Y032413D01*
X038191Y032413D01*
X034312Y032288D02*
X034312Y032213D01*
X034237Y032138D01*
X034087Y032138D01*
X034012Y032063D01*
X034012Y031988D01*
X034087Y031913D01*
X034237Y031913D01*
X034312Y031988D01*
X034312Y032288D02*
X034237Y032363D01*
X034087Y032363D01*
X034012Y032288D01*
X033852Y032363D02*
X033852Y032063D01*
X033702Y031913D01*
X033552Y032063D01*
X033552Y032363D01*
X033391Y032213D02*
X033241Y032363D01*
X033241Y031913D01*
X033391Y031913D02*
X033091Y031913D01*
X032191Y031963D02*
X031891Y031963D01*
X032041Y031963D02*
X032041Y032413D01*
X032191Y032263D01*
X031191Y032413D02*
X030891Y032413D01*
X030891Y032338D01*
X031191Y032038D01*
X031191Y031963D01*
X027312Y031988D02*
X027237Y031913D01*
X027087Y031913D01*
X027012Y031988D01*
X027012Y032063D01*
X027087Y032138D01*
X027237Y032138D01*
X027312Y032213D01*
X027312Y032288D01*
X027237Y032363D01*
X027087Y032363D01*
X027012Y032288D01*
X026852Y032363D02*
X026852Y032063D01*
X026702Y031913D01*
X026552Y032063D01*
X026552Y032363D01*
X026391Y032288D02*
X026316Y032363D01*
X026166Y032363D01*
X026091Y032288D01*
X026091Y032213D01*
X026166Y032138D01*
X026091Y032063D01*
X026091Y031988D01*
X026166Y031913D01*
X026316Y031913D01*
X026391Y031988D01*
X026241Y032138D02*
X026166Y032138D01*
X025191Y032263D02*
X025041Y032413D01*
X025041Y031963D01*
X025191Y031963D02*
X024891Y031963D01*
D21*
X024956Y032838D03*
X024956Y033238D03*
X025956Y033238D03*
X025956Y032838D03*
X026956Y032838D03*
X026956Y033238D03*
X027956Y033238D03*
X027956Y032838D03*
X028956Y032838D03*
X028956Y033238D03*
X029956Y033238D03*
X029956Y032838D03*
X030956Y032838D03*
X030956Y033238D03*
X031956Y033238D03*
X031956Y032838D03*
X032956Y032838D03*
X032956Y033238D03*
X033956Y033238D03*
X033956Y032838D03*
X034956Y032838D03*
X034956Y033238D03*
X035956Y033238D03*
X035956Y032838D03*
X036956Y032838D03*
X036956Y033238D03*
X037956Y033238D03*
X037956Y032838D03*
D22*
X032238Y021663D03*
X031668Y021663D03*
X053674Y024788D03*
X054244Y024788D03*
X054049Y032288D03*
X054619Y032288D03*
X063168Y013913D03*
X063738Y013913D03*
M02*
