G75*
G70*
%OFA0B0*%
%FSLAX24Y24*%
%IPPOS*%
%LPD*%
%AMOC8*
5,1,8,0,0,1.08239X$1,22.5*
%
%ADD10C,0.0700*%
%ADD11C,0.0635*%
%ADD12C,0.0555*%
%ADD13R,0.0591X0.0512*%
%ADD14R,0.0630X0.0710*%
%ADD15OC8,0.0635*%
%ADD16R,0.0512X0.0591*%
%ADD17R,0.0710X0.0630*%
%ADD18R,0.0709X0.0630*%
%ADD19C,0.0715*%
%ADD20OC8,0.0715*%
%ADD21C,0.0669*%
%ADD22C,0.1266*%
%ADD23C,0.0555*%
%ADD24C,0.0635*%
%ADD25R,0.0630X0.0512*%
%ADD26R,0.0512X0.0630*%
%ADD27C,0.0835*%
%ADD28C,0.0120*%
%ADD29C,0.0240*%
%ADD30C,0.0320*%
%ADD31C,0.0860*%
%ADD32C,0.0160*%
%ADD33C,0.0760*%
%ADD34C,0.0560*%
%ADD35R,0.0860X0.0860*%
%ADD36C,0.1969*%
D10*
X029456Y039163D03*
X030456Y039163D03*
X031456Y039163D03*
X032456Y039163D03*
X033456Y039163D03*
X034456Y039163D03*
X035456Y039163D03*
X036456Y039163D03*
X037456Y039163D03*
X038456Y039163D03*
X039456Y039163D03*
X039456Y040163D03*
X040456Y040163D03*
X040456Y041163D03*
X040456Y042163D03*
X040456Y043163D03*
X039456Y043163D03*
X039456Y042163D03*
X039456Y041163D03*
X038456Y040163D03*
X037456Y040163D03*
X036456Y040163D03*
X035456Y040163D03*
X034456Y040163D03*
X033456Y040163D03*
X032456Y040163D03*
X031456Y040163D03*
X030456Y040163D03*
X029456Y040163D03*
X028456Y040163D03*
X028456Y041163D03*
X029456Y041163D03*
X029456Y042163D03*
X029456Y043163D03*
X028456Y043163D03*
X028456Y042163D03*
X028456Y044163D03*
X029456Y044163D03*
X029456Y045163D03*
X029456Y046163D03*
X028456Y046163D03*
X028456Y045163D03*
X028456Y047163D03*
X029456Y047163D03*
X029456Y048163D03*
X029456Y049163D03*
X029456Y050163D03*
X030456Y050163D03*
X031456Y050163D03*
X032456Y050163D03*
X033456Y050163D03*
X034456Y050163D03*
X035456Y050163D03*
X036456Y050163D03*
X037456Y050163D03*
X038456Y050163D03*
X039456Y050163D03*
X040456Y050163D03*
X040456Y049163D03*
X040456Y048163D03*
X040456Y047163D03*
X039456Y047163D03*
X039456Y048163D03*
X039456Y049163D03*
X039456Y051163D03*
X038456Y051163D03*
X037456Y051163D03*
X036456Y051163D03*
X035456Y051163D03*
X034456Y051163D03*
X033456Y051163D03*
X032456Y051163D03*
X031456Y051163D03*
X030456Y051163D03*
X029456Y051163D03*
X028456Y050163D03*
X028456Y049163D03*
X028456Y048163D03*
X039456Y046163D03*
X040456Y046163D03*
X040456Y045163D03*
X040456Y044163D03*
X039456Y044163D03*
X039456Y045163D03*
X056331Y021663D03*
D11*
X022081Y011480D02*
X022081Y010846D01*
X023081Y010846D02*
X023081Y011480D01*
X024081Y011480D02*
X024081Y010846D01*
X025081Y010846D02*
X025081Y011480D01*
X026081Y011480D02*
X026081Y010846D01*
X027081Y010846D02*
X027081Y011480D01*
X028081Y011480D02*
X028081Y010846D01*
X029081Y010846D02*
X029081Y011480D01*
X030081Y011480D02*
X030081Y010846D01*
X031081Y010846D02*
X031081Y011480D01*
X032081Y011480D02*
X032081Y010846D01*
X033081Y010846D02*
X033081Y011480D01*
X034081Y011480D02*
X034081Y010846D01*
X035081Y010846D02*
X035081Y011480D01*
X036081Y011480D02*
X036081Y010846D01*
X037081Y010846D02*
X037081Y011480D01*
X037081Y016846D02*
X037081Y017480D01*
X036081Y017480D02*
X036081Y016846D01*
X035081Y016846D02*
X035081Y017480D01*
X034081Y017480D02*
X034081Y016846D01*
X033081Y016846D02*
X033081Y017480D01*
X032081Y017480D02*
X032081Y016846D01*
X031081Y016846D02*
X031081Y017480D01*
X030081Y017480D02*
X030081Y016846D01*
X029081Y016846D02*
X029081Y017480D01*
X028081Y017480D02*
X028081Y016846D01*
X027081Y016846D02*
X027081Y017480D01*
X026081Y017480D02*
X026081Y016846D01*
X025081Y016846D02*
X025081Y017480D01*
X024081Y017480D02*
X024081Y016846D01*
X023081Y016846D02*
X023081Y017480D01*
X022081Y017480D02*
X022081Y016846D01*
X022086Y020018D02*
X022086Y020653D01*
X023086Y020653D02*
X023086Y020018D01*
X024086Y020018D02*
X024086Y020653D01*
X025086Y020653D02*
X025086Y020018D01*
X026086Y020018D02*
X026086Y020653D01*
X027086Y020653D02*
X027086Y020018D01*
X028086Y020018D02*
X028086Y020653D01*
X029086Y020653D02*
X029086Y020018D01*
X030086Y020018D02*
X030086Y020653D01*
X031086Y020653D02*
X031086Y020018D01*
X032710Y020034D02*
X032710Y020669D01*
X033710Y020669D02*
X033710Y020034D01*
X034710Y020034D02*
X034710Y020669D01*
X035710Y020669D02*
X035710Y020034D01*
X036710Y020034D02*
X036710Y020669D01*
X037710Y020669D02*
X037710Y020034D01*
X038710Y020034D02*
X038710Y020669D01*
X039710Y020669D02*
X039710Y020034D01*
X040710Y020034D02*
X040710Y020669D01*
X041710Y020669D02*
X041710Y020034D01*
X044831Y020230D02*
X044831Y019596D01*
X045831Y019596D02*
X045831Y020230D01*
X046831Y020230D02*
X046831Y019596D01*
X047831Y019596D02*
X047831Y020230D01*
X048831Y020230D02*
X048831Y019596D01*
X049831Y019596D02*
X049831Y020230D01*
X050831Y020230D02*
X050831Y019596D01*
X051831Y019596D02*
X051831Y020230D01*
X052831Y020230D02*
X052831Y019596D01*
X053831Y019596D02*
X053831Y020230D01*
X054831Y020230D02*
X054831Y019596D01*
X055831Y019596D02*
X055831Y020230D01*
X056831Y020230D02*
X056831Y019596D01*
X057831Y019596D02*
X057831Y020230D01*
X058831Y020230D02*
X058831Y019596D01*
X059831Y019596D02*
X059831Y020230D01*
X060831Y020230D02*
X060831Y019596D01*
X061831Y019596D02*
X061831Y020230D01*
X062831Y020230D02*
X062831Y019596D01*
X063831Y019596D02*
X063831Y020230D01*
X063831Y017480D02*
X063831Y016846D01*
X062831Y016846D02*
X062831Y017480D01*
X061831Y017480D02*
X061831Y016846D01*
X060831Y016846D02*
X060831Y017480D01*
X059831Y017480D02*
X059831Y016846D01*
X058831Y016846D02*
X058831Y017480D01*
X057831Y017480D02*
X057831Y016846D01*
X056831Y016846D02*
X056831Y017480D01*
X055831Y017480D02*
X055831Y016846D01*
X054831Y016846D02*
X054831Y017480D01*
X053831Y017480D02*
X053831Y016846D01*
X052831Y016846D02*
X052831Y017480D01*
X051831Y017480D02*
X051831Y016846D01*
X050831Y016846D02*
X050831Y017480D01*
X049831Y017480D02*
X049831Y016846D01*
X048831Y016846D02*
X048831Y017480D01*
X041710Y023034D02*
X041710Y023669D01*
X040710Y023669D02*
X040710Y023034D01*
X039710Y023034D02*
X039710Y023669D01*
X038710Y023669D02*
X038710Y023034D01*
X037710Y023034D02*
X037710Y023669D01*
X036710Y023669D02*
X036710Y023034D01*
X035710Y023034D02*
X035710Y023669D01*
X034710Y023669D02*
X034710Y023034D01*
X033710Y023034D02*
X033710Y023669D01*
X032710Y023669D02*
X032710Y023034D01*
X031086Y023018D02*
X031086Y023653D01*
X030086Y023653D02*
X030086Y023018D01*
X029086Y023018D02*
X029086Y023653D01*
X028086Y023653D02*
X028086Y023018D01*
X027086Y023018D02*
X027086Y023653D01*
X026086Y023653D02*
X026086Y023018D01*
X025086Y023018D02*
X025086Y023653D01*
X024086Y023653D02*
X024086Y023018D01*
X023086Y023018D02*
X023086Y023653D01*
X022086Y023653D02*
X022086Y023018D01*
X023585Y024842D02*
X023585Y025477D01*
X024585Y025477D02*
X024585Y024842D01*
X025585Y024842D02*
X025585Y025477D01*
X026585Y025477D02*
X026585Y024842D01*
X027585Y024842D02*
X027585Y025477D01*
X028585Y025477D02*
X028585Y024842D01*
X029585Y024842D02*
X029585Y025477D01*
X030585Y025477D02*
X030585Y024842D01*
X031585Y024842D02*
X031585Y025477D01*
X032585Y025477D02*
X032585Y024842D01*
X032585Y027842D02*
X032585Y028477D01*
X031585Y028477D02*
X031585Y027842D01*
X030585Y027842D02*
X030585Y028477D01*
X029585Y028477D02*
X029585Y027842D01*
X028585Y027842D02*
X028585Y028477D01*
X027585Y028477D02*
X027585Y027842D01*
X026585Y027842D02*
X026585Y028477D01*
X025585Y028477D02*
X025585Y027842D01*
X024585Y027842D02*
X024585Y028477D01*
X023585Y028477D02*
X023585Y027842D01*
X024956Y029596D02*
X024956Y030230D01*
X025956Y030230D02*
X025956Y029596D01*
X026956Y029596D02*
X026956Y030230D01*
X027956Y030230D02*
X027956Y029596D01*
X028956Y029596D02*
X028956Y030230D01*
X029956Y030230D02*
X029956Y029596D01*
X030956Y029596D02*
X030956Y030230D01*
X031956Y030230D02*
X031956Y029596D01*
X032956Y029596D02*
X032956Y030230D01*
X033956Y030230D02*
X033956Y029596D01*
X034956Y029596D02*
X034956Y030230D01*
X035956Y030230D02*
X035956Y029596D01*
X036956Y029596D02*
X036956Y030230D01*
X037956Y030230D02*
X037956Y029596D01*
X037956Y032721D02*
X037956Y033355D01*
X036956Y033355D02*
X036956Y032721D01*
X035956Y032721D02*
X035956Y033355D01*
X034956Y033355D02*
X034956Y032721D01*
X033956Y032721D02*
X033956Y033355D01*
X032956Y033355D02*
X032956Y032721D01*
X031956Y032721D02*
X031956Y033355D01*
X030956Y033355D02*
X030956Y032721D01*
X029956Y032721D02*
X029956Y033355D01*
X028956Y033355D02*
X028956Y032721D01*
X027956Y032721D02*
X027956Y033355D01*
X026956Y033355D02*
X026956Y032721D01*
X025956Y032721D02*
X025956Y033355D01*
X024956Y033355D02*
X024956Y032721D01*
X024956Y035596D02*
X024956Y036230D01*
X025956Y036230D02*
X025956Y035596D01*
X026956Y035596D02*
X026956Y036230D01*
X027956Y036230D02*
X027956Y035596D01*
X028956Y035596D02*
X028956Y036230D01*
X029956Y036230D02*
X029956Y035596D01*
X030956Y035596D02*
X030956Y036230D01*
X031956Y036230D02*
X031956Y035596D01*
X032956Y035596D02*
X032956Y036230D01*
X033956Y036230D02*
X033956Y035596D01*
X034956Y035596D02*
X034956Y036230D01*
X035956Y036230D02*
X035956Y035596D01*
X036956Y035596D02*
X036956Y036230D01*
X037956Y036230D02*
X037956Y035596D01*
X044831Y036846D02*
X044831Y037480D01*
X045831Y037480D02*
X045831Y036846D01*
X046831Y036846D02*
X046831Y037480D01*
X047831Y037480D02*
X047831Y036846D01*
X048831Y036846D02*
X048831Y037480D01*
X049831Y037480D02*
X049831Y036846D01*
X050831Y036846D02*
X050831Y037480D01*
X051831Y037480D02*
X051831Y036846D01*
X052831Y036846D02*
X052831Y037480D01*
X053831Y037480D02*
X053831Y036846D01*
X054831Y036846D02*
X054831Y037480D01*
X055831Y037480D02*
X055831Y036846D01*
X056831Y036846D02*
X056831Y037480D01*
X057831Y037480D02*
X057831Y036846D01*
X058831Y036846D02*
X058831Y037480D01*
X059831Y037480D02*
X059831Y036846D01*
X060831Y036846D02*
X060831Y037480D01*
X061831Y037480D02*
X061831Y036846D01*
X062831Y036846D02*
X062831Y037480D01*
X063831Y037480D02*
X063831Y036846D01*
X063831Y031480D02*
X063831Y030846D01*
X062831Y030846D02*
X062831Y031480D01*
X061831Y031480D02*
X061831Y030846D01*
X060831Y030846D02*
X060831Y031480D01*
X059831Y031480D02*
X059831Y030846D01*
X058831Y030846D02*
X058831Y031480D01*
X057831Y031480D02*
X057831Y030846D01*
X056831Y030846D02*
X056831Y031480D01*
X055831Y031480D02*
X055831Y030846D01*
X054831Y030846D02*
X054831Y031480D01*
X053831Y031480D02*
X053831Y030846D01*
X052831Y030846D02*
X052831Y031480D01*
X051831Y031480D02*
X051831Y030846D01*
X050831Y030846D02*
X050831Y031480D01*
X049831Y031480D02*
X049831Y030846D01*
X048831Y030846D02*
X048831Y031480D01*
X047831Y031480D02*
X047831Y030846D01*
X046831Y030846D02*
X046831Y031480D01*
X045831Y031480D02*
X045831Y030846D01*
X044831Y030846D02*
X044831Y031480D01*
X044831Y026230D02*
X044831Y025596D01*
X045831Y025596D02*
X045831Y026230D01*
X046831Y026230D02*
X046831Y025596D01*
X047831Y025596D02*
X047831Y026230D01*
X048831Y026230D02*
X048831Y025596D01*
X049831Y025596D02*
X049831Y026230D01*
X050831Y026230D02*
X050831Y025596D01*
X051831Y025596D02*
X051831Y026230D01*
X052831Y026230D02*
X052831Y025596D01*
X053831Y025596D02*
X053831Y026230D01*
X054831Y026230D02*
X054831Y025596D01*
X055831Y025596D02*
X055831Y026230D01*
X056831Y026230D02*
X056831Y025596D01*
X057831Y025596D02*
X057831Y026230D01*
X058831Y026230D02*
X058831Y025596D01*
X059831Y025596D02*
X059831Y026230D01*
X060831Y026230D02*
X060831Y025596D01*
X061831Y025596D02*
X061831Y026230D01*
X062831Y026230D02*
X062831Y025596D01*
X063831Y025596D02*
X063831Y026230D01*
X069138Y026538D02*
X069773Y026538D01*
X069773Y027538D02*
X069138Y027538D01*
X069138Y028538D02*
X069773Y028538D01*
X069773Y029538D02*
X069138Y029538D01*
X069138Y025538D02*
X069773Y025538D01*
X069773Y024538D02*
X069138Y024538D01*
X069138Y023538D02*
X069773Y023538D01*
X069773Y022538D02*
X069138Y022538D01*
X069138Y021538D02*
X069773Y021538D01*
X069773Y020538D02*
X069138Y020538D01*
X069138Y019538D02*
X069773Y019538D01*
X069773Y018538D02*
X069138Y018538D01*
X069138Y017538D02*
X069773Y017538D01*
X069773Y016538D02*
X069138Y016538D01*
X069138Y015538D02*
X069773Y015538D01*
X069773Y014538D02*
X069138Y014538D01*
X069138Y013538D02*
X069773Y013538D01*
X069773Y012538D02*
X069138Y012538D01*
X069138Y011538D02*
X069773Y011538D01*
X069773Y010538D02*
X069138Y010538D01*
X063831Y010846D02*
X063831Y011480D01*
X062831Y011480D02*
X062831Y010846D01*
X061831Y010846D02*
X061831Y011480D01*
X060831Y011480D02*
X060831Y010846D01*
X059831Y010846D02*
X059831Y011480D01*
X058831Y011480D02*
X058831Y010846D01*
X057831Y010846D02*
X057831Y011480D01*
X056831Y011480D02*
X056831Y010846D01*
X055831Y010846D02*
X055831Y011480D01*
X054831Y011480D02*
X054831Y010846D01*
X053831Y010846D02*
X053831Y011480D01*
X052831Y011480D02*
X052831Y010846D01*
X051831Y010846D02*
X051831Y011480D01*
X050831Y011480D02*
X050831Y010846D01*
X049831Y010846D02*
X049831Y011480D01*
X048831Y011480D02*
X048831Y010846D01*
X075138Y010538D02*
X075773Y010538D01*
X075773Y011538D02*
X075138Y011538D01*
X075138Y012538D02*
X075773Y012538D01*
X075773Y013538D02*
X075138Y013538D01*
X075138Y014538D02*
X075773Y014538D01*
X075773Y015538D02*
X075138Y015538D01*
X075138Y016538D02*
X075773Y016538D01*
X075773Y017538D02*
X075138Y017538D01*
X075138Y018538D02*
X075773Y018538D01*
X075773Y019538D02*
X075138Y019538D01*
X075138Y020538D02*
X075773Y020538D01*
X075773Y021538D02*
X075138Y021538D01*
X075138Y022538D02*
X075773Y022538D01*
X075773Y023538D02*
X075138Y023538D01*
X075138Y024538D02*
X075773Y024538D01*
X075773Y025538D02*
X075138Y025538D01*
X075138Y026538D02*
X075773Y026538D01*
X075773Y027538D02*
X075138Y027538D01*
X075138Y028538D02*
X075773Y028538D01*
X075773Y029538D02*
X075138Y029538D01*
X057206Y044846D02*
X057206Y045480D01*
X056206Y045480D02*
X056206Y044846D01*
X055206Y044846D02*
X055206Y045480D01*
X054206Y045480D02*
X054206Y044846D01*
X053206Y044846D02*
X053206Y045480D01*
X052206Y045480D02*
X052206Y044846D01*
X051206Y044846D02*
X051206Y045480D01*
X050206Y045480D02*
X050206Y044846D01*
X049206Y044846D02*
X049206Y045480D01*
X048206Y045480D02*
X048206Y044846D01*
X047206Y044846D02*
X047206Y045480D01*
X046206Y045480D02*
X046206Y044846D01*
X046206Y048846D02*
X046206Y049480D01*
X047206Y049480D02*
X047206Y048846D01*
X048206Y048846D02*
X048206Y049480D01*
X049206Y049480D02*
X049206Y048846D01*
X050206Y048846D02*
X050206Y049480D01*
X051206Y049480D02*
X051206Y048846D01*
X052206Y048846D02*
X052206Y049480D01*
X053206Y049480D02*
X053206Y048846D01*
X054206Y048846D02*
X054206Y049480D01*
X055206Y049480D02*
X055206Y048846D01*
X056206Y048846D02*
X056206Y049480D01*
X057206Y049480D02*
X057206Y048846D01*
X048523Y055038D02*
X047888Y055038D01*
X047888Y056038D02*
X048523Y056038D01*
X048523Y057038D02*
X047888Y057038D01*
X047888Y058038D02*
X048523Y058038D01*
X048523Y059038D02*
X047888Y059038D01*
X047888Y060038D02*
X048523Y060038D01*
X048523Y061038D02*
X047888Y061038D01*
X045523Y061038D02*
X044888Y061038D01*
X044888Y060038D02*
X045523Y060038D01*
X045523Y059038D02*
X044888Y059038D01*
X044888Y058038D02*
X045523Y058038D01*
X045523Y057038D02*
X044888Y057038D01*
X044888Y056038D02*
X045523Y056038D01*
X045523Y055038D02*
X044888Y055038D01*
X097456Y048855D02*
X097456Y048221D01*
X098456Y048221D02*
X098456Y048855D01*
X099456Y048855D02*
X099456Y048221D01*
D12*
X050108Y057663D02*
X049553Y057663D01*
X049553Y059663D02*
X050108Y059663D01*
X043858Y060288D02*
X043303Y060288D01*
X043303Y058288D02*
X043858Y058288D01*
D13*
X046331Y058164D03*
X046331Y058912D03*
X047206Y059164D03*
X047206Y059912D03*
X046331Y060164D03*
X046331Y060912D03*
X047206Y057912D03*
X047206Y057164D03*
X047956Y052662D03*
X047956Y051914D03*
X046331Y051537D03*
X046331Y050789D03*
X045206Y050787D03*
X045206Y050039D03*
X050081Y050289D03*
X050081Y051037D03*
X054331Y051037D03*
X054331Y050289D03*
X055206Y050289D03*
X055206Y051037D03*
X057206Y048162D03*
X057206Y047414D03*
X054206Y047037D03*
X054206Y046289D03*
X063831Y040287D03*
X063831Y039539D03*
X065206Y041664D03*
X065206Y042412D03*
X065581Y044914D03*
X065581Y045662D03*
X032331Y048414D03*
X032331Y049162D03*
X030956Y052164D03*
X030956Y052912D03*
X030081Y052912D03*
X030081Y052164D03*
X028456Y051662D03*
X028456Y050914D03*
X074206Y017287D03*
X074206Y016539D03*
X073331Y015537D03*
X073331Y014789D03*
X073581Y011662D03*
X073581Y010914D03*
D14*
X071641Y012413D03*
X070521Y012413D03*
X055891Y035913D03*
X054771Y035913D03*
X033766Y052413D03*
X032646Y052413D03*
D15*
X031831Y052413D03*
X027831Y052413D03*
X056456Y065538D03*
X058331Y061038D03*
X076581Y069163D03*
X081081Y069163D03*
X087456Y043038D03*
X052956Y024038D03*
X048956Y024038D03*
D16*
X053582Y024788D03*
X054330Y024788D03*
X053957Y032288D03*
X054705Y032288D03*
X070582Y020538D03*
X071330Y020538D03*
X071330Y019538D03*
X070582Y019538D03*
X070582Y018538D03*
X071330Y018538D03*
X071330Y017538D03*
X070582Y017538D03*
X070582Y016538D03*
X071330Y016538D03*
X071330Y015538D03*
X070582Y015538D03*
X072332Y017288D03*
X073080Y017288D03*
X072957Y018288D03*
X073705Y018288D03*
X073582Y013538D03*
X074330Y013538D03*
X074330Y012538D03*
X073582Y012538D03*
X072455Y011413D03*
X071707Y011413D03*
X071205Y013538D03*
X070457Y013538D03*
X063830Y013913D03*
X063082Y013913D03*
X032330Y021663D03*
X031582Y021663D03*
X051662Y046538D03*
X052331Y046538D03*
X053000Y046538D03*
X058707Y049163D03*
X059455Y049163D03*
X063582Y047788D03*
X064330Y047788D03*
G36*
X030706Y049079D02*
X031068Y049441D01*
X031484Y049025D01*
X031122Y048663D01*
X030706Y049079D01*
G37*
G36*
X030178Y048551D02*
X030540Y048913D01*
X030956Y048497D01*
X030594Y048135D01*
X030178Y048551D01*
G37*
X027080Y048163D03*
X026332Y048163D03*
D17*
X072456Y014473D03*
X072456Y013353D03*
X074206Y014478D03*
X074206Y015598D03*
X071706Y010348D03*
X071706Y009228D03*
D18*
X076706Y015487D03*
X077706Y015487D03*
X077706Y016589D03*
X076706Y016589D03*
D19*
X057831Y040538D03*
D20*
X057831Y039538D03*
X056831Y039538D03*
X056831Y040538D03*
X055831Y040538D03*
X055831Y039538D03*
X038956Y052788D03*
X038956Y053788D03*
X037956Y053788D03*
X037956Y052788D03*
X036956Y052788D03*
X036956Y053788D03*
X035956Y053788D03*
X035956Y052788D03*
X034956Y052788D03*
X034956Y053788D03*
D21*
X061867Y049567D03*
X062694Y049567D03*
X063718Y049567D03*
X064545Y049567D03*
X064545Y048582D03*
X061867Y048582D03*
D22*
X063206Y051063D03*
D23*
X024456Y051038D03*
X024456Y050038D03*
X024456Y049038D03*
X024456Y047413D03*
X024456Y046413D03*
X024456Y045413D03*
X022456Y045413D03*
X022456Y046413D03*
X022456Y047413D03*
X022456Y049038D03*
X022456Y050038D03*
X022456Y051038D03*
D24*
X056456Y064538D03*
X059331Y061038D03*
X076581Y068163D03*
X081081Y068163D03*
X086456Y043038D03*
D25*
X053456Y050289D03*
X053456Y051037D03*
X052581Y051037D03*
X052581Y050289D03*
X052206Y048162D03*
X052206Y047414D03*
D26*
X051705Y050288D03*
X050957Y050288D03*
X070457Y014538D03*
X071205Y014538D03*
D27*
X070581Y070371D02*
X070581Y071205D01*
X071331Y072371D02*
X071331Y073205D01*
X069831Y073205D02*
X069831Y072371D01*
X069081Y071205D02*
X069081Y070371D01*
X067581Y070371D02*
X067581Y071205D01*
X068331Y072371D02*
X068331Y073205D01*
X066831Y073205D02*
X066831Y072371D01*
X066081Y071205D02*
X066081Y070371D01*
X072081Y070371D02*
X072081Y071205D01*
X072831Y072371D02*
X072831Y073205D01*
X074331Y073205D02*
X074331Y072371D01*
X075081Y071205D02*
X075081Y070371D01*
X076581Y070371D02*
X076581Y071205D01*
X077331Y072371D02*
X077331Y073205D01*
X078831Y073205D02*
X078831Y072371D01*
X079581Y071205D02*
X079581Y070371D01*
X078081Y070371D02*
X078081Y071205D01*
X080331Y072371D02*
X080331Y073205D01*
X081081Y071205D02*
X081081Y070371D01*
X075831Y072371D02*
X075831Y073205D01*
X073581Y071205D02*
X073581Y070371D01*
D28*
X054456Y052788D02*
X056956Y046913D01*
X055206Y045163D01*
X055831Y040538D02*
X054956Y039663D01*
X054956Y038788D01*
X055831Y037913D01*
X055831Y037163D01*
X055831Y036128D01*
X055891Y035913D01*
X054831Y036128D02*
X054771Y035913D01*
X054831Y036128D02*
X054831Y037163D01*
X056831Y037163D02*
X056831Y038413D01*
X057331Y038913D01*
X057331Y040038D01*
X056831Y040538D01*
X057831Y040538D02*
X058331Y040538D01*
X058581Y040288D01*
X058581Y038913D01*
X057831Y038163D01*
X057831Y037163D01*
X052331Y036288D02*
X052331Y040038D01*
X053081Y040413D02*
X049206Y040913D01*
X044831Y043913D01*
X044206Y049538D01*
X041956Y051788D01*
X039081Y051788D01*
X038956Y051663D01*
X038956Y050663D01*
X038456Y050163D01*
X038956Y049663D02*
X038581Y049288D01*
X037081Y049288D01*
X036439Y048644D02*
X036433Y043186D01*
X037958Y043175D01*
X037958Y040790D01*
X037956Y040788D01*
X037956Y039663D01*
X038456Y039163D01*
X038956Y039663D02*
X038456Y040163D01*
X038956Y039663D02*
X038956Y037663D01*
X039331Y037288D01*
X039331Y028038D01*
X042956Y024413D01*
X042956Y019913D01*
X043331Y019413D02*
X043331Y024788D01*
X039706Y028413D01*
X039706Y037538D01*
X039456Y037788D01*
X039456Y039163D01*
X039456Y040163D02*
X040456Y039163D01*
X040456Y034538D01*
X041331Y035163D02*
X040956Y035538D01*
X040956Y039663D01*
X040456Y040163D01*
X039956Y041663D02*
X039456Y042163D01*
X039456Y043163D02*
X037958Y043175D01*
X035956Y041663D02*
X037456Y040163D01*
X036956Y039663D02*
X036956Y038288D01*
X037456Y037788D01*
X037456Y034663D01*
X036956Y034163D01*
X036956Y029913D01*
X036956Y027413D01*
X040710Y023659D01*
X040710Y023352D01*
X041335Y024034D02*
X041710Y023352D01*
X041335Y024034D02*
X037456Y027788D01*
X037456Y034038D01*
X037956Y034538D01*
X037956Y035913D01*
X037956Y037913D01*
X037456Y038413D01*
X037456Y039163D01*
X036956Y039663D02*
X036456Y040163D01*
X035956Y039663D02*
X035956Y038038D01*
X036456Y037538D01*
X036456Y034663D01*
X035956Y034163D01*
X035956Y029913D01*
X035956Y026413D01*
X038710Y023659D01*
X038710Y023352D01*
X039710Y023352D02*
X039710Y023659D01*
X036456Y026913D01*
X036456Y034163D01*
X036956Y034663D01*
X036956Y035913D01*
X036956Y037663D01*
X036456Y038163D01*
X036456Y039163D01*
X035956Y039663D02*
X035456Y040163D01*
X034956Y039663D02*
X034956Y038413D01*
X035956Y037413D01*
X035956Y035913D01*
X035956Y034788D01*
X035456Y034288D01*
X035456Y026163D01*
X037710Y023909D01*
X037710Y023352D01*
X036710Y023352D02*
X036710Y024034D01*
X034956Y025913D01*
X034956Y029913D01*
X034956Y034413D01*
X035456Y034913D01*
X035456Y037288D01*
X034456Y038288D01*
X034456Y039163D01*
X034956Y039663D02*
X034456Y040163D01*
X033956Y039663D02*
X033956Y038163D01*
X034956Y037163D01*
X034956Y035913D01*
X034956Y035038D01*
X034456Y034538D01*
X034456Y025663D01*
X035710Y024284D01*
X035710Y023352D01*
X034710Y023352D02*
X034710Y024659D01*
X033456Y026163D01*
X033456Y034413D01*
X033956Y034913D01*
X033956Y035913D01*
X033956Y037538D01*
X032956Y038538D01*
X032956Y039413D01*
X032456Y040163D01*
X032956Y039913D02*
X033456Y039163D01*
X033956Y039663D02*
X033456Y040163D01*
X032956Y039913D02*
X032956Y051663D01*
X033206Y051913D01*
X031831Y052413D02*
X031456Y051163D01*
X030956Y050663D02*
X030956Y052164D01*
X030956Y052912D02*
X030081Y052912D01*
X029955Y053038D01*
X023956Y053038D01*
X022456Y051538D01*
X022456Y051038D01*
X024456Y051038D02*
X025080Y051662D01*
X028456Y051662D01*
X028456Y051788D01*
X027831Y052413D01*
X028456Y050914D02*
X028456Y050163D01*
X029456Y050163D02*
X029581Y050038D01*
X029956Y049913D01*
X030567Y049302D01*
X031095Y049052D01*
X030567Y048524D02*
X030206Y048913D01*
X030206Y049163D01*
X029706Y049663D01*
X026706Y049663D01*
X025206Y048163D01*
X023206Y048163D01*
X022456Y047413D01*
X022456Y049038D02*
X024456Y049038D01*
X024456Y047413D02*
X025582Y047413D01*
X026332Y048163D01*
X027080Y048163D02*
X027456Y048413D01*
X027706Y048663D01*
X028956Y048663D01*
X029456Y049163D01*
X030567Y048524D02*
X032331Y048414D01*
X032331Y049162D02*
X032456Y050163D01*
X031456Y050163D02*
X030956Y050663D01*
X030456Y051163D02*
X030081Y051538D01*
X030081Y052164D01*
X034456Y050163D02*
X034956Y050663D01*
X034956Y051788D01*
X035456Y051913D01*
X036456Y051913D01*
X037081Y052538D01*
X038456Y052163D02*
X038456Y051163D01*
X038456Y052163D02*
X038831Y052538D01*
X038831Y053413D01*
X040456Y050163D02*
X039956Y049663D01*
X038956Y049663D01*
X039456Y049163D02*
X038206Y048538D01*
X039456Y048163D02*
X039956Y047663D01*
X040706Y047663D01*
X042581Y047538D01*
X043331Y039288D01*
X043706Y038163D01*
X046456Y038163D01*
X046831Y037788D01*
X046831Y037163D01*
X046831Y036163D01*
X046331Y035663D01*
X046331Y021163D01*
X045831Y020663D01*
X045831Y019913D01*
X044831Y019913D02*
X044831Y022163D01*
X044831Y024663D01*
X041706Y027788D01*
X041706Y045163D01*
X041206Y045663D01*
X039956Y045663D01*
X039456Y046163D01*
X039956Y046663D02*
X040831Y046663D01*
X042081Y045413D01*
X043081Y038288D01*
X043081Y037163D01*
X044831Y037163D01*
X043956Y038413D02*
X043581Y039288D01*
X042956Y048288D01*
X041081Y048413D01*
X040456Y048163D02*
X039821Y048652D01*
X039456Y047163D02*
X039956Y046663D01*
X042206Y045788D02*
X042331Y041413D01*
X042581Y041163D01*
X042581Y029288D01*
X043831Y028038D01*
X044831Y028038D01*
X045331Y027538D01*
X045331Y025038D01*
X045706Y024663D01*
X045706Y021663D01*
X047331Y021788D02*
X047831Y021288D01*
X047831Y019913D01*
X049331Y020538D02*
X049331Y018663D01*
X049831Y018163D01*
X049831Y017163D01*
X049831Y016413D01*
X050206Y016038D01*
X050831Y014913D02*
X052331Y016413D01*
X052331Y018038D01*
X053331Y019288D01*
X053331Y021038D01*
X055831Y025038D01*
X055831Y025913D01*
X055831Y027163D01*
X057206Y028538D01*
X057956Y028663D01*
X058706Y029788D01*
X058831Y031163D01*
X057831Y030788D02*
X057831Y030163D01*
X057706Y029413D01*
X056956Y028913D01*
X054831Y026788D01*
X054831Y025913D01*
X053831Y025913D02*
X053831Y031163D01*
X054831Y031163D02*
X054831Y027288D01*
X054331Y026788D01*
X054331Y024789D01*
X054330Y024788D01*
X052831Y025288D02*
X052831Y025913D01*
X052831Y029538D01*
X053331Y030038D01*
X052331Y029538D02*
X051831Y029038D01*
X051831Y027538D01*
X051831Y025913D01*
X051331Y026663D02*
X050956Y027038D01*
X049706Y027038D01*
X049331Y026663D01*
X049331Y024913D01*
X049581Y024663D01*
X049581Y020788D01*
X049331Y020538D01*
X047331Y021788D02*
X047331Y032038D01*
X047081Y032288D01*
X047081Y035788D01*
X047331Y036038D01*
X047331Y037913D01*
X046581Y038413D01*
X043956Y038413D01*
X041331Y035163D02*
X041331Y033913D01*
X040206Y032788D01*
X040206Y028663D01*
X043706Y025163D01*
X043706Y019288D01*
X040710Y020042D02*
X037706Y017163D01*
X037081Y017163D01*
X036581Y016538D02*
X036581Y017788D01*
X037206Y018413D01*
X037956Y018413D01*
X039710Y020042D01*
X039710Y020352D01*
X040710Y020352D02*
X040710Y020042D01*
X038710Y020042D02*
X037706Y018913D01*
X037206Y018913D01*
X036081Y017788D01*
X036081Y017163D01*
X036581Y016538D02*
X036081Y015788D01*
X036081Y011163D01*
X035081Y011163D02*
X035081Y014913D01*
X035581Y015413D01*
X035581Y017913D01*
X037710Y020042D01*
X037710Y020352D01*
X036710Y019792D02*
X035081Y018163D01*
X035081Y017163D01*
X034081Y017163D02*
X034081Y019038D01*
X034710Y019667D01*
X034710Y020352D01*
X035710Y020352D02*
X035710Y019667D01*
X034581Y018538D01*
X034581Y015913D01*
X034081Y015413D01*
X034081Y011163D01*
X033581Y010413D02*
X033581Y011913D01*
X033331Y012163D01*
X033581Y010413D02*
X033956Y010038D01*
X030081Y011163D02*
X030081Y013163D01*
X032581Y015788D01*
X032581Y019038D01*
X033206Y019663D01*
X033206Y025788D01*
X032706Y026288D01*
X031831Y026288D01*
X031585Y026042D01*
X031585Y025159D01*
X030585Y025159D02*
X030585Y019534D01*
X031581Y018538D01*
X031581Y015663D01*
X029081Y013038D01*
X029081Y011163D01*
X028081Y011163D02*
X028081Y013038D01*
X030581Y015538D01*
X030581Y018288D01*
X029585Y019284D01*
X029585Y025159D01*
X028585Y025159D02*
X028585Y019034D01*
X029081Y018538D01*
X029081Y017163D01*
X030081Y017163D02*
X030081Y015788D01*
X027581Y013288D01*
X027581Y010413D01*
X027081Y011163D02*
X027081Y013788D01*
X029581Y016288D01*
X029581Y018663D01*
X029086Y019158D01*
X029086Y020335D01*
X030086Y020335D02*
X030086Y019408D01*
X031081Y018413D01*
X031081Y017163D01*
X033081Y017163D02*
X033081Y018913D01*
X033710Y019542D01*
X033710Y020352D01*
X031086Y023335D02*
X031081Y023340D01*
X031081Y028788D01*
X031456Y029288D01*
X031456Y034538D01*
X031956Y035038D01*
X031956Y035913D01*
X031956Y037038D01*
X030456Y038538D01*
X030456Y039163D01*
X030956Y039663D02*
X030456Y040163D01*
X030956Y039663D02*
X030956Y038663D01*
X032456Y037163D01*
X032456Y034913D01*
X031956Y034413D01*
X031956Y029913D01*
X031956Y028905D01*
X031585Y028159D01*
X032585Y028159D02*
X032956Y029913D01*
X032956Y034538D01*
X033456Y035038D01*
X033456Y037413D01*
X032456Y038413D01*
X032456Y039163D01*
X031456Y039163D02*
X031456Y038788D01*
X032956Y037288D01*
X032956Y035913D01*
X031456Y035288D02*
X031456Y037038D01*
X029956Y038538D01*
X029956Y039663D01*
X029456Y040163D01*
X028956Y040663D02*
X028956Y039663D01*
X028706Y039413D01*
X028706Y038788D01*
X030456Y037038D01*
X030456Y035038D01*
X029956Y034538D01*
X029956Y029913D01*
X029956Y029413D01*
X030081Y029163D01*
X030081Y023340D01*
X030086Y023335D01*
X029086Y023335D02*
X029081Y023340D01*
X029081Y028913D01*
X028956Y029413D01*
X028956Y029913D01*
X028956Y034788D01*
X029456Y035288D01*
X029456Y036788D01*
X027831Y038413D01*
X027831Y039038D01*
X027456Y039413D01*
X027456Y041163D01*
X027956Y041663D01*
X028956Y041663D01*
X029456Y042163D01*
X028956Y042663D02*
X027706Y042663D01*
X026706Y041663D01*
X026706Y038913D01*
X027081Y038538D01*
X027081Y037913D01*
X027956Y037038D01*
X027956Y035913D01*
X027456Y035163D02*
X027456Y037038D01*
X026581Y037913D01*
X026581Y038288D01*
X026331Y038538D01*
X026331Y041913D01*
X028081Y043663D01*
X028706Y043663D01*
X029456Y044163D01*
X029206Y043663D02*
X030206Y043663D01*
X030206Y040913D01*
X031456Y040913D01*
X031456Y040163D01*
X029456Y041163D02*
X028956Y040663D01*
X028456Y041163D02*
X027831Y040538D01*
X027831Y039788D01*
X028206Y039413D01*
X028206Y038663D01*
X029956Y036913D01*
X029956Y035913D01*
X029956Y035163D01*
X029456Y034663D01*
X029456Y029038D01*
X029585Y028159D01*
X030585Y028159D02*
X030585Y028917D01*
X030956Y029538D01*
X030956Y029913D01*
X030956Y034788D01*
X031456Y035288D01*
X030956Y035913D02*
X030956Y037038D01*
X029456Y038538D01*
X029456Y039163D01*
X027456Y038788D02*
X027456Y038163D01*
X028956Y036663D01*
X028956Y035913D01*
X028956Y035413D01*
X028456Y034913D01*
X028456Y028913D01*
X028585Y028159D01*
X027585Y028159D02*
X027581Y028163D01*
X027581Y028663D01*
X027956Y029163D01*
X027956Y029913D01*
X027956Y034788D01*
X027456Y035163D01*
X026956Y034538D02*
X027456Y034038D01*
X027456Y029288D01*
X027081Y028788D01*
X027081Y026913D01*
X028081Y025913D01*
X028081Y023340D01*
X028086Y023335D01*
X027086Y023335D02*
X027081Y023538D01*
X027081Y025913D01*
X026081Y026913D01*
X025081Y026788D02*
X026081Y025788D01*
X026081Y023340D01*
X026086Y023335D01*
X026585Y025159D02*
X026585Y018534D01*
X027081Y018038D01*
X027081Y017163D01*
X026581Y017913D02*
X026581Y016413D01*
X024081Y013913D01*
X024081Y011163D01*
X025081Y011163D02*
X025081Y013788D01*
X027581Y016288D01*
X027581Y018163D01*
X027086Y018658D01*
X027086Y020335D01*
X028086Y020335D02*
X028086Y018908D01*
X028581Y018413D01*
X028581Y016163D01*
X026081Y013663D01*
X026081Y011163D01*
X023081Y011163D02*
X023081Y014663D01*
X024581Y016163D01*
X024581Y018663D01*
X025086Y019168D01*
X025086Y020335D01*
X026086Y020335D02*
X026086Y018408D01*
X026581Y017913D01*
X026081Y017663D02*
X026081Y017163D01*
X026081Y017663D02*
X025585Y018159D01*
X025585Y025159D01*
X024585Y025159D02*
X024585Y022167D01*
X024585Y019417D01*
X023081Y017913D01*
X023081Y017163D01*
X027585Y018784D02*
X028081Y018288D01*
X028081Y017163D01*
X027585Y018784D02*
X027585Y025159D01*
X025081Y026788D02*
X025081Y028913D01*
X024956Y029038D01*
X024956Y029913D01*
X024956Y034788D01*
X024456Y035163D01*
X024456Y043163D01*
X027206Y045913D01*
X027206Y046913D01*
X027956Y047663D01*
X028956Y047663D01*
X029456Y047163D01*
X028456Y047163D02*
X028206Y047163D01*
X027706Y046663D01*
X027706Y045788D01*
X024831Y042913D01*
X024831Y037413D01*
X025456Y036788D01*
X025456Y034663D01*
X025956Y034413D01*
X025956Y029913D01*
X025585Y028159D01*
X026585Y028159D02*
X026585Y028917D01*
X026956Y029413D01*
X026956Y029913D01*
X026956Y034038D01*
X026456Y034538D01*
X026456Y037038D01*
X025581Y037913D01*
X025581Y042413D01*
X027831Y044663D01*
X028956Y044663D01*
X029456Y045163D01*
X029456Y046163D02*
X030206Y046163D01*
X030206Y043663D01*
X029456Y043163D02*
X028956Y042663D01*
X028456Y043163D02*
X029206Y043663D01*
X028456Y044163D02*
X027956Y044163D01*
X025956Y042163D01*
X025956Y038124D01*
X026956Y037124D01*
X026956Y035913D01*
X026956Y034538D01*
X025956Y036913D02*
X025206Y037663D01*
X025206Y042663D01*
X028456Y045913D01*
X028456Y046163D01*
X024456Y045413D02*
X022456Y045413D01*
X027081Y041413D02*
X027081Y039163D01*
X027456Y038788D01*
X027081Y041413D02*
X027831Y042163D01*
X028456Y042163D01*
X033956Y033038D02*
X033956Y029913D01*
X024585Y028159D02*
X024585Y026417D01*
X024081Y025913D01*
X024081Y024538D01*
X023081Y023538D01*
X023081Y023340D01*
X023086Y023335D01*
X024581Y022163D02*
X024585Y022167D01*
X047831Y025913D02*
X047831Y029913D01*
X048331Y030413D01*
X048331Y034163D01*
X047831Y034663D01*
X047831Y035413D01*
X051831Y035788D02*
X052331Y036288D01*
X051831Y035788D02*
X051831Y031163D01*
X052331Y032663D02*
X052331Y029538D01*
X051831Y027538D02*
X049331Y027538D01*
X048331Y026538D01*
X048331Y010288D01*
X049456Y009163D01*
X051956Y009163D01*
X051081Y010163D02*
X050706Y010163D01*
X050331Y010413D01*
X050331Y011913D01*
X049956Y012288D01*
X049206Y012288D01*
X048831Y011913D01*
X049831Y011413D02*
X049831Y011163D01*
X050831Y011163D02*
X050831Y014913D01*
X050831Y017163D02*
X050831Y017788D01*
X050456Y018163D01*
X050331Y018538D01*
X050331Y024663D01*
X049831Y025163D01*
X049831Y025913D01*
X050831Y025913D02*
X050831Y024663D01*
X051331Y024163D01*
X051331Y019163D01*
X051831Y018538D01*
X051831Y017163D01*
X052831Y017163D02*
X052831Y018038D01*
X053831Y019288D01*
X053831Y019913D01*
X054331Y019288D02*
X054331Y020788D01*
X056831Y025913D01*
X056831Y027163D01*
X057831Y025913D02*
X055331Y020913D01*
X055331Y019288D01*
X054331Y017788D01*
X054331Y016163D01*
X054831Y015913D02*
X053331Y014413D01*
X053331Y010163D01*
X054331Y010413D02*
X054331Y012538D01*
X055831Y014163D01*
X055831Y017163D01*
X056331Y017663D02*
X057331Y019288D01*
X057331Y021413D01*
X058081Y022538D01*
X058331Y021413D02*
X058331Y019288D01*
X057331Y017538D01*
X057331Y013663D01*
X055831Y012038D01*
X055831Y011163D01*
X056331Y011788D02*
X056331Y010413D01*
X054831Y011163D02*
X054831Y012413D01*
X056331Y014038D01*
X056331Y017663D01*
X056831Y017663D02*
X056831Y017163D01*
X056831Y017663D02*
X057831Y019413D01*
X058831Y019163D02*
X057831Y017413D01*
X057831Y017163D01*
X057831Y013413D01*
X056331Y011788D01*
X057831Y011913D02*
X057831Y011163D01*
X057831Y011913D02*
X059331Y013413D01*
X059331Y017663D01*
X060331Y019413D01*
X060331Y021038D01*
X060831Y019913D02*
X060831Y019288D01*
X059831Y017538D01*
X059831Y017163D01*
X060831Y017163D02*
X060831Y018038D01*
X061331Y019163D01*
X061331Y026788D01*
X062456Y026788D01*
X062831Y025913D01*
X061831Y025913D02*
X061831Y025038D01*
X062331Y024538D01*
X062331Y016413D01*
X062831Y017163D02*
X063456Y017788D01*
X063456Y018038D01*
X062831Y017163D02*
X061831Y011163D01*
X061331Y016538D02*
X061331Y017788D01*
X061831Y019163D01*
X061831Y019913D01*
X059831Y019913D02*
X059831Y019538D01*
X058831Y017663D01*
X058831Y017163D01*
X058831Y019163D02*
X058831Y019913D01*
X056331Y019288D02*
X056331Y021663D01*
X055831Y019913D02*
X055831Y019163D01*
X054831Y017538D01*
X054831Y017163D01*
X054831Y015913D01*
X055331Y015788D02*
X055331Y017788D01*
X056331Y019288D01*
X054831Y019288D02*
X054831Y019913D01*
X054831Y019288D02*
X053831Y017788D01*
X053831Y017163D01*
X053331Y017913D02*
X053331Y016163D01*
X053831Y014288D02*
X055331Y015788D01*
X053831Y014288D02*
X053831Y011163D01*
X052331Y010538D02*
X052331Y012038D01*
X051331Y011913D02*
X051331Y010413D01*
X051081Y010163D01*
X053331Y017913D02*
X054331Y019288D01*
X052456Y024913D02*
X051456Y024913D01*
X051331Y025038D01*
X051331Y026663D01*
X052831Y025288D02*
X052456Y024913D01*
X058581Y027163D02*
X059081Y027538D01*
X060831Y029538D01*
X060831Y031163D01*
X056831Y031163D02*
X055706Y032913D01*
X052331Y032663D01*
X063831Y037163D02*
X063831Y039539D01*
X070456Y037163D02*
X070081Y031288D01*
X068456Y030413D01*
X068456Y021538D01*
X073705Y018288D02*
X074205Y018038D01*
X076081Y018038D01*
X076081Y015038D02*
X073830Y015038D01*
X073331Y014789D01*
X072956Y013913D01*
X071831Y013913D01*
X071831Y012538D01*
X071641Y012413D01*
X074206Y014478D02*
X074832Y014038D01*
X075956Y014038D01*
X046581Y041788D02*
X045081Y041788D01*
X044081Y042163D01*
D29*
X038456Y039163D02*
X038456Y037413D01*
X038706Y037163D01*
X038706Y034288D01*
X037956Y033538D01*
X037956Y029913D01*
X037956Y028538D01*
X041143Y025350D01*
X042456Y024038D01*
X042456Y021098D01*
X032581Y024788D02*
X031956Y024163D01*
X032581Y024788D02*
X032581Y025155D01*
X032585Y025159D01*
X031081Y020340D02*
X031086Y020335D01*
X024081Y017163D02*
X024081Y016413D01*
X023706Y016038D01*
X022081Y016038D01*
X022081Y017163D01*
X022081Y020330D01*
X022086Y020335D01*
X050206Y049163D02*
X050081Y050289D01*
X050957Y050288D02*
X051206Y049163D01*
X051705Y050288D02*
X052581Y050289D01*
X052581Y051037D02*
X053456Y051037D01*
X053456Y050289D02*
X053206Y049163D01*
X054206Y049163D02*
X054331Y050289D01*
X055206Y050289D02*
X055206Y049163D01*
X048206Y056038D02*
X048206Y057038D01*
X049831Y057663D01*
X048206Y058038D02*
X048206Y059038D01*
X047206Y059164D01*
X047206Y059912D02*
X048206Y060038D01*
X049831Y059663D01*
X048206Y058038D02*
X047206Y057912D01*
X047206Y057164D02*
X048206Y057038D01*
X046331Y058164D02*
X045206Y058038D01*
X043581Y058288D01*
X045206Y058038D02*
X045206Y057038D01*
X045206Y059038D02*
X046331Y058912D01*
X045206Y059038D02*
X045206Y060038D01*
X046331Y060164D01*
X046331Y060912D02*
X045206Y061038D01*
X043581Y060288D01*
X069081Y070788D02*
X068331Y072788D01*
X075081Y070788D02*
X075831Y072788D01*
X078831Y072788D02*
X078081Y070788D01*
X073582Y013538D02*
X073582Y012538D01*
D30*
X073582Y012161D01*
X073581Y011662D01*
X073372Y011006D02*
X072455Y011413D01*
X072455Y013352D01*
X072456Y013353D01*
X072456Y014473D02*
X072332Y014597D01*
X072332Y017288D01*
X072332Y018288D01*
X072957Y018288D01*
X073080Y017288D02*
X074206Y017287D01*
X074206Y016539D02*
X074206Y015598D01*
X073331Y015537D01*
X074206Y014478D02*
X073582Y013538D01*
X074330Y013538D02*
X075456Y013538D01*
X075456Y012538D02*
X074330Y012538D01*
X075456Y012538D02*
X076456Y012538D01*
X076706Y012288D01*
X076706Y010163D01*
X076206Y009663D01*
X073956Y009663D01*
X073521Y009228D01*
X071706Y009228D01*
X072456Y010038D02*
X073372Y010954D01*
X073372Y011006D01*
X073581Y010914D01*
X075456Y010538D01*
X071707Y010349D02*
X071707Y011413D01*
X071706Y011412D01*
X071707Y011413D02*
X071707Y012472D01*
X071641Y012413D01*
X070521Y012413D02*
X069456Y012538D01*
X069456Y013538D02*
X070457Y013538D01*
X071205Y013538D02*
X071205Y014538D01*
X071330Y015538D01*
X071330Y016538D01*
X071330Y017538D01*
X071330Y018538D01*
X071330Y019538D01*
X071330Y020538D01*
X071330Y022538D01*
X069456Y022538D01*
X071330Y022538D02*
X071330Y025538D01*
X069456Y025538D01*
X069456Y020538D02*
X070582Y020538D01*
X070582Y019538D02*
X069456Y019538D01*
X069456Y018538D02*
X070582Y018538D01*
X070582Y017538D02*
X069456Y017538D01*
X069456Y016538D02*
X070582Y016538D01*
X070582Y015538D02*
X069456Y015538D01*
X069456Y014538D02*
X070457Y014538D01*
X067956Y011163D02*
X068581Y010538D01*
X069456Y010538D01*
X067956Y011163D02*
X063831Y011163D01*
X062831Y011163D01*
X071706Y010348D02*
X071707Y010349D01*
X042456Y021098D02*
X041710Y020352D01*
X041706Y020348D01*
X041706Y019788D01*
X039831Y017913D01*
X039331Y017913D01*
X037456Y016038D01*
X037456Y012538D01*
X037081Y012163D01*
X037081Y011163D01*
X032710Y020352D02*
X032710Y021663D01*
X032330Y021663D01*
X032710Y021663D02*
X032710Y023352D01*
X031956Y022788D02*
X031581Y022413D01*
X031581Y021664D01*
X031582Y021663D01*
X031086Y021163D01*
X031086Y020335D01*
X031956Y022788D02*
X031956Y024163D01*
X023585Y025159D02*
X023581Y025163D01*
X022706Y025163D01*
X022086Y024543D01*
X022086Y023335D01*
X022086Y020335D01*
X023086Y020335D01*
X024086Y020335D01*
X023585Y025159D02*
X023585Y028159D01*
X041143Y025350D02*
X041206Y025163D01*
D31*
X041206Y025163D03*
X044831Y022163D03*
X045706Y021663D03*
X036706Y022163D03*
X026081Y026913D03*
X040706Y012163D03*
X058331Y021413D03*
X058081Y022538D03*
X060331Y021038D03*
X058581Y027163D03*
X056831Y027163D03*
X047831Y035413D03*
X038206Y048538D03*
X037081Y049288D03*
X026331Y046163D03*
D32*
X024081Y043538D01*
X024081Y029288D01*
X024585Y028784D01*
X024585Y028159D01*
X025956Y035913D02*
X025956Y036913D01*
X042081Y037538D02*
X041956Y043788D01*
X044456Y039788D02*
X043831Y049288D01*
X041831Y051163D01*
X039456Y051163D01*
X040456Y049163D02*
X041831Y049163D01*
X043331Y048788D01*
X044081Y039163D01*
X044206Y038788D01*
X047081Y038788D01*
X047831Y038038D01*
X047831Y037163D01*
X042081Y037538D02*
X042081Y028663D01*
X044831Y025913D01*
X048956Y024038D02*
X048831Y023413D01*
X048831Y019913D01*
X045831Y019913D02*
X045831Y018913D01*
X040706Y013663D01*
X040706Y012163D01*
X039956Y013913D02*
X039956Y010288D01*
X038206Y008538D01*
X029456Y008538D01*
X027581Y010413D01*
X026081Y010163D02*
X026081Y011163D01*
X026081Y010163D02*
X028206Y008038D01*
X038331Y008038D01*
X038956Y008663D01*
X052206Y008663D01*
X053331Y009788D01*
X053331Y010163D01*
X052831Y010038D02*
X052831Y011163D01*
X052331Y010538D02*
X052331Y010288D01*
X051706Y009663D01*
X050456Y009663D01*
X049831Y010288D01*
X049831Y011163D01*
X048831Y011163D02*
X048831Y011913D01*
X051331Y011913D02*
X051331Y014163D01*
X053331Y016163D01*
X054331Y016163D02*
X052331Y014163D01*
X052331Y012038D01*
X054331Y010413D02*
X054331Y009913D01*
X052456Y008038D01*
X039206Y008038D01*
X038706Y007538D01*
X026831Y007538D01*
X024081Y010288D01*
X024081Y011163D01*
X023081Y011163D02*
X023081Y010288D01*
X026331Y007038D01*
X039206Y007038D01*
X039581Y007413D01*
X053456Y007413D01*
X056331Y010413D01*
X058831Y011163D02*
X058831Y011538D01*
X059956Y012663D01*
X059956Y015163D01*
X061331Y016538D01*
X062331Y016413D02*
X060456Y014538D01*
X060456Y012288D01*
X059831Y011663D01*
X059831Y011163D01*
X061831Y011163D02*
X061831Y010538D01*
X062331Y010038D01*
X067831Y010038D01*
X068206Y009788D01*
X072206Y009788D01*
X072456Y010038D01*
X071081Y011038D02*
X071081Y013289D01*
X071205Y013538D01*
X069456Y013538D02*
X064456Y013538D01*
X064456Y031163D01*
X063831Y031163D01*
X062831Y031163D02*
X062831Y032038D01*
X064956Y032038D01*
X064956Y014538D01*
X069456Y014538D01*
X069456Y015538D02*
X065456Y015538D01*
X065456Y032538D01*
X061831Y032538D01*
X061831Y031163D01*
X060831Y031163D02*
X060831Y033038D01*
X065956Y033038D01*
X065956Y016538D01*
X069456Y016538D01*
X069456Y017538D02*
X066456Y017538D01*
X066456Y033538D01*
X059831Y033538D01*
X059831Y031163D01*
X059456Y028788D01*
X057831Y028163D01*
X057831Y025913D01*
X054331Y024787D02*
X054331Y023663D01*
X052831Y022163D01*
X052831Y019913D01*
X055831Y017913D02*
X055831Y017163D01*
X055831Y017913D02*
X056831Y019538D01*
X056831Y019913D01*
X057831Y019913D02*
X057831Y019413D01*
X053582Y024164D02*
X052956Y024038D01*
X053582Y024164D02*
X053582Y024788D01*
X053582Y025664D01*
X053831Y025913D01*
X054330Y024788D02*
X054331Y024787D01*
X057831Y030788D02*
X057831Y031163D01*
X057831Y034538D01*
X067456Y034538D01*
X067456Y019538D01*
X069456Y019538D01*
X069456Y020538D02*
X067956Y020538D01*
X067956Y035038D01*
X056831Y035038D01*
X056831Y031163D01*
X058831Y031163D02*
X058831Y034038D01*
X066956Y034038D01*
X066956Y018538D01*
X069456Y018538D01*
X072332Y018288D02*
X072332Y035164D01*
X072456Y035288D01*
X076706Y036913D02*
X076706Y018038D01*
X076706Y016589D01*
X077706Y016589D02*
X077706Y036913D01*
X077831Y037038D01*
X076706Y018038D02*
X076081Y018038D01*
X076706Y015487D02*
X076257Y015038D01*
X076081Y015038D01*
X075956Y014038D02*
X076831Y014038D01*
X077706Y014913D01*
X077706Y015487D01*
X071081Y011038D02*
X070581Y010538D01*
X069456Y010538D01*
X052831Y010038D02*
X051956Y009163D01*
X044831Y018788D02*
X039956Y013913D01*
X039456Y014288D02*
X039331Y014163D01*
X039331Y010413D01*
X037956Y009038D01*
X032081Y009038D01*
X031081Y010038D01*
X031081Y011163D01*
X032081Y011163D02*
X032081Y011913D01*
X032331Y012163D01*
X033331Y012163D01*
X033081Y011163D02*
X033081Y010038D01*
X033581Y009538D01*
X037706Y009538D01*
X038831Y010663D01*
X038831Y014663D01*
X043331Y019288D01*
X043331Y019413D01*
X043706Y019288D02*
X043706Y018663D01*
X039456Y014288D01*
X038331Y015163D02*
X038331Y010913D01*
X037456Y010038D01*
X033956Y010038D01*
X038331Y015163D02*
X042956Y019913D01*
X044831Y019913D02*
X044831Y018788D01*
X038710Y020042D02*
X038710Y020352D01*
X036710Y020352D02*
X036710Y022159D01*
X036706Y022163D01*
D33*
X053331Y030038D03*
D34*
X033956Y033038D03*
D35*
X040456Y034538D03*
D36*
X022956Y043163D03*
X065956Y055788D03*
X074706Y055788D03*
X076581Y008288D03*
X066581Y008288D03*
X022956Y008288D03*
M02*
