G75*
G70*
%OFA0B0*%
%FSLAX24Y24*%
%IPPOS*%
%LPD*%
%AMOC8*
5,1,8,0,0,1.08239X$1,22.5*
%
%ADD10C,0.0780*%
%ADD11C,0.0715*%
%ADD12C,0.0635*%
%ADD13R,0.0671X0.0592*%
%ADD14R,0.0710X0.0790*%
%ADD15OC8,0.0715*%
%ADD16R,0.0592X0.0671*%
%ADD17R,0.0790X0.0710*%
%ADD18R,0.0789X0.0710*%
%ADD19C,0.0795*%
%ADD20OC8,0.0795*%
%ADD21C,0.0749*%
%ADD22C,0.1346*%
%ADD23C,0.0635*%
%ADD24C,0.0715*%
%ADD25R,0.0710X0.0592*%
%ADD26R,0.0592X0.0710*%
%ADD27C,0.0915*%
%ADD28C,0.1270*%
%ADD29C,0.0710*%
%ADD30C,0.0513*%
%ADD31C,0.0940*%
%ADD32C,0.0840*%
%ADD33C,0.0640*%
%ADD34R,0.0940X0.0940*%
%ADD35C,0.2049*%
D10*
X029456Y039163D03*
X030456Y039163D03*
X031456Y039163D03*
X032456Y039163D03*
X033456Y039163D03*
X034456Y039163D03*
X035456Y039163D03*
X036456Y039163D03*
X037456Y039163D03*
X038456Y039163D03*
X039456Y039163D03*
X039456Y040163D03*
X040456Y040163D03*
X040456Y041163D03*
X040456Y042163D03*
X040456Y043163D03*
X039456Y043163D03*
X039456Y042163D03*
X039456Y041163D03*
X038456Y040163D03*
X037456Y040163D03*
X036456Y040163D03*
X035456Y040163D03*
X034456Y040163D03*
X033456Y040163D03*
X032456Y040163D03*
X031456Y040163D03*
X030456Y040163D03*
X029456Y040163D03*
X028456Y040163D03*
X028456Y041163D03*
X029456Y041163D03*
X029456Y042163D03*
X029456Y043163D03*
X028456Y043163D03*
X028456Y042163D03*
X028456Y044163D03*
X029456Y044163D03*
X029456Y045163D03*
X029456Y046163D03*
X028456Y046163D03*
X028456Y045163D03*
X028456Y047163D03*
X029456Y047163D03*
X029456Y048163D03*
X029456Y049163D03*
X029456Y050163D03*
X030456Y050163D03*
X031456Y050163D03*
X032456Y050163D03*
X033456Y050163D03*
X034456Y050163D03*
X035456Y050163D03*
X036456Y050163D03*
X037456Y050163D03*
X038456Y050163D03*
X039456Y050163D03*
X040456Y050163D03*
X040456Y049163D03*
X040456Y048163D03*
X040456Y047163D03*
X039456Y047163D03*
X039456Y048163D03*
X039456Y049163D03*
X039456Y051163D03*
X038456Y051163D03*
X037456Y051163D03*
X036456Y051163D03*
X035456Y051163D03*
X034456Y051163D03*
X033456Y051163D03*
X032456Y051163D03*
X031456Y051163D03*
X030456Y051163D03*
X029456Y051163D03*
X028456Y050163D03*
X028456Y049163D03*
X028456Y048163D03*
X039456Y046163D03*
X040456Y046163D03*
X040456Y045163D03*
X040456Y044163D03*
X039456Y044163D03*
X039456Y045163D03*
X056331Y021663D03*
D11*
X022081Y011480D02*
X022081Y010846D01*
X023081Y010846D02*
X023081Y011480D01*
X024081Y011480D02*
X024081Y010846D01*
X025081Y010846D02*
X025081Y011480D01*
X026081Y011480D02*
X026081Y010846D01*
X027081Y010846D02*
X027081Y011480D01*
X028081Y011480D02*
X028081Y010846D01*
X029081Y010846D02*
X029081Y011480D01*
X030081Y011480D02*
X030081Y010846D01*
X031081Y010846D02*
X031081Y011480D01*
X032081Y011480D02*
X032081Y010846D01*
X033081Y010846D02*
X033081Y011480D01*
X034081Y011480D02*
X034081Y010846D01*
X035081Y010846D02*
X035081Y011480D01*
X036081Y011480D02*
X036081Y010846D01*
X037081Y010846D02*
X037081Y011480D01*
X037081Y016846D02*
X037081Y017480D01*
X036081Y017480D02*
X036081Y016846D01*
X035081Y016846D02*
X035081Y017480D01*
X034081Y017480D02*
X034081Y016846D01*
X033081Y016846D02*
X033081Y017480D01*
X032081Y017480D02*
X032081Y016846D01*
X031081Y016846D02*
X031081Y017480D01*
X030081Y017480D02*
X030081Y016846D01*
X029081Y016846D02*
X029081Y017480D01*
X028081Y017480D02*
X028081Y016846D01*
X027081Y016846D02*
X027081Y017480D01*
X026081Y017480D02*
X026081Y016846D01*
X025081Y016846D02*
X025081Y017480D01*
X024081Y017480D02*
X024081Y016846D01*
X023081Y016846D02*
X023081Y017480D01*
X022081Y017480D02*
X022081Y016846D01*
X022086Y020018D02*
X022086Y020653D01*
X023086Y020653D02*
X023086Y020018D01*
X024086Y020018D02*
X024086Y020653D01*
X025086Y020653D02*
X025086Y020018D01*
X026086Y020018D02*
X026086Y020653D01*
X027086Y020653D02*
X027086Y020018D01*
X028086Y020018D02*
X028086Y020653D01*
X029086Y020653D02*
X029086Y020018D01*
X030086Y020018D02*
X030086Y020653D01*
X031086Y020653D02*
X031086Y020018D01*
X032710Y020034D02*
X032710Y020669D01*
X033710Y020669D02*
X033710Y020034D01*
X034710Y020034D02*
X034710Y020669D01*
X035710Y020669D02*
X035710Y020034D01*
X036710Y020034D02*
X036710Y020669D01*
X037710Y020669D02*
X037710Y020034D01*
X038710Y020034D02*
X038710Y020669D01*
X039710Y020669D02*
X039710Y020034D01*
X040710Y020034D02*
X040710Y020669D01*
X041710Y020669D02*
X041710Y020034D01*
X044831Y020230D02*
X044831Y019596D01*
X045831Y019596D02*
X045831Y020230D01*
X046831Y020230D02*
X046831Y019596D01*
X047831Y019596D02*
X047831Y020230D01*
X048831Y020230D02*
X048831Y019596D01*
X049831Y019596D02*
X049831Y020230D01*
X050831Y020230D02*
X050831Y019596D01*
X051831Y019596D02*
X051831Y020230D01*
X052831Y020230D02*
X052831Y019596D01*
X053831Y019596D02*
X053831Y020230D01*
X054831Y020230D02*
X054831Y019596D01*
X055831Y019596D02*
X055831Y020230D01*
X056831Y020230D02*
X056831Y019596D01*
X057831Y019596D02*
X057831Y020230D01*
X058831Y020230D02*
X058831Y019596D01*
X059831Y019596D02*
X059831Y020230D01*
X060831Y020230D02*
X060831Y019596D01*
X061831Y019596D02*
X061831Y020230D01*
X062831Y020230D02*
X062831Y019596D01*
X063831Y019596D02*
X063831Y020230D01*
X063831Y017480D02*
X063831Y016846D01*
X062831Y016846D02*
X062831Y017480D01*
X061831Y017480D02*
X061831Y016846D01*
X060831Y016846D02*
X060831Y017480D01*
X059831Y017480D02*
X059831Y016846D01*
X058831Y016846D02*
X058831Y017480D01*
X057831Y017480D02*
X057831Y016846D01*
X056831Y016846D02*
X056831Y017480D01*
X055831Y017480D02*
X055831Y016846D01*
X054831Y016846D02*
X054831Y017480D01*
X053831Y017480D02*
X053831Y016846D01*
X052831Y016846D02*
X052831Y017480D01*
X051831Y017480D02*
X051831Y016846D01*
X050831Y016846D02*
X050831Y017480D01*
X049831Y017480D02*
X049831Y016846D01*
X048831Y016846D02*
X048831Y017480D01*
X041710Y023034D02*
X041710Y023669D01*
X040710Y023669D02*
X040710Y023034D01*
X039710Y023034D02*
X039710Y023669D01*
X038710Y023669D02*
X038710Y023034D01*
X037710Y023034D02*
X037710Y023669D01*
X036710Y023669D02*
X036710Y023034D01*
X035710Y023034D02*
X035710Y023669D01*
X034710Y023669D02*
X034710Y023034D01*
X033710Y023034D02*
X033710Y023669D01*
X032710Y023669D02*
X032710Y023034D01*
X031086Y023018D02*
X031086Y023653D01*
X030086Y023653D02*
X030086Y023018D01*
X029086Y023018D02*
X029086Y023653D01*
X028086Y023653D02*
X028086Y023018D01*
X027086Y023018D02*
X027086Y023653D01*
X026086Y023653D02*
X026086Y023018D01*
X025086Y023018D02*
X025086Y023653D01*
X024086Y023653D02*
X024086Y023018D01*
X023086Y023018D02*
X023086Y023653D01*
X022086Y023653D02*
X022086Y023018D01*
X023585Y024842D02*
X023585Y025477D01*
X024585Y025477D02*
X024585Y024842D01*
X025585Y024842D02*
X025585Y025477D01*
X026585Y025477D02*
X026585Y024842D01*
X027585Y024842D02*
X027585Y025477D01*
X028585Y025477D02*
X028585Y024842D01*
X029585Y024842D02*
X029585Y025477D01*
X030585Y025477D02*
X030585Y024842D01*
X031585Y024842D02*
X031585Y025477D01*
X032585Y025477D02*
X032585Y024842D01*
X032585Y027842D02*
X032585Y028477D01*
X031585Y028477D02*
X031585Y027842D01*
X030585Y027842D02*
X030585Y028477D01*
X029585Y028477D02*
X029585Y027842D01*
X028585Y027842D02*
X028585Y028477D01*
X027585Y028477D02*
X027585Y027842D01*
X026585Y027842D02*
X026585Y028477D01*
X025585Y028477D02*
X025585Y027842D01*
X024585Y027842D02*
X024585Y028477D01*
X023585Y028477D02*
X023585Y027842D01*
X024956Y029596D02*
X024956Y030230D01*
X025956Y030230D02*
X025956Y029596D01*
X026956Y029596D02*
X026956Y030230D01*
X027956Y030230D02*
X027956Y029596D01*
X028956Y029596D02*
X028956Y030230D01*
X029956Y030230D02*
X029956Y029596D01*
X030956Y029596D02*
X030956Y030230D01*
X031956Y030230D02*
X031956Y029596D01*
X032956Y029596D02*
X032956Y030230D01*
X033956Y030230D02*
X033956Y029596D01*
X034956Y029596D02*
X034956Y030230D01*
X035956Y030230D02*
X035956Y029596D01*
X036956Y029596D02*
X036956Y030230D01*
X037956Y030230D02*
X037956Y029596D01*
X037956Y032721D02*
X037956Y033355D01*
X036956Y033355D02*
X036956Y032721D01*
X035956Y032721D02*
X035956Y033355D01*
X034956Y033355D02*
X034956Y032721D01*
X033956Y032721D02*
X033956Y033355D01*
X032956Y033355D02*
X032956Y032721D01*
X031956Y032721D02*
X031956Y033355D01*
X030956Y033355D02*
X030956Y032721D01*
X029956Y032721D02*
X029956Y033355D01*
X028956Y033355D02*
X028956Y032721D01*
X027956Y032721D02*
X027956Y033355D01*
X026956Y033355D02*
X026956Y032721D01*
X025956Y032721D02*
X025956Y033355D01*
X024956Y033355D02*
X024956Y032721D01*
X024956Y035596D02*
X024956Y036230D01*
X025956Y036230D02*
X025956Y035596D01*
X026956Y035596D02*
X026956Y036230D01*
X027956Y036230D02*
X027956Y035596D01*
X028956Y035596D02*
X028956Y036230D01*
X029956Y036230D02*
X029956Y035596D01*
X030956Y035596D02*
X030956Y036230D01*
X031956Y036230D02*
X031956Y035596D01*
X032956Y035596D02*
X032956Y036230D01*
X033956Y036230D02*
X033956Y035596D01*
X034956Y035596D02*
X034956Y036230D01*
X035956Y036230D02*
X035956Y035596D01*
X036956Y035596D02*
X036956Y036230D01*
X037956Y036230D02*
X037956Y035596D01*
X044831Y036846D02*
X044831Y037480D01*
X045831Y037480D02*
X045831Y036846D01*
X046831Y036846D02*
X046831Y037480D01*
X047831Y037480D02*
X047831Y036846D01*
X048831Y036846D02*
X048831Y037480D01*
X049831Y037480D02*
X049831Y036846D01*
X050831Y036846D02*
X050831Y037480D01*
X051831Y037480D02*
X051831Y036846D01*
X052831Y036846D02*
X052831Y037480D01*
X053831Y037480D02*
X053831Y036846D01*
X054831Y036846D02*
X054831Y037480D01*
X055831Y037480D02*
X055831Y036846D01*
X056831Y036846D02*
X056831Y037480D01*
X057831Y037480D02*
X057831Y036846D01*
X058831Y036846D02*
X058831Y037480D01*
X059831Y037480D02*
X059831Y036846D01*
X060831Y036846D02*
X060831Y037480D01*
X061831Y037480D02*
X061831Y036846D01*
X062831Y036846D02*
X062831Y037480D01*
X063831Y037480D02*
X063831Y036846D01*
X063831Y031480D02*
X063831Y030846D01*
X062831Y030846D02*
X062831Y031480D01*
X061831Y031480D02*
X061831Y030846D01*
X060831Y030846D02*
X060831Y031480D01*
X059831Y031480D02*
X059831Y030846D01*
X058831Y030846D02*
X058831Y031480D01*
X057831Y031480D02*
X057831Y030846D01*
X056831Y030846D02*
X056831Y031480D01*
X055831Y031480D02*
X055831Y030846D01*
X054831Y030846D02*
X054831Y031480D01*
X053831Y031480D02*
X053831Y030846D01*
X052831Y030846D02*
X052831Y031480D01*
X051831Y031480D02*
X051831Y030846D01*
X050831Y030846D02*
X050831Y031480D01*
X049831Y031480D02*
X049831Y030846D01*
X048831Y030846D02*
X048831Y031480D01*
X047831Y031480D02*
X047831Y030846D01*
X046831Y030846D02*
X046831Y031480D01*
X045831Y031480D02*
X045831Y030846D01*
X044831Y030846D02*
X044831Y031480D01*
X044831Y026230D02*
X044831Y025596D01*
X045831Y025596D02*
X045831Y026230D01*
X046831Y026230D02*
X046831Y025596D01*
X047831Y025596D02*
X047831Y026230D01*
X048831Y026230D02*
X048831Y025596D01*
X049831Y025596D02*
X049831Y026230D01*
X050831Y026230D02*
X050831Y025596D01*
X051831Y025596D02*
X051831Y026230D01*
X052831Y026230D02*
X052831Y025596D01*
X053831Y025596D02*
X053831Y026230D01*
X054831Y026230D02*
X054831Y025596D01*
X055831Y025596D02*
X055831Y026230D01*
X056831Y026230D02*
X056831Y025596D01*
X057831Y025596D02*
X057831Y026230D01*
X058831Y026230D02*
X058831Y025596D01*
X059831Y025596D02*
X059831Y026230D01*
X060831Y026230D02*
X060831Y025596D01*
X061831Y025596D02*
X061831Y026230D01*
X062831Y026230D02*
X062831Y025596D01*
X063831Y025596D02*
X063831Y026230D01*
X069138Y026538D02*
X069773Y026538D01*
X069773Y027538D02*
X069138Y027538D01*
X069138Y028538D02*
X069773Y028538D01*
X069773Y029538D02*
X069138Y029538D01*
X069138Y025538D02*
X069773Y025538D01*
X069773Y024538D02*
X069138Y024538D01*
X069138Y023538D02*
X069773Y023538D01*
X069773Y022538D02*
X069138Y022538D01*
X069138Y021538D02*
X069773Y021538D01*
X069773Y020538D02*
X069138Y020538D01*
X069138Y019538D02*
X069773Y019538D01*
X069773Y018538D02*
X069138Y018538D01*
X069138Y017538D02*
X069773Y017538D01*
X069773Y016538D02*
X069138Y016538D01*
X069138Y015538D02*
X069773Y015538D01*
X069773Y014538D02*
X069138Y014538D01*
X069138Y013538D02*
X069773Y013538D01*
X069773Y012538D02*
X069138Y012538D01*
X069138Y011538D02*
X069773Y011538D01*
X069773Y010538D02*
X069138Y010538D01*
X063831Y010846D02*
X063831Y011480D01*
X062831Y011480D02*
X062831Y010846D01*
X061831Y010846D02*
X061831Y011480D01*
X060831Y011480D02*
X060831Y010846D01*
X059831Y010846D02*
X059831Y011480D01*
X058831Y011480D02*
X058831Y010846D01*
X057831Y010846D02*
X057831Y011480D01*
X056831Y011480D02*
X056831Y010846D01*
X055831Y010846D02*
X055831Y011480D01*
X054831Y011480D02*
X054831Y010846D01*
X053831Y010846D02*
X053831Y011480D01*
X052831Y011480D02*
X052831Y010846D01*
X051831Y010846D02*
X051831Y011480D01*
X050831Y011480D02*
X050831Y010846D01*
X049831Y010846D02*
X049831Y011480D01*
X048831Y011480D02*
X048831Y010846D01*
X075138Y010538D02*
X075773Y010538D01*
X075773Y011538D02*
X075138Y011538D01*
X075138Y012538D02*
X075773Y012538D01*
X075773Y013538D02*
X075138Y013538D01*
X075138Y014538D02*
X075773Y014538D01*
X075773Y015538D02*
X075138Y015538D01*
X075138Y016538D02*
X075773Y016538D01*
X075773Y017538D02*
X075138Y017538D01*
X075138Y018538D02*
X075773Y018538D01*
X075773Y019538D02*
X075138Y019538D01*
X075138Y020538D02*
X075773Y020538D01*
X075773Y021538D02*
X075138Y021538D01*
X075138Y022538D02*
X075773Y022538D01*
X075773Y023538D02*
X075138Y023538D01*
X075138Y024538D02*
X075773Y024538D01*
X075773Y025538D02*
X075138Y025538D01*
X075138Y026538D02*
X075773Y026538D01*
X075773Y027538D02*
X075138Y027538D01*
X075138Y028538D02*
X075773Y028538D01*
X075773Y029538D02*
X075138Y029538D01*
X057206Y044846D02*
X057206Y045480D01*
X056206Y045480D02*
X056206Y044846D01*
X055206Y044846D02*
X055206Y045480D01*
X054206Y045480D02*
X054206Y044846D01*
X053206Y044846D02*
X053206Y045480D01*
X052206Y045480D02*
X052206Y044846D01*
X051206Y044846D02*
X051206Y045480D01*
X050206Y045480D02*
X050206Y044846D01*
X049206Y044846D02*
X049206Y045480D01*
X048206Y045480D02*
X048206Y044846D01*
X047206Y044846D02*
X047206Y045480D01*
X046206Y045480D02*
X046206Y044846D01*
X046206Y048846D02*
X046206Y049480D01*
X047206Y049480D02*
X047206Y048846D01*
X048206Y048846D02*
X048206Y049480D01*
X049206Y049480D02*
X049206Y048846D01*
X050206Y048846D02*
X050206Y049480D01*
X051206Y049480D02*
X051206Y048846D01*
X052206Y048846D02*
X052206Y049480D01*
X053206Y049480D02*
X053206Y048846D01*
X054206Y048846D02*
X054206Y049480D01*
X055206Y049480D02*
X055206Y048846D01*
X056206Y048846D02*
X056206Y049480D01*
X057206Y049480D02*
X057206Y048846D01*
X048523Y055038D02*
X047888Y055038D01*
X047888Y056038D02*
X048523Y056038D01*
X048523Y057038D02*
X047888Y057038D01*
X047888Y058038D02*
X048523Y058038D01*
X048523Y059038D02*
X047888Y059038D01*
X047888Y060038D02*
X048523Y060038D01*
X048523Y061038D02*
X047888Y061038D01*
X045523Y061038D02*
X044888Y061038D01*
X044888Y060038D02*
X045523Y060038D01*
X045523Y059038D02*
X044888Y059038D01*
X044888Y058038D02*
X045523Y058038D01*
X045523Y057038D02*
X044888Y057038D01*
X044888Y056038D02*
X045523Y056038D01*
X045523Y055038D02*
X044888Y055038D01*
X097456Y048855D02*
X097456Y048221D01*
X098456Y048221D02*
X098456Y048855D01*
X099456Y048855D02*
X099456Y048221D01*
D12*
X050108Y057663D02*
X049553Y057663D01*
X049553Y059663D02*
X050108Y059663D01*
X043858Y060288D02*
X043303Y060288D01*
X043303Y058288D02*
X043858Y058288D01*
D13*
X046331Y058164D03*
X046331Y058912D03*
X047206Y059164D03*
X047206Y059912D03*
X046331Y060164D03*
X046331Y060912D03*
X047206Y057912D03*
X047206Y057164D03*
X047956Y052662D03*
X047956Y051914D03*
X046331Y051537D03*
X046331Y050789D03*
X045206Y050787D03*
X045206Y050039D03*
X050081Y050289D03*
X050081Y051037D03*
X054331Y051037D03*
X054331Y050289D03*
X055206Y050289D03*
X055206Y051037D03*
X057206Y048162D03*
X057206Y047414D03*
X054206Y047037D03*
X054206Y046289D03*
X063831Y040287D03*
X063831Y039539D03*
X065206Y041664D03*
X065206Y042412D03*
X065581Y044914D03*
X065581Y045662D03*
X032331Y048414D03*
X032331Y049162D03*
X030956Y052164D03*
X030956Y052912D03*
X030081Y052912D03*
X030081Y052164D03*
X028456Y051662D03*
X028456Y050914D03*
X074206Y017287D03*
X074206Y016539D03*
X073331Y015537D03*
X073331Y014789D03*
X073581Y011662D03*
X073581Y010914D03*
D14*
X071641Y012413D03*
X070521Y012413D03*
X055891Y035913D03*
X054771Y035913D03*
X033766Y052413D03*
X032646Y052413D03*
D15*
X031831Y052413D03*
X027831Y052413D03*
X056456Y065538D03*
X058331Y061038D03*
X076581Y069163D03*
X081081Y069163D03*
X087456Y043038D03*
X052956Y024038D03*
X048956Y024038D03*
D16*
X053582Y024788D03*
X054330Y024788D03*
X053957Y032288D03*
X054705Y032288D03*
X070582Y020538D03*
X071330Y020538D03*
X071330Y019538D03*
X070582Y019538D03*
X070582Y018538D03*
X071330Y018538D03*
X071330Y017538D03*
X070582Y017538D03*
X070582Y016538D03*
X071330Y016538D03*
X071330Y015538D03*
X070582Y015538D03*
X072332Y017288D03*
X073080Y017288D03*
X072957Y018288D03*
X073705Y018288D03*
X073582Y013538D03*
X074330Y013538D03*
X074330Y012538D03*
X073582Y012538D03*
X072455Y011413D03*
X071707Y011413D03*
X071205Y013538D03*
X070457Y013538D03*
X063830Y013913D03*
X063082Y013913D03*
X032330Y021663D03*
X031582Y021663D03*
X051662Y046538D03*
X052331Y046538D03*
X053000Y046538D03*
X058707Y049163D03*
X059455Y049163D03*
X063582Y047788D03*
X064330Y047788D03*
G36*
X030649Y049079D02*
X031068Y049498D01*
X031541Y049025D01*
X031122Y048606D01*
X030649Y049079D01*
G37*
G36*
X030121Y048551D02*
X030540Y048970D01*
X031013Y048497D01*
X030594Y048078D01*
X030121Y048551D01*
G37*
X027080Y048163D03*
X026332Y048163D03*
D17*
X072456Y014473D03*
X072456Y013353D03*
X074206Y014478D03*
X074206Y015598D03*
X071706Y010348D03*
X071706Y009228D03*
D18*
X076706Y015487D03*
X077706Y015487D03*
X077706Y016589D03*
X076706Y016589D03*
D19*
X057831Y040538D03*
D20*
X057831Y039538D03*
X056831Y039538D03*
X056831Y040538D03*
X055831Y040538D03*
X055831Y039538D03*
X038956Y052788D03*
X038956Y053788D03*
X037956Y053788D03*
X037956Y052788D03*
X036956Y052788D03*
X036956Y053788D03*
X035956Y053788D03*
X035956Y052788D03*
X034956Y052788D03*
X034956Y053788D03*
D21*
X061867Y049567D03*
X062694Y049567D03*
X063718Y049567D03*
X064545Y049567D03*
X064545Y048582D03*
X061867Y048582D03*
D22*
X063206Y051063D03*
D23*
X024456Y051038D03*
X024456Y050038D03*
X024456Y049038D03*
X024456Y047413D03*
X024456Y046413D03*
X024456Y045413D03*
X022456Y045413D03*
X022456Y046413D03*
X022456Y047413D03*
X022456Y049038D03*
X022456Y050038D03*
X022456Y051038D03*
D24*
X056456Y064538D03*
X059331Y061038D03*
X076581Y068163D03*
X081081Y068163D03*
X086456Y043038D03*
D25*
X053456Y050289D03*
X053456Y051037D03*
X052581Y051037D03*
X052581Y050289D03*
X052206Y048162D03*
X052206Y047414D03*
D26*
X051705Y050288D03*
X050957Y050288D03*
X070457Y014538D03*
X071205Y014538D03*
D27*
X070581Y070371D02*
X070581Y071205D01*
X071331Y072371D02*
X071331Y073205D01*
X069831Y073205D02*
X069831Y072371D01*
X069081Y071205D02*
X069081Y070371D01*
X067581Y070371D02*
X067581Y071205D01*
X068331Y072371D02*
X068331Y073205D01*
X066831Y073205D02*
X066831Y072371D01*
X066081Y071205D02*
X066081Y070371D01*
X072081Y070371D02*
X072081Y071205D01*
X072831Y072371D02*
X072831Y073205D01*
X074331Y073205D02*
X074331Y072371D01*
X075081Y071205D02*
X075081Y070371D01*
X076581Y070371D02*
X076581Y071205D01*
X077331Y072371D02*
X077331Y073205D01*
X078831Y073205D02*
X078831Y072371D01*
X079581Y071205D02*
X079581Y070371D01*
X078081Y070371D02*
X078081Y071205D01*
X080331Y072371D02*
X080331Y073205D01*
X081081Y071205D02*
X081081Y070371D01*
X075831Y072371D02*
X075831Y073205D01*
X073581Y071205D02*
X073581Y070371D01*
D28*
X083981Y072688D03*
X083981Y074088D03*
X063181Y074088D03*
X063181Y072688D03*
D29*
X070556Y039813D03*
D30*
X078856Y039813D03*
D31*
X058581Y027163D03*
X056831Y027163D03*
X058081Y022538D03*
X058331Y021413D03*
X060331Y021038D03*
X045706Y021663D03*
X044831Y022163D03*
X041206Y025163D03*
X036706Y022163D03*
X026081Y026913D03*
X040706Y012163D03*
X047831Y035413D03*
X038206Y048538D03*
X037081Y049288D03*
X026331Y046163D03*
D32*
X053331Y030038D03*
D33*
X033956Y033038D03*
D34*
X040456Y034538D03*
D35*
X022956Y043163D03*
X065956Y055788D03*
X074706Y055788D03*
X076581Y008288D03*
X066581Y008288D03*
X022956Y008288D03*
M02*
