G75*
G70*
%OFA0B0*%
%FSLAX24Y24*%
%IPPOS*%
%LPD*%
%AMOC8*
5,1,8,0,0,1.08239X$1,22.5*
%
%ADD10C,0.0060*%
%ADD11C,0.0040*%
%ADD12R,0.0256X0.0551*%
%ADD13R,0.0290X0.0690*%
%ADD14R,0.0140X0.0560*%
%ADD15R,0.0690X0.0290*%
%ADD16R,0.0551X0.0256*%
%ADD17R,0.0571X0.0295*%
%ADD18R,0.0669X0.0295*%
%ADD19R,0.0560X0.0140*%
%ADD20C,0.0050*%
%ADD21R,0.0100X0.0200*%
%ADD22R,0.0295X0.0571*%
D10*
X033831Y042163D02*
X034731Y042163D01*
X034831Y042263D01*
X034931Y042163D01*
X035731Y042163D01*
X035831Y042263D01*
X035931Y042163D01*
X036731Y042163D01*
X036831Y042263D01*
X036931Y042163D01*
X037731Y042163D01*
X037831Y042263D01*
X037931Y042163D01*
X038731Y042163D01*
X038831Y042263D01*
X038931Y042163D01*
X039731Y042163D01*
X039831Y042263D01*
X039931Y042163D01*
X040831Y042163D01*
X040831Y043163D01*
X039931Y043163D01*
X039831Y043063D01*
X039731Y043163D01*
X038931Y043163D01*
X038831Y043063D01*
X038731Y043163D01*
X037931Y043163D01*
X037831Y043063D01*
X037731Y043163D01*
X036931Y043163D01*
X036831Y043063D01*
X036731Y043163D01*
X035931Y043163D01*
X035831Y043063D01*
X035731Y043163D01*
X034931Y043163D01*
X034831Y043063D01*
X034731Y043163D01*
X033831Y043163D01*
X033831Y042163D01*
X034131Y042463D02*
X034131Y042863D01*
X034231Y042863D01*
X034231Y042963D01*
X034431Y042963D01*
X034431Y042863D01*
X034531Y042863D01*
X034531Y042463D01*
X034431Y042463D01*
X034431Y042363D01*
X034231Y042363D01*
X034231Y042463D01*
X034131Y042463D01*
X035131Y042463D02*
X035131Y042863D01*
X035231Y042863D01*
X035231Y042963D01*
X035431Y042963D01*
X035431Y042863D01*
X035531Y042863D01*
X035531Y042463D01*
X035431Y042463D01*
X035431Y042363D01*
X035231Y042363D01*
X035231Y042463D01*
X035131Y042463D01*
X036131Y042463D02*
X036131Y042863D01*
X036231Y042863D01*
X036231Y042963D01*
X036431Y042963D01*
X036431Y042863D01*
X036531Y042863D01*
X036531Y042463D01*
X036431Y042463D01*
X036431Y042363D01*
X036231Y042363D01*
X036231Y042463D01*
X036131Y042463D01*
X037131Y042463D02*
X037131Y042863D01*
X037231Y042863D01*
X037231Y042963D01*
X037431Y042963D01*
X037431Y042863D01*
X037531Y042863D01*
X037531Y042463D01*
X037431Y042463D01*
X037431Y042363D01*
X037231Y042363D01*
X037231Y042463D01*
X037131Y042463D01*
X038131Y042463D02*
X038131Y042863D01*
X038231Y042863D01*
X038231Y042963D01*
X038431Y042963D01*
X038431Y042863D01*
X038531Y042863D01*
X038531Y042463D01*
X038431Y042463D01*
X038431Y042363D01*
X038231Y042363D01*
X038231Y042463D01*
X038131Y042463D01*
X039131Y042463D02*
X039131Y042863D01*
X039231Y042863D01*
X039231Y042963D01*
X039431Y042963D01*
X039431Y042863D01*
X039531Y042863D01*
X039531Y042463D01*
X039431Y042463D01*
X039431Y042363D01*
X039231Y042363D01*
X039231Y042463D01*
X039131Y042463D01*
X040131Y042463D02*
X040131Y042863D01*
X040231Y042863D01*
X040231Y042963D01*
X040431Y042963D01*
X040431Y042863D01*
X040531Y042863D01*
X040531Y042463D01*
X040431Y042463D01*
X040431Y042363D01*
X040231Y042363D01*
X040231Y042463D01*
X040131Y042463D01*
X040831Y042163D02*
X040831Y043163D01*
X041731Y043163D01*
X041831Y043063D01*
X041931Y043163D01*
X042731Y043163D01*
X042831Y043063D01*
X042931Y043163D01*
X043731Y043163D01*
X043831Y043063D01*
X043931Y043163D01*
X044731Y043163D01*
X044831Y043063D01*
X044931Y043163D01*
X045731Y043163D01*
X045831Y043063D01*
X045931Y043163D01*
X046731Y043163D01*
X046831Y043063D01*
X046931Y043163D01*
X047831Y043163D01*
X047831Y042163D01*
X046931Y042163D01*
X046831Y042263D01*
X046731Y042163D01*
X045931Y042163D01*
X045831Y042263D01*
X045731Y042163D01*
X044931Y042163D01*
X044831Y042263D01*
X044731Y042163D01*
X043931Y042163D01*
X043831Y042263D01*
X043731Y042163D01*
X042931Y042163D01*
X042831Y042263D01*
X042731Y042163D01*
X041931Y042163D01*
X041831Y042263D01*
X041731Y042163D01*
X040831Y042163D01*
X041131Y042463D02*
X041131Y042863D01*
X041231Y042863D01*
X041231Y042963D01*
X041431Y042963D01*
X041431Y042863D01*
X041531Y042863D01*
X041531Y042463D01*
X041431Y042463D01*
X041431Y042363D01*
X041231Y042363D01*
X041231Y042463D01*
X041131Y042463D01*
X042131Y042463D02*
X042131Y042863D01*
X042231Y042863D01*
X042231Y042963D01*
X042431Y042963D01*
X042431Y042863D01*
X042531Y042863D01*
X042531Y042463D01*
X042431Y042463D01*
X042431Y042363D01*
X042231Y042363D01*
X042231Y042463D01*
X042131Y042463D01*
X043131Y042463D02*
X043131Y042863D01*
X043231Y042863D01*
X043231Y042963D01*
X043431Y042963D01*
X043431Y042863D01*
X043531Y042863D01*
X043531Y042463D01*
X043431Y042463D01*
X043431Y042363D01*
X043231Y042363D01*
X043231Y042463D01*
X043131Y042463D01*
X044131Y042463D02*
X044131Y042863D01*
X044231Y042863D01*
X044231Y042963D01*
X044431Y042963D01*
X044431Y042863D01*
X044531Y042863D01*
X044531Y042463D01*
X044431Y042463D01*
X044431Y042363D01*
X044231Y042363D01*
X044231Y042463D01*
X044131Y042463D01*
X045131Y042463D02*
X045131Y042863D01*
X045231Y042863D01*
X045231Y042963D01*
X045431Y042963D01*
X045431Y042863D01*
X045531Y042863D01*
X045531Y042463D01*
X045431Y042463D01*
X045431Y042363D01*
X045231Y042363D01*
X045231Y042463D01*
X045131Y042463D01*
X046131Y042463D02*
X046131Y042863D01*
X046231Y042863D01*
X046231Y042963D01*
X046431Y042963D01*
X046431Y042863D01*
X046531Y042863D01*
X046531Y042463D01*
X046431Y042463D01*
X046431Y042363D01*
X046231Y042363D01*
X046231Y042463D01*
X046131Y042463D01*
X047131Y042463D02*
X047131Y042863D01*
X047231Y042863D01*
X047231Y042963D01*
X047431Y042963D01*
X047431Y042863D01*
X047531Y042863D01*
X047531Y042463D01*
X047431Y042463D01*
X047431Y042363D01*
X047231Y042363D01*
X047231Y042463D01*
X047131Y042463D01*
X064426Y045288D02*
X064986Y045288D01*
X064986Y045788D02*
X064426Y045788D01*
X061533Y055913D02*
X061210Y055913D01*
X061210Y056413D02*
X061533Y056413D01*
X061331Y057133D02*
X061331Y057693D01*
X061831Y057693D02*
X061831Y057133D01*
X060986Y059663D02*
X060426Y059663D01*
X060426Y060163D02*
X060986Y060163D01*
X061706Y060008D02*
X061706Y060568D01*
X062206Y060568D02*
X062206Y060008D01*
X062581Y060008D02*
X062581Y060568D01*
X063081Y060568D02*
X063081Y060008D01*
X063456Y060127D02*
X063456Y060449D01*
X063956Y060449D02*
X063956Y060127D01*
X064331Y060127D02*
X064331Y060449D01*
X064831Y060449D02*
X064831Y060127D01*
X066331Y057574D02*
X066331Y057252D01*
X066831Y057252D02*
X066831Y057574D01*
X068295Y058538D02*
X068617Y058538D01*
X068617Y059038D02*
X068295Y059038D01*
X073795Y061538D02*
X074117Y061538D01*
X074242Y061288D02*
X073920Y061288D01*
X073920Y060788D02*
X074242Y060788D01*
X074117Y062038D02*
X073795Y062038D01*
X059706Y060449D02*
X059706Y060127D01*
X059206Y060127D02*
X059206Y060449D01*
X042956Y061718D02*
X042201Y061718D01*
X042201Y062358D02*
X042956Y062358D01*
X040581Y062324D02*
X040581Y062002D01*
X040081Y062002D02*
X040081Y062324D01*
X039706Y062324D02*
X039706Y062002D01*
X039206Y062002D02*
X039206Y062324D01*
X038081Y061074D02*
X038081Y060752D01*
X037581Y060752D02*
X037581Y061074D01*
X040143Y058704D02*
X039915Y058476D01*
X040269Y058122D02*
X040497Y058350D01*
X041456Y058252D02*
X041456Y058574D01*
X041956Y058574D02*
X041956Y058252D01*
X036242Y058038D02*
X035920Y058038D01*
X035920Y057538D02*
X036242Y057538D01*
X080170Y037413D02*
X080492Y037413D01*
X080492Y036913D02*
X080170Y036913D01*
X080170Y030413D02*
X080492Y030413D01*
X080492Y029913D02*
X080170Y029913D01*
X080170Y029413D02*
X080492Y029413D01*
X080492Y028913D02*
X080170Y028913D01*
X080170Y028413D02*
X080492Y028413D01*
X080492Y027913D02*
X080170Y027913D01*
X080170Y027413D02*
X080492Y027413D01*
X080492Y026913D02*
X080170Y026913D01*
X080170Y026413D02*
X080492Y026413D01*
X080492Y025913D02*
X080170Y025913D01*
X080170Y025413D02*
X080492Y025413D01*
X080492Y024913D02*
X080170Y024913D01*
X079926Y024413D02*
X080486Y024413D01*
X080486Y023913D02*
X079926Y023913D01*
X080045Y023413D02*
X080367Y023413D01*
X080367Y022913D02*
X080045Y022913D01*
X080076Y022358D02*
X080831Y022358D01*
X080831Y021718D02*
X080076Y021718D01*
X081295Y021288D02*
X081617Y021288D01*
X081617Y020788D02*
X081295Y020788D01*
X081401Y019788D02*
X081401Y019033D01*
X080761Y019033D02*
X080761Y019788D01*
X082706Y020752D02*
X082706Y021074D01*
X083206Y021074D02*
X083206Y020752D01*
X083170Y021913D02*
X083492Y021913D01*
X083492Y022413D02*
X083170Y022413D01*
X083170Y022913D02*
X083492Y022913D01*
X083492Y023413D02*
X083170Y023413D01*
X083261Y024283D02*
X083261Y025038D01*
X082956Y024949D02*
X082956Y024627D01*
X082456Y024627D02*
X082456Y024949D01*
X082151Y023913D02*
X082151Y023158D01*
X081511Y023158D02*
X081511Y023913D01*
X083901Y024283D02*
X083901Y025038D01*
X082242Y026663D02*
X081920Y026663D01*
X081920Y027163D02*
X082242Y027163D01*
X082545Y027663D02*
X082867Y027663D01*
X082867Y028163D02*
X082545Y028163D01*
X066242Y005663D02*
X065920Y005663D01*
X065920Y005163D02*
X066242Y005163D01*
X065242Y004788D02*
X064920Y004788D01*
X064920Y004288D02*
X065242Y004288D01*
X064242Y005163D02*
X063920Y005163D01*
X063920Y005663D02*
X064242Y005663D01*
X063242Y004788D02*
X062920Y004788D01*
X062920Y004288D02*
X063242Y004288D01*
D11*
X040200Y031808D02*
X040123Y031885D01*
X040200Y031808D02*
X040353Y031808D01*
X040430Y031885D01*
X040430Y032192D01*
X040353Y032268D01*
X040200Y032268D01*
X040123Y032192D01*
X040583Y032268D02*
X040583Y031808D01*
X040583Y032038D02*
X040890Y032038D01*
X041044Y032115D02*
X041044Y032192D01*
X041120Y032268D01*
X041274Y032268D01*
X041351Y032192D01*
X041504Y032192D02*
X041581Y032268D01*
X041734Y032268D01*
X041811Y032192D01*
X041811Y031885D01*
X041734Y031808D01*
X041581Y031808D01*
X041504Y031885D01*
X041351Y031808D02*
X041044Y032115D01*
X040890Y032268D02*
X040890Y031808D01*
X041044Y031808D02*
X041351Y031808D01*
X041481Y031548D02*
X041181Y031548D01*
X041181Y031028D02*
X041471Y031028D01*
X062964Y033510D02*
X063041Y033433D01*
X063195Y033433D01*
X063271Y033510D01*
X062964Y033817D01*
X062964Y033510D01*
X062964Y033817D02*
X063041Y033893D01*
X063195Y033893D01*
X063271Y033817D01*
X063271Y033510D01*
X063425Y033510D02*
X063502Y033433D01*
X063655Y033433D01*
X063732Y033510D01*
X063732Y033586D01*
X063655Y033663D01*
X063502Y033663D01*
X063425Y033586D01*
X063425Y033510D01*
X063502Y033663D02*
X063425Y033740D01*
X063425Y033817D01*
X063502Y033893D01*
X063655Y033893D01*
X063732Y033817D01*
X063732Y033740D01*
X063655Y033663D01*
X063885Y033817D02*
X063885Y033893D01*
X064192Y033893D01*
X064346Y033817D02*
X064422Y033893D01*
X064576Y033893D01*
X064653Y033817D01*
X064653Y033510D01*
X064576Y033433D01*
X064422Y033433D01*
X064346Y033510D01*
X064192Y033510D02*
X064192Y033433D01*
X063885Y033433D01*
X064192Y033510D02*
X063885Y033817D01*
X063481Y034153D02*
X063181Y034153D01*
X063191Y034673D02*
X063481Y034673D01*
X063416Y040933D02*
X063339Y041010D01*
X063339Y041086D01*
X063416Y041163D01*
X063646Y041163D01*
X063646Y041010D01*
X063570Y040933D01*
X063416Y040933D01*
X063646Y041163D02*
X063493Y041317D01*
X063339Y041393D01*
X063556Y041653D02*
X063856Y041653D01*
X063953Y041393D02*
X063953Y040933D01*
X063800Y040933D02*
X064107Y040933D01*
X064260Y040933D02*
X064260Y041393D01*
X064414Y041240D01*
X064567Y041393D01*
X064567Y040933D01*
X064721Y041010D02*
X064797Y040933D01*
X064951Y040933D01*
X065028Y041010D01*
X065028Y041317D01*
X064951Y041393D01*
X064797Y041393D01*
X064721Y041317D01*
X064107Y041240D02*
X063953Y041393D01*
X063856Y042173D02*
X063566Y042173D01*
X064416Y044558D02*
X064339Y044635D01*
X064339Y044942D01*
X064416Y045018D01*
X064570Y045018D01*
X064646Y044942D01*
X064646Y044865D01*
X064570Y044788D01*
X064339Y044788D01*
X064416Y044558D02*
X064570Y044558D01*
X064646Y044635D01*
X064800Y044558D02*
X065107Y044558D01*
X065260Y044558D02*
X065414Y044711D01*
X065337Y044711D02*
X065567Y044711D01*
X065567Y044558D02*
X065567Y045018D01*
X065337Y045018D01*
X065260Y044942D01*
X065260Y044788D01*
X065337Y044711D01*
X065107Y044865D02*
X064953Y045018D01*
X064953Y044558D01*
X074321Y051523D02*
X074321Y051813D01*
X074841Y051813D02*
X074841Y051513D01*
X075101Y051413D02*
X075101Y051260D01*
X075178Y051183D01*
X075485Y051183D01*
X075561Y051260D01*
X075561Y051413D01*
X075485Y051490D01*
X075561Y051643D02*
X075331Y051643D01*
X075408Y051797D01*
X075408Y051874D01*
X075331Y051950D01*
X075178Y051950D01*
X075101Y051874D01*
X075101Y051720D01*
X075178Y051643D01*
X075178Y051490D02*
X075101Y051413D01*
X075561Y051643D02*
X075561Y051950D01*
X075561Y052104D02*
X075561Y052334D01*
X075485Y052411D01*
X075331Y052411D01*
X075254Y052334D01*
X075254Y052104D01*
X075101Y052104D02*
X075561Y052104D01*
X078599Y054808D02*
X078599Y055115D01*
X078752Y055268D01*
X078905Y055115D01*
X078905Y054808D01*
X079059Y054808D02*
X079059Y055115D01*
X079136Y055115D01*
X079212Y055038D01*
X079289Y055115D01*
X079366Y055038D01*
X079366Y054808D01*
X079519Y054808D02*
X079750Y054808D01*
X079826Y054885D01*
X079826Y055038D01*
X079750Y055115D01*
X079519Y055115D01*
X079519Y054655D01*
X079212Y054808D02*
X079212Y055038D01*
X078905Y055038D02*
X078599Y055038D01*
X079980Y055038D02*
X080056Y055115D01*
X080210Y055115D01*
X080287Y055038D01*
X080287Y054808D01*
X080440Y054885D02*
X080440Y055038D01*
X080517Y055115D01*
X080670Y055115D01*
X080747Y055038D01*
X080747Y054961D01*
X080440Y054961D01*
X080440Y054885D02*
X080517Y054808D01*
X080670Y054808D01*
X080900Y054808D02*
X080900Y055115D01*
X081131Y055115D01*
X081207Y055038D01*
X081207Y054808D01*
X081361Y054885D02*
X081438Y054808D01*
X081591Y054808D01*
X081668Y054885D01*
X081668Y055038D01*
X081591Y055115D01*
X081438Y055115D01*
X081361Y055038D01*
X081361Y054885D01*
X081821Y054808D02*
X081975Y054808D01*
X081898Y054808D02*
X081898Y055268D01*
X081821Y055268D01*
X082589Y055268D02*
X082742Y055115D01*
X082896Y055268D01*
X082896Y054808D01*
X083049Y054808D02*
X083049Y055268D01*
X083202Y055115D01*
X083356Y055268D01*
X083356Y054808D01*
X083509Y054885D02*
X083586Y054808D01*
X083740Y054808D01*
X083816Y054885D01*
X083970Y054808D02*
X084277Y055268D01*
X084430Y055192D02*
X084430Y055115D01*
X084507Y055038D01*
X084660Y055038D01*
X084737Y054961D01*
X084737Y054885D01*
X084660Y054808D01*
X084507Y054808D01*
X084430Y054885D01*
X084430Y055192D02*
X084507Y055268D01*
X084660Y055268D01*
X084737Y055192D01*
X084891Y055268D02*
X085121Y055268D01*
X085197Y055192D01*
X085197Y054885D01*
X085121Y054808D01*
X084891Y054808D01*
X084891Y055268D01*
X083816Y055192D02*
X083740Y055268D01*
X083586Y055268D01*
X083509Y055192D01*
X083509Y054885D01*
X082589Y054808D02*
X082589Y055268D01*
X079980Y055268D02*
X079980Y054808D01*
X074311Y061558D02*
X074311Y062018D01*
X074081Y062018D01*
X074004Y061942D01*
X074004Y061788D01*
X074081Y061711D01*
X074311Y061711D01*
X074158Y061711D02*
X074004Y061558D01*
X073851Y061558D02*
X073544Y061865D01*
X073544Y061942D01*
X073620Y062018D01*
X073774Y062018D01*
X073851Y061942D01*
X073879Y062308D02*
X074033Y062461D01*
X073956Y062461D02*
X074186Y062461D01*
X074186Y062308D02*
X074186Y062768D01*
X073956Y062768D01*
X073879Y062692D01*
X073879Y062538D01*
X073956Y062461D01*
X073726Y062308D02*
X073419Y062615D01*
X073419Y062692D01*
X073495Y062768D01*
X073649Y062768D01*
X073726Y062692D01*
X073726Y062308D02*
X073419Y062308D01*
X073265Y062308D02*
X072958Y062615D01*
X072958Y062692D01*
X073035Y062768D01*
X073188Y062768D01*
X073265Y062692D01*
X073265Y062308D02*
X072958Y062308D01*
X073160Y062018D02*
X073083Y061942D01*
X073083Y061865D01*
X073160Y061788D01*
X073083Y061711D01*
X073083Y061635D01*
X073160Y061558D01*
X073313Y061558D01*
X073390Y061635D01*
X073544Y061558D02*
X073851Y061558D01*
X073390Y061942D02*
X073313Y062018D01*
X073160Y062018D01*
X073160Y061788D02*
X073237Y061788D01*
X069107Y058268D02*
X068877Y058268D01*
X068800Y058192D01*
X068800Y058038D01*
X068877Y057961D01*
X069107Y057961D01*
X069107Y057808D02*
X069107Y058268D01*
X069260Y058192D02*
X069567Y057885D01*
X069567Y058038D02*
X069260Y058038D01*
X069260Y057885D02*
X069567Y058192D01*
X069414Y058192D02*
X069414Y057885D01*
X068953Y057961D02*
X068800Y057808D01*
X068646Y057808D02*
X068339Y058115D01*
X068339Y058192D01*
X068416Y058268D01*
X068570Y058268D01*
X068646Y058192D01*
X068646Y057808D02*
X068339Y057808D01*
X067561Y057950D02*
X067485Y057797D01*
X067331Y057643D01*
X067331Y057874D01*
X067254Y057950D01*
X067178Y057950D01*
X067101Y057874D01*
X067101Y057720D01*
X067178Y057643D01*
X067331Y057643D01*
X067331Y057490D02*
X067254Y057413D01*
X067254Y057183D01*
X067101Y057183D02*
X067561Y057183D01*
X067561Y057413D01*
X067485Y057490D01*
X067331Y057490D01*
X067254Y057336D02*
X067101Y057490D01*
X067101Y058104D02*
X067561Y058104D01*
X067561Y058334D01*
X067485Y058411D01*
X067331Y058411D01*
X067254Y058334D01*
X067254Y058104D01*
X065561Y060058D02*
X065561Y060288D01*
X065485Y060365D01*
X065331Y060365D01*
X065254Y060288D01*
X065254Y060058D01*
X065101Y060058D02*
X065561Y060058D01*
X065254Y060211D02*
X065101Y060365D01*
X065178Y060518D02*
X065254Y060518D01*
X065331Y060595D01*
X065331Y060749D01*
X065254Y060825D01*
X065178Y060825D01*
X065101Y060749D01*
X065101Y060595D01*
X065178Y060518D01*
X065331Y060595D02*
X065408Y060518D01*
X065485Y060518D01*
X065561Y060595D01*
X065561Y060749D01*
X065485Y060825D01*
X065408Y060825D01*
X065331Y060749D01*
X065254Y060979D02*
X065254Y061209D01*
X065331Y061286D01*
X065485Y061286D01*
X065561Y061209D01*
X065561Y060979D01*
X065101Y060979D01*
X064686Y060979D02*
X064686Y061209D01*
X064610Y061286D01*
X064456Y061286D01*
X064379Y061209D01*
X064379Y060979D01*
X064226Y060979D02*
X064686Y060979D01*
X064686Y060825D02*
X064610Y060825D01*
X064303Y060518D01*
X064226Y060518D01*
X064226Y060365D02*
X064379Y060211D01*
X064379Y060288D02*
X064379Y060058D01*
X064226Y060058D02*
X064686Y060058D01*
X064686Y060288D01*
X064610Y060365D01*
X064456Y060365D01*
X064379Y060288D01*
X064686Y060518D02*
X064686Y060825D01*
X063811Y060499D02*
X063735Y060575D01*
X063658Y060575D01*
X063581Y060499D01*
X063504Y060575D01*
X063428Y060575D01*
X063351Y060499D01*
X063351Y060345D01*
X063428Y060268D01*
X063351Y060115D02*
X063504Y059961D01*
X063504Y060038D02*
X063504Y059808D01*
X063351Y059808D02*
X063811Y059808D01*
X063811Y060038D01*
X063735Y060115D01*
X063581Y060115D01*
X063504Y060038D01*
X063735Y060268D02*
X063811Y060345D01*
X063811Y060499D01*
X063581Y060499D02*
X063581Y060422D01*
X063274Y060729D02*
X063274Y061036D01*
X063428Y061189D02*
X063351Y061266D01*
X063351Y061419D01*
X063428Y061496D01*
X063351Y061650D02*
X063811Y061956D01*
X063658Y062110D02*
X063811Y062263D01*
X063658Y062417D01*
X063351Y062417D01*
X063351Y062570D02*
X063658Y062877D01*
X063735Y062877D01*
X063811Y062801D01*
X063811Y062647D01*
X063735Y062570D01*
X063581Y062417D02*
X063581Y062110D01*
X063658Y062110D02*
X063351Y062110D01*
X063351Y061956D02*
X063811Y061650D01*
X063735Y061496D02*
X063811Y061419D01*
X063811Y061266D01*
X063735Y061189D01*
X063428Y061189D01*
X062936Y061266D02*
X062860Y061189D01*
X062553Y061189D01*
X062476Y061266D01*
X062476Y061419D01*
X062553Y061496D01*
X062476Y061650D02*
X062936Y061956D01*
X062783Y062110D02*
X062936Y062263D01*
X062783Y062417D01*
X062476Y062417D01*
X062476Y062570D02*
X062783Y062877D01*
X062860Y062877D01*
X062936Y062801D01*
X062936Y062647D01*
X062860Y062570D01*
X062706Y062417D02*
X062706Y062110D01*
X062783Y062110D02*
X062476Y062110D01*
X062476Y061956D02*
X062936Y061650D01*
X062860Y061496D02*
X062936Y061419D01*
X062936Y061266D01*
X062399Y061036D02*
X062399Y060729D01*
X062476Y060575D02*
X062476Y060268D01*
X062783Y060575D01*
X062860Y060575D01*
X062936Y060499D01*
X062936Y060345D01*
X062860Y060268D01*
X062860Y060115D02*
X062706Y060115D01*
X062629Y060038D01*
X062629Y059808D01*
X062476Y059808D02*
X062936Y059808D01*
X062936Y060038D01*
X062860Y060115D01*
X062629Y059961D02*
X062476Y060115D01*
X062334Y059393D02*
X062181Y059240D01*
X062181Y058933D01*
X062028Y058933D02*
X061721Y059240D01*
X061721Y059317D01*
X061797Y059393D01*
X061951Y059393D01*
X062028Y059317D01*
X062181Y059163D02*
X062488Y059163D01*
X062488Y059240D02*
X062334Y059393D01*
X062488Y059240D02*
X062488Y058933D01*
X062641Y058933D02*
X062948Y059393D01*
X063102Y059317D02*
X063179Y059393D01*
X063332Y059393D01*
X063409Y059317D01*
X063409Y059010D01*
X063332Y058933D01*
X063179Y058933D01*
X063102Y059010D01*
X062948Y058933D02*
X062641Y059393D01*
X062028Y058933D02*
X061721Y058933D01*
X061567Y059010D02*
X061260Y059317D01*
X061260Y059010D01*
X061337Y058933D01*
X061490Y058933D01*
X061567Y059010D01*
X061567Y059317D01*
X061490Y059393D01*
X061337Y059393D01*
X061260Y059317D01*
X061107Y059393D02*
X060800Y059393D01*
X060800Y059317D01*
X061107Y059010D01*
X061107Y058933D01*
X060646Y059010D02*
X060570Y058933D01*
X060416Y058933D01*
X060339Y059010D01*
X060339Y059163D01*
X060416Y059240D01*
X060493Y059240D01*
X060646Y059163D01*
X060646Y059393D01*
X060339Y059393D01*
X060436Y060058D02*
X059976Y060058D01*
X060129Y060058D02*
X060129Y060288D01*
X060206Y060365D01*
X060360Y060365D01*
X060436Y060288D01*
X060436Y060058D01*
X060129Y060211D02*
X059976Y060365D01*
X060053Y060518D02*
X059976Y060595D01*
X059976Y060749D01*
X060053Y060825D01*
X060360Y060825D01*
X060436Y060749D01*
X060436Y060595D01*
X060360Y060518D01*
X060283Y060518D01*
X060206Y060595D01*
X060206Y060825D01*
X060129Y060979D02*
X060129Y061209D01*
X060206Y061286D01*
X060360Y061286D01*
X060436Y061209D01*
X060436Y060979D01*
X059976Y060979D01*
X057591Y061763D02*
X057591Y062053D01*
X057071Y062063D02*
X057071Y061763D01*
X056811Y061666D02*
X056351Y061666D01*
X056351Y061819D02*
X056351Y061512D01*
X056428Y061359D02*
X056351Y061282D01*
X056351Y061129D01*
X056428Y061052D01*
X056735Y061052D01*
X056811Y061129D01*
X056811Y061282D01*
X056735Y061359D01*
X056658Y061512D02*
X056811Y061666D01*
X056811Y061973D02*
X056811Y062203D01*
X056735Y062280D01*
X056581Y062280D01*
X056504Y062203D01*
X056504Y061973D01*
X056351Y061973D02*
X056811Y061973D01*
X055966Y060928D02*
X055966Y060638D01*
X055446Y060638D02*
X055446Y060938D01*
X055186Y060848D02*
X055186Y061078D01*
X055110Y061155D01*
X054956Y061155D01*
X054879Y061078D01*
X054879Y060848D01*
X054726Y060848D02*
X055186Y060848D01*
X055110Y060694D02*
X055033Y060694D01*
X054956Y060617D01*
X054879Y060694D01*
X054803Y060694D01*
X054726Y060617D01*
X054726Y060464D01*
X054803Y060387D01*
X054803Y060234D02*
X054726Y060157D01*
X054726Y060004D01*
X054803Y059927D01*
X055110Y059927D01*
X055186Y060004D01*
X055186Y060157D01*
X055110Y060234D01*
X055110Y060387D02*
X055186Y060464D01*
X055186Y060617D01*
X055110Y060694D01*
X054956Y060617D02*
X054956Y060541D01*
X054841Y060178D02*
X054841Y059888D01*
X054321Y059888D02*
X054321Y060188D01*
X054061Y060098D02*
X054061Y060328D01*
X053985Y060405D01*
X053831Y060405D01*
X053754Y060328D01*
X053754Y060098D01*
X053601Y060098D02*
X054061Y060098D01*
X053985Y059944D02*
X054061Y059867D01*
X054061Y059714D01*
X053985Y059637D01*
X053985Y059484D02*
X054061Y059407D01*
X054061Y059254D01*
X053985Y059177D01*
X053678Y059177D01*
X053601Y059254D01*
X053601Y059407D01*
X053678Y059484D01*
X053601Y059637D02*
X053908Y059944D01*
X053985Y059944D01*
X053601Y059944D02*
X053601Y059637D01*
X060157Y056330D02*
X060157Y056023D01*
X060464Y056330D01*
X060540Y056330D01*
X060617Y056253D01*
X060617Y056099D01*
X060540Y056023D01*
X060617Y055869D02*
X060617Y055716D01*
X060617Y055792D02*
X060233Y055792D01*
X060157Y055716D01*
X060157Y055639D01*
X060233Y055562D01*
X062101Y056933D02*
X062561Y056933D01*
X062561Y057163D01*
X062485Y057240D01*
X062331Y057240D01*
X062254Y057163D01*
X062254Y056933D01*
X062254Y057086D02*
X062101Y057240D01*
X062178Y057393D02*
X062101Y057470D01*
X062101Y057624D01*
X062178Y057700D01*
X062331Y057700D01*
X062408Y057624D01*
X062408Y057547D01*
X062331Y057393D01*
X062561Y057393D01*
X062561Y057700D01*
X062561Y057854D02*
X062561Y058084D01*
X062485Y058161D01*
X062331Y058161D01*
X062254Y058084D01*
X062254Y057854D01*
X062101Y057854D02*
X062561Y057854D01*
X062831Y056655D02*
X062754Y056578D01*
X062754Y056348D01*
X062601Y056348D02*
X063061Y056348D01*
X063061Y056578D01*
X062985Y056655D01*
X062831Y056655D01*
X062831Y056194D02*
X062831Y055887D01*
X063061Y056117D01*
X062601Y056117D01*
X062678Y055734D02*
X062601Y055657D01*
X062601Y055504D01*
X062678Y055427D01*
X062985Y055427D01*
X063061Y055504D01*
X063061Y055657D01*
X062985Y055734D01*
X063321Y056138D02*
X063321Y056438D01*
X063841Y056428D02*
X063841Y056138D01*
X063869Y058856D02*
X063562Y058856D01*
X064023Y058933D02*
X064330Y058933D01*
X064483Y058933D02*
X064636Y059086D01*
X064560Y059086D02*
X064790Y059086D01*
X064790Y058933D02*
X064790Y059393D01*
X064560Y059393D01*
X064483Y059317D01*
X064483Y059163D01*
X064560Y059086D01*
X064330Y059240D02*
X064176Y059393D01*
X064176Y058933D01*
X063351Y062570D02*
X063351Y062877D01*
X063428Y063031D02*
X063735Y063338D01*
X063428Y063338D01*
X063351Y063261D01*
X063351Y063107D01*
X063428Y063031D01*
X063735Y063031D01*
X063811Y063107D01*
X063811Y063261D01*
X063735Y063338D01*
X063811Y063491D02*
X063811Y063798D01*
X063735Y063798D01*
X063428Y063491D01*
X063351Y063491D01*
X062936Y063491D02*
X062936Y063798D01*
X062860Y063798D01*
X062553Y063491D01*
X062476Y063491D01*
X062553Y063338D02*
X062476Y063261D01*
X062476Y063107D01*
X062553Y063031D01*
X062860Y063338D01*
X062553Y063338D01*
X062860Y063338D02*
X062936Y063261D01*
X062936Y063107D01*
X062860Y063031D01*
X062553Y063031D01*
X062476Y062877D02*
X062476Y062570D01*
X062553Y063952D02*
X062476Y064028D01*
X062476Y064182D01*
X062553Y064258D01*
X062706Y064258D01*
X062783Y064182D01*
X062783Y064105D01*
X062706Y063952D01*
X062936Y063952D01*
X062936Y064258D01*
X063351Y064182D02*
X063351Y064028D01*
X063428Y063952D01*
X063581Y063952D02*
X063658Y064105D01*
X063658Y064182D01*
X063581Y064258D01*
X063428Y064258D01*
X063351Y064182D01*
X063581Y063952D02*
X063811Y063952D01*
X063811Y064258D01*
X043442Y061518D02*
X043212Y061518D01*
X043135Y061442D01*
X043135Y061288D01*
X043212Y061211D01*
X043442Y061211D01*
X043442Y061058D02*
X043442Y061518D01*
X043289Y061211D02*
X043135Y061058D01*
X042982Y061058D02*
X042675Y061365D01*
X042675Y061442D01*
X042752Y061518D01*
X042905Y061518D01*
X042982Y061442D01*
X042982Y061058D02*
X042675Y061058D01*
X042521Y061288D02*
X042214Y061288D01*
X042291Y061058D02*
X042291Y061518D01*
X042521Y061288D01*
X041311Y061933D02*
X041311Y062163D01*
X041235Y062240D01*
X041081Y062240D01*
X041004Y062163D01*
X041004Y061933D01*
X040851Y061933D02*
X041311Y061933D01*
X041004Y062086D02*
X040851Y062240D01*
X040928Y062393D02*
X040851Y062470D01*
X040851Y062624D01*
X040928Y062700D01*
X041081Y062700D01*
X041158Y062624D01*
X041158Y062547D01*
X041081Y062393D01*
X041311Y062393D01*
X041311Y062700D01*
X040436Y062624D02*
X040360Y062700D01*
X040283Y062700D01*
X040206Y062624D01*
X040206Y062470D01*
X040283Y062393D01*
X040360Y062393D01*
X040436Y062470D01*
X040436Y062624D01*
X040206Y062624D02*
X040129Y062700D01*
X040053Y062700D01*
X039976Y062624D01*
X039976Y062470D01*
X040053Y062393D01*
X040129Y062393D01*
X040206Y062470D01*
X040206Y062240D02*
X040129Y062163D01*
X040129Y061933D01*
X039976Y061933D02*
X040436Y061933D01*
X040436Y062163D01*
X040360Y062240D01*
X040206Y062240D01*
X040129Y062086D02*
X039976Y062240D01*
X038811Y061834D02*
X038811Y061681D01*
X038735Y061604D01*
X038428Y061604D01*
X038735Y061911D01*
X038428Y061911D01*
X038351Y061834D01*
X038351Y061681D01*
X038428Y061604D01*
X038351Y061450D02*
X038351Y061143D01*
X038351Y060990D02*
X038504Y060836D01*
X038504Y060913D02*
X038504Y060683D01*
X038351Y060683D02*
X038811Y060683D01*
X038811Y060913D01*
X038735Y060990D01*
X038581Y060990D01*
X038504Y060913D01*
X038658Y061143D02*
X038811Y061297D01*
X038351Y061297D01*
X038811Y061834D02*
X038735Y061911D01*
X039675Y059269D02*
X039513Y059106D01*
X039513Y058998D01*
X039621Y058889D01*
X039730Y058889D01*
X039892Y059052D01*
X039784Y058943D02*
X039784Y058726D01*
X039621Y058672D02*
X039621Y058564D01*
X039513Y058455D01*
X039404Y058455D01*
X039187Y058672D01*
X039187Y058781D01*
X039296Y058889D01*
X039404Y058889D01*
X039458Y058835D01*
X039458Y058726D01*
X039296Y058564D01*
X040001Y058943D02*
X039675Y059269D01*
X040726Y058453D02*
X040803Y058530D01*
X040879Y058530D01*
X040956Y058453D01*
X040956Y058223D01*
X040803Y058223D01*
X040726Y058299D01*
X040726Y058453D01*
X040956Y058223D02*
X041110Y058376D01*
X041186Y058530D01*
X041110Y058069D02*
X040956Y058069D01*
X040879Y057992D01*
X040879Y057762D01*
X040726Y057762D02*
X041186Y057762D01*
X041186Y057992D01*
X041110Y058069D01*
X040879Y057916D02*
X040726Y058069D01*
X036311Y058308D02*
X036311Y058768D01*
X036081Y058768D01*
X036004Y058692D01*
X036004Y058538D01*
X036081Y058461D01*
X036311Y058461D01*
X036158Y058461D02*
X036004Y058308D01*
X035851Y058538D02*
X035544Y058538D01*
X035620Y058308D02*
X035620Y058768D01*
X035851Y058538D01*
X079333Y038067D02*
X079640Y037760D01*
X079563Y037683D01*
X079410Y037683D01*
X079333Y037760D01*
X079333Y038067D01*
X079410Y038143D01*
X079563Y038143D01*
X079640Y038067D01*
X079640Y037760D01*
X079794Y037683D02*
X080101Y037683D01*
X079794Y037990D01*
X079794Y038067D01*
X079870Y038143D01*
X080024Y038143D01*
X080101Y038067D01*
X080254Y038067D02*
X080254Y037913D01*
X080331Y037836D01*
X080561Y037836D01*
X080561Y037683D02*
X080561Y038143D01*
X080331Y038143D01*
X080254Y038067D01*
X080408Y037836D02*
X080254Y037683D01*
X080291Y029643D02*
X080521Y029643D01*
X080521Y029183D01*
X080291Y029183D01*
X080214Y029260D01*
X080214Y029567D01*
X080291Y029643D01*
X080675Y029567D02*
X080675Y029490D01*
X080752Y029413D01*
X080905Y029413D01*
X080982Y029490D01*
X080982Y029567D01*
X080905Y029643D01*
X080752Y029643D01*
X080675Y029567D01*
X080752Y029413D02*
X080675Y029336D01*
X080675Y029260D01*
X080752Y029183D01*
X080905Y029183D01*
X080982Y029260D01*
X080982Y029336D01*
X080905Y029413D01*
X081135Y029413D02*
X081212Y029336D01*
X081442Y029336D01*
X081442Y029183D02*
X081442Y029643D01*
X081212Y029643D01*
X081135Y029567D01*
X081135Y029413D01*
X081289Y029336D02*
X081135Y029183D01*
X081212Y028643D02*
X081135Y028567D01*
X081135Y028413D01*
X081212Y028336D01*
X081442Y028336D01*
X081442Y028183D02*
X081442Y028643D01*
X081212Y028643D01*
X080982Y028643D02*
X080675Y028643D01*
X080675Y028567D01*
X080982Y028260D01*
X080982Y028183D01*
X081135Y028183D02*
X081289Y028336D01*
X081708Y028433D02*
X082015Y028433D01*
X081862Y028433D02*
X081862Y028893D01*
X082015Y028740D01*
X082169Y028817D02*
X082169Y028663D01*
X082245Y028586D01*
X082476Y028586D01*
X082476Y028433D02*
X082476Y028893D01*
X082245Y028893D01*
X082169Y028817D01*
X082322Y028586D02*
X082169Y028433D01*
X082629Y028510D02*
X082936Y028817D01*
X082783Y028817D02*
X082783Y028510D01*
X082936Y028510D02*
X082629Y028817D01*
X082629Y028663D02*
X082936Y028663D01*
X082311Y027893D02*
X082311Y027433D01*
X082311Y027586D02*
X082081Y027586D01*
X082004Y027663D01*
X082004Y027817D01*
X082081Y027893D01*
X082311Y027893D01*
X082158Y027586D02*
X082004Y027433D01*
X081851Y027510D02*
X081774Y027433D01*
X081620Y027433D01*
X081544Y027510D01*
X081544Y027817D01*
X081620Y027893D01*
X081774Y027893D01*
X081851Y027817D01*
X081851Y027740D01*
X081774Y027663D01*
X081544Y027663D01*
X081442Y027643D02*
X081212Y027643D01*
X081135Y027567D01*
X081135Y027413D01*
X081212Y027336D01*
X081442Y027336D01*
X081442Y027183D02*
X081442Y027643D01*
X081390Y027817D02*
X081237Y027663D01*
X081237Y027433D01*
X081289Y027336D02*
X081135Y027183D01*
X080982Y027260D02*
X080905Y027183D01*
X080752Y027183D01*
X080675Y027260D01*
X080675Y027336D01*
X080752Y027413D01*
X080982Y027413D01*
X080982Y027260D01*
X080982Y027413D02*
X080828Y027567D01*
X080675Y027643D01*
X080521Y027643D02*
X080291Y027643D01*
X080214Y027567D01*
X080214Y027260D01*
X080291Y027183D01*
X080521Y027183D01*
X080521Y027643D01*
X080521Y028183D02*
X080291Y028183D01*
X080214Y028260D01*
X080214Y028567D01*
X080291Y028643D01*
X080521Y028643D01*
X080521Y028183D01*
X081083Y027893D02*
X081083Y027817D01*
X081237Y027663D01*
X081390Y027817D02*
X081390Y027893D01*
X081442Y026643D02*
X081212Y026643D01*
X081135Y026567D01*
X081135Y026413D01*
X081212Y026336D01*
X081442Y026336D01*
X081442Y026183D02*
X081442Y026643D01*
X081289Y026336D02*
X081135Y026183D01*
X080982Y026260D02*
X080905Y026183D01*
X080752Y026183D01*
X080675Y026260D01*
X080675Y026413D01*
X080752Y026490D01*
X080828Y026490D01*
X080982Y026413D01*
X080982Y026643D01*
X080675Y026643D01*
X080521Y026643D02*
X080291Y026643D01*
X080214Y026567D01*
X080214Y026260D01*
X080291Y026183D01*
X080521Y026183D01*
X080521Y026643D01*
X080521Y025643D02*
X080291Y025643D01*
X080214Y025567D01*
X080214Y025260D01*
X080291Y025183D01*
X080521Y025183D01*
X080521Y025643D01*
X080752Y025643D02*
X080752Y025183D01*
X080675Y025413D02*
X080982Y025413D01*
X080752Y025643D01*
X081135Y025567D02*
X081135Y025413D01*
X081212Y025336D01*
X081442Y025336D01*
X081442Y025183D02*
X081442Y025643D01*
X081212Y025643D01*
X081135Y025567D01*
X081289Y025336D02*
X081135Y025183D01*
X081212Y024643D02*
X081135Y024567D01*
X081135Y024413D01*
X081212Y024336D01*
X081442Y024336D01*
X081442Y024183D02*
X081442Y024643D01*
X081212Y024643D01*
X080982Y024567D02*
X080905Y024643D01*
X080752Y024643D01*
X080675Y024567D01*
X080675Y024490D01*
X080752Y024413D01*
X080675Y024336D01*
X080675Y024260D01*
X080752Y024183D01*
X080905Y024183D01*
X080982Y024260D01*
X081135Y024183D02*
X081289Y024336D01*
X080828Y024413D02*
X080752Y024413D01*
X080521Y024183D02*
X080291Y024183D01*
X080214Y024260D01*
X080214Y024567D01*
X080291Y024643D01*
X080521Y024643D01*
X080521Y024183D01*
X080530Y023643D02*
X080607Y023567D01*
X080530Y023643D02*
X080377Y023643D01*
X080300Y023567D01*
X080300Y023490D01*
X080607Y023183D01*
X080300Y023183D01*
X080146Y023183D02*
X079916Y023183D01*
X079839Y023260D01*
X079839Y023567D01*
X079916Y023643D01*
X080146Y023643D01*
X080146Y023183D01*
X080166Y022643D02*
X080396Y022643D01*
X080396Y022183D01*
X080166Y022183D01*
X080089Y022260D01*
X080089Y022567D01*
X080166Y022643D01*
X080703Y022643D02*
X080703Y022183D01*
X080550Y022183D02*
X080857Y022183D01*
X081010Y022183D02*
X081164Y022336D01*
X081087Y022336D02*
X081317Y022336D01*
X081317Y022183D02*
X081317Y022643D01*
X081087Y022643D01*
X081010Y022567D01*
X081010Y022413D01*
X081087Y022336D01*
X080857Y022490D02*
X080703Y022643D01*
X080760Y023183D02*
X080914Y023336D01*
X080837Y023336D02*
X081067Y023336D01*
X081067Y023183D02*
X081067Y023643D01*
X080837Y023643D01*
X080760Y023567D01*
X080760Y023413D01*
X080837Y023336D01*
X082333Y023143D02*
X082333Y023067D01*
X082487Y022913D01*
X082487Y022683D01*
X082487Y022913D02*
X082640Y023067D01*
X082640Y023143D01*
X082581Y023058D02*
X082581Y023365D01*
X082428Y023365D02*
X082735Y023058D01*
X082794Y023067D02*
X082870Y023143D01*
X083024Y023143D01*
X083101Y023067D01*
X083254Y023067D02*
X083254Y022913D01*
X083331Y022836D01*
X083561Y022836D01*
X083561Y022683D02*
X083561Y023143D01*
X083331Y023143D01*
X083254Y023067D01*
X083408Y022836D02*
X083254Y022683D01*
X083101Y022683D02*
X082794Y022990D01*
X082794Y023067D01*
X082735Y023211D02*
X082428Y023211D01*
X082428Y023058D02*
X082735Y023365D01*
X082735Y023518D02*
X082428Y023825D01*
X082487Y023913D02*
X082487Y023683D01*
X082428Y023672D02*
X082735Y023672D01*
X082794Y023683D02*
X083101Y023683D01*
X083254Y023683D02*
X083408Y023836D01*
X083331Y023836D02*
X083561Y023836D01*
X083561Y023683D02*
X083561Y024143D01*
X083331Y024143D01*
X083254Y024067D01*
X083254Y023913D01*
X083331Y023836D01*
X083101Y023990D02*
X082947Y024143D01*
X082947Y023683D01*
X082735Y023825D02*
X082428Y023518D01*
X082581Y023518D02*
X082581Y023825D01*
X082487Y023913D02*
X082333Y024067D01*
X082333Y024143D01*
X082351Y024286D02*
X082504Y024132D01*
X082504Y024209D02*
X082504Y023979D01*
X082487Y023913D02*
X082640Y024067D01*
X082640Y024143D01*
X082504Y024209D02*
X082581Y024286D01*
X082735Y024286D01*
X082811Y024209D01*
X082811Y023979D01*
X082351Y023979D01*
X082351Y024439D02*
X082658Y024746D01*
X082735Y024746D01*
X082811Y024669D01*
X082811Y024516D01*
X082735Y024439D01*
X082351Y024439D02*
X082351Y024746D01*
X083226Y024865D02*
X083379Y024711D01*
X083379Y024788D02*
X083379Y024558D01*
X083226Y024558D02*
X083686Y024558D01*
X083686Y024788D01*
X083610Y024865D01*
X083456Y024865D01*
X083379Y024788D01*
X083303Y025018D02*
X083226Y025018D01*
X083303Y025018D02*
X083610Y025325D01*
X083686Y025325D01*
X083686Y025018D01*
X084101Y024874D02*
X084178Y024950D01*
X084254Y024950D01*
X084331Y024874D01*
X084331Y024643D01*
X084178Y024643D01*
X084101Y024720D01*
X084101Y024874D01*
X084331Y024643D02*
X084485Y024797D01*
X084561Y024950D01*
X084561Y025104D02*
X084485Y025104D01*
X084331Y025257D01*
X084101Y025257D01*
X084331Y025257D02*
X084485Y025411D01*
X084561Y025411D01*
X084485Y026058D02*
X084178Y026058D01*
X084101Y026135D01*
X084101Y026288D01*
X084178Y026365D01*
X084178Y026518D02*
X084101Y026595D01*
X084101Y026749D01*
X084178Y026825D01*
X084254Y026825D01*
X084331Y026749D01*
X084331Y026672D01*
X084331Y026749D02*
X084408Y026825D01*
X084485Y026825D01*
X084561Y026749D01*
X084561Y026595D01*
X084485Y026518D01*
X084485Y026365D02*
X084561Y026288D01*
X084561Y026135D01*
X084485Y026058D01*
X083841Y026388D02*
X083841Y026688D01*
X084101Y027132D02*
X084331Y027132D01*
X084485Y027286D01*
X084561Y027286D01*
X084331Y027132D02*
X084485Y026979D01*
X084561Y026979D01*
X083321Y026688D02*
X083321Y026398D01*
X083610Y025786D02*
X083686Y025786D01*
X083610Y025786D02*
X083456Y025632D01*
X083226Y025632D01*
X083456Y025632D02*
X083610Y025479D01*
X083686Y025479D01*
X084101Y024490D02*
X084254Y024336D01*
X084254Y024413D02*
X084254Y024183D01*
X084101Y024183D02*
X084561Y024183D01*
X084561Y024413D01*
X084485Y024490D01*
X084331Y024490D01*
X084254Y024413D01*
X085771Y025283D02*
X085771Y026043D01*
X086391Y026043D02*
X086391Y025283D01*
X086601Y025260D02*
X086601Y025413D01*
X086678Y025490D01*
X086601Y025643D02*
X086908Y025950D01*
X086985Y025950D01*
X087061Y025874D01*
X087061Y025720D01*
X086985Y025643D01*
X086985Y025490D02*
X087061Y025413D01*
X087061Y025260D01*
X086985Y025183D01*
X086678Y025183D01*
X086601Y025260D01*
X086771Y025283D02*
X086771Y026043D01*
X086601Y025950D02*
X086601Y025643D01*
X086985Y026104D02*
X086831Y026257D01*
X086601Y026257D01*
X086831Y026257D02*
X086985Y026411D01*
X087061Y026411D01*
X087061Y026104D02*
X086985Y026104D01*
X087391Y026043D02*
X087391Y025283D01*
X087601Y025260D02*
X087601Y025413D01*
X087678Y025490D01*
X087601Y025643D02*
X087601Y025950D01*
X087601Y025797D02*
X088061Y025797D01*
X087908Y025643D01*
X087985Y025490D02*
X088061Y025413D01*
X088061Y025260D01*
X087985Y025183D01*
X087678Y025183D01*
X087601Y025260D01*
X087985Y026104D02*
X087831Y026257D01*
X087601Y026257D01*
X087831Y026257D02*
X087985Y026411D01*
X088061Y026411D01*
X088061Y026104D02*
X087985Y026104D01*
X083101Y022683D02*
X082794Y022683D01*
X082436Y021030D02*
X082360Y021030D01*
X082206Y020876D01*
X081976Y020876D01*
X082206Y020876D02*
X082360Y020723D01*
X082436Y020723D01*
X082436Y020569D02*
X082436Y020262D01*
X082206Y020262D01*
X082283Y020416D01*
X082283Y020492D01*
X082206Y020569D01*
X082053Y020569D01*
X081976Y020492D01*
X081976Y020339D01*
X082053Y020262D01*
X082030Y020288D02*
X081877Y020288D01*
X081800Y020211D01*
X081800Y020135D01*
X081877Y020058D01*
X082030Y020058D01*
X082107Y020135D01*
X082107Y020211D01*
X082030Y020288D01*
X082107Y020365D01*
X082107Y020442D01*
X082030Y020518D01*
X081877Y020518D01*
X081800Y020442D01*
X081800Y020365D01*
X081877Y020288D01*
X081985Y020161D02*
X082061Y020161D01*
X081985Y020161D02*
X081831Y020007D01*
X081601Y020007D01*
X081493Y020058D02*
X081493Y020288D01*
X081339Y020442D01*
X081339Y020518D01*
X081493Y020288D02*
X081646Y020442D01*
X081646Y020518D01*
X081976Y020109D02*
X082129Y019955D01*
X082129Y020032D02*
X082129Y019802D01*
X082061Y019854D02*
X081985Y019854D01*
X081831Y020007D01*
X081976Y019802D02*
X082436Y019802D01*
X082436Y020032D01*
X082360Y020109D01*
X082206Y020109D01*
X082129Y020032D01*
X082260Y020058D02*
X082414Y020211D01*
X082337Y020211D02*
X082567Y020211D01*
X082567Y020058D02*
X082567Y020518D01*
X082337Y020518D01*
X082260Y020442D01*
X082260Y020288D01*
X082337Y020211D01*
X081985Y019700D02*
X081908Y019700D01*
X081831Y019624D01*
X081754Y019700D01*
X081678Y019700D01*
X081601Y019624D01*
X081601Y019470D01*
X081678Y019393D01*
X081601Y019240D02*
X081754Y019086D01*
X081754Y019163D02*
X081754Y018933D01*
X081601Y018933D02*
X082061Y018933D01*
X082061Y019163D01*
X081985Y019240D01*
X081831Y019240D01*
X081754Y019163D01*
X081985Y019393D02*
X082061Y019470D01*
X082061Y019624D01*
X081985Y019700D01*
X081831Y019624D02*
X081831Y019547D01*
X081317Y021058D02*
X081317Y021518D01*
X081087Y021518D01*
X081010Y021442D01*
X081010Y021288D01*
X081087Y021211D01*
X081317Y021211D01*
X081164Y021211D02*
X081010Y021058D01*
X080857Y021288D02*
X080550Y021288D01*
X080396Y021442D02*
X080243Y021288D01*
X080243Y021058D01*
X080243Y021288D02*
X080089Y021442D01*
X080089Y021518D01*
X080396Y021518D02*
X080396Y021442D01*
X080627Y021518D02*
X080857Y021288D01*
X080627Y021058D02*
X080627Y021518D01*
X079436Y020155D02*
X079360Y020155D01*
X079206Y020001D01*
X078976Y020001D01*
X079206Y020001D02*
X079360Y019848D01*
X079436Y019848D01*
X079360Y019694D02*
X079436Y019617D01*
X079436Y019464D01*
X079360Y019387D01*
X079053Y019387D01*
X078976Y019464D01*
X078976Y019617D01*
X079053Y019694D01*
X079696Y019638D02*
X079696Y019938D01*
X080216Y019928D02*
X080216Y019638D01*
X072186Y021510D02*
X072109Y021433D01*
X071956Y021433D01*
X071879Y021510D01*
X071726Y021433D02*
X071572Y021586D01*
X071419Y021433D01*
X071419Y021893D01*
X071265Y021817D02*
X071188Y021893D01*
X071035Y021893D01*
X070958Y021817D01*
X070958Y021740D01*
X071265Y021433D01*
X070958Y021433D01*
X070805Y021510D02*
X070728Y021433D01*
X070575Y021433D01*
X070498Y021510D01*
X070498Y021817D01*
X070575Y021893D01*
X070728Y021893D01*
X070805Y021817D01*
X070805Y021740D01*
X070728Y021663D01*
X070498Y021663D01*
X071556Y021173D02*
X071856Y021173D01*
X071726Y021433D02*
X071726Y021893D01*
X071879Y021817D02*
X071956Y021893D01*
X072109Y021893D01*
X072186Y021817D01*
X072186Y021510D01*
X071846Y020653D02*
X071556Y020653D01*
X068113Y004893D02*
X067883Y004893D01*
X067806Y004817D01*
X067806Y004663D01*
X067883Y004586D01*
X068113Y004586D01*
X068113Y004433D02*
X068113Y004893D01*
X067959Y004586D02*
X067806Y004433D01*
X067653Y004433D02*
X067346Y004433D01*
X067499Y004433D02*
X067499Y004893D01*
X067653Y004740D01*
X067192Y004817D02*
X067115Y004893D01*
X066962Y004893D01*
X066885Y004817D01*
X066885Y004740D01*
X067192Y004433D01*
X066885Y004433D01*
X066732Y004433D02*
X066425Y004740D01*
X066425Y004817D01*
X066502Y004893D01*
X066655Y004893D01*
X066732Y004817D01*
X066732Y004433D02*
X066425Y004433D01*
X066271Y004510D02*
X066195Y004433D01*
X066041Y004433D01*
X065964Y004510D01*
X065964Y004586D01*
X066041Y004663D01*
X066118Y004663D01*
X066041Y004663D02*
X065964Y004740D01*
X065964Y004817D01*
X066041Y004893D01*
X066195Y004893D01*
X066271Y004817D01*
X066422Y004018D02*
X066346Y003942D01*
X066346Y003788D01*
X066422Y003711D01*
X066653Y003711D01*
X066653Y003558D02*
X066653Y004018D01*
X066422Y004018D01*
X066192Y003865D02*
X066039Y004018D01*
X066039Y003558D01*
X066192Y003558D02*
X065885Y003558D01*
X065732Y003558D02*
X065425Y003558D01*
X065578Y003558D02*
X065578Y004018D01*
X065732Y003865D01*
X065271Y003942D02*
X065195Y004018D01*
X065041Y004018D01*
X064964Y003942D01*
X064964Y003865D01*
X065271Y003558D01*
X064964Y003558D01*
X064192Y003558D02*
X064192Y004018D01*
X063962Y004018D01*
X063885Y003942D01*
X063885Y003788D01*
X063962Y003711D01*
X064192Y003711D01*
X064039Y003711D02*
X063885Y003558D01*
X063732Y003635D02*
X063655Y003558D01*
X063502Y003558D01*
X063425Y003635D01*
X063425Y003711D01*
X063502Y003788D01*
X063578Y003788D01*
X063502Y003788D02*
X063425Y003865D01*
X063425Y003942D01*
X063502Y004018D01*
X063655Y004018D01*
X063732Y003942D01*
X063271Y003788D02*
X062964Y003788D01*
X063041Y003558D02*
X063041Y004018D01*
X063271Y003788D01*
X063964Y004510D02*
X064041Y004433D01*
X064195Y004433D01*
X064271Y004510D01*
X064425Y004433D02*
X064578Y004586D01*
X064502Y004586D02*
X064732Y004586D01*
X064732Y004433D02*
X064732Y004893D01*
X064502Y004893D01*
X064425Y004817D01*
X064425Y004663D01*
X064502Y004586D01*
X064271Y004817D02*
X064195Y004893D01*
X064041Y004893D01*
X063964Y004817D01*
X063964Y004740D01*
X064041Y004663D01*
X063964Y004586D01*
X063964Y004510D01*
X064041Y004663D02*
X064118Y004663D01*
X064885Y004663D02*
X065192Y004663D01*
X066346Y003558D02*
X066499Y003711D01*
D12*
X065369Y004537D03*
X064789Y004537D03*
X064369Y005412D03*
X063789Y005412D03*
X063369Y004537D03*
X062789Y004537D03*
X065789Y005412D03*
X066369Y005412D03*
X081164Y021037D03*
X081744Y021037D03*
X083043Y022164D03*
X083623Y022164D03*
X083623Y023164D03*
X083043Y023164D03*
X080619Y025162D03*
X080039Y025162D03*
X080039Y026162D03*
X080619Y026162D03*
X080619Y027162D03*
X080039Y027162D03*
X080039Y028162D03*
X080619Y028162D03*
X080619Y029162D03*
X080039Y029162D03*
X080039Y030162D03*
X080619Y030162D03*
X082418Y027914D03*
X082998Y027914D03*
X082373Y026914D03*
X081793Y026914D03*
X080494Y023162D03*
X079914Y023162D03*
X080043Y037164D03*
X080623Y037164D03*
X061659Y056162D03*
X061079Y056162D03*
X068164Y058787D03*
X068744Y058787D03*
X073793Y061039D03*
X074373Y061039D03*
X074248Y061789D03*
X073668Y061789D03*
G36*
X040128Y058723D02*
X040309Y058904D01*
X040696Y058517D01*
X040515Y058336D01*
X040128Y058723D01*
G37*
G36*
X039718Y058313D02*
X039899Y058494D01*
X040286Y058107D01*
X040105Y057926D01*
X039718Y058313D01*
G37*
X036373Y057789D03*
X035793Y057789D03*
D13*
X042061Y062038D03*
X043101Y062038D03*
X079936Y022038D03*
X080976Y022038D03*
D14*
X080546Y024163D03*
X079866Y024163D03*
X065046Y045538D03*
X064366Y045538D03*
X061046Y059913D03*
X060366Y059913D03*
D15*
X083581Y025183D03*
X083581Y024143D03*
X081831Y024058D03*
X081831Y023018D03*
X081081Y019933D03*
X081081Y018893D03*
D16*
X082955Y020625D03*
X082955Y021205D03*
X082707Y024496D03*
X082707Y025076D03*
X066582Y057121D03*
X066582Y057701D03*
X064582Y059996D03*
X064582Y060576D03*
X063707Y060576D03*
X063707Y059996D03*
X059457Y059996D03*
X059457Y060576D03*
X041705Y058705D03*
X041705Y058125D03*
X037832Y060621D03*
X037832Y061201D03*
X039457Y061871D03*
X039457Y062451D03*
X040332Y062451D03*
X040332Y061871D03*
D17*
X054581Y060320D03*
X054581Y059750D03*
X055706Y060500D03*
X055706Y061070D03*
X057331Y061625D03*
X057331Y062195D03*
X063581Y056570D03*
X063581Y056000D03*
X074581Y051951D03*
X074581Y051381D03*
X083581Y026826D03*
X083581Y026256D03*
X079956Y020070D03*
X079956Y019500D03*
D18*
X086081Y025141D03*
X087081Y025141D03*
X087081Y026185D03*
X086081Y026185D03*
D19*
X061581Y057073D03*
X061581Y057753D03*
X061956Y059948D03*
X061956Y060628D03*
X062831Y060628D03*
X062831Y059948D03*
D20*
X047566Y042038D02*
X047266Y042038D01*
X047266Y041963D01*
X047566Y041663D01*
X047566Y041588D01*
X043687Y041613D02*
X043612Y041538D01*
X043462Y041538D01*
X043387Y041613D01*
X043387Y041688D01*
X043462Y041763D01*
X043612Y041763D01*
X043687Y041838D01*
X043687Y041913D01*
X043612Y041988D01*
X043462Y041988D01*
X043387Y041913D01*
X043227Y041988D02*
X043227Y041688D01*
X043077Y041538D01*
X042927Y041688D01*
X042927Y041988D01*
X042766Y041838D02*
X042616Y041988D01*
X042616Y041538D01*
X042766Y041538D02*
X042466Y041538D01*
X041566Y041588D02*
X041266Y041588D01*
X041416Y041588D02*
X041416Y042038D01*
X041566Y041888D01*
X040566Y042038D02*
X040266Y042038D01*
X040266Y041963D01*
X040566Y041663D01*
X040566Y041588D01*
X036687Y041613D02*
X036612Y041538D01*
X036462Y041538D01*
X036387Y041613D01*
X036387Y041688D01*
X036462Y041763D01*
X036612Y041763D01*
X036687Y041838D01*
X036687Y041913D01*
X036612Y041988D01*
X036462Y041988D01*
X036387Y041913D01*
X036227Y041988D02*
X036227Y041688D01*
X036077Y041538D01*
X035927Y041688D01*
X035927Y041988D01*
X035766Y041913D02*
X035691Y041988D01*
X035541Y041988D01*
X035466Y041913D01*
X035466Y041838D01*
X035541Y041763D01*
X035466Y041688D01*
X035466Y041613D01*
X035541Y041538D01*
X035691Y041538D01*
X035766Y041613D01*
X035616Y041763D02*
X035541Y041763D01*
X034566Y041888D02*
X034416Y042038D01*
X034416Y041588D01*
X034566Y041588D02*
X034266Y041588D01*
D21*
X034331Y042463D03*
X034331Y042863D03*
X035331Y042863D03*
X035331Y042463D03*
X036331Y042463D03*
X036331Y042863D03*
X037331Y042863D03*
X037331Y042463D03*
X038331Y042463D03*
X038331Y042863D03*
X039331Y042863D03*
X039331Y042463D03*
X040331Y042463D03*
X040331Y042863D03*
X041331Y042863D03*
X041331Y042463D03*
X042331Y042463D03*
X042331Y042863D03*
X043331Y042863D03*
X043331Y042463D03*
X044331Y042463D03*
X044331Y042863D03*
X045331Y042863D03*
X045331Y042463D03*
X046331Y042463D03*
X046331Y042863D03*
X047331Y042863D03*
X047331Y042463D03*
D22*
X041613Y031288D03*
X041043Y031288D03*
X063049Y034413D03*
X063619Y034413D03*
X063424Y041913D03*
X063994Y041913D03*
X071418Y020913D03*
X071988Y020913D03*
M02*
