G75*
G70*
%OFA0B0*%
%FSLAX24Y24*%
%IPPOS*%
%LPD*%
%AMOC8*
5,1,8,0,0,1.08239X$1,22.5*
%
%ADD10C,0.0060*%
%ADD11R,0.0551X0.0256*%
%ADD12C,0.0040*%
%ADD13R,0.0560X0.0140*%
%ADD14R,0.0256X0.0551*%
%ADD15R,0.0290X0.0690*%
%ADD16R,0.0690X0.0290*%
%ADD17R,0.0295X0.0571*%
%ADD18R,0.0571X0.0295*%
%ADD19R,0.0230X0.0720*%
%ADD20R,0.0295X0.0669*%
%ADD21R,0.0669X0.0295*%
%ADD22R,0.0720X0.0230*%
%ADD23C,0.0080*%
%ADD24R,0.0730X0.1260*%
%ADD25R,0.0730X0.0340*%
D10*
X017456Y013814D02*
X017456Y014137D01*
X017956Y014137D02*
X017956Y013814D01*
X018831Y013814D02*
X018831Y014137D01*
X019331Y014137D02*
X019331Y013814D01*
X018831Y015439D02*
X018831Y015762D01*
X018331Y015762D02*
X018331Y015439D01*
X017492Y015725D02*
X017170Y015725D01*
X017170Y016225D02*
X017492Y016225D01*
X015276Y014975D02*
X015276Y014220D01*
X014636Y014220D02*
X014636Y014975D01*
X014742Y015850D02*
X014420Y015850D01*
X014420Y016350D02*
X014742Y016350D01*
X013331Y015512D02*
X013331Y015189D01*
X012831Y015189D02*
X012831Y015512D01*
X018045Y019725D02*
X018367Y019725D01*
X018367Y020225D02*
X018045Y020225D01*
X011867Y021600D02*
X011545Y021600D01*
X011545Y022100D02*
X011867Y022100D01*
X010456Y021699D02*
X010456Y021377D01*
X009956Y021377D02*
X009956Y021699D01*
X010545Y024600D02*
X010867Y024600D01*
X010867Y025100D02*
X010545Y025100D01*
X012545Y025100D02*
X012867Y025100D01*
X012867Y024600D02*
X012545Y024600D01*
X014670Y027225D02*
X014992Y027225D01*
X014992Y027725D02*
X014670Y027725D01*
X011906Y032395D02*
X011006Y032395D01*
X011006Y033055D02*
X011906Y033055D01*
X014513Y034780D02*
X015268Y034780D01*
X015268Y035420D02*
X014513Y035420D01*
X014513Y035780D02*
X015268Y035780D01*
X015268Y036420D02*
X014513Y036420D01*
X018456Y033387D02*
X018456Y033064D01*
X018956Y033064D02*
X018956Y033387D01*
X023706Y029824D02*
X023706Y029502D01*
X024206Y029502D02*
X024206Y029824D01*
X025456Y033064D02*
X025456Y033387D01*
X025956Y033387D02*
X025956Y033064D01*
X026456Y033064D02*
X026456Y033387D01*
X026956Y033387D02*
X026956Y033064D01*
X027456Y033064D02*
X027456Y033387D01*
X027956Y033387D02*
X027956Y033064D01*
X028456Y033064D02*
X028456Y033387D01*
X028956Y033387D02*
X028956Y033064D01*
X029456Y033064D02*
X029456Y033387D01*
X029956Y033387D02*
X029956Y033064D01*
X030331Y033064D02*
X030331Y033387D01*
X030831Y033387D02*
X030831Y033064D01*
X031206Y032945D02*
X031206Y033505D01*
X031706Y033505D02*
X031706Y032945D01*
X032081Y033064D02*
X032081Y033387D01*
X032581Y033387D02*
X032581Y033064D01*
X032886Y032970D02*
X032886Y033725D01*
X033526Y033725D02*
X033526Y032970D01*
X033761Y033975D02*
X033761Y034730D01*
X034401Y034730D02*
X034401Y033975D01*
X034706Y034064D02*
X034706Y034387D01*
X035206Y034387D02*
X035206Y034064D01*
X035581Y035780D02*
X034826Y035780D01*
X034826Y036420D02*
X035581Y036420D01*
X033956Y036387D02*
X033956Y036064D01*
X033456Y036064D02*
X033456Y036387D01*
X032956Y036387D02*
X032956Y036064D01*
X032456Y036064D02*
X032456Y036387D01*
X031586Y036280D02*
X030831Y036280D01*
X030795Y035975D02*
X031117Y035975D01*
X031117Y035475D02*
X030795Y035475D01*
X031706Y035170D02*
X032461Y035170D01*
X032461Y034530D02*
X031706Y034530D01*
X029206Y034814D02*
X029206Y035137D01*
X028706Y035137D02*
X028706Y034814D01*
X028206Y035439D02*
X028206Y035762D01*
X027706Y035762D02*
X027706Y035439D01*
X030831Y036920D02*
X031586Y036920D01*
X031456Y029137D02*
X031456Y028814D01*
X031956Y028814D02*
X031956Y029137D01*
X046581Y035445D02*
X046581Y036005D01*
X047081Y036005D02*
X047081Y035445D01*
X048376Y033675D02*
X048376Y032775D01*
X049036Y032775D02*
X049036Y033675D01*
X066706Y024699D02*
X066706Y024377D01*
X067206Y024377D02*
X067206Y024699D01*
X069206Y041780D02*
X069961Y041780D01*
X069961Y042420D02*
X069206Y042420D01*
X069295Y043100D02*
X069617Y043100D01*
X069617Y043600D02*
X069295Y043600D01*
X067831Y042545D02*
X067076Y042545D01*
X067076Y041905D02*
X067831Y041905D01*
X027581Y045280D02*
X026826Y045280D01*
X026826Y045920D02*
X027581Y045920D01*
X025276Y045980D02*
X025276Y045225D01*
X024636Y045225D02*
X024636Y045980D01*
X017242Y040725D02*
X016920Y040725D01*
X016920Y040225D02*
X017242Y040225D01*
X023170Y012475D02*
X023492Y012475D01*
X023492Y011975D02*
X023170Y011975D01*
X023170Y011600D02*
X023492Y011600D01*
X023492Y011100D02*
X023170Y011100D01*
X023170Y010725D02*
X023492Y010725D01*
X023492Y010225D02*
X023170Y010225D01*
X022213Y010975D02*
X022213Y011730D01*
X021573Y011730D02*
X021573Y010975D01*
X024357Y009413D02*
X024680Y009413D01*
X024680Y008913D02*
X024357Y008913D01*
X027081Y007949D02*
X027081Y007627D01*
X027581Y007627D02*
X027581Y007949D01*
X049170Y005350D02*
X049492Y005350D01*
X049492Y004850D02*
X049170Y004850D01*
X054920Y004850D02*
X055242Y004850D01*
X055242Y005350D02*
X054920Y005350D01*
D11*
X066955Y024250D03*
X066955Y024830D03*
X034957Y033933D03*
X034957Y034513D03*
X033705Y035938D03*
X033705Y036518D03*
X032705Y036518D03*
X032705Y035938D03*
X032332Y033513D03*
X032332Y032933D03*
X030582Y032933D03*
X030582Y033513D03*
X029707Y033513D03*
X029707Y032933D03*
X028707Y032933D03*
X028707Y033513D03*
X027707Y033513D03*
X027707Y032933D03*
X026707Y032933D03*
X026707Y033513D03*
X025707Y033513D03*
X025707Y032933D03*
X028955Y034688D03*
X028955Y035268D03*
X027955Y035313D03*
X027955Y035893D03*
X023957Y029951D03*
X023957Y029371D03*
X018705Y032938D03*
X018705Y033518D03*
X031705Y029268D03*
X031705Y028688D03*
X018582Y015888D03*
X018582Y015308D03*
X019082Y014263D03*
X019082Y013683D03*
X017707Y013683D03*
X017707Y014263D03*
X013080Y015063D03*
X013080Y015643D03*
X010207Y021246D03*
X010207Y021826D03*
X027330Y008080D03*
X027330Y007500D03*
D12*
X011971Y008591D02*
X011681Y008591D01*
X011681Y009110D02*
X011981Y009110D01*
X011436Y009245D02*
X011129Y009245D01*
X011283Y009245D02*
X011283Y009706D01*
X011436Y009552D01*
X011234Y009870D02*
X011081Y009870D01*
X011004Y009947D01*
X010851Y009947D02*
X010774Y009870D01*
X010620Y009870D01*
X010544Y009947D01*
X010544Y010024D01*
X010620Y010101D01*
X010697Y010101D01*
X010620Y010101D02*
X010544Y010177D01*
X010544Y010254D01*
X010620Y010331D01*
X010774Y010331D01*
X010851Y010254D01*
X011004Y010254D02*
X011081Y010331D01*
X011234Y010331D01*
X011311Y010254D01*
X011311Y009947D01*
X011234Y009870D01*
X010976Y009629D02*
X010899Y009706D01*
X010745Y009706D01*
X010669Y009629D01*
X010976Y009322D01*
X010899Y009245D01*
X010745Y009245D01*
X010669Y009322D01*
X010669Y009629D01*
X010515Y009629D02*
X010438Y009706D01*
X010285Y009706D01*
X010208Y009629D01*
X010515Y009322D01*
X010438Y009245D01*
X010285Y009245D01*
X010208Y009322D01*
X010208Y009629D01*
X010055Y009552D02*
X009825Y009552D01*
X009748Y009476D01*
X009748Y009245D01*
X010055Y009245D02*
X010055Y009552D01*
X010390Y009870D02*
X010390Y010331D01*
X010160Y010331D01*
X010083Y010254D01*
X010083Y010101D01*
X010160Y010024D01*
X010390Y010024D01*
X010515Y009629D02*
X010515Y009322D01*
X010976Y009322D02*
X010976Y009629D01*
X013373Y008226D02*
X013373Y007995D01*
X013373Y008226D02*
X013450Y008302D01*
X013680Y008302D01*
X013680Y007995D01*
X013833Y008072D02*
X013910Y007995D01*
X014063Y007995D01*
X014140Y008072D01*
X013833Y008379D01*
X013833Y008072D01*
X013833Y008379D02*
X013910Y008456D01*
X014063Y008456D01*
X014140Y008379D01*
X014140Y008072D01*
X014294Y008072D02*
X014370Y007995D01*
X014524Y007995D01*
X014601Y008072D01*
X014294Y008379D01*
X014294Y008072D01*
X014601Y008072D02*
X014601Y008379D01*
X014524Y008456D01*
X014370Y008456D01*
X014294Y008379D01*
X014169Y008620D02*
X014476Y008620D01*
X014169Y008927D01*
X014169Y009004D01*
X014245Y009081D01*
X014399Y009081D01*
X014476Y009004D01*
X014629Y009004D02*
X014706Y009081D01*
X014859Y009081D01*
X014936Y009004D01*
X014936Y008697D01*
X014859Y008620D01*
X014706Y008620D01*
X014629Y008697D01*
X014908Y008456D02*
X014908Y007995D01*
X015061Y007995D02*
X014754Y007995D01*
X015061Y008302D02*
X014908Y008456D01*
X014015Y008620D02*
X014015Y009081D01*
X013785Y009081D01*
X013708Y009004D01*
X013708Y008851D01*
X013785Y008774D01*
X014015Y008774D01*
X016597Y009183D02*
X016904Y009183D01*
X016597Y009490D01*
X016597Y009567D01*
X016674Y009643D01*
X016828Y009643D01*
X016904Y009567D01*
X017058Y009490D02*
X017288Y009336D01*
X017058Y009183D01*
X017288Y009183D02*
X017288Y009643D01*
X017288Y009808D02*
X016981Y009808D01*
X017135Y009808D02*
X017135Y010268D01*
X017288Y010115D01*
X017442Y010192D02*
X017442Y010038D01*
X017518Y009961D01*
X017748Y009961D01*
X017595Y009961D02*
X017442Y009808D01*
X017518Y009643D02*
X017672Y009643D01*
X017748Y009567D01*
X017748Y009808D02*
X017748Y010268D01*
X017518Y010268D01*
X017442Y010192D01*
X017518Y009643D02*
X017442Y009567D01*
X017442Y009490D01*
X017748Y009183D01*
X017442Y009183D01*
X018277Y009106D02*
X018277Y009030D01*
X018354Y008953D01*
X018507Y008953D01*
X018584Y009030D01*
X018737Y009030D02*
X018737Y008953D01*
X018814Y008953D01*
X018814Y009030D01*
X018737Y009030D01*
X018968Y009030D02*
X019044Y008953D01*
X019198Y008953D01*
X019274Y009030D01*
X019121Y009183D02*
X019044Y009183D01*
X018968Y009106D01*
X018968Y009030D01*
X019044Y009183D02*
X018968Y009260D01*
X018968Y009337D01*
X019044Y009413D01*
X019198Y009413D01*
X019274Y009337D01*
X019428Y009183D02*
X019735Y009183D01*
X019888Y009337D02*
X020195Y009030D01*
X020195Y008953D01*
X020349Y008953D02*
X020656Y008953D01*
X020809Y008953D02*
X021116Y008953D01*
X020963Y008953D02*
X020963Y009413D01*
X021116Y009260D01*
X021419Y009197D02*
X021419Y009504D01*
X021495Y009581D01*
X021649Y009581D01*
X021726Y009504D01*
X021726Y009427D01*
X021649Y009351D01*
X021419Y009351D01*
X021423Y009413D02*
X021423Y008953D01*
X021576Y008953D02*
X021269Y008953D01*
X021495Y009120D02*
X021419Y009197D01*
X021495Y009120D02*
X021649Y009120D01*
X021726Y009197D01*
X021576Y009260D02*
X021423Y009413D01*
X021495Y009745D02*
X021649Y009745D01*
X021726Y009822D01*
X021879Y009822D02*
X021956Y009745D01*
X022109Y009745D01*
X022186Y009822D01*
X022033Y009976D02*
X021956Y009976D01*
X021879Y009899D01*
X021879Y009822D01*
X021956Y009976D02*
X021879Y010052D01*
X021879Y010129D01*
X021956Y010206D01*
X022109Y010206D01*
X022186Y010129D01*
X021726Y010129D02*
X021649Y010206D01*
X021495Y010206D01*
X021419Y010129D01*
X021419Y010052D01*
X021495Y009976D01*
X021419Y009899D01*
X021419Y009822D01*
X021495Y009745D01*
X021495Y009976D02*
X021572Y009976D01*
X021265Y010129D02*
X021188Y010206D01*
X021035Y010206D01*
X020958Y010129D01*
X021265Y009822D01*
X021188Y009745D01*
X021035Y009745D01*
X020958Y009822D01*
X020958Y010129D01*
X021265Y010129D02*
X021265Y009822D01*
X021879Y009504D02*
X021879Y009351D01*
X021956Y009274D01*
X022186Y009274D01*
X022033Y009274D02*
X021879Y009120D01*
X021730Y008953D02*
X022037Y008953D01*
X022037Y009413D01*
X021879Y009504D02*
X021956Y009581D01*
X022186Y009581D01*
X022186Y009120D01*
X022347Y008643D02*
X022271Y008567D01*
X022578Y008260D01*
X022501Y008183D01*
X022347Y008183D01*
X022271Y008260D01*
X022271Y008567D01*
X022347Y008643D02*
X022501Y008643D01*
X022578Y008567D01*
X022578Y008260D01*
X022731Y008183D02*
X023038Y008183D01*
X022885Y008183D02*
X022885Y008643D01*
X023038Y008490D01*
X023192Y008567D02*
X023192Y008413D01*
X023268Y008336D01*
X023498Y008336D01*
X023345Y008336D02*
X023192Y008183D01*
X023498Y008183D02*
X023498Y008643D01*
X023268Y008643D01*
X023192Y008567D01*
X023771Y008567D02*
X024078Y008260D01*
X024001Y008183D01*
X023847Y008183D01*
X023771Y008260D01*
X023771Y008567D01*
X023847Y008643D01*
X024001Y008643D01*
X024078Y008567D01*
X024078Y008260D01*
X024231Y008260D02*
X024308Y008183D01*
X024461Y008183D01*
X024538Y008260D01*
X024692Y008260D02*
X024768Y008183D01*
X024922Y008183D01*
X024998Y008260D01*
X024845Y008413D02*
X024768Y008413D01*
X024692Y008336D01*
X024692Y008260D01*
X024768Y008413D02*
X024692Y008490D01*
X024692Y008567D01*
X024768Y008643D01*
X024922Y008643D01*
X024998Y008567D01*
X024538Y008567D02*
X024461Y008643D01*
X024308Y008643D01*
X024231Y008567D01*
X024231Y008490D01*
X024308Y008413D01*
X024231Y008336D01*
X024231Y008260D01*
X024308Y008413D02*
X024385Y008413D01*
X026726Y006578D02*
X026726Y006424D01*
X026803Y006348D01*
X027110Y006655D01*
X026803Y006655D01*
X026726Y006578D01*
X026803Y006348D02*
X027110Y006348D01*
X027186Y006424D01*
X027186Y006578D01*
X027110Y006655D01*
X027351Y006578D02*
X027811Y006578D01*
X027581Y006348D01*
X027581Y006655D01*
X027581Y006194D02*
X027504Y006117D01*
X027504Y005887D01*
X027351Y005887D02*
X027811Y005887D01*
X027811Y006117D01*
X027735Y006194D01*
X027581Y006194D01*
X027504Y006041D02*
X027351Y006194D01*
X027186Y006117D02*
X027110Y006194D01*
X027033Y006194D01*
X026956Y006117D01*
X026879Y006194D01*
X026803Y006194D01*
X026726Y006117D01*
X026726Y005964D01*
X026803Y005887D01*
X026803Y005734D02*
X026726Y005657D01*
X026726Y005504D01*
X026803Y005427D01*
X026956Y005580D02*
X026956Y005657D01*
X026879Y005734D01*
X026803Y005734D01*
X026956Y005657D02*
X027033Y005734D01*
X027110Y005734D01*
X027186Y005657D01*
X027186Y005504D01*
X027110Y005427D01*
X027110Y005887D02*
X027186Y005964D01*
X027186Y006117D01*
X026956Y006117D02*
X026956Y006041D01*
X030571Y008263D02*
X030571Y008563D01*
X031091Y008553D02*
X031091Y008263D01*
X031527Y008495D02*
X031834Y008495D01*
X031987Y008495D02*
X032294Y008495D01*
X032294Y008956D01*
X031987Y008956D01*
X031834Y008802D02*
X031680Y008956D01*
X031680Y008495D01*
X031604Y008052D02*
X031527Y007976D01*
X031527Y007745D01*
X031834Y007745D02*
X031834Y008052D01*
X031604Y008052D01*
X031987Y008129D02*
X032294Y007822D01*
X032218Y007745D01*
X032064Y007745D01*
X031987Y007822D01*
X031987Y008129D01*
X032064Y008206D01*
X032218Y008206D01*
X032294Y008129D01*
X032294Y007822D01*
X032448Y007822D02*
X032524Y007745D01*
X032678Y007745D01*
X032755Y007822D01*
X032448Y008129D01*
X032448Y007822D01*
X032755Y007822D02*
X032755Y008129D01*
X032678Y008206D01*
X032524Y008206D01*
X032448Y008129D01*
X032524Y008495D02*
X032448Y008572D01*
X032524Y008495D02*
X032678Y008495D01*
X032755Y008572D01*
X032755Y008879D01*
X032678Y008956D01*
X032524Y008956D01*
X032448Y008879D01*
X032294Y008726D02*
X032141Y008726D01*
X033062Y008206D02*
X033062Y007745D01*
X033215Y007745D02*
X032908Y007745D01*
X033215Y008052D02*
X033062Y008206D01*
X022186Y012495D02*
X022186Y012956D01*
X021956Y012956D01*
X021879Y012879D01*
X021879Y012726D01*
X021956Y012649D01*
X022186Y012649D01*
X022033Y012649D02*
X021879Y012495D01*
X021726Y012572D02*
X021649Y012495D01*
X021495Y012495D01*
X021419Y012572D01*
X021419Y012726D01*
X021495Y012802D01*
X021572Y012802D01*
X021726Y012726D01*
X021726Y012956D01*
X021419Y012956D01*
X021188Y013120D02*
X021265Y013197D01*
X020958Y013504D01*
X020958Y013197D01*
X021035Y013120D01*
X021188Y013120D01*
X021265Y013197D02*
X021265Y013504D01*
X021188Y013581D01*
X021035Y013581D01*
X020958Y013504D01*
X020928Y013683D02*
X020621Y013990D01*
X020621Y014067D01*
X020698Y014143D01*
X020851Y014143D01*
X020928Y014067D01*
X021005Y014308D02*
X021005Y014768D01*
X020774Y014768D01*
X020698Y014692D01*
X020698Y014538D01*
X020774Y014461D01*
X021005Y014461D01*
X020851Y014461D02*
X020698Y014308D01*
X020544Y014308D02*
X020237Y014308D01*
X020391Y014308D02*
X020391Y014768D01*
X020544Y014615D01*
X020084Y014615D02*
X020084Y014692D01*
X020007Y014768D01*
X019854Y014768D01*
X019777Y014692D01*
X019777Y014615D01*
X019854Y014538D01*
X020007Y014538D01*
X020084Y014615D01*
X020007Y014538D02*
X020084Y014461D01*
X020084Y014385D01*
X020007Y014308D01*
X019854Y014308D01*
X019777Y014385D01*
X019777Y014461D01*
X019854Y014538D01*
X019854Y014143D02*
X019777Y014067D01*
X019777Y013990D01*
X020084Y013683D01*
X019777Y013683D01*
X019825Y013697D02*
X019748Y013620D01*
X019518Y013620D01*
X019518Y014081D01*
X019748Y014081D01*
X019825Y014004D01*
X019825Y013697D01*
X020237Y013683D02*
X020468Y013836D01*
X020237Y013990D01*
X020084Y014067D02*
X020007Y014143D01*
X019854Y014143D01*
X019365Y014004D02*
X019288Y014081D01*
X019134Y014081D01*
X019058Y014004D01*
X019058Y013927D01*
X019134Y013851D01*
X019288Y013851D01*
X019365Y013774D01*
X019365Y013697D01*
X019288Y013620D01*
X019134Y013620D01*
X019058Y013697D01*
X018904Y014081D02*
X018597Y013620D01*
X018444Y013697D02*
X018367Y013620D01*
X018214Y013620D01*
X018137Y013697D01*
X018137Y014004D01*
X018214Y014081D01*
X018367Y014081D01*
X018444Y014004D01*
X017983Y014081D02*
X017983Y013620D01*
X017676Y013620D02*
X017676Y014081D01*
X017830Y013927D01*
X017983Y014081D01*
X017523Y014081D02*
X017523Y013620D01*
X017216Y013620D02*
X017216Y014081D01*
X017370Y013927D01*
X017523Y014081D01*
X016606Y014341D02*
X016306Y014341D01*
X016449Y014081D02*
X016525Y014081D01*
X016525Y013620D01*
X016449Y013620D02*
X016602Y013620D01*
X016295Y013697D02*
X016295Y013851D01*
X016219Y013927D01*
X016065Y013927D01*
X015988Y013851D01*
X015988Y013697D01*
X016065Y013620D01*
X016219Y013620D01*
X016295Y013697D01*
X015835Y013620D02*
X015835Y013851D01*
X015758Y013927D01*
X015528Y013927D01*
X015528Y013620D01*
X015374Y013774D02*
X015068Y013774D01*
X015068Y013851D02*
X015144Y013927D01*
X015298Y013927D01*
X015374Y013851D01*
X015374Y013774D01*
X015298Y013620D02*
X015144Y013620D01*
X015068Y013697D01*
X015068Y013851D01*
X014914Y013851D02*
X014914Y013620D01*
X014885Y013393D02*
X014885Y012933D01*
X015038Y012933D02*
X014731Y012933D01*
X014578Y012933D02*
X014271Y013240D01*
X014271Y013317D01*
X014347Y013393D01*
X014501Y013393D01*
X014578Y013317D01*
X014607Y013620D02*
X014607Y014081D01*
X014684Y013927D02*
X014837Y013927D01*
X014914Y013851D01*
X014684Y013927D02*
X014607Y013851D01*
X014454Y013851D02*
X014377Y013927D01*
X014147Y013927D01*
X014147Y013467D01*
X014147Y013620D02*
X014377Y013620D01*
X014454Y013697D01*
X014454Y013851D01*
X013993Y013851D02*
X013993Y013620D01*
X013840Y013620D02*
X013840Y013851D01*
X013917Y013927D01*
X013993Y013851D01*
X013840Y013851D02*
X013763Y013927D01*
X013686Y013927D01*
X013686Y013620D01*
X013533Y013620D02*
X013533Y013927D01*
X013379Y014081D01*
X013226Y013927D01*
X013226Y013620D01*
X013226Y013851D02*
X013533Y013851D01*
X014271Y012933D02*
X014578Y012933D01*
X014578Y012768D02*
X014424Y012768D01*
X014347Y012692D01*
X014347Y012615D01*
X014654Y012308D01*
X014347Y012308D01*
X014808Y012308D02*
X015038Y012461D01*
X014808Y012615D01*
X014654Y012692D02*
X014578Y012768D01*
X015038Y012768D02*
X015038Y012308D01*
X015192Y012308D02*
X015498Y012308D01*
X015192Y012615D01*
X015192Y012692D01*
X015268Y012768D01*
X015422Y012768D01*
X015498Y012692D01*
X015498Y012933D02*
X015498Y013393D01*
X015268Y013393D01*
X015192Y013317D01*
X015192Y013163D01*
X015268Y013086D01*
X015498Y013086D01*
X015345Y013086D02*
X015192Y012933D01*
X015038Y013240D02*
X014885Y013393D01*
X016316Y014860D02*
X016606Y014860D01*
X016587Y015120D02*
X016740Y015120D01*
X016817Y015197D01*
X016510Y015504D01*
X016510Y015197D01*
X016587Y015120D01*
X016817Y015197D02*
X016817Y015504D01*
X016740Y015581D01*
X016587Y015581D01*
X016510Y015504D01*
X016357Y015504D02*
X016280Y015581D01*
X016127Y015581D01*
X016050Y015504D01*
X016357Y015197D01*
X016280Y015120D01*
X016127Y015120D01*
X016050Y015197D01*
X016050Y015504D01*
X015945Y015620D02*
X016021Y015697D01*
X016021Y015774D01*
X015945Y015851D01*
X015791Y015851D01*
X015714Y015774D01*
X015714Y015697D01*
X015791Y015620D01*
X015945Y015620D01*
X015896Y015427D02*
X015666Y015427D01*
X015589Y015351D01*
X015589Y015120D01*
X015896Y015120D02*
X015896Y015427D01*
X016175Y015697D02*
X016252Y015620D01*
X016405Y015620D01*
X016482Y015697D01*
X016482Y016004D01*
X016405Y016081D01*
X016252Y016081D01*
X016175Y016004D01*
X016021Y016004D02*
X016021Y015927D01*
X015945Y015851D01*
X015791Y015851D02*
X015714Y015927D01*
X015714Y016004D01*
X015791Y016081D01*
X015945Y016081D01*
X016021Y016004D01*
X016357Y015504D02*
X016357Y015197D01*
X016971Y015120D02*
X017278Y015120D01*
X017124Y015120D02*
X017124Y015581D01*
X017278Y015427D01*
X017313Y016620D02*
X017390Y016697D01*
X017313Y016620D02*
X017160Y016620D01*
X017083Y016697D01*
X017083Y016851D01*
X017160Y016927D01*
X017237Y016927D01*
X017390Y016851D01*
X017390Y017081D01*
X017083Y017081D01*
X016936Y016927D02*
X016783Y017081D01*
X016783Y016620D01*
X016936Y016620D02*
X016629Y016620D01*
X016476Y016620D02*
X016476Y017081D01*
X016245Y016927D02*
X016476Y016774D01*
X016245Y016620D01*
X015811Y016620D02*
X015811Y017081D01*
X015581Y017081D01*
X015504Y017004D01*
X015504Y016851D01*
X015581Y016774D01*
X015811Y016774D01*
X015658Y016774D02*
X015504Y016620D01*
X015351Y016620D02*
X015044Y016620D01*
X015197Y016620D02*
X015197Y017081D01*
X015351Y016927D01*
X014890Y017004D02*
X014813Y017081D01*
X014660Y017081D01*
X014583Y017004D01*
X014583Y016927D01*
X014660Y016851D01*
X014583Y016774D01*
X014583Y016697D01*
X014660Y016620D01*
X014813Y016620D01*
X014890Y016697D01*
X014737Y016851D02*
X014660Y016851D01*
X014311Y016927D02*
X014158Y017081D01*
X014158Y016620D01*
X014311Y016620D02*
X014004Y016620D01*
X013851Y016620D02*
X013851Y017081D01*
X013620Y016927D02*
X013851Y016774D01*
X013620Y016620D01*
X013399Y016518D02*
X013399Y016058D01*
X013246Y016058D02*
X013553Y016058D01*
X013553Y016365D02*
X013399Y016518D01*
X013380Y016683D02*
X013380Y017143D01*
X013149Y017143D01*
X013073Y017067D01*
X013073Y016913D01*
X013149Y016836D01*
X013380Y016836D01*
X013226Y016836D02*
X013073Y016683D01*
X012919Y016683D02*
X012612Y016683D01*
X012459Y016683D02*
X012152Y016683D01*
X012305Y016683D02*
X012305Y017143D01*
X012459Y016990D01*
X012766Y017143D02*
X012766Y016683D01*
X012862Y016518D02*
X012786Y016442D01*
X013093Y016135D01*
X013016Y016058D01*
X012862Y016058D01*
X012786Y016135D01*
X012786Y016442D01*
X012862Y016518D02*
X013016Y016518D01*
X013093Y016442D01*
X013093Y016135D01*
X012632Y016211D02*
X012402Y016365D01*
X012632Y016518D02*
X012632Y016058D01*
X012632Y016211D02*
X012402Y016058D01*
X012919Y016990D02*
X012766Y017143D01*
X012791Y020745D02*
X012945Y020745D01*
X013021Y020822D01*
X012714Y021129D01*
X012714Y020822D01*
X012791Y020745D01*
X013021Y020822D02*
X013021Y021129D01*
X012945Y021206D01*
X012791Y021206D01*
X012714Y021129D01*
X012714Y021495D02*
X013021Y021495D01*
X012714Y021802D01*
X012714Y021879D01*
X012791Y021956D01*
X012945Y021956D01*
X013021Y021879D01*
X013328Y021956D02*
X013328Y021495D01*
X013175Y021495D02*
X013482Y021495D01*
X013635Y021495D02*
X013942Y021495D01*
X013789Y021495D02*
X013789Y021956D01*
X013942Y021802D01*
X014096Y021726D02*
X014172Y021649D01*
X014403Y021649D01*
X014403Y021495D02*
X014403Y021956D01*
X014172Y021956D01*
X014096Y021879D01*
X014096Y021726D01*
X014249Y021649D02*
X014096Y021495D01*
X013865Y021206D02*
X013712Y021206D01*
X013635Y021129D01*
X013635Y021052D01*
X013712Y020976D01*
X013635Y020899D01*
X013635Y020822D01*
X013712Y020745D01*
X013865Y020745D01*
X013942Y020822D01*
X013789Y020976D02*
X013712Y020976D01*
X013482Y021052D02*
X013405Y020976D01*
X013175Y020976D01*
X013175Y021129D02*
X013252Y021206D01*
X013405Y021206D01*
X013482Y021129D01*
X013482Y021052D01*
X013482Y020822D02*
X013405Y020745D01*
X013252Y020745D01*
X013175Y020822D01*
X013175Y021129D01*
X013865Y021206D02*
X013942Y021129D01*
X013482Y021802D02*
X013328Y021956D01*
X012186Y022433D02*
X012186Y022663D01*
X012110Y022740D01*
X011956Y022740D01*
X011879Y022663D01*
X011879Y022433D01*
X011726Y022433D02*
X012186Y022433D01*
X011879Y022586D02*
X011726Y022740D01*
X011803Y022893D02*
X011726Y022970D01*
X011726Y023124D01*
X011803Y023200D01*
X011879Y023200D01*
X011956Y023124D01*
X011956Y023047D01*
X011956Y023124D02*
X012033Y023200D01*
X012110Y023200D01*
X012186Y023124D01*
X012186Y022970D01*
X012110Y022893D01*
X011956Y023354D02*
X011956Y023661D01*
X012035Y023870D02*
X012188Y023870D01*
X012265Y023947D01*
X011958Y024254D01*
X011958Y023947D01*
X012035Y023870D01*
X012067Y024101D02*
X011760Y024101D01*
X011607Y024024D02*
X011377Y024024D01*
X011300Y024101D01*
X011300Y024254D01*
X011377Y024331D01*
X011607Y024331D01*
X011607Y023870D01*
X011453Y024024D02*
X011300Y023870D01*
X011146Y023947D02*
X011070Y023870D01*
X010916Y023870D01*
X010839Y023947D01*
X010839Y024024D01*
X010916Y024101D01*
X010993Y024101D01*
X010916Y024101D02*
X010839Y024177D01*
X010839Y024254D01*
X010916Y024331D01*
X011070Y024331D01*
X011146Y024254D01*
X011958Y024254D02*
X012035Y024331D01*
X012188Y024331D01*
X012265Y024254D01*
X012265Y023947D01*
X012419Y023947D02*
X012419Y024254D01*
X012495Y024331D01*
X012649Y024331D01*
X012726Y024254D01*
X012726Y024177D01*
X012649Y024101D01*
X012419Y024101D01*
X012419Y023947D02*
X012495Y023870D01*
X012649Y023870D01*
X012726Y023947D01*
X012879Y023947D02*
X012956Y023870D01*
X013109Y023870D01*
X013186Y023947D01*
X013033Y024101D02*
X012956Y024101D01*
X012879Y024024D01*
X012879Y023947D01*
X012956Y024101D02*
X012879Y024177D01*
X012879Y024254D01*
X012956Y024331D01*
X013109Y024331D01*
X013186Y024254D01*
X013714Y024254D02*
X014021Y023947D01*
X014021Y023870D01*
X014175Y023870D02*
X014482Y023870D01*
X014175Y024177D01*
X014175Y024254D01*
X014252Y024331D01*
X014405Y024331D01*
X014482Y024254D01*
X014635Y024254D02*
X014635Y024101D01*
X014712Y024024D01*
X014942Y024024D01*
X014789Y024024D02*
X014635Y023870D01*
X014942Y023870D02*
X014942Y024331D01*
X014712Y024331D01*
X014635Y024254D01*
X014021Y024331D02*
X013714Y024331D01*
X013714Y024254D01*
X012186Y023584D02*
X011956Y023354D01*
X011726Y023584D02*
X012186Y023584D01*
X010311Y023947D02*
X010234Y023870D01*
X010081Y023870D01*
X010004Y023947D01*
X010004Y024024D01*
X010081Y024101D01*
X010158Y024101D01*
X010081Y024101D02*
X010004Y024177D01*
X010004Y024254D01*
X010081Y024331D01*
X010234Y024331D01*
X010311Y024254D01*
X009851Y024254D02*
X009851Y024177D01*
X009774Y024101D01*
X009544Y024101D01*
X009544Y024254D02*
X009620Y024331D01*
X009774Y024331D01*
X009851Y024254D01*
X009851Y023947D02*
X009774Y023870D01*
X009620Y023870D01*
X009544Y023947D01*
X009544Y024254D01*
X009390Y024254D02*
X009313Y024331D01*
X009160Y024331D01*
X009083Y024254D01*
X009390Y023947D01*
X009313Y023870D01*
X009160Y023870D01*
X009083Y023947D01*
X009083Y024254D01*
X009390Y024254D02*
X009390Y023947D01*
X011601Y021828D02*
X011678Y021905D01*
X011985Y021905D01*
X011678Y021598D01*
X011601Y021674D01*
X011601Y021828D01*
X011678Y021598D02*
X011985Y021598D01*
X012061Y021674D01*
X012061Y021828D01*
X011985Y021905D01*
X011985Y021444D02*
X012061Y021367D01*
X012061Y021214D01*
X011985Y021137D01*
X011908Y021137D01*
X011831Y021214D01*
X011831Y021444D01*
X011678Y021444D02*
X011985Y021444D01*
X011678Y021444D02*
X011601Y021367D01*
X011601Y021214D01*
X011678Y021137D01*
X011678Y020984D02*
X011601Y020907D01*
X011601Y020754D01*
X011678Y020677D01*
X011831Y020830D02*
X011831Y020907D01*
X011754Y020984D01*
X011678Y020984D01*
X011831Y020907D02*
X011908Y020984D01*
X011985Y020984D01*
X012061Y020907D01*
X012061Y020754D01*
X011985Y020677D01*
X017714Y020524D02*
X017791Y020601D01*
X018021Y020601D01*
X018021Y020447D01*
X017945Y020370D01*
X017791Y020370D01*
X017714Y020447D01*
X017714Y020524D01*
X017868Y020754D02*
X018021Y020601D01*
X017868Y020754D02*
X017714Y020831D01*
X018328Y020831D02*
X018328Y020370D01*
X018175Y020370D02*
X018482Y020370D01*
X018635Y020370D02*
X018789Y020524D01*
X018712Y020524D02*
X018942Y020524D01*
X018942Y020370D02*
X018942Y020831D01*
X018712Y020831D01*
X018635Y020754D01*
X018635Y020601D01*
X018712Y020524D01*
X018482Y020677D02*
X018328Y020831D01*
X018300Y019331D02*
X018223Y019254D01*
X018530Y018947D01*
X018453Y018870D01*
X018300Y018870D01*
X018223Y018947D01*
X018223Y019254D01*
X018300Y019331D02*
X018453Y019331D01*
X018530Y019254D01*
X018530Y018947D01*
X018683Y018870D02*
X018990Y018870D01*
X018837Y018870D02*
X018837Y019331D01*
X018990Y019177D01*
X018070Y019024D02*
X017839Y019177D01*
X018070Y019024D02*
X017839Y018870D01*
X018070Y018870D02*
X018070Y019331D01*
X018081Y017081D02*
X018004Y017004D01*
X018004Y016851D01*
X018081Y016774D01*
X018311Y016774D01*
X018158Y016774D02*
X018004Y016620D01*
X017851Y016620D02*
X017544Y016620D01*
X017697Y016620D02*
X017697Y017081D01*
X017851Y016927D01*
X018081Y017081D02*
X018311Y017081D01*
X018311Y016620D01*
X019277Y016567D02*
X019277Y016490D01*
X019584Y016183D01*
X019277Y016183D01*
X019277Y016567D02*
X019354Y016643D01*
X019507Y016643D01*
X019584Y016567D01*
X019737Y016490D02*
X019968Y016336D01*
X019737Y016183D01*
X019968Y016183D02*
X019968Y016643D01*
X020121Y016567D02*
X020198Y016643D01*
X020351Y016643D01*
X020428Y016567D01*
X020380Y016808D02*
X020380Y017268D01*
X020149Y017268D01*
X020073Y017192D01*
X020073Y017038D01*
X020149Y016961D01*
X020380Y016961D01*
X020226Y016961D02*
X020073Y016808D01*
X019919Y016808D02*
X019612Y016808D01*
X019459Y016808D02*
X019459Y016885D01*
X019152Y017192D01*
X019152Y017268D01*
X019459Y017268D01*
X019766Y017268D02*
X019766Y016808D01*
X019919Y017115D02*
X019766Y017268D01*
X020121Y016567D02*
X020121Y016490D01*
X020428Y016183D01*
X020121Y016183D01*
X020468Y014143D02*
X020468Y013683D01*
X020621Y013683D02*
X020928Y013683D01*
X021419Y013581D02*
X021419Y013504D01*
X021726Y013197D01*
X021726Y013120D01*
X021956Y013120D02*
X021956Y013581D01*
X022186Y013351D01*
X021879Y013351D01*
X021726Y013581D02*
X021419Y013581D01*
X021234Y012081D02*
X021081Y012081D01*
X021004Y012004D01*
X021004Y011927D01*
X021081Y011851D01*
X021004Y011774D01*
X021004Y011697D01*
X021081Y011620D01*
X021234Y011620D01*
X021311Y011697D01*
X021158Y011851D02*
X021081Y011851D01*
X021311Y012004D02*
X021234Y012081D01*
X020851Y012004D02*
X020774Y012081D01*
X020620Y012081D01*
X020544Y012004D01*
X020544Y011927D01*
X020620Y011851D01*
X020544Y011774D01*
X020544Y011697D01*
X020620Y011620D01*
X020774Y011620D01*
X020851Y011697D01*
X020697Y011851D02*
X020620Y011851D01*
X020390Y011697D02*
X020390Y012004D01*
X020313Y012081D01*
X020160Y012081D01*
X020083Y012004D01*
X020390Y011697D01*
X020313Y011620D01*
X020160Y011620D01*
X020083Y011697D01*
X020083Y012004D01*
X020620Y011456D02*
X020544Y011379D01*
X020544Y011302D01*
X020620Y011226D01*
X020774Y011226D01*
X020851Y011302D01*
X020851Y011379D01*
X020774Y011456D01*
X020620Y011456D01*
X020620Y011226D02*
X020544Y011149D01*
X020544Y011072D01*
X020620Y010995D01*
X020774Y010995D01*
X020851Y011072D01*
X020851Y011149D01*
X020774Y011226D01*
X021004Y011226D02*
X021081Y011149D01*
X021311Y011149D01*
X021158Y011149D02*
X021004Y010995D01*
X021004Y011226D02*
X021004Y011379D01*
X021081Y011456D01*
X021311Y011456D01*
X021311Y010995D01*
X020561Y010538D02*
X020254Y010538D01*
X020101Y010385D02*
X020101Y010308D01*
X020101Y010385D02*
X019794Y010692D01*
X019794Y010768D01*
X020101Y010768D01*
X020331Y010768D02*
X020561Y010538D01*
X020331Y010308D02*
X020331Y010768D01*
X020331Y010143D02*
X020254Y010067D01*
X020254Y009913D01*
X020331Y009836D01*
X020561Y009836D01*
X020561Y009683D02*
X020561Y010143D01*
X020331Y010143D01*
X020408Y009836D02*
X020254Y009683D01*
X020101Y009760D02*
X020024Y009683D01*
X019870Y009683D01*
X019794Y009760D01*
X019794Y009836D01*
X019870Y009913D01*
X020101Y009913D01*
X020101Y009760D01*
X020101Y009913D02*
X019947Y010067D01*
X019794Y010143D01*
X019563Y010308D02*
X019640Y010385D01*
X019333Y010692D01*
X019333Y010385D01*
X019410Y010308D01*
X019563Y010308D01*
X019640Y010385D02*
X019640Y010692D01*
X019563Y010768D01*
X019410Y010768D01*
X019333Y010692D01*
X019380Y010123D02*
X019149Y010123D01*
X019073Y010047D01*
X019073Y009740D01*
X019149Y009663D01*
X019380Y009663D01*
X019380Y010123D01*
X018919Y009970D02*
X018766Y010123D01*
X018612Y009970D01*
X018612Y009663D01*
X018459Y009663D02*
X018152Y009970D01*
X018152Y010047D01*
X018229Y010123D01*
X018382Y010123D01*
X018459Y010047D01*
X018612Y009893D02*
X018919Y009893D01*
X018919Y009970D02*
X018919Y009663D01*
X018459Y009663D02*
X018152Y009663D01*
X018354Y009413D02*
X018277Y009337D01*
X018277Y009260D01*
X018354Y009183D01*
X018277Y009106D01*
X018354Y009183D02*
X018430Y009183D01*
X018584Y009337D02*
X018507Y009413D01*
X018354Y009413D01*
X019888Y009413D02*
X019888Y009337D01*
X019888Y009413D02*
X020195Y009413D01*
X020502Y009413D02*
X020502Y008953D01*
X020656Y009260D02*
X020502Y009413D01*
X016828Y010038D02*
X016521Y010038D01*
X016597Y009808D02*
X016597Y010268D01*
X016828Y010038D01*
X009499Y012010D02*
X009422Y011933D01*
X009115Y011933D01*
X009038Y012010D01*
X009038Y012163D01*
X009115Y012240D01*
X009038Y012393D02*
X009038Y012700D01*
X009038Y012547D02*
X009499Y012547D01*
X009345Y012393D01*
X009422Y012240D02*
X009499Y012163D01*
X009499Y012010D01*
X008874Y011961D02*
X008413Y011961D01*
X008413Y011808D02*
X008413Y012115D01*
X008490Y012268D02*
X008797Y012575D01*
X008490Y012575D01*
X008413Y012499D01*
X008413Y012345D01*
X008490Y012268D01*
X008797Y012268D01*
X008874Y012345D01*
X008874Y012499D01*
X008797Y012575D01*
X008797Y012729D02*
X008874Y012806D01*
X008874Y012959D01*
X008797Y013036D01*
X008490Y012729D01*
X008413Y012806D01*
X008413Y012959D01*
X008490Y013036D01*
X008797Y013036D01*
X008720Y013189D02*
X008720Y013419D01*
X008644Y013496D01*
X008413Y013496D01*
X008413Y013189D02*
X008720Y013189D01*
X009038Y012854D02*
X009499Y012854D01*
X009499Y013084D01*
X009422Y013161D01*
X009269Y013161D01*
X009192Y013084D01*
X009192Y012854D01*
X008797Y012729D02*
X008490Y012729D01*
X008153Y012563D02*
X008153Y012263D01*
X007634Y012273D02*
X007634Y012563D01*
X008720Y011808D02*
X008874Y011961D01*
X008231Y010235D02*
X007931Y010235D01*
X007931Y009716D02*
X008221Y009716D01*
X015964Y025245D02*
X016195Y025399D01*
X015964Y025552D01*
X016195Y025706D02*
X016195Y025245D01*
X016348Y025629D02*
X016655Y025322D01*
X016655Y025245D01*
X016885Y025245D02*
X016885Y025706D01*
X017115Y025476D01*
X016808Y025476D01*
X016655Y025706D02*
X016348Y025706D01*
X016348Y025629D01*
X016377Y026120D02*
X016300Y026197D01*
X016300Y026274D01*
X016377Y026351D01*
X016607Y026351D01*
X016607Y026197D01*
X016530Y026120D01*
X016377Y026120D01*
X016146Y026120D02*
X016146Y026581D01*
X015916Y026581D01*
X015839Y026504D01*
X015839Y026351D01*
X015916Y026274D01*
X016146Y026274D01*
X016300Y026581D02*
X016453Y026504D01*
X016607Y026351D01*
X016760Y026351D02*
X016837Y026274D01*
X017067Y026274D01*
X016914Y026274D02*
X016760Y026120D01*
X016760Y026351D02*
X016760Y026504D01*
X016837Y026581D01*
X017067Y026581D01*
X017067Y026120D01*
X012442Y028947D02*
X012365Y028870D01*
X012212Y028870D01*
X012135Y028947D01*
X011982Y028947D02*
X011905Y028870D01*
X011752Y028870D01*
X011675Y028947D01*
X011675Y029101D01*
X011752Y029177D01*
X011828Y029177D01*
X011982Y029101D01*
X011982Y029331D01*
X011675Y029331D01*
X011521Y029331D02*
X011291Y029331D01*
X011214Y029254D01*
X011214Y029101D01*
X011291Y029024D01*
X011521Y029024D01*
X011436Y029120D02*
X011129Y029120D01*
X011283Y029120D02*
X011283Y029581D01*
X011436Y029427D01*
X011521Y029331D02*
X011521Y028870D01*
X011586Y028785D02*
X010826Y028785D01*
X010899Y029120D02*
X010976Y029197D01*
X010669Y029504D01*
X010669Y029197D01*
X010745Y029120D01*
X010899Y029120D01*
X010976Y029197D02*
X010976Y029504D01*
X010899Y029581D01*
X010745Y029581D01*
X010669Y029504D01*
X010515Y029504D02*
X010438Y029581D01*
X010285Y029581D01*
X010208Y029504D01*
X010515Y029197D01*
X010438Y029120D01*
X010285Y029120D01*
X010208Y029197D01*
X010208Y029504D01*
X010055Y029427D02*
X009825Y029427D01*
X009748Y029351D01*
X009748Y029120D01*
X010055Y029120D02*
X010055Y029427D01*
X010515Y029504D02*
X010515Y029197D01*
X010556Y029841D02*
X010846Y029841D01*
X010856Y030360D02*
X010556Y030360D01*
X010495Y030620D02*
X010495Y031081D01*
X010726Y030851D01*
X010419Y030851D01*
X010265Y030774D02*
X010035Y030774D01*
X009958Y030851D01*
X009958Y031004D01*
X010035Y031081D01*
X010265Y031081D01*
X010265Y030620D01*
X010879Y030697D02*
X010956Y030620D01*
X011109Y030620D01*
X011186Y030697D01*
X011186Y031004D01*
X011109Y031081D01*
X010956Y031081D01*
X010879Y031004D01*
X011160Y031620D02*
X011390Y031774D01*
X011160Y031927D01*
X011390Y032081D02*
X011390Y031620D01*
X011544Y031697D02*
X011544Y031774D01*
X011620Y031851D01*
X011851Y031851D01*
X011851Y031697D01*
X011774Y031620D01*
X011620Y031620D01*
X011544Y031697D01*
X011697Y032004D02*
X011851Y031851D01*
X011697Y032004D02*
X011544Y032081D01*
X012158Y032081D02*
X012158Y031620D01*
X012311Y031620D02*
X012004Y031620D01*
X012311Y031927D02*
X012158Y032081D01*
X012311Y033370D02*
X012311Y033831D01*
X012081Y033831D01*
X012004Y033754D01*
X012004Y033601D01*
X012081Y033524D01*
X012311Y033524D01*
X012158Y033524D02*
X012004Y033370D01*
X011851Y033447D02*
X011774Y033370D01*
X011620Y033370D01*
X011544Y033447D01*
X011544Y033601D01*
X011620Y033677D01*
X011697Y033677D01*
X011851Y033601D01*
X011851Y033831D01*
X011544Y033831D01*
X011390Y033831D02*
X011390Y033370D01*
X011390Y033524D02*
X011160Y033524D01*
X011083Y033601D01*
X011083Y033754D01*
X011160Y033831D01*
X011390Y033831D01*
X010971Y033778D02*
X010681Y033778D01*
X010681Y034298D02*
X010981Y034298D01*
X011024Y034558D02*
X011101Y034635D01*
X010794Y034942D01*
X010794Y034635D01*
X010870Y034558D01*
X011024Y034558D01*
X011101Y034635D02*
X011101Y034942D01*
X011024Y035018D01*
X010870Y035018D01*
X010794Y034942D01*
X010640Y034942D02*
X010640Y034635D01*
X010333Y034942D01*
X010333Y034635D01*
X010410Y034558D01*
X010563Y034558D01*
X010640Y034635D01*
X010640Y034942D02*
X010563Y035018D01*
X010410Y035018D01*
X010333Y034942D01*
X010180Y034865D02*
X009950Y034865D01*
X009873Y034788D01*
X009873Y034558D01*
X010180Y034558D02*
X010180Y034865D01*
X010208Y035183D02*
X010515Y035183D01*
X010362Y035183D02*
X010362Y035643D01*
X010515Y035490D01*
X010669Y035567D02*
X010669Y035413D01*
X010745Y035336D01*
X010976Y035336D01*
X010976Y035183D02*
X010976Y035643D01*
X010745Y035643D01*
X010669Y035567D01*
X011129Y035567D02*
X011206Y035643D01*
X011359Y035643D01*
X011436Y035567D01*
X011436Y035260D01*
X011359Y035183D01*
X011206Y035183D01*
X011129Y035260D01*
X011408Y035018D02*
X011408Y034558D01*
X011561Y034558D02*
X011254Y034558D01*
X011561Y034865D02*
X011408Y035018D01*
X014402Y036697D02*
X014402Y036851D01*
X014479Y036927D01*
X014555Y036927D01*
X014709Y036851D01*
X014709Y037081D01*
X014402Y037081D01*
X014430Y037245D02*
X014430Y037706D01*
X014584Y037552D01*
X014737Y037476D02*
X014814Y037399D01*
X015044Y037399D01*
X015044Y037245D02*
X015044Y037706D01*
X014814Y037706D01*
X014737Y037629D01*
X014737Y037476D01*
X014584Y037245D02*
X014277Y037245D01*
X014402Y036697D02*
X014479Y036620D01*
X014632Y036620D01*
X014709Y036697D01*
X014862Y037004D02*
X015169Y036697D01*
X015169Y036620D01*
X015169Y037081D02*
X014862Y037081D01*
X014862Y037004D01*
X015198Y037322D02*
X015198Y037629D01*
X015274Y037706D01*
X015428Y037706D01*
X015505Y037629D01*
X015505Y037552D01*
X015428Y037476D01*
X015198Y037476D01*
X015198Y037322D02*
X015274Y037245D01*
X015428Y037245D01*
X015505Y037322D01*
X015658Y037245D02*
X015812Y037399D01*
X015735Y037399D02*
X015965Y037399D01*
X015965Y037245D02*
X015965Y037706D01*
X015735Y037706D01*
X015658Y037629D01*
X015658Y037476D01*
X015735Y037399D01*
X016229Y035581D02*
X016382Y035581D01*
X016459Y035504D01*
X016612Y035504D02*
X016612Y035351D01*
X016689Y035274D01*
X016919Y035274D01*
X016919Y035120D02*
X016919Y035581D01*
X016689Y035581D01*
X016612Y035504D01*
X016229Y035581D02*
X016152Y035504D01*
X016152Y035427D01*
X016459Y035120D01*
X016152Y035120D01*
X016527Y034956D02*
X016834Y034956D01*
X016834Y034726D01*
X016680Y034802D01*
X016604Y034802D01*
X016527Y034726D01*
X016527Y034572D01*
X016604Y034495D01*
X016757Y034495D01*
X016834Y034572D01*
X016987Y034879D02*
X017294Y034572D01*
X017294Y034495D01*
X017294Y034956D02*
X016987Y034956D01*
X016987Y034879D01*
X017149Y035120D02*
X017073Y035197D01*
X017073Y035504D01*
X017149Y035581D01*
X017303Y035581D01*
X017380Y035504D01*
X017380Y035427D01*
X017303Y035351D01*
X017073Y035351D01*
X017149Y035120D02*
X017303Y035120D01*
X017380Y035197D01*
X017533Y035120D02*
X017687Y035274D01*
X017610Y035274D02*
X017840Y035274D01*
X017840Y035120D02*
X017840Y035581D01*
X017610Y035581D01*
X017533Y035504D01*
X017533Y035351D01*
X017610Y035274D01*
X018152Y035067D02*
X018459Y034760D01*
X018382Y034683D01*
X018229Y034683D01*
X018152Y034760D01*
X018152Y035067D01*
X018229Y035143D01*
X018382Y035143D01*
X018459Y035067D01*
X018459Y034760D01*
X018612Y034683D02*
X018919Y034683D01*
X018612Y034990D01*
X018612Y035067D01*
X018689Y035143D01*
X018843Y035143D01*
X018919Y035067D01*
X019073Y035067D02*
X019073Y034913D01*
X019149Y034836D01*
X019380Y034836D01*
X019476Y034916D02*
X019936Y034916D01*
X020101Y034916D02*
X020561Y034916D01*
X020726Y034916D02*
X021186Y034916D01*
X021351Y034916D02*
X021811Y034916D01*
X021976Y034916D02*
X022436Y034916D01*
X022601Y034916D02*
X023061Y034916D01*
X023226Y034916D02*
X023686Y034916D01*
X023851Y034916D02*
X024311Y034916D01*
X024235Y034763D02*
X023928Y034456D01*
X023851Y034533D01*
X023851Y034686D01*
X023928Y034763D01*
X024235Y034763D01*
X024311Y034686D01*
X024311Y034533D01*
X024235Y034456D01*
X023928Y034456D01*
X023851Y034302D02*
X023851Y033995D01*
X023851Y034149D02*
X024311Y034149D01*
X024158Y033995D01*
X024235Y033723D02*
X024311Y033646D01*
X024311Y033416D01*
X023851Y033416D01*
X023851Y033646D01*
X023928Y033723D01*
X024235Y033723D01*
X024476Y033570D02*
X024706Y033570D01*
X024860Y033723D01*
X024936Y033723D01*
X024706Y033570D02*
X024860Y033416D01*
X024936Y033416D01*
X024936Y033186D02*
X024706Y032956D01*
X024706Y033263D01*
X024476Y033186D02*
X024936Y033186D01*
X024860Y032802D02*
X024706Y032802D01*
X024629Y032726D01*
X024629Y032495D01*
X024476Y032495D02*
X024936Y032495D01*
X024936Y032726D01*
X024860Y032802D01*
X024629Y032649D02*
X024476Y032802D01*
X024311Y032726D02*
X024311Y032495D01*
X023851Y032495D01*
X024004Y032495D02*
X024004Y032726D01*
X024081Y032802D01*
X024235Y032802D01*
X024311Y032726D01*
X024158Y032956D02*
X024311Y033109D01*
X023851Y033109D01*
X023851Y032956D02*
X023851Y033263D01*
X023686Y033186D02*
X023686Y033033D01*
X023610Y032956D01*
X023610Y032802D02*
X023456Y032802D01*
X023379Y032726D01*
X023379Y032495D01*
X023226Y032495D02*
X023686Y032495D01*
X023686Y032726D01*
X023610Y032802D01*
X023851Y032802D02*
X024004Y032649D01*
X023686Y033186D02*
X023610Y033263D01*
X023533Y033263D01*
X023226Y032956D01*
X023226Y033263D01*
X023226Y033416D02*
X023226Y033646D01*
X023303Y033723D01*
X023610Y033723D01*
X023686Y033646D01*
X023686Y033416D01*
X023226Y033416D01*
X023061Y033416D02*
X023061Y033646D01*
X022985Y033723D01*
X022678Y033723D01*
X022601Y033646D01*
X022601Y033416D01*
X023061Y033416D01*
X022985Y033263D02*
X022908Y033263D01*
X022831Y033186D01*
X022754Y033263D01*
X022678Y033263D01*
X022601Y033186D01*
X022601Y033033D01*
X022678Y032956D01*
X022601Y032802D02*
X022754Y032649D01*
X022754Y032726D02*
X022754Y032495D01*
X022601Y032495D02*
X023061Y032495D01*
X023061Y032726D01*
X022985Y032802D01*
X022831Y032802D01*
X022754Y032726D01*
X022436Y032726D02*
X022360Y032802D01*
X022206Y032802D01*
X022129Y032726D01*
X022129Y032495D01*
X021976Y032495D02*
X022436Y032495D01*
X022436Y032726D01*
X022129Y032649D02*
X021976Y032802D01*
X021811Y032726D02*
X021735Y032802D01*
X021581Y032802D01*
X021504Y032726D01*
X021504Y032495D01*
X021351Y032495D02*
X021811Y032495D01*
X021811Y032726D01*
X021811Y032956D02*
X021581Y032956D01*
X021658Y033109D01*
X021658Y033186D01*
X021581Y033263D01*
X021428Y033263D01*
X021351Y033186D01*
X021351Y033033D01*
X021428Y032956D01*
X021351Y032802D02*
X021504Y032649D01*
X021186Y032726D02*
X021186Y032495D01*
X020726Y032495D01*
X020879Y032495D02*
X020879Y032726D01*
X020956Y032802D01*
X021110Y032802D01*
X021186Y032726D01*
X020879Y032649D02*
X020726Y032802D01*
X020803Y032956D02*
X020726Y033033D01*
X020726Y033186D01*
X020803Y033263D01*
X020879Y033263D01*
X020956Y033186D01*
X020956Y032956D01*
X020803Y032956D01*
X020956Y032956D02*
X021110Y033109D01*
X021186Y033263D01*
X021186Y033416D02*
X021186Y033646D01*
X021110Y033723D01*
X020803Y033723D01*
X020726Y033646D01*
X020726Y033416D01*
X021186Y033416D01*
X021351Y033416D02*
X021351Y033646D01*
X021428Y033723D01*
X021735Y033723D01*
X021811Y033646D01*
X021811Y033416D01*
X021351Y033416D01*
X021811Y033263D02*
X021811Y032956D01*
X021976Y033186D02*
X022436Y033186D01*
X022206Y032956D01*
X022206Y033263D01*
X022436Y033416D02*
X021976Y033416D01*
X021976Y033646D01*
X022053Y033723D01*
X022360Y033723D01*
X022436Y033646D01*
X022436Y033416D01*
X022831Y033186D02*
X022831Y033109D01*
X022985Y032956D02*
X023061Y033033D01*
X023061Y033186D01*
X022985Y033263D01*
X023226Y032802D02*
X023379Y032649D01*
X023226Y033995D02*
X023226Y034302D01*
X023226Y034149D02*
X023686Y034149D01*
X023533Y033995D01*
X023610Y034456D02*
X023686Y034533D01*
X023686Y034686D01*
X023610Y034763D01*
X023303Y034456D01*
X023226Y034533D01*
X023226Y034686D01*
X023303Y034763D01*
X023610Y034763D01*
X023379Y034916D02*
X023533Y035146D01*
X023379Y034916D02*
X023226Y035146D01*
X022908Y035146D02*
X022754Y034916D01*
X022601Y035146D01*
X022283Y035146D02*
X022129Y034916D01*
X021976Y035146D01*
X021811Y035364D02*
X021811Y035595D01*
X021735Y035671D01*
X021581Y035671D01*
X021504Y035595D01*
X021504Y035364D01*
X021351Y035364D02*
X021811Y035364D01*
X021658Y035146D02*
X021504Y034916D01*
X021351Y035146D01*
X021033Y035146D02*
X020879Y034916D01*
X020726Y035146D01*
X020956Y035316D02*
X020956Y035623D01*
X020879Y035776D02*
X021033Y036007D01*
X021186Y036160D02*
X021186Y036467D01*
X021110Y036467D01*
X020803Y036160D01*
X020726Y036160D01*
X020726Y036007D02*
X020879Y035776D01*
X020726Y035776D02*
X021186Y035776D01*
X021351Y035671D02*
X021504Y035518D01*
X021428Y035825D02*
X021351Y035901D01*
X021351Y036055D01*
X021428Y036132D01*
X021735Y036132D01*
X021811Y036055D01*
X021811Y035901D01*
X021735Y035825D01*
X021658Y035825D01*
X021581Y035901D01*
X021581Y036132D01*
X021735Y036285D02*
X021581Y036439D01*
X021351Y036439D01*
X021581Y036439D02*
X021735Y036592D01*
X021811Y036592D01*
X021811Y036285D02*
X021735Y036285D01*
X022339Y036629D02*
X022339Y036706D01*
X022339Y036629D02*
X022493Y036476D01*
X022493Y036245D01*
X022493Y036476D02*
X022646Y036629D01*
X022646Y036706D01*
X022800Y036629D02*
X022800Y036552D01*
X022877Y036476D01*
X022800Y036399D01*
X022800Y036322D01*
X022877Y036245D01*
X023030Y036245D01*
X023107Y036322D01*
X023260Y036322D02*
X023337Y036245D01*
X023490Y036245D01*
X023567Y036322D01*
X023567Y036629D01*
X023490Y036706D01*
X023337Y036706D01*
X023260Y036629D01*
X023107Y036629D02*
X023030Y036706D01*
X022877Y036706D01*
X022800Y036629D01*
X022877Y036476D02*
X022953Y036476D01*
X023002Y035956D02*
X022925Y035879D01*
X023232Y035572D01*
X023155Y035495D01*
X023002Y035495D01*
X022925Y035572D01*
X022925Y035879D01*
X023002Y035956D02*
X023155Y035956D01*
X023232Y035879D01*
X023232Y035572D01*
X023385Y035572D02*
X023462Y035495D01*
X023615Y035495D01*
X023692Y035572D01*
X023385Y035879D01*
X023385Y035572D01*
X023385Y035879D02*
X023462Y035956D01*
X023615Y035956D01*
X023692Y035879D01*
X023692Y035572D01*
X023846Y035495D02*
X024153Y035495D01*
X023999Y035495D02*
X023999Y035956D01*
X024153Y035802D01*
X024158Y035146D02*
X024004Y034916D01*
X023851Y035146D01*
X024476Y034811D02*
X024629Y034581D01*
X024783Y034811D01*
X024936Y034581D02*
X024476Y034581D01*
X024476Y034427D02*
X024476Y034120D01*
X024476Y034274D02*
X024936Y034274D01*
X024783Y034120D01*
X023610Y034456D02*
X023303Y034456D01*
X023061Y034533D02*
X023061Y034686D01*
X022985Y034763D01*
X022678Y034456D01*
X022601Y034533D01*
X022601Y034686D01*
X022678Y034763D01*
X022985Y034763D01*
X023061Y034533D02*
X022985Y034456D01*
X022678Y034456D01*
X022601Y034302D02*
X022601Y033995D01*
X022601Y034149D02*
X023061Y034149D01*
X022908Y033995D01*
X022436Y034149D02*
X021976Y034149D01*
X021976Y034302D02*
X021976Y033995D01*
X021811Y034149D02*
X021658Y033995D01*
X021811Y034149D02*
X021351Y034149D01*
X021351Y034302D02*
X021351Y033995D01*
X021186Y034149D02*
X020726Y034149D01*
X020726Y034302D02*
X020726Y033995D01*
X020561Y034149D02*
X020101Y034149D01*
X020101Y034302D02*
X020101Y033995D01*
X019936Y034149D02*
X019476Y034149D01*
X019428Y034058D02*
X019121Y034058D01*
X019274Y034058D02*
X019274Y034518D01*
X019428Y034365D01*
X019476Y034302D02*
X019476Y033995D01*
X019553Y033723D02*
X019860Y033723D01*
X019936Y033646D01*
X019936Y033416D01*
X019476Y033416D01*
X019476Y033646D01*
X019553Y033723D01*
X019783Y033995D02*
X019936Y034149D01*
X019860Y034456D02*
X019936Y034533D01*
X019936Y034686D01*
X019860Y034763D01*
X019553Y034456D01*
X019476Y034533D01*
X019476Y034686D01*
X019553Y034763D01*
X019860Y034763D01*
X020101Y034686D02*
X020101Y034533D01*
X020178Y034456D01*
X020485Y034763D01*
X020178Y034763D01*
X020101Y034686D01*
X020178Y034456D02*
X020485Y034456D01*
X020561Y034533D01*
X020561Y034686D01*
X020485Y034763D01*
X020726Y034686D02*
X020726Y034533D01*
X020803Y034456D01*
X021110Y034763D01*
X020803Y034763D01*
X020726Y034686D01*
X020803Y034456D02*
X021110Y034456D01*
X021186Y034533D01*
X021186Y034686D01*
X021110Y034763D01*
X021351Y034686D02*
X021351Y034533D01*
X021428Y034456D01*
X021735Y034763D01*
X021428Y034763D01*
X021351Y034686D01*
X021428Y034456D02*
X021735Y034456D01*
X021811Y034533D01*
X021811Y034686D01*
X021735Y034763D01*
X021976Y034686D02*
X021976Y034533D01*
X022053Y034456D01*
X022360Y034763D01*
X022053Y034763D01*
X021976Y034686D01*
X022053Y034456D02*
X022360Y034456D01*
X022436Y034533D01*
X022436Y034686D01*
X022360Y034763D01*
X022436Y034149D02*
X022283Y033995D01*
X021186Y034149D02*
X021033Y033995D01*
X020561Y034149D02*
X020408Y033995D01*
X020485Y033723D02*
X020561Y033646D01*
X020561Y033416D01*
X020101Y033416D01*
X020101Y033646D01*
X020178Y033723D01*
X020485Y033723D01*
X020485Y033263D02*
X020178Y032956D01*
X020101Y032956D01*
X020101Y032802D02*
X020254Y032649D01*
X020254Y032726D02*
X020254Y032495D01*
X020101Y032495D02*
X020561Y032495D01*
X020561Y032726D01*
X020485Y032802D01*
X020331Y032802D01*
X020254Y032726D01*
X019936Y032726D02*
X019860Y032802D01*
X019706Y032802D01*
X019629Y032726D01*
X019629Y032495D01*
X019476Y032495D02*
X019936Y032495D01*
X019936Y032726D01*
X019860Y032956D02*
X019783Y032956D01*
X019706Y033033D01*
X019706Y033186D01*
X019629Y033263D01*
X019553Y033263D01*
X019476Y033186D01*
X019476Y033033D01*
X019553Y032956D01*
X019629Y032956D01*
X019706Y033033D01*
X019706Y033186D02*
X019783Y033263D01*
X019860Y033263D01*
X019936Y033186D01*
X019936Y033033D01*
X019860Y032956D01*
X019629Y032649D02*
X019476Y032802D01*
X020561Y032956D02*
X020561Y033263D01*
X020485Y033263D01*
X019860Y034456D02*
X019553Y034456D01*
X019380Y034683D02*
X019380Y035143D01*
X019149Y035143D01*
X019073Y035067D01*
X019226Y034836D02*
X019073Y034683D01*
X018891Y034518D02*
X018737Y034518D01*
X018661Y034442D01*
X018968Y034135D01*
X018891Y034058D01*
X018737Y034058D01*
X018661Y034135D01*
X018661Y034442D01*
X018507Y034518D02*
X018507Y034058D01*
X018507Y034211D02*
X018277Y034365D01*
X018507Y034211D02*
X018277Y034058D01*
X018968Y034135D02*
X018968Y034442D01*
X018891Y034518D01*
X019629Y034916D02*
X019783Y035146D01*
X019928Y035114D02*
X020235Y035421D01*
X020235Y035268D02*
X019928Y035268D01*
X019928Y035421D02*
X020235Y035114D01*
X020101Y035146D02*
X020254Y034916D01*
X020408Y035146D01*
X020081Y035114D02*
X020081Y035421D01*
X020004Y035575D02*
X020004Y035805D01*
X020081Y035882D01*
X020235Y035882D01*
X020311Y035805D01*
X020311Y035575D01*
X019851Y035575D01*
X019686Y035546D02*
X019456Y035316D01*
X019456Y035623D01*
X019379Y035776D02*
X019533Y036007D01*
X019686Y036160D02*
X019686Y036467D01*
X019610Y036467D01*
X019303Y036160D01*
X019226Y036160D01*
X019226Y036007D02*
X019379Y035776D01*
X019226Y035776D02*
X019686Y035776D01*
X019851Y035882D02*
X020004Y035728D01*
X019851Y036035D02*
X019851Y036342D01*
X019851Y036189D02*
X020311Y036189D01*
X020158Y036035D01*
X019686Y035546D02*
X019226Y035546D01*
X019476Y035146D02*
X019629Y034916D01*
X020726Y035546D02*
X021186Y035546D01*
X020956Y035316D01*
X022464Y035495D02*
X022464Y035726D01*
X022541Y035802D01*
X022771Y035802D01*
X022771Y035495D01*
X029181Y036216D02*
X029471Y036216D01*
X029481Y036735D02*
X029181Y036735D01*
X029325Y035206D02*
X029478Y035206D01*
X029555Y035129D01*
X029708Y035129D02*
X029708Y034976D01*
X029785Y034899D01*
X030015Y034899D01*
X029862Y034899D02*
X029708Y034745D01*
X029555Y034745D02*
X029248Y035052D01*
X029248Y035129D01*
X029325Y035206D01*
X029708Y035129D02*
X029785Y035206D01*
X030015Y035206D01*
X030015Y034745D01*
X030169Y034822D02*
X030476Y035129D01*
X030629Y035129D02*
X030936Y034822D01*
X030783Y034822D02*
X030783Y035129D01*
X030936Y035129D02*
X030629Y034822D01*
X030476Y034822D02*
X030169Y035129D01*
X030322Y035129D02*
X030322Y034822D01*
X030476Y034976D02*
X030169Y034976D01*
X030226Y034581D02*
X030226Y034120D01*
X030379Y034120D02*
X030686Y034120D01*
X030379Y034427D01*
X030379Y034504D01*
X030456Y034581D01*
X030609Y034581D01*
X030686Y034504D01*
X030629Y034976D02*
X030936Y034976D01*
X030226Y034274D02*
X029995Y034427D01*
X029842Y034504D02*
X029765Y034581D01*
X029612Y034581D01*
X029535Y034504D01*
X029535Y034427D01*
X029842Y034120D01*
X029535Y034120D01*
X029995Y034120D02*
X030226Y034274D01*
X029555Y034745D02*
X029248Y034745D01*
X030967Y038495D02*
X030967Y038572D01*
X030660Y038879D01*
X030660Y038956D01*
X030967Y038956D01*
X030862Y038995D02*
X030862Y039226D01*
X030708Y039379D01*
X030708Y039456D01*
X030862Y039226D02*
X031015Y039379D01*
X031015Y039456D01*
X031169Y039456D02*
X031169Y039379D01*
X031476Y039072D01*
X031476Y038995D01*
X031581Y038956D02*
X031811Y038726D01*
X031504Y038726D01*
X031351Y038649D02*
X031120Y038802D01*
X031351Y038649D02*
X031120Y038495D01*
X031351Y038495D02*
X031351Y038956D01*
X031581Y038956D02*
X031581Y038495D01*
X031851Y038901D02*
X031851Y039208D01*
X031783Y039149D02*
X031629Y038995D01*
X031706Y039149D02*
X031936Y039149D01*
X031851Y039055D02*
X032311Y039055D01*
X032158Y038901D01*
X031936Y038995D02*
X031936Y039456D01*
X031706Y039456D01*
X031629Y039379D01*
X031629Y039226D01*
X031706Y039149D01*
X031851Y039362D02*
X032311Y039362D01*
X032158Y039592D02*
X032004Y039362D01*
X031851Y039592D01*
X031851Y039989D02*
X032311Y039989D01*
X032311Y040220D01*
X032235Y040296D01*
X032081Y040296D01*
X032004Y040220D01*
X032004Y039989D01*
X032004Y040143D02*
X031851Y040296D01*
X031851Y040450D02*
X031851Y040757D01*
X031851Y040603D02*
X032311Y040603D01*
X032158Y040450D01*
X032235Y040910D02*
X032081Y041064D01*
X031851Y041064D01*
X032081Y041064D02*
X032235Y041217D01*
X032311Y041217D01*
X032311Y040910D02*
X032235Y040910D01*
X031436Y040956D02*
X031436Y040495D01*
X031436Y040649D02*
X031206Y040649D01*
X031129Y040726D01*
X031129Y040879D01*
X031206Y040956D01*
X031436Y040956D01*
X031283Y040649D02*
X031129Y040495D01*
X031101Y040331D02*
X031101Y039870D01*
X031101Y040024D02*
X030870Y039870D01*
X030717Y039870D02*
X030717Y039947D01*
X030410Y040254D01*
X030410Y040331D01*
X030717Y040331D01*
X030745Y040495D02*
X030669Y040572D01*
X030669Y040649D01*
X030745Y040726D01*
X030976Y040726D01*
X030976Y040572D01*
X030899Y040495D01*
X030745Y040495D01*
X030976Y040726D02*
X030822Y040879D01*
X030669Y040956D01*
X030515Y040956D02*
X030515Y040879D01*
X030362Y040726D01*
X030362Y040495D01*
X030362Y040726D02*
X030208Y040879D01*
X030208Y040956D01*
X030870Y040177D02*
X031101Y040024D01*
X031254Y040101D02*
X031561Y040101D01*
X031331Y040331D01*
X031331Y039870D01*
X031476Y039456D02*
X031169Y039456D01*
X033476Y040026D02*
X033783Y040333D01*
X033860Y040333D01*
X033936Y040257D01*
X033936Y040103D01*
X033860Y040026D01*
X034091Y039888D02*
X034091Y040178D01*
X033936Y040487D02*
X033476Y040487D01*
X033629Y040487D02*
X033476Y040717D01*
X033629Y040487D02*
X033783Y040717D01*
X033476Y040333D02*
X033476Y040026D01*
X033571Y039888D02*
X033571Y040188D01*
X034476Y039564D02*
X034706Y039564D01*
X034860Y039717D01*
X034936Y039717D01*
X034706Y039564D02*
X034860Y039410D01*
X034936Y039410D01*
X034860Y039257D02*
X034936Y039180D01*
X034936Y039026D01*
X034860Y038950D01*
X034860Y038796D02*
X034706Y038796D01*
X034629Y038720D01*
X034629Y038489D01*
X034476Y038489D02*
X034936Y038489D01*
X034936Y038720D01*
X034860Y038796D01*
X034629Y038643D02*
X034476Y038796D01*
X034476Y038950D02*
X034783Y039257D01*
X034860Y039257D01*
X034476Y039257D02*
X034476Y038950D01*
X034533Y041558D02*
X034533Y042018D01*
X034686Y041865D01*
X034686Y041558D02*
X034379Y041558D01*
X034226Y041635D02*
X033919Y041942D01*
X033919Y041635D01*
X033995Y041558D01*
X034149Y041558D01*
X034226Y041635D01*
X034226Y041942D01*
X034149Y042018D01*
X033995Y042018D01*
X033919Y041942D01*
X033765Y041942D02*
X033688Y042018D01*
X033535Y042018D01*
X033458Y041942D01*
X033765Y041635D01*
X033688Y041558D01*
X033535Y041558D01*
X033458Y041635D01*
X033458Y041942D01*
X033305Y041865D02*
X033075Y041865D01*
X032998Y041788D01*
X032998Y041558D01*
X033305Y041558D02*
X033305Y041865D01*
X033458Y042183D02*
X033765Y042183D01*
X033612Y042183D02*
X033612Y042643D01*
X033765Y042490D01*
X033919Y042643D02*
X034226Y042183D01*
X034379Y042260D02*
X034456Y042183D01*
X034609Y042183D01*
X034686Y042260D01*
X034686Y042567D01*
X034609Y042643D01*
X034456Y042643D01*
X034379Y042567D01*
X034226Y042643D02*
X033919Y042183D01*
X033765Y041942D02*
X033765Y041635D01*
X028817Y046120D02*
X028817Y046581D01*
X028587Y046581D01*
X028510Y046504D01*
X028510Y046351D01*
X028587Y046274D01*
X028817Y046274D01*
X028664Y046274D02*
X028510Y046120D01*
X028357Y046197D02*
X028280Y046120D01*
X028127Y046120D01*
X028050Y046197D01*
X028050Y046504D01*
X028127Y046581D01*
X028280Y046581D01*
X028357Y046504D01*
X028357Y046427D01*
X028280Y046351D01*
X028050Y046351D01*
X027896Y046274D02*
X027666Y046274D01*
X027589Y046351D01*
X027589Y046504D01*
X027666Y046581D01*
X027896Y046581D01*
X027896Y046120D01*
X027107Y046120D02*
X027107Y046197D01*
X026800Y046504D01*
X026800Y046581D01*
X027107Y046581D01*
X026646Y046581D02*
X026646Y046351D01*
X026493Y046427D01*
X026416Y046427D01*
X026339Y046351D01*
X026339Y046197D01*
X026416Y046120D01*
X026570Y046120D01*
X026646Y046197D01*
X026646Y046581D02*
X026339Y046581D01*
X024373Y046143D02*
X024373Y045683D01*
X024373Y045836D02*
X024143Y045836D01*
X024067Y045913D01*
X024067Y046067D01*
X024143Y046143D01*
X024373Y046143D01*
X024220Y045836D02*
X024067Y045683D01*
X023913Y045760D02*
X023913Y045836D01*
X023836Y045913D01*
X023683Y045913D01*
X023606Y045836D01*
X023606Y045760D01*
X023683Y045683D01*
X023836Y045683D01*
X023913Y045760D01*
X023836Y045913D02*
X023913Y045990D01*
X023913Y046067D01*
X023836Y046143D01*
X023683Y046143D01*
X023606Y046067D01*
X023606Y045990D01*
X023683Y045913D01*
X023453Y045836D02*
X023222Y045836D01*
X023146Y045913D01*
X023146Y046067D01*
X023222Y046143D01*
X023453Y046143D01*
X023453Y045683D01*
X023481Y045393D02*
X023788Y045393D01*
X023788Y045163D01*
X023635Y045240D01*
X023558Y045240D01*
X023481Y045163D01*
X023481Y045010D01*
X023558Y044933D01*
X023711Y044933D01*
X023788Y045010D01*
X023942Y045317D02*
X024248Y045010D01*
X024248Y044933D01*
X024248Y045393D02*
X023942Y045393D01*
X023942Y045317D01*
X016186Y040754D02*
X015879Y040447D01*
X016033Y040447D02*
X016033Y040754D01*
X015879Y040754D02*
X016186Y040447D01*
X016186Y040601D02*
X015879Y040601D01*
X015726Y040524D02*
X015495Y040524D01*
X015419Y040601D01*
X015419Y040754D01*
X015495Y040831D01*
X015726Y040831D01*
X015726Y040370D01*
X015572Y040524D02*
X015419Y040370D01*
X015265Y040370D02*
X014958Y040677D01*
X014958Y040754D01*
X015035Y040831D01*
X015188Y040831D01*
X015265Y040754D01*
X015265Y040370D02*
X014958Y040370D01*
X014811Y040370D02*
X014504Y040677D01*
X014504Y040754D01*
X014581Y040831D01*
X014734Y040831D01*
X014811Y040754D01*
X014811Y040370D02*
X014504Y040370D01*
X014351Y040370D02*
X014351Y040831D01*
X014120Y040677D02*
X014351Y040524D01*
X014120Y040370D01*
X013967Y040370D02*
X013660Y040677D01*
X013660Y040754D01*
X013737Y040831D01*
X013890Y040831D01*
X013967Y040754D01*
X013967Y040370D02*
X013660Y040370D01*
X010393Y032081D02*
X010393Y031620D01*
X010546Y031620D02*
X010239Y031620D01*
X010086Y031620D02*
X009702Y032081D01*
X010009Y032081D02*
X010009Y032004D01*
X010086Y032004D01*
X010086Y032081D01*
X010009Y032081D01*
X010393Y032081D02*
X010546Y031927D01*
X009779Y031697D02*
X009702Y031697D01*
X009702Y031620D01*
X009779Y031620D01*
X009779Y031697D01*
X012135Y029254D02*
X012212Y029331D01*
X012365Y029331D01*
X012442Y029254D01*
X012442Y028947D01*
X012033Y027956D02*
X012033Y027495D01*
X012186Y027495D02*
X011879Y027495D01*
X011726Y027572D02*
X011419Y027879D01*
X011419Y027572D01*
X011495Y027495D01*
X011649Y027495D01*
X011726Y027572D01*
X011726Y027879D01*
X011649Y027956D01*
X011495Y027956D01*
X011419Y027879D01*
X011265Y027879D02*
X011188Y027956D01*
X011035Y027956D01*
X010958Y027879D01*
X011265Y027572D01*
X011188Y027495D01*
X011035Y027495D01*
X010958Y027572D01*
X010958Y027879D01*
X010805Y027802D02*
X010575Y027802D01*
X010498Y027726D01*
X010498Y027495D01*
X010805Y027495D02*
X010805Y027802D01*
X010826Y028166D02*
X011586Y028166D01*
X011265Y027879D02*
X011265Y027572D01*
X012033Y027956D02*
X012186Y027802D01*
X023169Y028433D02*
X023476Y028433D01*
X023169Y028740D01*
X023169Y028817D01*
X023245Y028893D01*
X023399Y028893D01*
X023476Y028817D01*
X023629Y028893D02*
X023783Y028893D01*
X023706Y028893D02*
X023706Y028510D01*
X023783Y028433D01*
X023859Y028433D01*
X023936Y028510D01*
X023734Y028268D02*
X023581Y028268D01*
X023504Y028192D01*
X023811Y027885D01*
X023734Y027808D01*
X023581Y027808D01*
X023504Y027885D01*
X023504Y028192D01*
X023734Y028268D02*
X023811Y028192D01*
X023811Y027885D01*
X028185Y028308D02*
X028185Y028538D01*
X028262Y028615D01*
X028492Y028615D01*
X028492Y028308D01*
X028646Y028385D02*
X028722Y028308D01*
X028876Y028308D01*
X028953Y028385D01*
X028646Y028692D01*
X028646Y028385D01*
X028646Y028692D02*
X028722Y028768D01*
X028876Y028768D01*
X028953Y028692D01*
X028953Y028385D01*
X029106Y028385D02*
X029183Y028308D01*
X029336Y028308D01*
X029413Y028385D01*
X029106Y028692D01*
X029106Y028385D01*
X029106Y028692D02*
X029183Y028768D01*
X029336Y028768D01*
X029413Y028692D01*
X029413Y028385D01*
X029567Y028308D02*
X029873Y028308D01*
X029720Y028308D02*
X029720Y028768D01*
X029873Y028615D01*
X030271Y028596D02*
X030271Y029355D01*
X030891Y029355D02*
X030891Y028596D01*
X029498Y029135D02*
X029498Y029442D01*
X029422Y029518D01*
X029268Y029518D01*
X029192Y029442D01*
X029038Y029518D02*
X028731Y029518D01*
X028885Y029518D02*
X028885Y029058D01*
X029192Y029135D02*
X029268Y029058D01*
X029422Y029058D01*
X029498Y029135D01*
X032402Y028615D02*
X032632Y028461D01*
X032402Y028308D01*
X032632Y028308D02*
X032632Y028768D01*
X032680Y028933D02*
X032680Y029393D01*
X032834Y029240D01*
X032987Y029393D02*
X033294Y029393D01*
X033294Y028933D01*
X033448Y028933D02*
X033601Y029086D01*
X033524Y029086D02*
X033755Y029086D01*
X033755Y028933D02*
X033755Y029393D01*
X033524Y029393D01*
X033448Y029317D01*
X033448Y029163D01*
X033524Y029086D01*
X033294Y029163D02*
X033141Y029163D01*
X032834Y028933D02*
X032527Y028933D01*
X032939Y028768D02*
X032939Y028308D01*
X032786Y028308D02*
X033093Y028308D01*
X033093Y028615D02*
X032939Y028768D01*
X034058Y029808D02*
X034288Y029961D01*
X034058Y030115D01*
X034288Y030268D02*
X034288Y029808D01*
X034442Y029808D02*
X034748Y029808D01*
X034442Y030115D01*
X034442Y030192D01*
X034518Y030268D01*
X034672Y030268D01*
X034748Y030192D01*
X034873Y030433D02*
X034873Y030893D01*
X034643Y030893D01*
X034567Y030817D01*
X034567Y030663D01*
X034643Y030586D01*
X034873Y030586D01*
X034720Y030586D02*
X034567Y030433D01*
X034413Y030510D02*
X034336Y030433D01*
X034183Y030433D01*
X034106Y030510D01*
X034106Y030586D01*
X034183Y030663D01*
X034260Y030663D01*
X034183Y030663D02*
X034106Y030740D01*
X034106Y030817D01*
X034183Y030893D01*
X034336Y030893D01*
X034413Y030817D01*
X033953Y030817D02*
X033799Y030663D01*
X033799Y030433D01*
X033799Y030663D02*
X033646Y030817D01*
X033646Y030893D01*
X033953Y030893D02*
X033953Y030817D01*
X035146Y030817D02*
X035146Y030893D01*
X035146Y030817D02*
X035299Y030663D01*
X035299Y030433D01*
X035376Y030268D02*
X035376Y029808D01*
X035529Y029808D02*
X035222Y029808D01*
X035529Y030115D02*
X035376Y030268D01*
X035606Y030510D02*
X035683Y030433D01*
X035836Y030433D01*
X035913Y030510D01*
X035913Y030586D01*
X035836Y030663D01*
X035683Y030663D01*
X035606Y030586D01*
X035606Y030510D01*
X035683Y030663D02*
X035606Y030740D01*
X035606Y030817D01*
X035683Y030893D01*
X035836Y030893D01*
X035913Y030817D01*
X035913Y030740D01*
X035836Y030663D01*
X036067Y030663D02*
X036143Y030586D01*
X036373Y030586D01*
X036220Y030586D02*
X036067Y030433D01*
X036067Y030268D02*
X036373Y030268D01*
X036373Y030038D01*
X036220Y030115D01*
X036143Y030115D01*
X036067Y030038D01*
X036067Y029885D01*
X036143Y029808D01*
X036297Y029808D01*
X036373Y029885D01*
X035913Y029961D02*
X035683Y030115D01*
X035913Y030268D02*
X035913Y029808D01*
X035913Y029961D02*
X035683Y029808D01*
X036373Y030433D02*
X036373Y030893D01*
X036143Y030893D01*
X036067Y030817D01*
X036067Y030663D01*
X035453Y030817D02*
X035299Y030663D01*
X035453Y030817D02*
X035453Y030893D01*
X036527Y033558D02*
X036527Y033788D01*
X036604Y033865D01*
X036834Y033865D01*
X036834Y033558D01*
X036987Y033635D02*
X037064Y033558D01*
X037218Y033558D01*
X037294Y033635D01*
X036987Y033942D01*
X036987Y033635D01*
X036987Y033942D02*
X037064Y034018D01*
X037218Y034018D01*
X037294Y033942D01*
X037294Y033635D01*
X037448Y033635D02*
X037524Y033558D01*
X037678Y033558D01*
X037755Y033635D01*
X037448Y033942D01*
X037448Y033635D01*
X037448Y033942D02*
X037524Y034018D01*
X037678Y034018D01*
X037755Y033942D01*
X037755Y033635D01*
X037908Y033558D02*
X038215Y033558D01*
X038062Y033558D02*
X038062Y034018D01*
X038215Y033865D01*
X037169Y034260D02*
X037093Y034183D01*
X036939Y034183D01*
X036862Y034260D01*
X036862Y034567D02*
X036939Y034643D01*
X037093Y034643D01*
X037169Y034567D01*
X037169Y034260D01*
X036709Y034567D02*
X036555Y034413D01*
X036555Y034183D01*
X036555Y034413D02*
X036402Y034567D01*
X036402Y034643D01*
X036709Y034643D02*
X036709Y034567D01*
X036091Y034375D02*
X036091Y034075D01*
X035571Y034085D02*
X035571Y034375D01*
X036464Y035370D02*
X036771Y035370D01*
X036618Y035370D02*
X036618Y035831D01*
X036771Y035677D01*
X036925Y035677D02*
X037155Y035524D01*
X036925Y035370D01*
X037155Y035370D02*
X037155Y035831D01*
X037308Y035831D02*
X037615Y035831D01*
X037615Y035601D01*
X037462Y035677D01*
X037385Y035677D01*
X037308Y035601D01*
X037308Y035447D01*
X037385Y035370D01*
X037539Y035370D01*
X037615Y035447D01*
X037692Y035995D02*
X037692Y036456D01*
X037462Y036456D01*
X037385Y036379D01*
X037385Y036226D01*
X037462Y036149D01*
X037692Y036149D01*
X037539Y036149D02*
X037385Y035995D01*
X037232Y036072D02*
X037155Y035995D01*
X037002Y035995D01*
X036925Y036072D01*
X036925Y036226D01*
X037002Y036302D01*
X037078Y036302D01*
X037232Y036226D01*
X037232Y036456D01*
X036925Y036456D01*
X036771Y036456D02*
X036771Y036379D01*
X036618Y036226D01*
X036618Y035995D01*
X036618Y036226D02*
X036464Y036379D01*
X036464Y036456D01*
X040248Y036351D02*
X040248Y036120D01*
X040248Y036351D02*
X040325Y036427D01*
X040555Y036427D01*
X040555Y036120D01*
X040708Y036197D02*
X040785Y036120D01*
X040938Y036120D01*
X041015Y036197D01*
X040708Y036504D01*
X040708Y036197D01*
X040708Y036504D02*
X040785Y036581D01*
X040938Y036581D01*
X041015Y036504D01*
X041015Y036197D01*
X041169Y036197D02*
X041245Y036120D01*
X041399Y036120D01*
X041476Y036197D01*
X041169Y036504D01*
X041169Y036197D01*
X041112Y035956D02*
X041112Y035495D01*
X041265Y035495D02*
X040958Y035495D01*
X040805Y035572D02*
X040728Y035495D01*
X040575Y035495D01*
X040498Y035572D01*
X040498Y035649D01*
X040575Y035726D01*
X040805Y035726D01*
X040805Y035572D01*
X040805Y035726D02*
X040651Y035879D01*
X040498Y035956D01*
X041112Y035956D02*
X041265Y035802D01*
X041419Y035956D02*
X041419Y035495D01*
X041726Y035495D02*
X041726Y035956D01*
X041572Y035802D01*
X041419Y035956D01*
X041476Y036197D02*
X041476Y036504D01*
X041399Y036581D01*
X041245Y036581D01*
X041169Y036504D01*
X041629Y036120D02*
X041936Y036120D01*
X041783Y036120D02*
X041783Y036581D01*
X041936Y036427D01*
X041956Y035956D02*
X041879Y035879D01*
X041956Y035956D02*
X042109Y035956D01*
X042186Y035879D01*
X042186Y035572D01*
X042109Y035495D01*
X041956Y035495D01*
X041879Y035572D01*
X040841Y037200D02*
X040841Y037491D01*
X040321Y037500D02*
X040321Y037200D01*
X046208Y037254D02*
X046285Y037331D01*
X046438Y037331D01*
X046515Y037254D01*
X046515Y037177D01*
X046438Y037101D01*
X046208Y037101D01*
X046208Y037254D02*
X046208Y036947D01*
X046285Y036870D01*
X046438Y036870D01*
X046515Y036947D01*
X046669Y036870D02*
X046976Y036870D01*
X047129Y036870D02*
X047283Y037024D01*
X047206Y037024D02*
X047436Y037024D01*
X047436Y036870D02*
X047436Y037331D01*
X047206Y037331D01*
X047129Y037254D01*
X047129Y037101D01*
X047206Y037024D01*
X046976Y037177D02*
X046822Y037331D01*
X046822Y036870D01*
X046925Y037495D02*
X047078Y037495D01*
X047155Y037572D01*
X046848Y037879D01*
X046848Y037572D01*
X046925Y037495D01*
X046695Y037495D02*
X046695Y037956D01*
X046848Y037879D02*
X046925Y037956D01*
X047078Y037956D01*
X047155Y037879D01*
X047155Y037572D01*
X047308Y037495D02*
X047615Y037495D01*
X047462Y037495D02*
X047462Y037956D01*
X047615Y037802D01*
X046695Y037649D02*
X046464Y037802D01*
X046695Y037649D02*
X046464Y037495D01*
X047322Y033456D02*
X047322Y032995D01*
X047169Y032995D02*
X047476Y032995D01*
X047706Y033072D02*
X047783Y032995D01*
X047859Y032995D01*
X047936Y033072D01*
X047706Y033072D02*
X047706Y033456D01*
X047783Y033456D02*
X047629Y033456D01*
X047476Y033302D02*
X047322Y033456D01*
X049226Y033515D02*
X049226Y033362D01*
X049303Y033285D01*
X049610Y033592D01*
X049303Y033592D01*
X049226Y033515D01*
X049303Y033285D02*
X049610Y033285D01*
X049686Y033362D01*
X049686Y033515D01*
X049610Y033592D01*
X052714Y034197D02*
X052791Y034120D01*
X052945Y034120D01*
X053021Y034197D01*
X052714Y034504D01*
X052714Y034197D01*
X052714Y034504D02*
X052791Y034581D01*
X052945Y034581D01*
X053021Y034504D01*
X053021Y034197D01*
X053175Y034197D02*
X053252Y034120D01*
X053405Y034120D01*
X053482Y034197D01*
X053482Y034274D01*
X053405Y034351D01*
X053252Y034351D01*
X053175Y034274D01*
X053175Y034197D01*
X053252Y034351D02*
X053175Y034427D01*
X053175Y034504D01*
X053252Y034581D01*
X053405Y034581D01*
X053482Y034504D01*
X053482Y034427D01*
X053405Y034351D01*
X053635Y034504D02*
X053942Y034197D01*
X053942Y034120D01*
X053635Y034120D01*
X053530Y033956D02*
X053377Y033956D01*
X053300Y033879D01*
X053607Y033572D01*
X053530Y033495D01*
X053377Y033495D01*
X053300Y033572D01*
X053300Y033879D01*
X053146Y033802D02*
X052916Y033802D01*
X052839Y033726D01*
X052839Y033495D01*
X053146Y033495D02*
X053146Y033802D01*
X053530Y033956D02*
X053607Y033879D01*
X053607Y033572D01*
X053760Y033572D02*
X053837Y033495D01*
X053990Y033495D01*
X054067Y033572D01*
X053760Y033879D01*
X053760Y033572D01*
X054067Y033572D02*
X054067Y033879D01*
X053990Y033956D01*
X053837Y033956D01*
X053760Y033879D01*
X054096Y034197D02*
X054172Y034120D01*
X054326Y034120D01*
X054403Y034197D01*
X054403Y034504D01*
X054326Y034581D01*
X054172Y034581D01*
X054096Y034504D01*
X053942Y034581D02*
X053635Y034581D01*
X053635Y034504D01*
X053481Y034966D02*
X053181Y034966D01*
X053191Y035485D02*
X053481Y035485D01*
X054374Y033956D02*
X054374Y033495D01*
X054221Y033495D02*
X054528Y033495D01*
X054528Y033802D02*
X054374Y033956D01*
X066339Y040995D02*
X066646Y040995D01*
X066339Y041302D01*
X066339Y041379D01*
X066416Y041456D01*
X066570Y041456D01*
X066646Y041379D01*
X066800Y041379D02*
X066800Y041226D01*
X066877Y041149D01*
X067107Y041149D01*
X067107Y040995D02*
X067107Y041456D01*
X066877Y041456D01*
X066800Y041379D01*
X066953Y041149D02*
X066800Y040995D01*
X068208Y041197D02*
X068285Y041120D01*
X068438Y041120D01*
X068515Y041197D01*
X068669Y041120D02*
X068976Y041120D01*
X068669Y041427D01*
X068669Y041504D01*
X068745Y041581D01*
X068899Y041581D01*
X068976Y041504D01*
X069129Y041504D02*
X069129Y041351D01*
X069206Y041274D01*
X069436Y041274D01*
X069283Y041274D02*
X069129Y041120D01*
X069436Y041120D02*
X069436Y041581D01*
X069206Y041581D01*
X069129Y041504D01*
X068515Y041504D02*
X068438Y041581D01*
X068285Y041581D01*
X068208Y041504D01*
X068208Y041427D01*
X068285Y041351D01*
X068208Y041274D01*
X068208Y041197D01*
X068285Y041351D02*
X068362Y041351D01*
X070089Y041504D02*
X070396Y041197D01*
X070396Y041120D01*
X070550Y041120D02*
X070780Y041274D01*
X070550Y041427D01*
X070396Y041581D02*
X070089Y041581D01*
X070089Y041504D01*
X070780Y041581D02*
X070780Y041120D01*
X071010Y041120D02*
X071010Y041581D01*
X071240Y041351D01*
X070933Y041351D01*
X067396Y042822D02*
X067089Y043129D01*
X067089Y042822D01*
X067166Y042745D01*
X067320Y042745D01*
X067396Y042822D01*
X067396Y043129D01*
X067320Y043206D01*
X067166Y043206D01*
X067089Y043129D01*
X067339Y044745D02*
X067646Y044745D01*
X067339Y045052D01*
X067339Y045129D01*
X067416Y045206D01*
X067570Y045206D01*
X067646Y045129D01*
X067800Y045129D02*
X067877Y045206D01*
X068030Y045206D01*
X068107Y045129D01*
X068260Y045129D02*
X068260Y044976D01*
X068337Y044899D01*
X068567Y044899D01*
X068414Y044899D02*
X068260Y044745D01*
X068107Y044745D02*
X067800Y045052D01*
X067800Y045129D01*
X067771Y045495D02*
X067771Y045572D01*
X067464Y045879D01*
X067464Y045956D01*
X067771Y045956D01*
X067925Y045802D02*
X068155Y045649D01*
X067925Y045495D01*
X068155Y045495D02*
X068155Y045956D01*
X068385Y045956D02*
X068615Y045726D01*
X068308Y045726D01*
X068385Y045956D02*
X068385Y045495D01*
X068337Y045206D02*
X068260Y045129D01*
X068337Y045206D02*
X068567Y045206D01*
X068567Y044745D01*
X068107Y044745D02*
X067800Y044745D01*
X064766Y045105D02*
X064766Y044346D01*
X064146Y044346D02*
X064146Y045105D01*
X063903Y045129D02*
X063903Y044822D01*
X063826Y044745D01*
X063672Y044745D01*
X063596Y044822D01*
X063442Y044745D02*
X063289Y044899D01*
X063135Y044745D01*
X063135Y045206D01*
X063155Y045370D02*
X063232Y045447D01*
X062925Y045754D01*
X062925Y045447D01*
X063002Y045370D01*
X063155Y045370D01*
X063232Y045447D02*
X063232Y045754D01*
X063155Y045831D01*
X063002Y045831D01*
X062925Y045754D01*
X062771Y045677D02*
X062541Y045677D01*
X062464Y045601D01*
X062464Y045370D01*
X062445Y045206D02*
X062521Y045129D01*
X062521Y045052D01*
X062445Y044976D01*
X062214Y044976D01*
X062214Y045129D02*
X062291Y045206D01*
X062445Y045206D01*
X062675Y045129D02*
X062752Y045206D01*
X062905Y045206D01*
X062982Y045129D01*
X062675Y045129D02*
X062675Y045052D01*
X062982Y044745D01*
X062675Y044745D01*
X062521Y044822D02*
X062445Y044745D01*
X062291Y044745D01*
X062214Y044822D01*
X062214Y045129D01*
X062771Y045370D02*
X062771Y045677D01*
X063385Y045754D02*
X063692Y045447D01*
X063615Y045370D01*
X063462Y045370D01*
X063385Y045447D01*
X063385Y045754D01*
X063462Y045831D01*
X063615Y045831D01*
X063692Y045754D01*
X063692Y045447D01*
X063846Y045370D02*
X064153Y045370D01*
X063999Y045370D02*
X063999Y045831D01*
X064153Y045677D01*
X063826Y045206D02*
X063903Y045129D01*
X063826Y045206D02*
X063672Y045206D01*
X063596Y045129D01*
X063442Y045206D02*
X063442Y044745D01*
X068180Y025331D02*
X068180Y024870D01*
X068027Y024870D02*
X068334Y024870D01*
X068487Y024870D02*
X068641Y025024D01*
X068564Y025024D02*
X068794Y025024D01*
X068794Y024870D02*
X068794Y025331D01*
X068564Y025331D01*
X068487Y025254D01*
X068487Y025101D01*
X068564Y025024D01*
X068334Y025177D02*
X068180Y025331D01*
X068195Y024643D02*
X068195Y024183D01*
X068348Y024183D02*
X068655Y024183D01*
X068502Y024183D02*
X068502Y024643D01*
X068655Y024490D01*
X068195Y024336D02*
X067964Y024490D01*
X068195Y024336D02*
X067964Y024183D01*
X066234Y021706D02*
X066311Y021629D01*
X066311Y021322D01*
X066234Y021245D01*
X066081Y021245D01*
X066004Y021322D01*
X065851Y021245D02*
X065851Y021706D01*
X065620Y021706D01*
X065544Y021629D01*
X065544Y021476D01*
X065620Y021399D01*
X065851Y021399D01*
X065697Y021399D02*
X065544Y021245D01*
X065390Y021245D02*
X065083Y021245D01*
X065160Y021081D02*
X065083Y021004D01*
X065390Y020697D01*
X065313Y020620D01*
X065160Y020620D01*
X065083Y020697D01*
X065083Y021004D01*
X065160Y021081D02*
X065313Y021081D01*
X065390Y021004D01*
X065390Y020697D01*
X065544Y020697D02*
X065620Y020620D01*
X065774Y020620D01*
X065851Y020697D01*
X065544Y021004D01*
X065544Y020697D01*
X065851Y020697D02*
X065851Y021004D01*
X065774Y021081D01*
X065620Y021081D01*
X065544Y021004D01*
X065390Y021245D02*
X065390Y021706D01*
X066004Y021629D02*
X066081Y021706D01*
X066234Y021706D01*
X066158Y021081D02*
X066158Y020620D01*
X066311Y020620D02*
X066004Y020620D01*
X066311Y020927D02*
X066158Y021081D01*
X066571Y021000D02*
X066571Y020700D01*
X067091Y020700D02*
X067091Y020991D01*
X064930Y020927D02*
X064930Y020620D01*
X064623Y020620D02*
X064623Y020851D01*
X064700Y020927D01*
X064930Y020927D01*
X055686Y006081D02*
X055456Y006081D01*
X055379Y006004D01*
X055379Y005851D01*
X055456Y005774D01*
X055686Y005774D01*
X055533Y005774D02*
X055379Y005620D01*
X055226Y005620D02*
X054919Y005927D01*
X054919Y006004D01*
X054995Y006081D01*
X055149Y006081D01*
X055226Y006004D01*
X055226Y005620D02*
X054919Y005620D01*
X054765Y005697D02*
X054765Y005774D01*
X054688Y005851D01*
X054535Y005851D01*
X054458Y005774D01*
X054458Y005697D01*
X054535Y005620D01*
X054688Y005620D01*
X054765Y005697D01*
X054688Y005851D02*
X054765Y005927D01*
X054765Y006004D01*
X054688Y006081D01*
X054535Y006081D01*
X054458Y006004D01*
X054458Y005927D01*
X054535Y005851D01*
X055686Y005620D02*
X055686Y006081D01*
X055158Y004581D02*
X055158Y004120D01*
X055311Y004120D02*
X055004Y004120D01*
X054851Y004120D02*
X054851Y004581D01*
X054620Y004427D02*
X054851Y004274D01*
X054620Y004120D01*
X055158Y004581D02*
X055311Y004427D01*
X049811Y005620D02*
X049811Y006081D01*
X049581Y006081D01*
X049504Y006004D01*
X049504Y005851D01*
X049581Y005774D01*
X049811Y005774D01*
X049658Y005774D02*
X049504Y005620D01*
X049351Y005620D02*
X049044Y005927D01*
X049044Y006004D01*
X049120Y006081D01*
X049274Y006081D01*
X049351Y006004D01*
X049351Y005620D02*
X049044Y005620D01*
X048890Y005697D02*
X048813Y005620D01*
X048660Y005620D01*
X048583Y005697D01*
X048583Y006004D01*
X048660Y006081D01*
X048813Y006081D01*
X048890Y006004D01*
X048890Y005927D01*
X048813Y005851D01*
X048583Y005851D01*
X049101Y004581D02*
X049101Y004120D01*
X049254Y004120D02*
X049561Y004120D01*
X049408Y004120D02*
X049408Y004581D01*
X049561Y004427D01*
X049101Y004274D02*
X048870Y004120D01*
X049101Y004274D02*
X048870Y004427D01*
X034186Y018933D02*
X033879Y018933D01*
X034033Y018933D02*
X034033Y019393D01*
X034186Y019240D01*
X034446Y019263D02*
X034446Y019563D01*
X034186Y019635D02*
X034186Y019942D01*
X034109Y020018D01*
X033956Y020018D01*
X033879Y019942D01*
X033726Y020018D02*
X033726Y019558D01*
X033419Y019558D01*
X033265Y019558D02*
X032958Y019865D01*
X032958Y019942D01*
X033035Y020018D01*
X033188Y020018D01*
X033265Y019942D01*
X033419Y020018D02*
X033726Y020018D01*
X033726Y019788D02*
X033572Y019788D01*
X033879Y019635D02*
X033956Y019558D01*
X034109Y019558D01*
X034186Y019635D01*
X033726Y019317D02*
X033649Y019393D01*
X033495Y019393D01*
X033419Y019317D01*
X033726Y019010D01*
X033649Y018933D01*
X033495Y018933D01*
X033419Y019010D01*
X033419Y019317D01*
X033265Y019317D02*
X033188Y019393D01*
X033035Y019393D01*
X032958Y019317D01*
X033265Y019010D01*
X033188Y018933D01*
X033035Y018933D01*
X032958Y019010D01*
X032958Y019317D01*
X032805Y019240D02*
X032575Y019240D01*
X032498Y019163D01*
X032498Y018933D01*
X032805Y018933D02*
X032805Y019240D01*
X032958Y019558D02*
X033265Y019558D01*
X033265Y019317D02*
X033265Y019010D01*
X033726Y019010D02*
X033726Y019317D01*
X034966Y019263D02*
X034966Y019553D01*
D13*
X031456Y032885D03*
X031456Y033565D03*
X046831Y035385D03*
X046831Y036065D03*
D14*
X031248Y035726D03*
X030668Y035726D03*
X017373Y040476D03*
X016793Y040476D03*
X015123Y027476D03*
X014543Y027476D03*
X012994Y024850D03*
X012414Y024850D03*
X010994Y024850D03*
X010414Y024850D03*
X011414Y021850D03*
X011994Y021850D03*
X017918Y019976D03*
X018498Y019976D03*
X014873Y016101D03*
X014293Y016101D03*
X017043Y015976D03*
X017623Y015976D03*
X023043Y012226D03*
X023623Y012226D03*
X023623Y011351D03*
X023043Y011351D03*
X023043Y010476D03*
X023623Y010476D03*
X024231Y009164D03*
X024811Y009164D03*
X049043Y005101D03*
X049623Y005101D03*
X054793Y005101D03*
X055373Y005101D03*
X069164Y043350D03*
X069744Y043350D03*
D15*
X067976Y042225D03*
X069061Y042100D03*
X070101Y042100D03*
X066936Y042225D03*
X035726Y036100D03*
X034686Y036100D03*
X032601Y034850D03*
X031561Y034850D03*
X031726Y036600D03*
X030686Y036600D03*
X027726Y045600D03*
X026686Y045600D03*
X015413Y036100D03*
X015413Y035100D03*
X014373Y035100D03*
X014373Y036100D03*
D16*
X024956Y045080D03*
X024956Y046120D03*
X034081Y034870D03*
X034081Y033830D03*
X033206Y033870D03*
X033206Y032830D03*
X014956Y015120D03*
X014956Y014080D03*
X021893Y011870D03*
X021893Y010830D03*
D17*
X016744Y014600D03*
X016174Y014600D03*
X012113Y008851D03*
X011543Y008851D03*
X008363Y009976D03*
X007793Y009976D03*
X010418Y030101D03*
X010988Y030101D03*
X011113Y034038D03*
X010543Y034038D03*
X029043Y036476D03*
X029613Y036476D03*
X053049Y035225D03*
X053619Y035225D03*
D18*
X040581Y037063D03*
X040581Y037633D03*
X035831Y034513D03*
X035831Y033943D03*
X033831Y039750D03*
X033831Y040320D03*
X034706Y019695D03*
X034706Y019125D03*
X030831Y008695D03*
X030831Y008125D03*
X007894Y012131D03*
X007894Y012701D03*
X066831Y020563D03*
X066831Y021133D03*
D19*
X012011Y032725D03*
X010901Y032725D03*
D20*
X010684Y028476D03*
X011728Y028475D03*
D21*
X030581Y028453D03*
X030581Y029498D03*
X064456Y044203D03*
X064456Y045248D03*
D22*
X048706Y033780D03*
X048706Y032670D03*
D23*
X018531Y013016D02*
X017131Y013016D01*
X017131Y010435D01*
X018531Y010435D01*
X018531Y013016D01*
D24*
X016756Y011725D03*
X016756Y011725D03*
D25*
X018906Y011725D03*
X018906Y011725D03*
X018906Y010815D03*
X018906Y010815D03*
X018906Y012635D03*
X018906Y012635D03*
M02*
