G75*
G70*
%OFA0B0*%
%FSLAX24Y24*%
%IPPOS*%
%LPD*%
%AMOC8*
5,1,8,0,0,1.08239X$1,22.5*
%
%ADD10C,0.0780*%
%ADD11C,0.2049*%
%ADD12C,0.0715*%
%ADD13C,0.0710*%
%ADD14C,0.0635*%
%ADD15C,0.0940*%
%ADD16OC8,0.0715*%
%ADD17C,0.0715*%
%ADD18OC8,0.0940*%
%ADD19C,0.0749*%
%ADD20C,0.1346*%
%ADD21C,0.0907*%
%ADD22C,0.0915*%
%ADD23C,0.1270*%
%ADD24R,0.0580X0.1080*%
%ADD25R,0.0360X0.0640*%
%ADD26C,0.0710*%
%ADD27C,0.0513*%
%ADD28C,0.0143*%
%ADD29C,0.0795*%
%ADD30C,0.0867*%
%ADD31C,0.1261*%
D10*
X050268Y034001D03*
X050268Y035001D03*
X051268Y035001D03*
X051268Y034001D03*
X052268Y034001D03*
X053268Y034001D03*
X054268Y034001D03*
X055268Y034001D03*
X056268Y034001D03*
X057268Y034001D03*
X058268Y034001D03*
X059268Y034001D03*
X059268Y033001D03*
X058268Y033001D03*
X057268Y033001D03*
X056268Y033001D03*
X055268Y033001D03*
X054268Y033001D03*
X053268Y033001D03*
X052268Y033001D03*
X051268Y033001D03*
X051268Y036001D03*
X050268Y036001D03*
X050268Y037001D03*
X051268Y037001D03*
X051268Y038001D03*
X050268Y038001D03*
X050268Y039001D03*
X051268Y039001D03*
X051268Y040001D03*
X050268Y040001D03*
X050268Y041001D03*
X050268Y042001D03*
X051268Y042001D03*
X051268Y041001D03*
X051268Y043001D03*
X050268Y043001D03*
X050268Y044001D03*
X051268Y044001D03*
X052268Y044001D03*
X053268Y044001D03*
X054268Y044001D03*
X055268Y044001D03*
X056268Y044001D03*
X057268Y044001D03*
X058268Y044001D03*
X059268Y044001D03*
X059268Y045001D03*
X058268Y045001D03*
X057268Y045001D03*
X056268Y045001D03*
X055268Y045001D03*
X054268Y045001D03*
X053268Y045001D03*
X052268Y045001D03*
X051268Y045001D03*
X060268Y045001D03*
X061268Y045001D03*
X061268Y044001D03*
X060268Y044001D03*
X061268Y043001D03*
X062268Y043001D03*
X062268Y044001D03*
X062268Y042001D03*
X061268Y042001D03*
X061268Y041001D03*
X061268Y040001D03*
X062268Y040001D03*
X062268Y041001D03*
X062268Y039001D03*
X061268Y039001D03*
X061268Y038001D03*
X062268Y038001D03*
X062268Y037001D03*
X061268Y037001D03*
X061268Y036001D03*
X062268Y036001D03*
X062268Y035001D03*
X061268Y035001D03*
X061268Y034001D03*
X060268Y034001D03*
X060268Y033001D03*
X061268Y033001D03*
X062268Y034001D03*
D11*
X058018Y037251D03*
X054518Y037251D03*
X054518Y040751D03*
X058018Y040751D03*
X056643Y049501D03*
X077018Y048251D03*
X036143Y031251D03*
X016893Y016251D03*
X051518Y014251D03*
X071893Y016751D03*
X017518Y048251D03*
D12*
X021076Y048501D02*
X021711Y048501D01*
X021711Y049501D02*
X021076Y049501D01*
X021076Y047501D02*
X021711Y047501D01*
X021711Y046501D02*
X021076Y046501D01*
X021076Y045501D02*
X021711Y045501D01*
X021711Y044501D02*
X021076Y044501D01*
X021076Y043501D02*
X021711Y043501D01*
X021711Y042501D02*
X021076Y042501D01*
X021076Y041501D02*
X021711Y041501D01*
X021711Y040501D02*
X021076Y040501D01*
X021076Y039501D02*
X021711Y039501D01*
X021711Y038501D02*
X021076Y038501D01*
X021076Y037501D02*
X021711Y037501D01*
X021711Y036501D02*
X021076Y036501D01*
X021076Y035501D02*
X021711Y035501D01*
X021711Y034501D02*
X021076Y034501D01*
X021147Y032007D02*
X021147Y031372D01*
X020147Y031372D02*
X020147Y032007D01*
X022147Y032007D02*
X022147Y031372D01*
X023147Y031372D02*
X023147Y032007D01*
X024147Y032007D02*
X024147Y031372D01*
X025147Y031372D02*
X025147Y032007D01*
X026147Y032007D02*
X026147Y031372D01*
X027147Y031372D02*
X027147Y032007D01*
X028147Y032007D02*
X028147Y031372D01*
X029147Y031372D02*
X029147Y032007D01*
X027711Y034501D02*
X027076Y034501D01*
X027076Y035501D02*
X027711Y035501D01*
X027711Y036501D02*
X027076Y036501D01*
X027076Y037501D02*
X027711Y037501D01*
X027711Y038501D02*
X027076Y038501D01*
X027076Y039501D02*
X027711Y039501D01*
X027711Y040501D02*
X027076Y040501D01*
X027076Y041501D02*
X027711Y041501D01*
X027711Y042501D02*
X027076Y042501D01*
X027076Y043501D02*
X027711Y043501D01*
X027711Y044501D02*
X027076Y044501D01*
X027076Y045501D02*
X027711Y045501D01*
X027711Y046501D02*
X027076Y046501D01*
X027076Y047501D02*
X027711Y047501D01*
X027711Y048501D02*
X027076Y048501D01*
X027076Y049501D02*
X027711Y049501D01*
X030248Y049496D02*
X030883Y049496D01*
X030883Y048496D02*
X030248Y048496D01*
X030248Y047496D02*
X030883Y047496D01*
X030883Y046496D02*
X030248Y046496D01*
X030248Y045496D02*
X030883Y045496D01*
X030883Y044496D02*
X030248Y044496D01*
X030248Y043496D02*
X030883Y043496D01*
X030883Y042496D02*
X030248Y042496D01*
X030248Y041496D02*
X030883Y041496D01*
X030883Y040496D02*
X030248Y040496D01*
X033248Y040496D02*
X033883Y040496D01*
X033883Y041496D02*
X033248Y041496D01*
X033248Y042496D02*
X033883Y042496D01*
X033883Y043496D02*
X033248Y043496D01*
X033248Y044496D02*
X033883Y044496D01*
X033883Y045496D02*
X033248Y045496D01*
X033248Y046496D02*
X033883Y046496D01*
X033883Y047496D02*
X033248Y047496D01*
X033248Y048496D02*
X033883Y048496D01*
X033883Y049496D02*
X033248Y049496D01*
X035947Y049497D02*
X036582Y049497D01*
X036582Y048497D02*
X035947Y048497D01*
X035947Y047497D02*
X036582Y047497D01*
X036582Y046497D02*
X035947Y046497D01*
X035947Y045497D02*
X036582Y045497D01*
X036582Y044497D02*
X035947Y044497D01*
X035947Y043497D02*
X036582Y043497D01*
X036582Y042497D02*
X035947Y042497D01*
X035947Y041497D02*
X036582Y041497D01*
X036582Y040497D02*
X035947Y040497D01*
X038947Y040497D02*
X039582Y040497D01*
X040701Y040501D02*
X041336Y040501D01*
X041336Y039501D02*
X040701Y039501D01*
X040701Y038501D02*
X041336Y038501D01*
X041336Y037501D02*
X040701Y037501D01*
X040701Y036501D02*
X041336Y036501D01*
X041336Y035501D02*
X040701Y035501D01*
X046701Y035501D02*
X047336Y035501D01*
X047336Y036501D02*
X046701Y036501D01*
X046701Y037501D02*
X047336Y037501D01*
X047336Y038501D02*
X046701Y038501D01*
X046701Y039501D02*
X047336Y039501D01*
X047336Y040501D02*
X046701Y040501D01*
X046701Y041501D02*
X047336Y041501D01*
X047336Y042501D02*
X046701Y042501D01*
X046701Y043501D02*
X047336Y043501D01*
X047336Y044501D02*
X046701Y044501D01*
X046701Y045501D02*
X047336Y045501D01*
X047336Y046501D02*
X046701Y046501D01*
X046701Y047501D02*
X047336Y047501D01*
X047336Y048501D02*
X046701Y048501D01*
X041336Y048501D02*
X040701Y048501D01*
X039582Y048497D02*
X038947Y048497D01*
X038947Y049497D02*
X039582Y049497D01*
X039582Y047497D02*
X038947Y047497D01*
X038947Y046497D02*
X039582Y046497D01*
X039582Y045497D02*
X038947Y045497D01*
X040701Y045501D02*
X041336Y045501D01*
X041336Y046501D02*
X040701Y046501D01*
X040701Y047501D02*
X041336Y047501D01*
X041336Y044501D02*
X040701Y044501D01*
X040701Y043501D02*
X041336Y043501D01*
X041336Y042501D02*
X040701Y042501D01*
X040701Y041501D02*
X041336Y041501D01*
X039582Y041497D02*
X038947Y041497D01*
X038947Y042497D02*
X039582Y042497D01*
X039582Y043497D02*
X038947Y043497D01*
X038947Y044497D02*
X039582Y044497D01*
X029147Y029007D02*
X029147Y028372D01*
X028147Y028372D02*
X028147Y029007D01*
X027147Y029007D02*
X027147Y028372D01*
X026147Y028372D02*
X026147Y029007D01*
X025147Y029007D02*
X025147Y028372D01*
X024147Y028372D02*
X024147Y029007D01*
X023147Y029007D02*
X023147Y028372D01*
X022147Y028372D02*
X022147Y029007D01*
X021147Y029007D02*
X021147Y028372D01*
X020147Y028372D02*
X020147Y029007D01*
X021076Y023376D02*
X021711Y023376D01*
X021711Y022376D02*
X021076Y022376D01*
X021076Y021376D02*
X021711Y021376D01*
X021711Y020376D02*
X021076Y020376D01*
X021076Y019376D02*
X021711Y019376D01*
X021711Y018376D02*
X021076Y018376D01*
X021076Y017376D02*
X021711Y017376D01*
X021711Y016376D02*
X021076Y016376D01*
X021076Y015376D02*
X021711Y015376D01*
X021711Y014376D02*
X021076Y014376D01*
X021076Y013376D02*
X021711Y013376D01*
X021711Y012376D02*
X021076Y012376D01*
X021076Y011376D02*
X021711Y011376D01*
X021711Y010376D02*
X021076Y010376D01*
X021076Y009376D02*
X021711Y009376D01*
X021711Y008376D02*
X021076Y008376D01*
X027076Y008376D02*
X027711Y008376D01*
X027711Y009376D02*
X027076Y009376D01*
X027076Y010376D02*
X027711Y010376D01*
X027711Y011376D02*
X027076Y011376D01*
X027076Y012376D02*
X027711Y012376D01*
X027711Y013376D02*
X027076Y013376D01*
X027076Y014376D02*
X027711Y014376D01*
X027711Y015376D02*
X027076Y015376D01*
X027076Y016376D02*
X027711Y016376D01*
X027711Y017376D02*
X027076Y017376D01*
X027076Y018376D02*
X027711Y018376D01*
X027711Y019376D02*
X027076Y019376D01*
X027076Y020376D02*
X027711Y020376D01*
X027711Y021376D02*
X027076Y021376D01*
X027076Y022376D02*
X027711Y022376D01*
X027711Y023376D02*
X027076Y023376D01*
X030951Y023376D02*
X031586Y023376D01*
X031586Y022376D02*
X030951Y022376D01*
X030951Y021376D02*
X031586Y021376D01*
X031586Y020376D02*
X030951Y020376D01*
X030951Y019376D02*
X031586Y019376D01*
X031586Y018376D02*
X030951Y018376D01*
X030951Y017376D02*
X031586Y017376D01*
X031586Y016376D02*
X030951Y016376D01*
X030951Y015376D02*
X031586Y015376D01*
X031586Y014376D02*
X030951Y014376D01*
X030951Y013376D02*
X031586Y013376D01*
X031586Y012376D02*
X030951Y012376D01*
X030951Y011376D02*
X031586Y011376D01*
X031586Y010376D02*
X030951Y010376D01*
X030951Y009376D02*
X031586Y009376D01*
X031586Y008376D02*
X030951Y008376D01*
X036951Y008376D02*
X037586Y008376D01*
X037586Y009376D02*
X036951Y009376D01*
X036951Y010376D02*
X037586Y010376D01*
X037586Y011376D02*
X036951Y011376D01*
X036951Y012376D02*
X037586Y012376D01*
X037586Y013376D02*
X036951Y013376D01*
X036951Y014376D02*
X037586Y014376D01*
X037586Y015376D02*
X036951Y015376D01*
X036951Y016376D02*
X037586Y016376D01*
X037586Y017376D02*
X036951Y017376D01*
X036951Y018376D02*
X037586Y018376D01*
X037586Y019376D02*
X036951Y019376D01*
X036951Y020376D02*
X037586Y020376D01*
X037586Y021376D02*
X036951Y021376D01*
X036951Y022376D02*
X037586Y022376D01*
X037586Y023376D02*
X036951Y023376D01*
X036951Y024376D02*
X037586Y024376D01*
X037586Y025376D02*
X036951Y025376D01*
X036951Y026376D02*
X037586Y026376D01*
X037586Y027376D02*
X036951Y027376D01*
X041326Y027376D02*
X041961Y027376D01*
X041961Y026376D02*
X041326Y026376D01*
X041326Y025376D02*
X041961Y025376D01*
X041961Y024376D02*
X041326Y024376D01*
X041326Y023376D02*
X041961Y023376D01*
X041961Y022376D02*
X041326Y022376D01*
X041326Y021376D02*
X041961Y021376D01*
X041961Y020376D02*
X041326Y020376D01*
X041326Y019376D02*
X041961Y019376D01*
X041961Y018376D02*
X041326Y018376D01*
X041326Y017376D02*
X041961Y017376D01*
X041961Y016376D02*
X041326Y016376D01*
X041326Y015376D02*
X041961Y015376D01*
X041961Y014376D02*
X041326Y014376D01*
X041326Y013376D02*
X041961Y013376D01*
X041961Y012376D02*
X041326Y012376D01*
X041326Y011376D02*
X041961Y011376D01*
X041961Y010376D02*
X041326Y010376D01*
X041326Y009376D02*
X041961Y009376D01*
X041961Y008376D02*
X041326Y008376D01*
X047326Y008376D02*
X047961Y008376D01*
X047961Y009376D02*
X047326Y009376D01*
X047326Y010376D02*
X047961Y010376D01*
X047961Y011376D02*
X047326Y011376D01*
X047326Y012376D02*
X047961Y012376D01*
X047961Y013376D02*
X047326Y013376D01*
X047326Y014376D02*
X047961Y014376D01*
X047961Y015376D02*
X047326Y015376D01*
X047326Y016376D02*
X047961Y016376D01*
X047961Y017376D02*
X047326Y017376D01*
X047326Y018376D02*
X047961Y018376D01*
X047961Y019376D02*
X047326Y019376D01*
X047326Y020376D02*
X047961Y020376D01*
X047961Y021376D02*
X047326Y021376D01*
X047326Y022376D02*
X047961Y022376D01*
X047961Y023376D02*
X047326Y023376D01*
X047326Y024376D02*
X047961Y024376D01*
X047961Y025376D02*
X047326Y025376D01*
X047326Y026376D02*
X047961Y026376D01*
X047961Y027376D02*
X047326Y027376D01*
X051393Y023193D02*
X051393Y022558D01*
X052393Y022558D02*
X052393Y023193D01*
X053393Y023193D02*
X053393Y022558D01*
X054393Y022558D02*
X054393Y023193D01*
X055393Y023193D02*
X055393Y022558D01*
X056393Y022558D02*
X056393Y023193D01*
X057393Y023193D02*
X057393Y022558D01*
X058393Y022558D02*
X058393Y023193D01*
X059393Y023193D02*
X059393Y022558D01*
X060393Y022558D02*
X060393Y023193D01*
X061393Y023193D02*
X061393Y022558D01*
X062393Y022558D02*
X062393Y023193D01*
X063393Y023193D02*
X063393Y022558D01*
X064393Y022558D02*
X064393Y023193D01*
X065393Y023193D02*
X065393Y022558D01*
X066393Y022558D02*
X066393Y023193D01*
X067393Y023193D02*
X067393Y022558D01*
X068393Y022558D02*
X068393Y023193D01*
X069393Y023193D02*
X069393Y022558D01*
X070393Y022558D02*
X070393Y023193D01*
X073826Y023501D02*
X074461Y023501D01*
X074461Y024501D02*
X073826Y024501D01*
X073826Y025501D02*
X074461Y025501D01*
X074268Y027558D02*
X074268Y028193D01*
X073268Y028193D02*
X073268Y027558D01*
X072268Y027558D02*
X072268Y028193D01*
X075268Y028193D02*
X075268Y027558D01*
X076268Y027558D02*
X076268Y028193D01*
X077268Y028193D02*
X077268Y027558D01*
X078268Y027558D02*
X078268Y028193D01*
X078461Y025501D02*
X077826Y025501D01*
X077826Y024501D02*
X078461Y024501D01*
X078461Y023501D02*
X077826Y023501D01*
X077826Y022501D02*
X078461Y022501D01*
X078461Y021501D02*
X077826Y021501D01*
X077826Y020501D02*
X078461Y020501D01*
X078461Y019501D02*
X077826Y019501D01*
X077826Y018501D02*
X078461Y018501D01*
X078461Y017501D02*
X077826Y017501D01*
X077826Y016501D02*
X078461Y016501D01*
X078461Y015501D02*
X077826Y015501D01*
X077826Y014501D02*
X078461Y014501D01*
X074461Y014501D02*
X073826Y014501D01*
X073826Y015501D02*
X074461Y015501D01*
X074461Y016501D02*
X073826Y016501D01*
X073826Y017501D02*
X074461Y017501D01*
X074461Y018501D02*
X073826Y018501D01*
X073826Y019501D02*
X074461Y019501D01*
X074461Y020501D02*
X073826Y020501D01*
X073826Y021501D02*
X074461Y021501D01*
X074461Y022501D02*
X073826Y022501D01*
X070393Y017193D02*
X070393Y016558D01*
X069393Y016558D02*
X069393Y017193D01*
X068393Y017193D02*
X068393Y016558D01*
X067393Y016558D02*
X067393Y017193D01*
X066393Y017193D02*
X066393Y016558D01*
X065393Y016558D02*
X065393Y017193D01*
X064393Y017193D02*
X064393Y016558D01*
X063393Y016558D02*
X063393Y017193D01*
X062393Y017193D02*
X062393Y016558D01*
X061393Y016558D02*
X061393Y017193D01*
X060393Y017193D02*
X060393Y016558D01*
X059393Y016558D02*
X059393Y017193D01*
X058393Y017193D02*
X058393Y016558D01*
X057393Y016558D02*
X057393Y017193D01*
X056393Y017193D02*
X056393Y016558D01*
X055393Y016558D02*
X055393Y017193D01*
X054393Y017193D02*
X054393Y016558D01*
X053393Y016558D02*
X053393Y017193D01*
X052393Y017193D02*
X052393Y016558D01*
X051393Y016558D02*
X051393Y017193D01*
X031586Y024376D02*
X030951Y024376D01*
X030951Y025376D02*
X031586Y025376D01*
X031586Y026376D02*
X030951Y026376D01*
X030951Y027376D02*
X031586Y027376D01*
X066451Y034876D02*
X067086Y034876D01*
X067086Y035876D02*
X066451Y035876D01*
X066451Y036876D02*
X067086Y036876D01*
X072268Y031193D02*
X072268Y030558D01*
X073268Y030558D02*
X073268Y031193D01*
X074268Y031193D02*
X074268Y030558D01*
X075268Y030558D02*
X075268Y031193D01*
X076268Y031193D02*
X076268Y030558D01*
X077268Y030558D02*
X077268Y031193D01*
X078268Y031193D02*
X078268Y030558D01*
D13*
X044333Y035501D02*
X043704Y035501D01*
X043704Y036501D02*
X044333Y036501D01*
X044333Y037501D02*
X043704Y037501D01*
X043704Y038501D02*
X044333Y038501D01*
X044333Y039501D02*
X043704Y039501D01*
X043704Y040501D02*
X044333Y040501D01*
X044333Y041501D02*
X043704Y041501D01*
X043704Y042501D02*
X044333Y042501D01*
X044333Y043501D02*
X043704Y043501D01*
X043704Y044501D02*
X044333Y044501D01*
X044333Y045501D02*
X043704Y045501D01*
X043704Y046501D02*
X044333Y046501D01*
X044333Y047501D02*
X043704Y047501D01*
X043704Y048501D02*
X044333Y048501D01*
D14*
X070366Y027751D02*
X070921Y027751D01*
X070921Y025751D02*
X070366Y025751D01*
X075893Y032223D02*
X075893Y032778D01*
X077893Y032778D02*
X077893Y032223D01*
D15*
X074393Y036501D03*
X072893Y036751D03*
X072893Y035751D03*
X070268Y035251D03*
X069268Y035751D03*
X068393Y035001D03*
X069268Y036876D03*
X065268Y039376D03*
X064018Y039876D03*
X064268Y041376D03*
X064268Y045376D03*
X055831Y043126D03*
X056268Y039938D03*
X052893Y039876D03*
X044268Y031876D03*
X041268Y030876D03*
X041768Y028376D03*
X043018Y028251D03*
X045643Y028126D03*
X051268Y029876D03*
X052143Y027626D03*
X053268Y027626D03*
X055143Y030001D03*
X056268Y030001D03*
X057393Y030001D03*
X058768Y031501D03*
X060268Y031501D03*
X062143Y030626D03*
X063143Y031626D03*
X061393Y029251D03*
X060393Y029126D03*
X062268Y028751D03*
X068643Y032251D03*
X064018Y035876D03*
X047643Y049626D03*
X033143Y037501D03*
X036268Y034626D03*
X038268Y033376D03*
X034643Y032001D03*
X031643Y028626D03*
X034143Y027501D03*
X033393Y026626D03*
X035081Y023376D03*
X038643Y023501D03*
X039768Y027001D03*
X039143Y028626D03*
X045143Y020751D03*
X044643Y019876D03*
X045018Y016876D03*
X039268Y015751D03*
X035643Y012626D03*
X033518Y013876D03*
X032768Y013251D03*
X034768Y014501D03*
X033393Y015751D03*
X035081Y019376D03*
X038643Y019876D03*
X039893Y010876D03*
X039393Y009501D03*
X033518Y010501D03*
X025143Y013376D03*
X024768Y010376D03*
X020268Y016876D03*
X019518Y018501D03*
X016518Y020876D03*
X016768Y023251D03*
X018893Y025001D03*
X019768Y023501D03*
X016393Y012626D03*
X019143Y036126D03*
X024393Y047876D03*
D16*
X058018Y015251D03*
X060143Y015001D03*
X057393Y012626D03*
X055518Y014001D03*
X064018Y015126D03*
X068643Y015001D03*
X072893Y025876D03*
D17*
X072893Y024876D03*
X070643Y025801D03*
X070643Y027701D03*
X076068Y032501D03*
X077968Y032501D03*
X071872Y036354D03*
X057018Y015251D03*
X054518Y014001D03*
X056393Y012626D03*
X061143Y015001D03*
X063018Y015126D03*
X067643Y015001D03*
D18*
X066143Y029626D03*
X065143Y029626D03*
X065143Y030626D03*
X065143Y031626D03*
X066143Y031626D03*
X066143Y030626D03*
X066143Y032626D03*
X065143Y032626D03*
X065143Y033626D03*
X066143Y033626D03*
X068643Y033251D03*
X069643Y033251D03*
X070643Y033251D03*
X070643Y032251D03*
X069643Y032251D03*
D19*
X016430Y010347D03*
X017257Y010347D03*
X018280Y010347D03*
X019107Y010347D03*
X019107Y011331D03*
X016430Y011331D03*
D20*
X017768Y008851D03*
D21*
X058893Y047251D03*
X058893Y048251D03*
X058893Y049251D03*
X060893Y049251D03*
X060893Y048251D03*
X060893Y047251D03*
X062893Y047251D03*
X062893Y048251D03*
X062893Y049251D03*
X064893Y049251D03*
X064893Y048251D03*
X064893Y047251D03*
D22*
X065143Y013293D02*
X065143Y012458D01*
X066643Y012458D02*
X066643Y013293D01*
X068143Y013293D02*
X068143Y012458D01*
X067393Y011293D02*
X067393Y010458D01*
X065893Y010458D02*
X065893Y011293D01*
X064393Y011293D02*
X064393Y010458D01*
X062893Y010458D02*
X062893Y011293D01*
X061393Y011293D02*
X061393Y010458D01*
X059893Y010458D02*
X059893Y011293D01*
X058393Y011293D02*
X058393Y010458D01*
X057643Y012458D02*
X057643Y013293D01*
X059143Y013293D02*
X059143Y012458D01*
X060643Y012458D02*
X060643Y013293D01*
X062143Y013293D02*
X062143Y012458D01*
X063643Y012458D02*
X063643Y013293D01*
X068893Y011293D02*
X068893Y010458D01*
X070393Y010458D02*
X070393Y011293D01*
X069643Y012458D02*
X069643Y013293D01*
X071143Y013293D02*
X071143Y012458D01*
X071893Y011293D02*
X071893Y010458D01*
X072643Y012458D02*
X072643Y013293D01*
D23*
X075543Y010976D03*
X075543Y009576D03*
X054743Y009576D03*
X054743Y010976D03*
D24*
X066093Y038501D03*
X065393Y044001D03*
X076093Y044001D03*
X076093Y038501D03*
D25*
X075593Y037701D03*
X075093Y037701D03*
X074593Y037701D03*
X073993Y037701D03*
X072993Y037701D03*
X071993Y037701D03*
X070993Y037701D03*
X069993Y037701D03*
X068993Y037701D03*
X067993Y037701D03*
X066993Y037701D03*
D26*
X066993Y038901D03*
D27*
X075293Y038901D03*
D28*
X070952Y035601D02*
X070880Y035529D01*
X070880Y035765D01*
X071047Y035932D01*
X071283Y035932D01*
X071450Y035765D01*
X071450Y035529D01*
X071283Y035362D01*
X071047Y035362D01*
X070880Y035529D01*
X070987Y035573D01*
X070987Y035721D01*
X071091Y035825D01*
X071239Y035825D01*
X071343Y035721D01*
X071343Y035573D01*
X071239Y035469D01*
X071091Y035469D01*
X070987Y035573D01*
X071095Y035618D01*
X071095Y035676D01*
X071136Y035717D01*
X071194Y035717D01*
X071235Y035676D01*
X071235Y035618D01*
X071194Y035577D01*
X071136Y035577D01*
X071095Y035618D01*
D29*
X071911Y021251D02*
X072626Y021251D01*
X072626Y020251D02*
X071911Y020251D01*
X071911Y019251D02*
X072626Y019251D01*
X075018Y013108D02*
X075018Y012393D01*
X076018Y012393D02*
X076018Y013108D01*
X077018Y013108D02*
X077018Y012393D01*
D30*
X062393Y024126D03*
X061393Y024126D03*
X060393Y024126D03*
X059393Y024126D03*
X058393Y024126D03*
X057393Y024126D03*
X056393Y024126D03*
X056393Y027126D03*
X057393Y027126D03*
X058393Y027126D03*
X059393Y027126D03*
X060393Y027126D03*
X061393Y027126D03*
X062393Y027126D03*
D31*
X050268Y011094D03*
X051351Y010110D03*
X050268Y009126D03*
M02*
