G75*
G70*
%OFA0B0*%
%FSLAX24Y24*%
%IPPOS*%
%LPD*%
%AMOC8*
5,1,8,0,0,1.08239X$1,22.5*
%
%ADD10C,0.0160*%
%ADD11C,0.0240*%
%ADD12C,0.0051*%
%ADD13C,0.0110*%
%ADD14C,0.0080*%
%ADD15C,0.0060*%
%ADD16C,0.0050*%
%ADD17C,0.0010*%
%ADD18C,0.0070*%
%ADD19C,0.0320*%
%ADD20C,0.0120*%
%ADD21C,0.0040*%
%ADD22R,0.0240X0.0340*%
%ADD23R,0.0200X0.1000*%
%ADD24R,0.0200X0.0200*%
%ADD25C,0.0100*%
%ADD26R,0.0118X0.0827*%
%ADD27R,0.1000X0.0200*%
%ADD28C,0.0020*%
%ADD29C,0.0025*%
%ADD30C,0.0098*%
%ADD31R,0.0551X0.0256*%
%ADD32R,0.0290X0.0690*%
%ADD33R,0.0571X0.0295*%
%ADD34C,0.0000*%
D10*
X026095Y018393D02*
X027345Y018393D01*
X028720Y017518D01*
X026095Y018393D02*
X025220Y019768D01*
X019970Y021893D02*
X019470Y021518D01*
X015845Y021518D01*
X015095Y023268D01*
X024970Y023456D02*
X024970Y024456D01*
D11*
X024793Y019518D02*
X024798Y019705D01*
X024811Y019891D01*
X024834Y020076D01*
X024866Y020260D01*
X024907Y020442D01*
X024957Y020622D01*
X025015Y020799D01*
X025082Y020973D01*
X025158Y021144D01*
X025242Y021310D01*
X025334Y021473D01*
X025434Y021630D01*
X025541Y021783D01*
X025656Y021930D01*
X025778Y022071D01*
X025907Y022206D01*
X026042Y022335D01*
X026183Y022457D01*
X026330Y022572D01*
X026483Y022679D01*
X026640Y022779D01*
X026803Y022871D01*
X026969Y022955D01*
X027140Y023031D01*
X027314Y023098D01*
X027491Y023156D01*
X027671Y023206D01*
X027853Y023247D01*
X028037Y023279D01*
X028222Y023302D01*
X028408Y023315D01*
X028595Y023320D01*
X028782Y023315D01*
X028968Y023302D01*
X029153Y023279D01*
X029337Y023247D01*
X029519Y023206D01*
X029699Y023156D01*
X029876Y023098D01*
X030050Y023031D01*
X030221Y022955D01*
X030387Y022871D01*
X030550Y022779D01*
X030707Y022679D01*
X030860Y022572D01*
X031007Y022457D01*
X031148Y022335D01*
X031283Y022206D01*
X031412Y022071D01*
X031534Y021930D01*
X031649Y021783D01*
X031756Y021630D01*
X031856Y021473D01*
X031948Y021310D01*
X032032Y021144D01*
X032108Y020973D01*
X032175Y020799D01*
X032233Y020622D01*
X032283Y020442D01*
X032324Y020260D01*
X032356Y020076D01*
X032379Y019891D01*
X032392Y019705D01*
X032397Y019518D01*
X032392Y019331D01*
X032379Y019145D01*
X032356Y018960D01*
X032324Y018776D01*
X032283Y018594D01*
X032233Y018414D01*
X032175Y018237D01*
X032108Y018063D01*
X032032Y017892D01*
X031948Y017726D01*
X031856Y017563D01*
X031756Y017406D01*
X031649Y017253D01*
X031534Y017106D01*
X031412Y016965D01*
X031283Y016830D01*
X031148Y016701D01*
X031007Y016579D01*
X030860Y016464D01*
X030707Y016357D01*
X030550Y016257D01*
X030387Y016165D01*
X030221Y016081D01*
X030050Y016005D01*
X029876Y015938D01*
X029699Y015880D01*
X029519Y015830D01*
X029337Y015789D01*
X029153Y015757D01*
X028968Y015734D01*
X028782Y015721D01*
X028595Y015716D01*
X028408Y015721D01*
X028222Y015734D01*
X028037Y015757D01*
X027853Y015789D01*
X027671Y015830D01*
X027491Y015880D01*
X027314Y015938D01*
X027140Y016005D01*
X026969Y016081D01*
X026803Y016165D01*
X026640Y016257D01*
X026483Y016357D01*
X026330Y016464D01*
X026183Y016579D01*
X026042Y016701D01*
X025907Y016830D01*
X025778Y016965D01*
X025656Y017106D01*
X025541Y017253D01*
X025434Y017406D01*
X025334Y017563D01*
X025242Y017726D01*
X025158Y017892D01*
X025082Y018063D01*
X025015Y018237D01*
X024957Y018414D01*
X024907Y018594D01*
X024866Y018776D01*
X024834Y018960D01*
X024811Y019145D01*
X024798Y019331D01*
X024793Y019518D01*
X013793Y021518D02*
X013798Y021705D01*
X013811Y021891D01*
X013834Y022076D01*
X013866Y022260D01*
X013907Y022442D01*
X013957Y022622D01*
X014015Y022799D01*
X014082Y022973D01*
X014158Y023144D01*
X014242Y023310D01*
X014334Y023473D01*
X014434Y023630D01*
X014541Y023783D01*
X014656Y023930D01*
X014778Y024071D01*
X014907Y024206D01*
X015042Y024335D01*
X015183Y024457D01*
X015330Y024572D01*
X015483Y024679D01*
X015640Y024779D01*
X015803Y024871D01*
X015969Y024955D01*
X016140Y025031D01*
X016314Y025098D01*
X016491Y025156D01*
X016671Y025206D01*
X016853Y025247D01*
X017037Y025279D01*
X017222Y025302D01*
X017408Y025315D01*
X017595Y025320D01*
X017782Y025315D01*
X017968Y025302D01*
X018153Y025279D01*
X018337Y025247D01*
X018519Y025206D01*
X018699Y025156D01*
X018876Y025098D01*
X019050Y025031D01*
X019221Y024955D01*
X019387Y024871D01*
X019550Y024779D01*
X019707Y024679D01*
X019860Y024572D01*
X020007Y024457D01*
X020148Y024335D01*
X020283Y024206D01*
X020412Y024071D01*
X020534Y023930D01*
X020649Y023783D01*
X020756Y023630D01*
X020856Y023473D01*
X020948Y023310D01*
X021032Y023144D01*
X021108Y022973D01*
X021175Y022799D01*
X021233Y022622D01*
X021283Y022442D01*
X021324Y022260D01*
X021356Y022076D01*
X021379Y021891D01*
X021392Y021705D01*
X021397Y021518D01*
X021392Y021331D01*
X021379Y021145D01*
X021356Y020960D01*
X021324Y020776D01*
X021283Y020594D01*
X021233Y020414D01*
X021175Y020237D01*
X021108Y020063D01*
X021032Y019892D01*
X020948Y019726D01*
X020856Y019563D01*
X020756Y019406D01*
X020649Y019253D01*
X020534Y019106D01*
X020412Y018965D01*
X020283Y018830D01*
X020148Y018701D01*
X020007Y018579D01*
X019860Y018464D01*
X019707Y018357D01*
X019550Y018257D01*
X019387Y018165D01*
X019221Y018081D01*
X019050Y018005D01*
X018876Y017938D01*
X018699Y017880D01*
X018519Y017830D01*
X018337Y017789D01*
X018153Y017757D01*
X017968Y017734D01*
X017782Y017721D01*
X017595Y017716D01*
X017408Y017721D01*
X017222Y017734D01*
X017037Y017757D01*
X016853Y017789D01*
X016671Y017830D01*
X016491Y017880D01*
X016314Y017938D01*
X016140Y018005D01*
X015969Y018081D01*
X015803Y018165D01*
X015640Y018257D01*
X015483Y018357D01*
X015330Y018464D01*
X015183Y018579D01*
X015042Y018701D01*
X014907Y018830D01*
X014778Y018965D01*
X014656Y019106D01*
X014541Y019253D01*
X014434Y019406D01*
X014334Y019563D01*
X014242Y019726D01*
X014158Y019892D01*
X014082Y020063D01*
X014015Y020237D01*
X013957Y020414D01*
X013907Y020594D01*
X013866Y020776D01*
X013834Y020960D01*
X013811Y021145D01*
X013798Y021331D01*
X013793Y021518D01*
X017220Y020081D02*
X017220Y019681D01*
X017220Y016481D02*
X017220Y016081D01*
X016970Y014581D02*
X016970Y014181D01*
X016970Y010981D02*
X016970Y010581D01*
X004045Y020631D02*
X003345Y020631D01*
X003345Y022531D02*
X004045Y022531D01*
X010845Y028693D02*
X011545Y028693D01*
X011545Y030593D02*
X010845Y030593D01*
X032908Y020893D02*
X032908Y015768D01*
X046158Y032456D02*
X046158Y032856D01*
X046158Y036056D02*
X046158Y036456D01*
D12*
X000220Y004393D02*
X000220Y000126D01*
X000220Y000893D02*
X001244Y000791D01*
X001244Y000768D02*
X000220Y000893D01*
X001244Y000996D01*
X001244Y001019D02*
X001244Y000768D01*
X001244Y000842D02*
X000220Y000893D01*
X001244Y000944D01*
X001244Y001019D02*
X000220Y000893D01*
X066595Y000893D01*
X065571Y000791D01*
X065571Y000768D02*
X066595Y000893D01*
X065571Y000996D01*
X065571Y001019D02*
X065571Y000768D01*
X065571Y000842D02*
X066595Y000893D01*
X065571Y000944D01*
X065571Y001019D02*
X066595Y000893D01*
X066595Y000126D02*
X066595Y004393D01*
X067470Y005018D02*
X070238Y005018D01*
X069470Y005018D02*
X069572Y006042D01*
X069596Y006042D02*
X069470Y005018D01*
X069368Y006042D01*
X069344Y006042D02*
X069596Y006042D01*
X069521Y006042D02*
X069470Y005018D01*
X069419Y006042D01*
X069344Y006042D02*
X069470Y005018D01*
X069470Y049268D01*
X069572Y048245D01*
X069596Y048245D02*
X069470Y049268D01*
X069368Y048245D01*
X069344Y048245D02*
X069596Y048245D01*
X069521Y048245D02*
X069470Y049268D01*
X069419Y048245D01*
X069344Y048245D02*
X069470Y049268D01*
X070238Y049268D02*
X067220Y049268D01*
D13*
X068385Y029958D02*
X068385Y029112D01*
X067750Y029747D01*
X069019Y029747D01*
X069019Y028690D02*
X068808Y028690D01*
X068808Y028478D01*
X069019Y028478D01*
X069019Y028690D01*
X069019Y028055D02*
X069019Y027209D01*
X068173Y028055D01*
X067962Y028055D01*
X067750Y027844D01*
X067750Y027421D01*
X067962Y027209D01*
X067750Y026363D02*
X069019Y026363D01*
X069019Y025940D02*
X069019Y026786D01*
X068173Y025940D02*
X067750Y026363D01*
X069019Y025518D02*
X069019Y024672D01*
X069019Y025095D02*
X067750Y025095D01*
X068173Y024672D01*
X037003Y002402D02*
X036792Y002613D01*
X036368Y002613D01*
X036157Y002402D01*
X036157Y002190D01*
X036368Y001978D01*
X037003Y001978D01*
X037003Y001555D02*
X037003Y002402D01*
X037003Y001555D02*
X036792Y001344D01*
X036368Y001344D01*
X036157Y001555D01*
X035734Y001555D02*
X035523Y001344D01*
X035100Y001344D01*
X034888Y001555D01*
X034465Y001555D02*
X034465Y001344D01*
X034254Y001344D01*
X034254Y001555D01*
X034465Y001555D01*
X034888Y001978D02*
X035311Y002190D01*
X035523Y002190D01*
X035734Y001978D01*
X035734Y001555D01*
X034888Y001978D02*
X034888Y002613D01*
X035734Y002613D01*
X033831Y002402D02*
X033831Y002190D01*
X033620Y001978D01*
X033196Y001978D01*
X032985Y002190D01*
X032985Y002402D01*
X033196Y002613D01*
X033620Y002613D01*
X033831Y002402D01*
X033620Y001978D02*
X033831Y001767D01*
X033831Y001555D01*
X033620Y001344D01*
X033196Y001344D01*
X032985Y001555D01*
X032985Y001767D01*
X033196Y001978D01*
X032562Y001767D02*
X032351Y001978D01*
X031716Y001978D01*
X031716Y001555D01*
X031928Y001344D01*
X032351Y001344D01*
X032562Y001555D01*
X032562Y001767D01*
X032139Y002402D02*
X031716Y001978D01*
X032139Y002402D02*
X032562Y002613D01*
X030870Y002613D02*
X030870Y001344D01*
X030447Y001344D02*
X031293Y001344D01*
X030447Y002190D02*
X030870Y002613D01*
D14*
X061955Y040433D02*
X061885Y040503D01*
X061885Y040784D01*
X061955Y040854D01*
X062095Y040854D01*
X062165Y040784D01*
X062165Y040503D02*
X062095Y040433D01*
X061955Y040433D01*
X062885Y040433D02*
X062885Y040854D01*
X063095Y040854D01*
X063165Y040784D01*
X063165Y040503D01*
X063095Y040433D01*
X062885Y040433D01*
X063885Y040573D02*
X063885Y040854D01*
X064165Y040854D02*
X064165Y040573D01*
X064025Y040433D01*
X063885Y040573D01*
X064885Y040503D02*
X064955Y040433D01*
X065095Y040433D01*
X065165Y040503D01*
X065165Y040643D01*
X065025Y040643D01*
X064885Y040503D02*
X064885Y040784D01*
X064955Y040854D01*
X065095Y040854D01*
X065165Y040784D01*
X066226Y044074D02*
X060714Y044074D01*
X060714Y048956D01*
X066226Y048956D01*
X066226Y044074D01*
X066226Y048562D02*
X060714Y048562D01*
D15*
X060432Y048368D02*
X060326Y048261D01*
X060112Y048261D01*
X060005Y048368D01*
X060005Y048795D01*
X060112Y048901D01*
X060326Y048901D01*
X060432Y048795D01*
X059788Y048795D02*
X059361Y048368D01*
X059468Y048261D01*
X059681Y048261D01*
X059788Y048368D01*
X059788Y048795D01*
X059681Y048901D01*
X059468Y048901D01*
X059361Y048795D01*
X059361Y048368D01*
X059143Y048261D02*
X058716Y048261D01*
X059143Y048688D01*
X059143Y048795D01*
X059037Y048901D01*
X058823Y048901D01*
X058716Y048795D01*
X058499Y048795D02*
X058072Y048368D01*
X058179Y048261D01*
X058392Y048261D01*
X058499Y048368D01*
X058499Y048795D01*
X058392Y048901D01*
X058179Y048901D01*
X058072Y048795D01*
X058072Y048368D01*
X057854Y048368D02*
X057748Y048261D01*
X057534Y048261D01*
X057427Y048368D01*
X057427Y048795D01*
X057534Y048901D01*
X057748Y048901D01*
X057854Y048795D01*
X057210Y048795D02*
X057210Y048368D01*
X057103Y048261D01*
X056889Y048261D01*
X056783Y048368D01*
X056889Y048581D02*
X057210Y048581D01*
X057210Y048795D02*
X057103Y048901D01*
X056889Y048901D01*
X056783Y048795D01*
X056783Y048688D01*
X056889Y048581D01*
X056565Y048688D02*
X056565Y048795D01*
X056458Y048901D01*
X056245Y048901D01*
X056138Y048795D01*
X055921Y048901D02*
X055921Y048261D01*
X055707Y048474D01*
X055494Y048261D01*
X055494Y048901D01*
X055007Y048795D02*
X055007Y048688D01*
X054901Y048581D01*
X054687Y048581D01*
X054580Y048688D01*
X054580Y048795D01*
X054687Y048901D01*
X054901Y048901D01*
X055007Y048795D01*
X054901Y048581D02*
X055007Y048474D01*
X055007Y048368D01*
X054901Y048261D01*
X054687Y048261D01*
X054580Y048368D01*
X054580Y048474D01*
X054687Y048581D01*
X054363Y048368D02*
X054363Y048795D01*
X054256Y048901D01*
X053936Y048901D01*
X053936Y048261D01*
X054256Y048261D01*
X054363Y048368D01*
X054195Y048081D02*
X056445Y048081D01*
X056565Y048261D02*
X056138Y048261D01*
X056565Y048688D01*
X056445Y048081D02*
X056447Y048042D01*
X056453Y048003D01*
X056462Y047965D01*
X056475Y047928D01*
X056492Y047892D01*
X056512Y047859D01*
X056536Y047827D01*
X056562Y047798D01*
X056591Y047772D01*
X056623Y047748D01*
X056656Y047728D01*
X056692Y047711D01*
X056729Y047698D01*
X056767Y047689D01*
X056806Y047683D01*
X056845Y047681D01*
X056884Y047683D01*
X056923Y047689D01*
X056961Y047698D01*
X056998Y047711D01*
X057034Y047728D01*
X057067Y047748D01*
X057099Y047772D01*
X057128Y047798D01*
X057154Y047827D01*
X057178Y047859D01*
X057198Y047892D01*
X057215Y047928D01*
X057228Y047965D01*
X057237Y048003D01*
X057243Y048042D01*
X057245Y048081D01*
X059495Y048081D01*
X059495Y032081D01*
X054195Y032081D01*
X054195Y048081D01*
X053718Y048368D02*
X053718Y048795D01*
X053612Y048901D01*
X053291Y048901D01*
X053291Y048261D01*
X053612Y048261D01*
X053718Y048368D01*
X049620Y048081D02*
X047320Y048081D01*
X047316Y048186D02*
X047743Y048186D01*
X047961Y048293D02*
X047961Y048399D01*
X048068Y048506D01*
X048281Y048506D01*
X048388Y048399D01*
X048388Y048293D01*
X048281Y048186D01*
X048068Y048186D01*
X047961Y048293D01*
X048068Y048506D02*
X047961Y048613D01*
X047961Y048720D01*
X048068Y048826D01*
X048281Y048826D01*
X048388Y048720D01*
X048388Y048613D01*
X048281Y048506D01*
X048605Y048293D02*
X049032Y048720D01*
X049032Y048293D01*
X048926Y048186D01*
X048712Y048186D01*
X048605Y048293D01*
X048605Y048720D01*
X048712Y048826D01*
X048926Y048826D01*
X049032Y048720D01*
X049620Y048081D02*
X049620Y028081D01*
X044320Y028081D01*
X044320Y048081D01*
X046520Y048081D01*
X046507Y048211D02*
X046080Y048211D01*
X046294Y048211D02*
X046294Y048851D01*
X046080Y048638D01*
X045863Y048745D02*
X045756Y048851D01*
X045436Y048851D01*
X045436Y048211D01*
X045756Y048211D01*
X045863Y048318D01*
X045863Y048745D01*
X045218Y048745D02*
X045218Y048318D01*
X045112Y048211D01*
X044791Y048211D01*
X044791Y048851D01*
X045112Y048851D01*
X045218Y048745D01*
X046520Y048081D02*
X046522Y048042D01*
X046528Y048003D01*
X046537Y047965D01*
X046550Y047928D01*
X046567Y047892D01*
X046587Y047859D01*
X046611Y047827D01*
X046637Y047798D01*
X046666Y047772D01*
X046698Y047748D01*
X046731Y047728D01*
X046767Y047711D01*
X046804Y047698D01*
X046842Y047689D01*
X046881Y047683D01*
X046920Y047681D01*
X046959Y047683D01*
X046998Y047689D01*
X047036Y047698D01*
X047073Y047711D01*
X047109Y047728D01*
X047142Y047748D01*
X047174Y047772D01*
X047203Y047798D01*
X047229Y047827D01*
X047253Y047859D01*
X047273Y047892D01*
X047290Y047928D01*
X047303Y047965D01*
X047312Y048003D01*
X047318Y048042D01*
X047320Y048081D01*
X047316Y048186D02*
X047316Y048293D01*
X047743Y048720D01*
X047743Y048826D01*
X047316Y048826D01*
X039195Y048481D02*
X039195Y027681D01*
X037095Y027681D01*
X037093Y027725D01*
X037087Y027768D01*
X037078Y027810D01*
X037065Y027852D01*
X037048Y027892D01*
X037028Y027931D01*
X037005Y027968D01*
X036978Y028002D01*
X036949Y028035D01*
X036916Y028064D01*
X036882Y028091D01*
X036845Y028114D01*
X036806Y028134D01*
X036766Y028151D01*
X036724Y028164D01*
X036682Y028173D01*
X036639Y028179D01*
X036595Y028181D01*
X036551Y028179D01*
X036508Y028173D01*
X036466Y028164D01*
X036424Y028151D01*
X036384Y028134D01*
X036345Y028114D01*
X036308Y028091D01*
X036274Y028064D01*
X036241Y028035D01*
X036212Y028002D01*
X036185Y027968D01*
X036162Y027931D01*
X036142Y027892D01*
X036125Y027852D01*
X036112Y027810D01*
X036103Y027768D01*
X036097Y027725D01*
X036095Y027681D01*
X033995Y027681D01*
X033995Y048481D01*
X039195Y048481D01*
X029095Y046281D02*
X029095Y045081D01*
X025345Y045081D01*
X025345Y046281D01*
X025345Y049431D01*
X006845Y049431D01*
X006845Y046281D01*
X006845Y045081D01*
X008195Y045081D01*
X008195Y043581D01*
X008195Y042581D01*
X008445Y042331D01*
X008745Y042331D01*
X008995Y042581D01*
X008995Y043581D01*
X008995Y044031D01*
X009195Y044231D01*
X009195Y044481D01*
X009495Y044481D01*
X009495Y044231D01*
X009695Y044031D01*
X009695Y043581D01*
X009695Y042581D01*
X009945Y042331D01*
X010245Y042331D01*
X010495Y042581D01*
X010495Y043581D01*
X010495Y044031D01*
X010695Y044231D01*
X010695Y044481D01*
X010995Y044481D01*
X010995Y044231D01*
X011195Y044031D01*
X011195Y043581D01*
X011195Y042581D01*
X011445Y042331D01*
X011745Y042331D01*
X011995Y042581D01*
X011995Y043581D01*
X011995Y044031D01*
X012195Y044231D01*
X012195Y044481D01*
X012495Y044481D01*
X012495Y044231D01*
X012695Y044031D01*
X012695Y043581D01*
X012695Y042581D01*
X012945Y042331D01*
X013245Y042331D01*
X013495Y042581D01*
X013495Y043581D01*
X013495Y044031D01*
X013695Y044231D01*
X013695Y044481D01*
X013995Y044481D01*
X013995Y044231D01*
X014195Y044031D01*
X014195Y043581D01*
X014195Y042581D01*
X014445Y042331D01*
X014745Y042331D01*
X014995Y042581D01*
X014995Y043581D01*
X014995Y044031D01*
X015195Y044231D01*
X015195Y044481D01*
X015495Y044481D01*
X015495Y044231D01*
X015695Y044031D01*
X015695Y043581D01*
X015695Y042581D01*
X015945Y042331D01*
X016245Y042331D01*
X016495Y042581D01*
X016495Y043581D01*
X016495Y044031D01*
X016695Y044231D01*
X016695Y044481D01*
X016995Y044481D01*
X016995Y044231D01*
X017195Y044031D01*
X017195Y043581D01*
X017195Y042581D01*
X017445Y042331D01*
X017745Y042331D01*
X017995Y042581D01*
X017995Y043581D01*
X017995Y044031D01*
X018195Y044231D01*
X018195Y044481D01*
X018495Y044481D01*
X018495Y044231D01*
X018695Y044031D01*
X018695Y043581D01*
X018695Y042581D01*
X018945Y042331D01*
X019245Y042331D01*
X019495Y042581D01*
X019495Y043581D01*
X019495Y044031D01*
X019695Y044231D01*
X019695Y044481D01*
X019995Y044481D01*
X019995Y044231D01*
X020195Y044031D01*
X020195Y043581D01*
X020195Y042581D01*
X020445Y042331D01*
X020745Y042331D01*
X020995Y042581D01*
X020995Y043581D01*
X020995Y044031D01*
X021195Y044231D01*
X021195Y044481D01*
X021495Y044481D01*
X021495Y044231D01*
X021695Y044031D01*
X021695Y043581D01*
X021695Y042581D01*
X021945Y042331D01*
X022245Y042331D01*
X022495Y042581D01*
X022495Y043581D01*
X022495Y044031D01*
X022695Y044231D01*
X022695Y044481D01*
X022995Y044481D01*
X022995Y044231D01*
X023195Y044031D01*
X023195Y043581D01*
X023195Y042581D01*
X023445Y042331D01*
X023745Y042331D01*
X023995Y042581D01*
X023995Y043581D01*
X023995Y045081D01*
X025345Y045081D01*
X025845Y044256D02*
X025845Y044106D01*
X025995Y044106D01*
X025845Y044106D02*
X025845Y043956D01*
X025845Y044106D02*
X025695Y044106D01*
X025345Y044106D02*
X025345Y043756D01*
X025845Y043756D01*
X025845Y043556D01*
X024845Y043556D01*
X024845Y043756D01*
X025345Y043756D01*
X024245Y043456D02*
X024247Y043522D01*
X024253Y043587D01*
X024263Y043652D01*
X024276Y043717D01*
X024294Y043780D01*
X024315Y043843D01*
X024340Y043903D01*
X024369Y043963D01*
X024401Y044020D01*
X024436Y044076D01*
X024475Y044129D01*
X024517Y044180D01*
X024561Y044228D01*
X024609Y044273D01*
X024659Y044316D01*
X024712Y044355D01*
X024767Y044392D01*
X024824Y044425D01*
X024883Y044454D01*
X024943Y044480D01*
X025005Y044502D01*
X025068Y044521D01*
X025132Y044535D01*
X025197Y044546D01*
X025263Y044553D01*
X025329Y044556D01*
X025394Y044555D01*
X025460Y044550D01*
X025525Y044541D01*
X025590Y044528D01*
X025653Y044512D01*
X025716Y044492D01*
X025777Y044467D01*
X025837Y044440D01*
X025895Y044409D01*
X025951Y044374D01*
X026005Y044336D01*
X026056Y044295D01*
X026105Y044251D01*
X026151Y044204D01*
X026195Y044155D01*
X026235Y044103D01*
X026272Y044048D01*
X026306Y043992D01*
X026336Y043933D01*
X026363Y043873D01*
X026386Y043812D01*
X026405Y043749D01*
X026421Y043685D01*
X026433Y043620D01*
X026441Y043555D01*
X026445Y043489D01*
X026445Y043423D01*
X026441Y043357D01*
X026433Y043292D01*
X026421Y043227D01*
X026405Y043163D01*
X026386Y043100D01*
X026363Y043039D01*
X026336Y042979D01*
X026306Y042920D01*
X026272Y042864D01*
X026235Y042809D01*
X026195Y042757D01*
X026151Y042708D01*
X026105Y042661D01*
X026056Y042617D01*
X026005Y042576D01*
X025951Y042538D01*
X025895Y042503D01*
X025837Y042472D01*
X025777Y042445D01*
X025716Y042420D01*
X025653Y042400D01*
X025590Y042384D01*
X025525Y042371D01*
X025460Y042362D01*
X025394Y042357D01*
X025329Y042356D01*
X025263Y042359D01*
X025197Y042366D01*
X025132Y042377D01*
X025068Y042391D01*
X025005Y042410D01*
X024943Y042432D01*
X024883Y042458D01*
X024824Y042487D01*
X024767Y042520D01*
X024712Y042557D01*
X024659Y042596D01*
X024609Y042639D01*
X024561Y042684D01*
X024517Y042732D01*
X024475Y042783D01*
X024436Y042836D01*
X024401Y042892D01*
X024369Y042949D01*
X024340Y043009D01*
X024315Y043069D01*
X024294Y043132D01*
X024276Y043195D01*
X024263Y043260D01*
X024253Y043325D01*
X024247Y043390D01*
X024245Y043456D01*
X025345Y043206D02*
X025345Y042806D01*
X027095Y041918D02*
X027095Y041568D01*
X027595Y041568D01*
X027595Y041368D01*
X026595Y041368D01*
X026595Y041568D01*
X027095Y041568D01*
X025495Y041268D02*
X025497Y041348D01*
X025503Y041427D01*
X025513Y041506D01*
X025527Y041585D01*
X025544Y041663D01*
X025566Y041740D01*
X025591Y041815D01*
X025621Y041889D01*
X025653Y041962D01*
X025690Y042033D01*
X025730Y042102D01*
X025773Y042169D01*
X025820Y042234D01*
X025869Y042296D01*
X025922Y042356D01*
X025978Y042413D01*
X026036Y042468D01*
X026097Y042519D01*
X026161Y042567D01*
X026227Y042612D01*
X026295Y042654D01*
X026365Y042692D01*
X026437Y042726D01*
X026510Y042757D01*
X026585Y042785D01*
X026662Y042808D01*
X026739Y042828D01*
X026817Y042844D01*
X026896Y042856D01*
X026975Y042864D01*
X027055Y042868D01*
X027135Y042868D01*
X027215Y042864D01*
X027294Y042856D01*
X027373Y042844D01*
X027451Y042828D01*
X027528Y042808D01*
X027605Y042785D01*
X027680Y042757D01*
X027753Y042726D01*
X027825Y042692D01*
X027895Y042654D01*
X027963Y042612D01*
X028029Y042567D01*
X028093Y042519D01*
X028154Y042468D01*
X028212Y042413D01*
X028268Y042356D01*
X028321Y042296D01*
X028370Y042234D01*
X028417Y042169D01*
X028460Y042102D01*
X028500Y042033D01*
X028537Y041962D01*
X028569Y041889D01*
X028599Y041815D01*
X028624Y041740D01*
X028646Y041663D01*
X028663Y041585D01*
X028677Y041506D01*
X028687Y041427D01*
X028693Y041348D01*
X028695Y041268D01*
X028693Y041188D01*
X028687Y041109D01*
X028677Y041030D01*
X028663Y040951D01*
X028646Y040873D01*
X028624Y040796D01*
X028599Y040721D01*
X028569Y040647D01*
X028537Y040574D01*
X028500Y040503D01*
X028460Y040434D01*
X028417Y040367D01*
X028370Y040302D01*
X028321Y040240D01*
X028268Y040180D01*
X028212Y040123D01*
X028154Y040068D01*
X028093Y040017D01*
X028029Y039969D01*
X027963Y039924D01*
X027895Y039882D01*
X027825Y039844D01*
X027753Y039810D01*
X027680Y039779D01*
X027605Y039751D01*
X027528Y039728D01*
X027451Y039708D01*
X027373Y039692D01*
X027294Y039680D01*
X027215Y039672D01*
X027135Y039668D01*
X027055Y039668D01*
X026975Y039672D01*
X026896Y039680D01*
X026817Y039692D01*
X026739Y039708D01*
X026662Y039728D01*
X026585Y039751D01*
X026510Y039779D01*
X026437Y039810D01*
X026365Y039844D01*
X026295Y039882D01*
X026227Y039924D01*
X026161Y039969D01*
X026097Y040017D01*
X026036Y040068D01*
X025978Y040123D01*
X025922Y040180D01*
X025869Y040240D01*
X025820Y040302D01*
X025773Y040367D01*
X025730Y040434D01*
X025690Y040503D01*
X025653Y040574D01*
X025621Y040647D01*
X025591Y040721D01*
X025566Y040796D01*
X025544Y040873D01*
X025527Y040951D01*
X025513Y041030D01*
X025503Y041109D01*
X025497Y041188D01*
X025495Y041268D01*
X024495Y040831D02*
X024145Y040831D01*
X024145Y040331D01*
X023945Y040331D01*
X023945Y041331D01*
X024145Y041331D01*
X024145Y040831D01*
X022845Y040831D02*
X022847Y040894D01*
X022853Y040956D01*
X022863Y041018D01*
X022876Y041080D01*
X022894Y041140D01*
X022915Y041199D01*
X022940Y041257D01*
X022969Y041313D01*
X023001Y041367D01*
X023036Y041419D01*
X023074Y041468D01*
X023116Y041516D01*
X023160Y041560D01*
X023208Y041602D01*
X023257Y041640D01*
X023309Y041675D01*
X023363Y041707D01*
X023419Y041736D01*
X023477Y041761D01*
X023536Y041782D01*
X023596Y041800D01*
X023658Y041813D01*
X023720Y041823D01*
X023782Y041829D01*
X023845Y041831D01*
X023908Y041829D01*
X023970Y041823D01*
X024032Y041813D01*
X024094Y041800D01*
X024154Y041782D01*
X024213Y041761D01*
X024271Y041736D01*
X024327Y041707D01*
X024381Y041675D01*
X024433Y041640D01*
X024482Y041602D01*
X024530Y041560D01*
X024574Y041516D01*
X024616Y041468D01*
X024654Y041419D01*
X024689Y041367D01*
X024721Y041313D01*
X024750Y041257D01*
X024775Y041199D01*
X024796Y041140D01*
X024814Y041080D01*
X024827Y041018D01*
X024837Y040956D01*
X024843Y040894D01*
X024845Y040831D01*
X024843Y040768D01*
X024837Y040706D01*
X024827Y040644D01*
X024814Y040582D01*
X024796Y040522D01*
X024775Y040463D01*
X024750Y040405D01*
X024721Y040349D01*
X024689Y040295D01*
X024654Y040243D01*
X024616Y040194D01*
X024574Y040146D01*
X024530Y040102D01*
X024482Y040060D01*
X024433Y040022D01*
X024381Y039987D01*
X024327Y039955D01*
X024271Y039926D01*
X024213Y039901D01*
X024154Y039880D01*
X024094Y039862D01*
X024032Y039849D01*
X023970Y039839D01*
X023908Y039833D01*
X023845Y039831D01*
X023782Y039833D01*
X023720Y039839D01*
X023658Y039849D01*
X023596Y039862D01*
X023536Y039880D01*
X023477Y039901D01*
X023419Y039926D01*
X023363Y039955D01*
X023309Y039987D01*
X023257Y040022D01*
X023208Y040060D01*
X023160Y040102D01*
X023116Y040146D01*
X023074Y040194D01*
X023036Y040243D01*
X023001Y040295D01*
X022969Y040349D01*
X022940Y040405D01*
X022915Y040463D01*
X022894Y040522D01*
X022876Y040582D01*
X022863Y040644D01*
X022853Y040706D01*
X022847Y040768D01*
X022845Y040831D01*
X023195Y040831D02*
X023595Y040831D01*
X024295Y040331D02*
X024395Y040331D01*
X024395Y040231D01*
X024395Y040331D02*
X024395Y040431D01*
X024395Y040331D02*
X024495Y040331D01*
X027095Y040618D02*
X027095Y041018D01*
X027545Y042318D02*
X027545Y042618D01*
X027395Y042468D02*
X027695Y042468D01*
X027595Y044681D02*
X027595Y046681D01*
X029095Y046281D02*
X025345Y046281D01*
X023995Y045081D02*
X023445Y045081D01*
X022245Y045081D01*
X021945Y045081D01*
X020745Y045081D01*
X020445Y045081D01*
X019245Y045081D01*
X018945Y045081D01*
X017745Y045081D01*
X017445Y045081D01*
X016245Y045081D01*
X015945Y045081D01*
X014745Y045081D01*
X014445Y045081D01*
X013245Y045081D01*
X012945Y045081D01*
X011745Y045081D01*
X011445Y045081D01*
X010245Y045081D01*
X009945Y045081D01*
X008745Y045081D01*
X008195Y045081D01*
X006845Y045081D02*
X003095Y045081D01*
X003095Y046281D01*
X006845Y046281D01*
X004595Y046681D02*
X004595Y044681D01*
X004345Y043456D02*
X004095Y043206D01*
X003845Y043456D01*
X003345Y043456D01*
X003095Y043206D01*
X003095Y042706D01*
X003345Y042456D01*
X003845Y042456D01*
X004095Y042706D01*
X004345Y042456D01*
X004845Y042456D01*
X005095Y042706D01*
X005345Y042456D01*
X005845Y042456D01*
X006095Y042706D01*
X006095Y043206D01*
X005845Y043456D01*
X005345Y043456D01*
X005095Y043206D01*
X004845Y043456D01*
X004345Y043456D01*
X002520Y042143D02*
X002520Y041643D01*
X002520Y041143D01*
X002320Y041143D01*
X002320Y042143D01*
X002520Y042143D01*
X002520Y041643D02*
X002870Y041643D01*
X002870Y041293D02*
X002870Y041143D01*
X002870Y040993D01*
X002870Y041143D02*
X002720Y041143D01*
X002870Y041143D02*
X003020Y041143D01*
X001120Y041643D02*
X001122Y041709D01*
X001128Y041774D01*
X001138Y041839D01*
X001151Y041904D01*
X001169Y041967D01*
X001190Y042030D01*
X001215Y042090D01*
X001244Y042150D01*
X001276Y042207D01*
X001311Y042263D01*
X001350Y042316D01*
X001392Y042367D01*
X001436Y042415D01*
X001484Y042460D01*
X001534Y042503D01*
X001587Y042542D01*
X001642Y042579D01*
X001699Y042612D01*
X001758Y042641D01*
X001818Y042667D01*
X001880Y042689D01*
X001943Y042708D01*
X002007Y042722D01*
X002072Y042733D01*
X002138Y042740D01*
X002204Y042743D01*
X002269Y042742D01*
X002335Y042737D01*
X002400Y042728D01*
X002465Y042715D01*
X002528Y042699D01*
X002591Y042679D01*
X002652Y042654D01*
X002712Y042627D01*
X002770Y042596D01*
X002826Y042561D01*
X002880Y042523D01*
X002931Y042482D01*
X002980Y042438D01*
X003026Y042391D01*
X003070Y042342D01*
X003110Y042290D01*
X003147Y042235D01*
X003181Y042179D01*
X003211Y042120D01*
X003238Y042060D01*
X003261Y041999D01*
X003280Y041936D01*
X003296Y041872D01*
X003308Y041807D01*
X003316Y041742D01*
X003320Y041676D01*
X003320Y041610D01*
X003316Y041544D01*
X003308Y041479D01*
X003296Y041414D01*
X003280Y041350D01*
X003261Y041287D01*
X003238Y041226D01*
X003211Y041166D01*
X003181Y041107D01*
X003147Y041051D01*
X003110Y040996D01*
X003070Y040944D01*
X003026Y040895D01*
X002980Y040848D01*
X002931Y040804D01*
X002880Y040763D01*
X002826Y040725D01*
X002770Y040690D01*
X002712Y040659D01*
X002652Y040632D01*
X002591Y040607D01*
X002528Y040587D01*
X002465Y040571D01*
X002400Y040558D01*
X002335Y040549D01*
X002269Y040544D01*
X002204Y040543D01*
X002138Y040546D01*
X002072Y040553D01*
X002007Y040564D01*
X001943Y040578D01*
X001880Y040597D01*
X001818Y040619D01*
X001758Y040645D01*
X001699Y040674D01*
X001642Y040707D01*
X001587Y040744D01*
X001534Y040783D01*
X001484Y040826D01*
X001436Y040871D01*
X001392Y040919D01*
X001350Y040970D01*
X001311Y041023D01*
X001276Y041079D01*
X001244Y041136D01*
X001215Y041196D01*
X001190Y041256D01*
X001169Y041319D01*
X001151Y041382D01*
X001138Y041447D01*
X001128Y041512D01*
X001122Y041577D01*
X001120Y041643D01*
X001570Y041643D02*
X001970Y041643D01*
X003745Y040381D02*
X003745Y028281D01*
X006945Y028281D01*
X006945Y040381D01*
X005595Y040381D01*
X005593Y040351D01*
X005588Y040321D01*
X005579Y040292D01*
X005566Y040265D01*
X005551Y040239D01*
X005532Y040215D01*
X005511Y040194D01*
X005487Y040175D01*
X005461Y040160D01*
X005434Y040147D01*
X005405Y040138D01*
X005375Y040133D01*
X005345Y040131D01*
X005315Y040133D01*
X005285Y040138D01*
X005256Y040147D01*
X005229Y040160D01*
X005203Y040175D01*
X005179Y040194D01*
X005158Y040215D01*
X005139Y040239D01*
X005124Y040265D01*
X005111Y040292D01*
X005102Y040321D01*
X005097Y040351D01*
X005095Y040381D01*
X003745Y040381D01*
X010320Y041081D02*
X010720Y041081D01*
X009970Y041081D02*
X009972Y041144D01*
X009978Y041206D01*
X009988Y041268D01*
X010001Y041330D01*
X010019Y041390D01*
X010040Y041449D01*
X010065Y041507D01*
X010094Y041563D01*
X010126Y041617D01*
X010161Y041669D01*
X010199Y041718D01*
X010241Y041766D01*
X010285Y041810D01*
X010333Y041852D01*
X010382Y041890D01*
X010434Y041925D01*
X010488Y041957D01*
X010544Y041986D01*
X010602Y042011D01*
X010661Y042032D01*
X010721Y042050D01*
X010783Y042063D01*
X010845Y042073D01*
X010907Y042079D01*
X010970Y042081D01*
X011033Y042079D01*
X011095Y042073D01*
X011157Y042063D01*
X011219Y042050D01*
X011279Y042032D01*
X011338Y042011D01*
X011396Y041986D01*
X011452Y041957D01*
X011506Y041925D01*
X011558Y041890D01*
X011607Y041852D01*
X011655Y041810D01*
X011699Y041766D01*
X011741Y041718D01*
X011779Y041669D01*
X011814Y041617D01*
X011846Y041563D01*
X011875Y041507D01*
X011900Y041449D01*
X011921Y041390D01*
X011939Y041330D01*
X011952Y041268D01*
X011962Y041206D01*
X011968Y041144D01*
X011970Y041081D01*
X011968Y041018D01*
X011962Y040956D01*
X011952Y040894D01*
X011939Y040832D01*
X011921Y040772D01*
X011900Y040713D01*
X011875Y040655D01*
X011846Y040599D01*
X011814Y040545D01*
X011779Y040493D01*
X011741Y040444D01*
X011699Y040396D01*
X011655Y040352D01*
X011607Y040310D01*
X011558Y040272D01*
X011506Y040237D01*
X011452Y040205D01*
X011396Y040176D01*
X011338Y040151D01*
X011279Y040130D01*
X011219Y040112D01*
X011157Y040099D01*
X011095Y040089D01*
X011033Y040083D01*
X010970Y040081D01*
X010907Y040083D01*
X010845Y040089D01*
X010783Y040099D01*
X010721Y040112D01*
X010661Y040130D01*
X010602Y040151D01*
X010544Y040176D01*
X010488Y040205D01*
X010434Y040237D01*
X010382Y040272D01*
X010333Y040310D01*
X010285Y040352D01*
X010241Y040396D01*
X010199Y040444D01*
X010161Y040493D01*
X010126Y040545D01*
X010094Y040599D01*
X010065Y040655D01*
X010040Y040713D01*
X010019Y040772D01*
X010001Y040832D01*
X009988Y040894D01*
X009978Y040956D01*
X009972Y041018D01*
X009970Y041081D01*
X011070Y041581D02*
X011070Y040581D01*
X011270Y040581D01*
X011270Y041081D01*
X011270Y041581D01*
X011070Y041581D01*
X011270Y041081D02*
X011620Y041081D01*
X011520Y040681D02*
X011520Y040581D01*
X011520Y040481D01*
X011520Y040581D02*
X011420Y040581D01*
X011520Y040581D02*
X011620Y040581D01*
X012945Y041456D02*
X013345Y041456D01*
X012495Y041456D02*
X012497Y041522D01*
X012503Y041587D01*
X012513Y041652D01*
X012526Y041717D01*
X012544Y041780D01*
X012565Y041843D01*
X012590Y041903D01*
X012619Y041963D01*
X012651Y042020D01*
X012686Y042076D01*
X012725Y042129D01*
X012767Y042180D01*
X012811Y042228D01*
X012859Y042273D01*
X012909Y042316D01*
X012962Y042355D01*
X013017Y042392D01*
X013074Y042425D01*
X013133Y042454D01*
X013193Y042480D01*
X013255Y042502D01*
X013318Y042521D01*
X013382Y042535D01*
X013447Y042546D01*
X013513Y042553D01*
X013579Y042556D01*
X013644Y042555D01*
X013710Y042550D01*
X013775Y042541D01*
X013840Y042528D01*
X013903Y042512D01*
X013966Y042492D01*
X014027Y042467D01*
X014087Y042440D01*
X014145Y042409D01*
X014201Y042374D01*
X014255Y042336D01*
X014306Y042295D01*
X014355Y042251D01*
X014401Y042204D01*
X014445Y042155D01*
X014485Y042103D01*
X014522Y042048D01*
X014556Y041992D01*
X014586Y041933D01*
X014613Y041873D01*
X014636Y041812D01*
X014655Y041749D01*
X014671Y041685D01*
X014683Y041620D01*
X014691Y041555D01*
X014695Y041489D01*
X014695Y041423D01*
X014691Y041357D01*
X014683Y041292D01*
X014671Y041227D01*
X014655Y041163D01*
X014636Y041100D01*
X014613Y041039D01*
X014586Y040979D01*
X014556Y040920D01*
X014522Y040864D01*
X014485Y040809D01*
X014445Y040757D01*
X014401Y040708D01*
X014355Y040661D01*
X014306Y040617D01*
X014255Y040576D01*
X014201Y040538D01*
X014145Y040503D01*
X014087Y040472D01*
X014027Y040445D01*
X013966Y040420D01*
X013903Y040400D01*
X013840Y040384D01*
X013775Y040371D01*
X013710Y040362D01*
X013644Y040357D01*
X013579Y040356D01*
X013513Y040359D01*
X013447Y040366D01*
X013382Y040377D01*
X013318Y040391D01*
X013255Y040410D01*
X013193Y040432D01*
X013133Y040458D01*
X013074Y040487D01*
X013017Y040520D01*
X012962Y040557D01*
X012909Y040596D01*
X012859Y040639D01*
X012811Y040684D01*
X012767Y040732D01*
X012725Y040783D01*
X012686Y040836D01*
X012651Y040892D01*
X012619Y040949D01*
X012590Y041009D01*
X012565Y041069D01*
X012544Y041132D01*
X012526Y041195D01*
X012513Y041260D01*
X012503Y041325D01*
X012497Y041390D01*
X012495Y041456D01*
X013695Y041956D02*
X013695Y040956D01*
X013895Y040956D01*
X013895Y041456D01*
X013895Y041956D01*
X013695Y041956D01*
X013895Y041456D02*
X014245Y041456D01*
X014245Y041106D02*
X014245Y040956D01*
X014245Y040806D01*
X014245Y040956D02*
X014095Y040956D01*
X014245Y040956D02*
X014395Y040956D01*
X015695Y041456D02*
X016095Y041456D01*
X015245Y041456D02*
X015247Y041522D01*
X015253Y041587D01*
X015263Y041652D01*
X015276Y041717D01*
X015294Y041780D01*
X015315Y041843D01*
X015340Y041903D01*
X015369Y041963D01*
X015401Y042020D01*
X015436Y042076D01*
X015475Y042129D01*
X015517Y042180D01*
X015561Y042228D01*
X015609Y042273D01*
X015659Y042316D01*
X015712Y042355D01*
X015767Y042392D01*
X015824Y042425D01*
X015883Y042454D01*
X015943Y042480D01*
X016005Y042502D01*
X016068Y042521D01*
X016132Y042535D01*
X016197Y042546D01*
X016263Y042553D01*
X016329Y042556D01*
X016394Y042555D01*
X016460Y042550D01*
X016525Y042541D01*
X016590Y042528D01*
X016653Y042512D01*
X016716Y042492D01*
X016777Y042467D01*
X016837Y042440D01*
X016895Y042409D01*
X016951Y042374D01*
X017005Y042336D01*
X017056Y042295D01*
X017105Y042251D01*
X017151Y042204D01*
X017195Y042155D01*
X017235Y042103D01*
X017272Y042048D01*
X017306Y041992D01*
X017336Y041933D01*
X017363Y041873D01*
X017386Y041812D01*
X017405Y041749D01*
X017421Y041685D01*
X017433Y041620D01*
X017441Y041555D01*
X017445Y041489D01*
X017445Y041423D01*
X017441Y041357D01*
X017433Y041292D01*
X017421Y041227D01*
X017405Y041163D01*
X017386Y041100D01*
X017363Y041039D01*
X017336Y040979D01*
X017306Y040920D01*
X017272Y040864D01*
X017235Y040809D01*
X017195Y040757D01*
X017151Y040708D01*
X017105Y040661D01*
X017056Y040617D01*
X017005Y040576D01*
X016951Y040538D01*
X016895Y040503D01*
X016837Y040472D01*
X016777Y040445D01*
X016716Y040420D01*
X016653Y040400D01*
X016590Y040384D01*
X016525Y040371D01*
X016460Y040362D01*
X016394Y040357D01*
X016329Y040356D01*
X016263Y040359D01*
X016197Y040366D01*
X016132Y040377D01*
X016068Y040391D01*
X016005Y040410D01*
X015943Y040432D01*
X015883Y040458D01*
X015824Y040487D01*
X015767Y040520D01*
X015712Y040557D01*
X015659Y040596D01*
X015609Y040639D01*
X015561Y040684D01*
X015517Y040732D01*
X015475Y040783D01*
X015436Y040836D01*
X015401Y040892D01*
X015369Y040949D01*
X015340Y041009D01*
X015315Y041069D01*
X015294Y041132D01*
X015276Y041195D01*
X015263Y041260D01*
X015253Y041325D01*
X015247Y041390D01*
X015245Y041456D01*
X016445Y041956D02*
X016445Y040956D01*
X016645Y040956D01*
X016645Y041456D01*
X016645Y041956D01*
X016445Y041956D01*
X016645Y041456D02*
X016995Y041456D01*
X016995Y041106D02*
X016995Y040956D01*
X016995Y040806D01*
X016995Y040956D02*
X016845Y040956D01*
X016995Y040956D02*
X017145Y040956D01*
X018695Y041456D02*
X019095Y041456D01*
X018245Y041456D02*
X018247Y041522D01*
X018253Y041587D01*
X018263Y041652D01*
X018276Y041717D01*
X018294Y041780D01*
X018315Y041843D01*
X018340Y041903D01*
X018369Y041963D01*
X018401Y042020D01*
X018436Y042076D01*
X018475Y042129D01*
X018517Y042180D01*
X018561Y042228D01*
X018609Y042273D01*
X018659Y042316D01*
X018712Y042355D01*
X018767Y042392D01*
X018824Y042425D01*
X018883Y042454D01*
X018943Y042480D01*
X019005Y042502D01*
X019068Y042521D01*
X019132Y042535D01*
X019197Y042546D01*
X019263Y042553D01*
X019329Y042556D01*
X019394Y042555D01*
X019460Y042550D01*
X019525Y042541D01*
X019590Y042528D01*
X019653Y042512D01*
X019716Y042492D01*
X019777Y042467D01*
X019837Y042440D01*
X019895Y042409D01*
X019951Y042374D01*
X020005Y042336D01*
X020056Y042295D01*
X020105Y042251D01*
X020151Y042204D01*
X020195Y042155D01*
X020235Y042103D01*
X020272Y042048D01*
X020306Y041992D01*
X020336Y041933D01*
X020363Y041873D01*
X020386Y041812D01*
X020405Y041749D01*
X020421Y041685D01*
X020433Y041620D01*
X020441Y041555D01*
X020445Y041489D01*
X020445Y041423D01*
X020441Y041357D01*
X020433Y041292D01*
X020421Y041227D01*
X020405Y041163D01*
X020386Y041100D01*
X020363Y041039D01*
X020336Y040979D01*
X020306Y040920D01*
X020272Y040864D01*
X020235Y040809D01*
X020195Y040757D01*
X020151Y040708D01*
X020105Y040661D01*
X020056Y040617D01*
X020005Y040576D01*
X019951Y040538D01*
X019895Y040503D01*
X019837Y040472D01*
X019777Y040445D01*
X019716Y040420D01*
X019653Y040400D01*
X019590Y040384D01*
X019525Y040371D01*
X019460Y040362D01*
X019394Y040357D01*
X019329Y040356D01*
X019263Y040359D01*
X019197Y040366D01*
X019132Y040377D01*
X019068Y040391D01*
X019005Y040410D01*
X018943Y040432D01*
X018883Y040458D01*
X018824Y040487D01*
X018767Y040520D01*
X018712Y040557D01*
X018659Y040596D01*
X018609Y040639D01*
X018561Y040684D01*
X018517Y040732D01*
X018475Y040783D01*
X018436Y040836D01*
X018401Y040892D01*
X018369Y040949D01*
X018340Y041009D01*
X018315Y041069D01*
X018294Y041132D01*
X018276Y041195D01*
X018263Y041260D01*
X018253Y041325D01*
X018247Y041390D01*
X018245Y041456D01*
X019445Y041956D02*
X019445Y040956D01*
X019645Y040956D01*
X019645Y041456D01*
X019645Y041956D01*
X019445Y041956D01*
X019645Y041456D02*
X019995Y041456D01*
X019995Y041106D02*
X019995Y040956D01*
X019995Y040806D01*
X019995Y040956D02*
X019845Y040956D01*
X019995Y040956D02*
X020145Y040956D01*
X010345Y038731D02*
X010345Y033431D01*
X030345Y033431D01*
X030345Y035731D01*
X030306Y035733D01*
X030267Y035739D01*
X030229Y035748D01*
X030192Y035761D01*
X030156Y035778D01*
X030123Y035798D01*
X030091Y035822D01*
X030062Y035848D01*
X030036Y035877D01*
X030012Y035909D01*
X029992Y035942D01*
X029975Y035978D01*
X029962Y036015D01*
X029953Y036053D01*
X029947Y036092D01*
X029945Y036131D01*
X029947Y036170D01*
X029953Y036209D01*
X029962Y036247D01*
X029975Y036284D01*
X029992Y036320D01*
X030012Y036353D01*
X030036Y036385D01*
X030062Y036414D01*
X030091Y036440D01*
X030123Y036464D01*
X030156Y036484D01*
X030192Y036501D01*
X030229Y036514D01*
X030267Y036523D01*
X030306Y036529D01*
X030345Y036531D01*
X030345Y038731D01*
X010345Y038731D01*
X009720Y035081D02*
X009970Y034831D01*
X009970Y034331D01*
X009720Y034081D01*
X009970Y033831D01*
X009970Y033331D01*
X009720Y033081D01*
X009970Y032831D01*
X009970Y032331D01*
X009720Y032081D01*
X009220Y032081D01*
X008970Y032331D01*
X008970Y032831D01*
X009220Y033081D01*
X008970Y033331D01*
X008970Y033831D01*
X009220Y034081D01*
X008970Y034331D01*
X008970Y034831D01*
X009220Y035081D01*
X009720Y035081D01*
X011595Y031643D02*
X016495Y031643D01*
X016525Y031641D01*
X016555Y031636D01*
X016584Y031627D01*
X016611Y031614D01*
X016637Y031599D01*
X016661Y031580D01*
X016682Y031559D01*
X016701Y031535D01*
X016716Y031509D01*
X016729Y031482D01*
X016738Y031453D01*
X016743Y031423D01*
X016745Y031393D01*
X016745Y027893D01*
X016743Y027863D01*
X016738Y027833D01*
X016729Y027804D01*
X016716Y027777D01*
X016701Y027751D01*
X016682Y027727D01*
X016661Y027706D01*
X016637Y027687D01*
X016611Y027672D01*
X016584Y027659D01*
X016555Y027650D01*
X016525Y027645D01*
X016495Y027643D01*
X011595Y027643D01*
X010970Y025956D02*
X012470Y025956D01*
X012720Y025706D01*
X012720Y025206D01*
X012470Y024956D01*
X012720Y024706D01*
X012720Y024206D01*
X012470Y023956D01*
X012720Y023706D01*
X012720Y023206D01*
X012470Y022956D01*
X010970Y022956D01*
X010720Y023206D01*
X010720Y023706D01*
X010970Y023956D01*
X010720Y024206D01*
X010720Y024706D01*
X010970Y024956D01*
X010720Y025206D01*
X010720Y025706D01*
X010970Y025956D01*
X009845Y026981D02*
X009845Y024681D01*
X002845Y024681D01*
X002845Y025431D01*
X002884Y025433D01*
X002923Y025439D01*
X002961Y025448D01*
X002998Y025461D01*
X003034Y025478D01*
X003067Y025498D01*
X003099Y025522D01*
X003128Y025548D01*
X003154Y025577D01*
X003178Y025609D01*
X003198Y025642D01*
X003215Y025678D01*
X003228Y025715D01*
X003237Y025753D01*
X003243Y025792D01*
X003245Y025831D01*
X003243Y025870D01*
X003237Y025909D01*
X003228Y025947D01*
X003215Y025984D01*
X003198Y026020D01*
X003178Y026053D01*
X003154Y026085D01*
X003128Y026114D01*
X003099Y026140D01*
X003067Y026164D01*
X003034Y026184D01*
X002998Y026201D01*
X002961Y026214D01*
X002923Y026223D01*
X002884Y026229D01*
X002845Y026231D01*
X002845Y026981D01*
X009845Y026981D01*
X008870Y029331D02*
X008870Y030331D01*
X008670Y030331D01*
X008670Y029831D01*
X008670Y029331D01*
X008870Y029331D01*
X007970Y029831D02*
X007972Y029894D01*
X007978Y029956D01*
X007988Y030018D01*
X008001Y030080D01*
X008019Y030140D01*
X008040Y030199D01*
X008065Y030257D01*
X008094Y030313D01*
X008126Y030367D01*
X008161Y030419D01*
X008199Y030468D01*
X008241Y030516D01*
X008285Y030560D01*
X008333Y030602D01*
X008382Y030640D01*
X008434Y030675D01*
X008488Y030707D01*
X008544Y030736D01*
X008602Y030761D01*
X008661Y030782D01*
X008721Y030800D01*
X008783Y030813D01*
X008845Y030823D01*
X008907Y030829D01*
X008970Y030831D01*
X009033Y030829D01*
X009095Y030823D01*
X009157Y030813D01*
X009219Y030800D01*
X009279Y030782D01*
X009338Y030761D01*
X009396Y030736D01*
X009452Y030707D01*
X009506Y030675D01*
X009558Y030640D01*
X009607Y030602D01*
X009655Y030560D01*
X009699Y030516D01*
X009741Y030468D01*
X009779Y030419D01*
X009814Y030367D01*
X009846Y030313D01*
X009875Y030257D01*
X009900Y030199D01*
X009921Y030140D01*
X009939Y030080D01*
X009952Y030018D01*
X009962Y029956D01*
X009968Y029894D01*
X009970Y029831D01*
X009968Y029768D01*
X009962Y029706D01*
X009952Y029644D01*
X009939Y029582D01*
X009921Y029522D01*
X009900Y029463D01*
X009875Y029405D01*
X009846Y029349D01*
X009814Y029295D01*
X009779Y029243D01*
X009741Y029194D01*
X009699Y029146D01*
X009655Y029102D01*
X009607Y029060D01*
X009558Y029022D01*
X009506Y028987D01*
X009452Y028955D01*
X009396Y028926D01*
X009338Y028901D01*
X009279Y028880D01*
X009219Y028862D01*
X009157Y028849D01*
X009095Y028839D01*
X009033Y028833D01*
X008970Y028831D01*
X008907Y028833D01*
X008845Y028839D01*
X008783Y028849D01*
X008721Y028862D01*
X008661Y028880D01*
X008602Y028901D01*
X008544Y028926D01*
X008488Y028955D01*
X008434Y028987D01*
X008382Y029022D01*
X008333Y029060D01*
X008285Y029102D01*
X008241Y029146D01*
X008199Y029194D01*
X008161Y029243D01*
X008126Y029295D01*
X008094Y029349D01*
X008065Y029405D01*
X008040Y029463D01*
X008019Y029522D01*
X008001Y029582D01*
X007988Y029644D01*
X007978Y029706D01*
X007972Y029768D01*
X007970Y029831D01*
X008320Y029831D02*
X008670Y029831D01*
X008420Y030231D02*
X008420Y030331D01*
X008420Y030431D01*
X008420Y030331D02*
X008520Y030331D01*
X008420Y030331D02*
X008320Y030331D01*
X009220Y029831D02*
X009620Y029831D01*
X014595Y026581D02*
X014845Y026831D01*
X016345Y026831D01*
X016595Y026581D01*
X016595Y026081D01*
X016345Y025831D01*
X016595Y025581D01*
X016595Y025081D01*
X016345Y024831D01*
X016595Y024581D01*
X016595Y024081D01*
X016345Y023831D01*
X016595Y023581D01*
X016595Y023081D01*
X016345Y022831D01*
X016595Y022581D01*
X016595Y022081D01*
X016345Y021831D01*
X014845Y021831D01*
X014595Y022081D01*
X014595Y022581D01*
X014845Y022831D01*
X014595Y023081D01*
X014595Y023581D01*
X014845Y023831D01*
X014595Y024081D01*
X014595Y024581D01*
X014845Y024831D01*
X014595Y025081D01*
X014595Y025581D01*
X014845Y025831D01*
X014595Y026081D01*
X014595Y026581D01*
X015595Y028893D02*
X015595Y029273D01*
X015595Y030013D02*
X015595Y030393D01*
X018845Y029306D02*
X018845Y031606D01*
X025845Y031606D01*
X025845Y030856D01*
X025806Y030854D01*
X025767Y030848D01*
X025729Y030839D01*
X025692Y030826D01*
X025656Y030809D01*
X025623Y030789D01*
X025591Y030765D01*
X025562Y030739D01*
X025536Y030710D01*
X025512Y030678D01*
X025492Y030645D01*
X025475Y030609D01*
X025462Y030572D01*
X025453Y030534D01*
X025447Y030495D01*
X025445Y030456D01*
X025447Y030417D01*
X025453Y030378D01*
X025462Y030340D01*
X025475Y030303D01*
X025492Y030267D01*
X025512Y030234D01*
X025536Y030202D01*
X025562Y030173D01*
X025591Y030147D01*
X025623Y030123D01*
X025656Y030103D01*
X025692Y030086D01*
X025729Y030073D01*
X025767Y030064D01*
X025806Y030058D01*
X025845Y030056D01*
X025845Y029306D01*
X018845Y029306D01*
X026488Y031095D02*
X026702Y030881D01*
X026702Y030561D01*
X026702Y030881D02*
X026915Y031095D01*
X026915Y031201D01*
X027133Y031201D02*
X027346Y030988D01*
X027560Y031201D01*
X027560Y030561D01*
X027777Y030561D02*
X028204Y030988D01*
X028204Y031095D01*
X028098Y031201D01*
X027884Y031201D01*
X027777Y031095D01*
X027737Y031461D02*
X027416Y031461D01*
X027416Y032101D01*
X027737Y032101D01*
X027843Y031995D01*
X027843Y031568D01*
X027737Y031461D01*
X028061Y031461D02*
X028381Y031461D01*
X028488Y031568D01*
X028488Y031995D01*
X028381Y032101D01*
X028061Y032101D01*
X028061Y031461D01*
X028422Y030988D02*
X028635Y031201D01*
X028635Y030561D01*
X028422Y030561D02*
X028849Y030561D01*
X029066Y030881D02*
X029493Y030881D01*
X029711Y030988D02*
X029818Y030881D01*
X030138Y030881D01*
X030138Y030668D02*
X030138Y031095D01*
X030031Y031201D01*
X029818Y031201D01*
X029711Y031095D01*
X029711Y030988D01*
X029711Y030668D02*
X029818Y030561D01*
X030031Y030561D01*
X030138Y030668D01*
X030355Y030561D02*
X030355Y031201D01*
X030782Y031201D01*
X030569Y030881D02*
X030355Y030881D01*
X029387Y030561D02*
X029387Y031201D01*
X029066Y030881D01*
X029026Y031461D02*
X028812Y031461D01*
X028705Y031568D01*
X028812Y031781D02*
X029132Y031781D01*
X029132Y031568D02*
X029132Y031995D01*
X029026Y032101D01*
X028812Y032101D01*
X028705Y031995D01*
X028705Y031888D01*
X028812Y031781D01*
X029026Y031461D02*
X029132Y031568D01*
X028204Y030561D02*
X027777Y030561D01*
X027133Y030561D02*
X027133Y031201D01*
X026488Y031201D02*
X026488Y031095D01*
X023616Y022893D02*
X023618Y022930D01*
X023624Y022967D01*
X023633Y023002D01*
X023647Y023037D01*
X023663Y023070D01*
X023684Y023101D01*
X023707Y023130D01*
X023733Y023156D01*
X023762Y023179D01*
X023793Y023200D01*
X023826Y023216D01*
X023861Y023230D01*
X023896Y023239D01*
X023933Y023245D01*
X023970Y023247D01*
X024007Y023245D01*
X024044Y023239D01*
X024079Y023230D01*
X024114Y023216D01*
X024147Y023200D01*
X024178Y023179D01*
X024207Y023156D01*
X024233Y023130D01*
X024256Y023101D01*
X024277Y023070D01*
X024293Y023037D01*
X024307Y023002D01*
X024316Y022967D01*
X024322Y022930D01*
X024324Y022893D01*
X024322Y022856D01*
X024316Y022819D01*
X024307Y022784D01*
X024293Y022749D01*
X024277Y022716D01*
X024256Y022685D01*
X024233Y022656D01*
X024207Y022630D01*
X024178Y022607D01*
X024147Y022586D01*
X024114Y022570D01*
X024079Y022556D01*
X024044Y022547D01*
X024007Y022541D01*
X023970Y022539D01*
X023933Y022541D01*
X023896Y022547D01*
X023861Y022556D01*
X023826Y022570D01*
X023793Y022586D01*
X023762Y022607D01*
X023733Y022630D01*
X023707Y022656D01*
X023684Y022685D01*
X023663Y022716D01*
X023647Y022749D01*
X023633Y022784D01*
X023624Y022819D01*
X023618Y022856D01*
X023616Y022893D01*
X022616Y021893D02*
X022618Y021930D01*
X022624Y021967D01*
X022633Y022002D01*
X022647Y022037D01*
X022663Y022070D01*
X022684Y022101D01*
X022707Y022130D01*
X022733Y022156D01*
X022762Y022179D01*
X022793Y022200D01*
X022826Y022216D01*
X022861Y022230D01*
X022896Y022239D01*
X022933Y022245D01*
X022970Y022247D01*
X023007Y022245D01*
X023044Y022239D01*
X023079Y022230D01*
X023114Y022216D01*
X023147Y022200D01*
X023178Y022179D01*
X023207Y022156D01*
X023233Y022130D01*
X023256Y022101D01*
X023277Y022070D01*
X023293Y022037D01*
X023307Y022002D01*
X023316Y021967D01*
X023322Y021930D01*
X023324Y021893D01*
X023322Y021856D01*
X023316Y021819D01*
X023307Y021784D01*
X023293Y021749D01*
X023277Y021716D01*
X023256Y021685D01*
X023233Y021656D01*
X023207Y021630D01*
X023178Y021607D01*
X023147Y021586D01*
X023114Y021570D01*
X023079Y021556D01*
X023044Y021547D01*
X023007Y021541D01*
X022970Y021539D01*
X022933Y021541D01*
X022896Y021547D01*
X022861Y021556D01*
X022826Y021570D01*
X022793Y021586D01*
X022762Y021607D01*
X022733Y021630D01*
X022707Y021656D01*
X022684Y021685D01*
X022663Y021716D01*
X022647Y021749D01*
X022633Y021784D01*
X022624Y021819D01*
X022618Y021856D01*
X022616Y021893D01*
X019616Y021893D02*
X019618Y021930D01*
X019624Y021967D01*
X019633Y022002D01*
X019647Y022037D01*
X019663Y022070D01*
X019684Y022101D01*
X019707Y022130D01*
X019733Y022156D01*
X019762Y022179D01*
X019793Y022200D01*
X019826Y022216D01*
X019861Y022230D01*
X019896Y022239D01*
X019933Y022245D01*
X019970Y022247D01*
X020007Y022245D01*
X020044Y022239D01*
X020079Y022230D01*
X020114Y022216D01*
X020147Y022200D01*
X020178Y022179D01*
X020207Y022156D01*
X020233Y022130D01*
X020256Y022101D01*
X020277Y022070D01*
X020293Y022037D01*
X020307Y022002D01*
X020316Y021967D01*
X020322Y021930D01*
X020324Y021893D01*
X020322Y021856D01*
X020316Y021819D01*
X020307Y021784D01*
X020293Y021749D01*
X020277Y021716D01*
X020256Y021685D01*
X020233Y021656D01*
X020207Y021630D01*
X020178Y021607D01*
X020147Y021586D01*
X020114Y021570D01*
X020079Y021556D01*
X020044Y021547D01*
X020007Y021541D01*
X019970Y021539D01*
X019933Y021541D01*
X019896Y021547D01*
X019861Y021556D01*
X019826Y021570D01*
X019793Y021586D01*
X019762Y021607D01*
X019733Y021630D01*
X019707Y021656D01*
X019684Y021685D01*
X019663Y021716D01*
X019647Y021749D01*
X019633Y021784D01*
X019624Y021819D01*
X019618Y021856D01*
X019616Y021893D01*
X016345Y022831D02*
X015845Y022831D01*
X015595Y022581D01*
X015595Y021831D01*
X016870Y019331D02*
X017570Y019331D01*
X017587Y019329D01*
X017604Y019325D01*
X017620Y019318D01*
X017634Y019308D01*
X017647Y019295D01*
X017657Y019281D01*
X017664Y019265D01*
X017668Y019248D01*
X017670Y019231D01*
X017670Y019081D01*
X017620Y019031D01*
X017620Y017131D01*
X017670Y017081D01*
X017670Y016931D01*
X017668Y016914D01*
X017664Y016897D01*
X017657Y016881D01*
X017647Y016867D01*
X017634Y016854D01*
X017620Y016844D01*
X017604Y016837D01*
X017587Y016833D01*
X017570Y016831D01*
X016870Y016831D01*
X016853Y016833D01*
X016836Y016837D01*
X016820Y016844D01*
X016806Y016854D01*
X016793Y016867D01*
X016783Y016881D01*
X016776Y016897D01*
X016772Y016914D01*
X016770Y016931D01*
X016770Y017081D01*
X016820Y017131D01*
X016820Y019031D01*
X016770Y019081D01*
X016770Y019231D01*
X016772Y019248D01*
X016776Y019265D01*
X016783Y019281D01*
X016793Y019295D01*
X016806Y019308D01*
X016820Y019318D01*
X016836Y019325D01*
X016853Y019329D01*
X016870Y019331D01*
X011395Y020706D02*
X011245Y020706D01*
X011245Y020556D01*
X011245Y020706D02*
X011095Y020706D01*
X011245Y020706D02*
X011245Y020856D01*
X011245Y021206D02*
X010895Y021206D01*
X010895Y020706D01*
X010695Y020706D01*
X010695Y021706D01*
X010895Y021706D01*
X010895Y021206D01*
X009495Y021206D02*
X009497Y021272D01*
X009503Y021337D01*
X009513Y021402D01*
X009526Y021467D01*
X009544Y021530D01*
X009565Y021593D01*
X009590Y021653D01*
X009619Y021713D01*
X009651Y021770D01*
X009686Y021826D01*
X009725Y021879D01*
X009767Y021930D01*
X009811Y021978D01*
X009859Y022023D01*
X009909Y022066D01*
X009962Y022105D01*
X010017Y022142D01*
X010074Y022175D01*
X010133Y022204D01*
X010193Y022230D01*
X010255Y022252D01*
X010318Y022271D01*
X010382Y022285D01*
X010447Y022296D01*
X010513Y022303D01*
X010579Y022306D01*
X010644Y022305D01*
X010710Y022300D01*
X010775Y022291D01*
X010840Y022278D01*
X010903Y022262D01*
X010966Y022242D01*
X011027Y022217D01*
X011087Y022190D01*
X011145Y022159D01*
X011201Y022124D01*
X011255Y022086D01*
X011306Y022045D01*
X011355Y022001D01*
X011401Y021954D01*
X011445Y021905D01*
X011485Y021853D01*
X011522Y021798D01*
X011556Y021742D01*
X011586Y021683D01*
X011613Y021623D01*
X011636Y021562D01*
X011655Y021499D01*
X011671Y021435D01*
X011683Y021370D01*
X011691Y021305D01*
X011695Y021239D01*
X011695Y021173D01*
X011691Y021107D01*
X011683Y021042D01*
X011671Y020977D01*
X011655Y020913D01*
X011636Y020850D01*
X011613Y020789D01*
X011586Y020729D01*
X011556Y020670D01*
X011522Y020614D01*
X011485Y020559D01*
X011445Y020507D01*
X011401Y020458D01*
X011355Y020411D01*
X011306Y020367D01*
X011255Y020326D01*
X011201Y020288D01*
X011145Y020253D01*
X011087Y020222D01*
X011027Y020195D01*
X010966Y020170D01*
X010903Y020150D01*
X010840Y020134D01*
X010775Y020121D01*
X010710Y020112D01*
X010644Y020107D01*
X010579Y020106D01*
X010513Y020109D01*
X010447Y020116D01*
X010382Y020127D01*
X010318Y020141D01*
X010255Y020160D01*
X010193Y020182D01*
X010133Y020208D01*
X010074Y020237D01*
X010017Y020270D01*
X009962Y020307D01*
X009909Y020346D01*
X009859Y020389D01*
X009811Y020434D01*
X009767Y020482D01*
X009725Y020533D01*
X009686Y020586D01*
X009651Y020642D01*
X009619Y020699D01*
X009590Y020759D01*
X009565Y020819D01*
X009544Y020882D01*
X009526Y020945D01*
X009513Y021010D01*
X009503Y021075D01*
X009497Y021140D01*
X009495Y021206D01*
X009945Y021206D02*
X010345Y021206D01*
X009245Y019831D02*
X009245Y023331D01*
X009243Y023361D01*
X009238Y023391D01*
X009229Y023420D01*
X009216Y023447D01*
X009201Y023473D01*
X009182Y023497D01*
X009161Y023518D01*
X009137Y023537D01*
X009111Y023552D01*
X009084Y023565D01*
X009055Y023574D01*
X009025Y023579D01*
X008995Y023581D01*
X004095Y023581D01*
X008095Y022331D02*
X008095Y021951D01*
X008095Y021211D02*
X008095Y020831D01*
X009245Y019831D02*
X009243Y019801D01*
X009238Y019771D01*
X009229Y019742D01*
X009216Y019715D01*
X009201Y019689D01*
X009182Y019665D01*
X009161Y019644D01*
X009137Y019625D01*
X009111Y019610D01*
X009084Y019597D01*
X009055Y019588D01*
X009025Y019583D01*
X008995Y019581D01*
X004095Y019581D01*
X003345Y019242D02*
X003345Y018919D01*
X002845Y018919D02*
X002845Y019242D01*
X003283Y014088D02*
X004038Y014088D01*
X004038Y013448D02*
X003283Y013448D01*
X011720Y022956D02*
X011720Y023706D01*
X011970Y023956D01*
X012470Y023956D01*
X018616Y014893D02*
X018618Y014930D01*
X018624Y014967D01*
X018633Y015002D01*
X018647Y015037D01*
X018663Y015070D01*
X018684Y015101D01*
X018707Y015130D01*
X018733Y015156D01*
X018762Y015179D01*
X018793Y015200D01*
X018826Y015216D01*
X018861Y015230D01*
X018896Y015239D01*
X018933Y015245D01*
X018970Y015247D01*
X019007Y015245D01*
X019044Y015239D01*
X019079Y015230D01*
X019114Y015216D01*
X019147Y015200D01*
X019178Y015179D01*
X019207Y015156D01*
X019233Y015130D01*
X019256Y015101D01*
X019277Y015070D01*
X019293Y015037D01*
X019307Y015002D01*
X019316Y014967D01*
X019322Y014930D01*
X019324Y014893D01*
X019322Y014856D01*
X019316Y014819D01*
X019307Y014784D01*
X019293Y014749D01*
X019277Y014716D01*
X019256Y014685D01*
X019233Y014656D01*
X019207Y014630D01*
X019178Y014607D01*
X019147Y014586D01*
X019114Y014570D01*
X019079Y014556D01*
X019044Y014547D01*
X019007Y014541D01*
X018970Y014539D01*
X018933Y014541D01*
X018896Y014547D01*
X018861Y014556D01*
X018826Y014570D01*
X018793Y014586D01*
X018762Y014607D01*
X018733Y014630D01*
X018707Y014656D01*
X018684Y014685D01*
X018663Y014716D01*
X018647Y014749D01*
X018633Y014784D01*
X018624Y014819D01*
X018618Y014856D01*
X018616Y014893D01*
X017420Y013731D02*
X017420Y013581D01*
X017370Y013531D01*
X017370Y011631D01*
X017420Y011581D01*
X017420Y011431D01*
X017418Y011414D01*
X017414Y011397D01*
X017407Y011381D01*
X017397Y011367D01*
X017384Y011354D01*
X017370Y011344D01*
X017354Y011337D01*
X017337Y011333D01*
X017320Y011331D01*
X016620Y011331D01*
X016603Y011333D01*
X016586Y011337D01*
X016570Y011344D01*
X016556Y011354D01*
X016543Y011367D01*
X016533Y011381D01*
X016526Y011397D01*
X016522Y011414D01*
X016520Y011431D01*
X016520Y011581D01*
X016570Y011631D01*
X016570Y013531D01*
X016520Y013581D01*
X016520Y013731D01*
X016522Y013748D01*
X016526Y013765D01*
X016533Y013781D01*
X016543Y013795D01*
X016556Y013808D01*
X016570Y013818D01*
X016586Y013825D01*
X016603Y013829D01*
X016620Y013831D01*
X017320Y013831D01*
X017337Y013829D01*
X017354Y013825D01*
X017370Y013818D01*
X017384Y013808D01*
X017397Y013795D01*
X017407Y013781D01*
X017414Y013765D01*
X017418Y013748D01*
X017420Y013731D01*
X021616Y012018D02*
X021618Y012055D01*
X021624Y012092D01*
X021633Y012127D01*
X021647Y012162D01*
X021663Y012195D01*
X021684Y012226D01*
X021707Y012255D01*
X021733Y012281D01*
X021762Y012304D01*
X021793Y012325D01*
X021826Y012341D01*
X021861Y012355D01*
X021896Y012364D01*
X021933Y012370D01*
X021970Y012372D01*
X022007Y012370D01*
X022044Y012364D01*
X022079Y012355D01*
X022114Y012341D01*
X022147Y012325D01*
X022178Y012304D01*
X022207Y012281D01*
X022233Y012255D01*
X022256Y012226D01*
X022277Y012195D01*
X022293Y012162D01*
X022307Y012127D01*
X022316Y012092D01*
X022322Y012055D01*
X022324Y012018D01*
X022322Y011981D01*
X022316Y011944D01*
X022307Y011909D01*
X022293Y011874D01*
X022277Y011841D01*
X022256Y011810D01*
X022233Y011781D01*
X022207Y011755D01*
X022178Y011732D01*
X022147Y011711D01*
X022114Y011695D01*
X022079Y011681D01*
X022044Y011672D01*
X022007Y011666D01*
X021970Y011664D01*
X021933Y011666D01*
X021896Y011672D01*
X021861Y011681D01*
X021826Y011695D01*
X021793Y011711D01*
X021762Y011732D01*
X021733Y011755D01*
X021707Y011781D01*
X021684Y011810D01*
X021663Y011841D01*
X021647Y011874D01*
X021633Y011909D01*
X021624Y011944D01*
X021618Y011981D01*
X021616Y012018D01*
X023500Y009501D02*
X023820Y009501D01*
X023927Y009395D01*
X023927Y008968D01*
X023820Y008861D01*
X023500Y008861D01*
X023500Y009501D01*
X024145Y009501D02*
X024465Y009501D01*
X024572Y009395D01*
X024572Y008968D01*
X024465Y008861D01*
X024145Y008861D01*
X024145Y009501D01*
X024789Y009395D02*
X024896Y009501D01*
X025109Y009501D01*
X025216Y009395D01*
X025216Y009288D01*
X024789Y008861D01*
X025216Y008861D01*
X025875Y008861D02*
X026302Y008861D01*
X026520Y008861D02*
X026520Y009501D01*
X026840Y009501D01*
X026947Y009395D01*
X026947Y009181D01*
X026840Y009074D01*
X026520Y009074D01*
X026089Y009181D02*
X025875Y009181D01*
X025875Y009501D02*
X025875Y008861D01*
X025875Y009501D02*
X026302Y009501D01*
X027164Y009501D02*
X027378Y009288D01*
X027591Y009501D01*
X027591Y008861D01*
X027809Y008861D02*
X027809Y008968D01*
X028236Y009395D01*
X028236Y009501D01*
X027809Y009501D01*
X027164Y009501D02*
X027164Y008861D01*
X028453Y008861D02*
X028880Y008861D01*
X028667Y008861D02*
X028667Y009501D01*
X028453Y009288D01*
X029098Y009395D02*
X029205Y009501D01*
X029418Y009501D01*
X029525Y009395D01*
X029525Y009288D01*
X029098Y008861D01*
X029525Y008861D01*
X029742Y008968D02*
X029742Y009074D01*
X029849Y009181D01*
X030063Y009181D01*
X030169Y009074D01*
X030169Y008968D01*
X030063Y008861D01*
X029849Y008861D01*
X029742Y008968D01*
X029849Y009181D02*
X029742Y009288D01*
X029742Y009395D01*
X029849Y009501D01*
X030063Y009501D01*
X030169Y009395D01*
X030169Y009288D01*
X030063Y009181D01*
X030387Y009288D02*
X030494Y009181D01*
X030707Y009181D01*
X030814Y009074D01*
X030814Y008968D01*
X030707Y008861D01*
X030494Y008861D01*
X030387Y008968D01*
X030387Y009288D02*
X030387Y009395D01*
X030494Y009501D01*
X030707Y009501D01*
X030814Y009395D01*
X031031Y009501D02*
X031031Y008861D01*
X031458Y008861D01*
X031676Y008968D02*
X031783Y008861D01*
X031996Y008861D01*
X032103Y008968D01*
X032320Y008968D02*
X032320Y009074D01*
X032427Y009181D01*
X032641Y009181D01*
X032748Y009074D01*
X032748Y008968D01*
X032641Y008861D01*
X032427Y008861D01*
X032320Y008968D01*
X032427Y009181D02*
X032320Y009288D01*
X032320Y009395D01*
X032427Y009501D01*
X032641Y009501D01*
X032748Y009395D01*
X032748Y009288D01*
X032641Y009181D01*
X032965Y009181D02*
X033392Y009181D01*
X033610Y009181D02*
X034037Y009181D01*
X034254Y009288D02*
X034468Y009501D01*
X034468Y008861D01*
X034681Y008861D02*
X034254Y008861D01*
X034899Y008968D02*
X035005Y008861D01*
X035219Y008861D01*
X035326Y008968D01*
X035326Y009181D01*
X035219Y009288D01*
X035112Y009288D01*
X034899Y009181D01*
X034899Y009501D01*
X035326Y009501D01*
X033285Y009501D02*
X033285Y008861D01*
X032965Y009181D02*
X033285Y009501D01*
X032103Y009395D02*
X031996Y009501D01*
X031783Y009501D01*
X031676Y009395D01*
X031676Y008968D01*
X029616Y011018D02*
X029618Y011055D01*
X029624Y011092D01*
X029633Y011127D01*
X029647Y011162D01*
X029663Y011195D01*
X029684Y011226D01*
X029707Y011255D01*
X029733Y011281D01*
X029762Y011304D01*
X029793Y011325D01*
X029826Y011341D01*
X029861Y011355D01*
X029896Y011364D01*
X029933Y011370D01*
X029970Y011372D01*
X030007Y011370D01*
X030044Y011364D01*
X030079Y011355D01*
X030114Y011341D01*
X030147Y011325D01*
X030178Y011304D01*
X030207Y011281D01*
X030233Y011255D01*
X030256Y011226D01*
X030277Y011195D01*
X030293Y011162D01*
X030307Y011127D01*
X030316Y011092D01*
X030322Y011055D01*
X030324Y011018D01*
X030322Y010981D01*
X030316Y010944D01*
X030307Y010909D01*
X030293Y010874D01*
X030277Y010841D01*
X030256Y010810D01*
X030233Y010781D01*
X030207Y010755D01*
X030178Y010732D01*
X030147Y010711D01*
X030114Y010695D01*
X030079Y010681D01*
X030044Y010672D01*
X030007Y010666D01*
X029970Y010664D01*
X029933Y010666D01*
X029896Y010672D01*
X029861Y010681D01*
X029826Y010695D01*
X029793Y010711D01*
X029762Y010732D01*
X029733Y010755D01*
X029707Y010781D01*
X029684Y010810D01*
X029663Y010841D01*
X029647Y010874D01*
X029633Y010909D01*
X029624Y010944D01*
X029618Y010981D01*
X029616Y011018D01*
X024616Y010893D02*
X024618Y010930D01*
X024624Y010967D01*
X024633Y011002D01*
X024647Y011037D01*
X024663Y011070D01*
X024684Y011101D01*
X024707Y011130D01*
X024733Y011156D01*
X024762Y011179D01*
X024793Y011200D01*
X024826Y011216D01*
X024861Y011230D01*
X024896Y011239D01*
X024933Y011245D01*
X024970Y011247D01*
X025007Y011245D01*
X025044Y011239D01*
X025079Y011230D01*
X025114Y011216D01*
X025147Y011200D01*
X025178Y011179D01*
X025207Y011156D01*
X025233Y011130D01*
X025256Y011101D01*
X025277Y011070D01*
X025293Y011037D01*
X025307Y011002D01*
X025316Y010967D01*
X025322Y010930D01*
X025324Y010893D01*
X025322Y010856D01*
X025316Y010819D01*
X025307Y010784D01*
X025293Y010749D01*
X025277Y010716D01*
X025256Y010685D01*
X025233Y010656D01*
X025207Y010630D01*
X025178Y010607D01*
X025147Y010586D01*
X025114Y010570D01*
X025079Y010556D01*
X025044Y010547D01*
X025007Y010541D01*
X024970Y010539D01*
X024933Y010541D01*
X024896Y010547D01*
X024861Y010556D01*
X024826Y010570D01*
X024793Y010586D01*
X024762Y010607D01*
X024733Y010630D01*
X024707Y010656D01*
X024684Y010685D01*
X024663Y010716D01*
X024647Y010749D01*
X024633Y010784D01*
X024624Y010819D01*
X024618Y010856D01*
X024616Y010893D01*
X022036Y008710D02*
X022038Y008751D01*
X022044Y008792D01*
X022054Y008832D01*
X022067Y008871D01*
X022084Y008909D01*
X022105Y008945D01*
X022129Y008978D01*
X022156Y009009D01*
X022186Y009038D01*
X022218Y009064D01*
X022253Y009086D01*
X022290Y009105D01*
X022328Y009120D01*
X022368Y009132D01*
X022408Y009140D01*
X022449Y009144D01*
X022491Y009144D01*
X022532Y009140D01*
X022572Y009132D01*
X022612Y009120D01*
X022650Y009105D01*
X022687Y009086D01*
X022722Y009064D01*
X022754Y009038D01*
X022784Y009009D01*
X022811Y008978D01*
X022835Y008945D01*
X022856Y008909D01*
X022873Y008871D01*
X022886Y008832D01*
X022896Y008792D01*
X022902Y008751D01*
X022904Y008710D01*
X022902Y008669D01*
X022896Y008628D01*
X022886Y008588D01*
X022873Y008549D01*
X022856Y008511D01*
X022835Y008475D01*
X022811Y008442D01*
X022784Y008411D01*
X022754Y008382D01*
X022722Y008356D01*
X022687Y008334D01*
X022650Y008315D01*
X022612Y008300D01*
X022572Y008288D01*
X022532Y008280D01*
X022491Y008276D01*
X022449Y008276D01*
X022408Y008280D01*
X022368Y008288D01*
X022328Y008300D01*
X022290Y008315D01*
X022253Y008334D01*
X022218Y008356D01*
X022186Y008382D01*
X022156Y008411D01*
X022129Y008442D01*
X022105Y008475D01*
X022084Y008511D01*
X022067Y008549D01*
X022054Y008588D01*
X022044Y008628D01*
X022038Y008669D01*
X022036Y008710D01*
X020036Y008710D02*
X020038Y008751D01*
X020044Y008792D01*
X020054Y008832D01*
X020067Y008871D01*
X020084Y008909D01*
X020105Y008945D01*
X020129Y008978D01*
X020156Y009009D01*
X020186Y009038D01*
X020218Y009064D01*
X020253Y009086D01*
X020290Y009105D01*
X020328Y009120D01*
X020368Y009132D01*
X020408Y009140D01*
X020449Y009144D01*
X020491Y009144D01*
X020532Y009140D01*
X020572Y009132D01*
X020612Y009120D01*
X020650Y009105D01*
X020687Y009086D01*
X020722Y009064D01*
X020754Y009038D01*
X020784Y009009D01*
X020811Y008978D01*
X020835Y008945D01*
X020856Y008909D01*
X020873Y008871D01*
X020886Y008832D01*
X020896Y008792D01*
X020902Y008751D01*
X020904Y008710D01*
X020902Y008669D01*
X020896Y008628D01*
X020886Y008588D01*
X020873Y008549D01*
X020856Y008511D01*
X020835Y008475D01*
X020811Y008442D01*
X020784Y008411D01*
X020754Y008382D01*
X020722Y008356D01*
X020687Y008334D01*
X020650Y008315D01*
X020612Y008300D01*
X020572Y008288D01*
X020532Y008280D01*
X020491Y008276D01*
X020449Y008276D01*
X020408Y008280D01*
X020368Y008288D01*
X020328Y008300D01*
X020290Y008315D01*
X020253Y008334D01*
X020218Y008356D01*
X020186Y008382D01*
X020156Y008411D01*
X020129Y008442D01*
X020105Y008475D01*
X020084Y008511D01*
X020067Y008549D01*
X020054Y008588D01*
X020044Y008628D01*
X020038Y008669D01*
X020036Y008710D01*
X018161Y008710D02*
X018163Y008751D01*
X018169Y008792D01*
X018179Y008832D01*
X018192Y008871D01*
X018209Y008909D01*
X018230Y008945D01*
X018254Y008978D01*
X018281Y009009D01*
X018311Y009038D01*
X018343Y009064D01*
X018378Y009086D01*
X018415Y009105D01*
X018453Y009120D01*
X018493Y009132D01*
X018533Y009140D01*
X018574Y009144D01*
X018616Y009144D01*
X018657Y009140D01*
X018697Y009132D01*
X018737Y009120D01*
X018775Y009105D01*
X018812Y009086D01*
X018847Y009064D01*
X018879Y009038D01*
X018909Y009009D01*
X018936Y008978D01*
X018960Y008945D01*
X018981Y008909D01*
X018998Y008871D01*
X019011Y008832D01*
X019021Y008792D01*
X019027Y008751D01*
X019029Y008710D01*
X019027Y008669D01*
X019021Y008628D01*
X019011Y008588D01*
X018998Y008549D01*
X018981Y008511D01*
X018960Y008475D01*
X018936Y008442D01*
X018909Y008411D01*
X018879Y008382D01*
X018847Y008356D01*
X018812Y008334D01*
X018775Y008315D01*
X018737Y008300D01*
X018697Y008288D01*
X018657Y008280D01*
X018616Y008276D01*
X018574Y008276D01*
X018533Y008280D01*
X018493Y008288D01*
X018453Y008300D01*
X018415Y008315D01*
X018378Y008334D01*
X018343Y008356D01*
X018311Y008382D01*
X018281Y008411D01*
X018254Y008442D01*
X018230Y008475D01*
X018209Y008511D01*
X018192Y008549D01*
X018179Y008588D01*
X018169Y008628D01*
X018163Y008669D01*
X018161Y008710D01*
X016161Y008710D02*
X016163Y008751D01*
X016169Y008792D01*
X016179Y008832D01*
X016192Y008871D01*
X016209Y008909D01*
X016230Y008945D01*
X016254Y008978D01*
X016281Y009009D01*
X016311Y009038D01*
X016343Y009064D01*
X016378Y009086D01*
X016415Y009105D01*
X016453Y009120D01*
X016493Y009132D01*
X016533Y009140D01*
X016574Y009144D01*
X016616Y009144D01*
X016657Y009140D01*
X016697Y009132D01*
X016737Y009120D01*
X016775Y009105D01*
X016812Y009086D01*
X016847Y009064D01*
X016879Y009038D01*
X016909Y009009D01*
X016936Y008978D01*
X016960Y008945D01*
X016981Y008909D01*
X016998Y008871D01*
X017011Y008832D01*
X017021Y008792D01*
X017027Y008751D01*
X017029Y008710D01*
X017027Y008669D01*
X017021Y008628D01*
X017011Y008588D01*
X016998Y008549D01*
X016981Y008511D01*
X016960Y008475D01*
X016936Y008442D01*
X016909Y008411D01*
X016879Y008382D01*
X016847Y008356D01*
X016812Y008334D01*
X016775Y008315D01*
X016737Y008300D01*
X016697Y008288D01*
X016657Y008280D01*
X016616Y008276D01*
X016574Y008276D01*
X016533Y008280D01*
X016493Y008288D01*
X016453Y008300D01*
X016415Y008315D01*
X016378Y008334D01*
X016343Y008356D01*
X016311Y008382D01*
X016281Y008411D01*
X016254Y008442D01*
X016230Y008475D01*
X016209Y008511D01*
X016192Y008549D01*
X016179Y008588D01*
X016169Y008628D01*
X016163Y008669D01*
X016161Y008710D01*
X030616Y018018D02*
X030618Y018055D01*
X030624Y018092D01*
X030633Y018127D01*
X030647Y018162D01*
X030663Y018195D01*
X030684Y018226D01*
X030707Y018255D01*
X030733Y018281D01*
X030762Y018304D01*
X030793Y018325D01*
X030826Y018341D01*
X030861Y018355D01*
X030896Y018364D01*
X030933Y018370D01*
X030970Y018372D01*
X031007Y018370D01*
X031044Y018364D01*
X031079Y018355D01*
X031114Y018341D01*
X031147Y018325D01*
X031178Y018304D01*
X031207Y018281D01*
X031233Y018255D01*
X031256Y018226D01*
X031277Y018195D01*
X031293Y018162D01*
X031307Y018127D01*
X031316Y018092D01*
X031322Y018055D01*
X031324Y018018D01*
X031322Y017981D01*
X031316Y017944D01*
X031307Y017909D01*
X031293Y017874D01*
X031277Y017841D01*
X031256Y017810D01*
X031233Y017781D01*
X031207Y017755D01*
X031178Y017732D01*
X031147Y017711D01*
X031114Y017695D01*
X031079Y017681D01*
X031044Y017672D01*
X031007Y017666D01*
X030970Y017664D01*
X030933Y017666D01*
X030896Y017672D01*
X030861Y017681D01*
X030826Y017695D01*
X030793Y017711D01*
X030762Y017732D01*
X030733Y017755D01*
X030707Y017781D01*
X030684Y017810D01*
X030663Y017841D01*
X030647Y017874D01*
X030633Y017909D01*
X030624Y017944D01*
X030618Y017981D01*
X030616Y018018D01*
X034620Y020906D02*
X034620Y007006D01*
X036720Y007006D01*
X036722Y007050D01*
X036728Y007093D01*
X036737Y007135D01*
X036750Y007177D01*
X036767Y007217D01*
X036787Y007256D01*
X036810Y007293D01*
X036837Y007327D01*
X036866Y007360D01*
X036899Y007389D01*
X036933Y007416D01*
X036970Y007439D01*
X037009Y007459D01*
X037049Y007476D01*
X037091Y007489D01*
X037133Y007498D01*
X037176Y007504D01*
X037220Y007506D01*
X037264Y007504D01*
X037307Y007498D01*
X037349Y007489D01*
X037391Y007476D01*
X037431Y007459D01*
X037470Y007439D01*
X037507Y007416D01*
X037541Y007389D01*
X037574Y007360D01*
X037603Y007327D01*
X037630Y007293D01*
X037653Y007256D01*
X037673Y007217D01*
X037690Y007177D01*
X037703Y007135D01*
X037712Y007093D01*
X037718Y007050D01*
X037720Y007006D01*
X039820Y007006D01*
X039820Y020906D01*
X034620Y020906D01*
X028616Y021893D02*
X028618Y021930D01*
X028624Y021967D01*
X028633Y022002D01*
X028647Y022037D01*
X028663Y022070D01*
X028684Y022101D01*
X028707Y022130D01*
X028733Y022156D01*
X028762Y022179D01*
X028793Y022200D01*
X028826Y022216D01*
X028861Y022230D01*
X028896Y022239D01*
X028933Y022245D01*
X028970Y022247D01*
X029007Y022245D01*
X029044Y022239D01*
X029079Y022230D01*
X029114Y022216D01*
X029147Y022200D01*
X029178Y022179D01*
X029207Y022156D01*
X029233Y022130D01*
X029256Y022101D01*
X029277Y022070D01*
X029293Y022037D01*
X029307Y022002D01*
X029316Y021967D01*
X029322Y021930D01*
X029324Y021893D01*
X029322Y021856D01*
X029316Y021819D01*
X029307Y021784D01*
X029293Y021749D01*
X029277Y021716D01*
X029256Y021685D01*
X029233Y021656D01*
X029207Y021630D01*
X029178Y021607D01*
X029147Y021586D01*
X029114Y021570D01*
X029079Y021556D01*
X029044Y021547D01*
X029007Y021541D01*
X028970Y021539D01*
X028933Y021541D01*
X028896Y021547D01*
X028861Y021556D01*
X028826Y021570D01*
X028793Y021586D01*
X028762Y021607D01*
X028733Y021630D01*
X028707Y021656D01*
X028684Y021685D01*
X028663Y021716D01*
X028647Y021749D01*
X028633Y021784D01*
X028624Y021819D01*
X028618Y021856D01*
X028616Y021893D01*
X042324Y015960D02*
X044624Y015960D01*
X044624Y005960D01*
X043874Y005960D01*
X043872Y005999D01*
X043866Y006038D01*
X043857Y006076D01*
X043844Y006113D01*
X043827Y006149D01*
X043807Y006182D01*
X043783Y006214D01*
X043757Y006243D01*
X043728Y006269D01*
X043696Y006293D01*
X043663Y006313D01*
X043627Y006330D01*
X043590Y006343D01*
X043552Y006352D01*
X043513Y006358D01*
X043474Y006360D01*
X043435Y006358D01*
X043396Y006352D01*
X043358Y006343D01*
X043321Y006330D01*
X043285Y006313D01*
X043252Y006293D01*
X043220Y006269D01*
X043191Y006243D01*
X043165Y006214D01*
X043141Y006182D01*
X043121Y006149D01*
X043104Y006113D01*
X043091Y006076D01*
X043082Y006038D01*
X043076Y005999D01*
X043074Y005960D01*
X042324Y005960D01*
X042324Y015960D01*
X048023Y015961D02*
X050323Y015961D01*
X050323Y005961D01*
X049573Y005961D01*
X049571Y006000D01*
X049565Y006039D01*
X049556Y006077D01*
X049543Y006114D01*
X049526Y006150D01*
X049506Y006183D01*
X049482Y006215D01*
X049456Y006244D01*
X049427Y006270D01*
X049395Y006294D01*
X049362Y006314D01*
X049326Y006331D01*
X049289Y006344D01*
X049251Y006353D01*
X049212Y006359D01*
X049173Y006361D01*
X049134Y006359D01*
X049095Y006353D01*
X049057Y006344D01*
X049020Y006331D01*
X048984Y006314D01*
X048951Y006294D01*
X048919Y006270D01*
X048890Y006244D01*
X048864Y006215D01*
X048840Y006183D01*
X048820Y006150D01*
X048803Y006114D01*
X048790Y006077D01*
X048781Y006039D01*
X048775Y006000D01*
X048773Y005961D01*
X048023Y005961D01*
X048023Y015961D01*
X054195Y021956D02*
X059495Y021956D01*
X059495Y005956D01*
X057245Y005956D01*
X057285Y005776D02*
X057285Y005136D01*
X057072Y005136D02*
X057499Y005136D01*
X057716Y005243D02*
X058143Y005670D01*
X058143Y005243D01*
X058037Y005136D01*
X057823Y005136D01*
X057716Y005243D01*
X057716Y005670D01*
X057823Y005776D01*
X058037Y005776D01*
X058143Y005670D01*
X058361Y005670D02*
X058468Y005776D01*
X058681Y005776D01*
X058788Y005670D01*
X058788Y005563D01*
X058361Y005136D01*
X058788Y005136D01*
X059005Y005456D02*
X059432Y005456D01*
X059326Y005136D02*
X059326Y005776D01*
X059005Y005456D01*
X057285Y005776D02*
X057072Y005563D01*
X056854Y005563D02*
X056427Y005136D01*
X056854Y005136D01*
X056854Y005563D02*
X056854Y005670D01*
X056748Y005776D01*
X056534Y005776D01*
X056427Y005670D01*
X056210Y005776D02*
X055996Y005670D01*
X055783Y005456D01*
X056103Y005456D01*
X056210Y005349D01*
X056210Y005243D01*
X056103Y005136D01*
X055889Y005136D01*
X055783Y005243D01*
X055783Y005456D01*
X055632Y005349D02*
X055632Y005243D01*
X055526Y005136D01*
X055312Y005136D01*
X055205Y005243D01*
X054988Y005243D02*
X054988Y005670D01*
X054881Y005776D01*
X054561Y005776D01*
X054561Y005136D01*
X054881Y005136D01*
X054988Y005243D01*
X055205Y005670D02*
X055312Y005776D01*
X055526Y005776D01*
X055632Y005670D01*
X055632Y005563D01*
X055526Y005456D01*
X055632Y005349D01*
X055526Y005456D02*
X055419Y005456D01*
X054343Y005243D02*
X054343Y005670D01*
X054237Y005776D01*
X053916Y005776D01*
X053916Y005136D01*
X054237Y005136D01*
X054343Y005243D01*
X054195Y005956D02*
X056445Y005956D01*
X056447Y005995D01*
X056453Y006034D01*
X056462Y006072D01*
X056475Y006109D01*
X056492Y006145D01*
X056512Y006178D01*
X056536Y006210D01*
X056562Y006239D01*
X056591Y006265D01*
X056623Y006289D01*
X056656Y006309D01*
X056692Y006326D01*
X056729Y006339D01*
X056767Y006348D01*
X056806Y006354D01*
X056845Y006356D01*
X056884Y006354D01*
X056923Y006348D01*
X056961Y006339D01*
X056998Y006326D01*
X057034Y006309D01*
X057067Y006289D01*
X057099Y006265D01*
X057128Y006239D01*
X057154Y006210D01*
X057178Y006178D01*
X057198Y006145D01*
X057215Y006109D01*
X057228Y006072D01*
X057237Y006034D01*
X057243Y005995D01*
X057245Y005956D01*
X054195Y005956D02*
X054195Y021956D01*
X051591Y024617D02*
X051591Y026917D01*
X061591Y026917D01*
X061591Y026167D01*
X061552Y026165D01*
X061513Y026159D01*
X061475Y026150D01*
X061438Y026137D01*
X061402Y026120D01*
X061369Y026100D01*
X061337Y026076D01*
X061308Y026050D01*
X061282Y026021D01*
X061258Y025989D01*
X061238Y025956D01*
X061221Y025920D01*
X061208Y025883D01*
X061199Y025845D01*
X061193Y025806D01*
X061191Y025767D01*
X061193Y025728D01*
X061199Y025689D01*
X061208Y025651D01*
X061221Y025614D01*
X061238Y025578D01*
X061258Y025545D01*
X061282Y025513D01*
X061308Y025484D01*
X061337Y025458D01*
X061369Y025434D01*
X061402Y025414D01*
X061438Y025397D01*
X061475Y025384D01*
X061513Y025375D01*
X061552Y025369D01*
X061591Y025367D01*
X061591Y024617D01*
X051591Y024617D01*
X046508Y033206D02*
X045808Y033206D01*
X045791Y033208D01*
X045774Y033212D01*
X045758Y033219D01*
X045744Y033229D01*
X045731Y033242D01*
X045721Y033256D01*
X045714Y033272D01*
X045710Y033289D01*
X045708Y033306D01*
X045708Y033456D01*
X045758Y033506D01*
X045758Y035406D01*
X045708Y035456D01*
X045708Y035606D01*
X045710Y035623D01*
X045714Y035640D01*
X045721Y035656D01*
X045731Y035670D01*
X045744Y035683D01*
X045758Y035693D01*
X045774Y035700D01*
X045791Y035704D01*
X045808Y035706D01*
X046508Y035706D01*
X046525Y035704D01*
X046542Y035700D01*
X046558Y035693D01*
X046572Y035683D01*
X046585Y035670D01*
X046595Y035656D01*
X046602Y035640D01*
X046606Y035623D01*
X046608Y035606D01*
X046608Y035456D01*
X046558Y035406D01*
X046558Y033506D01*
X046608Y033456D01*
X046608Y033306D01*
X046606Y033289D01*
X046602Y033272D01*
X046595Y033256D01*
X046585Y033242D01*
X046572Y033229D01*
X046558Y033219D01*
X046542Y033212D01*
X046525Y033208D01*
X046508Y033206D01*
X061470Y041393D02*
X061720Y041143D01*
X062220Y041143D01*
X062470Y041393D01*
X062720Y041143D01*
X063220Y041143D01*
X063470Y041393D01*
X063720Y041143D01*
X064220Y041143D01*
X064470Y041393D01*
X064720Y041143D01*
X065220Y041143D01*
X065470Y041393D01*
X065470Y041893D01*
X065220Y042143D01*
X064720Y042143D01*
X064470Y041893D01*
X064220Y042143D01*
X063720Y042143D01*
X063470Y041893D01*
X063220Y042143D01*
X062720Y042143D01*
X062470Y041893D01*
X062220Y042143D01*
X061720Y042143D01*
X061470Y041893D01*
X061470Y041393D01*
D16*
X061345Y041418D02*
X061045Y041418D01*
X061195Y041418D02*
X061195Y041869D01*
X061045Y041719D01*
X060995Y040019D02*
X061295Y039568D01*
X061455Y039643D02*
X061530Y039568D01*
X061681Y039568D01*
X061756Y039643D01*
X061756Y039718D01*
X061681Y039793D01*
X061606Y039793D01*
X061681Y039793D02*
X061756Y039869D01*
X061756Y039944D01*
X061681Y040019D01*
X061530Y040019D01*
X061455Y039944D01*
X061295Y040019D02*
X060995Y039568D01*
X061916Y039568D02*
X061916Y040019D01*
X062141Y040019D01*
X062216Y039944D01*
X062216Y039793D01*
X062141Y039718D01*
X061916Y039718D01*
X062745Y039718D02*
X063045Y040019D01*
X063205Y040019D02*
X063431Y040019D01*
X063506Y039944D01*
X063506Y039869D01*
X063431Y039793D01*
X063205Y039793D01*
X063205Y039568D02*
X063205Y040019D01*
X063431Y039793D02*
X063506Y039718D01*
X063506Y039643D01*
X063431Y039568D01*
X063205Y039568D01*
X063045Y039568D02*
X062820Y039793D01*
X062745Y039568D02*
X062745Y040019D01*
X065595Y041643D02*
X065895Y041643D01*
X065820Y041418D02*
X065820Y041869D01*
X065595Y041643D01*
X046383Y035587D02*
X046232Y035362D01*
X046082Y035587D01*
X045932Y035362D02*
X046383Y035362D01*
X046307Y035202D02*
X046383Y035127D01*
X046383Y034977D01*
X046307Y034902D01*
X046007Y035202D01*
X046307Y035202D01*
X046007Y035202D02*
X045932Y035127D01*
X045932Y034977D01*
X046007Y034902D01*
X046307Y034902D01*
X046383Y034742D02*
X046383Y034441D01*
X046358Y034396D02*
X046358Y034095D01*
X046358Y034246D02*
X045907Y034246D01*
X046057Y034095D01*
X046057Y033935D02*
X045982Y033935D01*
X045907Y033860D01*
X045907Y033710D01*
X045982Y033635D01*
X045982Y033475D02*
X046132Y033475D01*
X046207Y033400D01*
X046207Y033175D01*
X046207Y033325D02*
X046358Y033475D01*
X046358Y033635D02*
X046057Y033935D01*
X046358Y033935D02*
X046358Y033635D01*
X045982Y033475D02*
X045907Y033400D01*
X045907Y033175D01*
X046358Y033175D01*
X046082Y034441D02*
X045932Y034591D01*
X046383Y034591D01*
X031954Y044862D02*
X031954Y049390D01*
X029986Y049390D01*
X029986Y044862D01*
X031954Y044862D01*
X028562Y043606D02*
X028487Y043531D01*
X028487Y043156D01*
X028251Y043156D02*
X028251Y043381D01*
X028176Y043456D01*
X028101Y043381D01*
X028101Y043156D01*
X027951Y043156D02*
X027951Y043456D01*
X028026Y043456D01*
X028101Y043381D01*
X028412Y043381D02*
X028562Y043381D01*
X027791Y043531D02*
X027491Y043231D01*
X027566Y043156D01*
X027716Y043156D01*
X027791Y043231D01*
X027791Y043531D01*
X027716Y043606D01*
X027566Y043606D01*
X027491Y043531D01*
X027491Y043231D01*
X027331Y043156D02*
X027030Y043156D01*
X027331Y043456D01*
X027331Y043531D01*
X027256Y043606D01*
X027105Y043606D01*
X027030Y043531D01*
X026870Y043531D02*
X026795Y043606D01*
X026645Y043606D01*
X026570Y043531D01*
X026870Y043531D02*
X026870Y043456D01*
X026570Y043156D01*
X026870Y043156D01*
X026980Y043856D02*
X027131Y043856D01*
X027206Y043931D01*
X027206Y044231D01*
X027131Y044306D01*
X026980Y044306D01*
X026905Y044231D01*
X026905Y044156D01*
X026980Y044081D01*
X027206Y044081D01*
X027366Y044006D02*
X027591Y044006D01*
X027666Y044081D01*
X027666Y044231D01*
X027591Y044306D01*
X027366Y044306D01*
X027366Y043856D01*
X026980Y043856D02*
X026905Y043931D01*
X026745Y043931D02*
X026670Y043856D01*
X026520Y043856D01*
X026445Y043931D01*
X026445Y044231D01*
X026520Y044306D01*
X026670Y044306D01*
X026745Y044231D01*
X024360Y045506D02*
X024060Y045506D01*
X024210Y045506D02*
X024210Y045956D01*
X024060Y045806D01*
X023899Y045806D02*
X023599Y045506D01*
X023899Y045506D01*
X023899Y045806D02*
X023899Y045881D01*
X023824Y045956D01*
X023674Y045956D01*
X023599Y045881D01*
X026070Y042033D02*
X026370Y041883D01*
X026070Y041733D01*
X026070Y041573D02*
X025995Y041573D01*
X025920Y041498D01*
X025920Y041348D01*
X025995Y041273D01*
X026145Y041423D02*
X026145Y041498D01*
X026220Y041573D01*
X026295Y041573D01*
X026370Y041498D01*
X026370Y041348D01*
X026295Y041273D01*
X026295Y041117D02*
X026370Y041117D01*
X026370Y041042D01*
X026295Y041042D01*
X026295Y041117D01*
X026295Y040882D02*
X026220Y040882D01*
X026145Y040807D01*
X026145Y040582D01*
X026295Y040582D01*
X026370Y040657D01*
X026370Y040807D01*
X026295Y040882D01*
X025995Y040732D02*
X026145Y040582D01*
X026070Y040422D02*
X026370Y040122D01*
X026370Y039890D02*
X025995Y039890D01*
X025920Y039965D01*
X026070Y040122D02*
X026370Y040422D01*
X025995Y040732D02*
X025920Y040882D01*
X026145Y041498D02*
X026070Y041573D01*
X026145Y039965D02*
X026145Y039815D01*
X026145Y039654D02*
X026370Y039654D01*
X026370Y039504D02*
X026145Y039504D01*
X026070Y039579D01*
X026145Y039654D01*
X026145Y039504D02*
X026070Y039429D01*
X026070Y039354D01*
X026370Y039354D01*
X026295Y039194D02*
X026370Y039119D01*
X026370Y038969D01*
X026295Y038894D01*
X025995Y039194D01*
X026295Y039194D01*
X026295Y038894D02*
X025995Y038894D01*
X025920Y038969D01*
X025920Y039119D01*
X025995Y039194D01*
X025995Y038734D02*
X026295Y038433D01*
X026370Y038508D01*
X026370Y038659D01*
X026295Y038734D01*
X025995Y038734D01*
X025920Y038659D01*
X025920Y038508D01*
X025995Y038433D01*
X026295Y038433D01*
X026295Y038273D02*
X026370Y038198D01*
X026370Y038048D01*
X026295Y037973D01*
X025995Y038273D01*
X026295Y038273D01*
X026295Y037973D02*
X025995Y037973D01*
X025920Y038048D01*
X025920Y038198D01*
X025995Y038273D01*
X026370Y037813D02*
X026370Y037513D01*
X026370Y037663D02*
X025920Y037663D01*
X026070Y037513D01*
X028220Y039148D02*
X028295Y039073D01*
X028595Y039073D01*
X028670Y039148D01*
X028670Y039298D01*
X028595Y039373D01*
X028670Y039533D02*
X028670Y039833D01*
X028670Y039683D02*
X028220Y039683D01*
X028370Y039533D01*
X028295Y039373D02*
X028220Y039298D01*
X028220Y039148D01*
X022510Y040056D02*
X022510Y040281D01*
X022435Y040356D01*
X022360Y040281D01*
X022360Y040056D01*
X022210Y040056D02*
X022210Y040356D01*
X022285Y040356D01*
X022360Y040281D01*
X022049Y040056D02*
X021749Y040056D01*
X021899Y040056D02*
X021899Y040506D01*
X021749Y040356D01*
X021749Y040731D02*
X022049Y041031D01*
X022049Y041106D01*
X021974Y041181D01*
X021824Y041181D01*
X021749Y041106D01*
X021589Y041106D02*
X021514Y041181D01*
X021364Y041181D01*
X021289Y041106D01*
X021289Y040806D01*
X021364Y040731D01*
X021514Y040731D01*
X021589Y040806D01*
X021749Y040731D02*
X022049Y040731D01*
X022360Y040731D02*
X022360Y040956D01*
X022510Y041106D01*
X022510Y041181D01*
X022360Y040956D02*
X022210Y041106D01*
X022210Y041181D01*
X020933Y041201D02*
X020632Y041201D01*
X020632Y041276D01*
X020707Y041351D01*
X020632Y041426D01*
X020707Y041501D01*
X020933Y041501D01*
X020933Y041351D02*
X020707Y041351D01*
X020707Y041661D02*
X020707Y041812D01*
X020557Y041736D02*
X020482Y041812D01*
X020557Y041736D02*
X020933Y041736D01*
X020857Y041041D02*
X020933Y040966D01*
X020933Y040816D01*
X020857Y040741D01*
X020557Y041041D01*
X020857Y041041D01*
X020557Y041041D02*
X020482Y040966D01*
X020482Y040816D01*
X020557Y040741D01*
X020857Y040741D01*
X020933Y040580D02*
X020933Y040280D01*
X020632Y040580D01*
X020557Y040580D01*
X020482Y040505D01*
X020482Y040355D01*
X020557Y040280D01*
X020557Y040120D02*
X020482Y040045D01*
X020482Y039895D01*
X020557Y039820D01*
X020557Y040120D02*
X020632Y040120D01*
X020933Y039820D01*
X020933Y040120D01*
X020010Y040081D02*
X020010Y040231D01*
X019935Y040306D01*
X019710Y040306D01*
X019710Y039856D01*
X019710Y040006D02*
X019935Y040006D01*
X020010Y040081D01*
X019549Y040156D02*
X019474Y040081D01*
X019324Y040081D01*
X019249Y040156D01*
X019249Y040231D01*
X019324Y040306D01*
X019474Y040306D01*
X019549Y040231D01*
X019549Y040156D01*
X019474Y040081D02*
X019549Y040006D01*
X019549Y039931D01*
X019474Y039856D01*
X019324Y039856D01*
X019249Y039931D01*
X019249Y040006D01*
X019324Y040081D01*
X019089Y040231D02*
X019014Y040306D01*
X018864Y040306D01*
X018789Y040231D01*
X018789Y039931D01*
X018864Y039856D01*
X019014Y039856D01*
X019089Y039931D01*
X017933Y039820D02*
X017632Y040120D01*
X017557Y040120D01*
X017482Y040045D01*
X017482Y039895D01*
X017557Y039820D01*
X017933Y039820D02*
X017933Y040120D01*
X017933Y040280D02*
X017632Y040580D01*
X017557Y040580D01*
X017482Y040505D01*
X017482Y040355D01*
X017557Y040280D01*
X017933Y040280D02*
X017933Y040580D01*
X017857Y040741D02*
X017557Y041041D01*
X017857Y041041D01*
X017933Y040966D01*
X017933Y040816D01*
X017857Y040741D01*
X017557Y040741D01*
X017482Y040816D01*
X017482Y040966D01*
X017557Y041041D01*
X017632Y041201D02*
X017632Y041276D01*
X017707Y041351D01*
X017632Y041426D01*
X017707Y041501D01*
X017933Y041501D01*
X017933Y041351D02*
X017707Y041351D01*
X017632Y041201D02*
X017933Y041201D01*
X017707Y041661D02*
X017707Y041812D01*
X017557Y041736D02*
X017933Y041736D01*
X017557Y041736D02*
X017482Y041812D01*
X017060Y040306D02*
X016835Y040306D01*
X016835Y039856D01*
X016835Y040006D02*
X017060Y040006D01*
X017135Y040081D01*
X017135Y040231D01*
X017060Y040306D01*
X016674Y040231D02*
X016374Y039931D01*
X016449Y039856D01*
X016599Y039856D01*
X016674Y039931D01*
X016674Y040231D01*
X016599Y040306D01*
X016449Y040306D01*
X016374Y040231D01*
X016374Y039931D01*
X016214Y039856D02*
X015914Y039856D01*
X016064Y039856D02*
X016064Y040306D01*
X015914Y040156D01*
X015754Y040231D02*
X015679Y040306D01*
X015528Y040306D01*
X015453Y040231D01*
X015453Y039931D01*
X015528Y039856D01*
X015679Y039856D01*
X015754Y039931D01*
X015183Y039820D02*
X014882Y040120D01*
X014807Y040120D01*
X014732Y040045D01*
X014732Y039895D01*
X014807Y039820D01*
X015183Y039820D02*
X015183Y040120D01*
X015183Y040280D02*
X014882Y040580D01*
X014807Y040580D01*
X014732Y040505D01*
X014732Y040355D01*
X014807Y040280D01*
X015183Y040280D02*
X015183Y040580D01*
X015107Y040741D02*
X014807Y041041D01*
X015107Y041041D01*
X015183Y040966D01*
X015183Y040816D01*
X015107Y040741D01*
X014807Y040741D01*
X014732Y040816D01*
X014732Y040966D01*
X014807Y041041D01*
X014882Y041201D02*
X014882Y041276D01*
X014957Y041351D01*
X014882Y041426D01*
X014957Y041501D01*
X015183Y041501D01*
X015183Y041351D02*
X014957Y041351D01*
X014882Y041201D02*
X015183Y041201D01*
X014957Y041661D02*
X014957Y041812D01*
X014807Y041736D02*
X014732Y041812D01*
X014807Y041736D02*
X015183Y041736D01*
X014185Y040306D02*
X013960Y040306D01*
X013960Y039856D01*
X013960Y040006D02*
X014185Y040006D01*
X014260Y040081D01*
X014260Y040231D01*
X014185Y040306D01*
X013649Y040306D02*
X013649Y039856D01*
X013499Y039856D02*
X013799Y039856D01*
X013499Y040156D02*
X013649Y040306D01*
X013189Y040306D02*
X013189Y039856D01*
X013039Y039856D02*
X013339Y039856D01*
X013039Y040156D02*
X013189Y040306D01*
X012879Y040231D02*
X012804Y040306D01*
X012653Y040306D01*
X012578Y040231D01*
X012578Y039931D01*
X012653Y039856D01*
X012804Y039856D01*
X012879Y039931D01*
X009635Y040681D02*
X009635Y040906D01*
X009560Y040981D01*
X009485Y040906D01*
X009485Y040681D01*
X009335Y040681D02*
X009335Y040981D01*
X009410Y040981D01*
X009485Y040906D01*
X009485Y041231D02*
X009485Y041456D01*
X009635Y041606D01*
X009635Y041681D01*
X009485Y041456D02*
X009335Y041606D01*
X009335Y041681D01*
X009024Y041681D02*
X009024Y041231D01*
X009024Y041131D02*
X009024Y040681D01*
X008874Y040681D02*
X009174Y040681D01*
X008874Y040981D02*
X009024Y041131D01*
X008874Y041231D02*
X009174Y041231D01*
X008874Y041531D02*
X009024Y041681D01*
X008714Y041606D02*
X008639Y041681D01*
X008489Y041681D01*
X008414Y041606D01*
X008414Y041306D01*
X008489Y041231D01*
X008639Y041231D01*
X008714Y041306D01*
X006460Y042731D02*
X006160Y042731D01*
X006310Y042731D02*
X006310Y043181D01*
X006160Y043031D01*
X005085Y043831D02*
X004785Y043831D01*
X005085Y044131D01*
X005085Y044206D01*
X005010Y044281D01*
X004860Y044281D01*
X004785Y044206D01*
X004624Y044206D02*
X004624Y044056D01*
X004549Y043981D01*
X004324Y043981D01*
X004324Y043831D02*
X004324Y044281D01*
X004549Y044281D01*
X004624Y044206D01*
X004164Y044281D02*
X004014Y044281D01*
X004089Y044281D02*
X004089Y043906D01*
X004014Y043831D01*
X003939Y043831D01*
X003864Y043906D01*
X007810Y045506D02*
X008110Y045506D01*
X007960Y045506D02*
X007960Y045956D01*
X007810Y045806D01*
X002385Y040369D02*
X002085Y040369D01*
X002385Y040369D02*
X002385Y040294D01*
X002085Y039993D01*
X002085Y039918D01*
X001924Y039918D02*
X001624Y039918D01*
X001774Y039918D02*
X001774Y040369D01*
X001624Y040219D01*
X001464Y040294D02*
X001389Y040369D01*
X001239Y040369D01*
X001164Y040294D01*
X001164Y039993D01*
X001239Y039918D01*
X001389Y039918D01*
X001464Y039993D01*
X001392Y039569D02*
X001542Y039569D01*
X001618Y039494D01*
X001317Y039193D01*
X001392Y039118D01*
X001542Y039118D01*
X001618Y039193D01*
X001618Y039494D01*
X001778Y039419D02*
X001853Y039419D01*
X001928Y039343D01*
X002003Y039419D01*
X002078Y039343D01*
X002078Y039118D01*
X001928Y039118D02*
X001928Y039343D01*
X001778Y039419D02*
X001778Y039118D01*
X001317Y039193D02*
X001317Y039494D01*
X001392Y039569D01*
X001157Y039494D02*
X001082Y039569D01*
X000932Y039569D01*
X000857Y039494D01*
X000697Y039494D02*
X000622Y039569D01*
X000472Y039569D01*
X000396Y039494D01*
X000697Y039494D02*
X000697Y039419D01*
X000396Y039118D01*
X000697Y039118D01*
X000857Y039118D02*
X001157Y039419D01*
X001157Y039494D01*
X001157Y039118D02*
X000857Y039118D01*
X002238Y039343D02*
X002388Y039343D01*
X002313Y039494D02*
X002388Y039569D01*
X002313Y039494D02*
X002313Y039118D01*
X008764Y036281D02*
X008914Y036281D01*
X008839Y036281D02*
X008839Y035906D01*
X008764Y035831D01*
X008689Y035831D01*
X008614Y035906D01*
X009074Y035981D02*
X009299Y035981D01*
X009374Y036056D01*
X009374Y036206D01*
X009299Y036281D01*
X009074Y036281D01*
X009074Y035831D01*
X009535Y035831D02*
X009835Y035831D01*
X009685Y035831D02*
X009685Y036281D01*
X009535Y036131D01*
X009695Y035446D02*
X009695Y035145D01*
X009695Y035296D02*
X009245Y035296D01*
X009395Y035145D01*
X012320Y031394D02*
X012620Y031394D01*
X012620Y031319D01*
X012320Y031018D01*
X012320Y030943D01*
X012620Y030943D01*
X012780Y030943D02*
X013081Y031244D01*
X013081Y031319D01*
X013006Y031394D01*
X012855Y031394D01*
X012780Y031319D01*
X012780Y030943D02*
X013081Y030943D01*
X013166Y028869D02*
X013016Y028794D01*
X012866Y028643D01*
X013091Y028643D01*
X013166Y028568D01*
X013166Y028493D01*
X013091Y028418D01*
X012941Y028418D01*
X012866Y028493D01*
X012866Y028643D01*
X012706Y028568D02*
X012706Y028493D01*
X012631Y028418D01*
X012480Y028418D01*
X012405Y028493D01*
X012405Y028568D01*
X012480Y028643D01*
X012631Y028643D01*
X012706Y028568D01*
X012631Y028643D02*
X012706Y028719D01*
X012706Y028794D01*
X012631Y028869D01*
X012480Y028869D01*
X012405Y028794D01*
X012405Y028719D01*
X012480Y028643D01*
X012245Y028568D02*
X012245Y028493D01*
X012170Y028418D01*
X012020Y028418D01*
X011945Y028493D01*
X011945Y028568D01*
X012020Y028643D01*
X012170Y028643D01*
X012245Y028568D01*
X012170Y028643D02*
X012245Y028719D01*
X012245Y028794D01*
X012170Y028869D01*
X012020Y028869D01*
X011945Y028794D01*
X011945Y028719D01*
X012020Y028643D01*
X013326Y028493D02*
X013326Y028418D01*
X013326Y028493D02*
X013626Y028794D01*
X013626Y028869D01*
X013326Y028869D01*
X013787Y028493D02*
X013862Y028493D01*
X013862Y028418D01*
X013787Y028418D01*
X013787Y028493D01*
X014017Y028418D02*
X014317Y028719D01*
X014317Y028794D01*
X014242Y028869D01*
X014092Y028869D01*
X014017Y028794D01*
X014017Y028418D02*
X014317Y028418D01*
X014477Y028493D02*
X014552Y028418D01*
X014702Y028418D01*
X014777Y028493D01*
X014777Y028568D01*
X014702Y028643D01*
X014627Y028643D01*
X014702Y028643D02*
X014777Y028719D01*
X014777Y028794D01*
X014702Y028869D01*
X014552Y028869D01*
X014477Y028794D01*
X014938Y028794D02*
X015013Y028869D01*
X015163Y028869D01*
X015238Y028794D01*
X015238Y028719D01*
X014938Y028418D01*
X015238Y028418D01*
X015398Y028418D02*
X015398Y028869D01*
X015473Y028643D02*
X015698Y028418D01*
X015858Y028418D02*
X015858Y028869D01*
X015698Y028869D02*
X015398Y028568D01*
X015858Y028643D02*
X016159Y028643D01*
X016319Y028719D02*
X016619Y028719D01*
X016319Y028418D01*
X016619Y028418D01*
X016159Y028418D02*
X016159Y028869D01*
X017240Y028418D02*
X017540Y028869D01*
X018160Y028643D02*
X018461Y028643D01*
X018621Y028493D02*
X018696Y028493D01*
X018696Y028418D01*
X018621Y028418D01*
X018621Y028493D01*
X018851Y028493D02*
X018926Y028493D01*
X018926Y028418D01*
X018851Y028418D01*
X018851Y028493D01*
X019081Y028418D02*
X019381Y028719D01*
X019381Y028794D01*
X019306Y028869D01*
X019156Y028869D01*
X019081Y028794D01*
X019081Y028418D02*
X019381Y028418D01*
X019541Y028493D02*
X019842Y028794D01*
X019842Y028493D01*
X019767Y028418D01*
X019617Y028418D01*
X019541Y028493D01*
X019541Y028794D01*
X019617Y028869D01*
X019767Y028869D01*
X019842Y028794D01*
X020002Y028719D02*
X020227Y028719D01*
X020302Y028643D01*
X020302Y028493D01*
X020227Y028418D01*
X020002Y028418D01*
X020002Y028268D02*
X020002Y028719D01*
X020462Y028643D02*
X020612Y028643D01*
X020537Y028794D02*
X020537Y028418D01*
X020537Y028794D02*
X020612Y028869D01*
X022133Y027556D02*
X022433Y027556D01*
X022433Y027481D01*
X022133Y027181D01*
X022133Y027106D01*
X022593Y027331D02*
X022893Y027331D01*
X022818Y027556D02*
X022593Y027331D01*
X022818Y027106D02*
X022818Y027556D01*
X023053Y027556D02*
X023053Y027106D01*
X023354Y027106D01*
X023514Y027181D02*
X023589Y027106D01*
X023739Y027106D01*
X023814Y027181D01*
X023814Y027256D01*
X023739Y027331D01*
X023589Y027331D01*
X023514Y027406D01*
X023514Y027481D01*
X023589Y027556D01*
X023739Y027556D01*
X023814Y027481D01*
X023974Y027556D02*
X024274Y027556D01*
X024274Y027481D01*
X023974Y027181D01*
X023974Y027106D01*
X024435Y027331D02*
X024735Y027331D01*
X024660Y027556D02*
X024435Y027331D01*
X024660Y027106D02*
X024660Y027556D01*
X024289Y027818D02*
X023989Y027818D01*
X024289Y028119D01*
X024289Y028194D01*
X024214Y028269D01*
X024064Y028269D01*
X023989Y028194D01*
X023678Y028269D02*
X023678Y027818D01*
X023528Y027818D02*
X023829Y027818D01*
X023528Y028119D02*
X023678Y028269D01*
X023368Y028194D02*
X023293Y028269D01*
X023068Y028269D01*
X023068Y027818D01*
X023293Y027818D01*
X023368Y027893D01*
X023368Y028194D01*
X022908Y028194D02*
X022833Y028269D01*
X022608Y028269D01*
X022608Y027818D01*
X022833Y027818D01*
X022908Y027893D01*
X022908Y028194D01*
X021301Y026569D02*
X021226Y026569D01*
X021076Y026418D01*
X021076Y026268D02*
X021076Y026569D01*
X020916Y026493D02*
X020916Y026418D01*
X020616Y026418D01*
X020616Y026343D02*
X020616Y026493D01*
X020691Y026569D01*
X020841Y026569D01*
X020916Y026493D01*
X020841Y026268D02*
X020691Y026268D01*
X020616Y026343D01*
X020459Y026268D02*
X020384Y026343D01*
X020384Y026644D01*
X020309Y026569D02*
X020459Y026569D01*
X020149Y026569D02*
X019923Y026569D01*
X019848Y026493D01*
X019923Y026418D01*
X020074Y026418D01*
X020149Y026343D01*
X020074Y026268D01*
X019848Y026268D01*
X019688Y026268D02*
X019463Y026268D01*
X019388Y026343D01*
X019463Y026418D01*
X019688Y026418D01*
X019688Y026493D02*
X019688Y026268D01*
X019688Y026493D02*
X019613Y026569D01*
X019463Y026569D01*
X019156Y026719D02*
X019156Y026268D01*
X019081Y026268D02*
X019231Y026268D01*
X018921Y026343D02*
X018846Y026268D01*
X018621Y026268D01*
X018621Y026719D01*
X018846Y026719D01*
X018921Y026644D01*
X018921Y026569D01*
X018846Y026493D01*
X018621Y026493D01*
X018460Y026493D02*
X018460Y026418D01*
X018160Y026418D01*
X018160Y026343D02*
X018160Y026493D01*
X018235Y026569D01*
X018385Y026569D01*
X018460Y026493D01*
X018385Y026268D02*
X018235Y026268D01*
X018160Y026343D01*
X018003Y026268D02*
X017928Y026343D01*
X017928Y026644D01*
X017853Y026569D02*
X018003Y026569D01*
X017693Y026569D02*
X017693Y026193D01*
X017618Y026118D01*
X017543Y026118D01*
X017468Y026268D02*
X017693Y026268D01*
X017468Y026268D02*
X017393Y026343D01*
X017393Y026569D01*
X017233Y026569D02*
X017158Y026493D01*
X016933Y026493D01*
X016933Y026268D02*
X017158Y026268D01*
X017233Y026343D01*
X017233Y026418D01*
X017158Y026493D01*
X017233Y026569D02*
X017233Y026644D01*
X017158Y026719D01*
X016933Y026719D01*
X016933Y026268D01*
X016995Y027006D02*
X017295Y027456D01*
X017455Y027456D02*
X017455Y027231D01*
X017606Y027306D01*
X017681Y027306D01*
X017756Y027231D01*
X017756Y027081D01*
X017681Y027006D01*
X017530Y027006D01*
X017455Y027081D01*
X017295Y027006D02*
X016995Y027456D01*
X017455Y027456D02*
X017756Y027456D01*
X018385Y028418D02*
X018385Y028869D01*
X018160Y028643D01*
X019081Y026719D02*
X019156Y026719D01*
X018921Y026418D02*
X018921Y026343D01*
X018921Y026418D02*
X018846Y026493D01*
X018720Y024206D02*
X017720Y023206D01*
X017720Y010456D01*
X018097Y010981D02*
X017995Y011083D01*
X018097Y010981D02*
X018300Y010981D01*
X018402Y011083D01*
X018402Y011184D01*
X018300Y011286D01*
X018199Y011286D01*
X018300Y011286D02*
X018402Y011388D01*
X018402Y011490D01*
X018300Y011591D01*
X018097Y011591D01*
X017995Y011490D01*
X018603Y011490D02*
X018704Y011591D01*
X018908Y011591D01*
X019010Y011490D01*
X019010Y011388D01*
X018603Y010981D01*
X019010Y010981D01*
X019085Y010556D02*
X018881Y010556D01*
X018780Y010455D01*
X018983Y010251D02*
X019085Y010251D01*
X019187Y010149D01*
X019187Y010048D01*
X019085Y009946D01*
X018881Y009946D01*
X018780Y010048D01*
X019085Y010251D02*
X019187Y010353D01*
X019187Y010455D01*
X019085Y010556D01*
X019387Y010455D02*
X019489Y010556D01*
X019693Y010556D01*
X019794Y010455D01*
X019794Y010353D01*
X019693Y010251D01*
X019794Y010149D01*
X019794Y010048D01*
X019693Y009946D01*
X019489Y009946D01*
X019387Y010048D01*
X019591Y010251D02*
X019693Y010251D01*
X018470Y009706D02*
X018416Y009708D01*
X018363Y009714D01*
X018311Y009723D01*
X018259Y009736D01*
X018208Y009753D01*
X018158Y009774D01*
X018111Y009798D01*
X018065Y009825D01*
X018021Y009856D01*
X017979Y009889D01*
X017940Y009926D01*
X017903Y009965D01*
X017870Y010007D01*
X017839Y010051D01*
X017812Y010097D01*
X017788Y010144D01*
X017767Y010194D01*
X017750Y010245D01*
X017737Y010297D01*
X017728Y010349D01*
X017722Y010402D01*
X017720Y010456D01*
X017170Y011385D02*
X016720Y011385D01*
X016720Y011610D01*
X016795Y011685D01*
X016945Y011685D01*
X017020Y011610D01*
X017020Y011385D01*
X017020Y011535D02*
X017170Y011685D01*
X017170Y011845D02*
X017095Y011845D01*
X016795Y012146D01*
X016720Y012146D01*
X016720Y011845D01*
X016970Y012365D02*
X016970Y012665D01*
X017120Y012825D02*
X017195Y012825D01*
X017120Y012825D02*
X016820Y013125D01*
X016745Y013125D01*
X016745Y012825D01*
X016745Y012590D02*
X016970Y012365D01*
X017195Y012590D02*
X016745Y012590D01*
X016820Y013285D02*
X016745Y013360D01*
X016745Y013511D01*
X016820Y013586D01*
X017120Y013285D01*
X017195Y013360D01*
X017195Y013511D01*
X017120Y013586D01*
X016820Y013586D01*
X016820Y013285D02*
X017120Y013285D01*
X015645Y011556D02*
X015145Y011556D01*
X015145Y003756D01*
X005845Y003756D01*
X005845Y011556D01*
X015145Y011556D01*
X015645Y011556D02*
X015645Y015056D01*
X014945Y015956D01*
X014945Y017956D01*
X005345Y017956D01*
X005345Y011556D01*
X005845Y011556D01*
X005845Y008356D02*
X005845Y008156D01*
X012318Y015781D02*
X012543Y015781D01*
X012618Y015856D01*
X012618Y015931D01*
X012543Y016006D01*
X012318Y016006D01*
X012318Y016231D02*
X012543Y016231D01*
X012618Y016156D01*
X012618Y016081D01*
X012543Y016006D01*
X012778Y016156D02*
X012778Y015856D01*
X012853Y015781D01*
X013004Y015781D01*
X013079Y015856D01*
X013239Y015856D02*
X013314Y015781D01*
X013464Y015781D01*
X013539Y015856D01*
X013539Y015931D01*
X013464Y016006D01*
X013389Y016006D01*
X013464Y016006D02*
X013539Y016081D01*
X013539Y016156D01*
X013464Y016231D01*
X013314Y016231D01*
X013239Y016156D01*
X013079Y016156D02*
X013004Y016231D01*
X012853Y016231D01*
X012778Y016156D01*
X012639Y016406D02*
X012789Y016556D01*
X012789Y016856D01*
X012949Y016856D02*
X013249Y016856D01*
X013099Y016856D02*
X013099Y016406D01*
X013410Y016406D02*
X013710Y016406D01*
X013560Y016406D02*
X013560Y016856D01*
X013410Y016706D01*
X013774Y016231D02*
X013924Y016231D01*
X013999Y016156D01*
X013999Y016081D01*
X013924Y016006D01*
X013999Y015931D01*
X013999Y015856D01*
X013924Y015781D01*
X013774Y015781D01*
X013699Y015856D01*
X013849Y016006D02*
X013924Y016006D01*
X013699Y016156D02*
X013774Y016231D01*
X014160Y016231D02*
X014460Y016231D01*
X014460Y016156D01*
X014160Y015856D01*
X014160Y015781D01*
X012639Y016406D02*
X012489Y016556D01*
X012489Y016856D01*
X012318Y016231D02*
X012318Y015781D01*
X014070Y019256D02*
X014070Y020906D01*
X014670Y021130D02*
X014670Y020634D01*
X014670Y020528D01*
X014670Y019634D01*
X014670Y019528D01*
X014670Y019032D01*
X014282Y019127D02*
X014226Y019154D01*
X014172Y019185D01*
X014120Y019219D01*
X014070Y019256D01*
X014670Y019032D02*
X014734Y019031D01*
X014798Y019034D01*
X014862Y019041D01*
X014925Y019051D01*
X014987Y019066D01*
X015048Y019084D01*
X015109Y019106D01*
X015167Y019131D01*
X014670Y019032D02*
X014611Y019037D01*
X014553Y019044D01*
X014495Y019055D01*
X014438Y019070D01*
X014382Y019087D01*
X014327Y019107D01*
X014273Y019131D01*
X014670Y021130D02*
X014734Y021131D01*
X014798Y021128D01*
X014862Y021121D01*
X014925Y021111D01*
X014987Y021096D01*
X015048Y021078D01*
X015109Y021056D01*
X015167Y021031D01*
X014273Y021031D02*
X014219Y021004D01*
X014168Y020974D01*
X014118Y020941D01*
X014070Y020906D01*
X015167Y021031D02*
X015224Y021002D01*
X015280Y020969D01*
X015333Y020934D01*
X015384Y020894D01*
X015432Y020852D01*
X015478Y020807D01*
X015521Y020760D01*
X015561Y020710D01*
X015598Y020657D01*
X015631Y020602D01*
X015662Y020546D01*
X015688Y020487D01*
X015711Y020427D01*
X015731Y020366D01*
X015746Y020304D01*
X015758Y020241D01*
X015766Y020177D01*
X015770Y020113D01*
X015770Y020049D01*
X015766Y019985D01*
X015758Y019921D01*
X015746Y019858D01*
X015731Y019796D01*
X015711Y019735D01*
X015688Y019675D01*
X015662Y019616D01*
X015631Y019560D01*
X015598Y019505D01*
X015561Y019452D01*
X015521Y019402D01*
X015478Y019355D01*
X015432Y019310D01*
X015384Y019268D01*
X015333Y019228D01*
X015280Y019193D01*
X015224Y019160D01*
X015167Y019131D01*
X014670Y021130D02*
X014611Y021125D01*
X014553Y021118D01*
X014495Y021107D01*
X014438Y021092D01*
X014382Y021075D01*
X014327Y021055D01*
X014273Y021031D01*
X013931Y022366D02*
X014081Y022516D01*
X014081Y022666D01*
X013931Y022816D01*
X013774Y022816D02*
X013699Y022741D01*
X013699Y022366D01*
X013464Y022366D02*
X013464Y022591D01*
X013388Y022666D01*
X013313Y022591D01*
X013313Y022366D01*
X013163Y022366D02*
X013163Y022666D01*
X013238Y022666D01*
X013313Y022591D01*
X013624Y022591D02*
X013774Y022591D01*
X013345Y023231D02*
X013345Y023531D01*
X013345Y023381D02*
X012895Y023381D01*
X013045Y023231D01*
X013003Y022816D02*
X013003Y022741D01*
X012703Y022441D01*
X012703Y022366D01*
X012468Y022366D02*
X012468Y022816D01*
X012242Y022591D01*
X012543Y022591D01*
X012703Y022816D02*
X013003Y022816D01*
X012086Y022816D02*
X011936Y022666D01*
X011936Y022516D01*
X012086Y022366D01*
X011779Y022591D02*
X011629Y022591D01*
X011469Y022591D02*
X011469Y022366D01*
X011318Y022366D02*
X011318Y022591D01*
X011393Y022666D01*
X011469Y022591D01*
X011318Y022591D02*
X011243Y022666D01*
X011168Y022666D01*
X011168Y022366D01*
X011008Y022441D02*
X010933Y022366D01*
X010783Y022366D01*
X010708Y022441D01*
X011008Y022741D01*
X011008Y022441D01*
X011008Y022741D02*
X010933Y022816D01*
X010783Y022816D01*
X010708Y022741D01*
X010708Y022441D01*
X010548Y022366D02*
X010247Y022366D01*
X010548Y022666D01*
X010548Y022741D01*
X010473Y022816D01*
X010323Y022816D01*
X010247Y022741D01*
X010087Y022741D02*
X010012Y022816D01*
X009862Y022816D01*
X009787Y022741D01*
X010087Y022741D02*
X010087Y022666D01*
X009787Y022366D01*
X010087Y022366D01*
X010045Y023106D02*
X010120Y023181D01*
X010045Y023106D02*
X009895Y023106D01*
X009820Y023181D01*
X009820Y023481D01*
X009895Y023556D01*
X010045Y023556D01*
X010120Y023481D01*
X010280Y023481D02*
X010280Y023406D01*
X010355Y023331D01*
X010581Y023331D01*
X010581Y023481D02*
X010506Y023556D01*
X010355Y023556D01*
X010280Y023481D01*
X010280Y023181D02*
X010355Y023106D01*
X010506Y023106D01*
X010581Y023181D01*
X010581Y023481D01*
X011704Y022741D02*
X011779Y022816D01*
X011704Y022741D02*
X011704Y022366D01*
X011370Y026081D02*
X011220Y026081D01*
X011220Y026306D01*
X011295Y026381D01*
X011370Y026381D01*
X011445Y026306D01*
X011445Y026156D01*
X011370Y026081D01*
X011220Y026081D02*
X011070Y026231D01*
X010995Y026381D01*
X011370Y026456D02*
X011370Y026756D01*
X011520Y026906D01*
X011670Y026756D01*
X011670Y026456D01*
X011830Y026606D02*
X011981Y026456D01*
X012131Y026606D01*
X012131Y026906D01*
X012291Y026906D02*
X012516Y026906D01*
X012591Y026831D01*
X012591Y026681D01*
X012516Y026606D01*
X012291Y026606D01*
X012418Y026569D02*
X012268Y026418D01*
X012493Y026418D01*
X012568Y026343D01*
X012568Y026268D01*
X012493Y026193D01*
X012343Y026193D01*
X012268Y026268D01*
X012268Y026418D01*
X012291Y026456D02*
X012291Y026906D01*
X012108Y026644D02*
X011808Y026193D01*
X012108Y026193D02*
X011808Y026644D01*
X011830Y026606D02*
X011830Y026906D01*
X011670Y026681D02*
X011370Y026681D01*
X012418Y026569D02*
X012568Y026644D01*
X012441Y026606D02*
X012591Y026456D01*
X012751Y026456D02*
X012901Y026456D01*
X012826Y026456D02*
X012826Y026906D01*
X012751Y026906D02*
X012901Y026906D01*
X013058Y026831D02*
X013058Y026756D01*
X013133Y026681D01*
X013283Y026681D01*
X013358Y026606D01*
X013358Y026531D01*
X013283Y026456D01*
X013133Y026456D01*
X013058Y026531D01*
X013058Y026831D02*
X013133Y026906D01*
X013283Y026906D01*
X013358Y026831D01*
X013518Y026906D02*
X013518Y026456D01*
X013518Y026606D02*
X013744Y026606D01*
X013819Y026681D01*
X013819Y026831D01*
X013744Y026906D01*
X013518Y026906D01*
X013970Y026841D02*
X014045Y026916D01*
X014345Y026616D01*
X014420Y026691D01*
X014420Y026841D01*
X014345Y026916D01*
X014045Y026916D01*
X013970Y026841D02*
X013970Y026691D01*
X014045Y026616D01*
X014345Y026616D01*
X014420Y026456D02*
X014420Y026156D01*
X014420Y026306D02*
X013970Y026306D01*
X014120Y026156D01*
X018720Y024206D02*
X031470Y024206D01*
X031524Y024204D01*
X031577Y024198D01*
X031629Y024189D01*
X031681Y024176D01*
X031732Y024159D01*
X031782Y024138D01*
X031829Y024114D01*
X031875Y024087D01*
X031919Y024056D01*
X031961Y024023D01*
X032000Y023986D01*
X032037Y023947D01*
X032070Y023905D01*
X032101Y023861D01*
X032128Y023815D01*
X032152Y023768D01*
X032173Y023718D01*
X032190Y023667D01*
X032203Y023615D01*
X032212Y023563D01*
X032218Y023510D01*
X032220Y023456D01*
X032220Y010456D01*
X031693Y010821D02*
X031693Y011431D01*
X031387Y011126D01*
X031794Y011126D01*
X031187Y011126D02*
X031187Y010923D01*
X031085Y010821D01*
X030881Y010821D01*
X030780Y010923D01*
X030780Y011126D02*
X030983Y011228D01*
X031085Y011228D01*
X031187Y011126D01*
X031187Y011431D02*
X030780Y011431D01*
X030780Y011126D01*
X030408Y010466D02*
X030204Y010466D01*
X030103Y010365D01*
X029902Y010466D02*
X029495Y010466D01*
X029495Y010161D01*
X029699Y010263D01*
X029800Y010263D01*
X029902Y010161D01*
X029902Y009958D01*
X029800Y009856D01*
X029597Y009856D01*
X029495Y009958D01*
X030103Y009958D02*
X030204Y009856D01*
X030408Y009856D01*
X030510Y009958D01*
X030510Y010059D01*
X030408Y010161D01*
X030306Y010161D01*
X030408Y010161D02*
X030510Y010263D01*
X030510Y010365D01*
X030408Y010466D01*
X031470Y009706D02*
X031524Y009708D01*
X031577Y009714D01*
X031629Y009723D01*
X031681Y009736D01*
X031732Y009753D01*
X031782Y009774D01*
X031829Y009798D01*
X031875Y009825D01*
X031919Y009856D01*
X031961Y009889D01*
X032000Y009926D01*
X032037Y009965D01*
X032070Y010007D01*
X032101Y010051D01*
X032128Y010097D01*
X032152Y010144D01*
X032173Y010194D01*
X032190Y010245D01*
X032203Y010297D01*
X032212Y010349D01*
X032218Y010402D01*
X032220Y010456D01*
X031470Y009706D02*
X018470Y009706D01*
X017420Y016675D02*
X016970Y016675D01*
X016970Y016900D01*
X017045Y016975D01*
X017195Y016975D01*
X017270Y016900D01*
X017270Y016675D01*
X017270Y016825D02*
X017420Y016975D01*
X017420Y017135D02*
X017120Y017435D01*
X017045Y017435D01*
X016970Y017360D01*
X016970Y017210D01*
X017045Y017135D01*
X017420Y017135D02*
X017420Y017435D01*
X017195Y017595D02*
X017195Y017896D01*
X017420Y017821D02*
X016970Y017821D01*
X017195Y017595D01*
X017070Y018216D02*
X016995Y018291D01*
X016995Y018441D01*
X017070Y018516D01*
X017145Y018516D01*
X017445Y018216D01*
X017445Y018516D01*
X017445Y018676D02*
X016995Y018676D01*
X017145Y018901D02*
X017295Y018676D01*
X017445Y018901D01*
X017445Y019060D02*
X017145Y019360D01*
X017070Y019360D01*
X016995Y019285D01*
X016995Y019135D01*
X017070Y019060D01*
X017445Y019060D02*
X017445Y019360D01*
X017220Y022156D02*
X017220Y022456D01*
X017220Y022306D02*
X016770Y022306D01*
X016920Y022156D01*
X017995Y022481D02*
X018402Y022481D01*
X018603Y022481D02*
X019010Y022888D01*
X019010Y022990D01*
X018908Y023091D01*
X018704Y023091D01*
X018603Y022990D01*
X018199Y023091D02*
X018199Y022481D01*
X018603Y022481D02*
X019010Y022481D01*
X018199Y023091D02*
X017995Y022888D01*
X019495Y023481D02*
X019902Y023481D01*
X020103Y023481D02*
X020510Y023481D01*
X020306Y023481D02*
X020306Y024091D01*
X020103Y023888D01*
X019699Y024091D02*
X019699Y023481D01*
X019495Y023888D02*
X019699Y024091D01*
X029495Y024091D02*
X029902Y024091D01*
X029902Y023990D01*
X029495Y023583D01*
X029495Y023481D01*
X030103Y023583D02*
X030204Y023481D01*
X030408Y023481D01*
X030510Y023583D01*
X030510Y023786D01*
X030408Y023888D01*
X030306Y023888D01*
X030103Y023786D01*
X030103Y024091D01*
X030510Y024091D01*
X030780Y023181D02*
X031187Y023181D01*
X031187Y023080D01*
X030780Y022673D01*
X030780Y022571D01*
X031387Y022876D02*
X031794Y022876D01*
X031693Y022571D02*
X031693Y023181D01*
X031387Y022876D01*
X009513Y027906D02*
X009363Y027906D01*
X009203Y027906D02*
X009203Y027681D01*
X009053Y027681D02*
X009053Y027906D01*
X009128Y027981D01*
X009203Y027906D01*
X009053Y027906D02*
X008978Y027981D01*
X008903Y027981D01*
X008903Y027681D01*
X008743Y027756D02*
X008667Y027681D01*
X008517Y027681D01*
X008442Y027756D01*
X008743Y028056D01*
X008743Y027756D01*
X008743Y028056D02*
X008667Y028131D01*
X008517Y028131D01*
X008442Y028056D01*
X008442Y027756D01*
X008282Y027681D02*
X007982Y027681D01*
X008132Y027681D02*
X008132Y028131D01*
X007982Y027981D01*
X008239Y028231D02*
X008389Y028231D01*
X008464Y028306D01*
X008624Y028306D02*
X008699Y028231D01*
X008849Y028231D01*
X008924Y028306D01*
X008924Y028381D01*
X008849Y028456D01*
X008624Y028456D01*
X008624Y028306D01*
X008624Y028456D02*
X008774Y028606D01*
X008924Y028681D01*
X009085Y028681D02*
X009310Y028681D01*
X009385Y028606D01*
X009385Y028456D01*
X009310Y028381D01*
X009085Y028381D01*
X009085Y028231D02*
X009085Y028681D01*
X008464Y028606D02*
X008389Y028681D01*
X008239Y028681D01*
X008164Y028606D01*
X008164Y028306D01*
X008239Y028231D01*
X009438Y028056D02*
X009438Y027681D01*
X009438Y028056D02*
X009513Y028131D01*
X006247Y026056D02*
X006247Y025606D01*
X006322Y025831D02*
X006022Y025831D01*
X006247Y026056D01*
X005862Y025981D02*
X005562Y025681D01*
X005637Y025606D01*
X005787Y025606D01*
X005862Y025681D01*
X005862Y025981D01*
X005787Y026056D01*
X005637Y026056D01*
X005562Y025981D01*
X005562Y025681D01*
X005401Y025681D02*
X005326Y025606D01*
X005176Y025606D01*
X005101Y025681D01*
X005176Y025831D02*
X005326Y025831D01*
X005401Y025756D01*
X005401Y025681D01*
X005176Y025831D02*
X005101Y025906D01*
X005101Y025981D01*
X005176Y026056D01*
X005326Y026056D01*
X005401Y025981D01*
X004941Y025606D02*
X004641Y025606D01*
X004641Y026056D01*
X004406Y026056D02*
X004180Y025831D01*
X004481Y025831D01*
X004406Y025606D02*
X004406Y026056D01*
X004020Y026056D02*
X004020Y025981D01*
X003720Y025681D01*
X003720Y025606D01*
X003720Y026056D02*
X004020Y026056D01*
X002670Y026037D02*
X002670Y026337D01*
X002670Y026187D02*
X002220Y026187D01*
X002370Y026037D01*
X002670Y025877D02*
X002670Y025577D01*
X002670Y025727D02*
X002220Y025727D01*
X002370Y025577D01*
X002295Y025416D02*
X002220Y025341D01*
X002220Y025116D01*
X002670Y025116D01*
X002670Y025341D01*
X002595Y025416D01*
X002295Y025416D01*
X002295Y024956D02*
X002220Y024881D01*
X002220Y024656D01*
X002670Y024656D01*
X002670Y024881D01*
X002595Y024956D01*
X002295Y024956D01*
X002310Y023131D02*
X002310Y022681D01*
X002160Y022681D02*
X002460Y022681D01*
X002160Y022981D02*
X002310Y023131D01*
X001999Y023131D02*
X001999Y023056D01*
X001699Y022756D01*
X001699Y022681D01*
X001999Y022681D01*
X001824Y022356D02*
X001824Y021906D01*
X001664Y021906D02*
X001664Y022356D01*
X001514Y022206D01*
X001364Y022356D01*
X001364Y021906D01*
X001129Y021906D02*
X001129Y022356D01*
X000903Y022131D01*
X001204Y022131D01*
X000743Y021906D02*
X000443Y021906D01*
X000593Y021906D02*
X000593Y022356D01*
X000443Y022206D01*
X001824Y022131D02*
X001899Y022206D01*
X002049Y022206D01*
X002124Y022131D01*
X002124Y021906D01*
X002285Y021906D02*
X002585Y021906D01*
X002585Y022206D02*
X002285Y021906D01*
X002285Y022206D02*
X002585Y022206D01*
X001999Y023131D02*
X001699Y023131D01*
D17*
X022057Y019869D02*
X022057Y014042D01*
X027883Y014042D01*
X027883Y019869D01*
X022057Y019869D01*
D18*
X033309Y025796D02*
X033309Y026216D01*
X033520Y026426D01*
X033730Y026216D01*
X033730Y025796D01*
X033730Y026111D02*
X033309Y026111D01*
X033954Y026426D02*
X034374Y026426D01*
X034164Y026426D02*
X034164Y025796D01*
X034599Y025796D02*
X034599Y026426D01*
X034809Y026216D01*
X035019Y026426D01*
X035019Y025796D01*
X035243Y025796D02*
X035243Y026426D01*
X035664Y026426D01*
X035696Y026666D02*
X036012Y026666D01*
X036117Y026771D01*
X036117Y027191D01*
X036012Y027296D01*
X035696Y027296D01*
X035696Y026666D01*
X035993Y026426D02*
X035888Y026321D01*
X035888Y025901D01*
X035993Y025796D01*
X036203Y025796D01*
X036308Y025901D01*
X036308Y026111D01*
X036098Y026111D01*
X036308Y026321D02*
X036203Y026426D01*
X035993Y026426D01*
X036341Y026666D02*
X036656Y026666D01*
X036761Y026771D01*
X036761Y027191D01*
X036656Y027296D01*
X036341Y027296D01*
X036341Y026666D01*
X036742Y026426D02*
X036532Y026216D01*
X036532Y025796D01*
X036532Y026111D02*
X036953Y026111D01*
X036953Y026216D02*
X036953Y025796D01*
X037177Y025901D02*
X037282Y025796D01*
X037492Y025796D01*
X037597Y025901D01*
X037597Y026006D01*
X037492Y026111D01*
X037387Y026111D01*
X037492Y026111D02*
X037597Y026216D01*
X037597Y026321D01*
X037492Y026426D01*
X037282Y026426D01*
X037177Y026321D01*
X036953Y026216D02*
X036742Y026426D01*
X036985Y026666D02*
X036985Y026771D01*
X037406Y027191D01*
X037406Y027296D01*
X036985Y027296D01*
X037926Y026426D02*
X037821Y026321D01*
X037926Y026426D02*
X038137Y026426D01*
X038242Y026321D01*
X038242Y026216D01*
X037821Y025796D01*
X038242Y025796D01*
X038466Y026111D02*
X038886Y026111D01*
X039110Y026006D02*
X039426Y026006D01*
X039531Y026111D01*
X039531Y026321D01*
X039426Y026426D01*
X039110Y026426D01*
X039110Y025796D01*
X035664Y025796D02*
X035243Y025796D01*
X035243Y026111D02*
X035453Y026111D01*
X035590Y006746D02*
X035275Y006746D01*
X035275Y006116D01*
X035590Y006116D01*
X035695Y006221D01*
X035695Y006641D01*
X035590Y006746D01*
X035919Y006431D02*
X036234Y006431D01*
X036339Y006326D01*
X036339Y006221D01*
X036234Y006116D01*
X036024Y006116D01*
X035919Y006221D01*
X035919Y006431D01*
X036129Y006641D01*
X036339Y006746D01*
X037130Y006436D02*
X037445Y006436D01*
X037550Y006331D01*
X037550Y006226D01*
X037445Y006121D01*
X037235Y006121D01*
X037130Y006226D01*
X037130Y006436D01*
X037340Y006646D01*
X037550Y006751D01*
X037775Y006646D02*
X037880Y006751D01*
X038090Y006751D01*
X038195Y006646D01*
X038195Y006541D01*
X037775Y006121D01*
X038195Y006121D01*
X038419Y006121D02*
X038839Y006541D01*
X038839Y006646D01*
X038734Y006751D01*
X038524Y006751D01*
X038419Y006646D01*
X038419Y006121D02*
X038839Y006121D01*
X039064Y006226D02*
X039169Y006121D01*
X039379Y006121D01*
X039484Y006226D01*
X039484Y006436D01*
X039379Y006541D01*
X039274Y006541D01*
X039064Y006436D01*
X039064Y006751D01*
X039484Y006751D01*
X039708Y006436D02*
X039918Y006646D01*
X040129Y006751D01*
X040023Y006436D02*
X039708Y006436D01*
X039708Y006226D01*
X039813Y006121D01*
X040023Y006121D01*
X040129Y006226D01*
X040129Y006331D01*
X040023Y006436D01*
X035050Y006221D02*
X035050Y006641D01*
X034945Y006746D01*
X034630Y006746D01*
X034630Y006116D01*
X034945Y006116D01*
X035050Y006221D01*
X007954Y040598D02*
X007954Y041229D01*
X008270Y041229D01*
X008375Y041124D01*
X008375Y040914D01*
X008270Y040808D01*
X007954Y040808D01*
X007730Y040703D02*
X007625Y040598D01*
X007415Y040598D01*
X007310Y040703D01*
X007310Y040914D02*
X007520Y041019D01*
X007625Y041019D01*
X007730Y040914D01*
X007730Y040703D01*
X007310Y040914D02*
X007310Y041229D01*
X007730Y041229D01*
X007086Y040914D02*
X006665Y040914D01*
X006981Y041229D01*
X006981Y040598D01*
X006441Y040703D02*
X006336Y040598D01*
X006126Y040598D01*
X006021Y040703D01*
X006021Y040914D01*
X006336Y040914D01*
X006441Y040808D01*
X006441Y040703D01*
X006231Y041124D02*
X006021Y040914D01*
X006231Y041124D02*
X006441Y041229D01*
X006214Y041401D02*
X005794Y041401D01*
X006004Y041401D02*
X006004Y042031D01*
X005794Y041821D01*
X005570Y041821D02*
X005570Y041401D01*
X005586Y041229D02*
X005586Y040598D01*
X005376Y040598D02*
X005797Y040598D01*
X005376Y041019D02*
X005586Y041229D01*
X005150Y041401D02*
X005150Y041821D01*
X005360Y042031D01*
X005570Y041821D01*
X005570Y041716D02*
X005150Y041716D01*
X004925Y041506D02*
X004925Y041926D01*
X004820Y042031D01*
X004505Y042031D01*
X004505Y041401D01*
X004820Y041401D01*
X004925Y041506D01*
X004942Y041229D02*
X004732Y041019D01*
X004732Y040598D01*
X004507Y040598D02*
X004087Y041229D01*
X003863Y041124D02*
X003758Y041229D01*
X003548Y041229D01*
X003443Y041124D01*
X003443Y040703D01*
X003548Y040598D01*
X003758Y040598D01*
X003863Y040703D01*
X004087Y040598D02*
X004507Y041229D01*
X004732Y040914D02*
X005152Y040914D01*
X005152Y041019D02*
X005152Y040598D01*
X005152Y041019D02*
X004942Y041229D01*
X015468Y046521D02*
X015573Y046416D01*
X015783Y046416D01*
X015889Y046521D01*
X015889Y046626D01*
X015783Y046731D01*
X015573Y046731D01*
X015468Y046836D01*
X015468Y046941D01*
X015573Y047046D01*
X015783Y047046D01*
X015889Y046941D01*
X016113Y046941D02*
X016113Y046521D01*
X016218Y046416D01*
X016428Y046416D01*
X016533Y046521D01*
X016757Y046416D02*
X016757Y046836D01*
X016967Y047046D01*
X017178Y046836D01*
X017178Y046416D01*
X017402Y046416D02*
X017402Y047046D01*
X017717Y047046D01*
X017822Y046941D01*
X017822Y046731D01*
X017717Y046626D01*
X017402Y046626D01*
X017612Y046626D02*
X017822Y046416D01*
X018257Y046416D02*
X018257Y047046D01*
X018467Y047046D02*
X018046Y047046D01*
X018691Y046731D02*
X019111Y046731D01*
X019335Y046731D02*
X019546Y046731D01*
X019756Y047046D02*
X019335Y047046D01*
X019335Y046416D01*
X017178Y046731D02*
X016757Y046731D01*
X016533Y046941D02*
X016428Y047046D01*
X016218Y047046D01*
X016113Y046941D01*
X025755Y047346D02*
X025860Y047241D01*
X026070Y047241D01*
X026175Y047346D01*
X026175Y047451D01*
X026070Y047556D01*
X025860Y047556D01*
X025755Y047661D01*
X025755Y047766D01*
X025860Y047871D01*
X026070Y047871D01*
X026175Y047766D01*
X026400Y047766D02*
X026400Y047346D01*
X026505Y047241D01*
X026715Y047241D01*
X026820Y047346D01*
X027044Y047241D02*
X027044Y047661D01*
X027254Y047871D01*
X027464Y047661D01*
X027464Y047241D01*
X027689Y047241D02*
X027689Y047871D01*
X028004Y047871D01*
X028109Y047766D01*
X028109Y047556D01*
X028004Y047451D01*
X027689Y047451D01*
X027899Y047451D02*
X028109Y047241D01*
X028543Y047241D02*
X028543Y047871D01*
X028333Y047871D02*
X028754Y047871D01*
X028978Y047556D02*
X029398Y047556D01*
X029622Y047556D02*
X029832Y047556D01*
X029622Y047241D02*
X029622Y047871D01*
X030043Y047871D01*
X027464Y047556D02*
X027044Y047556D01*
X026820Y047766D02*
X026715Y047871D01*
X026505Y047871D01*
X026400Y047766D01*
X026400Y048316D02*
X026820Y048736D01*
X026820Y048841D01*
X026715Y048946D01*
X026505Y048946D01*
X026400Y048841D01*
X026175Y048946D02*
X025755Y048316D01*
X026175Y048316D02*
X025755Y048946D01*
X026400Y048316D02*
X026820Y048316D01*
D19*
X011595Y031643D02*
X011595Y027643D01*
X004095Y023581D02*
X004095Y019581D01*
D20*
X007595Y021211D02*
X008095Y021211D01*
X008595Y021211D01*
X008595Y021461D02*
X008595Y021711D01*
X007595Y021711D01*
X007595Y021461D01*
X008595Y021461D01*
X008595Y021951D02*
X008095Y021951D01*
X007595Y021951D01*
X015095Y029273D02*
X015595Y029273D01*
X016095Y029273D01*
X016095Y029523D02*
X016095Y029773D01*
X015095Y029773D01*
X015095Y029523D01*
X016095Y029523D01*
X016095Y030013D02*
X015595Y030013D01*
X015095Y030013D01*
D21*
X002355Y034441D02*
X002355Y034731D01*
X001835Y034731D02*
X001835Y034431D01*
X001623Y035601D02*
X001316Y035601D01*
X001240Y035678D01*
X001240Y035831D01*
X001316Y035908D01*
X001393Y036061D02*
X001240Y036215D01*
X001700Y036215D01*
X001700Y036368D02*
X001700Y036061D01*
X001623Y035908D02*
X001700Y035831D01*
X001700Y035678D01*
X001623Y035601D01*
X001990Y035956D02*
X002220Y035726D01*
X002220Y036033D01*
X002373Y036186D02*
X002066Y036493D01*
X001990Y036493D01*
X001990Y036186D01*
X001990Y035956D02*
X002450Y035956D01*
X002450Y036186D02*
X002373Y036186D01*
X001700Y036522D02*
X001700Y036829D01*
X001700Y036982D02*
X001240Y036982D01*
X001240Y037212D01*
X001316Y037289D01*
X001470Y037289D01*
X001547Y037212D01*
X001547Y036982D01*
X001393Y036829D02*
X001700Y036522D01*
X001316Y036522D02*
X001240Y036598D01*
X001240Y036752D01*
X001316Y036829D01*
X001393Y036829D01*
X001277Y019749D02*
X001353Y019672D01*
X001353Y019519D01*
X001277Y019442D01*
X001046Y019442D01*
X001046Y019288D02*
X001046Y019749D01*
X001277Y019749D01*
X001507Y019672D02*
X001583Y019749D01*
X001737Y019749D01*
X001814Y019672D01*
X001814Y019595D01*
X001737Y019519D01*
X001814Y019442D01*
X001814Y019365D01*
X001737Y019288D01*
X001583Y019288D01*
X001507Y019365D01*
X001353Y019288D02*
X001200Y019442D01*
X001200Y018999D02*
X001200Y018538D01*
X001353Y018538D02*
X001046Y018538D01*
X001046Y018845D02*
X001200Y018999D01*
X001507Y018999D02*
X001507Y018769D01*
X001660Y018845D01*
X001737Y018845D01*
X001814Y018769D01*
X001814Y018615D01*
X001737Y018538D01*
X001583Y018538D01*
X001507Y018615D01*
X001507Y018999D02*
X001814Y018999D01*
X001967Y018922D02*
X002044Y018999D01*
X002197Y018999D01*
X002274Y018922D01*
X001967Y018615D01*
X002044Y018538D01*
X002197Y018538D01*
X002274Y018615D01*
X002274Y018922D01*
X001967Y018922D02*
X001967Y018615D01*
X002197Y019288D02*
X002197Y019749D01*
X001967Y019519D01*
X002274Y019519D01*
X001737Y019519D02*
X001660Y019519D01*
X004003Y018080D02*
X004437Y018080D01*
X004437Y017332D01*
X004003Y017332D01*
X004003Y018080D01*
X003034Y016933D02*
X002957Y016933D01*
X002804Y016779D01*
X002804Y016626D02*
X002804Y016933D01*
X002650Y016856D02*
X002650Y016779D01*
X002343Y016779D01*
X002343Y016703D02*
X002343Y016856D01*
X002420Y016933D01*
X002573Y016933D01*
X002650Y016856D01*
X002573Y016626D02*
X002420Y016626D01*
X002343Y016703D01*
X002190Y016703D02*
X002190Y016933D01*
X002240Y017145D02*
X001933Y017145D01*
X002086Y017145D02*
X002086Y017605D01*
X001933Y017452D01*
X001779Y017145D02*
X001472Y017145D01*
X001472Y017605D01*
X001319Y017605D02*
X001319Y017145D01*
X001319Y017375D02*
X001012Y017375D01*
X001012Y017145D02*
X001012Y017605D01*
X000962Y016933D02*
X001192Y016933D01*
X001269Y016856D01*
X001269Y016703D01*
X001192Y016626D01*
X000962Y016626D01*
X000962Y016472D02*
X000962Y016933D01*
X001422Y016856D02*
X001422Y016703D01*
X001499Y016626D01*
X001653Y016626D01*
X001729Y016703D01*
X001729Y016856D01*
X001653Y016933D01*
X001499Y016933D01*
X001422Y016856D01*
X001883Y016933D02*
X001883Y016703D01*
X001959Y016626D01*
X002036Y016703D01*
X002113Y016626D01*
X002190Y016703D01*
X002038Y015855D02*
X001884Y015855D01*
X001808Y015778D01*
X002038Y015855D02*
X002115Y015778D01*
X002115Y015702D01*
X001808Y015395D01*
X002115Y015395D01*
X002190Y015058D02*
X001959Y015058D01*
X001883Y014981D01*
X001883Y014828D01*
X001959Y014751D01*
X002190Y014751D01*
X002343Y014828D02*
X002420Y014904D01*
X002650Y014904D01*
X002650Y014981D02*
X002650Y014751D01*
X002420Y014751D01*
X002343Y014828D01*
X002420Y015058D02*
X002573Y015058D01*
X002650Y014981D01*
X002804Y014904D02*
X002957Y015058D01*
X003034Y015058D01*
X003187Y014981D02*
X003264Y015058D01*
X003494Y015058D01*
X003494Y015211D02*
X003494Y014751D01*
X003264Y014751D01*
X003187Y014828D01*
X003187Y014981D01*
X002804Y015058D02*
X002804Y014751D01*
X002260Y014186D02*
X002106Y014186D01*
X002030Y014109D01*
X001876Y014109D02*
X001876Y014033D01*
X001799Y013956D01*
X001876Y013879D01*
X001876Y013803D01*
X001799Y013726D01*
X001646Y013726D01*
X001569Y013803D01*
X001416Y013726D02*
X001262Y013879D01*
X001339Y013879D02*
X001109Y013879D01*
X001109Y013726D02*
X001109Y014186D01*
X001339Y014186D01*
X001416Y014109D01*
X001416Y013956D01*
X001339Y013879D01*
X001569Y014109D02*
X001646Y014186D01*
X001799Y014186D01*
X001876Y014109D01*
X001799Y013956D02*
X001723Y013956D01*
X002030Y013803D02*
X002106Y013726D01*
X002260Y013726D01*
X002337Y013803D01*
X002337Y013879D01*
X002260Y013956D01*
X002183Y013956D01*
X002260Y013956D02*
X002337Y014033D01*
X002337Y014109D01*
X002260Y014186D01*
X002197Y013499D02*
X002044Y013499D01*
X001967Y013422D01*
X001967Y013115D01*
X002274Y013422D01*
X002274Y013115D01*
X002197Y013038D01*
X002044Y013038D01*
X001967Y013115D01*
X001814Y013115D02*
X001737Y013038D01*
X001583Y013038D01*
X001507Y013115D01*
X001507Y013269D02*
X001660Y013345D01*
X001737Y013345D01*
X001814Y013269D01*
X001814Y013115D01*
X001507Y013269D02*
X001507Y013499D01*
X001814Y013499D01*
X002197Y013499D02*
X002274Y013422D01*
X001353Y013038D02*
X001046Y013038D01*
X001200Y013038D02*
X001200Y013499D01*
X001046Y013345D01*
X000962Y014751D02*
X001192Y014751D01*
X001269Y014828D01*
X001192Y014904D01*
X001039Y014904D01*
X000962Y014981D01*
X001039Y015058D01*
X001269Y015058D01*
X001422Y014981D02*
X001422Y014828D01*
X001499Y014751D01*
X001729Y014751D01*
X001729Y015211D01*
X001729Y015058D02*
X001499Y015058D01*
X001422Y014981D01*
X001347Y015395D02*
X001654Y015395D01*
X001347Y015395D02*
X001347Y015855D01*
X001194Y015855D02*
X001194Y015395D01*
X001194Y015625D02*
X000887Y015625D01*
X000887Y015395D02*
X000887Y015855D01*
X004003Y016080D02*
X004003Y015332D01*
X004437Y015332D01*
X004437Y016080D01*
X004003Y016080D01*
X015059Y009114D02*
X015520Y009114D01*
X015366Y009114D02*
X015520Y009344D01*
X015366Y009114D02*
X015213Y009344D01*
X015520Y008960D02*
X015520Y008653D01*
X015520Y008807D02*
X015059Y008807D01*
X015213Y008653D01*
X017059Y008807D02*
X017520Y008807D01*
X017520Y008960D02*
X017520Y008653D01*
X017213Y008653D02*
X017059Y008807D01*
X017059Y009114D02*
X017520Y009114D01*
X017366Y009114D02*
X017213Y009344D01*
X017366Y009114D02*
X017520Y009344D01*
X018934Y009114D02*
X019395Y009114D01*
X019241Y009114D02*
X019088Y009344D01*
X019241Y009114D02*
X019395Y009344D01*
X019395Y008960D02*
X019395Y008653D01*
X019395Y008807D02*
X018934Y008807D01*
X019088Y008653D01*
X020934Y008807D02*
X021395Y008807D01*
X021395Y008960D02*
X021395Y008653D01*
X021088Y008653D02*
X020934Y008807D01*
X020934Y009114D02*
X021395Y009114D01*
X021241Y009114D02*
X021088Y009344D01*
X021241Y009114D02*
X021395Y009344D01*
X021593Y005855D02*
X021824Y005855D01*
X021900Y005778D01*
X021900Y005624D01*
X021824Y005548D01*
X021593Y005548D01*
X021747Y005548D02*
X021900Y005394D01*
X022054Y005317D02*
X022361Y005317D01*
X022514Y005471D02*
X022591Y005394D01*
X022744Y005394D01*
X022821Y005471D01*
X022821Y005548D01*
X022744Y005624D01*
X022591Y005624D01*
X022514Y005701D01*
X022514Y005778D01*
X022591Y005855D01*
X022744Y005855D01*
X022821Y005778D01*
X022975Y005778D02*
X023128Y005624D01*
X023128Y005394D01*
X023128Y005624D02*
X023281Y005778D01*
X023281Y005855D01*
X022975Y005855D02*
X022975Y005778D01*
X021593Y005855D02*
X021593Y005394D01*
X020946Y005394D02*
X020793Y005548D01*
X020869Y005548D02*
X020639Y005548D01*
X020639Y005394D02*
X020639Y005855D01*
X020869Y005855D01*
X020946Y005778D01*
X020946Y005624D01*
X020869Y005548D01*
X020486Y005317D02*
X020179Y005317D01*
X020025Y005394D02*
X019872Y005548D01*
X019949Y005548D02*
X019718Y005548D01*
X019718Y005394D02*
X019718Y005855D01*
X019949Y005855D01*
X020025Y005778D01*
X020025Y005624D01*
X019949Y005548D01*
X019196Y005624D02*
X019043Y005624D01*
X019196Y005624D02*
X019196Y005471D01*
X019119Y005394D01*
X018966Y005394D01*
X018889Y005471D01*
X018889Y005778D01*
X018966Y005855D01*
X019119Y005855D01*
X019196Y005778D01*
X018736Y005317D02*
X018429Y005317D01*
X018275Y005394D02*
X018122Y005548D01*
X018199Y005548D02*
X017968Y005548D01*
X017968Y005394D02*
X017968Y005855D01*
X018199Y005855D01*
X018275Y005778D01*
X018275Y005624D01*
X018199Y005548D01*
X017196Y005548D02*
X017196Y005471D01*
X017119Y005394D01*
X016889Y005394D01*
X016889Y005855D01*
X017119Y005855D01*
X017196Y005778D01*
X017196Y005701D01*
X017119Y005624D01*
X016889Y005624D01*
X017119Y005624D02*
X017196Y005548D01*
X016736Y005317D02*
X016429Y005317D01*
X016275Y005394D02*
X016122Y005548D01*
X016199Y005548D02*
X015968Y005548D01*
X015968Y005394D02*
X015968Y005855D01*
X016199Y005855D01*
X016275Y005778D01*
X016275Y005624D01*
X016199Y005548D01*
X013012Y005876D02*
X012781Y005876D01*
X012705Y005953D01*
X012705Y006106D01*
X012781Y006183D01*
X013012Y006183D01*
X013012Y006336D02*
X013012Y005876D01*
X012551Y006183D02*
X012474Y006183D01*
X012321Y006029D01*
X012321Y005876D02*
X012321Y006183D01*
X012167Y006106D02*
X012167Y005876D01*
X011937Y005876D01*
X011861Y005953D01*
X011937Y006029D01*
X012167Y006029D01*
X012167Y006106D02*
X012091Y006183D01*
X011937Y006183D01*
X011707Y006259D02*
X011630Y006336D01*
X011477Y006336D01*
X011400Y006259D01*
X011400Y005953D01*
X011477Y005876D01*
X011630Y005876D01*
X011707Y005953D01*
X010786Y005953D02*
X010710Y005876D01*
X010556Y005876D01*
X010479Y005953D01*
X010479Y006259D01*
X010556Y006336D01*
X010710Y006336D01*
X010786Y006259D01*
X010326Y006336D02*
X010326Y005876D01*
X010019Y005876D02*
X010019Y006336D01*
X010172Y006183D01*
X010326Y006336D01*
X009866Y006336D02*
X009866Y005876D01*
X009559Y005876D02*
X009559Y006336D01*
X009712Y006183D01*
X009866Y006336D01*
X009405Y006336D02*
X009098Y005876D01*
X008945Y005953D02*
X008868Y005876D01*
X008638Y005876D01*
X008638Y006336D01*
X008868Y006336D01*
X008945Y006259D01*
X008945Y005953D01*
X008484Y005953D02*
X008408Y005876D01*
X008254Y005876D01*
X008177Y005953D01*
X008254Y006106D02*
X008408Y006106D01*
X008484Y006029D01*
X008484Y005953D01*
X008254Y006106D02*
X008177Y006183D01*
X008177Y006259D01*
X008254Y006336D01*
X008408Y006336D01*
X008484Y006259D01*
X041831Y016134D02*
X041831Y016211D01*
X042138Y016518D01*
X042138Y016595D01*
X041831Y016595D01*
X042292Y016365D02*
X042599Y016365D01*
X042752Y016365D02*
X043059Y016365D01*
X043213Y016518D02*
X043213Y016211D01*
X043289Y016134D01*
X043443Y016134D01*
X043520Y016211D01*
X043520Y016518D02*
X043443Y016595D01*
X043289Y016595D01*
X043213Y016518D01*
X043059Y016595D02*
X043059Y016134D01*
X042752Y016134D02*
X042752Y016595D01*
X042522Y016595D02*
X042292Y016365D01*
X042522Y016134D02*
X042522Y016595D01*
X043673Y016595D02*
X043980Y016595D01*
X043826Y016595D02*
X043826Y016134D01*
X044133Y016134D02*
X044440Y016441D01*
X044440Y016518D01*
X044364Y016595D01*
X044210Y016595D01*
X044133Y016518D01*
X044133Y016134D02*
X044440Y016134D01*
X044594Y016365D02*
X044901Y016365D01*
X045054Y016365D02*
X045208Y016441D01*
X045284Y016441D01*
X045361Y016365D01*
X045361Y016211D01*
X045284Y016134D01*
X045131Y016134D01*
X045054Y016211D01*
X045054Y016365D02*
X045054Y016595D01*
X045361Y016595D01*
X045515Y016595D02*
X045822Y016134D01*
X045822Y016595D01*
X045515Y016595D02*
X045515Y016134D01*
X044824Y016134D02*
X044824Y016595D01*
X044594Y016365D01*
X047707Y016262D02*
X047707Y016186D01*
X047707Y016262D02*
X048014Y016569D01*
X048014Y016646D01*
X047707Y016646D01*
X048168Y016416D02*
X048475Y016416D01*
X048628Y016416D02*
X048935Y016416D01*
X049089Y016569D02*
X049089Y016262D01*
X049165Y016186D01*
X049319Y016186D01*
X049396Y016262D01*
X049396Y016569D02*
X049319Y016646D01*
X049165Y016646D01*
X049089Y016569D01*
X048935Y016646D02*
X048935Y016186D01*
X048628Y016186D02*
X048628Y016646D01*
X048398Y016646D02*
X048398Y016186D01*
X048168Y016416D02*
X048398Y016646D01*
X049549Y016646D02*
X049856Y016646D01*
X049702Y016646D02*
X049702Y016186D01*
X050009Y016186D02*
X050316Y016492D01*
X050316Y016569D01*
X050240Y016646D01*
X050086Y016646D01*
X050009Y016569D01*
X050009Y016186D02*
X050316Y016186D01*
X050470Y016416D02*
X050777Y016416D01*
X050930Y016416D02*
X051084Y016492D01*
X051160Y016492D01*
X051237Y016416D01*
X051237Y016262D01*
X051160Y016186D01*
X051007Y016186D01*
X050930Y016262D01*
X050930Y016416D02*
X050930Y016646D01*
X051237Y016646D01*
X051391Y016646D02*
X051697Y016186D01*
X051697Y016646D01*
X051391Y016646D02*
X051391Y016186D01*
X050700Y016186D02*
X050700Y016646D01*
X050470Y016416D01*
X061769Y024765D02*
X061769Y024842D01*
X062076Y025148D01*
X062076Y025225D01*
X061769Y025225D01*
X061791Y025559D02*
X062022Y025559D01*
X062098Y025636D01*
X062098Y025943D01*
X062022Y026020D01*
X061791Y026020D01*
X061791Y025559D01*
X062252Y025559D02*
X062252Y026020D01*
X062482Y026020D01*
X062559Y025943D01*
X062559Y025636D01*
X062482Y025559D01*
X062252Y025559D01*
X062460Y025225D02*
X062229Y024995D01*
X062536Y024995D01*
X062690Y024995D02*
X062997Y024995D01*
X063150Y025148D02*
X063150Y024842D01*
X063227Y024765D01*
X063380Y024765D01*
X063457Y024842D01*
X063457Y025148D02*
X063380Y025225D01*
X063227Y025225D01*
X063150Y025148D01*
X062997Y025225D02*
X062997Y024765D01*
X062690Y024765D02*
X062690Y025225D01*
X062460Y025225D02*
X062460Y024765D01*
X062712Y025559D02*
X063019Y025559D01*
X062866Y025559D02*
X062866Y026020D01*
X062712Y025866D01*
X063173Y025943D02*
X063249Y026020D01*
X063403Y026020D01*
X063480Y025943D01*
X063173Y025636D01*
X063249Y025559D01*
X063403Y025559D01*
X063480Y025636D01*
X063480Y025943D01*
X063173Y025943D02*
X063173Y025636D01*
X063611Y025225D02*
X063917Y025225D01*
X063764Y025225D02*
X063764Y024765D01*
X064071Y024765D02*
X064378Y025072D01*
X064378Y025148D01*
X064301Y025225D01*
X064148Y025225D01*
X064071Y025148D01*
X064071Y024765D02*
X064378Y024765D01*
X064531Y024995D02*
X064838Y024995D01*
X064992Y024995D02*
X065145Y025072D01*
X065222Y025072D01*
X065299Y024995D01*
X065299Y024842D01*
X065222Y024765D01*
X065068Y024765D01*
X064992Y024842D01*
X064992Y024995D02*
X064992Y025225D01*
X065299Y025225D01*
X065452Y025225D02*
X065759Y024765D01*
X065759Y025225D01*
X065452Y025225D02*
X065452Y024765D01*
X064761Y024765D02*
X064761Y025225D01*
X064531Y024995D01*
X064792Y043351D02*
X064792Y043811D01*
X064869Y043581D02*
X065099Y043351D01*
X065252Y043351D02*
X065483Y043351D01*
X065559Y043428D01*
X065559Y043504D01*
X065483Y043581D01*
X065252Y043581D01*
X065252Y043351D02*
X065252Y043811D01*
X065483Y043811D01*
X065559Y043734D01*
X065559Y043658D01*
X065483Y043581D01*
X065099Y043811D02*
X064792Y043504D01*
X064178Y043351D02*
X063871Y043351D01*
X064178Y043658D01*
X064178Y043734D01*
X064101Y043811D01*
X063948Y043811D01*
X063871Y043734D01*
X063718Y043811D02*
X063411Y043351D01*
X063257Y043428D02*
X063181Y043351D01*
X063027Y043351D01*
X062950Y043428D01*
X063027Y043581D02*
X063181Y043581D01*
X063257Y043504D01*
X063257Y043428D01*
X063027Y043581D02*
X062950Y043658D01*
X062950Y043734D01*
X063027Y043811D01*
X063181Y043811D01*
X063257Y043734D01*
X062797Y043734D02*
X062797Y043581D01*
X062720Y043504D01*
X062490Y043504D01*
X062490Y043351D02*
X062490Y043811D01*
X062720Y043811D01*
X062797Y043734D01*
X061882Y043734D02*
X061882Y043658D01*
X061806Y043581D01*
X061882Y043504D01*
X061882Y043428D01*
X061806Y043351D01*
X061652Y043351D01*
X061575Y043428D01*
X061422Y043351D02*
X061115Y043811D01*
X061422Y043811D02*
X061115Y043351D01*
X061575Y043734D02*
X061652Y043811D01*
X061806Y043811D01*
X061882Y043734D01*
X061806Y043581D02*
X061729Y043581D01*
X032996Y048047D02*
X032996Y048354D01*
X032996Y048638D02*
X032690Y048638D01*
X032843Y048638D02*
X032843Y049099D01*
X032690Y048945D01*
X032536Y049099D02*
X032229Y048638D01*
X032229Y048354D02*
X032229Y048123D01*
X032383Y048200D01*
X032459Y048200D01*
X032536Y048123D01*
X032536Y047970D01*
X032459Y047893D01*
X032306Y047893D01*
X032229Y047970D01*
X032229Y048354D02*
X032536Y048354D01*
X032690Y048354D02*
X032690Y048047D01*
X032843Y047893D01*
X032996Y048047D01*
X032536Y048638D02*
X032229Y049099D01*
X042813Y005790D02*
X043043Y005790D01*
X043120Y005713D01*
X043120Y005406D01*
X043043Y005330D01*
X042813Y005330D01*
X042813Y005790D01*
X043273Y005790D02*
X043273Y005330D01*
X043503Y005330D01*
X043580Y005406D01*
X043580Y005713D01*
X043503Y005790D01*
X043273Y005790D01*
X043734Y005560D02*
X044040Y005560D01*
X043964Y005790D02*
X043734Y005560D01*
X043964Y005330D02*
X043964Y005790D01*
X048512Y005791D02*
X048512Y005331D01*
X048742Y005331D01*
X048819Y005407D01*
X048819Y005714D01*
X048742Y005791D01*
X048512Y005791D01*
X048972Y005791D02*
X048972Y005331D01*
X049202Y005331D01*
X049279Y005407D01*
X049279Y005714D01*
X049202Y005791D01*
X048972Y005791D01*
X049432Y005791D02*
X049432Y005561D01*
X049586Y005638D01*
X049663Y005638D01*
X049739Y005561D01*
X049739Y005407D01*
X049663Y005331D01*
X049509Y005331D01*
X049432Y005407D01*
X049432Y005791D02*
X049739Y005791D01*
D22*
X016970Y011161D03*
X016970Y014001D03*
X017220Y016661D03*
X017220Y019501D03*
X046158Y033036D03*
X046158Y035876D03*
D23*
X023645Y040831D03*
X019145Y041456D03*
X016145Y041456D03*
X013395Y041456D03*
X010770Y041081D03*
X002020Y041643D03*
X009170Y029831D03*
X010395Y021206D03*
D24*
X011220Y023456D03*
X011220Y024456D03*
X011220Y025456D03*
X012220Y025456D03*
X012220Y024456D03*
X012220Y023456D03*
X015095Y023331D03*
X016095Y023331D03*
X016095Y024331D03*
X016095Y025331D03*
X015095Y025331D03*
X015095Y026331D03*
X016095Y026331D03*
X016095Y022331D03*
X015095Y022331D03*
X009470Y032581D03*
X009470Y033581D03*
X009470Y034581D03*
X005595Y042956D03*
X004595Y042956D03*
X003595Y042956D03*
X061970Y041643D03*
X062970Y041643D03*
X063970Y041643D03*
X064970Y041643D03*
D25*
X023356Y009418D02*
X021584Y009418D01*
X021584Y005993D01*
X023356Y005993D01*
X023356Y009418D01*
X021356Y009418D02*
X021356Y005993D01*
X019584Y005993D01*
X019584Y009418D01*
X021356Y009418D01*
X019481Y009418D02*
X019481Y005993D01*
X017709Y005993D01*
X017709Y009418D01*
X019481Y009418D01*
X017481Y009418D02*
X017481Y005993D01*
X015709Y005993D01*
X015709Y009418D01*
X017481Y009418D01*
D26*
X016595Y008710D03*
X018595Y008710D03*
X020470Y008710D03*
X022470Y008710D03*
D27*
X027095Y041068D03*
X025345Y043256D03*
D28*
X024945Y045231D02*
X024945Y049281D01*
X007245Y049281D02*
X007245Y045231D01*
D29*
X004210Y017775D02*
X004151Y017716D01*
X004220Y017647D01*
X004279Y017706D01*
X004210Y017775D01*
X004220Y015765D02*
X004289Y015696D01*
X004230Y015637D01*
X004161Y015706D01*
X004220Y015765D01*
D30*
X004063Y015598D03*
X004377Y017814D03*
D31*
X003096Y018793D03*
X003096Y019373D03*
D32*
X003138Y013768D03*
X004178Y013768D03*
D33*
X002095Y034298D03*
X002095Y034868D03*
D34*
X015595Y021456D02*
X019970Y021956D01*
X028720Y021017D02*
X028720Y017518D01*
X003095Y019455D02*
X002408Y021143D01*
M02*
