G75*
G70*
%OFA0B0*%
%FSLAX24Y24*%
%IPPOS*%
%LPD*%
%AMOC8*
5,1,8,0,0,1.08239X$1,22.5*
%
%ADD10C,0.0780*%
%ADD11C,0.0715*%
%ADD12C,0.0635*%
%ADD13OC8,0.0715*%
%ADD14C,0.0715*%
%ADD15C,0.0795*%
%ADD16OC8,0.0795*%
%ADD17C,0.0749*%
%ADD18C,0.1346*%
%ADD19C,0.0635*%
%ADD20C,0.0915*%
%ADD21C,0.1270*%
%ADD22R,0.0580X0.1080*%
%ADD23R,0.0360X0.0640*%
%ADD24C,0.0710*%
%ADD25C,0.0513*%
%ADD26R,0.0671X0.0592*%
%ADD27C,0.0795*%
%ADD28C,0.0940*%
%ADD29C,0.0640*%
%ADD30R,0.0940X0.0940*%
%ADD31C,0.2049*%
D10*
X038956Y048788D03*
X039956Y048788D03*
X040956Y048788D03*
X041956Y048788D03*
X042956Y048788D03*
X043956Y048788D03*
X044956Y048788D03*
X045956Y048788D03*
X045956Y049788D03*
X044956Y049788D03*
X043956Y049788D03*
X042956Y049788D03*
X041956Y049788D03*
X040956Y049788D03*
X039956Y049788D03*
X038956Y049788D03*
X038956Y050788D03*
X038956Y051788D03*
X038956Y052788D03*
X038956Y053788D03*
X038956Y054788D03*
X038956Y055788D03*
X038956Y056788D03*
X038956Y057788D03*
X038956Y058788D03*
X038956Y059788D03*
X039956Y059788D03*
X040956Y059788D03*
X041956Y059788D03*
X042956Y059788D03*
X043956Y059788D03*
X044956Y059788D03*
X045956Y059788D03*
X045956Y060788D03*
X044956Y060788D03*
X043956Y060788D03*
X042956Y060788D03*
X041956Y060788D03*
X040956Y060788D03*
X039956Y060788D03*
X038956Y060788D03*
X037956Y059788D03*
X037956Y058788D03*
X037956Y057788D03*
X037956Y056788D03*
X037956Y055788D03*
X037956Y054788D03*
X037956Y053788D03*
X037956Y052788D03*
X037956Y051788D03*
X037956Y050788D03*
X037956Y049788D03*
X046956Y049788D03*
X047956Y049788D03*
X048956Y049788D03*
X049956Y049788D03*
X049956Y050788D03*
X049956Y051788D03*
X049956Y052788D03*
X049956Y053788D03*
X049956Y054788D03*
X049956Y055788D03*
X049956Y056788D03*
X049956Y057788D03*
X049956Y058788D03*
X049956Y059788D03*
X048956Y059788D03*
X048956Y060788D03*
X047956Y060788D03*
X047956Y059788D03*
X046956Y059788D03*
X046956Y060788D03*
X048956Y058788D03*
X048956Y057788D03*
X048956Y056788D03*
X048956Y055788D03*
X048956Y054788D03*
X048956Y053788D03*
X048956Y052788D03*
X048956Y051788D03*
X048956Y050788D03*
X048956Y048788D03*
X047956Y048788D03*
X046956Y048788D03*
X065831Y031413D03*
D11*
X031581Y021105D02*
X031581Y020471D01*
X032581Y020471D02*
X032581Y021105D01*
X033581Y021105D02*
X033581Y020471D01*
X034581Y020471D02*
X034581Y021105D01*
X035581Y021105D02*
X035581Y020471D01*
X036581Y020471D02*
X036581Y021105D01*
X037581Y021105D02*
X037581Y020471D01*
X038581Y020471D02*
X038581Y021105D01*
X039581Y021105D02*
X039581Y020471D01*
X040581Y020471D02*
X040581Y021105D01*
X041581Y021105D02*
X041581Y020471D01*
X042581Y020471D02*
X042581Y021105D01*
X043581Y021105D02*
X043581Y020471D01*
X044581Y020471D02*
X044581Y021105D01*
X045581Y021105D02*
X045581Y020471D01*
X046581Y020471D02*
X046581Y021105D01*
X046581Y026471D02*
X046581Y027105D01*
X045581Y027105D02*
X045581Y026471D01*
X044581Y026471D02*
X044581Y027105D01*
X043581Y027105D02*
X043581Y026471D01*
X042581Y026471D02*
X042581Y027105D01*
X041581Y027105D02*
X041581Y026471D01*
X040581Y026471D02*
X040581Y027105D01*
X039581Y027105D02*
X039581Y026471D01*
X038581Y026471D02*
X038581Y027105D01*
X037581Y027105D02*
X037581Y026471D01*
X036581Y026471D02*
X036581Y027105D01*
X035581Y027105D02*
X035581Y026471D01*
X034581Y026471D02*
X034581Y027105D01*
X033581Y027105D02*
X033581Y026471D01*
X032581Y026471D02*
X032581Y027105D01*
X031581Y027105D02*
X031581Y026471D01*
X031586Y029643D02*
X031586Y030278D01*
X032586Y030278D02*
X032586Y029643D01*
X033586Y029643D02*
X033586Y030278D01*
X034586Y030278D02*
X034586Y029643D01*
X035586Y029643D02*
X035586Y030278D01*
X036586Y030278D02*
X036586Y029643D01*
X037586Y029643D02*
X037586Y030278D01*
X038586Y030278D02*
X038586Y029643D01*
X039586Y029643D02*
X039586Y030278D01*
X040586Y030278D02*
X040586Y029643D01*
X042210Y029659D02*
X042210Y030294D01*
X043210Y030294D02*
X043210Y029659D01*
X044210Y029659D02*
X044210Y030294D01*
X045210Y030294D02*
X045210Y029659D01*
X046210Y029659D02*
X046210Y030294D01*
X047210Y030294D02*
X047210Y029659D01*
X048210Y029659D02*
X048210Y030294D01*
X049210Y030294D02*
X049210Y029659D01*
X050210Y029659D02*
X050210Y030294D01*
X051210Y030294D02*
X051210Y029659D01*
X051210Y032659D02*
X051210Y033294D01*
X050210Y033294D02*
X050210Y032659D01*
X049210Y032659D02*
X049210Y033294D01*
X048210Y033294D02*
X048210Y032659D01*
X047210Y032659D02*
X047210Y033294D01*
X046210Y033294D02*
X046210Y032659D01*
X045210Y032659D02*
X045210Y033294D01*
X044210Y033294D02*
X044210Y032659D01*
X043210Y032659D02*
X043210Y033294D01*
X042210Y033294D02*
X042210Y032659D01*
X040586Y032643D02*
X040586Y033278D01*
X039586Y033278D02*
X039586Y032643D01*
X038586Y032643D02*
X038586Y033278D01*
X037586Y033278D02*
X037586Y032643D01*
X036586Y032643D02*
X036586Y033278D01*
X035586Y033278D02*
X035586Y032643D01*
X034586Y032643D02*
X034586Y033278D01*
X033586Y033278D02*
X033586Y032643D01*
X032586Y032643D02*
X032586Y033278D01*
X031586Y033278D02*
X031586Y032643D01*
X033085Y034467D02*
X033085Y035102D01*
X034085Y035102D02*
X034085Y034467D01*
X035085Y034467D02*
X035085Y035102D01*
X036085Y035102D02*
X036085Y034467D01*
X037085Y034467D02*
X037085Y035102D01*
X038085Y035102D02*
X038085Y034467D01*
X039085Y034467D02*
X039085Y035102D01*
X040085Y035102D02*
X040085Y034467D01*
X041085Y034467D02*
X041085Y035102D01*
X042085Y035102D02*
X042085Y034467D01*
X042085Y037467D02*
X042085Y038102D01*
X041085Y038102D02*
X041085Y037467D01*
X040085Y037467D02*
X040085Y038102D01*
X039085Y038102D02*
X039085Y037467D01*
X038085Y037467D02*
X038085Y038102D01*
X038456Y039221D02*
X038456Y039855D01*
X039456Y039855D02*
X039456Y039221D01*
X040456Y039221D02*
X040456Y039855D01*
X041456Y039855D02*
X041456Y039221D01*
X042456Y039221D02*
X042456Y039855D01*
X043456Y039855D02*
X043456Y039221D01*
X044456Y039221D02*
X044456Y039855D01*
X045456Y039855D02*
X045456Y039221D01*
X046456Y039221D02*
X046456Y039855D01*
X047456Y039855D02*
X047456Y039221D01*
X047456Y042346D02*
X047456Y042980D01*
X046456Y042980D02*
X046456Y042346D01*
X045456Y042346D02*
X045456Y042980D01*
X044456Y042980D02*
X044456Y042346D01*
X043456Y042346D02*
X043456Y042980D01*
X042456Y042980D02*
X042456Y042346D01*
X041456Y042346D02*
X041456Y042980D01*
X040456Y042980D02*
X040456Y042346D01*
X039456Y042346D02*
X039456Y042980D01*
X038456Y042980D02*
X038456Y042346D01*
X037456Y042346D02*
X037456Y042980D01*
X036456Y042980D02*
X036456Y042346D01*
X035456Y042346D02*
X035456Y042980D01*
X034456Y042980D02*
X034456Y042346D01*
X034456Y039855D02*
X034456Y039221D01*
X034085Y038102D02*
X034085Y037467D01*
X035085Y037467D02*
X035085Y038102D01*
X036085Y038102D02*
X036085Y037467D01*
X037085Y037467D02*
X037085Y038102D01*
X037456Y039221D02*
X037456Y039855D01*
X036456Y039855D02*
X036456Y039221D01*
X035456Y039221D02*
X035456Y039855D01*
X033085Y038102D02*
X033085Y037467D01*
X034456Y045221D02*
X034456Y045855D01*
X035456Y045855D02*
X035456Y045221D01*
X036456Y045221D02*
X036456Y045855D01*
X037456Y045855D02*
X037456Y045221D01*
X038456Y045221D02*
X038456Y045855D01*
X039456Y045855D02*
X039456Y045221D01*
X040456Y045221D02*
X040456Y045855D01*
X041456Y045855D02*
X041456Y045221D01*
X042456Y045221D02*
X042456Y045855D01*
X043456Y045855D02*
X043456Y045221D01*
X044456Y045221D02*
X044456Y045855D01*
X045456Y045855D02*
X045456Y045221D01*
X046456Y045221D02*
X046456Y045855D01*
X047456Y045855D02*
X047456Y045221D01*
X054331Y035855D02*
X054331Y035221D01*
X055331Y035221D02*
X055331Y035855D01*
X056331Y035855D02*
X056331Y035221D01*
X057331Y035221D02*
X057331Y035855D01*
X058331Y035855D02*
X058331Y035221D01*
X059331Y035221D02*
X059331Y035855D01*
X060331Y035855D02*
X060331Y035221D01*
X061331Y035221D02*
X061331Y035855D01*
X062331Y035855D02*
X062331Y035221D01*
X063331Y035221D02*
X063331Y035855D01*
X064331Y035855D02*
X064331Y035221D01*
X065331Y035221D02*
X065331Y035855D01*
X066331Y035855D02*
X066331Y035221D01*
X067331Y035221D02*
X067331Y035855D01*
X068331Y035855D02*
X068331Y035221D01*
X069331Y035221D02*
X069331Y035855D01*
X070331Y035855D02*
X070331Y035221D01*
X071331Y035221D02*
X071331Y035855D01*
X072331Y035855D02*
X072331Y035221D01*
X073331Y035221D02*
X073331Y035855D01*
X074638Y041163D02*
X075273Y041163D01*
X075273Y042163D02*
X074638Y042163D01*
X074638Y043163D02*
X075273Y043163D01*
X075273Y044163D02*
X074638Y044163D01*
X074638Y045163D02*
X075273Y045163D01*
X075273Y046163D02*
X074638Y046163D01*
X074638Y047163D02*
X075273Y047163D01*
X075273Y048163D02*
X074638Y048163D01*
X074638Y049163D02*
X075273Y049163D01*
X075273Y050163D02*
X074638Y050163D01*
X074638Y051163D02*
X075273Y051163D01*
X075273Y052163D02*
X074638Y052163D01*
X074638Y053163D02*
X075273Y053163D01*
X075273Y054163D02*
X074638Y054163D01*
X074638Y055163D02*
X075273Y055163D01*
X075273Y056163D02*
X074638Y056163D01*
X074638Y057163D02*
X075273Y057163D01*
X075273Y058163D02*
X074638Y058163D01*
X074638Y059163D02*
X075273Y059163D01*
X075273Y060163D02*
X074638Y060163D01*
X069273Y060163D02*
X068638Y060163D01*
X068638Y059163D02*
X069273Y059163D01*
X069273Y058163D02*
X068638Y058163D01*
X068638Y057163D02*
X069273Y057163D01*
X069273Y056163D02*
X068638Y056163D01*
X068638Y055163D02*
X069273Y055163D01*
X069273Y054163D02*
X068638Y054163D01*
X068638Y053163D02*
X069273Y053163D01*
X069273Y052163D02*
X068638Y052163D01*
X068638Y051163D02*
X069273Y051163D01*
X069273Y050163D02*
X068638Y050163D01*
X068638Y049163D02*
X069273Y049163D01*
X069273Y048163D02*
X068638Y048163D01*
X068638Y047163D02*
X069273Y047163D01*
X069273Y046163D02*
X068638Y046163D01*
X068638Y045163D02*
X069273Y045163D01*
X069273Y044163D02*
X068638Y044163D01*
X068638Y043163D02*
X069273Y043163D01*
X069273Y042163D02*
X068638Y042163D01*
X068638Y041163D02*
X069273Y041163D01*
X065023Y041163D02*
X064388Y041163D01*
X064388Y042163D02*
X065023Y042163D01*
X065023Y043163D02*
X064388Y043163D01*
X064388Y044163D02*
X065023Y044163D01*
X065023Y045163D02*
X064388Y045163D01*
X064388Y046163D02*
X065023Y046163D01*
X065023Y047163D02*
X064388Y047163D01*
X064388Y048163D02*
X065023Y048163D01*
X065023Y049163D02*
X064388Y049163D01*
X064388Y050163D02*
X065023Y050163D01*
X065023Y051163D02*
X064388Y051163D01*
X064388Y052163D02*
X065023Y052163D01*
X065023Y053163D02*
X064388Y053163D01*
X064388Y054163D02*
X065023Y054163D01*
X065023Y055163D02*
X064388Y055163D01*
X064388Y056163D02*
X065023Y056163D01*
X065023Y057163D02*
X064388Y057163D01*
X064388Y058163D02*
X065023Y058163D01*
X065023Y059163D02*
X064388Y059163D01*
X064388Y060163D02*
X065023Y060163D01*
X059023Y060163D02*
X058388Y060163D01*
X058388Y059163D02*
X059023Y059163D01*
X059023Y058163D02*
X058388Y058163D01*
X058388Y057163D02*
X059023Y057163D01*
X059023Y056163D02*
X058388Y056163D01*
X058388Y055163D02*
X059023Y055163D01*
X059023Y054163D02*
X058388Y054163D01*
X058388Y053163D02*
X059023Y053163D01*
X059023Y052163D02*
X058388Y052163D01*
X058388Y051163D02*
X059023Y051163D01*
X059023Y050163D02*
X058388Y050163D01*
X058388Y049163D02*
X059023Y049163D01*
X059023Y048163D02*
X058388Y048163D01*
X058388Y047163D02*
X059023Y047163D01*
X059023Y046163D02*
X058388Y046163D01*
X058388Y045163D02*
X059023Y045163D01*
X059023Y044163D02*
X058388Y044163D01*
X058388Y043163D02*
X059023Y043163D01*
X059023Y042163D02*
X058388Y042163D01*
X058388Y041163D02*
X059023Y041163D01*
X059331Y029855D02*
X059331Y029221D01*
X060331Y029221D02*
X060331Y029855D01*
X061331Y029855D02*
X061331Y029221D01*
X062331Y029221D02*
X062331Y029855D01*
X063331Y029855D02*
X063331Y029221D01*
X064331Y029221D02*
X064331Y029855D01*
X065331Y029855D02*
X065331Y029221D01*
X066331Y029221D02*
X066331Y029855D01*
X067331Y029855D02*
X067331Y029221D01*
X068331Y029221D02*
X068331Y029855D01*
X069331Y029855D02*
X069331Y029221D01*
X070331Y029221D02*
X070331Y029855D01*
X071331Y029855D02*
X071331Y029221D01*
X072331Y029221D02*
X072331Y029855D01*
X073331Y029855D02*
X073331Y029221D01*
X073331Y025980D02*
X073331Y025346D01*
X072331Y025346D02*
X072331Y025980D01*
X071331Y025980D02*
X071331Y025346D01*
X070331Y025346D02*
X070331Y025980D01*
X069331Y025980D02*
X069331Y025346D01*
X068331Y025346D02*
X068331Y025980D01*
X067331Y025980D02*
X067331Y025346D01*
X066331Y025346D02*
X066331Y025980D01*
X065331Y025980D02*
X065331Y025346D01*
X064331Y025346D02*
X064331Y025980D01*
X063331Y025980D02*
X063331Y025346D01*
X062331Y025346D02*
X062331Y025980D01*
X061331Y025980D02*
X061331Y025346D01*
X060331Y025346D02*
X060331Y025980D01*
X059331Y025980D02*
X059331Y025346D01*
X058331Y025346D02*
X058331Y025980D01*
X058331Y029221D02*
X058331Y029855D01*
X057331Y029855D02*
X057331Y029221D01*
X056331Y029221D02*
X056331Y029855D01*
X055331Y029855D02*
X055331Y029221D01*
X054331Y029221D02*
X054331Y029855D01*
X058331Y019980D02*
X058331Y019346D01*
X059331Y019346D02*
X059331Y019980D01*
X060331Y019980D02*
X060331Y019346D01*
X061331Y019346D02*
X061331Y019980D01*
X062331Y019980D02*
X062331Y019346D01*
X063331Y019346D02*
X063331Y019980D01*
X064331Y019980D02*
X064331Y019346D01*
X065331Y019346D02*
X065331Y019980D01*
X066331Y019980D02*
X066331Y019346D01*
X067331Y019346D02*
X067331Y019980D01*
X068331Y019980D02*
X068331Y019346D01*
X069331Y019346D02*
X069331Y019980D01*
X070331Y019980D02*
X070331Y019346D01*
X071331Y019346D02*
X071331Y019980D01*
X072331Y019980D02*
X072331Y019346D01*
X073331Y019346D02*
X073331Y019980D01*
X049456Y066096D02*
X049456Y066730D01*
X048456Y066730D02*
X048456Y066096D01*
X047456Y066096D02*
X047456Y066730D01*
X046456Y066730D02*
X046456Y066096D01*
X045456Y066096D02*
X045456Y066730D01*
X044456Y066730D02*
X044456Y066096D01*
X043456Y066096D02*
X043456Y066730D01*
X042456Y066730D02*
X042456Y066096D01*
X041456Y066096D02*
X041456Y066730D01*
X040456Y066730D02*
X040456Y066096D01*
X039456Y066096D02*
X039456Y066730D01*
X038456Y066730D02*
X038456Y066096D01*
X038456Y070096D02*
X038456Y070730D01*
X039456Y070730D02*
X039456Y070096D01*
X040456Y070096D02*
X040456Y070730D01*
X041456Y070730D02*
X041456Y070096D01*
X042456Y070096D02*
X042456Y070730D01*
X043456Y070730D02*
X043456Y070096D01*
X044456Y070096D02*
X044456Y070730D01*
X045456Y070730D02*
X045456Y070096D01*
X046456Y070096D02*
X046456Y070730D01*
X047456Y070730D02*
X047456Y070096D01*
X048456Y070096D02*
X048456Y070730D01*
X049456Y070730D02*
X049456Y070096D01*
X070638Y084788D02*
X071273Y084788D01*
X071273Y085788D02*
X070638Y085788D01*
X070638Y086788D02*
X071273Y086788D01*
X071273Y087788D02*
X070638Y087788D01*
X070638Y088788D02*
X071273Y088788D01*
X071273Y089788D02*
X070638Y089788D01*
X070638Y090788D02*
X071273Y090788D01*
X073638Y090788D02*
X074273Y090788D01*
X074273Y089788D02*
X073638Y089788D01*
X073638Y088788D02*
X074273Y088788D01*
X074273Y087788D02*
X073638Y087788D01*
X073638Y086788D02*
X074273Y086788D01*
X074273Y085788D02*
X073638Y085788D01*
X073638Y084788D02*
X074273Y084788D01*
X073956Y076605D02*
X073956Y075971D01*
X072956Y075971D02*
X072956Y076605D01*
X071956Y076605D02*
X071956Y075971D01*
D12*
X075303Y087413D02*
X075858Y087413D01*
X075858Y089413D02*
X075303Y089413D01*
X069983Y088538D02*
X069428Y088538D01*
X069428Y090538D02*
X069983Y090538D01*
D13*
X070956Y074913D03*
X081081Y054163D03*
X079456Y051038D03*
X062456Y033663D03*
X058456Y033663D03*
X041331Y062038D03*
X037331Y062038D03*
X040831Y074038D03*
X043331Y074038D03*
X045456Y074038D03*
X049831Y072038D03*
X050956Y074038D03*
D14*
X050956Y073038D03*
X048831Y072038D03*
X045456Y073038D03*
X043331Y073038D03*
X040831Y073038D03*
X069956Y074913D03*
X081081Y053163D03*
X079456Y050038D03*
D15*
X075206Y072413D03*
D16*
X075206Y071413D03*
X074206Y071413D03*
X074206Y072413D03*
X073206Y072413D03*
X073206Y071413D03*
X048456Y063413D03*
X048456Y062413D03*
X047456Y062413D03*
X047456Y063413D03*
X046456Y063413D03*
X046456Y062413D03*
X045456Y062413D03*
X045456Y063413D03*
X044456Y063413D03*
X044456Y062413D03*
D17*
X059242Y077457D03*
X059242Y078442D03*
X060069Y078442D03*
X061093Y078442D03*
X061920Y078442D03*
X061920Y077457D03*
D18*
X060581Y079938D03*
D19*
X033956Y060663D03*
X033956Y059663D03*
X033956Y058663D03*
X033956Y057038D03*
X033956Y056038D03*
X033956Y055038D03*
X031956Y055038D03*
X031956Y056038D03*
X031956Y057038D03*
X031956Y058663D03*
X031956Y059663D03*
X031956Y060663D03*
D20*
X037081Y074996D02*
X037081Y075830D01*
X037831Y076996D02*
X037831Y077830D01*
X039331Y077830D02*
X039331Y076996D01*
X040081Y075830D02*
X040081Y074996D01*
X041581Y074996D02*
X041581Y075830D01*
X042331Y076996D02*
X042331Y077830D01*
X040831Y077830D02*
X040831Y076996D01*
X043081Y075830D02*
X043081Y074996D01*
X044581Y074996D02*
X044581Y075830D01*
X045331Y076996D02*
X045331Y077830D01*
X046831Y077830D02*
X046831Y076996D01*
X047581Y075830D02*
X047581Y074996D01*
X046081Y074996D02*
X046081Y075830D01*
X048331Y076996D02*
X048331Y077830D01*
X049831Y077830D02*
X049831Y076996D01*
X050581Y075830D02*
X050581Y074996D01*
X052081Y074996D02*
X052081Y075830D01*
X051331Y076996D02*
X051331Y077830D01*
X049081Y075830D02*
X049081Y074996D01*
X043831Y076996D02*
X043831Y077830D01*
X038581Y075830D02*
X038581Y074996D01*
D21*
X034181Y077313D03*
X034181Y078713D03*
X054981Y078713D03*
X054981Y077313D03*
D22*
X066456Y073288D03*
X067156Y067788D03*
X077156Y067788D03*
X077156Y073288D03*
D23*
X076656Y066988D03*
X076156Y066988D03*
X075656Y066988D03*
X075056Y066988D03*
X074056Y066988D03*
X073056Y066988D03*
X072056Y066988D03*
X071056Y066988D03*
X070056Y066988D03*
X069056Y066988D03*
X068056Y066988D03*
D24*
X068056Y068188D03*
D25*
X076356Y068188D03*
D26*
X083581Y047037D03*
X083581Y046289D03*
D27*
X047813Y071788D02*
X047098Y071788D01*
X047098Y072788D02*
X047813Y072788D01*
X047813Y073788D02*
X047098Y073788D01*
X037188Y071663D02*
X036473Y071663D01*
X036473Y070663D02*
X037188Y070663D01*
X037188Y069663D02*
X036473Y069663D01*
D28*
X046706Y058538D03*
X047706Y058163D03*
X035831Y055788D03*
X035581Y036538D03*
X046206Y031788D03*
X050456Y035038D03*
X054331Y032163D03*
X055206Y031413D03*
X051331Y023913D03*
X050206Y020788D03*
X066331Y036788D03*
X068081Y036788D03*
X067831Y032163D03*
X067831Y031038D03*
X069831Y030663D03*
D29*
X043456Y042663D03*
D30*
X049581Y042288D03*
D31*
X032456Y049413D03*
X032456Y064288D03*
X032456Y017913D03*
X052956Y017913D03*
X085831Y017913D03*
X085831Y049413D03*
M02*
