G75*
G70*
%OFA0B0*%
%FSLAX24Y24*%
%IPPOS*%
%LPD*%
%AMOC8*
5,1,8,0,0,1.08239X$1,22.5*
%
%ADD10C,0.0060*%
%ADD11C,0.0040*%
%ADD12R,0.0256X0.0551*%
%ADD13R,0.0551X0.0256*%
%ADD14R,0.0690X0.0290*%
%ADD15R,0.0295X0.0571*%
%ADD16R,0.0295X0.0669*%
%ADD17R,0.0140X0.0560*%
%ADD18R,0.0560X0.0140*%
%ADD19C,0.0050*%
%ADD20R,0.0200X0.0100*%
%ADD21R,0.0571X0.0295*%
D10*
X005800Y009517D02*
X006122Y009517D01*
X006122Y010017D02*
X005800Y010017D01*
X006925Y010392D02*
X007247Y010392D01*
X007247Y010892D02*
X006925Y010892D01*
X007800Y010017D02*
X008122Y010017D01*
X008122Y009517D02*
X007800Y009517D01*
X008800Y010392D02*
X009122Y010392D01*
X009122Y010892D02*
X008800Y010892D01*
X009461Y022606D02*
X009461Y022929D01*
X009961Y022929D02*
X009961Y022606D01*
X011550Y023017D02*
X011872Y023017D01*
X011872Y023517D02*
X011550Y023517D01*
X025050Y033267D02*
X025372Y033267D01*
X025372Y033767D02*
X025050Y033767D01*
X035175Y036142D02*
X035497Y036142D01*
X035497Y036642D02*
X035175Y036642D01*
X035056Y037017D02*
X035616Y037017D01*
X035616Y037517D02*
X035056Y037517D01*
X035211Y038237D02*
X035211Y038797D01*
X034711Y038797D02*
X034711Y038237D01*
X035056Y039517D02*
X035616Y039517D01*
X035616Y040017D02*
X035056Y040017D01*
X035175Y040392D02*
X035497Y040392D01*
X035497Y040892D02*
X035175Y040892D01*
X035175Y041267D02*
X035497Y041267D01*
X035497Y041767D02*
X035175Y041767D01*
X038050Y043142D02*
X038372Y043142D01*
X038372Y043642D02*
X038050Y043642D01*
X037931Y038642D02*
X038491Y038642D01*
X038491Y038142D02*
X037931Y038142D01*
X045925Y044142D02*
X046247Y044142D01*
X046247Y044642D02*
X045925Y044642D01*
X046891Y044142D02*
X046891Y043387D01*
X047531Y043387D02*
X047531Y044142D01*
X047497Y046517D02*
X047175Y046517D01*
X047175Y047017D02*
X047497Y047017D01*
X051016Y038642D02*
X051016Y037887D01*
X051656Y037887D02*
X051656Y038642D01*
X052016Y038647D02*
X052016Y037892D01*
X052656Y037892D02*
X052656Y038647D01*
X058086Y038054D02*
X058086Y037731D01*
X058586Y037731D02*
X058586Y038054D01*
X058836Y038054D02*
X058836Y037731D01*
X059336Y037731D02*
X059336Y038054D01*
X059550Y037267D02*
X059872Y037267D01*
X059872Y036767D02*
X059550Y036767D01*
X058586Y036054D02*
X058586Y035731D01*
X058086Y035731D02*
X058086Y036054D01*
X059675Y036017D02*
X059997Y036017D01*
X059997Y035517D02*
X059675Y035517D01*
X064175Y032017D02*
X064497Y032017D01*
X064497Y031517D02*
X064175Y031517D01*
X063461Y040981D02*
X063461Y041304D01*
X062961Y041304D02*
X062961Y040981D01*
X068016Y054262D02*
X068016Y055017D01*
X068656Y055017D02*
X068656Y054262D01*
X068247Y056017D02*
X067925Y056017D01*
X067925Y056517D02*
X068247Y056517D01*
X068086Y057356D02*
X068086Y057679D01*
X068586Y057679D02*
X068586Y057356D01*
X069086Y057356D02*
X069086Y057679D01*
X069586Y057679D02*
X069586Y057356D01*
X070086Y057356D02*
X070086Y057679D01*
X070586Y057679D02*
X070586Y057356D01*
X072461Y057231D02*
X072461Y057554D01*
X072961Y057554D02*
X072961Y057231D01*
X067586Y057356D02*
X067586Y057679D01*
X067086Y057679D02*
X067086Y057356D01*
X066247Y057392D02*
X065925Y057392D01*
X065925Y057892D02*
X066247Y057892D01*
X064961Y056554D02*
X064961Y056231D01*
X064461Y056231D02*
X064461Y056554D01*
X063586Y055929D02*
X063586Y055606D01*
X063086Y055606D02*
X063086Y055929D01*
X065550Y055517D02*
X065872Y055517D01*
X065872Y055017D02*
X065550Y055017D01*
X054711Y021392D02*
X053711Y021392D01*
X053711Y020492D01*
X053811Y020392D01*
X053711Y020292D01*
X053711Y019492D01*
X053811Y019392D01*
X053711Y019292D01*
X053711Y018492D01*
X053811Y018392D01*
X053711Y018292D01*
X053711Y017492D01*
X053811Y017392D01*
X053711Y017292D01*
X053711Y016492D01*
X053811Y016392D01*
X053711Y016292D01*
X053711Y015492D01*
X053811Y015392D01*
X053711Y015292D01*
X053711Y014392D01*
X053711Y013492D01*
X053811Y013392D01*
X053711Y013292D01*
X053711Y012492D01*
X053811Y012392D01*
X053711Y012292D01*
X053711Y011492D01*
X053811Y011392D01*
X053711Y011292D01*
X053711Y010492D01*
X053811Y010392D01*
X053711Y010292D01*
X053711Y009492D01*
X053811Y009392D01*
X053711Y009292D01*
X053711Y008492D01*
X053811Y008392D01*
X053711Y008292D01*
X053711Y007392D01*
X054711Y007392D01*
X054711Y008292D01*
X054611Y008392D01*
X054711Y008492D01*
X054711Y009292D01*
X054611Y009392D01*
X054711Y009492D01*
X054711Y010292D01*
X054611Y010392D01*
X054711Y010492D01*
X054711Y011292D01*
X054611Y011392D01*
X054711Y011492D01*
X054711Y012292D01*
X054611Y012392D01*
X054711Y012492D01*
X054711Y013292D01*
X054611Y013392D01*
X054711Y013492D01*
X054711Y014392D01*
X053711Y014392D01*
X054711Y014392D01*
X054711Y015292D01*
X054611Y015392D01*
X054711Y015492D01*
X054711Y016292D01*
X054611Y016392D01*
X054711Y016492D01*
X054711Y017292D01*
X054611Y017392D01*
X054711Y017492D01*
X054711Y018292D01*
X054611Y018392D01*
X054711Y018492D01*
X054711Y019292D01*
X054611Y019392D01*
X054711Y019492D01*
X054711Y020292D01*
X054611Y020392D01*
X054711Y020492D01*
X054711Y021392D01*
X054411Y021092D02*
X054411Y020992D01*
X054511Y020992D01*
X054511Y020792D01*
X054411Y020792D01*
X054411Y020692D01*
X054011Y020692D01*
X054011Y020792D01*
X053911Y020792D01*
X053911Y020992D01*
X054011Y020992D01*
X054011Y021092D01*
X054411Y021092D01*
X054411Y020092D02*
X054011Y020092D01*
X054011Y019992D01*
X053911Y019992D01*
X053911Y019792D01*
X054011Y019792D01*
X054011Y019692D01*
X054411Y019692D01*
X054411Y019792D01*
X054511Y019792D01*
X054511Y019992D01*
X054411Y019992D01*
X054411Y020092D01*
X054411Y019092D02*
X054011Y019092D01*
X054011Y018992D01*
X053911Y018992D01*
X053911Y018792D01*
X054011Y018792D01*
X054011Y018692D01*
X054411Y018692D01*
X054411Y018792D01*
X054511Y018792D01*
X054511Y018992D01*
X054411Y018992D01*
X054411Y019092D01*
X054411Y018092D02*
X054011Y018092D01*
X054011Y017992D01*
X053911Y017992D01*
X053911Y017792D01*
X054011Y017792D01*
X054011Y017692D01*
X054411Y017692D01*
X054411Y017792D01*
X054511Y017792D01*
X054511Y017992D01*
X054411Y017992D01*
X054411Y018092D01*
X054411Y017092D02*
X054011Y017092D01*
X054011Y016992D01*
X053911Y016992D01*
X053911Y016792D01*
X054011Y016792D01*
X054011Y016692D01*
X054411Y016692D01*
X054411Y016792D01*
X054511Y016792D01*
X054511Y016992D01*
X054411Y016992D01*
X054411Y017092D01*
X054411Y016092D02*
X054011Y016092D01*
X054011Y015992D01*
X053911Y015992D01*
X053911Y015792D01*
X054011Y015792D01*
X054011Y015692D01*
X054411Y015692D01*
X054411Y015792D01*
X054511Y015792D01*
X054511Y015992D01*
X054411Y015992D01*
X054411Y016092D01*
X054411Y015092D02*
X054011Y015092D01*
X054011Y014992D01*
X053911Y014992D01*
X053911Y014792D01*
X054011Y014792D01*
X054011Y014692D01*
X054411Y014692D01*
X054411Y014792D01*
X054511Y014792D01*
X054511Y014992D01*
X054411Y014992D01*
X054411Y015092D01*
X054411Y014092D02*
X054011Y014092D01*
X054011Y013992D01*
X053911Y013992D01*
X053911Y013792D01*
X054011Y013792D01*
X054011Y013692D01*
X054411Y013692D01*
X054411Y013792D01*
X054511Y013792D01*
X054511Y013992D01*
X054411Y013992D01*
X054411Y014092D01*
X054411Y013092D02*
X054011Y013092D01*
X054011Y012992D01*
X053911Y012992D01*
X053911Y012792D01*
X054011Y012792D01*
X054011Y012692D01*
X054411Y012692D01*
X054411Y012792D01*
X054511Y012792D01*
X054511Y012992D01*
X054411Y012992D01*
X054411Y013092D01*
X054411Y012092D02*
X054011Y012092D01*
X054011Y011992D01*
X053911Y011992D01*
X053911Y011792D01*
X054011Y011792D01*
X054011Y011692D01*
X054411Y011692D01*
X054411Y011792D01*
X054511Y011792D01*
X054511Y011992D01*
X054411Y011992D01*
X054411Y012092D01*
X054411Y011092D02*
X054011Y011092D01*
X054011Y010992D01*
X053911Y010992D01*
X053911Y010792D01*
X054011Y010792D01*
X054011Y010692D01*
X054411Y010692D01*
X054411Y010792D01*
X054511Y010792D01*
X054511Y010992D01*
X054411Y010992D01*
X054411Y011092D01*
X054411Y010092D02*
X054011Y010092D01*
X054011Y009992D01*
X053911Y009992D01*
X053911Y009792D01*
X054011Y009792D01*
X054011Y009692D01*
X054411Y009692D01*
X054411Y009792D01*
X054511Y009792D01*
X054511Y009992D01*
X054411Y009992D01*
X054411Y010092D01*
X054411Y009092D02*
X054011Y009092D01*
X054011Y008992D01*
X053911Y008992D01*
X053911Y008792D01*
X054011Y008792D01*
X054011Y008692D01*
X054411Y008692D01*
X054411Y008792D01*
X054511Y008792D01*
X054511Y008992D01*
X054411Y008992D01*
X054411Y009092D01*
X054411Y008092D02*
X054011Y008092D01*
X054011Y007992D01*
X053911Y007992D01*
X053911Y007792D01*
X054011Y007792D01*
X054011Y007692D01*
X054411Y007692D01*
X054411Y007792D01*
X054511Y007792D01*
X054511Y007992D01*
X054411Y007992D01*
X054411Y008092D01*
X038211Y009731D02*
X038211Y010054D01*
X037711Y010054D02*
X037711Y009731D01*
X037211Y009731D02*
X037211Y010054D01*
X036711Y010054D02*
X036711Y009731D01*
X036086Y010606D02*
X036086Y010929D01*
X035586Y010929D02*
X035586Y010606D01*
X034961Y012981D02*
X034961Y013304D01*
X034461Y013304D02*
X034461Y012981D01*
X038175Y013267D02*
X038497Y013267D01*
X038497Y013767D02*
X038175Y013767D01*
X038175Y015142D02*
X038497Y015142D01*
X038497Y015642D02*
X038175Y015642D01*
D11*
X005921Y009248D02*
X005921Y008787D01*
X005844Y009018D02*
X006151Y009018D01*
X005921Y009248D01*
X006305Y009171D02*
X006305Y009094D01*
X006382Y009018D01*
X006305Y008941D01*
X006305Y008864D01*
X006382Y008787D01*
X006535Y008787D01*
X006612Y008864D01*
X006765Y008787D02*
X006919Y008941D01*
X006842Y008941D02*
X007072Y008941D01*
X007072Y008787D02*
X007072Y009248D01*
X006842Y009248D01*
X006765Y009171D01*
X006765Y009018D01*
X006842Y008941D01*
X006612Y009171D02*
X006535Y009248D01*
X006382Y009248D01*
X006305Y009171D01*
X006382Y009018D02*
X006458Y009018D01*
X007046Y009662D02*
X006969Y009739D01*
X006969Y009816D01*
X007046Y009893D01*
X007123Y009893D01*
X007046Y009893D02*
X006969Y009969D01*
X006969Y010046D01*
X007046Y010123D01*
X007200Y010123D01*
X007276Y010046D01*
X007430Y010046D02*
X007430Y009893D01*
X007507Y009816D01*
X007737Y009816D01*
X007737Y009662D02*
X007737Y010123D01*
X007507Y010123D01*
X007430Y010046D01*
X007583Y009816D02*
X007430Y009662D01*
X007276Y009739D02*
X007200Y009662D01*
X007046Y009662D01*
X007844Y009171D02*
X007921Y009248D01*
X008075Y009248D01*
X008151Y009171D01*
X007844Y009171D02*
X007844Y009094D01*
X008151Y008787D01*
X007844Y008787D01*
X008305Y008787D02*
X008612Y008787D01*
X008765Y008787D02*
X009072Y008787D01*
X008919Y008787D02*
X008919Y009248D01*
X009072Y009094D01*
X009226Y009018D02*
X009302Y008941D01*
X009533Y008941D01*
X009533Y008787D02*
X009533Y009248D01*
X009302Y009248D01*
X009226Y009171D01*
X009226Y009018D01*
X009379Y008941D02*
X009226Y008787D01*
X008612Y009094D02*
X008458Y009248D01*
X008458Y008787D01*
X008844Y009662D02*
X009151Y009662D01*
X008844Y009969D01*
X008844Y010046D01*
X008921Y010123D01*
X009075Y010123D01*
X009151Y010046D01*
X009458Y010123D02*
X009458Y009662D01*
X009305Y009662D02*
X009612Y009662D01*
X009765Y009662D02*
X009919Y009816D01*
X009842Y009816D02*
X010072Y009816D01*
X010072Y009662D02*
X010072Y010123D01*
X009842Y010123D01*
X009765Y010046D01*
X009765Y009893D01*
X009842Y009816D01*
X009612Y009969D02*
X009458Y010123D01*
X009191Y021656D02*
X008731Y021656D01*
X008884Y021656D02*
X008884Y021886D01*
X008961Y021963D01*
X009115Y021963D01*
X009191Y021886D01*
X009191Y021656D01*
X008884Y021810D02*
X008731Y021963D01*
X008731Y022117D02*
X009038Y022423D01*
X009115Y022423D01*
X009191Y022347D01*
X009191Y022193D01*
X009115Y022117D01*
X008731Y022117D02*
X008731Y022423D01*
X008731Y022577D02*
X009038Y022884D01*
X009115Y022884D01*
X009191Y022807D01*
X009191Y022654D01*
X009115Y022577D01*
X008731Y022577D02*
X008731Y022884D01*
X010713Y023864D02*
X010790Y023787D01*
X010943Y023787D01*
X011020Y023864D01*
X011174Y023787D02*
X011481Y023787D01*
X011174Y024094D01*
X011174Y024171D01*
X011250Y024248D01*
X011404Y024248D01*
X011481Y024171D01*
X011634Y024171D02*
X011634Y024018D01*
X011711Y023941D01*
X011941Y023941D01*
X011787Y023941D02*
X011634Y023787D01*
X011941Y023787D02*
X011941Y024248D01*
X011711Y024248D01*
X011634Y024171D01*
X011020Y024171D02*
X010943Y024248D01*
X010790Y024248D01*
X010713Y024171D01*
X010713Y024094D01*
X010790Y024018D01*
X010713Y023941D01*
X010713Y023864D01*
X010790Y024018D02*
X010867Y024018D01*
X024213Y034037D02*
X024520Y034037D01*
X024213Y034344D01*
X024213Y034421D01*
X024290Y034498D01*
X024443Y034498D01*
X024520Y034421D01*
X024674Y034421D02*
X024674Y034268D01*
X024750Y034191D01*
X024981Y034191D01*
X024981Y034037D02*
X024981Y034498D01*
X024750Y034498D01*
X024674Y034421D01*
X024827Y034191D02*
X024674Y034037D01*
X025134Y034114D02*
X025441Y034421D01*
X025441Y034268D02*
X025134Y034268D01*
X025134Y034421D02*
X025441Y034114D01*
X025287Y034114D02*
X025287Y034421D01*
X031365Y037864D02*
X031442Y037787D01*
X031596Y037787D01*
X031672Y037864D01*
X031672Y038018D02*
X031519Y038094D01*
X031442Y038094D01*
X031365Y038018D01*
X031365Y037864D01*
X031672Y038018D02*
X031672Y038248D01*
X031365Y038248D01*
X031826Y038248D02*
X031826Y038171D01*
X032133Y037864D01*
X032133Y037787D01*
X032286Y037864D02*
X032363Y037787D01*
X032516Y037787D01*
X032593Y037864D01*
X032286Y038171D01*
X032286Y037864D01*
X032286Y038171D02*
X032363Y038248D01*
X032516Y038248D01*
X032593Y038171D01*
X032593Y037864D01*
X032747Y037787D02*
X033054Y037787D01*
X032747Y038094D01*
X032747Y038171D01*
X032823Y038248D01*
X032977Y038248D01*
X033054Y038171D01*
X033207Y038094D02*
X033361Y038248D01*
X033514Y038094D01*
X033514Y037787D01*
X033667Y037787D02*
X033974Y038248D01*
X034128Y038171D02*
X034205Y038248D01*
X034358Y038248D01*
X034435Y038171D01*
X034435Y037864D01*
X034358Y037787D01*
X034205Y037787D01*
X034128Y037864D01*
X033974Y037787D02*
X033667Y038248D01*
X033514Y038018D02*
X033207Y038018D01*
X033207Y038094D02*
X033207Y037787D01*
X032133Y038248D02*
X031826Y038248D01*
X034338Y037296D02*
X034338Y037219D01*
X034415Y037143D01*
X034338Y037066D01*
X034338Y036989D01*
X034415Y036912D01*
X034568Y036912D01*
X034645Y036989D01*
X034799Y036912D02*
X035106Y036912D01*
X035259Y036912D02*
X035412Y037066D01*
X035336Y037066D02*
X035566Y037066D01*
X035566Y036912D02*
X035566Y037373D01*
X035336Y037373D01*
X035259Y037296D01*
X035259Y037143D01*
X035336Y037066D01*
X035106Y037219D02*
X034952Y037373D01*
X034952Y036912D01*
X034645Y037296D02*
X034568Y037373D01*
X034415Y037373D01*
X034338Y037296D01*
X034415Y037143D02*
X034492Y037143D01*
X034588Y037711D02*
X034895Y037711D01*
X035049Y037787D02*
X035356Y037787D01*
X035509Y037787D02*
X035662Y037941D01*
X035586Y037941D02*
X035816Y037941D01*
X035816Y037787D02*
X035816Y038248D01*
X035586Y038248D01*
X035509Y038171D01*
X035509Y038018D01*
X035586Y037941D01*
X035634Y038037D02*
X035634Y038268D01*
X035711Y038344D01*
X035865Y038344D01*
X035941Y038268D01*
X035941Y038037D01*
X035481Y038037D01*
X035356Y038094D02*
X035202Y038248D01*
X035202Y037787D01*
X035634Y038191D02*
X035481Y038344D01*
X035481Y038498D02*
X035788Y038805D01*
X035865Y038805D01*
X035941Y038728D01*
X035941Y038574D01*
X035865Y038498D01*
X035481Y038498D02*
X035481Y038805D01*
X035404Y038958D02*
X035404Y039265D01*
X035558Y039419D02*
X035481Y039495D01*
X035481Y039649D01*
X035558Y039725D01*
X035481Y039879D02*
X035941Y040186D01*
X035816Y040287D02*
X035816Y040748D01*
X035586Y040748D01*
X035509Y040671D01*
X035509Y040518D01*
X035586Y040441D01*
X035816Y040441D01*
X035788Y040339D02*
X035941Y040493D01*
X035788Y040646D01*
X035481Y040646D01*
X035356Y040671D02*
X035279Y040748D01*
X035125Y040748D01*
X035049Y040671D01*
X035049Y040594D01*
X035125Y040518D01*
X035049Y040441D01*
X035049Y040364D01*
X035125Y040287D01*
X035279Y040287D01*
X035356Y040364D01*
X035481Y040339D02*
X035788Y040339D01*
X035711Y040339D02*
X035711Y040646D01*
X035662Y040441D02*
X035509Y040287D01*
X035481Y040186D02*
X035941Y039879D01*
X035865Y039725D02*
X035941Y039649D01*
X035941Y039495D01*
X035865Y039419D01*
X035558Y039419D01*
X034895Y040211D02*
X034588Y040211D01*
X034435Y040364D02*
X034358Y040287D01*
X034205Y040287D01*
X034128Y040364D01*
X033974Y040287D02*
X033667Y040748D01*
X033514Y040594D02*
X033361Y040748D01*
X033207Y040594D01*
X033207Y040287D01*
X033054Y040287D02*
X032747Y040594D01*
X032747Y040671D01*
X032823Y040748D01*
X032977Y040748D01*
X033054Y040671D01*
X033207Y040518D02*
X033514Y040518D01*
X033514Y040594D02*
X033514Y040287D01*
X033667Y040287D02*
X033974Y040748D01*
X034128Y040671D02*
X034205Y040748D01*
X034358Y040748D01*
X034435Y040671D01*
X034435Y040364D01*
X035125Y040518D02*
X035202Y040518D01*
X035481Y040800D02*
X035788Y041107D01*
X035865Y041107D01*
X035941Y041030D01*
X035941Y040876D01*
X035865Y040800D01*
X035481Y040800D02*
X035481Y041107D01*
X035566Y041162D02*
X035566Y041623D01*
X035336Y041623D01*
X035259Y041546D01*
X035259Y041393D01*
X035336Y041316D01*
X035566Y041316D01*
X035558Y041260D02*
X035865Y041567D01*
X035558Y041567D01*
X035481Y041490D01*
X035481Y041337D01*
X035558Y041260D01*
X035865Y041260D01*
X035941Y041337D01*
X035941Y041490D01*
X035865Y041567D01*
X035941Y041720D02*
X035941Y042027D01*
X035865Y042027D01*
X035558Y041720D01*
X035481Y041720D01*
X035566Y042037D02*
X035566Y042498D01*
X035336Y042498D01*
X035259Y042421D01*
X035259Y042268D01*
X035336Y042191D01*
X035566Y042191D01*
X035558Y042181D02*
X035481Y042258D01*
X035481Y042411D01*
X035558Y042488D01*
X035711Y042488D01*
X035788Y042411D01*
X035788Y042334D01*
X035711Y042181D01*
X035941Y042181D01*
X035941Y042488D01*
X035412Y042191D02*
X035259Y042037D01*
X035106Y042037D02*
X034799Y042037D01*
X034952Y042037D02*
X034952Y042498D01*
X035106Y042344D01*
X034645Y042344D02*
X034645Y042421D01*
X034568Y042498D01*
X034415Y042498D01*
X034338Y042421D01*
X034338Y042344D01*
X034415Y042268D01*
X034568Y042268D01*
X034645Y042344D01*
X034568Y042268D02*
X034645Y042191D01*
X034645Y042114D01*
X034568Y042037D01*
X034415Y042037D01*
X034338Y042114D01*
X034338Y042191D01*
X034415Y042268D01*
X034338Y041623D02*
X034338Y041546D01*
X034645Y041239D01*
X034645Y041162D01*
X034799Y041162D02*
X035106Y041162D01*
X035259Y041162D02*
X035412Y041316D01*
X035106Y041469D02*
X034952Y041623D01*
X034952Y041162D01*
X034645Y041623D02*
X034338Y041623D01*
X033054Y040287D02*
X032747Y040287D01*
X032593Y040364D02*
X032286Y040671D01*
X032286Y040364D01*
X032363Y040287D01*
X032516Y040287D01*
X032593Y040364D01*
X032593Y040671D01*
X032516Y040748D01*
X032363Y040748D01*
X032286Y040671D01*
X032133Y040748D02*
X031826Y040748D01*
X031826Y040671D01*
X032133Y040364D01*
X032133Y040287D01*
X031672Y040364D02*
X031596Y040287D01*
X031442Y040287D01*
X031365Y040364D01*
X031365Y040518D01*
X031442Y040594D01*
X031519Y040594D01*
X031672Y040518D01*
X031672Y040748D01*
X031365Y040748D01*
X033061Y045007D02*
X033351Y045007D01*
X033361Y045527D02*
X033061Y045527D01*
X033000Y045787D02*
X032924Y045864D01*
X032924Y045941D01*
X033000Y046018D01*
X033231Y046018D01*
X033231Y045864D01*
X033154Y045787D01*
X033000Y045787D01*
X033231Y046018D02*
X033077Y046171D01*
X032924Y046248D01*
X033384Y046171D02*
X033461Y046248D01*
X033614Y046248D01*
X033691Y046171D01*
X033691Y045864D01*
X033614Y045787D01*
X033461Y045787D01*
X033384Y045864D01*
X037213Y044373D02*
X037367Y044296D01*
X037520Y044143D01*
X037290Y044143D01*
X037213Y044066D01*
X037213Y043989D01*
X037290Y043912D01*
X037443Y043912D01*
X037520Y043989D01*
X037520Y044143D01*
X037674Y043912D02*
X037981Y043912D01*
X038134Y043912D02*
X038287Y044066D01*
X038211Y044066D02*
X038441Y044066D01*
X038441Y043912D02*
X038441Y044373D01*
X038211Y044373D01*
X038134Y044296D01*
X038134Y044143D01*
X038211Y044066D01*
X037981Y044219D02*
X037827Y044373D01*
X037827Y043912D01*
X039196Y040652D02*
X039486Y040652D01*
X039486Y040132D02*
X039186Y040132D01*
X039046Y039873D02*
X039276Y039643D01*
X038969Y039643D01*
X039046Y039873D02*
X039046Y039412D01*
X038691Y039373D02*
X038461Y039373D01*
X038384Y039296D01*
X038384Y039143D01*
X038461Y039066D01*
X038691Y039066D01*
X038537Y039066D02*
X038384Y038912D01*
X038231Y038912D02*
X037924Y038912D01*
X038077Y038912D02*
X038077Y039373D01*
X038231Y039219D01*
X037770Y039143D02*
X037463Y039143D01*
X037540Y039373D02*
X037770Y039143D01*
X037540Y038912D02*
X037540Y039373D01*
X038691Y039373D02*
X038691Y038912D01*
X039430Y039489D02*
X039507Y039412D01*
X039660Y039412D01*
X039737Y039489D01*
X039737Y039796D01*
X039660Y039873D01*
X039507Y039873D01*
X039430Y039796D01*
X039321Y035652D02*
X039611Y035652D01*
X039611Y035132D02*
X039311Y035132D01*
X039325Y034873D02*
X039171Y034873D01*
X039094Y034796D01*
X039094Y034719D01*
X039171Y034643D01*
X039094Y034566D01*
X039094Y034489D01*
X039171Y034412D01*
X039325Y034412D01*
X039401Y034489D01*
X039555Y034489D02*
X039632Y034412D01*
X039785Y034412D01*
X039862Y034489D01*
X039862Y034796D01*
X039785Y034873D01*
X039632Y034873D01*
X039555Y034796D01*
X039401Y034796D02*
X039325Y034873D01*
X039321Y034652D02*
X039611Y034652D01*
X039248Y034643D02*
X039171Y034643D01*
X039311Y034132D02*
X039611Y034132D01*
X039632Y033873D02*
X039785Y033873D01*
X039862Y033796D01*
X039862Y033489D01*
X039785Y033412D01*
X039632Y033412D01*
X039555Y033489D01*
X039401Y033412D02*
X039094Y033719D01*
X039094Y033796D01*
X039171Y033873D01*
X039325Y033873D01*
X039401Y033796D01*
X039555Y033796D02*
X039632Y033873D01*
X039611Y033652D02*
X039321Y033652D01*
X039401Y033412D02*
X039094Y033412D01*
X039311Y033132D02*
X039611Y033132D01*
X039632Y032873D02*
X039785Y032873D01*
X039862Y032796D01*
X039862Y032489D01*
X039785Y032412D01*
X039632Y032412D01*
X039555Y032489D01*
X039401Y032412D02*
X039094Y032412D01*
X039248Y032412D02*
X039248Y032873D01*
X039401Y032719D01*
X039555Y032796D02*
X039632Y032873D01*
X033316Y030421D02*
X033316Y030114D01*
X033239Y030037D01*
X033086Y030037D01*
X033009Y030114D01*
X032856Y030037D02*
X032549Y030037D01*
X032702Y030037D02*
X032702Y030498D01*
X032856Y030344D01*
X033009Y030421D02*
X033086Y030498D01*
X033239Y030498D01*
X033316Y030421D01*
X033216Y029827D02*
X032456Y029827D01*
X032318Y030037D02*
X032395Y030114D01*
X032318Y030037D02*
X032165Y030037D01*
X032088Y030114D01*
X032088Y030191D01*
X032165Y030268D01*
X032242Y030268D01*
X032165Y030268D02*
X032088Y030344D01*
X032088Y030421D01*
X032165Y030498D01*
X032318Y030498D01*
X032395Y030421D01*
X032456Y029207D02*
X033216Y029207D01*
X051356Y037406D02*
X051816Y037406D01*
X051816Y037636D01*
X051740Y037713D01*
X051586Y037713D01*
X051509Y037636D01*
X051509Y037406D01*
X051509Y037560D02*
X051356Y037713D01*
X051433Y037867D02*
X051356Y037943D01*
X051356Y038097D01*
X051433Y038173D01*
X051509Y038173D01*
X051586Y038097D01*
X051586Y038020D01*
X051586Y038097D02*
X051663Y038173D01*
X051740Y038173D01*
X051816Y038097D01*
X051816Y037943D01*
X051740Y037867D01*
X051856Y037787D02*
X052316Y037787D01*
X052316Y038018D01*
X052240Y038094D01*
X052086Y038094D01*
X052009Y038018D01*
X052009Y037787D01*
X052009Y037941D02*
X051856Y038094D01*
X051856Y038248D02*
X051856Y038555D01*
X051816Y038557D02*
X051816Y038404D01*
X051740Y038327D01*
X051663Y038327D01*
X051586Y038404D01*
X051586Y038634D01*
X051433Y038634D02*
X051740Y038634D01*
X051816Y038557D01*
X051856Y038401D02*
X052316Y038401D01*
X052163Y038248D01*
X052163Y038708D02*
X052086Y038785D01*
X052086Y039015D01*
X051933Y039015D02*
X052240Y039015D01*
X052316Y038938D01*
X052316Y038785D01*
X052240Y038708D01*
X052163Y038708D01*
X051933Y038708D02*
X051856Y038785D01*
X051856Y038938D01*
X051933Y039015D01*
X051433Y038634D02*
X051356Y038557D01*
X051356Y038404D01*
X051433Y038327D01*
X054701Y037417D02*
X054701Y037127D01*
X055221Y037117D02*
X055221Y037417D01*
X055481Y037555D02*
X055941Y037555D01*
X055788Y037401D01*
X055941Y037248D01*
X055481Y037248D01*
X055558Y037094D02*
X055481Y037018D01*
X055481Y036864D01*
X055558Y036787D01*
X055865Y036787D01*
X055941Y036864D01*
X055941Y037018D01*
X055865Y037094D01*
X055788Y037708D02*
X055941Y037862D01*
X055481Y037862D01*
X055481Y038015D02*
X055481Y037708D01*
X055558Y038169D02*
X055481Y038245D01*
X055481Y038399D01*
X055558Y038475D01*
X055634Y038475D01*
X055711Y038399D01*
X055711Y038169D01*
X055558Y038169D01*
X055711Y038169D02*
X055865Y038322D01*
X055941Y038475D01*
X057356Y037932D02*
X057356Y037779D01*
X057433Y037702D01*
X057509Y037702D01*
X057586Y037779D01*
X057586Y037932D01*
X057509Y038009D01*
X057433Y038009D01*
X057356Y037932D01*
X057586Y037932D02*
X057663Y038009D01*
X057740Y038009D01*
X057816Y037932D01*
X057816Y037779D01*
X057740Y037702D01*
X057663Y037702D01*
X057586Y037779D01*
X057509Y037548D02*
X057433Y037548D01*
X057356Y037472D01*
X057356Y037318D01*
X057433Y037242D01*
X057356Y037088D02*
X057509Y036935D01*
X057509Y037011D02*
X057509Y036781D01*
X057356Y036781D02*
X057816Y036781D01*
X057816Y037011D01*
X057740Y037088D01*
X057586Y037088D01*
X057509Y037011D01*
X057740Y037242D02*
X057816Y037318D01*
X057816Y037472D01*
X057740Y037548D01*
X057663Y037548D01*
X057586Y037472D01*
X057509Y037548D01*
X057586Y037472D02*
X057586Y037395D01*
X058106Y037472D02*
X058566Y037472D01*
X058336Y037242D01*
X058336Y037548D01*
X058183Y037702D02*
X058490Y038009D01*
X058183Y038009D01*
X058106Y037932D01*
X058106Y037779D01*
X058183Y037702D01*
X058490Y037702D01*
X058566Y037779D01*
X058566Y037932D01*
X058490Y038009D01*
X058867Y037998D02*
X058867Y037537D01*
X059020Y037537D02*
X058713Y037537D01*
X059020Y037844D02*
X058867Y037998D01*
X059250Y037998D02*
X059481Y037768D01*
X059174Y037768D01*
X059250Y037998D02*
X059250Y037537D01*
X059634Y037537D02*
X059787Y037691D01*
X059711Y037691D02*
X059941Y037691D01*
X059941Y037537D02*
X059941Y037998D01*
X059711Y037998D01*
X059634Y037921D01*
X059634Y037768D01*
X059711Y037691D01*
X059240Y036890D02*
X059316Y036813D01*
X059316Y036660D01*
X059240Y036583D01*
X059299Y036594D02*
X059375Y036518D01*
X059299Y036441D01*
X059299Y036364D01*
X059375Y036287D01*
X059529Y036287D01*
X059606Y036364D01*
X059759Y036287D02*
X059912Y036441D01*
X059836Y036441D02*
X060066Y036441D01*
X060066Y036287D02*
X060066Y036748D01*
X059836Y036748D01*
X059759Y036671D01*
X059759Y036518D01*
X059836Y036441D01*
X059606Y036671D02*
X059529Y036748D01*
X059375Y036748D01*
X059299Y036671D01*
X059299Y036594D01*
X059375Y036518D02*
X059452Y036518D01*
X059316Y036353D02*
X059086Y036123D01*
X059086Y036430D01*
X059145Y036364D02*
X059145Y036287D01*
X059145Y036364D02*
X058838Y036671D01*
X058838Y036748D01*
X059145Y036748D01*
X059163Y036890D02*
X059240Y036890D01*
X059163Y036890D02*
X058856Y036583D01*
X058856Y036890D01*
X058566Y036781D02*
X058566Y037011D01*
X058490Y037088D01*
X058336Y037088D01*
X058259Y037011D01*
X058259Y036781D01*
X058106Y036781D02*
X058566Y036781D01*
X058259Y036935D02*
X058106Y037088D01*
X058856Y036353D02*
X059316Y036353D01*
X059240Y035969D02*
X059086Y035969D01*
X059009Y035893D01*
X059009Y035662D01*
X058856Y035662D02*
X059316Y035662D01*
X059316Y035893D01*
X059240Y035969D01*
X059009Y035816D02*
X058856Y035969D01*
X062451Y036877D02*
X062451Y037167D01*
X062971Y037167D02*
X062971Y036867D01*
X063231Y036768D02*
X063308Y036844D01*
X063231Y036768D02*
X063231Y036614D01*
X063308Y036537D01*
X063615Y036537D01*
X063691Y036614D01*
X063691Y036768D01*
X063615Y036844D01*
X063691Y036998D02*
X063691Y037305D01*
X063615Y037305D01*
X063308Y036998D01*
X063231Y036998D01*
X063231Y037305D01*
X063308Y037458D02*
X063231Y037535D01*
X063231Y037688D01*
X063308Y037765D01*
X063384Y037765D01*
X063461Y037688D01*
X063461Y037535D01*
X063538Y037458D01*
X063615Y037458D01*
X063691Y037535D01*
X063691Y037688D01*
X063615Y037765D01*
X063538Y037765D01*
X063461Y037688D01*
X063461Y037535D02*
X063384Y037458D01*
X063308Y037458D01*
X063308Y037919D02*
X063615Y038225D01*
X063308Y038225D01*
X063231Y038149D01*
X063231Y037995D01*
X063308Y037919D01*
X063615Y037919D01*
X063691Y037995D01*
X063691Y038149D01*
X063615Y038225D01*
X063731Y040912D02*
X064191Y040912D01*
X064191Y041143D01*
X064115Y041219D01*
X063961Y041219D01*
X063884Y041143D01*
X063884Y040912D01*
X063884Y041066D02*
X063731Y041219D01*
X063731Y041373D02*
X064038Y041680D01*
X064115Y041680D01*
X064191Y041603D01*
X064191Y041449D01*
X064115Y041373D01*
X063731Y041373D02*
X063731Y041680D01*
X063961Y041833D02*
X063961Y042140D01*
X063731Y042063D02*
X064191Y042063D01*
X063961Y041833D01*
X072719Y045489D02*
X072719Y045796D01*
X072796Y045873D01*
X072950Y045873D01*
X073026Y045796D01*
X073026Y045719D01*
X072950Y045643D01*
X072719Y045643D01*
X072719Y045489D02*
X072796Y045412D01*
X072950Y045412D01*
X073026Y045489D01*
X073180Y045412D02*
X073487Y045412D01*
X073180Y045719D01*
X073180Y045796D01*
X073257Y045873D01*
X073410Y045873D01*
X073487Y045796D01*
X073640Y045873D02*
X073640Y045412D01*
X073794Y045566D01*
X073947Y045412D01*
X073947Y045873D01*
X074101Y045796D02*
X074177Y045873D01*
X074331Y045873D01*
X074408Y045796D01*
X074408Y045489D01*
X074331Y045412D01*
X074177Y045412D01*
X074101Y045489D01*
X073236Y046132D02*
X072936Y046132D01*
X072946Y046652D02*
X073236Y046652D01*
X069316Y054162D02*
X068856Y054162D01*
X069009Y054162D02*
X069009Y054393D01*
X069086Y054469D01*
X069240Y054469D01*
X069316Y054393D01*
X069316Y054162D01*
X069009Y054316D02*
X068856Y054469D01*
X068856Y054623D02*
X069163Y054930D01*
X069240Y054930D01*
X069316Y054853D01*
X069316Y054699D01*
X069240Y054623D01*
X068856Y054623D02*
X068856Y054930D01*
X068933Y055083D02*
X069009Y055083D01*
X069086Y055160D01*
X069086Y055313D01*
X069009Y055390D01*
X068933Y055390D01*
X068856Y055313D01*
X068856Y055160D01*
X068933Y055083D01*
X069086Y055160D02*
X069163Y055083D01*
X069240Y055083D01*
X069316Y055160D01*
X069316Y055313D01*
X069240Y055390D01*
X069163Y055390D01*
X069086Y055313D01*
X067816Y056406D02*
X067816Y056636D01*
X067740Y056713D01*
X067586Y056713D01*
X067509Y056636D01*
X067509Y056406D01*
X067356Y056406D02*
X067816Y056406D01*
X067509Y056560D02*
X067356Y056713D01*
X067356Y056867D02*
X067663Y057173D01*
X067740Y057173D01*
X067816Y057097D01*
X067816Y056943D01*
X067740Y056867D01*
X067702Y056941D02*
X067549Y056787D01*
X067625Y056941D02*
X067856Y056941D01*
X067856Y056787D02*
X067856Y057248D01*
X067625Y057248D01*
X067549Y057171D01*
X067549Y057018D01*
X067625Y056941D01*
X067395Y057018D02*
X067088Y057018D01*
X066935Y057171D02*
X066858Y057248D01*
X066705Y057248D01*
X066628Y057171D01*
X066628Y057094D01*
X066705Y057018D01*
X066628Y056941D01*
X066628Y056864D01*
X066705Y056787D01*
X066858Y056787D01*
X066935Y056864D01*
X066816Y056943D02*
X066740Y056867D01*
X066816Y056943D02*
X066816Y057097D01*
X066740Y057173D01*
X066663Y057173D01*
X066356Y056867D01*
X066356Y057173D01*
X066433Y057327D02*
X066356Y057404D01*
X066356Y057557D01*
X066433Y057634D01*
X066586Y057634D01*
X066663Y057557D01*
X066663Y057480D01*
X066586Y057327D01*
X066816Y057327D01*
X066816Y057634D01*
X067165Y057248D02*
X067395Y057018D01*
X067356Y056867D02*
X067356Y057173D01*
X067433Y057327D02*
X067356Y057404D01*
X067356Y057557D01*
X067433Y057634D01*
X067509Y057634D01*
X067586Y057557D01*
X067586Y057327D01*
X067433Y057327D01*
X067586Y057327D02*
X067740Y057480D01*
X067816Y057634D01*
X068009Y057171D02*
X068316Y056864D01*
X068162Y056864D02*
X068162Y057171D01*
X068316Y057171D02*
X068009Y056864D01*
X068009Y057018D02*
X068316Y057018D01*
X069856Y057287D02*
X070316Y057287D01*
X070316Y057518D01*
X070240Y057594D01*
X070086Y057594D01*
X070009Y057518D01*
X070009Y057287D01*
X070009Y057441D02*
X069856Y057594D01*
X069856Y057748D02*
X070163Y058055D01*
X070240Y058055D01*
X070316Y057978D01*
X070316Y057824D01*
X070240Y057748D01*
X069856Y057748D02*
X069856Y058055D01*
X069933Y058208D02*
X069856Y058285D01*
X069856Y058438D01*
X069933Y058515D01*
X070240Y058515D01*
X070316Y058438D01*
X070316Y058285D01*
X070240Y058208D01*
X070163Y058208D01*
X070086Y058285D01*
X070086Y058515D01*
X070856Y058515D02*
X070856Y058208D01*
X071163Y058515D01*
X071240Y058515D01*
X071316Y058438D01*
X071316Y058285D01*
X071240Y058208D01*
X071240Y058055D02*
X071163Y058055D01*
X071086Y057978D01*
X071009Y058055D01*
X070933Y058055D01*
X070856Y057978D01*
X070856Y057824D01*
X070933Y057748D01*
X070856Y057594D02*
X071009Y057441D01*
X071009Y057518D02*
X071009Y057287D01*
X070856Y057287D02*
X071316Y057287D01*
X071316Y057518D01*
X071240Y057594D01*
X071086Y057594D01*
X071009Y057518D01*
X071240Y057748D02*
X071316Y057824D01*
X071316Y057978D01*
X071240Y058055D01*
X071086Y057978D02*
X071086Y057901D01*
X071540Y056498D02*
X071770Y056268D01*
X071463Y056268D01*
X071540Y056498D02*
X071540Y056037D01*
X071831Y055827D02*
X072591Y055827D01*
X072614Y056037D02*
X072461Y056037D01*
X072384Y056114D01*
X072231Y056037D02*
X071924Y056037D01*
X072077Y056037D02*
X072077Y056498D01*
X072231Y056344D01*
X072384Y056421D02*
X072461Y056498D01*
X072614Y056498D01*
X072691Y056421D01*
X072691Y056114D01*
X072614Y056037D01*
X072591Y055207D02*
X071831Y055207D01*
X073231Y057162D02*
X073691Y057162D01*
X073691Y057393D01*
X073615Y057469D01*
X073461Y057469D01*
X073384Y057393D01*
X073384Y057162D01*
X073384Y057316D02*
X073231Y057469D01*
X073231Y057623D02*
X073538Y057930D01*
X073615Y057930D01*
X073691Y057853D01*
X073691Y057699D01*
X073615Y057623D01*
X073231Y057623D02*
X073231Y057930D01*
X073231Y058083D02*
X073308Y058083D01*
X073615Y058390D01*
X073691Y058390D01*
X073691Y058083D01*
X067165Y057248D02*
X067165Y056787D01*
X066816Y056636D02*
X066740Y056713D01*
X066586Y056713D01*
X066509Y056636D01*
X066509Y056406D01*
X066356Y056406D02*
X066816Y056406D01*
X066816Y056636D01*
X066509Y056560D02*
X066356Y056713D01*
X066705Y057018D02*
X066781Y057018D01*
X065691Y056853D02*
X065691Y056699D01*
X065615Y056623D01*
X065615Y056469D02*
X065461Y056469D01*
X065384Y056393D01*
X065384Y056162D01*
X065481Y056248D02*
X065250Y056248D01*
X065174Y056171D01*
X065174Y056018D01*
X065250Y055941D01*
X065481Y055941D01*
X065481Y055787D02*
X065481Y056248D01*
X065384Y056316D02*
X065231Y056469D01*
X065308Y056623D02*
X065231Y056699D01*
X065231Y056853D01*
X065308Y056930D01*
X065384Y056930D01*
X065461Y056853D01*
X065461Y056776D01*
X065461Y056853D02*
X065538Y056930D01*
X065615Y056930D01*
X065691Y056853D01*
X065538Y057083D02*
X065691Y057237D01*
X065231Y057237D01*
X065231Y057390D02*
X065231Y057083D01*
X065615Y056469D02*
X065691Y056393D01*
X065691Y056162D01*
X065231Y056162D01*
X065020Y056094D02*
X064867Y056248D01*
X064867Y055787D01*
X065020Y055787D02*
X064713Y055787D01*
X065174Y055787D02*
X065327Y055941D01*
X065634Y056018D02*
X065941Y056018D01*
X065941Y056171D02*
X065634Y055864D01*
X065787Y055864D02*
X065787Y056171D01*
X065634Y056171D02*
X065941Y055864D01*
X064476Y057382D02*
X064186Y057382D01*
X064186Y057902D02*
X064486Y057902D01*
X064586Y058162D02*
X064509Y058239D01*
X064586Y058162D02*
X064739Y058162D01*
X064816Y058239D01*
X064816Y058546D01*
X064739Y058623D01*
X064586Y058623D01*
X064509Y058546D01*
X064356Y058469D02*
X064202Y058623D01*
X064202Y058162D01*
X064049Y058162D02*
X064356Y058162D01*
X063895Y058239D02*
X063818Y058162D01*
X063665Y058162D01*
X063588Y058239D01*
X063588Y058393D01*
X063665Y058469D01*
X063742Y058469D01*
X063895Y058393D01*
X063895Y058623D01*
X063588Y058623D01*
X065088Y058546D02*
X065395Y058239D01*
X065318Y058162D01*
X065165Y058162D01*
X065088Y058239D01*
X065088Y058546D01*
X065165Y058623D01*
X065318Y058623D01*
X065395Y058546D01*
X065395Y058239D01*
X065549Y058239D02*
X065625Y058162D01*
X065779Y058162D01*
X065856Y058239D01*
X066009Y058162D02*
X066162Y058316D01*
X066086Y058316D02*
X066316Y058316D01*
X066316Y058162D02*
X066316Y058623D01*
X066086Y058623D01*
X066009Y058546D01*
X066009Y058393D01*
X066086Y058316D01*
X065856Y058546D02*
X065779Y058623D01*
X065625Y058623D01*
X065549Y058546D01*
X065549Y058469D01*
X065625Y058393D01*
X065549Y058316D01*
X065549Y058239D01*
X065625Y058393D02*
X065702Y058393D01*
X062816Y055807D02*
X062740Y055884D01*
X062663Y055884D01*
X062586Y055807D01*
X062509Y055884D01*
X062433Y055884D01*
X062356Y055807D01*
X062356Y055654D01*
X062433Y055577D01*
X062433Y055423D02*
X062356Y055347D01*
X062356Y055193D01*
X062433Y055117D01*
X062356Y054963D02*
X062509Y054810D01*
X062509Y054886D02*
X062509Y054656D01*
X062356Y054656D02*
X062816Y054656D01*
X062816Y054886D01*
X062740Y054963D01*
X062586Y054963D01*
X062509Y054886D01*
X062740Y055117D02*
X062816Y055193D01*
X062816Y055347D01*
X062740Y055423D01*
X062663Y055423D01*
X062586Y055347D01*
X062509Y055423D01*
X062433Y055423D01*
X062586Y055347D02*
X062586Y055270D01*
X062740Y055577D02*
X062816Y055654D01*
X062816Y055807D01*
X062586Y055807D02*
X062586Y055730D01*
X048447Y046248D02*
X048217Y046248D01*
X048140Y046171D01*
X048140Y046018D01*
X048217Y045941D01*
X048447Y045941D01*
X048294Y045941D02*
X048140Y045787D01*
X047987Y045787D02*
X047680Y046094D01*
X047680Y046171D01*
X047757Y046248D01*
X047910Y046248D01*
X047987Y046171D01*
X047987Y045787D02*
X047680Y045787D01*
X047526Y045864D02*
X047219Y046171D01*
X047219Y045864D01*
X047296Y045787D01*
X047450Y045787D01*
X047526Y045864D01*
X047526Y046171D01*
X047450Y046248D01*
X047296Y046248D01*
X047219Y046171D01*
X048447Y046248D02*
X048447Y045787D01*
X048191Y044515D02*
X048115Y044362D01*
X047961Y044208D01*
X047961Y044438D01*
X047884Y044515D01*
X047808Y044515D01*
X047731Y044438D01*
X047731Y044285D01*
X047808Y044208D01*
X047961Y044208D01*
X047884Y044055D02*
X047808Y044055D01*
X047731Y043978D01*
X047731Y043824D01*
X047808Y043748D01*
X047731Y043594D02*
X047884Y043441D01*
X047884Y043518D02*
X047884Y043287D01*
X047731Y043287D02*
X048191Y043287D01*
X048191Y043518D01*
X048115Y043594D01*
X047961Y043594D01*
X047884Y043518D01*
X048115Y043748D02*
X048191Y043824D01*
X048191Y043978D01*
X048115Y044055D01*
X048038Y044055D01*
X047961Y043978D01*
X047884Y044055D01*
X047961Y043978D02*
X047961Y043901D01*
X047197Y043873D02*
X047197Y043412D01*
X047197Y043566D02*
X046967Y043566D01*
X046890Y043643D01*
X046890Y043796D01*
X046967Y043873D01*
X047197Y043873D01*
X047044Y043566D02*
X046890Y043412D01*
X046737Y043489D02*
X046660Y043412D01*
X046507Y043412D01*
X046430Y043489D01*
X046430Y043566D01*
X046507Y043643D01*
X046583Y043643D01*
X046507Y043643D02*
X046430Y043719D01*
X046430Y043796D01*
X046507Y043873D01*
X046660Y043873D01*
X046737Y043796D01*
X046276Y043873D02*
X046276Y043643D01*
X046123Y043719D01*
X046046Y043719D01*
X045969Y043643D01*
X045969Y043489D01*
X046046Y043412D01*
X046200Y043412D01*
X046276Y043489D01*
X046276Y043873D02*
X045969Y043873D01*
X045816Y050660D02*
X045509Y050660D01*
X045356Y050813D01*
X045509Y050967D01*
X045816Y050967D01*
X045816Y051120D02*
X045509Y051120D01*
X045509Y051197D01*
X045586Y051274D01*
X045509Y051350D01*
X045586Y051427D01*
X045816Y051427D01*
X045816Y051274D02*
X045586Y051274D01*
X045586Y050967D02*
X045586Y050660D01*
X045509Y051581D02*
X045509Y051811D01*
X045586Y051888D01*
X045739Y051888D01*
X045816Y051811D01*
X045816Y051581D01*
X045969Y051581D02*
X045509Y051581D01*
X045586Y052041D02*
X045509Y052118D01*
X045509Y052271D01*
X045586Y052348D01*
X045816Y052348D01*
X045739Y052501D02*
X045586Y052501D01*
X045509Y052578D01*
X045509Y052732D01*
X045586Y052808D01*
X045662Y052808D01*
X045662Y052501D01*
X045739Y052501D02*
X045816Y052578D01*
X045816Y052732D01*
X045816Y052962D02*
X045509Y052962D01*
X045509Y053192D01*
X045586Y053269D01*
X045816Y053269D01*
X045739Y053422D02*
X045816Y053499D01*
X045816Y053652D01*
X045739Y053729D01*
X045586Y053729D01*
X045509Y053652D01*
X045509Y053499D01*
X045586Y053422D01*
X045739Y053422D01*
X045816Y053883D02*
X045816Y054036D01*
X045816Y053959D02*
X045356Y053959D01*
X045356Y053883D01*
X045356Y054650D02*
X045509Y054803D01*
X045356Y054957D01*
X045816Y054957D01*
X045816Y055110D02*
X045356Y055110D01*
X045509Y055264D01*
X045356Y055417D01*
X045816Y055417D01*
X045739Y055571D02*
X045432Y055571D01*
X045356Y055647D01*
X045356Y055801D01*
X045432Y055878D01*
X045739Y055878D02*
X045816Y055801D01*
X045816Y055647D01*
X045739Y055571D01*
X045816Y056031D02*
X045356Y056338D01*
X045432Y056492D02*
X045509Y056492D01*
X045586Y056568D01*
X045586Y056722D01*
X045662Y056798D01*
X045739Y056798D01*
X045816Y056722D01*
X045816Y056568D01*
X045739Y056492D01*
X045432Y056492D02*
X045356Y056568D01*
X045356Y056722D01*
X045432Y056798D01*
X045356Y056952D02*
X045356Y057182D01*
X045432Y057259D01*
X045739Y057259D01*
X045816Y057182D01*
X045816Y056952D01*
X045356Y056952D01*
X045356Y054650D02*
X045816Y054650D01*
X045816Y052041D02*
X045356Y052041D01*
X064373Y031248D02*
X064373Y030787D01*
X064526Y030787D02*
X064219Y030787D01*
X064526Y031094D02*
X064373Y031248D01*
X064680Y031171D02*
X064757Y031248D01*
X064910Y031248D01*
X064987Y031171D01*
X065140Y031171D02*
X065140Y031018D01*
X065217Y030941D01*
X065447Y030941D01*
X065294Y030941D02*
X065140Y030787D01*
X064987Y030787D02*
X064680Y031094D01*
X064680Y031171D01*
X064680Y030787D02*
X064987Y030787D01*
X065140Y031171D02*
X065217Y031248D01*
X065447Y031248D01*
X065447Y030787D01*
X064990Y015259D02*
X065066Y015182D01*
X065066Y015029D01*
X064990Y014952D01*
X064683Y014952D01*
X064606Y015029D01*
X064606Y015182D01*
X064683Y015259D01*
X064606Y014798D02*
X065066Y014798D01*
X064836Y014798D02*
X064836Y014492D01*
X064913Y014338D02*
X064990Y014338D01*
X065066Y014261D01*
X065066Y014108D01*
X064990Y014031D01*
X064990Y013878D02*
X065066Y013801D01*
X065066Y013647D01*
X064990Y013571D01*
X064683Y013571D01*
X064606Y013647D01*
X064606Y013801D01*
X064683Y013878D01*
X064606Y014031D02*
X064913Y014338D01*
X065066Y014492D02*
X064606Y014492D01*
X064606Y014338D02*
X064606Y014031D01*
X065326Y014742D02*
X065326Y015042D01*
X065846Y015032D02*
X065846Y014742D01*
X038987Y014873D02*
X038987Y014412D01*
X038987Y014566D02*
X038757Y014566D01*
X038680Y014643D01*
X038680Y014796D01*
X038757Y014873D01*
X038987Y014873D01*
X038833Y014566D02*
X038680Y014412D01*
X038526Y014489D02*
X038526Y014643D01*
X038296Y014643D01*
X038219Y014566D01*
X038219Y014489D01*
X038296Y014412D01*
X038450Y014412D01*
X038526Y014489D01*
X038526Y014643D02*
X038373Y014796D01*
X038219Y014873D01*
X038296Y012998D02*
X038450Y012998D01*
X038526Y012921D01*
X038526Y012844D01*
X038450Y012768D01*
X038219Y012768D01*
X038219Y012921D02*
X038296Y012998D01*
X038219Y012921D02*
X038219Y012614D01*
X038296Y012537D01*
X038450Y012537D01*
X038526Y012614D01*
X038680Y012537D02*
X038833Y012691D01*
X038757Y012691D02*
X038987Y012691D01*
X038987Y012537D02*
X038987Y012998D01*
X038757Y012998D01*
X038680Y012921D01*
X038680Y012768D01*
X038757Y012691D01*
X037441Y009932D02*
X037211Y009702D01*
X037211Y010009D01*
X036981Y009932D02*
X037441Y009932D01*
X037365Y009548D02*
X037211Y009548D01*
X037134Y009472D01*
X037134Y009242D01*
X037134Y009395D02*
X036981Y009548D01*
X036981Y009242D02*
X037441Y009242D01*
X037441Y009472D01*
X037365Y009548D01*
X036441Y009472D02*
X036365Y009548D01*
X036211Y009548D01*
X036134Y009472D01*
X036134Y009242D01*
X036134Y009395D02*
X035981Y009548D01*
X036058Y009702D02*
X036134Y009702D01*
X036211Y009779D01*
X036211Y009932D01*
X036134Y010009D01*
X036058Y010009D01*
X035981Y009932D01*
X035981Y009779D01*
X036058Y009702D01*
X036211Y009779D02*
X036288Y009702D01*
X036365Y009702D01*
X036441Y009779D01*
X036441Y009932D01*
X036365Y010009D01*
X036288Y010009D01*
X036211Y009932D01*
X036441Y009472D02*
X036441Y009242D01*
X035981Y009242D01*
X035316Y009656D02*
X035316Y009886D01*
X035240Y009963D01*
X035086Y009963D01*
X035009Y009886D01*
X035009Y009656D01*
X034856Y009656D02*
X035316Y009656D01*
X035009Y009810D02*
X034856Y009963D01*
X034856Y010117D02*
X034856Y010423D01*
X034856Y010270D02*
X035316Y010270D01*
X035163Y010117D01*
X035240Y010577D02*
X035316Y010654D01*
X035316Y010807D01*
X035240Y010884D01*
X034933Y010577D01*
X034856Y010654D01*
X034856Y010807D01*
X034933Y010884D01*
X035240Y010884D01*
X035240Y010577D02*
X034933Y010577D01*
X034191Y012492D02*
X034191Y012722D01*
X034115Y012798D01*
X033961Y012798D01*
X033884Y012722D01*
X033884Y012492D01*
X033884Y012645D02*
X033731Y012798D01*
X033731Y012952D02*
X033808Y012952D01*
X034115Y013259D01*
X034191Y013259D01*
X034191Y012952D01*
X034191Y012492D02*
X033731Y012492D01*
D12*
X038044Y013517D03*
X038624Y013517D03*
X038624Y015392D03*
X038044Y015392D03*
X025503Y033518D03*
X024923Y033518D03*
X035048Y036393D03*
X035628Y036393D03*
X035628Y040643D03*
X035048Y040643D03*
X035048Y041518D03*
X035628Y041518D03*
X037923Y043393D03*
X038503Y043393D03*
X045794Y044392D03*
X046374Y044392D03*
X047044Y046767D03*
X047624Y046767D03*
X059423Y037018D03*
X060003Y037018D03*
X060128Y035768D03*
X059548Y035768D03*
X064044Y031767D03*
X064624Y031767D03*
X065423Y055268D03*
X066003Y055268D03*
X067798Y056268D03*
X068378Y056268D03*
X066378Y057643D03*
X065798Y057643D03*
X012003Y023268D03*
X011423Y023268D03*
X009249Y010642D03*
X008669Y010642D03*
X008249Y009767D03*
X007669Y009767D03*
X007374Y010642D03*
X006794Y010642D03*
X006249Y009767D03*
X005669Y009767D03*
D13*
X009710Y022479D03*
X009710Y023059D03*
X034710Y013434D03*
X034710Y012854D03*
X035835Y011059D03*
X035835Y010479D03*
X036960Y010184D03*
X036960Y009604D03*
X037960Y009604D03*
X037960Y010184D03*
X058337Y035600D03*
X058337Y036180D03*
X058335Y037604D03*
X058335Y038184D03*
X059085Y038184D03*
X059085Y037604D03*
X063212Y040850D03*
X063212Y041430D03*
X063335Y055479D03*
X063335Y056059D03*
X064712Y056100D03*
X064712Y056680D03*
X067335Y057229D03*
X067335Y057809D03*
X068335Y057809D03*
X068335Y057229D03*
X069337Y057225D03*
X069337Y057805D03*
X070337Y057805D03*
X070337Y057225D03*
X072712Y057100D03*
X072712Y057680D03*
D14*
X068336Y055162D03*
X068336Y054122D03*
X047211Y044287D03*
X047211Y043247D03*
X051336Y038787D03*
X052336Y038787D03*
X052336Y037747D03*
X051336Y037747D03*
D15*
X039749Y035392D03*
X039179Y035392D03*
X039179Y034392D03*
X039749Y034392D03*
X039749Y033392D03*
X039179Y033392D03*
X039054Y040392D03*
X039624Y040392D03*
X033493Y045268D03*
X032923Y045268D03*
X064048Y057643D03*
X064618Y057643D03*
X072804Y046392D03*
X073374Y046392D03*
D16*
X072733Y055517D03*
X071689Y055518D03*
X033358Y029517D03*
X032314Y029518D03*
D17*
X034996Y037267D03*
X035676Y037267D03*
X037871Y038392D03*
X038551Y038392D03*
X035676Y039767D03*
X034996Y039767D03*
D18*
X034961Y038857D03*
X034961Y038177D03*
D19*
X054911Y020717D02*
X055211Y021018D01*
X055286Y021018D01*
X055286Y020717D01*
X054911Y020717D02*
X054836Y020717D01*
X054886Y017138D02*
X054886Y016838D01*
X054886Y016988D02*
X055336Y016988D01*
X055186Y016838D01*
X055036Y016678D02*
X055336Y016678D01*
X055036Y016678D02*
X054886Y016528D01*
X055036Y016378D01*
X055336Y016378D01*
X055261Y016218D02*
X055336Y016143D01*
X055336Y015992D01*
X055261Y015917D01*
X055186Y015917D01*
X055111Y015992D01*
X055111Y016143D01*
X055036Y016218D01*
X054961Y016218D01*
X054886Y016143D01*
X054886Y015992D01*
X054961Y015917D01*
X054836Y015018D02*
X054836Y014717D01*
X054836Y014867D02*
X055286Y014867D01*
X055136Y014717D01*
X055211Y014018D02*
X054911Y013717D01*
X054836Y013717D01*
X055286Y013717D02*
X055286Y014018D01*
X055211Y014018D01*
X055186Y010138D02*
X055111Y010063D01*
X055036Y010138D01*
X054961Y010138D01*
X054886Y010063D01*
X054886Y009913D01*
X054961Y009838D01*
X055036Y009678D02*
X055336Y009678D01*
X055261Y009838D02*
X055336Y009913D01*
X055336Y010063D01*
X055261Y010138D01*
X055186Y010138D01*
X055111Y010063D02*
X055111Y009988D01*
X055036Y009678D02*
X054886Y009528D01*
X055036Y009378D01*
X055336Y009378D01*
X055261Y009218D02*
X055336Y009143D01*
X055336Y008992D01*
X055261Y008917D01*
X055186Y008917D01*
X055111Y008992D01*
X055111Y009143D01*
X055036Y009218D01*
X054961Y009218D01*
X054886Y009143D01*
X054886Y008992D01*
X054961Y008917D01*
X054836Y008018D02*
X054836Y007717D01*
X054836Y007867D02*
X055286Y007867D01*
X055136Y007717D01*
D20*
X054411Y007892D03*
X054011Y007892D03*
X054011Y008892D03*
X054411Y008892D03*
X054411Y009892D03*
X054011Y009892D03*
X054011Y010892D03*
X054411Y010892D03*
X054411Y011892D03*
X054011Y011892D03*
X054011Y012892D03*
X054411Y012892D03*
X054411Y013892D03*
X054011Y013892D03*
X054011Y014892D03*
X054411Y014892D03*
X054411Y015892D03*
X054011Y015892D03*
X054011Y016892D03*
X054411Y016892D03*
X054411Y017892D03*
X054011Y017892D03*
X054011Y018892D03*
X054411Y018892D03*
X054411Y019892D03*
X054011Y019892D03*
X054011Y020892D03*
X054411Y020892D03*
D21*
X065586Y015175D03*
X065586Y014605D03*
X062711Y036735D03*
X062711Y037305D03*
X054961Y037555D03*
X054961Y036985D03*
M02*
