G75*
G70*
%OFA0B0*%
%FSLAX24Y24*%
%IPPOS*%
%LPD*%
%AMOC8*
5,1,8,0,0,1.08239X$1,22.5*
%
%ADD10C,0.0051*%
%ADD11C,0.0110*%
%ADD12C,0.0160*%
%ADD13C,0.0050*%
%ADD14C,0.0060*%
%ADD15C,0.0070*%
%ADD16C,0.0320*%
%ADD17C,0.0120*%
%ADD18C,0.0240*%
%ADD19C,0.0040*%
%ADD20R,0.0240X0.0340*%
%ADD21R,0.0200X0.1000*%
%ADD22R,0.0200X0.0200*%
%ADD23C,0.0080*%
%ADD24C,0.0100*%
%ADD25R,0.0118X0.0827*%
%ADD26R,0.1000X0.0200*%
%ADD27C,0.0020*%
%ADD28C,0.0025*%
%ADD29C,0.0098*%
%ADD30C,0.0000*%
D10*
X014768Y005626D02*
X014768Y067725D01*
X014768Y066938D02*
X015792Y066836D01*
X015792Y066812D02*
X014768Y066938D01*
X015792Y067040D01*
X015792Y067064D02*
X015792Y066812D01*
X015792Y066887D02*
X014768Y066938D01*
X015792Y066989D01*
X015792Y067064D02*
X014768Y066938D01*
X081143Y066938D01*
X080120Y066836D01*
X080120Y066812D02*
X081143Y066938D01*
X080120Y067040D01*
X080120Y067064D02*
X080120Y066812D01*
X080120Y066887D02*
X081143Y066938D01*
X080120Y066989D01*
X080120Y067064D02*
X081143Y066938D01*
X081143Y067725D02*
X081143Y000126D01*
X077018Y047376D02*
X077018Y060538D01*
X077018Y059751D02*
X075995Y059648D01*
X075995Y059625D02*
X077018Y059751D01*
X075995Y059853D01*
X075995Y059876D02*
X075995Y059625D01*
X075995Y059699D02*
X077018Y059751D01*
X075995Y059802D01*
X075995Y059876D02*
X077018Y059751D01*
X074971Y059751D01*
X079768Y059751D02*
X080792Y059648D01*
X080792Y059625D02*
X079768Y059751D01*
X080792Y059853D01*
X080792Y059876D02*
X080792Y059625D01*
X080792Y059699D02*
X079768Y059751D01*
X080792Y059802D01*
X080792Y059876D02*
X079768Y059751D01*
X084630Y059751D01*
X086081Y056237D02*
X086081Y051376D01*
X086183Y052399D01*
X086207Y052399D02*
X086081Y051376D01*
X085979Y052399D01*
X085955Y052399D02*
X086207Y052399D01*
X086132Y052399D02*
X086081Y051376D01*
X086030Y052399D01*
X085955Y052399D02*
X086081Y051376D01*
X086868Y051376D02*
X080018Y051376D01*
X083393Y049876D02*
X086868Y049876D01*
X086081Y049876D02*
X086183Y048852D01*
X086207Y048852D02*
X086081Y049876D01*
X085979Y048852D01*
X085955Y048852D02*
X086207Y048852D01*
X086132Y048852D02*
X086081Y049876D01*
X086030Y048852D01*
X085955Y048852D02*
X086081Y049876D01*
X086081Y047828D01*
X092518Y048626D02*
X001544Y048626D01*
X002331Y048626D02*
X002433Y047602D01*
X002457Y047602D02*
X002331Y048626D01*
X002229Y047602D01*
X002205Y047602D02*
X002457Y047602D01*
X002382Y047602D02*
X002331Y048626D01*
X002280Y047602D01*
X002205Y047602D02*
X002331Y048626D01*
X002331Y046578D01*
X007580Y050352D02*
X007832Y050352D01*
X007706Y051376D01*
X007808Y050352D01*
X007757Y050352D02*
X007706Y051376D01*
X007604Y050352D01*
X007580Y050352D02*
X007706Y051376D01*
X007655Y050352D01*
X007706Y051376D02*
X007706Y011751D01*
X007808Y012774D01*
X007832Y012774D02*
X007706Y011751D01*
X007604Y012774D01*
X007580Y012774D02*
X007832Y012774D01*
X007757Y012774D02*
X007706Y011751D01*
X007655Y012774D01*
X007580Y012774D02*
X007706Y011751D01*
X006919Y011751D02*
X013518Y011751D01*
X017518Y047251D02*
X017518Y054163D01*
X017518Y053376D02*
X018542Y053273D01*
X018542Y053250D02*
X017518Y053376D01*
X018542Y053478D01*
X018542Y053501D02*
X018542Y053250D01*
X018542Y053324D02*
X017518Y053376D01*
X018542Y053427D01*
X018542Y053501D02*
X017518Y053376D01*
X022380Y053376D01*
X014768Y053376D02*
X013745Y053273D01*
X013745Y053250D02*
X014768Y053376D01*
X013745Y053478D01*
X013745Y053501D02*
X013745Y053250D01*
X013745Y053324D02*
X014768Y053376D01*
X013745Y053427D01*
X013745Y053501D02*
X014768Y053376D01*
X012721Y053376D01*
X014768Y052588D02*
X014768Y059376D01*
X014268Y051376D02*
X006919Y051376D01*
X006268Y051376D02*
X001544Y051376D01*
X002331Y051376D02*
X002433Y052399D01*
X002457Y052399D02*
X002331Y051376D01*
X002229Y052399D01*
X002205Y052399D02*
X002457Y052399D01*
X002382Y052399D02*
X002331Y051376D01*
X002280Y052399D01*
X002205Y052399D02*
X002331Y051376D01*
X002331Y056237D01*
X079768Y058963D02*
X079768Y068751D01*
D11*
X081693Y061468D02*
X081270Y061257D01*
X080847Y060834D01*
X081482Y060834D01*
X081693Y060622D01*
X081693Y060411D01*
X081482Y060199D01*
X081059Y060199D01*
X080847Y060411D01*
X080847Y060834D01*
X082116Y060411D02*
X082116Y060199D01*
X082327Y060199D01*
X082327Y060411D01*
X082116Y060411D01*
X082750Y060411D02*
X082962Y060199D01*
X083385Y060199D01*
X083596Y060411D01*
X083596Y061257D01*
X083385Y061468D01*
X082962Y061468D01*
X082750Y061257D01*
X082750Y061045D01*
X082962Y060834D01*
X083596Y060834D01*
X084019Y061045D02*
X084231Y060834D01*
X084865Y060834D01*
X084865Y060411D02*
X084865Y061257D01*
X084654Y061468D01*
X084231Y061468D01*
X084019Y061257D01*
X084019Y061045D01*
X084019Y060411D02*
X084231Y060199D01*
X084654Y060199D01*
X084865Y060411D01*
X085632Y056472D02*
X085632Y055626D01*
X085632Y056049D02*
X084363Y056049D01*
X084786Y055626D01*
X084786Y055203D02*
X084998Y054992D01*
X084998Y054569D01*
X084786Y054357D01*
X084575Y054357D01*
X084363Y054569D01*
X084363Y054992D01*
X084575Y055203D01*
X084786Y055203D01*
X084998Y054992D02*
X085209Y055203D01*
X085421Y055203D01*
X085632Y054992D01*
X085632Y054569D01*
X085421Y054357D01*
X085209Y054357D01*
X084998Y054569D01*
X085421Y053935D02*
X085632Y053935D01*
X085632Y053723D01*
X085421Y053723D01*
X085421Y053935D01*
X085421Y053300D02*
X085209Y053300D01*
X084998Y053089D01*
X084998Y052877D01*
X084998Y053089D02*
X084786Y053300D01*
X084575Y053300D01*
X084363Y053089D01*
X084363Y052666D01*
X084575Y052454D01*
X085421Y052454D02*
X085632Y052666D01*
X085632Y053089D01*
X085421Y053300D01*
X051551Y067598D02*
X051551Y068444D01*
X051340Y068656D01*
X050917Y068656D01*
X050705Y068444D01*
X050705Y068233D01*
X050917Y068021D01*
X051551Y068021D01*
X051551Y067598D02*
X051340Y067387D01*
X050917Y067387D01*
X050705Y067598D01*
X050283Y067598D02*
X050071Y067387D01*
X049648Y067387D01*
X049437Y067598D01*
X049014Y067598D02*
X049014Y067387D01*
X048802Y067387D01*
X048802Y067598D01*
X049014Y067598D01*
X049437Y068021D02*
X049860Y068233D01*
X050071Y068233D01*
X050283Y068021D01*
X050283Y067598D01*
X049437Y068021D02*
X049437Y068656D01*
X050283Y068656D01*
X048379Y068444D02*
X048379Y068233D01*
X048168Y068021D01*
X047745Y068021D01*
X047533Y068233D01*
X047533Y068444D01*
X047745Y068656D01*
X048168Y068656D01*
X048379Y068444D01*
X048168Y068021D02*
X048379Y067810D01*
X048379Y067598D01*
X048168Y067387D01*
X047745Y067387D01*
X047533Y067598D01*
X047533Y067810D01*
X047745Y068021D01*
X047111Y067810D02*
X046899Y068021D01*
X046265Y068021D01*
X046265Y067598D01*
X046476Y067387D01*
X046899Y067387D01*
X047111Y067598D01*
X047111Y067810D01*
X046688Y068444D02*
X046265Y068021D01*
X046688Y068444D02*
X047111Y068656D01*
X045419Y068656D02*
X045419Y067387D01*
X044996Y067387D02*
X045842Y067387D01*
X044996Y068233D02*
X045419Y068656D01*
X022615Y054882D02*
X022615Y054036D01*
X022404Y053824D01*
X021981Y053824D01*
X021769Y054036D01*
X021346Y054036D02*
X021346Y054882D01*
X021135Y055093D01*
X020712Y055093D01*
X020500Y054882D01*
X020500Y054670D01*
X020712Y054459D01*
X021346Y054459D01*
X021346Y054036D02*
X021135Y053824D01*
X020712Y053824D01*
X020500Y054036D01*
X020077Y054036D02*
X020077Y053824D01*
X019866Y053824D01*
X019866Y054036D01*
X020077Y054036D01*
X019443Y054036D02*
X019232Y053824D01*
X018809Y053824D01*
X018597Y054036D01*
X018597Y054459D01*
X019232Y054459D01*
X019443Y054247D01*
X019443Y054036D01*
X019020Y054882D02*
X018597Y054459D01*
X019020Y054882D02*
X019443Y055093D01*
X021769Y054882D02*
X021769Y054670D01*
X021981Y054459D01*
X022615Y054459D01*
X022615Y054882D02*
X022404Y055093D01*
X021981Y055093D01*
X021769Y054882D01*
X001882Y054992D02*
X001882Y054569D01*
X001671Y054357D01*
X001671Y053935D02*
X001882Y053935D01*
X001882Y053723D01*
X001671Y053723D01*
X001671Y053935D01*
X001671Y053300D02*
X001459Y053300D01*
X001248Y053089D01*
X001248Y052454D01*
X001671Y052454D01*
X001882Y052666D01*
X001882Y053089D01*
X001671Y053300D01*
X000825Y052877D02*
X001248Y052454D01*
X000825Y052877D02*
X000613Y053300D01*
X000825Y054357D02*
X001036Y054357D01*
X001248Y054569D01*
X001248Y055203D01*
X001671Y055203D02*
X000825Y055203D01*
X000613Y054992D01*
X000613Y054569D01*
X000825Y054357D01*
X001671Y055203D02*
X001882Y054992D01*
X001671Y055626D02*
X001882Y055838D01*
X001882Y056261D01*
X001671Y056472D01*
X000825Y056472D01*
X000613Y056261D01*
X000613Y055838D01*
X000825Y055626D01*
X001036Y055626D01*
X001248Y055838D01*
X001248Y056472D01*
X005988Y035159D02*
X005988Y034313D01*
X006623Y034313D01*
X006411Y034736D01*
X006411Y034947D01*
X006623Y035159D01*
X007046Y035159D01*
X007257Y034947D01*
X007257Y034524D01*
X007046Y034313D01*
X007046Y033890D02*
X006834Y033890D01*
X006623Y033678D01*
X006623Y033044D01*
X007046Y033044D01*
X007257Y033255D01*
X007257Y033678D01*
X007046Y033890D01*
X006200Y033467D02*
X006623Y033044D01*
X007046Y032621D02*
X007257Y032621D01*
X007257Y032409D01*
X007046Y032409D01*
X007046Y032621D01*
X007046Y031987D02*
X006200Y031987D01*
X007046Y031141D01*
X007257Y031352D01*
X007257Y031775D01*
X007046Y031987D01*
X006200Y031987D02*
X005988Y031775D01*
X005988Y031352D01*
X006200Y031141D01*
X007046Y031141D01*
X007046Y030718D02*
X007257Y030506D01*
X007257Y030083D01*
X007046Y029872D01*
X006200Y030718D01*
X007046Y030718D01*
X007046Y029872D02*
X006200Y029872D01*
X005988Y030083D01*
X005988Y030506D01*
X006200Y030718D01*
X007257Y029449D02*
X007257Y028603D01*
X007257Y029026D02*
X005988Y029026D01*
X006411Y028603D01*
X006200Y033467D02*
X005988Y033890D01*
D12*
X056268Y032876D02*
X056268Y031876D01*
D13*
X060578Y032241D02*
X060985Y032241D01*
X061186Y032241D02*
X061593Y032241D01*
X061389Y032241D02*
X061389Y032851D01*
X061186Y032648D01*
X060782Y032851D02*
X060782Y032241D01*
X060578Y032648D02*
X060782Y032851D01*
X062078Y033241D02*
X062485Y033241D01*
X062686Y033241D02*
X063093Y033648D01*
X063093Y033749D01*
X062991Y033851D01*
X062788Y033851D01*
X062686Y033749D01*
X062282Y033851D02*
X062282Y033241D01*
X062686Y033241D02*
X063093Y033241D01*
X063518Y033126D02*
X062518Y032126D01*
X049768Y032126D01*
X049714Y032128D01*
X049661Y032134D01*
X049609Y032143D01*
X049557Y032156D01*
X049506Y032173D01*
X049456Y032194D01*
X049409Y032218D01*
X049363Y032245D01*
X049319Y032276D01*
X049277Y032309D01*
X049238Y032346D01*
X049201Y032385D01*
X049168Y032427D01*
X049137Y032471D01*
X049110Y032517D01*
X049086Y032564D01*
X049065Y032614D01*
X049048Y032665D01*
X049035Y032717D01*
X049026Y032769D01*
X049020Y032822D01*
X049018Y032876D01*
X049018Y045876D01*
X049293Y045511D02*
X049293Y045206D01*
X049497Y045308D01*
X049599Y045308D01*
X049700Y045206D01*
X049700Y045002D01*
X049599Y044901D01*
X049395Y044901D01*
X049293Y045002D01*
X049293Y045511D02*
X049700Y045511D01*
X049901Y045206D02*
X050308Y045206D01*
X050206Y045511D02*
X049901Y045206D01*
X050206Y044901D02*
X050206Y045511D01*
X049768Y046626D02*
X049714Y046624D01*
X049661Y046618D01*
X049609Y046609D01*
X049557Y046596D01*
X049506Y046579D01*
X049456Y046558D01*
X049409Y046534D01*
X049363Y046507D01*
X049319Y046476D01*
X049277Y046443D01*
X049238Y046406D01*
X049201Y046367D01*
X049168Y046325D01*
X049137Y046281D01*
X049110Y046235D01*
X049086Y046188D01*
X049065Y046138D01*
X049048Y046087D01*
X049035Y046035D01*
X049026Y045983D01*
X049020Y045930D01*
X049018Y045876D01*
X049768Y046626D02*
X062768Y046626D01*
X062822Y046624D01*
X062875Y046618D01*
X062927Y046609D01*
X062979Y046596D01*
X063030Y046579D01*
X063080Y046558D01*
X063127Y046534D01*
X063173Y046507D01*
X063217Y046476D01*
X063259Y046443D01*
X063298Y046406D01*
X063335Y046367D01*
X063368Y046325D01*
X063399Y046281D01*
X063426Y046235D01*
X063450Y046188D01*
X063471Y046138D01*
X063488Y046087D01*
X063501Y046035D01*
X063510Y045983D01*
X063516Y045930D01*
X063518Y045876D01*
X063518Y033126D01*
X064168Y033765D02*
X064018Y033915D01*
X064468Y033915D01*
X064468Y033765D02*
X064468Y034065D01*
X065043Y034676D02*
X065344Y035126D01*
X065504Y035126D02*
X065504Y034901D01*
X065654Y034976D01*
X065729Y034976D01*
X065804Y034901D01*
X065804Y034751D01*
X065729Y034676D01*
X065579Y034676D01*
X065504Y034751D01*
X065344Y034676D02*
X065043Y035126D01*
X065504Y035126D02*
X065804Y035126D01*
X066568Y035202D02*
X066568Y035698D01*
X066568Y035803D01*
X066568Y036698D01*
X066568Y036803D01*
X066568Y037299D01*
X067168Y037075D02*
X067168Y035426D01*
X067168Y035425D02*
X067120Y035390D01*
X067070Y035357D01*
X067019Y035327D01*
X066965Y035300D01*
X068343Y033990D02*
X068343Y033690D01*
X068343Y033840D02*
X067893Y033840D01*
X068043Y033690D01*
X070693Y033115D02*
X070768Y032965D01*
X070918Y032815D01*
X070918Y033040D01*
X070993Y033115D01*
X071068Y033115D01*
X071143Y033040D01*
X071143Y032890D01*
X071068Y032815D01*
X070918Y032815D01*
X070693Y032655D02*
X071143Y032355D01*
X071143Y032655D02*
X070693Y032355D01*
X070168Y031140D02*
X070093Y031140D01*
X070018Y031065D01*
X070018Y030840D01*
X070168Y030840D01*
X070243Y030915D01*
X070243Y031065D01*
X070168Y031140D01*
X069868Y030990D02*
X070018Y030840D01*
X069868Y030990D02*
X069793Y031140D01*
X069114Y030051D02*
X069114Y029601D01*
X068964Y029601D02*
X069265Y029601D01*
X068964Y029901D02*
X069114Y030051D01*
X068804Y030051D02*
X068504Y030051D01*
X068654Y030051D02*
X068654Y029601D01*
X068344Y029751D02*
X068344Y030051D01*
X068344Y029751D02*
X068194Y029601D01*
X068043Y029751D01*
X068043Y030051D01*
X067268Y029990D02*
X067268Y029840D01*
X067193Y029765D01*
X066893Y030065D01*
X067193Y030065D01*
X067268Y029990D01*
X067193Y029765D02*
X066893Y029765D01*
X066818Y029840D01*
X066818Y029990D01*
X066893Y030065D01*
X067268Y029605D02*
X067268Y029305D01*
X067268Y029455D02*
X066818Y029455D01*
X066968Y029305D01*
X067293Y028026D02*
X067594Y028026D01*
X067594Y027951D01*
X067293Y027651D01*
X067293Y027576D01*
X067594Y027576D01*
X067754Y027576D02*
X068054Y027876D01*
X068054Y027951D01*
X067979Y028026D01*
X067829Y028026D01*
X067754Y027951D01*
X067754Y027576D02*
X068054Y027576D01*
X070287Y025101D02*
X070212Y025026D01*
X070212Y024726D01*
X070287Y024651D01*
X070437Y024651D01*
X070513Y024726D01*
X070673Y024726D02*
X070748Y024651D01*
X070898Y024651D01*
X070973Y024726D01*
X070973Y024801D01*
X070898Y024876D01*
X070673Y024876D01*
X070673Y024726D01*
X070673Y024876D02*
X070823Y025026D01*
X070973Y025101D01*
X071133Y025101D02*
X071358Y025101D01*
X071433Y025026D01*
X071433Y024876D01*
X071358Y024801D01*
X071133Y024801D01*
X071133Y024651D02*
X071133Y025101D01*
X070513Y025026D02*
X070437Y025101D01*
X070287Y025101D01*
X072687Y023451D02*
X072838Y023451D01*
X072762Y023451D02*
X072762Y023076D01*
X072687Y023001D01*
X072612Y023001D01*
X072537Y023076D01*
X072998Y023151D02*
X073223Y023151D01*
X073298Y023226D01*
X073298Y023376D01*
X073223Y023451D01*
X072998Y023451D01*
X072998Y023001D01*
X073458Y023001D02*
X073758Y023001D01*
X073608Y023001D02*
X073608Y023451D01*
X073458Y023301D01*
X071993Y019701D02*
X071993Y019401D01*
X071993Y019551D02*
X071543Y019551D01*
X071693Y019401D01*
X068300Y016526D02*
X068225Y016601D01*
X068075Y016601D01*
X068000Y016526D01*
X067840Y016526D02*
X067840Y016376D01*
X067764Y016301D01*
X067539Y016301D01*
X067539Y016151D02*
X067539Y016601D01*
X067764Y016601D01*
X067840Y016526D01*
X068000Y016151D02*
X068300Y016451D01*
X068300Y016526D01*
X068300Y016151D02*
X068000Y016151D01*
X067379Y016226D02*
X067304Y016151D01*
X067154Y016151D01*
X067079Y016226D01*
X067079Y016301D01*
X067154Y016376D01*
X067304Y016376D01*
X067379Y016301D01*
X067379Y016226D01*
X067304Y016376D02*
X067379Y016451D01*
X067379Y016526D01*
X067304Y016601D01*
X067154Y016601D01*
X067079Y016526D01*
X067079Y016451D01*
X067154Y016376D01*
X066919Y016526D02*
X066844Y016601D01*
X066694Y016601D01*
X066618Y016526D01*
X066618Y016226D01*
X066694Y016151D01*
X066844Y016151D01*
X066919Y016226D01*
X065300Y016151D02*
X065000Y016151D01*
X065150Y016151D02*
X065150Y016601D01*
X065000Y016451D01*
X064840Y016526D02*
X064840Y016376D01*
X064764Y016301D01*
X064539Y016301D01*
X064539Y016151D02*
X064539Y016601D01*
X064764Y016601D01*
X064840Y016526D01*
X064379Y016526D02*
X064379Y016451D01*
X064304Y016376D01*
X064154Y016376D01*
X064079Y016451D01*
X064079Y016526D01*
X064154Y016601D01*
X064304Y016601D01*
X064379Y016526D01*
X064304Y016376D02*
X064379Y016301D01*
X064379Y016226D01*
X064304Y016151D01*
X064154Y016151D01*
X064079Y016226D01*
X064079Y016301D01*
X064154Y016376D01*
X063919Y016526D02*
X063844Y016601D01*
X063694Y016601D01*
X063618Y016526D01*
X063618Y016226D01*
X063694Y016151D01*
X063844Y016151D01*
X063919Y016226D01*
X061965Y016376D02*
X061889Y016301D01*
X061664Y016301D01*
X061664Y016151D02*
X061664Y016601D01*
X061889Y016601D01*
X061965Y016526D01*
X061965Y016376D01*
X061504Y016451D02*
X061429Y016376D01*
X061279Y016376D01*
X061204Y016451D01*
X061204Y016526D01*
X061279Y016601D01*
X061429Y016601D01*
X061504Y016526D01*
X061504Y016451D01*
X061429Y016376D02*
X061504Y016301D01*
X061504Y016226D01*
X061429Y016151D01*
X061279Y016151D01*
X061204Y016226D01*
X061204Y016301D01*
X061279Y016376D01*
X061044Y016526D02*
X060969Y016601D01*
X060819Y016601D01*
X060743Y016526D01*
X060743Y016226D01*
X060819Y016151D01*
X060969Y016151D01*
X061044Y016226D01*
X059840Y016226D02*
X059840Y016151D01*
X059689Y016001D01*
X059689Y015776D01*
X059689Y016001D02*
X059539Y016151D01*
X059539Y016226D01*
X059379Y016151D02*
X059304Y016226D01*
X059154Y016226D01*
X059079Y016151D01*
X058919Y016151D02*
X058844Y016226D01*
X058694Y016226D01*
X058618Y016151D01*
X058618Y015851D01*
X058694Y015776D01*
X058844Y015776D01*
X058919Y015851D01*
X059079Y015776D02*
X059379Y016076D01*
X059379Y016151D01*
X059379Y015776D02*
X059079Y015776D01*
X056340Y014901D02*
X056340Y014751D01*
X056264Y014676D01*
X056039Y014676D01*
X056039Y014526D02*
X056039Y014976D01*
X056264Y014976D01*
X056340Y014901D01*
X055879Y014901D02*
X055804Y014976D01*
X055654Y014976D01*
X055579Y014901D01*
X055579Y014826D01*
X055654Y014751D01*
X055879Y014751D01*
X055879Y014601D02*
X055879Y014901D01*
X055879Y014601D02*
X055804Y014526D01*
X055654Y014526D01*
X055579Y014601D01*
X055419Y014601D02*
X055344Y014526D01*
X055194Y014526D01*
X055118Y014601D01*
X055118Y014901D01*
X055194Y014976D01*
X055344Y014976D01*
X055419Y014901D01*
X051253Y011469D02*
X051253Y006942D01*
X049284Y006942D01*
X049284Y011469D01*
X051253Y011469D01*
X056768Y010751D02*
X056844Y010826D01*
X056994Y010826D01*
X057069Y010751D01*
X057069Y010676D01*
X056768Y010376D01*
X057069Y010376D01*
X057229Y010376D02*
X057529Y010376D01*
X057379Y010376D02*
X057379Y010826D01*
X057229Y010676D01*
X071243Y015476D02*
X071319Y015401D01*
X071469Y015401D01*
X071544Y015476D01*
X071704Y015401D02*
X072004Y015401D01*
X071854Y015401D02*
X071854Y015851D01*
X071704Y015701D01*
X071544Y015776D02*
X071469Y015851D01*
X071319Y015851D01*
X071243Y015776D01*
X071243Y015476D01*
X072164Y015776D02*
X072314Y015626D01*
X072314Y015401D01*
X072314Y015626D02*
X072465Y015776D01*
X072465Y015851D01*
X072164Y015851D02*
X072164Y015776D01*
X074668Y013951D02*
X074819Y014101D01*
X074819Y013651D01*
X074969Y013651D02*
X074668Y013651D01*
X076043Y014626D02*
X076119Y014551D01*
X076194Y014551D01*
X076269Y014626D01*
X076269Y015001D01*
X076194Y015001D02*
X076344Y015001D01*
X076504Y015001D02*
X076729Y015001D01*
X076804Y014926D01*
X076804Y014776D01*
X076729Y014701D01*
X076504Y014701D01*
X076504Y014551D02*
X076504Y015001D01*
X076964Y014926D02*
X077039Y015001D01*
X077189Y015001D01*
X077265Y014926D01*
X077265Y014851D01*
X076964Y014551D01*
X077265Y014551D01*
X073169Y010826D02*
X073169Y010376D01*
X073319Y010376D02*
X073018Y010376D01*
X073018Y010676D02*
X073169Y010826D01*
X055218Y024701D02*
X055218Y024926D01*
X055143Y025001D01*
X054843Y025001D01*
X054768Y024926D01*
X054768Y024701D01*
X055218Y024701D01*
X055218Y025161D02*
X055218Y025386D01*
X055143Y025461D01*
X054843Y025461D01*
X054768Y025386D01*
X054768Y025161D01*
X055218Y025161D01*
X055218Y025621D02*
X055218Y025922D01*
X055218Y025772D02*
X054768Y025772D01*
X054918Y025621D01*
X054843Y026082D02*
X054768Y026157D01*
X054768Y026307D01*
X054843Y026382D01*
X054918Y026382D01*
X055218Y026082D01*
X055218Y026382D01*
X051491Y032241D02*
X051288Y032241D01*
X051186Y032342D01*
X051186Y032546D02*
X051389Y032648D01*
X051491Y032648D01*
X051593Y032546D01*
X051593Y032342D01*
X051491Y032241D01*
X051186Y032546D02*
X051186Y032851D01*
X051593Y032851D01*
X050985Y032851D02*
X050985Y032749D01*
X050578Y032342D01*
X050578Y032241D01*
X050578Y032851D02*
X050985Y032851D01*
X050206Y033151D02*
X050206Y033761D01*
X049901Y033456D01*
X050308Y033456D01*
X049700Y033659D02*
X049293Y033252D01*
X049293Y033151D01*
X049293Y033761D02*
X049700Y033761D01*
X049700Y033659D01*
X062078Y033648D02*
X062282Y033851D01*
X066568Y035202D02*
X066627Y035207D01*
X066685Y035214D01*
X066743Y035225D01*
X066800Y035240D01*
X066856Y035257D01*
X066911Y035277D01*
X066965Y035301D01*
X066568Y035202D02*
X066504Y035201D01*
X066440Y035204D01*
X066376Y035211D01*
X066313Y035221D01*
X066251Y035236D01*
X066190Y035254D01*
X066129Y035276D01*
X066071Y035301D01*
X066568Y037300D02*
X066627Y037295D01*
X066685Y037288D01*
X066743Y037277D01*
X066800Y037262D01*
X066856Y037245D01*
X066911Y037225D01*
X066965Y037201D01*
X066956Y037205D02*
X067012Y037178D01*
X067066Y037147D01*
X067118Y037113D01*
X067168Y037076D01*
X066568Y037300D02*
X066504Y037301D01*
X066440Y037298D01*
X066376Y037291D01*
X066313Y037281D01*
X066251Y037266D01*
X066190Y037248D01*
X066129Y037226D01*
X066071Y037201D01*
X066014Y037172D01*
X065958Y037139D01*
X065905Y037104D01*
X065854Y037064D01*
X065806Y037022D01*
X065760Y036977D01*
X065717Y036930D01*
X065677Y036880D01*
X065640Y036827D01*
X065607Y036772D01*
X065576Y036716D01*
X065550Y036657D01*
X065527Y036597D01*
X065507Y036536D01*
X065492Y036474D01*
X065480Y036411D01*
X065472Y036347D01*
X065468Y036283D01*
X065468Y036219D01*
X065472Y036155D01*
X065480Y036091D01*
X065492Y036028D01*
X065507Y035966D01*
X065527Y035905D01*
X065550Y035845D01*
X065576Y035786D01*
X065607Y035730D01*
X065640Y035675D01*
X065677Y035622D01*
X065717Y035572D01*
X065760Y035525D01*
X065806Y035480D01*
X065854Y035438D01*
X065905Y035398D01*
X065958Y035363D01*
X066014Y035330D01*
X066071Y035301D01*
X064268Y036951D02*
X063818Y036951D01*
X063818Y037176D01*
X063893Y037251D01*
X064043Y037251D01*
X064118Y037176D01*
X064118Y036951D01*
X064118Y037101D02*
X064268Y037251D01*
X064268Y037411D02*
X063968Y037711D01*
X063893Y037711D01*
X063818Y037636D01*
X063818Y037486D01*
X063893Y037411D01*
X064268Y037411D02*
X064268Y037711D01*
X064043Y037871D02*
X064043Y038172D01*
X063818Y038097D02*
X064043Y037871D01*
X064268Y038097D02*
X063818Y038097D01*
X066293Y038376D02*
X066293Y040376D01*
X065593Y041276D01*
X065593Y044776D01*
X066093Y044776D01*
X066093Y052576D01*
X075393Y052576D01*
X075393Y044776D01*
X066093Y044776D01*
X064518Y043036D02*
X064443Y043036D01*
X064143Y043336D01*
X064068Y043336D01*
X064068Y043036D01*
X064143Y042876D02*
X064293Y042876D01*
X064368Y042801D01*
X064368Y042576D01*
X064368Y042726D02*
X064518Y042876D01*
X064518Y042576D02*
X064068Y042576D01*
X064068Y042801D01*
X064143Y042876D01*
X063093Y044741D02*
X062686Y044741D01*
X063093Y045148D01*
X063093Y045249D01*
X062991Y045351D01*
X062788Y045351D01*
X062686Y045249D01*
X062485Y045249D02*
X062485Y045148D01*
X062383Y045046D01*
X062485Y044944D01*
X062485Y044842D01*
X062383Y044741D01*
X062180Y044741D01*
X062078Y044842D01*
X062282Y045046D02*
X062383Y045046D01*
X062485Y045249D02*
X062383Y045351D01*
X062180Y045351D01*
X062078Y045249D01*
X061491Y045866D02*
X061288Y045866D01*
X061186Y045967D01*
X060985Y045967D02*
X060883Y045866D01*
X060680Y045866D01*
X060578Y045967D01*
X060782Y046171D02*
X060883Y046171D01*
X060985Y046069D01*
X060985Y045967D01*
X060883Y046171D02*
X060985Y046273D01*
X060985Y046374D01*
X060883Y046476D01*
X060680Y046476D01*
X060578Y046374D01*
X061186Y046374D02*
X061288Y046476D01*
X061491Y046476D01*
X061593Y046374D01*
X061593Y046273D01*
X061491Y046171D01*
X061593Y046069D01*
X061593Y045967D01*
X061491Y045866D01*
X061491Y046171D02*
X061389Y046171D01*
X066293Y038376D02*
X075893Y038376D01*
X075893Y044776D01*
X075393Y044776D01*
X075393Y047976D02*
X075393Y048176D01*
X072429Y036226D02*
X072279Y036226D01*
X072204Y036151D01*
X072204Y036076D01*
X072279Y036001D01*
X072504Y036001D01*
X072504Y035851D02*
X072504Y036151D01*
X072429Y036226D01*
X072504Y035851D02*
X072429Y035776D01*
X072279Y035776D01*
X072204Y035851D01*
X072044Y035851D02*
X071969Y035776D01*
X071819Y035776D01*
X071743Y035851D01*
X071743Y036151D01*
X071819Y036226D01*
X071969Y036226D01*
X072044Y036151D01*
X074293Y035526D02*
X074594Y035526D01*
X074594Y035451D01*
X074293Y035151D01*
X074293Y035076D01*
X074594Y035076D01*
X074754Y035076D02*
X075054Y035076D01*
X074904Y035076D02*
X074904Y035526D01*
X074754Y035376D01*
X079018Y031315D02*
X079018Y031015D01*
X079018Y031165D02*
X078568Y031165D01*
X078718Y031015D01*
X079018Y030855D02*
X079018Y030555D01*
X079018Y030705D02*
X078568Y030705D01*
X078718Y030555D01*
X078643Y030395D02*
X078568Y030320D01*
X078568Y030094D01*
X079018Y030094D01*
X079018Y030320D01*
X078943Y030395D01*
X078643Y030395D01*
X078643Y029934D02*
X078568Y029859D01*
X078568Y029634D01*
X079018Y029634D01*
X079018Y029859D01*
X078943Y029934D01*
X078643Y029934D01*
X051593Y045967D02*
X051491Y045866D01*
X051288Y045866D01*
X051186Y045967D01*
X050985Y045967D02*
X050883Y045866D01*
X050680Y045866D01*
X050578Y045967D01*
X050578Y046171D02*
X050782Y046273D01*
X050883Y046273D01*
X050985Y046171D01*
X050985Y045967D01*
X051389Y046171D02*
X051491Y046171D01*
X051593Y046069D01*
X051593Y045967D01*
X051491Y046171D02*
X051593Y046273D01*
X051593Y046374D01*
X051491Y046476D01*
X051288Y046476D01*
X051186Y046374D01*
X050985Y046476D02*
X050578Y046476D01*
X050578Y046171D01*
X035331Y021672D02*
X035331Y021371D01*
X035331Y021522D02*
X034881Y021522D01*
X035031Y021371D01*
X035031Y021211D02*
X034956Y021211D01*
X034881Y021136D01*
X034881Y020986D01*
X034956Y020911D01*
X034956Y020751D02*
X035106Y020751D01*
X035181Y020676D01*
X035181Y020451D01*
X035181Y020601D02*
X035331Y020751D01*
X035331Y020911D02*
X035031Y021211D01*
X035331Y021211D02*
X035331Y020911D01*
X034956Y020751D02*
X034881Y020676D01*
X034881Y020451D01*
X035331Y020451D01*
D14*
X035431Y020501D02*
X034731Y020501D01*
X034714Y020503D01*
X034697Y020507D01*
X034681Y020514D01*
X034667Y020524D01*
X034654Y020537D01*
X034644Y020551D01*
X034637Y020567D01*
X034633Y020584D01*
X034631Y020601D01*
X034631Y020751D01*
X034681Y020801D01*
X034681Y022701D01*
X034631Y022751D01*
X034631Y022901D01*
X034633Y022918D01*
X034637Y022935D01*
X034644Y022951D01*
X034654Y022965D01*
X034667Y022978D01*
X034681Y022988D01*
X034697Y022995D01*
X034714Y022999D01*
X034731Y023001D01*
X035431Y023001D01*
X035448Y022999D01*
X035465Y022995D01*
X035481Y022988D01*
X035495Y022978D01*
X035508Y022965D01*
X035518Y022951D01*
X035525Y022935D01*
X035529Y022918D01*
X035531Y022901D01*
X035531Y022751D01*
X035481Y022701D01*
X035481Y020801D01*
X035531Y020751D01*
X035531Y020601D01*
X035529Y020584D01*
X035525Y020567D01*
X035518Y020551D01*
X035508Y020537D01*
X035495Y020524D01*
X035481Y020514D01*
X035465Y020507D01*
X035448Y020503D01*
X035431Y020501D01*
X027043Y024251D02*
X021743Y024251D01*
X021743Y008251D01*
X023993Y008251D01*
X023995Y008290D01*
X024001Y008329D01*
X024010Y008367D01*
X024023Y008404D01*
X024040Y008440D01*
X024060Y008473D01*
X024084Y008505D01*
X024110Y008534D01*
X024139Y008560D01*
X024171Y008584D01*
X024204Y008604D01*
X024240Y008621D01*
X024277Y008634D01*
X024315Y008643D01*
X024354Y008649D01*
X024393Y008651D01*
X024432Y008649D01*
X024471Y008643D01*
X024509Y008634D01*
X024546Y008621D01*
X024582Y008604D01*
X024615Y008584D01*
X024647Y008560D01*
X024676Y008534D01*
X024702Y008505D01*
X024726Y008473D01*
X024746Y008440D01*
X024763Y008404D01*
X024776Y008367D01*
X024785Y008329D01*
X024791Y008290D01*
X024793Y008251D01*
X027043Y008251D01*
X027043Y024251D01*
X031618Y028251D02*
X036918Y028251D01*
X036918Y008251D01*
X034718Y008251D01*
X034716Y008290D01*
X034710Y008329D01*
X034701Y008367D01*
X034688Y008404D01*
X034671Y008440D01*
X034651Y008473D01*
X034627Y008505D01*
X034601Y008534D01*
X034572Y008560D01*
X034540Y008584D01*
X034507Y008604D01*
X034471Y008621D01*
X034434Y008634D01*
X034396Y008643D01*
X034357Y008649D01*
X034318Y008651D01*
X034279Y008649D01*
X034240Y008643D01*
X034202Y008634D01*
X034165Y008621D01*
X034129Y008604D01*
X034096Y008584D01*
X034064Y008560D01*
X034035Y008534D01*
X034009Y008505D01*
X033985Y008473D01*
X033965Y008440D01*
X033948Y008404D01*
X033935Y008367D01*
X033926Y008329D01*
X033920Y008290D01*
X033918Y008251D01*
X031618Y008251D01*
X031618Y028251D01*
X029647Y029415D02*
X029647Y031715D01*
X019647Y031715D01*
X019647Y030965D01*
X019686Y030963D01*
X019725Y030957D01*
X019763Y030948D01*
X019800Y030935D01*
X019836Y030918D01*
X019869Y030898D01*
X019901Y030874D01*
X019930Y030848D01*
X019956Y030819D01*
X019980Y030787D01*
X020000Y030754D01*
X020017Y030718D01*
X020030Y030681D01*
X020039Y030643D01*
X020045Y030604D01*
X020047Y030565D01*
X020045Y030526D01*
X020039Y030487D01*
X020030Y030449D01*
X020017Y030412D01*
X020000Y030376D01*
X019980Y030343D01*
X019956Y030311D01*
X019930Y030282D01*
X019901Y030256D01*
X019869Y030232D01*
X019836Y030212D01*
X019800Y030195D01*
X019763Y030182D01*
X019725Y030173D01*
X019686Y030167D01*
X019647Y030165D01*
X019647Y029415D01*
X029647Y029415D01*
X027043Y034376D02*
X021743Y034376D01*
X021743Y050376D01*
X023993Y050376D01*
X023995Y050337D01*
X024001Y050298D01*
X024010Y050260D01*
X024023Y050223D01*
X024040Y050187D01*
X024060Y050154D01*
X024084Y050122D01*
X024110Y050093D01*
X024139Y050067D01*
X024171Y050043D01*
X024204Y050023D01*
X024240Y050006D01*
X024277Y049993D01*
X024315Y049984D01*
X024354Y049978D01*
X024393Y049976D01*
X024432Y049978D01*
X024471Y049984D01*
X024509Y049993D01*
X024546Y050006D01*
X024582Y050023D01*
X024615Y050043D01*
X024647Y050067D01*
X024676Y050093D01*
X024702Y050122D01*
X024726Y050154D01*
X024746Y050187D01*
X024763Y050223D01*
X024776Y050260D01*
X024785Y050298D01*
X024791Y050337D01*
X024793Y050376D01*
X027043Y050376D01*
X027043Y034376D01*
X030916Y040371D02*
X033216Y040371D01*
X033216Y050371D01*
X032466Y050371D01*
X032464Y050332D01*
X032458Y050293D01*
X032449Y050255D01*
X032436Y050218D01*
X032419Y050182D01*
X032399Y050149D01*
X032375Y050117D01*
X032349Y050088D01*
X032320Y050062D01*
X032288Y050038D01*
X032255Y050018D01*
X032219Y050001D01*
X032182Y049988D01*
X032144Y049979D01*
X032105Y049973D01*
X032066Y049971D01*
X032027Y049973D01*
X031988Y049979D01*
X031950Y049988D01*
X031913Y050001D01*
X031877Y050018D01*
X031844Y050038D01*
X031812Y050062D01*
X031783Y050088D01*
X031757Y050117D01*
X031733Y050149D01*
X031713Y050182D01*
X031696Y050218D01*
X031683Y050255D01*
X031674Y050293D01*
X031668Y050332D01*
X031666Y050371D01*
X030916Y050371D01*
X030916Y040371D01*
X036615Y040372D02*
X038915Y040372D01*
X038915Y050372D01*
X038165Y050372D01*
X038163Y050333D01*
X038157Y050294D01*
X038148Y050256D01*
X038135Y050219D01*
X038118Y050183D01*
X038098Y050150D01*
X038074Y050118D01*
X038048Y050089D01*
X038019Y050063D01*
X037987Y050039D01*
X037954Y050019D01*
X037918Y050002D01*
X037881Y049989D01*
X037843Y049980D01*
X037804Y049974D01*
X037765Y049972D01*
X037726Y049974D01*
X037687Y049980D01*
X037649Y049989D01*
X037612Y050002D01*
X037576Y050019D01*
X037543Y050039D01*
X037511Y050063D01*
X037482Y050089D01*
X037456Y050118D01*
X037432Y050150D01*
X037412Y050183D01*
X037395Y050219D01*
X037382Y050256D01*
X037373Y050294D01*
X037367Y050333D01*
X037365Y050372D01*
X036615Y050372D01*
X036615Y040372D01*
X041418Y035426D02*
X041418Y049326D01*
X043518Y049326D01*
X043520Y049282D01*
X043526Y049239D01*
X043535Y049197D01*
X043548Y049155D01*
X043565Y049115D01*
X043585Y049076D01*
X043608Y049039D01*
X043635Y049005D01*
X043664Y048972D01*
X043697Y048943D01*
X043731Y048916D01*
X043768Y048893D01*
X043807Y048873D01*
X043847Y048856D01*
X043889Y048843D01*
X043931Y048834D01*
X043974Y048828D01*
X044018Y048826D01*
X044062Y048828D01*
X044105Y048834D01*
X044147Y048843D01*
X044189Y048856D01*
X044229Y048873D01*
X044268Y048893D01*
X044305Y048916D01*
X044339Y048943D01*
X044372Y048972D01*
X044401Y049005D01*
X044428Y049039D01*
X044451Y049076D01*
X044471Y049115D01*
X044488Y049155D01*
X044501Y049197D01*
X044510Y049239D01*
X044516Y049282D01*
X044518Y049326D01*
X046618Y049326D01*
X046618Y035426D01*
X041418Y035426D01*
X042043Y028651D02*
X042043Y007851D01*
X047243Y007851D01*
X047243Y028651D01*
X045143Y028651D01*
X045141Y028607D01*
X045135Y028564D01*
X045126Y028522D01*
X045113Y028480D01*
X045096Y028440D01*
X045076Y028401D01*
X045053Y028364D01*
X045026Y028330D01*
X044997Y028297D01*
X044964Y028268D01*
X044930Y028241D01*
X044893Y028218D01*
X044854Y028198D01*
X044814Y028181D01*
X044772Y028168D01*
X044730Y028159D01*
X044687Y028153D01*
X044643Y028151D01*
X044599Y028153D01*
X044556Y028159D01*
X044514Y028168D01*
X044472Y028181D01*
X044432Y028198D01*
X044393Y028218D01*
X044356Y028241D01*
X044322Y028268D01*
X044289Y028297D01*
X044260Y028330D01*
X044233Y028364D01*
X044210Y028401D01*
X044190Y028440D01*
X044173Y028480D01*
X044160Y028522D01*
X044151Y028564D01*
X044145Y028607D01*
X044143Y028651D01*
X042043Y028651D01*
X050948Y026121D02*
X050948Y025481D01*
X051269Y025481D01*
X051376Y025587D01*
X051376Y026014D01*
X051269Y026121D01*
X050948Y026121D01*
X051593Y026121D02*
X051593Y025481D01*
X051913Y025481D01*
X052020Y025587D01*
X052020Y026014D01*
X051913Y026121D01*
X051593Y026121D01*
X052238Y026014D02*
X052238Y025908D01*
X052344Y025801D01*
X052665Y025801D01*
X052665Y026014D02*
X052558Y026121D01*
X052344Y026121D01*
X052238Y026014D01*
X052665Y026014D02*
X052665Y025587D01*
X052558Y025481D01*
X052344Y025481D01*
X052238Y025587D01*
X050893Y022901D02*
X050893Y020601D01*
X050932Y020599D01*
X050971Y020593D01*
X051009Y020584D01*
X051046Y020571D01*
X051082Y020554D01*
X051115Y020534D01*
X051147Y020510D01*
X051176Y020484D01*
X051202Y020455D01*
X051226Y020423D01*
X051246Y020390D01*
X051263Y020354D01*
X051276Y020317D01*
X051285Y020279D01*
X051291Y020240D01*
X051293Y020201D01*
X051291Y020162D01*
X051285Y020123D01*
X051276Y020085D01*
X051263Y020048D01*
X051246Y020012D01*
X051226Y019979D01*
X051202Y019947D01*
X051176Y019918D01*
X051147Y019892D01*
X051115Y019868D01*
X051082Y019848D01*
X051046Y019831D01*
X051009Y019818D01*
X050971Y019809D01*
X050932Y019803D01*
X050893Y019801D01*
X050893Y017601D01*
X070893Y017601D01*
X070893Y022901D01*
X050893Y022901D01*
X055393Y024726D02*
X055393Y025476D01*
X055432Y025478D01*
X055471Y025484D01*
X055509Y025493D01*
X055546Y025506D01*
X055582Y025523D01*
X055615Y025543D01*
X055647Y025567D01*
X055676Y025593D01*
X055702Y025622D01*
X055726Y025654D01*
X055746Y025687D01*
X055763Y025723D01*
X055776Y025760D01*
X055785Y025798D01*
X055791Y025837D01*
X055793Y025876D01*
X055791Y025915D01*
X055785Y025954D01*
X055776Y025992D01*
X055763Y026029D01*
X055746Y026065D01*
X055726Y026098D01*
X055702Y026130D01*
X055676Y026159D01*
X055647Y026185D01*
X055615Y026209D01*
X055582Y026229D01*
X055546Y026246D01*
X055509Y026259D01*
X055471Y026268D01*
X055432Y026274D01*
X055393Y026276D01*
X055393Y027026D01*
X062393Y027026D01*
X062393Y024726D01*
X055393Y024726D01*
X063618Y024751D02*
X063618Y028251D01*
X063620Y028281D01*
X063625Y028311D01*
X063634Y028340D01*
X063647Y028367D01*
X063662Y028393D01*
X063681Y028417D01*
X063702Y028438D01*
X063726Y028457D01*
X063752Y028472D01*
X063779Y028485D01*
X063808Y028494D01*
X063838Y028499D01*
X063868Y028501D01*
X068768Y028501D01*
X066643Y029751D02*
X066393Y029501D01*
X064893Y029501D01*
X064643Y029751D01*
X064643Y030251D01*
X064893Y030501D01*
X064643Y030751D01*
X064643Y031251D01*
X064893Y031501D01*
X064643Y031751D01*
X064643Y032251D01*
X064893Y032501D01*
X064643Y032751D01*
X064643Y033251D01*
X064893Y033501D01*
X064643Y033751D01*
X064643Y034251D01*
X064893Y034501D01*
X066393Y034501D01*
X066643Y034251D01*
X066643Y033751D01*
X066393Y033501D01*
X066643Y033251D01*
X066643Y032751D01*
X066393Y032501D01*
X066643Y032251D01*
X066643Y031751D01*
X066393Y031501D01*
X066643Y031251D01*
X066643Y030751D01*
X066393Y030501D01*
X066643Y030251D01*
X066643Y029751D01*
X068518Y031626D02*
X068518Y032126D01*
X068768Y032376D01*
X068518Y032626D01*
X068518Y033126D01*
X068768Y033376D01*
X068518Y033626D01*
X068518Y034126D01*
X068768Y034376D01*
X070268Y034376D01*
X070518Y034126D01*
X070518Y033626D01*
X070268Y033376D01*
X070518Y033126D01*
X070518Y032626D01*
X070268Y032376D01*
X070518Y032126D01*
X070518Y031626D01*
X070268Y031376D01*
X068768Y031376D01*
X068518Y031626D01*
X071393Y031401D02*
X071393Y029101D01*
X078393Y029101D01*
X078393Y029851D01*
X078354Y029853D01*
X078315Y029859D01*
X078277Y029868D01*
X078240Y029881D01*
X078204Y029898D01*
X078171Y029918D01*
X078139Y029942D01*
X078110Y029968D01*
X078084Y029997D01*
X078060Y030029D01*
X078040Y030062D01*
X078023Y030098D01*
X078010Y030135D01*
X078001Y030173D01*
X077995Y030212D01*
X077993Y030251D01*
X077995Y030290D01*
X078001Y030329D01*
X078010Y030367D01*
X078023Y030404D01*
X078040Y030440D01*
X078060Y030473D01*
X078084Y030505D01*
X078110Y030534D01*
X078139Y030560D01*
X078171Y030584D01*
X078204Y030604D01*
X078240Y030621D01*
X078277Y030634D01*
X078315Y030643D01*
X078354Y030649D01*
X078393Y030651D01*
X078393Y031401D01*
X071393Y031401D01*
X071993Y032751D02*
X076893Y032751D01*
X072893Y034001D02*
X072893Y034381D01*
X072893Y035121D02*
X072893Y035501D01*
X071743Y036501D02*
X071745Y036531D01*
X071750Y036561D01*
X071759Y036590D01*
X071772Y036617D01*
X071787Y036643D01*
X071806Y036667D01*
X071827Y036688D01*
X071851Y036707D01*
X071877Y036722D01*
X071904Y036735D01*
X071933Y036744D01*
X071963Y036749D01*
X071993Y036751D01*
X076893Y036751D01*
X071743Y036501D02*
X071743Y033001D01*
X071745Y032971D01*
X071750Y032941D01*
X071759Y032912D01*
X071772Y032885D01*
X071787Y032859D01*
X071806Y032835D01*
X071827Y032814D01*
X071851Y032795D01*
X071877Y032780D01*
X071904Y032767D01*
X071933Y032758D01*
X071963Y032753D01*
X071993Y032751D01*
X071193Y034776D02*
X071193Y034876D01*
X071093Y034876D01*
X071193Y034876D02*
X071193Y034976D01*
X071193Y034876D02*
X071293Y034876D01*
X070943Y034876D02*
X070943Y035376D01*
X070943Y035876D01*
X070743Y035876D01*
X070743Y034876D01*
X070943Y034876D01*
X070943Y035376D02*
X071293Y035376D01*
X069643Y035376D02*
X069645Y035439D01*
X069651Y035501D01*
X069661Y035563D01*
X069674Y035625D01*
X069692Y035685D01*
X069713Y035744D01*
X069738Y035802D01*
X069767Y035858D01*
X069799Y035912D01*
X069834Y035964D01*
X069872Y036013D01*
X069914Y036061D01*
X069958Y036105D01*
X070006Y036147D01*
X070055Y036185D01*
X070107Y036220D01*
X070161Y036252D01*
X070217Y036281D01*
X070275Y036306D01*
X070334Y036327D01*
X070394Y036345D01*
X070456Y036358D01*
X070518Y036368D01*
X070580Y036374D01*
X070643Y036376D01*
X070706Y036374D01*
X070768Y036368D01*
X070830Y036358D01*
X070892Y036345D01*
X070952Y036327D01*
X071011Y036306D01*
X071069Y036281D01*
X071125Y036252D01*
X071179Y036220D01*
X071231Y036185D01*
X071280Y036147D01*
X071328Y036105D01*
X071372Y036061D01*
X071414Y036013D01*
X071452Y035964D01*
X071487Y035912D01*
X071519Y035858D01*
X071548Y035802D01*
X071573Y035744D01*
X071594Y035685D01*
X071612Y035625D01*
X071625Y035563D01*
X071635Y035501D01*
X071641Y035439D01*
X071643Y035376D01*
X071641Y035313D01*
X071635Y035251D01*
X071625Y035189D01*
X071612Y035127D01*
X071594Y035067D01*
X071573Y035008D01*
X071548Y034950D01*
X071519Y034894D01*
X071487Y034840D01*
X071452Y034788D01*
X071414Y034739D01*
X071372Y034691D01*
X071328Y034647D01*
X071280Y034605D01*
X071231Y034567D01*
X071179Y034532D01*
X071125Y034500D01*
X071069Y034471D01*
X071011Y034446D01*
X070952Y034425D01*
X070892Y034407D01*
X070830Y034394D01*
X070768Y034384D01*
X070706Y034378D01*
X070643Y034376D01*
X070580Y034378D01*
X070518Y034384D01*
X070456Y034394D01*
X070394Y034407D01*
X070334Y034425D01*
X070275Y034446D01*
X070217Y034471D01*
X070161Y034500D01*
X070107Y034532D01*
X070055Y034567D01*
X070006Y034605D01*
X069958Y034647D01*
X069914Y034691D01*
X069872Y034739D01*
X069834Y034788D01*
X069799Y034840D01*
X069767Y034894D01*
X069738Y034950D01*
X069713Y035008D01*
X069692Y035067D01*
X069674Y035127D01*
X069661Y035189D01*
X069651Y035251D01*
X069645Y035313D01*
X069643Y035376D01*
X069993Y035376D02*
X070393Y035376D01*
X064468Y037101D02*
X064468Y037251D01*
X064418Y037301D01*
X064418Y039201D01*
X064468Y039251D01*
X064468Y039401D01*
X064466Y039418D01*
X064462Y039435D01*
X064455Y039451D01*
X064445Y039465D01*
X064432Y039478D01*
X064418Y039488D01*
X064402Y039495D01*
X064385Y039499D01*
X064368Y039501D01*
X063668Y039501D01*
X063651Y039499D01*
X063634Y039495D01*
X063618Y039488D01*
X063604Y039478D01*
X063591Y039465D01*
X063581Y039451D01*
X063574Y039435D01*
X063570Y039418D01*
X063568Y039401D01*
X063568Y039251D01*
X063618Y039201D01*
X063618Y037301D01*
X063568Y037251D01*
X063568Y037101D01*
X063570Y037084D01*
X063574Y037067D01*
X063581Y037051D01*
X063591Y037037D01*
X063604Y037024D01*
X063618Y037014D01*
X063634Y037007D01*
X063651Y037003D01*
X063668Y037001D01*
X064368Y037001D01*
X064385Y037003D01*
X064402Y037007D01*
X064418Y037014D01*
X064432Y037024D01*
X064445Y037037D01*
X064455Y037051D01*
X064462Y037067D01*
X064466Y037084D01*
X064468Y037101D01*
X064618Y042501D02*
X063918Y042501D01*
X063901Y042503D01*
X063884Y042507D01*
X063868Y042514D01*
X063854Y042524D01*
X063841Y042537D01*
X063831Y042551D01*
X063824Y042567D01*
X063820Y042584D01*
X063818Y042601D01*
X063818Y042751D01*
X063868Y042801D01*
X063868Y044701D01*
X063818Y044751D01*
X063818Y044901D01*
X063820Y044918D01*
X063824Y044935D01*
X063831Y044951D01*
X063841Y044965D01*
X063854Y044978D01*
X063868Y044988D01*
X063884Y044995D01*
X063901Y044999D01*
X063918Y045001D01*
X064618Y045001D01*
X064635Y044999D01*
X064652Y044995D01*
X064668Y044988D01*
X064682Y044978D01*
X064695Y044965D01*
X064705Y044951D01*
X064712Y044935D01*
X064716Y044918D01*
X064718Y044901D01*
X064718Y044751D01*
X064668Y044701D01*
X064668Y042801D01*
X064718Y042751D01*
X064718Y042601D01*
X064716Y042584D01*
X064712Y042567D01*
X064705Y042551D01*
X064695Y042537D01*
X064682Y042524D01*
X064668Y042514D01*
X064652Y042507D01*
X064635Y042503D01*
X064618Y042501D01*
X064459Y047622D02*
X064461Y047663D01*
X064467Y047704D01*
X064477Y047744D01*
X064490Y047783D01*
X064507Y047821D01*
X064528Y047857D01*
X064552Y047890D01*
X064579Y047921D01*
X064609Y047950D01*
X064641Y047976D01*
X064676Y047998D01*
X064713Y048017D01*
X064751Y048032D01*
X064791Y048044D01*
X064831Y048052D01*
X064872Y048056D01*
X064914Y048056D01*
X064955Y048052D01*
X064995Y048044D01*
X065035Y048032D01*
X065073Y048017D01*
X065110Y047998D01*
X065145Y047976D01*
X065177Y047950D01*
X065207Y047921D01*
X065234Y047890D01*
X065258Y047857D01*
X065279Y047821D01*
X065296Y047783D01*
X065309Y047744D01*
X065319Y047704D01*
X065325Y047663D01*
X065327Y047622D01*
X065325Y047581D01*
X065319Y047540D01*
X065309Y047500D01*
X065296Y047461D01*
X065279Y047423D01*
X065258Y047387D01*
X065234Y047354D01*
X065207Y047323D01*
X065177Y047294D01*
X065145Y047268D01*
X065110Y047246D01*
X065073Y047227D01*
X065035Y047212D01*
X064995Y047200D01*
X064955Y047192D01*
X064914Y047188D01*
X064872Y047188D01*
X064831Y047192D01*
X064791Y047200D01*
X064751Y047212D01*
X064713Y047227D01*
X064676Y047246D01*
X064641Y047268D01*
X064609Y047294D01*
X064579Y047323D01*
X064552Y047354D01*
X064528Y047387D01*
X064507Y047423D01*
X064490Y047461D01*
X064477Y047500D01*
X064467Y047540D01*
X064461Y047581D01*
X064459Y047622D01*
X062459Y047622D02*
X062461Y047663D01*
X062467Y047704D01*
X062477Y047744D01*
X062490Y047783D01*
X062507Y047821D01*
X062528Y047857D01*
X062552Y047890D01*
X062579Y047921D01*
X062609Y047950D01*
X062641Y047976D01*
X062676Y047998D01*
X062713Y048017D01*
X062751Y048032D01*
X062791Y048044D01*
X062831Y048052D01*
X062872Y048056D01*
X062914Y048056D01*
X062955Y048052D01*
X062995Y048044D01*
X063035Y048032D01*
X063073Y048017D01*
X063110Y047998D01*
X063145Y047976D01*
X063177Y047950D01*
X063207Y047921D01*
X063234Y047890D01*
X063258Y047857D01*
X063279Y047821D01*
X063296Y047783D01*
X063309Y047744D01*
X063319Y047704D01*
X063325Y047663D01*
X063327Y047622D01*
X063325Y047581D01*
X063319Y047540D01*
X063309Y047500D01*
X063296Y047461D01*
X063279Y047423D01*
X063258Y047387D01*
X063234Y047354D01*
X063207Y047323D01*
X063177Y047294D01*
X063145Y047268D01*
X063110Y047246D01*
X063073Y047227D01*
X063035Y047212D01*
X062995Y047200D01*
X062955Y047192D01*
X062914Y047188D01*
X062872Y047188D01*
X062831Y047192D01*
X062791Y047200D01*
X062751Y047212D01*
X062713Y047227D01*
X062676Y047246D01*
X062641Y047268D01*
X062609Y047294D01*
X062579Y047323D01*
X062552Y047354D01*
X062528Y047387D01*
X062507Y047423D01*
X062490Y047461D01*
X062477Y047500D01*
X062467Y047540D01*
X062461Y047581D01*
X062459Y047622D01*
X060459Y047622D02*
X060461Y047663D01*
X060467Y047704D01*
X060477Y047744D01*
X060490Y047783D01*
X060507Y047821D01*
X060528Y047857D01*
X060552Y047890D01*
X060579Y047921D01*
X060609Y047950D01*
X060641Y047976D01*
X060676Y047998D01*
X060713Y048017D01*
X060751Y048032D01*
X060791Y048044D01*
X060831Y048052D01*
X060872Y048056D01*
X060914Y048056D01*
X060955Y048052D01*
X060995Y048044D01*
X061035Y048032D01*
X061073Y048017D01*
X061110Y047998D01*
X061145Y047976D01*
X061177Y047950D01*
X061207Y047921D01*
X061234Y047890D01*
X061258Y047857D01*
X061279Y047821D01*
X061296Y047783D01*
X061309Y047744D01*
X061319Y047704D01*
X061325Y047663D01*
X061327Y047622D01*
X061325Y047581D01*
X061319Y047540D01*
X061309Y047500D01*
X061296Y047461D01*
X061279Y047423D01*
X061258Y047387D01*
X061234Y047354D01*
X061207Y047323D01*
X061177Y047294D01*
X061145Y047268D01*
X061110Y047246D01*
X061073Y047227D01*
X061035Y047212D01*
X060995Y047200D01*
X060955Y047192D01*
X060914Y047188D01*
X060872Y047188D01*
X060831Y047192D01*
X060791Y047200D01*
X060751Y047212D01*
X060713Y047227D01*
X060676Y047246D01*
X060641Y047268D01*
X060609Y047294D01*
X060579Y047323D01*
X060552Y047354D01*
X060528Y047387D01*
X060507Y047423D01*
X060490Y047461D01*
X060477Y047500D01*
X060467Y047540D01*
X060461Y047581D01*
X060459Y047622D01*
X058459Y047622D02*
X058461Y047663D01*
X058467Y047704D01*
X058477Y047744D01*
X058490Y047783D01*
X058507Y047821D01*
X058528Y047857D01*
X058552Y047890D01*
X058579Y047921D01*
X058609Y047950D01*
X058641Y047976D01*
X058676Y047998D01*
X058713Y048017D01*
X058751Y048032D01*
X058791Y048044D01*
X058831Y048052D01*
X058872Y048056D01*
X058914Y048056D01*
X058955Y048052D01*
X058995Y048044D01*
X059035Y048032D01*
X059073Y048017D01*
X059110Y047998D01*
X059145Y047976D01*
X059177Y047950D01*
X059207Y047921D01*
X059234Y047890D01*
X059258Y047857D01*
X059279Y047821D01*
X059296Y047783D01*
X059309Y047744D01*
X059319Y047704D01*
X059325Y047663D01*
X059327Y047622D01*
X059325Y047581D01*
X059319Y047540D01*
X059309Y047500D01*
X059296Y047461D01*
X059279Y047423D01*
X059258Y047387D01*
X059234Y047354D01*
X059207Y047323D01*
X059177Y047294D01*
X059145Y047268D01*
X059110Y047246D01*
X059073Y047227D01*
X059035Y047212D01*
X058995Y047200D01*
X058955Y047192D01*
X058914Y047188D01*
X058872Y047188D01*
X058831Y047192D01*
X058791Y047200D01*
X058751Y047212D01*
X058713Y047227D01*
X058676Y047246D01*
X058641Y047268D01*
X058609Y047294D01*
X058579Y047323D01*
X058552Y047354D01*
X058528Y047387D01*
X058507Y047423D01*
X058490Y047461D01*
X058477Y047500D01*
X058467Y047540D01*
X058461Y047581D01*
X058459Y047622D01*
X050765Y047439D02*
X050658Y047546D01*
X050444Y047546D01*
X050338Y047439D01*
X050120Y047439D02*
X050013Y047546D01*
X049693Y047546D01*
X049693Y046906D01*
X050013Y046906D01*
X050120Y047012D01*
X050120Y047439D01*
X050338Y046906D02*
X050765Y047333D01*
X050765Y047439D01*
X050765Y046906D02*
X050338Y046906D01*
X049476Y047012D02*
X049476Y047439D01*
X049369Y047546D01*
X049048Y047546D01*
X049048Y046906D01*
X049369Y046906D01*
X049476Y047012D01*
X064768Y027251D02*
X064768Y026871D01*
X064768Y026131D02*
X064768Y025751D01*
X063618Y024751D02*
X063620Y024721D01*
X063625Y024691D01*
X063634Y024662D01*
X063647Y024635D01*
X063662Y024609D01*
X063681Y024585D01*
X063702Y024564D01*
X063726Y024545D01*
X063752Y024530D01*
X063779Y024517D01*
X063808Y024508D01*
X063838Y024503D01*
X063868Y024501D01*
X068768Y024501D01*
X071668Y025576D02*
X071768Y025576D01*
X071768Y025676D01*
X071768Y025576D02*
X071868Y025576D01*
X071768Y025576D02*
X071768Y025476D01*
X071768Y025826D02*
X072268Y025826D01*
X072768Y025826D01*
X072768Y026026D01*
X071768Y026026D01*
X071768Y025826D01*
X072268Y025826D02*
X072268Y025476D01*
X071268Y026126D02*
X071270Y026189D01*
X071276Y026251D01*
X071286Y026313D01*
X071299Y026375D01*
X071317Y026435D01*
X071338Y026494D01*
X071363Y026552D01*
X071392Y026608D01*
X071424Y026662D01*
X071459Y026714D01*
X071497Y026763D01*
X071539Y026811D01*
X071583Y026855D01*
X071631Y026897D01*
X071680Y026935D01*
X071732Y026970D01*
X071786Y027002D01*
X071842Y027031D01*
X071900Y027056D01*
X071959Y027077D01*
X072019Y027095D01*
X072081Y027108D01*
X072143Y027118D01*
X072205Y027124D01*
X072268Y027126D01*
X072331Y027124D01*
X072393Y027118D01*
X072455Y027108D01*
X072517Y027095D01*
X072577Y027077D01*
X072636Y027056D01*
X072694Y027031D01*
X072750Y027002D01*
X072804Y026970D01*
X072856Y026935D01*
X072905Y026897D01*
X072953Y026855D01*
X072997Y026811D01*
X073039Y026763D01*
X073077Y026714D01*
X073112Y026662D01*
X073144Y026608D01*
X073173Y026552D01*
X073198Y026494D01*
X073219Y026435D01*
X073237Y026375D01*
X073250Y026313D01*
X073260Y026251D01*
X073266Y026189D01*
X073268Y026126D01*
X073266Y026063D01*
X073260Y026001D01*
X073250Y025939D01*
X073237Y025877D01*
X073219Y025817D01*
X073198Y025758D01*
X073173Y025700D01*
X073144Y025644D01*
X073112Y025590D01*
X073077Y025538D01*
X073039Y025489D01*
X072997Y025441D01*
X072953Y025397D01*
X072905Y025355D01*
X072856Y025317D01*
X072804Y025282D01*
X072750Y025250D01*
X072694Y025221D01*
X072636Y025196D01*
X072577Y025175D01*
X072517Y025157D01*
X072455Y025144D01*
X072393Y025134D01*
X072331Y025128D01*
X072268Y025126D01*
X072205Y025128D01*
X072143Y025134D01*
X072081Y025144D01*
X072019Y025157D01*
X071959Y025175D01*
X071900Y025196D01*
X071842Y025221D01*
X071786Y025250D01*
X071732Y025282D01*
X071680Y025317D01*
X071631Y025355D01*
X071583Y025397D01*
X071539Y025441D01*
X071497Y025489D01*
X071459Y025538D01*
X071424Y025590D01*
X071392Y025644D01*
X071363Y025700D01*
X071338Y025758D01*
X071317Y025817D01*
X071299Y025877D01*
X071286Y025939D01*
X071276Y026001D01*
X071270Y026063D01*
X071268Y026126D01*
X072268Y026376D02*
X072268Y026776D01*
X074668Y027551D02*
X074668Y015451D01*
X076018Y015451D01*
X076020Y015481D01*
X076025Y015511D01*
X076034Y015540D01*
X076047Y015567D01*
X076062Y015593D01*
X076081Y015617D01*
X076102Y015638D01*
X076126Y015657D01*
X076152Y015672D01*
X076179Y015685D01*
X076208Y015694D01*
X076238Y015699D01*
X076268Y015701D01*
X076298Y015699D01*
X076328Y015694D01*
X076357Y015685D01*
X076384Y015672D01*
X076410Y015657D01*
X076434Y015638D01*
X076455Y015617D01*
X076474Y015593D01*
X076489Y015567D01*
X076502Y015540D01*
X076511Y015511D01*
X076516Y015481D01*
X076518Y015451D01*
X077868Y015451D01*
X077868Y027551D01*
X074668Y027551D01*
X072018Y022876D02*
X071518Y022876D01*
X071268Y022626D01*
X071268Y022126D01*
X071518Y021876D01*
X071268Y021626D01*
X071268Y021126D01*
X071518Y020876D01*
X071268Y020626D01*
X071268Y020126D01*
X071518Y019876D01*
X072018Y019876D01*
X072268Y020126D01*
X072268Y020626D01*
X072018Y020876D01*
X072268Y021126D01*
X072268Y021626D01*
X072018Y021876D01*
X072268Y022126D01*
X072268Y022626D01*
X072018Y022876D01*
X069918Y016001D02*
X069718Y016001D01*
X069718Y015501D01*
X069718Y015001D01*
X069918Y015001D01*
X069918Y016001D01*
X069568Y016001D02*
X069468Y016001D01*
X069468Y016101D01*
X069468Y016001D02*
X069468Y015901D01*
X069468Y016001D02*
X069368Y016001D01*
X069368Y015501D02*
X069718Y015501D01*
X069018Y015501D02*
X069020Y015564D01*
X069026Y015626D01*
X069036Y015688D01*
X069049Y015750D01*
X069067Y015810D01*
X069088Y015869D01*
X069113Y015927D01*
X069142Y015983D01*
X069174Y016037D01*
X069209Y016089D01*
X069247Y016138D01*
X069289Y016186D01*
X069333Y016230D01*
X069381Y016272D01*
X069430Y016310D01*
X069482Y016345D01*
X069536Y016377D01*
X069592Y016406D01*
X069650Y016431D01*
X069709Y016452D01*
X069769Y016470D01*
X069831Y016483D01*
X069893Y016493D01*
X069955Y016499D01*
X070018Y016501D01*
X070081Y016499D01*
X070143Y016493D01*
X070205Y016483D01*
X070267Y016470D01*
X070327Y016452D01*
X070386Y016431D01*
X070444Y016406D01*
X070500Y016377D01*
X070554Y016345D01*
X070606Y016310D01*
X070655Y016272D01*
X070703Y016230D01*
X070747Y016186D01*
X070789Y016138D01*
X070827Y016089D01*
X070862Y016037D01*
X070894Y015983D01*
X070923Y015927D01*
X070948Y015869D01*
X070969Y015810D01*
X070987Y015750D01*
X071000Y015688D01*
X071010Y015626D01*
X071016Y015564D01*
X071018Y015501D01*
X071016Y015438D01*
X071010Y015376D01*
X071000Y015314D01*
X070987Y015252D01*
X070969Y015192D01*
X070948Y015133D01*
X070923Y015075D01*
X070894Y015019D01*
X070862Y014965D01*
X070827Y014913D01*
X070789Y014864D01*
X070747Y014816D01*
X070703Y014772D01*
X070655Y014730D01*
X070606Y014692D01*
X070554Y014657D01*
X070500Y014625D01*
X070444Y014596D01*
X070386Y014571D01*
X070327Y014550D01*
X070267Y014532D01*
X070205Y014519D01*
X070143Y014509D01*
X070081Y014503D01*
X070018Y014501D01*
X069955Y014503D01*
X069893Y014509D01*
X069831Y014519D01*
X069769Y014532D01*
X069709Y014550D01*
X069650Y014571D01*
X069592Y014596D01*
X069536Y014625D01*
X069482Y014657D01*
X069430Y014692D01*
X069381Y014730D01*
X069333Y014772D01*
X069289Y014816D01*
X069247Y014864D01*
X069209Y014913D01*
X069174Y014965D01*
X069142Y015019D01*
X069113Y015075D01*
X069088Y015133D01*
X069067Y015192D01*
X069049Y015252D01*
X069036Y015314D01*
X069026Y015376D01*
X069020Y015438D01*
X069018Y015501D01*
X068043Y014876D02*
X067643Y014876D01*
X066393Y014876D02*
X066395Y014939D01*
X066401Y015001D01*
X066411Y015063D01*
X066424Y015125D01*
X066442Y015185D01*
X066463Y015244D01*
X066488Y015302D01*
X066517Y015358D01*
X066549Y015412D01*
X066584Y015464D01*
X066622Y015513D01*
X066664Y015561D01*
X066708Y015605D01*
X066756Y015647D01*
X066805Y015685D01*
X066857Y015720D01*
X066911Y015752D01*
X066967Y015781D01*
X067025Y015806D01*
X067084Y015827D01*
X067144Y015845D01*
X067206Y015858D01*
X067268Y015868D01*
X067330Y015874D01*
X067393Y015876D01*
X067456Y015874D01*
X067518Y015868D01*
X067580Y015858D01*
X067642Y015845D01*
X067702Y015827D01*
X067761Y015806D01*
X067819Y015781D01*
X067875Y015752D01*
X067929Y015720D01*
X067981Y015685D01*
X068030Y015647D01*
X068078Y015605D01*
X068122Y015561D01*
X068164Y015513D01*
X068202Y015464D01*
X068237Y015412D01*
X068269Y015358D01*
X068298Y015302D01*
X068323Y015244D01*
X068344Y015185D01*
X068362Y015125D01*
X068375Y015063D01*
X068385Y015001D01*
X068391Y014939D01*
X068393Y014876D01*
X068391Y014813D01*
X068385Y014751D01*
X068375Y014689D01*
X068362Y014627D01*
X068344Y014567D01*
X068323Y014508D01*
X068298Y014450D01*
X068269Y014394D01*
X068237Y014340D01*
X068202Y014288D01*
X068164Y014239D01*
X068122Y014191D01*
X068078Y014147D01*
X068030Y014105D01*
X067981Y014067D01*
X067929Y014032D01*
X067875Y014000D01*
X067819Y013971D01*
X067761Y013946D01*
X067702Y013925D01*
X067642Y013907D01*
X067580Y013894D01*
X067518Y013884D01*
X067456Y013878D01*
X067393Y013876D01*
X067330Y013878D01*
X067268Y013884D01*
X067206Y013894D01*
X067144Y013907D01*
X067084Y013925D01*
X067025Y013946D01*
X066967Y013971D01*
X066911Y014000D01*
X066857Y014032D01*
X066805Y014067D01*
X066756Y014105D01*
X066708Y014147D01*
X066664Y014191D01*
X066622Y014239D01*
X066584Y014288D01*
X066549Y014340D01*
X066517Y014394D01*
X066488Y014450D01*
X066463Y014508D01*
X066442Y014567D01*
X066424Y014627D01*
X066411Y014689D01*
X066401Y014751D01*
X066395Y014813D01*
X066393Y014876D01*
X066743Y014876D02*
X067093Y014876D01*
X067093Y015376D01*
X067293Y015376D01*
X067293Y014376D01*
X067093Y014376D01*
X067093Y014876D01*
X066843Y015276D02*
X066843Y015376D01*
X066843Y015476D01*
X066843Y015376D02*
X066943Y015376D01*
X066843Y015376D02*
X066743Y015376D01*
X066793Y014001D02*
X066493Y014001D01*
X066243Y013751D01*
X066243Y012751D01*
X066243Y012301D01*
X066043Y012101D01*
X066043Y011851D01*
X065743Y011851D01*
X065743Y012101D01*
X065543Y012301D01*
X065543Y012751D01*
X065543Y013751D01*
X065293Y014001D01*
X064993Y014001D01*
X064743Y013751D01*
X064743Y012751D01*
X064743Y012301D01*
X064543Y012101D01*
X064543Y011851D01*
X064243Y011851D01*
X064243Y012101D01*
X064043Y012301D01*
X064043Y012751D01*
X064043Y013751D01*
X063793Y014001D01*
X063493Y014001D01*
X063243Y013751D01*
X063243Y012751D01*
X063243Y012301D01*
X063043Y012101D01*
X063043Y011851D01*
X062743Y011851D01*
X062743Y012101D01*
X062543Y012301D01*
X062543Y012751D01*
X062543Y013751D01*
X062293Y014001D01*
X061993Y014001D01*
X061743Y013751D01*
X061743Y012751D01*
X061743Y012301D01*
X061543Y012101D01*
X061543Y011851D01*
X061243Y011851D01*
X061243Y012101D01*
X061043Y012301D01*
X061043Y012751D01*
X061043Y013751D01*
X060793Y014001D01*
X060493Y014001D01*
X060243Y013751D01*
X060243Y012751D01*
X060243Y012301D01*
X060043Y012101D01*
X060043Y011851D01*
X059743Y011851D01*
X059743Y012101D01*
X059543Y012301D01*
X059543Y012751D01*
X059543Y013751D01*
X059293Y014001D01*
X058993Y014001D01*
X058743Y013751D01*
X058743Y012751D01*
X058743Y012301D01*
X058543Y012101D01*
X058543Y011851D01*
X058243Y011851D01*
X058243Y012101D01*
X058043Y012301D01*
X058043Y012751D01*
X058043Y013751D01*
X057793Y014001D01*
X057493Y014001D01*
X057243Y013751D01*
X057243Y012751D01*
X057243Y011251D01*
X055893Y011251D01*
X052143Y011251D01*
X052143Y010051D01*
X055893Y010051D01*
X055893Y006901D01*
X074393Y006901D01*
X074393Y010051D01*
X074393Y011251D01*
X073043Y011251D01*
X073043Y012751D01*
X073043Y013751D01*
X072793Y014001D01*
X072493Y014001D01*
X072243Y013751D01*
X072243Y012751D01*
X072243Y012301D01*
X072043Y012101D01*
X072043Y011851D01*
X071743Y011851D01*
X071743Y012101D01*
X071543Y012301D01*
X071543Y012751D01*
X071543Y013751D01*
X071293Y014001D01*
X070993Y014001D01*
X070743Y013751D01*
X070743Y012751D01*
X070743Y012301D01*
X070543Y012101D01*
X070543Y011851D01*
X070243Y011851D01*
X070243Y012101D01*
X070043Y012301D01*
X070043Y012751D01*
X070043Y013751D01*
X069793Y014001D01*
X069493Y014001D01*
X069243Y013751D01*
X069243Y012751D01*
X069243Y012301D01*
X069043Y012101D01*
X069043Y011851D01*
X068743Y011851D01*
X068743Y012101D01*
X068543Y012301D01*
X068543Y012751D01*
X068543Y013751D01*
X068293Y014001D01*
X067993Y014001D01*
X067743Y013751D01*
X067743Y012751D01*
X067743Y012301D01*
X067543Y012101D01*
X067543Y011851D01*
X067243Y011851D01*
X067243Y012101D01*
X067043Y012301D01*
X067043Y012751D01*
X067043Y013751D01*
X066793Y014001D01*
X065043Y014876D02*
X064643Y014876D01*
X063393Y014876D02*
X063395Y014939D01*
X063401Y015001D01*
X063411Y015063D01*
X063424Y015125D01*
X063442Y015185D01*
X063463Y015244D01*
X063488Y015302D01*
X063517Y015358D01*
X063549Y015412D01*
X063584Y015464D01*
X063622Y015513D01*
X063664Y015561D01*
X063708Y015605D01*
X063756Y015647D01*
X063805Y015685D01*
X063857Y015720D01*
X063911Y015752D01*
X063967Y015781D01*
X064025Y015806D01*
X064084Y015827D01*
X064144Y015845D01*
X064206Y015858D01*
X064268Y015868D01*
X064330Y015874D01*
X064393Y015876D01*
X064456Y015874D01*
X064518Y015868D01*
X064580Y015858D01*
X064642Y015845D01*
X064702Y015827D01*
X064761Y015806D01*
X064819Y015781D01*
X064875Y015752D01*
X064929Y015720D01*
X064981Y015685D01*
X065030Y015647D01*
X065078Y015605D01*
X065122Y015561D01*
X065164Y015513D01*
X065202Y015464D01*
X065237Y015412D01*
X065269Y015358D01*
X065298Y015302D01*
X065323Y015244D01*
X065344Y015185D01*
X065362Y015125D01*
X065375Y015063D01*
X065385Y015001D01*
X065391Y014939D01*
X065393Y014876D01*
X065391Y014813D01*
X065385Y014751D01*
X065375Y014689D01*
X065362Y014627D01*
X065344Y014567D01*
X065323Y014508D01*
X065298Y014450D01*
X065269Y014394D01*
X065237Y014340D01*
X065202Y014288D01*
X065164Y014239D01*
X065122Y014191D01*
X065078Y014147D01*
X065030Y014105D01*
X064981Y014067D01*
X064929Y014032D01*
X064875Y014000D01*
X064819Y013971D01*
X064761Y013946D01*
X064702Y013925D01*
X064642Y013907D01*
X064580Y013894D01*
X064518Y013884D01*
X064456Y013878D01*
X064393Y013876D01*
X064330Y013878D01*
X064268Y013884D01*
X064206Y013894D01*
X064144Y013907D01*
X064084Y013925D01*
X064025Y013946D01*
X063967Y013971D01*
X063911Y014000D01*
X063857Y014032D01*
X063805Y014067D01*
X063756Y014105D01*
X063708Y014147D01*
X063664Y014191D01*
X063622Y014239D01*
X063584Y014288D01*
X063549Y014340D01*
X063517Y014394D01*
X063488Y014450D01*
X063463Y014508D01*
X063442Y014567D01*
X063424Y014627D01*
X063411Y014689D01*
X063401Y014751D01*
X063395Y014813D01*
X063393Y014876D01*
X063743Y014876D02*
X064093Y014876D01*
X064093Y015376D01*
X064293Y015376D01*
X064293Y014376D01*
X064093Y014376D01*
X064093Y014876D01*
X063843Y015276D02*
X063843Y015376D01*
X063843Y015476D01*
X063843Y015376D02*
X063943Y015376D01*
X063843Y015376D02*
X063743Y015376D01*
X062043Y014876D02*
X061643Y014876D01*
X060393Y014876D02*
X060395Y014939D01*
X060401Y015001D01*
X060411Y015063D01*
X060424Y015125D01*
X060442Y015185D01*
X060463Y015244D01*
X060488Y015302D01*
X060517Y015358D01*
X060549Y015412D01*
X060584Y015464D01*
X060622Y015513D01*
X060664Y015561D01*
X060708Y015605D01*
X060756Y015647D01*
X060805Y015685D01*
X060857Y015720D01*
X060911Y015752D01*
X060967Y015781D01*
X061025Y015806D01*
X061084Y015827D01*
X061144Y015845D01*
X061206Y015858D01*
X061268Y015868D01*
X061330Y015874D01*
X061393Y015876D01*
X061456Y015874D01*
X061518Y015868D01*
X061580Y015858D01*
X061642Y015845D01*
X061702Y015827D01*
X061761Y015806D01*
X061819Y015781D01*
X061875Y015752D01*
X061929Y015720D01*
X061981Y015685D01*
X062030Y015647D01*
X062078Y015605D01*
X062122Y015561D01*
X062164Y015513D01*
X062202Y015464D01*
X062237Y015412D01*
X062269Y015358D01*
X062298Y015302D01*
X062323Y015244D01*
X062344Y015185D01*
X062362Y015125D01*
X062375Y015063D01*
X062385Y015001D01*
X062391Y014939D01*
X062393Y014876D01*
X062391Y014813D01*
X062385Y014751D01*
X062375Y014689D01*
X062362Y014627D01*
X062344Y014567D01*
X062323Y014508D01*
X062298Y014450D01*
X062269Y014394D01*
X062237Y014340D01*
X062202Y014288D01*
X062164Y014239D01*
X062122Y014191D01*
X062078Y014147D01*
X062030Y014105D01*
X061981Y014067D01*
X061929Y014032D01*
X061875Y014000D01*
X061819Y013971D01*
X061761Y013946D01*
X061702Y013925D01*
X061642Y013907D01*
X061580Y013894D01*
X061518Y013884D01*
X061456Y013878D01*
X061393Y013876D01*
X061330Y013878D01*
X061268Y013884D01*
X061206Y013894D01*
X061144Y013907D01*
X061084Y013925D01*
X061025Y013946D01*
X060967Y013971D01*
X060911Y014000D01*
X060857Y014032D01*
X060805Y014067D01*
X060756Y014105D01*
X060708Y014147D01*
X060664Y014191D01*
X060622Y014239D01*
X060584Y014288D01*
X060549Y014340D01*
X060517Y014394D01*
X060488Y014450D01*
X060463Y014508D01*
X060442Y014567D01*
X060424Y014627D01*
X060411Y014689D01*
X060401Y014751D01*
X060395Y014813D01*
X060393Y014876D01*
X060743Y014876D02*
X061093Y014876D01*
X061093Y015376D01*
X061293Y015376D01*
X061293Y014376D01*
X061093Y014376D01*
X061093Y014876D01*
X060843Y015276D02*
X060843Y015376D01*
X060843Y015476D01*
X060843Y015376D02*
X060943Y015376D01*
X060843Y015376D02*
X060743Y015376D01*
X058043Y015501D02*
X057643Y015501D01*
X056393Y015501D02*
X056395Y015564D01*
X056401Y015626D01*
X056411Y015688D01*
X056424Y015750D01*
X056442Y015810D01*
X056463Y015869D01*
X056488Y015927D01*
X056517Y015983D01*
X056549Y016037D01*
X056584Y016089D01*
X056622Y016138D01*
X056664Y016186D01*
X056708Y016230D01*
X056756Y016272D01*
X056805Y016310D01*
X056857Y016345D01*
X056911Y016377D01*
X056967Y016406D01*
X057025Y016431D01*
X057084Y016452D01*
X057144Y016470D01*
X057206Y016483D01*
X057268Y016493D01*
X057330Y016499D01*
X057393Y016501D01*
X057456Y016499D01*
X057518Y016493D01*
X057580Y016483D01*
X057642Y016470D01*
X057702Y016452D01*
X057761Y016431D01*
X057819Y016406D01*
X057875Y016377D01*
X057929Y016345D01*
X057981Y016310D01*
X058030Y016272D01*
X058078Y016230D01*
X058122Y016186D01*
X058164Y016138D01*
X058202Y016089D01*
X058237Y016037D01*
X058269Y015983D01*
X058298Y015927D01*
X058323Y015869D01*
X058344Y015810D01*
X058362Y015750D01*
X058375Y015688D01*
X058385Y015626D01*
X058391Y015564D01*
X058393Y015501D01*
X058391Y015438D01*
X058385Y015376D01*
X058375Y015314D01*
X058362Y015252D01*
X058344Y015192D01*
X058323Y015133D01*
X058298Y015075D01*
X058269Y015019D01*
X058237Y014965D01*
X058202Y014913D01*
X058164Y014864D01*
X058122Y014816D01*
X058078Y014772D01*
X058030Y014730D01*
X057981Y014692D01*
X057929Y014657D01*
X057875Y014625D01*
X057819Y014596D01*
X057761Y014571D01*
X057702Y014550D01*
X057642Y014532D01*
X057580Y014519D01*
X057518Y014509D01*
X057456Y014503D01*
X057393Y014501D01*
X057330Y014503D01*
X057268Y014509D01*
X057206Y014519D01*
X057144Y014532D01*
X057084Y014550D01*
X057025Y014571D01*
X056967Y014596D01*
X056911Y014625D01*
X056857Y014657D01*
X056805Y014692D01*
X056756Y014730D01*
X056708Y014772D01*
X056664Y014816D01*
X056622Y014864D01*
X056584Y014913D01*
X056549Y014965D01*
X056517Y015019D01*
X056488Y015075D01*
X056463Y015133D01*
X056442Y015192D01*
X056424Y015252D01*
X056411Y015314D01*
X056401Y015376D01*
X056395Y015438D01*
X056393Y015501D01*
X056743Y015501D02*
X057093Y015501D01*
X057093Y016001D01*
X057293Y016001D01*
X057293Y015001D01*
X057093Y015001D01*
X057093Y015501D01*
X056843Y015901D02*
X056843Y016001D01*
X056843Y016101D01*
X056843Y016001D02*
X056943Y016001D01*
X056843Y016001D02*
X056743Y016001D01*
X055893Y013526D02*
X055893Y013126D01*
X054893Y012876D02*
X054895Y012939D01*
X054901Y013001D01*
X054911Y013063D01*
X054924Y013125D01*
X054942Y013185D01*
X054963Y013244D01*
X054988Y013302D01*
X055017Y013358D01*
X055049Y013412D01*
X055084Y013464D01*
X055122Y013513D01*
X055164Y013561D01*
X055208Y013605D01*
X055256Y013647D01*
X055305Y013685D01*
X055357Y013720D01*
X055411Y013752D01*
X055467Y013781D01*
X055525Y013806D01*
X055584Y013827D01*
X055644Y013845D01*
X055706Y013858D01*
X055768Y013868D01*
X055830Y013874D01*
X055893Y013876D01*
X055956Y013874D01*
X056018Y013868D01*
X056080Y013858D01*
X056142Y013845D01*
X056202Y013827D01*
X056261Y013806D01*
X056319Y013781D01*
X056375Y013752D01*
X056429Y013720D01*
X056481Y013685D01*
X056530Y013647D01*
X056578Y013605D01*
X056622Y013561D01*
X056664Y013513D01*
X056702Y013464D01*
X056737Y013412D01*
X056769Y013358D01*
X056798Y013302D01*
X056823Y013244D01*
X056844Y013185D01*
X056862Y013125D01*
X056875Y013063D01*
X056885Y013001D01*
X056891Y012939D01*
X056893Y012876D01*
X056891Y012813D01*
X056885Y012751D01*
X056875Y012689D01*
X056862Y012627D01*
X056844Y012567D01*
X056823Y012508D01*
X056798Y012450D01*
X056769Y012394D01*
X056737Y012340D01*
X056702Y012288D01*
X056664Y012239D01*
X056622Y012191D01*
X056578Y012147D01*
X056530Y012105D01*
X056481Y012067D01*
X056429Y012032D01*
X056375Y012000D01*
X056319Y011971D01*
X056261Y011946D01*
X056202Y011925D01*
X056142Y011907D01*
X056080Y011894D01*
X056018Y011884D01*
X055956Y011878D01*
X055893Y011876D01*
X055830Y011878D01*
X055768Y011884D01*
X055706Y011894D01*
X055644Y011907D01*
X055584Y011925D01*
X055525Y011946D01*
X055467Y011971D01*
X055411Y012000D01*
X055357Y012032D01*
X055305Y012067D01*
X055256Y012105D01*
X055208Y012147D01*
X055164Y012191D01*
X055122Y012239D01*
X055084Y012288D01*
X055049Y012340D01*
X055017Y012394D01*
X054988Y012450D01*
X054963Y012508D01*
X054942Y012567D01*
X054924Y012627D01*
X054911Y012689D01*
X054901Y012751D01*
X054895Y012813D01*
X054893Y012876D01*
X055393Y012776D02*
X055393Y012576D01*
X055893Y012576D01*
X056393Y012576D01*
X056393Y012776D01*
X055393Y012776D01*
X055393Y012426D02*
X055393Y012326D01*
X055293Y012326D01*
X055393Y012326D02*
X055493Y012326D01*
X055393Y012326D02*
X055393Y012226D01*
X055893Y012226D02*
X055893Y012576D01*
X055893Y011251D02*
X055893Y010051D01*
X057243Y011251D02*
X057793Y011251D01*
X058993Y011251D01*
X059293Y011251D01*
X060493Y011251D01*
X060793Y011251D01*
X061993Y011251D01*
X062293Y011251D01*
X063493Y011251D01*
X063793Y011251D01*
X064993Y011251D01*
X065293Y011251D01*
X066493Y011251D01*
X066793Y011251D01*
X067993Y011251D01*
X068293Y011251D01*
X069493Y011251D01*
X069793Y011251D01*
X070993Y011251D01*
X071293Y011251D01*
X072493Y011251D01*
X073043Y011251D01*
X074393Y011251D02*
X078143Y011251D01*
X078143Y010051D01*
X074393Y010051D01*
X076643Y009651D02*
X076643Y011651D01*
X076393Y013376D02*
X076143Y013626D01*
X075893Y013376D01*
X075393Y013376D01*
X075143Y013626D01*
X075143Y014126D01*
X075393Y014376D01*
X075893Y014376D01*
X076143Y014126D01*
X076393Y014376D01*
X076893Y014376D01*
X077143Y014126D01*
X077393Y014376D01*
X077893Y014376D01*
X078143Y014126D01*
X078143Y013626D01*
X077893Y013376D01*
X077393Y013376D01*
X077143Y013626D01*
X076893Y013376D01*
X076393Y013376D01*
X070668Y015501D02*
X070268Y015501D01*
X053643Y011651D02*
X053643Y009651D01*
X033790Y007481D02*
X033363Y007481D01*
X033576Y007481D02*
X033576Y008121D01*
X033363Y007908D01*
X033145Y008014D02*
X033145Y007587D01*
X033038Y007481D01*
X032718Y007481D01*
X032718Y008121D01*
X033038Y008121D01*
X033145Y008014D01*
X032501Y008014D02*
X032394Y008121D01*
X032073Y008121D01*
X032073Y007481D01*
X032394Y007481D01*
X032501Y007587D01*
X032501Y008014D01*
X022540Y007964D02*
X022540Y007858D01*
X022433Y007751D01*
X022219Y007751D01*
X022113Y007858D01*
X022113Y007964D01*
X022219Y008071D01*
X022433Y008071D01*
X022540Y007964D01*
X022433Y007751D02*
X022540Y007644D01*
X022540Y007537D01*
X022433Y007431D01*
X022219Y007431D01*
X022113Y007537D01*
X022113Y007644D01*
X022219Y007751D01*
X021895Y007964D02*
X021788Y008071D01*
X021468Y008071D01*
X021468Y007431D01*
X021788Y007431D01*
X021895Y007537D01*
X021895Y007964D01*
X021251Y007964D02*
X021251Y007537D01*
X021144Y007431D01*
X020823Y007431D01*
X020823Y008071D01*
X021144Y008071D01*
X021251Y007964D01*
X021573Y050556D02*
X021894Y050556D01*
X022001Y050662D01*
X022001Y051089D01*
X021894Y051196D01*
X021573Y051196D01*
X021573Y050556D01*
X022218Y050556D02*
X022538Y050556D01*
X022645Y050662D01*
X022645Y051089D01*
X022538Y051196D01*
X022218Y051196D01*
X022218Y050556D01*
X022863Y050662D02*
X022969Y050556D01*
X023183Y050556D01*
X023290Y050662D01*
X023290Y050769D01*
X023183Y050876D01*
X023076Y050876D01*
X023183Y050876D02*
X023290Y050983D01*
X023290Y051089D01*
X023183Y051196D01*
X022969Y051196D01*
X022863Y051089D01*
D15*
X041678Y050166D02*
X041678Y049536D01*
X041994Y049536D01*
X042099Y049641D01*
X042099Y050061D01*
X041994Y050166D01*
X041678Y050166D01*
X042323Y050166D02*
X042323Y049536D01*
X042638Y049536D01*
X042743Y049641D01*
X042743Y050061D01*
X042638Y050166D01*
X042323Y050166D01*
X042968Y049851D02*
X043283Y049851D01*
X043388Y049746D01*
X043388Y049641D01*
X043283Y049536D01*
X043073Y049536D01*
X042968Y049641D01*
X042968Y049851D01*
X043178Y050061D01*
X043388Y050166D01*
X042888Y029916D02*
X042468Y029916D01*
X042243Y029811D02*
X042138Y029916D01*
X041823Y029916D01*
X041823Y029286D01*
X042138Y029286D01*
X042243Y029391D01*
X042243Y029811D01*
X042468Y029391D02*
X042468Y029286D01*
X042468Y029391D02*
X042888Y029811D01*
X042888Y029916D01*
X041599Y029811D02*
X041599Y029391D01*
X041494Y029286D01*
X041178Y029286D01*
X041178Y029916D01*
X041494Y029916D01*
X041599Y029811D01*
X061434Y009916D02*
X061328Y009811D01*
X061328Y009706D01*
X061434Y009601D01*
X061644Y009601D01*
X061749Y009496D01*
X061749Y009391D01*
X061644Y009286D01*
X061434Y009286D01*
X061328Y009391D01*
X061434Y009916D02*
X061644Y009916D01*
X061749Y009811D01*
X061973Y009811D02*
X061973Y009391D01*
X062078Y009286D01*
X062288Y009286D01*
X062393Y009391D01*
X062618Y009286D02*
X062618Y009706D01*
X062828Y009916D01*
X063038Y009706D01*
X063038Y009286D01*
X063262Y009286D02*
X063262Y009916D01*
X063577Y009916D01*
X063682Y009811D01*
X063682Y009601D01*
X063577Y009496D01*
X063262Y009496D01*
X063472Y009496D02*
X063682Y009286D01*
X064117Y009286D02*
X064117Y009916D01*
X063907Y009916D02*
X064327Y009916D01*
X064551Y009601D02*
X064972Y009601D01*
X065196Y009601D02*
X065406Y009601D01*
X065196Y009916D02*
X065616Y009916D01*
X065196Y009916D02*
X065196Y009286D01*
X063038Y009601D02*
X062618Y009601D01*
X062393Y009811D02*
X062288Y009916D01*
X062078Y009916D01*
X061973Y009811D01*
X057579Y008036D02*
X057474Y008141D01*
X057264Y008141D01*
X057159Y008036D01*
X056935Y008141D02*
X056514Y007511D01*
X056935Y007511D02*
X056514Y008141D01*
X057159Y007511D02*
X057579Y007931D01*
X057579Y008036D01*
X057579Y007511D02*
X057159Y007511D01*
X075745Y014676D02*
X076060Y014676D01*
X076165Y014781D01*
X076165Y015201D01*
X076060Y015306D01*
X075745Y015306D01*
X075745Y014676D01*
X076389Y014676D02*
X076389Y015096D01*
X076600Y015306D01*
X076810Y015096D01*
X076810Y014676D01*
X077034Y014676D02*
X077454Y014676D01*
X077244Y014676D02*
X077244Y015306D01*
X077034Y015096D01*
X076810Y014991D02*
X076389Y014991D01*
D16*
X068768Y024501D02*
X068768Y028501D01*
X076893Y032751D02*
X076893Y036751D01*
D17*
X073393Y035121D02*
X072893Y035121D01*
X072393Y035121D01*
X072393Y034871D02*
X072393Y034621D01*
X073393Y034621D01*
X073393Y034871D01*
X072393Y034871D01*
X072393Y034381D02*
X072893Y034381D01*
X073393Y034381D01*
X065268Y026871D02*
X064768Y026871D01*
X064268Y026871D01*
X064268Y026621D02*
X064268Y026371D01*
X065268Y026371D01*
X065268Y026621D01*
X064268Y026621D01*
X064268Y026131D02*
X064768Y026131D01*
X065268Y026131D01*
D18*
X068818Y025551D02*
X069518Y025551D01*
X069518Y027451D02*
X068818Y027451D01*
X076943Y033801D02*
X077643Y033801D01*
X077643Y035701D02*
X076943Y035701D01*
X064018Y036251D02*
X064018Y036651D01*
X064018Y039851D02*
X064018Y040251D01*
X064268Y041751D02*
X064268Y042151D01*
X064268Y045351D02*
X064268Y045751D01*
X035081Y023751D02*
X035081Y023351D01*
X035081Y020151D02*
X035081Y019751D01*
D19*
X050028Y008643D02*
X050335Y008183D01*
X050488Y008183D02*
X050795Y008183D01*
X050641Y008183D02*
X050641Y008643D01*
X050488Y008490D01*
X050335Y008643D02*
X050028Y008183D01*
X019352Y029635D02*
X019352Y029865D01*
X019276Y029941D01*
X018969Y029941D01*
X018892Y029865D01*
X018892Y029635D01*
X019352Y029635D01*
X019352Y030095D02*
X019352Y030325D01*
X019276Y030402D01*
X018969Y030402D01*
X018892Y030325D01*
X018892Y030095D01*
X019352Y030095D01*
X019352Y030555D02*
X019352Y030862D01*
X019352Y030709D02*
X018892Y030709D01*
X019045Y030555D01*
X018969Y031016D02*
X018892Y031092D01*
X018892Y031246D01*
X018969Y031323D01*
X019276Y031016D01*
X019352Y031092D01*
X019352Y031246D01*
X019276Y031323D01*
X018969Y031323D01*
X018969Y031016D02*
X019276Y031016D01*
X017854Y013606D02*
X017931Y013529D01*
X017931Y013453D01*
X017854Y013376D01*
X017931Y013299D01*
X017931Y013222D01*
X017854Y013146D01*
X017701Y013146D01*
X017624Y013222D01*
X017470Y013146D02*
X017163Y013606D01*
X017470Y013606D02*
X017163Y013146D01*
X017624Y013529D02*
X017701Y013606D01*
X017854Y013606D01*
X017854Y013376D02*
X017777Y013376D01*
X057969Y049727D02*
X057969Y050188D01*
X058199Y050188D01*
X058275Y050111D01*
X058275Y049957D01*
X058199Y049881D01*
X057969Y049881D01*
X058122Y049881D02*
X058275Y049727D01*
X058429Y049651D02*
X058736Y049651D01*
X058889Y049804D02*
X058966Y049727D01*
X059120Y049727D01*
X059196Y049804D01*
X059196Y049881D01*
X059120Y049957D01*
X058966Y049957D01*
X058889Y050034D01*
X058889Y050111D01*
X058966Y050188D01*
X059120Y050188D01*
X059196Y050111D01*
X059350Y050111D02*
X059503Y049957D01*
X059503Y049727D01*
X059503Y049957D02*
X059657Y050111D01*
X059657Y050188D01*
X059350Y050188D02*
X059350Y050111D01*
X060304Y050006D02*
X060534Y050006D01*
X060611Y050082D01*
X060611Y050236D01*
X060534Y050313D01*
X060304Y050313D01*
X060304Y049852D01*
X060457Y050006D02*
X060611Y049852D01*
X060764Y049776D02*
X061071Y049776D01*
X061225Y049852D02*
X061225Y050313D01*
X061455Y050313D01*
X061532Y050236D01*
X061532Y050082D01*
X061455Y050006D01*
X061225Y050006D01*
X061378Y050006D02*
X061532Y049852D01*
X062179Y049881D02*
X062409Y049881D01*
X062486Y049957D01*
X062486Y050111D01*
X062409Y050188D01*
X062179Y050188D01*
X062179Y049727D01*
X062332Y049881D02*
X062486Y049727D01*
X062639Y049651D02*
X062946Y049651D01*
X063100Y049804D02*
X063100Y050111D01*
X063176Y050188D01*
X063330Y050188D01*
X063407Y050111D01*
X063407Y049957D02*
X063253Y049957D01*
X063407Y049957D02*
X063407Y049804D01*
X063330Y049727D01*
X063176Y049727D01*
X063100Y049804D01*
X064179Y049727D02*
X064179Y050188D01*
X064409Y050188D01*
X064486Y050111D01*
X064486Y049957D01*
X064409Y049881D01*
X064179Y049881D01*
X064332Y049881D02*
X064486Y049727D01*
X064639Y049651D02*
X064946Y049651D01*
X065100Y049727D02*
X065330Y049727D01*
X065407Y049804D01*
X065407Y049881D01*
X065330Y049957D01*
X065100Y049957D01*
X065100Y049727D02*
X065100Y050188D01*
X065330Y050188D01*
X065407Y050111D01*
X065407Y050034D01*
X065330Y049957D01*
X068113Y050072D02*
X068190Y049996D01*
X068344Y049996D01*
X068420Y050072D01*
X068420Y050149D01*
X068344Y050226D01*
X068190Y050226D01*
X068113Y050303D01*
X068113Y050379D01*
X068190Y050456D01*
X068344Y050456D01*
X068420Y050379D01*
X068574Y050456D02*
X068804Y050456D01*
X068881Y050379D01*
X068881Y050072D01*
X068804Y049996D01*
X068574Y049996D01*
X068574Y050456D01*
X069034Y049996D02*
X069341Y050456D01*
X069495Y050456D02*
X069648Y050303D01*
X069802Y050456D01*
X069802Y049996D01*
X069955Y049996D02*
X069955Y050456D01*
X070109Y050303D01*
X070262Y050456D01*
X070262Y049996D01*
X070415Y050072D02*
X070492Y049996D01*
X070646Y049996D01*
X070722Y050072D01*
X070415Y050072D02*
X070415Y050379D01*
X070492Y050456D01*
X070646Y050456D01*
X070722Y050379D01*
X071336Y050379D02*
X071336Y050072D01*
X071413Y049996D01*
X071566Y049996D01*
X071643Y050072D01*
X071797Y050072D02*
X071873Y050149D01*
X072104Y050149D01*
X072104Y050226D02*
X072104Y049996D01*
X071873Y049996D01*
X071797Y050072D01*
X071873Y050303D02*
X072027Y050303D01*
X072104Y050226D01*
X072257Y050303D02*
X072257Y049996D01*
X072257Y050149D02*
X072410Y050303D01*
X072487Y050303D01*
X072641Y050226D02*
X072717Y050303D01*
X072948Y050303D01*
X072948Y050456D02*
X072948Y049996D01*
X072717Y049996D01*
X072641Y050072D01*
X072641Y050226D01*
X071643Y050379D02*
X071566Y050456D01*
X071413Y050456D01*
X071336Y050379D01*
X069495Y050456D02*
X069495Y049996D01*
X069392Y054659D02*
X069392Y055092D01*
X068644Y055092D01*
X068644Y054659D01*
X069392Y054659D01*
X069369Y055289D02*
X069599Y055289D01*
X069676Y055366D01*
X069676Y055673D01*
X069599Y055750D01*
X069369Y055750D01*
X069369Y055289D01*
X069215Y055289D02*
X068908Y055289D01*
X068908Y055750D01*
X069215Y055750D01*
X069062Y055519D02*
X068908Y055519D01*
X068755Y055289D02*
X068448Y055289D01*
X068448Y055750D01*
X069829Y055673D02*
X069906Y055750D01*
X070059Y055750D01*
X070136Y055673D01*
X070136Y055596D01*
X069829Y055289D01*
X070136Y055289D01*
X071519Y055909D02*
X071519Y056342D01*
X072267Y056342D01*
X072267Y055909D01*
X071519Y055909D01*
X071630Y056539D02*
X071323Y056539D01*
X071323Y057000D01*
X071783Y057000D02*
X071783Y056539D01*
X072090Y056539D01*
X072244Y056539D02*
X072474Y056539D01*
X072551Y056616D01*
X072551Y056923D01*
X072474Y057000D01*
X072244Y057000D01*
X072244Y056539D01*
X071937Y056769D02*
X071783Y056769D01*
X071783Y057000D02*
X072090Y057000D01*
X072704Y056846D02*
X072858Y057000D01*
X072858Y056539D01*
X073011Y056539D02*
X072704Y056539D01*
X038312Y050772D02*
X038005Y050772D01*
X038236Y051002D01*
X038236Y050542D01*
X037852Y050618D02*
X037852Y050925D01*
X037775Y051002D01*
X037545Y051002D01*
X037545Y050542D01*
X037775Y050542D01*
X037852Y050618D01*
X037391Y050618D02*
X037391Y050925D01*
X037315Y051002D01*
X037085Y051002D01*
X037085Y050542D01*
X037315Y050542D01*
X037391Y050618D01*
X032613Y050617D02*
X032537Y050541D01*
X032383Y050541D01*
X032306Y050617D01*
X032153Y050617D02*
X032153Y050924D01*
X032076Y051001D01*
X031846Y051001D01*
X031846Y050541D01*
X032076Y050541D01*
X032153Y050617D01*
X032306Y050771D02*
X032460Y050848D01*
X032537Y050848D01*
X032613Y050771D01*
X032613Y050617D01*
X032306Y050771D02*
X032306Y051001D01*
X032613Y051001D01*
X031693Y050924D02*
X031616Y051001D01*
X031386Y051001D01*
X031386Y050541D01*
X031616Y050541D01*
X031693Y050617D01*
X031693Y050924D01*
D20*
X064268Y045171D03*
X064268Y042331D03*
X064018Y039671D03*
X064018Y036831D03*
X035081Y023171D03*
X035081Y020331D03*
D21*
X057593Y015501D03*
X061593Y014876D03*
X064593Y014876D03*
X067593Y014876D03*
X070218Y015501D03*
X070443Y035376D03*
D22*
X070018Y033876D03*
X069018Y033876D03*
X069018Y032876D03*
X069018Y031876D03*
X070018Y031876D03*
X070018Y032876D03*
X066143Y033001D03*
X065143Y033001D03*
X065143Y032001D03*
X066143Y032001D03*
X066143Y031001D03*
X065143Y031001D03*
X065143Y030001D03*
X066143Y030001D03*
X066143Y034001D03*
X065143Y034001D03*
X071768Y022376D03*
X071768Y021376D03*
X071768Y020376D03*
X075643Y013876D03*
X076643Y013876D03*
X077643Y013876D03*
D23*
X020524Y012257D02*
X020524Y007376D01*
X015013Y007376D01*
X015013Y012257D01*
X020524Y012257D01*
X020524Y007769D02*
X015013Y007769D01*
D24*
X058008Y046913D02*
X058008Y050338D01*
X059779Y050338D01*
X059779Y046913D01*
X058008Y046913D01*
X060008Y046913D02*
X060008Y050338D01*
X061779Y050338D01*
X061779Y046913D01*
X060008Y046913D01*
X062008Y046913D02*
X062008Y050338D01*
X063779Y050338D01*
X063779Y046913D01*
X062008Y046913D01*
X064008Y046913D02*
X064008Y050338D01*
X065779Y050338D01*
X065779Y046913D01*
X064008Y046913D01*
D25*
X064893Y047622D03*
X062893Y047622D03*
X060893Y047622D03*
X058893Y047622D03*
D26*
X072268Y026326D03*
X055893Y013076D03*
D27*
X056293Y011101D02*
X056293Y007051D01*
X073993Y007051D02*
X073993Y011101D01*
D28*
X069009Y054807D02*
X068950Y054866D01*
X069018Y054935D01*
X069078Y054876D01*
X069009Y054807D01*
X071825Y056116D02*
X071884Y056057D01*
X071953Y056126D01*
X071893Y056185D01*
X071825Y056116D01*
D29*
X071785Y056283D03*
X068910Y055033D03*
D30*
X058893Y049626D02*
X056768Y046938D01*
X056768Y045188D02*
X054768Y044626D01*
X057268Y044376D02*
X062268Y044376D01*
X070269Y040626D02*
X069993Y038876D01*
X071143Y039876D02*
X071017Y040626D01*
X070790Y036022D02*
X070143Y035376D01*
X070018Y031876D01*
X069018Y031876D02*
X068893Y030751D01*
X070018Y032876D02*
X069143Y034501D01*
X070018Y033876D02*
X067143Y034126D01*
X065643Y034876D02*
X061268Y034376D01*
X057268Y033376D01*
X052268Y034376D01*
X050268Y038376D01*
X057268Y033376D02*
X055893Y027376D01*
X051268Y021000D02*
X048518Y017751D01*
X059143Y019750D02*
X068643Y019751D01*
X068393Y021377D02*
X074268Y021001D01*
X075893Y025001D02*
X077893Y027376D01*
X065393Y037251D02*
X061268Y037376D01*
X059518Y035251D01*
X036268Y021001D02*
X035518Y021626D01*
X070518Y015501D02*
X072643Y013251D01*
M02*
