G75*
G70*
%OFA0B0*%
%FSLAX24Y24*%
%IPPOS*%
%LPD*%
%AMOC8*
5,1,8,0,0,1.08239X$1,22.5*
%
%ADD10C,0.0700*%
%ADD11C,0.0635*%
%ADD12C,0.0555*%
%ADD13R,0.0512X0.0591*%
%ADD14R,0.0591X0.0512*%
%ADD15R,0.0710X0.0630*%
%ADD16R,0.0630X0.0710*%
%ADD17R,0.0709X0.0630*%
%ADD18C,0.0715*%
%ADD19OC8,0.0715*%
%ADD20C,0.0900*%
%ADD21C,0.0669*%
%ADD22C,0.1266*%
%ADD23C,0.0555*%
%ADD24OC8,0.0635*%
%ADD25C,0.0635*%
%ADD26R,0.0630X0.0512*%
%ADD27R,0.0512X0.0630*%
%ADD28C,0.0835*%
%ADD29C,0.0240*%
%ADD30C,0.0120*%
%ADD31C,0.0860*%
%ADD32C,0.0160*%
%ADD33C,0.0320*%
%ADD34C,0.0560*%
D10*
X022086Y010709D03*
X023086Y010709D03*
X024086Y010709D03*
X025086Y010709D03*
X026086Y010709D03*
X027086Y010709D03*
X027086Y009709D03*
X026086Y009709D03*
X025086Y009709D03*
X024086Y009709D03*
X023086Y009709D03*
X023086Y011709D03*
X023086Y012709D03*
X022086Y012709D03*
X022086Y011709D03*
X022086Y013709D03*
X022086Y014709D03*
X023086Y014709D03*
X023086Y013709D03*
X023086Y015709D03*
X023086Y016709D03*
X022086Y016709D03*
X022086Y015709D03*
X022086Y017709D03*
X022086Y018709D03*
X023086Y018709D03*
X023086Y017709D03*
X023086Y019709D03*
X023086Y020709D03*
X024086Y020709D03*
X025086Y020709D03*
X026086Y020709D03*
X027086Y020709D03*
X027086Y021709D03*
X026086Y021709D03*
X025086Y021709D03*
X024086Y021709D03*
X023086Y021709D03*
X022086Y020709D03*
X022086Y019709D03*
X028086Y020709D03*
X029086Y020709D03*
X030086Y020709D03*
X031086Y020709D03*
X032086Y020709D03*
X033086Y020709D03*
X033086Y019709D03*
X034086Y019709D03*
X034086Y020709D03*
X033086Y021709D03*
X032086Y021709D03*
X031086Y021709D03*
X030086Y021709D03*
X029086Y021709D03*
X028086Y021709D03*
X033086Y018709D03*
X033086Y017709D03*
X034086Y017709D03*
X034086Y018709D03*
X034086Y016709D03*
X034086Y015709D03*
X033086Y015709D03*
X033086Y016709D03*
X033086Y014709D03*
X033086Y013709D03*
X034086Y013709D03*
X034086Y014709D03*
X034086Y012709D03*
X034086Y011709D03*
X033086Y011709D03*
X033086Y012709D03*
X033086Y010709D03*
X032086Y010709D03*
X031086Y010709D03*
X030086Y010709D03*
X029086Y010709D03*
X028086Y010709D03*
X028086Y009709D03*
X029086Y009709D03*
X030086Y009709D03*
X031086Y009709D03*
X032086Y009709D03*
X033086Y009709D03*
X034086Y010709D03*
D11*
X037018Y011209D02*
X037653Y011209D01*
X037653Y010209D02*
X037018Y010209D01*
X037018Y009209D02*
X037653Y009209D01*
X037653Y008209D02*
X037018Y008209D01*
X037018Y007209D02*
X037653Y007209D01*
X037653Y006209D02*
X037018Y006209D01*
X039893Y006209D02*
X040528Y006209D01*
X040528Y007209D02*
X039893Y007209D01*
X039893Y008209D02*
X040528Y008209D01*
X040528Y009209D02*
X039893Y009209D01*
X039893Y010209D02*
X040528Y010209D01*
X040528Y011209D02*
X039893Y011209D01*
X039893Y012209D02*
X040528Y012209D01*
X040528Y013209D02*
X039893Y013209D01*
X039893Y014209D02*
X040528Y014209D01*
X040528Y015209D02*
X039893Y015209D01*
X039893Y016209D02*
X040528Y016209D01*
X040528Y017209D02*
X039893Y017209D01*
X039893Y018209D02*
X040528Y018209D01*
X040528Y019209D02*
X039893Y019209D01*
X037653Y019209D02*
X037018Y019209D01*
X037018Y018209D02*
X037653Y018209D01*
X037653Y017209D02*
X037018Y017209D01*
X037018Y016209D02*
X037653Y016209D01*
X037653Y015209D02*
X037018Y015209D01*
X037018Y014209D02*
X037653Y014209D01*
X037653Y013209D02*
X037018Y013209D01*
X037018Y012209D02*
X037653Y012209D01*
X043018Y012209D02*
X043653Y012209D01*
X043653Y013209D02*
X043018Y013209D01*
X043018Y014209D02*
X043653Y014209D01*
X043653Y015209D02*
X043018Y015209D01*
X043018Y016209D02*
X043653Y016209D01*
X043653Y017209D02*
X043018Y017209D01*
X043018Y018209D02*
X043653Y018209D01*
X043653Y019209D02*
X043018Y019209D01*
X044772Y013838D02*
X045407Y013838D01*
X045407Y012838D02*
X044772Y012838D01*
X044772Y011838D02*
X045407Y011838D01*
X045407Y010838D02*
X044772Y010838D01*
X043653Y011209D02*
X043018Y011209D01*
X043018Y010209D02*
X043653Y010209D01*
X044772Y009838D02*
X045407Y009838D01*
X045407Y008838D02*
X044772Y008838D01*
X043653Y009209D02*
X043018Y009209D01*
X043018Y008209D02*
X043653Y008209D01*
X044772Y007838D02*
X045407Y007838D01*
X045407Y006838D02*
X044772Y006838D01*
X043653Y007209D02*
X043018Y007209D01*
X043018Y006209D02*
X043653Y006209D01*
X044772Y005838D02*
X045407Y005838D01*
X045407Y004838D02*
X044772Y004838D01*
X047772Y004838D02*
X048407Y004838D01*
X048407Y005838D02*
X047772Y005838D01*
X047772Y006838D02*
X048407Y006838D01*
X048407Y007838D02*
X047772Y007838D01*
X047772Y008838D02*
X048407Y008838D01*
X048407Y009838D02*
X047772Y009838D01*
X047772Y010838D02*
X048407Y010838D01*
X048407Y011838D02*
X047772Y011838D01*
X047772Y012838D02*
X048407Y012838D01*
X049596Y012339D02*
X050231Y012339D01*
X050231Y011339D02*
X049596Y011339D01*
X049596Y010339D02*
X050231Y010339D01*
X050231Y009339D02*
X049596Y009339D01*
X049596Y008339D02*
X050231Y008339D01*
X050231Y007339D02*
X049596Y007339D01*
X049596Y006339D02*
X050231Y006339D01*
X050231Y005339D02*
X049596Y005339D01*
X049596Y004339D02*
X050231Y004339D01*
X050231Y003339D02*
X049596Y003339D01*
X052596Y003339D02*
X053231Y003339D01*
X053231Y004339D02*
X052596Y004339D01*
X052596Y005339D02*
X053231Y005339D01*
X053231Y006339D02*
X052596Y006339D01*
X052596Y007339D02*
X053231Y007339D01*
X053231Y008339D02*
X052596Y008339D01*
X052596Y009339D02*
X053231Y009339D01*
X053231Y010339D02*
X052596Y010339D01*
X052596Y011339D02*
X053231Y011339D01*
X053231Y012339D02*
X052596Y012339D01*
X052580Y013963D02*
X053214Y013963D01*
X053214Y014963D02*
X052580Y014963D01*
X052580Y015963D02*
X053214Y015963D01*
X053214Y016963D02*
X052580Y016963D01*
X052580Y017963D02*
X053214Y017963D01*
X053214Y018963D02*
X052580Y018963D01*
X052580Y019963D02*
X053214Y019963D01*
X053214Y020963D02*
X052580Y020963D01*
X052580Y021963D02*
X053214Y021963D01*
X053214Y022963D02*
X052580Y022963D01*
X050214Y022963D02*
X049580Y022963D01*
X049580Y021963D02*
X050214Y021963D01*
X050214Y020963D02*
X049580Y020963D01*
X049580Y019963D02*
X050214Y019963D01*
X050214Y018963D02*
X049580Y018963D01*
X049580Y017963D02*
X050214Y017963D01*
X050214Y016963D02*
X049580Y016963D01*
X049580Y015963D02*
X050214Y015963D01*
X050214Y014963D02*
X049580Y014963D01*
X049580Y013963D02*
X050214Y013963D01*
X048407Y013838D02*
X047772Y013838D01*
X055768Y014334D02*
X056403Y014334D01*
X056403Y015334D02*
X055768Y015334D01*
X055768Y016334D02*
X056403Y016334D01*
X056403Y017334D02*
X055768Y017334D01*
X055768Y018334D02*
X056403Y018334D01*
X061768Y018334D02*
X062403Y018334D01*
X062403Y017334D02*
X061768Y017334D01*
X061768Y016334D02*
X062403Y016334D01*
X062403Y015334D02*
X061768Y015334D01*
X061768Y014334D02*
X062403Y014334D01*
X062403Y013334D02*
X061768Y013334D01*
X061768Y012334D02*
X062403Y012334D01*
X062403Y011334D02*
X061768Y011334D01*
X061768Y010334D02*
X062403Y010334D01*
X062403Y009334D02*
X061768Y009334D01*
X061768Y008334D02*
X062403Y008334D01*
X062403Y007334D02*
X061768Y007334D01*
X061768Y006334D02*
X062403Y006334D01*
X062403Y005334D02*
X061768Y005334D01*
X061768Y004334D02*
X062403Y004334D01*
X062403Y003334D02*
X061768Y003334D01*
X056403Y003334D02*
X055768Y003334D01*
X055768Y004334D02*
X056403Y004334D01*
X056403Y005334D02*
X055768Y005334D01*
X055768Y006334D02*
X056403Y006334D01*
X056403Y007334D02*
X055768Y007334D01*
X055768Y008334D02*
X056403Y008334D01*
X056403Y009334D02*
X055768Y009334D01*
X055768Y010334D02*
X056403Y010334D01*
X056403Y011334D02*
X055768Y011334D01*
X055768Y012334D02*
X056403Y012334D01*
X056403Y013334D02*
X055768Y013334D01*
X053653Y026084D02*
X053018Y026084D01*
X053018Y027084D02*
X053653Y027084D01*
X053653Y028084D02*
X053018Y028084D01*
X053018Y029084D02*
X053653Y029084D01*
X053653Y030084D02*
X053018Y030084D01*
X053018Y031084D02*
X053653Y031084D01*
X053653Y032084D02*
X053018Y032084D01*
X053018Y033084D02*
X053653Y033084D01*
X053653Y034084D02*
X053018Y034084D01*
X053018Y035084D02*
X053653Y035084D01*
X053653Y036084D02*
X053018Y036084D01*
X053018Y037084D02*
X053653Y037084D01*
X053653Y038084D02*
X053018Y038084D01*
X053018Y039084D02*
X053653Y039084D01*
X053653Y040084D02*
X053018Y040084D01*
X053018Y041084D02*
X053653Y041084D01*
X053653Y042084D02*
X053018Y042084D01*
X053018Y043084D02*
X053653Y043084D01*
X053653Y044084D02*
X053018Y044084D01*
X053018Y045084D02*
X053653Y045084D01*
X055768Y045084D02*
X056403Y045084D01*
X056403Y044084D02*
X055768Y044084D01*
X055768Y043084D02*
X056403Y043084D01*
X056403Y042084D02*
X055768Y042084D01*
X055768Y041084D02*
X056403Y041084D01*
X056403Y040084D02*
X055768Y040084D01*
X055768Y039084D02*
X056403Y039084D01*
X056403Y038084D02*
X055768Y038084D01*
X055768Y037084D02*
X056403Y037084D01*
X056403Y036084D02*
X055768Y036084D01*
X055768Y035084D02*
X056403Y035084D01*
X056403Y034084D02*
X055768Y034084D01*
X055768Y033084D02*
X056403Y033084D01*
X056403Y032084D02*
X055768Y032084D01*
X055768Y031084D02*
X056403Y031084D01*
X056403Y030084D02*
X055768Y030084D01*
X061768Y030084D02*
X062403Y030084D01*
X062403Y031084D02*
X061768Y031084D01*
X061768Y032084D02*
X062403Y032084D01*
X062403Y033084D02*
X061768Y033084D01*
X061768Y034084D02*
X062403Y034084D01*
X062403Y035084D02*
X061768Y035084D01*
X061768Y036084D02*
X062403Y036084D01*
X062403Y037084D02*
X061768Y037084D01*
X061768Y038084D02*
X062403Y038084D01*
X062403Y039084D02*
X061768Y039084D01*
X061768Y040084D02*
X062403Y040084D01*
X062403Y041084D02*
X061768Y041084D01*
X061768Y042084D02*
X062403Y042084D01*
X062403Y043084D02*
X061768Y043084D01*
X061768Y044084D02*
X062403Y044084D01*
X062403Y045084D02*
X061768Y045084D01*
X047653Y045084D02*
X047018Y045084D01*
X047018Y044084D02*
X047653Y044084D01*
X047653Y043084D02*
X047018Y043084D01*
X047018Y042084D02*
X047653Y042084D01*
X047653Y041084D02*
X047018Y041084D01*
X047018Y040084D02*
X047653Y040084D01*
X047653Y039084D02*
X047018Y039084D01*
X047018Y038084D02*
X047653Y038084D01*
X047653Y037084D02*
X047018Y037084D01*
X047018Y036084D02*
X047653Y036084D01*
X047653Y035084D02*
X047018Y035084D01*
X047018Y034084D02*
X047653Y034084D01*
X047653Y033084D02*
X047018Y033084D01*
X047018Y032084D02*
X047653Y032084D01*
X047653Y031084D02*
X047018Y031084D01*
X047018Y030084D02*
X047653Y030084D01*
X047653Y029084D02*
X047018Y029084D01*
X047018Y028084D02*
X047653Y028084D01*
X047653Y027084D02*
X047018Y027084D01*
X047018Y026084D02*
X047653Y026084D01*
X042403Y026084D02*
X041768Y026084D01*
X041768Y027084D02*
X042403Y027084D01*
X042403Y028084D02*
X041768Y028084D01*
X041768Y029084D02*
X042403Y029084D01*
X042403Y030084D02*
X041768Y030084D01*
X041768Y031084D02*
X042403Y031084D01*
X042403Y032084D02*
X041768Y032084D01*
X041768Y033084D02*
X042403Y033084D01*
X042403Y034084D02*
X041768Y034084D01*
X041768Y035084D02*
X042403Y035084D01*
X042403Y036084D02*
X041768Y036084D01*
X041768Y037084D02*
X042403Y037084D01*
X042403Y038084D02*
X041768Y038084D01*
X041768Y039084D02*
X042403Y039084D01*
X042403Y040084D02*
X041768Y040084D01*
X041768Y041084D02*
X042403Y041084D01*
X042403Y042084D02*
X041768Y042084D01*
X041768Y043084D02*
X042403Y043084D01*
X042403Y044084D02*
X041768Y044084D01*
X041768Y045084D02*
X042403Y045084D01*
X036403Y045084D02*
X035768Y045084D01*
X035768Y044084D02*
X036403Y044084D01*
X036403Y043084D02*
X035768Y043084D01*
X035768Y042084D02*
X036403Y042084D01*
X036403Y041084D02*
X035768Y041084D01*
X035768Y040084D02*
X036403Y040084D01*
X036403Y039084D02*
X035768Y039084D01*
X035768Y038084D02*
X036403Y038084D01*
X036403Y037084D02*
X035768Y037084D01*
X035768Y036084D02*
X036403Y036084D01*
X036403Y035084D02*
X035768Y035084D01*
X035768Y034084D02*
X036403Y034084D01*
X036403Y033084D02*
X035768Y033084D01*
X035768Y032084D02*
X036403Y032084D01*
X036403Y031084D02*
X035768Y031084D01*
X035768Y030084D02*
X036403Y030084D01*
X036403Y029084D02*
X035768Y029084D01*
X035768Y028084D02*
X036403Y028084D01*
X036403Y027084D02*
X035768Y027084D01*
X035768Y026084D02*
X036403Y026084D01*
X030903Y026084D02*
X030268Y026084D01*
X030268Y027084D02*
X030903Y027084D01*
X030903Y028084D02*
X030268Y028084D01*
X030268Y029084D02*
X030903Y029084D01*
X030903Y030084D02*
X030268Y030084D01*
X030268Y031084D02*
X030903Y031084D01*
X030903Y032084D02*
X030268Y032084D01*
X030268Y033084D02*
X030903Y033084D01*
X030903Y034084D02*
X030268Y034084D01*
X030268Y035084D02*
X030903Y035084D01*
X030903Y036084D02*
X030268Y036084D01*
X030268Y037084D02*
X030903Y037084D01*
X030903Y038084D02*
X030268Y038084D01*
X030268Y039084D02*
X030903Y039084D01*
X030903Y040084D02*
X030268Y040084D01*
X030268Y041084D02*
X030903Y041084D01*
X030903Y042084D02*
X030268Y042084D01*
X030268Y043084D02*
X030903Y043084D01*
X030903Y044084D02*
X030268Y044084D01*
X030268Y045084D02*
X030903Y045084D01*
X024903Y045084D02*
X024268Y045084D01*
X024268Y044084D02*
X024903Y044084D01*
X024903Y043084D02*
X024268Y043084D01*
X024268Y042084D02*
X024903Y042084D01*
X024903Y041084D02*
X024268Y041084D01*
X024268Y040084D02*
X024903Y040084D01*
X024903Y039084D02*
X024268Y039084D01*
X024268Y038084D02*
X024903Y038084D01*
X024903Y037084D02*
X024268Y037084D01*
X024268Y036084D02*
X024903Y036084D01*
X024903Y035084D02*
X024268Y035084D01*
X024268Y034084D02*
X024903Y034084D01*
X024903Y033084D02*
X024268Y033084D01*
X024268Y032084D02*
X024903Y032084D01*
X024903Y031084D02*
X024268Y031084D01*
X024268Y030084D02*
X024903Y030084D01*
X024903Y029084D02*
X024268Y029084D01*
X024268Y028084D02*
X024903Y028084D01*
X024903Y027084D02*
X024268Y027084D01*
X024268Y026084D02*
X024903Y026084D01*
X022211Y031266D02*
X022211Y031901D01*
X021211Y031901D02*
X021211Y031266D01*
X020211Y031266D02*
X020211Y031901D01*
X019211Y031901D02*
X019211Y031266D01*
X018211Y031266D02*
X018211Y031901D01*
X017211Y031901D02*
X017211Y031266D01*
X016211Y031266D02*
X016211Y031901D01*
X015211Y031901D02*
X015211Y031266D01*
X014211Y031266D02*
X014211Y031901D01*
X013211Y031901D02*
X013211Y031266D01*
X012211Y031266D02*
X012211Y031901D01*
X011211Y031901D02*
X011211Y031266D01*
X011211Y035266D02*
X011211Y035901D01*
X012211Y035901D02*
X012211Y035266D01*
X013211Y035266D02*
X013211Y035901D01*
X014211Y035901D02*
X014211Y035266D01*
X015211Y035266D02*
X015211Y035901D01*
X016211Y035901D02*
X016211Y035266D01*
X017211Y035266D02*
X017211Y035901D01*
X018211Y035901D02*
X018211Y035266D01*
X019211Y035266D02*
X019211Y035901D01*
X020211Y035901D02*
X020211Y035266D01*
X021211Y035266D02*
X021211Y035901D01*
X022211Y035901D02*
X022211Y035266D01*
X011586Y026901D02*
X011586Y026266D01*
X010586Y026266D02*
X010586Y026901D01*
X009586Y026901D02*
X009586Y026266D01*
X008586Y026266D02*
X008586Y026901D01*
X007586Y026901D02*
X007586Y026266D01*
X006586Y026266D02*
X006586Y026901D01*
X005586Y026901D02*
X005586Y026266D01*
X005586Y023901D02*
X005586Y023266D01*
X006586Y023266D02*
X006586Y023901D01*
X007586Y023901D02*
X007586Y023266D01*
X008586Y023266D02*
X008586Y023901D01*
X009586Y023901D02*
X009586Y023266D01*
X010586Y023266D02*
X010586Y023901D01*
X011586Y023901D02*
X011586Y023266D01*
D12*
X008336Y021986D02*
X008336Y021431D01*
X006336Y021431D02*
X006336Y021986D01*
X006461Y028556D02*
X006461Y029111D01*
X008461Y029111D02*
X008461Y028556D01*
D13*
X008587Y025584D03*
X009335Y025584D03*
X008335Y024709D03*
X007587Y024709D03*
X007460Y025584D03*
X006712Y025584D03*
X006335Y024709D03*
X005587Y024709D03*
X020212Y012959D03*
X020960Y012959D03*
X021587Y009209D03*
X022335Y009209D03*
X022085Y008209D03*
X021337Y008209D03*
X023087Y007084D03*
X023835Y007084D03*
X022210Y006584D03*
X021462Y006584D03*
X025837Y007084D03*
X026585Y007084D03*
X026462Y011584D03*
X027210Y011584D03*
X049962Y030084D03*
X050710Y030084D03*
X046210Y034084D03*
X045462Y034084D03*
X045337Y035334D03*
X046085Y035334D03*
X033710Y045084D03*
X032962Y045084D03*
X032460Y042709D03*
X031712Y042709D03*
X027585Y039459D03*
X026837Y039459D03*
X027462Y038084D03*
X028210Y038084D03*
X026460Y042084D03*
X025712Y042084D03*
X025712Y043084D03*
X026460Y043084D03*
X026460Y044084D03*
X025712Y044084D03*
X025712Y045084D03*
X026460Y045084D03*
X026585Y047459D03*
X025837Y047459D03*
X027212Y054084D03*
X027960Y054084D03*
X049962Y052334D03*
X050710Y052334D03*
X050710Y051334D03*
X049962Y051334D03*
D14*
X045086Y036583D03*
X045086Y035835D03*
X044336Y035835D03*
X044336Y036583D03*
X044336Y034583D03*
X044336Y033835D03*
X028336Y040085D03*
X028336Y040833D03*
X027336Y042460D03*
X027336Y043208D03*
X025961Y041208D03*
X025961Y040460D03*
X025961Y039458D03*
X025961Y038710D03*
X022211Y034583D03*
X022211Y033835D03*
X019211Y033458D03*
X019211Y032710D03*
X019461Y036710D03*
X019461Y037458D03*
X020336Y037458D03*
X020336Y036710D03*
X015211Y036710D03*
X015211Y037458D03*
X014211Y033333D03*
X014211Y032585D03*
X013211Y032585D03*
X013211Y033333D03*
X012211Y033333D03*
X012211Y032585D03*
X027836Y013083D03*
X027836Y012335D03*
X020836Y009833D03*
X020836Y009085D03*
D15*
X037336Y036024D03*
X038336Y036024D03*
X038336Y037143D03*
X037336Y037143D03*
X033211Y041524D03*
X033211Y042643D03*
D16*
X029521Y043084D03*
X028401Y043084D03*
D17*
X028086Y046407D03*
X028086Y047510D03*
X042961Y001635D03*
X042961Y000532D03*
D18*
X032711Y039084D03*
D19*
X033711Y039084D03*
X033711Y038084D03*
X032711Y038084D03*
X032711Y037084D03*
X033711Y037084D03*
X019961Y018209D03*
X018961Y018209D03*
X018961Y017209D03*
X019961Y017209D03*
X019961Y016209D03*
X018961Y016209D03*
X018961Y015209D03*
X019961Y015209D03*
X019961Y014209D03*
X018961Y014209D03*
D20*
X078557Y061545D03*
X077585Y062541D03*
X080530Y062537D03*
X082494Y061549D03*
X083494Y062541D03*
X082494Y066471D03*
X078554Y066471D03*
D21*
X051550Y053237D03*
X050723Y053237D03*
X049699Y053237D03*
X048872Y053237D03*
X048872Y052253D03*
X051550Y052253D03*
D22*
X050211Y054733D03*
D23*
X017711Y005584D03*
X018711Y005584D03*
X019711Y005584D03*
X019711Y007584D03*
X018711Y007584D03*
X017711Y007584D03*
X017711Y009584D03*
X018711Y009584D03*
X019711Y009584D03*
X019711Y011584D03*
X018711Y011584D03*
X017711Y011584D03*
D24*
X021336Y028834D03*
X020836Y039834D03*
X018836Y039709D03*
X016336Y039834D03*
D25*
X016336Y038834D03*
X018836Y038709D03*
X020836Y038834D03*
X022336Y028834D03*
D26*
X017211Y033835D03*
X017211Y034583D03*
X016086Y036710D03*
X016086Y037458D03*
X018586Y037458D03*
X018586Y036710D03*
D27*
X017710Y037459D03*
X016962Y037459D03*
D28*
X025711Y049666D02*
X025711Y050501D01*
X026461Y051666D02*
X026461Y052501D01*
X027961Y052501D02*
X027961Y051666D01*
X028711Y050501D02*
X028711Y049666D01*
X027211Y049666D02*
X027211Y050501D01*
X029461Y051666D02*
X029461Y052501D01*
X030961Y052501D02*
X030961Y051666D01*
X031711Y050501D02*
X031711Y049666D01*
X033211Y049666D02*
X033211Y050501D01*
X034711Y050501D02*
X034711Y049666D01*
X036211Y049666D02*
X036211Y050501D01*
X036961Y051666D02*
X036961Y052501D01*
X038461Y052501D02*
X038461Y051666D01*
X039211Y050501D02*
X039211Y049666D01*
X040711Y049666D02*
X040711Y050501D01*
X039961Y051666D02*
X039961Y052501D01*
X037711Y050501D02*
X037711Y049666D01*
X035461Y051666D02*
X035461Y052501D01*
X033961Y052501D02*
X033961Y051666D01*
X032461Y051666D02*
X032461Y052501D01*
X030211Y050501D02*
X030211Y049666D01*
D29*
X028711Y050084D02*
X027961Y052084D01*
X034711Y050084D02*
X035461Y052084D01*
X038461Y052084D02*
X037711Y050084D01*
X026460Y044084D02*
X026460Y043084D01*
X026460Y042084D01*
X025712Y044084D02*
X025712Y045084D01*
X024586Y045084D01*
X037336Y036024D02*
X038336Y036024D01*
X038336Y037143D02*
X038336Y038683D01*
X038205Y038814D01*
X049211Y023709D02*
X052151Y023709D01*
X052897Y022963D01*
X049211Y023709D02*
X044711Y019209D01*
X043336Y019209D01*
X039711Y019209D01*
X038961Y019959D01*
X036086Y019959D01*
X035836Y019709D01*
X034086Y019709D01*
X048090Y013838D02*
X048094Y013834D01*
X048461Y013834D01*
X049211Y013084D01*
X050961Y013084D01*
X051711Y012334D01*
X052909Y012334D01*
X052914Y012339D01*
X056086Y005334D02*
X056836Y005334D01*
X057211Y004959D01*
X057211Y003334D01*
X056086Y003334D01*
X052919Y003334D01*
X052914Y003339D01*
X049914Y003339D02*
X048706Y003339D01*
X048086Y003959D01*
X048086Y004834D01*
X048090Y004838D01*
X045090Y004838D01*
X010586Y026584D02*
X009586Y026584D01*
X008461Y028834D01*
X006461Y028834D02*
X006586Y026584D01*
X006712Y025584D01*
X007460Y025584D02*
X007586Y026584D01*
X008586Y026584D01*
X008587Y025584D01*
X009335Y025584D02*
X009586Y026584D01*
X008335Y024709D02*
X008586Y023584D01*
X008336Y021709D01*
X008586Y023584D02*
X009586Y023584D01*
X007586Y023584D02*
X007587Y024709D01*
X006335Y024709D02*
X006586Y023584D01*
X007586Y023584D01*
X005586Y023584D02*
X005587Y024709D01*
X005586Y023584D02*
X006336Y021709D01*
D30*
X012211Y034459D02*
X011711Y034959D01*
X011711Y037709D01*
X013211Y038834D02*
X013711Y039334D01*
X013711Y039584D01*
X014961Y037834D01*
X013836Y037584D02*
X013836Y036459D01*
X013711Y036334D01*
X013711Y035084D01*
X013336Y034709D01*
X012586Y034709D01*
X012211Y035084D01*
X012211Y035584D01*
X013211Y035584D02*
X013211Y038834D01*
X014461Y038959D02*
X013836Y037584D01*
X014461Y038959D02*
X014461Y039209D01*
X014211Y035584D02*
X014211Y034959D01*
X013711Y034459D01*
X012211Y034459D01*
X024586Y045084D02*
X045836Y049834D01*
X062086Y043084D01*
X056086Y044084D01*
X057211Y043584D02*
X060711Y042709D01*
X061211Y041459D01*
X062086Y041084D01*
X061211Y040709D02*
X062086Y040084D01*
X062211Y039584D02*
X061586Y039709D01*
X058961Y042084D01*
X056086Y042084D01*
X055211Y042084D01*
X054086Y042584D01*
X046461Y042584D01*
X046461Y043709D01*
X047336Y044084D01*
X047336Y043084D02*
X048211Y043084D01*
X048711Y043584D01*
X057211Y043584D01*
X057086Y042584D02*
X055461Y042584D01*
X054086Y043084D01*
X053336Y043084D01*
X053336Y042084D02*
X053961Y042084D01*
X055711Y041084D01*
X056086Y041084D01*
X055586Y040584D02*
X053836Y041584D01*
X052211Y041584D01*
X053336Y041084D02*
X053711Y041084D01*
X055586Y040084D01*
X056086Y040084D01*
X060086Y040084D01*
X061336Y038584D01*
X062836Y038584D01*
X062961Y038709D02*
X062836Y037584D01*
X061461Y037584D01*
X059836Y039084D01*
X056086Y039084D01*
X055836Y039084D01*
X054086Y040084D01*
X053336Y040084D01*
X053961Y039584D02*
X051836Y039584D01*
X053336Y039084D02*
X053836Y039084D01*
X055586Y038084D01*
X056086Y038084D01*
X059336Y038084D01*
X060961Y036584D01*
X063086Y036584D01*
X063336Y036709D02*
X063211Y035584D01*
X061211Y035584D01*
X059586Y037084D01*
X056086Y037084D01*
X053336Y038084D01*
X053336Y037084D02*
X054086Y037084D01*
X055711Y036084D01*
X056086Y036084D01*
X059711Y036084D01*
X061336Y034584D01*
X063211Y034584D01*
X062086Y037084D02*
X061211Y037084D01*
X059586Y038584D01*
X055711Y038584D01*
X053961Y039584D01*
X055586Y040584D02*
X056961Y040584D01*
X059086Y040959D01*
X060461Y040209D01*
X062086Y039084D01*
X061211Y040709D02*
X060086Y042459D01*
X057211Y042459D01*
X057086Y042584D01*
X062086Y044084D02*
X062086Y045084D01*
X055461Y035584D02*
X053961Y036584D01*
X052336Y036584D01*
X047336Y039084D01*
X047336Y038084D02*
X046086Y038084D01*
X047336Y038084D02*
X052461Y035584D01*
X053961Y035584D01*
X055336Y034584D01*
X058586Y034584D01*
X060336Y030459D01*
X060836Y030084D01*
X062086Y030084D01*
X062086Y031084D02*
X061211Y031459D01*
X059711Y035209D01*
X059336Y035584D01*
X055461Y035584D01*
X055461Y035084D02*
X056086Y035084D01*
X059086Y035084D01*
X060961Y030584D01*
X063086Y030584D01*
X063086Y029459D02*
X060086Y029459D01*
X058086Y034084D01*
X056086Y034084D01*
X055211Y034084D01*
X053961Y035084D01*
X053336Y035084D01*
X053961Y034584D02*
X048961Y034584D01*
X048586Y034209D01*
X047461Y034209D01*
X047336Y034084D01*
X047336Y033084D02*
X044336Y033084D01*
X043711Y034709D01*
X043711Y038084D01*
X042461Y038084D01*
X042086Y038084D02*
X041211Y038084D01*
X040211Y037084D01*
X040211Y035334D01*
X039461Y034584D01*
X032086Y034584D01*
X031461Y035084D01*
X030586Y035084D01*
X030586Y036084D02*
X031711Y036084D01*
X032836Y035084D01*
X034961Y035084D01*
X035461Y035584D01*
X036711Y035584D01*
X036961Y035334D01*
X039211Y035334D01*
X039711Y035834D01*
X039711Y038709D01*
X040086Y039084D01*
X042086Y039084D01*
X042461Y039084D02*
X043086Y039084D01*
X043836Y038959D01*
X044336Y038209D01*
X046461Y036084D01*
X047336Y036084D01*
X047336Y037084D02*
X046086Y037084D01*
X044711Y038459D01*
X044211Y040084D01*
X043586Y040459D01*
X042086Y040084D01*
X040336Y040084D01*
X039211Y038959D01*
X039211Y036959D01*
X038836Y036584D01*
X035461Y036584D01*
X034461Y035584D01*
X033336Y035584D01*
X031711Y037084D01*
X030586Y037084D01*
X030586Y038084D02*
X031711Y038084D01*
X032336Y037584D01*
X036711Y037584D01*
X038205Y038814D01*
X040961Y041084D01*
X042086Y041084D01*
X042086Y042084D02*
X040961Y042084D01*
X038461Y039584D01*
X035336Y039584D01*
X034711Y040209D01*
X032586Y040209D01*
X031461Y039084D01*
X030586Y039084D01*
X030586Y040084D02*
X031461Y040084D01*
X032086Y040584D01*
X038711Y040584D01*
X041211Y043084D01*
X042086Y043084D01*
X042086Y042084D02*
X043336Y042459D01*
X045711Y040334D01*
X046086Y039834D01*
X042086Y044084D02*
X041211Y044084D01*
X038711Y041584D01*
X032211Y041584D01*
X031711Y041084D01*
X030586Y041084D01*
X030586Y042084D02*
X034961Y042084D01*
X035461Y042584D01*
X038461Y042584D01*
X040961Y045084D01*
X042086Y045084D01*
X036086Y045084D02*
X033710Y045084D01*
X033710Y045710D01*
X033211Y046084D01*
X030211Y046084D01*
X028961Y044959D01*
X028961Y034209D01*
X028836Y033209D01*
X028836Y029459D01*
X029336Y028084D01*
X030586Y028084D01*
X030586Y030084D02*
X029461Y030084D01*
X029461Y033084D01*
X030586Y033084D01*
X033586Y036209D02*
X034461Y036209D01*
X035336Y037084D01*
X036086Y037084D01*
X037121Y037084D01*
X037336Y037143D01*
X037121Y036084D02*
X037336Y036024D01*
X037121Y036084D02*
X036086Y036084D01*
X036086Y038084D02*
X034836Y038084D01*
X034336Y038584D01*
X033211Y038584D01*
X032711Y038084D01*
X032711Y039084D02*
X032711Y039584D01*
X032961Y039834D01*
X034336Y039834D01*
X035086Y039084D01*
X036086Y039084D01*
X033586Y036209D02*
X032711Y037084D01*
X032962Y045084D02*
X030586Y045084D01*
X047336Y032084D02*
X048586Y032084D01*
X049086Y032584D01*
X054086Y032584D01*
X054711Y033084D01*
X056086Y033084D01*
X056836Y033584D02*
X055086Y033584D01*
X053961Y034584D01*
X053961Y036084D02*
X053336Y036084D01*
X053961Y036084D02*
X055461Y035084D01*
X056836Y033584D02*
X057211Y033209D01*
X057211Y031459D01*
X056836Y031084D01*
X056086Y031084D01*
X055461Y030584D02*
X055086Y030959D01*
X055086Y031584D01*
X055086Y031709D01*
X055461Y032084D01*
X056086Y032084D01*
X055086Y031584D02*
X049086Y031584D01*
X048586Y031084D01*
X047336Y031084D01*
X051836Y026084D02*
X053336Y026084D01*
X054461Y024959D02*
X058711Y020084D01*
X058211Y019834D02*
X054086Y024584D01*
X048461Y024584D01*
X044836Y020959D01*
X035711Y020959D01*
X035461Y020709D01*
X034086Y020709D01*
X033586Y020209D02*
X035586Y020209D01*
X035961Y020584D01*
X045211Y020584D01*
X048836Y024209D01*
X053711Y024209D01*
X057711Y019584D01*
X058461Y018334D02*
X058961Y017834D01*
X062961Y017834D01*
X062086Y017334D02*
X058711Y017334D01*
X058211Y017834D01*
X055461Y017834D01*
X054836Y018459D01*
X054836Y019709D01*
X053582Y020963D01*
X052897Y020963D01*
X052897Y021963D02*
X053832Y021963D01*
X056086Y019709D01*
X056086Y018334D01*
X058461Y018334D01*
X056086Y017334D02*
X055461Y017334D01*
X054336Y018459D01*
X054336Y018959D01*
X053332Y019963D01*
X052897Y019963D01*
X052897Y018963D02*
X053207Y018963D01*
X055336Y016834D01*
X057836Y016834D01*
X058336Y016334D01*
X062086Y016334D01*
X062086Y015334D02*
X057836Y015334D01*
X057336Y015834D01*
X054711Y015834D01*
X053582Y016963D01*
X052897Y016963D01*
X052897Y017963D02*
X053457Y017963D01*
X055086Y016334D01*
X056086Y016334D01*
X057586Y016334D01*
X058086Y015834D01*
X067711Y013709D01*
X062086Y011334D02*
X060086Y011334D01*
X057461Y013834D01*
X054211Y013834D01*
X053586Y014459D01*
X047461Y014459D01*
X046961Y013959D01*
X046961Y013084D01*
X047207Y012838D01*
X048090Y012838D01*
X048090Y011838D02*
X053715Y011838D01*
X054711Y012834D01*
X057336Y012834D01*
X059961Y010334D01*
X062086Y010334D01*
X062086Y009334D02*
X059836Y009334D01*
X057336Y011834D01*
X054961Y011834D01*
X053965Y010838D01*
X048090Y010838D01*
X048090Y009838D02*
X054215Y009838D01*
X054711Y010334D01*
X056086Y010334D01*
X057086Y009834D02*
X059586Y007334D01*
X062086Y007334D01*
X062086Y006334D02*
X059461Y006334D01*
X056961Y008834D01*
X055086Y008834D01*
X054591Y008339D01*
X052914Y008339D01*
X052914Y009339D02*
X054341Y009339D01*
X054836Y009834D01*
X057086Y009834D01*
X056086Y009334D02*
X054961Y009334D01*
X054465Y008838D01*
X048090Y008838D01*
X047336Y009334D02*
X049909Y009334D01*
X049914Y009339D01*
X049909Y010334D02*
X049914Y010339D01*
X049909Y010334D02*
X044336Y010334D01*
X043836Y010209D01*
X043336Y010209D01*
X038461Y010209D01*
X037961Y010709D01*
X036461Y010709D01*
X034836Y009084D01*
X034211Y009084D01*
X033836Y008709D01*
X032086Y008709D01*
X031586Y009209D01*
X031586Y010209D01*
X031086Y010709D01*
X030586Y010209D02*
X030586Y008959D01*
X031586Y007959D01*
X034336Y007959D01*
X034711Y008334D01*
X035336Y008334D01*
X036211Y009209D01*
X037336Y009209D01*
X038086Y008709D02*
X036211Y008709D01*
X035336Y007834D01*
X034961Y007834D01*
X034711Y007584D01*
X031336Y007584D01*
X029586Y009334D01*
X029586Y010209D01*
X029086Y010709D01*
X028586Y010209D02*
X028586Y009084D01*
X030836Y006834D01*
X035336Y006834D01*
X036211Y007709D01*
X038711Y007709D01*
X039211Y008209D01*
X043336Y008209D01*
X043836Y008209D01*
X044332Y007838D01*
X045090Y007838D01*
X044461Y008334D02*
X046336Y008334D01*
X047336Y009334D01*
X048090Y007838D02*
X054715Y007838D01*
X055211Y008334D01*
X056086Y008334D01*
X055336Y007834D02*
X056836Y007834D01*
X059336Y005334D01*
X062086Y005334D01*
X062086Y004334D02*
X058586Y004334D01*
X057086Y005834D01*
X054586Y005834D01*
X054081Y006339D01*
X052914Y006339D01*
X052914Y007339D02*
X054841Y007339D01*
X055336Y007834D01*
X055586Y007334D02*
X055090Y006838D01*
X048090Y006838D01*
X047211Y007334D02*
X049909Y007334D01*
X049914Y007339D01*
X051082Y005838D02*
X048090Y005838D01*
X048711Y005334D02*
X047336Y005334D01*
X046832Y005838D01*
X045090Y005838D01*
X044336Y006334D02*
X046211Y006334D01*
X047211Y007334D01*
X045090Y006838D02*
X043336Y007209D01*
X038836Y007209D01*
X038586Y006709D01*
X036461Y006709D01*
X035836Y006084D01*
X030336Y006084D01*
X027461Y008959D01*
X026586Y008959D01*
X026086Y009459D01*
X026086Y009709D01*
X025586Y010209D02*
X025586Y009209D01*
X026336Y008459D01*
X027336Y008459D01*
X030086Y005709D01*
X038086Y005709D01*
X038461Y006209D01*
X043336Y006209D01*
X044211Y006209D01*
X044336Y006334D01*
X044461Y008334D02*
X043961Y008709D01*
X039211Y008709D01*
X038711Y008209D01*
X037336Y008209D01*
X036125Y008209D01*
X035125Y007209D01*
X031086Y007209D01*
X029086Y009209D01*
X029086Y009709D01*
X028586Y010209D02*
X028086Y010709D01*
X027336Y009709D02*
X030586Y006459D01*
X035586Y006459D01*
X036336Y007209D01*
X035086Y008709D02*
X034461Y008709D01*
X034086Y008334D01*
X031836Y008334D01*
X031086Y009084D01*
X031086Y009709D01*
X030586Y010209D02*
X030086Y010709D01*
X032086Y010709D02*
X032586Y010209D01*
X033586Y010209D01*
X033836Y009959D01*
X034461Y009959D01*
X036211Y011709D01*
X038211Y011709D01*
X038711Y011209D01*
X043336Y011209D01*
X043836Y011209D01*
X044086Y011334D01*
X049909Y011334D01*
X049914Y011339D01*
X049909Y012334D02*
X049914Y012339D01*
X049909Y012334D02*
X044461Y012334D01*
X043961Y012709D01*
X038711Y012709D01*
X038211Y013209D01*
X037336Y013209D01*
X036211Y013209D01*
X034711Y011709D01*
X034086Y011709D01*
X033586Y012209D02*
X034586Y012209D01*
X036086Y013709D01*
X038336Y013709D01*
X038836Y013209D01*
X043336Y013209D01*
X044344Y013209D01*
X045090Y012838D01*
X045090Y011838D02*
X044332Y011838D01*
X043711Y012209D01*
X043336Y012209D01*
X038461Y012209D01*
X037961Y012709D01*
X036211Y012709D01*
X034711Y011209D01*
X033586Y011209D01*
X033086Y010709D01*
X032086Y009709D02*
X032711Y009084D01*
X033461Y009084D01*
X033836Y009459D01*
X034586Y009459D01*
X036336Y011209D01*
X037336Y011209D01*
X038086Y011209D01*
X038586Y010709D01*
X044211Y010709D01*
X045090Y010838D01*
X045090Y009838D02*
X044336Y009709D01*
X038336Y009709D01*
X037836Y010209D01*
X037336Y010209D01*
X036586Y010209D01*
X035086Y008709D01*
X034711Y010709D02*
X034086Y010709D01*
X034711Y010709D02*
X036211Y012209D01*
X037336Y012209D01*
X037336Y014209D02*
X035961Y014209D01*
X034461Y012709D01*
X034086Y012709D01*
X033586Y012209D02*
X033086Y011709D01*
X033086Y012709D02*
X031457Y013962D01*
X031582Y015041D01*
X030063Y017685D01*
X024605Y017691D01*
X024597Y021074D01*
X025086Y021709D01*
X024605Y017691D02*
X023086Y017709D01*
X025586Y014334D02*
X026586Y013209D01*
X028211Y014084D01*
X029336Y012794D01*
X027086Y010709D01*
X026086Y010709D02*
X025586Y010209D01*
X027086Y009709D02*
X027336Y009709D01*
X024129Y012877D02*
X025586Y014334D01*
X024129Y012877D02*
X022086Y010709D01*
X030063Y017685D02*
X030074Y019211D01*
X032459Y019211D01*
X032461Y019209D01*
X033586Y019209D01*
X034086Y019709D01*
X033586Y020209D02*
X033086Y019709D01*
X034086Y018709D02*
X034836Y018709D01*
X035336Y019209D01*
X037336Y019209D01*
X038711Y019209D01*
X039211Y018709D01*
X045461Y018709D01*
X049215Y022588D01*
X049897Y022963D01*
X049897Y021963D02*
X049590Y021963D01*
X045836Y018209D01*
X043336Y018209D01*
X039086Y018209D01*
X038586Y018709D01*
X035461Y018709D01*
X034961Y018209D01*
X033586Y018209D01*
X033086Y017709D01*
X033586Y017209D02*
X035211Y017209D01*
X035711Y017709D01*
X038586Y017709D01*
X039086Y017209D01*
X043336Y017209D01*
X046836Y017209D01*
X049590Y019963D01*
X049897Y019963D01*
X049897Y018963D02*
X049340Y018963D01*
X047086Y016709D01*
X038961Y016709D01*
X038461Y017209D01*
X037336Y017209D01*
X035836Y017209D01*
X034836Y016209D01*
X033586Y016209D01*
X033086Y015709D01*
X033586Y015209D02*
X035086Y015209D01*
X036086Y016209D01*
X037336Y016209D01*
X038211Y016209D01*
X038711Y015709D01*
X047586Y015709D01*
X048965Y016963D01*
X049897Y016963D01*
X049897Y017963D02*
X049215Y017963D01*
X047336Y016209D01*
X043336Y016209D01*
X038836Y016209D01*
X038336Y016709D01*
X035961Y016709D01*
X034961Y015709D01*
X034086Y015709D01*
X033586Y015209D02*
X033086Y014709D01*
X033586Y014209D02*
X033086Y013709D01*
X033586Y014209D02*
X034711Y014209D01*
X035711Y015209D01*
X037336Y015209D01*
X038336Y015209D01*
X038836Y014709D01*
X047086Y014709D01*
X048590Y015963D01*
X049897Y015963D01*
X052897Y015963D02*
X053582Y015963D01*
X054211Y015334D01*
X056086Y015334D01*
X057211Y015334D01*
X057711Y014834D01*
X057711Y014334D02*
X058211Y013834D01*
X057711Y014334D02*
X056086Y014334D01*
X054336Y014334D01*
X053707Y014963D01*
X052897Y014963D01*
X054836Y012334D02*
X056086Y012334D01*
X054836Y012334D02*
X053841Y011339D01*
X052914Y011339D01*
X052914Y010339D02*
X054091Y010339D01*
X054586Y010834D01*
X057211Y010834D01*
X059711Y008334D01*
X062086Y008334D01*
X056086Y007334D02*
X055586Y007334D01*
X053832Y005838D02*
X055336Y004334D01*
X056086Y004334D01*
X053832Y005838D02*
X051082Y005838D01*
X051086Y005834D01*
X049914Y004339D02*
X049909Y004334D01*
X049711Y004334D01*
X048711Y005334D01*
X045086Y008834D02*
X045090Y008838D01*
X045086Y008834D02*
X044586Y008834D01*
X044086Y009209D01*
X043336Y009209D01*
X038461Y009209D01*
X038086Y008709D01*
X034836Y013709D02*
X034086Y013709D01*
X034836Y013709D02*
X035836Y014709D01*
X038211Y014709D01*
X038711Y014209D01*
X043336Y014209D01*
X045090Y013838D01*
X043336Y015209D02*
X040211Y015209D01*
X039086Y017709D02*
X038586Y018209D01*
X037336Y018209D01*
X035586Y018209D01*
X035086Y017709D01*
X034086Y017709D01*
X033586Y017209D02*
X033086Y016709D01*
X030074Y019211D02*
X030086Y020709D01*
X033086Y021709D02*
X034586Y021709D01*
X034961Y021334D01*
X044586Y021334D01*
X048086Y024959D01*
X054461Y024959D01*
X049897Y020963D02*
X049590Y020963D01*
X046336Y017709D01*
X039086Y017709D01*
X055461Y030584D02*
X058586Y030584D01*
X059461Y029084D01*
X063086Y029084D01*
D31*
X051836Y026084D03*
X046086Y038084D03*
X046086Y039834D03*
X051836Y039584D03*
X052211Y041584D03*
D32*
X047336Y039084D02*
X045086Y039084D01*
X043961Y041459D01*
X042086Y041084D01*
X042086Y039084D02*
X042461Y039084D01*
X042461Y038084D02*
X042086Y038084D01*
X037336Y007209D02*
X036336Y007209D01*
D33*
X049914Y003339D02*
X052914Y003339D01*
X052914Y004339D01*
X052914Y005339D01*
X052897Y013963D02*
X049897Y013963D01*
D34*
X040211Y015209D03*
M02*
