G75*
G70*
%OFA0B0*%
%FSLAX24Y24*%
%IPPOS*%
%LPD*%
%AMOC8*
5,1,8,0,0,1.08239X$1,22.5*
%
%ADD10C,0.0110*%
%ADD11C,0.0700*%
%ADD12C,0.0635*%
%ADD13C,0.0630*%
%ADD14C,0.0860*%
%ADD15OC8,0.0860*%
%ADD16R,0.0669X0.0669*%
%ADD17C,0.1772*%
%ADD18C,0.0827*%
%ADD19C,0.0835*%
%ADD20R,0.0500X0.1000*%
%ADD21R,0.0280X0.0560*%
%ADD22C,0.0715*%
%ADD23C,0.0787*%
%ADD24C,0.0787*%
%ADD25R,0.0709X0.0709*%
%ADD26C,0.1181*%
%ADD27R,0.0472X0.0472*%
%ADD28R,0.0591X0.0512*%
%ADD29R,0.0630X0.0710*%
%ADD30OC8,0.1000*%
%ADD31C,0.1000*%
%ADD32C,0.0320*%
%ADD33C,0.0400*%
%ADD34C,0.0160*%
%ADD35C,0.0240*%
%ADD36C,0.0120*%
%ADD37C,0.1969*%
D10*
X013761Y005576D02*
X013869Y005468D01*
X014086Y005468D01*
X014195Y005576D01*
X014195Y005685D01*
X014086Y005793D01*
X013869Y005793D01*
X013761Y005902D01*
X013761Y006010D01*
X013869Y006119D01*
X014086Y006119D01*
X014195Y006010D01*
X014461Y006119D02*
X014786Y006119D01*
X014894Y006010D01*
X014894Y005576D01*
X014786Y005468D01*
X014461Y005468D01*
X014461Y006119D01*
X015860Y006010D02*
X015860Y005576D01*
X015969Y005468D01*
X016186Y005468D01*
X016294Y005576D01*
X016560Y005576D02*
X016669Y005685D01*
X016994Y005685D01*
X016994Y005793D02*
X016994Y005468D01*
X016669Y005468D01*
X016560Y005576D01*
X016669Y005902D02*
X016885Y005902D01*
X016994Y005793D01*
X017260Y005685D02*
X017477Y005902D01*
X017585Y005902D01*
X017843Y005793D02*
X017952Y005902D01*
X018277Y005902D01*
X018277Y006119D02*
X018277Y005468D01*
X017952Y005468D01*
X017843Y005576D01*
X017843Y005793D01*
X017260Y005902D02*
X017260Y005468D01*
X016294Y006010D02*
X016186Y006119D01*
X015969Y006119D01*
X015860Y006010D01*
X032011Y006025D02*
X032011Y005917D01*
X032119Y005808D01*
X032336Y005808D01*
X032445Y005700D01*
X032445Y005591D01*
X032336Y005483D01*
X032119Y005483D01*
X032011Y005591D01*
X032011Y006025D02*
X032119Y006134D01*
X032336Y006134D01*
X032445Y006025D01*
X032711Y005917D02*
X033036Y005917D01*
X033144Y005808D01*
X033144Y005591D01*
X033036Y005483D01*
X032711Y005483D01*
X032711Y005266D02*
X032711Y005917D01*
X033411Y005808D02*
X033519Y005917D01*
X033736Y005917D01*
X033844Y005808D01*
X033844Y005700D01*
X033411Y005700D01*
X033411Y005808D02*
X033411Y005591D01*
X033519Y005483D01*
X033736Y005483D01*
X034110Y005591D02*
X034219Y005483D01*
X034544Y005483D01*
X034810Y005591D02*
X034919Y005483D01*
X035244Y005483D01*
X035510Y005591D02*
X035618Y005483D01*
X035944Y005483D01*
X035944Y005375D02*
X035835Y005266D01*
X035727Y005266D01*
X035944Y005375D02*
X035944Y005917D01*
X036210Y006025D02*
X036318Y006134D01*
X036535Y006134D01*
X036643Y006025D01*
X036643Y005917D01*
X036210Y005483D01*
X036643Y005483D01*
X036910Y005591D02*
X037343Y006025D01*
X037343Y005591D01*
X037235Y005483D01*
X037018Y005483D01*
X036910Y005591D01*
X036910Y006025D01*
X037018Y006134D01*
X037235Y006134D01*
X037343Y006025D01*
X037609Y006025D02*
X037609Y005591D01*
X038043Y006025D01*
X038043Y005591D01*
X037935Y005483D01*
X037718Y005483D01*
X037609Y005591D01*
X037609Y006025D02*
X037718Y006134D01*
X037935Y006134D01*
X038043Y006025D01*
X038309Y006134D02*
X038743Y006134D01*
X038743Y006025D01*
X038309Y005591D01*
X038309Y005483D01*
X038776Y004994D02*
X038776Y004885D01*
X038993Y004668D01*
X038993Y004343D01*
X038993Y004668D02*
X039209Y004885D01*
X039209Y004994D01*
X037810Y004885D02*
X037810Y004777D01*
X037701Y004668D01*
X037376Y004668D01*
X037376Y004343D02*
X037701Y004343D01*
X037810Y004451D01*
X037810Y004560D01*
X037701Y004668D01*
X037810Y004885D02*
X037701Y004994D01*
X037376Y004994D01*
X037376Y004343D01*
X037110Y004343D02*
X036785Y004668D01*
X036676Y004560D02*
X037110Y004994D01*
X036676Y004994D02*
X036676Y004343D01*
X036410Y004451D02*
X036302Y004343D01*
X036085Y004343D01*
X035976Y004451D01*
X035976Y004560D01*
X036085Y004668D01*
X036302Y004668D01*
X036410Y004560D01*
X036410Y004451D01*
X036302Y004668D02*
X036410Y004777D01*
X036410Y004885D01*
X036302Y004994D01*
X036085Y004994D01*
X035976Y004885D01*
X035976Y004777D01*
X036085Y004668D01*
X035710Y004777D02*
X035710Y004885D01*
X035602Y004994D01*
X035385Y004994D01*
X035277Y004885D01*
X035710Y004777D02*
X035277Y004343D01*
X035710Y004343D01*
X035011Y004343D02*
X034577Y004343D01*
X034794Y004343D02*
X034794Y004994D01*
X034577Y004777D01*
X033611Y004885D02*
X033611Y004668D01*
X033503Y004560D01*
X033177Y004560D01*
X033177Y004343D02*
X033177Y004994D01*
X033503Y004994D01*
X033611Y004885D01*
X032928Y004994D02*
X032711Y004994D01*
X032819Y004994D02*
X032819Y004343D01*
X032711Y004343D02*
X032928Y004343D01*
X032445Y004451D02*
X032445Y004885D01*
X032336Y004994D01*
X032011Y004994D01*
X032011Y004343D01*
X032336Y004343D01*
X032445Y004451D01*
X034110Y005591D02*
X034110Y005808D01*
X034219Y005917D01*
X034544Y005917D01*
X034810Y005808D02*
X034919Y005917D01*
X035244Y005917D01*
X035510Y005917D02*
X035510Y005591D01*
X034810Y005591D02*
X034810Y005808D01*
X034794Y006593D02*
X034902Y006593D01*
X034902Y006701D01*
X034794Y006701D01*
X034794Y006593D01*
X034528Y006593D02*
X034094Y006593D01*
X034311Y006593D02*
X034311Y007244D01*
X034094Y007027D01*
X033836Y007027D02*
X033728Y007027D01*
X033511Y006810D01*
X033511Y006593D02*
X033511Y007027D01*
X035144Y007135D02*
X035144Y006701D01*
X035578Y007135D01*
X035578Y006701D01*
X035469Y006593D01*
X035252Y006593D01*
X035144Y006701D01*
X035144Y007135D02*
X035252Y007244D01*
X035469Y007244D01*
X035578Y007135D01*
X035844Y007027D02*
X036060Y007244D01*
X036060Y006593D01*
X035844Y006593D02*
X036277Y006593D01*
D11*
X035831Y009600D03*
X034831Y009600D03*
X033831Y009600D03*
X032831Y009600D03*
X032831Y010600D03*
X033831Y010600D03*
X034831Y010600D03*
X035831Y010600D03*
X036831Y010600D03*
X036831Y011600D03*
X035831Y011600D03*
X035831Y012600D03*
X036831Y012600D03*
X036831Y013600D03*
X035831Y013600D03*
X035831Y014600D03*
X036831Y014600D03*
X036831Y015600D03*
X035831Y015600D03*
X035831Y016600D03*
X036831Y016600D03*
X036831Y017600D03*
X036831Y018600D03*
X035831Y018600D03*
X035831Y017600D03*
X035831Y019600D03*
X036831Y019600D03*
X036831Y020600D03*
X035831Y020600D03*
X034831Y020600D03*
X033831Y020600D03*
X032831Y020600D03*
X031831Y020600D03*
X030831Y020600D03*
X029831Y020600D03*
X028831Y020600D03*
X027831Y020600D03*
X026831Y020600D03*
X025831Y020600D03*
X024831Y020600D03*
X024831Y019600D03*
X025831Y019600D03*
X025831Y018600D03*
X025831Y017600D03*
X024831Y017600D03*
X024831Y018600D03*
X024831Y016600D03*
X025831Y016600D03*
X025831Y015600D03*
X024831Y015600D03*
X024831Y014600D03*
X025831Y014600D03*
X025831Y013600D03*
X024831Y013600D03*
X024831Y012600D03*
X025831Y012600D03*
X025831Y011600D03*
X024831Y011600D03*
X024831Y010600D03*
X025831Y010600D03*
X025831Y009600D03*
X026831Y009600D03*
X027831Y009600D03*
X028831Y009600D03*
X028831Y010600D03*
X027831Y010600D03*
X026831Y010600D03*
X029831Y010600D03*
X029831Y009600D03*
X030831Y009600D03*
X031831Y009600D03*
X031831Y010600D03*
X030831Y010600D03*
X027206Y018163D03*
X026831Y021600D03*
X027831Y021600D03*
X028831Y021600D03*
X029831Y021600D03*
X030831Y021600D03*
X031831Y021600D03*
X032831Y021600D03*
X033831Y021600D03*
X034831Y021600D03*
X035831Y021600D03*
X025831Y021600D03*
X069843Y044254D03*
X070670Y043270D03*
D12*
X066023Y043225D02*
X065388Y043225D01*
X065388Y044225D02*
X066023Y044225D01*
X066023Y045225D02*
X065388Y045225D01*
X065388Y046225D02*
X066023Y046225D01*
X066023Y042225D02*
X065388Y042225D01*
X065388Y041225D02*
X066023Y041225D01*
X066023Y040225D02*
X065388Y040225D01*
X065388Y039225D02*
X066023Y039225D01*
X066023Y038225D02*
X065388Y038225D01*
X065388Y037225D02*
X066023Y037225D01*
X066023Y036225D02*
X065388Y036225D01*
X065388Y035225D02*
X066023Y035225D01*
X066023Y034225D02*
X065388Y034225D01*
X065388Y033225D02*
X066023Y033225D01*
X066023Y032225D02*
X065388Y032225D01*
X065388Y031225D02*
X066023Y031225D01*
X060023Y031225D02*
X059388Y031225D01*
X059388Y032225D02*
X060023Y032225D01*
X060023Y033225D02*
X059388Y033225D01*
X059388Y034225D02*
X060023Y034225D01*
X060023Y035225D02*
X059388Y035225D01*
X059388Y036225D02*
X060023Y036225D01*
X060023Y037225D02*
X059388Y037225D01*
X059388Y038225D02*
X060023Y038225D01*
X060023Y039225D02*
X059388Y039225D01*
X059388Y040225D02*
X060023Y040225D01*
X060023Y041225D02*
X059388Y041225D01*
X059388Y042225D02*
X060023Y042225D01*
X060023Y043225D02*
X059388Y043225D01*
X059388Y044225D02*
X060023Y044225D01*
X060023Y045225D02*
X059388Y045225D01*
X059388Y046225D02*
X060023Y046225D01*
X056148Y046225D02*
X055513Y046225D01*
X055513Y045225D02*
X056148Y045225D01*
X056148Y044225D02*
X055513Y044225D01*
X055513Y043225D02*
X056148Y043225D01*
X056148Y042225D02*
X055513Y042225D01*
X055513Y041225D02*
X056148Y041225D01*
X056148Y040225D02*
X055513Y040225D01*
X055513Y039225D02*
X056148Y039225D01*
X056148Y038225D02*
X055513Y038225D01*
X055513Y037225D02*
X056148Y037225D01*
X056148Y036225D02*
X055513Y036225D01*
X055513Y035225D02*
X056148Y035225D01*
X056148Y034225D02*
X055513Y034225D01*
X055513Y033225D02*
X056148Y033225D01*
X056148Y032225D02*
X055513Y032225D01*
X055513Y031225D02*
X056148Y031225D01*
X056148Y030225D02*
X055513Y030225D01*
X055513Y029225D02*
X056148Y029225D01*
X056148Y028225D02*
X055513Y028225D01*
X055513Y027225D02*
X056148Y027225D01*
X057952Y026229D02*
X057952Y025594D01*
X058952Y025594D02*
X058952Y026229D01*
X059952Y026229D02*
X059952Y025594D01*
X060952Y025594D02*
X060952Y026229D01*
X061952Y026229D02*
X061952Y025594D01*
X062952Y025594D02*
X062952Y026229D01*
X063952Y026229D02*
X063952Y025594D01*
X064952Y025594D02*
X064952Y026229D01*
X065952Y026229D02*
X065952Y025594D01*
X066952Y025594D02*
X066952Y026229D01*
X066952Y023229D02*
X066952Y022594D01*
X065952Y022594D02*
X065952Y023229D01*
X064952Y023229D02*
X064952Y022594D01*
X063952Y022594D02*
X063952Y023229D01*
X062952Y023229D02*
X062952Y022594D01*
X061952Y022594D02*
X061952Y023229D01*
X060952Y023229D02*
X060952Y022594D01*
X059952Y022594D02*
X059952Y023229D01*
X058952Y023229D02*
X058952Y022594D01*
X057952Y022594D02*
X057952Y023229D01*
X059388Y020100D02*
X060023Y020100D01*
X060023Y019100D02*
X059388Y019100D01*
X059388Y018100D02*
X060023Y018100D01*
X060023Y017100D02*
X059388Y017100D01*
X059388Y016100D02*
X060023Y016100D01*
X060023Y015100D02*
X059388Y015100D01*
X059388Y014100D02*
X060023Y014100D01*
X060023Y013100D02*
X059388Y013100D01*
X059388Y012100D02*
X060023Y012100D01*
X060023Y011100D02*
X059388Y011100D01*
X059388Y010100D02*
X060023Y010100D01*
X060023Y009100D02*
X059388Y009100D01*
X059388Y008100D02*
X060023Y008100D01*
X060023Y007100D02*
X059388Y007100D01*
X059388Y006100D02*
X060023Y006100D01*
X060023Y005100D02*
X059388Y005100D01*
X056851Y005105D02*
X056216Y005105D01*
X056216Y006105D02*
X056851Y006105D01*
X056851Y007105D02*
X056216Y007105D01*
X056216Y008105D02*
X056851Y008105D01*
X056851Y009105D02*
X056216Y009105D01*
X056216Y010105D02*
X056851Y010105D01*
X056851Y011105D02*
X056216Y011105D01*
X056216Y012105D02*
X056851Y012105D01*
X056851Y013105D02*
X056216Y013105D01*
X056216Y014105D02*
X056851Y014105D01*
X053851Y014105D02*
X053216Y014105D01*
X053216Y013105D02*
X053851Y013105D01*
X053851Y012105D02*
X053216Y012105D01*
X053216Y011105D02*
X053851Y011105D01*
X053851Y010105D02*
X053216Y010105D01*
X053216Y009105D02*
X053851Y009105D01*
X053851Y008105D02*
X053216Y008105D01*
X053216Y007105D02*
X053851Y007105D01*
X053851Y006105D02*
X053216Y006105D01*
X053216Y005105D02*
X053851Y005105D01*
X051152Y005104D02*
X050517Y005104D01*
X050517Y006104D02*
X051152Y006104D01*
X051152Y007104D02*
X050517Y007104D01*
X050517Y008104D02*
X051152Y008104D01*
X051152Y009104D02*
X050517Y009104D01*
X050517Y010104D02*
X051152Y010104D01*
X051152Y011104D02*
X050517Y011104D01*
X050517Y012104D02*
X051152Y012104D01*
X051152Y013104D02*
X050517Y013104D01*
X050517Y014104D02*
X051152Y014104D01*
X048152Y014104D02*
X047517Y014104D01*
X047517Y013104D02*
X048152Y013104D01*
X048152Y012104D02*
X047517Y012104D01*
X047517Y011104D02*
X048152Y011104D01*
X048152Y010104D02*
X047517Y010104D01*
X047517Y009104D02*
X048152Y009104D01*
X048152Y008104D02*
X047517Y008104D01*
X047517Y007104D02*
X048152Y007104D01*
X048152Y006104D02*
X047517Y006104D01*
X047517Y005104D02*
X048152Y005104D01*
X046398Y006100D02*
X045763Y006100D01*
X045763Y007100D02*
X046398Y007100D01*
X046398Y008100D02*
X045763Y008100D01*
X045763Y009100D02*
X046398Y009100D01*
X046398Y010100D02*
X045763Y010100D01*
X045763Y011100D02*
X046398Y011100D01*
X046398Y012100D02*
X045763Y012100D01*
X045763Y013100D02*
X046398Y013100D01*
X046398Y014100D02*
X045763Y014100D01*
X045763Y015100D02*
X046398Y015100D01*
X046398Y016100D02*
X045763Y016100D01*
X045763Y017100D02*
X046398Y017100D01*
X046398Y018100D02*
X045763Y018100D01*
X045763Y019100D02*
X046398Y019100D01*
X040398Y019100D02*
X039763Y019100D01*
X039763Y018100D02*
X040398Y018100D01*
X040398Y017100D02*
X039763Y017100D01*
X039763Y016100D02*
X040398Y016100D01*
X040398Y015100D02*
X039763Y015100D01*
X039763Y014100D02*
X040398Y014100D01*
X040398Y013100D02*
X039763Y013100D01*
X039763Y012100D02*
X040398Y012100D01*
X040398Y011100D02*
X039763Y011100D01*
X039763Y010100D02*
X040398Y010100D01*
X040398Y009100D02*
X039763Y009100D01*
X039763Y008100D02*
X040398Y008100D01*
X040398Y007100D02*
X039763Y007100D01*
X039763Y006100D02*
X040398Y006100D01*
X020898Y017725D02*
X020263Y017725D01*
X020263Y018725D02*
X020898Y018725D01*
X020898Y019725D02*
X020263Y019725D01*
X015206Y022658D02*
X015206Y023293D01*
X014206Y023293D02*
X014206Y022658D01*
X013206Y022658D02*
X013206Y023293D01*
X012206Y023293D02*
X012206Y022658D01*
X011206Y022658D02*
X011206Y023293D01*
X010206Y023293D02*
X010206Y022658D01*
X009206Y022658D02*
X009206Y023293D01*
X009206Y025658D02*
X009206Y026293D01*
X010206Y026293D02*
X010206Y025658D01*
X011206Y025658D02*
X011206Y026293D01*
X012206Y026293D02*
X012206Y025658D01*
X013206Y025658D02*
X013206Y026293D01*
X014206Y026293D02*
X014206Y025658D01*
X015206Y025658D02*
X015206Y026293D01*
X013523Y027475D02*
X012888Y027475D01*
X012888Y028475D02*
X013523Y028475D01*
X013523Y029475D02*
X012888Y029475D01*
X012888Y030475D02*
X013523Y030475D01*
X013523Y031475D02*
X012888Y031475D01*
X012888Y032475D02*
X013523Y032475D01*
X013523Y033475D02*
X012888Y033475D01*
X012888Y034475D02*
X013523Y034475D01*
X013523Y035475D02*
X012888Y035475D01*
X012888Y036475D02*
X013523Y036475D01*
X013523Y037475D02*
X012888Y037475D01*
X012888Y038475D02*
X013523Y038475D01*
X016706Y038043D02*
X016706Y037408D01*
X017706Y037408D02*
X017706Y038043D01*
X018706Y038043D02*
X018706Y037408D01*
X019706Y037408D02*
X019706Y038043D01*
X020706Y038043D02*
X020706Y037408D01*
X021706Y037408D02*
X021706Y038043D01*
X022706Y038043D02*
X022706Y037408D01*
X023706Y037408D02*
X023706Y038043D01*
X024706Y038043D02*
X024706Y037408D01*
X025706Y037408D02*
X025706Y038043D01*
X026706Y038043D02*
X026706Y037408D01*
X027706Y037408D02*
X027706Y038043D01*
X028706Y038043D02*
X028706Y037408D01*
X029706Y037408D02*
X029706Y038043D01*
X030706Y038043D02*
X030706Y037408D01*
X031706Y037408D02*
X031706Y038043D01*
X032706Y038043D02*
X032706Y037408D01*
X033706Y037408D02*
X033706Y038043D01*
X034706Y038043D02*
X034706Y037408D01*
X035706Y037408D02*
X035706Y038043D01*
X039138Y038225D02*
X039773Y038225D01*
X039773Y037225D02*
X039138Y037225D01*
X039138Y036225D02*
X039773Y036225D01*
X039773Y035225D02*
X039138Y035225D01*
X039138Y034225D02*
X039773Y034225D01*
X039773Y033225D02*
X039138Y033225D01*
X039138Y032225D02*
X039773Y032225D01*
X039773Y031225D02*
X039138Y031225D01*
X039138Y030225D02*
X039773Y030225D01*
X039773Y029225D02*
X039138Y029225D01*
X039138Y028225D02*
X039773Y028225D01*
X039773Y027225D02*
X039138Y027225D01*
X035706Y031408D02*
X035706Y032043D01*
X034706Y032043D02*
X034706Y031408D01*
X033706Y031408D02*
X033706Y032043D01*
X032706Y032043D02*
X032706Y031408D01*
X031706Y031408D02*
X031706Y032043D01*
X030706Y032043D02*
X030706Y031408D01*
X029706Y031408D02*
X029706Y032043D01*
X028706Y032043D02*
X028706Y031408D01*
X027706Y031408D02*
X027706Y032043D01*
X026706Y032043D02*
X026706Y031408D01*
X025706Y031408D02*
X025706Y032043D01*
X024706Y032043D02*
X024706Y031408D01*
X023706Y031408D02*
X023706Y032043D01*
X022706Y032043D02*
X022706Y031408D01*
X021706Y031408D02*
X021706Y032043D01*
X020706Y032043D02*
X020706Y031408D01*
X019706Y031408D02*
X019706Y032043D01*
X018706Y032043D02*
X018706Y031408D01*
X017706Y031408D02*
X017706Y032043D01*
X016706Y032043D02*
X016706Y031408D01*
X009523Y031475D02*
X008888Y031475D01*
X008888Y032475D02*
X009523Y032475D01*
X009523Y033475D02*
X008888Y033475D01*
X008888Y034475D02*
X009523Y034475D01*
X009523Y035475D02*
X008888Y035475D01*
X008888Y036475D02*
X009523Y036475D01*
X009523Y037475D02*
X008888Y037475D01*
X008888Y038475D02*
X009523Y038475D01*
X009523Y030475D02*
X008888Y030475D01*
X008888Y029475D02*
X009523Y029475D01*
X009523Y028475D02*
X008888Y028475D01*
X008888Y027475D02*
X009523Y027475D01*
X039138Y039225D02*
X039773Y039225D01*
X039773Y040225D02*
X039138Y040225D01*
X039138Y041225D02*
X039773Y041225D01*
X039773Y042225D02*
X039138Y042225D01*
X039138Y043225D02*
X039773Y043225D01*
X039773Y044225D02*
X039138Y044225D01*
X039138Y045225D02*
X039773Y045225D01*
X039773Y046225D02*
X039138Y046225D01*
X045138Y046225D02*
X045773Y046225D01*
X045773Y045225D02*
X045138Y045225D01*
X045138Y044225D02*
X045773Y044225D01*
X045773Y043225D02*
X045138Y043225D01*
X045138Y042225D02*
X045773Y042225D01*
X045773Y041225D02*
X045138Y041225D01*
X045138Y040225D02*
X045773Y040225D01*
X045773Y039225D02*
X045138Y039225D01*
X045138Y038225D02*
X045773Y038225D01*
X045773Y037225D02*
X045138Y037225D01*
X045138Y036225D02*
X045773Y036225D01*
X045773Y035225D02*
X045138Y035225D01*
X045138Y034225D02*
X045773Y034225D01*
X045773Y033225D02*
X045138Y033225D01*
X045138Y032225D02*
X045773Y032225D01*
X045773Y031225D02*
X045138Y031225D01*
X045138Y030225D02*
X045773Y030225D01*
X045773Y029225D02*
X045138Y029225D01*
X045138Y028225D02*
X045773Y028225D01*
X045773Y027225D02*
X045138Y027225D01*
X049513Y027225D02*
X050148Y027225D01*
X050148Y028225D02*
X049513Y028225D01*
X049513Y029225D02*
X050148Y029225D01*
X050148Y030225D02*
X049513Y030225D01*
X049513Y031225D02*
X050148Y031225D01*
X050148Y032225D02*
X049513Y032225D01*
X049513Y033225D02*
X050148Y033225D01*
X050148Y034225D02*
X049513Y034225D01*
X049513Y035225D02*
X050148Y035225D01*
X050148Y036225D02*
X049513Y036225D01*
X049513Y037225D02*
X050148Y037225D01*
X050148Y038225D02*
X049513Y038225D01*
X049513Y039225D02*
X050148Y039225D01*
X050148Y040225D02*
X049513Y040225D01*
X049513Y041225D02*
X050148Y041225D01*
X050148Y042225D02*
X049513Y042225D01*
X049513Y043225D02*
X050148Y043225D01*
X050148Y044225D02*
X049513Y044225D01*
X049513Y045225D02*
X050148Y045225D01*
X050148Y046225D02*
X049513Y046225D01*
X065388Y020100D02*
X066023Y020100D01*
X066023Y019100D02*
X065388Y019100D01*
X065388Y018100D02*
X066023Y018100D01*
X066023Y017100D02*
X065388Y017100D01*
X065388Y016100D02*
X066023Y016100D01*
X066023Y015100D02*
X065388Y015100D01*
X065388Y014100D02*
X066023Y014100D01*
X066023Y013100D02*
X065388Y013100D01*
X065388Y012100D02*
X066023Y012100D01*
X066023Y011100D02*
X065388Y011100D01*
X065388Y010100D02*
X066023Y010100D01*
X066023Y009100D02*
X065388Y009100D01*
X065388Y008100D02*
X066023Y008100D01*
X066023Y007100D02*
X065388Y007100D01*
X065388Y006100D02*
X066023Y006100D01*
X066023Y005100D02*
X065388Y005100D01*
D13*
X043396Y006100D02*
X042766Y006100D01*
X042766Y007100D02*
X043396Y007100D01*
X043396Y008100D02*
X042766Y008100D01*
X042766Y009100D02*
X043396Y009100D01*
X043396Y010100D02*
X042766Y010100D01*
X042766Y011100D02*
X043396Y011100D01*
X043396Y012100D02*
X042766Y012100D01*
X042766Y013100D02*
X043396Y013100D01*
X043396Y014100D02*
X042766Y014100D01*
X042766Y015100D02*
X043396Y015100D01*
X043396Y016100D02*
X042766Y016100D01*
X042766Y017100D02*
X043396Y017100D01*
X043396Y018100D02*
X042766Y018100D01*
X042766Y019100D02*
X043396Y019100D01*
D14*
X038768Y019600D03*
X034581Y016163D03*
X031081Y018413D03*
X027456Y014788D03*
X030831Y013913D03*
X034893Y013100D03*
X038768Y014413D03*
X048831Y021225D03*
X050831Y019975D03*
X052456Y022600D03*
X055456Y025975D03*
X052956Y027100D03*
X053706Y027975D03*
X052018Y031100D03*
X048456Y031100D03*
X048456Y034725D03*
X052018Y035100D03*
X053706Y038850D03*
X052331Y040100D03*
X053581Y040725D03*
X054456Y041225D03*
X051456Y041975D03*
X053831Y043975D03*
X047706Y045100D03*
X047206Y043725D03*
X047831Y038850D03*
X042081Y037725D03*
X042456Y034725D03*
X041956Y033850D03*
X035456Y038913D03*
X030206Y039475D03*
X031206Y042600D03*
X025706Y040100D03*
X022706Y040100D03*
X019956Y040100D03*
X017581Y039475D03*
X017081Y035225D03*
X017581Y034100D03*
X023081Y030100D03*
X022081Y029725D03*
X019581Y028975D03*
X017206Y029238D03*
X015581Y029788D03*
X014331Y028975D03*
X017206Y027338D03*
X023831Y022975D03*
X025331Y023475D03*
X024706Y024350D03*
X025081Y025850D03*
X026081Y025600D03*
X027081Y025475D03*
X029706Y023975D03*
X030831Y023975D03*
X031956Y023975D03*
X035831Y024600D03*
X034956Y026975D03*
X033831Y026975D03*
X027331Y023350D03*
X023081Y018725D03*
X019331Y019350D03*
X018456Y018600D03*
X017831Y017725D03*
X017206Y018600D03*
X016081Y017725D03*
X014956Y017725D03*
X014706Y019038D03*
X013143Y017788D03*
X009206Y019275D03*
X009206Y021175D03*
X008956Y016350D03*
X008581Y014475D03*
X009331Y010975D03*
X009331Y009975D03*
X007081Y008288D03*
X021831Y015225D03*
X023081Y014725D03*
X022831Y013225D03*
X022831Y009225D03*
X026456Y008788D03*
X016956Y019850D03*
X018081Y022100D03*
X041456Y026475D03*
X044081Y026350D03*
X045331Y026225D03*
X046331Y025663D03*
X047956Y025975D03*
X047331Y027600D03*
X045831Y023725D03*
X042331Y022975D03*
X053956Y017100D03*
X067956Y018475D03*
X068206Y029600D03*
X067331Y031100D03*
X070331Y031350D03*
X070581Y033725D03*
X067831Y035975D03*
X063206Y038100D03*
X061706Y041225D03*
X062331Y044225D03*
X009581Y040038D03*
X008581Y040288D03*
X007581Y041663D03*
X061706Y005100D03*
X062706Y006663D03*
D15*
X021956Y020975D03*
X020956Y020975D03*
X020956Y021975D03*
X021956Y021975D03*
X021956Y022975D03*
X021956Y023975D03*
X020956Y023975D03*
X020956Y024975D03*
X021956Y024975D03*
X018081Y024100D03*
X017081Y024100D03*
X017081Y023100D03*
X018081Y023100D03*
X017081Y022100D03*
X015956Y019850D03*
X015331Y028975D03*
X016581Y039475D03*
X018956Y040100D03*
X021706Y040100D03*
X024706Y040100D03*
X029206Y039475D03*
X031206Y041600D03*
X007581Y040288D03*
D16*
X067992Y043270D03*
X067992Y044254D03*
X068819Y044254D03*
X070670Y044254D03*
D17*
X069331Y045750D03*
D18*
X028331Y007350D03*
X028331Y006350D03*
X028331Y005350D03*
X026331Y005350D03*
X026331Y006350D03*
X026331Y007350D03*
X024456Y007350D03*
X024456Y006350D03*
X024456Y005350D03*
X022456Y005350D03*
X022456Y006350D03*
X022456Y007350D03*
D19*
X021956Y041308D02*
X021956Y042143D01*
X022706Y043308D02*
X022706Y044143D01*
X024206Y044143D02*
X024206Y043308D01*
X024956Y042143D02*
X024956Y041308D01*
X026456Y041308D02*
X026456Y042143D01*
X027206Y043308D02*
X027206Y044143D01*
X028706Y044143D02*
X028706Y043308D01*
X029456Y042143D02*
X029456Y041308D01*
X027956Y041308D02*
X027956Y042143D01*
X025706Y043308D02*
X025706Y044143D01*
X023456Y042143D02*
X023456Y041308D01*
X020456Y041308D02*
X020456Y042143D01*
X021206Y043308D02*
X021206Y044143D01*
X019706Y044143D02*
X019706Y043308D01*
X018956Y042143D02*
X018956Y041308D01*
X017456Y041308D02*
X017456Y042143D01*
X018206Y043308D02*
X018206Y044143D01*
X016706Y044143D02*
X016706Y043308D01*
X015956Y042143D02*
X015956Y041308D01*
X014456Y041308D02*
X014456Y042143D01*
X015206Y043308D02*
X015206Y044143D01*
D20*
X010912Y016100D03*
X011006Y010600D03*
X021100Y016100D03*
X021706Y010600D03*
D21*
X020106Y016900D03*
X019106Y016900D03*
X018106Y016900D03*
X017106Y016900D03*
X016106Y016900D03*
X015106Y016900D03*
X014106Y016900D03*
X013106Y016900D03*
X012506Y016900D03*
X012006Y016900D03*
X011506Y016900D03*
D22*
X014973Y031225D02*
X015688Y031225D01*
X015688Y032225D02*
X014973Y032225D01*
X014973Y033225D02*
X015688Y033225D01*
X011456Y041243D02*
X011456Y041958D01*
X010456Y041958D02*
X010456Y041243D01*
X009456Y041243D02*
X009456Y041958D01*
X067831Y040645D02*
X067831Y039931D01*
X068831Y039931D02*
X068831Y040645D01*
X069831Y040645D02*
X069831Y039931D01*
X070831Y039931D02*
X070831Y040645D01*
D23*
X031993Y030600D02*
X031206Y030600D01*
D24*
X030206Y030600D03*
X029206Y030600D03*
X028206Y030600D03*
X027206Y030600D03*
X026206Y030600D03*
X025206Y030600D03*
X027206Y027600D03*
X028206Y027600D03*
X029206Y027600D03*
X030206Y027600D03*
X031206Y027600D03*
D25*
X026206Y027600D03*
X025206Y027600D03*
D26*
X036831Y043507D03*
X035748Y044491D03*
X036831Y045475D03*
D27*
X010081Y016764D03*
X010081Y015937D03*
X010081Y014764D03*
X010081Y013937D03*
D28*
X008956Y017351D03*
X008956Y018100D03*
X007956Y032851D03*
X007956Y033600D03*
D29*
X008959Y012413D03*
X010078Y012413D03*
D30*
X032956Y039213D03*
D31*
X032956Y040613D03*
D32*
X035456Y038913D02*
X035706Y037788D01*
X035706Y037725D02*
X036831Y037725D01*
X038331Y036225D01*
X039456Y036225D01*
X039456Y037225D02*
X038581Y037225D01*
X037581Y038225D01*
X037581Y042757D01*
X036831Y043507D01*
X035706Y044413D02*
X036831Y045538D01*
X036831Y045475D02*
X038331Y043975D01*
X038331Y040725D01*
X038518Y040538D01*
X028331Y036600D02*
X027831Y036600D01*
X024206Y032975D01*
X020206Y032975D01*
X019706Y032475D01*
X019706Y031725D01*
X015581Y029788D02*
X015456Y028913D01*
X007581Y040288D02*
X006831Y040288D01*
X006831Y040913D01*
X007581Y041663D01*
X006831Y040288D02*
X006831Y008538D01*
X007081Y008288D01*
X025831Y017600D02*
X026643Y017600D01*
X050835Y019100D02*
X050835Y014104D01*
X055956Y015475D02*
X055956Y019975D01*
X055831Y020225D01*
X055831Y024225D01*
X057267Y025912D01*
X057952Y025912D01*
X057702Y026972D01*
X057706Y031225D01*
X057706Y035225D01*
X057706Y041475D01*
X057706Y035225D02*
X055831Y035225D01*
X057706Y031225D02*
X059706Y031225D01*
X066952Y022912D02*
X068831Y021033D01*
X068831Y015475D01*
X067456Y014100D01*
X066956Y013600D01*
X066581Y013600D01*
X071706Y010475D02*
X071706Y041663D01*
X071706Y045850D01*
X070456Y047100D01*
X067081Y047100D01*
X065706Y046225D01*
X065706Y020100D02*
X066831Y020100D01*
X067956Y018975D01*
X067956Y018475D01*
X071706Y010475D02*
X066706Y005475D01*
X066706Y004600D01*
X066456Y004350D01*
X065081Y004350D01*
X064331Y005100D01*
X056534Y014105D02*
X056581Y014153D01*
X056581Y014850D01*
X055956Y015475D01*
X050835Y019100D02*
X050831Y019975D01*
D33*
X064331Y013350D02*
X064331Y005100D01*
X062956Y005100D01*
X060956Y007100D01*
X059706Y007100D01*
X064331Y013350D02*
X064581Y013600D01*
X047835Y005104D02*
X041327Y005104D01*
X040081Y006100D01*
X039331Y006100D01*
X037206Y008225D01*
X035831Y008225D01*
X035831Y009600D01*
X035831Y008225D02*
X031643Y008225D01*
X030831Y009038D01*
X030831Y009288D01*
X030831Y009600D01*
X029831Y010600D02*
X029831Y011100D01*
X027831Y009600D02*
X027831Y008975D01*
X024831Y010600D02*
X021706Y010600D01*
X021706Y014038D01*
X021101Y014643D01*
X021101Y015163D01*
X021164Y015225D01*
X021831Y015225D01*
X021101Y015163D02*
X021101Y015353D01*
X021100Y016100D01*
X024268Y015600D02*
X024831Y015600D01*
X024831Y014600D02*
X024206Y014600D01*
X024206Y013600D02*
X024831Y013600D01*
X025831Y014600D02*
X026268Y014600D01*
X024831Y016600D02*
X024268Y016600D01*
X024268Y017600D02*
X024831Y017600D01*
X024831Y018600D02*
X024268Y018600D01*
X025831Y018600D02*
X026143Y018663D01*
X029831Y021600D02*
X029831Y022288D01*
X030831Y022288D02*
X030831Y021600D01*
X031831Y021600D02*
X031831Y022288D01*
X032831Y022288D02*
X032831Y021600D01*
X033831Y021600D02*
X033831Y022288D01*
X034831Y022288D02*
X034831Y021600D01*
X021706Y010600D02*
X014206Y010600D01*
X011006Y010600D01*
X011006Y011550D01*
X010912Y013225D02*
X010912Y014850D01*
X010912Y016100D01*
X032831Y009600D02*
X032831Y009038D01*
X013206Y038475D02*
X009206Y038475D01*
D34*
X008456Y039350D02*
X013581Y039350D01*
X014456Y038475D01*
X014456Y036975D01*
X016206Y035225D01*
X017081Y035225D01*
X014206Y032600D02*
X014206Y030913D01*
X014643Y030475D01*
X016393Y030475D01*
X016706Y030663D01*
X019456Y030663D01*
X019768Y030475D01*
X022706Y030475D01*
X023081Y030100D01*
X023956Y029850D02*
X022081Y028350D01*
X020081Y028350D01*
X018206Y026475D01*
X018206Y024225D01*
X018081Y024100D01*
X017081Y024100D02*
X015643Y024100D01*
X015206Y023663D01*
X015206Y022975D01*
X015206Y021913D01*
X014706Y021413D01*
X014706Y019038D01*
X015518Y019850D01*
X015956Y019850D01*
X017206Y020475D02*
X016331Y021350D01*
X016331Y022725D01*
X017081Y023100D01*
X018081Y023100D02*
X018581Y023100D01*
X018956Y023475D01*
X018956Y026475D01*
X020206Y027725D01*
X022081Y027725D01*
X024206Y029475D01*
X035706Y029475D01*
X037456Y027725D01*
X037456Y026850D01*
X038456Y025850D01*
X040206Y025850D01*
X040831Y026475D01*
X040831Y030975D01*
X043581Y033725D01*
X043581Y035225D01*
X042956Y035850D01*
X042706Y035850D01*
X041331Y037225D01*
X041331Y038100D01*
X041581Y038350D01*
X042581Y038350D01*
X042956Y037975D01*
X042956Y037225D01*
X044081Y036100D01*
X044456Y035225D01*
X044456Y034600D01*
X044831Y034225D01*
X045456Y034225D01*
X045456Y033225D02*
X044956Y033225D01*
X042206Y030475D01*
X042206Y025725D01*
X041831Y025350D01*
X038206Y025350D01*
X036956Y026600D01*
X036956Y027600D01*
X035456Y029100D01*
X024456Y029100D01*
X022206Y027225D01*
X020456Y027225D01*
X019331Y026100D01*
X019331Y022600D01*
X018831Y022100D01*
X018081Y022100D01*
X019706Y021600D02*
X018581Y020475D01*
X017956Y020475D01*
X017206Y020475D01*
X017956Y020475D02*
X017956Y019350D01*
X017206Y018600D01*
X017831Y017725D02*
X018106Y017325D01*
X018106Y016900D01*
X017106Y016900D02*
X017106Y016100D01*
X014106Y016100D01*
X012956Y014950D01*
X011031Y014950D01*
X011031Y014850D01*
X010912Y014850D01*
X010081Y014764D02*
X010081Y015850D01*
X009456Y015850D01*
X008956Y016350D01*
X007610Y016571D02*
X007598Y016586D01*
X007589Y016604D01*
X007583Y016622D01*
X007581Y016642D01*
X007581Y031788D01*
X007331Y032038D01*
X007331Y034163D01*
X007552Y034384D01*
X007581Y034454D02*
X007581Y038475D01*
X008456Y039350D01*
X007581Y034454D02*
X007579Y034434D01*
X007573Y034416D01*
X007564Y034398D01*
X007552Y034383D01*
X009893Y032975D02*
X012456Y032975D01*
X013831Y032975D02*
X014206Y032600D01*
X016612Y030132D02*
X018862Y030132D01*
X019206Y030163D01*
X019581Y030038D01*
X021768Y030038D01*
X022081Y029725D01*
X020143Y030850D02*
X019706Y031288D01*
X019706Y031725D01*
X020143Y030850D02*
X024206Y030850D01*
X023956Y029850D02*
X036081Y029850D01*
X037956Y027975D01*
X037956Y027100D01*
X038706Y026350D01*
X040081Y026350D01*
X040456Y026725D01*
X040456Y031350D01*
X043206Y034100D01*
X043206Y034975D01*
X042706Y035475D01*
X042456Y035475D01*
X040831Y037100D01*
X040831Y038350D01*
X041206Y038725D01*
X042831Y038725D01*
X043456Y038100D01*
X043456Y037350D01*
X044581Y036225D01*
X044581Y035975D01*
X044831Y035475D01*
X045081Y035225D01*
X045456Y035225D01*
X045456Y036225D02*
X045206Y036225D01*
X043956Y037475D01*
X043956Y038350D01*
X043081Y039225D01*
X041081Y039225D01*
X040456Y038600D01*
X040456Y037475D01*
X040206Y037225D01*
X039456Y037225D01*
X037331Y036100D02*
X039081Y034225D01*
X039456Y034225D01*
X040456Y034225D01*
X040956Y034725D01*
X042456Y034725D01*
X041956Y033850D02*
X041081Y033850D01*
X040456Y033225D01*
X039456Y033225D01*
X039081Y033225D01*
X036956Y035600D01*
X029081Y035600D01*
X026706Y033225D01*
X026706Y031725D01*
X027706Y031725D02*
X027706Y033475D01*
X029331Y035100D01*
X036706Y035100D01*
X038956Y032350D01*
X039456Y032225D01*
X038956Y031475D02*
X039456Y031225D01*
X038956Y031475D02*
X036456Y034600D01*
X029581Y034600D01*
X028706Y033725D01*
X028706Y031725D01*
X029706Y031725D02*
X029706Y033850D01*
X029956Y034100D01*
X036206Y034100D01*
X039206Y030225D01*
X039456Y030225D01*
X038456Y030350D02*
X038456Y029850D01*
X039081Y029225D01*
X039456Y029225D01*
X039456Y028225D02*
X039206Y028225D01*
X037956Y029475D01*
X037956Y030225D01*
X035831Y033100D01*
X032206Y033100D01*
X031706Y032600D01*
X031706Y031725D01*
X032706Y031725D02*
X032706Y031100D01*
X033081Y030725D01*
X035956Y030725D01*
X038456Y028100D01*
X038456Y027600D01*
X038831Y027225D01*
X039456Y027225D01*
X041456Y026475D02*
X041456Y030600D01*
X043956Y033100D01*
X043956Y035475D01*
X042081Y037350D01*
X042081Y037725D01*
X043331Y039725D02*
X044456Y038600D01*
X044456Y037850D01*
X045081Y037225D01*
X045456Y037225D01*
X046768Y038038D02*
X046893Y037788D01*
X046893Y030288D01*
X046331Y029725D01*
X046206Y029225D02*
X045456Y029225D01*
X044956Y029725D02*
X044831Y029725D01*
X044456Y029350D01*
X044456Y026975D01*
X045331Y026225D01*
X046081Y025413D02*
X046331Y025663D01*
X046081Y025413D02*
X045581Y025413D01*
X043706Y023538D01*
X043706Y023163D01*
X042831Y022288D01*
X038706Y022288D01*
X037706Y021288D01*
X037706Y020413D01*
X037393Y020100D01*
X038206Y019975D02*
X038206Y020913D01*
X039143Y021850D01*
X043081Y021850D01*
X044331Y023100D01*
X044331Y023350D01*
X045581Y024600D01*
X046581Y024600D01*
X047956Y025975D01*
X047706Y026850D02*
X046956Y026850D01*
X046456Y027350D01*
X046456Y028975D01*
X046206Y029225D01*
X047706Y029975D02*
X048206Y029475D01*
X048206Y027350D01*
X047706Y026850D01*
X047331Y027600D02*
X047331Y038163D01*
X047143Y038475D01*
X047143Y039225D01*
X047331Y039413D01*
X047331Y043600D01*
X047206Y043725D01*
X047831Y043225D02*
X048081Y043475D01*
X048081Y044725D01*
X047706Y045100D01*
X047081Y045850D02*
X048331Y045850D01*
X048831Y045350D01*
X048831Y044975D01*
X049081Y044725D01*
X049831Y045225D02*
X051456Y045225D01*
X053456Y043225D01*
X054706Y043225D01*
X055206Y043725D01*
X055831Y044225D02*
X056331Y044225D01*
X057081Y045475D01*
X057081Y046850D01*
X056581Y047350D01*
X043081Y047350D01*
X040956Y045225D01*
X039456Y045225D01*
X039456Y044225D02*
X041206Y044225D01*
X043831Y046850D01*
X056456Y046850D01*
X056706Y046600D01*
X056706Y045725D01*
X056206Y045225D01*
X055831Y045225D01*
X055831Y046225D02*
X054331Y046225D01*
X053831Y045725D01*
X053831Y043975D01*
X053206Y042725D02*
X055081Y042725D01*
X054831Y041975D02*
X053206Y041975D01*
X051456Y043725D01*
X050456Y043725D01*
X050081Y043225D02*
X049831Y043225D01*
X050456Y042725D02*
X051831Y042725D01*
X052706Y041850D01*
X052706Y040725D01*
X053081Y040225D01*
X053081Y039850D01*
X052581Y039350D01*
X052581Y036850D01*
X053143Y036288D01*
X053143Y030163D01*
X052206Y029225D01*
X052206Y026725D01*
X053706Y025225D01*
X053706Y017350D01*
X053956Y017100D01*
X054831Y018600D02*
X054331Y019850D01*
X054331Y027100D01*
X054456Y027225D01*
X054456Y041225D01*
X055081Y041725D02*
X054831Y041975D01*
X055081Y041725D02*
X055206Y041725D01*
X056456Y041725D02*
X057331Y042600D01*
X057331Y043725D01*
X057456Y043850D01*
X056956Y043725D02*
X058581Y046475D01*
X058956Y046850D01*
X060331Y046850D01*
X060956Y046225D01*
X060956Y044100D01*
X060581Y043725D01*
X060331Y043725D01*
X060956Y043225D02*
X061456Y043725D01*
X061456Y045725D01*
X065154Y045725D01*
X066331Y045725D02*
X066581Y045725D01*
X066831Y045475D01*
X066831Y042850D01*
X069331Y041038D01*
X069831Y040913D02*
X069831Y040288D01*
X069831Y040913D02*
X070456Y041538D01*
X071581Y041538D01*
X071706Y041663D01*
X069331Y039225D02*
X068706Y038600D01*
X068706Y037538D01*
X069581Y036663D01*
X069581Y030600D01*
X069956Y030225D01*
X069956Y014725D01*
X067331Y012100D01*
X065706Y012100D01*
X065706Y013100D02*
X067456Y013100D01*
X069456Y015100D01*
X069456Y029850D01*
X069081Y030225D01*
X069081Y036600D01*
X067956Y037725D01*
X067956Y038788D01*
X068331Y039163D01*
X068331Y039600D01*
X067456Y039038D02*
X067456Y037600D01*
X068581Y036475D01*
X068581Y029975D01*
X068206Y029600D01*
X067331Y029975D02*
X067331Y026850D01*
X067706Y026475D01*
X067706Y024975D01*
X066456Y023725D01*
X066456Y023600D01*
X065581Y024100D02*
X064831Y024100D01*
X064456Y023725D01*
X065581Y024100D02*
X066456Y024975D01*
X066456Y025350D01*
X065956Y025915D02*
X065952Y025912D01*
X065956Y025915D02*
X065706Y026850D01*
X065706Y031225D01*
X065706Y032225D02*
X065081Y032225D01*
X064706Y031850D01*
X064706Y029975D01*
X064956Y029725D01*
X064956Y025915D01*
X064952Y025912D01*
X063952Y025912D02*
X063952Y026597D01*
X064206Y026850D01*
X064206Y032350D01*
X065081Y033225D01*
X065706Y033225D01*
X065706Y034225D02*
X065206Y034225D01*
X063706Y032725D01*
X063706Y027350D01*
X062956Y026600D01*
X062956Y025915D01*
X062952Y025912D01*
X062956Y025908D01*
X062956Y025100D01*
X061456Y023600D01*
X061456Y023475D01*
X060456Y023475D02*
X062456Y025225D01*
X061456Y025100D02*
X060081Y023850D01*
X058706Y023850D01*
X058456Y023600D01*
X058081Y024350D02*
X059831Y024350D01*
X060456Y024975D01*
X060456Y025350D01*
X060952Y025912D02*
X060956Y025915D01*
X060956Y027225D01*
X062206Y028475D01*
X062206Y035350D01*
X060831Y036725D01*
X060706Y036225D02*
X059706Y036225D01*
X059081Y035725D02*
X058956Y035725D01*
X058706Y035475D01*
X058706Y034975D01*
X058956Y034725D01*
X059081Y034725D01*
X058831Y034225D02*
X059706Y034225D01*
X060331Y034725D02*
X060706Y034350D01*
X060706Y033725D01*
X060206Y033225D01*
X059706Y033225D01*
X059706Y032225D02*
X060331Y032225D01*
X060581Y031975D01*
X060581Y030600D01*
X058956Y028975D01*
X058956Y025915D01*
X058952Y025912D01*
X059456Y026475D02*
X059456Y028475D01*
X061081Y030100D01*
X061081Y034725D01*
X060581Y035225D01*
X059706Y035225D01*
X060456Y035725D02*
X060581Y035725D01*
X061456Y034850D01*
X061456Y029600D01*
X059956Y028100D01*
X059956Y025915D01*
X059952Y025912D01*
X060456Y026475D02*
X060456Y027725D01*
X061831Y029100D01*
X061831Y035100D01*
X060706Y036225D01*
X059081Y036725D02*
X058331Y035975D01*
X058331Y034725D01*
X058831Y034225D01*
X056956Y032850D02*
X056956Y026850D01*
X056081Y025975D01*
X055456Y025975D01*
X054893Y026663D02*
X054706Y026475D01*
X054706Y025475D01*
X055081Y025100D01*
X055081Y019850D01*
X055331Y019350D01*
X055331Y009475D01*
X055706Y009100D01*
X056529Y009100D01*
X056534Y009105D01*
X058706Y009350D02*
X058706Y020725D01*
X059081Y021100D01*
X059956Y021100D01*
X060456Y021600D01*
X060456Y022350D01*
X061456Y022350D02*
X061456Y019100D01*
X060456Y018100D01*
X059706Y018100D01*
X059706Y017100D02*
X060456Y017100D01*
X062456Y019100D01*
X062456Y022350D01*
X063206Y021725D02*
X063206Y018850D01*
X060456Y016100D01*
X059706Y016100D01*
X059706Y015100D02*
X060456Y015100D01*
X060831Y014725D01*
X060831Y008975D01*
X060456Y008600D01*
X060831Y008100D02*
X059706Y008100D01*
X058956Y008600D02*
X058706Y008350D01*
X058706Y006850D01*
X058956Y006600D01*
X058706Y006100D02*
X058206Y006600D01*
X058206Y011975D01*
X058331Y012225D01*
X058331Y015975D01*
X058081Y016225D01*
X058081Y021350D01*
X058456Y021725D01*
X058456Y022350D01*
X057081Y023350D02*
X057081Y021225D01*
X057456Y020850D01*
X057456Y016100D01*
X057893Y015663D01*
X057893Y012793D01*
X057206Y012105D01*
X056534Y012105D01*
X056534Y013105D02*
X057081Y013105D01*
X057456Y013480D01*
X057456Y015225D01*
X056706Y015975D02*
X056706Y020475D01*
X056456Y020725D01*
X056456Y023725D01*
X057581Y024850D01*
X059206Y024850D01*
X059456Y025100D01*
X058081Y024350D02*
X057081Y023350D01*
X053206Y024850D02*
X053206Y021475D01*
X052706Y020975D01*
X050581Y020975D01*
X049581Y019975D01*
X049581Y010600D01*
X050077Y010104D01*
X050835Y010104D01*
X049581Y009725D02*
X048706Y010600D01*
X048456Y010600D01*
X049581Y009725D02*
X049581Y008038D01*
X050018Y007600D01*
X050206Y007600D01*
X049202Y006104D02*
X047835Y006104D01*
X049202Y006104D02*
X049706Y005600D01*
X051430Y005600D02*
X052131Y005600D01*
X052636Y006105D01*
X053534Y006105D01*
X053539Y006100D01*
X054456Y006100D01*
X055143Y005413D01*
X055143Y004913D01*
X055706Y004350D01*
X060956Y004350D01*
X061706Y005100D01*
X060768Y005850D02*
X060393Y005600D01*
X058268Y005600D01*
X057706Y006163D01*
X057706Y007163D01*
X057268Y007600D01*
X058706Y006100D02*
X059706Y006100D01*
X060518Y006600D02*
X060768Y006350D01*
X060768Y005850D01*
X062706Y006663D02*
X062706Y016475D01*
X064206Y017975D01*
X064206Y020850D01*
X065956Y022600D01*
X065956Y022908D01*
X065952Y022912D01*
X066456Y022225D02*
X064706Y020475D01*
X064706Y018350D01*
X064956Y018100D01*
X065706Y018100D01*
X063706Y018350D02*
X062081Y016725D01*
X062081Y009350D01*
X060831Y008100D01*
X059706Y009100D02*
X058956Y009100D01*
X058706Y009350D01*
X054831Y011975D02*
X054456Y011600D01*
X054081Y011600D01*
X054831Y011975D02*
X054831Y018600D01*
X051831Y021975D02*
X052456Y022600D01*
X051831Y021975D02*
X048456Y021975D01*
X046956Y020475D01*
X046206Y020475D01*
X045081Y019350D01*
X045081Y013350D01*
X044331Y012600D01*
X043706Y012600D01*
X043706Y013600D02*
X044081Y013600D01*
X044581Y014100D01*
X044581Y019600D01*
X045956Y020975D01*
X046706Y020975D01*
X051456Y025725D01*
X051456Y025975D01*
X051831Y026225D02*
X053206Y024850D01*
X051831Y026225D02*
X051831Y029725D01*
X052706Y030600D01*
X052706Y035725D01*
X052081Y036350D01*
X052081Y039600D01*
X052331Y040100D01*
X052956Y039100D02*
X052956Y037725D01*
X053581Y037100D01*
X053581Y029725D01*
X052956Y029100D01*
X052956Y027100D01*
X053706Y027975D02*
X053706Y028975D01*
X054018Y029288D01*
X054018Y037788D01*
X053831Y038350D01*
X053706Y038850D01*
X052956Y039100D02*
X053581Y039725D01*
X053581Y040725D01*
X054893Y039913D02*
X054893Y026663D01*
X051081Y026225D02*
X046331Y021475D01*
X045706Y021475D01*
X044081Y019850D01*
X044081Y015850D01*
X043831Y015600D01*
X042518Y015600D02*
X040456Y015600D01*
X040581Y016600D02*
X041456Y016600D01*
X042081Y017225D01*
X042081Y019600D01*
X042831Y020350D01*
X043831Y020350D01*
X045456Y021975D01*
X046081Y021975D01*
X050706Y026600D01*
X050706Y040975D01*
X050456Y041225D01*
X049831Y041225D01*
X049831Y042225D02*
X050331Y042100D01*
X051206Y041225D01*
X051206Y036350D01*
X051081Y036225D01*
X051081Y026225D01*
X048831Y025600D02*
X045706Y022475D01*
X045206Y022475D01*
X043581Y020850D01*
X042331Y020850D01*
X041581Y020100D01*
X041581Y017850D01*
X041331Y017600D01*
X040581Y017600D01*
X040706Y018600D02*
X040956Y018600D01*
X041081Y018725D01*
X041081Y020600D01*
X041831Y021350D01*
X043331Y021350D01*
X044956Y022975D01*
X045081Y022975D01*
X045831Y023725D01*
X043331Y024725D02*
X042956Y024350D01*
X037706Y024350D01*
X035956Y026100D01*
X035956Y027100D01*
X034768Y028288D01*
X024893Y028288D01*
X022456Y026225D01*
X020956Y026225D01*
X020081Y025350D01*
X020081Y020725D01*
X019331Y019350D01*
X018456Y018600D02*
X019106Y017950D01*
X019106Y016900D01*
X019106Y016000D01*
X015518Y012413D01*
X010078Y012413D01*
X008959Y012413D02*
X008959Y012940D01*
X009956Y013937D01*
X010081Y013937D01*
X009331Y014100D02*
X009331Y014850D01*
X007610Y016571D01*
X007581Y016600D01*
X008956Y017351D02*
X009493Y017351D01*
X010081Y016764D01*
X010956Y016975D02*
X010956Y016150D01*
X010912Y016100D01*
X010081Y015937D02*
X010081Y015850D01*
X010956Y016975D02*
X009457Y018100D01*
X008956Y018100D01*
X008268Y019788D02*
X008268Y026288D01*
X008831Y026850D01*
X009956Y026850D01*
X010581Y027475D01*
X010581Y032100D01*
X010206Y032475D01*
X009206Y032475D01*
X015331Y028975D02*
X015456Y028475D01*
X013831Y026850D01*
X011206Y026850D01*
X010581Y027475D01*
X015206Y027100D02*
X015206Y025975D01*
X015206Y027100D02*
X016331Y028475D01*
X016331Y029850D01*
X016612Y030132D01*
X019581Y028975D02*
X019206Y028225D01*
X017706Y026725D01*
X017706Y025288D01*
X017456Y025038D01*
X015956Y025038D01*
X014393Y023475D01*
X014206Y023475D01*
X014206Y022975D01*
X019706Y021600D02*
X019706Y025725D01*
X020706Y026725D01*
X022331Y026725D01*
X024706Y028725D01*
X035081Y028725D01*
X036456Y027350D01*
X036456Y026350D01*
X037956Y024850D01*
X042456Y024850D01*
X042831Y025225D01*
X042831Y030225D01*
X044831Y032225D01*
X045456Y032225D01*
X045456Y031225D02*
X044581Y031225D01*
X043331Y029975D01*
X043331Y024725D01*
X044081Y026350D02*
X043956Y026475D01*
X043956Y029975D01*
X044706Y030725D01*
X044831Y030725D01*
X046081Y030725D02*
X046393Y031038D01*
X046393Y038913D01*
X046081Y039225D01*
X045456Y039225D01*
X046768Y038038D02*
X046768Y040538D01*
X046081Y041225D01*
X045456Y041225D01*
X045456Y042225D02*
X046081Y042225D01*
X046456Y042600D01*
X046456Y045225D01*
X047081Y045850D01*
X046831Y046350D02*
X048581Y046350D01*
X049206Y045725D01*
X050581Y045725D02*
X053831Y045725D01*
X051206Y044725D02*
X050456Y044725D01*
X051206Y044725D02*
X053206Y042725D01*
X051581Y041850D02*
X051456Y041975D01*
X051581Y041850D02*
X051581Y035850D01*
X049831Y037225D02*
X049206Y037225D01*
X048956Y037475D01*
X048956Y042475D01*
X049206Y042725D01*
X048456Y043100D02*
X049081Y043725D01*
X049206Y043725D01*
X048456Y043100D02*
X048456Y038225D01*
X047706Y037475D01*
X047706Y029975D01*
X048831Y030475D02*
X048831Y025600D01*
X048831Y021225D02*
X047581Y019975D01*
X047581Y015725D01*
X046956Y015100D01*
X046081Y015100D01*
X042518Y012600D02*
X040518Y012600D01*
X040643Y010600D02*
X042518Y010600D01*
X043643Y010600D02*
X045518Y010600D01*
X044143Y009600D02*
X044706Y009038D01*
X044706Y007038D01*
X045143Y006600D01*
X045518Y006600D01*
X044143Y009600D02*
X043643Y009600D01*
X039456Y009600D02*
X039143Y009600D01*
X037643Y011100D01*
X037331Y011100D01*
X037268Y012100D02*
X037643Y012100D01*
X039143Y010600D01*
X039456Y010600D01*
X035331Y011100D02*
X035143Y011100D01*
X034831Y011413D01*
X032331Y011413D01*
X030831Y012913D01*
X030831Y013913D01*
X031206Y014788D02*
X031956Y014038D01*
X031956Y012788D01*
X032893Y011850D01*
X034456Y011850D01*
X034831Y012100D01*
X035081Y012975D02*
X034893Y013100D01*
X035081Y012975D02*
X035206Y013100D01*
X035518Y014100D02*
X034081Y014100D01*
X033018Y015163D01*
X028081Y015163D01*
X028018Y015600D02*
X033456Y015600D01*
X033956Y015100D01*
X035518Y015100D01*
X034956Y015538D02*
X035393Y016100D01*
X035518Y016100D01*
X034956Y015538D02*
X034206Y015538D01*
X033768Y015975D01*
X028143Y015975D01*
X028393Y016350D02*
X033893Y016350D01*
X034643Y017100D01*
X035581Y017100D01*
X035581Y018100D02*
X034956Y018100D01*
X033581Y016725D01*
X028331Y016725D01*
X027206Y018163D02*
X026643Y017600D01*
X026393Y020038D02*
X025831Y020600D01*
X024581Y022350D02*
X023456Y021225D01*
X023456Y020225D01*
X022331Y019100D01*
X022331Y016413D01*
X023331Y015413D01*
X023456Y015413D01*
X024206Y014663D01*
X024206Y014600D01*
X024706Y014600D02*
X024831Y014600D01*
X024268Y015600D02*
X024081Y015600D01*
X023081Y016600D01*
X023081Y018725D01*
X022456Y020100D02*
X021706Y020100D01*
X021581Y020100D01*
X020956Y020725D01*
X020956Y020975D01*
X021706Y020100D02*
X021706Y016100D01*
X021100Y016100D01*
X016106Y016900D02*
X016106Y017450D01*
X016081Y017725D01*
X015106Y017325D02*
X015106Y016900D01*
X015106Y017325D02*
X014956Y017725D01*
X014106Y018438D02*
X014706Y019038D01*
X014106Y018438D02*
X014106Y016900D01*
X014106Y016100D01*
X013106Y016900D02*
X013106Y017325D01*
X013143Y017788D01*
X008581Y014475D02*
X007581Y013350D01*
X007581Y009038D01*
X008331Y008288D01*
X009206Y008288D01*
X010018Y007475D01*
X018956Y007475D01*
X019456Y006975D01*
X019456Y005600D01*
X020831Y004225D01*
X027081Y004225D01*
X027456Y004600D01*
X027456Y005850D01*
X027956Y006350D01*
X028331Y006350D01*
X026956Y004850D02*
X026956Y008288D01*
X026456Y008788D01*
X027331Y008788D02*
X027331Y009163D01*
X027331Y008788D02*
X027831Y008288D01*
X030206Y008288D01*
X030831Y009288D01*
X028331Y010975D02*
X028331Y011225D01*
X027081Y012475D01*
X027081Y013788D01*
X026831Y014038D01*
X027456Y014788D02*
X031206Y014788D01*
X026581Y012850D02*
X026581Y012288D01*
X027831Y011038D01*
X027831Y010600D01*
X027331Y010038D01*
X025081Y007600D02*
X024206Y008475D01*
X022456Y008475D01*
X021581Y009350D01*
X010831Y009350D01*
X010206Y009975D01*
X010206Y010788D01*
X010018Y010975D01*
X009331Y010975D01*
X009331Y009975D02*
X010581Y008725D01*
X021456Y008725D01*
X022081Y008100D01*
X022831Y008100D01*
X023456Y007475D01*
X023456Y006725D01*
X023831Y006350D01*
X024456Y006350D01*
X025081Y006850D02*
X025081Y007600D01*
X025081Y006850D02*
X025581Y006350D01*
X026331Y006350D01*
X026956Y004850D02*
X026706Y004600D01*
X021331Y004600D01*
X020206Y005725D01*
X020206Y007225D01*
X019331Y008100D01*
X010268Y008100D01*
X009456Y008913D01*
X008706Y008913D01*
X008206Y009413D01*
X008206Y012975D01*
X009331Y014100D01*
X014106Y010700D02*
X014206Y010600D01*
X026331Y013100D02*
X026581Y012850D01*
X022456Y020100D02*
X022831Y020475D01*
X022831Y025350D01*
X022456Y025725D01*
X021331Y025725D01*
X020956Y025350D01*
X020956Y024975D01*
X023331Y026100D02*
X023331Y023475D01*
X023831Y022975D01*
X024581Y023163D02*
X024581Y022350D01*
X024581Y023163D02*
X023706Y024038D01*
X023706Y025725D01*
X024456Y026475D01*
X033331Y026475D01*
X033831Y026975D01*
X033206Y027725D02*
X032518Y026850D01*
X024081Y026850D01*
X023331Y026100D01*
X024456Y025100D02*
X024081Y024725D01*
X024081Y024100D01*
X024706Y023475D01*
X025331Y023475D01*
X025768Y024038D02*
X024706Y024350D01*
X024831Y025100D02*
X025768Y024413D01*
X028456Y024413D01*
X029081Y024725D01*
X031456Y024725D01*
X031956Y024225D01*
X031956Y023975D01*
X031956Y022663D01*
X031831Y022288D01*
X031331Y022100D02*
X031331Y023475D01*
X030831Y023975D01*
X029706Y023975D02*
X029706Y023288D01*
X030831Y022288D01*
X029331Y022350D02*
X028331Y023350D01*
X027331Y023350D01*
X027643Y024038D02*
X027956Y023975D01*
X029706Y023975D01*
X028768Y025163D02*
X028081Y024850D01*
X025831Y024850D01*
X025206Y025350D01*
X025081Y025850D01*
X024831Y025100D02*
X024456Y025100D01*
X025768Y024038D02*
X027643Y024038D01*
X027081Y025475D02*
X027206Y025600D01*
X032581Y025600D01*
X033831Y024350D01*
X033831Y022288D01*
X034331Y022100D02*
X034331Y024788D01*
X033081Y026038D01*
X027831Y026038D01*
X028768Y025163D02*
X032143Y025163D01*
X032831Y024475D01*
X032831Y022288D01*
X034831Y022288D02*
X034831Y023600D01*
X035831Y024600D01*
X036081Y022975D02*
X042331Y022975D01*
X038206Y019975D02*
X037331Y019100D01*
X037268Y019100D01*
X037831Y018600D02*
X039456Y018600D01*
X037831Y018600D02*
X037331Y018100D01*
X035331Y022225D02*
X036081Y022975D01*
X034956Y026975D02*
X034581Y027725D01*
X033206Y027725D01*
X038456Y030350D02*
X036081Y033600D01*
X031206Y033600D01*
X030706Y033100D01*
X030706Y031725D01*
X028706Y036100D02*
X025706Y033100D01*
X025706Y031725D01*
X028706Y036100D02*
X037331Y036100D01*
X035706Y036600D02*
X035706Y037725D01*
X035706Y036600D02*
X028331Y036600D01*
X038456Y039725D02*
X038456Y040475D01*
X038518Y040538D01*
X038706Y040725D01*
X038831Y040725D01*
X038831Y039725D02*
X038456Y039725D01*
X040081Y039725D02*
X040456Y039725D01*
X040456Y040600D01*
X040331Y040725D01*
X040081Y040725D01*
X040456Y039725D02*
X043331Y039725D01*
X047831Y038850D02*
X047831Y043225D01*
X046206Y045725D02*
X046831Y046350D01*
X044706Y045725D02*
X043956Y045725D01*
X041456Y043225D01*
X039456Y043225D01*
X048456Y034725D02*
X048956Y034725D01*
X049456Y034225D01*
X049831Y034225D01*
X048456Y034725D02*
X048456Y031100D01*
X048831Y030475D02*
X049831Y031225D01*
X051456Y031725D02*
X051456Y034475D01*
X055831Y033225D02*
X056581Y033225D01*
X056956Y032850D01*
X061081Y037663D02*
X062706Y036038D01*
X062706Y027975D01*
X061456Y026725D01*
X062456Y026850D02*
X062456Y026600D01*
X062456Y026850D02*
X063206Y027600D01*
X063206Y036663D01*
X061831Y038038D01*
X061831Y040038D01*
X062706Y040913D01*
X062706Y041663D01*
X062143Y042225D01*
X059706Y042225D01*
X060331Y041725D02*
X061206Y041725D01*
X061706Y041225D01*
X061081Y040538D02*
X060393Y041225D01*
X059706Y041225D01*
X059081Y041725D02*
X058956Y041725D01*
X058331Y042350D01*
X058331Y043725D01*
X059081Y044725D01*
X060206Y044725D02*
X060331Y044725D01*
X060581Y044975D01*
X060581Y045475D01*
X060331Y045725D01*
X060206Y045725D01*
X061456Y045725D02*
X061456Y046475D01*
X060706Y047225D01*
X058456Y047225D01*
X056831Y044225D01*
X056456Y043725D01*
X056956Y043725D02*
X056956Y042975D01*
X056706Y042725D01*
X056581Y042725D01*
X059706Y043225D02*
X060956Y043225D01*
X061331Y042725D02*
X060331Y042725D01*
X061331Y042725D02*
X062331Y043725D01*
X062331Y044225D01*
X064581Y042975D02*
X064831Y043225D01*
X065706Y043225D01*
X065706Y042225D02*
X066706Y042225D01*
X068331Y041038D01*
X067081Y040100D02*
X067081Y039413D01*
X067456Y039038D01*
X066706Y039788D02*
X066268Y040225D01*
X065706Y040225D01*
X066706Y040475D02*
X067081Y040100D01*
X066706Y039788D02*
X066706Y036788D01*
X067518Y035975D01*
X067831Y035975D01*
X066456Y035225D02*
X067331Y034350D01*
X067331Y032225D01*
X068081Y031475D01*
X068081Y030725D01*
X067331Y029975D01*
X066456Y030225D02*
X067331Y031100D01*
X066456Y030225D02*
X066456Y026600D01*
X064456Y022350D02*
X064456Y021975D01*
X063706Y021225D01*
X063706Y018350D01*
X063206Y021725D02*
X063456Y021975D01*
X063456Y022350D01*
X064956Y014600D02*
X066956Y014600D01*
X067456Y014100D01*
X065081Y013600D02*
X064581Y013600D01*
X064581Y014225D01*
X064956Y014600D01*
X070456Y012225D02*
X070456Y031225D01*
X070331Y031350D01*
X070956Y031975D02*
X070581Y032350D01*
X070581Y033725D01*
X070956Y031975D02*
X070956Y010725D01*
X066331Y006100D01*
X065706Y006100D01*
X065706Y008100D02*
X066331Y008100D01*
X070456Y012225D01*
X053088Y011600D02*
X052338Y011600D01*
X051842Y011104D01*
X050835Y011104D01*
X029331Y021975D02*
X029331Y022350D01*
X054893Y039913D02*
X055206Y040225D01*
X055831Y040225D01*
X061081Y040538D02*
X061081Y037663D01*
X063206Y038100D02*
X063206Y039850D01*
X064581Y041225D01*
X065706Y041225D01*
X066331Y041725D02*
X066456Y041725D01*
X066706Y041475D01*
X066706Y040475D01*
X064831Y041725D02*
X064581Y041975D01*
X064581Y042975D01*
X065706Y035225D02*
X066456Y035225D01*
D35*
X006706Y003663D02*
X006081Y003663D01*
X006081Y004288D01*
X017581Y034100D02*
X018206Y034725D01*
X018206Y035788D01*
X017706Y036288D01*
X016331Y036288D01*
X015206Y037413D01*
X015206Y038913D01*
X013956Y040163D01*
X009831Y040163D01*
X009581Y040038D01*
X006081Y047288D02*
X006081Y047913D01*
X006706Y047913D01*
X057831Y043725D02*
X057831Y041850D01*
X057706Y041475D01*
X057831Y043725D02*
X058831Y045225D01*
X059706Y045225D01*
X071831Y047913D02*
X072456Y047913D01*
X072456Y047288D01*
X072456Y004288D02*
X072456Y003663D01*
X071831Y003663D01*
D36*
X060518Y006600D02*
X058956Y006600D01*
X057268Y007600D02*
X050206Y007600D01*
X047835Y006104D02*
X046901Y006600D01*
X045518Y006600D01*
X043643Y009600D02*
X039456Y009600D01*
X039456Y010600D02*
X040643Y010600D01*
X042518Y010600D02*
X043643Y010600D01*
X045518Y010600D02*
X048456Y010600D01*
X053088Y011600D02*
X054081Y011600D01*
X056534Y009105D02*
X056539Y009100D01*
X058956Y008600D02*
X060456Y008600D01*
X065081Y013600D02*
X066581Y013600D01*
X057456Y015225D02*
X056706Y015975D01*
X058456Y022350D02*
X058456Y023600D01*
X059456Y025100D02*
X059456Y026475D01*
X060456Y026475D02*
X060456Y025350D01*
X061456Y025100D02*
X061456Y026725D01*
X062456Y026600D02*
X062456Y025225D01*
X063581Y024850D02*
X064581Y024850D01*
X064956Y025225D01*
X064956Y025908D01*
X064952Y025912D01*
X064956Y026415D01*
X065952Y025912D02*
X065956Y025908D01*
X065956Y025225D01*
X065206Y024475D01*
X064081Y024475D01*
X063456Y023850D01*
X063456Y022350D01*
X064456Y022350D02*
X064456Y023725D01*
X063581Y024850D02*
X062456Y023725D01*
X062456Y022350D01*
X061456Y022350D02*
X061456Y023475D01*
X060456Y023475D02*
X060456Y022350D01*
X066456Y022225D02*
X066456Y023600D01*
X066456Y025350D02*
X066456Y026600D01*
X060331Y034725D02*
X059081Y034725D01*
X059081Y035725D02*
X060456Y035725D01*
X060831Y036725D02*
X059081Y036725D01*
X059081Y041725D02*
X060331Y041725D01*
X060331Y042725D02*
X058956Y042725D01*
X058706Y042975D01*
X058706Y043475D01*
X058956Y043725D01*
X060331Y043725D01*
X060206Y044725D02*
X059081Y044725D01*
X058581Y045725D02*
X060206Y045725D01*
X058581Y045725D02*
X057456Y043850D01*
X056456Y043725D02*
X055206Y043725D01*
X055081Y042725D02*
X056581Y042725D01*
X056456Y041725D02*
X055206Y041725D01*
X050456Y042725D02*
X049206Y042725D01*
X049206Y043725D02*
X050456Y043725D01*
X050456Y044725D02*
X049081Y044725D01*
X049206Y045725D02*
X050581Y045725D01*
X046206Y045725D02*
X044706Y045725D01*
X040081Y040725D02*
X038831Y040725D01*
X038831Y039725D02*
X040081Y039725D01*
X051331Y035600D02*
X051331Y034600D01*
X051456Y034475D01*
X051331Y035600D02*
X051581Y035850D01*
X051456Y031725D02*
X051331Y031600D01*
X051331Y030725D01*
X051456Y030600D01*
X051456Y025975D01*
X046331Y029725D02*
X044956Y029725D01*
X044831Y030725D02*
X046081Y030725D01*
X035331Y022225D02*
X035331Y020288D01*
X034768Y019725D01*
X026831Y019725D01*
X026206Y019100D01*
X025206Y019100D01*
X024831Y018600D01*
X025581Y018100D02*
X024831Y017600D01*
X025206Y017100D02*
X027581Y017100D01*
X028331Y016725D01*
X028393Y016350D02*
X027706Y016600D01*
X025831Y016600D01*
X025331Y016100D02*
X026393Y016100D01*
X026518Y016225D01*
X027768Y016225D01*
X028143Y015975D01*
X028018Y015600D02*
X027706Y015788D01*
X026831Y015788D01*
X026456Y015413D01*
X026456Y014913D01*
X026143Y014600D01*
X025831Y014600D01*
X026831Y015163D02*
X026831Y014038D01*
X026331Y013100D02*
X025331Y013100D01*
X024831Y013600D01*
X026831Y015163D02*
X027081Y015413D01*
X027706Y015413D01*
X028081Y015163D01*
X025331Y016100D02*
X024831Y015600D01*
X024831Y016600D02*
X025206Y017100D01*
X025581Y018100D02*
X026268Y018100D01*
X027206Y019038D01*
X035206Y019038D01*
X035268Y019100D01*
X037268Y019100D01*
X037331Y018100D02*
X035581Y018100D01*
X035581Y017100D02*
X038206Y017100D01*
X038706Y017600D01*
X040581Y017600D01*
X040706Y018600D02*
X039456Y018600D01*
X038456Y016600D02*
X040581Y016600D01*
X040456Y015600D02*
X038706Y015600D01*
X038206Y015100D01*
X035518Y015100D01*
X035518Y014100D02*
X037706Y014100D01*
X038206Y013600D01*
X043706Y013600D01*
X043706Y012600D02*
X042518Y012600D01*
X040518Y012600D02*
X038143Y012600D01*
X037643Y013100D01*
X035206Y013100D01*
X034831Y012100D02*
X037268Y012100D01*
X037331Y011100D02*
X035331Y011100D01*
X032831Y009600D02*
X032331Y010350D01*
X032331Y010975D01*
X032018Y011288D01*
X030143Y011288D01*
X029831Y010600D01*
X028331Y010350D02*
X028331Y010975D01*
X028331Y010350D02*
X027831Y009600D01*
X027331Y010038D02*
X027331Y009163D01*
X035518Y016100D02*
X037956Y016100D01*
X038456Y016600D01*
X042518Y015600D02*
X043831Y015600D01*
X037393Y020100D02*
X035518Y020100D01*
X034831Y019413D01*
X027081Y019413D01*
X026456Y018788D01*
X025831Y018600D01*
X026393Y020038D02*
X030206Y020038D01*
X030331Y020163D01*
X030331Y021163D01*
X029893Y021600D01*
X029831Y021600D01*
X029331Y021975D02*
X029331Y021100D01*
X028831Y020600D01*
X030831Y020600D02*
X031331Y021100D01*
X031331Y022100D01*
X033831Y020600D02*
X034331Y021100D01*
X034331Y022100D01*
X027831Y026038D02*
X027581Y026100D01*
X026456Y026100D01*
X026081Y025600D01*
X025206Y030600D02*
X024456Y030600D01*
X024206Y030850D01*
X013831Y032975D02*
X012456Y032975D01*
X009893Y032975D02*
X008456Y032975D01*
X007956Y032851D01*
X008017Y033475D02*
X007956Y033600D01*
X008017Y033475D02*
X009206Y033475D01*
X009893Y013225D02*
X010912Y013225D01*
X009893Y013225D02*
X009518Y012850D01*
X009518Y011913D01*
X009881Y011550D01*
X011006Y011550D01*
X049706Y005600D02*
X051430Y005600D01*
X069331Y039225D02*
X069331Y041038D01*
X068331Y041038D02*
X068331Y039600D01*
X066331Y041725D02*
X064831Y041725D01*
X065154Y045725D02*
X066331Y045725D01*
D37*
X070456Y037725D03*
X050956Y023350D03*
X069581Y006350D03*
X030456Y005100D03*
X008831Y006350D03*
X035581Y040975D03*
X008081Y045350D03*
M02*
