G75*
G70*
%OFA0B0*%
%FSLAX24Y24*%
%IPPOS*%
%LPD*%
%AMOC8*
5,1,8,0,0,1.08239X$1,22.5*
%
%ADD10C,0.0100*%
%ADD11C,0.0000*%
%ADD12C,0.0001*%
D10*
X000220Y004206D02*
X066595Y004206D01*
X066595Y048456D01*
X000220Y048456D01*
X000220Y004206D01*
D11*
X005728Y016243D02*
X005730Y016272D01*
X005736Y016300D01*
X005745Y016328D01*
X005758Y016354D01*
X005775Y016377D01*
X005794Y016399D01*
X005816Y016418D01*
X005841Y016433D01*
X005867Y016446D01*
X005895Y016454D01*
X005923Y016459D01*
X005952Y016460D01*
X005981Y016457D01*
X006009Y016450D01*
X006036Y016440D01*
X006062Y016426D01*
X006085Y016409D01*
X006106Y016389D01*
X006124Y016366D01*
X006139Y016341D01*
X006150Y016314D01*
X006158Y016286D01*
X006162Y016257D01*
X006162Y016229D01*
X006158Y016200D01*
X006150Y016172D01*
X006139Y016145D01*
X006124Y016120D01*
X006106Y016097D01*
X006085Y016077D01*
X006062Y016060D01*
X006036Y016046D01*
X006009Y016036D01*
X005981Y016029D01*
X005952Y016026D01*
X005923Y016027D01*
X005895Y016032D01*
X005867Y016040D01*
X005841Y016053D01*
X005816Y016068D01*
X005794Y016087D01*
X005775Y016109D01*
X005758Y016132D01*
X005745Y016158D01*
X005736Y016186D01*
X005730Y016214D01*
X005728Y016243D01*
X013930Y016243D02*
X013932Y016278D01*
X013938Y016313D01*
X013948Y016347D01*
X013961Y016380D01*
X013978Y016411D01*
X013999Y016439D01*
X014022Y016466D01*
X014049Y016489D01*
X014077Y016510D01*
X014108Y016527D01*
X014141Y016540D01*
X014175Y016550D01*
X014210Y016556D01*
X014245Y016558D01*
X014280Y016556D01*
X014315Y016550D01*
X014349Y016540D01*
X014382Y016527D01*
X014413Y016510D01*
X014441Y016489D01*
X014468Y016466D01*
X014491Y016439D01*
X014512Y016411D01*
X014529Y016380D01*
X014542Y016347D01*
X014552Y016313D01*
X014558Y016278D01*
X014560Y016243D01*
X014558Y016208D01*
X014552Y016173D01*
X014542Y016139D01*
X014529Y016106D01*
X014512Y016075D01*
X014491Y016047D01*
X014468Y016020D01*
X014441Y015997D01*
X014413Y015976D01*
X014382Y015959D01*
X014349Y015946D01*
X014315Y015936D01*
X014280Y015930D01*
X014245Y015928D01*
X014210Y015930D01*
X014175Y015936D01*
X014141Y015946D01*
X014108Y015959D01*
X014077Y015976D01*
X014049Y015997D01*
X014022Y016020D01*
X013999Y016047D01*
X013978Y016075D01*
X013961Y016106D01*
X013948Y016139D01*
X013938Y016173D01*
X013932Y016208D01*
X013930Y016243D01*
X022078Y018405D02*
X022080Y018455D01*
X022086Y018505D01*
X022096Y018554D01*
X022110Y018602D01*
X022127Y018649D01*
X022148Y018694D01*
X022173Y018738D01*
X022201Y018779D01*
X022233Y018818D01*
X022267Y018855D01*
X022304Y018889D01*
X022344Y018919D01*
X022386Y018946D01*
X022430Y018970D01*
X022476Y018991D01*
X022523Y019007D01*
X022571Y019020D01*
X022621Y019029D01*
X022670Y019034D01*
X022721Y019035D01*
X022771Y019032D01*
X022820Y019025D01*
X022869Y019014D01*
X022917Y018999D01*
X022963Y018981D01*
X023008Y018959D01*
X023051Y018933D01*
X023092Y018904D01*
X023131Y018872D01*
X023167Y018837D01*
X023199Y018799D01*
X023229Y018759D01*
X023256Y018716D01*
X023279Y018672D01*
X023298Y018626D01*
X023314Y018578D01*
X023326Y018529D01*
X023334Y018480D01*
X023338Y018430D01*
X023338Y018380D01*
X023334Y018330D01*
X023326Y018281D01*
X023314Y018232D01*
X023298Y018184D01*
X023279Y018138D01*
X023256Y018094D01*
X023229Y018051D01*
X023199Y018011D01*
X023167Y017973D01*
X023131Y017938D01*
X023092Y017906D01*
X023051Y017877D01*
X023008Y017851D01*
X022963Y017829D01*
X022917Y017811D01*
X022869Y017796D01*
X022820Y017785D01*
X022771Y017778D01*
X022721Y017775D01*
X022670Y017776D01*
X022621Y017781D01*
X022571Y017790D01*
X022523Y017803D01*
X022476Y017819D01*
X022430Y017840D01*
X022386Y017864D01*
X022344Y017891D01*
X022304Y017921D01*
X022267Y017955D01*
X022233Y017992D01*
X022201Y018031D01*
X022173Y018072D01*
X022148Y018116D01*
X022127Y018161D01*
X022110Y018208D01*
X022096Y018256D01*
X022086Y018305D01*
X022080Y018355D01*
X022078Y018405D01*
X026602Y018405D02*
X026604Y018455D01*
X026610Y018505D01*
X026620Y018554D01*
X026634Y018602D01*
X026651Y018649D01*
X026672Y018694D01*
X026697Y018738D01*
X026725Y018779D01*
X026757Y018818D01*
X026791Y018855D01*
X026828Y018889D01*
X026868Y018919D01*
X026910Y018946D01*
X026954Y018970D01*
X027000Y018991D01*
X027047Y019007D01*
X027095Y019020D01*
X027145Y019029D01*
X027194Y019034D01*
X027245Y019035D01*
X027295Y019032D01*
X027344Y019025D01*
X027393Y019014D01*
X027441Y018999D01*
X027487Y018981D01*
X027532Y018959D01*
X027575Y018933D01*
X027616Y018904D01*
X027655Y018872D01*
X027691Y018837D01*
X027723Y018799D01*
X027753Y018759D01*
X027780Y018716D01*
X027803Y018672D01*
X027822Y018626D01*
X027838Y018578D01*
X027850Y018529D01*
X027858Y018480D01*
X027862Y018430D01*
X027862Y018380D01*
X027858Y018330D01*
X027850Y018281D01*
X027838Y018232D01*
X027822Y018184D01*
X027803Y018138D01*
X027780Y018094D01*
X027753Y018051D01*
X027723Y018011D01*
X027691Y017973D01*
X027655Y017938D01*
X027616Y017906D01*
X027575Y017877D01*
X027532Y017851D01*
X027487Y017829D01*
X027441Y017811D01*
X027393Y017796D01*
X027344Y017785D01*
X027295Y017778D01*
X027245Y017775D01*
X027194Y017776D01*
X027145Y017781D01*
X027095Y017790D01*
X027047Y017803D01*
X027000Y017819D01*
X026954Y017840D01*
X026910Y017864D01*
X026868Y017891D01*
X026828Y017921D01*
X026791Y017955D01*
X026757Y017992D01*
X026725Y018031D01*
X026697Y018072D01*
X026672Y018116D01*
X026651Y018161D01*
X026634Y018208D01*
X026620Y018256D01*
X026610Y018305D01*
X026604Y018355D01*
X026602Y018405D01*
X026602Y013881D02*
X026604Y013931D01*
X026610Y013981D01*
X026620Y014030D01*
X026634Y014078D01*
X026651Y014125D01*
X026672Y014170D01*
X026697Y014214D01*
X026725Y014255D01*
X026757Y014294D01*
X026791Y014331D01*
X026828Y014365D01*
X026868Y014395D01*
X026910Y014422D01*
X026954Y014446D01*
X027000Y014467D01*
X027047Y014483D01*
X027095Y014496D01*
X027145Y014505D01*
X027194Y014510D01*
X027245Y014511D01*
X027295Y014508D01*
X027344Y014501D01*
X027393Y014490D01*
X027441Y014475D01*
X027487Y014457D01*
X027532Y014435D01*
X027575Y014409D01*
X027616Y014380D01*
X027655Y014348D01*
X027691Y014313D01*
X027723Y014275D01*
X027753Y014235D01*
X027780Y014192D01*
X027803Y014148D01*
X027822Y014102D01*
X027838Y014054D01*
X027850Y014005D01*
X027858Y013956D01*
X027862Y013906D01*
X027862Y013856D01*
X027858Y013806D01*
X027850Y013757D01*
X027838Y013708D01*
X027822Y013660D01*
X027803Y013614D01*
X027780Y013570D01*
X027753Y013527D01*
X027723Y013487D01*
X027691Y013449D01*
X027655Y013414D01*
X027616Y013382D01*
X027575Y013353D01*
X027532Y013327D01*
X027487Y013305D01*
X027441Y013287D01*
X027393Y013272D01*
X027344Y013261D01*
X027295Y013254D01*
X027245Y013251D01*
X027194Y013252D01*
X027145Y013257D01*
X027095Y013266D01*
X027047Y013279D01*
X027000Y013295D01*
X026954Y013316D01*
X026910Y013340D01*
X026868Y013367D01*
X026828Y013397D01*
X026791Y013431D01*
X026757Y013468D01*
X026725Y013507D01*
X026697Y013548D01*
X026672Y013592D01*
X026651Y013637D01*
X026634Y013684D01*
X026620Y013732D01*
X026610Y013781D01*
X026604Y013831D01*
X026602Y013881D01*
X022078Y013881D02*
X022080Y013931D01*
X022086Y013981D01*
X022096Y014030D01*
X022110Y014078D01*
X022127Y014125D01*
X022148Y014170D01*
X022173Y014214D01*
X022201Y014255D01*
X022233Y014294D01*
X022267Y014331D01*
X022304Y014365D01*
X022344Y014395D01*
X022386Y014422D01*
X022430Y014446D01*
X022476Y014467D01*
X022523Y014483D01*
X022571Y014496D01*
X022621Y014505D01*
X022670Y014510D01*
X022721Y014511D01*
X022771Y014508D01*
X022820Y014501D01*
X022869Y014490D01*
X022917Y014475D01*
X022963Y014457D01*
X023008Y014435D01*
X023051Y014409D01*
X023092Y014380D01*
X023131Y014348D01*
X023167Y014313D01*
X023199Y014275D01*
X023229Y014235D01*
X023256Y014192D01*
X023279Y014148D01*
X023298Y014102D01*
X023314Y014054D01*
X023326Y014005D01*
X023334Y013956D01*
X023338Y013906D01*
X023338Y013856D01*
X023334Y013806D01*
X023326Y013757D01*
X023314Y013708D01*
X023298Y013660D01*
X023279Y013614D01*
X023256Y013570D01*
X023229Y013527D01*
X023199Y013487D01*
X023167Y013449D01*
X023131Y013414D01*
X023092Y013382D01*
X023051Y013353D01*
X023008Y013327D01*
X022963Y013305D01*
X022917Y013287D01*
X022869Y013272D01*
X022820Y013261D01*
X022771Y013254D01*
X022721Y013251D01*
X022670Y013252D01*
X022621Y013257D01*
X022571Y013266D01*
X022523Y013279D01*
X022476Y013295D01*
X022430Y013316D01*
X022386Y013340D01*
X022344Y013367D01*
X022304Y013397D01*
X022267Y013431D01*
X022233Y013468D01*
X022201Y013507D01*
X022173Y013548D01*
X022148Y013592D01*
X022127Y013637D01*
X022110Y013684D01*
X022096Y013732D01*
X022086Y013781D01*
X022080Y013831D01*
X022078Y013881D01*
X025900Y044168D02*
X025902Y044216D01*
X025908Y044265D01*
X025918Y044312D01*
X025931Y044359D01*
X025949Y044404D01*
X025970Y044448D01*
X025994Y044490D01*
X026022Y044529D01*
X026053Y044567D01*
X026087Y044601D01*
X026124Y044633D01*
X026163Y044662D01*
X026205Y044687D01*
X026248Y044709D01*
X026293Y044728D01*
X026339Y044742D01*
X026386Y044753D01*
X026434Y044760D01*
X026483Y044763D01*
X026531Y044762D01*
X026580Y044757D01*
X026627Y044748D01*
X026674Y044735D01*
X026720Y044719D01*
X026764Y044699D01*
X026806Y044675D01*
X026847Y044648D01*
X026885Y044618D01*
X026920Y044584D01*
X026953Y044548D01*
X026982Y044510D01*
X027008Y044469D01*
X027031Y044426D01*
X027050Y044382D01*
X027066Y044336D01*
X027078Y044289D01*
X027086Y044241D01*
X027090Y044192D01*
X027090Y044144D01*
X027086Y044095D01*
X027078Y044047D01*
X027066Y044000D01*
X027050Y043954D01*
X027031Y043910D01*
X027008Y043867D01*
X026982Y043826D01*
X026953Y043788D01*
X026920Y043752D01*
X026885Y043718D01*
X026847Y043688D01*
X026806Y043661D01*
X026764Y043637D01*
X026720Y043617D01*
X026674Y043601D01*
X026627Y043588D01*
X026580Y043579D01*
X026531Y043574D01*
X026483Y043573D01*
X026434Y043576D01*
X026386Y043583D01*
X026339Y043594D01*
X026293Y043608D01*
X026248Y043627D01*
X026205Y043649D01*
X026163Y043674D01*
X026124Y043703D01*
X026087Y043735D01*
X026053Y043769D01*
X026022Y043807D01*
X025994Y043846D01*
X025970Y043888D01*
X025949Y043932D01*
X025931Y043977D01*
X025918Y044024D01*
X025908Y044071D01*
X025902Y044120D01*
X025900Y044168D01*
X025895Y044168D02*
X025897Y044120D01*
X025903Y044072D01*
X025912Y044024D01*
X025926Y043978D01*
X025943Y043933D01*
X025964Y043889D01*
X025988Y043847D01*
X026015Y043808D01*
X026046Y043770D01*
X026079Y043735D01*
X026116Y043703D01*
X026154Y043674D01*
X026195Y043648D01*
X026238Y043626D01*
X026282Y043607D01*
X026328Y043592D01*
X026375Y043580D01*
X026423Y043572D01*
X026471Y043568D01*
X026519Y043568D01*
X026567Y043572D01*
X026615Y043580D01*
X026662Y043592D01*
X026708Y043607D01*
X026752Y043626D01*
X026795Y043648D01*
X026836Y043674D01*
X026874Y043703D01*
X026911Y043735D01*
X026944Y043770D01*
X026975Y043808D01*
X027002Y043847D01*
X027026Y043889D01*
X027047Y043933D01*
X027064Y043978D01*
X027078Y044024D01*
X027087Y044072D01*
X027093Y044120D01*
X027095Y044168D01*
X025900Y045568D02*
X025902Y045616D01*
X025908Y045665D01*
X025918Y045712D01*
X025931Y045759D01*
X025949Y045804D01*
X025970Y045848D01*
X025994Y045890D01*
X026022Y045929D01*
X026053Y045967D01*
X026087Y046001D01*
X026124Y046033D01*
X026163Y046062D01*
X026205Y046087D01*
X026248Y046109D01*
X026293Y046128D01*
X026339Y046142D01*
X026386Y046153D01*
X026434Y046160D01*
X026483Y046163D01*
X026531Y046162D01*
X026580Y046157D01*
X026627Y046148D01*
X026674Y046135D01*
X026720Y046119D01*
X026764Y046099D01*
X026806Y046075D01*
X026847Y046048D01*
X026885Y046018D01*
X026920Y045984D01*
X026953Y045948D01*
X026982Y045910D01*
X027008Y045869D01*
X027031Y045826D01*
X027050Y045782D01*
X027066Y045736D01*
X027078Y045689D01*
X027086Y045641D01*
X027090Y045592D01*
X027090Y045544D01*
X027086Y045495D01*
X027078Y045447D01*
X027066Y045400D01*
X027050Y045354D01*
X027031Y045310D01*
X027008Y045267D01*
X026982Y045226D01*
X026953Y045188D01*
X026920Y045152D01*
X026885Y045118D01*
X026847Y045088D01*
X026806Y045061D01*
X026764Y045037D01*
X026720Y045017D01*
X026674Y045001D01*
X026627Y044988D01*
X026580Y044979D01*
X026531Y044974D01*
X026483Y044973D01*
X026434Y044976D01*
X026386Y044983D01*
X026339Y044994D01*
X026293Y045008D01*
X026248Y045027D01*
X026205Y045049D01*
X026163Y045074D01*
X026124Y045103D01*
X026087Y045135D01*
X026053Y045169D01*
X026022Y045207D01*
X025994Y045246D01*
X025970Y045288D01*
X025949Y045332D01*
X025931Y045377D01*
X025918Y045424D01*
X025908Y045471D01*
X025902Y045520D01*
X025900Y045568D01*
X025895Y045568D02*
X025897Y045616D01*
X025903Y045664D01*
X025912Y045712D01*
X025926Y045758D01*
X025943Y045803D01*
X025964Y045847D01*
X025988Y045889D01*
X026015Y045928D01*
X026046Y045966D01*
X026079Y046001D01*
X026116Y046033D01*
X026154Y046062D01*
X026195Y046088D01*
X026238Y046110D01*
X026282Y046129D01*
X026328Y046144D01*
X026375Y046156D01*
X026423Y046164D01*
X026471Y046168D01*
X026519Y046168D01*
X026567Y046164D01*
X026615Y046156D01*
X026662Y046144D01*
X026708Y046129D01*
X026752Y046110D01*
X026795Y046088D01*
X026836Y046062D01*
X026874Y046033D01*
X026911Y046001D01*
X026944Y045966D01*
X026975Y045928D01*
X027002Y045889D01*
X027026Y045847D01*
X027047Y045803D01*
X027064Y045758D01*
X027078Y045712D01*
X027087Y045664D01*
X027093Y045616D01*
X027095Y045568D01*
X005100Y045568D02*
X005102Y045616D01*
X005108Y045665D01*
X005118Y045712D01*
X005131Y045759D01*
X005149Y045804D01*
X005170Y045848D01*
X005194Y045890D01*
X005222Y045929D01*
X005253Y045967D01*
X005287Y046001D01*
X005324Y046033D01*
X005363Y046062D01*
X005405Y046087D01*
X005448Y046109D01*
X005493Y046128D01*
X005539Y046142D01*
X005586Y046153D01*
X005634Y046160D01*
X005683Y046163D01*
X005731Y046162D01*
X005780Y046157D01*
X005827Y046148D01*
X005874Y046135D01*
X005920Y046119D01*
X005964Y046099D01*
X006006Y046075D01*
X006047Y046048D01*
X006085Y046018D01*
X006120Y045984D01*
X006153Y045948D01*
X006182Y045910D01*
X006208Y045869D01*
X006231Y045826D01*
X006250Y045782D01*
X006266Y045736D01*
X006278Y045689D01*
X006286Y045641D01*
X006290Y045592D01*
X006290Y045544D01*
X006286Y045495D01*
X006278Y045447D01*
X006266Y045400D01*
X006250Y045354D01*
X006231Y045310D01*
X006208Y045267D01*
X006182Y045226D01*
X006153Y045188D01*
X006120Y045152D01*
X006085Y045118D01*
X006047Y045088D01*
X006006Y045061D01*
X005964Y045037D01*
X005920Y045017D01*
X005874Y045001D01*
X005827Y044988D01*
X005780Y044979D01*
X005731Y044974D01*
X005683Y044973D01*
X005634Y044976D01*
X005586Y044983D01*
X005539Y044994D01*
X005493Y045008D01*
X005448Y045027D01*
X005405Y045049D01*
X005363Y045074D01*
X005324Y045103D01*
X005287Y045135D01*
X005253Y045169D01*
X005222Y045207D01*
X005194Y045246D01*
X005170Y045288D01*
X005149Y045332D01*
X005131Y045377D01*
X005118Y045424D01*
X005108Y045471D01*
X005102Y045520D01*
X005100Y045568D01*
X005095Y045568D02*
X005097Y045616D01*
X005103Y045664D01*
X005112Y045712D01*
X005126Y045758D01*
X005143Y045803D01*
X005164Y045847D01*
X005188Y045889D01*
X005215Y045928D01*
X005246Y045966D01*
X005279Y046001D01*
X005316Y046033D01*
X005354Y046062D01*
X005395Y046088D01*
X005438Y046110D01*
X005482Y046129D01*
X005528Y046144D01*
X005575Y046156D01*
X005623Y046164D01*
X005671Y046168D01*
X005719Y046168D01*
X005767Y046164D01*
X005815Y046156D01*
X005862Y046144D01*
X005908Y046129D01*
X005952Y046110D01*
X005995Y046088D01*
X006036Y046062D01*
X006074Y046033D01*
X006111Y046001D01*
X006144Y045966D01*
X006175Y045928D01*
X006202Y045889D01*
X006226Y045847D01*
X006247Y045803D01*
X006264Y045758D01*
X006278Y045712D01*
X006287Y045664D01*
X006293Y045616D01*
X006295Y045568D01*
X005100Y044168D02*
X005102Y044216D01*
X005108Y044265D01*
X005118Y044312D01*
X005131Y044359D01*
X005149Y044404D01*
X005170Y044448D01*
X005194Y044490D01*
X005222Y044529D01*
X005253Y044567D01*
X005287Y044601D01*
X005324Y044633D01*
X005363Y044662D01*
X005405Y044687D01*
X005448Y044709D01*
X005493Y044728D01*
X005539Y044742D01*
X005586Y044753D01*
X005634Y044760D01*
X005683Y044763D01*
X005731Y044762D01*
X005780Y044757D01*
X005827Y044748D01*
X005874Y044735D01*
X005920Y044719D01*
X005964Y044699D01*
X006006Y044675D01*
X006047Y044648D01*
X006085Y044618D01*
X006120Y044584D01*
X006153Y044548D01*
X006182Y044510D01*
X006208Y044469D01*
X006231Y044426D01*
X006250Y044382D01*
X006266Y044336D01*
X006278Y044289D01*
X006286Y044241D01*
X006290Y044192D01*
X006290Y044144D01*
X006286Y044095D01*
X006278Y044047D01*
X006266Y044000D01*
X006250Y043954D01*
X006231Y043910D01*
X006208Y043867D01*
X006182Y043826D01*
X006153Y043788D01*
X006120Y043752D01*
X006085Y043718D01*
X006047Y043688D01*
X006006Y043661D01*
X005964Y043637D01*
X005920Y043617D01*
X005874Y043601D01*
X005827Y043588D01*
X005780Y043579D01*
X005731Y043574D01*
X005683Y043573D01*
X005634Y043576D01*
X005586Y043583D01*
X005539Y043594D01*
X005493Y043608D01*
X005448Y043627D01*
X005405Y043649D01*
X005363Y043674D01*
X005324Y043703D01*
X005287Y043735D01*
X005253Y043769D01*
X005222Y043807D01*
X005194Y043846D01*
X005170Y043888D01*
X005149Y043932D01*
X005131Y043977D01*
X005118Y044024D01*
X005108Y044071D01*
X005102Y044120D01*
X005100Y044168D01*
X005095Y044168D02*
X005097Y044120D01*
X005103Y044072D01*
X005112Y044024D01*
X005126Y043978D01*
X005143Y043933D01*
X005164Y043889D01*
X005188Y043847D01*
X005215Y043808D01*
X005246Y043770D01*
X005279Y043735D01*
X005316Y043703D01*
X005354Y043674D01*
X005395Y043648D01*
X005438Y043626D01*
X005482Y043607D01*
X005528Y043592D01*
X005575Y043580D01*
X005623Y043572D01*
X005671Y043568D01*
X005719Y043568D01*
X005767Y043572D01*
X005815Y043580D01*
X005862Y043592D01*
X005908Y043607D01*
X005952Y043626D01*
X005995Y043648D01*
X006036Y043674D01*
X006074Y043703D01*
X006111Y043735D01*
X006144Y043770D01*
X006175Y043808D01*
X006202Y043847D01*
X006226Y043889D01*
X006247Y043933D01*
X006264Y043978D01*
X006278Y044024D01*
X006287Y044072D01*
X006293Y044120D01*
X006295Y044168D01*
D12*
X006295Y045568D01*
X005095Y045568D02*
X005095Y044168D01*
X025895Y044168D02*
X025895Y045568D01*
X027095Y045568D02*
X027095Y044168D01*
M02*
