G75*
G70*
%OFA0B0*%
%FSLAX24Y24*%
%IPPOS*%
%LPD*%
%AMOC8*
5,1,8,0,0,1.08239X$1,22.5*
%
%ADD10C,0.0060*%
%ADD11C,0.0040*%
%ADD12R,0.0551X0.0256*%
%ADD13R,0.0290X0.0690*%
%ADD14R,0.0720X0.0230*%
%ADD15R,0.0256X0.0551*%
%ADD16R,0.0690X0.0290*%
%ADD17R,0.0571X0.0295*%
%ADD18C,0.0050*%
%ADD19R,0.1000X0.0200*%
%ADD20R,0.0669X0.0295*%
%ADD21R,0.0140X0.0560*%
%ADD22R,0.0100X0.0200*%
%ADD23R,0.0295X0.0571*%
D10*
X033956Y042163D02*
X034856Y042163D01*
X034956Y042263D01*
X035056Y042163D01*
X035856Y042163D01*
X035956Y042263D01*
X036056Y042163D01*
X036856Y042163D01*
X036956Y042263D01*
X037056Y042163D01*
X037856Y042163D01*
X037956Y042263D01*
X038056Y042163D01*
X038856Y042163D01*
X038956Y042263D01*
X039056Y042163D01*
X039856Y042163D01*
X039956Y042263D01*
X040056Y042163D01*
X040956Y042163D01*
X040956Y043163D01*
X040056Y043163D01*
X039956Y043063D01*
X039856Y043163D01*
X039056Y043163D01*
X038956Y043063D01*
X038856Y043163D01*
X038056Y043163D01*
X037956Y043063D01*
X037856Y043163D01*
X037056Y043163D01*
X036956Y043063D01*
X036856Y043163D01*
X036056Y043163D01*
X035956Y043063D01*
X035856Y043163D01*
X035056Y043163D01*
X034956Y043063D01*
X034856Y043163D01*
X033956Y043163D01*
X033956Y042163D01*
X034256Y042463D02*
X034256Y042863D01*
X034356Y042863D01*
X034356Y042963D01*
X034556Y042963D01*
X034556Y042863D01*
X034656Y042863D01*
X034656Y042463D01*
X034556Y042463D01*
X034556Y042363D01*
X034356Y042363D01*
X034356Y042463D01*
X034256Y042463D01*
X035256Y042463D02*
X035256Y042863D01*
X035356Y042863D01*
X035356Y042963D01*
X035556Y042963D01*
X035556Y042863D01*
X035656Y042863D01*
X035656Y042463D01*
X035556Y042463D01*
X035556Y042363D01*
X035356Y042363D01*
X035356Y042463D01*
X035256Y042463D01*
X036256Y042463D02*
X036256Y042863D01*
X036356Y042863D01*
X036356Y042963D01*
X036556Y042963D01*
X036556Y042863D01*
X036656Y042863D01*
X036656Y042463D01*
X036556Y042463D01*
X036556Y042363D01*
X036356Y042363D01*
X036356Y042463D01*
X036256Y042463D01*
X037256Y042463D02*
X037256Y042863D01*
X037356Y042863D01*
X037356Y042963D01*
X037556Y042963D01*
X037556Y042863D01*
X037656Y042863D01*
X037656Y042463D01*
X037556Y042463D01*
X037556Y042363D01*
X037356Y042363D01*
X037356Y042463D01*
X037256Y042463D01*
X038256Y042463D02*
X038256Y042863D01*
X038356Y042863D01*
X038356Y042963D01*
X038556Y042963D01*
X038556Y042863D01*
X038656Y042863D01*
X038656Y042463D01*
X038556Y042463D01*
X038556Y042363D01*
X038356Y042363D01*
X038356Y042463D01*
X038256Y042463D01*
X039256Y042463D02*
X039256Y042863D01*
X039356Y042863D01*
X039356Y042963D01*
X039556Y042963D01*
X039556Y042863D01*
X039656Y042863D01*
X039656Y042463D01*
X039556Y042463D01*
X039556Y042363D01*
X039356Y042363D01*
X039356Y042463D01*
X039256Y042463D01*
X040256Y042463D02*
X040256Y042863D01*
X040356Y042863D01*
X040356Y042963D01*
X040556Y042963D01*
X040556Y042863D01*
X040656Y042863D01*
X040656Y042463D01*
X040556Y042463D01*
X040556Y042363D01*
X040356Y042363D01*
X040356Y042463D01*
X040256Y042463D01*
X040956Y042163D02*
X040956Y043163D01*
X041856Y043163D01*
X041956Y043063D01*
X042056Y043163D01*
X042856Y043163D01*
X042956Y043063D01*
X043056Y043163D01*
X043856Y043163D01*
X043956Y043063D01*
X044056Y043163D01*
X044856Y043163D01*
X044956Y043063D01*
X045056Y043163D01*
X045856Y043163D01*
X045956Y043063D01*
X046056Y043163D01*
X046856Y043163D01*
X046956Y043063D01*
X047056Y043163D01*
X047956Y043163D01*
X047956Y042163D01*
X047056Y042163D01*
X046956Y042263D01*
X046856Y042163D01*
X046056Y042163D01*
X045956Y042263D01*
X045856Y042163D01*
X045056Y042163D01*
X044956Y042263D01*
X044856Y042163D01*
X044056Y042163D01*
X043956Y042263D01*
X043856Y042163D01*
X043056Y042163D01*
X042956Y042263D01*
X042856Y042163D01*
X042056Y042163D01*
X041956Y042263D01*
X041856Y042163D01*
X040956Y042163D01*
X041256Y042463D02*
X041256Y042863D01*
X041356Y042863D01*
X041356Y042963D01*
X041556Y042963D01*
X041556Y042863D01*
X041656Y042863D01*
X041656Y042463D01*
X041556Y042463D01*
X041556Y042363D01*
X041356Y042363D01*
X041356Y042463D01*
X041256Y042463D01*
X042256Y042463D02*
X042256Y042863D01*
X042356Y042863D01*
X042356Y042963D01*
X042556Y042963D01*
X042556Y042863D01*
X042656Y042863D01*
X042656Y042463D01*
X042556Y042463D01*
X042556Y042363D01*
X042356Y042363D01*
X042356Y042463D01*
X042256Y042463D01*
X043256Y042463D02*
X043256Y042863D01*
X043356Y042863D01*
X043356Y042963D01*
X043556Y042963D01*
X043556Y042863D01*
X043656Y042863D01*
X043656Y042463D01*
X043556Y042463D01*
X043556Y042363D01*
X043356Y042363D01*
X043356Y042463D01*
X043256Y042463D01*
X044256Y042463D02*
X044256Y042863D01*
X044356Y042863D01*
X044356Y042963D01*
X044556Y042963D01*
X044556Y042863D01*
X044656Y042863D01*
X044656Y042463D01*
X044556Y042463D01*
X044556Y042363D01*
X044356Y042363D01*
X044356Y042463D01*
X044256Y042463D01*
X045256Y042463D02*
X045256Y042863D01*
X045356Y042863D01*
X045356Y042963D01*
X045556Y042963D01*
X045556Y042863D01*
X045656Y042863D01*
X045656Y042463D01*
X045556Y042463D01*
X045556Y042363D01*
X045356Y042363D01*
X045356Y042463D01*
X045256Y042463D01*
X046256Y042463D02*
X046256Y042863D01*
X046356Y042863D01*
X046356Y042963D01*
X046556Y042963D01*
X046556Y042863D01*
X046656Y042863D01*
X046656Y042463D01*
X046556Y042463D01*
X046556Y042363D01*
X046356Y042363D01*
X046356Y042463D01*
X046256Y042463D01*
X047256Y042463D02*
X047256Y042863D01*
X047356Y042863D01*
X047356Y042963D01*
X047556Y042963D01*
X047556Y042863D01*
X047656Y042863D01*
X047656Y042463D01*
X047556Y042463D01*
X047556Y042363D01*
X047356Y042363D01*
X047356Y042463D01*
X047256Y042463D01*
X042081Y058252D02*
X042081Y058574D01*
X041581Y058574D02*
X041581Y058252D01*
X040622Y058350D02*
X040394Y058122D01*
X040040Y058476D02*
X040268Y058704D01*
X038206Y060752D02*
X038206Y061074D01*
X037706Y061074D02*
X037706Y060752D01*
X039331Y062002D02*
X039331Y062324D01*
X039831Y062324D02*
X039831Y062002D01*
X040206Y062002D02*
X040206Y062324D01*
X040706Y062324D02*
X040706Y062002D01*
X042326Y061718D02*
X043081Y061718D01*
X043081Y062358D02*
X042326Y062358D01*
X044126Y068338D02*
X044126Y069238D01*
X044786Y069238D02*
X044786Y068338D01*
X042151Y071908D02*
X042151Y072663D01*
X041511Y072663D02*
X041511Y071908D01*
X039831Y072718D02*
X039076Y072718D01*
X039076Y073358D02*
X039831Y073358D01*
X037486Y073288D02*
X036926Y073288D01*
X036926Y072788D02*
X037486Y072788D01*
X038670Y078538D02*
X038992Y078538D01*
X038992Y079038D02*
X038670Y079038D01*
X049201Y073358D02*
X049956Y073358D01*
X049956Y072718D02*
X049201Y072718D01*
X049136Y069038D02*
X049136Y068283D01*
X049776Y068283D02*
X049776Y069038D01*
X060420Y075913D02*
X060742Y075913D01*
X060742Y076413D02*
X060420Y076413D01*
X060420Y076913D02*
X060742Y076913D01*
X060742Y077413D02*
X060420Y077413D01*
X068295Y071663D02*
X068617Y071663D01*
X068617Y071163D02*
X068295Y071163D01*
X068206Y070074D02*
X068206Y069752D01*
X068706Y069752D02*
X068706Y070074D01*
X069956Y070377D02*
X069956Y070699D01*
X070456Y070699D02*
X070456Y070377D01*
X071206Y068824D02*
X071206Y068502D01*
X071706Y068502D02*
X071706Y068824D01*
X073206Y069877D02*
X073206Y070199D01*
X073706Y070199D02*
X073706Y069877D01*
X073956Y074127D02*
X073956Y074449D01*
X073456Y074449D02*
X073456Y074127D01*
X072956Y074127D02*
X072956Y074449D01*
X072456Y074449D02*
X072456Y074127D01*
X072706Y087127D02*
X072706Y087449D01*
X073206Y087449D02*
X073206Y087127D01*
X072331Y088127D02*
X072331Y088449D01*
X071831Y088449D02*
X071831Y088127D01*
X072706Y089127D02*
X072706Y089449D01*
X073206Y089449D02*
X073206Y089127D01*
X072331Y090127D02*
X072331Y090449D01*
X071831Y090449D02*
X071831Y090127D01*
X070617Y058413D02*
X070295Y058413D01*
X070295Y057913D02*
X070617Y057913D01*
X070617Y051413D02*
X070295Y051413D01*
X070295Y050913D02*
X070617Y050913D01*
X070617Y050413D02*
X070295Y050413D01*
X070295Y049913D02*
X070617Y049913D01*
X070617Y049413D02*
X070295Y049413D01*
X070295Y048913D02*
X070617Y048913D01*
X070617Y048413D02*
X070295Y048413D01*
X070295Y047913D02*
X070617Y047913D01*
X070617Y047413D02*
X070295Y047413D01*
X070295Y046913D02*
X070617Y046913D01*
X070617Y046413D02*
X070295Y046413D01*
X070295Y045913D02*
X070617Y045913D01*
X070611Y045413D02*
X070051Y045413D01*
X070051Y044913D02*
X070611Y044913D01*
X070492Y044413D02*
X070170Y044413D01*
X070170Y043913D02*
X070492Y043913D01*
X070201Y043358D02*
X070956Y043358D01*
X070956Y042718D02*
X070201Y042718D01*
X071420Y042288D02*
X071742Y042288D01*
X071742Y041788D02*
X071420Y041788D01*
X071526Y040788D02*
X071526Y040033D01*
X070886Y040033D02*
X070886Y040788D01*
X072831Y041752D02*
X072831Y042074D01*
X073331Y042074D02*
X073331Y041752D01*
X073295Y042913D02*
X073617Y042913D01*
X073617Y043413D02*
X073295Y043413D01*
X073295Y043913D02*
X073617Y043913D01*
X073617Y044413D02*
X073295Y044413D01*
X073386Y045283D02*
X073386Y046038D01*
X073081Y045949D02*
X073081Y045627D01*
X072581Y045627D02*
X072581Y045949D01*
X072276Y044913D02*
X072276Y044158D01*
X071636Y044158D02*
X071636Y044913D01*
X072045Y047663D02*
X072367Y047663D01*
X072367Y048163D02*
X072045Y048163D01*
X072670Y048663D02*
X072992Y048663D01*
X072992Y049163D02*
X072670Y049163D01*
X074026Y046038D02*
X074026Y045283D01*
X078956Y050238D02*
X078956Y050438D01*
X079956Y050438D01*
X079956Y050238D01*
X079456Y050238D01*
X078956Y050238D01*
X079456Y050238D02*
X079456Y049888D01*
X079806Y049888D02*
X079956Y049888D01*
X080106Y049888D01*
X079956Y049888D02*
X079956Y050038D01*
X079956Y049888D02*
X079956Y049738D01*
X078356Y050538D02*
X078358Y050604D01*
X078364Y050669D01*
X078374Y050734D01*
X078387Y050799D01*
X078405Y050862D01*
X078426Y050925D01*
X078451Y050985D01*
X078480Y051045D01*
X078512Y051102D01*
X078547Y051158D01*
X078586Y051211D01*
X078628Y051262D01*
X078672Y051310D01*
X078720Y051355D01*
X078770Y051398D01*
X078823Y051437D01*
X078878Y051474D01*
X078935Y051507D01*
X078994Y051536D01*
X079054Y051562D01*
X079116Y051584D01*
X079179Y051603D01*
X079243Y051617D01*
X079308Y051628D01*
X079374Y051635D01*
X079440Y051638D01*
X079505Y051637D01*
X079571Y051632D01*
X079636Y051623D01*
X079701Y051610D01*
X079764Y051594D01*
X079827Y051574D01*
X079888Y051549D01*
X079948Y051522D01*
X080006Y051491D01*
X080062Y051456D01*
X080116Y051418D01*
X080167Y051377D01*
X080216Y051333D01*
X080262Y051286D01*
X080306Y051237D01*
X080346Y051185D01*
X080383Y051130D01*
X080417Y051074D01*
X080447Y051015D01*
X080474Y050955D01*
X080497Y050894D01*
X080516Y050831D01*
X080532Y050767D01*
X080544Y050702D01*
X080552Y050637D01*
X080556Y050571D01*
X080556Y050505D01*
X080552Y050439D01*
X080544Y050374D01*
X080532Y050309D01*
X080516Y050245D01*
X080497Y050182D01*
X080474Y050121D01*
X080447Y050061D01*
X080417Y050002D01*
X080383Y049946D01*
X080346Y049891D01*
X080306Y049839D01*
X080262Y049790D01*
X080216Y049743D01*
X080167Y049699D01*
X080116Y049658D01*
X080062Y049620D01*
X080006Y049585D01*
X079948Y049554D01*
X079888Y049527D01*
X079827Y049502D01*
X079764Y049482D01*
X079701Y049466D01*
X079636Y049453D01*
X079571Y049444D01*
X079505Y049439D01*
X079440Y049438D01*
X079374Y049441D01*
X079308Y049448D01*
X079243Y049459D01*
X079179Y049473D01*
X079116Y049492D01*
X079054Y049514D01*
X078994Y049540D01*
X078935Y049569D01*
X078878Y049602D01*
X078823Y049639D01*
X078770Y049678D01*
X078720Y049721D01*
X078672Y049766D01*
X078628Y049814D01*
X078586Y049865D01*
X078547Y049918D01*
X078512Y049974D01*
X078480Y050031D01*
X078451Y050091D01*
X078426Y050151D01*
X078405Y050214D01*
X078387Y050277D01*
X078374Y050342D01*
X078364Y050407D01*
X078358Y050472D01*
X078356Y050538D01*
X079456Y050788D02*
X079456Y051188D01*
X081081Y053013D02*
X081081Y053363D01*
X081581Y053363D01*
X081581Y053563D01*
X080581Y053563D01*
X080581Y053363D01*
X081081Y053363D01*
X079981Y053663D02*
X079983Y053729D01*
X079989Y053794D01*
X079999Y053859D01*
X080012Y053924D01*
X080030Y053987D01*
X080051Y054050D01*
X080076Y054110D01*
X080105Y054170D01*
X080137Y054227D01*
X080172Y054283D01*
X080211Y054336D01*
X080253Y054387D01*
X080297Y054435D01*
X080345Y054480D01*
X080395Y054523D01*
X080448Y054562D01*
X080503Y054599D01*
X080560Y054632D01*
X080619Y054661D01*
X080679Y054687D01*
X080741Y054709D01*
X080804Y054728D01*
X080868Y054742D01*
X080933Y054753D01*
X080999Y054760D01*
X081065Y054763D01*
X081130Y054762D01*
X081196Y054757D01*
X081261Y054748D01*
X081326Y054735D01*
X081389Y054719D01*
X081452Y054699D01*
X081513Y054674D01*
X081573Y054647D01*
X081631Y054616D01*
X081687Y054581D01*
X081741Y054543D01*
X081792Y054502D01*
X081841Y054458D01*
X081887Y054411D01*
X081931Y054362D01*
X081971Y054310D01*
X082008Y054255D01*
X082042Y054199D01*
X082072Y054140D01*
X082099Y054080D01*
X082122Y054019D01*
X082141Y053956D01*
X082157Y053892D01*
X082169Y053827D01*
X082177Y053762D01*
X082181Y053696D01*
X082181Y053630D01*
X082177Y053564D01*
X082169Y053499D01*
X082157Y053434D01*
X082141Y053370D01*
X082122Y053307D01*
X082099Y053246D01*
X082072Y053186D01*
X082042Y053127D01*
X082008Y053071D01*
X081971Y053016D01*
X081931Y052964D01*
X081887Y052915D01*
X081841Y052868D01*
X081792Y052824D01*
X081741Y052783D01*
X081687Y052745D01*
X081631Y052710D01*
X081573Y052679D01*
X081513Y052652D01*
X081452Y052627D01*
X081389Y052607D01*
X081326Y052591D01*
X081261Y052578D01*
X081196Y052569D01*
X081130Y052564D01*
X081065Y052563D01*
X080999Y052566D01*
X080933Y052573D01*
X080868Y052584D01*
X080804Y052598D01*
X080741Y052617D01*
X080679Y052639D01*
X080619Y052665D01*
X080560Y052694D01*
X080503Y052727D01*
X080448Y052764D01*
X080395Y052803D01*
X080345Y052846D01*
X080297Y052891D01*
X080253Y052939D01*
X080211Y052990D01*
X080172Y053043D01*
X080137Y053099D01*
X080105Y053156D01*
X080076Y053216D01*
X080051Y053276D01*
X080030Y053339D01*
X080012Y053402D01*
X079999Y053467D01*
X079989Y053532D01*
X079983Y053597D01*
X079981Y053663D01*
X081081Y053913D02*
X081081Y054313D01*
X081581Y053163D02*
X081581Y053013D01*
X081731Y053013D01*
X081581Y053013D02*
X081431Y053013D01*
X081581Y053013D02*
X081581Y052863D01*
X062661Y050113D02*
X062661Y049213D01*
X062001Y049213D02*
X062001Y050113D01*
X036367Y057538D02*
X036045Y057538D01*
X036045Y058038D02*
X036367Y058038D01*
D11*
X036436Y058308D02*
X036436Y058768D01*
X036206Y058768D01*
X036129Y058692D01*
X036129Y058538D01*
X036206Y058461D01*
X036436Y058461D01*
X036283Y058461D02*
X036129Y058308D01*
X035976Y058538D02*
X035669Y058538D01*
X035745Y058308D02*
X035745Y058768D01*
X035976Y058538D01*
X038476Y060683D02*
X038936Y060683D01*
X038936Y060913D01*
X038860Y060990D01*
X038706Y060990D01*
X038629Y060913D01*
X038629Y060683D01*
X038629Y060836D02*
X038476Y060990D01*
X038476Y061143D02*
X038476Y061450D01*
X038476Y061297D02*
X038936Y061297D01*
X038783Y061143D01*
X038860Y061604D02*
X038936Y061681D01*
X038936Y061834D01*
X038860Y061911D01*
X038553Y061604D01*
X038476Y061681D01*
X038476Y061834D01*
X038553Y061911D01*
X038860Y061911D01*
X038860Y061604D02*
X038553Y061604D01*
X040101Y061933D02*
X040561Y061933D01*
X040561Y062163D01*
X040485Y062240D01*
X040331Y062240D01*
X040254Y062163D01*
X040254Y061933D01*
X040254Y062086D02*
X040101Y062240D01*
X040178Y062393D02*
X040254Y062393D01*
X040331Y062470D01*
X040331Y062624D01*
X040254Y062700D01*
X040178Y062700D01*
X040101Y062624D01*
X040101Y062470D01*
X040178Y062393D01*
X040331Y062470D02*
X040408Y062393D01*
X040485Y062393D01*
X040561Y062470D01*
X040561Y062624D01*
X040485Y062700D01*
X040408Y062700D01*
X040331Y062624D01*
X040976Y062624D02*
X040976Y062470D01*
X041053Y062393D01*
X041206Y062393D02*
X041283Y062547D01*
X041283Y062624D01*
X041206Y062700D01*
X041053Y062700D01*
X040976Y062624D01*
X041206Y062393D02*
X041436Y062393D01*
X041436Y062700D01*
X041360Y062240D02*
X041206Y062240D01*
X041129Y062163D01*
X041129Y061933D01*
X040976Y061933D02*
X041436Y061933D01*
X041436Y062163D01*
X041360Y062240D01*
X041129Y062086D02*
X040976Y062240D01*
X042416Y061518D02*
X042416Y061058D01*
X042339Y061288D02*
X042646Y061288D01*
X042416Y061518D01*
X042800Y061442D02*
X042877Y061518D01*
X043030Y061518D01*
X043107Y061442D01*
X043260Y061442D02*
X043260Y061288D01*
X043337Y061211D01*
X043567Y061211D01*
X043567Y061058D02*
X043567Y061518D01*
X043337Y061518D01*
X043260Y061442D01*
X043414Y061211D02*
X043260Y061058D01*
X043107Y061058D02*
X042800Y061365D01*
X042800Y061442D01*
X042800Y061058D02*
X043107Y061058D01*
X041311Y058530D02*
X041235Y058376D01*
X041081Y058223D01*
X041081Y058453D01*
X041004Y058530D01*
X040928Y058530D01*
X040851Y058453D01*
X040851Y058299D01*
X040928Y058223D01*
X041081Y058223D01*
X041081Y058069D02*
X041004Y057992D01*
X041004Y057762D01*
X040851Y057762D02*
X041311Y057762D01*
X041311Y057992D01*
X041235Y058069D01*
X041081Y058069D01*
X041004Y057916D02*
X040851Y058069D01*
X040126Y058943D02*
X039800Y059269D01*
X039638Y059106D01*
X039638Y058998D01*
X039746Y058889D01*
X039855Y058889D01*
X040017Y059052D01*
X039909Y058943D02*
X039909Y058726D01*
X039746Y058672D02*
X039746Y058564D01*
X039638Y058455D01*
X039529Y058455D01*
X039312Y058672D01*
X039312Y058781D01*
X039421Y058889D01*
X039529Y058889D01*
X039583Y058835D01*
X039583Y058726D01*
X039421Y058564D01*
X040476Y056161D02*
X040476Y055854D01*
X040476Y056007D02*
X040936Y056007D01*
X040783Y055854D01*
X040936Y055700D02*
X040936Y055393D01*
X040476Y055393D01*
X040476Y055700D01*
X040706Y055547D02*
X040706Y055393D01*
X040553Y055240D02*
X040476Y055163D01*
X040476Y055010D01*
X040553Y054933D01*
X040860Y054933D01*
X040936Y055010D01*
X040936Y055163D01*
X040860Y055240D01*
X040216Y055263D02*
X040216Y055563D01*
X039696Y055563D02*
X039696Y055273D01*
X040053Y064683D02*
X039976Y064760D01*
X039976Y064913D01*
X040053Y064990D01*
X040196Y065023D02*
X040196Y065313D01*
X040283Y065450D02*
X040360Y065450D01*
X040436Y065374D01*
X040436Y065220D01*
X040360Y065143D01*
X040360Y064990D02*
X040436Y064913D01*
X040436Y064760D01*
X040360Y064683D01*
X040053Y064683D01*
X039976Y065143D02*
X040283Y065450D01*
X040436Y065604D02*
X040436Y065834D01*
X040360Y065911D01*
X040206Y065911D01*
X040129Y065834D01*
X040129Y065604D01*
X039976Y065604D02*
X040436Y065604D01*
X040716Y065313D02*
X040716Y065013D01*
X040976Y064913D02*
X041053Y064990D01*
X040976Y064913D02*
X040976Y064760D01*
X041053Y064683D01*
X041360Y064683D01*
X041436Y064760D01*
X041436Y064913D01*
X041360Y064990D01*
X041360Y065143D02*
X041436Y065220D01*
X041436Y065374D01*
X041360Y065450D01*
X041283Y065450D01*
X041206Y065374D01*
X041129Y065450D01*
X041053Y065450D01*
X040976Y065374D01*
X040976Y065220D01*
X041053Y065143D01*
X041196Y065023D02*
X041196Y065313D01*
X041206Y065297D02*
X041206Y065374D01*
X041129Y065604D02*
X041129Y065834D01*
X041206Y065911D01*
X041360Y065911D01*
X041436Y065834D01*
X041436Y065604D01*
X040976Y065604D01*
X041716Y065313D02*
X041716Y065013D01*
X041976Y064913D02*
X042053Y064990D01*
X041976Y064913D02*
X041976Y064760D01*
X042053Y064683D01*
X042360Y064683D01*
X042436Y064760D01*
X042436Y064913D01*
X042360Y064990D01*
X042283Y065143D02*
X042436Y065297D01*
X041976Y065297D01*
X041976Y065450D02*
X041976Y065143D01*
X041976Y065604D02*
X042436Y065604D01*
X042436Y065834D01*
X042360Y065911D01*
X042206Y065911D01*
X042129Y065834D01*
X042129Y065604D01*
X042053Y067052D02*
X041976Y067129D01*
X041976Y067282D01*
X042053Y067359D01*
X042206Y067512D02*
X042206Y067819D01*
X042129Y067973D02*
X042129Y068203D01*
X042206Y068280D01*
X042360Y068280D01*
X042436Y068203D01*
X042436Y067973D01*
X041976Y067973D01*
X041976Y067742D02*
X042436Y067742D01*
X042206Y067512D01*
X042360Y067359D02*
X042436Y067282D01*
X042436Y067129D01*
X042360Y067052D01*
X042053Y067052D01*
X042696Y067763D02*
X042696Y068063D01*
X043216Y068053D02*
X043216Y067763D01*
X044976Y068308D02*
X045436Y068308D01*
X045436Y068538D01*
X045360Y068615D01*
X045206Y068615D01*
X045129Y068538D01*
X045129Y068308D01*
X045129Y068461D02*
X044976Y068615D01*
X045053Y068768D02*
X044976Y068845D01*
X044976Y068999D01*
X045053Y069075D01*
X045206Y069075D01*
X045283Y068999D01*
X045283Y068922D01*
X045206Y068768D01*
X045436Y068768D01*
X045436Y069075D01*
X045436Y069229D02*
X045436Y069459D01*
X045360Y069536D01*
X045206Y069536D01*
X045129Y069459D01*
X045129Y069229D01*
X044976Y069229D02*
X045436Y069229D01*
X048146Y069043D02*
X048146Y068283D01*
X048766Y068283D02*
X048766Y069043D01*
X048976Y069104D02*
X049436Y069104D01*
X049436Y069334D01*
X049360Y069411D01*
X049206Y069411D01*
X049129Y069334D01*
X049129Y069104D01*
X049053Y068950D02*
X048976Y068874D01*
X048976Y068720D01*
X049053Y068643D01*
X049053Y068490D02*
X048976Y068413D01*
X048976Y068260D01*
X049053Y068183D01*
X049360Y068183D01*
X049436Y068260D01*
X049436Y068413D01*
X049360Y068490D01*
X049436Y068643D02*
X049206Y068643D01*
X049283Y068797D01*
X049283Y068874D01*
X049206Y068950D01*
X049053Y068950D01*
X049436Y068950D02*
X049436Y068643D01*
X049976Y068720D02*
X049976Y068874D01*
X050053Y068950D01*
X050129Y068950D01*
X050206Y068874D01*
X050206Y068643D01*
X050053Y068643D01*
X049976Y068720D01*
X049976Y068490D02*
X050129Y068336D01*
X050129Y068413D02*
X050129Y068183D01*
X049976Y068183D02*
X050436Y068183D01*
X050436Y068413D01*
X050360Y068490D01*
X050206Y068490D01*
X050129Y068413D01*
X050206Y068643D02*
X050360Y068797D01*
X050436Y068950D01*
X050436Y069104D02*
X050436Y069334D01*
X050360Y069411D01*
X050206Y069411D01*
X050129Y069334D01*
X050129Y069104D01*
X049976Y069104D02*
X050436Y069104D01*
X050442Y072058D02*
X050442Y072518D01*
X050212Y072518D01*
X050135Y072442D01*
X050135Y072288D01*
X050212Y072211D01*
X050442Y072211D01*
X050289Y072211D02*
X050135Y072058D01*
X049982Y072135D02*
X049905Y072058D01*
X049752Y072058D01*
X049675Y072135D01*
X049675Y072442D01*
X049752Y072518D01*
X049905Y072518D01*
X049982Y072442D01*
X049982Y072365D01*
X049905Y072288D01*
X049675Y072288D01*
X049521Y072211D02*
X049291Y072211D01*
X049214Y072288D01*
X049214Y072442D01*
X049291Y072518D01*
X049521Y072518D01*
X049521Y072058D01*
X042811Y072038D02*
X042811Y071808D01*
X042351Y071808D01*
X042504Y071808D02*
X042504Y072038D01*
X042581Y072115D01*
X042735Y072115D01*
X042811Y072038D01*
X042735Y072268D02*
X042658Y072268D01*
X042581Y072345D01*
X042581Y072575D01*
X042428Y072575D02*
X042735Y072575D01*
X042811Y072499D01*
X042811Y072345D01*
X042735Y072268D01*
X042428Y072268D02*
X042351Y072345D01*
X042351Y072499D01*
X042428Y072575D01*
X042504Y072729D02*
X042504Y072959D01*
X042581Y073036D01*
X042735Y073036D01*
X042811Y072959D01*
X042811Y072729D01*
X042351Y072729D01*
X042351Y073189D02*
X042351Y073496D01*
X042351Y073343D02*
X042811Y073343D01*
X042658Y073189D01*
X042351Y072115D02*
X042504Y071961D01*
X040778Y072058D02*
X040778Y072518D01*
X040547Y072518D01*
X040471Y072442D01*
X040471Y072288D01*
X040547Y072211D01*
X040778Y072211D01*
X040624Y072211D02*
X040471Y072058D01*
X040317Y072135D02*
X040240Y072058D01*
X040087Y072058D01*
X040010Y072135D01*
X040010Y072442D01*
X040087Y072518D01*
X040240Y072518D01*
X040317Y072442D01*
X040317Y072365D01*
X040240Y072288D01*
X040010Y072288D01*
X039857Y072211D02*
X039627Y072211D01*
X039550Y072288D01*
X039550Y072442D01*
X039627Y072518D01*
X039857Y072518D01*
X039857Y072058D01*
X039396Y072058D02*
X039089Y072365D01*
X039089Y072442D01*
X039166Y072518D01*
X039320Y072518D01*
X039396Y072442D01*
X039396Y072058D02*
X039089Y072058D01*
X038067Y072058D02*
X038067Y072518D01*
X037837Y072518D01*
X037760Y072442D01*
X037760Y072288D01*
X037837Y072211D01*
X038067Y072211D01*
X037914Y072211D02*
X037760Y072058D01*
X037607Y072135D02*
X037607Y072211D01*
X037530Y072288D01*
X037377Y072288D01*
X037300Y072211D01*
X037300Y072135D01*
X037377Y072058D01*
X037530Y072058D01*
X037607Y072135D01*
X037530Y072288D02*
X037607Y072365D01*
X037607Y072442D01*
X037530Y072518D01*
X037377Y072518D01*
X037300Y072442D01*
X037300Y072365D01*
X037377Y072288D01*
X037146Y072211D02*
X036916Y072211D01*
X036839Y072288D01*
X036839Y072442D01*
X036916Y072518D01*
X037146Y072518D01*
X037146Y072058D01*
X039196Y065313D02*
X039196Y065023D01*
X039716Y065013D02*
X039716Y065313D01*
X039976Y065450D02*
X039976Y065143D01*
X038601Y079308D02*
X038601Y079768D01*
X038370Y079768D01*
X038294Y079692D01*
X038294Y079538D01*
X038370Y079461D01*
X038601Y079461D01*
X038447Y079461D02*
X038294Y079308D01*
X038140Y079308D02*
X037833Y079615D01*
X037833Y079692D01*
X037910Y079768D01*
X038063Y079768D01*
X038140Y079692D01*
X038140Y079308D02*
X037833Y079308D01*
X038754Y079385D02*
X039061Y079692D01*
X038908Y079692D02*
X038908Y079385D01*
X039061Y079385D02*
X038754Y079692D01*
X038754Y079538D02*
X039061Y079538D01*
X059583Y078067D02*
X059660Y078143D01*
X059813Y078143D01*
X059890Y078067D01*
X060044Y078067D02*
X060120Y078143D01*
X060274Y078143D01*
X060351Y078067D01*
X060504Y078067D02*
X060504Y077913D01*
X060581Y077836D01*
X060811Y077836D01*
X060811Y077683D02*
X060811Y078143D01*
X060581Y078143D01*
X060504Y078067D01*
X060658Y077836D02*
X060504Y077683D01*
X060351Y077683D02*
X060044Y077990D01*
X060044Y078067D01*
X060044Y077683D02*
X060351Y077683D01*
X059890Y077683D02*
X059583Y077990D01*
X059583Y078067D01*
X059583Y077683D02*
X059890Y077683D01*
X059813Y077143D02*
X059660Y077143D01*
X059583Y077067D01*
X059583Y076990D01*
X059660Y076913D01*
X059583Y076836D01*
X059583Y076760D01*
X059660Y076683D01*
X059813Y076683D01*
X059890Y076760D01*
X060044Y076683D02*
X060351Y076683D01*
X060044Y076990D01*
X060044Y077067D01*
X060120Y077143D01*
X060274Y077143D01*
X060351Y077067D01*
X060504Y077067D02*
X060504Y076913D01*
X060581Y076836D01*
X060811Y076836D01*
X060811Y076683D02*
X060811Y077143D01*
X060581Y077143D01*
X060504Y077067D01*
X060658Y076836D02*
X060504Y076683D01*
X059890Y077067D02*
X059813Y077143D01*
X059737Y076913D02*
X059660Y076913D01*
X067458Y072393D02*
X067612Y072317D01*
X067765Y072163D01*
X067535Y072163D01*
X067458Y072086D01*
X067458Y072010D01*
X067535Y071933D01*
X067688Y071933D01*
X067765Y072010D01*
X067765Y072163D01*
X067919Y071933D02*
X068226Y071933D01*
X068379Y071933D02*
X068533Y072086D01*
X068456Y072086D02*
X068686Y072086D01*
X068686Y071933D02*
X068686Y072393D01*
X068456Y072393D01*
X068379Y072317D01*
X068379Y072163D01*
X068456Y072086D01*
X068226Y072240D02*
X068072Y072393D01*
X068072Y071933D01*
X069053Y070911D02*
X068976Y070834D01*
X068976Y070681D01*
X069053Y070604D01*
X069206Y070604D02*
X069283Y070757D01*
X069283Y070834D01*
X069206Y070911D01*
X069053Y070911D01*
X069206Y070604D02*
X069436Y070604D01*
X069436Y070911D01*
X069456Y070655D02*
X069456Y070348D01*
X069686Y070578D01*
X069226Y070578D01*
X068976Y070450D02*
X068976Y070143D01*
X068914Y070115D02*
X068991Y070038D01*
X068991Y069808D01*
X068976Y069683D02*
X069436Y069683D01*
X069436Y069913D01*
X069360Y069990D01*
X069206Y069990D01*
X069129Y069913D01*
X069129Y069683D01*
X069144Y069655D02*
X069144Y070115D01*
X069375Y070115D01*
X069451Y070038D01*
X069451Y069885D01*
X069375Y069808D01*
X069144Y069808D01*
X069129Y069836D02*
X068976Y069990D01*
X068914Y070115D02*
X068837Y070038D01*
X068837Y069808D01*
X068684Y069808D02*
X068684Y070115D01*
X068761Y070115D01*
X068837Y070038D01*
X068976Y070297D02*
X069436Y070297D01*
X069283Y070143D01*
X069226Y070194D02*
X069226Y069887D01*
X069226Y069734D02*
X069379Y069580D01*
X069379Y069657D02*
X069379Y069427D01*
X069226Y069427D02*
X069686Y069427D01*
X069686Y069657D01*
X069610Y069734D01*
X069456Y069734D01*
X069379Y069657D01*
X069605Y069808D02*
X069605Y070268D01*
X069681Y070115D02*
X069835Y070115D01*
X069912Y070038D01*
X069912Y069808D01*
X070065Y069885D02*
X070142Y069808D01*
X070295Y069808D01*
X070372Y069961D02*
X070065Y069961D01*
X070065Y069885D02*
X070065Y070038D01*
X070142Y070115D01*
X070295Y070115D01*
X070372Y070038D01*
X070372Y069961D01*
X070525Y069808D02*
X070525Y070115D01*
X070756Y070115D01*
X070832Y070038D01*
X070832Y069808D01*
X070986Y069885D02*
X071063Y069808D01*
X071216Y069808D01*
X071293Y069885D01*
X071293Y070038D01*
X071216Y070115D01*
X071063Y070115D01*
X070986Y070038D01*
X070986Y069885D01*
X071446Y069808D02*
X071600Y069808D01*
X071523Y069808D02*
X071523Y070268D01*
X071446Y070268D01*
X072214Y070268D02*
X072214Y069808D01*
X072521Y069808D02*
X072521Y070268D01*
X072367Y070115D01*
X072214Y070268D01*
X072674Y070268D02*
X072674Y069808D01*
X072981Y069808D02*
X072981Y070268D01*
X072827Y070115D01*
X072674Y070268D01*
X073134Y070192D02*
X073134Y069885D01*
X073211Y069808D01*
X073365Y069808D01*
X073441Y069885D01*
X073595Y069808D02*
X073902Y070268D01*
X073976Y070268D02*
X073976Y070575D01*
X073976Y070422D02*
X074436Y070422D01*
X074283Y070268D01*
X074285Y070268D02*
X074132Y070268D01*
X074055Y070192D01*
X074055Y070115D01*
X074132Y070038D01*
X074285Y070038D01*
X074362Y069961D01*
X074362Y069885D01*
X074285Y069808D01*
X074132Y069808D01*
X074055Y069885D01*
X074129Y069961D02*
X073976Y070115D01*
X074129Y070038D02*
X074129Y069808D01*
X073976Y069808D02*
X074436Y069808D01*
X074436Y070038D01*
X074360Y070115D01*
X074206Y070115D01*
X074129Y070038D01*
X074285Y070268D02*
X074362Y070192D01*
X074516Y070268D02*
X074746Y070268D01*
X074822Y070192D01*
X074822Y069885D01*
X074746Y069808D01*
X074516Y069808D01*
X074516Y070268D01*
X074283Y070729D02*
X074436Y070882D01*
X073976Y070882D01*
X073976Y070729D02*
X073976Y071036D01*
X073365Y070268D02*
X073211Y070268D01*
X073134Y070192D01*
X073365Y070268D02*
X073441Y070192D01*
X071846Y071653D02*
X071556Y071653D01*
X071556Y072173D02*
X071856Y072173D01*
X071956Y072433D02*
X071879Y072510D01*
X071956Y072433D02*
X072109Y072433D01*
X072186Y072510D01*
X072186Y072817D01*
X072109Y072893D01*
X071956Y072893D01*
X071879Y072817D01*
X071726Y072817D02*
X071726Y072740D01*
X071649Y072663D01*
X071495Y072663D01*
X071419Y072586D01*
X071419Y072510D01*
X071495Y072433D01*
X071649Y072433D01*
X071726Y072510D01*
X071726Y072586D01*
X071649Y072663D01*
X071495Y072663D02*
X071419Y072740D01*
X071419Y072817D01*
X071495Y072893D01*
X071649Y072893D01*
X071726Y072817D01*
X071726Y073177D02*
X072186Y073177D01*
X072186Y073407D01*
X072110Y073484D01*
X071956Y073484D01*
X071879Y073407D01*
X071879Y073177D01*
X071879Y073330D02*
X071726Y073484D01*
X071726Y073637D02*
X071726Y073944D01*
X071726Y073791D02*
X072186Y073791D01*
X072033Y073637D01*
X072186Y074098D02*
X072186Y074405D01*
X072110Y074405D01*
X071803Y074098D01*
X071726Y074098D01*
X072726Y074174D02*
X072803Y074098D01*
X072879Y074098D01*
X072956Y074174D01*
X072956Y074328D01*
X072879Y074405D01*
X072803Y074405D01*
X072726Y074328D01*
X072726Y074174D01*
X072726Y073944D02*
X072726Y073637D01*
X072726Y073484D02*
X072879Y073330D01*
X072879Y073407D02*
X072879Y073177D01*
X072726Y073177D02*
X073186Y073177D01*
X073186Y073407D01*
X073110Y073484D01*
X072956Y073484D01*
X072879Y073407D01*
X073033Y073637D02*
X073186Y073791D01*
X072726Y073791D01*
X073033Y074098D02*
X073110Y074098D01*
X073186Y074174D01*
X073186Y074328D01*
X073110Y074405D01*
X073033Y074405D01*
X072956Y074328D01*
X072956Y074174D02*
X073033Y074098D01*
X069681Y070115D02*
X069605Y070038D01*
X069686Y070041D02*
X069226Y070041D01*
X069533Y069887D02*
X069686Y070041D01*
X068530Y070038D02*
X068224Y070038D01*
X068224Y070115D02*
X068377Y070268D01*
X068530Y070115D01*
X068530Y069808D01*
X068224Y069808D02*
X068224Y070115D01*
X070476Y068780D02*
X070476Y068473D01*
X070783Y068780D01*
X070860Y068780D01*
X070936Y068703D01*
X070936Y068549D01*
X070860Y068473D01*
X070936Y068166D02*
X070476Y068166D01*
X070476Y068319D02*
X070476Y068012D01*
X070476Y067859D02*
X070629Y067705D01*
X070629Y067782D02*
X070629Y067552D01*
X070476Y067552D02*
X070936Y067552D01*
X070936Y067782D01*
X070860Y067859D01*
X070706Y067859D01*
X070629Y067782D01*
X070783Y068012D02*
X070936Y068166D01*
X070686Y059143D02*
X070456Y059143D01*
X070379Y059067D01*
X070379Y058913D01*
X070456Y058836D01*
X070686Y058836D01*
X070686Y058683D02*
X070686Y059143D01*
X070533Y058836D02*
X070379Y058683D01*
X070226Y058683D02*
X069919Y058990D01*
X069919Y059067D01*
X069995Y059143D01*
X070149Y059143D01*
X070226Y059067D01*
X070226Y058683D02*
X069919Y058683D01*
X069765Y058760D02*
X069458Y059067D01*
X069458Y058760D01*
X069535Y058683D01*
X069688Y058683D01*
X069765Y058760D01*
X069765Y059067D01*
X069688Y059143D01*
X069535Y059143D01*
X069458Y059067D01*
X070416Y050643D02*
X070646Y050643D01*
X070646Y050183D01*
X070416Y050183D01*
X070339Y050260D01*
X070339Y050567D01*
X070416Y050643D01*
X070800Y050567D02*
X070800Y050490D01*
X070877Y050413D01*
X071030Y050413D01*
X071107Y050490D01*
X071107Y050567D01*
X071030Y050643D01*
X070877Y050643D01*
X070800Y050567D01*
X070877Y050413D02*
X070800Y050336D01*
X070800Y050260D01*
X070877Y050183D01*
X071030Y050183D01*
X071107Y050260D01*
X071107Y050336D01*
X071030Y050413D01*
X071260Y050413D02*
X071337Y050336D01*
X071567Y050336D01*
X071567Y050183D02*
X071567Y050643D01*
X071337Y050643D01*
X071260Y050567D01*
X071260Y050413D01*
X071414Y050336D02*
X071260Y050183D01*
X071337Y049643D02*
X071260Y049567D01*
X071260Y049413D01*
X071337Y049336D01*
X071567Y049336D01*
X071567Y049183D02*
X071567Y049643D01*
X071337Y049643D01*
X071107Y049643D02*
X070800Y049643D01*
X070800Y049567D01*
X071107Y049260D01*
X071107Y049183D01*
X071260Y049183D02*
X071414Y049336D01*
X071833Y049433D02*
X072140Y049433D01*
X071987Y049433D02*
X071987Y049893D01*
X072140Y049740D01*
X072294Y049817D02*
X072294Y049663D01*
X072370Y049586D01*
X072601Y049586D01*
X072601Y049433D02*
X072601Y049893D01*
X072370Y049893D01*
X072294Y049817D01*
X072447Y049586D02*
X072294Y049433D01*
X072754Y049510D02*
X073061Y049817D01*
X072908Y049817D02*
X072908Y049510D01*
X073061Y049510D02*
X072754Y049817D01*
X072754Y049663D02*
X073061Y049663D01*
X072436Y048893D02*
X072206Y048893D01*
X072129Y048817D01*
X072129Y048663D01*
X072206Y048586D01*
X072436Y048586D01*
X072436Y048433D02*
X072436Y048893D01*
X072283Y048586D02*
X072129Y048433D01*
X071976Y048510D02*
X071899Y048433D01*
X071745Y048433D01*
X071669Y048510D01*
X071669Y048817D01*
X071745Y048893D01*
X071899Y048893D01*
X071976Y048817D01*
X071976Y048740D01*
X071899Y048663D01*
X071669Y048663D01*
X071567Y048643D02*
X071337Y048643D01*
X071260Y048567D01*
X071260Y048413D01*
X071337Y048336D01*
X071567Y048336D01*
X071567Y048183D02*
X071567Y048643D01*
X071515Y048817D02*
X071362Y048663D01*
X071362Y048433D01*
X071414Y048336D02*
X071260Y048183D01*
X071107Y048260D02*
X071030Y048183D01*
X070877Y048183D01*
X070800Y048260D01*
X070800Y048336D01*
X070877Y048413D01*
X071107Y048413D01*
X071107Y048260D01*
X071107Y048413D02*
X070953Y048567D01*
X070800Y048643D01*
X070646Y048643D02*
X070416Y048643D01*
X070339Y048567D01*
X070339Y048260D01*
X070416Y048183D01*
X070646Y048183D01*
X070646Y048643D01*
X070646Y049183D02*
X070416Y049183D01*
X070339Y049260D01*
X070339Y049567D01*
X070416Y049643D01*
X070646Y049643D01*
X070646Y049183D01*
X071208Y048893D02*
X071208Y048817D01*
X071362Y048663D01*
X071515Y048817D02*
X071515Y048893D01*
X071567Y047643D02*
X071337Y047643D01*
X071260Y047567D01*
X071260Y047413D01*
X071337Y047336D01*
X071567Y047336D01*
X071567Y047183D02*
X071567Y047643D01*
X071414Y047336D02*
X071260Y047183D01*
X071107Y047260D02*
X071030Y047183D01*
X070877Y047183D01*
X070800Y047260D01*
X070800Y047413D01*
X070877Y047490D01*
X070953Y047490D01*
X071107Y047413D01*
X071107Y047643D01*
X070800Y047643D01*
X070646Y047643D02*
X070416Y047643D01*
X070339Y047567D01*
X070339Y047260D01*
X070416Y047183D01*
X070646Y047183D01*
X070646Y047643D01*
X070646Y046643D02*
X070416Y046643D01*
X070339Y046567D01*
X070339Y046260D01*
X070416Y046183D01*
X070646Y046183D01*
X070646Y046643D01*
X070877Y046643D02*
X071107Y046413D01*
X070800Y046413D01*
X070877Y046183D02*
X070877Y046643D01*
X071260Y046567D02*
X071260Y046413D01*
X071337Y046336D01*
X071567Y046336D01*
X071567Y046183D02*
X071567Y046643D01*
X071337Y046643D01*
X071260Y046567D01*
X071414Y046336D02*
X071260Y046183D01*
X071337Y045643D02*
X071260Y045567D01*
X071260Y045413D01*
X071337Y045336D01*
X071567Y045336D01*
X071567Y045183D02*
X071567Y045643D01*
X071337Y045643D01*
X071107Y045567D02*
X071030Y045643D01*
X070877Y045643D01*
X070800Y045567D01*
X070800Y045490D01*
X070877Y045413D01*
X070800Y045336D01*
X070800Y045260D01*
X070877Y045183D01*
X071030Y045183D01*
X071107Y045260D01*
X071260Y045183D02*
X071414Y045336D01*
X070953Y045413D02*
X070877Y045413D01*
X070646Y045183D02*
X070416Y045183D01*
X070339Y045260D01*
X070339Y045567D01*
X070416Y045643D01*
X070646Y045643D01*
X070646Y045183D01*
X070655Y044643D02*
X070732Y044567D01*
X070655Y044643D02*
X070502Y044643D01*
X070425Y044567D01*
X070425Y044490D01*
X070732Y044183D01*
X070425Y044183D01*
X070271Y044183D02*
X070041Y044183D01*
X069964Y044260D01*
X069964Y044567D01*
X070041Y044643D01*
X070271Y044643D01*
X070271Y044183D01*
X070291Y043643D02*
X070521Y043643D01*
X070521Y043183D01*
X070291Y043183D01*
X070214Y043260D01*
X070214Y043567D01*
X070291Y043643D01*
X070828Y043643D02*
X070828Y043183D01*
X070675Y043183D02*
X070982Y043183D01*
X071135Y043183D02*
X071289Y043336D01*
X071212Y043336D02*
X071442Y043336D01*
X071442Y043183D02*
X071442Y043643D01*
X071212Y043643D01*
X071135Y043567D01*
X071135Y043413D01*
X071212Y043336D01*
X070982Y043490D02*
X070828Y043643D01*
X070885Y044183D02*
X071039Y044336D01*
X070962Y044336D02*
X071192Y044336D01*
X071192Y044183D02*
X071192Y044643D01*
X070962Y044643D01*
X070885Y044567D01*
X070885Y044413D01*
X070962Y044336D01*
X072458Y044143D02*
X072458Y044067D01*
X072612Y043913D01*
X072612Y043683D01*
X072612Y043913D02*
X072765Y044067D01*
X072765Y044143D01*
X072706Y044058D02*
X072706Y044365D01*
X072553Y044365D02*
X072860Y044058D01*
X072919Y044067D02*
X072995Y044143D01*
X073149Y044143D01*
X073226Y044067D01*
X073379Y044067D02*
X073379Y043913D01*
X073456Y043836D01*
X073686Y043836D01*
X073686Y043683D02*
X073686Y044143D01*
X073456Y044143D01*
X073379Y044067D01*
X073533Y043836D02*
X073379Y043683D01*
X073226Y043683D02*
X072919Y043990D01*
X072919Y044067D01*
X072860Y044211D02*
X072553Y044211D01*
X072553Y044058D02*
X072860Y044365D01*
X072860Y044518D02*
X072553Y044825D01*
X072612Y044913D02*
X072612Y044683D01*
X072553Y044672D02*
X072860Y044672D01*
X072919Y044683D02*
X073226Y044683D01*
X073379Y044683D02*
X073533Y044836D01*
X073456Y044836D02*
X073686Y044836D01*
X073686Y044683D02*
X073686Y045143D01*
X073456Y045143D01*
X073379Y045067D01*
X073379Y044913D01*
X073456Y044836D01*
X073226Y044990D02*
X073072Y045143D01*
X073072Y044683D01*
X072860Y044825D02*
X072553Y044518D01*
X072706Y044518D02*
X072706Y044825D01*
X072612Y044913D02*
X072458Y045067D01*
X072458Y045143D01*
X072476Y045286D02*
X072629Y045132D01*
X072629Y045209D02*
X072629Y044979D01*
X072612Y044913D02*
X072765Y045067D01*
X072765Y045143D01*
X072629Y045209D02*
X072706Y045286D01*
X072860Y045286D01*
X072936Y045209D01*
X072936Y044979D01*
X072476Y044979D01*
X072476Y045439D02*
X072783Y045746D01*
X072860Y045746D01*
X072936Y045669D01*
X072936Y045516D01*
X072860Y045439D01*
X072476Y045439D02*
X072476Y045746D01*
X073351Y045865D02*
X073504Y045711D01*
X073504Y045788D02*
X073504Y045558D01*
X073351Y045558D02*
X073811Y045558D01*
X073811Y045788D01*
X073735Y045865D01*
X073581Y045865D01*
X073504Y045788D01*
X073428Y046018D02*
X073351Y046018D01*
X073428Y046018D02*
X073735Y046325D01*
X073811Y046325D01*
X073811Y046018D01*
X074226Y045874D02*
X074303Y045950D01*
X074379Y045950D01*
X074456Y045874D01*
X074456Y045643D01*
X074303Y045643D01*
X074226Y045720D01*
X074226Y045874D01*
X074456Y045643D02*
X074610Y045797D01*
X074686Y045950D01*
X074686Y046104D02*
X074610Y046104D01*
X074456Y046257D01*
X074226Y046257D01*
X074456Y046257D02*
X074610Y046411D01*
X074686Y046411D01*
X074610Y047058D02*
X074303Y047058D01*
X074226Y047135D01*
X074226Y047288D01*
X074303Y047365D01*
X074303Y047518D02*
X074226Y047595D01*
X074226Y047749D01*
X074303Y047825D01*
X074379Y047825D01*
X074456Y047749D01*
X074456Y047672D01*
X074456Y047749D02*
X074533Y047825D01*
X074610Y047825D01*
X074686Y047749D01*
X074686Y047595D01*
X074610Y047518D01*
X074610Y047365D02*
X074686Y047288D01*
X074686Y047135D01*
X074610Y047058D01*
X073966Y047388D02*
X073966Y047688D01*
X074226Y048132D02*
X074456Y048132D01*
X074610Y048286D01*
X074686Y048286D01*
X074456Y048132D02*
X074610Y047979D01*
X074686Y047979D01*
X073446Y047688D02*
X073446Y047398D01*
X073735Y046786D02*
X073811Y046786D01*
X073735Y046786D02*
X073581Y046632D01*
X073351Y046632D01*
X073581Y046632D02*
X073735Y046479D01*
X073811Y046479D01*
X074226Y045490D02*
X074379Y045336D01*
X074379Y045413D02*
X074379Y045183D01*
X074226Y045183D02*
X074686Y045183D01*
X074686Y045413D01*
X074610Y045490D01*
X074456Y045490D01*
X074379Y045413D01*
X073226Y043683D02*
X072919Y043683D01*
X072561Y042030D02*
X072485Y042030D01*
X072331Y041876D01*
X072101Y041876D01*
X072331Y041876D02*
X072485Y041723D01*
X072561Y041723D01*
X072561Y041569D02*
X072561Y041262D01*
X072331Y041262D01*
X072408Y041416D01*
X072408Y041492D01*
X072331Y041569D01*
X072178Y041569D01*
X072101Y041492D01*
X072101Y041339D01*
X072178Y041262D01*
X072155Y041288D02*
X072002Y041288D01*
X071925Y041211D01*
X071925Y041135D01*
X072002Y041058D01*
X072155Y041058D01*
X072232Y041135D01*
X072232Y041211D01*
X072155Y041288D01*
X072232Y041365D01*
X072232Y041442D01*
X072155Y041518D01*
X072002Y041518D01*
X071925Y041442D01*
X071925Y041365D01*
X072002Y041288D01*
X072110Y041161D02*
X072186Y041161D01*
X072110Y041161D02*
X071956Y041007D01*
X071726Y041007D01*
X071618Y041058D02*
X071618Y041288D01*
X071464Y041442D01*
X071464Y041518D01*
X071618Y041288D02*
X071771Y041442D01*
X071771Y041518D01*
X072101Y041109D02*
X072254Y040955D01*
X072254Y041032D02*
X072254Y040802D01*
X072186Y040854D02*
X072110Y040854D01*
X071956Y041007D01*
X072101Y040802D02*
X072561Y040802D01*
X072561Y041032D01*
X072485Y041109D01*
X072331Y041109D01*
X072254Y041032D01*
X072385Y041058D02*
X072539Y041211D01*
X072462Y041211D02*
X072692Y041211D01*
X072692Y041058D02*
X072692Y041518D01*
X072462Y041518D01*
X072385Y041442D01*
X072385Y041288D01*
X072462Y041211D01*
X072110Y040700D02*
X072033Y040700D01*
X071956Y040624D01*
X071879Y040700D01*
X071803Y040700D01*
X071726Y040624D01*
X071726Y040470D01*
X071803Y040393D01*
X071726Y040240D02*
X071879Y040086D01*
X071879Y040163D02*
X071879Y039933D01*
X071726Y039933D02*
X072186Y039933D01*
X072186Y040163D01*
X072110Y040240D01*
X071956Y040240D01*
X071879Y040163D01*
X072110Y040393D02*
X072186Y040470D01*
X072186Y040624D01*
X072110Y040700D01*
X071956Y040624D02*
X071956Y040547D01*
X071442Y042058D02*
X071442Y042518D01*
X071212Y042518D01*
X071135Y042442D01*
X071135Y042288D01*
X071212Y042211D01*
X071442Y042211D01*
X071289Y042211D02*
X071135Y042058D01*
X070982Y042288D02*
X070675Y042288D01*
X070521Y042442D02*
X070368Y042288D01*
X070368Y042058D01*
X070368Y042288D02*
X070214Y042442D01*
X070214Y042518D01*
X070521Y042518D02*
X070521Y042442D01*
X070752Y042518D02*
X070982Y042288D01*
X070752Y042058D02*
X070752Y042518D01*
X070341Y040928D02*
X070341Y040638D01*
X069821Y040638D02*
X069821Y040938D01*
X069561Y040848D02*
X069485Y040848D01*
X069331Y041001D01*
X069101Y041001D01*
X069331Y041001D02*
X069485Y041155D01*
X069561Y041155D01*
X069485Y040694D02*
X069561Y040617D01*
X069561Y040464D01*
X069485Y040387D01*
X069178Y040387D01*
X069101Y040464D01*
X069101Y040617D01*
X069178Y040694D01*
X064701Y033893D02*
X064547Y033893D01*
X064471Y033817D01*
X064317Y033893D02*
X064010Y033893D01*
X064010Y033817D01*
X064317Y033510D01*
X064317Y033433D01*
X064010Y033433D01*
X063857Y033510D02*
X063857Y033586D01*
X063780Y033663D01*
X063627Y033663D01*
X063550Y033586D01*
X063550Y033510D01*
X063627Y033433D01*
X063780Y033433D01*
X063857Y033510D01*
X063780Y033663D02*
X063857Y033740D01*
X063857Y033817D01*
X063780Y033893D01*
X063627Y033893D01*
X063550Y033817D01*
X063550Y033740D01*
X063627Y033663D01*
X063396Y033510D02*
X063089Y033817D01*
X063089Y033510D01*
X063166Y033433D01*
X063320Y033433D01*
X063396Y033510D01*
X063396Y033817D01*
X063320Y033893D01*
X063166Y033893D01*
X063089Y033817D01*
X063306Y034153D02*
X063606Y034153D01*
X063606Y034673D02*
X063316Y034673D01*
X064471Y033510D02*
X064547Y033433D01*
X064701Y033433D01*
X064778Y033510D01*
X064778Y033817D01*
X064701Y033893D01*
X070700Y021893D02*
X070853Y021893D01*
X070930Y021817D01*
X070930Y021740D01*
X070853Y021663D01*
X070623Y021663D01*
X070623Y021510D02*
X070623Y021817D01*
X070700Y021893D01*
X071083Y021817D02*
X071160Y021893D01*
X071313Y021893D01*
X071390Y021817D01*
X071544Y021893D02*
X071544Y021433D01*
X071697Y021586D01*
X071851Y021433D01*
X071851Y021893D01*
X072004Y021817D02*
X072081Y021893D01*
X072234Y021893D01*
X072311Y021817D01*
X072311Y021510D01*
X072234Y021433D01*
X072081Y021433D01*
X072004Y021510D01*
X071981Y021173D02*
X071681Y021173D01*
X071390Y021433D02*
X071083Y021740D01*
X071083Y021817D01*
X070930Y021510D02*
X070853Y021433D01*
X070700Y021433D01*
X070623Y021510D01*
X071083Y021433D02*
X071390Y021433D01*
X071681Y020653D02*
X071971Y020653D01*
X061811Y048802D02*
X061811Y049032D01*
X061735Y049109D01*
X061581Y049109D01*
X061504Y049032D01*
X061504Y048802D01*
X061351Y048802D02*
X061811Y048802D01*
X061504Y048955D02*
X061351Y049109D01*
X061351Y049262D02*
X061351Y049569D01*
X061351Y049416D02*
X061811Y049416D01*
X061658Y049262D01*
X061658Y049723D02*
X061581Y049799D01*
X061581Y050030D01*
X061428Y050030D02*
X061735Y050030D01*
X061811Y049953D01*
X061811Y049799D01*
X061735Y049723D01*
X061658Y049723D01*
X061428Y049723D02*
X061351Y049799D01*
X061351Y049953D01*
X061428Y050030D01*
X060091Y050138D02*
X060091Y050428D01*
X059571Y050438D02*
X059571Y050138D01*
X059311Y050041D02*
X058851Y050041D01*
X058851Y050194D02*
X058851Y049887D01*
X058851Y049734D02*
X059311Y049734D01*
X059158Y049580D01*
X059311Y049427D01*
X058851Y049427D01*
X058928Y049273D02*
X058851Y049197D01*
X058851Y049043D01*
X058928Y048966D01*
X059235Y048966D01*
X059311Y049043D01*
X059311Y049197D01*
X059235Y049273D01*
X059158Y049887D02*
X059311Y050041D01*
X059081Y050348D02*
X059081Y050578D01*
X059004Y050655D01*
X058928Y050655D01*
X058851Y050578D01*
X058851Y050424D01*
X058928Y050348D01*
X059081Y050348D01*
X059235Y050501D01*
X059311Y050655D01*
X041859Y032268D02*
X041936Y032192D01*
X041936Y031885D01*
X041859Y031808D01*
X041706Y031808D01*
X041629Y031885D01*
X041476Y031808D02*
X041169Y032115D01*
X041169Y032192D01*
X041245Y032268D01*
X041399Y032268D01*
X041476Y032192D01*
X041629Y032192D02*
X041706Y032268D01*
X041859Y032268D01*
X041476Y031808D02*
X041169Y031808D01*
X041015Y031808D02*
X041015Y032268D01*
X041015Y032038D02*
X040708Y032038D01*
X040555Y031885D02*
X040478Y031808D01*
X040325Y031808D01*
X040248Y031885D01*
X040248Y032192D02*
X040325Y032268D01*
X040478Y032268D01*
X040555Y032192D01*
X040555Y031885D01*
X040708Y031808D02*
X040708Y032268D01*
X041306Y031548D02*
X041606Y031548D01*
X041596Y031028D02*
X041306Y031028D01*
X071976Y085256D02*
X072436Y085256D01*
X072436Y085486D01*
X072360Y085563D01*
X072206Y085563D01*
X072129Y085486D01*
X072129Y085256D01*
X072129Y085409D02*
X071976Y085563D01*
X071976Y085716D02*
X071976Y086023D01*
X071976Y085870D02*
X072436Y085870D01*
X072283Y085716D01*
X072360Y086177D02*
X072436Y086254D01*
X072436Y086407D01*
X072360Y086484D01*
X072283Y086484D01*
X071976Y086177D01*
X071976Y086484D01*
X071976Y086637D02*
X072283Y086944D01*
X072360Y086944D01*
X072436Y086867D01*
X072436Y086714D01*
X072360Y086637D01*
X071976Y086637D02*
X071976Y086944D01*
X072053Y087098D02*
X071976Y087174D01*
X071976Y087328D01*
X072053Y087405D01*
X072129Y087405D01*
X072206Y087328D01*
X072206Y087251D01*
X072206Y087328D02*
X072283Y087405D01*
X072360Y087405D01*
X072436Y087328D01*
X072436Y087174D01*
X072360Y087098D01*
X071561Y086947D02*
X071485Y087023D01*
X071331Y087023D01*
X071254Y086947D01*
X071254Y086716D01*
X071101Y086716D02*
X071561Y086716D01*
X071561Y086947D01*
X071408Y087177D02*
X071561Y087330D01*
X071101Y087330D01*
X071101Y087177D02*
X071101Y087484D01*
X071101Y087637D02*
X071101Y087944D01*
X071101Y087791D02*
X071561Y087791D01*
X071408Y087637D01*
X071485Y088098D02*
X071561Y088174D01*
X071561Y088328D01*
X071485Y088405D01*
X071408Y088405D01*
X071101Y088098D01*
X071101Y088405D01*
X071101Y089177D02*
X071561Y089177D01*
X071561Y089407D01*
X071485Y089484D01*
X071331Y089484D01*
X071254Y089407D01*
X071254Y089177D01*
X071254Y089330D02*
X071101Y089484D01*
X071178Y089637D02*
X071101Y089714D01*
X071101Y089867D01*
X071178Y089944D01*
X071254Y089944D01*
X071331Y089867D01*
X071331Y089791D01*
X071331Y089867D02*
X071408Y089944D01*
X071485Y089944D01*
X071561Y089867D01*
X071561Y089714D01*
X071485Y089637D01*
X071331Y090098D02*
X071331Y090405D01*
X071101Y090328D02*
X071561Y090328D01*
X071331Y090098D01*
X072053Y089405D02*
X071976Y089328D01*
X071976Y089174D01*
X072053Y089098D01*
X071976Y088944D02*
X072129Y088791D01*
X072129Y088867D02*
X072129Y088637D01*
X071976Y088637D02*
X072436Y088637D01*
X072436Y088867D01*
X072360Y088944D01*
X072206Y088944D01*
X072129Y088867D01*
X072360Y089098D02*
X072436Y089174D01*
X072436Y089328D01*
X072360Y089405D01*
X072283Y089405D01*
X072206Y089328D01*
X072129Y089405D01*
X072053Y089405D01*
X072206Y089328D02*
X072206Y089251D01*
X072206Y088484D02*
X072206Y088177D01*
X071101Y087023D02*
X071254Y086870D01*
D12*
X072080Y088000D03*
X072080Y088580D03*
X072955Y089000D03*
X072955Y089580D03*
X072080Y090000D03*
X072080Y090580D03*
X072955Y087580D03*
X072955Y087000D03*
X072705Y074580D03*
X072705Y074000D03*
X073705Y074000D03*
X073705Y074580D03*
X073457Y070326D03*
X073457Y069746D03*
X071455Y068955D03*
X071455Y068375D03*
X070205Y070250D03*
X070205Y070830D03*
X068457Y070201D03*
X068457Y069621D03*
X072832Y046076D03*
X072832Y045496D03*
X073080Y042205D03*
X073080Y041625D03*
X041830Y058125D03*
X041830Y058705D03*
X040457Y061871D03*
X040457Y062451D03*
X039582Y062451D03*
X039582Y061871D03*
X037957Y061201D03*
X037957Y060621D03*
D13*
X042186Y062038D03*
X043226Y062038D03*
X039976Y073038D03*
X038936Y073038D03*
X049061Y073038D03*
X050101Y073038D03*
X070061Y043038D03*
X071101Y043038D03*
D14*
X062331Y049108D03*
X062331Y050218D03*
X044456Y068233D03*
X044456Y069343D03*
D15*
X039123Y078789D03*
X038543Y078789D03*
G36*
X040253Y058723D02*
X040434Y058904D01*
X040821Y058517D01*
X040640Y058336D01*
X040253Y058723D01*
G37*
G36*
X039843Y058313D02*
X040024Y058494D01*
X040411Y058107D01*
X040230Y057926D01*
X039843Y058313D01*
G37*
X036498Y057789D03*
X035918Y057789D03*
X060293Y076164D03*
X060873Y076164D03*
X060873Y077164D03*
X060293Y077164D03*
X068168Y071414D03*
X068748Y071414D03*
X070168Y058164D03*
X070748Y058164D03*
X070744Y051162D03*
X070164Y051162D03*
X070164Y050162D03*
X070744Y050162D03*
X070744Y049162D03*
X070164Y049162D03*
X070164Y048162D03*
X070744Y048162D03*
X070744Y047162D03*
X070164Y047162D03*
X070164Y046162D03*
X070744Y046162D03*
X070619Y044162D03*
X070039Y044162D03*
X071289Y042037D03*
X071869Y042037D03*
X073168Y043164D03*
X073748Y043164D03*
X073748Y044164D03*
X073168Y044164D03*
X072498Y047914D03*
X071918Y047914D03*
X072543Y048914D03*
X073123Y048914D03*
D16*
X073706Y046183D03*
X073706Y045143D03*
X071956Y045058D03*
X071956Y044018D03*
X071206Y040933D03*
X071206Y039893D03*
X049456Y068143D03*
X049456Y069183D03*
X041831Y071768D03*
X041831Y072808D03*
D17*
X042956Y068195D03*
X042956Y067625D03*
X041456Y065451D03*
X041456Y064881D03*
X040456Y064881D03*
X040456Y065451D03*
X039456Y065451D03*
X039456Y064881D03*
X039956Y055701D03*
X039956Y055131D03*
X059831Y050570D03*
X059831Y050000D03*
X070081Y041070D03*
X070081Y040500D03*
X073706Y047256D03*
X073706Y047826D03*
D18*
X034691Y041588D02*
X034391Y041588D01*
X034541Y041588D02*
X034541Y042038D01*
X034691Y041888D01*
X035591Y041538D02*
X035891Y041538D01*
X035741Y041538D02*
X035741Y041988D01*
X035891Y041838D01*
X036052Y041763D02*
X036127Y041688D01*
X036352Y041688D01*
X036352Y041538D02*
X036352Y041988D01*
X036127Y041988D01*
X036052Y041913D01*
X036052Y041763D01*
X036512Y041763D02*
X036587Y041688D01*
X036812Y041688D01*
X036662Y041688D02*
X036512Y041538D01*
X036512Y041763D02*
X036512Y041913D01*
X036587Y041988D01*
X036812Y041988D01*
X036812Y041538D01*
X040391Y041963D02*
X040691Y041663D01*
X040691Y041588D01*
X040691Y042038D02*
X040391Y042038D01*
X040391Y041963D01*
X041391Y041588D02*
X041691Y041588D01*
X041541Y041588D02*
X041541Y042038D01*
X041691Y041888D01*
X042591Y041913D02*
X042666Y041988D01*
X042816Y041988D01*
X042891Y041913D01*
X043052Y041913D02*
X043052Y041763D01*
X043127Y041688D01*
X043352Y041688D01*
X043352Y041538D02*
X043352Y041988D01*
X043127Y041988D01*
X043052Y041913D01*
X042891Y041538D02*
X042591Y041838D01*
X042591Y041913D01*
X042591Y041538D02*
X042891Y041538D01*
X043512Y041538D02*
X043662Y041688D01*
X043587Y041688D02*
X043812Y041688D01*
X043812Y041538D02*
X043812Y041988D01*
X043587Y041988D01*
X043512Y041913D01*
X043512Y041763D01*
X043587Y041688D01*
X047391Y041963D02*
X047691Y041663D01*
X047691Y041588D01*
X047691Y042038D02*
X047391Y042038D01*
X047391Y041963D01*
X080081Y051688D02*
X080081Y051838D01*
X080156Y051913D01*
X080081Y052073D02*
X080081Y052374D01*
X080081Y052224D02*
X080531Y052224D01*
X080381Y052073D01*
X080456Y051913D02*
X080531Y051838D01*
X080531Y051688D01*
X080456Y051613D01*
X080156Y051613D01*
X080081Y051688D01*
X080456Y052534D02*
X080306Y052684D01*
X080081Y052684D01*
X080306Y052684D02*
X080456Y052834D01*
X080531Y052834D01*
X080531Y052534D02*
X080456Y052534D01*
X081781Y054738D02*
X081706Y054813D01*
X081706Y054963D01*
X081781Y055038D01*
X081706Y055198D02*
X082006Y055499D01*
X082081Y055499D01*
X082156Y055424D01*
X082156Y055273D01*
X082081Y055198D01*
X082081Y055038D02*
X082156Y054963D01*
X082156Y054813D01*
X082081Y054738D01*
X081781Y054738D01*
X081706Y055198D02*
X081706Y055499D01*
X081706Y055809D02*
X081931Y055809D01*
X082081Y055959D01*
X082156Y055959D01*
X081931Y055809D02*
X082081Y055659D01*
X082156Y055659D01*
D19*
X081081Y053863D03*
X079456Y050738D03*
D20*
X048456Y068141D03*
X048456Y069185D03*
D21*
X037546Y073038D03*
X036866Y073038D03*
X069991Y045163D03*
X070671Y045163D03*
D22*
X047456Y042863D03*
X047456Y042463D03*
X046456Y042463D03*
X046456Y042863D03*
X045456Y042863D03*
X045456Y042463D03*
X044456Y042463D03*
X044456Y042863D03*
X043456Y042863D03*
X043456Y042463D03*
X042456Y042463D03*
X042456Y042863D03*
X041456Y042863D03*
X041456Y042463D03*
X040456Y042463D03*
X040456Y042863D03*
X039456Y042863D03*
X039456Y042463D03*
X038456Y042463D03*
X038456Y042863D03*
X037456Y042863D03*
X037456Y042463D03*
X036456Y042463D03*
X036456Y042863D03*
X035456Y042863D03*
X035456Y042463D03*
X034456Y042463D03*
X034456Y042863D03*
D23*
X041168Y031288D03*
X041738Y031288D03*
X063174Y034413D03*
X063744Y034413D03*
X071543Y020913D03*
X072113Y020913D03*
X071988Y071913D03*
X071418Y071913D03*
M02*
