G75*
G70*
%OFA0B0*%
%FSLAX24Y24*%
%IPPOS*%
%LPD*%
%AMOC8*
5,1,8,0,0,1.08239X$1,22.5*
%
%ADD10C,0.0060*%
%ADD11C,0.0100*%
%ADD12C,0.0160*%
%ADD13C,0.0000*%
%ADD14C,0.0001*%
%ADD15C,0.0050*%
D10*
X062603Y056205D02*
X062603Y056846D01*
X062816Y056632D01*
X063030Y056846D01*
X063030Y056205D01*
X063247Y056205D02*
X063461Y056205D01*
X063354Y056205D02*
X063354Y056632D01*
X063247Y056632D01*
X063354Y056846D02*
X063354Y056952D01*
X063677Y056632D02*
X063997Y056632D01*
X064104Y056525D01*
X064104Y056205D01*
X064322Y056205D02*
X064535Y056205D01*
X064428Y056205D02*
X064428Y056632D01*
X064322Y056632D01*
X064428Y056846D02*
X064428Y056952D01*
X064751Y056525D02*
X065178Y056525D01*
X065396Y056632D02*
X065503Y056525D01*
X065716Y056525D01*
X065823Y056419D01*
X065823Y056312D01*
X065716Y056205D01*
X065503Y056205D01*
X065396Y056312D01*
X065396Y056632D02*
X065396Y056739D01*
X065503Y056846D01*
X065716Y056846D01*
X065823Y056739D01*
X066040Y056846D02*
X066467Y056846D01*
X066254Y056846D02*
X066254Y056205D01*
X066685Y056205D02*
X067112Y056846D01*
X066685Y056846D02*
X067112Y056205D01*
X067974Y056205D02*
X068401Y056205D01*
X068188Y056205D02*
X068188Y056846D01*
X067974Y056632D01*
X068619Y056525D02*
X069046Y056525D01*
X069263Y056312D02*
X069690Y056739D01*
X069690Y056846D01*
X069263Y056846D01*
X068939Y056846D02*
X068619Y056525D01*
X068939Y056205D02*
X068939Y056846D01*
X069263Y056312D02*
X069263Y056205D01*
X069908Y056312D02*
X070335Y056739D01*
X070335Y056525D02*
X069908Y056525D01*
X069908Y056739D02*
X070335Y056312D01*
X070121Y056312D02*
X070121Y056739D01*
X070552Y056632D02*
X070766Y056846D01*
X070766Y056205D01*
X070979Y056205D02*
X070552Y056205D01*
X071197Y056525D02*
X071624Y056525D01*
X071841Y056312D02*
X071841Y056739D01*
X071948Y056846D01*
X072162Y056846D01*
X072268Y056739D01*
X071841Y056312D01*
X071948Y056205D01*
X072162Y056205D01*
X072268Y056312D01*
X072268Y056739D01*
X071517Y056846D02*
X071517Y056205D01*
X071197Y056525D02*
X071517Y056846D01*
X063677Y056632D02*
X063677Y056205D01*
D11*
X006206Y053625D02*
X006206Y009375D01*
X071831Y009375D01*
X071831Y053625D02*
X006206Y053625D01*
D12*
X071831Y009375D02*
X072706Y008500D01*
D13*
X063386Y012450D02*
X063388Y012498D01*
X063394Y012547D01*
X063404Y012594D01*
X063417Y012641D01*
X063435Y012686D01*
X063456Y012730D01*
X063480Y012772D01*
X063508Y012811D01*
X063539Y012849D01*
X063573Y012883D01*
X063610Y012915D01*
X063649Y012944D01*
X063691Y012969D01*
X063734Y012991D01*
X063779Y013010D01*
X063825Y013024D01*
X063872Y013035D01*
X063920Y013042D01*
X063969Y013045D01*
X064017Y013044D01*
X064066Y013039D01*
X064113Y013030D01*
X064160Y013017D01*
X064206Y013001D01*
X064250Y012981D01*
X064292Y012957D01*
X064333Y012930D01*
X064371Y012900D01*
X064406Y012866D01*
X064439Y012830D01*
X064468Y012792D01*
X064494Y012751D01*
X064517Y012708D01*
X064536Y012664D01*
X064552Y012618D01*
X064564Y012571D01*
X064572Y012523D01*
X064576Y012474D01*
X064576Y012426D01*
X064572Y012377D01*
X064564Y012329D01*
X064552Y012282D01*
X064536Y012236D01*
X064517Y012192D01*
X064494Y012149D01*
X064468Y012108D01*
X064439Y012070D01*
X064406Y012034D01*
X064371Y012000D01*
X064333Y011970D01*
X064292Y011943D01*
X064250Y011919D01*
X064206Y011899D01*
X064160Y011883D01*
X064113Y011870D01*
X064066Y011861D01*
X064017Y011856D01*
X063969Y011855D01*
X063920Y011858D01*
X063872Y011865D01*
X063825Y011876D01*
X063779Y011890D01*
X063734Y011909D01*
X063691Y011931D01*
X063649Y011956D01*
X063610Y011985D01*
X063573Y012017D01*
X063539Y012051D01*
X063508Y012089D01*
X063480Y012128D01*
X063456Y012170D01*
X063435Y012214D01*
X063417Y012259D01*
X063404Y012306D01*
X063394Y012353D01*
X063388Y012402D01*
X063386Y012450D01*
X063381Y012450D02*
X063383Y012402D01*
X063389Y012354D01*
X063398Y012306D01*
X063412Y012260D01*
X063429Y012215D01*
X063450Y012171D01*
X063474Y012129D01*
X063501Y012090D01*
X063532Y012052D01*
X063565Y012017D01*
X063602Y011985D01*
X063640Y011956D01*
X063681Y011930D01*
X063724Y011908D01*
X063768Y011889D01*
X063814Y011874D01*
X063861Y011862D01*
X063909Y011854D01*
X063957Y011850D01*
X064005Y011850D01*
X064053Y011854D01*
X064101Y011862D01*
X064148Y011874D01*
X064194Y011889D01*
X064238Y011908D01*
X064281Y011930D01*
X064322Y011956D01*
X064360Y011985D01*
X064397Y012017D01*
X064430Y012052D01*
X064461Y012090D01*
X064488Y012129D01*
X064512Y012171D01*
X064533Y012215D01*
X064550Y012260D01*
X064564Y012306D01*
X064573Y012354D01*
X064579Y012402D01*
X064581Y012450D01*
X063386Y013850D02*
X063388Y013898D01*
X063394Y013947D01*
X063404Y013994D01*
X063417Y014041D01*
X063435Y014086D01*
X063456Y014130D01*
X063480Y014172D01*
X063508Y014211D01*
X063539Y014249D01*
X063573Y014283D01*
X063610Y014315D01*
X063649Y014344D01*
X063691Y014369D01*
X063734Y014391D01*
X063779Y014410D01*
X063825Y014424D01*
X063872Y014435D01*
X063920Y014442D01*
X063969Y014445D01*
X064017Y014444D01*
X064066Y014439D01*
X064113Y014430D01*
X064160Y014417D01*
X064206Y014401D01*
X064250Y014381D01*
X064292Y014357D01*
X064333Y014330D01*
X064371Y014300D01*
X064406Y014266D01*
X064439Y014230D01*
X064468Y014192D01*
X064494Y014151D01*
X064517Y014108D01*
X064536Y014064D01*
X064552Y014018D01*
X064564Y013971D01*
X064572Y013923D01*
X064576Y013874D01*
X064576Y013826D01*
X064572Y013777D01*
X064564Y013729D01*
X064552Y013682D01*
X064536Y013636D01*
X064517Y013592D01*
X064494Y013549D01*
X064468Y013508D01*
X064439Y013470D01*
X064406Y013434D01*
X064371Y013400D01*
X064333Y013370D01*
X064292Y013343D01*
X064250Y013319D01*
X064206Y013299D01*
X064160Y013283D01*
X064113Y013270D01*
X064066Y013261D01*
X064017Y013256D01*
X063969Y013255D01*
X063920Y013258D01*
X063872Y013265D01*
X063825Y013276D01*
X063779Y013290D01*
X063734Y013309D01*
X063691Y013331D01*
X063649Y013356D01*
X063610Y013385D01*
X063573Y013417D01*
X063539Y013451D01*
X063508Y013489D01*
X063480Y013528D01*
X063456Y013570D01*
X063435Y013614D01*
X063417Y013659D01*
X063404Y013706D01*
X063394Y013753D01*
X063388Y013802D01*
X063386Y013850D01*
X063381Y013850D02*
X063383Y013898D01*
X063389Y013946D01*
X063398Y013994D01*
X063412Y014040D01*
X063429Y014085D01*
X063450Y014129D01*
X063474Y014171D01*
X063501Y014210D01*
X063532Y014248D01*
X063565Y014283D01*
X063602Y014315D01*
X063640Y014344D01*
X063681Y014370D01*
X063724Y014392D01*
X063768Y014411D01*
X063814Y014426D01*
X063861Y014438D01*
X063909Y014446D01*
X063957Y014450D01*
X064005Y014450D01*
X064053Y014446D01*
X064101Y014438D01*
X064148Y014426D01*
X064194Y014411D01*
X064238Y014392D01*
X064281Y014370D01*
X064322Y014344D01*
X064360Y014315D01*
X064397Y014283D01*
X064430Y014248D01*
X064461Y014210D01*
X064488Y014171D01*
X064512Y014129D01*
X064533Y014085D01*
X064550Y014040D01*
X064564Y013994D01*
X064573Y013946D01*
X064579Y013898D01*
X064581Y013850D01*
X042586Y013850D02*
X042588Y013898D01*
X042594Y013947D01*
X042604Y013994D01*
X042617Y014041D01*
X042635Y014086D01*
X042656Y014130D01*
X042680Y014172D01*
X042708Y014211D01*
X042739Y014249D01*
X042773Y014283D01*
X042810Y014315D01*
X042849Y014344D01*
X042891Y014369D01*
X042934Y014391D01*
X042979Y014410D01*
X043025Y014424D01*
X043072Y014435D01*
X043120Y014442D01*
X043169Y014445D01*
X043217Y014444D01*
X043266Y014439D01*
X043313Y014430D01*
X043360Y014417D01*
X043406Y014401D01*
X043450Y014381D01*
X043492Y014357D01*
X043533Y014330D01*
X043571Y014300D01*
X043606Y014266D01*
X043639Y014230D01*
X043668Y014192D01*
X043694Y014151D01*
X043717Y014108D01*
X043736Y014064D01*
X043752Y014018D01*
X043764Y013971D01*
X043772Y013923D01*
X043776Y013874D01*
X043776Y013826D01*
X043772Y013777D01*
X043764Y013729D01*
X043752Y013682D01*
X043736Y013636D01*
X043717Y013592D01*
X043694Y013549D01*
X043668Y013508D01*
X043639Y013470D01*
X043606Y013434D01*
X043571Y013400D01*
X043533Y013370D01*
X043492Y013343D01*
X043450Y013319D01*
X043406Y013299D01*
X043360Y013283D01*
X043313Y013270D01*
X043266Y013261D01*
X043217Y013256D01*
X043169Y013255D01*
X043120Y013258D01*
X043072Y013265D01*
X043025Y013276D01*
X042979Y013290D01*
X042934Y013309D01*
X042891Y013331D01*
X042849Y013356D01*
X042810Y013385D01*
X042773Y013417D01*
X042739Y013451D01*
X042708Y013489D01*
X042680Y013528D01*
X042656Y013570D01*
X042635Y013614D01*
X042617Y013659D01*
X042604Y013706D01*
X042594Y013753D01*
X042588Y013802D01*
X042586Y013850D01*
X042581Y013850D02*
X042583Y013898D01*
X042589Y013946D01*
X042598Y013994D01*
X042612Y014040D01*
X042629Y014085D01*
X042650Y014129D01*
X042674Y014171D01*
X042701Y014210D01*
X042732Y014248D01*
X042765Y014283D01*
X042802Y014315D01*
X042840Y014344D01*
X042881Y014370D01*
X042924Y014392D01*
X042968Y014411D01*
X043014Y014426D01*
X043061Y014438D01*
X043109Y014446D01*
X043157Y014450D01*
X043205Y014450D01*
X043253Y014446D01*
X043301Y014438D01*
X043348Y014426D01*
X043394Y014411D01*
X043438Y014392D01*
X043481Y014370D01*
X043522Y014344D01*
X043560Y014315D01*
X043597Y014283D01*
X043630Y014248D01*
X043661Y014210D01*
X043688Y014171D01*
X043712Y014129D01*
X043733Y014085D01*
X043750Y014040D01*
X043764Y013994D01*
X043773Y013946D01*
X043779Y013898D01*
X043781Y013850D01*
X042586Y012450D02*
X042588Y012498D01*
X042594Y012547D01*
X042604Y012594D01*
X042617Y012641D01*
X042635Y012686D01*
X042656Y012730D01*
X042680Y012772D01*
X042708Y012811D01*
X042739Y012849D01*
X042773Y012883D01*
X042810Y012915D01*
X042849Y012944D01*
X042891Y012969D01*
X042934Y012991D01*
X042979Y013010D01*
X043025Y013024D01*
X043072Y013035D01*
X043120Y013042D01*
X043169Y013045D01*
X043217Y013044D01*
X043266Y013039D01*
X043313Y013030D01*
X043360Y013017D01*
X043406Y013001D01*
X043450Y012981D01*
X043492Y012957D01*
X043533Y012930D01*
X043571Y012900D01*
X043606Y012866D01*
X043639Y012830D01*
X043668Y012792D01*
X043694Y012751D01*
X043717Y012708D01*
X043736Y012664D01*
X043752Y012618D01*
X043764Y012571D01*
X043772Y012523D01*
X043776Y012474D01*
X043776Y012426D01*
X043772Y012377D01*
X043764Y012329D01*
X043752Y012282D01*
X043736Y012236D01*
X043717Y012192D01*
X043694Y012149D01*
X043668Y012108D01*
X043639Y012070D01*
X043606Y012034D01*
X043571Y012000D01*
X043533Y011970D01*
X043492Y011943D01*
X043450Y011919D01*
X043406Y011899D01*
X043360Y011883D01*
X043313Y011870D01*
X043266Y011861D01*
X043217Y011856D01*
X043169Y011855D01*
X043120Y011858D01*
X043072Y011865D01*
X043025Y011876D01*
X042979Y011890D01*
X042934Y011909D01*
X042891Y011931D01*
X042849Y011956D01*
X042810Y011985D01*
X042773Y012017D01*
X042739Y012051D01*
X042708Y012089D01*
X042680Y012128D01*
X042656Y012170D01*
X042635Y012214D01*
X042617Y012259D01*
X042604Y012306D01*
X042594Y012353D01*
X042588Y012402D01*
X042586Y012450D01*
X042581Y012450D02*
X042583Y012402D01*
X042589Y012354D01*
X042598Y012306D01*
X042612Y012260D01*
X042629Y012215D01*
X042650Y012171D01*
X042674Y012129D01*
X042701Y012090D01*
X042732Y012052D01*
X042765Y012017D01*
X042802Y011985D01*
X042840Y011956D01*
X042881Y011930D01*
X042924Y011908D01*
X042968Y011889D01*
X043014Y011874D01*
X043061Y011862D01*
X043109Y011854D01*
X043157Y011850D01*
X043205Y011850D01*
X043253Y011854D01*
X043301Y011862D01*
X043348Y011874D01*
X043394Y011889D01*
X043438Y011908D01*
X043481Y011930D01*
X043522Y011956D01*
X043560Y011985D01*
X043597Y012017D01*
X043630Y012052D01*
X043661Y012090D01*
X043688Y012129D01*
X043712Y012171D01*
X043733Y012215D01*
X043750Y012260D01*
X043764Y012306D01*
X043773Y012354D01*
X043779Y012402D01*
X043781Y012450D01*
X045847Y039625D02*
X045849Y039687D01*
X045855Y039750D01*
X045865Y039811D01*
X045879Y039872D01*
X045896Y039932D01*
X045917Y039991D01*
X045943Y040048D01*
X045971Y040103D01*
X046003Y040157D01*
X046039Y040208D01*
X046077Y040258D01*
X046119Y040304D01*
X046163Y040348D01*
X046211Y040389D01*
X046260Y040427D01*
X046312Y040461D01*
X046366Y040492D01*
X046422Y040520D01*
X046480Y040544D01*
X046539Y040565D01*
X046599Y040581D01*
X046660Y040594D01*
X046722Y040603D01*
X046784Y040608D01*
X046847Y040609D01*
X046909Y040606D01*
X046971Y040599D01*
X047033Y040588D01*
X047093Y040573D01*
X047153Y040555D01*
X047211Y040533D01*
X047268Y040507D01*
X047323Y040477D01*
X047376Y040444D01*
X047427Y040408D01*
X047475Y040369D01*
X047521Y040326D01*
X047564Y040281D01*
X047604Y040233D01*
X047641Y040183D01*
X047675Y040130D01*
X047706Y040076D01*
X047732Y040020D01*
X047756Y039962D01*
X047775Y039902D01*
X047791Y039842D01*
X047803Y039780D01*
X047811Y039719D01*
X047815Y039656D01*
X047815Y039594D01*
X047811Y039531D01*
X047803Y039470D01*
X047791Y039408D01*
X047775Y039348D01*
X047756Y039288D01*
X047732Y039230D01*
X047706Y039174D01*
X047675Y039120D01*
X047641Y039067D01*
X047604Y039017D01*
X047564Y038969D01*
X047521Y038924D01*
X047475Y038881D01*
X047427Y038842D01*
X047376Y038806D01*
X047323Y038773D01*
X047268Y038743D01*
X047211Y038717D01*
X047153Y038695D01*
X047093Y038677D01*
X047033Y038662D01*
X046971Y038651D01*
X046909Y038644D01*
X046847Y038641D01*
X046784Y038642D01*
X046722Y038647D01*
X046660Y038656D01*
X046599Y038669D01*
X046539Y038685D01*
X046480Y038706D01*
X046422Y038730D01*
X046366Y038758D01*
X046312Y038789D01*
X046260Y038823D01*
X046211Y038861D01*
X046163Y038902D01*
X046119Y038946D01*
X046077Y038992D01*
X046039Y039042D01*
X046003Y039093D01*
X045971Y039147D01*
X045943Y039202D01*
X045917Y039259D01*
X045896Y039318D01*
X045879Y039378D01*
X045865Y039439D01*
X045855Y039500D01*
X045849Y039563D01*
X045847Y039625D01*
X049347Y039625D02*
X049349Y039687D01*
X049355Y039750D01*
X049365Y039811D01*
X049379Y039872D01*
X049396Y039932D01*
X049417Y039991D01*
X049443Y040048D01*
X049471Y040103D01*
X049503Y040157D01*
X049539Y040208D01*
X049577Y040258D01*
X049619Y040304D01*
X049663Y040348D01*
X049711Y040389D01*
X049760Y040427D01*
X049812Y040461D01*
X049866Y040492D01*
X049922Y040520D01*
X049980Y040544D01*
X050039Y040565D01*
X050099Y040581D01*
X050160Y040594D01*
X050222Y040603D01*
X050284Y040608D01*
X050347Y040609D01*
X050409Y040606D01*
X050471Y040599D01*
X050533Y040588D01*
X050593Y040573D01*
X050653Y040555D01*
X050711Y040533D01*
X050768Y040507D01*
X050823Y040477D01*
X050876Y040444D01*
X050927Y040408D01*
X050975Y040369D01*
X051021Y040326D01*
X051064Y040281D01*
X051104Y040233D01*
X051141Y040183D01*
X051175Y040130D01*
X051206Y040076D01*
X051232Y040020D01*
X051256Y039962D01*
X051275Y039902D01*
X051291Y039842D01*
X051303Y039780D01*
X051311Y039719D01*
X051315Y039656D01*
X051315Y039594D01*
X051311Y039531D01*
X051303Y039470D01*
X051291Y039408D01*
X051275Y039348D01*
X051256Y039288D01*
X051232Y039230D01*
X051206Y039174D01*
X051175Y039120D01*
X051141Y039067D01*
X051104Y039017D01*
X051064Y038969D01*
X051021Y038924D01*
X050975Y038881D01*
X050927Y038842D01*
X050876Y038806D01*
X050823Y038773D01*
X050768Y038743D01*
X050711Y038717D01*
X050653Y038695D01*
X050593Y038677D01*
X050533Y038662D01*
X050471Y038651D01*
X050409Y038644D01*
X050347Y038641D01*
X050284Y038642D01*
X050222Y038647D01*
X050160Y038656D01*
X050099Y038669D01*
X050039Y038685D01*
X049980Y038706D01*
X049922Y038730D01*
X049866Y038758D01*
X049812Y038789D01*
X049760Y038823D01*
X049711Y038861D01*
X049663Y038902D01*
X049619Y038946D01*
X049577Y038992D01*
X049539Y039042D01*
X049503Y039093D01*
X049471Y039147D01*
X049443Y039202D01*
X049417Y039259D01*
X049396Y039318D01*
X049379Y039378D01*
X049365Y039439D01*
X049355Y039500D01*
X049349Y039563D01*
X049347Y039625D01*
X049347Y043125D02*
X049349Y043187D01*
X049355Y043250D01*
X049365Y043311D01*
X049379Y043372D01*
X049396Y043432D01*
X049417Y043491D01*
X049443Y043548D01*
X049471Y043603D01*
X049503Y043657D01*
X049539Y043708D01*
X049577Y043758D01*
X049619Y043804D01*
X049663Y043848D01*
X049711Y043889D01*
X049760Y043927D01*
X049812Y043961D01*
X049866Y043992D01*
X049922Y044020D01*
X049980Y044044D01*
X050039Y044065D01*
X050099Y044081D01*
X050160Y044094D01*
X050222Y044103D01*
X050284Y044108D01*
X050347Y044109D01*
X050409Y044106D01*
X050471Y044099D01*
X050533Y044088D01*
X050593Y044073D01*
X050653Y044055D01*
X050711Y044033D01*
X050768Y044007D01*
X050823Y043977D01*
X050876Y043944D01*
X050927Y043908D01*
X050975Y043869D01*
X051021Y043826D01*
X051064Y043781D01*
X051104Y043733D01*
X051141Y043683D01*
X051175Y043630D01*
X051206Y043576D01*
X051232Y043520D01*
X051256Y043462D01*
X051275Y043402D01*
X051291Y043342D01*
X051303Y043280D01*
X051311Y043219D01*
X051315Y043156D01*
X051315Y043094D01*
X051311Y043031D01*
X051303Y042970D01*
X051291Y042908D01*
X051275Y042848D01*
X051256Y042788D01*
X051232Y042730D01*
X051206Y042674D01*
X051175Y042620D01*
X051141Y042567D01*
X051104Y042517D01*
X051064Y042469D01*
X051021Y042424D01*
X050975Y042381D01*
X050927Y042342D01*
X050876Y042306D01*
X050823Y042273D01*
X050768Y042243D01*
X050711Y042217D01*
X050653Y042195D01*
X050593Y042177D01*
X050533Y042162D01*
X050471Y042151D01*
X050409Y042144D01*
X050347Y042141D01*
X050284Y042142D01*
X050222Y042147D01*
X050160Y042156D01*
X050099Y042169D01*
X050039Y042185D01*
X049980Y042206D01*
X049922Y042230D01*
X049866Y042258D01*
X049812Y042289D01*
X049760Y042323D01*
X049711Y042361D01*
X049663Y042402D01*
X049619Y042446D01*
X049577Y042492D01*
X049539Y042542D01*
X049503Y042593D01*
X049471Y042647D01*
X049443Y042702D01*
X049417Y042759D01*
X049396Y042818D01*
X049379Y042878D01*
X049365Y042939D01*
X049355Y043000D01*
X049349Y043063D01*
X049347Y043125D01*
X045847Y043125D02*
X045849Y043187D01*
X045855Y043250D01*
X045865Y043311D01*
X045879Y043372D01*
X045896Y043432D01*
X045917Y043491D01*
X045943Y043548D01*
X045971Y043603D01*
X046003Y043657D01*
X046039Y043708D01*
X046077Y043758D01*
X046119Y043804D01*
X046163Y043848D01*
X046211Y043889D01*
X046260Y043927D01*
X046312Y043961D01*
X046366Y043992D01*
X046422Y044020D01*
X046480Y044044D01*
X046539Y044065D01*
X046599Y044081D01*
X046660Y044094D01*
X046722Y044103D01*
X046784Y044108D01*
X046847Y044109D01*
X046909Y044106D01*
X046971Y044099D01*
X047033Y044088D01*
X047093Y044073D01*
X047153Y044055D01*
X047211Y044033D01*
X047268Y044007D01*
X047323Y043977D01*
X047376Y043944D01*
X047427Y043908D01*
X047475Y043869D01*
X047521Y043826D01*
X047564Y043781D01*
X047604Y043733D01*
X047641Y043683D01*
X047675Y043630D01*
X047706Y043576D01*
X047732Y043520D01*
X047756Y043462D01*
X047775Y043402D01*
X047791Y043342D01*
X047803Y043280D01*
X047811Y043219D01*
X047815Y043156D01*
X047815Y043094D01*
X047811Y043031D01*
X047803Y042970D01*
X047791Y042908D01*
X047775Y042848D01*
X047756Y042788D01*
X047732Y042730D01*
X047706Y042674D01*
X047675Y042620D01*
X047641Y042567D01*
X047604Y042517D01*
X047564Y042469D01*
X047521Y042424D01*
X047475Y042381D01*
X047427Y042342D01*
X047376Y042306D01*
X047323Y042273D01*
X047268Y042243D01*
X047211Y042217D01*
X047153Y042195D01*
X047093Y042177D01*
X047033Y042162D01*
X046971Y042151D01*
X046909Y042144D01*
X046847Y042141D01*
X046784Y042142D01*
X046722Y042147D01*
X046660Y042156D01*
X046599Y042169D01*
X046539Y042185D01*
X046480Y042206D01*
X046422Y042230D01*
X046366Y042258D01*
X046312Y042289D01*
X046260Y042323D01*
X046211Y042361D01*
X046163Y042402D01*
X046119Y042446D01*
X046077Y042492D01*
X046039Y042542D01*
X046003Y042593D01*
X045971Y042647D01*
X045943Y042702D01*
X045917Y042759D01*
X045896Y042818D01*
X045879Y042878D01*
X045865Y042939D01*
X045855Y043000D01*
X045849Y043063D01*
X045847Y043125D01*
X097991Y047150D02*
X097993Y047185D01*
X097999Y047220D01*
X098009Y047254D01*
X098022Y047287D01*
X098039Y047318D01*
X098060Y047346D01*
X098083Y047373D01*
X098110Y047396D01*
X098138Y047417D01*
X098169Y047434D01*
X098202Y047447D01*
X098236Y047457D01*
X098271Y047463D01*
X098306Y047465D01*
X098341Y047463D01*
X098376Y047457D01*
X098410Y047447D01*
X098443Y047434D01*
X098474Y047417D01*
X098502Y047396D01*
X098529Y047373D01*
X098552Y047346D01*
X098573Y047318D01*
X098590Y047287D01*
X098603Y047254D01*
X098613Y047220D01*
X098619Y047185D01*
X098621Y047150D01*
X098619Y047115D01*
X098613Y047080D01*
X098603Y047046D01*
X098590Y047013D01*
X098573Y046982D01*
X098552Y046954D01*
X098529Y046927D01*
X098502Y046904D01*
X098474Y046883D01*
X098443Y046866D01*
X098410Y046853D01*
X098376Y046843D01*
X098341Y046837D01*
X098306Y046835D01*
X098271Y046837D01*
X098236Y046843D01*
X098202Y046853D01*
X098169Y046866D01*
X098138Y046883D01*
X098110Y046904D01*
X098083Y046927D01*
X098060Y046954D01*
X098039Y046982D01*
X098022Y047013D01*
X098009Y047046D01*
X097999Y047080D01*
X097993Y047115D01*
X097991Y047150D01*
X106389Y047150D02*
X106391Y047179D01*
X106397Y047207D01*
X106406Y047235D01*
X106419Y047261D01*
X106436Y047284D01*
X106455Y047306D01*
X106477Y047325D01*
X106502Y047340D01*
X106528Y047353D01*
X106556Y047361D01*
X106584Y047366D01*
X106613Y047367D01*
X106642Y047364D01*
X106670Y047357D01*
X106697Y047347D01*
X106723Y047333D01*
X106746Y047316D01*
X106767Y047296D01*
X106785Y047273D01*
X106800Y047248D01*
X106811Y047221D01*
X106819Y047193D01*
X106823Y047164D01*
X106823Y047136D01*
X106819Y047107D01*
X106811Y047079D01*
X106800Y047052D01*
X106785Y047027D01*
X106767Y047004D01*
X106746Y046984D01*
X106723Y046967D01*
X106697Y046953D01*
X106670Y046943D01*
X106642Y046936D01*
X106613Y046933D01*
X106584Y046934D01*
X106556Y046939D01*
X106528Y046947D01*
X106502Y046960D01*
X106477Y046975D01*
X106455Y046994D01*
X106436Y047016D01*
X106419Y047039D01*
X106406Y047065D01*
X106397Y047093D01*
X106391Y047121D01*
X106389Y047150D01*
D14*
X064581Y013850D02*
X064581Y012450D01*
X063381Y012450D02*
X063381Y013850D01*
X043781Y013850D02*
X043781Y012450D01*
X042581Y012450D02*
X042581Y013850D01*
D15*
X097406Y052650D02*
X106706Y052650D01*
M02*
