G75*
G70*
%OFA0B0*%
%FSLAX24Y24*%
%IPPOS*%
%LPD*%
%AMOC8*
5,1,8,0,0,1.08239X$1,22.5*
%
%ADD10C,0.0780*%
%ADD11C,0.2049*%
%ADD12C,0.0715*%
%ADD13C,0.0710*%
%ADD14C,0.0940*%
%ADD15R,0.0592X0.0671*%
%ADD16R,0.0867X0.0710*%
%ADD17R,0.0671X0.0592*%
%ADD18R,0.0790X0.0710*%
%ADD19R,0.0710X0.0790*%
%ADD20OC8,0.0940*%
%ADD21C,0.0749*%
%ADD22C,0.1346*%
%ADD23C,0.0907*%
%ADD24R,0.0710X0.0867*%
%ADD25R,0.0710X0.0789*%
%ADD26R,0.0710X0.0592*%
%ADD27C,0.0915*%
%ADD28C,0.1270*%
%ADD29C,0.0710*%
%ADD30C,0.0513*%
%ADD31R,0.0789X0.0710*%
%ADD32C,0.0795*%
%ADD33C,0.0867*%
%ADD34R,0.0867X0.0671*%
%ADD35R,0.0867X0.1576*%
%ADD36C,0.1261*%
D10*
X050268Y034376D03*
X051268Y034376D03*
X051268Y033376D03*
X052268Y033376D03*
X052268Y034376D03*
X053268Y034376D03*
X053268Y033376D03*
X054268Y033376D03*
X054268Y034376D03*
X055268Y034376D03*
X055268Y033376D03*
X056268Y033376D03*
X056268Y034376D03*
X057268Y034376D03*
X057268Y033376D03*
X058268Y033376D03*
X058268Y034376D03*
X059268Y034376D03*
X059268Y033376D03*
X060268Y033376D03*
X060268Y034376D03*
X061268Y034376D03*
X061268Y033376D03*
X062268Y034376D03*
X062268Y035376D03*
X061268Y035376D03*
X061268Y036376D03*
X061268Y037376D03*
X062268Y037376D03*
X062268Y036376D03*
X062268Y038376D03*
X061268Y038376D03*
X061268Y039376D03*
X062268Y039376D03*
X062268Y040376D03*
X061268Y040376D03*
X061268Y041376D03*
X062268Y041376D03*
X062268Y042376D03*
X061268Y042376D03*
X061268Y043376D03*
X062268Y043376D03*
X062268Y044376D03*
X061268Y044376D03*
X060268Y044376D03*
X060268Y045376D03*
X061268Y045376D03*
X059268Y045376D03*
X058268Y045376D03*
X057268Y045376D03*
X056268Y045376D03*
X055268Y045376D03*
X054268Y045376D03*
X053268Y045376D03*
X052268Y045376D03*
X051268Y045376D03*
X051268Y044376D03*
X050268Y044376D03*
X050268Y043376D03*
X050268Y042376D03*
X051268Y042376D03*
X051268Y043376D03*
X052268Y044376D03*
X053268Y044376D03*
X054268Y044376D03*
X055268Y044376D03*
X056268Y044376D03*
X057268Y044376D03*
X058268Y044376D03*
X059268Y044376D03*
X051268Y041376D03*
X050268Y041376D03*
X050268Y040376D03*
X051268Y040376D03*
X051268Y039376D03*
X050268Y039376D03*
X050268Y038376D03*
X051268Y038376D03*
X051268Y037376D03*
X050268Y037376D03*
X050268Y036376D03*
X050268Y035376D03*
X051268Y035376D03*
X051268Y036376D03*
D11*
X054518Y037626D03*
X058018Y037626D03*
X058018Y041126D03*
X054518Y041126D03*
X056643Y049876D03*
X077018Y048626D03*
X036143Y031626D03*
X016893Y016626D03*
X051518Y014626D03*
X085518Y013126D03*
X017518Y048626D03*
D12*
X021076Y048876D02*
X021711Y048876D01*
X021711Y047876D02*
X021076Y047876D01*
X021076Y046876D02*
X021711Y046876D01*
X021711Y045876D02*
X021076Y045876D01*
X021076Y044876D02*
X021711Y044876D01*
X021711Y043876D02*
X021076Y043876D01*
X021076Y042876D02*
X021711Y042876D01*
X021711Y041876D02*
X021076Y041876D01*
X021076Y040876D02*
X021711Y040876D01*
X021711Y039876D02*
X021076Y039876D01*
X021076Y038876D02*
X021711Y038876D01*
X021711Y037876D02*
X021076Y037876D01*
X021076Y036876D02*
X021711Y036876D01*
X021711Y035876D02*
X021076Y035876D01*
X021076Y034876D02*
X021711Y034876D01*
X022147Y032382D02*
X022147Y031747D01*
X021147Y031747D02*
X021147Y032382D01*
X020147Y032382D02*
X020147Y031747D01*
X020147Y029382D02*
X020147Y028747D01*
X021147Y028747D02*
X021147Y029382D01*
X022147Y029382D02*
X022147Y028747D01*
X023147Y028747D02*
X023147Y029382D01*
X024147Y029382D02*
X024147Y028747D01*
X025147Y028747D02*
X025147Y029382D01*
X026147Y029382D02*
X026147Y028747D01*
X027147Y028747D02*
X027147Y029382D01*
X028147Y029382D02*
X028147Y028747D01*
X029147Y028747D02*
X029147Y029382D01*
X030951Y027751D02*
X031586Y027751D01*
X031586Y026751D02*
X030951Y026751D01*
X030951Y025751D02*
X031586Y025751D01*
X031586Y024751D02*
X030951Y024751D01*
X030951Y023751D02*
X031586Y023751D01*
X031586Y022751D02*
X030951Y022751D01*
X030951Y021751D02*
X031586Y021751D01*
X031586Y020751D02*
X030951Y020751D01*
X030951Y019751D02*
X031586Y019751D01*
X031586Y018751D02*
X030951Y018751D01*
X030951Y017751D02*
X031586Y017751D01*
X031586Y016751D02*
X030951Y016751D01*
X030951Y015751D02*
X031586Y015751D01*
X031586Y014751D02*
X030951Y014751D01*
X030951Y013751D02*
X031586Y013751D01*
X031586Y012751D02*
X030951Y012751D01*
X030951Y011751D02*
X031586Y011751D01*
X031586Y010751D02*
X030951Y010751D01*
X030951Y009751D02*
X031586Y009751D01*
X031586Y008751D02*
X030951Y008751D01*
X027711Y008751D02*
X027076Y008751D01*
X027076Y009751D02*
X027711Y009751D01*
X027711Y010751D02*
X027076Y010751D01*
X027076Y011751D02*
X027711Y011751D01*
X027711Y012751D02*
X027076Y012751D01*
X027076Y013751D02*
X027711Y013751D01*
X027711Y014751D02*
X027076Y014751D01*
X027076Y015751D02*
X027711Y015751D01*
X027711Y016751D02*
X027076Y016751D01*
X027076Y017751D02*
X027711Y017751D01*
X027711Y018751D02*
X027076Y018751D01*
X027076Y019751D02*
X027711Y019751D01*
X027711Y020751D02*
X027076Y020751D01*
X027076Y021751D02*
X027711Y021751D01*
X027711Y022751D02*
X027076Y022751D01*
X027076Y023751D02*
X027711Y023751D01*
X021711Y023751D02*
X021076Y023751D01*
X021076Y022751D02*
X021711Y022751D01*
X021711Y021751D02*
X021076Y021751D01*
X021076Y020751D02*
X021711Y020751D01*
X021711Y019751D02*
X021076Y019751D01*
X021076Y018751D02*
X021711Y018751D01*
X021711Y017751D02*
X021076Y017751D01*
X021076Y016751D02*
X021711Y016751D01*
X021711Y015751D02*
X021076Y015751D01*
X021076Y014751D02*
X021711Y014751D01*
X021711Y013751D02*
X021076Y013751D01*
X021076Y012751D02*
X021711Y012751D01*
X021711Y011751D02*
X021076Y011751D01*
X021076Y010751D02*
X021711Y010751D01*
X021711Y009751D02*
X021076Y009751D01*
X021076Y008751D02*
X021711Y008751D01*
X036951Y008751D02*
X037586Y008751D01*
X037586Y009751D02*
X036951Y009751D01*
X036951Y010751D02*
X037586Y010751D01*
X037586Y011751D02*
X036951Y011751D01*
X036951Y012751D02*
X037586Y012751D01*
X037586Y013751D02*
X036951Y013751D01*
X036951Y014751D02*
X037586Y014751D01*
X037586Y015751D02*
X036951Y015751D01*
X036951Y016751D02*
X037586Y016751D01*
X037586Y017751D02*
X036951Y017751D01*
X036951Y018751D02*
X037586Y018751D01*
X037586Y019751D02*
X036951Y019751D01*
X036951Y020751D02*
X037586Y020751D01*
X037586Y021751D02*
X036951Y021751D01*
X036951Y022751D02*
X037586Y022751D01*
X037586Y023751D02*
X036951Y023751D01*
X036951Y024751D02*
X037586Y024751D01*
X037586Y025751D02*
X036951Y025751D01*
X036951Y026751D02*
X037586Y026751D01*
X037586Y027751D02*
X036951Y027751D01*
X041326Y027751D02*
X041961Y027751D01*
X041961Y026751D02*
X041326Y026751D01*
X041326Y025751D02*
X041961Y025751D01*
X041961Y024751D02*
X041326Y024751D01*
X041326Y023751D02*
X041961Y023751D01*
X041961Y022751D02*
X041326Y022751D01*
X041326Y021751D02*
X041961Y021751D01*
X041961Y020751D02*
X041326Y020751D01*
X041326Y019751D02*
X041961Y019751D01*
X041961Y018751D02*
X041326Y018751D01*
X041326Y017751D02*
X041961Y017751D01*
X041961Y016751D02*
X041326Y016751D01*
X041326Y015751D02*
X041961Y015751D01*
X041961Y014751D02*
X041326Y014751D01*
X041326Y013751D02*
X041961Y013751D01*
X041961Y012751D02*
X041326Y012751D01*
X041326Y011751D02*
X041961Y011751D01*
X041961Y010751D02*
X041326Y010751D01*
X041326Y009751D02*
X041961Y009751D01*
X041961Y008751D02*
X041326Y008751D01*
X047326Y008751D02*
X047961Y008751D01*
X047961Y009751D02*
X047326Y009751D01*
X047326Y010751D02*
X047961Y010751D01*
X047961Y011751D02*
X047326Y011751D01*
X047326Y012751D02*
X047961Y012751D01*
X047961Y013751D02*
X047326Y013751D01*
X047326Y014751D02*
X047961Y014751D01*
X047961Y015751D02*
X047326Y015751D01*
X047326Y016751D02*
X047961Y016751D01*
X047961Y017751D02*
X047326Y017751D01*
X047326Y018751D02*
X047961Y018751D01*
X047961Y019751D02*
X047326Y019751D01*
X047326Y020751D02*
X047961Y020751D01*
X047961Y021751D02*
X047326Y021751D01*
X047326Y022751D02*
X047961Y022751D01*
X047961Y023751D02*
X047326Y023751D01*
X047326Y024751D02*
X047961Y024751D01*
X047961Y025751D02*
X047326Y025751D01*
X047326Y026751D02*
X047961Y026751D01*
X047961Y027751D02*
X047326Y027751D01*
X051393Y023568D02*
X051393Y022933D01*
X052393Y022933D02*
X052393Y023568D01*
X053393Y023568D02*
X053393Y022933D01*
X054393Y022933D02*
X054393Y023568D01*
X055393Y023568D02*
X055393Y022933D01*
X056393Y022933D02*
X056393Y023568D01*
X057393Y023568D02*
X057393Y022933D01*
X058393Y022933D02*
X058393Y023568D01*
X059393Y023568D02*
X059393Y022933D01*
X060393Y022933D02*
X060393Y023568D01*
X061393Y023568D02*
X061393Y022933D01*
X062393Y022933D02*
X062393Y023568D01*
X063393Y023568D02*
X063393Y022933D01*
X064393Y022933D02*
X064393Y023568D01*
X065393Y023568D02*
X065393Y022933D01*
X066393Y022933D02*
X066393Y023568D01*
X067393Y023568D02*
X067393Y022933D01*
X068393Y022933D02*
X068393Y023568D01*
X069393Y023568D02*
X069393Y022933D01*
X070393Y022933D02*
X070393Y023568D01*
X073951Y024001D02*
X074586Y024001D01*
X074586Y023001D02*
X073951Y023001D01*
X073951Y022001D02*
X074586Y022001D01*
X074586Y021001D02*
X073951Y021001D01*
X073951Y020001D02*
X074586Y020001D01*
X074586Y019001D02*
X073951Y019001D01*
X073951Y018001D02*
X074586Y018001D01*
X074586Y017001D02*
X073951Y017001D01*
X073951Y016001D02*
X074586Y016001D01*
X077951Y016001D02*
X078586Y016001D01*
X078586Y017001D02*
X077951Y017001D01*
X077951Y018001D02*
X078586Y018001D01*
X078586Y019001D02*
X077951Y019001D01*
X077951Y020001D02*
X078586Y020001D01*
X078586Y021001D02*
X077951Y021001D01*
X077951Y022001D02*
X078586Y022001D01*
X078586Y023001D02*
X077951Y023001D01*
X077951Y024001D02*
X078586Y024001D01*
X078586Y025001D02*
X077951Y025001D01*
X077951Y026001D02*
X078586Y026001D01*
X078586Y027001D02*
X077951Y027001D01*
X077893Y028433D02*
X077893Y029068D01*
X076893Y029068D02*
X076893Y028433D01*
X075893Y028433D02*
X075893Y029068D01*
X074893Y029068D02*
X074893Y028433D01*
X073893Y028433D02*
X073893Y029068D01*
X072893Y029068D02*
X072893Y028433D01*
X071893Y028433D02*
X071893Y029068D01*
X073951Y027001D02*
X074586Y027001D01*
X074586Y026001D02*
X073951Y026001D01*
X073951Y025001D02*
X074586Y025001D01*
X074893Y031433D02*
X074893Y032068D01*
X073893Y032068D02*
X073893Y031433D01*
X072893Y031433D02*
X072893Y032068D01*
X071893Y032068D02*
X071893Y031433D01*
X075893Y031433D02*
X075893Y032068D01*
X076893Y032068D02*
X076893Y031433D01*
X077893Y031433D02*
X077893Y032068D01*
X066836Y035251D02*
X066201Y035251D01*
X066201Y036251D02*
X066836Y036251D01*
X066836Y037251D02*
X066201Y037251D01*
X047336Y036876D02*
X046701Y036876D01*
X046701Y037876D02*
X047336Y037876D01*
X047336Y038876D02*
X046701Y038876D01*
X046701Y039876D02*
X047336Y039876D01*
X047336Y040876D02*
X046701Y040876D01*
X046701Y041876D02*
X047336Y041876D01*
X047336Y042876D02*
X046701Y042876D01*
X046701Y043876D02*
X047336Y043876D01*
X047336Y044876D02*
X046701Y044876D01*
X046701Y045876D02*
X047336Y045876D01*
X047336Y046876D02*
X046701Y046876D01*
X046701Y047876D02*
X047336Y047876D01*
X047336Y048876D02*
X046701Y048876D01*
X041336Y048876D02*
X040701Y048876D01*
X040701Y047876D02*
X041336Y047876D01*
X041336Y046876D02*
X040701Y046876D01*
X040701Y045876D02*
X041336Y045876D01*
X041336Y044876D02*
X040701Y044876D01*
X040701Y043876D02*
X041336Y043876D01*
X041336Y042876D02*
X040701Y042876D01*
X040701Y041876D02*
X041336Y041876D01*
X041336Y040876D02*
X040701Y040876D01*
X039582Y040872D02*
X038947Y040872D01*
X038947Y041872D02*
X039582Y041872D01*
X039582Y042872D02*
X038947Y042872D01*
X038947Y043872D02*
X039582Y043872D01*
X039582Y044872D02*
X038947Y044872D01*
X038947Y045872D02*
X039582Y045872D01*
X039582Y046872D02*
X038947Y046872D01*
X038947Y047872D02*
X039582Y047872D01*
X039582Y048872D02*
X038947Y048872D01*
X038947Y049872D02*
X039582Y049872D01*
X036582Y049872D02*
X035947Y049872D01*
X035947Y048872D02*
X036582Y048872D01*
X036582Y047872D02*
X035947Y047872D01*
X035947Y046872D02*
X036582Y046872D01*
X036582Y045872D02*
X035947Y045872D01*
X035947Y044872D02*
X036582Y044872D01*
X036582Y043872D02*
X035947Y043872D01*
X035947Y042872D02*
X036582Y042872D01*
X036582Y041872D02*
X035947Y041872D01*
X035947Y040872D02*
X036582Y040872D01*
X033883Y040871D02*
X033248Y040871D01*
X033248Y041871D02*
X033883Y041871D01*
X033883Y042871D02*
X033248Y042871D01*
X033248Y043871D02*
X033883Y043871D01*
X033883Y044871D02*
X033248Y044871D01*
X033248Y045871D02*
X033883Y045871D01*
X033883Y046871D02*
X033248Y046871D01*
X033248Y047871D02*
X033883Y047871D01*
X033883Y048871D02*
X033248Y048871D01*
X033248Y049871D02*
X033883Y049871D01*
X030883Y049871D02*
X030248Y049871D01*
X030248Y048871D02*
X030883Y048871D01*
X030883Y047871D02*
X030248Y047871D01*
X030248Y046871D02*
X030883Y046871D01*
X030883Y045871D02*
X030248Y045871D01*
X030248Y044871D02*
X030883Y044871D01*
X030883Y043871D02*
X030248Y043871D01*
X030248Y042871D02*
X030883Y042871D01*
X030883Y041871D02*
X030248Y041871D01*
X030248Y040871D02*
X030883Y040871D01*
X027711Y040876D02*
X027076Y040876D01*
X027076Y041876D02*
X027711Y041876D01*
X027711Y042876D02*
X027076Y042876D01*
X027076Y043876D02*
X027711Y043876D01*
X027711Y044876D02*
X027076Y044876D01*
X027076Y045876D02*
X027711Y045876D01*
X027711Y046876D02*
X027076Y046876D01*
X027076Y047876D02*
X027711Y047876D01*
X027711Y048876D02*
X027076Y048876D01*
X027076Y049876D02*
X027711Y049876D01*
X021711Y049876D02*
X021076Y049876D01*
X027076Y039876D02*
X027711Y039876D01*
X027711Y038876D02*
X027076Y038876D01*
X027076Y037876D02*
X027711Y037876D01*
X027711Y036876D02*
X027076Y036876D01*
X027076Y035876D02*
X027711Y035876D01*
X027711Y034876D02*
X027076Y034876D01*
X027147Y032382D02*
X027147Y031747D01*
X026147Y031747D02*
X026147Y032382D01*
X025147Y032382D02*
X025147Y031747D01*
X024147Y031747D02*
X024147Y032382D01*
X023147Y032382D02*
X023147Y031747D01*
X028147Y031747D02*
X028147Y032382D01*
X029147Y032382D02*
X029147Y031747D01*
X040701Y035876D02*
X041336Y035876D01*
X041336Y036876D02*
X040701Y036876D01*
X040701Y037876D02*
X041336Y037876D01*
X041336Y038876D02*
X040701Y038876D01*
X040701Y039876D02*
X041336Y039876D01*
X046701Y035876D02*
X047336Y035876D01*
X051393Y017568D02*
X051393Y016933D01*
X052393Y016933D02*
X052393Y017568D01*
X053393Y017568D02*
X053393Y016933D01*
X054393Y016933D02*
X054393Y017568D01*
X055393Y017568D02*
X055393Y016933D01*
X056393Y016933D02*
X056393Y017568D01*
X057393Y017568D02*
X057393Y016933D01*
X058393Y016933D02*
X058393Y017568D01*
X059393Y017568D02*
X059393Y016933D01*
X060393Y016933D02*
X060393Y017568D01*
X061393Y017568D02*
X061393Y016933D01*
X062393Y016933D02*
X062393Y017568D01*
X063393Y017568D02*
X063393Y016933D01*
X064393Y016933D02*
X064393Y017568D01*
X065393Y017568D02*
X065393Y016933D01*
X066393Y016933D02*
X066393Y017568D01*
X067393Y017568D02*
X067393Y016933D01*
X068393Y016933D02*
X068393Y017568D01*
X069393Y017568D02*
X069393Y016933D01*
X070393Y016933D02*
X070393Y017568D01*
D13*
X044333Y035876D02*
X043704Y035876D01*
X043704Y036876D02*
X044333Y036876D01*
X044333Y037876D02*
X043704Y037876D01*
X043704Y038876D02*
X044333Y038876D01*
X044333Y039876D02*
X043704Y039876D01*
X043704Y040876D02*
X044333Y040876D01*
X044333Y041876D02*
X043704Y041876D01*
X043704Y042876D02*
X044333Y042876D01*
X044333Y043876D02*
X043704Y043876D01*
X043704Y044876D02*
X044333Y044876D01*
X044333Y045876D02*
X043704Y045876D01*
X043704Y046876D02*
X044333Y046876D01*
X044333Y047876D02*
X043704Y047876D01*
X043704Y048876D02*
X044333Y048876D01*
D14*
X047643Y050001D03*
X055831Y043501D03*
X056268Y040313D03*
X052893Y040251D03*
X058768Y031876D03*
X060143Y031876D03*
X061893Y031501D03*
X062393Y030626D03*
X062268Y029126D03*
X061268Y029251D03*
X060268Y029501D03*
X057393Y030751D03*
X056268Y030751D03*
X055143Y030751D03*
X053268Y028001D03*
X052143Y028001D03*
X051268Y030251D03*
X045643Y028501D03*
X043018Y028626D03*
X041768Y028751D03*
X039768Y027376D03*
X039143Y029001D03*
X041268Y031251D03*
X044268Y032251D03*
X038268Y033751D03*
X036268Y035001D03*
X034643Y032376D03*
X031643Y029001D03*
X034143Y027876D03*
X033393Y027001D03*
X035081Y023751D03*
X038643Y023876D03*
X038643Y020251D03*
X035081Y019751D03*
X033393Y016126D03*
X034768Y014876D03*
X033518Y014251D03*
X032768Y013626D03*
X035643Y013001D03*
X033518Y010876D03*
X039393Y009876D03*
X039893Y011251D03*
X039268Y016126D03*
X045018Y017251D03*
X044643Y020251D03*
X045143Y021126D03*
X056893Y015501D03*
X060893Y014876D03*
X063893Y014876D03*
X066893Y014876D03*
X069518Y015501D03*
X064018Y024876D03*
X065143Y025126D03*
X067518Y026001D03*
X069518Y025551D03*
X069518Y027451D03*
X072268Y025626D03*
X063268Y031876D03*
X067768Y035626D03*
X068643Y036376D03*
X069268Y037251D03*
X069893Y036376D03*
X071018Y037251D03*
X072143Y037251D03*
X073956Y037188D03*
X071143Y035376D03*
X069018Y033876D03*
X064018Y036251D03*
X065268Y039751D03*
X064018Y040251D03*
X064268Y041751D03*
X064268Y045751D03*
X077268Y044376D03*
X078143Y044751D03*
X077643Y042251D03*
X077643Y035701D03*
X077643Y033801D03*
X055893Y012376D03*
X025143Y013751D03*
X024768Y010751D03*
X020268Y017251D03*
X019518Y018876D03*
X016518Y021251D03*
X016768Y023626D03*
X018893Y025376D03*
X019768Y023876D03*
X016393Y013001D03*
X019143Y036501D03*
X033143Y037876D03*
X024393Y048251D03*
D15*
X059207Y046501D03*
X059955Y046501D03*
X062207Y045813D03*
X062955Y045813D03*
X063394Y044501D03*
X064142Y044501D03*
X064142Y043626D03*
X063394Y043626D03*
X063394Y042751D03*
X064142Y042751D03*
X069394Y039001D03*
X070142Y039001D03*
X070269Y040626D03*
X071017Y040626D03*
X072144Y038876D03*
X072892Y038876D03*
X069267Y034626D03*
X068519Y034626D03*
X074019Y030001D03*
X074767Y030001D03*
X076019Y030001D03*
X076767Y030001D03*
X077019Y032876D03*
X077767Y032876D03*
X075767Y032876D03*
X075019Y032876D03*
X076394Y024001D03*
X077142Y024001D03*
X070392Y014501D03*
X069644Y014501D03*
X058142Y018501D03*
X057394Y018501D03*
X056392Y019251D03*
X055644Y019251D03*
X034142Y019751D03*
X033394Y019751D03*
X018392Y013876D03*
X017644Y013876D03*
X017394Y011626D03*
X018142Y011626D03*
D16*
X038393Y021199D03*
X038393Y022302D03*
X039768Y019802D03*
X039768Y018699D03*
D17*
X046518Y018000D03*
X046518Y017252D03*
X051268Y020252D03*
X051268Y021000D03*
X052143Y021000D03*
X052143Y020252D03*
X053393Y019125D03*
X053393Y018377D03*
X054393Y018377D03*
X054393Y019125D03*
X054768Y021377D03*
X054768Y022125D03*
X056518Y022125D03*
X056518Y021377D03*
X057393Y021377D03*
X057393Y022125D03*
X058393Y022125D03*
X058393Y021377D03*
X059393Y021377D03*
X059393Y022125D03*
X060393Y022125D03*
X060393Y021377D03*
X061393Y021377D03*
X061393Y022125D03*
X059143Y019750D03*
X059143Y019002D03*
X058143Y019627D03*
X058143Y020375D03*
X055393Y025627D03*
X055393Y026375D03*
X068393Y022125D03*
X068393Y021377D03*
X068518Y039002D03*
X068518Y039750D03*
X068018Y040627D03*
X068018Y041375D03*
X069393Y041375D03*
X069393Y040627D03*
X074018Y039750D03*
X074018Y039002D03*
X078393Y042377D03*
X078393Y043125D03*
X079518Y042752D03*
X079518Y043500D03*
X080143Y044252D03*
X080143Y045000D03*
X056268Y046189D03*
X056268Y046937D03*
D18*
X065206Y044185D03*
X065206Y043066D03*
X072143Y040935D03*
X072143Y039816D03*
X053893Y022185D03*
X053893Y021066D03*
X053018Y021060D03*
X053018Y019941D03*
X062143Y009935D03*
X062143Y008816D03*
X065143Y008816D03*
X065143Y009935D03*
D19*
X068334Y009501D03*
X069453Y009501D03*
X060453Y009376D03*
X059334Y009376D03*
X056453Y018376D03*
X055334Y018376D03*
X055578Y020126D03*
X054459Y020126D03*
X052453Y018876D03*
X051334Y018876D03*
X075584Y027001D03*
X076703Y027001D03*
D20*
X072268Y026626D03*
X066143Y030001D03*
X065143Y030001D03*
X065143Y031001D03*
X066143Y031001D03*
X066143Y032001D03*
X065143Y032001D03*
X065143Y033001D03*
X066143Y033001D03*
X066143Y034001D03*
X065143Y034001D03*
X069018Y032876D03*
X069018Y031876D03*
X070018Y031876D03*
X070018Y032876D03*
X070018Y033876D03*
X070143Y035376D03*
X070518Y015501D03*
X067893Y014876D03*
X064893Y014876D03*
X061893Y014876D03*
X057893Y015501D03*
X055893Y013376D03*
D21*
X016430Y010722D03*
X017257Y010722D03*
X018280Y010722D03*
X019107Y010722D03*
X019107Y011706D03*
X016430Y011706D03*
D22*
X017768Y009226D03*
D23*
X058893Y047626D03*
X058893Y048626D03*
X058893Y049626D03*
X060893Y049626D03*
X060893Y048626D03*
X060893Y047626D03*
X062893Y047626D03*
X062893Y048626D03*
X062893Y049626D03*
X064893Y049626D03*
X064893Y048626D03*
X064893Y047626D03*
D24*
X075467Y022001D03*
X076570Y022001D03*
X019320Y012751D03*
X018217Y012751D03*
D25*
X075592Y025751D03*
X076695Y025751D03*
D26*
X055643Y022125D03*
X055643Y021377D03*
D27*
X057643Y013668D02*
X057643Y012833D01*
X059143Y012833D02*
X059143Y013668D01*
X060643Y013668D02*
X060643Y012833D01*
X059893Y011668D02*
X059893Y010833D01*
X058393Y010833D02*
X058393Y011668D01*
X061393Y011668D02*
X061393Y010833D01*
X062893Y010833D02*
X062893Y011668D01*
X062143Y012833D02*
X062143Y013668D01*
X063643Y013668D02*
X063643Y012833D01*
X064393Y011668D02*
X064393Y010833D01*
X065893Y010833D02*
X065893Y011668D01*
X067393Y011668D02*
X067393Y010833D01*
X068893Y010833D02*
X068893Y011668D01*
X070393Y011668D02*
X070393Y010833D01*
X071893Y010833D02*
X071893Y011668D01*
X071143Y012833D02*
X071143Y013668D01*
X069643Y013668D02*
X069643Y012833D01*
X068143Y012833D02*
X068143Y013668D01*
X066643Y013668D02*
X066643Y012833D01*
X065143Y012833D02*
X065143Y013668D01*
X072643Y013668D02*
X072643Y012833D01*
D28*
X075543Y011351D03*
X075543Y009951D03*
X054743Y009951D03*
X054743Y011351D03*
D29*
X066993Y039276D03*
D30*
X075293Y039276D03*
D31*
X056518Y026552D03*
X056518Y025449D03*
X022643Y010802D03*
X022643Y009699D03*
X020268Y033574D03*
X020268Y034677D03*
D32*
X071411Y022376D02*
X072126Y022376D01*
X072126Y021376D02*
X071411Y021376D01*
X071411Y020376D02*
X072126Y020376D01*
X075643Y014233D02*
X075643Y013518D01*
X076643Y013518D02*
X076643Y014233D01*
X077643Y014233D02*
X077643Y013518D01*
D33*
X061893Y024376D03*
X060893Y024376D03*
X059893Y024376D03*
X058893Y024376D03*
X057893Y024376D03*
X056893Y024376D03*
X055893Y024376D03*
X055893Y027376D03*
X056893Y027376D03*
X057893Y027376D03*
X058893Y027376D03*
X059893Y027376D03*
X060893Y027376D03*
X061893Y027376D03*
D34*
X068028Y042345D03*
X068028Y043251D03*
X068028Y044156D03*
D35*
X070509Y043251D03*
D36*
X050268Y011469D03*
X051351Y010485D03*
X050268Y009501D03*
M02*
