G75*
G70*
%OFA0B0*%
%FSLAX24Y24*%
%IPPOS*%
%LPD*%
%AMOC8*
5,1,8,0,0,1.08239X$1,22.5*
%
%ADD10C,0.0060*%
%ADD11C,0.0040*%
%ADD12R,0.0256X0.0551*%
%ADD13R,0.0690X0.0290*%
%ADD14R,0.0720X0.0230*%
%ADD15R,0.0551X0.0256*%
%ADD16R,0.0290X0.0690*%
%ADD17R,0.0295X0.0571*%
%ADD18C,0.0050*%
%ADD19R,0.1000X0.0200*%
%ADD20R,0.0571X0.0295*%
%ADD21R,0.0669X0.0295*%
%ADD22R,0.0140X0.0560*%
%ADD23R,0.0560X0.0140*%
D10*
X002795Y009970D02*
X003117Y009970D01*
X003117Y010470D02*
X002795Y010470D01*
X002795Y010970D02*
X003117Y010970D01*
X003117Y011470D02*
X002795Y011470D01*
X016045Y004845D02*
X016367Y004845D01*
X016367Y004345D02*
X016045Y004345D01*
X015956Y003256D02*
X015956Y002934D01*
X016456Y002934D02*
X016456Y003256D01*
X017706Y003559D02*
X017706Y003881D01*
X018206Y003881D02*
X018206Y003559D01*
X018956Y002006D02*
X018956Y001684D01*
X019456Y001684D02*
X019456Y002006D01*
X020956Y003059D02*
X020956Y003381D01*
X021456Y003381D02*
X021456Y003059D01*
X021706Y007309D02*
X021706Y007631D01*
X021206Y007631D02*
X021206Y007309D01*
X020706Y007309D02*
X020706Y007631D01*
X020206Y007631D02*
X020206Y007309D01*
X043795Y032220D02*
X044117Y032220D01*
X044117Y032720D02*
X043795Y032720D01*
X044956Y032256D02*
X044956Y031934D01*
X045456Y031934D02*
X045456Y032256D01*
X045956Y032256D02*
X045956Y031934D01*
X046456Y031934D02*
X046456Y032256D01*
X047326Y032165D02*
X048081Y032165D01*
X047992Y032470D02*
X047670Y032470D01*
X047670Y032970D02*
X047992Y032970D01*
X046956Y033275D02*
X046201Y033275D01*
X046201Y033915D02*
X046956Y033915D01*
X046956Y034940D02*
X046956Y035500D01*
X047456Y035500D02*
X047456Y034940D01*
X047956Y034934D02*
X047956Y035256D01*
X048456Y035256D02*
X048456Y034934D01*
X048956Y034934D02*
X048956Y035256D01*
X049456Y035256D02*
X049456Y034934D01*
X049956Y034934D02*
X049956Y035256D01*
X050456Y035256D02*
X050456Y034934D01*
X050956Y034934D02*
X050956Y035256D01*
X051456Y035256D02*
X051456Y034934D01*
X051956Y034934D02*
X051956Y035256D01*
X052456Y035256D02*
X052456Y034934D01*
X052956Y034934D02*
X052956Y035256D01*
X053456Y035256D02*
X053456Y034934D01*
X051206Y032881D02*
X051206Y032559D01*
X050706Y032559D02*
X050706Y032881D01*
X050206Y033184D02*
X050206Y033506D01*
X049706Y033506D02*
X049706Y033184D01*
X048081Y031525D02*
X047326Y031525D01*
X045401Y034595D02*
X045401Y035350D01*
X045956Y035381D02*
X045956Y035059D01*
X046456Y035059D02*
X046456Y035381D01*
X044761Y035350D02*
X044761Y034595D01*
X044331Y034131D02*
X044331Y033809D01*
X043831Y033809D02*
X043831Y034131D01*
X042831Y034025D02*
X042076Y034025D01*
X042076Y034665D02*
X042831Y034665D01*
X032411Y034545D02*
X032411Y033645D01*
X031751Y033645D02*
X031751Y034545D01*
X031036Y036145D02*
X031036Y037045D01*
X030376Y037045D02*
X030376Y036145D01*
X047761Y015100D02*
X047761Y014345D01*
X048401Y014345D02*
X048401Y015100D01*
X052751Y015045D02*
X052751Y014145D01*
X053411Y014145D02*
X053411Y015045D01*
X055386Y011475D02*
X055386Y010720D01*
X056026Y010720D02*
X056026Y011475D01*
X057706Y010665D02*
X058461Y010665D01*
X058461Y010025D02*
X057706Y010025D01*
X060051Y010095D02*
X060611Y010095D01*
X060611Y010595D02*
X060051Y010595D01*
X062181Y010745D02*
X062331Y010745D01*
X062331Y010595D01*
X062331Y010745D02*
X062481Y010745D01*
X062331Y010745D02*
X062331Y010895D01*
X062331Y010395D02*
X062831Y010395D01*
X063331Y010395D01*
X063331Y010195D01*
X062331Y010195D01*
X062331Y010395D01*
X062831Y010395D02*
X062831Y010745D01*
X063206Y010270D02*
X063206Y010120D01*
X063056Y010120D01*
X063206Y010120D02*
X063206Y009970D01*
X063206Y010120D02*
X063356Y010120D01*
X063706Y010120D02*
X063706Y009770D01*
X063206Y009770D01*
X063206Y009570D01*
X064206Y009570D01*
X064206Y009770D01*
X063706Y009770D01*
X062606Y009470D02*
X062608Y009536D01*
X062614Y009601D01*
X062624Y009666D01*
X062637Y009731D01*
X062655Y009794D01*
X062676Y009857D01*
X062701Y009917D01*
X062730Y009977D01*
X062762Y010034D01*
X062797Y010090D01*
X062836Y010143D01*
X062878Y010194D01*
X062922Y010242D01*
X062970Y010287D01*
X063020Y010330D01*
X063073Y010369D01*
X063128Y010406D01*
X063185Y010439D01*
X063244Y010468D01*
X063304Y010494D01*
X063366Y010516D01*
X063429Y010535D01*
X063493Y010549D01*
X063558Y010560D01*
X063624Y010567D01*
X063690Y010570D01*
X063755Y010569D01*
X063821Y010564D01*
X063886Y010555D01*
X063951Y010542D01*
X064014Y010526D01*
X064077Y010506D01*
X064138Y010481D01*
X064198Y010454D01*
X064256Y010423D01*
X064312Y010388D01*
X064366Y010350D01*
X064417Y010309D01*
X064466Y010265D01*
X064512Y010218D01*
X064556Y010169D01*
X064596Y010117D01*
X064633Y010062D01*
X064667Y010006D01*
X064697Y009947D01*
X064724Y009887D01*
X064747Y009826D01*
X064766Y009763D01*
X064782Y009699D01*
X064794Y009634D01*
X064802Y009569D01*
X064806Y009503D01*
X064806Y009437D01*
X064802Y009371D01*
X064794Y009306D01*
X064782Y009241D01*
X064766Y009177D01*
X064747Y009114D01*
X064724Y009053D01*
X064697Y008993D01*
X064667Y008934D01*
X064633Y008878D01*
X064596Y008823D01*
X064556Y008771D01*
X064512Y008722D01*
X064466Y008675D01*
X064417Y008631D01*
X064366Y008590D01*
X064312Y008552D01*
X064256Y008517D01*
X064198Y008486D01*
X064138Y008459D01*
X064077Y008434D01*
X064014Y008414D01*
X063951Y008398D01*
X063886Y008385D01*
X063821Y008376D01*
X063755Y008371D01*
X063690Y008370D01*
X063624Y008373D01*
X063558Y008380D01*
X063493Y008391D01*
X063429Y008405D01*
X063366Y008424D01*
X063304Y008446D01*
X063244Y008472D01*
X063185Y008501D01*
X063128Y008534D01*
X063073Y008571D01*
X063020Y008610D01*
X062970Y008653D01*
X062922Y008698D01*
X062878Y008746D01*
X062836Y008797D01*
X062797Y008850D01*
X062762Y008906D01*
X062730Y008963D01*
X062701Y009023D01*
X062676Y009083D01*
X062655Y009146D01*
X062637Y009209D01*
X062624Y009274D01*
X062614Y009339D01*
X062608Y009404D01*
X062606Y009470D01*
X062831Y009445D02*
X062831Y009845D01*
X061731Y010095D02*
X061733Y010161D01*
X061739Y010226D01*
X061749Y010291D01*
X061762Y010356D01*
X061780Y010419D01*
X061801Y010482D01*
X061826Y010542D01*
X061855Y010602D01*
X061887Y010659D01*
X061922Y010715D01*
X061961Y010768D01*
X062003Y010819D01*
X062047Y010867D01*
X062095Y010912D01*
X062145Y010955D01*
X062198Y010994D01*
X062253Y011031D01*
X062310Y011064D01*
X062369Y011093D01*
X062429Y011119D01*
X062491Y011141D01*
X062554Y011160D01*
X062618Y011174D01*
X062683Y011185D01*
X062749Y011192D01*
X062815Y011195D01*
X062880Y011194D01*
X062946Y011189D01*
X063011Y011180D01*
X063076Y011167D01*
X063139Y011151D01*
X063202Y011131D01*
X063263Y011106D01*
X063323Y011079D01*
X063381Y011048D01*
X063437Y011013D01*
X063491Y010975D01*
X063542Y010934D01*
X063591Y010890D01*
X063637Y010843D01*
X063681Y010794D01*
X063721Y010742D01*
X063758Y010687D01*
X063792Y010631D01*
X063822Y010572D01*
X063849Y010512D01*
X063872Y010451D01*
X063891Y010388D01*
X063907Y010324D01*
X063919Y010259D01*
X063927Y010194D01*
X063931Y010128D01*
X063931Y010062D01*
X063927Y009996D01*
X063919Y009931D01*
X063907Y009866D01*
X063891Y009802D01*
X063872Y009739D01*
X063849Y009678D01*
X063822Y009618D01*
X063792Y009559D01*
X063758Y009503D01*
X063721Y009448D01*
X063681Y009396D01*
X063637Y009347D01*
X063591Y009300D01*
X063542Y009256D01*
X063491Y009215D01*
X063437Y009177D01*
X063381Y009142D01*
X063323Y009111D01*
X063263Y009084D01*
X063202Y009059D01*
X063139Y009039D01*
X063076Y009023D01*
X063011Y009010D01*
X062946Y009001D01*
X062880Y008996D01*
X062815Y008995D01*
X062749Y008998D01*
X062683Y009005D01*
X062618Y009016D01*
X062554Y009030D01*
X062491Y009049D01*
X062429Y009071D01*
X062369Y009097D01*
X062310Y009126D01*
X062253Y009159D01*
X062198Y009196D01*
X062145Y009235D01*
X062095Y009278D01*
X062047Y009323D01*
X062003Y009371D01*
X061961Y009422D01*
X061922Y009475D01*
X061887Y009531D01*
X061855Y009588D01*
X061826Y009648D01*
X061801Y009708D01*
X061780Y009771D01*
X061762Y009834D01*
X061749Y009899D01*
X061739Y009964D01*
X061733Y010029D01*
X061731Y010095D01*
X063706Y009220D02*
X063706Y008820D01*
X058867Y004845D02*
X058545Y004845D01*
X058545Y004345D02*
X058867Y004345D01*
X048336Y010025D02*
X047581Y010025D01*
X047581Y010665D02*
X048336Y010665D01*
X059956Y034934D02*
X059956Y035256D01*
X060456Y035256D02*
X060456Y034934D01*
X059742Y043720D02*
X059420Y043720D01*
X059420Y044220D02*
X059742Y044220D01*
X060420Y044595D02*
X060742Y044595D01*
X060742Y045095D02*
X060420Y045095D01*
X061420Y044220D02*
X061742Y044220D01*
X061742Y043720D02*
X061420Y043720D01*
X062420Y044595D02*
X062742Y044595D01*
X062742Y045095D02*
X062420Y045095D01*
X056151Y054720D02*
X056151Y055475D01*
X055511Y055475D02*
X055511Y054720D01*
X055795Y057095D02*
X056117Y057095D01*
X056117Y057595D02*
X055795Y057595D01*
X055795Y057970D02*
X056117Y057970D01*
X056117Y058470D02*
X055795Y058470D01*
X054867Y060470D02*
X054545Y060470D01*
X054545Y060970D02*
X054867Y060970D01*
X056215Y061884D02*
X056748Y061350D01*
X057201Y061803D02*
X056667Y062336D01*
X053997Y062783D02*
X053769Y063011D01*
X053415Y062657D02*
X053643Y062429D01*
X051831Y061756D02*
X051831Y061434D01*
X051331Y061434D02*
X051331Y061756D01*
D11*
X003146Y009240D02*
X002839Y009240D01*
X002839Y009547D02*
X002839Y009624D01*
X002916Y009700D01*
X003070Y009700D01*
X003146Y009624D01*
X003300Y009624D02*
X003377Y009700D01*
X003530Y009700D01*
X003607Y009624D01*
X003760Y009624D02*
X003760Y009470D01*
X003837Y009393D01*
X004067Y009393D01*
X004067Y009240D02*
X004067Y009700D01*
X003837Y009700D01*
X003760Y009624D01*
X003914Y009393D02*
X003760Y009240D01*
X003607Y009240D02*
X003300Y009547D01*
X003300Y009624D01*
X003300Y009240D02*
X003607Y009240D01*
X003146Y009240D02*
X002839Y009547D01*
X002916Y010240D02*
X003070Y010240D01*
X003146Y010317D01*
X003300Y010240D02*
X003607Y010240D01*
X003300Y010547D01*
X003300Y010624D01*
X003377Y010700D01*
X003530Y010700D01*
X003607Y010624D01*
X003760Y010624D02*
X003760Y010470D01*
X003837Y010393D01*
X004067Y010393D01*
X004067Y010240D02*
X004067Y010700D01*
X003837Y010700D01*
X003760Y010624D01*
X003914Y010393D02*
X003760Y010240D01*
X003146Y010624D02*
X003070Y010700D01*
X002916Y010700D01*
X002839Y010624D01*
X002839Y010547D01*
X002916Y010470D01*
X002839Y010393D01*
X002839Y010317D01*
X002916Y010240D01*
X002916Y010470D02*
X002993Y010470D01*
X014099Y003547D02*
X014252Y003700D01*
X014405Y003547D01*
X014405Y003240D01*
X014559Y003240D02*
X014559Y003547D01*
X014636Y003547D01*
X014712Y003470D01*
X014789Y003547D01*
X014866Y003470D01*
X014866Y003240D01*
X015019Y003240D02*
X015250Y003240D01*
X015326Y003317D01*
X015326Y003470D01*
X015250Y003547D01*
X015019Y003547D01*
X015019Y003087D01*
X014712Y003240D02*
X014712Y003470D01*
X014405Y003470D02*
X014099Y003470D01*
X014099Y003547D02*
X014099Y003240D01*
X015480Y003240D02*
X015480Y003700D01*
X015556Y003547D02*
X015710Y003547D01*
X015787Y003470D01*
X015787Y003240D01*
X015940Y003317D02*
X015940Y003470D01*
X016017Y003547D01*
X016170Y003547D01*
X016247Y003470D01*
X016247Y003393D01*
X015940Y003393D01*
X015940Y003317D02*
X016017Y003240D01*
X016170Y003240D01*
X016400Y003240D02*
X016400Y003547D01*
X016631Y003547D01*
X016707Y003470D01*
X016707Y003240D01*
X016726Y003172D02*
X016879Y003018D01*
X016879Y003095D02*
X016879Y002865D01*
X016976Y002916D02*
X017129Y002762D01*
X017129Y002839D02*
X017129Y002609D01*
X016976Y002609D02*
X017436Y002609D01*
X017436Y002839D01*
X017360Y002916D01*
X017206Y002916D01*
X017129Y002839D01*
X017186Y002865D02*
X016726Y002865D01*
X016879Y003095D02*
X016956Y003172D01*
X017110Y003172D01*
X017186Y003095D01*
X017186Y002865D01*
X017283Y003069D02*
X017436Y003223D01*
X016976Y003223D01*
X016938Y003240D02*
X016861Y003317D01*
X016861Y003470D01*
X016938Y003547D01*
X017091Y003547D01*
X017168Y003470D01*
X017168Y003317D01*
X017091Y003240D01*
X016938Y003240D01*
X017033Y003325D02*
X017186Y003479D01*
X016726Y003479D01*
X016726Y003632D02*
X016726Y003325D01*
X016976Y003376D02*
X016976Y003069D01*
X017321Y003240D02*
X017475Y003240D01*
X017398Y003240D02*
X017398Y003700D01*
X017321Y003700D01*
X017436Y003760D02*
X017206Y003530D01*
X017206Y003837D01*
X017186Y003786D02*
X016956Y003786D01*
X017033Y003939D01*
X017033Y004016D01*
X016956Y004093D01*
X016803Y004093D01*
X016726Y004016D01*
X016726Y003863D01*
X016803Y003786D01*
X016976Y003760D02*
X017436Y003760D01*
X017186Y003786D02*
X017186Y004093D01*
X018089Y003700D02*
X018242Y003547D01*
X018396Y003700D01*
X018396Y003240D01*
X018549Y003240D02*
X018549Y003700D01*
X018702Y003547D01*
X018856Y003700D01*
X018856Y003240D01*
X019009Y003317D02*
X019086Y003240D01*
X019240Y003240D01*
X019316Y003317D01*
X019470Y003240D02*
X019777Y003700D01*
X019930Y003624D02*
X019930Y003547D01*
X020007Y003470D01*
X020160Y003470D01*
X020237Y003393D01*
X020237Y003317D01*
X020160Y003240D01*
X020007Y003240D01*
X019930Y003317D01*
X019930Y003624D02*
X020007Y003700D01*
X020160Y003700D01*
X020237Y003624D01*
X020391Y003700D02*
X020621Y003700D01*
X020697Y003624D01*
X020697Y003317D01*
X020621Y003240D01*
X020391Y003240D01*
X020391Y003700D01*
X021726Y003757D02*
X021726Y003450D01*
X021726Y003297D02*
X021879Y003143D01*
X021879Y003220D02*
X021879Y002990D01*
X021726Y002990D02*
X022186Y002990D01*
X022186Y003220D01*
X022110Y003297D01*
X021956Y003297D01*
X021879Y003220D01*
X022033Y003450D02*
X022186Y003604D01*
X021726Y003604D01*
X021726Y003911D02*
X021726Y004218D01*
X021726Y004064D02*
X022186Y004064D01*
X022033Y003911D01*
X019596Y004835D02*
X019306Y004835D01*
X019306Y005355D02*
X019606Y005355D01*
X019706Y005615D02*
X019629Y005692D01*
X019706Y005615D02*
X019859Y005615D01*
X019936Y005692D01*
X019936Y005999D01*
X019859Y006075D01*
X019706Y006075D01*
X019629Y005999D01*
X019476Y005999D02*
X019399Y006075D01*
X019245Y006075D01*
X019169Y005999D01*
X019169Y005922D01*
X019245Y005845D01*
X019399Y005845D01*
X019476Y005922D01*
X019476Y005999D01*
X019399Y005845D02*
X019476Y005768D01*
X019476Y005692D01*
X019399Y005615D01*
X019245Y005615D01*
X019169Y005692D01*
X019169Y005768D01*
X019245Y005845D01*
X019476Y006359D02*
X019936Y006359D01*
X019936Y006589D01*
X019860Y006666D01*
X019706Y006666D01*
X019629Y006589D01*
X019629Y006359D01*
X019629Y006512D02*
X019476Y006666D01*
X019476Y006819D02*
X019476Y007126D01*
X019476Y006973D02*
X019936Y006973D01*
X019783Y006819D01*
X019936Y007280D02*
X019936Y007587D01*
X019860Y007587D01*
X019553Y007280D01*
X019476Y007280D01*
X020476Y007356D02*
X020553Y007280D01*
X020629Y007280D01*
X020706Y007356D01*
X020706Y007510D01*
X020629Y007587D01*
X020553Y007587D01*
X020476Y007510D01*
X020476Y007356D01*
X020476Y007126D02*
X020476Y006819D01*
X020476Y006666D02*
X020629Y006512D01*
X020629Y006589D02*
X020629Y006359D01*
X020476Y006359D02*
X020936Y006359D01*
X020936Y006589D01*
X020860Y006666D01*
X020706Y006666D01*
X020629Y006589D01*
X020783Y006819D02*
X020936Y006973D01*
X020476Y006973D01*
X020783Y007280D02*
X020860Y007280D01*
X020936Y007356D01*
X020936Y007510D01*
X020860Y007587D01*
X020783Y007587D01*
X020706Y007510D01*
X020706Y007356D02*
X020783Y007280D01*
X019240Y003700D02*
X019086Y003700D01*
X019009Y003624D01*
X019009Y003317D01*
X019316Y003624D02*
X019240Y003700D01*
X018089Y003700D02*
X018089Y003240D01*
X018226Y001962D02*
X018226Y001655D01*
X018533Y001962D01*
X018610Y001962D01*
X018686Y001885D01*
X018686Y001731D01*
X018610Y001655D01*
X018686Y001348D02*
X018226Y001348D01*
X018226Y001501D02*
X018226Y001194D01*
X018226Y001041D02*
X018379Y000887D01*
X018379Y000964D02*
X018379Y000734D01*
X018226Y000734D02*
X018686Y000734D01*
X018686Y000964D01*
X018610Y001041D01*
X018456Y001041D01*
X018379Y000964D01*
X018533Y001194D02*
X018686Y001348D01*
X015556Y003547D02*
X015480Y003470D01*
X015438Y005115D02*
X015285Y005115D01*
X015208Y005192D01*
X015208Y005268D01*
X015285Y005345D01*
X015515Y005345D01*
X015515Y005192D01*
X015438Y005115D01*
X015669Y005115D02*
X015976Y005115D01*
X016129Y005115D02*
X016283Y005268D01*
X016206Y005268D02*
X016436Y005268D01*
X016436Y005115D02*
X016436Y005575D01*
X016206Y005575D01*
X016129Y005499D01*
X016129Y005345D01*
X016206Y005268D01*
X015976Y005422D02*
X015822Y005575D01*
X015822Y005115D01*
X015515Y005345D02*
X015362Y005499D01*
X015208Y005575D01*
X015553Y024615D02*
X015476Y024692D01*
X015476Y024845D01*
X015553Y024922D01*
X015476Y025075D02*
X015629Y025229D01*
X015476Y025382D01*
X015936Y025382D01*
X015860Y025536D02*
X015936Y025613D01*
X015936Y025766D01*
X015860Y025843D01*
X015783Y025843D01*
X015476Y025536D01*
X015476Y025843D01*
X015553Y025996D02*
X015476Y026073D01*
X015476Y026226D01*
X015553Y026303D01*
X015860Y026303D01*
X015936Y026226D01*
X015936Y026073D01*
X015860Y025996D01*
X015783Y025996D01*
X015706Y026073D01*
X015706Y026303D01*
X015266Y025475D02*
X015266Y024715D01*
X015553Y024615D02*
X015860Y024615D01*
X015936Y024692D01*
X015936Y024845D01*
X015860Y024922D01*
X015936Y025075D02*
X015476Y025075D01*
X014646Y024715D02*
X014646Y025475D01*
X027476Y032225D02*
X027476Y032379D01*
X027553Y032455D01*
X027553Y032609D02*
X027476Y032609D01*
X027476Y032916D01*
X027553Y033069D02*
X027629Y033069D01*
X027706Y033146D01*
X027706Y033299D01*
X027629Y033376D01*
X027553Y033376D01*
X027476Y033299D01*
X027476Y033146D01*
X027553Y033069D01*
X027706Y033146D02*
X027783Y033069D01*
X027860Y033069D01*
X027936Y033146D01*
X027936Y033299D01*
X027860Y033376D01*
X027783Y033376D01*
X027706Y033299D01*
X027553Y033530D02*
X027860Y033837D01*
X027553Y033837D01*
X027476Y033760D01*
X027476Y033606D01*
X027553Y033530D01*
X027860Y033530D01*
X027936Y033606D01*
X027936Y033760D01*
X027860Y033837D01*
X028196Y033620D02*
X028196Y033320D01*
X027936Y032916D02*
X027860Y032916D01*
X027553Y032609D01*
X027860Y032455D02*
X027936Y032379D01*
X027936Y032225D01*
X027860Y032148D01*
X027553Y032148D01*
X027476Y032225D01*
X027936Y032609D02*
X027936Y032916D01*
X028716Y033320D02*
X028716Y033610D01*
X031226Y036115D02*
X031686Y036115D01*
X031686Y036345D01*
X031610Y036422D01*
X031456Y036422D01*
X031379Y036345D01*
X031379Y036115D01*
X031379Y036268D02*
X031226Y036422D01*
X031226Y036575D02*
X031226Y036882D01*
X031226Y036729D02*
X031686Y036729D01*
X031533Y036575D01*
X032678Y034843D02*
X032985Y034843D01*
X033061Y034766D01*
X033061Y034613D01*
X032985Y034536D01*
X032908Y034536D01*
X032831Y034613D01*
X032831Y034843D01*
X032678Y034843D02*
X032601Y034766D01*
X032601Y034613D01*
X032678Y034536D01*
X032601Y034382D02*
X032601Y034075D01*
X032601Y033922D02*
X032754Y033768D01*
X032754Y033845D02*
X032754Y033615D01*
X032601Y033615D02*
X033061Y033615D01*
X033061Y033845D01*
X032985Y033922D01*
X032831Y033922D01*
X032754Y033845D01*
X032908Y034075D02*
X033061Y034229D01*
X032601Y034229D01*
X038946Y033245D02*
X038946Y032955D01*
X039466Y032945D02*
X039466Y033245D01*
X039726Y033382D02*
X040186Y033382D01*
X040033Y033229D01*
X040186Y033075D01*
X039726Y033075D01*
X039803Y032922D02*
X039726Y032845D01*
X039726Y032692D01*
X039803Y032615D01*
X040110Y032615D01*
X040186Y032692D01*
X040186Y032845D01*
X040110Y032922D01*
X040033Y033536D02*
X040186Y033689D01*
X039726Y033689D01*
X039726Y033536D02*
X039726Y033843D01*
X039803Y033996D02*
X039726Y034073D01*
X039726Y034226D01*
X039803Y034303D01*
X039879Y034303D01*
X039956Y034226D01*
X039956Y033996D01*
X039803Y033996D01*
X039956Y033996D02*
X040110Y034150D01*
X040186Y034303D01*
X042089Y033825D02*
X042089Y033749D01*
X042243Y033595D01*
X042243Y033365D01*
X042243Y033595D02*
X042396Y033749D01*
X042396Y033825D01*
X042550Y033749D02*
X042627Y033825D01*
X042780Y033825D01*
X042857Y033749D01*
X043010Y033749D02*
X043087Y033825D01*
X043317Y033825D01*
X043317Y033365D01*
X043331Y033396D02*
X043331Y033549D01*
X043254Y033626D01*
X043178Y033626D01*
X043101Y033549D01*
X043101Y033396D01*
X043178Y033319D01*
X043254Y033319D01*
X043331Y033396D01*
X043408Y033319D01*
X043485Y033319D01*
X043561Y033396D01*
X043561Y033549D01*
X043485Y033626D01*
X043408Y033626D01*
X043331Y033549D01*
X043317Y033518D02*
X043087Y033518D01*
X043010Y033595D01*
X043010Y033749D01*
X043101Y033933D02*
X043331Y033933D01*
X043485Y034087D01*
X043561Y034087D01*
X043331Y033933D02*
X043485Y033780D01*
X043561Y033780D01*
X043419Y033450D02*
X043726Y033450D01*
X043726Y033220D01*
X043572Y033297D01*
X043495Y033297D01*
X043419Y033220D01*
X043419Y033067D01*
X043495Y032990D01*
X043649Y032990D01*
X043726Y033067D01*
X043561Y033089D02*
X043561Y032859D01*
X043101Y032859D01*
X043112Y032990D02*
X043112Y033220D01*
X042958Y033374D01*
X042958Y033450D01*
X043010Y033365D02*
X043164Y033518D01*
X043265Y033450D02*
X043265Y033374D01*
X043112Y033220D01*
X043101Y033166D02*
X043254Y033012D01*
X043254Y033089D02*
X043254Y032859D01*
X043254Y033089D02*
X043331Y033166D01*
X043485Y033166D01*
X043561Y033089D01*
X043879Y032990D02*
X044033Y033143D01*
X043956Y033143D02*
X044186Y033143D01*
X044186Y032990D02*
X044186Y033450D01*
X043956Y033450D01*
X043879Y033374D01*
X043879Y033220D01*
X043956Y033143D01*
X044101Y034109D02*
X044561Y034109D01*
X044561Y034339D01*
X044485Y034416D01*
X044331Y034416D01*
X044254Y034339D01*
X044254Y034109D01*
X044254Y034262D02*
X044101Y034416D01*
X044331Y034569D02*
X044331Y034876D01*
X044485Y035030D02*
X044331Y035183D01*
X044101Y035183D01*
X044331Y035183D02*
X044485Y035337D01*
X044561Y035337D01*
X044561Y035030D02*
X044485Y035030D01*
X044561Y034799D02*
X044331Y034569D01*
X044101Y034799D02*
X044561Y034799D01*
X045226Y034723D02*
X045686Y034723D01*
X045533Y034569D01*
X045610Y034416D02*
X045456Y034416D01*
X045379Y034339D01*
X045379Y034109D01*
X045226Y034109D02*
X045686Y034109D01*
X045686Y034339D01*
X045610Y034416D01*
X045379Y034262D02*
X045226Y034416D01*
X045226Y034569D02*
X045226Y034876D01*
X045226Y035030D02*
X045226Y035260D01*
X045303Y035337D01*
X045610Y035337D01*
X045686Y035260D01*
X045686Y035030D01*
X045226Y035030D01*
X046226Y035126D02*
X046226Y034819D01*
X046533Y035126D01*
X046610Y035126D01*
X046686Y035049D01*
X046686Y034896D01*
X046610Y034819D01*
X046610Y034666D02*
X046456Y034666D01*
X046379Y034589D01*
X046379Y034359D01*
X046226Y034359D02*
X046686Y034359D01*
X046686Y034589D01*
X046610Y034666D01*
X046379Y034512D02*
X046226Y034666D01*
X046226Y035280D02*
X046226Y035510D01*
X046303Y035587D01*
X046610Y035587D01*
X046686Y035510D01*
X046686Y035280D01*
X046226Y035280D01*
X047226Y035135D02*
X047303Y035212D01*
X047610Y035212D01*
X047686Y035135D01*
X047686Y034905D01*
X047226Y034905D01*
X047226Y035135D01*
X047303Y034751D02*
X047226Y034674D01*
X047226Y034521D01*
X047303Y034444D01*
X047226Y034291D02*
X047379Y034137D01*
X047379Y034214D02*
X047379Y033984D01*
X047226Y033984D02*
X047686Y033984D01*
X047686Y034214D01*
X047610Y034291D01*
X047456Y034291D01*
X047379Y034214D01*
X047610Y034444D02*
X047686Y034521D01*
X047686Y034674D01*
X047610Y034751D01*
X047533Y034751D01*
X047456Y034674D01*
X047379Y034751D01*
X047303Y034751D01*
X047456Y034674D02*
X047456Y034598D01*
X048226Y034674D02*
X048686Y034674D01*
X048456Y034444D01*
X048456Y034751D01*
X048686Y034905D02*
X048226Y034905D01*
X048226Y035135D01*
X048303Y035212D01*
X048610Y035212D01*
X048686Y035135D01*
X048686Y034905D01*
X049226Y034905D02*
X049226Y035135D01*
X049303Y035212D01*
X049610Y035212D01*
X049686Y035135D01*
X049686Y034905D01*
X049226Y034905D01*
X049303Y034751D02*
X049226Y034674D01*
X049226Y034521D01*
X049303Y034444D01*
X049456Y034444D02*
X049533Y034598D01*
X049533Y034674D01*
X049456Y034751D01*
X049303Y034751D01*
X049456Y034444D02*
X049686Y034444D01*
X049686Y034751D01*
X049610Y034291D02*
X049456Y034291D01*
X049379Y034214D01*
X049379Y033984D01*
X049226Y033984D02*
X049686Y033984D01*
X049686Y034214D01*
X049610Y034291D01*
X049379Y034137D02*
X049226Y034291D01*
X048686Y034214D02*
X048610Y034291D01*
X048456Y034291D01*
X048379Y034214D01*
X048379Y033984D01*
X048226Y033984D02*
X048686Y033984D01*
X048686Y034214D01*
X048379Y034137D02*
X048226Y034291D01*
X047186Y033093D02*
X047110Y033093D01*
X046956Y032939D01*
X046726Y032939D01*
X046675Y032999D02*
X046675Y032845D01*
X046752Y032768D01*
X046982Y032768D01*
X047110Y032786D02*
X046956Y032939D01*
X046982Y033075D02*
X046982Y032615D01*
X047135Y032692D02*
X047442Y032999D01*
X047289Y032999D02*
X047289Y032692D01*
X047186Y032786D02*
X047110Y032786D01*
X047135Y032845D02*
X047442Y032845D01*
X047442Y032692D02*
X047135Y032999D01*
X046982Y033075D02*
X046752Y033075D01*
X046675Y032999D01*
X046521Y032999D02*
X046445Y033075D01*
X046291Y033075D01*
X046214Y032999D01*
X046214Y032922D01*
X046521Y032615D01*
X046214Y032615D01*
X046186Y032556D02*
X046186Y032402D01*
X046110Y032325D01*
X046110Y032172D02*
X045956Y032172D01*
X045879Y032095D01*
X045879Y031865D01*
X045726Y031865D02*
X046186Y031865D01*
X046186Y032095D01*
X046110Y032172D01*
X045879Y032018D02*
X045726Y032172D01*
X045726Y032325D02*
X046033Y032632D01*
X046110Y032632D01*
X046186Y032556D01*
X046186Y032786D02*
X046110Y032786D01*
X045956Y032939D01*
X045726Y032939D01*
X045956Y032939D02*
X046110Y033093D01*
X046186Y033093D01*
X045726Y032632D02*
X045726Y032325D01*
X046675Y032615D02*
X046828Y032768D01*
X046726Y032632D02*
X046726Y032325D01*
X046726Y032172D02*
X046879Y032018D01*
X046879Y032095D02*
X046879Y031865D01*
X046726Y031865D02*
X047186Y031865D01*
X047186Y032095D01*
X047110Y032172D01*
X046956Y032172D01*
X046879Y032095D01*
X047033Y032325D02*
X047186Y032479D01*
X046726Y032479D01*
X047596Y032692D02*
X047903Y032999D01*
X047903Y032845D02*
X047596Y032845D01*
X047596Y032999D02*
X047903Y032692D01*
X047749Y032692D02*
X047749Y032999D01*
X047714Y032200D02*
X047714Y032124D01*
X047868Y031970D01*
X047868Y031740D01*
X047868Y031970D02*
X048021Y032124D01*
X048021Y032200D01*
X048175Y032200D02*
X048175Y032124D01*
X048482Y031817D01*
X048482Y031740D01*
X048635Y031740D02*
X048789Y031893D01*
X048712Y031893D02*
X048942Y031893D01*
X048942Y031740D02*
X048942Y032200D01*
X048712Y032200D01*
X048635Y032124D01*
X048635Y031970D01*
X048712Y031893D01*
X048482Y032200D02*
X048175Y032200D01*
X048337Y031325D02*
X048260Y031249D01*
X048260Y031095D01*
X048337Y031018D01*
X048567Y031018D01*
X048567Y030865D02*
X048567Y031325D01*
X048337Y031325D01*
X048414Y031018D02*
X048260Y030865D01*
X048107Y030942D02*
X048030Y030865D01*
X047877Y030865D01*
X047800Y030942D01*
X047800Y031018D01*
X047877Y031095D01*
X048107Y031095D01*
X048107Y030942D01*
X048107Y031095D02*
X047953Y031249D01*
X047800Y031325D01*
X047646Y031325D02*
X047646Y031249D01*
X047493Y031095D01*
X047493Y030865D01*
X047493Y031095D02*
X047339Y031249D01*
X047339Y031325D01*
X049214Y031325D02*
X049214Y031249D01*
X049368Y031095D01*
X049368Y030865D01*
X049368Y031095D02*
X049521Y031249D01*
X049521Y031325D01*
X049675Y031249D02*
X049675Y031172D01*
X049752Y031095D01*
X049675Y031018D01*
X049675Y030942D01*
X049752Y030865D01*
X049905Y030865D01*
X049982Y030942D01*
X050135Y030942D02*
X050212Y030865D01*
X050365Y030865D01*
X050442Y030942D01*
X050442Y031249D01*
X050365Y031325D01*
X050212Y031325D01*
X050135Y031249D01*
X049982Y031249D02*
X049905Y031325D01*
X049752Y031325D01*
X049675Y031249D01*
X049752Y031095D02*
X049828Y031095D01*
X049731Y031585D02*
X049431Y031585D01*
X049441Y032105D02*
X049731Y032105D01*
X050476Y033115D02*
X050936Y033115D01*
X050936Y033345D01*
X050860Y033422D01*
X050706Y033422D01*
X050629Y033345D01*
X050629Y033115D01*
X050629Y033268D02*
X050476Y033422D01*
X050553Y033575D02*
X050476Y033652D01*
X050476Y033806D01*
X050553Y033882D01*
X050860Y033882D01*
X050936Y033806D01*
X050936Y033652D01*
X050860Y033575D01*
X050783Y033575D01*
X050706Y033652D01*
X050706Y033882D01*
X050686Y033984D02*
X050686Y034214D01*
X050610Y034291D01*
X050456Y034291D01*
X050379Y034214D01*
X050379Y033984D01*
X050226Y033984D02*
X050686Y033984D01*
X050860Y034036D02*
X050706Y034189D01*
X050476Y034189D01*
X050379Y034137D02*
X050226Y034291D01*
X050303Y034444D02*
X050226Y034521D01*
X050226Y034674D01*
X050303Y034751D01*
X050379Y034751D01*
X050456Y034674D01*
X050456Y034444D01*
X050303Y034444D01*
X050456Y034444D02*
X050610Y034598D01*
X050686Y034751D01*
X050686Y034905D02*
X050686Y035135D01*
X050610Y035212D01*
X050303Y035212D01*
X050226Y035135D01*
X050226Y034905D01*
X050686Y034905D01*
X051226Y034905D02*
X051226Y035135D01*
X051303Y035212D01*
X051610Y035212D01*
X051686Y035135D01*
X051686Y034905D01*
X051226Y034905D01*
X051610Y034751D02*
X051303Y034444D01*
X051226Y034444D01*
X051226Y034291D02*
X051379Y034137D01*
X051379Y034214D02*
X051379Y033984D01*
X051226Y033984D02*
X051686Y033984D01*
X051686Y034214D01*
X051610Y034291D01*
X051456Y034291D01*
X051379Y034214D01*
X051686Y034444D02*
X051686Y034751D01*
X051610Y034751D01*
X052226Y034674D02*
X052226Y034521D01*
X052303Y034444D01*
X052379Y034444D01*
X052456Y034521D01*
X052456Y034674D01*
X052379Y034751D01*
X052303Y034751D01*
X052226Y034674D01*
X052456Y034674D02*
X052533Y034751D01*
X052610Y034751D01*
X052686Y034674D01*
X052686Y034521D01*
X052610Y034444D01*
X052533Y034444D01*
X052456Y034521D01*
X052456Y034291D02*
X052379Y034214D01*
X052379Y033984D01*
X052226Y033984D02*
X052686Y033984D01*
X052686Y034214D01*
X052610Y034291D01*
X052456Y034291D01*
X052379Y034137D02*
X052226Y034291D01*
X052226Y034905D02*
X052226Y035135D01*
X052303Y035212D01*
X052610Y035212D01*
X052686Y035135D01*
X052686Y034905D01*
X052226Y034905D01*
X050936Y034343D02*
X050860Y034343D01*
X050706Y034189D01*
X050860Y034036D02*
X050936Y034036D01*
X051476Y033718D02*
X051476Y033411D01*
X051476Y033564D02*
X051936Y033564D01*
X051783Y033411D01*
X051860Y033257D02*
X051706Y033257D01*
X051629Y033181D01*
X051629Y032950D01*
X051476Y032950D02*
X051936Y032950D01*
X051936Y033181D01*
X051860Y033257D01*
X051629Y033104D02*
X051476Y033257D01*
X051553Y032797D02*
X051860Y032490D01*
X051860Y032643D02*
X051553Y032643D01*
X051553Y032490D02*
X051860Y032797D01*
X051706Y032797D02*
X051706Y032490D01*
X043311Y036067D02*
X043234Y035990D01*
X043081Y035990D01*
X043004Y036067D01*
X043004Y036374D02*
X043081Y036450D01*
X043234Y036450D01*
X043311Y036374D01*
X043311Y036067D01*
X042981Y035730D02*
X042681Y035730D01*
X042697Y035990D02*
X042697Y036220D01*
X042544Y036374D01*
X042544Y036450D01*
X042697Y036220D02*
X042851Y036374D01*
X042851Y036450D01*
X042971Y035210D02*
X042681Y035210D01*
X042550Y033749D02*
X042550Y033672D01*
X042627Y033595D01*
X042550Y033518D01*
X042550Y033442D01*
X042627Y033365D01*
X042780Y033365D01*
X042857Y033442D01*
X042703Y033595D02*
X042627Y033595D01*
X057662Y044567D02*
X057739Y044490D01*
X057893Y044490D01*
X057969Y044567D01*
X058123Y044490D02*
X058430Y044490D01*
X058123Y044797D01*
X058123Y044874D01*
X058200Y044950D01*
X058353Y044950D01*
X058430Y044874D01*
X058583Y044874D02*
X058660Y044950D01*
X058813Y044950D01*
X058890Y044874D01*
X058583Y044874D02*
X058583Y044797D01*
X058890Y044490D01*
X058583Y044490D01*
X059044Y044490D02*
X059351Y044490D01*
X059504Y044490D02*
X059658Y044643D01*
X059581Y044643D02*
X059811Y044643D01*
X059811Y044490D02*
X059811Y044950D01*
X059581Y044950D01*
X059504Y044874D01*
X059504Y044720D01*
X059581Y044643D01*
X059351Y044797D02*
X059197Y044950D01*
X059197Y044490D01*
X059123Y045365D02*
X059430Y045365D01*
X059123Y045672D01*
X059123Y045749D01*
X059200Y045825D01*
X059353Y045825D01*
X059430Y045749D01*
X059737Y045825D02*
X059737Y045365D01*
X059890Y045365D02*
X059583Y045365D01*
X059890Y045672D02*
X059737Y045825D01*
X060197Y045825D02*
X060197Y045365D01*
X060044Y045365D02*
X060351Y045365D01*
X060504Y045365D02*
X060658Y045518D01*
X060581Y045518D02*
X060811Y045518D01*
X060811Y045365D02*
X060811Y045825D01*
X060581Y045825D01*
X060504Y045749D01*
X060504Y045595D01*
X060581Y045518D01*
X060351Y045672D02*
X060197Y045825D01*
X061583Y045595D02*
X061890Y045595D01*
X061660Y045825D01*
X061660Y045365D01*
X062044Y045442D02*
X062120Y045365D01*
X062274Y045365D01*
X062351Y045442D01*
X062504Y045365D02*
X062658Y045518D01*
X062581Y045518D02*
X062811Y045518D01*
X062811Y045365D02*
X062811Y045825D01*
X062581Y045825D01*
X062504Y045749D01*
X062504Y045595D01*
X062581Y045518D01*
X062351Y045749D02*
X062274Y045825D01*
X062120Y045825D01*
X062044Y045749D01*
X062044Y045672D01*
X062120Y045595D01*
X062044Y045518D01*
X062044Y045442D01*
X062120Y045595D02*
X062197Y045595D01*
X061811Y044720D02*
X061504Y044720D01*
X061351Y044643D02*
X061120Y044643D01*
X061044Y044720D01*
X061044Y044874D01*
X061120Y044950D01*
X061351Y044950D01*
X061351Y044490D01*
X061197Y044643D02*
X061044Y044490D01*
X060890Y044567D02*
X060813Y044490D01*
X060660Y044490D01*
X060583Y044567D01*
X060583Y044643D01*
X060660Y044720D01*
X060737Y044720D01*
X060660Y044720D02*
X060583Y044797D01*
X060583Y044874D01*
X060660Y044950D01*
X060813Y044950D01*
X060890Y044874D01*
X057969Y044874D02*
X057893Y044950D01*
X057739Y044950D01*
X057662Y044874D01*
X057662Y044797D01*
X057739Y044720D01*
X057662Y044643D01*
X057662Y044567D01*
X057739Y044720D02*
X057816Y044720D01*
X060803Y036093D02*
X060726Y036016D01*
X060726Y035863D01*
X060803Y035786D01*
X061110Y036093D01*
X060803Y036093D01*
X061110Y036093D02*
X061186Y036016D01*
X061186Y035863D01*
X061110Y035786D01*
X060803Y035786D01*
X060726Y035632D02*
X060726Y035325D01*
X061033Y035632D01*
X061110Y035632D01*
X061186Y035556D01*
X061186Y035402D01*
X061110Y035325D01*
X061110Y035172D02*
X060956Y035172D01*
X060879Y035095D01*
X060879Y034865D01*
X060726Y034865D02*
X061186Y034865D01*
X061186Y035095D01*
X061110Y035172D01*
X060879Y035018D02*
X060726Y035172D01*
X057110Y016087D02*
X056956Y016087D01*
X056879Y016010D01*
X056879Y015780D01*
X056726Y015780D02*
X057186Y015780D01*
X057186Y016010D01*
X057110Y016087D01*
X057446Y015870D02*
X057446Y015570D01*
X057186Y015473D02*
X056726Y015473D01*
X056726Y015626D02*
X056726Y015319D01*
X056591Y015320D02*
X056591Y015610D01*
X056485Y015337D02*
X056331Y015337D01*
X056254Y015260D01*
X056254Y015030D01*
X056101Y015030D02*
X056561Y015030D01*
X056561Y015260D01*
X056485Y015337D01*
X056726Y015089D02*
X056803Y015166D01*
X056821Y015120D02*
X056821Y014820D01*
X056803Y014859D02*
X056726Y014936D01*
X056726Y015089D01*
X056803Y014859D02*
X057110Y014859D01*
X057186Y014936D01*
X057186Y015089D01*
X057110Y015166D01*
X057033Y015319D02*
X057186Y015473D01*
X057341Y015110D02*
X057341Y014820D01*
X056561Y014799D02*
X056485Y014876D01*
X056408Y014876D01*
X056331Y014799D01*
X056254Y014876D01*
X056178Y014876D01*
X056101Y014799D01*
X056101Y014646D01*
X056178Y014569D01*
X056178Y014416D02*
X056101Y014339D01*
X056101Y014186D01*
X056178Y014109D01*
X056485Y014109D01*
X056561Y014186D01*
X056561Y014339D01*
X056485Y014416D01*
X056485Y014569D02*
X056561Y014646D01*
X056561Y014799D01*
X056331Y014799D02*
X056331Y014723D01*
X055811Y014686D02*
X055735Y014609D01*
X055428Y014609D01*
X055351Y014686D01*
X055351Y014839D01*
X055428Y014916D01*
X055485Y014990D02*
X055178Y014990D01*
X055101Y015067D01*
X055101Y015220D01*
X055178Y015297D01*
X055351Y015376D02*
X055351Y015069D01*
X055658Y015376D01*
X055735Y015376D01*
X055811Y015299D01*
X055811Y015146D01*
X055735Y015069D01*
X055735Y014916D02*
X055811Y014839D01*
X055811Y014686D01*
X055485Y014990D02*
X055561Y015067D01*
X055561Y015220D01*
X055485Y015297D01*
X055331Y015450D02*
X055561Y015681D01*
X055101Y015681D01*
X055101Y015911D02*
X055561Y015911D01*
X055561Y016141D01*
X055485Y016218D01*
X055331Y016218D01*
X055254Y016141D01*
X055254Y015911D01*
X055331Y015757D02*
X055331Y015450D01*
X055351Y015530D02*
X055811Y015530D01*
X055811Y015760D01*
X055735Y015837D01*
X055581Y015837D01*
X055504Y015760D01*
X055504Y015530D01*
X056071Y015620D02*
X056071Y015320D01*
X054841Y015320D02*
X054841Y015620D01*
X054321Y015620D02*
X054321Y015330D01*
X052561Y014885D02*
X052485Y014962D01*
X052331Y014962D01*
X052254Y014885D01*
X052254Y014655D01*
X052101Y014655D02*
X052561Y014655D01*
X052561Y014885D01*
X052561Y014501D02*
X052561Y014194D01*
X052331Y014194D01*
X052408Y014348D01*
X052408Y014424D01*
X052331Y014501D01*
X052178Y014501D01*
X052101Y014424D01*
X052101Y014271D01*
X052178Y014194D01*
X052101Y014041D02*
X052254Y013887D01*
X052254Y013964D02*
X052254Y013734D01*
X052101Y013734D02*
X052561Y013734D01*
X052561Y013964D01*
X052485Y014041D01*
X052331Y014041D01*
X052254Y013964D01*
X049391Y014340D02*
X049391Y015100D01*
X048771Y015100D02*
X048771Y014340D01*
X048561Y014319D02*
X048331Y014319D01*
X048408Y014473D01*
X048408Y014549D01*
X048331Y014626D01*
X048178Y014626D01*
X048101Y014549D01*
X048101Y014396D01*
X048178Y014319D01*
X048178Y014166D02*
X048101Y014089D01*
X048101Y013936D01*
X048178Y013859D01*
X048485Y013859D01*
X048561Y013936D01*
X048561Y014089D01*
X048485Y014166D01*
X048561Y014319D02*
X048561Y014626D01*
X048561Y014780D02*
X048561Y015010D01*
X048485Y015087D01*
X048331Y015087D01*
X048254Y015010D01*
X048254Y014780D01*
X048101Y014780D02*
X048561Y014780D01*
X047561Y014780D02*
X047561Y015010D01*
X047485Y015087D01*
X047331Y015087D01*
X047254Y015010D01*
X047254Y014780D01*
X047101Y014780D02*
X047561Y014780D01*
X047561Y014626D02*
X047485Y014473D01*
X047331Y014319D01*
X047331Y014549D01*
X047254Y014626D01*
X047178Y014626D01*
X047101Y014549D01*
X047101Y014396D01*
X047178Y014319D01*
X047331Y014319D01*
X047331Y014166D02*
X047254Y014089D01*
X047254Y013859D01*
X047101Y013859D02*
X047561Y013859D01*
X047561Y014089D01*
X047485Y014166D01*
X047331Y014166D01*
X047254Y014012D02*
X047101Y014166D01*
X047285Y011325D02*
X047208Y011249D01*
X047208Y011095D01*
X047285Y011018D01*
X047515Y011018D01*
X047515Y010865D02*
X047515Y011325D01*
X047285Y011325D01*
X047669Y011249D02*
X047745Y011325D01*
X047899Y011325D01*
X047976Y011249D01*
X047976Y011172D01*
X047899Y011095D01*
X047669Y011095D01*
X047669Y010942D02*
X047669Y011249D01*
X047669Y010942D02*
X047745Y010865D01*
X047899Y010865D01*
X047976Y010942D01*
X048129Y010865D02*
X048283Y011018D01*
X048206Y011018D02*
X048436Y011018D01*
X048436Y010865D02*
X048436Y011325D01*
X048206Y011325D01*
X048129Y011249D01*
X048129Y011095D01*
X048206Y011018D01*
X054726Y011155D02*
X054726Y011462D01*
X054726Y011308D02*
X055186Y011308D01*
X055033Y011155D01*
X055110Y011001D02*
X054956Y011001D01*
X054879Y010924D01*
X054879Y010694D01*
X054726Y010694D02*
X055186Y010694D01*
X055186Y010924D01*
X055110Y011001D01*
X055110Y010541D02*
X055186Y010464D01*
X055186Y010311D01*
X055110Y010234D01*
X055033Y010234D01*
X054956Y010311D01*
X054956Y010541D01*
X054803Y010541D02*
X055110Y010541D01*
X054803Y010541D02*
X054726Y010464D01*
X054726Y010311D01*
X054803Y010234D01*
X054726Y010080D02*
X054879Y009927D01*
X054879Y010004D02*
X054879Y009773D01*
X054726Y009773D02*
X055186Y009773D01*
X055186Y010004D01*
X055110Y010080D01*
X054956Y010080D01*
X054879Y010004D01*
X056873Y010865D02*
X057180Y010865D01*
X056873Y011172D01*
X056873Y011249D01*
X056950Y011325D01*
X057103Y011325D01*
X057180Y011249D01*
X057333Y011249D02*
X057333Y011095D01*
X057410Y011018D01*
X057640Y011018D01*
X057640Y010865D02*
X057640Y011325D01*
X057410Y011325D01*
X057333Y011249D01*
X057794Y011249D02*
X057870Y011325D01*
X058024Y011325D01*
X058101Y011249D01*
X058101Y011172D01*
X058024Y011095D01*
X057794Y011095D01*
X057794Y010942D02*
X057794Y011249D01*
X057794Y010942D02*
X057870Y010865D01*
X058024Y010865D01*
X058101Y010942D01*
X058254Y010865D02*
X058408Y011018D01*
X058331Y011018D02*
X058561Y011018D01*
X058561Y010865D02*
X058561Y011325D01*
X058331Y011325D01*
X058254Y011249D01*
X058254Y011095D01*
X058331Y011018D01*
X059583Y011095D02*
X059660Y011018D01*
X059890Y011018D01*
X059890Y010865D02*
X059890Y011325D01*
X059660Y011325D01*
X059583Y011249D01*
X059583Y011095D01*
X060044Y011018D02*
X060044Y010942D01*
X060120Y010865D01*
X060274Y010865D01*
X060351Y010942D01*
X060351Y011018D01*
X060274Y011095D01*
X060120Y011095D01*
X060044Y011018D01*
X060120Y011095D02*
X060044Y011172D01*
X060044Y011249D01*
X060120Y011325D01*
X060274Y011325D01*
X060351Y011249D01*
X060351Y011172D01*
X060274Y011095D01*
X060504Y011095D02*
X060581Y011018D01*
X060811Y011018D01*
X060811Y010865D02*
X060811Y011325D01*
X060581Y011325D01*
X060504Y011249D01*
X060504Y011095D01*
X060658Y011018D02*
X060504Y010865D01*
X057966Y015570D02*
X057966Y015860D01*
X058666Y004075D02*
X058820Y004075D01*
X058896Y003999D01*
X059050Y003999D02*
X059050Y003845D01*
X059127Y003768D01*
X059357Y003768D01*
X059357Y003615D02*
X059357Y004075D01*
X059127Y004075D01*
X059050Y003999D01*
X059203Y003768D02*
X059050Y003615D01*
X058896Y003615D02*
X058589Y003922D01*
X058589Y003999D01*
X058666Y004075D01*
X058589Y003615D02*
X058896Y003615D01*
X059510Y003692D02*
X059817Y003999D01*
X059664Y003999D02*
X059664Y003692D01*
X059817Y003692D02*
X059510Y003999D01*
X059510Y003845D02*
X059817Y003845D01*
X013686Y048567D02*
X013610Y048490D01*
X013303Y048490D01*
X013226Y048567D01*
X013226Y048720D01*
X013303Y048797D01*
X013226Y048950D02*
X013533Y049257D01*
X013610Y049257D01*
X013686Y049181D01*
X013686Y049027D01*
X013610Y048950D01*
X013610Y048797D02*
X013686Y048720D01*
X013686Y048567D01*
X013226Y048950D02*
X013226Y049257D01*
X013226Y049411D02*
X013686Y049411D01*
X013456Y049411D02*
X013456Y049718D01*
X013303Y049871D02*
X013226Y049948D01*
X013226Y050101D01*
X013303Y050178D01*
X013610Y050178D02*
X013686Y050101D01*
X013686Y049948D01*
X013610Y049871D01*
X013303Y049871D01*
X013226Y049718D02*
X013686Y049718D01*
X013016Y049350D02*
X013016Y048590D01*
X012396Y048590D02*
X012396Y049350D01*
X048839Y056865D02*
X049146Y056865D01*
X048993Y056865D02*
X048993Y057325D01*
X049146Y057172D01*
X049300Y057325D02*
X049607Y057325D01*
X049607Y056865D01*
X049300Y056865D01*
X049453Y057095D02*
X049607Y057095D01*
X049760Y056942D02*
X049837Y056865D01*
X049990Y056865D01*
X050067Y056942D01*
X050067Y057249D01*
X049990Y057325D01*
X049837Y057325D01*
X049760Y057249D01*
X049356Y057585D02*
X049056Y057585D01*
X049066Y058105D02*
X049356Y058105D01*
X052101Y061365D02*
X052561Y061365D01*
X052561Y061595D01*
X052485Y061672D01*
X052331Y061672D01*
X052254Y061595D01*
X052254Y061365D01*
X052254Y061518D02*
X052101Y061672D01*
X052331Y061825D02*
X052331Y062132D01*
X052101Y062056D02*
X052561Y062056D01*
X052331Y061825D01*
X053856Y063305D02*
X053748Y063413D01*
X053748Y063522D01*
X053965Y063739D01*
X054074Y063739D01*
X054182Y063630D01*
X054182Y063522D01*
X054128Y063468D01*
X054019Y063468D01*
X053856Y063630D01*
X053856Y063305D02*
X053965Y063305D01*
X054019Y063142D02*
X054236Y063142D01*
X054182Y063196D02*
X054345Y063034D01*
X054236Y062925D02*
X054562Y063251D01*
X054399Y063413D01*
X054291Y063413D01*
X054182Y063305D01*
X054182Y063196D01*
X056925Y062470D02*
X056979Y062524D01*
X057088Y062524D01*
X057250Y062362D01*
X057142Y062253D01*
X057033Y062253D01*
X056925Y062362D01*
X056925Y062470D01*
X057250Y062579D02*
X057250Y062362D01*
X057359Y062253D02*
X057467Y062362D01*
X057576Y062362D01*
X057739Y062199D01*
X057413Y061873D01*
X057522Y061982D02*
X057359Y062145D01*
X057359Y062253D01*
X057413Y062090D02*
X057196Y062090D01*
X057250Y062579D02*
X057196Y062741D01*
X055817Y060200D02*
X055587Y060200D01*
X055510Y060124D01*
X055510Y059970D01*
X055587Y059893D01*
X055817Y059893D01*
X055817Y059740D02*
X055817Y060200D01*
X055664Y059893D02*
X055510Y059740D01*
X055357Y059740D02*
X055050Y059740D01*
X055203Y059740D02*
X055203Y060200D01*
X055357Y060047D01*
X054896Y060124D02*
X054820Y060200D01*
X054666Y060200D01*
X054589Y060124D01*
X054896Y059817D01*
X054820Y059740D01*
X054666Y059740D01*
X054589Y059817D01*
X054589Y060124D01*
X054896Y060124D02*
X054896Y059817D01*
X055916Y057700D02*
X055839Y057624D01*
X055839Y057547D01*
X055916Y057470D01*
X056070Y057470D01*
X056146Y057547D01*
X056146Y057624D01*
X056070Y057700D01*
X055916Y057700D01*
X055916Y057470D02*
X055839Y057393D01*
X055839Y057317D01*
X055916Y057240D01*
X056070Y057240D01*
X056146Y057317D01*
X056146Y057393D01*
X056070Y057470D01*
X056300Y057470D02*
X056377Y057393D01*
X056607Y057393D01*
X056607Y057240D02*
X056607Y057700D01*
X056377Y057700D01*
X056300Y057624D01*
X056300Y057470D01*
X056453Y057393D02*
X056300Y057240D01*
X056377Y056825D02*
X056300Y056749D01*
X056300Y056595D01*
X056377Y056518D01*
X056607Y056518D01*
X056607Y056365D02*
X056607Y056825D01*
X056377Y056825D01*
X056146Y056825D02*
X056146Y056595D01*
X055993Y056672D01*
X055916Y056672D01*
X055839Y056595D01*
X055839Y056442D01*
X055916Y056365D01*
X056070Y056365D01*
X056146Y056442D01*
X056300Y056365D02*
X056453Y056518D01*
X056146Y056825D02*
X055839Y056825D01*
X055311Y055385D02*
X055081Y055155D01*
X055081Y055462D01*
X054851Y055385D02*
X055311Y055385D01*
X055235Y055001D02*
X055311Y054924D01*
X055311Y054771D01*
X055235Y054694D01*
X055235Y054541D02*
X055081Y054541D01*
X055004Y054464D01*
X055004Y054234D01*
X054851Y054234D02*
X055311Y054234D01*
X055311Y054464D01*
X055235Y054541D01*
X055004Y054387D02*
X054851Y054541D01*
X054851Y054694D02*
X055158Y055001D01*
X055235Y055001D01*
X054851Y055001D02*
X054851Y054694D01*
D12*
X055664Y057344D03*
X056244Y057344D03*
X056244Y058219D03*
X055664Y058219D03*
X054994Y060719D03*
X054414Y060719D03*
G36*
X054016Y062798D02*
X054197Y062617D01*
X053810Y062230D01*
X053629Y062411D01*
X054016Y062798D01*
G37*
G36*
X053606Y063208D02*
X053787Y063027D01*
X053400Y062640D01*
X053219Y062821D01*
X053606Y063208D01*
G37*
X060293Y044846D03*
X060873Y044846D03*
X061293Y043971D03*
X061873Y043971D03*
X062293Y044846D03*
X062873Y044846D03*
X059873Y043971D03*
X059293Y043971D03*
X048119Y032719D03*
X047539Y032719D03*
X044248Y032471D03*
X043668Y032471D03*
X058414Y004594D03*
X058994Y004594D03*
X016498Y004596D03*
X015918Y004596D03*
X003244Y010219D03*
X002664Y010219D03*
X002664Y011219D03*
X003244Y011219D03*
D13*
X045081Y034450D03*
X045081Y035490D03*
X055831Y054575D03*
X055831Y055615D03*
X048081Y015240D03*
X048081Y014200D03*
X055706Y011615D03*
X055706Y010575D03*
D14*
X053081Y014040D03*
X053081Y015150D03*
X032081Y033540D03*
X032081Y034650D03*
X030706Y036040D03*
X030706Y037150D03*
D15*
X044080Y034262D03*
X044080Y033682D03*
X045207Y032383D03*
X045207Y031803D03*
X046207Y031803D03*
X046207Y032383D03*
X046205Y034932D03*
X046205Y035512D03*
X048205Y035387D03*
X048205Y034807D03*
X049205Y034807D03*
X049205Y035387D03*
X050205Y035387D03*
X050205Y034807D03*
X051205Y034807D03*
X051205Y035387D03*
X052205Y035387D03*
X052205Y034807D03*
X053205Y034807D03*
X053205Y035387D03*
X050957Y033008D03*
X050957Y032428D03*
X049957Y033053D03*
X049957Y033633D03*
X060207Y034803D03*
X060207Y035383D03*
X051582Y061303D03*
X051582Y061883D03*
X021455Y007762D03*
X021455Y007182D03*
X020455Y007182D03*
X020455Y007762D03*
X017955Y004012D03*
X017955Y003432D03*
X016207Y003383D03*
X016207Y002803D03*
X019205Y002137D03*
X019205Y001557D03*
X021207Y002928D03*
X021207Y003508D03*
D16*
X047436Y010345D03*
X048476Y010345D03*
X057561Y010345D03*
X058601Y010345D03*
X048226Y031845D03*
X047186Y031845D03*
X047101Y033595D03*
X046061Y033595D03*
X042976Y034345D03*
X041936Y034345D03*
G36*
X057215Y061823D02*
X057420Y061618D01*
X056933Y061131D01*
X056728Y061336D01*
X057215Y061823D01*
G37*
G36*
X056479Y062559D02*
X056684Y062354D01*
X056197Y061867D01*
X055992Y062072D01*
X056479Y062559D01*
G37*
D17*
X049494Y057845D03*
X048924Y057845D03*
X043113Y035470D03*
X042543Y035470D03*
X049299Y031845D03*
X049869Y031845D03*
X019738Y005095D03*
X019168Y005095D03*
D18*
X061756Y007764D02*
X061756Y007914D01*
X061831Y007989D01*
X061756Y008149D02*
X062056Y008449D01*
X062131Y008449D01*
X062206Y008374D01*
X062206Y008224D01*
X062131Y008149D01*
X062131Y007989D02*
X062206Y007914D01*
X062206Y007764D01*
X062131Y007689D01*
X061831Y007689D01*
X061756Y007764D01*
X061756Y008149D02*
X061756Y008449D01*
X061756Y008760D02*
X061981Y008760D01*
X062131Y008910D01*
X062206Y008910D01*
X061981Y008760D02*
X062131Y008610D01*
X062206Y008610D01*
X062631Y008135D02*
X062856Y008135D01*
X063006Y008285D01*
X063081Y008285D01*
X062856Y008135D02*
X063006Y007985D01*
X063081Y007985D01*
X063081Y007674D02*
X062631Y007674D01*
X062631Y007524D02*
X062631Y007824D01*
X062931Y007524D02*
X063081Y007674D01*
X063006Y007364D02*
X063081Y007289D01*
X063081Y007139D01*
X063006Y007064D01*
X062706Y007064D01*
X062631Y007139D01*
X062631Y007289D01*
X062706Y007364D01*
D19*
X063706Y009270D03*
X062831Y009895D03*
D20*
X057081Y014682D03*
X057081Y015252D03*
X057706Y015432D03*
X057706Y016002D03*
X056331Y015752D03*
X056331Y015182D03*
X054581Y015188D03*
X054581Y015758D03*
X039206Y032813D03*
X039206Y033383D03*
X028456Y033182D03*
X028456Y033752D03*
D21*
X014956Y025617D03*
X014956Y024573D03*
X012706Y048448D03*
X012706Y049492D03*
X049081Y015242D03*
X049081Y014198D03*
D22*
X059991Y010345D03*
X060671Y010345D03*
D23*
X047206Y034880D03*
X047206Y035560D03*
M02*
