G75*
G70*
%OFA0B0*%
%FSLAX24Y24*%
%IPPOS*%
%LPD*%
%AMOC8*
5,1,8,0,0,1.08239X$1,22.5*
%
%ADD10C,0.0160*%
%ADD11C,0.0240*%
%ADD12C,0.0051*%
%ADD13C,0.0110*%
%ADD14C,0.0050*%
%ADD15C,0.0010*%
%ADD16C,0.0060*%
%ADD17C,0.0070*%
%ADD18C,0.0320*%
%ADD19C,0.0120*%
%ADD20C,0.0040*%
%ADD21R,0.0240X0.0340*%
%ADD22R,0.0200X0.1000*%
%ADD23R,0.0200X0.0200*%
%ADD24C,0.0080*%
%ADD25C,0.0100*%
%ADD26R,0.0118X0.0827*%
%ADD27R,0.1000X0.0200*%
%ADD28C,0.0020*%
%ADD29C,0.0025*%
%ADD30C,0.0098*%
%ADD31R,0.0551X0.0256*%
%ADD32R,0.0290X0.0690*%
%ADD33C,0.0000*%
D10*
X026025Y017038D02*
X027275Y017038D01*
X028650Y016163D01*
X026025Y017038D02*
X025150Y018413D01*
X024900Y022100D02*
X024900Y023100D01*
X019900Y020538D02*
X019400Y020163D01*
X015650Y020163D01*
X015025Y021913D01*
D11*
X017150Y018725D02*
X017150Y018325D01*
X017150Y015125D02*
X017150Y014725D01*
X016900Y013225D02*
X016900Y012825D01*
X016900Y009625D02*
X016900Y009225D01*
X003975Y019275D02*
X003275Y019275D01*
X003275Y021175D02*
X003975Y021175D01*
X010650Y027025D02*
X011350Y027025D01*
X011350Y028925D02*
X010650Y028925D01*
X032838Y019538D02*
X032838Y014413D01*
X046088Y031100D02*
X046088Y031500D01*
X046088Y034700D02*
X046088Y035100D01*
D12*
X000150Y003038D02*
X000150Y000126D01*
X000150Y000913D02*
X001174Y000811D01*
X001174Y000787D02*
X000150Y000913D01*
X001174Y001015D01*
X001174Y001039D02*
X001174Y000787D01*
X001174Y000862D02*
X000150Y000913D01*
X001174Y000964D01*
X001174Y001039D02*
X000150Y000913D01*
X066525Y000913D01*
X065501Y000811D01*
X065501Y000787D02*
X066525Y000913D01*
X065501Y001015D01*
X065501Y001039D02*
X065501Y000787D01*
X065501Y000862D02*
X066525Y000913D01*
X065501Y000964D01*
X065501Y001039D02*
X066525Y000913D01*
X066525Y000126D02*
X066525Y003038D01*
X067400Y003663D02*
X070187Y003663D01*
X069400Y003663D02*
X069502Y004687D01*
X069526Y004687D02*
X069400Y003663D01*
X069298Y004687D01*
X069274Y004687D02*
X069526Y004687D01*
X069451Y004687D02*
X069400Y003663D01*
X069349Y004687D01*
X069274Y004687D02*
X069400Y003663D01*
X069400Y047913D01*
X069502Y046889D01*
X069526Y046889D02*
X069400Y047913D01*
X069298Y046889D01*
X069274Y046889D02*
X069526Y046889D01*
X069451Y046889D02*
X069400Y047913D01*
X069349Y046889D01*
X069274Y046889D02*
X069400Y047913D01*
X070187Y047913D02*
X067150Y047913D01*
D13*
X068317Y028603D02*
X068317Y027757D01*
X067682Y028392D01*
X068951Y028392D01*
X068951Y027334D02*
X068740Y027334D01*
X068740Y027123D01*
X068951Y027123D01*
X068951Y027334D01*
X068951Y026700D02*
X068951Y025854D01*
X068105Y026700D01*
X067894Y026700D01*
X067682Y026488D01*
X067682Y026065D01*
X067894Y025854D01*
X067682Y025008D02*
X068951Y025008D01*
X068951Y024585D02*
X068951Y025431D01*
X068105Y024585D02*
X067682Y025008D01*
X067682Y023739D02*
X068951Y023739D01*
X068951Y023316D02*
X068951Y024162D01*
X068105Y023316D02*
X067682Y023739D01*
X036933Y002419D02*
X036722Y002631D01*
X036298Y002631D01*
X036087Y002419D01*
X036087Y002208D01*
X036298Y001996D01*
X036933Y001996D01*
X036933Y001573D02*
X036933Y002419D01*
X036933Y001573D02*
X036722Y001362D01*
X036298Y001362D01*
X036087Y001573D01*
X035664Y001573D02*
X035453Y001362D01*
X035030Y001362D01*
X034818Y001573D01*
X034395Y001573D02*
X034395Y001362D01*
X034184Y001362D01*
X034184Y001573D01*
X034395Y001573D01*
X034818Y001996D02*
X035241Y002208D01*
X035453Y002208D01*
X035664Y001996D01*
X035664Y001573D01*
X034818Y001996D02*
X034818Y002631D01*
X035664Y002631D01*
X033761Y002419D02*
X033761Y002208D01*
X033550Y001996D01*
X033126Y001996D01*
X032915Y002208D01*
X032915Y002419D01*
X033126Y002631D01*
X033550Y002631D01*
X033761Y002419D01*
X033550Y001996D02*
X033761Y001785D01*
X033761Y001573D01*
X033550Y001362D01*
X033126Y001362D01*
X032915Y001573D01*
X032915Y001785D01*
X033126Y001996D01*
X032492Y001785D02*
X032281Y001996D01*
X031646Y001996D01*
X031646Y001573D01*
X031858Y001362D01*
X032281Y001362D01*
X032492Y001573D01*
X032492Y001785D01*
X032069Y002419D02*
X031646Y001996D01*
X032069Y002419D02*
X032492Y002631D01*
X030800Y002631D02*
X030800Y001362D01*
X030377Y001362D02*
X031223Y001362D01*
X030377Y002208D02*
X030800Y002631D01*
D14*
X031400Y008350D02*
X018400Y008350D01*
X018710Y008692D02*
X018811Y008590D01*
X019015Y008590D01*
X019117Y008692D01*
X019117Y008794D01*
X019015Y008896D01*
X018913Y008896D01*
X019015Y008896D02*
X019117Y008998D01*
X019117Y009099D01*
X019015Y009201D01*
X018811Y009201D01*
X018710Y009099D01*
X018400Y008350D02*
X018346Y008352D01*
X018293Y008358D01*
X018241Y008367D01*
X018189Y008380D01*
X018138Y008397D01*
X018088Y008418D01*
X018041Y008442D01*
X017995Y008469D01*
X017951Y008500D01*
X017909Y008533D01*
X017870Y008570D01*
X017833Y008609D01*
X017800Y008651D01*
X017769Y008695D01*
X017742Y008741D01*
X017718Y008788D01*
X017697Y008838D01*
X017680Y008889D01*
X017667Y008941D01*
X017658Y008993D01*
X017652Y009046D01*
X017650Y009100D01*
X017650Y021850D01*
X018650Y022850D01*
X031400Y022850D01*
X030440Y022736D02*
X030033Y022736D01*
X030033Y022431D01*
X030236Y022533D01*
X030338Y022533D01*
X030440Y022431D01*
X030440Y022227D01*
X030338Y022125D01*
X030134Y022125D01*
X030033Y022227D01*
X029832Y022634D02*
X029425Y022227D01*
X029425Y022125D01*
X029832Y022634D02*
X029832Y022736D01*
X029425Y022736D01*
X030710Y021826D02*
X031117Y021826D01*
X031117Y021724D01*
X030710Y021317D01*
X030710Y021215D01*
X031317Y021521D02*
X031623Y021826D01*
X031623Y021215D01*
X031724Y021521D02*
X031317Y021521D01*
X032150Y022100D02*
X032148Y022154D01*
X032142Y022207D01*
X032133Y022259D01*
X032120Y022311D01*
X032103Y022362D01*
X032082Y022412D01*
X032058Y022459D01*
X032031Y022505D01*
X032000Y022549D01*
X031967Y022591D01*
X031930Y022630D01*
X031891Y022667D01*
X031849Y022700D01*
X031805Y022731D01*
X031759Y022758D01*
X031712Y022782D01*
X031662Y022803D01*
X031611Y022820D01*
X031559Y022833D01*
X031507Y022842D01*
X031454Y022848D01*
X031400Y022850D01*
X032150Y022100D02*
X032150Y009100D01*
X031623Y009465D02*
X031623Y010076D01*
X031317Y009771D01*
X031724Y009771D01*
X031117Y009771D02*
X031117Y009567D01*
X031015Y009465D01*
X030811Y009465D01*
X030710Y009567D01*
X030710Y009771D02*
X030913Y009873D01*
X031015Y009873D01*
X031117Y009771D01*
X031117Y010076D02*
X030710Y010076D01*
X030710Y009771D01*
X030338Y009111D02*
X030134Y009111D01*
X030033Y009009D01*
X029832Y009111D02*
X029425Y009111D01*
X029425Y008806D01*
X029629Y008908D01*
X029730Y008908D01*
X029832Y008806D01*
X029832Y008602D01*
X029730Y008500D01*
X029527Y008500D01*
X029425Y008602D01*
X030033Y008602D02*
X030134Y008500D01*
X030338Y008500D01*
X030440Y008602D01*
X030440Y008704D01*
X030338Y008806D01*
X030236Y008806D01*
X030338Y008806D02*
X030440Y008908D01*
X030440Y009009D01*
X030338Y009111D01*
X031400Y008350D02*
X031454Y008352D01*
X031507Y008358D01*
X031559Y008367D01*
X031611Y008380D01*
X031662Y008397D01*
X031712Y008418D01*
X031759Y008442D01*
X031805Y008469D01*
X031849Y008500D01*
X031891Y008533D01*
X031930Y008570D01*
X031967Y008609D01*
X032000Y008651D01*
X032031Y008695D01*
X032058Y008741D01*
X032082Y008788D01*
X032103Y008838D01*
X032120Y008889D01*
X032133Y008941D01*
X032142Y008993D01*
X032148Y009046D01*
X032150Y009100D01*
X019724Y009099D02*
X019724Y008998D01*
X019623Y008896D01*
X019724Y008794D01*
X019724Y008692D01*
X019623Y008590D01*
X019419Y008590D01*
X019317Y008692D01*
X019521Y008896D02*
X019623Y008896D01*
X019724Y009099D02*
X019623Y009201D01*
X019419Y009201D01*
X019317Y009099D01*
X018940Y009625D02*
X018533Y009625D01*
X018940Y010033D01*
X018940Y010134D01*
X018838Y010236D01*
X018634Y010236D01*
X018533Y010134D01*
X018332Y010134D02*
X018332Y010033D01*
X018230Y009931D01*
X018332Y009829D01*
X018332Y009727D01*
X018230Y009625D01*
X018027Y009625D01*
X017925Y009727D01*
X018129Y009931D02*
X018230Y009931D01*
X018332Y010134D02*
X018230Y010236D01*
X018027Y010236D01*
X017925Y010134D01*
X017100Y010030D02*
X016650Y010030D01*
X016650Y010255D01*
X016725Y010330D01*
X016875Y010330D01*
X016950Y010255D01*
X016950Y010030D01*
X016950Y010180D02*
X017100Y010330D01*
X017100Y010490D02*
X017025Y010490D01*
X016725Y010790D01*
X016650Y010790D01*
X016650Y010490D01*
X016900Y011009D02*
X016900Y011310D01*
X017050Y011470D02*
X017125Y011470D01*
X017050Y011470D02*
X016750Y011770D01*
X016675Y011770D01*
X016675Y011470D01*
X016675Y011235D02*
X016900Y011009D01*
X017125Y011235D02*
X016675Y011235D01*
X016750Y011930D02*
X016675Y012005D01*
X016675Y012155D01*
X016750Y012230D01*
X017050Y011930D01*
X017125Y012005D01*
X017125Y012155D01*
X017050Y012230D01*
X016750Y012230D01*
X016750Y011930D02*
X017050Y011930D01*
X015575Y010200D02*
X015075Y010200D01*
X015075Y002400D01*
X005775Y002400D01*
X005775Y010200D01*
X015075Y010200D01*
X015575Y010200D02*
X015575Y013700D01*
X014875Y014600D01*
X014875Y016600D01*
X005275Y016600D01*
X005275Y010200D01*
X005775Y010200D01*
X005775Y007000D02*
X005775Y006800D01*
X009332Y014425D02*
X009557Y014425D01*
X009632Y014501D01*
X009632Y014576D01*
X009557Y014651D01*
X009332Y014651D01*
X009332Y014876D02*
X009557Y014876D01*
X009632Y014801D01*
X009632Y014726D01*
X009557Y014651D01*
X009793Y014801D02*
X009793Y014501D01*
X009868Y014425D01*
X010018Y014425D01*
X010093Y014501D01*
X010253Y014501D02*
X010328Y014425D01*
X010478Y014425D01*
X010553Y014501D01*
X010553Y014576D01*
X010478Y014651D01*
X010403Y014651D01*
X010478Y014651D02*
X010553Y014726D01*
X010553Y014801D01*
X010478Y014876D01*
X010328Y014876D01*
X010253Y014801D01*
X010093Y014801D02*
X010018Y014876D01*
X009868Y014876D01*
X009793Y014801D01*
X009332Y014876D02*
X009332Y014425D01*
X010713Y014501D02*
X010788Y014425D01*
X010939Y014425D01*
X011014Y014501D01*
X011014Y014576D01*
X010939Y014651D01*
X010864Y014651D01*
X010939Y014651D02*
X011014Y014726D01*
X011014Y014801D01*
X010939Y014876D01*
X010788Y014876D01*
X010713Y014801D01*
X011174Y014876D02*
X011474Y014876D01*
X011474Y014801D01*
X011174Y014501D01*
X011174Y014425D01*
X011634Y014576D02*
X011634Y014726D01*
X011784Y014876D01*
X011941Y014876D02*
X011941Y014425D01*
X011941Y014576D02*
X012241Y014876D01*
X012401Y014876D02*
X012702Y014876D01*
X012552Y014876D02*
X012552Y014425D01*
X012241Y014425D02*
X012016Y014651D01*
X011784Y014425D02*
X011634Y014576D01*
X012419Y015201D02*
X012569Y015050D01*
X012719Y015201D01*
X012719Y015501D01*
X012879Y015501D02*
X013179Y015501D01*
X013029Y015501D02*
X013029Y015050D01*
X013162Y014876D02*
X012862Y014876D01*
X012862Y014651D01*
X013012Y014726D01*
X013087Y014726D01*
X013162Y014651D01*
X013162Y014501D01*
X013087Y014425D01*
X012937Y014425D01*
X012862Y014501D01*
X013322Y014501D02*
X013623Y014801D01*
X013623Y014501D01*
X013547Y014425D01*
X013397Y014425D01*
X013322Y014501D01*
X013322Y014801D01*
X013397Y014876D01*
X013547Y014876D01*
X013623Y014801D01*
X013783Y014801D02*
X013858Y014876D01*
X014008Y014876D01*
X014083Y014801D01*
X014083Y014726D01*
X014008Y014651D01*
X014083Y014576D01*
X014083Y014501D01*
X014008Y014425D01*
X013858Y014425D01*
X013783Y014501D01*
X013933Y014651D02*
X014008Y014651D01*
X014243Y014876D02*
X014393Y014726D01*
X014393Y014576D01*
X014243Y014425D01*
X013640Y015050D02*
X013340Y015050D01*
X013490Y015050D02*
X013490Y015501D01*
X013340Y015351D01*
X012419Y015501D02*
X012419Y015201D01*
X014600Y017677D02*
X014600Y018173D01*
X014600Y018278D01*
X014600Y019173D01*
X014600Y019278D01*
X014600Y019774D01*
X014000Y019550D02*
X014000Y017901D01*
X014000Y017900D02*
X014050Y017863D01*
X014102Y017829D01*
X014156Y017798D01*
X014212Y017771D01*
X014600Y017676D02*
X014664Y017675D01*
X014728Y017678D01*
X014792Y017685D01*
X014855Y017695D01*
X014917Y017710D01*
X014978Y017728D01*
X015039Y017750D01*
X015097Y017775D01*
X014600Y017676D02*
X014541Y017681D01*
X014483Y017688D01*
X014425Y017699D01*
X014368Y017714D01*
X014312Y017731D01*
X014257Y017751D01*
X014203Y017775D01*
X014600Y019774D02*
X014664Y019775D01*
X014728Y019772D01*
X014792Y019765D01*
X014855Y019755D01*
X014917Y019740D01*
X014978Y019722D01*
X015039Y019700D01*
X015097Y019675D01*
X014203Y019676D02*
X014149Y019649D01*
X014098Y019619D01*
X014048Y019586D01*
X014000Y019551D01*
X015097Y019675D02*
X015154Y019646D01*
X015210Y019613D01*
X015263Y019578D01*
X015314Y019538D01*
X015362Y019496D01*
X015408Y019451D01*
X015451Y019404D01*
X015491Y019354D01*
X015528Y019301D01*
X015561Y019246D01*
X015592Y019190D01*
X015618Y019131D01*
X015641Y019071D01*
X015661Y019010D01*
X015676Y018948D01*
X015688Y018885D01*
X015696Y018821D01*
X015700Y018757D01*
X015700Y018693D01*
X015696Y018629D01*
X015688Y018565D01*
X015676Y018502D01*
X015661Y018440D01*
X015641Y018379D01*
X015618Y018319D01*
X015592Y018260D01*
X015561Y018204D01*
X015528Y018149D01*
X015491Y018096D01*
X015451Y018046D01*
X015408Y017999D01*
X015362Y017954D01*
X015314Y017912D01*
X015263Y017872D01*
X015210Y017837D01*
X015154Y017804D01*
X015097Y017775D01*
X014600Y019774D02*
X014541Y019769D01*
X014483Y019762D01*
X014425Y019751D01*
X014368Y019736D01*
X014312Y019719D01*
X014257Y019699D01*
X014203Y019675D01*
X016700Y020951D02*
X017150Y020951D01*
X017150Y021101D02*
X017150Y020800D01*
X016850Y020800D02*
X016700Y020951D01*
X017925Y021125D02*
X018332Y021125D01*
X018533Y021125D02*
X018940Y021533D01*
X018940Y021634D01*
X018838Y021736D01*
X018634Y021736D01*
X018533Y021634D01*
X018129Y021736D02*
X018129Y021125D01*
X018533Y021125D02*
X018940Y021125D01*
X018129Y021736D02*
X017925Y021533D01*
X019425Y022125D02*
X019832Y022125D01*
X020033Y022125D02*
X020440Y022125D01*
X020236Y022125D02*
X020236Y022736D01*
X020033Y022533D01*
X019629Y022736D02*
X019629Y022125D01*
X019425Y022533D02*
X019629Y022736D01*
X019618Y024913D02*
X019393Y024913D01*
X019318Y024988D01*
X019393Y025063D01*
X019618Y025063D01*
X019618Y025138D02*
X019618Y024913D01*
X019778Y024913D02*
X020004Y024913D01*
X020079Y024988D01*
X020004Y025063D01*
X019853Y025063D01*
X019778Y025138D01*
X019853Y025213D01*
X020079Y025213D01*
X020239Y025213D02*
X020389Y025213D01*
X020314Y025288D02*
X020314Y024988D01*
X020389Y024913D01*
X020546Y024988D02*
X020546Y025138D01*
X020621Y025213D01*
X020771Y025213D01*
X020846Y025138D01*
X020846Y025063D01*
X020546Y025063D01*
X020546Y024988D02*
X020621Y024913D01*
X020771Y024913D01*
X021006Y024913D02*
X021006Y025213D01*
X021006Y025063D02*
X021156Y025213D01*
X021231Y025213D01*
X021602Y025750D02*
X021602Y025826D01*
X021903Y026126D01*
X021903Y026201D01*
X021602Y026201D01*
X022063Y025976D02*
X022363Y025976D01*
X022288Y026201D02*
X022063Y025976D01*
X022288Y025750D02*
X022288Y026201D01*
X022523Y026201D02*
X022523Y025750D01*
X022823Y025750D01*
X022983Y025826D02*
X023058Y025750D01*
X023209Y025750D01*
X023284Y025826D01*
X023284Y025901D01*
X023209Y025976D01*
X023058Y025976D01*
X022983Y026051D01*
X022983Y026126D01*
X023058Y026201D01*
X023209Y026201D01*
X023284Y026126D01*
X023444Y026201D02*
X023744Y026201D01*
X023744Y026126D01*
X023444Y025826D01*
X023444Y025750D01*
X023904Y025976D02*
X024204Y025976D01*
X024365Y026126D02*
X024365Y025826D01*
X024440Y025750D01*
X024590Y025750D01*
X024665Y025826D01*
X024665Y026126D01*
X024590Y026201D01*
X024440Y026201D01*
X024365Y026126D01*
X024129Y026201D02*
X023904Y025976D01*
X024129Y025750D02*
X024129Y026201D01*
X024219Y026463D02*
X023919Y026463D01*
X024219Y026763D01*
X024219Y026838D01*
X024144Y026913D01*
X023994Y026913D01*
X023919Y026838D01*
X023608Y026913D02*
X023608Y026463D01*
X023458Y026463D02*
X023759Y026463D01*
X023458Y026763D02*
X023608Y026913D01*
X023298Y026838D02*
X023223Y026913D01*
X022998Y026913D01*
X022998Y026463D01*
X023223Y026463D01*
X023298Y026538D01*
X023298Y026838D01*
X022838Y026838D02*
X022763Y026913D01*
X022538Y026913D01*
X022538Y026463D01*
X022763Y026463D01*
X022838Y026538D01*
X022838Y026838D01*
X019632Y026700D02*
X019332Y026700D01*
X019632Y027001D01*
X019332Y027001D01*
X019172Y026926D02*
X019097Y027001D01*
X018947Y027001D01*
X018872Y026926D01*
X018872Y027151D02*
X018872Y026700D01*
X018712Y026700D02*
X018712Y027151D01*
X018562Y027001D01*
X018411Y027151D01*
X018411Y026700D01*
X018251Y026776D02*
X018176Y026700D01*
X018026Y026700D01*
X017951Y026776D01*
X018101Y026926D02*
X018176Y026926D01*
X018251Y026851D01*
X018251Y026776D01*
X018176Y026926D02*
X018251Y027001D01*
X018251Y027076D01*
X018176Y027151D01*
X018026Y027151D01*
X017951Y027076D01*
X017791Y026926D02*
X017491Y026926D01*
X017716Y027151D01*
X017716Y026700D01*
X017335Y026700D02*
X017260Y026700D01*
X017260Y026776D01*
X017335Y026776D01*
X017335Y026700D01*
X017025Y026700D02*
X017025Y027151D01*
X016800Y026926D01*
X017100Y026926D01*
X017225Y026101D02*
X016925Y025650D01*
X016863Y025363D02*
X017088Y025363D01*
X017163Y025288D01*
X017163Y025213D01*
X017088Y025138D01*
X016863Y025138D01*
X017088Y025138D02*
X017163Y025063D01*
X017163Y024988D01*
X017088Y024913D01*
X016863Y024913D01*
X016863Y025363D01*
X017225Y025650D02*
X016925Y026101D01*
X017385Y026101D02*
X017385Y025876D01*
X017536Y025951D01*
X017611Y025951D01*
X017686Y025876D01*
X017686Y025726D01*
X017611Y025650D01*
X017460Y025650D01*
X017385Y025726D01*
X017385Y026101D02*
X017686Y026101D01*
X017858Y025288D02*
X017858Y024988D01*
X017933Y024913D01*
X018090Y024988D02*
X018090Y025138D01*
X018165Y025213D01*
X018315Y025213D01*
X018390Y025138D01*
X018390Y025063D01*
X018090Y025063D01*
X018090Y024988D02*
X018165Y024913D01*
X018315Y024913D01*
X018551Y024913D02*
X018776Y024913D01*
X018851Y024988D01*
X018851Y025063D01*
X018776Y025138D01*
X018551Y025138D01*
X018776Y025138D02*
X018851Y025213D01*
X018851Y025288D01*
X018776Y025363D01*
X018551Y025363D01*
X018551Y024913D01*
X019011Y024913D02*
X019161Y024913D01*
X019086Y024913D02*
X019086Y025363D01*
X019011Y025363D01*
X019393Y025213D02*
X019543Y025213D01*
X019618Y025138D01*
X017933Y025213D02*
X017783Y025213D01*
X017623Y025213D02*
X017623Y024838D01*
X017548Y024763D01*
X017473Y024763D01*
X017398Y024913D02*
X017623Y024913D01*
X017398Y024913D02*
X017323Y024988D01*
X017323Y025213D01*
X019172Y026700D02*
X019172Y026926D01*
X017686Y027550D02*
X017385Y027550D01*
X017686Y027851D01*
X017686Y027926D01*
X017611Y028001D01*
X017460Y028001D01*
X017385Y027926D01*
X017225Y027926D02*
X016925Y027626D01*
X016925Y027550D01*
X017225Y027550D01*
X017225Y027926D02*
X017225Y028001D01*
X016925Y028001D01*
X014350Y025486D02*
X014275Y025561D01*
X013975Y025561D01*
X014275Y025261D01*
X014350Y025336D01*
X014350Y025486D01*
X014275Y025261D02*
X013975Y025261D01*
X013900Y025336D01*
X013900Y025486D01*
X013975Y025561D01*
X013749Y025476D02*
X013674Y025551D01*
X013448Y025551D01*
X013448Y025100D01*
X013448Y025251D02*
X013674Y025251D01*
X013749Y025326D01*
X013749Y025476D01*
X013288Y025476D02*
X013213Y025551D01*
X013063Y025551D01*
X012988Y025476D01*
X012988Y025401D01*
X013063Y025326D01*
X013213Y025326D01*
X013288Y025251D01*
X013288Y025176D01*
X013213Y025100D01*
X013063Y025100D01*
X012988Y025176D01*
X012831Y025100D02*
X012681Y025100D01*
X012756Y025100D02*
X012756Y025551D01*
X012681Y025551D02*
X012831Y025551D01*
X012521Y025476D02*
X012521Y025326D01*
X012446Y025251D01*
X012221Y025251D01*
X012371Y025251D02*
X012521Y025100D01*
X012221Y025100D02*
X012221Y025551D01*
X012446Y025551D01*
X012521Y025476D01*
X012061Y025551D02*
X012061Y025251D01*
X011911Y025100D01*
X011760Y025251D01*
X011760Y025551D01*
X011600Y025401D02*
X011450Y025551D01*
X011300Y025401D01*
X011300Y025100D01*
X011300Y025026D02*
X011225Y025026D01*
X011150Y024951D01*
X011150Y024725D01*
X011300Y024725D01*
X011375Y024801D01*
X011375Y024951D01*
X011300Y025026D01*
X011300Y025326D02*
X011600Y025326D01*
X011600Y025401D02*
X011600Y025100D01*
X011150Y024725D02*
X011000Y024876D01*
X010925Y025026D01*
X010798Y025088D02*
X010873Y025163D01*
X010873Y025238D01*
X010798Y025313D01*
X010573Y025313D01*
X010573Y025163D01*
X010648Y025088D01*
X010798Y025088D01*
X010573Y025313D02*
X010723Y025463D01*
X010873Y025538D01*
X010413Y025538D02*
X010113Y025088D01*
X010413Y025088D02*
X010113Y025538D01*
X009493Y026700D02*
X009493Y027076D01*
X009568Y027151D01*
X009568Y026926D02*
X009418Y026926D01*
X009258Y026926D02*
X009258Y026700D01*
X009108Y026700D02*
X009108Y026926D01*
X009183Y027001D01*
X009258Y026926D01*
X009108Y026926D02*
X009033Y027001D01*
X008958Y027001D01*
X008958Y026700D01*
X008798Y026776D02*
X008722Y026700D01*
X008572Y026700D01*
X008497Y026776D01*
X008798Y027076D01*
X008798Y026776D01*
X008798Y027076D02*
X008722Y027151D01*
X008572Y027151D01*
X008497Y027076D01*
X008497Y026776D01*
X008337Y026700D02*
X008037Y026700D01*
X008187Y026700D02*
X008187Y027151D01*
X008037Y027001D01*
X008294Y027250D02*
X008444Y027250D01*
X008519Y027326D01*
X008679Y027326D02*
X008754Y027250D01*
X008904Y027250D01*
X008979Y027326D01*
X008979Y027401D01*
X008904Y027476D01*
X008679Y027476D01*
X008679Y027326D01*
X008679Y027476D02*
X008829Y027626D01*
X008979Y027701D01*
X009140Y027701D02*
X009365Y027701D01*
X009440Y027626D01*
X009440Y027476D01*
X009365Y027401D01*
X009140Y027401D01*
X009140Y027250D02*
X009140Y027701D01*
X008519Y027626D02*
X008444Y027701D01*
X008294Y027701D01*
X008219Y027626D01*
X008219Y027326D01*
X008294Y027250D01*
X006713Y024701D02*
X006713Y024250D01*
X006412Y024701D01*
X006412Y024250D01*
X006177Y024250D02*
X006177Y024701D01*
X005952Y024476D01*
X006252Y024476D01*
X005792Y024626D02*
X005792Y024326D01*
X005717Y024250D01*
X005567Y024250D01*
X005492Y024326D01*
X005792Y024626D01*
X005717Y024701D01*
X005567Y024701D01*
X005492Y024626D01*
X005492Y024326D01*
X005331Y024326D02*
X005256Y024250D01*
X005106Y024250D01*
X005031Y024326D01*
X005106Y024476D02*
X005256Y024476D01*
X005331Y024401D01*
X005331Y024326D01*
X005106Y024476D02*
X005031Y024551D01*
X005031Y024626D01*
X005106Y024701D01*
X005256Y024701D01*
X005331Y024626D01*
X004871Y024250D02*
X004571Y024250D01*
X004571Y024701D01*
X004336Y024701D02*
X004110Y024476D01*
X004411Y024476D01*
X004336Y024701D02*
X004336Y024250D01*
X003950Y024626D02*
X003650Y024326D01*
X003650Y024250D01*
X003650Y024701D02*
X003950Y024701D01*
X003950Y024626D01*
X002600Y024682D02*
X002600Y024982D01*
X002600Y024832D02*
X002150Y024832D01*
X002300Y024682D01*
X002600Y024522D02*
X002600Y024221D01*
X002600Y024371D02*
X002150Y024371D01*
X002300Y024221D01*
X002225Y024061D02*
X002150Y023986D01*
X002150Y023761D01*
X002600Y023761D01*
X002600Y023986D01*
X002525Y024061D01*
X002225Y024061D01*
X002225Y023601D02*
X002150Y023526D01*
X002150Y023300D01*
X002600Y023300D01*
X002600Y023526D01*
X002525Y023601D01*
X002225Y023601D01*
X002240Y021776D02*
X002240Y021325D01*
X002090Y021325D02*
X002390Y021325D01*
X002090Y021626D02*
X002240Y021776D01*
X001929Y021776D02*
X001929Y021701D01*
X001629Y021401D01*
X001629Y021325D01*
X001929Y021325D01*
X001754Y021001D02*
X001754Y020550D01*
X001594Y020550D02*
X001594Y021001D01*
X001444Y020851D01*
X001294Y021001D01*
X001294Y020550D01*
X001059Y020550D02*
X001059Y021001D01*
X000833Y020776D01*
X001134Y020776D01*
X000673Y020550D02*
X000373Y020550D01*
X000523Y020550D02*
X000523Y021001D01*
X000373Y020851D01*
X001754Y020776D02*
X001829Y020851D01*
X001979Y020851D01*
X002054Y020776D01*
X002054Y020550D01*
X002215Y020550D02*
X002515Y020851D01*
X002215Y020851D01*
X002215Y020550D02*
X002515Y020550D01*
X001929Y021776D02*
X001629Y021776D01*
X009467Y021261D02*
X009542Y021336D01*
X009692Y021336D01*
X009767Y021261D01*
X009767Y021185D01*
X009467Y020885D01*
X009767Y020885D01*
X009927Y020885D02*
X010228Y021185D01*
X010228Y021261D01*
X010153Y021336D01*
X010003Y021336D01*
X009927Y021261D01*
X009927Y020885D02*
X010228Y020885D01*
X010388Y020960D02*
X010688Y021261D01*
X010688Y020960D01*
X010613Y020885D01*
X010463Y020885D01*
X010388Y020960D01*
X010388Y021261D01*
X010463Y021336D01*
X010613Y021336D01*
X010688Y021261D01*
X010848Y021185D02*
X010923Y021185D01*
X010998Y021110D01*
X011073Y021185D01*
X011149Y021110D01*
X011149Y020885D01*
X010998Y020885D02*
X010998Y021110D01*
X010848Y021185D02*
X010848Y020885D01*
X011309Y021110D02*
X011459Y021110D01*
X011384Y021261D02*
X011384Y020885D01*
X011384Y021261D02*
X011459Y021336D01*
X010261Y021701D02*
X010186Y021625D01*
X010035Y021625D01*
X009960Y021701D01*
X009800Y021701D02*
X009725Y021625D01*
X009575Y021625D01*
X009500Y021701D01*
X009500Y022001D01*
X009575Y022076D01*
X009725Y022076D01*
X009800Y022001D01*
X009960Y022001D02*
X009960Y021926D01*
X010035Y021851D01*
X010261Y021851D01*
X010261Y022001D02*
X010186Y022076D01*
X010035Y022076D01*
X009960Y022001D01*
X010261Y022001D02*
X010261Y021701D01*
X012825Y022026D02*
X013275Y022026D01*
X013275Y022176D02*
X013275Y021875D01*
X012975Y021875D02*
X012825Y022026D01*
X014050Y024800D02*
X013900Y024951D01*
X014350Y024951D01*
X014350Y025101D02*
X014350Y024800D01*
X017000Y018005D02*
X016925Y017930D01*
X016925Y017780D01*
X017000Y017705D01*
X017075Y017546D02*
X017225Y017321D01*
X017375Y017546D01*
X017375Y017705D02*
X017075Y018005D01*
X017000Y018005D01*
X017375Y018005D02*
X017375Y017705D01*
X017375Y017321D02*
X016925Y017321D01*
X017000Y017161D02*
X016925Y017086D01*
X016925Y016936D01*
X017000Y016860D01*
X017000Y017161D02*
X017075Y017161D01*
X017375Y016860D01*
X017375Y017161D01*
X017125Y016540D02*
X017125Y016240D01*
X016900Y016465D01*
X017350Y016465D01*
X017350Y016080D02*
X017350Y015780D01*
X017050Y016080D01*
X016975Y016080D01*
X016900Y016005D01*
X016900Y015855D01*
X016975Y015780D01*
X016975Y015620D02*
X017125Y015620D01*
X017200Y015545D01*
X017200Y015319D01*
X017350Y015319D02*
X016900Y015319D01*
X016900Y015545D01*
X016975Y015620D01*
X017200Y015469D02*
X017350Y015620D01*
X009625Y033790D02*
X009625Y034090D01*
X009625Y033940D02*
X009175Y033940D01*
X009325Y033790D01*
X009465Y034475D02*
X009765Y034475D01*
X009615Y034475D02*
X009615Y034926D01*
X009465Y034776D01*
X009304Y034851D02*
X009304Y034701D01*
X009229Y034626D01*
X009004Y034626D01*
X009004Y034475D02*
X009004Y034926D01*
X009229Y034926D01*
X009304Y034851D01*
X008844Y034926D02*
X008694Y034926D01*
X008769Y034926D02*
X008769Y034551D01*
X008694Y034475D01*
X008619Y034475D01*
X008544Y034551D01*
X012583Y038500D02*
X012508Y038576D01*
X012508Y038876D01*
X012583Y038951D01*
X012734Y038951D01*
X012809Y038876D01*
X012969Y038876D02*
X012969Y038801D01*
X013044Y038726D01*
X013194Y038726D01*
X013269Y038651D01*
X013269Y038576D01*
X013194Y038500D01*
X013044Y038500D01*
X012969Y038576D01*
X012969Y038651D01*
X013044Y038726D01*
X013194Y038726D02*
X013269Y038801D01*
X013269Y038876D01*
X013194Y038951D01*
X013044Y038951D01*
X012969Y038876D01*
X012809Y038576D02*
X012734Y038500D01*
X012583Y038500D01*
X013429Y038500D02*
X013429Y038951D01*
X013654Y038951D01*
X013729Y038876D01*
X013729Y038726D01*
X013654Y038651D01*
X013429Y038651D01*
X013890Y038500D02*
X014190Y038801D01*
X014190Y038876D01*
X014115Y038951D01*
X013965Y038951D01*
X013890Y038876D01*
X013890Y038500D02*
X014190Y038500D01*
X014662Y038540D02*
X014737Y038464D01*
X014662Y038540D02*
X014662Y038690D01*
X014737Y038765D01*
X014812Y038765D01*
X015113Y038464D01*
X015113Y038765D01*
X015113Y038925D02*
X014812Y039225D01*
X014737Y039225D01*
X014662Y039150D01*
X014662Y039000D01*
X014737Y038925D01*
X015113Y038925D02*
X015113Y039225D01*
X015037Y039385D02*
X014737Y039686D01*
X015037Y039686D01*
X015113Y039610D01*
X015113Y039460D01*
X015037Y039385D01*
X014737Y039385D01*
X014662Y039460D01*
X014662Y039610D01*
X014737Y039686D01*
X014812Y039846D02*
X014812Y039921D01*
X014887Y039996D01*
X014812Y040071D01*
X014887Y040146D01*
X015113Y040146D01*
X015113Y039996D02*
X014887Y039996D01*
X014812Y039846D02*
X015113Y039846D01*
X014887Y040306D02*
X014887Y040456D01*
X014737Y040381D02*
X015113Y040381D01*
X014737Y040381D02*
X014662Y040456D01*
X015458Y038951D02*
X015383Y038876D01*
X015383Y038576D01*
X015458Y038500D01*
X015609Y038500D01*
X015684Y038576D01*
X015844Y038576D02*
X015844Y038651D01*
X015919Y038726D01*
X016069Y038726D01*
X016144Y038651D01*
X016144Y038576D01*
X016069Y038500D01*
X015919Y038500D01*
X015844Y038576D01*
X015919Y038726D02*
X015844Y038801D01*
X015844Y038876D01*
X015919Y038951D01*
X016069Y038951D01*
X016144Y038876D01*
X016144Y038801D01*
X016069Y038726D01*
X016304Y038651D02*
X016529Y038651D01*
X016604Y038726D01*
X016604Y038876D01*
X016529Y038951D01*
X016304Y038951D01*
X016304Y038500D01*
X016765Y038500D02*
X017065Y038500D01*
X016915Y038500D02*
X016915Y038951D01*
X016765Y038801D01*
X017412Y038690D02*
X017412Y038540D01*
X017487Y038464D01*
X017412Y038690D02*
X017487Y038765D01*
X017562Y038765D01*
X017863Y038464D01*
X017863Y038765D01*
X017863Y038925D02*
X017562Y039225D01*
X017487Y039225D01*
X017412Y039150D01*
X017412Y039000D01*
X017487Y038925D01*
X017863Y038925D02*
X017863Y039225D01*
X017787Y039385D02*
X017487Y039686D01*
X017787Y039686D01*
X017863Y039610D01*
X017863Y039460D01*
X017787Y039385D01*
X017487Y039385D01*
X017412Y039460D01*
X017412Y039610D01*
X017487Y039686D01*
X017562Y039846D02*
X017562Y039921D01*
X017637Y039996D01*
X017562Y040071D01*
X017637Y040146D01*
X017863Y040146D01*
X017863Y039996D02*
X017637Y039996D01*
X017562Y039846D02*
X017863Y039846D01*
X017637Y040306D02*
X017637Y040456D01*
X017487Y040381D02*
X017863Y040381D01*
X017487Y040381D02*
X017412Y040456D01*
X018794Y038951D02*
X018719Y038876D01*
X018719Y038576D01*
X018794Y038500D01*
X018944Y038500D01*
X019019Y038576D01*
X019179Y038576D02*
X019179Y038651D01*
X019254Y038726D01*
X019404Y038726D01*
X019479Y038651D01*
X019479Y038576D01*
X019404Y038500D01*
X019254Y038500D01*
X019179Y038576D01*
X019254Y038726D02*
X019179Y038801D01*
X019179Y038876D01*
X019254Y038951D01*
X019404Y038951D01*
X019479Y038876D01*
X019479Y038801D01*
X019404Y038726D01*
X019640Y038651D02*
X019865Y038651D01*
X019940Y038726D01*
X019940Y038876D01*
X019865Y038951D01*
X019640Y038951D01*
X019640Y038500D01*
X019019Y038876D02*
X018944Y038951D01*
X018794Y038951D01*
X020412Y039000D02*
X020487Y038925D01*
X020412Y039000D02*
X020412Y039150D01*
X020487Y039225D01*
X020562Y039225D01*
X020863Y038925D01*
X020863Y039225D01*
X020787Y039385D02*
X020487Y039686D01*
X020787Y039686D01*
X020863Y039610D01*
X020863Y039460D01*
X020787Y039385D01*
X020487Y039385D01*
X020412Y039460D01*
X020412Y039610D01*
X020487Y039686D01*
X020562Y039846D02*
X020562Y039921D01*
X020637Y039996D01*
X020562Y040071D01*
X020637Y040146D01*
X020863Y040146D01*
X020863Y039996D02*
X020637Y039996D01*
X020562Y039846D02*
X020863Y039846D01*
X021219Y039751D02*
X021219Y039451D01*
X021294Y039375D01*
X021444Y039375D01*
X021519Y039451D01*
X021679Y039375D02*
X021979Y039676D01*
X021979Y039751D01*
X021904Y039826D01*
X021754Y039826D01*
X021679Y039751D01*
X021519Y039751D02*
X021444Y039826D01*
X021294Y039826D01*
X021219Y039751D01*
X021679Y039375D02*
X021979Y039375D01*
X021829Y039151D02*
X021829Y038700D01*
X021679Y038700D02*
X021979Y038700D01*
X022140Y038700D02*
X022140Y039001D01*
X022215Y039001D01*
X022290Y038926D01*
X022365Y039001D01*
X022440Y038926D01*
X022440Y038700D01*
X022290Y038700D02*
X022290Y038926D01*
X022290Y039375D02*
X022290Y039601D01*
X022440Y039751D01*
X022440Y039826D01*
X022290Y039601D02*
X022140Y039751D01*
X022140Y039826D01*
X021829Y039151D02*
X021679Y039001D01*
X020863Y038765D02*
X020863Y038464D01*
X020562Y038765D01*
X020487Y038765D01*
X020412Y038690D01*
X020412Y038540D01*
X020487Y038464D01*
X020637Y040306D02*
X020637Y040456D01*
X020487Y040381D02*
X020412Y040456D01*
X020487Y040381D02*
X020863Y040381D01*
X024875Y040576D02*
X024950Y040500D01*
X025100Y040500D01*
X025175Y040576D01*
X025335Y040576D02*
X025410Y040500D01*
X025561Y040500D01*
X025636Y040576D01*
X025636Y040876D01*
X025561Y040951D01*
X025410Y040951D01*
X025335Y040876D01*
X025335Y040801D01*
X025410Y040726D01*
X025636Y040726D01*
X025796Y040651D02*
X026021Y040651D01*
X026096Y040726D01*
X026096Y040876D01*
X026021Y040951D01*
X025796Y040951D01*
X025796Y040500D01*
X025871Y040251D02*
X026021Y040251D01*
X026096Y040176D01*
X025796Y039876D01*
X025871Y039800D01*
X026021Y039800D01*
X026096Y039876D01*
X026096Y040176D01*
X026256Y040101D02*
X026331Y040101D01*
X026406Y040026D01*
X026481Y040101D01*
X026556Y040026D01*
X026556Y039800D01*
X026406Y039800D02*
X026406Y040026D01*
X026256Y040101D02*
X026256Y039800D01*
X025796Y039876D02*
X025796Y040176D01*
X025871Y040251D01*
X025636Y040176D02*
X025561Y040251D01*
X025410Y040251D01*
X025335Y040176D01*
X025175Y040176D02*
X025100Y040251D01*
X024950Y040251D01*
X024875Y040176D01*
X025175Y040176D02*
X025175Y040101D01*
X024875Y039800D01*
X025175Y039800D01*
X025335Y039800D02*
X025636Y040101D01*
X025636Y040176D01*
X025636Y039800D02*
X025335Y039800D01*
X026717Y040026D02*
X026867Y040026D01*
X026792Y040176D02*
X026867Y040251D01*
X026792Y040176D02*
X026792Y039800D01*
X025175Y040876D02*
X025100Y040951D01*
X024950Y040951D01*
X024875Y040876D01*
X024875Y040576D01*
X024290Y044150D02*
X023990Y044150D01*
X024140Y044150D02*
X024140Y044601D01*
X023990Y044451D01*
X023829Y044451D02*
X023529Y044150D01*
X023829Y044150D01*
X023829Y044451D02*
X023829Y044526D01*
X023754Y044601D01*
X023604Y044601D01*
X023529Y044526D01*
X029916Y043507D02*
X029916Y048035D01*
X031884Y048035D01*
X031884Y043507D01*
X029916Y043507D01*
X015684Y038876D02*
X015609Y038951D01*
X015458Y038951D01*
X009815Y039075D02*
X009815Y039301D01*
X009740Y039376D01*
X009665Y039301D01*
X009665Y039075D01*
X009515Y039075D02*
X009515Y039376D01*
X009590Y039376D01*
X009665Y039301D01*
X009665Y039625D02*
X009665Y039851D01*
X009815Y040001D01*
X009815Y040076D01*
X009665Y039851D02*
X009515Y040001D01*
X009515Y040076D01*
X009204Y040076D02*
X009204Y039625D01*
X009204Y039526D02*
X009054Y039376D01*
X009204Y039526D02*
X009204Y039075D01*
X009054Y039075D02*
X009354Y039075D01*
X009354Y039625D02*
X009054Y039625D01*
X008894Y039701D02*
X008819Y039625D01*
X008669Y039625D01*
X008594Y039701D01*
X008594Y040001D01*
X008669Y040076D01*
X008819Y040076D01*
X008894Y040001D01*
X009054Y039926D02*
X009204Y040076D01*
X006390Y041375D02*
X006090Y041375D01*
X006240Y041375D02*
X006240Y041826D01*
X006090Y041676D01*
X005015Y042475D02*
X004715Y042475D01*
X005015Y042776D01*
X005015Y042851D01*
X004940Y042926D01*
X004790Y042926D01*
X004715Y042851D01*
X004554Y042851D02*
X004554Y042701D01*
X004479Y042626D01*
X004254Y042626D01*
X004254Y042475D02*
X004254Y042926D01*
X004479Y042926D01*
X004554Y042851D01*
X004094Y042926D02*
X003944Y042926D01*
X004019Y042926D02*
X004019Y042551D01*
X003944Y042475D01*
X003869Y042475D01*
X003794Y042551D01*
X007740Y044150D02*
X008040Y044150D01*
X007890Y044150D02*
X007890Y044601D01*
X007740Y044451D01*
X002240Y039013D02*
X002090Y039013D01*
X002015Y038938D01*
X001854Y038938D02*
X001854Y038788D01*
X001779Y038713D01*
X001554Y038713D01*
X001554Y038563D02*
X001554Y039013D01*
X001779Y039013D01*
X001854Y038938D01*
X002240Y039013D02*
X002315Y038938D01*
X002315Y038863D01*
X002015Y038563D01*
X002315Y038563D01*
X002318Y038213D02*
X002243Y038138D01*
X002243Y037763D01*
X002008Y037763D02*
X002008Y037988D01*
X001933Y038063D01*
X001858Y037988D01*
X001858Y037763D01*
X001708Y037763D02*
X001708Y038063D01*
X001783Y038063D01*
X001858Y037988D01*
X002168Y037988D02*
X002318Y037988D01*
X001548Y038138D02*
X001548Y037838D01*
X001472Y037763D01*
X001322Y037763D01*
X001247Y037838D01*
X001548Y038138D01*
X001472Y038213D01*
X001322Y038213D01*
X001247Y038138D01*
X001247Y037838D01*
X001087Y037763D02*
X000787Y037763D01*
X001087Y038063D01*
X001087Y038138D01*
X001012Y038213D01*
X000862Y038213D01*
X000787Y038138D01*
X000627Y038138D02*
X000627Y038063D01*
X000326Y037763D01*
X000627Y037763D01*
X000627Y038138D02*
X000552Y038213D01*
X000402Y038213D01*
X000326Y038138D01*
X001094Y038638D02*
X001169Y038563D01*
X001319Y038563D01*
X001394Y038638D01*
X001094Y038638D02*
X001094Y038938D01*
X001169Y039013D01*
X001319Y039013D01*
X001394Y038938D01*
X045862Y034007D02*
X046313Y034007D01*
X046162Y034007D02*
X046012Y034232D01*
X046162Y034007D02*
X046313Y034232D01*
X046237Y033847D02*
X046313Y033772D01*
X046313Y033622D01*
X046237Y033546D01*
X045937Y033847D01*
X046237Y033847D01*
X045937Y033847D02*
X045862Y033772D01*
X045862Y033622D01*
X045937Y033546D01*
X046237Y033546D01*
X046313Y033386D02*
X046313Y033086D01*
X046288Y033040D02*
X046288Y032740D01*
X046288Y032890D02*
X045837Y032890D01*
X045987Y032740D01*
X045987Y032580D02*
X045912Y032580D01*
X045837Y032505D01*
X045837Y032355D01*
X045912Y032280D01*
X045912Y032120D02*
X046062Y032120D01*
X046137Y032045D01*
X046137Y031819D01*
X046137Y031969D02*
X046288Y032120D01*
X046288Y032280D02*
X045987Y032580D01*
X046288Y032580D02*
X046288Y032280D01*
X045912Y032120D02*
X045837Y032045D01*
X045837Y031819D01*
X046288Y031819D01*
X046012Y033086D02*
X045862Y033236D01*
X046313Y033236D01*
X060975Y040063D02*
X061275Y040063D01*
X061125Y040063D02*
X061125Y040513D01*
X060975Y040363D01*
X064050Y041838D02*
X064350Y042288D01*
X064510Y042213D02*
X064585Y042288D01*
X064736Y042288D01*
X064811Y042213D01*
X064811Y042138D01*
X064736Y042063D01*
X064811Y041988D01*
X064811Y041913D01*
X064736Y041838D01*
X064585Y041838D01*
X064510Y041913D01*
X064350Y041838D02*
X064050Y042288D01*
X064661Y042063D02*
X064736Y042063D01*
X064971Y041988D02*
X065196Y041988D01*
X065271Y042063D01*
X065271Y042213D01*
X065196Y042288D01*
X064971Y042288D01*
X064971Y041838D01*
X065750Y040513D02*
X065525Y040288D01*
X065825Y040288D01*
X065750Y040063D02*
X065750Y040513D01*
D15*
X027813Y018514D02*
X027813Y012687D01*
X021987Y012687D01*
X021987Y018514D01*
X027813Y018514D01*
D16*
X034550Y019550D02*
X034550Y005650D01*
X036650Y005650D01*
X036652Y005694D01*
X036658Y005737D01*
X036667Y005779D01*
X036680Y005821D01*
X036697Y005861D01*
X036717Y005900D01*
X036740Y005937D01*
X036767Y005971D01*
X036796Y006004D01*
X036829Y006033D01*
X036863Y006060D01*
X036900Y006083D01*
X036939Y006103D01*
X036979Y006120D01*
X037021Y006133D01*
X037063Y006142D01*
X037106Y006148D01*
X037150Y006150D01*
X037194Y006148D01*
X037237Y006142D01*
X037279Y006133D01*
X037321Y006120D01*
X037361Y006103D01*
X037400Y006083D01*
X037437Y006060D01*
X037471Y006033D01*
X037504Y006004D01*
X037533Y005971D01*
X037560Y005937D01*
X037583Y005900D01*
X037603Y005861D01*
X037620Y005821D01*
X037633Y005779D01*
X037642Y005737D01*
X037648Y005694D01*
X037650Y005650D01*
X039750Y005650D01*
X039750Y019550D01*
X034550Y019550D01*
X042254Y014604D02*
X044554Y014604D01*
X044554Y004604D01*
X043804Y004604D01*
X043802Y004643D01*
X043796Y004682D01*
X043787Y004720D01*
X043774Y004757D01*
X043757Y004793D01*
X043737Y004826D01*
X043713Y004858D01*
X043687Y004887D01*
X043658Y004913D01*
X043626Y004937D01*
X043593Y004957D01*
X043557Y004974D01*
X043520Y004987D01*
X043482Y004996D01*
X043443Y005002D01*
X043404Y005004D01*
X043365Y005002D01*
X043326Y004996D01*
X043288Y004987D01*
X043251Y004974D01*
X043215Y004957D01*
X043182Y004937D01*
X043150Y004913D01*
X043121Y004887D01*
X043095Y004858D01*
X043071Y004826D01*
X043051Y004793D01*
X043034Y004757D01*
X043021Y004720D01*
X043012Y004682D01*
X043006Y004643D01*
X043004Y004604D01*
X042254Y004604D01*
X042254Y014604D01*
X047953Y014605D02*
X050253Y014605D01*
X050253Y004605D01*
X049503Y004605D01*
X049501Y004644D01*
X049495Y004683D01*
X049486Y004721D01*
X049473Y004758D01*
X049456Y004794D01*
X049436Y004827D01*
X049412Y004859D01*
X049386Y004888D01*
X049357Y004914D01*
X049325Y004938D01*
X049292Y004958D01*
X049256Y004975D01*
X049219Y004988D01*
X049181Y004997D01*
X049142Y005003D01*
X049103Y005005D01*
X049064Y005003D01*
X049025Y004997D01*
X048987Y004988D01*
X048950Y004975D01*
X048914Y004958D01*
X048881Y004938D01*
X048849Y004914D01*
X048820Y004888D01*
X048794Y004859D01*
X048770Y004827D01*
X048750Y004794D01*
X048733Y004758D01*
X048720Y004721D01*
X048711Y004683D01*
X048705Y004644D01*
X048703Y004605D01*
X047953Y004605D01*
X047953Y014605D01*
X054125Y020600D02*
X059425Y020600D01*
X059425Y004600D01*
X057175Y004600D01*
X057215Y004421D02*
X057215Y003780D01*
X057002Y003780D02*
X057429Y003780D01*
X057646Y003887D02*
X058073Y004314D01*
X058073Y003887D01*
X057967Y003780D01*
X057753Y003780D01*
X057646Y003887D01*
X057646Y004314D01*
X057753Y004421D01*
X057967Y004421D01*
X058073Y004314D01*
X058291Y004314D02*
X058398Y004421D01*
X058611Y004421D01*
X058718Y004314D01*
X058718Y004208D01*
X058291Y003780D01*
X058718Y003780D01*
X058935Y004101D02*
X059362Y004101D01*
X059256Y004421D02*
X059256Y003780D01*
X058935Y004101D02*
X059256Y004421D01*
X057215Y004421D02*
X057002Y004208D01*
X056784Y004208D02*
X056357Y003780D01*
X056784Y003780D01*
X056784Y004208D02*
X056784Y004314D01*
X056678Y004421D01*
X056464Y004421D01*
X056357Y004314D01*
X056140Y004421D02*
X055926Y004314D01*
X055713Y004101D01*
X056033Y004101D01*
X056140Y003994D01*
X056140Y003887D01*
X056033Y003780D01*
X055819Y003780D01*
X055713Y003887D01*
X055713Y004101D01*
X055562Y004208D02*
X055456Y004101D01*
X055562Y003994D01*
X055562Y003887D01*
X055456Y003780D01*
X055242Y003780D01*
X055135Y003887D01*
X054918Y003887D02*
X054918Y004314D01*
X054811Y004421D01*
X054491Y004421D01*
X054491Y003780D01*
X054811Y003780D01*
X054918Y003887D01*
X055135Y004314D02*
X055242Y004421D01*
X055456Y004421D01*
X055562Y004314D01*
X055562Y004208D01*
X055456Y004101D02*
X055349Y004101D01*
X054273Y004314D02*
X054167Y004421D01*
X053846Y004421D01*
X053846Y003780D01*
X054167Y003780D01*
X054273Y003887D01*
X054273Y004314D01*
X054125Y004600D02*
X056375Y004600D01*
X056377Y004639D01*
X056383Y004678D01*
X056392Y004716D01*
X056405Y004753D01*
X056422Y004789D01*
X056442Y004822D01*
X056466Y004854D01*
X056492Y004883D01*
X056521Y004909D01*
X056553Y004933D01*
X056586Y004953D01*
X056622Y004970D01*
X056659Y004983D01*
X056697Y004992D01*
X056736Y004998D01*
X056775Y005000D01*
X056814Y004998D01*
X056853Y004992D01*
X056891Y004983D01*
X056928Y004970D01*
X056964Y004953D01*
X056997Y004933D01*
X057029Y004909D01*
X057058Y004883D01*
X057084Y004854D01*
X057108Y004822D01*
X057128Y004789D01*
X057145Y004753D01*
X057158Y004716D01*
X057167Y004678D01*
X057173Y004639D01*
X057175Y004600D01*
X054125Y004600D02*
X054125Y020600D01*
X051521Y023262D02*
X051521Y025562D01*
X061521Y025562D01*
X061521Y024812D01*
X061482Y024810D01*
X061443Y024804D01*
X061405Y024795D01*
X061368Y024782D01*
X061332Y024765D01*
X061299Y024745D01*
X061267Y024721D01*
X061238Y024695D01*
X061212Y024666D01*
X061188Y024634D01*
X061168Y024601D01*
X061151Y024565D01*
X061138Y024528D01*
X061129Y024490D01*
X061123Y024451D01*
X061121Y024412D01*
X061123Y024373D01*
X061129Y024334D01*
X061138Y024296D01*
X061151Y024259D01*
X061168Y024223D01*
X061188Y024190D01*
X061212Y024158D01*
X061238Y024129D01*
X061267Y024103D01*
X061299Y024079D01*
X061332Y024059D01*
X061368Y024042D01*
X061405Y024029D01*
X061443Y024020D01*
X061482Y024014D01*
X061521Y024012D01*
X061521Y023262D01*
X051521Y023262D01*
X049550Y026725D02*
X044250Y026725D01*
X044250Y046725D01*
X046450Y046725D01*
X046437Y046855D02*
X046010Y046855D01*
X046224Y046855D02*
X046224Y047496D01*
X046010Y047283D01*
X045793Y047389D02*
X045686Y047496D01*
X045366Y047496D01*
X045366Y046855D01*
X045686Y046855D01*
X045793Y046962D01*
X045793Y047389D01*
X045148Y047389D02*
X045148Y046962D01*
X045042Y046855D01*
X044721Y046855D01*
X044721Y047496D01*
X045042Y047496D01*
X045148Y047389D01*
X046450Y046725D02*
X046452Y046686D01*
X046458Y046647D01*
X046467Y046609D01*
X046480Y046572D01*
X046497Y046536D01*
X046517Y046503D01*
X046541Y046471D01*
X046567Y046442D01*
X046596Y046416D01*
X046628Y046392D01*
X046661Y046372D01*
X046697Y046355D01*
X046734Y046342D01*
X046772Y046333D01*
X046811Y046327D01*
X046850Y046325D01*
X046889Y046327D01*
X046928Y046333D01*
X046966Y046342D01*
X047003Y046355D01*
X047039Y046372D01*
X047072Y046392D01*
X047104Y046416D01*
X047133Y046442D01*
X047159Y046471D01*
X047183Y046503D01*
X047203Y046536D01*
X047220Y046572D01*
X047233Y046609D01*
X047242Y046647D01*
X047248Y046686D01*
X047250Y046725D01*
X049550Y046725D01*
X049550Y026725D01*
X054125Y030725D02*
X059425Y030725D01*
X059425Y046725D01*
X057175Y046725D01*
X057033Y046905D02*
X056819Y046905D01*
X056713Y047012D01*
X056819Y047226D02*
X057140Y047226D01*
X057140Y047439D02*
X057140Y047012D01*
X057033Y046905D01*
X057175Y046725D02*
X057173Y046686D01*
X057167Y046647D01*
X057158Y046609D01*
X057145Y046572D01*
X057128Y046536D01*
X057108Y046503D01*
X057084Y046471D01*
X057058Y046442D01*
X057029Y046416D01*
X056997Y046392D01*
X056964Y046372D01*
X056928Y046355D01*
X056891Y046342D01*
X056853Y046333D01*
X056814Y046327D01*
X056775Y046325D01*
X056736Y046327D01*
X056697Y046333D01*
X056659Y046342D01*
X056622Y046355D01*
X056586Y046372D01*
X056553Y046392D01*
X056521Y046416D01*
X056492Y046442D01*
X056466Y046471D01*
X056442Y046503D01*
X056422Y046536D01*
X056405Y046572D01*
X056392Y046609D01*
X056383Y046647D01*
X056377Y046686D01*
X056375Y046725D01*
X054125Y046725D01*
X054125Y030725D01*
X046538Y031950D02*
X046538Y032100D01*
X046488Y032150D01*
X046488Y034050D01*
X046538Y034100D01*
X046538Y034250D01*
X046536Y034267D01*
X046532Y034284D01*
X046525Y034300D01*
X046515Y034314D01*
X046502Y034327D01*
X046488Y034337D01*
X046472Y034344D01*
X046455Y034348D01*
X046438Y034350D01*
X045738Y034350D01*
X045721Y034348D01*
X045704Y034344D01*
X045688Y034337D01*
X045674Y034327D01*
X045661Y034314D01*
X045651Y034300D01*
X045644Y034284D01*
X045640Y034267D01*
X045638Y034250D01*
X045638Y034100D01*
X045688Y034050D01*
X045688Y032150D01*
X045638Y032100D01*
X045638Y031950D01*
X045640Y031933D01*
X045644Y031916D01*
X045651Y031900D01*
X045661Y031886D01*
X045674Y031873D01*
X045688Y031863D01*
X045704Y031856D01*
X045721Y031852D01*
X045738Y031850D01*
X046438Y031850D01*
X046455Y031852D01*
X046472Y031856D01*
X046488Y031863D01*
X046502Y031873D01*
X046515Y031886D01*
X046525Y031900D01*
X046532Y031916D01*
X046536Y031933D01*
X046538Y031950D01*
X039125Y026325D02*
X039125Y047125D01*
X033925Y047125D01*
X033925Y026325D01*
X036025Y026325D01*
X036027Y026369D01*
X036033Y026412D01*
X036042Y026454D01*
X036055Y026496D01*
X036072Y026536D01*
X036092Y026575D01*
X036115Y026612D01*
X036142Y026646D01*
X036171Y026679D01*
X036204Y026708D01*
X036238Y026735D01*
X036275Y026758D01*
X036314Y026778D01*
X036354Y026795D01*
X036396Y026808D01*
X036438Y026817D01*
X036481Y026823D01*
X036525Y026825D01*
X036569Y026823D01*
X036612Y026817D01*
X036654Y026808D01*
X036696Y026795D01*
X036736Y026778D01*
X036775Y026758D01*
X036812Y026735D01*
X036846Y026708D01*
X036879Y026679D01*
X036908Y026646D01*
X036935Y026612D01*
X036958Y026575D01*
X036978Y026536D01*
X036995Y026496D01*
X037008Y026454D01*
X037017Y026412D01*
X037023Y026369D01*
X037025Y026325D01*
X039125Y026325D01*
X030712Y029846D02*
X030285Y029846D01*
X030285Y029205D01*
X030068Y029312D02*
X030068Y029739D01*
X029961Y029846D01*
X029748Y029846D01*
X029641Y029739D01*
X029641Y029633D01*
X029748Y029526D01*
X030068Y029526D01*
X030068Y029312D02*
X029961Y029205D01*
X029748Y029205D01*
X029641Y029312D01*
X029423Y029526D02*
X028996Y029526D01*
X029317Y029846D01*
X029317Y029205D01*
X028779Y029205D02*
X028352Y029205D01*
X028565Y029205D02*
X028565Y029846D01*
X028352Y029633D01*
X028134Y029633D02*
X028134Y029739D01*
X028028Y029846D01*
X027814Y029846D01*
X027707Y029739D01*
X027490Y029846D02*
X027490Y029205D01*
X027707Y029205D02*
X028134Y029633D01*
X028134Y029205D02*
X027707Y029205D01*
X027276Y029633D02*
X027490Y029846D01*
X027346Y030105D02*
X027667Y030105D01*
X027773Y030212D01*
X027773Y030639D01*
X027667Y030746D01*
X027346Y030746D01*
X027346Y030105D01*
X027063Y029846D02*
X027276Y029633D01*
X027063Y029846D02*
X027063Y029205D01*
X026632Y029205D02*
X026632Y029526D01*
X026845Y029739D01*
X026845Y029846D01*
X026632Y029526D02*
X026418Y029739D01*
X026418Y029846D01*
X025775Y029500D02*
X025775Y030250D01*
X018775Y030250D01*
X018775Y027950D01*
X025775Y027950D01*
X025775Y028700D01*
X025736Y028702D01*
X025697Y028708D01*
X025659Y028717D01*
X025622Y028730D01*
X025586Y028747D01*
X025553Y028767D01*
X025521Y028791D01*
X025492Y028817D01*
X025466Y028846D01*
X025442Y028878D01*
X025422Y028911D01*
X025405Y028947D01*
X025392Y028984D01*
X025383Y029022D01*
X025377Y029061D01*
X025375Y029100D01*
X025377Y029139D01*
X025383Y029178D01*
X025392Y029216D01*
X025405Y029253D01*
X025422Y029289D01*
X025442Y029322D01*
X025466Y029354D01*
X025492Y029383D01*
X025521Y029409D01*
X025553Y029433D01*
X025586Y029453D01*
X025622Y029470D01*
X025659Y029483D01*
X025697Y029492D01*
X025736Y029498D01*
X025775Y029500D01*
X027991Y030105D02*
X028311Y030105D01*
X028418Y030212D01*
X028418Y030639D01*
X028311Y030746D01*
X027991Y030746D01*
X027991Y030105D01*
X028635Y030212D02*
X028742Y030105D01*
X028956Y030105D01*
X029062Y030212D01*
X029062Y030639D01*
X028956Y030746D01*
X028742Y030746D01*
X028635Y030639D01*
X028635Y030533D01*
X028742Y030426D01*
X029062Y030426D01*
X030285Y029526D02*
X030499Y029526D01*
X030275Y032075D02*
X030275Y034375D01*
X030236Y034377D01*
X030197Y034383D01*
X030159Y034392D01*
X030122Y034405D01*
X030086Y034422D01*
X030053Y034442D01*
X030021Y034466D01*
X029992Y034492D01*
X029966Y034521D01*
X029942Y034553D01*
X029922Y034586D01*
X029905Y034622D01*
X029892Y034659D01*
X029883Y034697D01*
X029877Y034736D01*
X029875Y034775D01*
X029877Y034814D01*
X029883Y034853D01*
X029892Y034891D01*
X029905Y034928D01*
X029922Y034964D01*
X029942Y034997D01*
X029966Y035029D01*
X029992Y035058D01*
X030021Y035084D01*
X030053Y035108D01*
X030086Y035128D01*
X030122Y035145D01*
X030159Y035158D01*
X030197Y035167D01*
X030236Y035173D01*
X030275Y035175D01*
X030275Y037375D01*
X010275Y037375D01*
X010275Y032075D01*
X030275Y032075D01*
X024325Y038875D02*
X024325Y038975D01*
X024225Y038975D01*
X024325Y038975D02*
X024325Y039075D01*
X024325Y038975D02*
X024425Y038975D01*
X024075Y038975D02*
X024075Y039475D01*
X024075Y039975D01*
X023875Y039975D01*
X023875Y038975D01*
X024075Y038975D01*
X024075Y039475D02*
X024425Y039475D01*
X022775Y039475D02*
X022777Y039538D01*
X022783Y039600D01*
X022793Y039662D01*
X022806Y039724D01*
X022824Y039784D01*
X022845Y039843D01*
X022870Y039901D01*
X022899Y039957D01*
X022931Y040011D01*
X022966Y040063D01*
X023004Y040112D01*
X023046Y040160D01*
X023090Y040204D01*
X023138Y040246D01*
X023187Y040284D01*
X023239Y040319D01*
X023293Y040351D01*
X023349Y040380D01*
X023407Y040405D01*
X023466Y040426D01*
X023526Y040444D01*
X023588Y040457D01*
X023650Y040467D01*
X023712Y040473D01*
X023775Y040475D01*
X023838Y040473D01*
X023900Y040467D01*
X023962Y040457D01*
X024024Y040444D01*
X024084Y040426D01*
X024143Y040405D01*
X024201Y040380D01*
X024257Y040351D01*
X024311Y040319D01*
X024363Y040284D01*
X024412Y040246D01*
X024460Y040204D01*
X024504Y040160D01*
X024546Y040112D01*
X024584Y040063D01*
X024619Y040011D01*
X024651Y039957D01*
X024680Y039901D01*
X024705Y039843D01*
X024726Y039784D01*
X024744Y039724D01*
X024757Y039662D01*
X024767Y039600D01*
X024773Y039538D01*
X024775Y039475D01*
X024773Y039412D01*
X024767Y039350D01*
X024757Y039288D01*
X024744Y039226D01*
X024726Y039166D01*
X024705Y039107D01*
X024680Y039049D01*
X024651Y038993D01*
X024619Y038939D01*
X024584Y038887D01*
X024546Y038838D01*
X024504Y038790D01*
X024460Y038746D01*
X024412Y038704D01*
X024363Y038666D01*
X024311Y038631D01*
X024257Y038599D01*
X024201Y038570D01*
X024143Y038545D01*
X024084Y038524D01*
X024024Y038506D01*
X023962Y038493D01*
X023900Y038483D01*
X023838Y038477D01*
X023775Y038475D01*
X023712Y038477D01*
X023650Y038483D01*
X023588Y038493D01*
X023526Y038506D01*
X023466Y038524D01*
X023407Y038545D01*
X023349Y038570D01*
X023293Y038599D01*
X023239Y038631D01*
X023187Y038666D01*
X023138Y038704D01*
X023090Y038746D01*
X023046Y038790D01*
X023004Y038838D01*
X022966Y038887D01*
X022931Y038939D01*
X022899Y038993D01*
X022870Y039049D01*
X022845Y039107D01*
X022824Y039166D01*
X022806Y039226D01*
X022793Y039288D01*
X022783Y039350D01*
X022777Y039412D01*
X022775Y039475D01*
X023125Y039475D02*
X023525Y039475D01*
X023375Y040975D02*
X023125Y041225D01*
X023125Y042225D01*
X023125Y042675D01*
X022925Y042875D01*
X022925Y043125D01*
X022625Y043125D01*
X022625Y042875D01*
X022425Y042675D01*
X022425Y042225D01*
X022425Y041225D01*
X022175Y040975D01*
X021875Y040975D01*
X021625Y041225D01*
X021625Y042225D01*
X021625Y042675D01*
X021425Y042875D01*
X021425Y043125D01*
X021125Y043125D01*
X021125Y042875D01*
X020925Y042675D01*
X020925Y042225D01*
X020925Y041225D01*
X020675Y040975D01*
X020375Y040975D01*
X020125Y041225D01*
X020125Y042225D01*
X020125Y042675D01*
X019925Y042875D01*
X019925Y043125D01*
X019625Y043125D01*
X019625Y042875D01*
X019425Y042675D01*
X019425Y042225D01*
X019425Y041225D01*
X019175Y040975D01*
X018875Y040975D01*
X018625Y041225D01*
X018625Y042225D01*
X018625Y042675D01*
X018425Y042875D01*
X018425Y043125D01*
X018125Y043125D01*
X018125Y042875D01*
X017925Y042675D01*
X017925Y042225D01*
X017925Y041225D01*
X017675Y040975D01*
X017375Y040975D01*
X017125Y041225D01*
X017125Y042225D01*
X017125Y042675D01*
X016925Y042875D01*
X016925Y043125D01*
X016625Y043125D01*
X016625Y042875D01*
X016425Y042675D01*
X016425Y042225D01*
X016425Y041225D01*
X016175Y040975D01*
X015875Y040975D01*
X015625Y041225D01*
X015625Y042225D01*
X015625Y042675D01*
X015425Y042875D01*
X015425Y043125D01*
X015125Y043125D01*
X015125Y042875D01*
X014925Y042675D01*
X014925Y042225D01*
X014925Y041225D01*
X014675Y040975D01*
X014375Y040975D01*
X014125Y041225D01*
X014125Y042225D01*
X014125Y042675D01*
X013925Y042875D01*
X013925Y043125D01*
X013625Y043125D01*
X013625Y042875D01*
X013425Y042675D01*
X013425Y042225D01*
X013425Y041225D01*
X013175Y040975D01*
X012875Y040975D01*
X012625Y041225D01*
X012625Y042225D01*
X012625Y042675D01*
X012425Y042875D01*
X012425Y043125D01*
X012125Y043125D01*
X012125Y042875D01*
X011925Y042675D01*
X011925Y042225D01*
X011925Y041225D01*
X011675Y040975D01*
X011375Y040975D01*
X011125Y041225D01*
X011125Y042225D01*
X011125Y042675D01*
X010925Y042875D01*
X010925Y043125D01*
X010625Y043125D01*
X010625Y042875D01*
X010425Y042675D01*
X010425Y042225D01*
X010425Y041225D01*
X010175Y040975D01*
X009875Y040975D01*
X009625Y041225D01*
X009625Y042225D01*
X009625Y042675D01*
X009425Y042875D01*
X009425Y043125D01*
X009125Y043125D01*
X009125Y042875D01*
X008925Y042675D01*
X008925Y042225D01*
X008925Y041225D01*
X008675Y040975D01*
X008375Y040975D01*
X008125Y041225D01*
X008125Y042225D01*
X008125Y043725D01*
X008675Y043725D01*
X009875Y043725D01*
X010175Y043725D01*
X011375Y043725D01*
X011675Y043725D01*
X012875Y043725D01*
X013175Y043725D01*
X014375Y043725D01*
X014675Y043725D01*
X015875Y043725D01*
X016175Y043725D01*
X017375Y043725D01*
X017675Y043725D01*
X018875Y043725D01*
X019175Y043725D01*
X020375Y043725D01*
X020675Y043725D01*
X021875Y043725D01*
X022175Y043725D01*
X023375Y043725D01*
X023925Y043725D01*
X025275Y043725D01*
X029025Y043725D01*
X029025Y044925D01*
X025275Y044925D01*
X025275Y048075D01*
X006775Y048075D01*
X006775Y044925D01*
X006775Y043725D01*
X008125Y043725D01*
X006775Y043725D02*
X003025Y043725D01*
X003025Y044925D01*
X006775Y044925D01*
X004525Y045325D02*
X004525Y043325D01*
X004775Y042100D02*
X005025Y041850D01*
X005275Y042100D01*
X005775Y042100D01*
X006025Y041850D01*
X006025Y041350D01*
X005775Y041100D01*
X005275Y041100D01*
X005025Y041350D01*
X004775Y041100D01*
X004275Y041100D01*
X004025Y041350D01*
X003775Y041100D01*
X003275Y041100D01*
X003025Y041350D01*
X003025Y041850D01*
X003275Y042100D01*
X003775Y042100D01*
X004025Y041850D01*
X004275Y042100D01*
X004775Y042100D01*
X002450Y040788D02*
X002250Y040788D01*
X002250Y039788D01*
X002450Y039788D01*
X002450Y040288D01*
X002450Y040788D01*
X002450Y040288D02*
X002800Y040288D01*
X002700Y039888D02*
X002700Y039788D01*
X002700Y039688D01*
X002700Y039788D02*
X002600Y039788D01*
X002700Y039788D02*
X002800Y039788D01*
X001150Y040288D02*
X001152Y040351D01*
X001158Y040413D01*
X001168Y040475D01*
X001181Y040537D01*
X001199Y040597D01*
X001220Y040656D01*
X001245Y040714D01*
X001274Y040770D01*
X001306Y040824D01*
X001341Y040876D01*
X001379Y040925D01*
X001421Y040973D01*
X001465Y041017D01*
X001513Y041059D01*
X001562Y041097D01*
X001614Y041132D01*
X001668Y041164D01*
X001724Y041193D01*
X001782Y041218D01*
X001841Y041239D01*
X001901Y041257D01*
X001963Y041270D01*
X002025Y041280D01*
X002087Y041286D01*
X002150Y041288D01*
X002213Y041286D01*
X002275Y041280D01*
X002337Y041270D01*
X002399Y041257D01*
X002459Y041239D01*
X002518Y041218D01*
X002576Y041193D01*
X002632Y041164D01*
X002686Y041132D01*
X002738Y041097D01*
X002787Y041059D01*
X002835Y041017D01*
X002879Y040973D01*
X002921Y040925D01*
X002959Y040876D01*
X002994Y040824D01*
X003026Y040770D01*
X003055Y040714D01*
X003080Y040656D01*
X003101Y040597D01*
X003119Y040537D01*
X003132Y040475D01*
X003142Y040413D01*
X003148Y040351D01*
X003150Y040288D01*
X003148Y040225D01*
X003142Y040163D01*
X003132Y040101D01*
X003119Y040039D01*
X003101Y039979D01*
X003080Y039920D01*
X003055Y039862D01*
X003026Y039806D01*
X002994Y039752D01*
X002959Y039700D01*
X002921Y039651D01*
X002879Y039603D01*
X002835Y039559D01*
X002787Y039517D01*
X002738Y039479D01*
X002686Y039444D01*
X002632Y039412D01*
X002576Y039383D01*
X002518Y039358D01*
X002459Y039337D01*
X002399Y039319D01*
X002337Y039306D01*
X002275Y039296D01*
X002213Y039290D01*
X002150Y039288D01*
X002087Y039290D01*
X002025Y039296D01*
X001963Y039306D01*
X001901Y039319D01*
X001841Y039337D01*
X001782Y039358D01*
X001724Y039383D01*
X001668Y039412D01*
X001614Y039444D01*
X001562Y039479D01*
X001513Y039517D01*
X001465Y039559D01*
X001421Y039603D01*
X001379Y039651D01*
X001341Y039700D01*
X001306Y039752D01*
X001274Y039806D01*
X001245Y039862D01*
X001220Y039920D01*
X001199Y039979D01*
X001181Y040039D01*
X001168Y040101D01*
X001158Y040163D01*
X001152Y040225D01*
X001150Y040288D01*
X001500Y040288D02*
X001900Y040288D01*
X003675Y039025D02*
X003675Y026925D01*
X006875Y026925D01*
X006875Y039025D01*
X005525Y039025D01*
X005523Y038995D01*
X005518Y038965D01*
X005509Y038936D01*
X005496Y038909D01*
X005481Y038883D01*
X005462Y038859D01*
X005441Y038838D01*
X005417Y038819D01*
X005391Y038804D01*
X005364Y038791D01*
X005335Y038782D01*
X005305Y038777D01*
X005275Y038775D01*
X005245Y038777D01*
X005215Y038782D01*
X005186Y038791D01*
X005159Y038804D01*
X005133Y038819D01*
X005109Y038838D01*
X005088Y038859D01*
X005069Y038883D01*
X005054Y038909D01*
X005041Y038936D01*
X005032Y038965D01*
X005027Y038995D01*
X005025Y039025D01*
X003675Y039025D01*
X010500Y039475D02*
X010900Y039475D01*
X010150Y039475D02*
X010152Y039538D01*
X010158Y039600D01*
X010168Y039662D01*
X010181Y039724D01*
X010199Y039784D01*
X010220Y039843D01*
X010245Y039901D01*
X010274Y039957D01*
X010306Y040011D01*
X010341Y040063D01*
X010379Y040112D01*
X010421Y040160D01*
X010465Y040204D01*
X010513Y040246D01*
X010562Y040284D01*
X010614Y040319D01*
X010668Y040351D01*
X010724Y040380D01*
X010782Y040405D01*
X010841Y040426D01*
X010901Y040444D01*
X010963Y040457D01*
X011025Y040467D01*
X011087Y040473D01*
X011150Y040475D01*
X011213Y040473D01*
X011275Y040467D01*
X011337Y040457D01*
X011399Y040444D01*
X011459Y040426D01*
X011518Y040405D01*
X011576Y040380D01*
X011632Y040351D01*
X011686Y040319D01*
X011738Y040284D01*
X011787Y040246D01*
X011835Y040204D01*
X011879Y040160D01*
X011921Y040112D01*
X011959Y040063D01*
X011994Y040011D01*
X012026Y039957D01*
X012055Y039901D01*
X012080Y039843D01*
X012101Y039784D01*
X012119Y039724D01*
X012132Y039662D01*
X012142Y039600D01*
X012148Y039538D01*
X012150Y039475D01*
X012148Y039412D01*
X012142Y039350D01*
X012132Y039288D01*
X012119Y039226D01*
X012101Y039166D01*
X012080Y039107D01*
X012055Y039049D01*
X012026Y038993D01*
X011994Y038939D01*
X011959Y038887D01*
X011921Y038838D01*
X011879Y038790D01*
X011835Y038746D01*
X011787Y038704D01*
X011738Y038666D01*
X011686Y038631D01*
X011632Y038599D01*
X011576Y038570D01*
X011518Y038545D01*
X011459Y038524D01*
X011399Y038506D01*
X011337Y038493D01*
X011275Y038483D01*
X011213Y038477D01*
X011150Y038475D01*
X011087Y038477D01*
X011025Y038483D01*
X010963Y038493D01*
X010901Y038506D01*
X010841Y038524D01*
X010782Y038545D01*
X010724Y038570D01*
X010668Y038599D01*
X010614Y038631D01*
X010562Y038666D01*
X010513Y038704D01*
X010465Y038746D01*
X010421Y038790D01*
X010379Y038838D01*
X010341Y038887D01*
X010306Y038939D01*
X010274Y038993D01*
X010245Y039049D01*
X010220Y039107D01*
X010199Y039166D01*
X010181Y039226D01*
X010168Y039288D01*
X010158Y039350D01*
X010152Y039412D01*
X010150Y039475D01*
X011250Y038975D02*
X011450Y038975D01*
X011450Y039475D01*
X011450Y039975D01*
X011250Y039975D01*
X011250Y038975D01*
X011600Y038975D02*
X011700Y038975D01*
X011700Y038875D01*
X011700Y038975D02*
X011700Y039075D01*
X011700Y038975D02*
X011800Y038975D01*
X011800Y039475D02*
X011450Y039475D01*
X012875Y040100D02*
X013275Y040100D01*
X012525Y040100D02*
X012527Y040163D01*
X012533Y040225D01*
X012543Y040287D01*
X012556Y040349D01*
X012574Y040409D01*
X012595Y040468D01*
X012620Y040526D01*
X012649Y040582D01*
X012681Y040636D01*
X012716Y040688D01*
X012754Y040737D01*
X012796Y040785D01*
X012840Y040829D01*
X012888Y040871D01*
X012937Y040909D01*
X012989Y040944D01*
X013043Y040976D01*
X013099Y041005D01*
X013157Y041030D01*
X013216Y041051D01*
X013276Y041069D01*
X013338Y041082D01*
X013400Y041092D01*
X013462Y041098D01*
X013525Y041100D01*
X013588Y041098D01*
X013650Y041092D01*
X013712Y041082D01*
X013774Y041069D01*
X013834Y041051D01*
X013893Y041030D01*
X013951Y041005D01*
X014007Y040976D01*
X014061Y040944D01*
X014113Y040909D01*
X014162Y040871D01*
X014210Y040829D01*
X014254Y040785D01*
X014296Y040737D01*
X014334Y040688D01*
X014369Y040636D01*
X014401Y040582D01*
X014430Y040526D01*
X014455Y040468D01*
X014476Y040409D01*
X014494Y040349D01*
X014507Y040287D01*
X014517Y040225D01*
X014523Y040163D01*
X014525Y040100D01*
X014523Y040037D01*
X014517Y039975D01*
X014507Y039913D01*
X014494Y039851D01*
X014476Y039791D01*
X014455Y039732D01*
X014430Y039674D01*
X014401Y039618D01*
X014369Y039564D01*
X014334Y039512D01*
X014296Y039463D01*
X014254Y039415D01*
X014210Y039371D01*
X014162Y039329D01*
X014113Y039291D01*
X014061Y039256D01*
X014007Y039224D01*
X013951Y039195D01*
X013893Y039170D01*
X013834Y039149D01*
X013774Y039131D01*
X013712Y039118D01*
X013650Y039108D01*
X013588Y039102D01*
X013525Y039100D01*
X013462Y039102D01*
X013400Y039108D01*
X013338Y039118D01*
X013276Y039131D01*
X013216Y039149D01*
X013157Y039170D01*
X013099Y039195D01*
X013043Y039224D01*
X012989Y039256D01*
X012937Y039291D01*
X012888Y039329D01*
X012840Y039371D01*
X012796Y039415D01*
X012754Y039463D01*
X012716Y039512D01*
X012681Y039564D01*
X012649Y039618D01*
X012620Y039674D01*
X012595Y039732D01*
X012574Y039791D01*
X012556Y039851D01*
X012543Y039913D01*
X012533Y039975D01*
X012527Y040037D01*
X012525Y040100D01*
X013625Y039600D02*
X013825Y039600D01*
X013825Y040100D01*
X013825Y040600D01*
X013625Y040600D01*
X013625Y039600D01*
X013975Y039600D02*
X014075Y039600D01*
X014075Y039500D01*
X014075Y039600D02*
X014075Y039700D01*
X014075Y039600D02*
X014175Y039600D01*
X014175Y040100D02*
X013825Y040100D01*
X015625Y040100D02*
X016025Y040100D01*
X015275Y040100D02*
X015277Y040163D01*
X015283Y040225D01*
X015293Y040287D01*
X015306Y040349D01*
X015324Y040409D01*
X015345Y040468D01*
X015370Y040526D01*
X015399Y040582D01*
X015431Y040636D01*
X015466Y040688D01*
X015504Y040737D01*
X015546Y040785D01*
X015590Y040829D01*
X015638Y040871D01*
X015687Y040909D01*
X015739Y040944D01*
X015793Y040976D01*
X015849Y041005D01*
X015907Y041030D01*
X015966Y041051D01*
X016026Y041069D01*
X016088Y041082D01*
X016150Y041092D01*
X016212Y041098D01*
X016275Y041100D01*
X016338Y041098D01*
X016400Y041092D01*
X016462Y041082D01*
X016524Y041069D01*
X016584Y041051D01*
X016643Y041030D01*
X016701Y041005D01*
X016757Y040976D01*
X016811Y040944D01*
X016863Y040909D01*
X016912Y040871D01*
X016960Y040829D01*
X017004Y040785D01*
X017046Y040737D01*
X017084Y040688D01*
X017119Y040636D01*
X017151Y040582D01*
X017180Y040526D01*
X017205Y040468D01*
X017226Y040409D01*
X017244Y040349D01*
X017257Y040287D01*
X017267Y040225D01*
X017273Y040163D01*
X017275Y040100D01*
X017273Y040037D01*
X017267Y039975D01*
X017257Y039913D01*
X017244Y039851D01*
X017226Y039791D01*
X017205Y039732D01*
X017180Y039674D01*
X017151Y039618D01*
X017119Y039564D01*
X017084Y039512D01*
X017046Y039463D01*
X017004Y039415D01*
X016960Y039371D01*
X016912Y039329D01*
X016863Y039291D01*
X016811Y039256D01*
X016757Y039224D01*
X016701Y039195D01*
X016643Y039170D01*
X016584Y039149D01*
X016524Y039131D01*
X016462Y039118D01*
X016400Y039108D01*
X016338Y039102D01*
X016275Y039100D01*
X016212Y039102D01*
X016150Y039108D01*
X016088Y039118D01*
X016026Y039131D01*
X015966Y039149D01*
X015907Y039170D01*
X015849Y039195D01*
X015793Y039224D01*
X015739Y039256D01*
X015687Y039291D01*
X015638Y039329D01*
X015590Y039371D01*
X015546Y039415D01*
X015504Y039463D01*
X015466Y039512D01*
X015431Y039564D01*
X015399Y039618D01*
X015370Y039674D01*
X015345Y039732D01*
X015324Y039791D01*
X015306Y039851D01*
X015293Y039913D01*
X015283Y039975D01*
X015277Y040037D01*
X015275Y040100D01*
X016375Y039600D02*
X016575Y039600D01*
X016575Y040100D01*
X016575Y040600D01*
X016375Y040600D01*
X016375Y039600D01*
X016725Y039600D02*
X016825Y039600D01*
X016825Y039500D01*
X016825Y039600D02*
X016825Y039700D01*
X016825Y039600D02*
X016925Y039600D01*
X016925Y040100D02*
X016575Y040100D01*
X018625Y040100D02*
X019025Y040100D01*
X018275Y040100D02*
X018277Y040163D01*
X018283Y040225D01*
X018293Y040287D01*
X018306Y040349D01*
X018324Y040409D01*
X018345Y040468D01*
X018370Y040526D01*
X018399Y040582D01*
X018431Y040636D01*
X018466Y040688D01*
X018504Y040737D01*
X018546Y040785D01*
X018590Y040829D01*
X018638Y040871D01*
X018687Y040909D01*
X018739Y040944D01*
X018793Y040976D01*
X018849Y041005D01*
X018907Y041030D01*
X018966Y041051D01*
X019026Y041069D01*
X019088Y041082D01*
X019150Y041092D01*
X019212Y041098D01*
X019275Y041100D01*
X019338Y041098D01*
X019400Y041092D01*
X019462Y041082D01*
X019524Y041069D01*
X019584Y041051D01*
X019643Y041030D01*
X019701Y041005D01*
X019757Y040976D01*
X019811Y040944D01*
X019863Y040909D01*
X019912Y040871D01*
X019960Y040829D01*
X020004Y040785D01*
X020046Y040737D01*
X020084Y040688D01*
X020119Y040636D01*
X020151Y040582D01*
X020180Y040526D01*
X020205Y040468D01*
X020226Y040409D01*
X020244Y040349D01*
X020257Y040287D01*
X020267Y040225D01*
X020273Y040163D01*
X020275Y040100D01*
X020273Y040037D01*
X020267Y039975D01*
X020257Y039913D01*
X020244Y039851D01*
X020226Y039791D01*
X020205Y039732D01*
X020180Y039674D01*
X020151Y039618D01*
X020119Y039564D01*
X020084Y039512D01*
X020046Y039463D01*
X020004Y039415D01*
X019960Y039371D01*
X019912Y039329D01*
X019863Y039291D01*
X019811Y039256D01*
X019757Y039224D01*
X019701Y039195D01*
X019643Y039170D01*
X019584Y039149D01*
X019524Y039131D01*
X019462Y039118D01*
X019400Y039108D01*
X019338Y039102D01*
X019275Y039100D01*
X019212Y039102D01*
X019150Y039108D01*
X019088Y039118D01*
X019026Y039131D01*
X018966Y039149D01*
X018907Y039170D01*
X018849Y039195D01*
X018793Y039224D01*
X018739Y039256D01*
X018687Y039291D01*
X018638Y039329D01*
X018590Y039371D01*
X018546Y039415D01*
X018504Y039463D01*
X018466Y039512D01*
X018431Y039564D01*
X018399Y039618D01*
X018370Y039674D01*
X018345Y039732D01*
X018324Y039791D01*
X018306Y039851D01*
X018293Y039913D01*
X018283Y039975D01*
X018277Y040037D01*
X018275Y040100D01*
X019375Y039600D02*
X019575Y039600D01*
X019575Y040100D01*
X019575Y040600D01*
X019375Y040600D01*
X019375Y039600D01*
X019725Y039600D02*
X019825Y039600D01*
X019825Y039500D01*
X019825Y039600D02*
X019825Y039700D01*
X019825Y039600D02*
X019925Y039600D01*
X019925Y040100D02*
X019575Y040100D01*
X023375Y040975D02*
X023675Y040975D01*
X023925Y041225D01*
X023925Y042225D01*
X023925Y043725D01*
X025275Y043725D02*
X025275Y044925D01*
X027525Y045325D02*
X027525Y043325D01*
X025875Y042650D02*
X025775Y042650D01*
X025775Y042550D01*
X025775Y042650D02*
X025675Y042650D01*
X025775Y042650D02*
X025775Y042750D01*
X025775Y042400D02*
X025275Y042400D01*
X024775Y042400D01*
X024775Y042200D01*
X025775Y042200D01*
X025775Y042400D01*
X025275Y042400D02*
X025275Y042750D01*
X024275Y042100D02*
X024277Y042163D01*
X024283Y042225D01*
X024293Y042287D01*
X024306Y042349D01*
X024324Y042409D01*
X024345Y042468D01*
X024370Y042526D01*
X024399Y042582D01*
X024431Y042636D01*
X024466Y042688D01*
X024504Y042737D01*
X024546Y042785D01*
X024590Y042829D01*
X024638Y042871D01*
X024687Y042909D01*
X024739Y042944D01*
X024793Y042976D01*
X024849Y043005D01*
X024907Y043030D01*
X024966Y043051D01*
X025026Y043069D01*
X025088Y043082D01*
X025150Y043092D01*
X025212Y043098D01*
X025275Y043100D01*
X025338Y043098D01*
X025400Y043092D01*
X025462Y043082D01*
X025524Y043069D01*
X025584Y043051D01*
X025643Y043030D01*
X025701Y043005D01*
X025757Y042976D01*
X025811Y042944D01*
X025863Y042909D01*
X025912Y042871D01*
X025960Y042829D01*
X026004Y042785D01*
X026046Y042737D01*
X026084Y042688D01*
X026119Y042636D01*
X026151Y042582D01*
X026180Y042526D01*
X026205Y042468D01*
X026226Y042409D01*
X026244Y042349D01*
X026257Y042287D01*
X026267Y042225D01*
X026273Y042163D01*
X026275Y042100D01*
X026273Y042037D01*
X026267Y041975D01*
X026257Y041913D01*
X026244Y041851D01*
X026226Y041791D01*
X026205Y041732D01*
X026180Y041674D01*
X026151Y041618D01*
X026119Y041564D01*
X026084Y041512D01*
X026046Y041463D01*
X026004Y041415D01*
X025960Y041371D01*
X025912Y041329D01*
X025863Y041291D01*
X025811Y041256D01*
X025757Y041224D01*
X025701Y041195D01*
X025643Y041170D01*
X025584Y041149D01*
X025524Y041131D01*
X025462Y041118D01*
X025400Y041108D01*
X025338Y041102D01*
X025275Y041100D01*
X025212Y041102D01*
X025150Y041108D01*
X025088Y041118D01*
X025026Y041131D01*
X024966Y041149D01*
X024907Y041170D01*
X024849Y041195D01*
X024793Y041224D01*
X024739Y041256D01*
X024687Y041291D01*
X024638Y041329D01*
X024590Y041371D01*
X024546Y041415D01*
X024504Y041463D01*
X024466Y041512D01*
X024431Y041564D01*
X024399Y041618D01*
X024370Y041674D01*
X024345Y041732D01*
X024324Y041791D01*
X024306Y041851D01*
X024293Y041913D01*
X024283Y041975D01*
X024277Y042037D01*
X024275Y042100D01*
X025275Y041850D02*
X025275Y041450D01*
X009900Y033475D02*
X009900Y032975D01*
X009650Y032725D01*
X009900Y032475D01*
X009900Y031975D01*
X009650Y031725D01*
X009900Y031475D01*
X009900Y030975D01*
X009650Y030725D01*
X009150Y030725D01*
X008900Y030975D01*
X008900Y031475D01*
X009150Y031725D01*
X008900Y031975D01*
X008900Y032475D01*
X009150Y032725D01*
X008900Y032975D01*
X008900Y033475D01*
X009150Y033725D01*
X009650Y033725D01*
X009900Y033475D01*
X011400Y029975D02*
X016300Y029975D01*
X016330Y029973D01*
X016360Y029968D01*
X016389Y029959D01*
X016416Y029946D01*
X016442Y029931D01*
X016466Y029912D01*
X016487Y029891D01*
X016506Y029867D01*
X016521Y029841D01*
X016534Y029814D01*
X016543Y029785D01*
X016548Y029755D01*
X016550Y029725D01*
X016550Y026225D01*
X016548Y026195D01*
X016543Y026165D01*
X016534Y026136D01*
X016521Y026109D01*
X016506Y026083D01*
X016487Y026059D01*
X016466Y026038D01*
X016442Y026019D01*
X016416Y026004D01*
X016389Y025991D01*
X016360Y025982D01*
X016330Y025977D01*
X016300Y025975D01*
X011400Y025975D01*
X010900Y024600D02*
X012400Y024600D01*
X012650Y024350D01*
X012650Y023850D01*
X012400Y023600D01*
X012650Y023350D01*
X012650Y022850D01*
X012400Y022600D01*
X012650Y022350D01*
X012650Y021850D01*
X012400Y021600D01*
X010900Y021600D01*
X010650Y021850D01*
X010650Y022350D01*
X010900Y022600D01*
X010650Y022850D01*
X010650Y023350D01*
X010900Y023600D01*
X010650Y023850D01*
X010650Y024350D01*
X010900Y024600D01*
X009775Y025625D02*
X009775Y023325D01*
X002775Y023325D01*
X002775Y024075D01*
X002814Y024077D01*
X002853Y024083D01*
X002891Y024092D01*
X002928Y024105D01*
X002964Y024122D01*
X002997Y024142D01*
X003029Y024166D01*
X003058Y024192D01*
X003084Y024221D01*
X003108Y024253D01*
X003128Y024286D01*
X003145Y024322D01*
X003158Y024359D01*
X003167Y024397D01*
X003173Y024436D01*
X003175Y024475D01*
X003173Y024514D01*
X003167Y024553D01*
X003158Y024591D01*
X003145Y024628D01*
X003128Y024664D01*
X003108Y024697D01*
X003084Y024729D01*
X003058Y024758D01*
X003029Y024784D01*
X002997Y024808D01*
X002964Y024828D01*
X002928Y024845D01*
X002891Y024858D01*
X002853Y024867D01*
X002814Y024873D01*
X002775Y024875D01*
X002775Y025625D01*
X009775Y025625D01*
X008925Y028350D02*
X008925Y029350D01*
X008725Y029350D01*
X008725Y028850D01*
X008725Y028350D01*
X008925Y028350D01*
X008025Y028850D02*
X008027Y028913D01*
X008033Y028975D01*
X008043Y029037D01*
X008056Y029099D01*
X008074Y029159D01*
X008095Y029218D01*
X008120Y029276D01*
X008149Y029332D01*
X008181Y029386D01*
X008216Y029438D01*
X008254Y029487D01*
X008296Y029535D01*
X008340Y029579D01*
X008388Y029621D01*
X008437Y029659D01*
X008489Y029694D01*
X008543Y029726D01*
X008599Y029755D01*
X008657Y029780D01*
X008716Y029801D01*
X008776Y029819D01*
X008838Y029832D01*
X008900Y029842D01*
X008962Y029848D01*
X009025Y029850D01*
X009088Y029848D01*
X009150Y029842D01*
X009212Y029832D01*
X009274Y029819D01*
X009334Y029801D01*
X009393Y029780D01*
X009451Y029755D01*
X009507Y029726D01*
X009561Y029694D01*
X009613Y029659D01*
X009662Y029621D01*
X009710Y029579D01*
X009754Y029535D01*
X009796Y029487D01*
X009834Y029438D01*
X009869Y029386D01*
X009901Y029332D01*
X009930Y029276D01*
X009955Y029218D01*
X009976Y029159D01*
X009994Y029099D01*
X010007Y029037D01*
X010017Y028975D01*
X010023Y028913D01*
X010025Y028850D01*
X010023Y028787D01*
X010017Y028725D01*
X010007Y028663D01*
X009994Y028601D01*
X009976Y028541D01*
X009955Y028482D01*
X009930Y028424D01*
X009901Y028368D01*
X009869Y028314D01*
X009834Y028262D01*
X009796Y028213D01*
X009754Y028165D01*
X009710Y028121D01*
X009662Y028079D01*
X009613Y028041D01*
X009561Y028006D01*
X009507Y027974D01*
X009451Y027945D01*
X009393Y027920D01*
X009334Y027899D01*
X009274Y027881D01*
X009212Y027868D01*
X009150Y027858D01*
X009088Y027852D01*
X009025Y027850D01*
X008962Y027852D01*
X008900Y027858D01*
X008838Y027868D01*
X008776Y027881D01*
X008716Y027899D01*
X008657Y027920D01*
X008599Y027945D01*
X008543Y027974D01*
X008489Y028006D01*
X008437Y028041D01*
X008388Y028079D01*
X008340Y028121D01*
X008296Y028165D01*
X008254Y028213D01*
X008216Y028262D01*
X008181Y028314D01*
X008149Y028368D01*
X008120Y028424D01*
X008095Y028482D01*
X008074Y028541D01*
X008056Y028601D01*
X008043Y028663D01*
X008033Y028725D01*
X008027Y028787D01*
X008025Y028850D01*
X008375Y028850D02*
X008725Y028850D01*
X008475Y029250D02*
X008475Y029350D01*
X008475Y029450D01*
X008475Y029350D02*
X008375Y029350D01*
X008475Y029350D02*
X008575Y029350D01*
X009275Y028850D02*
X009675Y028850D01*
X014525Y025225D02*
X014775Y025475D01*
X016275Y025475D01*
X016525Y025225D01*
X016525Y024725D01*
X016275Y024475D01*
X016525Y024225D01*
X016525Y023725D01*
X016275Y023475D01*
X016525Y023225D01*
X016525Y022725D01*
X016275Y022475D01*
X016525Y022225D01*
X016525Y021725D01*
X016275Y021475D01*
X016525Y021225D01*
X016525Y020725D01*
X016275Y020475D01*
X014775Y020475D01*
X014525Y020725D01*
X014525Y021225D01*
X014775Y021475D01*
X014525Y021725D01*
X014525Y022225D01*
X014775Y022475D01*
X014525Y022725D01*
X014525Y023225D01*
X014775Y023475D01*
X014525Y023725D01*
X014525Y024225D01*
X014775Y024475D01*
X014525Y024725D01*
X014525Y025225D01*
X015400Y027225D02*
X015400Y027605D01*
X015400Y028345D02*
X015400Y028725D01*
X008925Y022225D02*
X004025Y022225D01*
X008025Y020975D02*
X008025Y020595D01*
X008025Y019855D02*
X008025Y019475D01*
X009175Y018475D02*
X009173Y018445D01*
X009168Y018415D01*
X009159Y018386D01*
X009146Y018359D01*
X009131Y018333D01*
X009112Y018309D01*
X009091Y018288D01*
X009067Y018269D01*
X009041Y018254D01*
X009014Y018241D01*
X008985Y018232D01*
X008955Y018227D01*
X008925Y018225D01*
X004025Y018225D01*
X003275Y017887D02*
X003275Y017564D01*
X002775Y017564D02*
X002775Y017887D01*
X008925Y022225D02*
X008955Y022223D01*
X008985Y022218D01*
X009014Y022209D01*
X009041Y022196D01*
X009067Y022181D01*
X009091Y022162D01*
X009112Y022141D01*
X009131Y022117D01*
X009146Y022091D01*
X009159Y022064D01*
X009168Y022035D01*
X009173Y022005D01*
X009175Y021975D01*
X009175Y018475D01*
X010375Y019225D02*
X010575Y019225D01*
X010575Y019725D01*
X010575Y020225D01*
X010375Y020225D01*
X010375Y019225D01*
X010725Y019225D02*
X010825Y019225D01*
X010825Y019125D01*
X010825Y019225D02*
X010825Y019325D01*
X010825Y019225D02*
X010925Y019225D01*
X010925Y019725D02*
X010575Y019725D01*
X009275Y019725D02*
X009277Y019788D01*
X009283Y019850D01*
X009293Y019912D01*
X009306Y019974D01*
X009324Y020034D01*
X009345Y020093D01*
X009370Y020151D01*
X009399Y020207D01*
X009431Y020261D01*
X009466Y020313D01*
X009504Y020362D01*
X009546Y020410D01*
X009590Y020454D01*
X009638Y020496D01*
X009687Y020534D01*
X009739Y020569D01*
X009793Y020601D01*
X009849Y020630D01*
X009907Y020655D01*
X009966Y020676D01*
X010026Y020694D01*
X010088Y020707D01*
X010150Y020717D01*
X010212Y020723D01*
X010275Y020725D01*
X010338Y020723D01*
X010400Y020717D01*
X010462Y020707D01*
X010524Y020694D01*
X010584Y020676D01*
X010643Y020655D01*
X010701Y020630D01*
X010757Y020601D01*
X010811Y020569D01*
X010863Y020534D01*
X010912Y020496D01*
X010960Y020454D01*
X011004Y020410D01*
X011046Y020362D01*
X011084Y020313D01*
X011119Y020261D01*
X011151Y020207D01*
X011180Y020151D01*
X011205Y020093D01*
X011226Y020034D01*
X011244Y019974D01*
X011257Y019912D01*
X011267Y019850D01*
X011273Y019788D01*
X011275Y019725D01*
X011273Y019662D01*
X011267Y019600D01*
X011257Y019538D01*
X011244Y019476D01*
X011226Y019416D01*
X011205Y019357D01*
X011180Y019299D01*
X011151Y019243D01*
X011119Y019189D01*
X011084Y019137D01*
X011046Y019088D01*
X011004Y019040D01*
X010960Y018996D01*
X010912Y018954D01*
X010863Y018916D01*
X010811Y018881D01*
X010757Y018849D01*
X010701Y018820D01*
X010643Y018795D01*
X010584Y018774D01*
X010524Y018756D01*
X010462Y018743D01*
X010400Y018733D01*
X010338Y018727D01*
X010275Y018725D01*
X010212Y018727D01*
X010150Y018733D01*
X010088Y018743D01*
X010026Y018756D01*
X009966Y018774D01*
X009907Y018795D01*
X009849Y018820D01*
X009793Y018849D01*
X009739Y018881D01*
X009687Y018916D01*
X009638Y018954D01*
X009590Y018996D01*
X009546Y019040D01*
X009504Y019088D01*
X009466Y019137D01*
X009431Y019189D01*
X009399Y019243D01*
X009370Y019299D01*
X009345Y019357D01*
X009324Y019416D01*
X009306Y019476D01*
X009293Y019538D01*
X009283Y019600D01*
X009277Y019662D01*
X009275Y019725D01*
X009625Y019725D02*
X010025Y019725D01*
X016700Y017875D02*
X016700Y017725D01*
X016750Y017675D01*
X016750Y015775D01*
X016700Y015725D01*
X016700Y015575D01*
X016702Y015558D01*
X016706Y015541D01*
X016713Y015525D01*
X016723Y015511D01*
X016736Y015498D01*
X016750Y015488D01*
X016766Y015481D01*
X016783Y015477D01*
X016800Y015475D01*
X017500Y015475D01*
X017517Y015477D01*
X017534Y015481D01*
X017550Y015488D01*
X017564Y015498D01*
X017577Y015511D01*
X017587Y015525D01*
X017594Y015541D01*
X017598Y015558D01*
X017600Y015575D01*
X017600Y015725D01*
X017550Y015775D01*
X017550Y017675D01*
X017600Y017725D01*
X017600Y017875D01*
X017598Y017892D01*
X017594Y017909D01*
X017587Y017925D01*
X017577Y017939D01*
X017564Y017952D01*
X017550Y017962D01*
X017534Y017969D01*
X017517Y017973D01*
X017500Y017975D01*
X016800Y017975D01*
X016783Y017973D01*
X016766Y017969D01*
X016750Y017962D01*
X016736Y017952D01*
X016723Y017939D01*
X016713Y017925D01*
X016706Y017909D01*
X016702Y017892D01*
X016700Y017875D01*
X016550Y012475D02*
X017250Y012475D01*
X017267Y012473D01*
X017284Y012469D01*
X017300Y012462D01*
X017314Y012452D01*
X017327Y012439D01*
X017337Y012425D01*
X017344Y012409D01*
X017348Y012392D01*
X017350Y012375D01*
X017350Y012225D01*
X017300Y012175D01*
X017300Y010275D01*
X017350Y010225D01*
X017350Y010075D01*
X017348Y010058D01*
X017344Y010041D01*
X017337Y010025D01*
X017327Y010011D01*
X017314Y009998D01*
X017300Y009988D01*
X017284Y009981D01*
X017267Y009977D01*
X017250Y009975D01*
X016550Y009975D01*
X016533Y009977D01*
X016516Y009981D01*
X016500Y009988D01*
X016486Y009998D01*
X016473Y010011D01*
X016463Y010025D01*
X016456Y010041D01*
X016452Y010058D01*
X016450Y010075D01*
X016450Y010225D01*
X016500Y010275D01*
X016500Y012175D01*
X016450Y012225D01*
X016450Y012375D01*
X016452Y012392D01*
X016456Y012409D01*
X016463Y012425D01*
X016473Y012439D01*
X016486Y012452D01*
X016500Y012462D01*
X016516Y012469D01*
X016533Y012473D01*
X016550Y012475D01*
X015841Y007354D02*
X015843Y007395D01*
X015849Y007436D01*
X015859Y007476D01*
X015872Y007515D01*
X015889Y007553D01*
X015910Y007589D01*
X015934Y007622D01*
X015961Y007653D01*
X015991Y007682D01*
X016023Y007708D01*
X016058Y007730D01*
X016095Y007749D01*
X016133Y007764D01*
X016173Y007776D01*
X016213Y007784D01*
X016254Y007788D01*
X016296Y007788D01*
X016337Y007784D01*
X016377Y007776D01*
X016417Y007764D01*
X016455Y007749D01*
X016492Y007730D01*
X016527Y007708D01*
X016559Y007682D01*
X016589Y007653D01*
X016616Y007622D01*
X016640Y007589D01*
X016661Y007553D01*
X016678Y007515D01*
X016691Y007476D01*
X016701Y007436D01*
X016707Y007395D01*
X016709Y007354D01*
X016707Y007313D01*
X016701Y007272D01*
X016691Y007232D01*
X016678Y007193D01*
X016661Y007155D01*
X016640Y007119D01*
X016616Y007086D01*
X016589Y007055D01*
X016559Y007026D01*
X016527Y007000D01*
X016492Y006978D01*
X016455Y006959D01*
X016417Y006944D01*
X016377Y006932D01*
X016337Y006924D01*
X016296Y006920D01*
X016254Y006920D01*
X016213Y006924D01*
X016173Y006932D01*
X016133Y006944D01*
X016095Y006959D01*
X016058Y006978D01*
X016023Y007000D01*
X015991Y007026D01*
X015961Y007055D01*
X015934Y007086D01*
X015910Y007119D01*
X015889Y007155D01*
X015872Y007193D01*
X015859Y007232D01*
X015849Y007272D01*
X015843Y007313D01*
X015841Y007354D01*
X017841Y007354D02*
X017843Y007395D01*
X017849Y007436D01*
X017859Y007476D01*
X017872Y007515D01*
X017889Y007553D01*
X017910Y007589D01*
X017934Y007622D01*
X017961Y007653D01*
X017991Y007682D01*
X018023Y007708D01*
X018058Y007730D01*
X018095Y007749D01*
X018133Y007764D01*
X018173Y007776D01*
X018213Y007784D01*
X018254Y007788D01*
X018296Y007788D01*
X018337Y007784D01*
X018377Y007776D01*
X018417Y007764D01*
X018455Y007749D01*
X018492Y007730D01*
X018527Y007708D01*
X018559Y007682D01*
X018589Y007653D01*
X018616Y007622D01*
X018640Y007589D01*
X018661Y007553D01*
X018678Y007515D01*
X018691Y007476D01*
X018701Y007436D01*
X018707Y007395D01*
X018709Y007354D01*
X018707Y007313D01*
X018701Y007272D01*
X018691Y007232D01*
X018678Y007193D01*
X018661Y007155D01*
X018640Y007119D01*
X018616Y007086D01*
X018589Y007055D01*
X018559Y007026D01*
X018527Y007000D01*
X018492Y006978D01*
X018455Y006959D01*
X018417Y006944D01*
X018377Y006932D01*
X018337Y006924D01*
X018296Y006920D01*
X018254Y006920D01*
X018213Y006924D01*
X018173Y006932D01*
X018133Y006944D01*
X018095Y006959D01*
X018058Y006978D01*
X018023Y007000D01*
X017991Y007026D01*
X017961Y007055D01*
X017934Y007086D01*
X017910Y007119D01*
X017889Y007155D01*
X017872Y007193D01*
X017859Y007232D01*
X017849Y007272D01*
X017843Y007313D01*
X017841Y007354D01*
X019841Y007354D02*
X019843Y007395D01*
X019849Y007436D01*
X019859Y007476D01*
X019872Y007515D01*
X019889Y007553D01*
X019910Y007589D01*
X019934Y007622D01*
X019961Y007653D01*
X019991Y007682D01*
X020023Y007708D01*
X020058Y007730D01*
X020095Y007749D01*
X020133Y007764D01*
X020173Y007776D01*
X020213Y007784D01*
X020254Y007788D01*
X020296Y007788D01*
X020337Y007784D01*
X020377Y007776D01*
X020417Y007764D01*
X020455Y007749D01*
X020492Y007730D01*
X020527Y007708D01*
X020559Y007682D01*
X020589Y007653D01*
X020616Y007622D01*
X020640Y007589D01*
X020661Y007553D01*
X020678Y007515D01*
X020691Y007476D01*
X020701Y007436D01*
X020707Y007395D01*
X020709Y007354D01*
X020707Y007313D01*
X020701Y007272D01*
X020691Y007232D01*
X020678Y007193D01*
X020661Y007155D01*
X020640Y007119D01*
X020616Y007086D01*
X020589Y007055D01*
X020559Y007026D01*
X020527Y007000D01*
X020492Y006978D01*
X020455Y006959D01*
X020417Y006944D01*
X020377Y006932D01*
X020337Y006924D01*
X020296Y006920D01*
X020254Y006920D01*
X020213Y006924D01*
X020173Y006932D01*
X020133Y006944D01*
X020095Y006959D01*
X020058Y006978D01*
X020023Y007000D01*
X019991Y007026D01*
X019961Y007055D01*
X019934Y007086D01*
X019910Y007119D01*
X019889Y007155D01*
X019872Y007193D01*
X019859Y007232D01*
X019849Y007272D01*
X019843Y007313D01*
X019841Y007354D01*
X021841Y007354D02*
X021843Y007395D01*
X021849Y007436D01*
X021859Y007476D01*
X021872Y007515D01*
X021889Y007553D01*
X021910Y007589D01*
X021934Y007622D01*
X021961Y007653D01*
X021991Y007682D01*
X022023Y007708D01*
X022058Y007730D01*
X022095Y007749D01*
X022133Y007764D01*
X022173Y007776D01*
X022213Y007784D01*
X022254Y007788D01*
X022296Y007788D01*
X022337Y007784D01*
X022377Y007776D01*
X022417Y007764D01*
X022455Y007749D01*
X022492Y007730D01*
X022527Y007708D01*
X022559Y007682D01*
X022589Y007653D01*
X022616Y007622D01*
X022640Y007589D01*
X022661Y007553D01*
X022678Y007515D01*
X022691Y007476D01*
X022701Y007436D01*
X022707Y007395D01*
X022709Y007354D01*
X022707Y007313D01*
X022701Y007272D01*
X022691Y007232D01*
X022678Y007193D01*
X022661Y007155D01*
X022640Y007119D01*
X022616Y007086D01*
X022589Y007055D01*
X022559Y007026D01*
X022527Y007000D01*
X022492Y006978D01*
X022455Y006959D01*
X022417Y006944D01*
X022377Y006932D01*
X022337Y006924D01*
X022296Y006920D01*
X022254Y006920D01*
X022213Y006924D01*
X022173Y006932D01*
X022133Y006944D01*
X022095Y006959D01*
X022058Y006978D01*
X022023Y007000D01*
X021991Y007026D01*
X021961Y007055D01*
X021934Y007086D01*
X021910Y007119D01*
X021889Y007155D01*
X021872Y007193D01*
X021859Y007232D01*
X021849Y007272D01*
X021843Y007313D01*
X021841Y007354D01*
X023430Y007505D02*
X023750Y007505D01*
X023857Y007612D01*
X023857Y008039D01*
X023750Y008146D01*
X023430Y008146D01*
X023430Y007505D01*
X024075Y007505D02*
X024075Y008146D01*
X024395Y008146D01*
X024502Y008039D01*
X024502Y007612D01*
X024395Y007505D01*
X024075Y007505D01*
X024719Y007505D02*
X025146Y007933D01*
X025146Y008039D01*
X025039Y008146D01*
X024826Y008146D01*
X024719Y008039D01*
X024719Y007505D02*
X025146Y007505D01*
X025805Y007505D02*
X025805Y008146D01*
X026232Y008146D01*
X026450Y008146D02*
X026770Y008146D01*
X026877Y008039D01*
X026877Y007826D01*
X026770Y007719D01*
X026450Y007719D01*
X026450Y007505D02*
X026450Y008146D01*
X026019Y007826D02*
X025805Y007826D01*
X025805Y007505D02*
X026232Y007505D01*
X027094Y007505D02*
X027094Y008146D01*
X027308Y007933D01*
X027521Y008146D01*
X027521Y007505D01*
X027739Y007505D02*
X027739Y007612D01*
X028166Y008039D01*
X028166Y008146D01*
X027739Y008146D01*
X028383Y007933D02*
X028597Y008146D01*
X028597Y007505D01*
X028810Y007505D02*
X028383Y007505D01*
X029028Y007505D02*
X029455Y007933D01*
X029455Y008039D01*
X029348Y008146D01*
X029135Y008146D01*
X029028Y008039D01*
X029028Y007505D02*
X029455Y007505D01*
X029672Y007612D02*
X029672Y007719D01*
X029779Y007826D01*
X029993Y007826D01*
X030099Y007719D01*
X030099Y007612D01*
X029993Y007505D01*
X029779Y007505D01*
X029672Y007612D01*
X029779Y007826D02*
X029672Y007933D01*
X029672Y008039D01*
X029779Y008146D01*
X029993Y008146D01*
X030099Y008039D01*
X030099Y007933D01*
X029993Y007826D01*
X030317Y007826D02*
X030744Y007826D01*
X030961Y007612D02*
X031068Y007505D01*
X031175Y007505D01*
X031282Y007612D01*
X031282Y008146D01*
X031388Y008146D02*
X031175Y008146D01*
X031606Y008039D02*
X031606Y007933D01*
X031713Y007826D01*
X031926Y007826D01*
X032033Y007719D01*
X032033Y007612D01*
X031926Y007505D01*
X031713Y007505D01*
X031606Y007612D01*
X031606Y007719D01*
X031713Y007826D01*
X031926Y007826D02*
X032033Y007933D01*
X032033Y008039D01*
X031926Y008146D01*
X031713Y008146D01*
X031606Y008039D01*
X032250Y007826D02*
X032678Y007826D01*
X032571Y008146D02*
X032250Y007826D01*
X032571Y007505D02*
X032571Y008146D01*
X004218Y012093D02*
X003463Y012093D01*
X003463Y012733D02*
X004218Y012733D01*
X047246Y046830D02*
X047673Y046830D01*
X047891Y046937D02*
X047891Y047044D01*
X047998Y047151D01*
X048211Y047151D01*
X048318Y047044D01*
X048318Y046937D01*
X048211Y046830D01*
X047998Y046830D01*
X047891Y046937D01*
X047998Y047151D02*
X047891Y047258D01*
X047891Y047364D01*
X047998Y047471D01*
X048211Y047471D01*
X048318Y047364D01*
X048318Y047258D01*
X048211Y047151D01*
X048535Y047364D02*
X048642Y047471D01*
X048856Y047471D01*
X048962Y047364D01*
X048535Y046937D01*
X048642Y046830D01*
X048856Y046830D01*
X048962Y046937D01*
X048962Y047364D01*
X048535Y047364D02*
X048535Y046937D01*
X047673Y047364D02*
X047246Y046937D01*
X047246Y046830D01*
X047246Y047471D02*
X047673Y047471D01*
X047673Y047364D01*
X053221Y047546D02*
X053221Y046905D01*
X053542Y046905D01*
X053648Y047012D01*
X053648Y047439D01*
X053542Y047546D01*
X053221Y047546D01*
X053866Y047546D02*
X053866Y046905D01*
X054186Y046905D01*
X054293Y047012D01*
X054293Y047439D01*
X054186Y047546D01*
X053866Y047546D01*
X054510Y047439D02*
X054510Y047333D01*
X054617Y047226D01*
X054831Y047226D01*
X054937Y047119D01*
X054937Y047012D01*
X054831Y046905D01*
X054617Y046905D01*
X054510Y047012D01*
X054510Y047119D01*
X054617Y047226D01*
X054831Y047226D02*
X054937Y047333D01*
X054937Y047439D01*
X054831Y047546D01*
X054617Y047546D01*
X054510Y047439D01*
X055424Y047546D02*
X055424Y046905D01*
X055637Y047119D01*
X055851Y046905D01*
X055851Y047546D01*
X056068Y047439D02*
X056175Y047546D01*
X056388Y047546D01*
X056495Y047439D01*
X056495Y047333D01*
X056068Y046905D01*
X056495Y046905D01*
X056819Y047226D02*
X056713Y047333D01*
X056713Y047439D01*
X056819Y047546D01*
X057033Y047546D01*
X057140Y047439D01*
X057357Y047439D02*
X057357Y047012D01*
X057464Y046905D01*
X057678Y046905D01*
X057784Y047012D01*
X058002Y047012D02*
X058429Y047439D01*
X058429Y047012D01*
X058322Y046905D01*
X058109Y046905D01*
X058002Y047012D01*
X058002Y047439D01*
X058109Y047546D01*
X058322Y047546D01*
X058429Y047439D01*
X058646Y047439D02*
X058753Y047546D01*
X058967Y047546D01*
X059073Y047439D01*
X059073Y047333D01*
X058646Y046905D01*
X059073Y046905D01*
X059291Y047012D02*
X059718Y047439D01*
X059718Y047012D01*
X059611Y046905D01*
X059398Y046905D01*
X059291Y047012D01*
X059291Y047439D01*
X059398Y047546D01*
X059611Y047546D01*
X059718Y047439D01*
X059935Y047439D02*
X059935Y047012D01*
X060042Y046905D01*
X060256Y046905D01*
X060362Y047012D01*
X060362Y047439D02*
X060256Y047546D01*
X060042Y047546D01*
X059935Y047439D01*
X057784Y047439D02*
X057678Y047546D01*
X057464Y047546D01*
X057357Y047439D01*
X061650Y040788D02*
X061400Y040538D01*
X061400Y040038D01*
X061650Y039788D01*
X062150Y039788D01*
X062400Y040038D01*
X062650Y039788D01*
X063150Y039788D01*
X063400Y040038D01*
X063650Y039788D01*
X064150Y039788D01*
X064400Y040038D01*
X064650Y039788D01*
X065150Y039788D01*
X065400Y040038D01*
X065400Y040538D01*
X065150Y040788D01*
X064650Y040788D01*
X064400Y040538D01*
X064150Y040788D01*
X063650Y040788D01*
X063400Y040538D01*
X063150Y040788D01*
X062650Y040788D01*
X062400Y040538D01*
X062150Y040788D01*
X061650Y040788D01*
D17*
X038586Y024716D02*
X038586Y024506D01*
X038481Y024401D01*
X038165Y024401D01*
X038165Y024190D02*
X038165Y024821D01*
X038481Y024821D01*
X038586Y024716D01*
X037941Y024506D02*
X037521Y024506D01*
X037297Y024401D02*
X037192Y024506D01*
X036876Y024506D01*
X036876Y024296D01*
X036981Y024190D01*
X037192Y024190D01*
X037297Y024296D01*
X037297Y024401D01*
X037087Y024716D02*
X036876Y024506D01*
X037087Y024716D02*
X037297Y024821D01*
X036652Y024190D02*
X036232Y024190D01*
X036442Y024190D02*
X036442Y024821D01*
X036232Y024611D01*
X036008Y024611D02*
X036008Y024190D01*
X036008Y024506D02*
X035587Y024506D01*
X035587Y024611D02*
X035587Y024190D01*
X035363Y024296D02*
X035363Y024506D01*
X035153Y024506D01*
X035363Y024716D02*
X035258Y024821D01*
X035048Y024821D01*
X034943Y024716D01*
X034943Y024296D01*
X035048Y024190D01*
X035258Y024190D01*
X035363Y024296D01*
X035587Y024611D02*
X035797Y024821D01*
X036008Y024611D01*
X035165Y025185D02*
X035165Y025291D01*
X035586Y025711D01*
X035586Y025816D01*
X035165Y025816D01*
X034941Y025711D02*
X034941Y025291D01*
X034836Y025185D01*
X034521Y025185D01*
X034521Y025816D01*
X034836Y025816D01*
X034941Y025711D01*
X034297Y025711D02*
X034297Y025291D01*
X034192Y025185D01*
X033876Y025185D01*
X033876Y025816D01*
X034192Y025816D01*
X034297Y025711D01*
X034298Y024821D02*
X034298Y024190D01*
X034719Y024190D01*
X034508Y024506D02*
X034298Y024506D01*
X034298Y024821D02*
X034719Y024821D01*
X034074Y024821D02*
X034074Y024190D01*
X033654Y024190D02*
X033654Y024821D01*
X033864Y024611D01*
X034074Y024821D01*
X007660Y039348D02*
X007555Y039243D01*
X007345Y039243D01*
X007240Y039348D01*
X007240Y039558D02*
X007450Y039663D01*
X007555Y039663D01*
X007660Y039558D01*
X007660Y039348D01*
X007240Y039558D02*
X007240Y039874D01*
X007660Y039874D01*
X007016Y039558D02*
X006595Y039558D01*
X006911Y039874D01*
X006911Y039243D01*
X006371Y039348D02*
X006371Y039453D01*
X006266Y039558D01*
X005951Y039558D01*
X005951Y039348D01*
X006056Y039243D01*
X006266Y039243D01*
X006371Y039348D01*
X006161Y039768D02*
X005951Y039558D01*
X006161Y039768D02*
X006371Y039874D01*
X006144Y040045D02*
X005724Y040045D01*
X005934Y040045D02*
X005934Y040676D01*
X005724Y040466D01*
X005500Y040466D02*
X005290Y040676D01*
X005080Y040466D01*
X005080Y040045D01*
X004855Y040151D02*
X004855Y040571D01*
X004750Y040676D01*
X004435Y040676D01*
X004435Y040045D01*
X004750Y040045D01*
X004855Y040151D01*
X004872Y039874D02*
X005082Y039663D01*
X005082Y039243D01*
X005306Y039243D02*
X005727Y039243D01*
X005516Y039243D02*
X005516Y039874D01*
X005306Y039663D01*
X005082Y039558D02*
X004662Y039558D01*
X004662Y039663D02*
X004872Y039874D01*
X004662Y039663D02*
X004662Y039243D01*
X004437Y039243D02*
X004017Y039874D01*
X003793Y039768D02*
X003688Y039874D01*
X003478Y039874D01*
X003373Y039768D01*
X003373Y039348D01*
X003478Y039243D01*
X003688Y039243D01*
X003793Y039348D01*
X004017Y039243D02*
X004437Y039874D01*
X005080Y040361D02*
X005500Y040361D01*
X005500Y040466D02*
X005500Y040045D01*
X015398Y045166D02*
X015503Y045060D01*
X015713Y045060D01*
X015819Y045166D01*
X015819Y045271D01*
X015713Y045376D01*
X015503Y045376D01*
X015398Y045481D01*
X015398Y045586D01*
X015503Y045691D01*
X015713Y045691D01*
X015819Y045586D01*
X016043Y045586D02*
X016043Y045166D01*
X016148Y045060D01*
X016358Y045060D01*
X016463Y045166D01*
X016687Y045060D02*
X016687Y045481D01*
X016897Y045691D01*
X017108Y045481D01*
X017108Y045060D01*
X017332Y045060D02*
X017332Y045691D01*
X017647Y045691D01*
X017752Y045586D01*
X017752Y045376D01*
X017647Y045271D01*
X017332Y045271D01*
X017542Y045271D02*
X017752Y045060D01*
X018187Y045060D02*
X018187Y045691D01*
X018397Y045691D02*
X017976Y045691D01*
X018621Y045376D02*
X019041Y045376D01*
X019265Y045376D02*
X019476Y045376D01*
X019686Y045691D02*
X019265Y045691D01*
X019265Y045060D01*
X017108Y045376D02*
X016687Y045376D01*
X016463Y045586D02*
X016358Y045691D01*
X016148Y045691D01*
X016043Y045586D01*
X025685Y045991D02*
X025790Y045885D01*
X026000Y045885D01*
X026105Y045991D01*
X026105Y046096D01*
X026000Y046201D01*
X025790Y046201D01*
X025685Y046306D01*
X025685Y046411D01*
X025790Y046516D01*
X026000Y046516D01*
X026105Y046411D01*
X026330Y046411D02*
X026330Y045991D01*
X026435Y045885D01*
X026645Y045885D01*
X026750Y045991D01*
X026974Y045885D02*
X026974Y046306D01*
X027184Y046516D01*
X027394Y046306D01*
X027394Y045885D01*
X027619Y045885D02*
X027619Y046516D01*
X027934Y046516D01*
X028039Y046411D01*
X028039Y046201D01*
X027934Y046096D01*
X027619Y046096D01*
X027829Y046096D02*
X028039Y045885D01*
X028473Y045885D02*
X028473Y046516D01*
X028263Y046516D02*
X028684Y046516D01*
X028908Y046201D02*
X029328Y046201D01*
X029552Y046201D02*
X029762Y046201D01*
X029552Y046516D02*
X029552Y045885D01*
X029552Y046516D02*
X029973Y046516D01*
X027394Y046201D02*
X026974Y046201D01*
X026750Y046411D02*
X026645Y046516D01*
X026435Y046516D01*
X026330Y046411D01*
X026330Y046960D02*
X026750Y047381D01*
X026750Y047486D01*
X026645Y047591D01*
X026435Y047591D01*
X026330Y047486D01*
X026105Y047591D02*
X025685Y046960D01*
X026105Y046960D02*
X025685Y047591D01*
X026330Y046960D02*
X026750Y046960D01*
X034560Y005516D02*
X034875Y005516D01*
X034980Y005411D01*
X034980Y004991D01*
X034875Y004885D01*
X034560Y004885D01*
X034560Y005516D01*
X035205Y005516D02*
X035205Y004885D01*
X035520Y004885D01*
X035625Y004991D01*
X035625Y005411D01*
X035520Y005516D01*
X035205Y005516D01*
X035849Y005201D02*
X036164Y005201D01*
X036269Y005096D01*
X036269Y004991D01*
X036164Y004885D01*
X035954Y004885D01*
X035849Y004991D01*
X035849Y005201D01*
X036059Y005411D01*
X036269Y005516D01*
X037060Y005206D02*
X037375Y005206D01*
X037480Y005101D01*
X037480Y004996D01*
X037375Y004890D01*
X037165Y004890D01*
X037060Y004996D01*
X037060Y005206D01*
X037270Y005416D01*
X037480Y005521D01*
X037705Y005416D02*
X037810Y005521D01*
X038020Y005521D01*
X038125Y005416D01*
X038125Y005311D01*
X037705Y004890D01*
X038125Y004890D01*
X038349Y004890D02*
X038769Y005311D01*
X038769Y005416D01*
X038664Y005521D01*
X038454Y005521D01*
X038349Y005416D01*
X038349Y004890D02*
X038769Y004890D01*
X038994Y004996D02*
X039099Y004890D01*
X039309Y004890D01*
X039414Y004996D01*
X039414Y005206D01*
X039309Y005311D01*
X039204Y005311D01*
X038994Y005206D01*
X038994Y005521D01*
X039414Y005521D01*
X039638Y005206D02*
X039848Y005416D01*
X040059Y005521D01*
X039953Y005206D02*
X039638Y005206D01*
X039638Y004996D01*
X039743Y004890D01*
X039953Y004890D01*
X040059Y004996D01*
X040059Y005101D01*
X039953Y005206D01*
D18*
X011400Y025975D02*
X011400Y029975D01*
X004025Y022225D02*
X004025Y018225D01*
D19*
X007525Y019855D02*
X008025Y019855D01*
X008525Y019855D01*
X008525Y020105D02*
X008525Y020355D01*
X007525Y020355D01*
X007525Y020105D01*
X008525Y020105D01*
X008525Y020595D02*
X008025Y020595D01*
X007525Y020595D01*
X014900Y027605D02*
X015400Y027605D01*
X015900Y027605D01*
X015900Y027855D02*
X015900Y028105D01*
X014900Y028105D01*
X014900Y027855D01*
X015900Y027855D01*
X015900Y028345D02*
X015400Y028345D01*
X014900Y028345D01*
D20*
X002204Y018393D02*
X001897Y018393D01*
X001897Y018163D01*
X002051Y018240D01*
X002127Y018240D01*
X002204Y018163D01*
X002204Y018010D01*
X002127Y017933D01*
X001974Y017933D01*
X001897Y018010D01*
X001744Y017933D02*
X001437Y017933D01*
X001744Y018240D01*
X001744Y018317D01*
X001667Y018393D01*
X001513Y018393D01*
X001437Y018317D01*
X001283Y018317D02*
X001207Y018393D01*
X000976Y018393D01*
X000976Y017933D01*
X000976Y018086D02*
X001207Y018086D01*
X001283Y018163D01*
X001283Y018317D01*
X001130Y018086D02*
X001283Y017933D01*
X001667Y017643D02*
X001667Y017183D01*
X001820Y017183D02*
X001513Y017183D01*
X001513Y017490D02*
X001667Y017643D01*
X001974Y017643D02*
X001974Y017183D01*
X001974Y017336D02*
X002204Y017490D01*
X001974Y017336D02*
X002204Y017183D01*
X002016Y016250D02*
X002016Y015789D01*
X001863Y015789D02*
X002170Y015789D01*
X002189Y015527D02*
X002189Y015220D01*
X002189Y015374D02*
X002343Y015527D01*
X002420Y015527D01*
X002036Y015451D02*
X002036Y015374D01*
X001729Y015374D01*
X001729Y015297D02*
X001729Y015451D01*
X001806Y015527D01*
X001959Y015527D01*
X002036Y015451D01*
X001959Y015220D02*
X001806Y015220D01*
X001729Y015297D01*
X001576Y015297D02*
X001576Y015527D01*
X001576Y015297D02*
X001499Y015220D01*
X001422Y015297D01*
X001345Y015220D01*
X001269Y015297D01*
X001269Y015527D01*
X001115Y015451D02*
X001038Y015527D01*
X000885Y015527D01*
X000808Y015451D01*
X000808Y015297D01*
X000885Y015220D01*
X001038Y015220D01*
X001115Y015297D01*
X001115Y015451D01*
X001249Y015789D02*
X001249Y016250D01*
X001402Y016250D02*
X001402Y015789D01*
X001709Y015789D01*
X001863Y016096D02*
X002016Y016250D01*
X001249Y016019D02*
X000942Y016019D01*
X000942Y015789D02*
X000942Y016250D01*
X000578Y015527D02*
X000655Y015451D01*
X000655Y015297D01*
X000578Y015220D01*
X000348Y015220D01*
X000348Y015067D02*
X000348Y015527D01*
X000578Y015527D01*
X000817Y014500D02*
X000817Y014039D01*
X000780Y013931D02*
X000780Y013470D01*
X000550Y013470D01*
X000473Y013547D01*
X000473Y013701D01*
X000550Y013777D01*
X000780Y013777D01*
X000933Y013701D02*
X000933Y013547D01*
X001010Y013470D01*
X001240Y013470D01*
X001394Y013547D02*
X001470Y013624D01*
X001701Y013624D01*
X001701Y013701D02*
X001701Y013470D01*
X001470Y013470D01*
X001394Y013547D01*
X001470Y013777D02*
X001624Y013777D01*
X001701Y013701D01*
X001854Y013777D02*
X001854Y013470D01*
X001854Y013624D02*
X002007Y013777D01*
X002084Y013777D01*
X002238Y013701D02*
X002314Y013777D01*
X002545Y013777D01*
X002545Y013931D02*
X002545Y013470D01*
X002314Y013470D01*
X002238Y013547D01*
X002238Y013701D01*
X002045Y014039D02*
X001738Y014039D01*
X002045Y014346D01*
X002045Y014423D01*
X001968Y014500D01*
X001814Y014500D01*
X001738Y014423D01*
X001584Y014039D02*
X001277Y014039D01*
X001277Y014500D01*
X001124Y014500D02*
X001124Y014039D01*
X001124Y014269D02*
X000817Y014269D01*
X001010Y013777D02*
X000933Y013701D01*
X001010Y013777D02*
X001240Y013777D01*
X000319Y013777D02*
X000089Y013777D01*
X000012Y013701D01*
X000089Y013624D01*
X000243Y013624D01*
X000319Y013547D01*
X000243Y013470D01*
X000012Y013470D01*
X001289Y012831D02*
X001519Y012831D01*
X001596Y012754D01*
X001596Y012601D01*
X001519Y012524D01*
X001289Y012524D01*
X001442Y012524D02*
X001596Y012370D01*
X001749Y012370D02*
X002056Y012677D01*
X002056Y012754D01*
X001979Y012831D01*
X001826Y012831D01*
X001749Y012754D01*
X001749Y012370D02*
X002056Y012370D01*
X002210Y012447D02*
X002210Y012601D01*
X002440Y012601D01*
X002517Y012524D01*
X002517Y012447D01*
X002440Y012370D01*
X002286Y012370D01*
X002210Y012447D01*
X002210Y012601D02*
X002363Y012754D01*
X002517Y012831D01*
X002224Y012143D02*
X002224Y011683D01*
X002224Y011836D02*
X002454Y011990D01*
X002224Y011836D02*
X002454Y011683D01*
X002070Y011683D02*
X001763Y011683D01*
X001917Y011683D02*
X001917Y012143D01*
X001763Y011990D01*
X001289Y012370D02*
X001289Y012831D01*
X003933Y013976D02*
X003933Y014725D01*
X004367Y014725D01*
X004367Y013976D01*
X003933Y013976D01*
X003933Y015976D02*
X004367Y015976D01*
X004367Y016725D01*
X003933Y016725D01*
X003933Y015976D01*
X008184Y004981D02*
X008107Y004904D01*
X008107Y004827D01*
X008184Y004751D01*
X008338Y004751D01*
X008414Y004674D01*
X008414Y004597D01*
X008338Y004520D01*
X008184Y004520D01*
X008107Y004597D01*
X008184Y004981D02*
X008338Y004981D01*
X008414Y004904D01*
X008568Y004981D02*
X008568Y004520D01*
X008798Y004520D01*
X008875Y004597D01*
X008875Y004904D01*
X008798Y004981D01*
X008568Y004981D01*
X009028Y004520D02*
X009335Y004981D01*
X009489Y004981D02*
X009642Y004827D01*
X009796Y004981D01*
X009796Y004520D01*
X009949Y004520D02*
X009949Y004981D01*
X010102Y004827D01*
X010256Y004981D01*
X010256Y004520D01*
X010409Y004597D02*
X010486Y004520D01*
X010640Y004520D01*
X010716Y004597D01*
X010409Y004597D02*
X010409Y004904D01*
X010486Y004981D01*
X010640Y004981D01*
X010716Y004904D01*
X011330Y004904D02*
X011330Y004597D01*
X011407Y004520D01*
X011560Y004520D01*
X011637Y004597D01*
X011791Y004597D02*
X011867Y004674D01*
X012097Y004674D01*
X012097Y004751D02*
X012097Y004520D01*
X011867Y004520D01*
X011791Y004597D01*
X011867Y004827D02*
X012021Y004827D01*
X012097Y004751D01*
X012251Y004827D02*
X012251Y004520D01*
X012251Y004674D02*
X012404Y004827D01*
X012481Y004827D01*
X012635Y004751D02*
X012711Y004827D01*
X012942Y004827D01*
X012942Y004981D02*
X012942Y004520D01*
X012711Y004520D01*
X012635Y004597D01*
X012635Y004751D01*
X011637Y004904D02*
X011560Y004981D01*
X011407Y004981D01*
X011330Y004904D01*
X009489Y004981D02*
X009489Y004520D01*
X015648Y004499D02*
X015648Y004039D01*
X015648Y004192D02*
X015879Y004192D01*
X015955Y004269D01*
X015955Y004422D01*
X015879Y004499D01*
X015648Y004499D01*
X015802Y004192D02*
X015955Y004039D01*
X016109Y003962D02*
X016416Y003962D01*
X016569Y004039D02*
X016799Y004039D01*
X016876Y004116D01*
X016876Y004192D01*
X016799Y004269D01*
X016569Y004269D01*
X016569Y004039D02*
X016569Y004499D01*
X016799Y004499D01*
X016876Y004422D01*
X016876Y004346D01*
X016799Y004269D01*
X017648Y004192D02*
X017879Y004192D01*
X017955Y004269D01*
X017955Y004422D01*
X017879Y004499D01*
X017648Y004499D01*
X017648Y004039D01*
X017802Y004192D02*
X017955Y004039D01*
X018109Y003962D02*
X018416Y003962D01*
X018569Y004116D02*
X018646Y004039D01*
X018799Y004039D01*
X018876Y004116D01*
X018876Y004269D01*
X018723Y004269D01*
X018876Y004422D02*
X018799Y004499D01*
X018646Y004499D01*
X018569Y004422D01*
X018569Y004116D01*
X019523Y004192D02*
X019754Y004192D01*
X019830Y004269D01*
X019830Y004422D01*
X019754Y004499D01*
X019523Y004499D01*
X019523Y004039D01*
X019677Y004192D02*
X019830Y004039D01*
X019984Y003962D02*
X020291Y003962D01*
X020444Y004039D02*
X020444Y004499D01*
X020674Y004499D01*
X020751Y004422D01*
X020751Y004269D01*
X020674Y004192D01*
X020444Y004192D01*
X020598Y004192D02*
X020751Y004039D01*
X021398Y004039D02*
X021398Y004499D01*
X021629Y004499D01*
X021705Y004422D01*
X021705Y004269D01*
X021629Y004192D01*
X021398Y004192D01*
X021552Y004192D02*
X021705Y004039D01*
X021859Y003962D02*
X022166Y003962D01*
X022319Y004116D02*
X022396Y004039D01*
X022549Y004039D01*
X022626Y004116D01*
X022626Y004192D01*
X022549Y004269D01*
X022396Y004269D01*
X022319Y004346D01*
X022319Y004422D01*
X022396Y004499D01*
X022549Y004499D01*
X022626Y004422D01*
X022780Y004422D02*
X022933Y004269D01*
X022933Y004039D01*
X022933Y004269D02*
X023086Y004422D01*
X023086Y004499D01*
X022780Y004499D02*
X022780Y004422D01*
X041761Y014779D02*
X041761Y014856D01*
X042068Y015163D01*
X042068Y015239D01*
X041761Y015239D01*
X042222Y015009D02*
X042529Y015009D01*
X042682Y015009D02*
X042989Y015009D01*
X043143Y015163D02*
X043143Y014856D01*
X043219Y014779D01*
X043373Y014779D01*
X043450Y014856D01*
X043603Y014779D02*
X043910Y015086D01*
X043910Y015163D01*
X043833Y015239D01*
X043680Y015239D01*
X043603Y015163D01*
X043450Y015163D02*
X043373Y015239D01*
X043219Y015239D01*
X043143Y015163D01*
X042989Y015239D02*
X042989Y014779D01*
X042682Y014779D02*
X042682Y015239D01*
X042452Y015239D02*
X042222Y015009D01*
X042452Y014779D02*
X042452Y015239D01*
X043603Y014779D02*
X043910Y014779D01*
X044063Y015009D02*
X044370Y015009D01*
X044524Y015009D02*
X044677Y015086D01*
X044754Y015086D01*
X044831Y015009D01*
X044831Y014856D01*
X044754Y014779D01*
X044601Y014779D01*
X044524Y014856D01*
X044524Y015009D02*
X044524Y015239D01*
X044831Y015239D01*
X044984Y015239D02*
X045291Y014779D01*
X045291Y015239D01*
X044984Y015239D02*
X044984Y014779D01*
X044294Y014779D02*
X044294Y015239D01*
X044063Y015009D01*
X047637Y014907D02*
X047637Y014830D01*
X047637Y014907D02*
X047944Y015214D01*
X047944Y015291D01*
X047637Y015291D01*
X048098Y015060D02*
X048405Y015060D01*
X048558Y015060D02*
X048865Y015060D01*
X049019Y015214D02*
X049019Y014907D01*
X049095Y014830D01*
X049249Y014830D01*
X049326Y014907D01*
X049479Y014830D02*
X049786Y015137D01*
X049786Y015214D01*
X049709Y015291D01*
X049556Y015291D01*
X049479Y015214D01*
X049326Y015214D02*
X049249Y015291D01*
X049095Y015291D01*
X049019Y015214D01*
X048865Y015291D02*
X048865Y014830D01*
X048558Y014830D02*
X048558Y015291D01*
X048328Y015291D02*
X048328Y014830D01*
X048098Y015060D02*
X048328Y015291D01*
X049479Y014830D02*
X049786Y014830D01*
X049939Y015060D02*
X050246Y015060D01*
X050400Y015060D02*
X050553Y015137D01*
X050630Y015137D01*
X050707Y015060D01*
X050707Y014907D01*
X050630Y014830D01*
X050477Y014830D01*
X050400Y014907D01*
X050400Y015060D02*
X050400Y015291D01*
X050707Y015291D01*
X050860Y015291D02*
X051167Y014830D01*
X051167Y015291D01*
X050860Y015291D02*
X050860Y014830D01*
X050170Y014830D02*
X050170Y015291D01*
X049939Y015060D01*
X061699Y023409D02*
X061699Y023486D01*
X062006Y023793D01*
X062006Y023870D01*
X061699Y023870D01*
X061721Y024204D02*
X061952Y024204D01*
X062028Y024281D01*
X062028Y024588D01*
X061952Y024664D01*
X061721Y024664D01*
X061721Y024204D01*
X062182Y024204D02*
X062182Y024664D01*
X062412Y024664D01*
X062489Y024588D01*
X062489Y024281D01*
X062412Y024204D01*
X062182Y024204D01*
X062390Y023870D02*
X062159Y023640D01*
X062466Y023640D01*
X062620Y023640D02*
X062927Y023640D01*
X063080Y023793D02*
X063080Y023486D01*
X063157Y023409D01*
X063310Y023409D01*
X063387Y023486D01*
X063541Y023409D02*
X063847Y023716D01*
X063847Y023793D01*
X063771Y023870D01*
X063617Y023870D01*
X063541Y023793D01*
X063387Y023793D02*
X063310Y023870D01*
X063157Y023870D01*
X063080Y023793D01*
X062927Y023870D02*
X062927Y023409D01*
X062620Y023409D02*
X062620Y023870D01*
X062390Y023870D02*
X062390Y023409D01*
X062642Y024204D02*
X062949Y024204D01*
X062796Y024204D02*
X062796Y024664D01*
X062642Y024511D01*
X063103Y024588D02*
X063103Y024281D01*
X063410Y024588D01*
X063410Y024281D01*
X063333Y024204D01*
X063179Y024204D01*
X063103Y024281D01*
X063103Y024588D02*
X063179Y024664D01*
X063333Y024664D01*
X063410Y024588D01*
X064231Y023870D02*
X064001Y023640D01*
X064308Y023640D01*
X064461Y023640D02*
X064615Y023716D01*
X064691Y023716D01*
X064768Y023640D01*
X064768Y023486D01*
X064691Y023409D01*
X064538Y023409D01*
X064461Y023486D01*
X064461Y023640D02*
X064461Y023870D01*
X064768Y023870D01*
X064922Y023870D02*
X065229Y023409D01*
X065229Y023870D01*
X064922Y023870D02*
X064922Y023409D01*
X064231Y023409D02*
X064231Y023870D01*
X063847Y023409D02*
X063541Y023409D01*
X063358Y041245D02*
X063051Y041245D01*
X063358Y041552D01*
X063358Y041629D01*
X063281Y041706D01*
X063128Y041706D01*
X063051Y041629D01*
X062898Y041706D02*
X062591Y041245D01*
X062437Y041322D02*
X062361Y041245D01*
X062207Y041245D01*
X062130Y041322D01*
X062207Y041476D02*
X062361Y041476D01*
X062437Y041399D01*
X062437Y041322D01*
X062207Y041476D02*
X062130Y041552D01*
X062130Y041629D01*
X062207Y041706D01*
X062361Y041706D01*
X062437Y041629D01*
X062545Y041995D02*
X062852Y042456D01*
X063005Y042379D02*
X063082Y042456D01*
X063236Y042456D01*
X063312Y042379D01*
X063312Y042302D01*
X063236Y042226D01*
X063312Y042149D01*
X063312Y042072D01*
X063236Y041995D01*
X063082Y041995D01*
X063005Y042072D01*
X062852Y041995D02*
X062545Y042456D01*
X063159Y042226D02*
X063236Y042226D01*
X063972Y041706D02*
X063972Y041245D01*
X063972Y041399D02*
X064279Y041706D01*
X064432Y041706D02*
X064663Y041706D01*
X064739Y041629D01*
X064739Y041552D01*
X064663Y041476D01*
X064432Y041476D01*
X064432Y041706D02*
X064432Y041245D01*
X064663Y041245D01*
X064739Y041322D01*
X064739Y041399D01*
X064663Y041476D01*
X064279Y041245D02*
X064049Y041476D01*
X061977Y041476D02*
X061900Y041399D01*
X061670Y041399D01*
X061670Y041245D02*
X061670Y041706D01*
X061900Y041706D01*
X061977Y041629D01*
X061977Y041476D01*
X032926Y046691D02*
X032926Y046998D01*
X032926Y047283D02*
X032620Y047283D01*
X032773Y047283D02*
X032773Y047743D01*
X032620Y047590D01*
X032466Y047743D02*
X032159Y047283D01*
X032159Y046998D02*
X032159Y046768D01*
X032313Y046845D01*
X032389Y046845D01*
X032466Y046768D01*
X032466Y046615D01*
X032389Y046538D01*
X032236Y046538D01*
X032159Y046615D01*
X032159Y046998D02*
X032466Y046998D01*
X032620Y046998D02*
X032620Y046691D01*
X032773Y046538D01*
X032926Y046691D01*
X032466Y047283D02*
X032159Y047743D01*
X042743Y004435D02*
X042973Y004435D01*
X043050Y004358D01*
X043050Y004051D01*
X042973Y003974D01*
X042743Y003974D01*
X042743Y004435D01*
X043203Y004435D02*
X043203Y003974D01*
X043433Y003974D01*
X043510Y004051D01*
X043510Y004358D01*
X043433Y004435D01*
X043203Y004435D01*
X043664Y004205D02*
X043970Y004205D01*
X043894Y004435D02*
X043664Y004205D01*
X043894Y003974D02*
X043894Y004435D01*
X048442Y004436D02*
X048442Y003975D01*
X048672Y003975D01*
X048749Y004052D01*
X048749Y004359D01*
X048672Y004436D01*
X048442Y004436D01*
X048902Y004436D02*
X048902Y003975D01*
X049132Y003975D01*
X049209Y004052D01*
X049209Y004359D01*
X049132Y004436D01*
X048902Y004436D01*
X049362Y004436D02*
X049362Y004206D01*
X049516Y004282D01*
X049593Y004282D01*
X049669Y004206D01*
X049669Y004052D01*
X049593Y003975D01*
X049439Y003975D01*
X049362Y004052D01*
X049362Y004436D02*
X049669Y004436D01*
D21*
X016900Y009805D03*
X016900Y012645D03*
X017150Y015305D03*
X017150Y018145D03*
X046088Y031680D03*
X046088Y034520D03*
D22*
X023575Y039475D03*
X019075Y040100D03*
X016075Y040100D03*
X013325Y040100D03*
X010950Y039475D03*
X001950Y040288D03*
X009225Y028850D03*
X010075Y019725D03*
D23*
X011150Y022100D03*
X012150Y022100D03*
X012150Y023100D03*
X011150Y023100D03*
X011150Y024100D03*
X012150Y024100D03*
X015025Y023975D03*
X016025Y023975D03*
X016025Y022975D03*
X015025Y022975D03*
X015025Y021975D03*
X016025Y021975D03*
X016025Y020975D03*
X015025Y020975D03*
X015025Y024975D03*
X016025Y024975D03*
X009400Y031225D03*
X009400Y032225D03*
X009400Y033225D03*
X005525Y041600D03*
X004525Y041600D03*
X003525Y041600D03*
X061900Y040288D03*
X062900Y040288D03*
X063900Y040288D03*
X064900Y040288D03*
D24*
X066156Y042719D02*
X060644Y042719D01*
X060644Y047600D01*
X066156Y047600D01*
X066156Y042719D01*
X066156Y047207D02*
X060644Y047207D01*
D25*
X023161Y008063D02*
X021389Y008063D01*
X021389Y004638D01*
X023161Y004638D01*
X023161Y008063D01*
X021161Y008063D02*
X021161Y004638D01*
X019389Y004638D01*
X019389Y008063D01*
X021161Y008063D01*
X019161Y008063D02*
X019161Y004638D01*
X017389Y004638D01*
X017389Y008063D01*
X019161Y008063D01*
X017161Y008063D02*
X017161Y004638D01*
X015389Y004638D01*
X015389Y008063D01*
X017161Y008063D01*
D26*
X016275Y007354D03*
X018275Y007354D03*
X020275Y007354D03*
X022275Y007354D03*
D27*
X025275Y041900D03*
D28*
X024875Y043875D02*
X024875Y047925D01*
X007175Y047925D02*
X007175Y043875D01*
D29*
X004140Y016419D02*
X004081Y016360D01*
X004150Y016291D01*
X004209Y016350D01*
X004140Y016419D01*
X004150Y014410D02*
X004219Y014341D01*
X004160Y014282D01*
X004091Y014350D01*
X004150Y014410D01*
D30*
X003993Y014242D03*
X004307Y016459D03*
D31*
X003026Y017438D03*
X003026Y018018D03*
D32*
X003318Y012413D03*
X004358Y012413D03*
D33*
X003025Y018100D02*
X002338Y019788D01*
X015525Y020100D02*
X019900Y020600D01*
X028775Y019787D02*
X028650Y016163D01*
M02*
