G75*
G70*
%OFA0B0*%
%FSLAX24Y24*%
%IPPOS*%
%LPD*%
%AMOC8*
5,1,8,0,0,1.08239X$1,22.5*
%
%ADD10C,0.0160*%
%ADD11C,0.0240*%
%ADD12C,0.0051*%
%ADD13C,0.0110*%
%ADD14C,0.0080*%
%ADD15C,0.0050*%
%ADD16C,0.0010*%
%ADD17C,0.0060*%
%ADD18C,0.0070*%
%ADD19C,0.0320*%
%ADD20C,0.0120*%
%ADD21C,0.0040*%
%ADD22R,0.0240X0.0340*%
%ADD23R,0.0200X0.1000*%
%ADD24R,0.0200X0.0200*%
%ADD25C,0.0100*%
%ADD26R,0.0118X0.0827*%
%ADD27R,0.1000X0.0200*%
%ADD28C,0.0020*%
%ADD29C,0.0025*%
%ADD30C,0.0098*%
%ADD31R,0.0551X0.0256*%
%ADD32R,0.0290X0.0690*%
%ADD33R,0.0571X0.0295*%
%ADD34C,0.0000*%
D10*
X021706Y020163D02*
X020956Y021913D01*
X021706Y020163D02*
X025331Y020163D01*
X025831Y020538D01*
X030831Y022100D02*
X030831Y023100D01*
X031081Y018413D02*
X031956Y017038D01*
X033206Y017038D01*
X034581Y016163D01*
D11*
X038768Y014413D02*
X038768Y019538D01*
X023081Y018725D02*
X023081Y018325D01*
X023081Y015125D02*
X023081Y014725D01*
X022831Y013225D02*
X022831Y012825D01*
X022831Y009625D02*
X022831Y009225D01*
X009906Y019275D02*
X009206Y019275D01*
X009206Y021175D02*
X009906Y021175D01*
X017206Y027338D02*
X017906Y027338D01*
X017906Y029238D02*
X017206Y029238D01*
X052018Y031100D02*
X052018Y031500D01*
X052018Y034700D02*
X052018Y035100D01*
D12*
X006081Y003038D02*
X006081Y000126D01*
X006081Y000913D02*
X007105Y000811D01*
X007105Y000787D02*
X006081Y000913D01*
X007105Y001015D01*
X007105Y001039D02*
X007105Y000787D01*
X007105Y000862D02*
X006081Y000913D01*
X007105Y000964D01*
X007105Y001039D02*
X006081Y000913D01*
X072456Y000913D01*
X071432Y000811D01*
X071432Y000787D02*
X072456Y000913D01*
X071432Y001015D01*
X071432Y001039D02*
X071432Y000787D01*
X071432Y000862D02*
X072456Y000913D01*
X071432Y000964D01*
X071432Y001039D02*
X072456Y000913D01*
X072456Y000126D02*
X072456Y003038D01*
X073331Y003663D02*
X076118Y003663D01*
X075331Y003663D02*
X075433Y004687D01*
X075457Y004687D02*
X075331Y003663D01*
X075229Y004687D01*
X075205Y004687D02*
X075457Y004687D01*
X075382Y004687D02*
X075331Y003663D01*
X075280Y004687D01*
X075205Y004687D02*
X075331Y003663D01*
X075331Y047913D01*
X075433Y046889D01*
X075457Y046889D02*
X075331Y047913D01*
X075229Y046889D01*
X075205Y046889D02*
X075457Y046889D01*
X075382Y046889D02*
X075331Y047913D01*
X075280Y046889D01*
X075205Y046889D02*
X075331Y047913D01*
X076118Y047913D02*
X073081Y047913D01*
X008706Y043663D02*
X001544Y043663D01*
X002331Y043663D02*
X002433Y042639D01*
X002457Y042639D02*
X002331Y043663D01*
X002229Y042639D01*
X002205Y042639D02*
X002457Y042639D01*
X002382Y042639D02*
X002331Y043663D01*
X002280Y042639D01*
X002205Y042639D02*
X002331Y043663D01*
X002331Y041616D01*
X002331Y047913D02*
X002433Y048937D01*
X002457Y048937D02*
X002331Y047913D01*
X002229Y048937D01*
X002205Y048937D02*
X002457Y048937D01*
X002382Y048937D02*
X002331Y047913D01*
X002280Y048937D01*
X002205Y048937D02*
X002331Y047913D01*
X002331Y052774D01*
X001544Y047913D02*
X004831Y047913D01*
D13*
X001882Y048992D02*
X001882Y049838D01*
X001882Y049415D02*
X000613Y049415D01*
X001036Y048992D01*
X000825Y050260D02*
X000613Y050472D01*
X000613Y050895D01*
X000825Y051106D01*
X001671Y050260D01*
X001882Y050472D01*
X001882Y050895D01*
X001671Y051106D01*
X000825Y051106D01*
X000825Y050260D02*
X001671Y050260D01*
X001671Y051529D02*
X001671Y051741D01*
X001882Y051741D01*
X001882Y051529D01*
X001671Y051529D01*
X001671Y052164D02*
X001459Y052164D01*
X001248Y052375D01*
X001248Y052798D01*
X001459Y053010D01*
X001671Y053010D01*
X001882Y052798D01*
X001882Y052375D01*
X001671Y052164D01*
X001248Y052375D02*
X001036Y052164D01*
X000825Y052164D01*
X000613Y052375D01*
X000613Y052798D01*
X000825Y053010D01*
X001036Y053010D01*
X001248Y052798D01*
X036731Y002631D02*
X036308Y002208D01*
X036731Y002631D02*
X036731Y001362D01*
X036308Y001362D02*
X037154Y001362D01*
X037577Y001573D02*
X037577Y001996D01*
X038212Y001996D01*
X038423Y001785D01*
X038423Y001573D01*
X038212Y001362D01*
X037789Y001362D01*
X037577Y001573D01*
X037577Y001996D02*
X038000Y002419D01*
X038423Y002631D01*
X038846Y002419D02*
X038846Y002208D01*
X039057Y001996D01*
X039480Y001996D01*
X039692Y001785D01*
X039692Y001573D01*
X039480Y001362D01*
X039057Y001362D01*
X038846Y001573D01*
X038846Y001785D01*
X039057Y001996D01*
X039480Y001996D02*
X039692Y002208D01*
X039692Y002419D01*
X039480Y002631D01*
X039057Y002631D01*
X038846Y002419D01*
X040115Y001573D02*
X040326Y001573D01*
X040326Y001362D01*
X040115Y001362D01*
X040115Y001573D01*
X040749Y001573D02*
X040961Y001362D01*
X041384Y001362D01*
X041595Y001573D01*
X041595Y001996D01*
X041384Y002208D01*
X041172Y002208D01*
X040749Y001996D01*
X040749Y002631D01*
X041595Y002631D01*
X042018Y002419D02*
X042018Y002208D01*
X042229Y001996D01*
X042864Y001996D01*
X042864Y001573D02*
X042652Y001362D01*
X042229Y001362D01*
X042018Y001573D01*
X042864Y001573D02*
X042864Y002419D01*
X042652Y002631D01*
X042229Y002631D01*
X042018Y002419D01*
X073613Y023739D02*
X074882Y023739D01*
X074882Y023316D02*
X074882Y024162D01*
X074882Y024585D02*
X074882Y025431D01*
X074882Y025008D02*
X073613Y025008D01*
X074036Y024585D01*
X073613Y023739D02*
X074036Y023316D01*
X073825Y025854D02*
X073613Y026065D01*
X073613Y026488D01*
X073825Y026700D01*
X074036Y026700D01*
X074882Y025854D01*
X074882Y026700D01*
X074882Y027123D02*
X074882Y027334D01*
X074671Y027334D01*
X074671Y027123D01*
X074882Y027123D01*
X074248Y027757D02*
X074248Y028603D01*
X074882Y028392D02*
X073613Y028392D01*
X074248Y027757D01*
D14*
X070956Y039078D02*
X070816Y039078D01*
X070746Y039148D01*
X070746Y039428D01*
X070816Y039498D01*
X070956Y039498D01*
X071026Y039428D01*
X071026Y039288D02*
X070886Y039288D01*
X071026Y039288D02*
X071026Y039148D01*
X070956Y039078D01*
X070026Y039218D02*
X070026Y039498D01*
X070026Y039218D02*
X069886Y039078D01*
X069746Y039218D01*
X069746Y039498D01*
X069026Y039428D02*
X068956Y039498D01*
X068746Y039498D01*
X068746Y039078D01*
X068956Y039078D01*
X069026Y039148D01*
X069026Y039428D01*
X068026Y039428D02*
X067956Y039498D01*
X067816Y039498D01*
X067746Y039428D01*
X067746Y039148D01*
X067816Y039078D01*
X067956Y039078D01*
X068026Y039148D01*
X066575Y042719D02*
X072087Y042719D01*
X072087Y047600D01*
X066575Y047600D01*
X066575Y042719D01*
X066575Y047207D02*
X072087Y047207D01*
D15*
X071681Y040513D02*
X071456Y040288D01*
X071756Y040288D01*
X071681Y040063D02*
X071681Y040513D01*
X069367Y038588D02*
X069367Y038513D01*
X069292Y038438D01*
X069066Y038438D01*
X069066Y038213D02*
X069066Y038663D01*
X069292Y038663D01*
X069367Y038588D01*
X069292Y038438D02*
X069367Y038363D01*
X069367Y038288D01*
X069292Y038213D01*
X069066Y038213D01*
X068906Y038213D02*
X068681Y038438D01*
X068606Y038363D02*
X068906Y038663D01*
X068606Y038663D02*
X068606Y038213D01*
X068077Y038438D02*
X068002Y038363D01*
X067777Y038363D01*
X067777Y038213D02*
X067777Y038663D01*
X068002Y038663D01*
X068077Y038588D01*
X068077Y038438D01*
X067617Y038363D02*
X067617Y038288D01*
X067542Y038213D01*
X067391Y038213D01*
X067316Y038288D01*
X067156Y038213D02*
X066856Y038663D01*
X067156Y038663D02*
X066856Y038213D01*
X067316Y038588D02*
X067391Y038663D01*
X067542Y038663D01*
X067617Y038588D01*
X067617Y038513D01*
X067542Y038438D01*
X067617Y038363D01*
X067542Y038438D02*
X067466Y038438D01*
X067206Y040063D02*
X066906Y040063D01*
X067056Y040063D02*
X067056Y040513D01*
X066906Y040363D01*
X052243Y034232D02*
X052093Y034007D01*
X051943Y034232D01*
X051793Y034007D02*
X052243Y034007D01*
X052168Y033847D02*
X052243Y033772D01*
X052243Y033622D01*
X052168Y033546D01*
X051868Y033847D01*
X052168Y033847D01*
X051868Y033847D02*
X051793Y033772D01*
X051793Y033622D01*
X051868Y033546D01*
X052168Y033546D01*
X052243Y033386D02*
X052243Y033086D01*
X052218Y033040D02*
X052218Y032740D01*
X052218Y032890D02*
X051768Y032890D01*
X051918Y032740D01*
X051918Y032580D02*
X051843Y032580D01*
X051768Y032505D01*
X051768Y032355D01*
X051843Y032280D01*
X051843Y032120D02*
X051993Y032120D01*
X052068Y032045D01*
X052068Y031819D01*
X052068Y031969D02*
X052218Y032120D01*
X052218Y032280D02*
X051918Y032580D01*
X052218Y032580D02*
X052218Y032280D01*
X051843Y032120D02*
X051768Y032045D01*
X051768Y031819D01*
X052218Y031819D01*
X051943Y033086D02*
X051793Y033236D01*
X052243Y033236D01*
X037815Y043507D02*
X037815Y048035D01*
X035847Y048035D01*
X035847Y043507D01*
X037815Y043507D01*
X034423Y042251D02*
X034348Y042176D01*
X034348Y041800D01*
X034112Y041800D02*
X034112Y042026D01*
X034037Y042101D01*
X033962Y042026D01*
X033962Y041800D01*
X033812Y041800D02*
X033812Y042101D01*
X033887Y042101D01*
X033962Y042026D01*
X034273Y042026D02*
X034423Y042026D01*
X033652Y042176D02*
X033352Y041876D01*
X033427Y041800D01*
X033577Y041800D01*
X033652Y041876D01*
X033652Y042176D01*
X033577Y042251D01*
X033427Y042251D01*
X033352Y042176D01*
X033352Y041876D01*
X033192Y041800D02*
X032891Y041800D01*
X033192Y042101D01*
X033192Y042176D01*
X033117Y042251D01*
X032966Y042251D01*
X032891Y042176D01*
X032731Y042176D02*
X032731Y042101D01*
X032431Y041800D01*
X032731Y041800D01*
X032731Y042176D02*
X032656Y042251D01*
X032506Y042251D01*
X032431Y042176D01*
X032381Y042500D02*
X032531Y042500D01*
X032606Y042576D01*
X032766Y042576D02*
X032841Y042500D01*
X032992Y042500D01*
X033067Y042576D01*
X033067Y042876D01*
X032992Y042951D01*
X032841Y042951D01*
X032766Y042876D01*
X032766Y042801D01*
X032841Y042726D01*
X033067Y042726D01*
X033227Y042651D02*
X033452Y042651D01*
X033527Y042726D01*
X033527Y042876D01*
X033452Y042951D01*
X033227Y042951D01*
X033227Y042500D01*
X032606Y042876D02*
X032531Y042951D01*
X032381Y042951D01*
X032306Y042876D01*
X032306Y042576D01*
X032381Y042500D01*
X031931Y040678D02*
X032231Y040528D01*
X031931Y040378D01*
X031931Y040217D02*
X032006Y040142D01*
X032081Y040217D01*
X032156Y040217D01*
X032231Y040142D01*
X032231Y039992D01*
X032156Y039917D01*
X032156Y039762D02*
X032231Y039762D01*
X032231Y039687D01*
X032156Y039687D01*
X032156Y039762D01*
X032156Y039527D02*
X032081Y039527D01*
X032006Y039452D01*
X032006Y039227D01*
X032156Y039227D01*
X032231Y039302D01*
X032231Y039452D01*
X032156Y039527D01*
X031856Y039377D02*
X032006Y039227D01*
X031931Y039066D02*
X032231Y038766D01*
X032231Y038534D02*
X031856Y038534D01*
X031781Y038609D01*
X031931Y038766D02*
X032231Y039066D01*
X031856Y039377D02*
X031781Y039527D01*
X031856Y039917D02*
X031781Y039992D01*
X031781Y040142D01*
X031856Y040217D01*
X031931Y040217D01*
X032006Y040142D02*
X032006Y040067D01*
X032006Y038609D02*
X032006Y038459D01*
X032006Y038299D02*
X032231Y038299D01*
X032231Y038149D02*
X032006Y038149D01*
X031931Y038224D01*
X032006Y038299D01*
X032006Y038149D02*
X031931Y038074D01*
X031931Y037999D01*
X032231Y037999D01*
X032156Y037839D02*
X031856Y037839D01*
X032156Y037539D01*
X032231Y037614D01*
X032231Y037764D01*
X032156Y037839D01*
X031856Y037839D02*
X031781Y037764D01*
X031781Y037614D01*
X031856Y037539D01*
X032156Y037539D01*
X032156Y037378D02*
X032231Y037303D01*
X032231Y037153D01*
X032156Y037078D01*
X031856Y037378D01*
X032156Y037378D01*
X032156Y037078D02*
X031856Y037078D01*
X031781Y037153D01*
X031781Y037303D01*
X031856Y037378D01*
X031856Y036918D02*
X032156Y036618D01*
X032231Y036693D01*
X032231Y036843D01*
X032156Y036918D01*
X031856Y036918D01*
X031781Y036843D01*
X031781Y036693D01*
X031856Y036618D01*
X032156Y036618D01*
X032231Y036458D02*
X032231Y036157D01*
X032231Y036307D02*
X031781Y036307D01*
X031931Y036157D01*
X034081Y037792D02*
X034156Y037717D01*
X034456Y037717D01*
X034531Y037792D01*
X034531Y037942D01*
X034456Y038017D01*
X034531Y038178D02*
X034531Y038478D01*
X034531Y038328D02*
X034081Y038328D01*
X034231Y038178D01*
X034156Y038017D02*
X034081Y037942D01*
X034081Y037792D01*
X028371Y038700D02*
X028371Y038926D01*
X028296Y039001D01*
X028221Y038926D01*
X028221Y038700D01*
X028071Y038700D02*
X028071Y039001D01*
X028146Y039001D01*
X028221Y038926D01*
X027910Y038700D02*
X027610Y038700D01*
X027760Y038700D02*
X027760Y039151D01*
X027610Y039001D01*
X027610Y039375D02*
X027910Y039676D01*
X027910Y039751D01*
X027835Y039826D01*
X027685Y039826D01*
X027610Y039751D01*
X027450Y039751D02*
X027375Y039826D01*
X027225Y039826D01*
X027150Y039751D01*
X027150Y039451D01*
X027225Y039375D01*
X027375Y039375D01*
X027450Y039451D01*
X027610Y039375D02*
X027910Y039375D01*
X028221Y039375D02*
X028221Y039601D01*
X028371Y039751D01*
X028371Y039826D01*
X028221Y039601D02*
X028071Y039751D01*
X028071Y039826D01*
X026793Y039846D02*
X026493Y039846D01*
X026493Y039921D01*
X026568Y039996D01*
X026493Y040071D01*
X026568Y040146D01*
X026793Y040146D01*
X026793Y039996D02*
X026568Y039996D01*
X026568Y040306D02*
X026568Y040456D01*
X026418Y040381D02*
X026343Y040456D01*
X026418Y040381D02*
X026793Y040381D01*
X026718Y039686D02*
X026418Y039686D01*
X026718Y039385D01*
X026793Y039460D01*
X026793Y039610D01*
X026718Y039686D01*
X026418Y039686D02*
X026343Y039610D01*
X026343Y039460D01*
X026418Y039385D01*
X026718Y039385D01*
X026793Y039225D02*
X026793Y038925D01*
X026493Y039225D01*
X026418Y039225D01*
X026343Y039150D01*
X026343Y039000D01*
X026418Y038925D01*
X026418Y038765D02*
X026343Y038690D01*
X026343Y038540D01*
X026418Y038464D01*
X026418Y038765D02*
X026493Y038765D01*
X026793Y038464D01*
X026793Y038765D01*
X025871Y038726D02*
X025796Y038651D01*
X025571Y038651D01*
X025571Y038500D02*
X025571Y038951D01*
X025796Y038951D01*
X025871Y038876D01*
X025871Y038726D01*
X025410Y038801D02*
X025335Y038726D01*
X025185Y038726D01*
X025110Y038801D01*
X025110Y038876D01*
X025185Y038951D01*
X025335Y038951D01*
X025410Y038876D01*
X025410Y038801D01*
X025335Y038726D02*
X025410Y038651D01*
X025410Y038576D01*
X025335Y038500D01*
X025185Y038500D01*
X025110Y038576D01*
X025110Y038651D01*
X025185Y038726D01*
X024950Y038876D02*
X024875Y038951D01*
X024725Y038951D01*
X024650Y038876D01*
X024650Y038576D01*
X024725Y038500D01*
X024875Y038500D01*
X024950Y038576D01*
X023793Y038464D02*
X023493Y038765D01*
X023418Y038765D01*
X023343Y038690D01*
X023343Y038540D01*
X023418Y038464D01*
X023793Y038464D02*
X023793Y038765D01*
X023793Y038925D02*
X023493Y039225D01*
X023418Y039225D01*
X023343Y039150D01*
X023343Y039000D01*
X023418Y038925D01*
X023793Y038925D02*
X023793Y039225D01*
X023718Y039385D02*
X023418Y039686D01*
X023718Y039686D01*
X023793Y039610D01*
X023793Y039460D01*
X023718Y039385D01*
X023418Y039385D01*
X023343Y039460D01*
X023343Y039610D01*
X023418Y039686D01*
X023493Y039846D02*
X023493Y039921D01*
X023568Y039996D01*
X023493Y040071D01*
X023568Y040146D01*
X023793Y040146D01*
X023793Y039996D02*
X023568Y039996D01*
X023493Y039846D02*
X023793Y039846D01*
X023568Y040306D02*
X023568Y040456D01*
X023418Y040381D02*
X023343Y040456D01*
X023418Y040381D02*
X023793Y040381D01*
X022846Y038951D02*
X022846Y038500D01*
X022696Y038500D02*
X022996Y038500D01*
X022696Y038801D02*
X022846Y038951D01*
X022535Y038876D02*
X022460Y038951D01*
X022235Y038951D01*
X022235Y038500D01*
X022235Y038651D02*
X022460Y038651D01*
X022535Y038726D01*
X022535Y038876D01*
X022075Y038876D02*
X022000Y038951D01*
X021850Y038951D01*
X021775Y038876D01*
X021775Y038801D01*
X021850Y038726D01*
X022000Y038726D01*
X022075Y038651D01*
X022075Y038576D01*
X022000Y038500D01*
X021850Y038500D01*
X021775Y038576D01*
X021775Y038651D01*
X021850Y038726D01*
X022000Y038726D02*
X022075Y038801D01*
X022075Y038876D01*
X021615Y038876D02*
X021540Y038951D01*
X021389Y038951D01*
X021314Y038876D01*
X021314Y038576D01*
X021389Y038500D01*
X021540Y038500D01*
X021615Y038576D01*
X021043Y038464D02*
X020743Y038765D01*
X020668Y038765D01*
X020593Y038690D01*
X020593Y038540D01*
X020668Y038464D01*
X021043Y038464D02*
X021043Y038765D01*
X021043Y038925D02*
X020743Y039225D01*
X020668Y039225D01*
X020593Y039150D01*
X020593Y039000D01*
X020668Y038925D01*
X021043Y038925D02*
X021043Y039225D01*
X020968Y039385D02*
X020668Y039686D01*
X020968Y039686D01*
X021043Y039610D01*
X021043Y039460D01*
X020968Y039385D01*
X020668Y039385D01*
X020593Y039460D01*
X020593Y039610D01*
X020668Y039686D01*
X020743Y039846D02*
X020743Y039921D01*
X020818Y039996D01*
X020743Y040071D01*
X020818Y040146D01*
X021043Y040146D01*
X021043Y039996D02*
X020818Y039996D01*
X020743Y039846D02*
X021043Y039846D01*
X020818Y040306D02*
X020818Y040456D01*
X020668Y040381D02*
X020593Y040456D01*
X020668Y040381D02*
X021043Y040381D01*
X020046Y038951D02*
X019896Y038951D01*
X019821Y038876D01*
X019660Y038876D02*
X019660Y038726D01*
X019585Y038651D01*
X019360Y038651D01*
X019360Y038500D02*
X019360Y038951D01*
X019585Y038951D01*
X019660Y038876D01*
X020046Y038951D02*
X020121Y038876D01*
X020121Y038801D01*
X019821Y038500D01*
X020121Y038500D01*
X019200Y038576D02*
X019125Y038500D01*
X018975Y038500D01*
X018900Y038576D01*
X018900Y038651D01*
X018975Y038726D01*
X019125Y038726D01*
X019200Y038651D01*
X019200Y038576D01*
X019125Y038726D02*
X019200Y038801D01*
X019200Y038876D01*
X019125Y038951D01*
X018975Y038951D01*
X018900Y038876D01*
X018900Y038801D01*
X018975Y038726D01*
X018740Y038876D02*
X018665Y038951D01*
X018514Y038951D01*
X018439Y038876D01*
X018439Y038576D01*
X018514Y038500D01*
X018665Y038500D01*
X018740Y038576D01*
X015746Y039075D02*
X015746Y039301D01*
X015671Y039376D01*
X015596Y039301D01*
X015596Y039075D01*
X015446Y039075D02*
X015446Y039376D01*
X015521Y039376D01*
X015596Y039301D01*
X015596Y039625D02*
X015596Y039851D01*
X015746Y040001D01*
X015746Y040076D01*
X015596Y039851D02*
X015446Y040001D01*
X015446Y040076D01*
X015135Y040076D02*
X015135Y039625D01*
X015135Y039526D02*
X015135Y039075D01*
X014985Y039075D02*
X015285Y039075D01*
X014985Y039376D02*
X015135Y039526D01*
X014985Y039625D02*
X015285Y039625D01*
X014985Y039926D02*
X015135Y040076D01*
X014825Y040001D02*
X014750Y040076D01*
X014600Y040076D01*
X014525Y040001D01*
X014525Y039701D01*
X014600Y039625D01*
X014750Y039625D01*
X014825Y039701D01*
X012321Y041375D02*
X012021Y041375D01*
X012171Y041375D02*
X012171Y041826D01*
X012021Y041676D01*
X010946Y042475D02*
X010646Y042475D01*
X010946Y042776D01*
X010946Y042851D01*
X010871Y042926D01*
X010721Y042926D01*
X010646Y042851D01*
X010485Y042851D02*
X010485Y042701D01*
X010410Y042626D01*
X010185Y042626D01*
X010185Y042475D02*
X010185Y042926D01*
X010410Y042926D01*
X010485Y042851D01*
X010025Y042926D02*
X009875Y042926D01*
X009950Y042926D02*
X009950Y042551D01*
X009875Y042475D01*
X009800Y042475D01*
X009725Y042551D01*
X013671Y044150D02*
X013971Y044150D01*
X013821Y044150D02*
X013821Y044601D01*
X013671Y044451D01*
X008171Y039013D02*
X008021Y039013D01*
X007946Y038938D01*
X007785Y038938D02*
X007785Y038788D01*
X007710Y038713D01*
X007485Y038713D01*
X007485Y038563D02*
X007485Y039013D01*
X007710Y039013D01*
X007785Y038938D01*
X008171Y039013D02*
X008246Y038938D01*
X008246Y038863D01*
X007946Y038563D01*
X008246Y038563D01*
X008249Y038213D02*
X008174Y038138D01*
X008174Y037763D01*
X007939Y037763D02*
X007939Y037988D01*
X007864Y038063D01*
X007789Y037988D01*
X007789Y037763D01*
X007639Y037763D02*
X007639Y038063D01*
X007714Y038063D01*
X007789Y037988D01*
X008099Y037988D02*
X008249Y037988D01*
X007479Y037838D02*
X007403Y037763D01*
X007253Y037763D01*
X007178Y037838D01*
X007479Y038138D01*
X007479Y037838D01*
X007479Y038138D02*
X007403Y038213D01*
X007253Y038213D01*
X007178Y038138D01*
X007178Y037838D01*
X007018Y037763D02*
X006718Y037763D01*
X007018Y038063D01*
X007018Y038138D01*
X006943Y038213D01*
X006793Y038213D01*
X006718Y038138D01*
X006558Y038138D02*
X006483Y038213D01*
X006333Y038213D01*
X006257Y038138D01*
X006558Y038138D02*
X006558Y038063D01*
X006257Y037763D01*
X006558Y037763D01*
X007100Y038563D02*
X007250Y038563D01*
X007325Y038638D01*
X007100Y038563D02*
X007025Y038638D01*
X007025Y038938D01*
X007100Y039013D01*
X007250Y039013D01*
X007325Y038938D01*
X014475Y034551D02*
X014550Y034475D01*
X014625Y034475D01*
X014700Y034551D01*
X014700Y034926D01*
X014625Y034926D02*
X014775Y034926D01*
X014935Y034926D02*
X015160Y034926D01*
X015235Y034851D01*
X015235Y034701D01*
X015160Y034626D01*
X014935Y034626D01*
X014935Y034475D02*
X014935Y034926D01*
X015396Y034776D02*
X015546Y034926D01*
X015546Y034475D01*
X015396Y034475D02*
X015696Y034475D01*
X015556Y034090D02*
X015556Y033790D01*
X015556Y033940D02*
X015106Y033940D01*
X015256Y033790D01*
X018681Y030038D02*
X018981Y030038D01*
X018981Y029963D01*
X018681Y029663D01*
X018681Y029588D01*
X018981Y029588D01*
X019141Y029588D02*
X019442Y029888D01*
X019442Y029963D01*
X019367Y030038D01*
X019216Y030038D01*
X019141Y029963D01*
X019141Y029588D02*
X019442Y029588D01*
X019527Y027513D02*
X019377Y027438D01*
X019227Y027288D01*
X019452Y027288D01*
X019527Y027213D01*
X019527Y027138D01*
X019452Y027063D01*
X019302Y027063D01*
X019227Y027138D01*
X019227Y027288D01*
X019067Y027213D02*
X019067Y027138D01*
X018992Y027063D01*
X018841Y027063D01*
X018766Y027138D01*
X018766Y027213D01*
X018841Y027288D01*
X018992Y027288D01*
X019067Y027213D01*
X018992Y027288D02*
X019067Y027363D01*
X019067Y027438D01*
X018992Y027513D01*
X018841Y027513D01*
X018766Y027438D01*
X018766Y027363D01*
X018841Y027288D01*
X018606Y027213D02*
X018606Y027138D01*
X018531Y027063D01*
X018381Y027063D01*
X018306Y027138D01*
X018306Y027213D01*
X018381Y027288D01*
X018531Y027288D01*
X018606Y027213D01*
X018531Y027288D02*
X018606Y027363D01*
X018606Y027438D01*
X018531Y027513D01*
X018381Y027513D01*
X018306Y027438D01*
X018306Y027363D01*
X018381Y027288D01*
X019687Y027138D02*
X019687Y027063D01*
X019687Y027138D02*
X019987Y027438D01*
X019987Y027513D01*
X019687Y027513D01*
X020148Y027138D02*
X020223Y027138D01*
X020223Y027063D01*
X020148Y027063D01*
X020148Y027138D01*
X020378Y027063D02*
X020678Y027363D01*
X020678Y027438D01*
X020603Y027513D01*
X020453Y027513D01*
X020378Y027438D01*
X020378Y027063D02*
X020678Y027063D01*
X020838Y027138D02*
X020913Y027063D01*
X021063Y027063D01*
X021138Y027138D01*
X021138Y027213D01*
X021063Y027288D01*
X020988Y027288D01*
X021063Y027288D02*
X021138Y027363D01*
X021138Y027438D01*
X021063Y027513D01*
X020913Y027513D01*
X020838Y027438D01*
X021299Y027438D02*
X021374Y027513D01*
X021524Y027513D01*
X021599Y027438D01*
X021599Y027363D01*
X021299Y027063D01*
X021599Y027063D01*
X021759Y027063D02*
X021759Y027513D01*
X021834Y027288D02*
X022059Y027063D01*
X022219Y027063D02*
X022219Y027513D01*
X022059Y027513D02*
X021759Y027213D01*
X022219Y027288D02*
X022520Y027288D01*
X022680Y027363D02*
X022980Y027363D01*
X022680Y027063D01*
X022980Y027063D01*
X023140Y027063D02*
X023440Y027513D01*
X023600Y027288D02*
X023901Y027288D01*
X024061Y027138D02*
X024136Y027138D01*
X024136Y027063D01*
X024061Y027063D01*
X024061Y027138D01*
X024291Y027138D02*
X024366Y027138D01*
X024366Y027063D01*
X024291Y027063D01*
X024291Y027138D01*
X024521Y027063D02*
X024822Y027363D01*
X024822Y027438D01*
X024746Y027513D01*
X024596Y027513D01*
X024521Y027438D01*
X024521Y027063D02*
X024822Y027063D01*
X024982Y027138D02*
X025282Y027438D01*
X025282Y027138D01*
X025207Y027063D01*
X025057Y027063D01*
X024982Y027138D01*
X024982Y027438D01*
X025057Y027513D01*
X025207Y027513D01*
X025282Y027438D01*
X025442Y027363D02*
X025667Y027363D01*
X025742Y027288D01*
X025742Y027138D01*
X025667Y027063D01*
X025442Y027063D01*
X025442Y026913D02*
X025442Y027363D01*
X025902Y027288D02*
X026053Y027288D01*
X025978Y027438D02*
X026053Y027513D01*
X025978Y027438D02*
X025978Y027063D01*
X027533Y026126D02*
X027608Y026201D01*
X027758Y026201D01*
X027833Y026126D01*
X027833Y026051D01*
X027683Y025901D01*
X027683Y025826D02*
X027683Y025750D01*
X027994Y025750D02*
X028294Y025750D01*
X028144Y025750D02*
X028144Y026201D01*
X027994Y026051D01*
X028454Y025976D02*
X028454Y026201D01*
X028754Y026201D01*
X028914Y026201D02*
X028914Y025976D01*
X029065Y026051D01*
X029140Y026051D01*
X029215Y025976D01*
X029215Y025826D01*
X029140Y025750D01*
X028989Y025750D01*
X028914Y025826D01*
X028754Y025826D02*
X028679Y025750D01*
X028529Y025750D01*
X028454Y025826D01*
X028454Y025976D02*
X028604Y026051D01*
X028679Y026051D01*
X028754Y025976D01*
X028754Y025826D01*
X028914Y026201D02*
X029215Y026201D01*
X029375Y026126D02*
X029450Y026201D01*
X029600Y026201D01*
X029675Y026126D01*
X029675Y026051D01*
X029525Y025901D01*
X029525Y025826D02*
X029525Y025750D01*
X029985Y025750D02*
X029985Y025826D01*
X029985Y025901D02*
X030135Y026051D01*
X030135Y026126D01*
X030060Y026201D01*
X029910Y026201D01*
X029835Y026126D01*
X029850Y026463D02*
X030150Y026763D01*
X030150Y026838D01*
X030075Y026913D01*
X029925Y026913D01*
X029850Y026838D01*
X029539Y026913D02*
X029539Y026463D01*
X029389Y026463D02*
X029690Y026463D01*
X029850Y026463D02*
X030150Y026463D01*
X030371Y026201D02*
X030296Y026126D01*
X030371Y026201D02*
X030521Y026201D01*
X030596Y026126D01*
X030596Y026051D01*
X030296Y025750D01*
X030596Y025750D01*
X029539Y026913D02*
X029389Y026763D01*
X029229Y026838D02*
X029154Y026913D01*
X028929Y026913D01*
X028929Y026463D01*
X029154Y026463D01*
X029229Y026538D01*
X029229Y026838D01*
X028769Y026838D02*
X028769Y026538D01*
X028694Y026463D01*
X028468Y026463D01*
X028468Y026913D01*
X028694Y026913D01*
X028769Y026838D01*
X027162Y025213D02*
X027087Y025213D01*
X026937Y025063D01*
X026937Y024913D02*
X026937Y025213D01*
X026777Y025138D02*
X026777Y025063D01*
X026477Y025063D01*
X026477Y024988D02*
X026477Y025138D01*
X026552Y025213D01*
X026702Y025213D01*
X026777Y025138D01*
X026702Y024913D02*
X026552Y024913D01*
X026477Y024988D01*
X026320Y024913D02*
X026245Y024988D01*
X026245Y025288D01*
X026170Y025213D02*
X026320Y025213D01*
X026010Y025213D02*
X025784Y025213D01*
X025709Y025138D01*
X025784Y025063D01*
X025934Y025063D01*
X026010Y024988D01*
X025934Y024913D01*
X025709Y024913D01*
X025549Y024913D02*
X025324Y024913D01*
X025249Y024988D01*
X025324Y025063D01*
X025549Y025063D01*
X025549Y025138D02*
X025549Y024913D01*
X025549Y025138D02*
X025474Y025213D01*
X025324Y025213D01*
X025017Y025363D02*
X025017Y024913D01*
X024942Y024913D02*
X025092Y024913D01*
X024782Y024988D02*
X024707Y024913D01*
X024482Y024913D01*
X024482Y025363D01*
X024707Y025363D01*
X024782Y025288D01*
X024782Y025213D01*
X024707Y025138D01*
X024482Y025138D01*
X024321Y025138D02*
X024321Y025063D01*
X024021Y025063D01*
X024021Y024988D02*
X024021Y025138D01*
X024096Y025213D01*
X024246Y025213D01*
X024321Y025138D01*
X024246Y024913D02*
X024096Y024913D01*
X024021Y024988D01*
X023864Y024913D02*
X023789Y024988D01*
X023789Y025288D01*
X023714Y025213D02*
X023864Y025213D01*
X023554Y025213D02*
X023554Y024838D01*
X023479Y024763D01*
X023404Y024763D01*
X023329Y024913D02*
X023554Y024913D01*
X023329Y024913D02*
X023254Y024988D01*
X023254Y025213D01*
X023094Y025213D02*
X023019Y025138D01*
X022793Y025138D01*
X022793Y024913D02*
X022793Y025363D01*
X023019Y025363D01*
X023094Y025288D01*
X023094Y025213D01*
X023019Y025138D02*
X023094Y025063D01*
X023094Y024988D01*
X023019Y024913D01*
X022793Y024913D01*
X022856Y025650D02*
X023156Y026101D01*
X023316Y026101D02*
X023316Y025876D01*
X023466Y025951D01*
X023542Y025951D01*
X023617Y025876D01*
X023617Y025726D01*
X023542Y025650D01*
X023391Y025650D01*
X023316Y025726D01*
X023156Y025650D02*
X022856Y026101D01*
X023316Y026101D02*
X023617Y026101D01*
X023826Y027063D02*
X023826Y027513D01*
X023600Y027288D01*
X022520Y027513D02*
X022520Y027063D01*
X020281Y025486D02*
X020281Y025336D01*
X020206Y025261D01*
X019906Y025561D01*
X020206Y025561D01*
X020281Y025486D01*
X020206Y025261D02*
X019906Y025261D01*
X019831Y025336D01*
X019831Y025486D01*
X019906Y025561D01*
X019680Y025476D02*
X019680Y025326D01*
X019605Y025251D01*
X019379Y025251D01*
X019379Y025100D02*
X019379Y025551D01*
X019605Y025551D01*
X019680Y025476D01*
X019219Y025476D02*
X019144Y025551D01*
X018994Y025551D01*
X018919Y025476D01*
X018919Y025401D01*
X018994Y025326D01*
X019144Y025326D01*
X019219Y025251D01*
X019219Y025176D01*
X019144Y025100D01*
X018994Y025100D01*
X018919Y025176D01*
X018762Y025100D02*
X018612Y025100D01*
X018687Y025100D02*
X018687Y025551D01*
X018612Y025551D02*
X018762Y025551D01*
X018452Y025476D02*
X018452Y025326D01*
X018377Y025251D01*
X018152Y025251D01*
X018302Y025251D02*
X018452Y025100D01*
X018152Y025100D02*
X018152Y025551D01*
X018377Y025551D01*
X018452Y025476D01*
X017992Y025551D02*
X017992Y025251D01*
X017841Y025100D01*
X017691Y025251D01*
X017691Y025551D01*
X017531Y025401D02*
X017531Y025100D01*
X017531Y025326D02*
X017231Y025326D01*
X017231Y025401D02*
X017381Y025551D01*
X017531Y025401D01*
X017231Y025401D02*
X017231Y025100D01*
X017231Y025026D02*
X017156Y025026D01*
X017081Y024951D01*
X017081Y024725D01*
X017231Y024725D01*
X017306Y024801D01*
X017306Y024951D01*
X017231Y025026D01*
X016931Y024876D02*
X017081Y024725D01*
X016931Y024876D02*
X016856Y025026D01*
X016729Y025088D02*
X016804Y025163D01*
X016804Y025238D01*
X016729Y025313D01*
X016504Y025313D01*
X016504Y025163D01*
X016579Y025088D01*
X016729Y025088D01*
X016504Y025313D02*
X016654Y025463D01*
X016804Y025538D01*
X016344Y025538D02*
X016043Y025088D01*
X016344Y025088D02*
X016043Y025538D01*
X015299Y026825D02*
X015299Y027201D01*
X015374Y027276D01*
X015374Y027051D02*
X015224Y027051D01*
X015064Y027051D02*
X015064Y026825D01*
X014914Y026825D02*
X014914Y027051D01*
X014989Y027126D01*
X015064Y027051D01*
X014914Y027051D02*
X014839Y027126D01*
X014764Y027126D01*
X014764Y026825D01*
X014604Y026901D02*
X014528Y026825D01*
X014378Y026825D01*
X014303Y026901D01*
X014604Y027201D01*
X014604Y026901D01*
X014604Y027201D02*
X014528Y027276D01*
X014378Y027276D01*
X014303Y027201D01*
X014303Y026901D01*
X014143Y026825D02*
X013843Y026825D01*
X013993Y026825D02*
X013993Y027276D01*
X013843Y027126D01*
X014100Y027375D02*
X014250Y027375D01*
X014325Y027451D01*
X014485Y027451D02*
X014560Y027375D01*
X014710Y027375D01*
X014785Y027451D01*
X014785Y027526D01*
X014710Y027601D01*
X014485Y027601D01*
X014485Y027451D01*
X014485Y027601D02*
X014635Y027751D01*
X014785Y027826D01*
X014946Y027826D02*
X015171Y027826D01*
X015246Y027751D01*
X015246Y027601D01*
X015171Y027526D01*
X014946Y027526D01*
X014946Y027375D02*
X014946Y027826D01*
X014325Y027751D02*
X014250Y027826D01*
X014100Y027826D01*
X014025Y027751D01*
X014025Y027451D01*
X014100Y027375D01*
X012493Y024701D02*
X012493Y024250D01*
X012343Y024250D02*
X012644Y024250D01*
X012343Y024551D02*
X012493Y024701D01*
X012183Y024626D02*
X012183Y024551D01*
X012033Y024401D01*
X012033Y024326D02*
X012033Y024250D01*
X011883Y024626D02*
X011958Y024701D01*
X012108Y024701D01*
X012183Y024626D01*
X011723Y024626D02*
X011723Y024551D01*
X011573Y024401D01*
X011573Y024326D02*
X011573Y024250D01*
X011262Y024326D02*
X011187Y024250D01*
X011037Y024250D01*
X010962Y024326D01*
X010962Y024476D02*
X011112Y024551D01*
X011187Y024551D01*
X011262Y024476D01*
X011262Y024326D01*
X010962Y024476D02*
X010962Y024701D01*
X011262Y024701D01*
X011423Y024626D02*
X011498Y024701D01*
X011648Y024701D01*
X011723Y024626D01*
X010802Y024701D02*
X010502Y024701D01*
X010502Y024476D01*
X010652Y024551D01*
X010727Y024551D01*
X010802Y024476D01*
X010802Y024326D01*
X010727Y024250D01*
X010577Y024250D01*
X010502Y024326D01*
X010342Y024326D02*
X010267Y024250D01*
X010116Y024250D01*
X010041Y024326D01*
X010041Y024476D02*
X010191Y024551D01*
X010267Y024551D01*
X010342Y024476D01*
X010342Y024326D01*
X010041Y024476D02*
X010041Y024701D01*
X010342Y024701D01*
X009881Y024626D02*
X009881Y024551D01*
X009731Y024401D01*
X009731Y024326D02*
X009731Y024250D01*
X009581Y024626D02*
X009656Y024701D01*
X009806Y024701D01*
X009881Y024626D01*
X008531Y024682D02*
X008531Y024982D01*
X008531Y024832D02*
X008081Y024832D01*
X008231Y024682D01*
X008531Y024522D02*
X008531Y024221D01*
X008531Y024371D02*
X008081Y024371D01*
X008231Y024221D01*
X008156Y024061D02*
X008081Y023986D01*
X008081Y023761D01*
X008531Y023761D01*
X008531Y023986D01*
X008456Y024061D01*
X008156Y024061D01*
X008156Y023601D02*
X008081Y023526D01*
X008081Y023300D01*
X008531Y023300D01*
X008531Y023526D01*
X008456Y023601D01*
X008156Y023601D01*
X008171Y021776D02*
X008171Y021325D01*
X008021Y021325D02*
X008321Y021325D01*
X008021Y021626D02*
X008171Y021776D01*
X007860Y021776D02*
X007860Y021701D01*
X007560Y021401D01*
X007560Y021325D01*
X007860Y021325D01*
X007685Y021001D02*
X007685Y020550D01*
X007525Y020550D02*
X007525Y021001D01*
X007375Y020851D01*
X007225Y021001D01*
X007225Y020550D01*
X006990Y020550D02*
X006990Y021001D01*
X006764Y020776D01*
X007065Y020776D01*
X006604Y020550D02*
X006304Y020550D01*
X006454Y020550D02*
X006454Y021001D01*
X006304Y020851D01*
X007560Y021776D02*
X007860Y021776D01*
X007910Y020851D02*
X007985Y020776D01*
X007985Y020550D01*
X008146Y020550D02*
X008446Y020550D01*
X008146Y020550D02*
X008446Y020851D01*
X008146Y020851D01*
X007910Y020851D02*
X007760Y020851D01*
X007685Y020776D01*
X011206Y016600D02*
X011206Y010200D01*
X011706Y010200D01*
X011706Y002400D01*
X021006Y002400D01*
X021006Y010200D01*
X021506Y010200D01*
X021506Y013700D01*
X020806Y014600D01*
X020806Y016600D01*
X011206Y016600D01*
X014803Y014876D02*
X014803Y014425D01*
X014803Y014576D02*
X015103Y014876D01*
X015263Y014876D02*
X015563Y014876D01*
X015413Y014876D02*
X015413Y014425D01*
X015103Y014425D02*
X014878Y014651D01*
X015724Y014651D02*
X015874Y014726D01*
X015949Y014726D01*
X016024Y014651D01*
X016024Y014501D01*
X015949Y014425D01*
X015799Y014425D01*
X015724Y014501D01*
X015724Y014651D02*
X015724Y014876D01*
X016024Y014876D01*
X016184Y014801D02*
X016259Y014876D01*
X016409Y014876D01*
X016484Y014801D01*
X016184Y014501D01*
X016259Y014425D01*
X016409Y014425D01*
X016484Y014501D01*
X016484Y014801D01*
X016644Y014801D02*
X016719Y014876D01*
X016870Y014876D01*
X016945Y014801D01*
X016945Y014726D01*
X016870Y014651D01*
X016945Y014576D01*
X016945Y014501D01*
X016870Y014425D01*
X016719Y014425D01*
X016644Y014501D01*
X016794Y014651D02*
X016870Y014651D01*
X017105Y014801D02*
X017180Y014876D01*
X017330Y014876D01*
X017405Y014801D01*
X017405Y014726D01*
X017255Y014576D01*
X017255Y014501D02*
X017255Y014425D01*
X017565Y014576D02*
X017565Y014726D01*
X017715Y014876D01*
X017872Y014876D02*
X018097Y014876D01*
X018172Y014801D01*
X018172Y014726D01*
X018097Y014651D01*
X017872Y014651D01*
X017872Y014876D02*
X017872Y014425D01*
X018097Y014425D01*
X018172Y014501D01*
X018172Y014576D01*
X018097Y014651D01*
X018332Y014801D02*
X018332Y014501D01*
X018408Y014425D01*
X018558Y014425D01*
X018633Y014501D01*
X018793Y014501D02*
X018868Y014425D01*
X019018Y014425D01*
X019093Y014501D01*
X019093Y014576D01*
X019018Y014651D01*
X018943Y014651D01*
X019018Y014651D02*
X019093Y014726D01*
X019093Y014801D01*
X019018Y014876D01*
X018868Y014876D01*
X018793Y014801D01*
X018633Y014801D02*
X018558Y014876D01*
X018408Y014876D01*
X018332Y014801D01*
X018500Y015050D02*
X018650Y015201D01*
X018650Y015501D01*
X018810Y015501D02*
X019110Y015501D01*
X018960Y015501D02*
X018960Y015050D01*
X019271Y015050D02*
X019571Y015050D01*
X019421Y015050D02*
X019421Y015501D01*
X019271Y015351D01*
X019328Y014876D02*
X019478Y014876D01*
X019554Y014801D01*
X019554Y014726D01*
X019478Y014651D01*
X019554Y014576D01*
X019554Y014501D01*
X019478Y014425D01*
X019328Y014425D01*
X019253Y014501D01*
X019403Y014651D02*
X019478Y014651D01*
X019253Y014801D02*
X019328Y014876D01*
X019714Y014876D02*
X020014Y014876D01*
X020014Y014801D01*
X019714Y014501D01*
X019714Y014425D01*
X020174Y014425D02*
X020324Y014576D01*
X020324Y014726D01*
X020174Y014876D01*
X018500Y015050D02*
X018350Y015201D01*
X018350Y015501D01*
X017565Y014576D02*
X017715Y014425D01*
X016184Y014501D02*
X016184Y014801D01*
X019931Y017901D02*
X019931Y019550D01*
X020531Y019774D02*
X020531Y019278D01*
X020531Y019173D01*
X020531Y018278D01*
X020531Y018173D01*
X020531Y017677D01*
X020143Y017771D02*
X020087Y017798D01*
X020033Y017829D01*
X019981Y017863D01*
X019931Y017900D01*
X020531Y017676D02*
X020595Y017675D01*
X020659Y017678D01*
X020723Y017685D01*
X020786Y017695D01*
X020848Y017710D01*
X020909Y017728D01*
X020970Y017750D01*
X021028Y017775D01*
X020531Y017676D02*
X020472Y017681D01*
X020414Y017688D01*
X020356Y017699D01*
X020299Y017714D01*
X020243Y017731D01*
X020188Y017751D01*
X020134Y017775D01*
X020531Y019774D02*
X020595Y019775D01*
X020659Y019772D01*
X020723Y019765D01*
X020786Y019755D01*
X020848Y019740D01*
X020909Y019722D01*
X020970Y019700D01*
X021028Y019675D01*
X020134Y019676D02*
X020080Y019649D01*
X020029Y019619D01*
X019979Y019586D01*
X019931Y019551D01*
X021028Y019675D02*
X021085Y019646D01*
X021141Y019613D01*
X021194Y019578D01*
X021245Y019538D01*
X021293Y019496D01*
X021339Y019451D01*
X021382Y019404D01*
X021422Y019354D01*
X021459Y019301D01*
X021492Y019246D01*
X021523Y019190D01*
X021549Y019131D01*
X021572Y019071D01*
X021592Y019010D01*
X021607Y018948D01*
X021619Y018885D01*
X021627Y018821D01*
X021631Y018757D01*
X021631Y018693D01*
X021627Y018629D01*
X021619Y018565D01*
X021607Y018502D01*
X021592Y018440D01*
X021572Y018379D01*
X021549Y018319D01*
X021523Y018260D01*
X021492Y018204D01*
X021459Y018149D01*
X021422Y018096D01*
X021382Y018046D01*
X021339Y017999D01*
X021293Y017954D01*
X021245Y017912D01*
X021194Y017872D01*
X021141Y017837D01*
X021085Y017804D01*
X021028Y017775D01*
X020531Y019774D02*
X020472Y019769D01*
X020414Y019762D01*
X020356Y019751D01*
X020299Y019736D01*
X020243Y019719D01*
X020188Y019699D01*
X020134Y019675D01*
X022631Y020951D02*
X023081Y020951D01*
X023081Y021101D02*
X023081Y020800D01*
X022781Y020800D02*
X022631Y020951D01*
X023581Y021850D02*
X024581Y022850D01*
X037331Y022850D01*
X037385Y022848D01*
X037438Y022842D01*
X037490Y022833D01*
X037542Y022820D01*
X037593Y022803D01*
X037643Y022782D01*
X037690Y022758D01*
X037736Y022731D01*
X037780Y022700D01*
X037822Y022667D01*
X037861Y022630D01*
X037898Y022591D01*
X037931Y022549D01*
X037962Y022505D01*
X037989Y022459D01*
X038013Y022412D01*
X038034Y022362D01*
X038051Y022311D01*
X038064Y022259D01*
X038073Y022207D01*
X038079Y022154D01*
X038081Y022100D01*
X038081Y009100D01*
X037554Y009465D02*
X037554Y010076D01*
X037248Y009771D01*
X037655Y009771D01*
X037048Y009771D02*
X037048Y009567D01*
X036946Y009465D01*
X036742Y009465D01*
X036641Y009567D01*
X036641Y009771D02*
X036844Y009873D01*
X036946Y009873D01*
X037048Y009771D01*
X037048Y010076D02*
X036641Y010076D01*
X036641Y009771D01*
X036269Y009111D02*
X036371Y009009D01*
X036371Y008908D01*
X036269Y008806D01*
X036371Y008704D01*
X036371Y008602D01*
X036269Y008500D01*
X036065Y008500D01*
X035964Y008602D01*
X035763Y008602D02*
X035661Y008500D01*
X035458Y008500D01*
X035356Y008602D01*
X035356Y008806D02*
X035559Y008908D01*
X035661Y008908D01*
X035763Y008806D01*
X035763Y008602D01*
X036167Y008806D02*
X036269Y008806D01*
X036269Y009111D02*
X036065Y009111D01*
X035964Y009009D01*
X035763Y009111D02*
X035356Y009111D01*
X035356Y008806D01*
X037331Y008350D02*
X037385Y008352D01*
X037438Y008358D01*
X037490Y008367D01*
X037542Y008380D01*
X037593Y008397D01*
X037643Y008418D01*
X037690Y008442D01*
X037736Y008469D01*
X037780Y008500D01*
X037822Y008533D01*
X037861Y008570D01*
X037898Y008609D01*
X037931Y008651D01*
X037962Y008695D01*
X037989Y008741D01*
X038013Y008788D01*
X038034Y008838D01*
X038051Y008889D01*
X038064Y008941D01*
X038073Y008993D01*
X038079Y009046D01*
X038081Y009100D01*
X037331Y008350D02*
X024331Y008350D01*
X024641Y008692D02*
X024742Y008590D01*
X024946Y008590D01*
X025048Y008692D01*
X025048Y008794D01*
X024946Y008896D01*
X024844Y008896D01*
X024946Y008896D02*
X025048Y008998D01*
X025048Y009099D01*
X024946Y009201D01*
X024742Y009201D01*
X024641Y009099D01*
X024331Y008350D02*
X024277Y008352D01*
X024224Y008358D01*
X024172Y008367D01*
X024120Y008380D01*
X024069Y008397D01*
X024019Y008418D01*
X023972Y008442D01*
X023926Y008469D01*
X023882Y008500D01*
X023840Y008533D01*
X023801Y008570D01*
X023764Y008609D01*
X023731Y008651D01*
X023700Y008695D01*
X023673Y008741D01*
X023649Y008788D01*
X023628Y008838D01*
X023611Y008889D01*
X023598Y008941D01*
X023589Y008993D01*
X023583Y009046D01*
X023581Y009100D01*
X023581Y021850D01*
X023856Y021533D02*
X024059Y021736D01*
X024059Y021125D01*
X023856Y021125D02*
X024263Y021125D01*
X024464Y021125D02*
X024871Y021533D01*
X024871Y021634D01*
X024769Y021736D01*
X024565Y021736D01*
X024464Y021634D01*
X024464Y021125D02*
X024871Y021125D01*
X025356Y022125D02*
X025763Y022125D01*
X025964Y022125D02*
X026371Y022125D01*
X026167Y022125D02*
X026167Y022736D01*
X025964Y022533D01*
X025559Y022736D02*
X025559Y022125D01*
X025356Y022533D02*
X025559Y022736D01*
X024782Y024988D02*
X024782Y025063D01*
X024707Y025138D01*
X024942Y025363D02*
X025017Y025363D01*
X020281Y025101D02*
X020281Y024800D01*
X020281Y024951D02*
X019831Y024951D01*
X019981Y024800D01*
X019206Y022176D02*
X019206Y021875D01*
X019206Y022026D02*
X018756Y022026D01*
X018906Y021875D01*
X017640Y021461D02*
X017565Y021386D01*
X017565Y021010D01*
X017329Y021010D02*
X017329Y021235D01*
X017254Y021310D01*
X017179Y021235D01*
X017179Y021010D01*
X017029Y021010D02*
X017029Y021310D01*
X017104Y021310D01*
X017179Y021235D01*
X017490Y021235D02*
X017640Y021235D01*
X016869Y021386D02*
X016869Y021085D01*
X016794Y021010D01*
X016644Y021010D01*
X016569Y021085D01*
X016869Y021386D01*
X016794Y021461D01*
X016644Y021461D01*
X016569Y021386D01*
X016569Y021085D01*
X016409Y021010D02*
X016108Y021010D01*
X016409Y021310D01*
X016409Y021386D01*
X016334Y021461D01*
X016183Y021461D01*
X016108Y021386D01*
X015948Y021386D02*
X015948Y021310D01*
X015648Y021010D01*
X015948Y021010D01*
X015948Y021386D02*
X015873Y021461D01*
X015723Y021461D01*
X015648Y021386D01*
X015756Y021750D02*
X015906Y021750D01*
X015981Y021826D01*
X016141Y021826D02*
X016216Y021750D01*
X016367Y021750D01*
X016442Y021826D01*
X016442Y022126D01*
X016367Y022201D01*
X016216Y022201D01*
X016141Y022126D01*
X016141Y022051D01*
X016216Y021976D01*
X016442Y021976D01*
X015981Y022126D02*
X015906Y022201D01*
X015756Y022201D01*
X015681Y022126D01*
X015681Y021826D01*
X015756Y021750D01*
X022856Y017930D02*
X022856Y017780D01*
X022931Y017705D01*
X023006Y017546D02*
X023156Y017321D01*
X023306Y017546D01*
X023306Y017705D02*
X023006Y018005D01*
X022931Y018005D01*
X022856Y017930D01*
X023306Y018005D02*
X023306Y017705D01*
X023306Y017321D02*
X022856Y017321D01*
X022931Y017161D02*
X022856Y017086D01*
X022856Y016936D01*
X022931Y016860D01*
X022931Y017161D02*
X023006Y017161D01*
X023306Y016860D01*
X023306Y017161D01*
X023056Y016540D02*
X023056Y016240D01*
X022831Y016465D01*
X023281Y016465D01*
X023281Y016080D02*
X023281Y015780D01*
X022981Y016080D01*
X022906Y016080D01*
X022831Y016005D01*
X022831Y015855D01*
X022906Y015780D01*
X022906Y015620D02*
X023056Y015620D01*
X023131Y015545D01*
X023131Y015319D01*
X023281Y015319D02*
X022831Y015319D01*
X022831Y015545D01*
X022906Y015620D01*
X023131Y015469D02*
X023281Y015620D01*
X022981Y012230D02*
X022681Y012230D01*
X022981Y011930D01*
X023056Y012005D01*
X023056Y012155D01*
X022981Y012230D01*
X022981Y011930D02*
X022681Y011930D01*
X022606Y012005D01*
X022606Y012155D01*
X022681Y012230D01*
X022681Y011770D02*
X022981Y011470D01*
X023056Y011470D01*
X023056Y011235D02*
X022606Y011235D01*
X022831Y011009D01*
X022831Y011310D01*
X022606Y011470D02*
X022606Y011770D01*
X022681Y011770D01*
X022656Y010790D02*
X022956Y010490D01*
X023031Y010490D01*
X023031Y010330D02*
X022881Y010180D01*
X022881Y010255D02*
X022881Y010030D01*
X023031Y010030D02*
X022581Y010030D01*
X022581Y010255D01*
X022656Y010330D01*
X022806Y010330D01*
X022881Y010255D01*
X022581Y010490D02*
X022581Y010790D01*
X022656Y010790D01*
X023856Y010134D02*
X023958Y010236D01*
X024161Y010236D01*
X024263Y010134D01*
X024263Y010033D01*
X024161Y009931D01*
X024263Y009829D01*
X024263Y009727D01*
X024161Y009625D01*
X023958Y009625D01*
X023856Y009727D01*
X024059Y009931D02*
X024161Y009931D01*
X024464Y010134D02*
X024565Y010236D01*
X024769Y010236D01*
X024871Y010134D01*
X024871Y010033D01*
X024464Y009625D01*
X024871Y009625D01*
X025350Y009201D02*
X025554Y009201D01*
X025655Y009099D01*
X025655Y008998D01*
X025554Y008896D01*
X025655Y008794D01*
X025655Y008692D01*
X025554Y008590D01*
X025350Y008590D01*
X025248Y008692D01*
X025452Y008896D02*
X025554Y008896D01*
X025350Y009201D02*
X025248Y009099D01*
X021006Y010200D02*
X011706Y010200D01*
X011706Y007000D02*
X011706Y006800D01*
X035356Y022125D02*
X035356Y022227D01*
X035763Y022634D01*
X035763Y022736D01*
X035356Y022736D01*
X035964Y022736D02*
X035964Y022431D01*
X036167Y022533D01*
X036269Y022533D01*
X036371Y022431D01*
X036371Y022227D01*
X036269Y022125D01*
X036065Y022125D01*
X035964Y022227D01*
X035964Y022736D02*
X036371Y022736D01*
X036641Y021826D02*
X037048Y021826D01*
X037048Y021724D01*
X036641Y021317D01*
X036641Y021215D01*
X037248Y021521D02*
X037655Y021521D01*
X037554Y021826D02*
X037248Y021521D01*
X037554Y021215D02*
X037554Y021826D01*
X030221Y044150D02*
X029921Y044150D01*
X030071Y044150D02*
X030071Y044601D01*
X029921Y044451D01*
X029760Y044451D02*
X029760Y044526D01*
X029685Y044601D01*
X029535Y044601D01*
X029460Y044526D01*
X029760Y044451D02*
X029460Y044150D01*
X029760Y044150D01*
D16*
X027918Y018514D02*
X027918Y012687D01*
X033744Y012687D01*
X033744Y018514D01*
X027918Y018514D01*
D17*
X023531Y017875D02*
X023531Y017725D01*
X023481Y017675D01*
X023481Y015775D01*
X023531Y015725D01*
X023531Y015575D01*
X023529Y015558D01*
X023525Y015541D01*
X023518Y015525D01*
X023508Y015511D01*
X023495Y015498D01*
X023481Y015488D01*
X023465Y015481D01*
X023448Y015477D01*
X023431Y015475D01*
X022731Y015475D01*
X022714Y015477D01*
X022697Y015481D01*
X022681Y015488D01*
X022667Y015498D01*
X022654Y015511D01*
X022644Y015525D01*
X022637Y015541D01*
X022633Y015558D01*
X022631Y015575D01*
X022631Y015725D01*
X022681Y015775D01*
X022681Y017675D01*
X022631Y017725D01*
X022631Y017875D01*
X022633Y017892D01*
X022637Y017909D01*
X022644Y017925D01*
X022654Y017939D01*
X022667Y017952D01*
X022681Y017962D01*
X022697Y017969D01*
X022714Y017973D01*
X022731Y017975D01*
X023431Y017975D01*
X023448Y017973D01*
X023465Y017969D01*
X023481Y017962D01*
X023495Y017952D01*
X023508Y017939D01*
X023518Y017925D01*
X023525Y017909D01*
X023529Y017892D01*
X023531Y017875D01*
X022206Y020475D02*
X020706Y020475D01*
X020456Y020725D01*
X020456Y021225D01*
X020706Y021475D01*
X020456Y021725D01*
X020456Y022225D01*
X020706Y022475D01*
X020456Y022725D01*
X020456Y023225D01*
X020706Y023475D01*
X020456Y023725D01*
X020456Y024225D01*
X020706Y024475D01*
X020456Y024725D01*
X020456Y025225D01*
X020706Y025475D01*
X022206Y025475D01*
X022456Y025225D01*
X022456Y024725D01*
X022206Y024475D01*
X022456Y024225D01*
X022456Y023725D01*
X022206Y023475D01*
X022456Y023225D01*
X022456Y022725D01*
X022206Y022475D01*
X022456Y022225D01*
X022456Y021725D01*
X022206Y021475D01*
X022456Y021225D01*
X022456Y020725D01*
X022206Y020475D01*
X018581Y021850D02*
X018581Y022350D01*
X018331Y022600D01*
X018581Y022850D01*
X018581Y023350D01*
X018331Y023600D01*
X018581Y023850D01*
X018581Y024350D01*
X018331Y024600D01*
X016831Y024600D01*
X016581Y024350D01*
X016581Y023850D01*
X016831Y023600D01*
X016581Y023350D01*
X016581Y022850D01*
X016831Y022600D01*
X016581Y022350D01*
X016581Y021850D01*
X016831Y021600D01*
X018331Y021600D01*
X018581Y021850D01*
X016756Y020350D02*
X016756Y019850D01*
X016756Y019350D01*
X016556Y019350D01*
X016556Y020350D01*
X016756Y020350D01*
X016756Y019850D02*
X017106Y019850D01*
X017106Y019500D02*
X017106Y019350D01*
X017106Y019200D01*
X017106Y019350D02*
X016956Y019350D01*
X017106Y019350D02*
X017256Y019350D01*
X015356Y019850D02*
X015358Y019916D01*
X015364Y019981D01*
X015374Y020046D01*
X015387Y020111D01*
X015405Y020174D01*
X015426Y020237D01*
X015451Y020297D01*
X015480Y020357D01*
X015512Y020414D01*
X015547Y020470D01*
X015586Y020523D01*
X015628Y020574D01*
X015672Y020622D01*
X015720Y020667D01*
X015770Y020710D01*
X015823Y020749D01*
X015878Y020786D01*
X015935Y020819D01*
X015994Y020848D01*
X016054Y020874D01*
X016116Y020896D01*
X016179Y020915D01*
X016243Y020929D01*
X016308Y020940D01*
X016374Y020947D01*
X016440Y020950D01*
X016505Y020949D01*
X016571Y020944D01*
X016636Y020935D01*
X016701Y020922D01*
X016764Y020906D01*
X016827Y020886D01*
X016888Y020861D01*
X016948Y020834D01*
X017006Y020803D01*
X017062Y020768D01*
X017116Y020730D01*
X017167Y020689D01*
X017216Y020645D01*
X017262Y020598D01*
X017306Y020549D01*
X017346Y020497D01*
X017383Y020442D01*
X017417Y020386D01*
X017447Y020327D01*
X017474Y020267D01*
X017497Y020206D01*
X017516Y020143D01*
X017532Y020079D01*
X017544Y020014D01*
X017552Y019949D01*
X017556Y019883D01*
X017556Y019817D01*
X017552Y019751D01*
X017544Y019686D01*
X017532Y019621D01*
X017516Y019557D01*
X017497Y019494D01*
X017474Y019433D01*
X017447Y019373D01*
X017417Y019314D01*
X017383Y019258D01*
X017346Y019203D01*
X017306Y019151D01*
X017262Y019102D01*
X017216Y019055D01*
X017167Y019011D01*
X017116Y018970D01*
X017062Y018932D01*
X017006Y018897D01*
X016948Y018866D01*
X016888Y018839D01*
X016827Y018814D01*
X016764Y018794D01*
X016701Y018778D01*
X016636Y018765D01*
X016571Y018756D01*
X016505Y018751D01*
X016440Y018750D01*
X016374Y018753D01*
X016308Y018760D01*
X016243Y018771D01*
X016179Y018785D01*
X016116Y018804D01*
X016054Y018826D01*
X015994Y018852D01*
X015935Y018881D01*
X015878Y018914D01*
X015823Y018951D01*
X015770Y018990D01*
X015720Y019033D01*
X015672Y019078D01*
X015628Y019126D01*
X015586Y019177D01*
X015547Y019230D01*
X015512Y019286D01*
X015480Y019343D01*
X015451Y019403D01*
X015426Y019463D01*
X015405Y019526D01*
X015387Y019589D01*
X015374Y019654D01*
X015364Y019719D01*
X015358Y019784D01*
X015356Y019850D01*
X015806Y019850D02*
X016206Y019850D01*
X015106Y018475D02*
X015106Y021975D01*
X015104Y022005D01*
X015099Y022035D01*
X015090Y022064D01*
X015077Y022091D01*
X015062Y022117D01*
X015043Y022141D01*
X015022Y022162D01*
X014998Y022181D01*
X014972Y022196D01*
X014945Y022209D01*
X014916Y022218D01*
X014886Y022223D01*
X014856Y022225D01*
X009956Y022225D01*
X008706Y023325D02*
X008706Y024075D01*
X008745Y024077D01*
X008784Y024083D01*
X008822Y024092D01*
X008859Y024105D01*
X008895Y024122D01*
X008928Y024142D01*
X008960Y024166D01*
X008989Y024192D01*
X009015Y024221D01*
X009039Y024253D01*
X009059Y024286D01*
X009076Y024322D01*
X009089Y024359D01*
X009098Y024397D01*
X009104Y024436D01*
X009106Y024475D01*
X009104Y024514D01*
X009098Y024553D01*
X009089Y024591D01*
X009076Y024628D01*
X009059Y024664D01*
X009039Y024697D01*
X009015Y024729D01*
X008989Y024758D01*
X008960Y024784D01*
X008928Y024808D01*
X008895Y024828D01*
X008859Y024845D01*
X008822Y024858D01*
X008784Y024867D01*
X008745Y024873D01*
X008706Y024875D01*
X008706Y025625D01*
X015706Y025625D01*
X015706Y023325D01*
X008706Y023325D01*
X009606Y026925D02*
X009606Y039025D01*
X010956Y039025D01*
X010958Y038995D01*
X010963Y038965D01*
X010972Y038936D01*
X010985Y038909D01*
X011000Y038883D01*
X011019Y038859D01*
X011040Y038838D01*
X011064Y038819D01*
X011090Y038804D01*
X011117Y038791D01*
X011146Y038782D01*
X011176Y038777D01*
X011206Y038775D01*
X011236Y038777D01*
X011266Y038782D01*
X011295Y038791D01*
X011322Y038804D01*
X011348Y038819D01*
X011372Y038838D01*
X011393Y038859D01*
X011412Y038883D01*
X011427Y038909D01*
X011440Y038936D01*
X011449Y038965D01*
X011454Y038995D01*
X011456Y039025D01*
X012806Y039025D01*
X012806Y026925D01*
X009606Y026925D01*
X014181Y028975D02*
X014531Y028975D01*
X014531Y029475D01*
X014731Y029475D01*
X014731Y028475D01*
X014531Y028475D01*
X014531Y028975D01*
X013831Y028975D02*
X013833Y029038D01*
X013839Y029100D01*
X013849Y029162D01*
X013862Y029224D01*
X013880Y029284D01*
X013901Y029343D01*
X013926Y029401D01*
X013955Y029457D01*
X013987Y029511D01*
X014022Y029563D01*
X014060Y029612D01*
X014102Y029660D01*
X014146Y029704D01*
X014194Y029746D01*
X014243Y029784D01*
X014295Y029819D01*
X014349Y029851D01*
X014405Y029880D01*
X014463Y029905D01*
X014522Y029926D01*
X014582Y029944D01*
X014644Y029957D01*
X014706Y029967D01*
X014768Y029973D01*
X014831Y029975D01*
X014894Y029973D01*
X014956Y029967D01*
X015018Y029957D01*
X015080Y029944D01*
X015140Y029926D01*
X015199Y029905D01*
X015257Y029880D01*
X015313Y029851D01*
X015367Y029819D01*
X015419Y029784D01*
X015468Y029746D01*
X015516Y029704D01*
X015560Y029660D01*
X015602Y029612D01*
X015640Y029563D01*
X015675Y029511D01*
X015707Y029457D01*
X015736Y029401D01*
X015761Y029343D01*
X015782Y029284D01*
X015800Y029224D01*
X015813Y029162D01*
X015823Y029100D01*
X015829Y029038D01*
X015831Y028975D01*
X015829Y028912D01*
X015823Y028850D01*
X015813Y028788D01*
X015800Y028726D01*
X015782Y028666D01*
X015761Y028607D01*
X015736Y028549D01*
X015707Y028493D01*
X015675Y028439D01*
X015640Y028387D01*
X015602Y028338D01*
X015560Y028290D01*
X015516Y028246D01*
X015468Y028204D01*
X015419Y028166D01*
X015367Y028131D01*
X015313Y028099D01*
X015257Y028070D01*
X015199Y028045D01*
X015140Y028024D01*
X015080Y028006D01*
X015018Y027993D01*
X014956Y027983D01*
X014894Y027977D01*
X014831Y027975D01*
X014768Y027977D01*
X014706Y027983D01*
X014644Y027993D01*
X014582Y028006D01*
X014522Y028024D01*
X014463Y028045D01*
X014405Y028070D01*
X014349Y028099D01*
X014295Y028131D01*
X014243Y028166D01*
X014194Y028204D01*
X014146Y028246D01*
X014102Y028290D01*
X014060Y028338D01*
X014022Y028387D01*
X013987Y028439D01*
X013955Y028493D01*
X013926Y028549D01*
X013901Y028607D01*
X013880Y028666D01*
X013862Y028726D01*
X013849Y028788D01*
X013839Y028850D01*
X013833Y028912D01*
X013831Y028975D01*
X014281Y029375D02*
X014281Y029475D01*
X014281Y029575D01*
X014281Y029475D02*
X014381Y029475D01*
X014281Y029475D02*
X014181Y029475D01*
X015081Y028975D02*
X015481Y028975D01*
X015581Y030725D02*
X015081Y030725D01*
X014831Y030975D01*
X014831Y031475D01*
X015081Y031725D01*
X014831Y031975D01*
X014831Y032475D01*
X015081Y032725D01*
X014831Y032975D01*
X014831Y033475D01*
X015081Y033725D01*
X015581Y033725D01*
X015831Y033475D01*
X015831Y032975D01*
X015581Y032725D01*
X015831Y032475D01*
X015831Y031975D01*
X015581Y031725D01*
X015831Y031475D01*
X015831Y030975D01*
X015581Y030725D01*
X016206Y032075D02*
X016206Y037375D01*
X036206Y037375D01*
X036206Y035175D01*
X036167Y035173D01*
X036128Y035167D01*
X036090Y035158D01*
X036053Y035145D01*
X036017Y035128D01*
X035984Y035108D01*
X035952Y035084D01*
X035923Y035058D01*
X035897Y035029D01*
X035873Y034997D01*
X035853Y034964D01*
X035836Y034928D01*
X035823Y034891D01*
X035814Y034853D01*
X035808Y034814D01*
X035806Y034775D01*
X035808Y034736D01*
X035814Y034697D01*
X035823Y034659D01*
X035836Y034622D01*
X035853Y034586D01*
X035873Y034553D01*
X035897Y034521D01*
X035923Y034492D01*
X035952Y034466D01*
X035984Y034442D01*
X036017Y034422D01*
X036053Y034405D01*
X036090Y034392D01*
X036128Y034383D01*
X036167Y034377D01*
X036206Y034375D01*
X036206Y032075D01*
X016206Y032075D01*
X017956Y030288D02*
X022856Y030288D01*
X022886Y030286D01*
X022916Y030281D01*
X022945Y030272D01*
X022972Y030259D01*
X022998Y030244D01*
X023022Y030225D01*
X023043Y030204D01*
X023062Y030180D01*
X023077Y030154D01*
X023090Y030127D01*
X023099Y030098D01*
X023104Y030068D01*
X023106Y030038D01*
X023106Y026538D01*
X023104Y026508D01*
X023099Y026478D01*
X023090Y026449D01*
X023077Y026422D01*
X023062Y026396D01*
X023043Y026372D01*
X023022Y026351D01*
X022998Y026332D01*
X022972Y026317D01*
X022945Y026304D01*
X022916Y026295D01*
X022886Y026290D01*
X022856Y026288D01*
X017956Y026288D01*
X021956Y027538D02*
X021956Y027918D01*
X021956Y028658D02*
X021956Y029038D01*
X024706Y027950D02*
X024706Y030250D01*
X031706Y030250D01*
X031706Y029500D01*
X031667Y029498D01*
X031628Y029492D01*
X031590Y029483D01*
X031553Y029470D01*
X031517Y029453D01*
X031484Y029433D01*
X031452Y029409D01*
X031423Y029383D01*
X031397Y029354D01*
X031373Y029322D01*
X031353Y029289D01*
X031336Y029253D01*
X031323Y029216D01*
X031314Y029178D01*
X031308Y029139D01*
X031306Y029100D01*
X031308Y029061D01*
X031314Y029022D01*
X031323Y028984D01*
X031336Y028947D01*
X031353Y028911D01*
X031373Y028878D01*
X031397Y028846D01*
X031423Y028817D01*
X031452Y028791D01*
X031484Y028767D01*
X031517Y028747D01*
X031553Y028730D01*
X031590Y028717D01*
X031628Y028708D01*
X031667Y028702D01*
X031706Y028700D01*
X031706Y027950D01*
X024706Y027950D01*
X032349Y029739D02*
X032563Y029526D01*
X032563Y029205D01*
X032563Y029526D02*
X032776Y029739D01*
X032776Y029846D01*
X032994Y029846D02*
X032994Y029205D01*
X033421Y029205D02*
X033421Y029846D01*
X033207Y029633D01*
X032994Y029846D01*
X033277Y030105D02*
X033598Y030105D01*
X033704Y030212D01*
X033704Y030639D01*
X033598Y030746D01*
X033277Y030746D01*
X033277Y030105D01*
X033638Y029739D02*
X033745Y029846D01*
X033958Y029846D01*
X034065Y029739D01*
X034065Y029633D01*
X033638Y029205D01*
X034065Y029205D01*
X034283Y029205D02*
X034710Y029205D01*
X034496Y029205D02*
X034496Y029846D01*
X034283Y029633D01*
X034242Y030105D02*
X034349Y030212D01*
X034349Y030639D01*
X034242Y030746D01*
X033922Y030746D01*
X033922Y030105D01*
X034242Y030105D01*
X034566Y030212D02*
X034673Y030105D01*
X034887Y030105D01*
X034993Y030212D01*
X034993Y030639D01*
X034887Y030746D01*
X034673Y030746D01*
X034566Y030639D01*
X034566Y030533D01*
X034673Y030426D01*
X034993Y030426D01*
X035248Y029846D02*
X034927Y029526D01*
X035354Y029526D01*
X035572Y029633D02*
X035679Y029526D01*
X035999Y029526D01*
X035999Y029739D02*
X035892Y029846D01*
X035679Y029846D01*
X035572Y029739D01*
X035572Y029633D01*
X035572Y029312D02*
X035679Y029205D01*
X035892Y029205D01*
X035999Y029312D01*
X035999Y029739D01*
X036216Y029846D02*
X036643Y029846D01*
X036430Y029526D02*
X036216Y029526D01*
X036216Y029846D02*
X036216Y029205D01*
X035248Y029205D02*
X035248Y029846D01*
X032349Y029846D02*
X032349Y029739D01*
X039856Y026325D02*
X039856Y047125D01*
X045056Y047125D01*
X045056Y026325D01*
X042956Y026325D01*
X042954Y026369D01*
X042948Y026412D01*
X042939Y026454D01*
X042926Y026496D01*
X042909Y026536D01*
X042889Y026575D01*
X042866Y026612D01*
X042839Y026646D01*
X042810Y026679D01*
X042777Y026708D01*
X042743Y026735D01*
X042706Y026758D01*
X042667Y026778D01*
X042627Y026795D01*
X042585Y026808D01*
X042543Y026817D01*
X042500Y026823D01*
X042456Y026825D01*
X042412Y026823D01*
X042369Y026817D01*
X042327Y026808D01*
X042285Y026795D01*
X042245Y026778D01*
X042206Y026758D01*
X042169Y026735D01*
X042135Y026708D01*
X042102Y026679D01*
X042073Y026646D01*
X042046Y026612D01*
X042023Y026575D01*
X042003Y026536D01*
X041986Y026496D01*
X041973Y026454D01*
X041964Y026412D01*
X041958Y026369D01*
X041956Y026325D01*
X039856Y026325D01*
X040481Y019550D02*
X040481Y005650D01*
X042581Y005650D01*
X042583Y005694D01*
X042589Y005737D01*
X042598Y005779D01*
X042611Y005821D01*
X042628Y005861D01*
X042648Y005900D01*
X042671Y005937D01*
X042698Y005971D01*
X042727Y006004D01*
X042760Y006033D01*
X042794Y006060D01*
X042831Y006083D01*
X042870Y006103D01*
X042910Y006120D01*
X042952Y006133D01*
X042994Y006142D01*
X043037Y006148D01*
X043081Y006150D01*
X043125Y006148D01*
X043168Y006142D01*
X043210Y006133D01*
X043252Y006120D01*
X043292Y006103D01*
X043331Y006083D01*
X043368Y006060D01*
X043402Y006033D01*
X043435Y006004D01*
X043464Y005971D01*
X043491Y005937D01*
X043514Y005900D01*
X043534Y005861D01*
X043551Y005821D01*
X043564Y005779D01*
X043573Y005737D01*
X043579Y005694D01*
X043581Y005650D01*
X045681Y005650D01*
X045681Y019550D01*
X040481Y019550D01*
X048185Y014604D02*
X050485Y014604D01*
X050485Y004604D01*
X049735Y004604D01*
X049733Y004643D01*
X049727Y004682D01*
X049718Y004720D01*
X049705Y004757D01*
X049688Y004793D01*
X049668Y004826D01*
X049644Y004858D01*
X049618Y004887D01*
X049589Y004913D01*
X049557Y004937D01*
X049524Y004957D01*
X049488Y004974D01*
X049451Y004987D01*
X049413Y004996D01*
X049374Y005002D01*
X049335Y005004D01*
X049296Y005002D01*
X049257Y004996D01*
X049219Y004987D01*
X049182Y004974D01*
X049146Y004957D01*
X049113Y004937D01*
X049081Y004913D01*
X049052Y004887D01*
X049026Y004858D01*
X049002Y004826D01*
X048982Y004793D01*
X048965Y004757D01*
X048952Y004720D01*
X048943Y004682D01*
X048937Y004643D01*
X048935Y004604D01*
X048185Y004604D01*
X048185Y014604D01*
X053884Y014605D02*
X056184Y014605D01*
X056184Y004605D01*
X055434Y004605D01*
X055432Y004644D01*
X055426Y004683D01*
X055417Y004721D01*
X055404Y004758D01*
X055387Y004794D01*
X055367Y004827D01*
X055343Y004859D01*
X055317Y004888D01*
X055288Y004914D01*
X055256Y004938D01*
X055223Y004958D01*
X055187Y004975D01*
X055150Y004988D01*
X055112Y004997D01*
X055073Y005003D01*
X055034Y005005D01*
X054995Y005003D01*
X054956Y004997D01*
X054918Y004988D01*
X054881Y004975D01*
X054845Y004958D01*
X054812Y004938D01*
X054780Y004914D01*
X054751Y004888D01*
X054725Y004859D01*
X054701Y004827D01*
X054681Y004794D01*
X054664Y004758D01*
X054651Y004721D01*
X054642Y004683D01*
X054636Y004644D01*
X054634Y004605D01*
X053884Y004605D01*
X053884Y014605D01*
X060056Y020600D02*
X065356Y020600D01*
X065356Y004600D01*
X063106Y004600D01*
X063146Y004421D02*
X063146Y003780D01*
X062933Y003780D02*
X063360Y003780D01*
X063577Y003887D02*
X064004Y004314D01*
X064004Y003887D01*
X063898Y003780D01*
X063684Y003780D01*
X063577Y003887D01*
X063577Y004314D01*
X063684Y004421D01*
X063898Y004421D01*
X064004Y004314D01*
X064222Y004314D02*
X064329Y004421D01*
X064542Y004421D01*
X064649Y004314D01*
X064649Y004208D01*
X064222Y003780D01*
X064649Y003780D01*
X064866Y004101D02*
X065187Y004421D01*
X065187Y003780D01*
X065293Y004101D02*
X064866Y004101D01*
X063146Y004421D02*
X062933Y004208D01*
X062715Y004208D02*
X062715Y004314D01*
X062608Y004421D01*
X062395Y004421D01*
X062288Y004314D01*
X062071Y004421D02*
X061857Y004314D01*
X061644Y004101D01*
X061964Y004101D01*
X062071Y003994D01*
X062071Y003887D01*
X061964Y003780D01*
X061750Y003780D01*
X061644Y003887D01*
X061644Y004101D01*
X061493Y004208D02*
X061387Y004101D01*
X061493Y003994D01*
X061493Y003887D01*
X061387Y003780D01*
X061173Y003780D01*
X061066Y003887D01*
X060849Y003887D02*
X060849Y004314D01*
X060742Y004421D01*
X060422Y004421D01*
X060422Y003780D01*
X060742Y003780D01*
X060849Y003887D01*
X061066Y004314D02*
X061173Y004421D01*
X061387Y004421D01*
X061493Y004314D01*
X061493Y004208D01*
X061387Y004101D02*
X061280Y004101D01*
X062288Y003780D02*
X062715Y004208D01*
X063106Y004600D02*
X063104Y004639D01*
X063098Y004678D01*
X063089Y004716D01*
X063076Y004753D01*
X063059Y004789D01*
X063039Y004822D01*
X063015Y004854D01*
X062989Y004883D01*
X062960Y004909D01*
X062928Y004933D01*
X062895Y004953D01*
X062859Y004970D01*
X062822Y004983D01*
X062784Y004992D01*
X062745Y004998D01*
X062706Y005000D01*
X062667Y004998D01*
X062628Y004992D01*
X062590Y004983D01*
X062553Y004970D01*
X062517Y004953D01*
X062484Y004933D01*
X062452Y004909D01*
X062423Y004883D01*
X062397Y004854D01*
X062373Y004822D01*
X062353Y004789D01*
X062336Y004753D01*
X062323Y004716D01*
X062314Y004678D01*
X062308Y004639D01*
X062306Y004600D01*
X060056Y004600D01*
X060056Y020600D01*
X057452Y023262D02*
X057452Y025562D01*
X067452Y025562D01*
X067452Y024812D01*
X067413Y024810D01*
X067374Y024804D01*
X067336Y024795D01*
X067299Y024782D01*
X067263Y024765D01*
X067230Y024745D01*
X067198Y024721D01*
X067169Y024695D01*
X067143Y024666D01*
X067119Y024634D01*
X067099Y024601D01*
X067082Y024565D01*
X067069Y024528D01*
X067060Y024490D01*
X067054Y024451D01*
X067052Y024412D01*
X067054Y024373D01*
X067060Y024334D01*
X067069Y024296D01*
X067082Y024259D01*
X067099Y024223D01*
X067119Y024190D01*
X067143Y024158D01*
X067169Y024129D01*
X067198Y024103D01*
X067230Y024079D01*
X067263Y024059D01*
X067299Y024042D01*
X067336Y024029D01*
X067374Y024020D01*
X067413Y024014D01*
X067452Y024012D01*
X067452Y023262D01*
X057452Y023262D01*
X055481Y026725D02*
X050181Y026725D01*
X050181Y046725D01*
X052381Y046725D01*
X052368Y046855D02*
X051941Y046855D01*
X052155Y046855D02*
X052155Y047496D01*
X051941Y047283D01*
X051724Y047389D02*
X051617Y047496D01*
X051297Y047496D01*
X051297Y046855D01*
X051617Y046855D01*
X051724Y046962D01*
X051724Y047389D01*
X051079Y047389D02*
X050973Y047496D01*
X050652Y047496D01*
X050652Y046855D01*
X050973Y046855D01*
X051079Y046962D01*
X051079Y047389D01*
X052381Y046725D02*
X052383Y046686D01*
X052389Y046647D01*
X052398Y046609D01*
X052411Y046572D01*
X052428Y046536D01*
X052448Y046503D01*
X052472Y046471D01*
X052498Y046442D01*
X052527Y046416D01*
X052559Y046392D01*
X052592Y046372D01*
X052628Y046355D01*
X052665Y046342D01*
X052703Y046333D01*
X052742Y046327D01*
X052781Y046325D01*
X052820Y046327D01*
X052859Y046333D01*
X052897Y046342D01*
X052934Y046355D01*
X052970Y046372D01*
X053003Y046392D01*
X053035Y046416D01*
X053064Y046442D01*
X053090Y046471D01*
X053114Y046503D01*
X053134Y046536D01*
X053151Y046572D01*
X053164Y046609D01*
X053173Y046647D01*
X053179Y046686D01*
X053181Y046725D01*
X055481Y046725D01*
X055481Y026725D01*
X060056Y030725D02*
X065356Y030725D01*
X065356Y046725D01*
X063106Y046725D01*
X062964Y046905D02*
X063071Y047012D01*
X063071Y047439D01*
X062964Y047546D01*
X062750Y047546D01*
X062644Y047439D01*
X062644Y047333D01*
X062750Y047226D01*
X063071Y047226D01*
X063288Y047439D02*
X063395Y047546D01*
X063608Y047546D01*
X063715Y047439D01*
X063933Y047439D02*
X064040Y047546D01*
X064253Y047546D01*
X064360Y047439D01*
X063933Y047012D01*
X064040Y046905D01*
X064253Y046905D01*
X064360Y047012D01*
X064360Y047439D01*
X064577Y047439D02*
X064684Y047546D01*
X064898Y047546D01*
X065004Y047439D01*
X065004Y047333D01*
X064577Y046905D01*
X065004Y046905D01*
X065222Y047012D02*
X065329Y046905D01*
X065542Y046905D01*
X065649Y047012D01*
X065649Y047439D01*
X065222Y047012D01*
X065222Y047439D01*
X065329Y047546D01*
X065542Y047546D01*
X065649Y047439D01*
X065866Y047439D02*
X065866Y047012D01*
X065973Y046905D01*
X066187Y046905D01*
X066293Y047012D01*
X066293Y047439D02*
X066187Y047546D01*
X065973Y047546D01*
X065866Y047439D01*
X063933Y047439D02*
X063933Y047012D01*
X063715Y047012D02*
X063608Y046905D01*
X063395Y046905D01*
X063288Y047012D01*
X063288Y047439D01*
X062964Y046905D02*
X062750Y046905D01*
X062644Y047012D01*
X062426Y046905D02*
X061999Y046905D01*
X062426Y047333D01*
X062426Y047439D01*
X062319Y047546D01*
X062106Y047546D01*
X061999Y047439D01*
X061782Y047546D02*
X061782Y046905D01*
X061568Y047119D01*
X061355Y046905D01*
X061355Y047546D01*
X060868Y047439D02*
X060868Y047333D01*
X060762Y047226D01*
X060548Y047226D01*
X060441Y047333D01*
X060441Y047439D01*
X060548Y047546D01*
X060762Y047546D01*
X060868Y047439D01*
X060762Y047226D02*
X060868Y047119D01*
X060868Y047012D01*
X060762Y046905D01*
X060548Y046905D01*
X060441Y047012D01*
X060441Y047119D01*
X060548Y047226D01*
X060224Y047439D02*
X060117Y047546D01*
X059797Y047546D01*
X059797Y046905D01*
X060117Y046905D01*
X060224Y047012D01*
X060224Y047439D01*
X059579Y047439D02*
X059473Y047546D01*
X059152Y047546D01*
X059152Y046905D01*
X059473Y046905D01*
X059579Y047012D01*
X059579Y047439D01*
X060056Y046725D02*
X062306Y046725D01*
X062308Y046686D01*
X062314Y046647D01*
X062323Y046609D01*
X062336Y046572D01*
X062353Y046536D01*
X062373Y046503D01*
X062397Y046471D01*
X062423Y046442D01*
X062452Y046416D01*
X062484Y046392D01*
X062517Y046372D01*
X062553Y046355D01*
X062590Y046342D01*
X062628Y046333D01*
X062667Y046327D01*
X062706Y046325D01*
X062745Y046327D01*
X062784Y046333D01*
X062822Y046342D01*
X062859Y046355D01*
X062895Y046372D01*
X062928Y046392D01*
X062960Y046416D01*
X062989Y046442D01*
X063015Y046471D01*
X063039Y046503D01*
X063059Y046536D01*
X063076Y046572D01*
X063089Y046609D01*
X063098Y046647D01*
X063104Y046686D01*
X063106Y046725D01*
X060056Y046725D02*
X060056Y030725D01*
X052468Y031950D02*
X052468Y032100D01*
X052418Y032150D01*
X052418Y034050D01*
X052468Y034100D01*
X052468Y034250D01*
X052466Y034267D01*
X052462Y034284D01*
X052455Y034300D01*
X052445Y034314D01*
X052432Y034327D01*
X052418Y034337D01*
X052402Y034344D01*
X052385Y034348D01*
X052368Y034350D01*
X051668Y034350D01*
X051651Y034348D01*
X051634Y034344D01*
X051618Y034337D01*
X051604Y034327D01*
X051591Y034314D01*
X051581Y034300D01*
X051574Y034284D01*
X051570Y034267D01*
X051568Y034250D01*
X051568Y034100D01*
X051618Y034050D01*
X051618Y032150D01*
X051568Y032100D01*
X051568Y031950D01*
X051570Y031933D01*
X051574Y031916D01*
X051581Y031900D01*
X051591Y031886D01*
X051604Y031873D01*
X051618Y031863D01*
X051634Y031856D01*
X051651Y031852D01*
X051668Y031850D01*
X052368Y031850D01*
X052385Y031852D01*
X052402Y031856D01*
X052418Y031863D01*
X052432Y031873D01*
X052445Y031886D01*
X052455Y031900D01*
X052462Y031916D01*
X052466Y031933D01*
X052468Y031950D01*
X067331Y040038D02*
X067581Y039788D01*
X068081Y039788D01*
X068331Y040038D01*
X068581Y039788D01*
X069081Y039788D01*
X069331Y040038D01*
X069581Y039788D01*
X070081Y039788D01*
X070331Y040038D01*
X070581Y039788D01*
X071081Y039788D01*
X071331Y040038D01*
X071331Y040538D01*
X071081Y040788D01*
X070581Y040788D01*
X070331Y040538D01*
X070081Y040788D01*
X069581Y040788D01*
X069331Y040538D01*
X069081Y040788D01*
X068581Y040788D01*
X068331Y040538D01*
X068081Y040788D01*
X067581Y040788D01*
X067331Y040538D01*
X067331Y040038D01*
X054893Y046937D02*
X054787Y046830D01*
X054573Y046830D01*
X054466Y046937D01*
X054893Y047364D01*
X054893Y046937D01*
X054466Y046937D02*
X054466Y047364D01*
X054573Y047471D01*
X054787Y047471D01*
X054893Y047364D01*
X054249Y047364D02*
X054249Y047258D01*
X054142Y047151D01*
X053929Y047151D01*
X053822Y047258D01*
X053822Y047364D01*
X053929Y047471D01*
X054142Y047471D01*
X054249Y047364D01*
X054142Y047151D02*
X054249Y047044D01*
X054249Y046937D01*
X054142Y046830D01*
X053929Y046830D01*
X053822Y046937D01*
X053822Y047044D01*
X053929Y047151D01*
X053604Y047364D02*
X053177Y046937D01*
X053177Y046830D01*
X053604Y046830D01*
X053604Y047364D02*
X053604Y047471D01*
X053177Y047471D01*
X034956Y044925D02*
X034956Y043725D01*
X031206Y043725D01*
X031206Y044925D01*
X031206Y048075D01*
X012706Y048075D01*
X012706Y044925D01*
X012706Y043725D01*
X014056Y043725D01*
X014056Y042225D01*
X014056Y041225D01*
X014306Y040975D01*
X014606Y040975D01*
X014856Y041225D01*
X014856Y042225D01*
X014856Y042675D01*
X015056Y042875D01*
X015056Y043125D01*
X015356Y043125D01*
X015356Y042875D01*
X015556Y042675D01*
X015556Y042225D01*
X015556Y041225D01*
X015806Y040975D01*
X016106Y040975D01*
X016356Y041225D01*
X016356Y042225D01*
X016356Y042675D01*
X016556Y042875D01*
X016556Y043125D01*
X016856Y043125D01*
X016856Y042875D01*
X017056Y042675D01*
X017056Y042225D01*
X017056Y041225D01*
X017306Y040975D01*
X017606Y040975D01*
X017856Y041225D01*
X017856Y042225D01*
X017856Y042675D01*
X018056Y042875D01*
X018056Y043125D01*
X018356Y043125D01*
X018356Y042875D01*
X018556Y042675D01*
X018556Y042225D01*
X018556Y041225D01*
X018806Y040975D01*
X019106Y040975D01*
X019356Y041225D01*
X019356Y042225D01*
X019356Y042675D01*
X019556Y042875D01*
X019556Y043125D01*
X019856Y043125D01*
X019856Y042875D01*
X020056Y042675D01*
X020056Y042225D01*
X020056Y041225D01*
X020306Y040975D01*
X020606Y040975D01*
X020856Y041225D01*
X020856Y042225D01*
X020856Y042675D01*
X021056Y042875D01*
X021056Y043125D01*
X021356Y043125D01*
X021356Y042875D01*
X021556Y042675D01*
X021556Y042225D01*
X021556Y041225D01*
X021806Y040975D01*
X022106Y040975D01*
X022356Y041225D01*
X022356Y042225D01*
X022356Y042675D01*
X022556Y042875D01*
X022556Y043125D01*
X022856Y043125D01*
X022856Y042875D01*
X023056Y042675D01*
X023056Y042225D01*
X023056Y041225D01*
X023306Y040975D01*
X023606Y040975D01*
X023856Y041225D01*
X023856Y042225D01*
X023856Y042675D01*
X024056Y042875D01*
X024056Y043125D01*
X024356Y043125D01*
X024356Y042875D01*
X024556Y042675D01*
X024556Y042225D01*
X024556Y041225D01*
X024806Y040975D01*
X025106Y040975D01*
X025356Y041225D01*
X025356Y042225D01*
X025356Y042675D01*
X025556Y042875D01*
X025556Y043125D01*
X025856Y043125D01*
X025856Y042875D01*
X026056Y042675D01*
X026056Y042225D01*
X026056Y041225D01*
X026306Y040975D01*
X026606Y040975D01*
X026856Y041225D01*
X026856Y042225D01*
X026856Y042675D01*
X027056Y042875D01*
X027056Y043125D01*
X027356Y043125D01*
X027356Y042875D01*
X027556Y042675D01*
X027556Y042225D01*
X027556Y041225D01*
X027806Y040975D01*
X028106Y040975D01*
X028356Y041225D01*
X028356Y042225D01*
X028356Y042675D01*
X028556Y042875D01*
X028556Y043125D01*
X028856Y043125D01*
X028856Y042875D01*
X029056Y042675D01*
X029056Y042225D01*
X029056Y041225D01*
X029306Y040975D01*
X029606Y040975D01*
X029856Y041225D01*
X029856Y042225D01*
X029856Y043725D01*
X031206Y043725D01*
X031706Y042900D02*
X031706Y042750D01*
X031856Y042750D01*
X031706Y042750D02*
X031706Y042600D01*
X031706Y042750D02*
X031556Y042750D01*
X031206Y042750D02*
X031206Y042400D01*
X031706Y042400D01*
X031706Y042200D01*
X030706Y042200D01*
X030706Y042400D01*
X031206Y042400D01*
X030106Y042100D02*
X030108Y042166D01*
X030114Y042231D01*
X030124Y042296D01*
X030137Y042361D01*
X030155Y042424D01*
X030176Y042487D01*
X030201Y042547D01*
X030230Y042607D01*
X030262Y042664D01*
X030297Y042720D01*
X030336Y042773D01*
X030378Y042824D01*
X030422Y042872D01*
X030470Y042917D01*
X030520Y042960D01*
X030573Y042999D01*
X030628Y043036D01*
X030685Y043069D01*
X030744Y043098D01*
X030804Y043124D01*
X030866Y043146D01*
X030929Y043165D01*
X030993Y043179D01*
X031058Y043190D01*
X031124Y043197D01*
X031190Y043200D01*
X031255Y043199D01*
X031321Y043194D01*
X031386Y043185D01*
X031451Y043172D01*
X031514Y043156D01*
X031577Y043136D01*
X031638Y043111D01*
X031698Y043084D01*
X031756Y043053D01*
X031812Y043018D01*
X031866Y042980D01*
X031917Y042939D01*
X031966Y042895D01*
X032012Y042848D01*
X032056Y042799D01*
X032096Y042747D01*
X032133Y042692D01*
X032167Y042636D01*
X032197Y042577D01*
X032224Y042517D01*
X032247Y042456D01*
X032266Y042393D01*
X032282Y042329D01*
X032294Y042264D01*
X032302Y042199D01*
X032306Y042133D01*
X032306Y042067D01*
X032302Y042001D01*
X032294Y041936D01*
X032282Y041871D01*
X032266Y041807D01*
X032247Y041744D01*
X032224Y041683D01*
X032197Y041623D01*
X032167Y041564D01*
X032133Y041508D01*
X032096Y041453D01*
X032056Y041401D01*
X032012Y041352D01*
X031966Y041305D01*
X031917Y041261D01*
X031866Y041220D01*
X031812Y041182D01*
X031756Y041147D01*
X031698Y041116D01*
X031638Y041089D01*
X031577Y041064D01*
X031514Y041044D01*
X031451Y041028D01*
X031386Y041015D01*
X031321Y041006D01*
X031255Y041001D01*
X031190Y041000D01*
X031124Y041003D01*
X031058Y041010D01*
X030993Y041021D01*
X030929Y041035D01*
X030866Y041054D01*
X030804Y041076D01*
X030744Y041102D01*
X030685Y041131D01*
X030628Y041164D01*
X030573Y041201D01*
X030520Y041240D01*
X030470Y041283D01*
X030422Y041328D01*
X030378Y041376D01*
X030336Y041427D01*
X030297Y041480D01*
X030262Y041536D01*
X030230Y041593D01*
X030201Y041653D01*
X030176Y041713D01*
X030155Y041776D01*
X030137Y041839D01*
X030124Y041904D01*
X030114Y041969D01*
X030108Y042034D01*
X030106Y042100D01*
X031206Y041850D02*
X031206Y041450D01*
X032456Y040213D02*
X032456Y040013D01*
X033456Y040013D01*
X033456Y040213D01*
X032956Y040213D01*
X032456Y040213D01*
X032956Y040213D02*
X032956Y040563D01*
X033406Y040963D02*
X033406Y041263D01*
X033256Y041113D02*
X033556Y041113D01*
X031356Y039913D02*
X031358Y039993D01*
X031364Y040072D01*
X031374Y040151D01*
X031388Y040230D01*
X031405Y040308D01*
X031427Y040385D01*
X031452Y040460D01*
X031482Y040534D01*
X031514Y040607D01*
X031551Y040678D01*
X031591Y040747D01*
X031634Y040814D01*
X031681Y040879D01*
X031730Y040941D01*
X031783Y041001D01*
X031839Y041058D01*
X031897Y041113D01*
X031958Y041164D01*
X032022Y041212D01*
X032088Y041257D01*
X032156Y041299D01*
X032226Y041337D01*
X032298Y041371D01*
X032371Y041402D01*
X032446Y041430D01*
X032523Y041453D01*
X032600Y041473D01*
X032678Y041489D01*
X032757Y041501D01*
X032836Y041509D01*
X032916Y041513D01*
X032996Y041513D01*
X033076Y041509D01*
X033155Y041501D01*
X033234Y041489D01*
X033312Y041473D01*
X033389Y041453D01*
X033466Y041430D01*
X033541Y041402D01*
X033614Y041371D01*
X033686Y041337D01*
X033756Y041299D01*
X033824Y041257D01*
X033890Y041212D01*
X033954Y041164D01*
X034015Y041113D01*
X034073Y041058D01*
X034129Y041001D01*
X034182Y040941D01*
X034231Y040879D01*
X034278Y040814D01*
X034321Y040747D01*
X034361Y040678D01*
X034398Y040607D01*
X034430Y040534D01*
X034460Y040460D01*
X034485Y040385D01*
X034507Y040308D01*
X034524Y040230D01*
X034538Y040151D01*
X034548Y040072D01*
X034554Y039993D01*
X034556Y039913D01*
X034554Y039833D01*
X034548Y039754D01*
X034538Y039675D01*
X034524Y039596D01*
X034507Y039518D01*
X034485Y039441D01*
X034460Y039366D01*
X034430Y039292D01*
X034398Y039219D01*
X034361Y039148D01*
X034321Y039079D01*
X034278Y039012D01*
X034231Y038947D01*
X034182Y038885D01*
X034129Y038825D01*
X034073Y038768D01*
X034015Y038713D01*
X033954Y038662D01*
X033890Y038614D01*
X033824Y038569D01*
X033756Y038527D01*
X033686Y038489D01*
X033614Y038455D01*
X033541Y038424D01*
X033466Y038396D01*
X033389Y038373D01*
X033312Y038353D01*
X033234Y038337D01*
X033155Y038325D01*
X033076Y038317D01*
X032996Y038313D01*
X032916Y038313D01*
X032836Y038317D01*
X032757Y038325D01*
X032678Y038337D01*
X032600Y038353D01*
X032523Y038373D01*
X032446Y038396D01*
X032371Y038424D01*
X032298Y038455D01*
X032226Y038489D01*
X032156Y038527D01*
X032088Y038569D01*
X032022Y038614D01*
X031958Y038662D01*
X031897Y038713D01*
X031839Y038768D01*
X031783Y038825D01*
X031730Y038885D01*
X031681Y038947D01*
X031634Y039012D01*
X031591Y039079D01*
X031551Y039148D01*
X031514Y039219D01*
X031482Y039292D01*
X031452Y039366D01*
X031427Y039441D01*
X031405Y039518D01*
X031388Y039596D01*
X031374Y039675D01*
X031364Y039754D01*
X031358Y039833D01*
X031356Y039913D01*
X030356Y039475D02*
X030006Y039475D01*
X030006Y038975D01*
X029806Y038975D01*
X029806Y039975D01*
X030006Y039975D01*
X030006Y039475D01*
X028706Y039475D02*
X028708Y039538D01*
X028714Y039600D01*
X028724Y039662D01*
X028737Y039724D01*
X028755Y039784D01*
X028776Y039843D01*
X028801Y039901D01*
X028830Y039957D01*
X028862Y040011D01*
X028897Y040063D01*
X028935Y040112D01*
X028977Y040160D01*
X029021Y040204D01*
X029069Y040246D01*
X029118Y040284D01*
X029170Y040319D01*
X029224Y040351D01*
X029280Y040380D01*
X029338Y040405D01*
X029397Y040426D01*
X029457Y040444D01*
X029519Y040457D01*
X029581Y040467D01*
X029643Y040473D01*
X029706Y040475D01*
X029769Y040473D01*
X029831Y040467D01*
X029893Y040457D01*
X029955Y040444D01*
X030015Y040426D01*
X030074Y040405D01*
X030132Y040380D01*
X030188Y040351D01*
X030242Y040319D01*
X030294Y040284D01*
X030343Y040246D01*
X030391Y040204D01*
X030435Y040160D01*
X030477Y040112D01*
X030515Y040063D01*
X030550Y040011D01*
X030582Y039957D01*
X030611Y039901D01*
X030636Y039843D01*
X030657Y039784D01*
X030675Y039724D01*
X030688Y039662D01*
X030698Y039600D01*
X030704Y039538D01*
X030706Y039475D01*
X030704Y039412D01*
X030698Y039350D01*
X030688Y039288D01*
X030675Y039226D01*
X030657Y039166D01*
X030636Y039107D01*
X030611Y039049D01*
X030582Y038993D01*
X030550Y038939D01*
X030515Y038887D01*
X030477Y038838D01*
X030435Y038790D01*
X030391Y038746D01*
X030343Y038704D01*
X030294Y038666D01*
X030242Y038631D01*
X030188Y038599D01*
X030132Y038570D01*
X030074Y038545D01*
X030015Y038524D01*
X029955Y038506D01*
X029893Y038493D01*
X029831Y038483D01*
X029769Y038477D01*
X029706Y038475D01*
X029643Y038477D01*
X029581Y038483D01*
X029519Y038493D01*
X029457Y038506D01*
X029397Y038524D01*
X029338Y038545D01*
X029280Y038570D01*
X029224Y038599D01*
X029170Y038631D01*
X029118Y038666D01*
X029069Y038704D01*
X029021Y038746D01*
X028977Y038790D01*
X028935Y038838D01*
X028897Y038887D01*
X028862Y038939D01*
X028830Y038993D01*
X028801Y039049D01*
X028776Y039107D01*
X028755Y039166D01*
X028737Y039226D01*
X028724Y039288D01*
X028714Y039350D01*
X028708Y039412D01*
X028706Y039475D01*
X029056Y039475D02*
X029456Y039475D01*
X030156Y038975D02*
X030256Y038975D01*
X030256Y038875D01*
X030256Y038975D02*
X030256Y039075D01*
X030256Y038975D02*
X030356Y038975D01*
X032956Y039263D02*
X032956Y039663D01*
X033456Y043325D02*
X033456Y045325D01*
X034956Y044925D02*
X031206Y044925D01*
X029856Y043725D02*
X029306Y043725D01*
X028106Y043725D01*
X027806Y043725D01*
X026606Y043725D01*
X026306Y043725D01*
X025106Y043725D01*
X024806Y043725D01*
X023606Y043725D01*
X023306Y043725D01*
X022106Y043725D01*
X021806Y043725D01*
X020606Y043725D01*
X020306Y043725D01*
X019106Y043725D01*
X018806Y043725D01*
X017606Y043725D01*
X017306Y043725D01*
X016106Y043725D01*
X015806Y043725D01*
X014606Y043725D01*
X014056Y043725D01*
X012706Y043725D02*
X008956Y043725D01*
X008956Y044925D01*
X012706Y044925D01*
X010456Y045325D02*
X010456Y043325D01*
X010206Y042100D02*
X010706Y042100D01*
X010956Y041850D01*
X011206Y042100D01*
X011706Y042100D01*
X011956Y041850D01*
X011956Y041350D01*
X011706Y041100D01*
X011206Y041100D01*
X010956Y041350D01*
X010706Y041100D01*
X010206Y041100D01*
X009956Y041350D01*
X009706Y041100D01*
X009206Y041100D01*
X008956Y041350D01*
X008956Y041850D01*
X009206Y042100D01*
X009706Y042100D01*
X009956Y041850D01*
X010206Y042100D01*
X008381Y040788D02*
X008381Y040288D01*
X008381Y039788D01*
X008181Y039788D01*
X008181Y040788D01*
X008381Y040788D01*
X008381Y040288D02*
X008731Y040288D01*
X008731Y039938D02*
X008731Y039788D01*
X008731Y039638D01*
X008731Y039788D02*
X008581Y039788D01*
X008731Y039788D02*
X008881Y039788D01*
X006981Y040288D02*
X006983Y040354D01*
X006989Y040419D01*
X006999Y040484D01*
X007012Y040549D01*
X007030Y040612D01*
X007051Y040675D01*
X007076Y040735D01*
X007105Y040795D01*
X007137Y040852D01*
X007172Y040908D01*
X007211Y040961D01*
X007253Y041012D01*
X007297Y041060D01*
X007345Y041105D01*
X007395Y041148D01*
X007448Y041187D01*
X007503Y041224D01*
X007560Y041257D01*
X007619Y041286D01*
X007679Y041312D01*
X007741Y041334D01*
X007804Y041353D01*
X007868Y041367D01*
X007933Y041378D01*
X007999Y041385D01*
X008065Y041388D01*
X008130Y041387D01*
X008196Y041382D01*
X008261Y041373D01*
X008326Y041360D01*
X008389Y041344D01*
X008452Y041324D01*
X008513Y041299D01*
X008573Y041272D01*
X008631Y041241D01*
X008687Y041206D01*
X008741Y041168D01*
X008792Y041127D01*
X008841Y041083D01*
X008887Y041036D01*
X008931Y040987D01*
X008971Y040935D01*
X009008Y040880D01*
X009042Y040824D01*
X009072Y040765D01*
X009099Y040705D01*
X009122Y040644D01*
X009141Y040581D01*
X009157Y040517D01*
X009169Y040452D01*
X009177Y040387D01*
X009181Y040321D01*
X009181Y040255D01*
X009177Y040189D01*
X009169Y040124D01*
X009157Y040059D01*
X009141Y039995D01*
X009122Y039932D01*
X009099Y039871D01*
X009072Y039811D01*
X009042Y039752D01*
X009008Y039696D01*
X008971Y039641D01*
X008931Y039589D01*
X008887Y039540D01*
X008841Y039493D01*
X008792Y039449D01*
X008741Y039408D01*
X008687Y039370D01*
X008631Y039335D01*
X008573Y039304D01*
X008513Y039277D01*
X008452Y039252D01*
X008389Y039232D01*
X008326Y039216D01*
X008261Y039203D01*
X008196Y039194D01*
X008130Y039189D01*
X008065Y039188D01*
X007999Y039191D01*
X007933Y039198D01*
X007868Y039209D01*
X007804Y039223D01*
X007741Y039242D01*
X007679Y039264D01*
X007619Y039290D01*
X007560Y039319D01*
X007503Y039352D01*
X007448Y039389D01*
X007395Y039428D01*
X007345Y039471D01*
X007297Y039516D01*
X007253Y039564D01*
X007211Y039615D01*
X007172Y039668D01*
X007137Y039724D01*
X007105Y039781D01*
X007076Y039841D01*
X007051Y039901D01*
X007030Y039964D01*
X007012Y040027D01*
X006999Y040092D01*
X006989Y040157D01*
X006983Y040222D01*
X006981Y040288D01*
X007431Y040288D02*
X007831Y040288D01*
X016431Y039475D02*
X016831Y039475D01*
X016081Y039475D02*
X016083Y039538D01*
X016089Y039600D01*
X016099Y039662D01*
X016112Y039724D01*
X016130Y039784D01*
X016151Y039843D01*
X016176Y039901D01*
X016205Y039957D01*
X016237Y040011D01*
X016272Y040063D01*
X016310Y040112D01*
X016352Y040160D01*
X016396Y040204D01*
X016444Y040246D01*
X016493Y040284D01*
X016545Y040319D01*
X016599Y040351D01*
X016655Y040380D01*
X016713Y040405D01*
X016772Y040426D01*
X016832Y040444D01*
X016894Y040457D01*
X016956Y040467D01*
X017018Y040473D01*
X017081Y040475D01*
X017144Y040473D01*
X017206Y040467D01*
X017268Y040457D01*
X017330Y040444D01*
X017390Y040426D01*
X017449Y040405D01*
X017507Y040380D01*
X017563Y040351D01*
X017617Y040319D01*
X017669Y040284D01*
X017718Y040246D01*
X017766Y040204D01*
X017810Y040160D01*
X017852Y040112D01*
X017890Y040063D01*
X017925Y040011D01*
X017957Y039957D01*
X017986Y039901D01*
X018011Y039843D01*
X018032Y039784D01*
X018050Y039724D01*
X018063Y039662D01*
X018073Y039600D01*
X018079Y039538D01*
X018081Y039475D01*
X018079Y039412D01*
X018073Y039350D01*
X018063Y039288D01*
X018050Y039226D01*
X018032Y039166D01*
X018011Y039107D01*
X017986Y039049D01*
X017957Y038993D01*
X017925Y038939D01*
X017890Y038887D01*
X017852Y038838D01*
X017810Y038790D01*
X017766Y038746D01*
X017718Y038704D01*
X017669Y038666D01*
X017617Y038631D01*
X017563Y038599D01*
X017507Y038570D01*
X017449Y038545D01*
X017390Y038524D01*
X017330Y038506D01*
X017268Y038493D01*
X017206Y038483D01*
X017144Y038477D01*
X017081Y038475D01*
X017018Y038477D01*
X016956Y038483D01*
X016894Y038493D01*
X016832Y038506D01*
X016772Y038524D01*
X016713Y038545D01*
X016655Y038570D01*
X016599Y038599D01*
X016545Y038631D01*
X016493Y038666D01*
X016444Y038704D01*
X016396Y038746D01*
X016352Y038790D01*
X016310Y038838D01*
X016272Y038887D01*
X016237Y038939D01*
X016205Y038993D01*
X016176Y039049D01*
X016151Y039107D01*
X016130Y039166D01*
X016112Y039226D01*
X016099Y039288D01*
X016089Y039350D01*
X016083Y039412D01*
X016081Y039475D01*
X017181Y038975D02*
X017381Y038975D01*
X017381Y039475D01*
X017381Y039975D01*
X017181Y039975D01*
X017181Y038975D01*
X017531Y038975D02*
X017631Y038975D01*
X017631Y038875D01*
X017631Y038975D02*
X017631Y039075D01*
X017631Y038975D02*
X017731Y038975D01*
X017731Y039475D02*
X017381Y039475D01*
X018806Y040100D02*
X019206Y040100D01*
X018356Y040100D02*
X018358Y040166D01*
X018364Y040231D01*
X018374Y040296D01*
X018387Y040361D01*
X018405Y040424D01*
X018426Y040487D01*
X018451Y040547D01*
X018480Y040607D01*
X018512Y040664D01*
X018547Y040720D01*
X018586Y040773D01*
X018628Y040824D01*
X018672Y040872D01*
X018720Y040917D01*
X018770Y040960D01*
X018823Y040999D01*
X018878Y041036D01*
X018935Y041069D01*
X018994Y041098D01*
X019054Y041124D01*
X019116Y041146D01*
X019179Y041165D01*
X019243Y041179D01*
X019308Y041190D01*
X019374Y041197D01*
X019440Y041200D01*
X019505Y041199D01*
X019571Y041194D01*
X019636Y041185D01*
X019701Y041172D01*
X019764Y041156D01*
X019827Y041136D01*
X019888Y041111D01*
X019948Y041084D01*
X020006Y041053D01*
X020062Y041018D01*
X020116Y040980D01*
X020167Y040939D01*
X020216Y040895D01*
X020262Y040848D01*
X020306Y040799D01*
X020346Y040747D01*
X020383Y040692D01*
X020417Y040636D01*
X020447Y040577D01*
X020474Y040517D01*
X020497Y040456D01*
X020516Y040393D01*
X020532Y040329D01*
X020544Y040264D01*
X020552Y040199D01*
X020556Y040133D01*
X020556Y040067D01*
X020552Y040001D01*
X020544Y039936D01*
X020532Y039871D01*
X020516Y039807D01*
X020497Y039744D01*
X020474Y039683D01*
X020447Y039623D01*
X020417Y039564D01*
X020383Y039508D01*
X020346Y039453D01*
X020306Y039401D01*
X020262Y039352D01*
X020216Y039305D01*
X020167Y039261D01*
X020116Y039220D01*
X020062Y039182D01*
X020006Y039147D01*
X019948Y039116D01*
X019888Y039089D01*
X019827Y039064D01*
X019764Y039044D01*
X019701Y039028D01*
X019636Y039015D01*
X019571Y039006D01*
X019505Y039001D01*
X019440Y039000D01*
X019374Y039003D01*
X019308Y039010D01*
X019243Y039021D01*
X019179Y039035D01*
X019116Y039054D01*
X019054Y039076D01*
X018994Y039102D01*
X018935Y039131D01*
X018878Y039164D01*
X018823Y039201D01*
X018770Y039240D01*
X018720Y039283D01*
X018672Y039328D01*
X018628Y039376D01*
X018586Y039427D01*
X018547Y039480D01*
X018512Y039536D01*
X018480Y039593D01*
X018451Y039653D01*
X018426Y039713D01*
X018405Y039776D01*
X018387Y039839D01*
X018374Y039904D01*
X018364Y039969D01*
X018358Y040034D01*
X018356Y040100D01*
X019556Y039600D02*
X019756Y039600D01*
X019756Y040100D01*
X019756Y040600D01*
X019556Y040600D01*
X019556Y039600D01*
X019956Y039600D02*
X020106Y039600D01*
X020106Y039450D01*
X020106Y039600D02*
X020106Y039750D01*
X020106Y039600D02*
X020256Y039600D01*
X020106Y040100D02*
X019756Y040100D01*
X021556Y040100D02*
X021956Y040100D01*
X021106Y040100D02*
X021108Y040166D01*
X021114Y040231D01*
X021124Y040296D01*
X021137Y040361D01*
X021155Y040424D01*
X021176Y040487D01*
X021201Y040547D01*
X021230Y040607D01*
X021262Y040664D01*
X021297Y040720D01*
X021336Y040773D01*
X021378Y040824D01*
X021422Y040872D01*
X021470Y040917D01*
X021520Y040960D01*
X021573Y040999D01*
X021628Y041036D01*
X021685Y041069D01*
X021744Y041098D01*
X021804Y041124D01*
X021866Y041146D01*
X021929Y041165D01*
X021993Y041179D01*
X022058Y041190D01*
X022124Y041197D01*
X022190Y041200D01*
X022255Y041199D01*
X022321Y041194D01*
X022386Y041185D01*
X022451Y041172D01*
X022514Y041156D01*
X022577Y041136D01*
X022638Y041111D01*
X022698Y041084D01*
X022756Y041053D01*
X022812Y041018D01*
X022866Y040980D01*
X022917Y040939D01*
X022966Y040895D01*
X023012Y040848D01*
X023056Y040799D01*
X023096Y040747D01*
X023133Y040692D01*
X023167Y040636D01*
X023197Y040577D01*
X023224Y040517D01*
X023247Y040456D01*
X023266Y040393D01*
X023282Y040329D01*
X023294Y040264D01*
X023302Y040199D01*
X023306Y040133D01*
X023306Y040067D01*
X023302Y040001D01*
X023294Y039936D01*
X023282Y039871D01*
X023266Y039807D01*
X023247Y039744D01*
X023224Y039683D01*
X023197Y039623D01*
X023167Y039564D01*
X023133Y039508D01*
X023096Y039453D01*
X023056Y039401D01*
X023012Y039352D01*
X022966Y039305D01*
X022917Y039261D01*
X022866Y039220D01*
X022812Y039182D01*
X022756Y039147D01*
X022698Y039116D01*
X022638Y039089D01*
X022577Y039064D01*
X022514Y039044D01*
X022451Y039028D01*
X022386Y039015D01*
X022321Y039006D01*
X022255Y039001D01*
X022190Y039000D01*
X022124Y039003D01*
X022058Y039010D01*
X021993Y039021D01*
X021929Y039035D01*
X021866Y039054D01*
X021804Y039076D01*
X021744Y039102D01*
X021685Y039131D01*
X021628Y039164D01*
X021573Y039201D01*
X021520Y039240D01*
X021470Y039283D01*
X021422Y039328D01*
X021378Y039376D01*
X021336Y039427D01*
X021297Y039480D01*
X021262Y039536D01*
X021230Y039593D01*
X021201Y039653D01*
X021176Y039713D01*
X021155Y039776D01*
X021137Y039839D01*
X021124Y039904D01*
X021114Y039969D01*
X021108Y040034D01*
X021106Y040100D01*
X022306Y039600D02*
X022506Y039600D01*
X022506Y040100D01*
X022506Y040600D01*
X022306Y040600D01*
X022306Y039600D01*
X022706Y039600D02*
X022856Y039600D01*
X022856Y039450D01*
X022856Y039600D02*
X022856Y039750D01*
X022856Y039600D02*
X023006Y039600D01*
X022856Y040100D02*
X022506Y040100D01*
X024556Y040100D02*
X024956Y040100D01*
X024106Y040100D02*
X024108Y040166D01*
X024114Y040231D01*
X024124Y040296D01*
X024137Y040361D01*
X024155Y040424D01*
X024176Y040487D01*
X024201Y040547D01*
X024230Y040607D01*
X024262Y040664D01*
X024297Y040720D01*
X024336Y040773D01*
X024378Y040824D01*
X024422Y040872D01*
X024470Y040917D01*
X024520Y040960D01*
X024573Y040999D01*
X024628Y041036D01*
X024685Y041069D01*
X024744Y041098D01*
X024804Y041124D01*
X024866Y041146D01*
X024929Y041165D01*
X024993Y041179D01*
X025058Y041190D01*
X025124Y041197D01*
X025190Y041200D01*
X025255Y041199D01*
X025321Y041194D01*
X025386Y041185D01*
X025451Y041172D01*
X025514Y041156D01*
X025577Y041136D01*
X025638Y041111D01*
X025698Y041084D01*
X025756Y041053D01*
X025812Y041018D01*
X025866Y040980D01*
X025917Y040939D01*
X025966Y040895D01*
X026012Y040848D01*
X026056Y040799D01*
X026096Y040747D01*
X026133Y040692D01*
X026167Y040636D01*
X026197Y040577D01*
X026224Y040517D01*
X026247Y040456D01*
X026266Y040393D01*
X026282Y040329D01*
X026294Y040264D01*
X026302Y040199D01*
X026306Y040133D01*
X026306Y040067D01*
X026302Y040001D01*
X026294Y039936D01*
X026282Y039871D01*
X026266Y039807D01*
X026247Y039744D01*
X026224Y039683D01*
X026197Y039623D01*
X026167Y039564D01*
X026133Y039508D01*
X026096Y039453D01*
X026056Y039401D01*
X026012Y039352D01*
X025966Y039305D01*
X025917Y039261D01*
X025866Y039220D01*
X025812Y039182D01*
X025756Y039147D01*
X025698Y039116D01*
X025638Y039089D01*
X025577Y039064D01*
X025514Y039044D01*
X025451Y039028D01*
X025386Y039015D01*
X025321Y039006D01*
X025255Y039001D01*
X025190Y039000D01*
X025124Y039003D01*
X025058Y039010D01*
X024993Y039021D01*
X024929Y039035D01*
X024866Y039054D01*
X024804Y039076D01*
X024744Y039102D01*
X024685Y039131D01*
X024628Y039164D01*
X024573Y039201D01*
X024520Y039240D01*
X024470Y039283D01*
X024422Y039328D01*
X024378Y039376D01*
X024336Y039427D01*
X024297Y039480D01*
X024262Y039536D01*
X024230Y039593D01*
X024201Y039653D01*
X024176Y039713D01*
X024155Y039776D01*
X024137Y039839D01*
X024124Y039904D01*
X024114Y039969D01*
X024108Y040034D01*
X024106Y040100D01*
X025306Y039600D02*
X025506Y039600D01*
X025506Y040100D01*
X025506Y040600D01*
X025306Y040600D01*
X025306Y039600D01*
X025706Y039600D02*
X025856Y039600D01*
X025856Y039450D01*
X025856Y039600D02*
X025856Y039750D01*
X025856Y039600D02*
X026006Y039600D01*
X025856Y040100D02*
X025506Y040100D01*
X013956Y020975D02*
X013956Y020595D01*
X013956Y019855D02*
X013956Y019475D01*
X015106Y018475D02*
X015104Y018445D01*
X015099Y018415D01*
X015090Y018386D01*
X015077Y018359D01*
X015062Y018333D01*
X015043Y018309D01*
X015022Y018288D01*
X014998Y018269D01*
X014972Y018254D01*
X014945Y018241D01*
X014916Y018232D01*
X014886Y018227D01*
X014856Y018225D01*
X009956Y018225D01*
X009206Y017887D02*
X009206Y017564D01*
X008706Y017564D02*
X008706Y017887D01*
X009143Y012733D02*
X009898Y012733D01*
X009898Y012093D02*
X009143Y012093D01*
X022381Y012225D02*
X022431Y012175D01*
X022431Y010275D01*
X022381Y010225D01*
X022381Y010075D01*
X022383Y010058D01*
X022387Y010041D01*
X022394Y010025D01*
X022404Y010011D01*
X022417Y009998D01*
X022431Y009988D01*
X022447Y009981D01*
X022464Y009977D01*
X022481Y009975D01*
X023181Y009975D01*
X023198Y009977D01*
X023215Y009981D01*
X023231Y009988D01*
X023245Y009998D01*
X023258Y010011D01*
X023268Y010025D01*
X023275Y010041D01*
X023279Y010058D01*
X023281Y010075D01*
X023281Y010225D01*
X023231Y010275D01*
X023231Y012175D01*
X023281Y012225D01*
X023281Y012375D01*
X023279Y012392D01*
X023275Y012409D01*
X023268Y012425D01*
X023258Y012439D01*
X023245Y012452D01*
X023231Y012462D01*
X023215Y012469D01*
X023198Y012473D01*
X023181Y012475D01*
X022481Y012475D01*
X022464Y012473D01*
X022447Y012469D01*
X022431Y012462D01*
X022417Y012452D01*
X022404Y012439D01*
X022394Y012425D01*
X022387Y012409D01*
X022383Y012392D01*
X022381Y012375D01*
X022381Y012225D01*
X022022Y007354D02*
X022024Y007395D01*
X022030Y007436D01*
X022040Y007476D01*
X022053Y007515D01*
X022070Y007553D01*
X022091Y007589D01*
X022115Y007622D01*
X022142Y007653D01*
X022172Y007682D01*
X022204Y007708D01*
X022239Y007730D01*
X022276Y007749D01*
X022314Y007764D01*
X022354Y007776D01*
X022394Y007784D01*
X022435Y007788D01*
X022477Y007788D01*
X022518Y007784D01*
X022558Y007776D01*
X022598Y007764D01*
X022636Y007749D01*
X022673Y007730D01*
X022708Y007708D01*
X022740Y007682D01*
X022770Y007653D01*
X022797Y007622D01*
X022821Y007589D01*
X022842Y007553D01*
X022859Y007515D01*
X022872Y007476D01*
X022882Y007436D01*
X022888Y007395D01*
X022890Y007354D01*
X022888Y007313D01*
X022882Y007272D01*
X022872Y007232D01*
X022859Y007193D01*
X022842Y007155D01*
X022821Y007119D01*
X022797Y007086D01*
X022770Y007055D01*
X022740Y007026D01*
X022708Y007000D01*
X022673Y006978D01*
X022636Y006959D01*
X022598Y006944D01*
X022558Y006932D01*
X022518Y006924D01*
X022477Y006920D01*
X022435Y006920D01*
X022394Y006924D01*
X022354Y006932D01*
X022314Y006944D01*
X022276Y006959D01*
X022239Y006978D01*
X022204Y007000D01*
X022172Y007026D01*
X022142Y007055D01*
X022115Y007086D01*
X022091Y007119D01*
X022070Y007155D01*
X022053Y007193D01*
X022040Y007232D01*
X022030Y007272D01*
X022024Y007313D01*
X022022Y007354D01*
X024022Y007354D02*
X024024Y007395D01*
X024030Y007436D01*
X024040Y007476D01*
X024053Y007515D01*
X024070Y007553D01*
X024091Y007589D01*
X024115Y007622D01*
X024142Y007653D01*
X024172Y007682D01*
X024204Y007708D01*
X024239Y007730D01*
X024276Y007749D01*
X024314Y007764D01*
X024354Y007776D01*
X024394Y007784D01*
X024435Y007788D01*
X024477Y007788D01*
X024518Y007784D01*
X024558Y007776D01*
X024598Y007764D01*
X024636Y007749D01*
X024673Y007730D01*
X024708Y007708D01*
X024740Y007682D01*
X024770Y007653D01*
X024797Y007622D01*
X024821Y007589D01*
X024842Y007553D01*
X024859Y007515D01*
X024872Y007476D01*
X024882Y007436D01*
X024888Y007395D01*
X024890Y007354D01*
X024888Y007313D01*
X024882Y007272D01*
X024872Y007232D01*
X024859Y007193D01*
X024842Y007155D01*
X024821Y007119D01*
X024797Y007086D01*
X024770Y007055D01*
X024740Y007026D01*
X024708Y007000D01*
X024673Y006978D01*
X024636Y006959D01*
X024598Y006944D01*
X024558Y006932D01*
X024518Y006924D01*
X024477Y006920D01*
X024435Y006920D01*
X024394Y006924D01*
X024354Y006932D01*
X024314Y006944D01*
X024276Y006959D01*
X024239Y006978D01*
X024204Y007000D01*
X024172Y007026D01*
X024142Y007055D01*
X024115Y007086D01*
X024091Y007119D01*
X024070Y007155D01*
X024053Y007193D01*
X024040Y007232D01*
X024030Y007272D01*
X024024Y007313D01*
X024022Y007354D01*
X025897Y007354D02*
X025899Y007395D01*
X025905Y007436D01*
X025915Y007476D01*
X025928Y007515D01*
X025945Y007553D01*
X025966Y007589D01*
X025990Y007622D01*
X026017Y007653D01*
X026047Y007682D01*
X026079Y007708D01*
X026114Y007730D01*
X026151Y007749D01*
X026189Y007764D01*
X026229Y007776D01*
X026269Y007784D01*
X026310Y007788D01*
X026352Y007788D01*
X026393Y007784D01*
X026433Y007776D01*
X026473Y007764D01*
X026511Y007749D01*
X026548Y007730D01*
X026583Y007708D01*
X026615Y007682D01*
X026645Y007653D01*
X026672Y007622D01*
X026696Y007589D01*
X026717Y007553D01*
X026734Y007515D01*
X026747Y007476D01*
X026757Y007436D01*
X026763Y007395D01*
X026765Y007354D01*
X026763Y007313D01*
X026757Y007272D01*
X026747Y007232D01*
X026734Y007193D01*
X026717Y007155D01*
X026696Y007119D01*
X026672Y007086D01*
X026645Y007055D01*
X026615Y007026D01*
X026583Y007000D01*
X026548Y006978D01*
X026511Y006959D01*
X026473Y006944D01*
X026433Y006932D01*
X026393Y006924D01*
X026352Y006920D01*
X026310Y006920D01*
X026269Y006924D01*
X026229Y006932D01*
X026189Y006944D01*
X026151Y006959D01*
X026114Y006978D01*
X026079Y007000D01*
X026047Y007026D01*
X026017Y007055D01*
X025990Y007086D01*
X025966Y007119D01*
X025945Y007155D01*
X025928Y007193D01*
X025915Y007232D01*
X025905Y007272D01*
X025899Y007313D01*
X025897Y007354D01*
X027897Y007354D02*
X027899Y007395D01*
X027905Y007436D01*
X027915Y007476D01*
X027928Y007515D01*
X027945Y007553D01*
X027966Y007589D01*
X027990Y007622D01*
X028017Y007653D01*
X028047Y007682D01*
X028079Y007708D01*
X028114Y007730D01*
X028151Y007749D01*
X028189Y007764D01*
X028229Y007776D01*
X028269Y007784D01*
X028310Y007788D01*
X028352Y007788D01*
X028393Y007784D01*
X028433Y007776D01*
X028473Y007764D01*
X028511Y007749D01*
X028548Y007730D01*
X028583Y007708D01*
X028615Y007682D01*
X028645Y007653D01*
X028672Y007622D01*
X028696Y007589D01*
X028717Y007553D01*
X028734Y007515D01*
X028747Y007476D01*
X028757Y007436D01*
X028763Y007395D01*
X028765Y007354D01*
X028763Y007313D01*
X028757Y007272D01*
X028747Y007232D01*
X028734Y007193D01*
X028717Y007155D01*
X028696Y007119D01*
X028672Y007086D01*
X028645Y007055D01*
X028615Y007026D01*
X028583Y007000D01*
X028548Y006978D01*
X028511Y006959D01*
X028473Y006944D01*
X028433Y006932D01*
X028393Y006924D01*
X028352Y006920D01*
X028310Y006920D01*
X028269Y006924D01*
X028229Y006932D01*
X028189Y006944D01*
X028151Y006959D01*
X028114Y006978D01*
X028079Y007000D01*
X028047Y007026D01*
X028017Y007055D01*
X027990Y007086D01*
X027966Y007119D01*
X027945Y007155D01*
X027928Y007193D01*
X027915Y007232D01*
X027905Y007272D01*
X027899Y007313D01*
X027897Y007354D01*
X029361Y007505D02*
X029361Y008146D01*
X029681Y008146D01*
X029788Y008039D01*
X029788Y007612D01*
X029681Y007505D01*
X029361Y007505D01*
X030006Y007505D02*
X030006Y008146D01*
X030326Y008146D01*
X030433Y008039D01*
X030433Y007612D01*
X030326Y007505D01*
X030006Y007505D01*
X030650Y007505D02*
X031077Y007933D01*
X031077Y008039D01*
X030970Y008146D01*
X030757Y008146D01*
X030650Y008039D01*
X030650Y007505D02*
X031077Y007505D01*
X031736Y007505D02*
X031736Y008146D01*
X032163Y008146D01*
X032381Y008146D02*
X032701Y008146D01*
X032808Y008039D01*
X032808Y007826D01*
X032701Y007719D01*
X032381Y007719D01*
X032381Y007505D02*
X032381Y008146D01*
X031949Y007826D02*
X031736Y007826D01*
X031736Y007505D02*
X032163Y007505D01*
X033025Y007505D02*
X033025Y008146D01*
X033239Y007933D01*
X033452Y008146D01*
X033452Y007505D01*
X033670Y007505D02*
X033670Y007612D01*
X034097Y008039D01*
X034097Y008146D01*
X033670Y008146D01*
X034314Y007933D02*
X034528Y008146D01*
X034528Y007505D01*
X034741Y007505D02*
X034314Y007505D01*
X034959Y007505D02*
X035386Y007933D01*
X035386Y008039D01*
X035279Y008146D01*
X035065Y008146D01*
X034959Y008039D01*
X034959Y007505D02*
X035386Y007505D01*
X035603Y007612D02*
X035603Y007719D01*
X035710Y007826D01*
X035924Y007826D01*
X036030Y007719D01*
X036030Y007612D01*
X035924Y007505D01*
X035710Y007505D01*
X035603Y007612D01*
X035710Y007826D02*
X035603Y007933D01*
X035603Y008039D01*
X035710Y008146D01*
X035924Y008146D01*
X036030Y008039D01*
X036030Y007933D01*
X035924Y007826D01*
X036248Y007933D02*
X036355Y007826D01*
X036568Y007826D01*
X036675Y007719D01*
X036675Y007612D01*
X036568Y007505D01*
X036355Y007505D01*
X036248Y007612D01*
X036248Y007933D02*
X036248Y008039D01*
X036355Y008146D01*
X036568Y008146D01*
X036675Y008039D01*
X036892Y008146D02*
X036892Y007505D01*
X037319Y007505D01*
X037537Y007612D02*
X037537Y008039D01*
X037644Y008146D01*
X037857Y008146D01*
X037964Y008039D01*
X038181Y008039D02*
X038181Y007933D01*
X038288Y007826D01*
X038502Y007826D01*
X038608Y007719D01*
X038608Y007612D01*
X038502Y007505D01*
X038288Y007505D01*
X038181Y007612D01*
X038181Y007719D01*
X038288Y007826D01*
X038502Y007826D02*
X038608Y007933D01*
X038608Y008039D01*
X038502Y008146D01*
X038288Y008146D01*
X038181Y008039D01*
X037964Y007612D02*
X037857Y007505D01*
X037644Y007505D01*
X037537Y007612D01*
X038826Y007826D02*
X039253Y007826D01*
X039471Y007826D02*
X039898Y007826D01*
X040115Y007933D02*
X040329Y008146D01*
X040329Y007505D01*
X040542Y007505D02*
X040115Y007505D01*
X040760Y007612D02*
X040866Y007505D01*
X041080Y007505D01*
X041187Y007612D01*
X041187Y007826D01*
X041080Y007933D01*
X040973Y007933D01*
X040760Y007826D01*
X040760Y008146D01*
X041187Y008146D01*
X039146Y008146D02*
X039146Y007505D01*
X038826Y007826D02*
X039146Y008146D01*
X059777Y004421D02*
X059777Y003780D01*
X060098Y003780D01*
X060204Y003887D01*
X060204Y004314D01*
X060098Y004421D01*
X059777Y004421D01*
X062288Y003780D02*
X062715Y003780D01*
D18*
X045990Y004871D02*
X045884Y004765D01*
X045674Y004765D01*
X045569Y004871D01*
X045569Y005081D01*
X045884Y005081D01*
X045990Y004976D01*
X045990Y004871D01*
X045779Y005291D02*
X045569Y005081D01*
X045345Y005081D02*
X045345Y004871D01*
X045240Y004765D01*
X045030Y004765D01*
X044925Y004871D01*
X044925Y005081D02*
X045135Y005186D01*
X045240Y005186D01*
X045345Y005081D01*
X045345Y005396D02*
X044925Y005396D01*
X044925Y005081D01*
X044700Y005186D02*
X044700Y005291D01*
X044595Y005396D01*
X044385Y005396D01*
X044280Y005291D01*
X044056Y005291D02*
X043951Y005396D01*
X043741Y005396D01*
X043636Y005291D01*
X043411Y005396D02*
X043201Y005291D01*
X042991Y005081D01*
X043306Y005081D01*
X043411Y004976D01*
X043411Y004871D01*
X043306Y004765D01*
X043096Y004765D01*
X042991Y004871D01*
X042991Y005081D01*
X043636Y004765D02*
X044056Y005186D01*
X044056Y005291D01*
X044056Y004765D02*
X043636Y004765D01*
X044280Y004765D02*
X044700Y005186D01*
X044700Y004765D02*
X044280Y004765D01*
X045779Y005291D02*
X045990Y005396D01*
X042200Y005391D02*
X041990Y005286D01*
X041780Y005076D01*
X042095Y005076D01*
X042200Y004971D01*
X042200Y004866D01*
X042095Y004760D01*
X041885Y004760D01*
X041780Y004866D01*
X041780Y005076D01*
X041556Y005286D02*
X041451Y005391D01*
X041136Y005391D01*
X041136Y004760D01*
X041451Y004760D01*
X041556Y004866D01*
X041556Y005286D01*
X040911Y005286D02*
X040806Y005391D01*
X040491Y005391D01*
X040491Y004760D01*
X040806Y004760D01*
X040911Y004866D01*
X040911Y005286D01*
X040880Y024440D02*
X040880Y025071D01*
X040670Y024861D01*
X040460Y025071D01*
X040460Y024440D01*
X040025Y024440D02*
X040025Y025071D01*
X039815Y025071D02*
X040235Y025071D01*
X039591Y024861D02*
X039591Y024440D01*
X039591Y024756D02*
X039170Y024756D01*
X039170Y024861D02*
X039381Y025071D01*
X039591Y024861D01*
X039170Y024861D02*
X039170Y024440D01*
X041104Y024440D02*
X041104Y025071D01*
X041524Y025071D01*
X041557Y025310D02*
X041873Y025310D01*
X041978Y025416D01*
X041978Y025836D01*
X041873Y025941D01*
X041557Y025941D01*
X041557Y025310D01*
X041854Y025071D02*
X041749Y024966D01*
X041749Y024546D01*
X041854Y024440D01*
X042064Y024440D01*
X042169Y024546D01*
X042169Y024756D01*
X041959Y024756D01*
X042169Y024966D02*
X042064Y025071D01*
X041854Y025071D01*
X042202Y025310D02*
X042202Y025941D01*
X042517Y025941D01*
X042622Y025836D01*
X042622Y025416D01*
X042517Y025310D01*
X042202Y025310D01*
X042603Y025071D02*
X042814Y024861D01*
X042814Y024440D01*
X043038Y024546D02*
X043143Y024440D01*
X043353Y024440D01*
X043458Y024546D01*
X043458Y024651D01*
X043353Y024756D01*
X043248Y024756D01*
X043353Y024756D02*
X043458Y024861D01*
X043458Y024966D01*
X043353Y025071D01*
X043143Y025071D01*
X043038Y024966D01*
X042814Y024756D02*
X042393Y024756D01*
X042393Y024861D02*
X042603Y025071D01*
X042393Y024861D02*
X042393Y024440D01*
X041524Y024440D02*
X041104Y024440D01*
X041104Y024756D02*
X041314Y024756D01*
X042846Y025310D02*
X042846Y025416D01*
X043267Y025836D01*
X043267Y025941D01*
X042846Y025941D01*
X043787Y025071D02*
X043682Y024966D01*
X043787Y025071D02*
X043998Y025071D01*
X044103Y024966D01*
X044103Y024861D01*
X043682Y024440D01*
X044103Y024440D01*
X044327Y024756D02*
X044747Y024756D01*
X044971Y024651D02*
X045287Y024651D01*
X045392Y024756D01*
X045392Y024966D01*
X045287Y025071D01*
X044971Y025071D01*
X044971Y024440D01*
X025196Y045060D02*
X025196Y045691D01*
X025617Y045691D01*
X025407Y045376D02*
X025196Y045376D01*
X024972Y045376D02*
X024552Y045376D01*
X024328Y045691D02*
X023907Y045691D01*
X024117Y045691D02*
X024117Y045060D01*
X023683Y045060D02*
X023473Y045271D01*
X023578Y045271D02*
X023263Y045271D01*
X023263Y045060D02*
X023263Y045691D01*
X023578Y045691D01*
X023683Y045586D01*
X023683Y045376D01*
X023578Y045271D01*
X023039Y045376D02*
X022618Y045376D01*
X022618Y045481D02*
X022828Y045691D01*
X023039Y045481D01*
X023039Y045060D01*
X022618Y045060D02*
X022618Y045481D01*
X022394Y045586D02*
X022289Y045691D01*
X022079Y045691D01*
X021974Y045586D01*
X021974Y045166D01*
X022079Y045060D01*
X022289Y045060D01*
X022394Y045166D01*
X021749Y045166D02*
X021644Y045060D01*
X021434Y045060D01*
X021329Y045166D01*
X021434Y045376D02*
X021329Y045481D01*
X021329Y045586D01*
X021434Y045691D01*
X021644Y045691D01*
X021749Y045586D01*
X021644Y045376D02*
X021749Y045271D01*
X021749Y045166D01*
X021644Y045376D02*
X021434Y045376D01*
X014236Y039768D02*
X014236Y039558D01*
X014131Y039453D01*
X013815Y039453D01*
X013815Y039243D02*
X013815Y039874D01*
X014131Y039874D01*
X014236Y039768D01*
X013591Y039874D02*
X013171Y039874D01*
X013171Y039558D01*
X013381Y039663D01*
X013486Y039663D01*
X013591Y039558D01*
X013591Y039348D01*
X013486Y039243D01*
X013276Y039243D01*
X013171Y039348D01*
X012947Y039558D02*
X012526Y039558D01*
X012841Y039874D01*
X012841Y039243D01*
X012302Y039348D02*
X012302Y039453D01*
X012197Y039558D01*
X011882Y039558D01*
X011882Y039348D01*
X011987Y039243D01*
X012197Y039243D01*
X012302Y039348D01*
X012092Y039768D02*
X011882Y039558D01*
X012092Y039768D02*
X012302Y039874D01*
X012075Y040045D02*
X011655Y040045D01*
X011865Y040045D02*
X011865Y040676D01*
X011655Y040466D01*
X011431Y040466D02*
X011221Y040676D01*
X011011Y040466D01*
X011011Y040045D01*
X010786Y040151D02*
X010786Y040571D01*
X010681Y040676D01*
X010366Y040676D01*
X010366Y040045D01*
X010681Y040045D01*
X010786Y040151D01*
X010803Y039874D02*
X010593Y039663D01*
X010593Y039243D01*
X010368Y039243D02*
X009948Y039874D01*
X009724Y039768D02*
X009619Y039874D01*
X009409Y039874D01*
X009303Y039768D01*
X009303Y039348D01*
X009409Y039243D01*
X009619Y039243D01*
X009724Y039348D01*
X009948Y039243D02*
X010368Y039874D01*
X010593Y039558D02*
X011013Y039558D01*
X011013Y039663D02*
X011013Y039243D01*
X011237Y039243D02*
X011657Y039243D01*
X011447Y039243D02*
X011447Y039874D01*
X011237Y039663D01*
X011013Y039663D02*
X010803Y039874D01*
X011011Y040361D02*
X011431Y040361D01*
X011431Y040466D02*
X011431Y040045D01*
X031616Y045991D02*
X031721Y045885D01*
X031931Y045885D01*
X032036Y045991D01*
X032036Y046096D01*
X031931Y046201D01*
X031721Y046201D01*
X031616Y046306D01*
X031616Y046411D01*
X031721Y046516D01*
X031931Y046516D01*
X032036Y046411D01*
X032261Y046411D02*
X032261Y045991D01*
X032366Y045885D01*
X032576Y045885D01*
X032681Y045991D01*
X032905Y045885D02*
X032905Y046306D01*
X033115Y046516D01*
X033325Y046306D01*
X033325Y045885D01*
X033550Y045885D02*
X033550Y046516D01*
X033865Y046516D01*
X033970Y046411D01*
X033970Y046201D01*
X033865Y046096D01*
X033550Y046096D01*
X033760Y046096D02*
X033970Y045885D01*
X034404Y045885D02*
X034404Y046516D01*
X034194Y046516D02*
X034615Y046516D01*
X034839Y046201D02*
X035259Y046201D01*
X035483Y046201D02*
X035693Y046201D01*
X035483Y046516D02*
X035483Y045885D01*
X035483Y046516D02*
X035904Y046516D01*
X033325Y046201D02*
X032905Y046201D01*
X032681Y046411D02*
X032576Y046516D01*
X032366Y046516D01*
X032261Y046411D01*
X032261Y046960D02*
X032681Y047381D01*
X032681Y047486D01*
X032576Y047591D01*
X032366Y047591D01*
X032261Y047486D01*
X032036Y047591D02*
X031616Y046960D01*
X032036Y046960D02*
X031616Y047591D01*
X032261Y046960D02*
X032681Y046960D01*
D19*
X017956Y030288D02*
X017956Y026288D01*
X009956Y022225D02*
X009956Y018225D01*
D20*
X013456Y019855D02*
X013956Y019855D01*
X014456Y019855D01*
X014456Y020105D02*
X014456Y020355D01*
X013456Y020355D01*
X013456Y020105D01*
X014456Y020105D01*
X014456Y020595D02*
X013956Y020595D01*
X013456Y020595D01*
X021456Y027918D02*
X021956Y027918D01*
X022456Y027918D01*
X022456Y028168D02*
X022456Y028418D01*
X021456Y028418D01*
X021456Y028168D01*
X022456Y028168D01*
X022456Y028658D02*
X021956Y028658D01*
X021456Y028658D01*
D21*
X008216Y033085D02*
X008216Y033375D01*
X007696Y033375D02*
X007696Y033075D01*
X007484Y034245D02*
X007561Y034322D01*
X007561Y034476D01*
X007484Y034552D01*
X007561Y034706D02*
X007254Y035013D01*
X007177Y035013D01*
X007101Y034936D01*
X007101Y034783D01*
X007177Y034706D01*
X007177Y034552D02*
X007101Y034476D01*
X007101Y034322D01*
X007177Y034245D01*
X007484Y034245D01*
X007561Y034706D02*
X007561Y035013D01*
X007484Y035166D02*
X007177Y035473D01*
X007484Y035473D01*
X007561Y035396D01*
X007561Y035243D01*
X007484Y035166D01*
X007177Y035166D01*
X007101Y035243D01*
X007101Y035396D01*
X007177Y035473D01*
X007101Y035627D02*
X007101Y035857D01*
X007177Y035934D01*
X007331Y035934D01*
X007408Y035857D01*
X007408Y035627D01*
X007561Y035627D02*
X007101Y035627D01*
X007851Y035138D02*
X007927Y035138D01*
X008234Y034831D01*
X008311Y034831D01*
X008311Y034601D02*
X007851Y034601D01*
X008081Y034370D01*
X008081Y034677D01*
X007851Y034831D02*
X007851Y035138D01*
X007828Y018393D02*
X007828Y018163D01*
X007982Y018240D01*
X008058Y018240D01*
X008135Y018163D01*
X008135Y018010D01*
X008058Y017933D01*
X007905Y017933D01*
X007828Y018010D01*
X007675Y017933D02*
X007368Y017933D01*
X007675Y018240D01*
X007675Y018317D01*
X007598Y018393D01*
X007444Y018393D01*
X007368Y018317D01*
X007214Y018317D02*
X007214Y018163D01*
X007137Y018086D01*
X006907Y018086D01*
X006907Y017933D02*
X006907Y018393D01*
X007137Y018393D01*
X007214Y018317D01*
X007061Y018086D02*
X007214Y017933D01*
X007061Y017643D02*
X007061Y017183D01*
X007214Y017183D02*
X006907Y017183D01*
X006907Y017490D02*
X007061Y017643D01*
X007368Y017643D02*
X007368Y017413D01*
X007521Y017490D01*
X007598Y017490D01*
X007675Y017413D01*
X007675Y017260D01*
X007598Y017183D01*
X007444Y017183D01*
X007368Y017260D01*
X007368Y017643D02*
X007675Y017643D01*
X007828Y017567D02*
X007905Y017643D01*
X008058Y017643D01*
X008135Y017567D01*
X007828Y017260D01*
X007905Y017183D01*
X008058Y017183D01*
X008135Y017260D01*
X008135Y017567D01*
X007828Y017567D02*
X007828Y017260D01*
X007947Y016250D02*
X007947Y015789D01*
X007794Y015789D02*
X008101Y015789D01*
X008120Y015527D02*
X008120Y015220D01*
X008120Y015374D02*
X008274Y015527D01*
X008351Y015527D01*
X007967Y015451D02*
X007890Y015527D01*
X007737Y015527D01*
X007660Y015451D01*
X007660Y015297D01*
X007737Y015220D01*
X007890Y015220D01*
X007967Y015374D02*
X007660Y015374D01*
X007506Y015297D02*
X007506Y015527D01*
X007506Y015297D02*
X007430Y015220D01*
X007353Y015297D01*
X007276Y015220D01*
X007200Y015297D01*
X007200Y015527D01*
X007046Y015451D02*
X006969Y015527D01*
X006816Y015527D01*
X006739Y015451D01*
X006739Y015297D01*
X006816Y015220D01*
X006969Y015220D01*
X007046Y015297D01*
X007046Y015451D01*
X007180Y015789D02*
X007180Y016250D01*
X007333Y016250D02*
X007333Y015789D01*
X007640Y015789D01*
X007794Y016096D02*
X007947Y016250D01*
X007180Y016019D02*
X006873Y016019D01*
X006873Y015789D02*
X006873Y016250D01*
X006509Y015527D02*
X006586Y015451D01*
X006586Y015297D01*
X006509Y015220D01*
X006279Y015220D01*
X006279Y015067D02*
X006279Y015527D01*
X006509Y015527D01*
X006748Y014500D02*
X006748Y014039D01*
X006711Y013931D02*
X006711Y013470D01*
X006481Y013470D01*
X006404Y013547D01*
X006404Y013701D01*
X006481Y013777D01*
X006711Y013777D01*
X006864Y013701D02*
X006864Y013547D01*
X006941Y013470D01*
X007171Y013470D01*
X007325Y013547D02*
X007401Y013624D01*
X007631Y013624D01*
X007631Y013701D02*
X007631Y013470D01*
X007401Y013470D01*
X007325Y013547D01*
X007401Y013777D02*
X007555Y013777D01*
X007631Y013701D01*
X007785Y013777D02*
X007785Y013470D01*
X007785Y013624D02*
X007938Y013777D01*
X008015Y013777D01*
X008169Y013701D02*
X008245Y013777D01*
X008476Y013777D01*
X008476Y013931D02*
X008476Y013470D01*
X008245Y013470D01*
X008169Y013547D01*
X008169Y013701D01*
X007976Y014039D02*
X007669Y014039D01*
X007976Y014346D01*
X007976Y014423D01*
X007899Y014500D01*
X007745Y014500D01*
X007669Y014423D01*
X007515Y014039D02*
X007208Y014039D01*
X007208Y014500D01*
X007055Y014500D02*
X007055Y014039D01*
X007055Y014269D02*
X006748Y014269D01*
X006941Y013777D02*
X006864Y013701D01*
X006941Y013777D02*
X007171Y013777D01*
X006250Y013777D02*
X006020Y013777D01*
X005943Y013701D01*
X006020Y013624D01*
X006174Y013624D01*
X006250Y013547D01*
X006174Y013470D01*
X005943Y013470D01*
X006970Y012831D02*
X006970Y012370D01*
X006970Y012524D02*
X007200Y012524D01*
X007277Y012601D01*
X007277Y012754D01*
X007200Y012831D01*
X006970Y012831D01*
X007123Y012524D02*
X007277Y012370D01*
X007430Y012370D02*
X007737Y012677D01*
X007737Y012754D01*
X007660Y012831D01*
X007507Y012831D01*
X007430Y012754D01*
X007430Y012370D02*
X007737Y012370D01*
X007891Y012447D02*
X007967Y012370D01*
X008121Y012370D01*
X008198Y012447D01*
X008198Y012524D01*
X008121Y012601D01*
X007891Y012601D01*
X007891Y012447D01*
X007891Y012601D02*
X008044Y012754D01*
X008198Y012831D01*
X007905Y012143D02*
X007905Y011683D01*
X007905Y011836D02*
X008135Y011683D01*
X007905Y011836D02*
X008135Y011990D01*
X007751Y011683D02*
X007444Y011683D01*
X007598Y011683D02*
X007598Y012143D01*
X007444Y011990D01*
X009864Y013976D02*
X010298Y013976D01*
X010298Y014725D01*
X009864Y014725D01*
X009864Y013976D01*
X007967Y015374D02*
X007967Y015451D01*
X009864Y015976D02*
X010298Y015976D01*
X010298Y016725D01*
X009864Y016725D01*
X009864Y015976D01*
X008135Y018393D02*
X007828Y018393D01*
X021074Y007989D02*
X021227Y007758D01*
X021381Y007989D01*
X021381Y007758D02*
X020920Y007758D01*
X020920Y007452D02*
X021381Y007452D01*
X021381Y007605D02*
X021381Y007298D01*
X021074Y007298D02*
X020920Y007452D01*
X022920Y007452D02*
X023381Y007452D01*
X023381Y007605D02*
X023381Y007298D01*
X023074Y007298D02*
X022920Y007452D01*
X022920Y007758D02*
X023381Y007758D01*
X023227Y007758D02*
X023074Y007989D01*
X023227Y007758D02*
X023381Y007989D01*
X024795Y007758D02*
X025256Y007758D01*
X025256Y007605D02*
X025256Y007298D01*
X025256Y007452D02*
X024795Y007452D01*
X024949Y007298D01*
X025102Y007758D02*
X024949Y007989D01*
X025102Y007758D02*
X025256Y007989D01*
X026795Y007758D02*
X027256Y007758D01*
X027256Y007605D02*
X027256Y007298D01*
X027256Y007452D02*
X026795Y007452D01*
X026949Y007298D01*
X027102Y007758D02*
X026949Y007989D01*
X027102Y007758D02*
X027256Y007989D01*
X027454Y004499D02*
X027685Y004499D01*
X027761Y004422D01*
X027761Y004269D01*
X027685Y004192D01*
X027454Y004192D01*
X027454Y004039D02*
X027454Y004499D01*
X027608Y004192D02*
X027761Y004039D01*
X027915Y003962D02*
X028222Y003962D01*
X028375Y004116D02*
X028452Y004039D01*
X028605Y004039D01*
X028682Y004116D01*
X028682Y004192D01*
X028605Y004269D01*
X028452Y004269D01*
X028375Y004346D01*
X028375Y004422D01*
X028452Y004499D01*
X028605Y004499D01*
X028682Y004422D01*
X028835Y004422D02*
X028989Y004269D01*
X028989Y004039D01*
X028989Y004269D02*
X029142Y004422D01*
X029142Y004499D01*
X028835Y004499D02*
X028835Y004422D01*
X026807Y004422D02*
X026807Y004269D01*
X026730Y004192D01*
X026500Y004192D01*
X026500Y004039D02*
X026500Y004499D01*
X026730Y004499D01*
X026807Y004422D01*
X026654Y004192D02*
X026807Y004039D01*
X026347Y003962D02*
X026040Y003962D01*
X025886Y004039D02*
X025733Y004192D01*
X025810Y004192D02*
X025579Y004192D01*
X025579Y004039D02*
X025579Y004499D01*
X025810Y004499D01*
X025886Y004422D01*
X025886Y004269D01*
X025810Y004192D01*
X025057Y004116D02*
X025057Y004269D01*
X024904Y004269D01*
X025057Y004422D02*
X024980Y004499D01*
X024827Y004499D01*
X024750Y004422D01*
X024750Y004116D01*
X024827Y004039D01*
X024980Y004039D01*
X025057Y004116D01*
X024597Y003962D02*
X024290Y003962D01*
X024136Y004039D02*
X023983Y004192D01*
X024060Y004192D02*
X023829Y004192D01*
X023829Y004039D02*
X023829Y004499D01*
X024060Y004499D01*
X024136Y004422D01*
X024136Y004269D01*
X024060Y004192D01*
X023057Y004192D02*
X022980Y004269D01*
X022750Y004269D01*
X022750Y004499D02*
X022980Y004499D01*
X023057Y004422D01*
X023057Y004346D01*
X022980Y004269D01*
X023057Y004192D02*
X023057Y004116D01*
X022980Y004039D01*
X022750Y004039D01*
X022750Y004499D01*
X022597Y003962D02*
X022290Y003962D01*
X022136Y004039D02*
X021983Y004192D01*
X022060Y004192D02*
X021829Y004192D01*
X021829Y004039D02*
X021829Y004499D01*
X022060Y004499D01*
X022136Y004422D01*
X022136Y004269D01*
X022060Y004192D01*
X018872Y004520D02*
X018642Y004520D01*
X018566Y004597D01*
X018566Y004751D01*
X018642Y004827D01*
X018872Y004827D01*
X018872Y004981D02*
X018872Y004520D01*
X018412Y004827D02*
X018335Y004827D01*
X018182Y004674D01*
X018182Y004827D02*
X018182Y004520D01*
X018028Y004520D02*
X017798Y004520D01*
X017722Y004597D01*
X017798Y004674D01*
X018028Y004674D01*
X018028Y004751D02*
X018028Y004520D01*
X018028Y004751D02*
X017952Y004827D01*
X017798Y004827D01*
X017568Y004904D02*
X017491Y004981D01*
X017338Y004981D01*
X017261Y004904D01*
X017261Y004597D01*
X017338Y004520D01*
X017491Y004520D01*
X017568Y004597D01*
X016647Y004597D02*
X016571Y004520D01*
X016417Y004520D01*
X016340Y004597D01*
X016340Y004904D01*
X016417Y004981D01*
X016571Y004981D01*
X016647Y004904D01*
X016187Y004981D02*
X016187Y004520D01*
X015880Y004520D02*
X015880Y004981D01*
X016033Y004827D01*
X016187Y004981D01*
X015726Y004981D02*
X015726Y004520D01*
X015420Y004520D02*
X015420Y004981D01*
X015573Y004827D01*
X015726Y004981D01*
X015266Y004981D02*
X014959Y004520D01*
X014806Y004597D02*
X014806Y004904D01*
X014729Y004981D01*
X014499Y004981D01*
X014499Y004520D01*
X014729Y004520D01*
X014806Y004597D01*
X014345Y004597D02*
X014269Y004520D01*
X014115Y004520D01*
X014038Y004597D01*
X014115Y004751D02*
X014269Y004751D01*
X014345Y004674D01*
X014345Y004597D01*
X014115Y004751D02*
X014038Y004827D01*
X014038Y004904D01*
X014115Y004981D01*
X014269Y004981D01*
X014345Y004904D01*
X047692Y014779D02*
X047692Y014856D01*
X047999Y015163D01*
X047999Y015239D01*
X047692Y015239D01*
X048153Y015009D02*
X048460Y015009D01*
X048613Y015009D02*
X048920Y015009D01*
X049074Y015163D02*
X049074Y014856D01*
X049150Y014779D01*
X049304Y014779D01*
X049381Y014856D01*
X049381Y015163D02*
X049304Y015239D01*
X049150Y015239D01*
X049074Y015163D01*
X048920Y015239D02*
X048920Y014779D01*
X048613Y014779D02*
X048613Y015239D01*
X048383Y015239D02*
X048153Y015009D01*
X048383Y014779D02*
X048383Y015239D01*
X049534Y015239D02*
X049841Y015239D01*
X049687Y015239D02*
X049687Y014779D01*
X049994Y014779D02*
X050301Y015086D01*
X050301Y015163D01*
X050225Y015239D01*
X050071Y015239D01*
X049994Y015163D01*
X049994Y014779D02*
X050301Y014779D01*
X050455Y015009D02*
X050762Y015009D01*
X050915Y015009D02*
X051069Y015086D01*
X051145Y015086D01*
X051222Y015009D01*
X051222Y014856D01*
X051145Y014779D01*
X050992Y014779D01*
X050915Y014856D01*
X050915Y015009D02*
X050915Y015239D01*
X051222Y015239D01*
X051376Y015239D02*
X051682Y014779D01*
X051682Y015239D01*
X051376Y015239D02*
X051376Y014779D01*
X050685Y014779D02*
X050685Y015239D01*
X050455Y015009D01*
X053568Y014907D02*
X053568Y014830D01*
X053568Y014907D02*
X053875Y015214D01*
X053875Y015291D01*
X053568Y015291D01*
X054029Y015060D02*
X054336Y015060D01*
X054489Y015060D02*
X054796Y015060D01*
X054950Y014907D02*
X055026Y014830D01*
X055180Y014830D01*
X055256Y014907D01*
X054950Y014907D02*
X054950Y015214D01*
X055026Y015291D01*
X055180Y015291D01*
X055256Y015214D01*
X055410Y015291D02*
X055717Y015291D01*
X055563Y015291D02*
X055563Y014830D01*
X055870Y014830D02*
X056177Y015137D01*
X056177Y015214D01*
X056101Y015291D01*
X055947Y015291D01*
X055870Y015214D01*
X055870Y014830D02*
X056177Y014830D01*
X056331Y015060D02*
X056638Y015060D01*
X056791Y015060D02*
X056945Y015137D01*
X057021Y015137D01*
X057098Y015060D01*
X057098Y014907D01*
X057021Y014830D01*
X056868Y014830D01*
X056791Y014907D01*
X056791Y015060D02*
X056791Y015291D01*
X057098Y015291D01*
X057252Y015291D02*
X057558Y014830D01*
X057558Y015291D01*
X057252Y015291D02*
X057252Y014830D01*
X056561Y014830D02*
X056561Y015291D01*
X056331Y015060D01*
X054796Y015291D02*
X054796Y014830D01*
X054489Y014830D02*
X054489Y015291D01*
X054259Y015291D02*
X054029Y015060D01*
X054259Y014830D02*
X054259Y015291D01*
X067630Y023409D02*
X067630Y023486D01*
X067937Y023793D01*
X067937Y023870D01*
X067630Y023870D01*
X067652Y024204D02*
X067883Y024204D01*
X067959Y024281D01*
X067959Y024588D01*
X067883Y024664D01*
X067652Y024664D01*
X067652Y024204D01*
X068113Y024204D02*
X068113Y024664D01*
X068343Y024664D01*
X068420Y024588D01*
X068420Y024281D01*
X068343Y024204D01*
X068113Y024204D01*
X068320Y023870D02*
X068090Y023640D01*
X068397Y023640D01*
X068551Y023640D02*
X068858Y023640D01*
X069011Y023793D02*
X069011Y023486D01*
X069088Y023409D01*
X069241Y023409D01*
X069318Y023486D01*
X069318Y023793D02*
X069241Y023870D01*
X069088Y023870D01*
X069011Y023793D01*
X068858Y023870D02*
X068858Y023409D01*
X068551Y023409D02*
X068551Y023870D01*
X068320Y023870D02*
X068320Y023409D01*
X068573Y024204D02*
X068880Y024204D01*
X068727Y024204D02*
X068727Y024664D01*
X068573Y024511D01*
X069034Y024588D02*
X069110Y024664D01*
X069264Y024664D01*
X069341Y024588D01*
X069034Y024281D01*
X069110Y024204D01*
X069264Y024204D01*
X069341Y024281D01*
X069341Y024588D01*
X069034Y024588D02*
X069034Y024281D01*
X069471Y023870D02*
X069778Y023870D01*
X069625Y023870D02*
X069625Y023409D01*
X069932Y023409D02*
X070239Y023716D01*
X070239Y023793D01*
X070162Y023870D01*
X070009Y023870D01*
X069932Y023793D01*
X069932Y023409D02*
X070239Y023409D01*
X070392Y023640D02*
X070699Y023640D01*
X070853Y023640D02*
X071006Y023716D01*
X071083Y023716D01*
X071160Y023640D01*
X071160Y023486D01*
X071083Y023409D01*
X070929Y023409D01*
X070853Y023486D01*
X070853Y023640D02*
X070853Y023870D01*
X071160Y023870D01*
X071313Y023870D02*
X071620Y023409D01*
X071620Y023870D01*
X071313Y023870D02*
X071313Y023409D01*
X070622Y023409D02*
X070622Y023870D01*
X070392Y023640D01*
X070653Y041995D02*
X070653Y042456D01*
X070730Y042226D02*
X070960Y041995D01*
X071113Y041995D02*
X071344Y041995D01*
X071420Y042072D01*
X071420Y042149D01*
X071344Y042226D01*
X071113Y042226D01*
X071113Y042456D02*
X071344Y042456D01*
X071420Y042379D01*
X071420Y042302D01*
X071344Y042226D01*
X071113Y042456D02*
X071113Y041995D01*
X070653Y042149D02*
X070960Y042456D01*
X070039Y042379D02*
X069962Y042456D01*
X069809Y042456D01*
X069732Y042379D01*
X069579Y042456D02*
X069272Y041995D01*
X069118Y042072D02*
X069042Y041995D01*
X068888Y041995D01*
X068811Y042072D01*
X068888Y042226D02*
X069042Y042226D01*
X069118Y042149D01*
X069118Y042072D01*
X068888Y042226D02*
X068811Y042302D01*
X068811Y042379D01*
X068888Y042456D01*
X069042Y042456D01*
X069118Y042379D01*
X068658Y042379D02*
X068658Y042226D01*
X068581Y042149D01*
X068351Y042149D01*
X068351Y041995D02*
X068351Y042456D01*
X068581Y042456D01*
X068658Y042379D01*
X069732Y041995D02*
X070039Y042302D01*
X070039Y042379D01*
X070039Y041995D02*
X069732Y041995D01*
X067743Y042072D02*
X067667Y041995D01*
X067513Y041995D01*
X067436Y042072D01*
X067283Y041995D02*
X066976Y042456D01*
X067283Y042456D02*
X066976Y041995D01*
X067436Y042379D02*
X067513Y042456D01*
X067667Y042456D01*
X067743Y042379D01*
X067743Y042302D01*
X067667Y042226D01*
X067743Y042149D01*
X067743Y042072D01*
X067667Y042226D02*
X067590Y042226D01*
X038857Y046691D02*
X038857Y046998D01*
X038857Y047283D02*
X038551Y047283D01*
X038704Y047283D02*
X038704Y047743D01*
X038551Y047590D01*
X038397Y047743D02*
X038090Y047283D01*
X038090Y046998D02*
X038090Y046768D01*
X038244Y046845D01*
X038320Y046845D01*
X038397Y046768D01*
X038397Y046615D01*
X038320Y046538D01*
X038167Y046538D01*
X038090Y046615D01*
X038090Y046998D02*
X038397Y046998D01*
X038551Y046998D02*
X038551Y046691D01*
X038704Y046538D01*
X038857Y046691D01*
X038397Y047283D02*
X038090Y047743D01*
X048674Y004435D02*
X048904Y004435D01*
X048981Y004358D01*
X048981Y004051D01*
X048904Y003974D01*
X048674Y003974D01*
X048674Y004435D01*
X049134Y004435D02*
X049134Y003974D01*
X049364Y003974D01*
X049441Y004051D01*
X049441Y004358D01*
X049364Y004435D01*
X049134Y004435D01*
X049595Y004205D02*
X049901Y004205D01*
X049825Y004435D02*
X049595Y004205D01*
X049825Y003974D02*
X049825Y004435D01*
X054373Y004436D02*
X054373Y003975D01*
X054603Y003975D01*
X054679Y004052D01*
X054679Y004359D01*
X054603Y004436D01*
X054373Y004436D01*
X054833Y004436D02*
X055063Y004436D01*
X055140Y004359D01*
X055140Y004052D01*
X055063Y003975D01*
X054833Y003975D01*
X054833Y004436D01*
X055293Y004436D02*
X055293Y004206D01*
X055447Y004282D01*
X055524Y004282D01*
X055600Y004206D01*
X055600Y004052D01*
X055524Y003975D01*
X055370Y003975D01*
X055293Y004052D01*
X055293Y004436D02*
X055600Y004436D01*
D22*
X023081Y015305D03*
X022831Y012645D03*
X022831Y009805D03*
X023081Y018145D03*
X052018Y031680D03*
X052018Y034520D03*
D23*
X029506Y039475D03*
X025006Y040100D03*
X022006Y040100D03*
X019256Y040100D03*
X016881Y039475D03*
X007881Y040288D03*
X015031Y028975D03*
X016256Y019850D03*
D24*
X017081Y022100D03*
X018081Y022100D03*
X018081Y023100D03*
X017081Y023100D03*
X017081Y024100D03*
X018081Y024100D03*
X020956Y023975D03*
X021956Y023975D03*
X021956Y022975D03*
X021956Y021975D03*
X020956Y021975D03*
X020956Y020975D03*
X021956Y020975D03*
X021956Y024975D03*
X020956Y024975D03*
X015331Y031225D03*
X015331Y032225D03*
X015331Y033225D03*
X011456Y041600D03*
X010456Y041600D03*
X009456Y041600D03*
X067831Y040288D03*
X068831Y040288D03*
X069831Y040288D03*
X070831Y040288D03*
D25*
X029217Y008063D02*
X027445Y008063D01*
X027445Y004638D01*
X029217Y004638D01*
X029217Y008063D01*
X027217Y008063D02*
X027217Y004638D01*
X025445Y004638D01*
X025445Y008063D01*
X027217Y008063D01*
X025342Y008063D02*
X025342Y004638D01*
X023570Y004638D01*
X023570Y008063D01*
X025342Y008063D01*
X023342Y008063D02*
X023342Y004638D01*
X021570Y004638D01*
X021570Y008063D01*
X023342Y008063D01*
D26*
X022456Y007354D03*
X024456Y007354D03*
X026331Y007354D03*
X028331Y007354D03*
D27*
X032956Y039713D03*
X031206Y041900D03*
D28*
X030806Y043875D02*
X030806Y047925D01*
X013106Y047925D02*
X013106Y043875D01*
D29*
X010071Y016419D02*
X010012Y016360D01*
X010081Y016291D01*
X010140Y016350D01*
X010071Y016419D01*
X010081Y014410D02*
X010150Y014341D01*
X010091Y014282D01*
X010022Y014350D01*
X010081Y014410D01*
D30*
X009923Y014242D03*
X010238Y016459D03*
D31*
X008957Y017438D03*
X008957Y018018D03*
D32*
X008998Y012413D03*
X010038Y012413D03*
D33*
X007956Y032943D03*
X007956Y033513D03*
D34*
X015331Y028975D02*
X015456Y028913D01*
X021456Y020100D02*
X025831Y020600D01*
X034706Y019787D02*
X034581Y016163D01*
X008956Y018100D02*
X008268Y019788D01*
X035706Y037725D02*
X035706Y037788D01*
X036831Y045475D02*
X036831Y045538D01*
M02*
