G75*
G70*
%OFA0B0*%
%FSLAX24Y24*%
%IPPOS*%
%LPD*%
%AMOC8*
5,1,8,0,0,1.08239X$1,22.5*
%
%ADD10C,0.0060*%
%ADD11C,0.0040*%
%ADD12R,0.0256X0.0551*%
%ADD13R,0.0720X0.0230*%
%ADD14R,0.0551X0.0256*%
%ADD15R,0.0690X0.0290*%
%ADD16R,0.0290X0.0690*%
%ADD17R,0.0295X0.0571*%
%ADD18R,0.0571X0.0295*%
%ADD19R,0.0230X0.0720*%
%ADD20R,0.0295X0.0669*%
%ADD21R,0.0560X0.0140*%
%ADD22R,0.0669X0.0295*%
%ADD23C,0.0080*%
%ADD24R,0.0730X0.1260*%
%ADD25R,0.0730X0.0340*%
D10*
X017607Y011376D02*
X017930Y011376D01*
X017930Y011876D02*
X017607Y011876D01*
X018318Y012421D02*
X019218Y012421D01*
X019218Y013081D02*
X018318Y013081D01*
X018180Y013626D02*
X017857Y013626D01*
X017857Y014126D02*
X018180Y014126D01*
X038063Y021301D02*
X038063Y022201D01*
X038723Y022201D02*
X038723Y021301D01*
X039438Y019701D02*
X039438Y018801D01*
X040098Y018801D02*
X040098Y019701D01*
X051518Y019196D02*
X052273Y019196D01*
X052273Y018556D02*
X051518Y018556D01*
X053143Y018589D02*
X053143Y018912D01*
X053643Y018912D02*
X053643Y018589D01*
X054143Y018589D02*
X054143Y018912D01*
X054643Y018912D02*
X054643Y018589D01*
X055513Y018696D02*
X056268Y018696D01*
X056180Y019001D02*
X055857Y019001D01*
X055857Y019501D02*
X056180Y019501D01*
X055393Y019806D02*
X054638Y019806D01*
X054638Y020446D02*
X055393Y020446D01*
X055393Y021471D02*
X055393Y022031D01*
X055018Y021912D02*
X055018Y021589D01*
X054518Y021589D02*
X054518Y021912D01*
X054213Y022006D02*
X054213Y021251D01*
X053573Y021251D02*
X053573Y022006D01*
X053338Y020876D02*
X053338Y020121D01*
X052698Y020121D02*
X052698Y020876D01*
X052393Y020787D02*
X052393Y020464D01*
X051893Y020464D02*
X051893Y020787D01*
X055893Y021471D02*
X055893Y022031D01*
X056268Y021912D02*
X056268Y021589D01*
X056768Y021589D02*
X056768Y021912D01*
X057143Y021912D02*
X057143Y021589D01*
X057643Y021589D02*
X057643Y021912D01*
X058143Y021912D02*
X058143Y021589D01*
X058643Y021589D02*
X058643Y021912D01*
X059143Y021912D02*
X059143Y021589D01*
X059643Y021589D02*
X059643Y021912D01*
X060143Y021912D02*
X060143Y021589D01*
X060643Y021589D02*
X060643Y021912D01*
X061143Y021912D02*
X061143Y021589D01*
X061643Y021589D02*
X061643Y021912D01*
X059393Y019537D02*
X059393Y019214D01*
X058893Y019214D02*
X058893Y019537D01*
X058393Y019839D02*
X058393Y020162D01*
X057893Y020162D02*
X057893Y019839D01*
X056268Y018056D02*
X055513Y018056D01*
X055643Y025839D02*
X055643Y026162D01*
X055143Y026162D02*
X055143Y025839D01*
X068143Y021912D02*
X068143Y021589D01*
X068643Y021589D02*
X068643Y021912D01*
X075568Y021671D02*
X076468Y021671D01*
X076468Y022331D02*
X075568Y022331D01*
X075768Y026681D02*
X076523Y026681D01*
X076523Y027321D02*
X075768Y027321D01*
X076232Y029751D02*
X076555Y029751D01*
X076555Y030251D02*
X076232Y030251D01*
X074555Y030251D02*
X074232Y030251D01*
X074232Y029751D02*
X074555Y029751D01*
X075232Y032626D02*
X075555Y032626D01*
X075555Y033126D02*
X075232Y033126D01*
X077232Y033126D02*
X077555Y033126D01*
X077555Y032626D02*
X077232Y032626D01*
X072680Y038626D02*
X072357Y038626D01*
X072357Y039126D02*
X072680Y039126D01*
X072463Y040001D02*
X072463Y040756D01*
X071823Y040756D02*
X071823Y040001D01*
X073768Y039537D02*
X073768Y039214D01*
X074268Y039214D02*
X074268Y039537D01*
X069930Y039251D02*
X069607Y039251D01*
X069607Y038751D02*
X069930Y038751D01*
X068768Y039214D02*
X068768Y039537D01*
X068268Y039537D02*
X068268Y039214D01*
X068268Y040839D02*
X068268Y041162D01*
X067768Y041162D02*
X067768Y040839D01*
X069143Y040839D02*
X069143Y041162D01*
X069643Y041162D02*
X069643Y040839D01*
X065526Y043246D02*
X065526Y044001D01*
X064886Y044001D02*
X064886Y043246D01*
X063930Y043376D02*
X063607Y043376D01*
X063607Y043001D02*
X063930Y043001D01*
X063930Y042501D02*
X063607Y042501D01*
X063607Y043876D02*
X063930Y043876D01*
X063930Y044251D02*
X063607Y044251D01*
X063607Y044751D02*
X063930Y044751D01*
X062742Y045563D02*
X062420Y045563D01*
X062420Y046063D02*
X062742Y046063D01*
X059742Y046251D02*
X059420Y046251D01*
X059420Y046751D02*
X059742Y046751D01*
X068732Y034876D02*
X069055Y034876D01*
X069055Y034376D02*
X068732Y034376D01*
X069857Y014751D02*
X070180Y014751D01*
X070180Y014251D02*
X069857Y014251D01*
X069273Y009821D02*
X068518Y009821D01*
X068518Y009181D02*
X069273Y009181D01*
X065463Y008996D02*
X065463Y009751D01*
X064823Y009751D02*
X064823Y008996D01*
X062463Y008996D02*
X062463Y009751D01*
X061823Y009751D02*
X061823Y008996D01*
X060273Y009056D02*
X059518Y009056D01*
X059518Y009696D02*
X060273Y009696D01*
D11*
X060373Y009896D02*
X060373Y010356D01*
X060143Y010356D01*
X060067Y010279D01*
X060067Y010126D01*
X060143Y010049D01*
X060373Y010049D01*
X060220Y010049D02*
X060067Y009896D01*
X059913Y009972D02*
X059836Y009896D01*
X059683Y009896D01*
X059606Y009972D01*
X059606Y010279D01*
X059683Y010356D01*
X059836Y010356D01*
X059913Y010279D01*
X059913Y010203D01*
X059836Y010126D01*
X059606Y010126D01*
X059453Y010049D02*
X059222Y010049D01*
X059146Y010126D01*
X059146Y010279D01*
X059222Y010356D01*
X059453Y010356D01*
X059453Y009896D01*
X062663Y009816D02*
X063124Y009816D01*
X063124Y010047D01*
X063047Y010123D01*
X062894Y010123D01*
X062817Y010047D01*
X062817Y009816D01*
X062817Y009663D02*
X062740Y009663D01*
X062663Y009586D01*
X062663Y009433D01*
X062740Y009356D01*
X062817Y009356D01*
X062894Y009433D01*
X062894Y009586D01*
X062817Y009663D01*
X062894Y009586D02*
X062970Y009663D01*
X063047Y009663D01*
X063124Y009586D01*
X063124Y009433D01*
X063047Y009356D01*
X062970Y009356D01*
X062894Y009433D01*
X062894Y009203D02*
X062817Y009126D01*
X062817Y008896D01*
X062817Y009049D02*
X062663Y009203D01*
X062894Y009203D02*
X063047Y009203D01*
X063124Y009126D01*
X063124Y008896D01*
X062663Y008896D01*
X065663Y008896D02*
X066124Y008896D01*
X066124Y009126D01*
X066047Y009203D01*
X065894Y009203D01*
X065817Y009126D01*
X065817Y008896D01*
X065817Y009049D02*
X065663Y009203D01*
X065740Y009356D02*
X065663Y009433D01*
X065663Y009586D01*
X065740Y009663D01*
X066047Y009663D01*
X066124Y009586D01*
X066124Y009433D01*
X066047Y009356D01*
X065970Y009356D01*
X065894Y009433D01*
X065894Y009663D01*
X065817Y009816D02*
X065817Y010047D01*
X065894Y010123D01*
X066047Y010123D01*
X066124Y010047D01*
X066124Y009816D01*
X065663Y009816D01*
X065663Y010277D02*
X065663Y010584D01*
X065663Y010430D02*
X066124Y010430D01*
X065970Y010277D01*
X067685Y010328D02*
X067685Y010404D01*
X067762Y010481D01*
X067916Y010481D01*
X067992Y010404D01*
X068146Y010404D02*
X068146Y010251D01*
X068222Y010174D01*
X068453Y010174D01*
X068453Y010021D02*
X068453Y010481D01*
X068222Y010481D01*
X068146Y010404D01*
X067992Y010021D02*
X067685Y010328D01*
X067685Y010021D02*
X067992Y010021D01*
X068606Y010097D02*
X068606Y010404D01*
X068683Y010481D01*
X068836Y010481D01*
X068913Y010404D01*
X068913Y010328D01*
X068836Y010251D01*
X068606Y010251D01*
X068606Y010097D02*
X068683Y010021D01*
X068836Y010021D01*
X068913Y010097D01*
X069067Y010021D02*
X069220Y010174D01*
X069143Y010174D02*
X069373Y010174D01*
X069373Y010021D02*
X069373Y010481D01*
X069143Y010481D01*
X069067Y010404D01*
X069067Y010251D01*
X069143Y010174D01*
X069902Y013521D02*
X070209Y013521D01*
X069902Y013828D01*
X069902Y013904D01*
X069979Y013981D01*
X070132Y013981D01*
X070209Y013904D01*
X070362Y013904D02*
X070362Y013751D01*
X070439Y013674D01*
X070669Y013674D01*
X070516Y013674D02*
X070362Y013521D01*
X070669Y013521D02*
X070669Y013981D01*
X070439Y013981D01*
X070362Y013904D01*
X070823Y013904D02*
X071130Y013597D01*
X071130Y013751D02*
X070823Y013751D01*
X070823Y013597D02*
X071130Y013904D01*
X070976Y013904D02*
X070976Y013597D01*
X060874Y020639D02*
X060874Y020870D01*
X060797Y020946D01*
X060644Y020946D01*
X060567Y020870D01*
X060567Y020639D01*
X060413Y020639D02*
X060874Y020639D01*
X060567Y020793D02*
X060413Y020946D01*
X060490Y021100D02*
X060567Y021100D01*
X060644Y021177D01*
X060644Y021330D01*
X060567Y021407D01*
X060490Y021407D01*
X060413Y021330D01*
X060413Y021177D01*
X060490Y021100D01*
X060644Y021177D02*
X060720Y021100D01*
X060797Y021100D01*
X060874Y021177D01*
X060874Y021330D01*
X060797Y021407D01*
X060720Y021407D01*
X060644Y021330D01*
X060874Y021560D02*
X060874Y021790D01*
X060797Y021867D01*
X060490Y021867D01*
X060413Y021790D01*
X060413Y021560D01*
X060874Y021560D01*
X059874Y021560D02*
X059874Y021790D01*
X059797Y021867D01*
X059490Y021867D01*
X059413Y021790D01*
X059413Y021560D01*
X059874Y021560D01*
X059874Y021407D02*
X059797Y021407D01*
X059490Y021100D01*
X059413Y021100D01*
X059413Y020946D02*
X059567Y020793D01*
X059567Y020870D02*
X059567Y020639D01*
X059413Y020639D02*
X059874Y020639D01*
X059874Y020870D01*
X059797Y020946D01*
X059644Y020946D01*
X059567Y020870D01*
X059874Y021100D02*
X059874Y021407D01*
X059124Y020998D02*
X059047Y020998D01*
X058894Y020845D01*
X058663Y020845D01*
X058567Y020870D02*
X058567Y020639D01*
X058413Y020639D02*
X058874Y020639D01*
X058874Y020870D01*
X058797Y020946D01*
X058644Y020946D01*
X058567Y020870D01*
X058567Y020793D02*
X058413Y020946D01*
X058490Y021100D02*
X058413Y021177D01*
X058413Y021330D01*
X058490Y021407D01*
X058567Y021407D01*
X058644Y021330D01*
X058644Y021100D01*
X058490Y021100D01*
X058644Y021100D02*
X058797Y021253D01*
X058874Y021407D01*
X058874Y021560D02*
X058874Y021790D01*
X058797Y021867D01*
X058490Y021867D01*
X058413Y021790D01*
X058413Y021560D01*
X058874Y021560D01*
X058894Y020845D02*
X059047Y020691D01*
X059124Y020691D01*
X059047Y020538D02*
X059124Y020461D01*
X059124Y020308D01*
X059047Y020231D01*
X058970Y020231D01*
X058894Y020308D01*
X058894Y020538D01*
X059047Y020538D02*
X058740Y020538D01*
X058663Y020461D01*
X058663Y020308D01*
X058740Y020231D01*
X058663Y020078D02*
X058817Y019924D01*
X058817Y020001D02*
X058817Y019771D01*
X058663Y019771D02*
X059124Y019771D01*
X059124Y020001D01*
X059047Y020078D01*
X058894Y020078D01*
X058817Y020001D01*
X059663Y020066D02*
X059663Y020373D01*
X059663Y020220D02*
X060124Y020220D01*
X059970Y020066D01*
X059894Y019913D02*
X059817Y019836D01*
X059817Y019606D01*
X059817Y019759D02*
X059663Y019913D01*
X059894Y019913D02*
X060047Y019913D01*
X060124Y019836D01*
X060124Y019606D01*
X059663Y019606D01*
X059740Y019453D02*
X060047Y019146D01*
X060047Y019299D02*
X059740Y019299D01*
X059740Y019146D02*
X060047Y019453D01*
X059894Y019453D02*
X059894Y019146D01*
X058630Y017904D02*
X058630Y017597D01*
X058553Y017521D01*
X058399Y017521D01*
X058323Y017597D01*
X058169Y017597D02*
X058093Y017521D01*
X057939Y017521D01*
X057862Y017597D01*
X057862Y017674D01*
X057939Y017751D01*
X058016Y017751D01*
X057939Y017751D02*
X057862Y017828D01*
X057862Y017904D01*
X057939Y017981D01*
X058093Y017981D01*
X058169Y017904D01*
X058323Y017904D02*
X058399Y017981D01*
X058553Y017981D01*
X058630Y017904D01*
X057918Y018241D02*
X057618Y018241D01*
X057709Y017981D02*
X057709Y017904D01*
X057555Y017751D01*
X057555Y017521D01*
X057555Y017751D02*
X057402Y017904D01*
X057402Y017981D01*
X057130Y018271D02*
X057130Y018731D01*
X056899Y018731D01*
X056823Y018654D01*
X056823Y018501D01*
X056899Y018424D01*
X057130Y018424D01*
X056976Y018424D02*
X056823Y018271D01*
X056669Y018271D02*
X056669Y018347D01*
X056362Y018654D01*
X056362Y018731D01*
X056669Y018731D01*
X056209Y018731D02*
X056209Y018654D01*
X056055Y018501D01*
X056055Y018271D01*
X056055Y018501D02*
X055902Y018654D01*
X055902Y018731D01*
X055880Y019222D02*
X055573Y019529D01*
X055726Y019529D02*
X055726Y019222D01*
X055573Y019222D02*
X055880Y019529D01*
X056033Y019529D02*
X056340Y019222D01*
X056187Y019222D02*
X056187Y019529D01*
X056340Y019529D02*
X056033Y019222D01*
X056033Y019376D02*
X056340Y019376D01*
X055880Y019376D02*
X055573Y019376D01*
X055419Y019299D02*
X055189Y019299D01*
X055112Y019376D01*
X055112Y019529D01*
X055189Y019606D01*
X055419Y019606D01*
X055419Y019146D01*
X055374Y019134D02*
X054913Y019134D01*
X054959Y019146D02*
X054652Y019453D01*
X054652Y019529D01*
X054729Y019606D01*
X054882Y019606D01*
X054959Y019529D01*
X054913Y019595D02*
X055144Y019595D01*
X055297Y019748D01*
X055374Y019748D01*
X055144Y019595D02*
X055297Y019441D01*
X055374Y019441D01*
X055266Y019299D02*
X055112Y019146D01*
X054959Y019146D02*
X054652Y019146D01*
X054374Y019211D02*
X054374Y019058D01*
X054297Y018981D01*
X054297Y018828D02*
X054144Y018828D01*
X054067Y018751D01*
X054067Y018521D01*
X054067Y018674D02*
X053913Y018828D01*
X053913Y018981D02*
X054220Y019288D01*
X054297Y019288D01*
X054374Y019211D01*
X054374Y019441D02*
X054297Y019441D01*
X054144Y019595D01*
X053913Y019595D01*
X054144Y019595D02*
X054297Y019748D01*
X054374Y019748D01*
X053999Y020021D02*
X053999Y020251D01*
X053922Y020328D01*
X053769Y020328D01*
X053692Y020251D01*
X053692Y020021D01*
X053692Y020174D02*
X053538Y020328D01*
X053615Y020481D02*
X053538Y020558D01*
X053538Y020711D01*
X053615Y020788D01*
X053692Y020788D01*
X053769Y020711D01*
X053769Y020634D01*
X053788Y020639D02*
X054249Y020639D01*
X054249Y020870D01*
X054172Y020946D01*
X054019Y020946D01*
X053942Y020870D01*
X053942Y020639D01*
X053999Y020711D02*
X053922Y020788D01*
X053845Y020788D01*
X053769Y020711D01*
X053942Y020793D02*
X053788Y020946D01*
X053922Y020941D02*
X053769Y021095D01*
X053538Y021095D01*
X053374Y020995D02*
X053297Y021071D01*
X053144Y021071D01*
X053067Y020995D01*
X053067Y020764D01*
X052913Y020764D02*
X053374Y020764D01*
X053374Y020995D01*
X053067Y020918D02*
X052913Y021071D01*
X053144Y021225D02*
X053144Y021532D01*
X053297Y021685D02*
X053144Y021839D01*
X052913Y021839D01*
X053144Y021839D02*
X053297Y021992D01*
X053374Y021992D01*
X053374Y021685D02*
X053297Y021685D01*
X053374Y021455D02*
X053144Y021225D01*
X052913Y021455D02*
X053374Y021455D01*
X053788Y021407D02*
X053788Y021100D01*
X053769Y021095D02*
X053922Y021248D01*
X053999Y021248D01*
X054095Y021100D02*
X054249Y021253D01*
X053788Y021253D01*
X053788Y021560D02*
X053788Y021790D01*
X053865Y021867D01*
X054172Y021867D01*
X054249Y021790D01*
X054249Y021560D01*
X053788Y021560D01*
X053922Y020941D02*
X053999Y020941D01*
X053999Y020711D02*
X053999Y020558D01*
X053922Y020481D01*
X053999Y020021D02*
X053538Y020021D01*
X053913Y019288D02*
X053913Y018981D01*
X054297Y018828D02*
X054374Y018751D01*
X054374Y018521D01*
X053913Y018521D01*
X054913Y018521D02*
X055374Y018521D01*
X055374Y018751D01*
X055297Y018828D01*
X055144Y018828D01*
X055067Y018751D01*
X055067Y018521D01*
X055067Y018674D02*
X054913Y018828D01*
X054913Y018981D02*
X054913Y019288D01*
X055220Y018981D02*
X055374Y019134D01*
X055527Y017856D02*
X055527Y017779D01*
X055680Y017626D01*
X055680Y017396D01*
X055680Y017626D02*
X055834Y017779D01*
X055834Y017856D01*
X055987Y017856D02*
X056141Y017779D01*
X056294Y017626D01*
X056064Y017626D01*
X055987Y017549D01*
X055987Y017472D01*
X056064Y017396D01*
X056218Y017396D01*
X056294Y017472D01*
X056294Y017626D01*
X056448Y017626D02*
X056524Y017549D01*
X056755Y017549D01*
X056755Y017396D02*
X056755Y017856D01*
X056524Y017856D01*
X056448Y017779D01*
X056448Y017626D01*
X056601Y017549D02*
X056448Y017396D01*
X057628Y018760D02*
X057918Y018760D01*
X057874Y020639D02*
X057413Y020639D01*
X057567Y020639D02*
X057567Y020870D01*
X057644Y020946D01*
X057797Y020946D01*
X057874Y020870D01*
X057874Y020639D01*
X057567Y020793D02*
X057413Y020946D01*
X057490Y021100D02*
X057413Y021177D01*
X057413Y021330D01*
X057490Y021407D01*
X057644Y021407D01*
X057720Y021330D01*
X057720Y021253D01*
X057644Y021100D01*
X057874Y021100D01*
X057874Y021407D01*
X057874Y021560D02*
X057413Y021560D01*
X057413Y021790D01*
X057490Y021867D01*
X057797Y021867D01*
X057874Y021790D01*
X057874Y021560D01*
X056874Y021560D02*
X056874Y021790D01*
X056797Y021867D01*
X056490Y021867D01*
X056413Y021790D01*
X056413Y021560D01*
X056874Y021560D01*
X056874Y021330D02*
X056413Y021330D01*
X056644Y021407D02*
X056644Y021100D01*
X056874Y021330D01*
X056797Y020946D02*
X056644Y020946D01*
X056567Y020870D01*
X056567Y020639D01*
X056413Y020639D02*
X056874Y020639D01*
X056874Y020870D01*
X056797Y020946D01*
X056567Y020793D02*
X056413Y020946D01*
X055999Y020870D02*
X055922Y020946D01*
X055769Y020946D01*
X055692Y020870D01*
X055692Y020639D01*
X055538Y020639D02*
X055999Y020639D01*
X055999Y020870D01*
X055922Y021100D02*
X055999Y021177D01*
X055999Y021330D01*
X055922Y021407D01*
X055845Y021407D01*
X055769Y021330D01*
X055692Y021407D01*
X055615Y021407D01*
X055538Y021330D01*
X055538Y021177D01*
X055615Y021100D01*
X055538Y020946D02*
X055692Y020793D01*
X055769Y021253D02*
X055769Y021330D01*
X055999Y021560D02*
X055538Y021560D01*
X055538Y021790D01*
X055615Y021867D01*
X055922Y021867D01*
X055999Y021790D01*
X055999Y021560D01*
X055124Y021580D02*
X055124Y021427D01*
X055047Y021350D01*
X055047Y021196D02*
X054894Y021196D01*
X054817Y021120D01*
X054817Y020889D01*
X054663Y020889D02*
X055124Y020889D01*
X055124Y021120D01*
X055047Y021196D01*
X054817Y021043D02*
X054663Y021196D01*
X054663Y021350D02*
X054970Y021657D01*
X055047Y021657D01*
X055124Y021580D01*
X055124Y021810D02*
X055124Y022040D01*
X055047Y022117D01*
X054740Y022117D01*
X054663Y022040D01*
X054663Y021810D01*
X055124Y021810D01*
X054663Y021657D02*
X054663Y021350D01*
X052373Y019856D02*
X052143Y019856D01*
X052067Y019779D01*
X052067Y019626D01*
X052143Y019549D01*
X052373Y019549D01*
X052220Y019549D02*
X052067Y019396D01*
X051913Y019472D02*
X051836Y019396D01*
X051683Y019396D01*
X051606Y019472D01*
X051606Y019626D01*
X051683Y019703D01*
X051760Y019703D01*
X051913Y019626D01*
X051913Y019856D01*
X051606Y019856D01*
X051547Y019821D02*
X051394Y019821D01*
X051317Y019745D01*
X051317Y019514D01*
X051299Y019626D02*
X051299Y019396D01*
X051163Y019514D02*
X051624Y019514D01*
X051624Y019745D01*
X051547Y019821D01*
X051453Y019856D02*
X051453Y019779D01*
X051299Y019626D01*
X051146Y019779D01*
X051146Y019856D01*
X051163Y019821D02*
X051317Y019668D01*
X051317Y019975D02*
X051394Y020052D01*
X051394Y020205D01*
X051317Y020282D01*
X051240Y020282D01*
X051163Y020205D01*
X051163Y020052D01*
X051240Y019975D01*
X051317Y019975D01*
X051394Y020052D02*
X051470Y019975D01*
X051547Y019975D01*
X051624Y020052D01*
X051624Y020205D01*
X051547Y020282D01*
X051470Y020282D01*
X051394Y020205D01*
X051547Y020435D02*
X051394Y020589D01*
X051163Y020589D01*
X051009Y020476D02*
X051009Y020776D01*
X050749Y020685D02*
X050672Y020685D01*
X050519Y020839D01*
X050288Y020839D01*
X050519Y020839D02*
X050672Y020992D01*
X050749Y020992D01*
X050672Y020532D02*
X050749Y020455D01*
X050749Y020302D01*
X050672Y020225D01*
X050365Y020225D01*
X050288Y020302D01*
X050288Y020455D01*
X050365Y020532D01*
X051394Y020589D02*
X051547Y020742D01*
X051624Y020742D01*
X051528Y020766D02*
X051528Y020476D01*
X051547Y020435D02*
X051624Y020435D01*
X052373Y019856D02*
X052373Y019396D01*
X046778Y017776D02*
X046778Y017476D01*
X046259Y017485D02*
X046259Y017776D01*
X046360Y016606D02*
X046283Y016529D01*
X046360Y016606D02*
X046513Y016606D01*
X046590Y016529D01*
X046590Y016222D01*
X046513Y016146D01*
X046360Y016146D01*
X046283Y016222D01*
X046130Y016146D02*
X046130Y016606D01*
X045976Y016453D01*
X045823Y016606D01*
X045823Y016146D01*
X045669Y016146D02*
X045362Y016146D01*
X045516Y016146D02*
X045516Y016606D01*
X045669Y016453D01*
X045209Y016376D02*
X044979Y016376D01*
X044902Y016299D01*
X044902Y016222D01*
X044979Y016146D01*
X045132Y016146D01*
X045209Y016222D01*
X045209Y016376D01*
X045055Y016529D01*
X044902Y016606D01*
X040505Y017646D02*
X040505Y018106D01*
X040274Y018106D01*
X040198Y018029D01*
X040198Y017876D01*
X040274Y017799D01*
X040505Y017799D01*
X040351Y017799D02*
X040198Y017646D01*
X040044Y017646D02*
X039737Y017646D01*
X039891Y017646D02*
X039891Y018106D01*
X040044Y017953D01*
X039584Y017953D02*
X039584Y018029D01*
X039507Y018106D01*
X039354Y018106D01*
X039277Y018029D01*
X039277Y017722D01*
X039354Y017646D01*
X039507Y017646D01*
X039584Y017722D01*
X039507Y017876D02*
X039277Y017876D01*
X039507Y017876D02*
X039584Y017953D01*
X034498Y021097D02*
X034422Y021021D01*
X034268Y021021D01*
X034192Y021097D01*
X034038Y021097D02*
X034038Y021021D01*
X033731Y021021D01*
X033578Y021097D02*
X033578Y021174D01*
X033501Y021251D01*
X033347Y021251D01*
X033271Y021174D01*
X033271Y021097D01*
X033347Y021021D01*
X033501Y021021D01*
X033578Y021097D01*
X033501Y021251D02*
X033578Y021328D01*
X033578Y021404D01*
X033501Y021481D01*
X033347Y021481D01*
X033271Y021404D01*
X033271Y021328D01*
X033347Y021251D01*
X033117Y021404D02*
X033041Y021481D01*
X032887Y021481D01*
X032810Y021404D01*
X033117Y021097D01*
X033041Y021021D01*
X032887Y021021D01*
X032810Y021097D01*
X032810Y021404D01*
X033117Y021404D02*
X033117Y021097D01*
X033731Y021404D02*
X033731Y021481D01*
X034038Y021481D01*
X034192Y021404D02*
X034268Y021481D01*
X034422Y021481D01*
X034498Y021404D01*
X034498Y021097D01*
X034038Y021097D02*
X033731Y021404D01*
X033618Y020010D02*
X033918Y020010D01*
X033909Y019491D02*
X033618Y019491D01*
X039106Y022021D02*
X039413Y022021D01*
X039260Y022021D02*
X039260Y022481D01*
X039413Y022328D01*
X039567Y022404D02*
X039567Y022251D01*
X039643Y022174D01*
X039873Y022174D01*
X039720Y022174D02*
X039567Y022021D01*
X039873Y022021D02*
X039873Y022481D01*
X039643Y022481D01*
X039567Y022404D01*
X055538Y025677D02*
X055538Y025830D01*
X055615Y025907D01*
X055538Y025677D02*
X055615Y025600D01*
X055922Y025600D01*
X055999Y025677D01*
X055999Y025830D01*
X055922Y025907D01*
X055913Y025771D02*
X056374Y025771D01*
X056374Y026001D01*
X056297Y026078D01*
X056144Y026078D01*
X056067Y026001D01*
X056067Y025771D01*
X056067Y025924D02*
X055913Y026078D01*
X055999Y026060D02*
X055999Y026367D01*
X055913Y026308D02*
X055913Y026461D01*
X055990Y026538D01*
X056067Y026538D01*
X056144Y026461D01*
X056144Y026384D01*
X056209Y026381D02*
X056209Y025621D01*
X056297Y026231D02*
X056374Y026308D01*
X056374Y026461D01*
X056297Y026538D01*
X056220Y026538D01*
X056144Y026461D01*
X055990Y026231D02*
X055913Y026308D01*
X055999Y026214D02*
X055538Y026214D01*
X056828Y026381D02*
X056828Y025621D01*
X068913Y022672D02*
X068913Y022518D01*
X068990Y022441D01*
X069297Y022748D01*
X068990Y022748D01*
X068913Y022672D01*
X068990Y022441D02*
X069297Y022441D01*
X069374Y022518D01*
X069374Y022672D01*
X069297Y022748D01*
X069297Y022288D02*
X069374Y022211D01*
X069374Y022058D01*
X069297Y021981D01*
X069297Y021828D02*
X069144Y021828D01*
X069067Y021751D01*
X069067Y021521D01*
X069067Y021674D02*
X068913Y021828D01*
X068913Y021981D02*
X069220Y022288D01*
X069297Y022288D01*
X068913Y022288D02*
X068913Y021981D01*
X069297Y021828D02*
X069374Y021751D01*
X069374Y021521D01*
X068913Y021521D01*
X075271Y022751D02*
X075347Y022674D01*
X075578Y022674D01*
X075578Y022521D02*
X075578Y022981D01*
X075347Y022981D01*
X075271Y022904D01*
X075271Y022751D01*
X075731Y022751D02*
X075731Y022597D01*
X075808Y022521D01*
X075961Y022521D01*
X076038Y022597D01*
X076038Y022751D02*
X075885Y022828D01*
X075808Y022828D01*
X075731Y022751D01*
X075731Y022981D02*
X076038Y022981D01*
X076038Y022751D01*
X076192Y022751D02*
X076268Y022674D01*
X076498Y022674D01*
X076345Y022674D02*
X076192Y022521D01*
X076192Y022751D02*
X076192Y022904D01*
X076268Y022981D01*
X076498Y022981D01*
X076498Y022521D01*
X076709Y023021D02*
X076709Y023481D01*
X076479Y023481D01*
X076402Y023404D01*
X076402Y023251D01*
X076479Y023174D01*
X076709Y023174D01*
X076862Y023251D02*
X077169Y023251D01*
X076939Y023481D01*
X076939Y023021D01*
X077323Y023097D02*
X077399Y023021D01*
X077553Y023021D01*
X077630Y023097D01*
X077630Y023404D01*
X077553Y023481D01*
X077399Y023481D01*
X077323Y023404D01*
X076918Y023741D02*
X076618Y023741D01*
X076628Y024260D02*
X076918Y024260D01*
X076523Y025441D02*
X075764Y025441D01*
X075764Y026060D02*
X076523Y026060D01*
X076547Y026271D02*
X076393Y026271D01*
X076317Y026347D01*
X076163Y026347D02*
X076086Y026271D01*
X075933Y026271D01*
X075856Y026347D01*
X075856Y026501D01*
X075933Y026578D01*
X076010Y026578D01*
X076163Y026501D01*
X076163Y026731D01*
X075856Y026731D01*
X075703Y026731D02*
X075472Y026731D01*
X075396Y026654D01*
X075396Y026501D01*
X075472Y026424D01*
X075703Y026424D01*
X075703Y026271D02*
X075703Y026731D01*
X076317Y026654D02*
X076393Y026731D01*
X076547Y026731D01*
X076623Y026654D01*
X076623Y026347D01*
X076547Y026271D01*
X076623Y027521D02*
X076623Y027981D01*
X076393Y027981D01*
X076317Y027904D01*
X076317Y027751D01*
X076393Y027674D01*
X076623Y027674D01*
X076470Y027674D02*
X076317Y027521D01*
X076163Y027597D02*
X076086Y027521D01*
X075933Y027521D01*
X075856Y027597D01*
X075856Y027674D01*
X075933Y027751D01*
X076163Y027751D01*
X076163Y027597D01*
X076163Y027751D02*
X076010Y027904D01*
X075856Y027981D01*
X075703Y027981D02*
X075472Y027981D01*
X075396Y027904D01*
X075396Y027751D01*
X075472Y027674D01*
X075703Y027674D01*
X075703Y027521D02*
X075703Y027981D01*
X075626Y030521D02*
X075703Y030597D01*
X075626Y030521D02*
X075472Y030521D01*
X075396Y030597D01*
X075396Y030674D01*
X075472Y030751D01*
X075549Y030751D01*
X075472Y030751D02*
X075396Y030828D01*
X075396Y030904D01*
X075472Y030981D01*
X075626Y030981D01*
X075703Y030904D01*
X075856Y030904D02*
X075856Y030751D01*
X075933Y030674D01*
X076163Y030674D01*
X076010Y030674D02*
X075856Y030521D01*
X076163Y030521D02*
X076163Y030981D01*
X075933Y030981D01*
X075856Y030904D01*
X076317Y030751D02*
X076623Y030751D01*
X074623Y030674D02*
X074393Y030674D01*
X074317Y030751D01*
X074317Y030904D01*
X074393Y030981D01*
X074623Y030981D01*
X074623Y030521D01*
X074470Y030674D02*
X074317Y030521D01*
X074163Y030521D02*
X073856Y030521D01*
X073703Y030521D02*
X073396Y030828D01*
X073396Y030904D01*
X073472Y030981D01*
X073626Y030981D01*
X073703Y030904D01*
X074010Y030981D02*
X074010Y030521D01*
X073703Y030521D02*
X073396Y030521D01*
X073242Y030521D02*
X072935Y030828D01*
X072935Y030904D01*
X073012Y030981D01*
X073166Y030981D01*
X073242Y030904D01*
X073242Y030521D02*
X072935Y030521D01*
X072782Y030597D02*
X072705Y030521D01*
X072552Y030521D01*
X072475Y030597D01*
X072475Y030674D01*
X072552Y030751D01*
X072628Y030751D01*
X072552Y030751D02*
X072475Y030828D01*
X072475Y030904D01*
X072552Y030981D01*
X072705Y030981D01*
X072782Y030904D01*
X074010Y030981D02*
X074163Y030828D01*
X074242Y033396D02*
X073935Y033703D01*
X073935Y033779D01*
X074012Y033856D01*
X074166Y033856D01*
X074242Y033779D01*
X074549Y033856D02*
X074549Y033396D01*
X074396Y033396D02*
X074703Y033396D01*
X074856Y033396D02*
X075163Y033396D01*
X075010Y033396D02*
X075010Y033856D01*
X075163Y033703D01*
X075317Y033779D02*
X075317Y033626D01*
X075393Y033549D01*
X075623Y033549D01*
X075470Y033549D02*
X075317Y033396D01*
X075623Y033396D02*
X075623Y033856D01*
X075393Y033856D01*
X075317Y033779D01*
X074703Y033703D02*
X074549Y033856D01*
X074242Y033396D02*
X073935Y033396D01*
X076396Y033626D02*
X076703Y033626D01*
X076472Y033856D01*
X076472Y033396D01*
X076856Y033472D02*
X076933Y033396D01*
X077086Y033396D01*
X077163Y033472D01*
X077317Y033396D02*
X077470Y033549D01*
X077393Y033549D02*
X077623Y033549D01*
X077623Y033396D02*
X077623Y033856D01*
X077393Y033856D01*
X077317Y033779D01*
X077317Y033626D01*
X077393Y033549D01*
X077163Y033779D02*
X077086Y033856D01*
X076933Y033856D01*
X076856Y033779D01*
X076856Y033703D01*
X076933Y033626D01*
X076856Y033549D01*
X076856Y033472D01*
X076933Y033626D02*
X077010Y033626D01*
X073630Y037896D02*
X073630Y038356D01*
X073399Y038356D01*
X073323Y038279D01*
X073323Y038126D01*
X073399Y038049D01*
X073630Y038049D01*
X073476Y038049D02*
X073323Y037896D01*
X073169Y037896D02*
X072862Y037896D01*
X073016Y037896D02*
X073016Y038356D01*
X073169Y038203D01*
X072709Y038279D02*
X072632Y038356D01*
X072479Y038356D01*
X072402Y038279D01*
X072402Y038203D01*
X072479Y038126D01*
X072402Y038049D01*
X072402Y037972D01*
X072479Y037896D01*
X072632Y037896D01*
X072709Y037972D01*
X072555Y038126D02*
X072479Y038126D01*
X070880Y038174D02*
X070649Y038174D01*
X070573Y038251D01*
X070573Y038404D01*
X070649Y038481D01*
X070880Y038481D01*
X070880Y038021D01*
X070726Y038174D02*
X070573Y038021D01*
X070419Y038021D02*
X070112Y038021D01*
X070266Y038021D02*
X070266Y038481D01*
X070419Y038328D01*
X069959Y038251D02*
X069805Y038328D01*
X069729Y038328D01*
X069652Y038251D01*
X069652Y038097D01*
X069729Y038021D01*
X069882Y038021D01*
X069959Y038097D01*
X069959Y038251D02*
X069959Y038481D01*
X069652Y038481D01*
X068874Y039889D02*
X068413Y039889D01*
X068567Y039889D02*
X068567Y040120D01*
X068644Y040196D01*
X068797Y040196D01*
X068874Y040120D01*
X068874Y039889D01*
X068567Y040043D02*
X068413Y040196D01*
X068413Y040350D02*
X068413Y040657D01*
X068413Y040503D02*
X068874Y040503D01*
X068720Y040350D01*
X068644Y040810D02*
X068644Y041117D01*
X068619Y041203D02*
X068772Y041203D01*
X068849Y041126D01*
X068849Y040896D01*
X068874Y041040D02*
X068644Y040810D01*
X068542Y040896D02*
X068542Y041356D01*
X068619Y041203D02*
X068542Y041126D01*
X068389Y041126D02*
X068389Y040972D01*
X068312Y040896D01*
X068082Y040896D01*
X067928Y040896D02*
X067928Y041126D01*
X067852Y041203D01*
X067775Y041126D01*
X067775Y040896D01*
X067621Y040896D02*
X067621Y041203D01*
X067698Y041203D01*
X067775Y041126D01*
X067499Y041040D02*
X067422Y041117D01*
X067345Y041117D01*
X067269Y041040D01*
X067269Y040887D01*
X067345Y040810D01*
X067422Y040810D01*
X067499Y040887D01*
X067499Y041040D01*
X067468Y041126D02*
X067161Y041126D01*
X067192Y041117D02*
X067115Y041117D01*
X067038Y041040D01*
X067038Y040887D01*
X067115Y040810D01*
X067192Y040810D01*
X067269Y040887D01*
X067161Y040896D02*
X067161Y041203D01*
X067314Y041356D01*
X067468Y041203D01*
X067468Y040896D01*
X067269Y041040D02*
X067192Y041117D01*
X067038Y040657D02*
X067038Y040350D01*
X067038Y040503D02*
X067499Y040503D01*
X067345Y040350D01*
X067269Y040196D02*
X067192Y040120D01*
X067192Y039889D01*
X067038Y039889D02*
X067499Y039889D01*
X067499Y040120D01*
X067422Y040196D01*
X067269Y040196D01*
X067192Y040043D02*
X067038Y040196D01*
X067922Y039492D02*
X067615Y039185D01*
X067538Y039185D01*
X067538Y039032D02*
X067538Y038725D01*
X067538Y038878D02*
X067999Y038878D01*
X067845Y038725D01*
X067769Y038571D02*
X067692Y038495D01*
X067692Y038264D01*
X067538Y038264D02*
X067999Y038264D01*
X067999Y038495D01*
X067922Y038571D01*
X067769Y038571D01*
X067692Y038418D02*
X067538Y038571D01*
X067999Y039185D02*
X067999Y039492D01*
X067922Y039492D01*
X068082Y040742D02*
X068082Y041203D01*
X068312Y041203D01*
X068389Y041126D01*
X068413Y041040D02*
X068874Y041040D01*
X069003Y041049D02*
X069310Y041049D01*
X069310Y041126D01*
X069233Y041203D01*
X069079Y041203D01*
X069003Y041126D01*
X069003Y040972D01*
X069079Y040896D01*
X069233Y040896D01*
X069463Y040896D02*
X069463Y041203D01*
X069693Y041203D01*
X069770Y041126D01*
X069770Y040896D01*
X069923Y040972D02*
X070000Y040896D01*
X070154Y040896D01*
X070230Y040972D01*
X070230Y041126D01*
X070154Y041203D01*
X070000Y041203D01*
X069923Y041126D01*
X069923Y040972D01*
X070384Y040896D02*
X070537Y040896D01*
X070493Y040885D02*
X070793Y040885D01*
X070893Y041146D02*
X070817Y041222D01*
X070893Y041146D02*
X071047Y041146D01*
X071123Y041222D01*
X071123Y041529D01*
X071047Y041606D01*
X070893Y041606D01*
X070817Y041529D01*
X070663Y041529D02*
X070663Y041453D01*
X070586Y041376D01*
X070433Y041376D01*
X070356Y041299D01*
X070356Y041222D01*
X070433Y041146D01*
X070586Y041146D01*
X070663Y041222D01*
X070663Y041299D01*
X070586Y041376D01*
X070461Y041356D02*
X070461Y040896D01*
X070461Y041356D02*
X070384Y041356D01*
X070433Y041376D02*
X070356Y041453D01*
X070356Y041529D01*
X070433Y041606D01*
X070586Y041606D01*
X070663Y041529D01*
X071151Y041356D02*
X071305Y041203D01*
X071458Y041356D01*
X071458Y040896D01*
X071611Y040896D02*
X071611Y041356D01*
X071765Y041203D01*
X071918Y041356D01*
X071918Y040896D01*
X072072Y040972D02*
X072149Y040896D01*
X072302Y040896D01*
X072379Y040972D01*
X072532Y040896D02*
X072839Y041356D01*
X072993Y041279D02*
X072993Y041203D01*
X073069Y041126D01*
X073223Y041126D01*
X073300Y041049D01*
X073300Y040972D01*
X073223Y040896D01*
X073069Y040896D01*
X072993Y040972D01*
X072993Y041279D02*
X073069Y041356D01*
X073223Y041356D01*
X073300Y041279D01*
X073453Y041356D02*
X073683Y041356D01*
X073760Y041279D01*
X073760Y040972D01*
X073683Y040896D01*
X073453Y040896D01*
X073453Y041356D01*
X072379Y041279D02*
X072302Y041356D01*
X072149Y041356D01*
X072072Y041279D01*
X072072Y040972D01*
X071624Y040665D02*
X071624Y040512D01*
X071547Y040435D01*
X071624Y040665D02*
X071547Y040742D01*
X071470Y040742D01*
X071163Y040435D01*
X071163Y040742D01*
X071151Y040896D02*
X071151Y041356D01*
X070784Y040366D02*
X070493Y040366D01*
X071163Y040282D02*
X071163Y039975D01*
X071163Y040128D02*
X071624Y040128D01*
X071470Y039975D01*
X071394Y039821D02*
X071317Y039745D01*
X071317Y039514D01*
X071163Y039514D02*
X071624Y039514D01*
X071624Y039745D01*
X071547Y039821D01*
X071394Y039821D01*
X071317Y039668D02*
X071163Y039821D01*
X069769Y042271D02*
X069308Y042271D01*
X069308Y042501D01*
X069385Y042578D01*
X069692Y042578D01*
X069769Y042501D01*
X069769Y042271D01*
X069615Y042731D02*
X069769Y042884D01*
X069615Y043038D01*
X069308Y043038D01*
X069308Y043191D02*
X069615Y043498D01*
X069692Y043498D01*
X069769Y043422D01*
X069769Y043268D01*
X069692Y043191D01*
X069539Y043038D02*
X069539Y042731D01*
X069615Y042731D02*
X069308Y042731D01*
X069308Y043191D02*
X069308Y043498D01*
X067419Y044833D02*
X067419Y045293D01*
X067189Y045293D01*
X067112Y045217D01*
X067112Y045063D01*
X067189Y044987D01*
X067419Y044987D01*
X067266Y044987D02*
X067112Y044833D01*
X066959Y044910D02*
X066882Y044833D01*
X066729Y044833D01*
X066652Y044910D01*
X066652Y044987D01*
X066729Y045063D01*
X066959Y045063D01*
X066959Y044910D01*
X066959Y045063D02*
X066805Y045217D01*
X066652Y045293D01*
X065794Y045396D02*
X065794Y045856D01*
X065564Y045856D01*
X065487Y045779D01*
X065487Y045626D01*
X065564Y045549D01*
X065794Y045549D01*
X065641Y045549D02*
X065487Y045396D01*
X065334Y045472D02*
X065257Y045396D01*
X065104Y045396D01*
X065027Y045472D01*
X065027Y045779D01*
X065104Y045856D01*
X065257Y045856D01*
X065334Y045779D01*
X065334Y045703D01*
X065257Y045626D01*
X065027Y045626D01*
X064942Y046333D02*
X064942Y046793D01*
X064712Y046793D01*
X064635Y046717D01*
X064635Y046563D01*
X064712Y046487D01*
X064942Y046487D01*
X064789Y046487D02*
X064635Y046333D01*
X064482Y046333D02*
X064175Y046333D01*
X064328Y046333D02*
X064328Y046793D01*
X064482Y046640D01*
X064021Y046717D02*
X063945Y046793D01*
X063791Y046793D01*
X063714Y046717D01*
X064021Y046410D01*
X063945Y046333D01*
X063791Y046333D01*
X063714Y046410D01*
X063714Y046717D01*
X064021Y046717D02*
X064021Y046410D01*
X065979Y043981D02*
X065902Y043904D01*
X065902Y043828D01*
X065979Y043751D01*
X066132Y043751D01*
X066209Y043828D01*
X066209Y043904D01*
X066132Y043981D01*
X065979Y043981D01*
X065979Y043751D02*
X065902Y043674D01*
X065902Y043597D01*
X065979Y043521D01*
X066132Y043521D01*
X066209Y043597D01*
X066209Y043674D01*
X066132Y043751D01*
X066362Y043751D02*
X066439Y043674D01*
X066669Y043674D01*
X066516Y043674D02*
X066362Y043521D01*
X066362Y043751D02*
X066362Y043904D01*
X066439Y043981D01*
X066669Y043981D01*
X066669Y043521D01*
X065794Y042481D02*
X065564Y042481D01*
X065487Y042404D01*
X065487Y042251D01*
X065564Y042174D01*
X065794Y042174D01*
X065641Y042174D02*
X065487Y042021D01*
X065334Y042097D02*
X065257Y042021D01*
X065104Y042021D01*
X065027Y042097D01*
X065027Y042251D01*
X065104Y042328D01*
X065180Y042328D01*
X065334Y042251D01*
X065334Y042481D01*
X065027Y042481D01*
X065794Y042481D02*
X065794Y042021D01*
X058436Y046646D02*
X058436Y047106D01*
X058206Y047106D01*
X058129Y047029D01*
X058129Y046876D01*
X058206Y046799D01*
X058436Y046799D01*
X058283Y046799D02*
X058129Y046646D01*
X057976Y046876D02*
X057669Y046876D01*
X057745Y047106D02*
X057976Y046876D01*
X057745Y046646D02*
X057745Y047106D01*
X056528Y046713D02*
X056528Y046413D01*
X056009Y046423D02*
X056009Y046713D01*
X055561Y046847D02*
X055561Y047154D01*
X055484Y047231D01*
X055331Y047231D01*
X055254Y047154D01*
X055101Y047231D02*
X055101Y046771D01*
X054794Y046771D01*
X054640Y046771D02*
X054333Y046771D01*
X054487Y046771D02*
X054487Y047231D01*
X054640Y047078D01*
X054794Y047231D02*
X055101Y047231D01*
X055101Y047001D02*
X054947Y047001D01*
X055254Y046847D02*
X055331Y046771D01*
X055484Y046771D01*
X055561Y046847D01*
X068777Y034106D02*
X068930Y034029D01*
X069084Y033876D01*
X068854Y033876D01*
X068777Y033799D01*
X068777Y033722D01*
X068854Y033646D01*
X069007Y033646D01*
X069084Y033722D01*
X069084Y033876D01*
X069237Y033646D02*
X069544Y033646D01*
X069391Y033646D02*
X069391Y034106D01*
X069544Y033953D01*
X069698Y034029D02*
X069698Y033876D01*
X069774Y033799D01*
X070005Y033799D01*
X070005Y033646D02*
X070005Y034106D01*
X069774Y034106D01*
X069698Y034029D01*
X069851Y033799D02*
X069698Y033646D01*
X074538Y039146D02*
X074999Y039146D01*
X074999Y039376D01*
X074922Y039453D01*
X074769Y039453D01*
X074692Y039376D01*
X074692Y039146D01*
X074692Y039299D02*
X074538Y039453D01*
X074538Y039606D02*
X074538Y039913D01*
X074538Y040066D02*
X074538Y040373D01*
X074538Y040220D02*
X074999Y040220D01*
X074845Y040066D01*
X074999Y039759D02*
X074538Y039759D01*
X074845Y039606D02*
X074999Y039759D01*
X077413Y041966D02*
X077413Y042120D01*
X077490Y042196D01*
X077413Y042350D02*
X077413Y042657D01*
X077413Y042810D02*
X077874Y042810D01*
X077874Y043040D01*
X077797Y043117D01*
X077644Y043117D01*
X077567Y043040D01*
X077567Y042810D01*
X077413Y042503D02*
X077874Y042503D01*
X077720Y042350D01*
X077797Y042196D02*
X077874Y042120D01*
X077874Y041966D01*
X077797Y041889D01*
X077490Y041889D01*
X077413Y041966D01*
X078134Y042601D02*
X078134Y042901D01*
X078538Y042955D02*
X078538Y042802D01*
X078615Y042725D01*
X078653Y042601D02*
X078653Y042891D01*
X078769Y042878D02*
X078769Y042955D01*
X078692Y043032D01*
X078615Y043032D01*
X078538Y042955D01*
X078538Y043185D02*
X078999Y043185D01*
X078999Y043415D01*
X078922Y043492D01*
X078769Y043492D01*
X078692Y043415D01*
X078692Y043185D01*
X078845Y043032D02*
X078769Y042955D01*
X078845Y043032D02*
X078922Y043032D01*
X078999Y042955D01*
X078999Y042802D01*
X078922Y042725D01*
X078922Y042571D02*
X078999Y042495D01*
X078999Y042341D01*
X078922Y042264D01*
X078615Y042264D01*
X078538Y042341D01*
X078538Y042495D01*
X078615Y042571D01*
X079259Y042976D02*
X079259Y043276D01*
X079240Y043764D02*
X079163Y043841D01*
X079163Y043995D01*
X079240Y044071D01*
X079163Y044225D02*
X079470Y044532D01*
X079547Y044532D01*
X079624Y044455D01*
X079624Y044302D01*
X079547Y044225D01*
X079547Y044071D02*
X079624Y043995D01*
X079624Y043841D01*
X079547Y043764D01*
X079240Y043764D01*
X079163Y044225D02*
X079163Y044532D01*
X079163Y044685D02*
X079624Y044685D01*
X079624Y044915D01*
X079547Y044992D01*
X079394Y044992D01*
X079317Y044915D01*
X079317Y044685D01*
X079884Y044776D02*
X079884Y044476D01*
X080403Y044476D02*
X080403Y044766D01*
X079778Y043266D02*
X079778Y042976D01*
X024998Y010154D02*
X024998Y009847D01*
X024922Y009771D01*
X024768Y009771D01*
X024692Y009847D01*
X024538Y009771D02*
X024385Y009924D01*
X024231Y009771D01*
X024231Y010231D01*
X024078Y010154D02*
X024001Y010231D01*
X023847Y010231D01*
X023771Y010154D01*
X023771Y010078D01*
X024078Y009771D01*
X023771Y009771D01*
X023617Y009847D02*
X023541Y009771D01*
X023387Y009771D01*
X023310Y009847D01*
X023310Y010154D01*
X023387Y010231D01*
X023541Y010231D01*
X023617Y010154D01*
X023617Y010078D01*
X023541Y010001D01*
X023310Y010001D01*
X022953Y009871D02*
X022953Y010631D01*
X022334Y010631D02*
X022334Y009871D01*
X024538Y009771D02*
X024538Y010231D01*
X024692Y010154D02*
X024768Y010231D01*
X024922Y010231D01*
X024998Y010154D01*
X019998Y010231D02*
X019768Y010231D01*
X019692Y010154D01*
X019692Y010001D01*
X019768Y009924D01*
X019998Y009924D01*
X019845Y009924D02*
X019692Y009771D01*
X019538Y009771D02*
X019231Y010078D01*
X019231Y010154D01*
X019308Y010231D01*
X019461Y010231D01*
X019538Y010154D01*
X019538Y009771D02*
X019231Y009771D01*
X019078Y009771D02*
X018771Y010078D01*
X018771Y010154D01*
X018847Y010231D01*
X019001Y010231D01*
X019078Y010154D01*
X019078Y009771D02*
X018771Y009771D01*
X019998Y009771D02*
X019998Y010231D01*
X019998Y013521D02*
X019998Y013981D01*
X019768Y013981D01*
X019692Y013904D01*
X019692Y013751D01*
X019768Y013674D01*
X019998Y013674D01*
X019845Y013674D02*
X019692Y013521D01*
X019538Y013521D02*
X019231Y013828D01*
X019231Y013904D01*
X019308Y013981D01*
X019461Y013981D01*
X019538Y013904D01*
X019538Y013521D02*
X019231Y013521D01*
X019198Y014396D02*
X019351Y014549D01*
X019274Y014549D02*
X019505Y014549D01*
X019505Y014396D02*
X019505Y014856D01*
X019274Y014856D01*
X019198Y014779D01*
X019198Y014626D01*
X019274Y014549D01*
X019044Y014396D02*
X018737Y014703D01*
X018737Y014779D01*
X018814Y014856D01*
X018968Y014856D01*
X019044Y014779D01*
X019044Y014396D02*
X018737Y014396D01*
X018584Y014472D02*
X018507Y014396D01*
X018354Y014396D01*
X018277Y014472D01*
X018277Y014549D01*
X018354Y014626D01*
X018430Y014626D01*
X018354Y014626D02*
X018277Y014703D01*
X018277Y014779D01*
X018354Y014856D01*
X018507Y014856D01*
X018584Y014779D01*
X019959Y033746D02*
X019959Y034506D01*
X020578Y034506D02*
X020578Y033746D01*
X020902Y033771D02*
X021209Y033771D01*
X021209Y034231D01*
X021362Y034154D02*
X021362Y034001D01*
X021439Y033924D01*
X021669Y033924D01*
X021516Y033924D02*
X021362Y033771D01*
X021669Y033771D02*
X021669Y034231D01*
X021439Y034231D01*
X021362Y034154D01*
X021823Y034154D02*
X021899Y034231D01*
X022053Y034231D01*
X022130Y034154D01*
X022130Y033847D01*
X022053Y033771D01*
X021899Y033771D01*
X021823Y033847D01*
D12*
X017481Y011626D03*
X018061Y011626D03*
X018306Y013875D03*
X017726Y013875D03*
X055726Y019250D03*
X056306Y019250D03*
X069726Y014500D03*
X070306Y014500D03*
X074106Y030001D03*
X074686Y030001D03*
X076106Y030001D03*
X076686Y030001D03*
X077106Y032876D03*
X077686Y032876D03*
X075686Y032876D03*
X075106Y032876D03*
X069181Y034625D03*
X068601Y034625D03*
X069476Y039000D03*
X070056Y039000D03*
X072226Y038875D03*
X072806Y038875D03*
X064056Y042750D03*
X063476Y042750D03*
X063476Y043625D03*
X064056Y043625D03*
X064056Y044500D03*
X063476Y044500D03*
X062869Y045813D03*
X062289Y045813D03*
X059873Y046501D03*
X059293Y046501D03*
D13*
X038393Y022306D03*
X038393Y021196D03*
X039768Y019806D03*
X039768Y018696D03*
D14*
X052143Y020338D03*
X052143Y020918D03*
X053394Y019039D03*
X053394Y018459D03*
X054394Y018459D03*
X054394Y019039D03*
X054768Y021463D03*
X054768Y022043D03*
X056518Y022043D03*
X056518Y021463D03*
X057393Y021463D03*
X057393Y022043D03*
X058393Y022043D03*
X058393Y021463D03*
X059393Y021463D03*
X059393Y022043D03*
X060393Y022043D03*
X060393Y021463D03*
X061393Y021463D03*
X061393Y022043D03*
X059144Y019664D03*
X059144Y019084D03*
X058144Y019709D03*
X058144Y020289D03*
X055394Y025709D03*
X055394Y026289D03*
X068394Y022039D03*
X068394Y021459D03*
X068518Y039088D03*
X068518Y039668D03*
X068018Y040713D03*
X068018Y041293D03*
X069393Y041293D03*
X069393Y040713D03*
X074019Y039664D03*
X074019Y039084D03*
D15*
X072143Y039856D03*
X072143Y040896D03*
X065206Y043106D03*
X065206Y044146D03*
X053893Y022146D03*
X053893Y021106D03*
X053018Y021021D03*
X053018Y019981D03*
X062143Y009896D03*
X062143Y008856D03*
X065143Y008856D03*
X065143Y009896D03*
D16*
X068373Y009501D03*
X069413Y009501D03*
X060413Y009376D03*
X059373Y009376D03*
X056413Y018376D03*
X055373Y018376D03*
X055538Y020126D03*
X054498Y020126D03*
X052413Y018876D03*
X051373Y018876D03*
X075623Y027001D03*
X076663Y027001D03*
D17*
X076486Y024000D03*
X077056Y024000D03*
X058056Y018500D03*
X057486Y018500D03*
X034051Y019751D03*
X033481Y019751D03*
X070356Y040626D03*
X070926Y040626D03*
D18*
X078393Y042463D03*
X078393Y043033D03*
X079518Y042838D03*
X079518Y043408D03*
X080143Y044338D03*
X080143Y044908D03*
X056269Y046281D03*
X056269Y046851D03*
X051268Y020908D03*
X051268Y020338D03*
X046519Y017913D03*
X046519Y017343D03*
D19*
X019323Y012751D03*
X018213Y012751D03*
X075463Y022001D03*
X076573Y022001D03*
D20*
X076666Y025750D03*
X075621Y025751D03*
D21*
X055643Y022091D03*
X055643Y021411D03*
D22*
X056518Y025478D03*
X056519Y026523D03*
X022644Y010773D03*
X022643Y009728D03*
X020268Y033603D03*
X020269Y034648D03*
D23*
X068568Y041960D02*
X069968Y041960D01*
X069968Y044541D01*
X068568Y044541D01*
X068568Y041960D01*
D24*
X070343Y043251D03*
X070343Y043251D03*
D25*
X068193Y043251D03*
X068193Y043251D03*
X068193Y044161D03*
X068193Y044161D03*
X068193Y042341D03*
X068193Y042341D03*
M02*
