G75*
G70*
%OFA0B0*%
%FSLAX24Y24*%
%IPPOS*%
%LPD*%
%AMOC8*
5,1,8,0,0,1.08239X$1,22.5*
%
%ADD10C,0.0700*%
%ADD11C,0.0635*%
%ADD12C,0.0630*%
%ADD13C,0.0555*%
%ADD14R,0.0512X0.0591*%
%ADD15R,0.0710X0.0630*%
%ADD16R,0.0787X0.0630*%
%ADD17R,0.0591X0.0512*%
%ADD18C,0.0860*%
%ADD19R,0.0630X0.0710*%
%ADD20OC8,0.0635*%
%ADD21C,0.0635*%
%ADD22C,0.0715*%
%ADD23OC8,0.0715*%
%ADD24C,0.0669*%
%ADD25C,0.1266*%
%ADD26C,0.0827*%
%ADD27R,0.0630X0.0787*%
%ADD28R,0.0630X0.0709*%
%ADD29R,0.0630X0.0512*%
%ADD30C,0.0835*%
%ADD31R,0.0709X0.0630*%
%ADD32C,0.0715*%
%ADD33C,0.0320*%
%ADD34C,0.0240*%
%ADD35C,0.0120*%
%ADD36C,0.0160*%
%ADD37C,0.0400*%
%ADD38C,0.1969*%
D10*
X045893Y032158D03*
X045893Y033158D03*
X044893Y033158D03*
X044893Y034158D03*
X044893Y035158D03*
X045893Y035158D03*
X045893Y034158D03*
X046893Y033158D03*
X046893Y032158D03*
X047893Y032158D03*
X047893Y033158D03*
X048893Y033158D03*
X048893Y032158D03*
X049893Y032158D03*
X049893Y033158D03*
X050893Y033158D03*
X050893Y032158D03*
X051893Y032158D03*
X051893Y033158D03*
X052893Y033158D03*
X052893Y032158D03*
X053893Y032158D03*
X053893Y033158D03*
X054893Y033158D03*
X054893Y032158D03*
X055893Y032158D03*
X055893Y033158D03*
X056893Y033158D03*
X056893Y034158D03*
X055893Y034158D03*
X055893Y035158D03*
X056893Y035158D03*
X056893Y036158D03*
X055893Y036158D03*
X055893Y037158D03*
X056893Y037158D03*
X056893Y038158D03*
X055893Y038158D03*
X055893Y039158D03*
X056893Y039158D03*
X056893Y040158D03*
X055893Y040158D03*
X055893Y041158D03*
X055893Y042158D03*
X056893Y042158D03*
X056893Y041158D03*
X056893Y043158D03*
X055893Y043158D03*
X054893Y043158D03*
X053893Y043158D03*
X052893Y043158D03*
X051893Y043158D03*
X050893Y043158D03*
X049893Y043158D03*
X048893Y043158D03*
X047893Y043158D03*
X046893Y043158D03*
X045893Y043158D03*
X044893Y043158D03*
X045893Y044158D03*
X046893Y044158D03*
X047893Y044158D03*
X048893Y044158D03*
X049893Y044158D03*
X050893Y044158D03*
X051893Y044158D03*
X052893Y044158D03*
X053893Y044158D03*
X054893Y044158D03*
X055893Y044158D03*
X045893Y042158D03*
X044893Y042158D03*
X044893Y041158D03*
X044893Y040158D03*
X045893Y040158D03*
X045893Y041158D03*
X045893Y039158D03*
X044893Y039158D03*
X044893Y038158D03*
X045893Y038158D03*
X045893Y037158D03*
X044893Y037158D03*
X044893Y036158D03*
X045893Y036158D03*
D11*
X041961Y035658D02*
X041326Y035658D01*
X041326Y036658D02*
X041961Y036658D01*
X041961Y037658D02*
X041326Y037658D01*
X041326Y038658D02*
X041961Y038658D01*
X041961Y039658D02*
X041326Y039658D01*
X041326Y040658D02*
X041961Y040658D01*
X041961Y041658D02*
X041326Y041658D01*
X041326Y042658D02*
X041961Y042658D01*
X041961Y043658D02*
X041326Y043658D01*
X041326Y044658D02*
X041961Y044658D01*
X041961Y045658D02*
X041326Y045658D01*
X041326Y046658D02*
X041961Y046658D01*
X041961Y047658D02*
X041326Y047658D01*
X035961Y047658D02*
X035326Y047658D01*
X034207Y047654D02*
X033572Y047654D01*
X033572Y048654D02*
X034207Y048654D01*
X034207Y046654D02*
X033572Y046654D01*
X033572Y045654D02*
X034207Y045654D01*
X035326Y045658D02*
X035961Y045658D01*
X035961Y046658D02*
X035326Y046658D01*
X035326Y044658D02*
X035961Y044658D01*
X035961Y043658D02*
X035326Y043658D01*
X034207Y043654D02*
X033572Y043654D01*
X033572Y044654D02*
X034207Y044654D01*
X034207Y042654D02*
X033572Y042654D01*
X033572Y041654D02*
X034207Y041654D01*
X035326Y041658D02*
X035961Y041658D01*
X035961Y042658D02*
X035326Y042658D01*
X035326Y040658D02*
X035961Y040658D01*
X035961Y039658D02*
X035326Y039658D01*
X034207Y039654D02*
X033572Y039654D01*
X033572Y040654D02*
X034207Y040654D01*
X035326Y038658D02*
X035961Y038658D01*
X035961Y037658D02*
X035326Y037658D01*
X035326Y036658D02*
X035961Y036658D01*
X035961Y035658D02*
X035326Y035658D01*
X035326Y034658D02*
X035961Y034658D01*
X041326Y034658D02*
X041961Y034658D01*
X031207Y039654D02*
X030572Y039654D01*
X030572Y040654D02*
X031207Y040654D01*
X031207Y041654D02*
X030572Y041654D01*
X030572Y042654D02*
X031207Y042654D01*
X031207Y043654D02*
X030572Y043654D01*
X030572Y044654D02*
X031207Y044654D01*
X031207Y045654D02*
X030572Y045654D01*
X030572Y046654D02*
X031207Y046654D01*
X031207Y047654D02*
X030572Y047654D01*
X030572Y048654D02*
X031207Y048654D01*
X028508Y048653D02*
X027873Y048653D01*
X027873Y047653D02*
X028508Y047653D01*
X028508Y046653D02*
X027873Y046653D01*
X027873Y045653D02*
X028508Y045653D01*
X028508Y044653D02*
X027873Y044653D01*
X027873Y043653D02*
X028508Y043653D01*
X028508Y042653D02*
X027873Y042653D01*
X027873Y041653D02*
X028508Y041653D01*
X028508Y040653D02*
X027873Y040653D01*
X027873Y039653D02*
X028508Y039653D01*
X025508Y039653D02*
X024873Y039653D01*
X024873Y040653D02*
X025508Y040653D01*
X025508Y041653D02*
X024873Y041653D01*
X024873Y042653D02*
X025508Y042653D01*
X025508Y043653D02*
X024873Y043653D01*
X024873Y044653D02*
X025508Y044653D01*
X025508Y045653D02*
X024873Y045653D01*
X024873Y046653D02*
X025508Y046653D01*
X025508Y047653D02*
X024873Y047653D01*
X024873Y048653D02*
X025508Y048653D01*
X022336Y048658D02*
X021701Y048658D01*
X021701Y047658D02*
X022336Y047658D01*
X022336Y046658D02*
X021701Y046658D01*
X021701Y045658D02*
X022336Y045658D01*
X022336Y044658D02*
X021701Y044658D01*
X021701Y043658D02*
X022336Y043658D01*
X022336Y042658D02*
X021701Y042658D01*
X021701Y041658D02*
X022336Y041658D01*
X022336Y040658D02*
X021701Y040658D01*
X021701Y039658D02*
X022336Y039658D01*
X022336Y038658D02*
X021701Y038658D01*
X021701Y037658D02*
X022336Y037658D01*
X022336Y036658D02*
X021701Y036658D01*
X021701Y035658D02*
X022336Y035658D01*
X022336Y034658D02*
X021701Y034658D01*
X021701Y033658D02*
X022336Y033658D01*
X022772Y031165D02*
X022772Y030530D01*
X021772Y030530D02*
X021772Y031165D01*
X020772Y031165D02*
X020772Y030530D01*
X019772Y030530D02*
X019772Y031165D01*
X018772Y031165D02*
X018772Y030530D01*
X017772Y030530D02*
X017772Y031165D01*
X016772Y031165D02*
X016772Y030530D01*
X015772Y030530D02*
X015772Y031165D01*
X014772Y031165D02*
X014772Y030530D01*
X014772Y028165D02*
X014772Y027530D01*
X015772Y027530D02*
X015772Y028165D01*
X016772Y028165D02*
X016772Y027530D01*
X017772Y027530D02*
X017772Y028165D01*
X018772Y028165D02*
X018772Y027530D01*
X019772Y027530D02*
X019772Y028165D01*
X020772Y028165D02*
X020772Y027530D01*
X021772Y027530D02*
X021772Y028165D01*
X022772Y028165D02*
X022772Y027530D01*
X023772Y027530D02*
X023772Y028165D01*
X023772Y030530D02*
X023772Y031165D01*
X025576Y026533D02*
X026211Y026533D01*
X026211Y025533D02*
X025576Y025533D01*
X025576Y024533D02*
X026211Y024533D01*
X026211Y023533D02*
X025576Y023533D01*
X025576Y022533D02*
X026211Y022533D01*
X026211Y021533D02*
X025576Y021533D01*
X025576Y020533D02*
X026211Y020533D01*
X026211Y019533D02*
X025576Y019533D01*
X025576Y018533D02*
X026211Y018533D01*
X026211Y017533D02*
X025576Y017533D01*
X025576Y016533D02*
X026211Y016533D01*
X026211Y015533D02*
X025576Y015533D01*
X025576Y014533D02*
X026211Y014533D01*
X026211Y013533D02*
X025576Y013533D01*
X025576Y012533D02*
X026211Y012533D01*
X026211Y011533D02*
X025576Y011533D01*
X025576Y010533D02*
X026211Y010533D01*
X026211Y009533D02*
X025576Y009533D01*
X025576Y008533D02*
X026211Y008533D01*
X026211Y007533D02*
X025576Y007533D01*
X022336Y007533D02*
X021701Y007533D01*
X021701Y008533D02*
X022336Y008533D01*
X022336Y009533D02*
X021701Y009533D01*
X021701Y010533D02*
X022336Y010533D01*
X022336Y011533D02*
X021701Y011533D01*
X021701Y012533D02*
X022336Y012533D01*
X022336Y013533D02*
X021701Y013533D01*
X021701Y014533D02*
X022336Y014533D01*
X022336Y015533D02*
X021701Y015533D01*
X021701Y016533D02*
X022336Y016533D01*
X022336Y017533D02*
X021701Y017533D01*
X021701Y018533D02*
X022336Y018533D01*
X022336Y019533D02*
X021701Y019533D01*
X021701Y020533D02*
X022336Y020533D01*
X022336Y021533D02*
X021701Y021533D01*
X021701Y022533D02*
X022336Y022533D01*
X016336Y022533D02*
X015701Y022533D01*
X015701Y021533D02*
X016336Y021533D01*
X016336Y020533D02*
X015701Y020533D01*
X015701Y019533D02*
X016336Y019533D01*
X016336Y018533D02*
X015701Y018533D01*
X015701Y017533D02*
X016336Y017533D01*
X016336Y016533D02*
X015701Y016533D01*
X015701Y015533D02*
X016336Y015533D01*
X016336Y014533D02*
X015701Y014533D01*
X015701Y013533D02*
X016336Y013533D01*
X016336Y012533D02*
X015701Y012533D01*
X015701Y011533D02*
X016336Y011533D01*
X016336Y010533D02*
X015701Y010533D01*
X015701Y009533D02*
X016336Y009533D01*
X016336Y008533D02*
X015701Y008533D01*
X015701Y007533D02*
X016336Y007533D01*
X031576Y007533D02*
X032211Y007533D01*
X032211Y008533D02*
X031576Y008533D01*
X031576Y009533D02*
X032211Y009533D01*
X032211Y010533D02*
X031576Y010533D01*
X031576Y011533D02*
X032211Y011533D01*
X032211Y012533D02*
X031576Y012533D01*
X031576Y013533D02*
X032211Y013533D01*
X032211Y014533D02*
X031576Y014533D01*
X031576Y015533D02*
X032211Y015533D01*
X032211Y016533D02*
X031576Y016533D01*
X031576Y017533D02*
X032211Y017533D01*
X032211Y018533D02*
X031576Y018533D01*
X031576Y019533D02*
X032211Y019533D01*
X032211Y020533D02*
X031576Y020533D01*
X031576Y021533D02*
X032211Y021533D01*
X032211Y022533D02*
X031576Y022533D01*
X031576Y023533D02*
X032211Y023533D01*
X032211Y024533D02*
X031576Y024533D01*
X031576Y025533D02*
X032211Y025533D01*
X032211Y026533D02*
X031576Y026533D01*
X035951Y026533D02*
X036586Y026533D01*
X036586Y025533D02*
X035951Y025533D01*
X035951Y024533D02*
X036586Y024533D01*
X036586Y023533D02*
X035951Y023533D01*
X035951Y022533D02*
X036586Y022533D01*
X036586Y021533D02*
X035951Y021533D01*
X035951Y020533D02*
X036586Y020533D01*
X036586Y019533D02*
X035951Y019533D01*
X035951Y018533D02*
X036586Y018533D01*
X036586Y017533D02*
X035951Y017533D01*
X035951Y016533D02*
X036586Y016533D01*
X036586Y015533D02*
X035951Y015533D01*
X035951Y014533D02*
X036586Y014533D01*
X036586Y013533D02*
X035951Y013533D01*
X035951Y012533D02*
X036586Y012533D01*
X036586Y011533D02*
X035951Y011533D01*
X035951Y010533D02*
X036586Y010533D01*
X036586Y009533D02*
X035951Y009533D01*
X035951Y008533D02*
X036586Y008533D01*
X036586Y007533D02*
X035951Y007533D01*
X041951Y007533D02*
X042586Y007533D01*
X042586Y008533D02*
X041951Y008533D01*
X041951Y009533D02*
X042586Y009533D01*
X042586Y010533D02*
X041951Y010533D01*
X041951Y011533D02*
X042586Y011533D01*
X042586Y012533D02*
X041951Y012533D01*
X041951Y013533D02*
X042586Y013533D01*
X042586Y014533D02*
X041951Y014533D01*
X041951Y015533D02*
X042586Y015533D01*
X042586Y016533D02*
X041951Y016533D01*
X041951Y017533D02*
X042586Y017533D01*
X042586Y018533D02*
X041951Y018533D01*
X041951Y019533D02*
X042586Y019533D01*
X042586Y020533D02*
X041951Y020533D01*
X041951Y021533D02*
X042586Y021533D01*
X042586Y022533D02*
X041951Y022533D01*
X041951Y023533D02*
X042586Y023533D01*
X042586Y024533D02*
X041951Y024533D01*
X041951Y025533D02*
X042586Y025533D01*
X042586Y026533D02*
X041951Y026533D01*
X046018Y022851D02*
X046018Y022216D01*
X047018Y022216D02*
X047018Y022851D01*
X048018Y022851D02*
X048018Y022216D01*
X049018Y022216D02*
X049018Y022851D01*
X050018Y022851D02*
X050018Y022216D01*
X051018Y022216D02*
X051018Y022851D01*
X052018Y022851D02*
X052018Y022216D01*
X053018Y022216D02*
X053018Y022851D01*
X054018Y022851D02*
X054018Y022216D01*
X055018Y022216D02*
X055018Y022851D01*
X056018Y022851D02*
X056018Y022216D01*
X057018Y022216D02*
X057018Y022851D01*
X058018Y022851D02*
X058018Y022216D01*
X059018Y022216D02*
X059018Y022851D01*
X060018Y022851D02*
X060018Y022216D01*
X061018Y022216D02*
X061018Y022851D01*
X062018Y022851D02*
X062018Y022216D01*
X063018Y022216D02*
X063018Y022851D01*
X064018Y022851D02*
X064018Y022216D01*
X065018Y022216D02*
X065018Y022851D01*
X070076Y025408D02*
X070711Y025408D01*
X070711Y026408D02*
X070076Y026408D01*
X070076Y027408D02*
X070711Y027408D01*
X070711Y028408D02*
X070076Y028408D01*
X070076Y029408D02*
X070711Y029408D01*
X070711Y030408D02*
X070076Y030408D01*
X070076Y031408D02*
X070711Y031408D01*
X068018Y030476D02*
X068018Y029841D01*
X067018Y029841D02*
X067018Y030476D01*
X066018Y030476D02*
X066018Y029841D01*
X065018Y029841D02*
X065018Y030476D01*
X064018Y030476D02*
X064018Y029841D01*
X063018Y029841D02*
X063018Y030476D01*
X062018Y030476D02*
X062018Y029841D01*
X062018Y027476D02*
X062018Y026841D01*
X063018Y026841D02*
X063018Y027476D01*
X064018Y027476D02*
X064018Y026841D01*
X065018Y026841D02*
X065018Y027476D01*
X066018Y027476D02*
X066018Y026841D01*
X067018Y026841D02*
X067018Y027476D01*
X068018Y027476D02*
X068018Y026841D01*
X073076Y026408D02*
X073711Y026408D01*
X073711Y025408D02*
X073076Y025408D01*
X073076Y027408D02*
X073711Y027408D01*
X073711Y028408D02*
X073076Y028408D01*
X073076Y029408D02*
X073711Y029408D01*
X073711Y030408D02*
X073076Y030408D01*
X073076Y031408D02*
X073711Y031408D01*
X074326Y022658D02*
X074961Y022658D01*
X074961Y021658D02*
X074326Y021658D01*
X074326Y020658D02*
X074961Y020658D01*
X074961Y019658D02*
X074326Y019658D01*
X074326Y018658D02*
X074961Y018658D01*
X074961Y017658D02*
X074326Y017658D01*
X074326Y016658D02*
X074961Y016658D01*
X074961Y015658D02*
X074326Y015658D01*
X074326Y014658D02*
X074961Y014658D01*
X074961Y013658D02*
X074326Y013658D01*
X074326Y012658D02*
X074961Y012658D01*
X074961Y011658D02*
X074326Y011658D01*
X078326Y011658D02*
X078961Y011658D01*
X078961Y012658D02*
X078326Y012658D01*
X078326Y013658D02*
X078961Y013658D01*
X078961Y014658D02*
X078326Y014658D01*
X078326Y015658D02*
X078961Y015658D01*
X078961Y016658D02*
X078326Y016658D01*
X078326Y017658D02*
X078961Y017658D01*
X078961Y018658D02*
X078326Y018658D01*
X078326Y019658D02*
X078961Y019658D01*
X078961Y020658D02*
X078326Y020658D01*
X078326Y021658D02*
X078961Y021658D01*
X078961Y022658D02*
X078326Y022658D01*
X065018Y016851D02*
X065018Y016216D01*
X064018Y016216D02*
X064018Y016851D01*
X063018Y016851D02*
X063018Y016216D01*
X062018Y016216D02*
X062018Y016851D01*
X061018Y016851D02*
X061018Y016216D01*
X060018Y016216D02*
X060018Y016851D01*
X059018Y016851D02*
X059018Y016216D01*
X058018Y016216D02*
X058018Y016851D01*
X057018Y016851D02*
X057018Y016216D01*
X056018Y016216D02*
X056018Y016851D01*
X055018Y016851D02*
X055018Y016216D01*
X054018Y016216D02*
X054018Y016851D01*
X053018Y016851D02*
X053018Y016216D01*
X052018Y016216D02*
X052018Y016851D01*
X051018Y016851D02*
X051018Y016216D01*
X050018Y016216D02*
X050018Y016851D01*
X049018Y016851D02*
X049018Y016216D01*
X048018Y016216D02*
X048018Y016851D01*
X047018Y016851D02*
X047018Y016216D01*
X046018Y016216D02*
X046018Y016851D01*
X016336Y033658D02*
X015701Y033658D01*
X015701Y034658D02*
X016336Y034658D01*
X016336Y035658D02*
X015701Y035658D01*
X015701Y036658D02*
X016336Y036658D01*
X016336Y037658D02*
X015701Y037658D01*
X015701Y038658D02*
X016336Y038658D01*
X016336Y039658D02*
X015701Y039658D01*
X015701Y040658D02*
X016336Y040658D01*
X016336Y041658D02*
X015701Y041658D01*
X015701Y042658D02*
X016336Y042658D01*
X016336Y043658D02*
X015701Y043658D01*
X015701Y044658D02*
X016336Y044658D01*
X016336Y045658D02*
X015701Y045658D01*
X015701Y046658D02*
X016336Y046658D01*
X016336Y047658D02*
X015701Y047658D01*
X015701Y048658D02*
X016336Y048658D01*
X067393Y045101D02*
X067393Y044466D01*
X068393Y044466D02*
X068393Y045101D01*
X069393Y045101D02*
X069393Y044466D01*
X095826Y020033D02*
X096461Y020033D01*
X096461Y019033D02*
X095826Y019033D01*
X095826Y018033D02*
X096461Y018033D01*
X096461Y017033D02*
X095826Y017033D01*
X095826Y016033D02*
X096461Y016033D01*
X096461Y015033D02*
X095826Y015033D01*
X095826Y014033D02*
X096461Y014033D01*
X096461Y013033D02*
X095826Y013033D01*
X095826Y012033D02*
X096461Y012033D01*
X096461Y011033D02*
X095826Y011033D01*
X095826Y010033D02*
X096461Y010033D01*
X096461Y009033D02*
X095826Y009033D01*
X099826Y009033D02*
X100461Y009033D01*
X100461Y010033D02*
X099826Y010033D01*
X099826Y011033D02*
X100461Y011033D01*
X100461Y012033D02*
X099826Y012033D01*
X099826Y013033D02*
X100461Y013033D01*
X100461Y014033D02*
X099826Y014033D01*
X099826Y015033D02*
X100461Y015033D01*
X100461Y016033D02*
X099826Y016033D01*
X099826Y017033D02*
X100461Y017033D01*
X100461Y018033D02*
X099826Y018033D01*
X099826Y019033D02*
X100461Y019033D01*
X100461Y020033D02*
X099826Y020033D01*
D12*
X038958Y034658D02*
X038329Y034658D01*
X038329Y035658D02*
X038958Y035658D01*
X038958Y036658D02*
X038329Y036658D01*
X038329Y037658D02*
X038958Y037658D01*
X038958Y038658D02*
X038329Y038658D01*
X038329Y039658D02*
X038958Y039658D01*
X038958Y040658D02*
X038329Y040658D01*
X038329Y041658D02*
X038958Y041658D01*
X038958Y042658D02*
X038329Y042658D01*
X038329Y043658D02*
X038958Y043658D01*
X038958Y044658D02*
X038329Y044658D01*
X038329Y045658D02*
X038958Y045658D01*
X038958Y046658D02*
X038329Y046658D01*
X038329Y047658D02*
X038958Y047658D01*
D13*
X065768Y031686D02*
X065768Y031131D01*
X067768Y031131D02*
X067768Y031686D01*
X066643Y025811D02*
X066643Y025256D01*
X064643Y025256D02*
X064643Y025811D01*
D14*
X064892Y028158D03*
X064144Y028158D03*
X065144Y029033D03*
X065892Y029033D03*
X066144Y028158D03*
X066892Y028158D03*
X067144Y029033D03*
X067892Y029033D03*
X073269Y021658D03*
X074017Y021658D03*
X074017Y020658D03*
X073269Y020658D03*
X073144Y019658D03*
X073892Y019658D03*
X075769Y018158D03*
X076517Y018158D03*
X061517Y013408D03*
X060769Y013408D03*
X052767Y017783D03*
X052019Y017783D03*
X051017Y018658D03*
X050269Y018658D03*
X046642Y021283D03*
X045894Y021283D03*
X028767Y018533D03*
X028019Y018533D03*
X013017Y012658D03*
X012269Y012658D03*
X012019Y010408D03*
X012767Y010408D03*
X057894Y041533D03*
X058642Y041533D03*
X058642Y042408D03*
X057894Y042408D03*
X057894Y043283D03*
X058642Y043283D03*
X057580Y044596D03*
X056832Y044596D03*
X055455Y045158D03*
X054707Y045158D03*
X063269Y040158D03*
X064017Y040158D03*
X063894Y038283D03*
X064642Y038283D03*
X066894Y041158D03*
X067642Y041158D03*
D15*
X059831Y041848D03*
X059831Y042968D03*
X058018Y039218D03*
X058018Y038098D03*
X081268Y022218D03*
X081268Y021098D03*
X081268Y012093D03*
X081268Y010973D03*
X048268Y020348D03*
X047393Y020343D03*
X047393Y019223D03*
X048268Y021468D03*
D16*
X034393Y018585D03*
X034393Y017482D03*
X033018Y019982D03*
X033018Y021085D03*
D17*
X041143Y016782D03*
X041143Y016034D03*
X046393Y019409D03*
X046393Y020157D03*
X048018Y018407D03*
X049018Y018407D03*
X049018Y017659D03*
X048018Y017659D03*
X049143Y020784D03*
X049143Y021532D03*
X051018Y021407D03*
X051018Y020659D03*
X052018Y020659D03*
X052018Y021407D03*
X053018Y021407D03*
X053018Y020659D03*
X054018Y020659D03*
X054018Y021407D03*
X055018Y021407D03*
X055018Y020659D03*
X056018Y020659D03*
X056018Y021407D03*
X052768Y019657D03*
X052768Y018909D03*
X053768Y019032D03*
X053768Y018284D03*
X063018Y020659D03*
X063018Y021407D03*
X067018Y037534D03*
X067018Y038282D03*
X065768Y039409D03*
X065768Y040157D03*
X068518Y041409D03*
X068518Y042157D03*
X069768Y042157D03*
X069768Y041409D03*
X069018Y039657D03*
X069018Y038909D03*
X050893Y044972D03*
X050893Y045720D03*
D18*
X050456Y042283D03*
X050893Y039096D03*
X047518Y039033D03*
X038893Y031033D03*
X035893Y030033D03*
X032893Y032533D03*
X030893Y033783D03*
X029268Y031158D03*
X026268Y027783D03*
X028018Y025783D03*
X028768Y026658D03*
X033768Y027783D03*
X034393Y026158D03*
X036393Y027533D03*
X037643Y027408D03*
X040268Y027283D03*
X045893Y029033D03*
X048018Y026783D03*
X047018Y026408D03*
X049768Y028783D03*
X050893Y028783D03*
X052018Y028783D03*
X053393Y030033D03*
X054893Y030033D03*
X056893Y029283D03*
X056893Y027908D03*
X055893Y027908D03*
X054893Y027908D03*
X058018Y030783D03*
X039768Y019908D03*
X039268Y019033D03*
X039643Y016033D03*
X033893Y014908D03*
X029393Y013658D03*
X028143Y013033D03*
X027393Y012408D03*
X030268Y011783D03*
X028143Y009658D03*
X034018Y008658D03*
X034518Y010033D03*
X028018Y014908D03*
X029706Y018533D03*
X033268Y019033D03*
X033268Y022658D03*
X029706Y022533D03*
X019768Y012533D03*
X019393Y009533D03*
X014893Y016033D03*
X014143Y017658D03*
X011143Y020033D03*
X011393Y022408D03*
X013518Y024158D03*
X014393Y022658D03*
X011018Y011783D03*
X013768Y035283D03*
X027768Y036658D03*
X019018Y047033D03*
X042268Y048783D03*
D19*
X048959Y019533D03*
X050078Y019533D03*
X049959Y017783D03*
X051078Y017783D03*
X047078Y018158D03*
X045959Y018158D03*
X076334Y011658D03*
X077453Y011658D03*
X079959Y019283D03*
X081078Y019283D03*
D20*
X082268Y020283D03*
X082268Y017783D03*
X082268Y015658D03*
X080268Y011283D03*
X082268Y010158D03*
X055518Y014658D03*
X052643Y014658D03*
X058768Y040408D03*
X058768Y044408D03*
X065893Y044658D03*
D21*
X064893Y044658D03*
X065943Y032908D03*
X067843Y032908D03*
X081268Y020283D03*
X081268Y017783D03*
X081268Y015658D03*
X080268Y012283D03*
X081268Y010158D03*
X054518Y014658D03*
X051643Y014658D03*
D22*
X061268Y032033D03*
D23*
X061268Y033033D03*
X062268Y033033D03*
X062268Y032033D03*
X063268Y032033D03*
X063268Y033033D03*
X059893Y033283D03*
X058893Y033283D03*
X058893Y034283D03*
X058893Y035283D03*
X059893Y035283D03*
X059893Y034283D03*
X059893Y036283D03*
X058893Y036283D03*
X058893Y037283D03*
X059893Y037283D03*
D24*
X013732Y010489D03*
X013732Y009505D03*
X012905Y009505D03*
X011882Y009505D03*
X011055Y009505D03*
X011055Y010489D03*
D25*
X012393Y008009D03*
D26*
X053643Y046408D03*
X054643Y046408D03*
X055643Y046408D03*
X057268Y046408D03*
X058268Y046408D03*
X059268Y046408D03*
X059268Y048408D03*
X058268Y048408D03*
X057268Y048408D03*
X055643Y048408D03*
X054643Y048408D03*
X053643Y048408D03*
D27*
X076467Y016658D03*
X077570Y016658D03*
X013945Y011533D03*
X012842Y011533D03*
D28*
X076342Y012658D03*
X077445Y012658D03*
D29*
X081268Y023534D03*
X081268Y024282D03*
X050018Y021532D03*
X050018Y020784D03*
D30*
X049893Y012576D02*
X049893Y011741D01*
X051393Y011741D02*
X051393Y012576D01*
X052893Y012576D02*
X052893Y011741D01*
X054393Y011741D02*
X054393Y012576D01*
X055893Y012576D02*
X055893Y011741D01*
X057393Y011741D02*
X057393Y012576D01*
X058893Y012576D02*
X058893Y011741D01*
X060393Y011741D02*
X060393Y012576D01*
X061893Y012576D02*
X061893Y011741D01*
X063393Y011741D02*
X063393Y012576D01*
X062643Y010576D02*
X062643Y009741D01*
X061143Y009741D02*
X061143Y010576D01*
X059643Y010576D02*
X059643Y009741D01*
X058143Y009741D02*
X058143Y010576D01*
X056643Y010576D02*
X056643Y009741D01*
X055143Y009741D02*
X055143Y010576D01*
X053643Y010576D02*
X053643Y009741D01*
X052143Y009741D02*
X052143Y010576D01*
X050643Y010576D02*
X050643Y009741D01*
X049143Y009741D02*
X049143Y010576D01*
X048393Y011741D02*
X048393Y012576D01*
D31*
X017268Y009585D03*
X017268Y008482D03*
X015018Y032357D03*
X015018Y033460D03*
D32*
X077893Y024641D02*
X077893Y023926D01*
X078893Y023926D02*
X078893Y024641D01*
X079893Y024641D02*
X079893Y023926D01*
X080018Y014016D02*
X080018Y013301D01*
X081018Y013301D02*
X081018Y014016D01*
X082018Y014016D02*
X082018Y013301D01*
D33*
X063018Y020659D02*
X061018Y020659D01*
X061018Y022533D01*
X063018Y022533D02*
X063018Y021407D01*
X061018Y020659D02*
X058018Y020659D01*
X058018Y022533D01*
X056018Y022533D02*
X056018Y021407D01*
X056018Y020659D02*
X055018Y020659D01*
X054018Y020659D01*
X053018Y020659D01*
X052018Y020659D01*
X051018Y020659D01*
X050018Y020784D01*
X049143Y020784D01*
X049143Y021532D02*
X049018Y022533D01*
X048018Y022533D02*
X048268Y021468D01*
X050018Y021532D02*
X050018Y022533D01*
X051018Y022533D02*
X051018Y021407D01*
X052018Y021407D02*
X052018Y022533D01*
X053018Y022533D02*
X053018Y021407D01*
X054018Y021407D02*
X054018Y022533D01*
X055018Y022533D02*
X055018Y021407D01*
X056018Y020659D02*
X058018Y020659D01*
X053768Y019657D02*
X053768Y019032D01*
X053768Y019657D02*
X052768Y019657D01*
X050077Y019657D01*
X050078Y019533D01*
X048959Y019533D02*
X048833Y019534D01*
X049018Y018407D02*
X049959Y017783D01*
X049018Y017659D02*
X049018Y016533D01*
X047642Y018407D02*
X047078Y018158D01*
X047642Y018407D02*
X048018Y018407D01*
X045959Y018158D02*
X046018Y016533D01*
X051078Y017783D02*
X052019Y017783D01*
X052767Y017783D02*
X052768Y018909D01*
X051017Y018658D02*
X051078Y017783D01*
X032018Y034658D02*
X030893Y033783D01*
X032018Y034658D02*
X035643Y034658D01*
X038643Y034658D01*
X039268Y034658D01*
X030886Y039658D02*
X030018Y039658D01*
X028768Y038908D01*
X027268Y038908D01*
X026398Y039653D01*
X025191Y039653D01*
X022018Y046658D02*
X021268Y046658D01*
X020768Y047158D01*
X020768Y048658D01*
X022018Y048658D01*
X017268Y009585D02*
X016018Y009533D01*
X016018Y008533D02*
X017268Y008482D01*
X016018Y008533D02*
X016018Y007533D01*
D34*
X017268Y009585D02*
X017842Y009585D01*
X019268Y008533D01*
X022018Y008533D01*
X022643Y025908D02*
X014018Y025908D01*
X013143Y026783D01*
X013143Y034658D01*
X013768Y035283D01*
X015217Y033658D02*
X015018Y033460D01*
X015217Y033658D02*
X016018Y033658D01*
X015018Y032357D02*
X014772Y032111D01*
X014772Y030847D01*
X022643Y025908D02*
X023768Y027033D01*
X023768Y027843D01*
X039268Y034658D02*
X040018Y033908D01*
X042893Y033908D01*
X043143Y034158D01*
X044893Y034158D01*
X030890Y039654D02*
X030886Y039658D01*
X025196Y039658D02*
X025191Y039653D01*
X025191Y048653D02*
X025186Y048658D01*
X063018Y027158D02*
X064018Y027158D01*
X064643Y025533D01*
X065018Y027158D02*
X066018Y027158D01*
X066144Y028158D01*
X066892Y028158D02*
X067018Y027158D01*
X066643Y025533D01*
X065018Y027158D02*
X064892Y028158D01*
X064144Y028158D02*
X064018Y027158D01*
X065144Y029033D02*
X065018Y030158D01*
X065768Y031408D01*
X066018Y030158D02*
X065892Y029033D01*
X067144Y029033D02*
X067018Y030158D01*
X066018Y030158D01*
X065018Y030158D02*
X064018Y030158D01*
X067768Y031408D02*
X068018Y030158D01*
X067892Y029033D01*
X049018Y018407D02*
X048018Y018407D01*
X051393Y012158D02*
X050643Y010158D01*
X060393Y012158D02*
X061143Y010158D01*
D35*
X053518Y015908D02*
X053518Y017784D01*
X053768Y018284D01*
X050518Y018159D02*
X050518Y015908D01*
X049518Y016033D02*
X049518Y017157D01*
X049959Y017783D01*
X050518Y018159D02*
X050269Y018658D01*
X049518Y019033D01*
X049518Y020158D01*
X048018Y020158D01*
X047393Y020343D01*
X046393Y020157D01*
X046892Y019783D02*
X046393Y019409D01*
X046892Y019783D02*
X047893Y019783D01*
X048142Y019534D01*
X048833Y019534D01*
X048268Y020348D02*
X048018Y020158D01*
X042893Y024033D02*
X041518Y024033D01*
X041518Y025033D02*
X042893Y025033D01*
X036893Y025033D02*
X035643Y025033D01*
X035518Y023033D02*
X037018Y023033D01*
X036893Y021033D02*
X035018Y021033D01*
X034393Y020533D01*
X031893Y020533D01*
X031268Y020033D02*
X036893Y020033D01*
X036893Y019033D02*
X035643Y019033D01*
X036268Y017533D02*
X031893Y017533D01*
X031269Y016033D02*
X032518Y016033D01*
X032768Y015033D02*
X031018Y015033D01*
X028018Y014908D02*
X026643Y015033D01*
X025268Y015033D01*
X022643Y016033D01*
X019893Y016033D01*
X018393Y017533D01*
X016018Y017533D01*
X015268Y017033D02*
X017893Y017033D01*
X019518Y015533D01*
X022018Y015533D01*
X022518Y015033D02*
X025268Y014033D01*
X026518Y014033D01*
X026643Y013033D02*
X025268Y013033D01*
X022393Y014033D01*
X021518Y014033D01*
X022018Y013533D02*
X022268Y013533D01*
X025143Y012533D01*
X025893Y012533D01*
X025268Y012033D02*
X026768Y012033D01*
X027393Y012408D01*
X026518Y011033D02*
X025393Y011033D01*
X022518Y012033D01*
X021393Y012033D01*
X022018Y011533D02*
X022393Y011533D01*
X025268Y010533D01*
X025893Y010533D01*
X025893Y009533D02*
X025268Y009533D01*
X022768Y011033D01*
X021393Y011033D01*
X021393Y010033D02*
X022768Y010033D01*
X022518Y012533D02*
X025518Y011533D01*
X025893Y011533D01*
X025268Y012033D02*
X022518Y013033D01*
X021393Y013033D01*
X022018Y012533D02*
X022518Y012533D01*
X022518Y014533D02*
X022018Y014533D01*
X022518Y014533D02*
X025393Y013533D01*
X025268Y015533D02*
X022643Y016533D01*
X022018Y016533D01*
X020393Y016533D01*
X018893Y018033D01*
X015268Y018033D01*
X015143Y019033D02*
X016893Y019033D01*
X016768Y020033D02*
X015268Y020033D01*
X015018Y020283D01*
X015018Y020658D01*
X015268Y021033D01*
X016768Y021033D01*
X017143Y021408D01*
X017143Y022158D01*
X016768Y022533D01*
X016018Y020533D02*
X019768Y020533D01*
X021268Y019033D01*
X022893Y019033D01*
X025268Y018033D01*
X027143Y018033D01*
X026643Y017033D02*
X025268Y017033D01*
X022768Y018033D01*
X021018Y018033D01*
X021018Y017033D02*
X022643Y017033D01*
X025268Y016033D01*
X027393Y016033D01*
X025893Y015533D02*
X025268Y015533D01*
X025268Y016533D02*
X022643Y017533D01*
X022018Y017533D01*
X022018Y018533D02*
X022768Y018533D01*
X025143Y017533D01*
X025893Y017533D01*
X025893Y016533D02*
X025268Y016533D01*
X024268Y019033D02*
X026393Y019033D01*
X026518Y020033D02*
X025268Y020033D01*
X025143Y021033D02*
X026518Y021033D01*
X024393Y022033D02*
X025143Y023033D01*
X026643Y023033D01*
X028018Y025783D02*
X030643Y025658D01*
X031143Y026033D01*
X032518Y026033D01*
X032643Y025033D02*
X031268Y025033D01*
X031268Y024033D02*
X032643Y024033D01*
X032893Y023033D02*
X031268Y023033D01*
X031268Y022033D02*
X033643Y022033D01*
X033643Y021658D02*
X032518Y021658D01*
X032393Y021533D01*
X031893Y021533D01*
X032768Y021033D02*
X030768Y021033D01*
X032893Y023033D02*
X033268Y022658D01*
X035643Y017033D02*
X036893Y017033D01*
X036893Y016033D02*
X035643Y016033D01*
X035768Y015033D02*
X036893Y015033D01*
X036893Y014033D02*
X035643Y014033D01*
X035768Y013033D02*
X036768Y013033D01*
X036893Y012033D02*
X035768Y012033D01*
X035643Y010033D02*
X036893Y010033D01*
X036893Y009033D02*
X035643Y009033D01*
X035518Y008033D02*
X037018Y008033D01*
X039518Y008033D02*
X042893Y008033D01*
X043018Y014033D02*
X041643Y014033D01*
X026393Y008033D02*
X025268Y008033D01*
X025268Y007033D02*
X026518Y007033D01*
X019768Y012533D02*
X018643Y012533D01*
X017018Y014033D01*
X015393Y014033D01*
X015268Y015033D02*
X017393Y015033D01*
X017518Y016533D02*
X019143Y015033D01*
X022518Y015033D01*
X024268Y019033D02*
X023143Y019533D01*
X022018Y019533D01*
X021393Y020033D02*
X022643Y020033D01*
X022643Y022033D02*
X021268Y022033D01*
X023268Y027158D02*
X023268Y028658D01*
X020268Y030158D02*
X020268Y031408D01*
X019268Y031408D02*
X019268Y030158D01*
X018268Y028533D02*
X018268Y027158D01*
X016268Y030158D02*
X016268Y031533D01*
X015268Y031533D02*
X015268Y030158D01*
X021518Y034158D02*
X022768Y034158D01*
X022768Y035158D02*
X021393Y035158D01*
X021393Y036158D02*
X023018Y036158D01*
X022768Y037158D02*
X021268Y037158D01*
X021268Y038158D02*
X022643Y038158D01*
X023393Y039158D02*
X021393Y039158D01*
X022018Y039658D02*
X023268Y039658D01*
X024264Y040653D01*
X025191Y040653D01*
X025768Y040158D02*
X024390Y040154D01*
X023393Y039158D01*
X023143Y040158D02*
X021393Y040158D01*
X021393Y041158D02*
X023518Y041158D01*
X024014Y041653D01*
X025191Y041653D01*
X025768Y042158D02*
X023890Y042154D01*
X023393Y041658D01*
X022018Y041658D01*
X021393Y042158D02*
X023268Y042158D01*
X023764Y042653D01*
X025191Y042653D01*
X025768Y042158D02*
X028768Y042158D01*
X030268Y043658D01*
X030890Y043654D01*
X030393Y043158D02*
X034393Y043158D01*
X035143Y043658D01*
X035643Y043658D01*
X035268Y044158D02*
X033890Y043654D01*
X034393Y044158D02*
X035268Y044658D01*
X035643Y044658D01*
X035268Y044158D02*
X040018Y044158D01*
X040518Y043658D01*
X041643Y043658D01*
X042393Y043658D01*
X043893Y045158D01*
X044518Y045158D01*
X044893Y045533D01*
X047143Y045533D01*
X047893Y044783D01*
X047893Y044158D01*
X047393Y043658D02*
X047393Y044658D01*
X046893Y045158D01*
X045143Y045158D01*
X044768Y044783D01*
X044143Y044783D01*
X042518Y043158D01*
X040393Y043158D01*
X039893Y043658D01*
X039768Y043158D02*
X035143Y043158D01*
X033890Y042654D01*
X034393Y042158D02*
X030268Y042158D01*
X028768Y040658D01*
X028191Y040653D01*
X028196Y040658D01*
X028768Y041158D02*
X030393Y042654D01*
X030890Y042654D01*
X030393Y043158D02*
X028768Y041658D01*
X028196Y041658D01*
X028191Y041653D01*
X028768Y041158D02*
X024140Y041154D01*
X023143Y040158D01*
X023143Y042658D02*
X022018Y042658D01*
X021393Y043158D02*
X023018Y043158D01*
X023514Y043653D01*
X025191Y043653D01*
X025768Y043158D02*
X023640Y043154D01*
X023143Y042658D01*
X022893Y043658D02*
X022018Y043658D01*
X021393Y044158D02*
X022643Y044158D01*
X023143Y044658D01*
X025186Y044658D01*
X025191Y044653D01*
X025768Y044158D02*
X023390Y044154D01*
X022893Y043658D01*
X022518Y044658D02*
X022018Y044658D01*
X022518Y044658D02*
X023018Y045158D01*
X025768Y045158D01*
X027518Y046158D01*
X028893Y046158D01*
X029643Y046283D01*
X030890Y046654D01*
X030268Y046158D02*
X028643Y044658D01*
X028191Y044653D01*
X028196Y044658D01*
X028768Y044158D02*
X025768Y044158D01*
X025768Y043158D02*
X028768Y043158D01*
X030393Y044658D01*
X030890Y044654D01*
X030393Y045158D02*
X034393Y045158D01*
X035393Y045658D01*
X035643Y045658D01*
X035268Y045158D02*
X033890Y044654D01*
X034393Y044158D02*
X030268Y044158D01*
X028768Y042658D01*
X028191Y042653D01*
X028196Y042658D01*
X028191Y043653D02*
X028393Y043658D01*
X028768Y043658D01*
X030393Y045158D01*
X030268Y045533D02*
X030518Y045658D01*
X030890Y045654D01*
X030268Y045533D02*
X028768Y044158D01*
X030268Y046158D02*
X031518Y046158D01*
X032518Y047158D01*
X034643Y047158D01*
X035643Y047658D01*
X033890Y047654D02*
X032147Y047654D01*
X031393Y048158D01*
X030393Y048158D01*
X028393Y047658D01*
X028196Y047658D01*
X028191Y047653D01*
X027518Y047158D02*
X025772Y046154D01*
X024272Y046154D01*
X022768Y047658D01*
X022018Y047658D01*
X021393Y046158D02*
X023518Y046158D01*
X024023Y045653D01*
X025191Y045653D01*
X027518Y047158D02*
X028893Y047158D01*
X030890Y047654D01*
X033890Y045654D02*
X034518Y046158D01*
X040643Y046158D01*
X041143Y045658D01*
X041643Y045658D01*
X042518Y046158D01*
X042768Y046158D01*
X043643Y047033D01*
X048143Y047033D01*
X050393Y044783D01*
X050393Y043658D01*
X050893Y043158D01*
X051393Y043408D02*
X050893Y044158D01*
X051393Y043971D02*
X051393Y044533D01*
X051518Y044658D01*
X051393Y043971D02*
X051893Y043158D01*
X051393Y043408D02*
X051393Y042846D01*
X051706Y042533D01*
X053393Y042533D01*
X053893Y043033D01*
X053893Y043158D01*
X053393Y043658D02*
X053393Y044658D01*
X053393Y043658D02*
X052893Y043158D01*
X054393Y043658D02*
X054393Y044533D01*
X054643Y044846D01*
X054707Y045158D01*
X055455Y045158D02*
X055393Y046032D01*
X055643Y046408D01*
X056081Y047533D02*
X056018Y048033D01*
X055643Y048408D01*
X057268Y048408D02*
X057268Y046408D01*
X059268Y046408D02*
X059268Y044908D01*
X058768Y044408D01*
X057580Y044596D01*
X056832Y044596D02*
X055893Y044158D01*
X056643Y043908D02*
X055893Y043158D01*
X054893Y043158D02*
X054393Y043658D01*
X056393Y041658D02*
X057519Y041658D01*
X057894Y041533D01*
X057518Y041158D02*
X058268Y040408D01*
X058768Y040408D01*
X058518Y039783D02*
X058393Y039783D01*
X057518Y040658D01*
X056393Y040658D01*
X055893Y040158D01*
X055893Y041158D02*
X056393Y041658D01*
X056893Y041158D02*
X057518Y041158D01*
X056893Y042158D02*
X057143Y042408D01*
X057894Y042408D01*
X058642Y042408D02*
X058642Y041533D01*
X058642Y042408D02*
X060518Y042409D01*
X060956Y044908D01*
X060518Y047533D01*
X059268Y048408D01*
X053643Y048408D02*
X053643Y046408D01*
X049893Y044658D02*
X049893Y044158D01*
X049893Y044658D02*
X047893Y046658D01*
X043854Y046658D01*
X042854Y045658D01*
X042643Y045658D01*
X042143Y045158D01*
X041018Y045158D01*
X040518Y045658D01*
X040268Y045158D02*
X035268Y045158D01*
X035143Y042658D02*
X034393Y042158D01*
X035143Y042658D02*
X035643Y042658D01*
X039643Y042658D02*
X040143Y042158D01*
X042768Y042158D01*
X044518Y043908D01*
X045143Y043908D01*
X045393Y043658D01*
X046393Y043658D01*
X046893Y043158D01*
X047393Y043658D02*
X047893Y043158D01*
X048393Y043658D02*
X048393Y044908D01*
X047393Y045908D01*
X044643Y045908D01*
X044268Y045533D01*
X043643Y045533D01*
X042268Y044158D01*
X040643Y044158D01*
X040143Y044658D01*
X040268Y045158D02*
X040768Y044658D01*
X041643Y044658D01*
X042268Y044658D01*
X043643Y046033D01*
X044018Y046033D01*
X044268Y046283D01*
X047643Y046283D01*
X049393Y044533D01*
X049393Y043908D01*
X049893Y043158D01*
X049393Y043408D02*
X049393Y042783D01*
X048893Y043158D02*
X048393Y043658D01*
X048893Y044158D02*
X049393Y043408D01*
X046893Y044158D02*
X046268Y044783D01*
X045518Y044783D01*
X045143Y044408D01*
X044393Y044408D01*
X042643Y042658D01*
X041643Y042658D01*
X040268Y042658D01*
X039768Y043158D01*
X040518Y041658D02*
X041018Y041158D01*
X042768Y041158D01*
X044268Y042658D01*
X045393Y042658D01*
X045893Y043158D01*
X044893Y043158D02*
X044268Y043158D01*
X042768Y041658D01*
X041643Y041658D01*
X041643Y040658D02*
X040768Y040658D01*
X040268Y041158D01*
X030393Y041158D01*
X028893Y039658D01*
X028191Y039653D01*
X028196Y039658D01*
X028893Y040158D02*
X025768Y040158D01*
X028893Y040158D02*
X030268Y041658D01*
X030890Y041654D01*
X034893Y039158D02*
X040143Y039158D01*
X040643Y038658D01*
X041643Y038658D01*
X043268Y038658D01*
X044268Y039658D01*
X045143Y039658D01*
X045893Y040158D01*
X045643Y039658D02*
X046393Y039658D01*
X045893Y039158D02*
X045393Y038658D01*
X043893Y038658D01*
X042893Y037658D01*
X041643Y037658D01*
X040768Y037658D01*
X040268Y038158D01*
X035018Y038158D01*
X035018Y037158D02*
X040018Y037158D01*
X040518Y036658D01*
X041643Y036658D01*
X043143Y036658D01*
X044268Y037658D01*
X045268Y037658D01*
X045893Y038158D01*
X044893Y038158D02*
X044018Y038158D01*
X043018Y037158D01*
X040643Y037158D01*
X040143Y037658D01*
X039893Y036658D02*
X040393Y036158D01*
X043268Y036158D01*
X043768Y036658D01*
X045393Y036658D01*
X045893Y037158D01*
X045893Y036158D02*
X045393Y035658D01*
X044018Y035658D01*
X043518Y035158D01*
X040393Y035158D01*
X039893Y035658D01*
X040393Y035658D02*
X039893Y036158D01*
X035018Y036158D01*
X035018Y035158D02*
X039768Y035158D01*
X040268Y034658D01*
X041643Y034658D01*
X043643Y034658D01*
X044143Y035158D01*
X044893Y035158D01*
X045393Y034658D02*
X046268Y034658D01*
X045893Y034158D02*
X045393Y033658D01*
X044518Y033658D01*
X044893Y034158D02*
X045393Y034658D01*
X045893Y033158D02*
X045018Y032283D01*
X043393Y035658D02*
X041643Y035658D01*
X040393Y035658D01*
X043393Y035658D02*
X043893Y036158D01*
X044893Y036158D01*
X044893Y039158D02*
X045643Y039658D01*
X044893Y040158D02*
X044143Y040158D01*
X043143Y039158D01*
X040768Y039158D01*
X040268Y039658D01*
X040643Y040158D02*
X040143Y040658D01*
X040643Y040158D02*
X042893Y040158D01*
X044393Y041658D01*
X045393Y041658D01*
X045893Y042158D01*
X044893Y042158D02*
X044268Y042158D01*
X042768Y040658D01*
X041643Y040658D01*
X041643Y039658D02*
X043018Y039658D01*
X044518Y041158D01*
X044893Y041158D01*
X042643Y046658D02*
X043393Y047408D01*
X048393Y047408D01*
X048643Y047783D02*
X043143Y047783D01*
X042518Y047158D01*
X040768Y047158D01*
X040393Y046658D01*
X040518Y047658D02*
X040893Y048158D01*
X048893Y048158D01*
X055393Y038658D02*
X058518Y038658D01*
X059393Y037843D02*
X059393Y036658D01*
X059893Y036283D01*
X059893Y037283D02*
X060643Y037283D01*
X060643Y033283D01*
X059893Y033283D01*
X058893Y033283D02*
X058018Y034158D01*
X056893Y034158D01*
X056393Y033658D02*
X057393Y033658D01*
X057518Y033533D01*
X057518Y034658D02*
X055393Y034658D01*
X055143Y034033D02*
X055393Y033783D01*
X055393Y032658D01*
X055893Y032158D01*
X054893Y033158D02*
X054893Y033783D01*
X054382Y033544D02*
X054382Y032793D01*
X053893Y032158D01*
X053393Y032658D02*
X053393Y031533D01*
X053393Y032658D02*
X053893Y033158D01*
X051893Y033158D02*
X051393Y032658D01*
X051393Y031658D01*
X055893Y034158D02*
X056393Y033658D01*
X058268Y035283D02*
X057643Y036283D01*
X057643Y037408D01*
X057393Y037658D01*
X056393Y037658D01*
X055893Y038158D01*
X076517Y022657D02*
X076518Y022658D01*
X076517Y022657D02*
X076517Y018158D01*
X076517Y016709D01*
X076467Y016658D01*
X076342Y012658D01*
X076334Y011900D01*
X076334Y011658D01*
X076893Y011033D02*
X076893Y013158D01*
X077018Y016033D01*
X077018Y017408D01*
X077268Y017658D01*
X078643Y017658D01*
X079268Y018158D02*
X077893Y018158D01*
X077393Y018658D01*
X077393Y020783D01*
X077893Y021158D01*
X079393Y021158D01*
X078643Y020658D02*
X078268Y020658D01*
X077768Y020158D01*
X077768Y019408D01*
X078018Y019158D01*
X079209Y019158D01*
X080518Y018783D02*
X080518Y019784D01*
X081078Y019283D02*
X081070Y018533D01*
X081268Y017783D01*
X078643Y016658D02*
X077570Y016658D01*
X076467Y016658D02*
X074643Y016658D01*
X075393Y017158D02*
X075769Y017534D01*
X075769Y018158D01*
X077893Y015158D02*
X077768Y015033D01*
X077768Y013783D01*
X077893Y013658D01*
X078643Y013658D01*
X077445Y012658D02*
X077445Y011917D01*
X077453Y011658D01*
X080768Y011533D02*
X081768Y011533D01*
X079268Y015158D02*
X077893Y015158D01*
X080768Y021658D02*
X081768Y021658D01*
X017518Y016533D02*
X016018Y016533D01*
X013393Y012283D02*
X013393Y010828D01*
X015018Y010033D02*
X016643Y010033D01*
X017768Y009033D02*
X015393Y009033D01*
X015268Y037158D02*
X016768Y037158D01*
X016643Y043158D02*
X015393Y043158D01*
X015393Y045158D02*
X016518Y045158D01*
X016643Y046158D02*
X015393Y046158D01*
D36*
X010268Y012408D02*
X010268Y008158D01*
X011393Y007033D01*
X013393Y007033D01*
X015393Y009033D01*
X015018Y010033D02*
X014563Y010489D01*
X013732Y010489D01*
X013393Y010828D01*
X012905Y010271D02*
X012767Y010408D01*
X012842Y011533D01*
X011893Y011783D02*
X011893Y010534D01*
X012019Y010408D01*
X011583Y010158D01*
X011055Y009505D01*
X012905Y009505D02*
X012905Y010271D01*
X013945Y011533D02*
X013945Y012710D01*
X015268Y014033D01*
X015393Y014033D01*
X016018Y013533D02*
X016768Y013533D01*
X018268Y012033D01*
X019018Y012033D01*
X019393Y011658D01*
X020393Y011658D01*
X020768Y012033D01*
X021393Y012033D01*
X021393Y011033D02*
X019143Y011033D01*
X018768Y011408D01*
X018018Y011408D01*
X016893Y012533D01*
X016018Y012533D01*
X016018Y011533D02*
X016893Y011533D01*
X017768Y010658D01*
X018643Y010658D01*
X019018Y010283D01*
X020518Y010283D01*
X020768Y010033D01*
X021393Y010033D01*
X022018Y009533D02*
X022768Y009533D01*
X025268Y007033D01*
X025268Y008033D02*
X023268Y010033D01*
X022768Y010033D01*
X019393Y009533D02*
X018893Y009533D01*
X017893Y010283D01*
X016893Y010283D01*
X016643Y010033D01*
X017768Y009033D02*
X020518Y006908D01*
X020768Y006658D01*
X030393Y006658D01*
X031268Y007533D01*
X031893Y007533D01*
X035018Y007533D01*
X035518Y008033D01*
X036268Y007533D02*
X039018Y007533D01*
X039518Y008033D01*
X038018Y008033D02*
X041518Y011533D01*
X042268Y011533D01*
X042268Y012533D02*
X041768Y012533D01*
X038268Y009033D01*
X036893Y009033D01*
X036268Y008533D02*
X034518Y008533D01*
X034018Y008658D01*
X033643Y009408D02*
X032768Y008533D01*
X031893Y008533D01*
X031893Y009533D02*
X031268Y009533D01*
X031018Y009783D01*
X031018Y012158D01*
X030643Y012533D01*
X029893Y012533D01*
X029518Y012158D01*
X029518Y009908D01*
X027643Y008033D01*
X026393Y008033D01*
X026643Y008533D02*
X025893Y008533D01*
X026643Y008533D02*
X027143Y009033D01*
X027143Y010658D01*
X026768Y011033D01*
X026518Y011033D01*
X028143Y011533D02*
X029393Y012783D01*
X029393Y013658D01*
X028893Y013658D01*
X028393Y014033D01*
X026518Y014033D01*
X025893Y013533D02*
X025393Y013533D01*
X026643Y013033D02*
X027018Y013033D01*
X027143Y013158D01*
X028018Y013158D01*
X028143Y013033D01*
X030268Y011783D02*
X030268Y009908D01*
X027393Y007033D01*
X026518Y007033D01*
X028143Y009658D02*
X028143Y011533D01*
X031893Y011533D02*
X032768Y011908D01*
X033768Y013033D01*
X035768Y013033D01*
X036268Y013533D02*
X037643Y013533D01*
X039643Y015533D01*
X039643Y016033D01*
X039268Y016783D02*
X038768Y016283D01*
X038768Y015658D01*
X037143Y014033D01*
X036893Y014033D01*
X036768Y013033D02*
X039143Y013033D01*
X041393Y015283D01*
X042268Y015533D01*
X041519Y016034D02*
X041143Y016034D01*
X041519Y016034D02*
X042018Y016533D01*
X042268Y016533D01*
X042268Y017533D02*
X041894Y017533D01*
X041143Y016782D01*
X040268Y016783D02*
X039268Y016783D01*
X038893Y017283D02*
X038268Y016658D01*
X038268Y016158D01*
X037143Y015033D01*
X036893Y015033D01*
X036893Y016033D02*
X038643Y017783D01*
X039768Y017783D01*
X040393Y018408D01*
X040393Y022908D01*
X041518Y024033D01*
X041643Y023533D02*
X040768Y022658D01*
X040768Y018033D01*
X040018Y017283D01*
X038893Y017283D01*
X039518Y018283D02*
X038143Y018283D01*
X036893Y017033D01*
X036268Y016533D02*
X035768Y016533D01*
X032518Y016033D01*
X032518Y015533D02*
X031893Y015533D01*
X031143Y015533D01*
X027143Y018033D01*
X026893Y017533D02*
X025893Y017533D01*
X026643Y017033D02*
X031018Y014533D01*
X031893Y014533D01*
X032643Y014533D01*
X033018Y014158D01*
X034643Y014158D01*
X035518Y015033D01*
X035768Y015033D01*
X035643Y016033D02*
X032518Y015533D01*
X032768Y015033D02*
X033893Y014908D01*
X035018Y013533D02*
X031893Y013533D01*
X027393Y016033D01*
X026893Y017533D02*
X031018Y015033D01*
X031269Y016033D02*
X028018Y018033D01*
X028018Y018282D01*
X028019Y018533D01*
X025893Y018533D01*
X026393Y019033D02*
X027143Y019033D01*
X027643Y019533D01*
X030018Y019533D01*
X030893Y020533D01*
X031893Y020533D01*
X031268Y020033D02*
X031143Y020033D01*
X030893Y019783D01*
X030893Y018783D01*
X031143Y018533D01*
X031893Y018533D01*
X031893Y019533D02*
X032268Y019533D01*
X032768Y019033D01*
X033268Y019033D01*
X033893Y019533D01*
X035018Y019533D01*
X035518Y019033D01*
X035643Y019033D01*
X036268Y018533D02*
X034393Y018585D01*
X034393Y017482D02*
X031893Y017533D01*
X030706Y017533D01*
X029706Y018533D01*
X028767Y018533D01*
X027018Y020033D02*
X027393Y020408D01*
X030143Y020408D01*
X030768Y021033D01*
X030518Y021533D02*
X031893Y021533D01*
X031268Y022033D02*
X030268Y022033D01*
X029768Y021533D01*
X025893Y021533D01*
X026518Y021033D02*
X030018Y021033D01*
X030518Y021533D01*
X029706Y022533D02*
X025893Y022533D01*
X026643Y023033D02*
X027018Y023033D01*
X027518Y023533D01*
X030268Y023533D01*
X030768Y023033D01*
X031268Y023033D01*
X031893Y023533D02*
X033518Y023533D01*
X035518Y025533D01*
X036268Y025533D01*
X035643Y025033D02*
X034268Y023658D01*
X034268Y022533D01*
X033768Y022033D01*
X033643Y022033D01*
X033643Y021658D02*
X034143Y021658D01*
X035518Y023033D01*
X036268Y023533D02*
X038393Y023533D01*
X041268Y026408D01*
X041268Y026783D01*
X041643Y027158D01*
X042893Y027158D01*
X043893Y026408D01*
X047018Y026408D01*
X047518Y025658D02*
X048018Y026158D01*
X048018Y026783D01*
X049393Y027033D02*
X048018Y025158D01*
X044518Y025158D01*
X044143Y024783D01*
X044143Y015158D01*
X043018Y014033D01*
X042893Y014533D02*
X042268Y014533D01*
X041393Y014533D01*
X038893Y012033D01*
X036893Y012033D01*
X035768Y012033D02*
X033768Y012158D01*
X032768Y010783D01*
X031893Y010533D01*
X031893Y009533D02*
X032893Y009533D01*
X034143Y010783D01*
X034893Y010783D01*
X035518Y010033D01*
X035643Y010033D01*
X035143Y009533D02*
X036268Y009533D01*
X035643Y009033D02*
X034893Y009033D01*
X034393Y009408D01*
X033643Y009408D01*
X034518Y010033D02*
X035143Y009533D01*
X036268Y010533D02*
X038143Y010533D01*
X041643Y014033D01*
X041893Y013533D02*
X042268Y013533D01*
X041893Y013533D02*
X038393Y010033D01*
X036893Y010033D01*
X037018Y008033D02*
X038018Y008033D01*
X042268Y007533D02*
X043018Y007533D01*
X043768Y008283D01*
X043768Y013408D01*
X045143Y014783D01*
X045143Y023783D01*
X045518Y024158D01*
X049018Y024158D01*
X050268Y026033D01*
X051893Y026033D01*
X055018Y029158D01*
X055268Y029283D01*
X055643Y029658D01*
X055643Y030158D01*
X056893Y031408D01*
X056893Y033158D01*
X057518Y033533D02*
X057518Y031408D01*
X058018Y030783D01*
X057518Y030033D02*
X059268Y028283D01*
X059268Y024908D01*
X059518Y024658D01*
X061893Y024658D01*
X064018Y023033D01*
X064018Y022533D01*
X063018Y022533D02*
X063018Y023033D01*
X061768Y024158D01*
X059018Y024158D01*
X058768Y024408D01*
X058768Y027908D01*
X057393Y029283D01*
X056893Y029283D01*
X056643Y028658D02*
X057268Y028658D01*
X058268Y027658D01*
X058268Y023908D01*
X058518Y023658D01*
X058643Y023658D01*
X059018Y023283D01*
X059018Y022533D01*
X057018Y022533D02*
X057018Y026783D01*
X056893Y027908D01*
X056643Y028658D02*
X055893Y027908D01*
X054893Y027908D02*
X054893Y028283D01*
X056643Y030033D01*
X057518Y030033D01*
X054893Y030033D02*
X054768Y029658D01*
X051643Y026533D01*
X049893Y026533D01*
X048518Y024658D01*
X045018Y024658D01*
X044643Y024283D01*
X044643Y014908D01*
X043268Y013533D01*
X043268Y008408D01*
X042893Y008033D01*
X035518Y014033D02*
X035018Y013533D01*
X035518Y014033D02*
X035643Y014033D01*
X035643Y017033D02*
X032518Y016533D01*
X031893Y016533D01*
X036893Y019033D02*
X039268Y019033D01*
X040018Y018783D02*
X039518Y018283D01*
X040018Y018783D02*
X040018Y019533D01*
X039768Y019908D01*
X037893Y020033D02*
X036893Y020033D01*
X036893Y021033D02*
X038143Y021033D01*
X039143Y022033D01*
X039143Y022908D01*
X041268Y025033D01*
X041518Y025033D01*
X041393Y024533D02*
X042268Y024533D01*
X042893Y024033D02*
X043018Y024033D01*
X043268Y023783D01*
X043268Y021783D01*
X043018Y021533D01*
X042268Y021533D01*
X041268Y022033D02*
X041268Y017783D01*
X040268Y016783D01*
X042893Y014533D02*
X043643Y015283D01*
X043643Y025158D01*
X044143Y025658D01*
X047518Y025658D01*
X049393Y027033D02*
X051393Y027033D01*
X054143Y029783D01*
X054143Y030408D01*
X054893Y031158D01*
X054893Y032158D01*
X054382Y033544D02*
X054393Y033555D01*
X054393Y033783D01*
X054143Y034033D01*
X048893Y034033D01*
X048893Y033158D01*
X048893Y034033D02*
X047018Y034033D01*
X046393Y034658D01*
X046268Y034658D01*
X046143Y035158D02*
X046581Y035596D01*
X046581Y039346D01*
X046893Y039658D01*
X046893Y040533D01*
X047206Y040846D01*
X047206Y041596D01*
X047393Y041783D01*
X049206Y041783D01*
X049518Y041471D01*
X050268Y040908D01*
X051206Y040908D01*
X051706Y041408D01*
X053956Y041408D01*
X054372Y040993D01*
X054372Y038555D01*
X055018Y037908D01*
X055018Y035033D01*
X055393Y034658D01*
X055143Y034346D02*
X054268Y035221D01*
X054268Y036971D01*
X053081Y038158D01*
X051456Y038158D01*
X050893Y038721D01*
X050893Y039096D01*
X050831Y041221D02*
X050518Y041221D01*
X049643Y041846D01*
X049331Y042158D01*
X047206Y042158D01*
X046831Y041783D01*
X046831Y041158D01*
X046518Y040783D01*
X046518Y039783D01*
X046393Y039658D01*
X047081Y038596D02*
X047518Y039033D01*
X047081Y038596D02*
X047081Y035408D01*
X048018Y034471D01*
X054268Y034471D01*
X054893Y033846D01*
X054893Y033783D01*
X055143Y034033D02*
X055143Y034346D01*
X052893Y032158D02*
X052893Y031658D01*
X052018Y030783D01*
X040518Y030783D01*
X039518Y029783D01*
X036768Y029783D01*
X036268Y029283D01*
X034143Y029283D01*
X032768Y027908D01*
X032768Y026283D01*
X032518Y026033D01*
X032768Y025533D02*
X033268Y026033D01*
X033268Y027283D01*
X033768Y027783D01*
X034393Y027283D02*
X034393Y026158D01*
X033268Y025033D01*
X032643Y025033D01*
X032768Y025533D02*
X031893Y025533D01*
X031268Y025033D02*
X027143Y025033D01*
X026643Y025533D01*
X025893Y025533D01*
X025393Y025533D01*
X025018Y025158D01*
X025018Y024658D01*
X023768Y023408D01*
X017393Y023408D01*
X017268Y023533D01*
X015268Y023533D01*
X014393Y022658D01*
X014268Y023408D02*
X013268Y023408D01*
X011643Y025033D01*
X011643Y039658D01*
X015143Y043158D01*
X015393Y043158D01*
X016018Y042658D02*
X016393Y042658D01*
X018893Y040158D01*
X021393Y040158D01*
X022018Y040658D02*
X019268Y040658D01*
X016768Y043158D01*
X016643Y043158D01*
X017018Y043658D02*
X016018Y043658D01*
X016018Y044658D02*
X016768Y044658D01*
X019268Y042158D01*
X021393Y042158D01*
X022018Y042658D02*
X019518Y042658D01*
X017018Y045158D01*
X016518Y045158D01*
X016018Y044658D02*
X015393Y044658D01*
X011143Y040408D01*
X011143Y024658D01*
X013518Y022283D01*
X013518Y019158D01*
X014643Y018033D01*
X015268Y018033D01*
X014893Y018533D02*
X016018Y018533D01*
X015143Y019033D02*
X014518Y019658D01*
X014518Y020908D01*
X015018Y021533D01*
X016018Y021533D01*
X015143Y022283D02*
X014768Y021908D01*
X014643Y021908D01*
X014018Y021158D01*
X014018Y019408D01*
X014893Y018533D01*
X014143Y017658D02*
X013018Y018783D01*
X013018Y022033D01*
X010643Y024408D01*
X010643Y040658D01*
X015143Y045158D01*
X015393Y045158D01*
X016018Y045658D02*
X017268Y045658D01*
X019768Y043158D01*
X021393Y043158D01*
X022018Y043658D02*
X019893Y043658D01*
X017393Y046158D01*
X016643Y046158D01*
X016018Y046658D02*
X017643Y046658D01*
X020143Y044158D01*
X021393Y044158D01*
X021393Y046158D02*
X018893Y046158D01*
X017393Y047658D01*
X016018Y047658D01*
X015393Y046158D02*
X014643Y046158D01*
X010143Y041658D01*
X010143Y022408D01*
X012018Y020408D01*
X012018Y017908D01*
X013893Y016033D01*
X014893Y016033D01*
X014393Y016783D02*
X013893Y016783D01*
X012518Y018158D01*
X012518Y021283D01*
X011393Y022408D01*
X011143Y020033D02*
X011143Y018033D01*
X014143Y015033D01*
X015268Y015033D01*
X014518Y014533D02*
X016018Y014533D01*
X017143Y014533D01*
X018518Y013283D01*
X020393Y013283D01*
X020643Y013033D01*
X021393Y013033D01*
X021143Y013533D02*
X022018Y013533D01*
X021518Y014033D02*
X021393Y014033D01*
X020893Y014533D01*
X018768Y014533D01*
X017768Y015533D01*
X016018Y015533D01*
X014518Y014533D02*
X013643Y013658D01*
X011518Y013658D01*
X010268Y012408D01*
X011018Y011783D02*
X011893Y011783D01*
X011893Y012283D01*
X012269Y012658D01*
X013017Y012658D02*
X013143Y012658D01*
X013393Y012408D01*
X013393Y012283D01*
X017393Y015033D02*
X018518Y013908D01*
X020768Y013908D01*
X021143Y013533D01*
X022018Y015533D02*
X022643Y015533D01*
X025393Y014533D01*
X025893Y014533D01*
X021018Y017033D02*
X019018Y019033D01*
X016893Y019033D01*
X016768Y020033D02*
X019018Y020033D01*
X021018Y018033D01*
X021268Y020033D02*
X021018Y020283D01*
X021018Y021283D01*
X021268Y021533D01*
X022018Y021533D01*
X022643Y022033D02*
X024393Y022033D01*
X025143Y021033D02*
X024643Y020533D01*
X022018Y020533D01*
X021393Y020033D02*
X021268Y020033D01*
X022643Y020033D02*
X025268Y020033D01*
X026518Y020033D02*
X027018Y020033D01*
X026643Y023533D02*
X025893Y023533D01*
X026643Y023533D02*
X027143Y024033D01*
X031268Y024033D01*
X032643Y024033D02*
X033393Y024033D01*
X035143Y025783D01*
X035143Y027283D01*
X036018Y028283D01*
X036768Y028283D01*
X037393Y028908D01*
X040143Y028908D01*
X041018Y029783D01*
X053018Y029783D01*
X053393Y030033D01*
X052518Y030283D02*
X053393Y031158D01*
X053393Y031533D01*
X052518Y030283D02*
X040768Y030283D01*
X039768Y029283D01*
X037018Y029283D01*
X036518Y028783D01*
X035768Y028783D01*
X034393Y027283D01*
X036393Y027533D02*
X036893Y027783D01*
X037893Y028533D01*
X040518Y028533D01*
X041268Y029283D01*
X045643Y029283D01*
X045893Y029033D01*
X045393Y028408D02*
X045143Y028658D01*
X041268Y028658D01*
X040643Y028033D01*
X038393Y028033D01*
X038018Y027908D01*
X037643Y027408D01*
X036893Y026533D02*
X036268Y026533D01*
X036893Y026533D02*
X037143Y026283D01*
X037143Y025033D01*
X036893Y025033D01*
X037143Y025033D02*
X039143Y025033D01*
X040768Y026658D01*
X040768Y026908D01*
X041518Y027658D01*
X043268Y027658D01*
X043393Y027533D01*
X050643Y027533D01*
X052018Y028783D01*
X050893Y028783D02*
X050143Y028033D01*
X043643Y028033D01*
X043518Y028158D01*
X041393Y028158D01*
X040518Y027283D01*
X040268Y027283D01*
X042268Y026533D02*
X042893Y026533D01*
X043268Y026158D01*
X043268Y025408D01*
X042893Y025033D01*
X042268Y025533D02*
X041143Y025533D01*
X038643Y023033D01*
X037018Y023033D01*
X039643Y022783D02*
X039643Y021783D01*
X037893Y020033D01*
X041268Y022033D02*
X041768Y022533D01*
X042268Y022533D01*
X042268Y023533D02*
X041643Y023533D01*
X041393Y024533D02*
X039643Y022783D01*
X045768Y021157D02*
X045768Y019783D01*
X046142Y019409D01*
X046393Y019409D01*
X045959Y018974D01*
X045959Y018158D01*
X046518Y017658D02*
X046518Y018658D01*
X047018Y019158D01*
X047328Y019158D01*
X047393Y019223D01*
X047892Y020908D02*
X047517Y021158D01*
X046642Y021283D01*
X046642Y021659D01*
X046018Y022158D01*
X046018Y022533D01*
X045894Y021283D02*
X045768Y021157D01*
X047892Y020908D02*
X048769Y020908D01*
X049143Y020784D01*
X048018Y017659D02*
X047892Y017533D01*
X046643Y017533D01*
X046518Y017658D01*
X048018Y017659D02*
X048018Y016533D01*
X049518Y016033D02*
X049518Y015158D01*
X050643Y013908D01*
X054018Y013908D01*
X054518Y014658D01*
X053518Y015033D02*
X053518Y015908D01*
X053518Y015033D02*
X053143Y014658D01*
X052643Y014658D01*
X051643Y014658D02*
X051018Y014658D01*
X050518Y015158D01*
X050518Y015908D01*
X055018Y013158D02*
X060769Y013408D01*
X061143Y010159D01*
X061143Y010158D01*
X061893Y012158D02*
X061643Y013157D01*
X061517Y013408D01*
X055018Y013158D02*
X053643Y010158D01*
X054393Y012158D01*
X072143Y011158D02*
X074643Y011658D01*
X076518Y010658D02*
X072143Y011158D01*
X076518Y010658D02*
X076893Y011033D01*
X077453Y011658D02*
X078643Y011658D01*
X078643Y012658D02*
X079768Y012658D01*
X080268Y012283D01*
X079518Y012408D02*
X082268Y010158D01*
X081268Y010158D02*
X081268Y010973D01*
X080768Y011533D02*
X080518Y011533D01*
X080268Y011283D01*
X081268Y012093D02*
X081018Y013658D01*
X080018Y013658D02*
X080018Y014283D01*
X079643Y014658D01*
X078643Y014658D01*
X079268Y015158D02*
X079518Y015408D01*
X079518Y017908D01*
X079268Y018158D01*
X079518Y018658D02*
X078643Y018658D01*
X079209Y019158D02*
X079959Y019283D01*
X080518Y018783D02*
X080518Y015908D01*
X080768Y015658D01*
X081268Y015658D01*
X082268Y015658D02*
X082268Y014908D01*
X082018Y014408D02*
X082018Y013658D01*
X082018Y014408D02*
X081643Y014783D01*
X080393Y014783D01*
X080018Y015158D01*
X080018Y018158D01*
X079518Y018658D01*
X079018Y019658D02*
X078643Y019658D01*
X079018Y019658D02*
X079393Y020033D01*
X079643Y020033D01*
X080018Y020408D01*
X080018Y021533D01*
X080703Y022218D01*
X081268Y022218D01*
X080768Y021658D02*
X080518Y021408D01*
X080518Y019784D01*
X081268Y020283D02*
X081268Y021098D01*
X081768Y021658D02*
X082018Y021908D01*
X082018Y023033D01*
X081517Y023534D01*
X081268Y023534D01*
X081268Y024282D02*
X081268Y025033D01*
X080893Y025408D01*
X079268Y025408D01*
X078893Y025033D01*
X078893Y024283D01*
X077893Y024283D02*
X077893Y023533D01*
X078143Y023283D01*
X079393Y023283D01*
X079643Y023033D01*
X079643Y022408D01*
X078893Y021658D01*
X078643Y021658D01*
X079518Y021658D02*
X080018Y022158D01*
X080018Y024158D01*
X079893Y024283D01*
X078643Y022658D02*
X077143Y022658D01*
X076643Y022658D01*
X076642Y022657D01*
X076643Y022658D02*
X076518Y022658D01*
X074643Y022658D01*
X077143Y022658D02*
X077143Y025158D01*
X077893Y025908D01*
X081268Y025908D01*
X079518Y021658D02*
X079518Y021158D01*
X079393Y021158D01*
X082268Y017783D02*
X082268Y017283D01*
X075393Y017158D02*
X074018Y017158D01*
X081768Y011533D02*
X082268Y012033D01*
X051393Y031533D02*
X051143Y031283D01*
X040268Y031283D01*
X039268Y030283D01*
X038268Y030283D01*
X037768Y030783D01*
X033893Y030783D01*
X029768Y026658D01*
X028768Y026658D01*
X028518Y026533D01*
X025893Y026533D01*
X025393Y026283D01*
X024643Y025533D01*
X024643Y025033D01*
X023518Y023908D01*
X014768Y023908D01*
X014268Y023408D01*
X013518Y024158D02*
X014643Y024408D01*
X023268Y024408D01*
X024268Y025408D01*
X024268Y025783D01*
X024893Y026408D01*
X025018Y026783D01*
X025518Y027533D01*
X025518Y028533D01*
X028143Y031158D01*
X029268Y031158D01*
X029268Y030908D01*
X028018Y031908D02*
X025018Y028908D01*
X025018Y027533D01*
X024643Y026908D01*
X024518Y026658D01*
X023768Y025908D01*
X023768Y025658D01*
X023018Y024908D01*
X013518Y024908D01*
X012143Y026283D01*
X012143Y036283D01*
X015518Y039658D01*
X016018Y039658D01*
X016018Y040658D02*
X016768Y040658D01*
X019268Y038158D01*
X021268Y038158D01*
X021393Y039158D02*
X019018Y039158D01*
X016518Y041658D01*
X016018Y041658D01*
X017018Y043658D02*
X019518Y041158D01*
X021393Y041158D01*
X022643Y038158D02*
X023268Y038158D01*
X023893Y038408D01*
X029268Y038408D01*
X030268Y039033D01*
X031518Y039033D01*
X031893Y039408D01*
X031893Y040533D01*
X031772Y040654D01*
X030890Y040654D01*
X030518Y038658D02*
X034393Y038658D01*
X034893Y039158D01*
X035643Y038658D02*
X038643Y038658D01*
X038643Y037658D02*
X040143Y037658D01*
X038643Y037658D02*
X035643Y037658D01*
X030768Y037658D01*
X028518Y035908D01*
X024768Y035908D01*
X023768Y035158D01*
X022768Y035158D01*
X023393Y035658D02*
X022018Y035658D01*
X021393Y035158D02*
X019768Y035158D01*
X018893Y034283D01*
X018893Y031908D01*
X018772Y031787D01*
X018772Y030847D01*
X019268Y031408D02*
X019268Y031658D01*
X019393Y031783D01*
X019393Y033908D01*
X020143Y034658D01*
X022018Y034658D01*
X021518Y034158D02*
X020643Y034158D01*
X019893Y033408D01*
X019893Y031658D01*
X019772Y031537D01*
X019772Y030847D01*
X020268Y031408D02*
X020268Y031533D01*
X020393Y031658D01*
X020393Y032908D01*
X021143Y033658D01*
X022018Y033658D01*
X022768Y034158D02*
X023518Y034158D01*
X025143Y035408D01*
X028643Y035408D01*
X030893Y037158D01*
X035018Y037158D01*
X035643Y036658D02*
X038643Y036658D01*
X039893Y036658D01*
X039893Y035658D02*
X038643Y035658D01*
X035643Y035658D01*
X031143Y035658D01*
X029018Y033908D01*
X026143Y033908D01*
X022768Y031408D01*
X022768Y030851D01*
X022772Y030847D01*
X021772Y030847D02*
X021772Y031537D01*
X022518Y032033D01*
X025768Y034408D01*
X028893Y034408D01*
X031018Y036158D01*
X035018Y036158D01*
X035643Y036658D02*
X030893Y036658D01*
X028768Y034908D01*
X025526Y034908D01*
X022651Y032783D01*
X022518Y032783D01*
X020772Y031537D01*
X020772Y030847D01*
X020268Y030158D02*
X021018Y029408D01*
X022393Y029408D01*
X022772Y029029D01*
X022772Y027847D01*
X023268Y027158D02*
X023018Y026908D01*
X022518Y026908D01*
X022018Y026408D01*
X014268Y026408D01*
X013643Y027033D01*
X013643Y034033D01*
X014518Y034908D01*
X014518Y036408D01*
X015268Y037158D01*
X015518Y036658D02*
X015018Y036158D01*
X015018Y034658D01*
X014143Y033783D01*
X014143Y027283D01*
X014518Y026908D01*
X017518Y026908D01*
X017772Y027162D01*
X017772Y027847D01*
X018268Y028533D02*
X018018Y028783D01*
X016393Y028783D01*
X015268Y029908D01*
X015268Y030158D01*
X014772Y030847D02*
X014772Y027847D01*
X012643Y026533D02*
X012643Y035658D01*
X014643Y037658D01*
X016018Y037658D01*
X016768Y037158D02*
X017018Y037408D01*
X017018Y038408D01*
X016768Y038658D01*
X016018Y038658D01*
X016018Y036658D02*
X015518Y036658D01*
X016018Y035658D02*
X016768Y035658D01*
X017393Y035033D01*
X017393Y032658D01*
X016268Y031533D01*
X015893Y031908D02*
X015268Y031533D01*
X015893Y031908D02*
X016893Y032908D01*
X016893Y034283D01*
X016518Y034658D01*
X016018Y034658D01*
X017893Y035408D02*
X019643Y037158D01*
X021268Y037158D01*
X021393Y036158D02*
X019768Y036158D01*
X018393Y034783D01*
X018393Y032158D01*
X017772Y031537D01*
X017772Y030847D01*
X016772Y030847D02*
X016768Y030851D01*
X016768Y031283D01*
X017893Y032408D01*
X017893Y035408D01*
X023018Y036158D02*
X024768Y037408D01*
X029643Y037408D01*
X030643Y038158D01*
X035018Y038158D01*
X035643Y039658D02*
X033890Y039654D01*
X033890Y040654D02*
X035643Y040658D01*
X038643Y040658D01*
X040143Y040658D01*
X040268Y039658D02*
X038643Y039658D01*
X035643Y039658D01*
X035643Y041658D02*
X033890Y041654D01*
X035643Y041658D02*
X038643Y041658D01*
X040518Y041658D01*
X039643Y042658D02*
X038643Y042658D01*
X035643Y042658D01*
X035643Y043658D02*
X038643Y043658D01*
X039893Y043658D01*
X040143Y044658D02*
X038643Y044658D01*
X035643Y044658D01*
X035643Y045658D02*
X038643Y045658D01*
X040518Y045658D01*
X040393Y046658D02*
X038643Y046658D01*
X035643Y046658D01*
X035640Y046654D01*
X033890Y046654D01*
X033890Y047654D02*
X034515Y047654D01*
X034893Y049033D01*
X042018Y049033D01*
X042268Y048783D01*
X040518Y047658D02*
X038643Y047658D01*
X035643Y047658D01*
X041643Y046658D02*
X042643Y046658D01*
X048393Y047408D02*
X049268Y046533D01*
X051331Y046533D01*
X051893Y045971D01*
X051893Y044158D01*
X051518Y044658D02*
X051518Y045596D01*
X051393Y045721D01*
X050894Y045721D01*
X050893Y045720D01*
X050893Y044972D02*
X050893Y044158D01*
X052331Y045033D02*
X052331Y046158D01*
X051518Y046971D01*
X049456Y046971D01*
X048643Y047783D01*
X048893Y048158D02*
X049643Y047408D01*
X051831Y047408D01*
X052768Y046471D01*
X052768Y045283D01*
X053393Y044658D01*
X052893Y044471D02*
X052331Y045033D01*
X052893Y044471D02*
X052893Y044158D01*
X051456Y041783D02*
X050831Y041221D01*
X051456Y041783D02*
X054331Y041783D01*
X055206Y040908D01*
X055206Y038783D01*
X055331Y038658D01*
X055393Y038658D01*
X056893Y038158D02*
X057959Y038158D01*
X058018Y038098D01*
X058518Y038658D02*
X058643Y038658D01*
X058893Y038408D01*
X058893Y037283D01*
X059393Y037843D02*
X059393Y038658D01*
X058893Y039158D01*
X058078Y039158D01*
X058018Y039218D01*
X057893Y039533D01*
X057268Y040158D01*
X056893Y040158D01*
X058518Y039783D02*
X059268Y039783D01*
X059831Y040346D01*
X059831Y041848D01*
X059831Y042968D02*
X059516Y043283D01*
X058642Y043283D01*
X057894Y043283D02*
X057893Y043284D01*
X057893Y043658D01*
X057643Y043908D01*
X056643Y043908D01*
X055893Y042158D02*
X050581Y042158D01*
X050456Y042283D01*
X049393Y042783D02*
X049143Y042533D01*
X047018Y042533D01*
X046518Y042033D01*
X046518Y041408D01*
X046268Y041158D01*
X045893Y041158D01*
X045893Y035158D02*
X046143Y035158D01*
X044518Y033658D02*
X043393Y033658D01*
X043018Y033283D01*
X039768Y033283D01*
X039143Y033908D01*
X032393Y033908D01*
X031393Y032908D01*
X027268Y032908D01*
X024768Y030408D01*
X023268Y028658D01*
X024518Y029158D02*
X025268Y030033D01*
X027643Y032408D01*
X031643Y032408D01*
X032643Y033408D01*
X038893Y033408D01*
X039518Y032783D01*
X043268Y032783D01*
X043643Y033158D01*
X044893Y033158D01*
X045018Y032283D02*
X033393Y032283D01*
X032893Y032533D01*
X032268Y031783D02*
X032018Y031908D01*
X028018Y031908D01*
X029268Y033408D02*
X026518Y033408D01*
X023772Y031287D01*
X023772Y030847D01*
X024518Y029158D02*
X024518Y027533D01*
X024143Y026783D01*
X022768Y025408D01*
X013768Y025408D01*
X012643Y026533D01*
X015518Y023158D02*
X016768Y023158D01*
X017893Y022033D01*
X021268Y022033D01*
X016768Y022533D02*
X016018Y022533D01*
X015518Y023158D02*
X015143Y022783D01*
X015143Y022283D01*
X015268Y017033D02*
X014643Y017033D01*
X014393Y016783D01*
X018518Y026908D02*
X021518Y026908D01*
X021768Y027158D01*
X021768Y027843D01*
X021772Y027847D01*
X020772Y027847D02*
X020772Y028279D01*
X019268Y029783D01*
X019268Y030158D01*
X018893Y029283D02*
X016768Y029283D01*
X016268Y029783D01*
X016268Y030158D01*
X018893Y029283D02*
X019772Y028404D01*
X019772Y027847D01*
X018518Y026908D02*
X018268Y027158D01*
X023768Y027843D02*
X023772Y027847D01*
X026268Y027783D02*
X030018Y027783D01*
X033518Y031283D01*
X037768Y031283D01*
X038893Y031033D01*
X035893Y030033D02*
X034018Y030033D01*
X031893Y027908D01*
X031893Y026533D01*
X032268Y031783D02*
X045518Y031783D01*
X045893Y032158D01*
X046768Y028783D02*
X046393Y028408D01*
X045393Y028408D01*
X046768Y028783D02*
X049768Y028783D01*
X051393Y031533D02*
X051393Y031658D01*
X035018Y035158D02*
X031268Y035158D01*
X029268Y033408D01*
X027768Y036658D02*
X024768Y036658D01*
X023393Y035658D01*
X023268Y037158D02*
X022768Y037158D01*
X023268Y037158D02*
X024268Y037908D01*
X029393Y037908D01*
X030518Y038658D01*
X019018Y047033D02*
X020518Y049283D01*
X025893Y049283D01*
X027523Y047653D01*
X028191Y047653D01*
X054643Y048408D02*
X054643Y049033D01*
X055268Y049658D01*
X065518Y049658D01*
X065643Y049533D01*
D37*
X033890Y048654D02*
X030890Y048654D01*
X028192Y048654D01*
X028191Y048653D01*
X025191Y048653D02*
X025191Y047653D01*
X025191Y046653D01*
X025186Y048658D02*
X022018Y048658D01*
X016018Y009533D02*
X013761Y009533D01*
X013761Y009150D01*
X012393Y008033D01*
X013732Y009505D02*
X013761Y009533D01*
D38*
X011518Y015408D03*
X045643Y012533D03*
X068893Y030783D03*
X073518Y046408D03*
X050518Y052408D03*
X011518Y047408D03*
M02*
