G75*
G70*
%OFA0B0*%
%FSLAX24Y24*%
%IPPOS*%
%LPD*%
%AMOC8*
5,1,8,0,0,1.08239X$1,22.5*
%
%ADD10C,0.0100*%
%ADD11C,0.0000*%
%ADD12C,0.0001*%
D10*
X000220Y005018D02*
X066595Y005018D01*
X066595Y049268D01*
X000220Y049268D01*
X000220Y005018D01*
D11*
X005728Y017056D02*
X005730Y017085D01*
X005736Y017113D01*
X005745Y017141D01*
X005758Y017167D01*
X005775Y017190D01*
X005794Y017212D01*
X005816Y017231D01*
X005841Y017246D01*
X005867Y017259D01*
X005895Y017267D01*
X005923Y017272D01*
X005952Y017273D01*
X005981Y017270D01*
X006009Y017263D01*
X006036Y017253D01*
X006062Y017239D01*
X006085Y017222D01*
X006106Y017202D01*
X006124Y017179D01*
X006139Y017154D01*
X006150Y017127D01*
X006158Y017099D01*
X006162Y017070D01*
X006162Y017042D01*
X006158Y017013D01*
X006150Y016985D01*
X006139Y016958D01*
X006124Y016933D01*
X006106Y016910D01*
X006085Y016890D01*
X006062Y016873D01*
X006036Y016859D01*
X006009Y016849D01*
X005981Y016842D01*
X005952Y016839D01*
X005923Y016840D01*
X005895Y016845D01*
X005867Y016853D01*
X005841Y016866D01*
X005816Y016881D01*
X005794Y016900D01*
X005775Y016922D01*
X005758Y016945D01*
X005745Y016971D01*
X005736Y016999D01*
X005730Y017027D01*
X005728Y017056D01*
X013930Y017056D02*
X013932Y017091D01*
X013938Y017126D01*
X013948Y017160D01*
X013961Y017193D01*
X013978Y017224D01*
X013999Y017252D01*
X014022Y017279D01*
X014049Y017302D01*
X014077Y017323D01*
X014108Y017340D01*
X014141Y017353D01*
X014175Y017363D01*
X014210Y017369D01*
X014245Y017371D01*
X014280Y017369D01*
X014315Y017363D01*
X014349Y017353D01*
X014382Y017340D01*
X014413Y017323D01*
X014441Y017302D01*
X014468Y017279D01*
X014491Y017252D01*
X014512Y017224D01*
X014529Y017193D01*
X014542Y017160D01*
X014552Y017126D01*
X014558Y017091D01*
X014560Y017056D01*
X014558Y017021D01*
X014552Y016986D01*
X014542Y016952D01*
X014529Y016919D01*
X014512Y016888D01*
X014491Y016860D01*
X014468Y016833D01*
X014441Y016810D01*
X014413Y016789D01*
X014382Y016772D01*
X014349Y016759D01*
X014315Y016749D01*
X014280Y016743D01*
X014245Y016741D01*
X014210Y016743D01*
X014175Y016749D01*
X014141Y016759D01*
X014108Y016772D01*
X014077Y016789D01*
X014049Y016810D01*
X014022Y016833D01*
X013999Y016860D01*
X013978Y016888D01*
X013961Y016919D01*
X013948Y016952D01*
X013938Y016986D01*
X013932Y017021D01*
X013930Y017056D01*
X022078Y019218D02*
X022080Y019268D01*
X022086Y019318D01*
X022096Y019367D01*
X022110Y019415D01*
X022127Y019462D01*
X022148Y019507D01*
X022173Y019551D01*
X022201Y019592D01*
X022233Y019631D01*
X022267Y019668D01*
X022304Y019702D01*
X022344Y019732D01*
X022386Y019759D01*
X022430Y019783D01*
X022476Y019804D01*
X022523Y019820D01*
X022571Y019833D01*
X022621Y019842D01*
X022670Y019847D01*
X022721Y019848D01*
X022771Y019845D01*
X022820Y019838D01*
X022869Y019827D01*
X022917Y019812D01*
X022963Y019794D01*
X023008Y019772D01*
X023051Y019746D01*
X023092Y019717D01*
X023131Y019685D01*
X023167Y019650D01*
X023199Y019612D01*
X023229Y019572D01*
X023256Y019529D01*
X023279Y019485D01*
X023298Y019439D01*
X023314Y019391D01*
X023326Y019342D01*
X023334Y019293D01*
X023338Y019243D01*
X023338Y019193D01*
X023334Y019143D01*
X023326Y019094D01*
X023314Y019045D01*
X023298Y018997D01*
X023279Y018951D01*
X023256Y018907D01*
X023229Y018864D01*
X023199Y018824D01*
X023167Y018786D01*
X023131Y018751D01*
X023092Y018719D01*
X023051Y018690D01*
X023008Y018664D01*
X022963Y018642D01*
X022917Y018624D01*
X022869Y018609D01*
X022820Y018598D01*
X022771Y018591D01*
X022721Y018588D01*
X022670Y018589D01*
X022621Y018594D01*
X022571Y018603D01*
X022523Y018616D01*
X022476Y018632D01*
X022430Y018653D01*
X022386Y018677D01*
X022344Y018704D01*
X022304Y018734D01*
X022267Y018768D01*
X022233Y018805D01*
X022201Y018844D01*
X022173Y018885D01*
X022148Y018929D01*
X022127Y018974D01*
X022110Y019021D01*
X022096Y019069D01*
X022086Y019118D01*
X022080Y019168D01*
X022078Y019218D01*
X026602Y019218D02*
X026604Y019268D01*
X026610Y019318D01*
X026620Y019367D01*
X026634Y019415D01*
X026651Y019462D01*
X026672Y019507D01*
X026697Y019551D01*
X026725Y019592D01*
X026757Y019631D01*
X026791Y019668D01*
X026828Y019702D01*
X026868Y019732D01*
X026910Y019759D01*
X026954Y019783D01*
X027000Y019804D01*
X027047Y019820D01*
X027095Y019833D01*
X027145Y019842D01*
X027194Y019847D01*
X027245Y019848D01*
X027295Y019845D01*
X027344Y019838D01*
X027393Y019827D01*
X027441Y019812D01*
X027487Y019794D01*
X027532Y019772D01*
X027575Y019746D01*
X027616Y019717D01*
X027655Y019685D01*
X027691Y019650D01*
X027723Y019612D01*
X027753Y019572D01*
X027780Y019529D01*
X027803Y019485D01*
X027822Y019439D01*
X027838Y019391D01*
X027850Y019342D01*
X027858Y019293D01*
X027862Y019243D01*
X027862Y019193D01*
X027858Y019143D01*
X027850Y019094D01*
X027838Y019045D01*
X027822Y018997D01*
X027803Y018951D01*
X027780Y018907D01*
X027753Y018864D01*
X027723Y018824D01*
X027691Y018786D01*
X027655Y018751D01*
X027616Y018719D01*
X027575Y018690D01*
X027532Y018664D01*
X027487Y018642D01*
X027441Y018624D01*
X027393Y018609D01*
X027344Y018598D01*
X027295Y018591D01*
X027245Y018588D01*
X027194Y018589D01*
X027145Y018594D01*
X027095Y018603D01*
X027047Y018616D01*
X027000Y018632D01*
X026954Y018653D01*
X026910Y018677D01*
X026868Y018704D01*
X026828Y018734D01*
X026791Y018768D01*
X026757Y018805D01*
X026725Y018844D01*
X026697Y018885D01*
X026672Y018929D01*
X026651Y018974D01*
X026634Y019021D01*
X026620Y019069D01*
X026610Y019118D01*
X026604Y019168D01*
X026602Y019218D01*
X026602Y014694D02*
X026604Y014744D01*
X026610Y014794D01*
X026620Y014843D01*
X026634Y014891D01*
X026651Y014938D01*
X026672Y014983D01*
X026697Y015027D01*
X026725Y015068D01*
X026757Y015107D01*
X026791Y015144D01*
X026828Y015178D01*
X026868Y015208D01*
X026910Y015235D01*
X026954Y015259D01*
X027000Y015280D01*
X027047Y015296D01*
X027095Y015309D01*
X027145Y015318D01*
X027194Y015323D01*
X027245Y015324D01*
X027295Y015321D01*
X027344Y015314D01*
X027393Y015303D01*
X027441Y015288D01*
X027487Y015270D01*
X027532Y015248D01*
X027575Y015222D01*
X027616Y015193D01*
X027655Y015161D01*
X027691Y015126D01*
X027723Y015088D01*
X027753Y015048D01*
X027780Y015005D01*
X027803Y014961D01*
X027822Y014915D01*
X027838Y014867D01*
X027850Y014818D01*
X027858Y014769D01*
X027862Y014719D01*
X027862Y014669D01*
X027858Y014619D01*
X027850Y014570D01*
X027838Y014521D01*
X027822Y014473D01*
X027803Y014427D01*
X027780Y014383D01*
X027753Y014340D01*
X027723Y014300D01*
X027691Y014262D01*
X027655Y014227D01*
X027616Y014195D01*
X027575Y014166D01*
X027532Y014140D01*
X027487Y014118D01*
X027441Y014100D01*
X027393Y014085D01*
X027344Y014074D01*
X027295Y014067D01*
X027245Y014064D01*
X027194Y014065D01*
X027145Y014070D01*
X027095Y014079D01*
X027047Y014092D01*
X027000Y014108D01*
X026954Y014129D01*
X026910Y014153D01*
X026868Y014180D01*
X026828Y014210D01*
X026791Y014244D01*
X026757Y014281D01*
X026725Y014320D01*
X026697Y014361D01*
X026672Y014405D01*
X026651Y014450D01*
X026634Y014497D01*
X026620Y014545D01*
X026610Y014594D01*
X026604Y014644D01*
X026602Y014694D01*
X022078Y014694D02*
X022080Y014744D01*
X022086Y014794D01*
X022096Y014843D01*
X022110Y014891D01*
X022127Y014938D01*
X022148Y014983D01*
X022173Y015027D01*
X022201Y015068D01*
X022233Y015107D01*
X022267Y015144D01*
X022304Y015178D01*
X022344Y015208D01*
X022386Y015235D01*
X022430Y015259D01*
X022476Y015280D01*
X022523Y015296D01*
X022571Y015309D01*
X022621Y015318D01*
X022670Y015323D01*
X022721Y015324D01*
X022771Y015321D01*
X022820Y015314D01*
X022869Y015303D01*
X022917Y015288D01*
X022963Y015270D01*
X023008Y015248D01*
X023051Y015222D01*
X023092Y015193D01*
X023131Y015161D01*
X023167Y015126D01*
X023199Y015088D01*
X023229Y015048D01*
X023256Y015005D01*
X023279Y014961D01*
X023298Y014915D01*
X023314Y014867D01*
X023326Y014818D01*
X023334Y014769D01*
X023338Y014719D01*
X023338Y014669D01*
X023334Y014619D01*
X023326Y014570D01*
X023314Y014521D01*
X023298Y014473D01*
X023279Y014427D01*
X023256Y014383D01*
X023229Y014340D01*
X023199Y014300D01*
X023167Y014262D01*
X023131Y014227D01*
X023092Y014195D01*
X023051Y014166D01*
X023008Y014140D01*
X022963Y014118D01*
X022917Y014100D01*
X022869Y014085D01*
X022820Y014074D01*
X022771Y014067D01*
X022721Y014064D01*
X022670Y014065D01*
X022621Y014070D01*
X022571Y014079D01*
X022523Y014092D01*
X022476Y014108D01*
X022430Y014129D01*
X022386Y014153D01*
X022344Y014180D01*
X022304Y014210D01*
X022267Y014244D01*
X022233Y014281D01*
X022201Y014320D01*
X022173Y014361D01*
X022148Y014405D01*
X022127Y014450D01*
X022110Y014497D01*
X022096Y014545D01*
X022086Y014594D01*
X022080Y014644D01*
X022078Y014694D01*
X025900Y044981D02*
X025902Y045029D01*
X025908Y045078D01*
X025918Y045125D01*
X025931Y045172D01*
X025949Y045217D01*
X025970Y045261D01*
X025994Y045303D01*
X026022Y045342D01*
X026053Y045380D01*
X026087Y045414D01*
X026124Y045446D01*
X026163Y045475D01*
X026205Y045500D01*
X026248Y045522D01*
X026293Y045541D01*
X026339Y045555D01*
X026386Y045566D01*
X026434Y045573D01*
X026483Y045576D01*
X026531Y045575D01*
X026580Y045570D01*
X026627Y045561D01*
X026674Y045548D01*
X026720Y045532D01*
X026764Y045512D01*
X026806Y045488D01*
X026847Y045461D01*
X026885Y045431D01*
X026920Y045397D01*
X026953Y045361D01*
X026982Y045323D01*
X027008Y045282D01*
X027031Y045239D01*
X027050Y045195D01*
X027066Y045149D01*
X027078Y045102D01*
X027086Y045054D01*
X027090Y045005D01*
X027090Y044957D01*
X027086Y044908D01*
X027078Y044860D01*
X027066Y044813D01*
X027050Y044767D01*
X027031Y044723D01*
X027008Y044680D01*
X026982Y044639D01*
X026953Y044601D01*
X026920Y044565D01*
X026885Y044531D01*
X026847Y044501D01*
X026806Y044474D01*
X026764Y044450D01*
X026720Y044430D01*
X026674Y044414D01*
X026627Y044401D01*
X026580Y044392D01*
X026531Y044387D01*
X026483Y044386D01*
X026434Y044389D01*
X026386Y044396D01*
X026339Y044407D01*
X026293Y044421D01*
X026248Y044440D01*
X026205Y044462D01*
X026163Y044487D01*
X026124Y044516D01*
X026087Y044548D01*
X026053Y044582D01*
X026022Y044620D01*
X025994Y044659D01*
X025970Y044701D01*
X025949Y044745D01*
X025931Y044790D01*
X025918Y044837D01*
X025908Y044884D01*
X025902Y044933D01*
X025900Y044981D01*
X025895Y044981D02*
X025897Y044933D01*
X025903Y044885D01*
X025912Y044837D01*
X025926Y044791D01*
X025943Y044746D01*
X025964Y044702D01*
X025988Y044660D01*
X026015Y044621D01*
X026046Y044583D01*
X026079Y044548D01*
X026116Y044516D01*
X026154Y044487D01*
X026195Y044461D01*
X026238Y044439D01*
X026282Y044420D01*
X026328Y044405D01*
X026375Y044393D01*
X026423Y044385D01*
X026471Y044381D01*
X026519Y044381D01*
X026567Y044385D01*
X026615Y044393D01*
X026662Y044405D01*
X026708Y044420D01*
X026752Y044439D01*
X026795Y044461D01*
X026836Y044487D01*
X026874Y044516D01*
X026911Y044548D01*
X026944Y044583D01*
X026975Y044621D01*
X027002Y044660D01*
X027026Y044702D01*
X027047Y044746D01*
X027064Y044791D01*
X027078Y044837D01*
X027087Y044885D01*
X027093Y044933D01*
X027095Y044981D01*
X025900Y046381D02*
X025902Y046429D01*
X025908Y046478D01*
X025918Y046525D01*
X025931Y046572D01*
X025949Y046617D01*
X025970Y046661D01*
X025994Y046703D01*
X026022Y046742D01*
X026053Y046780D01*
X026087Y046814D01*
X026124Y046846D01*
X026163Y046875D01*
X026205Y046900D01*
X026248Y046922D01*
X026293Y046941D01*
X026339Y046955D01*
X026386Y046966D01*
X026434Y046973D01*
X026483Y046976D01*
X026531Y046975D01*
X026580Y046970D01*
X026627Y046961D01*
X026674Y046948D01*
X026720Y046932D01*
X026764Y046912D01*
X026806Y046888D01*
X026847Y046861D01*
X026885Y046831D01*
X026920Y046797D01*
X026953Y046761D01*
X026982Y046723D01*
X027008Y046682D01*
X027031Y046639D01*
X027050Y046595D01*
X027066Y046549D01*
X027078Y046502D01*
X027086Y046454D01*
X027090Y046405D01*
X027090Y046357D01*
X027086Y046308D01*
X027078Y046260D01*
X027066Y046213D01*
X027050Y046167D01*
X027031Y046123D01*
X027008Y046080D01*
X026982Y046039D01*
X026953Y046001D01*
X026920Y045965D01*
X026885Y045931D01*
X026847Y045901D01*
X026806Y045874D01*
X026764Y045850D01*
X026720Y045830D01*
X026674Y045814D01*
X026627Y045801D01*
X026580Y045792D01*
X026531Y045787D01*
X026483Y045786D01*
X026434Y045789D01*
X026386Y045796D01*
X026339Y045807D01*
X026293Y045821D01*
X026248Y045840D01*
X026205Y045862D01*
X026163Y045887D01*
X026124Y045916D01*
X026087Y045948D01*
X026053Y045982D01*
X026022Y046020D01*
X025994Y046059D01*
X025970Y046101D01*
X025949Y046145D01*
X025931Y046190D01*
X025918Y046237D01*
X025908Y046284D01*
X025902Y046333D01*
X025900Y046381D01*
X025895Y046381D02*
X025897Y046429D01*
X025903Y046477D01*
X025912Y046525D01*
X025926Y046571D01*
X025943Y046616D01*
X025964Y046660D01*
X025988Y046702D01*
X026015Y046741D01*
X026046Y046779D01*
X026079Y046814D01*
X026116Y046846D01*
X026154Y046875D01*
X026195Y046901D01*
X026238Y046923D01*
X026282Y046942D01*
X026328Y046957D01*
X026375Y046969D01*
X026423Y046977D01*
X026471Y046981D01*
X026519Y046981D01*
X026567Y046977D01*
X026615Y046969D01*
X026662Y046957D01*
X026708Y046942D01*
X026752Y046923D01*
X026795Y046901D01*
X026836Y046875D01*
X026874Y046846D01*
X026911Y046814D01*
X026944Y046779D01*
X026975Y046741D01*
X027002Y046702D01*
X027026Y046660D01*
X027047Y046616D01*
X027064Y046571D01*
X027078Y046525D01*
X027087Y046477D01*
X027093Y046429D01*
X027095Y046381D01*
X005100Y046381D02*
X005102Y046429D01*
X005108Y046478D01*
X005118Y046525D01*
X005131Y046572D01*
X005149Y046617D01*
X005170Y046661D01*
X005194Y046703D01*
X005222Y046742D01*
X005253Y046780D01*
X005287Y046814D01*
X005324Y046846D01*
X005363Y046875D01*
X005405Y046900D01*
X005448Y046922D01*
X005493Y046941D01*
X005539Y046955D01*
X005586Y046966D01*
X005634Y046973D01*
X005683Y046976D01*
X005731Y046975D01*
X005780Y046970D01*
X005827Y046961D01*
X005874Y046948D01*
X005920Y046932D01*
X005964Y046912D01*
X006006Y046888D01*
X006047Y046861D01*
X006085Y046831D01*
X006120Y046797D01*
X006153Y046761D01*
X006182Y046723D01*
X006208Y046682D01*
X006231Y046639D01*
X006250Y046595D01*
X006266Y046549D01*
X006278Y046502D01*
X006286Y046454D01*
X006290Y046405D01*
X006290Y046357D01*
X006286Y046308D01*
X006278Y046260D01*
X006266Y046213D01*
X006250Y046167D01*
X006231Y046123D01*
X006208Y046080D01*
X006182Y046039D01*
X006153Y046001D01*
X006120Y045965D01*
X006085Y045931D01*
X006047Y045901D01*
X006006Y045874D01*
X005964Y045850D01*
X005920Y045830D01*
X005874Y045814D01*
X005827Y045801D01*
X005780Y045792D01*
X005731Y045787D01*
X005683Y045786D01*
X005634Y045789D01*
X005586Y045796D01*
X005539Y045807D01*
X005493Y045821D01*
X005448Y045840D01*
X005405Y045862D01*
X005363Y045887D01*
X005324Y045916D01*
X005287Y045948D01*
X005253Y045982D01*
X005222Y046020D01*
X005194Y046059D01*
X005170Y046101D01*
X005149Y046145D01*
X005131Y046190D01*
X005118Y046237D01*
X005108Y046284D01*
X005102Y046333D01*
X005100Y046381D01*
X005095Y046381D02*
X005097Y046429D01*
X005103Y046477D01*
X005112Y046525D01*
X005126Y046571D01*
X005143Y046616D01*
X005164Y046660D01*
X005188Y046702D01*
X005215Y046741D01*
X005246Y046779D01*
X005279Y046814D01*
X005316Y046846D01*
X005354Y046875D01*
X005395Y046901D01*
X005438Y046923D01*
X005482Y046942D01*
X005528Y046957D01*
X005575Y046969D01*
X005623Y046977D01*
X005671Y046981D01*
X005719Y046981D01*
X005767Y046977D01*
X005815Y046969D01*
X005862Y046957D01*
X005908Y046942D01*
X005952Y046923D01*
X005995Y046901D01*
X006036Y046875D01*
X006074Y046846D01*
X006111Y046814D01*
X006144Y046779D01*
X006175Y046741D01*
X006202Y046702D01*
X006226Y046660D01*
X006247Y046616D01*
X006264Y046571D01*
X006278Y046525D01*
X006287Y046477D01*
X006293Y046429D01*
X006295Y046381D01*
X005100Y044981D02*
X005102Y045029D01*
X005108Y045078D01*
X005118Y045125D01*
X005131Y045172D01*
X005149Y045217D01*
X005170Y045261D01*
X005194Y045303D01*
X005222Y045342D01*
X005253Y045380D01*
X005287Y045414D01*
X005324Y045446D01*
X005363Y045475D01*
X005405Y045500D01*
X005448Y045522D01*
X005493Y045541D01*
X005539Y045555D01*
X005586Y045566D01*
X005634Y045573D01*
X005683Y045576D01*
X005731Y045575D01*
X005780Y045570D01*
X005827Y045561D01*
X005874Y045548D01*
X005920Y045532D01*
X005964Y045512D01*
X006006Y045488D01*
X006047Y045461D01*
X006085Y045431D01*
X006120Y045397D01*
X006153Y045361D01*
X006182Y045323D01*
X006208Y045282D01*
X006231Y045239D01*
X006250Y045195D01*
X006266Y045149D01*
X006278Y045102D01*
X006286Y045054D01*
X006290Y045005D01*
X006290Y044957D01*
X006286Y044908D01*
X006278Y044860D01*
X006266Y044813D01*
X006250Y044767D01*
X006231Y044723D01*
X006208Y044680D01*
X006182Y044639D01*
X006153Y044601D01*
X006120Y044565D01*
X006085Y044531D01*
X006047Y044501D01*
X006006Y044474D01*
X005964Y044450D01*
X005920Y044430D01*
X005874Y044414D01*
X005827Y044401D01*
X005780Y044392D01*
X005731Y044387D01*
X005683Y044386D01*
X005634Y044389D01*
X005586Y044396D01*
X005539Y044407D01*
X005493Y044421D01*
X005448Y044440D01*
X005405Y044462D01*
X005363Y044487D01*
X005324Y044516D01*
X005287Y044548D01*
X005253Y044582D01*
X005222Y044620D01*
X005194Y044659D01*
X005170Y044701D01*
X005149Y044745D01*
X005131Y044790D01*
X005118Y044837D01*
X005108Y044884D01*
X005102Y044933D01*
X005100Y044981D01*
X005095Y044981D02*
X005097Y044933D01*
X005103Y044885D01*
X005112Y044837D01*
X005126Y044791D01*
X005143Y044746D01*
X005164Y044702D01*
X005188Y044660D01*
X005215Y044621D01*
X005246Y044583D01*
X005279Y044548D01*
X005316Y044516D01*
X005354Y044487D01*
X005395Y044461D01*
X005438Y044439D01*
X005482Y044420D01*
X005528Y044405D01*
X005575Y044393D01*
X005623Y044385D01*
X005671Y044381D01*
X005719Y044381D01*
X005767Y044385D01*
X005815Y044393D01*
X005862Y044405D01*
X005908Y044420D01*
X005952Y044439D01*
X005995Y044461D01*
X006036Y044487D01*
X006074Y044516D01*
X006111Y044548D01*
X006144Y044583D01*
X006175Y044621D01*
X006202Y044660D01*
X006226Y044702D01*
X006247Y044746D01*
X006264Y044791D01*
X006278Y044837D01*
X006287Y044885D01*
X006293Y044933D01*
X006295Y044981D01*
D12*
X006295Y046381D01*
X005095Y046381D02*
X005095Y044981D01*
X025895Y044981D02*
X025895Y046381D01*
X027095Y046381D02*
X027095Y044981D01*
M02*
