G75*
G70*
%OFA0B0*%
%FSLAX24Y24*%
%IPPOS*%
%LPD*%
%AMOC8*
5,1,8,0,0,1.08239X$1,22.5*
%
%ADD10C,0.0160*%
%ADD11C,0.0050*%
%ADD12C,0.0040*%
%ADD13C,0.0060*%
%ADD14C,0.0070*%
%ADD15C,0.0020*%
%ADD16R,0.0200X0.0200*%
%ADD17C,0.0035*%
%ADD18C,0.0080*%
%ADD19C,0.0100*%
%ADD20C,0.0010*%
%ADD21R,0.0551X0.0256*%
%ADD22R,0.0256X0.0551*%
%ADD23R,0.0827X0.0118*%
%ADD24R,0.1000X0.0200*%
%ADD25R,0.0200X0.1000*%
%ADD26C,0.0000*%
D10*
X028086Y022209D02*
X028086Y023209D01*
D11*
X032611Y022844D02*
X033018Y022844D01*
X033018Y022742D01*
X032611Y022335D01*
X032611Y022234D01*
X033219Y022335D02*
X033320Y022234D01*
X033524Y022234D01*
X033626Y022335D01*
X033626Y022539D01*
X033524Y022641D01*
X033422Y022641D01*
X033219Y022539D01*
X033219Y022844D01*
X033626Y022844D01*
X034611Y021094D02*
X035018Y021094D01*
X035018Y020992D01*
X034611Y020585D01*
X034611Y020484D01*
X035219Y020789D02*
X035524Y021094D01*
X035524Y020484D01*
X035626Y020789D02*
X035219Y020789D01*
X035018Y011094D02*
X034611Y011094D01*
X034611Y010789D01*
X034814Y010891D01*
X034916Y010891D01*
X035018Y010789D01*
X035018Y010585D01*
X034916Y010484D01*
X034713Y010484D01*
X034611Y010585D01*
X035219Y010789D02*
X035524Y011094D01*
X035524Y010484D01*
X035626Y010789D02*
X035219Y010789D01*
X033524Y009094D02*
X033626Y008992D01*
X033626Y008891D01*
X033524Y008789D01*
X033626Y008687D01*
X033626Y008585D01*
X033524Y008484D01*
X033320Y008484D01*
X033219Y008585D01*
X033018Y008585D02*
X033018Y008789D01*
X032916Y008891D01*
X032814Y008891D01*
X032611Y008789D01*
X032611Y009094D01*
X033018Y009094D01*
X033219Y008992D02*
X033320Y009094D01*
X033524Y009094D01*
X033524Y008789D02*
X033422Y008789D01*
X033018Y008585D02*
X032916Y008484D01*
X032713Y008484D01*
X032611Y008585D01*
X023626Y008585D02*
X023524Y008484D01*
X023320Y008484D01*
X023219Y008585D01*
X023018Y008585D02*
X022916Y008484D01*
X022713Y008484D01*
X022611Y008585D01*
X022814Y008789D02*
X022916Y008789D01*
X023018Y008687D01*
X023018Y008585D01*
X022916Y008789D02*
X023018Y008891D01*
X023018Y008992D01*
X022916Y009094D01*
X022713Y009094D01*
X022611Y008992D01*
X023219Y008992D02*
X023320Y009094D01*
X023524Y009094D01*
X023626Y008992D01*
X023626Y008891D01*
X023524Y008789D01*
X023626Y008687D01*
X023626Y008585D01*
X023524Y008789D02*
X023422Y008789D01*
X021626Y010484D02*
X021219Y010484D01*
X021626Y010891D01*
X021626Y010992D01*
X021524Y011094D01*
X021320Y011094D01*
X021219Y010992D01*
X021018Y010992D02*
X021018Y010891D01*
X020916Y010789D01*
X021018Y010687D01*
X021018Y010585D01*
X020916Y010484D01*
X020713Y010484D01*
X020611Y010585D01*
X020814Y010789D02*
X020916Y010789D01*
X021018Y010992D02*
X020916Y011094D01*
X020713Y011094D01*
X020611Y010992D01*
X020786Y014034D02*
X020636Y014184D01*
X021086Y014184D01*
X021086Y014034D02*
X021086Y014334D01*
X018286Y015859D02*
X017836Y016159D01*
X017836Y016319D02*
X018061Y016319D01*
X017986Y016469D01*
X017986Y016544D01*
X018061Y016619D01*
X018211Y016619D01*
X018286Y016544D01*
X018286Y016394D01*
X018211Y016319D01*
X018286Y016159D02*
X017836Y015859D01*
X017836Y016319D02*
X017836Y016619D01*
X017986Y018034D02*
X017836Y018184D01*
X018286Y018184D01*
X018286Y018034D02*
X018286Y018334D01*
X018211Y018494D02*
X017911Y018794D01*
X018211Y018794D01*
X018286Y018719D01*
X018286Y018569D01*
X018211Y018494D01*
X017911Y018494D01*
X017836Y018569D01*
X017836Y018719D01*
X017911Y018794D01*
X020611Y020484D02*
X021018Y020484D01*
X021219Y020484D02*
X021626Y020891D01*
X021626Y020992D01*
X021524Y021094D01*
X021320Y021094D01*
X021219Y020992D01*
X020814Y021094D02*
X020814Y020484D01*
X021219Y020484D02*
X021626Y020484D01*
X020814Y021094D02*
X020611Y020891D01*
X022611Y022234D02*
X023018Y022234D01*
X023219Y022234D02*
X023626Y022234D01*
X023422Y022234D02*
X023422Y022844D01*
X023219Y022641D01*
X022814Y022844D02*
X022814Y022234D01*
X022611Y022641D02*
X022814Y022844D01*
X020451Y027859D02*
X020451Y027934D01*
X020751Y028234D01*
X020751Y028309D01*
X020451Y028309D01*
X020290Y028234D02*
X020215Y028309D01*
X020065Y028309D01*
X019990Y028234D01*
X019990Y027934D01*
X020065Y027859D01*
X020215Y027859D01*
X020290Y027934D01*
X009326Y027684D02*
X009251Y027759D01*
X009101Y027759D01*
X009026Y027684D01*
X008865Y027684D02*
X008865Y027384D01*
X008790Y027309D01*
X008640Y027309D01*
X008565Y027384D01*
X008565Y027684D01*
X008640Y027759D01*
X008790Y027759D01*
X008865Y027684D01*
X008715Y027459D02*
X008865Y027309D01*
X009026Y027309D02*
X009326Y027609D01*
X009326Y027684D01*
X009326Y027309D02*
X009026Y027309D01*
X004911Y025590D02*
X004911Y025290D01*
X004911Y025440D02*
X004461Y025440D01*
X004611Y025290D01*
X004911Y025130D02*
X004911Y024829D01*
X004911Y024980D02*
X004461Y024980D01*
X004611Y024829D01*
X004536Y024669D02*
X004461Y024594D01*
X004461Y024369D01*
X004911Y024369D01*
X004911Y024594D01*
X004836Y024669D01*
X004536Y024669D01*
X004536Y024209D02*
X004461Y024134D01*
X004461Y023909D01*
X004911Y023909D01*
X004911Y024134D01*
X004836Y024209D01*
X004536Y024209D01*
X008440Y020559D02*
X008515Y020634D01*
X008665Y020634D01*
X008740Y020559D01*
X008740Y020259D01*
X008665Y020184D01*
X008515Y020184D01*
X008440Y020259D01*
X008440Y020559D01*
X008590Y020334D02*
X008740Y020184D01*
X008901Y020184D02*
X009201Y020184D01*
X009051Y020184D02*
X009051Y020634D01*
X008901Y020484D01*
X031636Y037563D02*
X032086Y037863D01*
X032011Y038023D02*
X032086Y038098D01*
X032086Y038248D01*
X032011Y038323D01*
X031936Y038323D01*
X031861Y038248D01*
X031861Y038023D01*
X032011Y038023D01*
X031861Y038023D02*
X031711Y038173D01*
X031636Y038323D01*
X031636Y037863D02*
X032086Y037563D01*
X032036Y038898D02*
X032036Y039198D01*
X032036Y039048D02*
X031586Y039048D01*
X031736Y038898D01*
X033486Y036348D02*
X033561Y036198D01*
X033711Y036048D01*
X033711Y036273D01*
X033786Y036348D01*
X033861Y036348D01*
X033936Y036273D01*
X033936Y036123D01*
X033861Y036048D01*
X033711Y036048D01*
X020311Y040384D02*
X020311Y040534D01*
X020236Y040609D01*
X020236Y040769D02*
X020311Y040844D01*
X020311Y040994D01*
X020236Y041069D01*
X019936Y041069D01*
X019861Y040994D01*
X019861Y040844D01*
X019936Y040769D01*
X020011Y040769D01*
X020086Y040844D01*
X020086Y041069D01*
X019936Y040609D02*
X019861Y040534D01*
X019861Y040384D01*
X019936Y040309D01*
X020236Y040309D01*
X020311Y040384D01*
X018311Y040409D02*
X018236Y040484D01*
X018311Y040409D02*
X018311Y040259D01*
X018236Y040184D01*
X017936Y040184D01*
X017861Y040259D01*
X017861Y040409D01*
X017936Y040484D01*
X017936Y040644D02*
X018011Y040644D01*
X018086Y040719D01*
X018086Y040869D01*
X018161Y040944D01*
X018236Y040944D01*
X018311Y040869D01*
X018311Y040719D01*
X018236Y040644D01*
X018161Y040644D01*
X018086Y040719D01*
X018086Y040869D02*
X018011Y040944D01*
X017936Y040944D01*
X017861Y040869D01*
X017861Y040719D01*
X017936Y040644D01*
X020086Y042459D02*
X020086Y048859D01*
X019586Y048859D01*
X019586Y056659D01*
X010286Y056659D01*
X010286Y048859D01*
X009786Y048859D01*
X009786Y045359D01*
X010486Y044459D01*
X010486Y042459D01*
X020086Y042459D01*
X015811Y040994D02*
X015811Y040844D01*
X015736Y040769D01*
X015586Y040769D02*
X015511Y040919D01*
X015511Y040994D01*
X015586Y041069D01*
X015736Y041069D01*
X015811Y040994D01*
X015586Y040769D02*
X015361Y040769D01*
X015361Y041069D01*
X015436Y040609D02*
X015361Y040534D01*
X015361Y040384D01*
X015436Y040309D01*
X015736Y040309D01*
X015811Y040384D01*
X015811Y040534D01*
X015736Y040609D01*
X019586Y052059D02*
X019586Y052259D01*
X024926Y052509D02*
X025226Y052509D01*
X025076Y052509D02*
X025076Y052959D01*
X024926Y052809D01*
X040715Y052884D02*
X040790Y052959D01*
X040940Y052959D01*
X041015Y052884D01*
X041015Y052809D01*
X040715Y052509D01*
X041015Y052509D01*
X041176Y052509D02*
X041476Y052509D01*
X041326Y052509D02*
X041326Y052959D01*
X041176Y052809D01*
D12*
X016959Y007107D02*
X016959Y006647D01*
X016959Y006800D02*
X017189Y006800D01*
X017266Y006877D01*
X017266Y007031D01*
X017189Y007107D01*
X016959Y007107D01*
X017113Y006800D02*
X017266Y006647D01*
X017420Y006570D02*
X017727Y006570D01*
X017880Y006724D02*
X017957Y006647D01*
X018110Y006647D01*
X018187Y006724D01*
X018187Y006800D01*
X018110Y006877D01*
X017957Y006877D01*
X017880Y006954D01*
X017880Y007031D01*
X017957Y007107D01*
X018110Y007107D01*
X018187Y007031D01*
X018340Y007031D02*
X018494Y006877D01*
X018494Y006647D01*
X018494Y006877D02*
X018647Y007031D01*
X018647Y007107D01*
X018340Y007107D02*
X018340Y007031D01*
X018187Y008647D02*
X018034Y008800D01*
X018110Y008800D02*
X017880Y008800D01*
X017880Y008647D02*
X017880Y009107D01*
X018110Y009107D01*
X018187Y009031D01*
X018187Y008877D01*
X018110Y008800D01*
X017727Y008570D02*
X017420Y008570D01*
X017266Y008647D02*
X017113Y008800D01*
X017189Y008800D02*
X016959Y008800D01*
X016959Y008647D02*
X016959Y009107D01*
X017189Y009107D01*
X017266Y009031D01*
X017266Y008877D01*
X017189Y008800D01*
X017420Y010570D02*
X017727Y010570D01*
X017880Y010724D02*
X017880Y011031D01*
X017957Y011107D01*
X018110Y011107D01*
X018187Y011031D01*
X018187Y010877D02*
X018034Y010877D01*
X018187Y010877D02*
X018187Y010724D01*
X018110Y010647D01*
X017957Y010647D01*
X017880Y010724D01*
X017266Y010647D02*
X017113Y010800D01*
X017189Y010800D02*
X016959Y010800D01*
X016959Y010647D02*
X016959Y011107D01*
X017189Y011107D01*
X017266Y011031D01*
X017266Y010877D01*
X017189Y010800D01*
X017420Y012570D02*
X017727Y012570D01*
X017880Y012647D02*
X017880Y013107D01*
X018110Y013107D01*
X018187Y013031D01*
X018187Y012954D01*
X018110Y012877D01*
X017880Y012877D01*
X017880Y012647D02*
X018110Y012647D01*
X018187Y012724D01*
X018187Y012800D01*
X018110Y012877D01*
X017266Y012877D02*
X017189Y012800D01*
X016959Y012800D01*
X016959Y012647D02*
X016959Y013107D01*
X017189Y013107D01*
X017266Y013031D01*
X017266Y012877D01*
X017113Y012800D02*
X017266Y012647D01*
X026606Y018479D02*
X026836Y018479D01*
X026913Y018555D01*
X026913Y018862D01*
X026836Y018939D01*
X026606Y018939D01*
X026606Y018479D01*
X027066Y018479D02*
X027297Y018479D01*
X027373Y018555D01*
X027373Y018862D01*
X027297Y018939D01*
X027066Y018939D01*
X027066Y018479D01*
X027527Y018479D02*
X027834Y018786D01*
X027834Y018862D01*
X027757Y018939D01*
X027603Y018939D01*
X027527Y018862D01*
X027527Y018479D02*
X027834Y018479D01*
X046429Y004168D02*
X046429Y003708D01*
X046659Y003708D01*
X046736Y003784D01*
X046736Y004091D01*
X046659Y004168D01*
X046429Y004168D01*
X046889Y004168D02*
X046889Y003708D01*
X047119Y003708D01*
X047196Y003784D01*
X047196Y004091D01*
X047119Y004168D01*
X046889Y004168D01*
X047349Y003938D02*
X047656Y003938D01*
X047580Y003708D02*
X047580Y004168D01*
X047349Y003938D01*
X051253Y002669D02*
X051483Y002669D01*
X051559Y002592D01*
X051559Y002285D01*
X051483Y002209D01*
X051253Y002209D01*
X051253Y002669D01*
X051713Y002669D02*
X051943Y002669D01*
X052020Y002592D01*
X052020Y002285D01*
X051943Y002209D01*
X051713Y002209D01*
X051713Y002669D01*
X052173Y002669D02*
X052173Y002439D01*
X052327Y002515D01*
X052404Y002515D01*
X052480Y002439D01*
X052480Y002285D01*
X052404Y002209D01*
X052250Y002209D01*
X052173Y002285D01*
X052173Y002669D02*
X052480Y002669D01*
X052387Y012833D02*
X052233Y012833D01*
X052157Y012909D01*
X052464Y013216D01*
X052464Y012909D01*
X052387Y012833D01*
X052157Y012909D02*
X052157Y013216D01*
X052233Y013293D01*
X052387Y013293D01*
X052464Y013216D01*
X052003Y012833D02*
X051696Y012833D01*
X051850Y012833D02*
X051850Y013293D01*
X051696Y013139D01*
X051543Y013216D02*
X051466Y013293D01*
X051236Y013293D01*
X051236Y012833D01*
X051466Y012833D01*
X051543Y012909D01*
X051543Y013216D01*
X051082Y013216D02*
X051006Y013293D01*
X050775Y013293D01*
X050775Y012833D01*
X051006Y012833D01*
X051082Y012909D01*
X051082Y013216D01*
X077766Y053284D02*
X077843Y053284D01*
X077920Y053361D01*
X077920Y053745D01*
X077996Y053745D02*
X077843Y053745D01*
X078150Y053745D02*
X078150Y053284D01*
X078457Y053284D02*
X078457Y053745D01*
X078303Y053591D01*
X078150Y053745D01*
X078610Y053745D02*
X078840Y053745D01*
X078917Y053668D01*
X078917Y053515D01*
X078840Y053438D01*
X078610Y053438D01*
X078610Y053284D02*
X078610Y053745D01*
X079071Y053591D02*
X079224Y053745D01*
X079224Y053284D01*
X079071Y053284D02*
X079377Y053284D01*
X077766Y053284D02*
X077689Y053361D01*
X017140Y054079D02*
X016910Y054079D01*
X016833Y054155D01*
X016833Y054309D01*
X016910Y054386D01*
X017140Y054386D01*
X017140Y054539D02*
X017140Y054079D01*
X016680Y054386D02*
X016603Y054386D01*
X016449Y054232D01*
X016296Y054232D02*
X016066Y054232D01*
X015989Y054155D01*
X016066Y054079D01*
X016296Y054079D01*
X016296Y054309D01*
X016219Y054386D01*
X016066Y054386D01*
X015836Y054462D02*
X015759Y054539D01*
X015605Y054539D01*
X015529Y054462D01*
X015529Y054155D01*
X015605Y054079D01*
X015759Y054079D01*
X015836Y054155D01*
X016449Y054079D02*
X016449Y054386D01*
X014915Y054462D02*
X014838Y054539D01*
X014685Y054539D01*
X014608Y054462D01*
X014608Y054155D01*
X014685Y054079D01*
X014838Y054079D01*
X014915Y054155D01*
X014454Y054079D02*
X014454Y054539D01*
X014301Y054386D01*
X014148Y054539D01*
X014148Y054079D01*
X013994Y054079D02*
X013994Y054539D01*
X013841Y054386D01*
X013687Y054539D01*
X013687Y054079D01*
X013227Y054079D02*
X013534Y054539D01*
X013073Y054462D02*
X012997Y054539D01*
X012766Y054539D01*
X012766Y054079D01*
X012997Y054079D01*
X013073Y054155D01*
X013073Y054462D01*
X012613Y054462D02*
X012536Y054539D01*
X012383Y054539D01*
X012306Y054462D01*
X012306Y054386D01*
X012383Y054309D01*
X012536Y054309D01*
X012613Y054232D01*
X012613Y054155D01*
X012536Y054079D01*
X012383Y054079D01*
X012306Y054155D01*
X000747Y026446D02*
X000747Y026139D01*
X000440Y026446D01*
X000363Y026446D01*
X000286Y026369D01*
X000286Y026216D01*
X000363Y026139D01*
X000286Y025986D02*
X000286Y025832D01*
X000286Y025909D02*
X000670Y025909D01*
X000747Y025832D01*
X000747Y025755D01*
X000670Y025679D01*
D13*
X001340Y025709D02*
X001663Y025709D01*
X001663Y026209D02*
X001340Y026209D01*
X005086Y026234D02*
X005086Y025484D01*
X005125Y025482D01*
X005164Y025476D01*
X005202Y025467D01*
X005239Y025454D01*
X005275Y025437D01*
X005308Y025417D01*
X005340Y025393D01*
X005369Y025367D01*
X005395Y025338D01*
X005419Y025306D01*
X005439Y025273D01*
X005456Y025237D01*
X005469Y025200D01*
X005478Y025162D01*
X005484Y025123D01*
X005486Y025084D01*
X005484Y025045D01*
X005478Y025006D01*
X005469Y024968D01*
X005456Y024931D01*
X005439Y024895D01*
X005419Y024862D01*
X005395Y024830D01*
X005369Y024801D01*
X005340Y024775D01*
X005308Y024751D01*
X005275Y024731D01*
X005239Y024714D01*
X005202Y024701D01*
X005164Y024692D01*
X005125Y024686D01*
X005086Y024684D01*
X005086Y023934D01*
X012086Y023934D01*
X012086Y026234D01*
X005086Y026234D01*
X006111Y027934D02*
X008811Y027934D01*
X008870Y027936D01*
X008928Y027942D01*
X008987Y027951D01*
X009044Y027965D01*
X009100Y027982D01*
X009155Y028003D01*
X009209Y028027D01*
X009261Y028055D01*
X009311Y028086D01*
X009359Y028120D01*
X009404Y028157D01*
X009447Y028198D01*
X009488Y028241D01*
X009525Y028286D01*
X009559Y028334D01*
X009590Y028384D01*
X009618Y028436D01*
X009642Y028490D01*
X009663Y028545D01*
X009680Y028601D01*
X009694Y028658D01*
X009703Y028717D01*
X009709Y028775D01*
X009711Y028834D01*
X009709Y028893D01*
X009703Y028951D01*
X009694Y029010D01*
X009680Y029067D01*
X009663Y029123D01*
X009642Y029178D01*
X009618Y029232D01*
X009590Y029284D01*
X009559Y029334D01*
X009525Y029382D01*
X009488Y029427D01*
X009447Y029470D01*
X009404Y029511D01*
X009359Y029548D01*
X009311Y029582D01*
X009261Y029613D01*
X009209Y029641D01*
X009155Y029665D01*
X009100Y029686D01*
X009044Y029703D01*
X008987Y029717D01*
X008928Y029726D01*
X008870Y029732D01*
X008811Y029734D01*
X006111Y029734D01*
X006052Y029732D01*
X005994Y029726D01*
X005935Y029717D01*
X005878Y029703D01*
X005822Y029686D01*
X005767Y029665D01*
X005713Y029641D01*
X005661Y029613D01*
X005611Y029582D01*
X005563Y029548D01*
X005518Y029511D01*
X005475Y029470D01*
X005434Y029427D01*
X005397Y029382D01*
X005363Y029334D01*
X005332Y029284D01*
X005304Y029232D01*
X005280Y029178D01*
X005259Y029123D01*
X005242Y029067D01*
X005228Y029010D01*
X005219Y028951D01*
X005213Y028893D01*
X005211Y028834D01*
X005213Y028775D01*
X005219Y028717D01*
X005228Y028658D01*
X005242Y028601D01*
X005259Y028545D01*
X005280Y028490D01*
X005304Y028436D01*
X005332Y028384D01*
X005363Y028334D01*
X005397Y028286D01*
X005434Y028241D01*
X005475Y028198D01*
X005518Y028157D01*
X005563Y028120D01*
X005611Y028086D01*
X005661Y028055D01*
X005713Y028027D01*
X005767Y028003D01*
X005822Y027982D01*
X005878Y027965D01*
X005935Y027951D01*
X005994Y027942D01*
X006052Y027936D01*
X006111Y027934D01*
X010661Y031984D02*
X022761Y031984D01*
X022761Y035184D01*
X010661Y035184D01*
X010661Y033834D01*
X010691Y033832D01*
X010721Y033827D01*
X010750Y033818D01*
X010777Y033805D01*
X010803Y033790D01*
X010827Y033771D01*
X010848Y033750D01*
X010867Y033726D01*
X010882Y033700D01*
X010895Y033673D01*
X010904Y033644D01*
X010909Y033614D01*
X010911Y033584D01*
X010909Y033554D01*
X010904Y033524D01*
X010895Y033495D01*
X010882Y033468D01*
X010867Y033442D01*
X010848Y033418D01*
X010827Y033397D01*
X010803Y033378D01*
X010777Y033363D01*
X010750Y033350D01*
X010721Y033341D01*
X010691Y033336D01*
X010661Y033334D01*
X010661Y031984D01*
X015836Y038684D02*
X015836Y038784D01*
X015736Y038784D01*
X015836Y038784D02*
X015836Y038884D01*
X015836Y038784D02*
X015936Y038784D01*
X015836Y039034D02*
X016336Y039034D01*
X016836Y039034D01*
X016836Y039234D01*
X015836Y039234D01*
X015836Y039034D01*
X016336Y039034D02*
X016336Y038684D01*
X015336Y039334D02*
X015338Y039397D01*
X015344Y039459D01*
X015354Y039521D01*
X015367Y039583D01*
X015385Y039643D01*
X015406Y039702D01*
X015431Y039760D01*
X015460Y039816D01*
X015492Y039870D01*
X015527Y039922D01*
X015565Y039971D01*
X015607Y040019D01*
X015651Y040063D01*
X015699Y040105D01*
X015748Y040143D01*
X015800Y040178D01*
X015854Y040210D01*
X015910Y040239D01*
X015968Y040264D01*
X016027Y040285D01*
X016087Y040303D01*
X016149Y040316D01*
X016211Y040326D01*
X016273Y040332D01*
X016336Y040334D01*
X016399Y040332D01*
X016461Y040326D01*
X016523Y040316D01*
X016585Y040303D01*
X016645Y040285D01*
X016704Y040264D01*
X016762Y040239D01*
X016818Y040210D01*
X016872Y040178D01*
X016924Y040143D01*
X016973Y040105D01*
X017021Y040063D01*
X017065Y040019D01*
X017107Y039971D01*
X017145Y039922D01*
X017180Y039870D01*
X017212Y039816D01*
X017241Y039760D01*
X017266Y039702D01*
X017287Y039643D01*
X017305Y039583D01*
X017318Y039521D01*
X017328Y039459D01*
X017334Y039397D01*
X017336Y039334D01*
X017334Y039271D01*
X017328Y039209D01*
X017318Y039147D01*
X017305Y039085D01*
X017287Y039025D01*
X017266Y038966D01*
X017241Y038908D01*
X017212Y038852D01*
X017180Y038798D01*
X017145Y038746D01*
X017107Y038697D01*
X017065Y038649D01*
X017021Y038605D01*
X016973Y038563D01*
X016924Y038525D01*
X016872Y038490D01*
X016818Y038458D01*
X016762Y038429D01*
X016704Y038404D01*
X016645Y038383D01*
X016585Y038365D01*
X016523Y038352D01*
X016461Y038342D01*
X016399Y038336D01*
X016336Y038334D01*
X016273Y038336D01*
X016211Y038342D01*
X016149Y038352D01*
X016087Y038365D01*
X016027Y038383D01*
X015968Y038404D01*
X015910Y038429D01*
X015854Y038458D01*
X015800Y038490D01*
X015748Y038525D01*
X015699Y038563D01*
X015651Y038605D01*
X015607Y038649D01*
X015565Y038697D01*
X015527Y038746D01*
X015492Y038798D01*
X015460Y038852D01*
X015431Y038908D01*
X015406Y038966D01*
X015385Y039025D01*
X015367Y039085D01*
X015354Y039147D01*
X015344Y039209D01*
X015338Y039271D01*
X015336Y039334D01*
X016336Y039584D02*
X016336Y039984D01*
X018336Y039109D02*
X018336Y038909D01*
X018836Y038909D01*
X019336Y038909D01*
X019336Y039109D01*
X018336Y039109D01*
X018336Y038759D02*
X018336Y038659D01*
X018236Y038659D01*
X018336Y038659D02*
X018436Y038659D01*
X018336Y038659D02*
X018336Y038559D01*
X018836Y038559D02*
X018836Y038909D01*
X017836Y039209D02*
X017838Y039272D01*
X017844Y039334D01*
X017854Y039396D01*
X017867Y039458D01*
X017885Y039518D01*
X017906Y039577D01*
X017931Y039635D01*
X017960Y039691D01*
X017992Y039745D01*
X018027Y039797D01*
X018065Y039846D01*
X018107Y039894D01*
X018151Y039938D01*
X018199Y039980D01*
X018248Y040018D01*
X018300Y040053D01*
X018354Y040085D01*
X018410Y040114D01*
X018468Y040139D01*
X018527Y040160D01*
X018587Y040178D01*
X018649Y040191D01*
X018711Y040201D01*
X018773Y040207D01*
X018836Y040209D01*
X018899Y040207D01*
X018961Y040201D01*
X019023Y040191D01*
X019085Y040178D01*
X019145Y040160D01*
X019204Y040139D01*
X019262Y040114D01*
X019318Y040085D01*
X019372Y040053D01*
X019424Y040018D01*
X019473Y039980D01*
X019521Y039938D01*
X019565Y039894D01*
X019607Y039846D01*
X019645Y039797D01*
X019680Y039745D01*
X019712Y039691D01*
X019741Y039635D01*
X019766Y039577D01*
X019787Y039518D01*
X019805Y039458D01*
X019818Y039396D01*
X019828Y039334D01*
X019834Y039272D01*
X019836Y039209D01*
X019834Y039146D01*
X019828Y039084D01*
X019818Y039022D01*
X019805Y038960D01*
X019787Y038900D01*
X019766Y038841D01*
X019741Y038783D01*
X019712Y038727D01*
X019680Y038673D01*
X019645Y038621D01*
X019607Y038572D01*
X019565Y038524D01*
X019521Y038480D01*
X019473Y038438D01*
X019424Y038400D01*
X019372Y038365D01*
X019318Y038333D01*
X019262Y038304D01*
X019204Y038279D01*
X019145Y038258D01*
X019085Y038240D01*
X019023Y038227D01*
X018961Y038217D01*
X018899Y038211D01*
X018836Y038209D01*
X018773Y038211D01*
X018711Y038217D01*
X018649Y038227D01*
X018587Y038240D01*
X018527Y038258D01*
X018468Y038279D01*
X018410Y038304D01*
X018354Y038333D01*
X018300Y038365D01*
X018248Y038400D01*
X018199Y038438D01*
X018151Y038480D01*
X018107Y038524D01*
X018065Y038572D01*
X018027Y038621D01*
X017992Y038673D01*
X017960Y038727D01*
X017931Y038783D01*
X017906Y038841D01*
X017885Y038900D01*
X017867Y038960D01*
X017854Y039022D01*
X017844Y039084D01*
X017838Y039146D01*
X017836Y039209D01*
X018836Y039459D02*
X018836Y039859D01*
X020336Y039234D02*
X020336Y039034D01*
X020836Y039034D01*
X021336Y039034D01*
X021336Y039234D01*
X020336Y039234D01*
X020336Y038884D02*
X020336Y038784D01*
X020236Y038784D01*
X020336Y038784D02*
X020436Y038784D01*
X020336Y038784D02*
X020336Y038684D01*
X020836Y038684D02*
X020836Y039034D01*
X019836Y039334D02*
X019838Y039397D01*
X019844Y039459D01*
X019854Y039521D01*
X019867Y039583D01*
X019885Y039643D01*
X019906Y039702D01*
X019931Y039760D01*
X019960Y039816D01*
X019992Y039870D01*
X020027Y039922D01*
X020065Y039971D01*
X020107Y040019D01*
X020151Y040063D01*
X020199Y040105D01*
X020248Y040143D01*
X020300Y040178D01*
X020354Y040210D01*
X020410Y040239D01*
X020468Y040264D01*
X020527Y040285D01*
X020587Y040303D01*
X020649Y040316D01*
X020711Y040326D01*
X020773Y040332D01*
X020836Y040334D01*
X020899Y040332D01*
X020961Y040326D01*
X021023Y040316D01*
X021085Y040303D01*
X021145Y040285D01*
X021204Y040264D01*
X021262Y040239D01*
X021318Y040210D01*
X021372Y040178D01*
X021424Y040143D01*
X021473Y040105D01*
X021521Y040063D01*
X021565Y040019D01*
X021607Y039971D01*
X021645Y039922D01*
X021680Y039870D01*
X021712Y039816D01*
X021741Y039760D01*
X021766Y039702D01*
X021787Y039643D01*
X021805Y039583D01*
X021818Y039521D01*
X021828Y039459D01*
X021834Y039397D01*
X021836Y039334D01*
X021834Y039271D01*
X021828Y039209D01*
X021818Y039147D01*
X021805Y039085D01*
X021787Y039025D01*
X021766Y038966D01*
X021741Y038908D01*
X021712Y038852D01*
X021680Y038798D01*
X021645Y038746D01*
X021607Y038697D01*
X021565Y038649D01*
X021521Y038605D01*
X021473Y038563D01*
X021424Y038525D01*
X021372Y038490D01*
X021318Y038458D01*
X021262Y038429D01*
X021204Y038404D01*
X021145Y038383D01*
X021085Y038365D01*
X021023Y038352D01*
X020961Y038342D01*
X020899Y038336D01*
X020836Y038334D01*
X020773Y038336D01*
X020711Y038342D01*
X020649Y038352D01*
X020587Y038365D01*
X020527Y038383D01*
X020468Y038404D01*
X020410Y038429D01*
X020354Y038458D01*
X020300Y038490D01*
X020248Y038525D01*
X020199Y038563D01*
X020151Y038605D01*
X020107Y038649D01*
X020065Y038697D01*
X020027Y038746D01*
X019992Y038798D01*
X019960Y038852D01*
X019931Y038908D01*
X019906Y038966D01*
X019885Y039025D01*
X019867Y039085D01*
X019854Y039147D01*
X019844Y039209D01*
X019838Y039271D01*
X019836Y039334D01*
X020836Y039584D02*
X020836Y039984D01*
X024936Y045584D02*
X027136Y045584D01*
X027138Y045545D01*
X027144Y045506D01*
X027153Y045468D01*
X027166Y045431D01*
X027183Y045395D01*
X027203Y045362D01*
X027227Y045330D01*
X027253Y045301D01*
X027282Y045275D01*
X027314Y045251D01*
X027347Y045231D01*
X027383Y045214D01*
X027420Y045201D01*
X027458Y045192D01*
X027497Y045186D01*
X027536Y045184D01*
X027575Y045186D01*
X027614Y045192D01*
X027652Y045201D01*
X027689Y045214D01*
X027725Y045231D01*
X027758Y045251D01*
X027790Y045275D01*
X027819Y045301D01*
X027845Y045330D01*
X027869Y045362D01*
X027889Y045395D01*
X027906Y045431D01*
X027919Y045468D01*
X027928Y045506D01*
X027934Y045545D01*
X027936Y045584D01*
X030236Y045584D01*
X030236Y025584D01*
X024936Y025584D01*
X024936Y045584D01*
X025016Y045814D02*
X025336Y045814D01*
X025443Y045920D01*
X025443Y046347D01*
X025336Y046454D01*
X025016Y046454D01*
X025016Y045814D01*
X025661Y045814D02*
X025661Y046454D01*
X025981Y046454D01*
X026088Y046347D01*
X026088Y045920D01*
X025981Y045814D01*
X025661Y045814D01*
X026305Y045920D02*
X026412Y045814D01*
X026625Y045814D01*
X026732Y045920D01*
X026732Y046347D01*
X026625Y046454D01*
X026412Y046454D01*
X026305Y046347D01*
X026305Y046241D01*
X026412Y046134D01*
X026732Y046134D01*
X027061Y049334D02*
X027361Y049334D01*
X027611Y049584D01*
X027611Y050584D01*
X027611Y051034D01*
X027811Y051234D01*
X027811Y051484D01*
X028111Y051484D01*
X028111Y051234D01*
X028311Y051034D01*
X028311Y050584D01*
X028311Y049584D01*
X028561Y049334D01*
X028861Y049334D01*
X029111Y049584D01*
X029111Y050584D01*
X029111Y051034D01*
X029311Y051234D01*
X029311Y051484D01*
X029611Y051484D01*
X029611Y051234D01*
X029811Y051034D01*
X029811Y050584D01*
X029811Y049584D01*
X030061Y049334D01*
X030361Y049334D01*
X030611Y049584D01*
X030611Y050584D01*
X030611Y051034D01*
X030811Y051234D01*
X030811Y051484D01*
X031111Y051484D01*
X031111Y051234D01*
X031311Y051034D01*
X031311Y050584D01*
X031311Y049584D01*
X031561Y049334D01*
X031861Y049334D01*
X032111Y049584D01*
X032111Y050584D01*
X032111Y051034D01*
X032311Y051234D01*
X032311Y051484D01*
X032611Y051484D01*
X032611Y051234D01*
X032811Y051034D01*
X032811Y050584D01*
X032811Y049584D01*
X033061Y049334D01*
X033361Y049334D01*
X033611Y049584D01*
X033611Y050584D01*
X033611Y051034D01*
X033811Y051234D01*
X033811Y051484D01*
X034111Y051484D01*
X034111Y051234D01*
X034311Y051034D01*
X034311Y050584D01*
X034311Y049584D01*
X034561Y049334D01*
X034861Y049334D01*
X035111Y049584D01*
X035111Y050584D01*
X035111Y051034D01*
X035311Y051234D01*
X035311Y051484D01*
X035611Y051484D01*
X035611Y051234D01*
X035811Y051034D01*
X035811Y050584D01*
X035811Y049584D01*
X036061Y049334D01*
X036361Y049334D01*
X036611Y049584D01*
X036611Y050584D01*
X036611Y051034D01*
X036811Y051234D01*
X036811Y051484D01*
X037111Y051484D01*
X037111Y051234D01*
X037311Y051034D01*
X037311Y050584D01*
X037311Y049584D01*
X037561Y049334D01*
X037861Y049334D01*
X038111Y049584D01*
X038111Y050584D01*
X038111Y051034D01*
X038311Y051234D01*
X038311Y051484D01*
X038611Y051484D01*
X038611Y051234D01*
X038811Y051034D01*
X038811Y050584D01*
X038811Y049584D01*
X039061Y049334D01*
X039361Y049334D01*
X039611Y049584D01*
X039611Y050584D01*
X039611Y051034D01*
X039811Y051234D01*
X039811Y051484D01*
X040111Y051484D01*
X040111Y051234D01*
X040311Y051034D01*
X040311Y050584D01*
X040311Y049584D01*
X040561Y049334D01*
X040861Y049334D01*
X041111Y049584D01*
X041111Y050584D01*
X041111Y052084D01*
X042461Y052084D01*
X046211Y052084D01*
X046211Y053284D01*
X042461Y053284D01*
X042461Y056434D01*
X023961Y056434D01*
X023961Y053284D01*
X023961Y052084D01*
X025311Y052084D01*
X025311Y050584D01*
X025311Y049584D01*
X025561Y049334D01*
X025861Y049334D01*
X026111Y049584D01*
X026111Y050584D01*
X026111Y051034D01*
X026311Y051234D01*
X026311Y051484D01*
X026611Y051484D01*
X026611Y051234D01*
X026811Y051034D01*
X026811Y050584D01*
X026811Y049584D01*
X027061Y049334D01*
X027061Y052084D02*
X025861Y052084D01*
X025311Y052084D01*
X023961Y052084D02*
X020211Y052084D01*
X020211Y053284D01*
X023961Y053284D01*
X021711Y053684D02*
X021711Y051684D01*
X027061Y052084D02*
X027361Y052084D01*
X028561Y052084D01*
X028861Y052084D01*
X030061Y052084D01*
X030361Y052084D01*
X031561Y052084D01*
X031861Y052084D01*
X033061Y052084D01*
X033361Y052084D01*
X034561Y052084D01*
X034861Y052084D01*
X036061Y052084D01*
X036361Y052084D01*
X037561Y052084D01*
X037861Y052084D01*
X039061Y052084D01*
X039361Y052084D01*
X040561Y052084D01*
X041111Y052084D01*
X042461Y052084D02*
X042461Y053284D01*
X044711Y053684D02*
X044711Y051684D01*
X047766Y046454D02*
X048086Y046454D01*
X048193Y046347D01*
X048193Y045920D01*
X048086Y045814D01*
X047766Y045814D01*
X047766Y046454D01*
X048411Y046454D02*
X048411Y045814D01*
X048731Y045814D01*
X048838Y045920D01*
X048838Y046347D01*
X048731Y046454D01*
X048411Y046454D01*
X049055Y046241D02*
X049269Y046454D01*
X049269Y045814D01*
X049482Y045814D02*
X049055Y045814D01*
X049886Y045584D02*
X047686Y045584D01*
X047686Y025584D01*
X052986Y025584D01*
X052986Y045584D01*
X050686Y045584D01*
X050684Y045545D01*
X050678Y045506D01*
X050669Y045468D01*
X050656Y045431D01*
X050639Y045395D01*
X050619Y045362D01*
X050595Y045330D01*
X050569Y045301D01*
X050540Y045275D01*
X050508Y045251D01*
X050475Y045231D01*
X050439Y045214D01*
X050402Y045201D01*
X050364Y045192D01*
X050325Y045186D01*
X050286Y045184D01*
X050247Y045186D01*
X050208Y045192D01*
X050170Y045201D01*
X050133Y045214D01*
X050097Y045231D01*
X050064Y045251D01*
X050032Y045275D01*
X050003Y045301D01*
X049977Y045330D01*
X049953Y045362D01*
X049933Y045395D01*
X049916Y045431D01*
X049903Y045468D01*
X049894Y045506D01*
X049888Y045545D01*
X049886Y045584D01*
X056436Y045584D02*
X058686Y045584D01*
X058688Y045545D01*
X058694Y045506D01*
X058703Y045468D01*
X058716Y045431D01*
X058733Y045395D01*
X058753Y045362D01*
X058777Y045330D01*
X058803Y045301D01*
X058832Y045275D01*
X058864Y045251D01*
X058897Y045231D01*
X058933Y045214D01*
X058970Y045201D01*
X059008Y045192D01*
X059047Y045186D01*
X059086Y045184D01*
X059125Y045186D01*
X059164Y045192D01*
X059202Y045201D01*
X059239Y045214D01*
X059275Y045231D01*
X059308Y045251D01*
X059340Y045275D01*
X059369Y045301D01*
X059395Y045330D01*
X059419Y045362D01*
X059439Y045395D01*
X059456Y045431D01*
X059469Y045468D01*
X059478Y045506D01*
X059484Y045545D01*
X059486Y045584D01*
X061736Y045584D01*
X061736Y029584D01*
X056436Y029584D01*
X056436Y045584D01*
X056516Y045764D02*
X056836Y045764D01*
X056943Y045870D01*
X056943Y046297D01*
X056836Y046404D01*
X056516Y046404D01*
X056516Y045764D01*
X057161Y045764D02*
X057161Y046404D01*
X057481Y046404D01*
X057588Y046297D01*
X057588Y045870D01*
X057481Y045764D01*
X057161Y045764D01*
X057805Y045870D02*
X057805Y045977D01*
X057912Y046084D01*
X058125Y046084D01*
X058232Y045977D01*
X058232Y045870D01*
X058125Y045764D01*
X057912Y045764D01*
X057805Y045870D01*
X057912Y046084D02*
X057805Y046191D01*
X057805Y046297D01*
X057912Y046404D01*
X058125Y046404D01*
X058232Y046297D01*
X058232Y046191D01*
X058125Y046084D01*
X041686Y045984D02*
X041686Y025184D01*
X036486Y025184D01*
X036486Y045984D01*
X038586Y045984D01*
X038588Y045940D01*
X038594Y045897D01*
X038603Y045855D01*
X038616Y045813D01*
X038633Y045773D01*
X038653Y045734D01*
X038676Y045697D01*
X038703Y045663D01*
X038732Y045630D01*
X038765Y045601D01*
X038799Y045574D01*
X038836Y045551D01*
X038875Y045531D01*
X038915Y045514D01*
X038957Y045501D01*
X038999Y045492D01*
X039042Y045486D01*
X039086Y045484D01*
X039130Y045486D01*
X039173Y045492D01*
X039215Y045501D01*
X039257Y045514D01*
X039297Y045531D01*
X039336Y045551D01*
X039373Y045574D01*
X039407Y045601D01*
X039440Y045630D01*
X039469Y045663D01*
X039496Y045697D01*
X039519Y045734D01*
X039539Y045773D01*
X039556Y045813D01*
X039569Y045855D01*
X039578Y045897D01*
X039584Y045940D01*
X039586Y045984D01*
X041686Y045984D01*
X034211Y039334D02*
X033961Y039584D01*
X032461Y039584D01*
X032211Y039334D01*
X032211Y038834D01*
X032461Y038584D01*
X032211Y038334D01*
X032211Y037834D01*
X032461Y037584D01*
X032211Y037334D01*
X032211Y036834D01*
X032461Y036584D01*
X033961Y036584D01*
X034211Y036834D01*
X034211Y037334D01*
X033961Y037584D01*
X034211Y037834D01*
X034211Y038334D01*
X033961Y038584D01*
X034211Y038834D01*
X034211Y039334D01*
X022136Y029334D02*
X021936Y029334D01*
X021936Y028334D01*
X022136Y028334D01*
X022136Y028834D01*
X022136Y029334D01*
X022136Y028834D02*
X022486Y028834D01*
X022386Y028434D02*
X022386Y028334D01*
X022386Y028234D01*
X022386Y028334D02*
X022286Y028334D01*
X022386Y028334D02*
X022486Y028334D01*
X020836Y028834D02*
X020838Y028897D01*
X020844Y028959D01*
X020854Y029021D01*
X020867Y029083D01*
X020885Y029143D01*
X020906Y029202D01*
X020931Y029260D01*
X020960Y029316D01*
X020992Y029370D01*
X021027Y029422D01*
X021065Y029471D01*
X021107Y029519D01*
X021151Y029563D01*
X021199Y029605D01*
X021248Y029643D01*
X021300Y029678D01*
X021354Y029710D01*
X021410Y029739D01*
X021468Y029764D01*
X021527Y029785D01*
X021587Y029803D01*
X021649Y029816D01*
X021711Y029826D01*
X021773Y029832D01*
X021836Y029834D01*
X021899Y029832D01*
X021961Y029826D01*
X022023Y029816D01*
X022085Y029803D01*
X022145Y029785D01*
X022204Y029764D01*
X022262Y029739D01*
X022318Y029710D01*
X022372Y029678D01*
X022424Y029643D01*
X022473Y029605D01*
X022521Y029563D01*
X022565Y029519D01*
X022607Y029471D01*
X022645Y029422D01*
X022680Y029370D01*
X022712Y029316D01*
X022741Y029260D01*
X022766Y029202D01*
X022787Y029143D01*
X022805Y029083D01*
X022818Y029021D01*
X022828Y028959D01*
X022834Y028897D01*
X022836Y028834D01*
X022834Y028771D01*
X022828Y028709D01*
X022818Y028647D01*
X022805Y028585D01*
X022787Y028525D01*
X022766Y028466D01*
X022741Y028408D01*
X022712Y028352D01*
X022680Y028298D01*
X022645Y028246D01*
X022607Y028197D01*
X022565Y028149D01*
X022521Y028105D01*
X022473Y028063D01*
X022424Y028025D01*
X022372Y027990D01*
X022318Y027958D01*
X022262Y027929D01*
X022204Y027904D01*
X022145Y027883D01*
X022085Y027865D01*
X022023Y027852D01*
X021961Y027842D01*
X021899Y027836D01*
X021836Y027834D01*
X021773Y027836D01*
X021711Y027842D01*
X021649Y027852D01*
X021587Y027865D01*
X021527Y027883D01*
X021468Y027904D01*
X021410Y027929D01*
X021354Y027958D01*
X021300Y027990D01*
X021248Y028025D01*
X021199Y028063D01*
X021151Y028105D01*
X021107Y028149D01*
X021065Y028197D01*
X021027Y028246D01*
X020992Y028298D01*
X020960Y028352D01*
X020931Y028408D01*
X020906Y028466D01*
X020885Y028525D01*
X020867Y028585D01*
X020854Y028647D01*
X020844Y028709D01*
X020838Y028771D01*
X020836Y028834D01*
X021186Y028834D02*
X021586Y028834D01*
X020211Y018709D02*
X018711Y018709D01*
X018461Y018459D01*
X018461Y017959D01*
X018711Y017709D01*
X018461Y017459D01*
X018461Y016959D01*
X018711Y016709D01*
X018461Y016459D01*
X018461Y015959D01*
X018711Y015709D01*
X018461Y015459D01*
X018461Y014959D01*
X018711Y014709D01*
X018461Y014459D01*
X018461Y013959D01*
X018711Y013709D01*
X020211Y013709D01*
X020461Y013959D01*
X020461Y014459D01*
X020211Y014709D01*
X020461Y014959D01*
X020461Y015459D01*
X020211Y015709D01*
X020461Y015959D01*
X020461Y016459D01*
X020211Y016709D01*
X020461Y016959D01*
X020461Y017459D01*
X020211Y017709D01*
X020461Y017959D01*
X020461Y018459D01*
X020211Y018709D01*
X017273Y011584D02*
X017275Y011625D01*
X017281Y011666D01*
X017291Y011706D01*
X017304Y011745D01*
X017321Y011783D01*
X017342Y011819D01*
X017366Y011852D01*
X017393Y011883D01*
X017423Y011912D01*
X017455Y011938D01*
X017490Y011960D01*
X017527Y011979D01*
X017565Y011994D01*
X017605Y012006D01*
X017645Y012014D01*
X017686Y012018D01*
X017728Y012018D01*
X017769Y012014D01*
X017809Y012006D01*
X017849Y011994D01*
X017887Y011979D01*
X017924Y011960D01*
X017959Y011938D01*
X017991Y011912D01*
X018021Y011883D01*
X018048Y011852D01*
X018072Y011819D01*
X018093Y011783D01*
X018110Y011745D01*
X018123Y011706D01*
X018133Y011666D01*
X018139Y011625D01*
X018141Y011584D01*
X018139Y011543D01*
X018133Y011502D01*
X018123Y011462D01*
X018110Y011423D01*
X018093Y011385D01*
X018072Y011349D01*
X018048Y011316D01*
X018021Y011285D01*
X017991Y011256D01*
X017959Y011230D01*
X017924Y011208D01*
X017887Y011189D01*
X017849Y011174D01*
X017809Y011162D01*
X017769Y011154D01*
X017728Y011150D01*
X017686Y011150D01*
X017645Y011154D01*
X017605Y011162D01*
X017565Y011174D01*
X017527Y011189D01*
X017490Y011208D01*
X017455Y011230D01*
X017423Y011256D01*
X017393Y011285D01*
X017366Y011316D01*
X017342Y011349D01*
X017321Y011385D01*
X017304Y011423D01*
X017291Y011462D01*
X017281Y011502D01*
X017275Y011543D01*
X017273Y011584D01*
X017273Y009584D02*
X017275Y009625D01*
X017281Y009666D01*
X017291Y009706D01*
X017304Y009745D01*
X017321Y009783D01*
X017342Y009819D01*
X017366Y009852D01*
X017393Y009883D01*
X017423Y009912D01*
X017455Y009938D01*
X017490Y009960D01*
X017527Y009979D01*
X017565Y009994D01*
X017605Y010006D01*
X017645Y010014D01*
X017686Y010018D01*
X017728Y010018D01*
X017769Y010014D01*
X017809Y010006D01*
X017849Y009994D01*
X017887Y009979D01*
X017924Y009960D01*
X017959Y009938D01*
X017991Y009912D01*
X018021Y009883D01*
X018048Y009852D01*
X018072Y009819D01*
X018093Y009783D01*
X018110Y009745D01*
X018123Y009706D01*
X018133Y009666D01*
X018139Y009625D01*
X018141Y009584D01*
X018139Y009543D01*
X018133Y009502D01*
X018123Y009462D01*
X018110Y009423D01*
X018093Y009385D01*
X018072Y009349D01*
X018048Y009316D01*
X018021Y009285D01*
X017991Y009256D01*
X017959Y009230D01*
X017924Y009208D01*
X017887Y009189D01*
X017849Y009174D01*
X017809Y009162D01*
X017769Y009154D01*
X017728Y009150D01*
X017686Y009150D01*
X017645Y009154D01*
X017605Y009162D01*
X017565Y009174D01*
X017527Y009189D01*
X017490Y009208D01*
X017455Y009230D01*
X017423Y009256D01*
X017393Y009285D01*
X017366Y009316D01*
X017342Y009349D01*
X017321Y009385D01*
X017304Y009423D01*
X017291Y009462D01*
X017281Y009502D01*
X017275Y009543D01*
X017273Y009584D01*
X017273Y007584D02*
X017275Y007625D01*
X017281Y007666D01*
X017291Y007706D01*
X017304Y007745D01*
X017321Y007783D01*
X017342Y007819D01*
X017366Y007852D01*
X017393Y007883D01*
X017423Y007912D01*
X017455Y007938D01*
X017490Y007960D01*
X017527Y007979D01*
X017565Y007994D01*
X017605Y008006D01*
X017645Y008014D01*
X017686Y008018D01*
X017728Y008018D01*
X017769Y008014D01*
X017809Y008006D01*
X017849Y007994D01*
X017887Y007979D01*
X017924Y007960D01*
X017959Y007938D01*
X017991Y007912D01*
X018021Y007883D01*
X018048Y007852D01*
X018072Y007819D01*
X018093Y007783D01*
X018110Y007745D01*
X018123Y007706D01*
X018133Y007666D01*
X018139Y007625D01*
X018141Y007584D01*
X018139Y007543D01*
X018133Y007502D01*
X018123Y007462D01*
X018110Y007423D01*
X018093Y007385D01*
X018072Y007349D01*
X018048Y007316D01*
X018021Y007285D01*
X017991Y007256D01*
X017959Y007230D01*
X017924Y007208D01*
X017887Y007189D01*
X017849Y007174D01*
X017809Y007162D01*
X017769Y007154D01*
X017728Y007150D01*
X017686Y007150D01*
X017645Y007154D01*
X017605Y007162D01*
X017565Y007174D01*
X017527Y007189D01*
X017490Y007208D01*
X017455Y007230D01*
X017423Y007256D01*
X017393Y007285D01*
X017366Y007316D01*
X017342Y007349D01*
X017321Y007385D01*
X017304Y007423D01*
X017291Y007462D01*
X017281Y007502D01*
X017275Y007543D01*
X017273Y007584D01*
X017273Y005584D02*
X017275Y005625D01*
X017281Y005666D01*
X017291Y005706D01*
X017304Y005745D01*
X017321Y005783D01*
X017342Y005819D01*
X017366Y005852D01*
X017393Y005883D01*
X017423Y005912D01*
X017455Y005938D01*
X017490Y005960D01*
X017527Y005979D01*
X017565Y005994D01*
X017605Y006006D01*
X017645Y006014D01*
X017686Y006018D01*
X017728Y006018D01*
X017769Y006014D01*
X017809Y006006D01*
X017849Y005994D01*
X017887Y005979D01*
X017924Y005960D01*
X017959Y005938D01*
X017991Y005912D01*
X018021Y005883D01*
X018048Y005852D01*
X018072Y005819D01*
X018093Y005783D01*
X018110Y005745D01*
X018123Y005706D01*
X018133Y005666D01*
X018139Y005625D01*
X018141Y005584D01*
X018139Y005543D01*
X018133Y005502D01*
X018123Y005462D01*
X018110Y005423D01*
X018093Y005385D01*
X018072Y005349D01*
X018048Y005316D01*
X018021Y005285D01*
X017991Y005256D01*
X017959Y005230D01*
X017924Y005208D01*
X017887Y005189D01*
X017849Y005174D01*
X017809Y005162D01*
X017769Y005154D01*
X017728Y005150D01*
X017686Y005150D01*
X017645Y005154D01*
X017605Y005162D01*
X017565Y005174D01*
X017527Y005189D01*
X017490Y005208D01*
X017455Y005230D01*
X017423Y005256D01*
X017393Y005285D01*
X017366Y005316D01*
X017342Y005349D01*
X017321Y005385D01*
X017304Y005423D01*
X017291Y005462D01*
X017281Y005502D01*
X017275Y005543D01*
X017273Y005584D01*
X008686Y020809D02*
X005986Y020809D01*
X005927Y020811D01*
X005869Y020817D01*
X005810Y020826D01*
X005753Y020840D01*
X005697Y020857D01*
X005642Y020878D01*
X005588Y020902D01*
X005536Y020930D01*
X005486Y020961D01*
X005438Y020995D01*
X005393Y021032D01*
X005350Y021073D01*
X005309Y021116D01*
X005272Y021161D01*
X005238Y021209D01*
X005207Y021259D01*
X005179Y021311D01*
X005155Y021365D01*
X005134Y021420D01*
X005117Y021476D01*
X005103Y021533D01*
X005094Y021592D01*
X005088Y021650D01*
X005086Y021709D01*
X005088Y021768D01*
X005094Y021826D01*
X005103Y021885D01*
X005117Y021942D01*
X005134Y021998D01*
X005155Y022053D01*
X005179Y022107D01*
X005207Y022159D01*
X005238Y022209D01*
X005272Y022257D01*
X005309Y022302D01*
X005350Y022345D01*
X005393Y022386D01*
X005438Y022423D01*
X005486Y022457D01*
X005536Y022488D01*
X005588Y022516D01*
X005642Y022540D01*
X005697Y022561D01*
X005753Y022578D01*
X005810Y022592D01*
X005869Y022601D01*
X005927Y022607D01*
X005986Y022609D01*
X008686Y022609D01*
X008745Y022607D01*
X008803Y022601D01*
X008862Y022592D01*
X008919Y022578D01*
X008975Y022561D01*
X009030Y022540D01*
X009084Y022516D01*
X009136Y022488D01*
X009186Y022457D01*
X009234Y022423D01*
X009279Y022386D01*
X009322Y022345D01*
X009363Y022302D01*
X009400Y022257D01*
X009434Y022209D01*
X009465Y022159D01*
X009493Y022107D01*
X009517Y022053D01*
X009538Y021998D01*
X009555Y021942D01*
X009569Y021885D01*
X009578Y021826D01*
X009584Y021768D01*
X009586Y021709D01*
X009584Y021650D01*
X009578Y021592D01*
X009569Y021533D01*
X009555Y021476D01*
X009538Y021420D01*
X009517Y021365D01*
X009493Y021311D01*
X009465Y021259D01*
X009434Y021209D01*
X009400Y021161D01*
X009363Y021116D01*
X009322Y021073D01*
X009279Y021032D01*
X009234Y020995D01*
X009186Y020961D01*
X009136Y020930D01*
X009084Y020902D01*
X009030Y020878D01*
X008975Y020857D01*
X008919Y020840D01*
X008862Y020826D01*
X008803Y020817D01*
X008745Y020811D01*
X008686Y020809D01*
X037736Y019659D02*
X037736Y005759D01*
X039836Y005759D01*
X039838Y005803D01*
X039844Y005846D01*
X039853Y005888D01*
X039866Y005930D01*
X039883Y005970D01*
X039903Y006009D01*
X039926Y006046D01*
X039953Y006080D01*
X039982Y006113D01*
X040015Y006142D01*
X040049Y006169D01*
X040086Y006192D01*
X040125Y006212D01*
X040165Y006229D01*
X040207Y006242D01*
X040249Y006251D01*
X040292Y006257D01*
X040336Y006259D01*
X040380Y006257D01*
X040423Y006251D01*
X040465Y006242D01*
X040507Y006229D01*
X040547Y006212D01*
X040586Y006192D01*
X040623Y006169D01*
X040657Y006142D01*
X040690Y006113D01*
X040719Y006080D01*
X040746Y006046D01*
X040769Y006009D01*
X040789Y005970D01*
X040806Y005930D01*
X040819Y005888D01*
X040828Y005846D01*
X040834Y005803D01*
X040836Y005759D01*
X042936Y005759D01*
X042936Y019659D01*
X037736Y019659D01*
X045440Y014338D02*
X047740Y014338D01*
X047740Y004338D01*
X046990Y004338D01*
X046988Y004377D01*
X046982Y004416D01*
X046973Y004454D01*
X046960Y004491D01*
X046943Y004527D01*
X046923Y004560D01*
X046899Y004592D01*
X046873Y004621D01*
X046844Y004647D01*
X046812Y004671D01*
X046779Y004691D01*
X046743Y004708D01*
X046706Y004721D01*
X046668Y004730D01*
X046629Y004736D01*
X046590Y004738D01*
X046551Y004736D01*
X046512Y004730D01*
X046474Y004721D01*
X046437Y004708D01*
X046401Y004691D01*
X046368Y004671D01*
X046336Y004647D01*
X046307Y004621D01*
X046281Y004592D01*
X046257Y004560D01*
X046237Y004527D01*
X046220Y004491D01*
X046207Y004454D01*
X046198Y004416D01*
X046192Y004377D01*
X046190Y004338D01*
X045440Y004338D01*
X045440Y014338D01*
X050247Y013463D02*
X050997Y013463D01*
X050999Y013502D01*
X051005Y013541D01*
X051014Y013579D01*
X051027Y013616D01*
X051044Y013652D01*
X051064Y013685D01*
X051088Y013717D01*
X051114Y013746D01*
X051143Y013772D01*
X051175Y013796D01*
X051208Y013816D01*
X051244Y013833D01*
X051281Y013846D01*
X051319Y013855D01*
X051358Y013861D01*
X051397Y013863D01*
X051436Y013861D01*
X051475Y013855D01*
X051513Y013846D01*
X051550Y013833D01*
X051586Y013816D01*
X051619Y013796D01*
X051651Y013772D01*
X051680Y013746D01*
X051706Y013717D01*
X051730Y013685D01*
X051750Y013652D01*
X051767Y013616D01*
X051780Y013579D01*
X051789Y013541D01*
X051795Y013502D01*
X051797Y013463D01*
X052547Y013463D01*
X052547Y023463D01*
X050247Y023463D01*
X050247Y013463D01*
X050264Y012839D02*
X052564Y012839D01*
X052564Y002839D01*
X051814Y002839D01*
X051812Y002878D01*
X051806Y002917D01*
X051797Y002955D01*
X051784Y002992D01*
X051767Y003028D01*
X051747Y003061D01*
X051723Y003093D01*
X051697Y003122D01*
X051668Y003148D01*
X051636Y003172D01*
X051603Y003192D01*
X051567Y003209D01*
X051530Y003222D01*
X051492Y003231D01*
X051453Y003237D01*
X051414Y003239D01*
X051375Y003237D01*
X051336Y003231D01*
X051298Y003222D01*
X051261Y003209D01*
X051225Y003192D01*
X051192Y003172D01*
X051160Y003148D01*
X051131Y003122D01*
X051105Y003093D01*
X051081Y003061D01*
X051061Y003028D01*
X051044Y002992D01*
X051031Y002955D01*
X051022Y002917D01*
X051016Y002878D01*
X051014Y002839D01*
X050264Y002839D01*
X050264Y012839D01*
X056436Y018834D02*
X061736Y018834D01*
X061736Y002834D01*
X059486Y002834D01*
X059782Y002654D02*
X060103Y002654D01*
X060209Y002547D01*
X060209Y002120D01*
X060103Y002014D01*
X059782Y002014D01*
X059782Y002654D01*
X060427Y002654D02*
X060427Y002014D01*
X060747Y002014D01*
X060854Y002120D01*
X060854Y002547D01*
X060747Y002654D01*
X060427Y002654D01*
X061071Y002547D02*
X061178Y002654D01*
X061392Y002654D01*
X061498Y002547D01*
X061498Y002441D01*
X061392Y002334D01*
X061498Y002227D01*
X061498Y002120D01*
X061392Y002014D01*
X061178Y002014D01*
X061071Y002120D01*
X061285Y002334D02*
X061392Y002334D01*
X059486Y002834D02*
X059484Y002873D01*
X059478Y002912D01*
X059469Y002950D01*
X059456Y002987D01*
X059439Y003023D01*
X059419Y003056D01*
X059395Y003088D01*
X059369Y003117D01*
X059340Y003143D01*
X059308Y003167D01*
X059275Y003187D01*
X059239Y003204D01*
X059202Y003217D01*
X059164Y003226D01*
X059125Y003232D01*
X059086Y003234D01*
X059047Y003232D01*
X059008Y003226D01*
X058970Y003217D01*
X058933Y003204D01*
X058897Y003187D01*
X058864Y003167D01*
X058832Y003143D01*
X058803Y003117D01*
X058777Y003088D01*
X058753Y003056D01*
X058733Y003023D01*
X058716Y002987D01*
X058703Y002950D01*
X058694Y002912D01*
X058688Y002873D01*
X058686Y002834D01*
X056436Y002834D01*
X056436Y018834D01*
X078961Y054338D02*
X078961Y054660D01*
X079461Y054660D02*
X079461Y054338D01*
D14*
X038330Y046749D02*
X038330Y046644D01*
X037910Y046224D01*
X037910Y046119D01*
X037686Y046224D02*
X037686Y046644D01*
X037581Y046749D01*
X037266Y046749D01*
X037266Y046119D01*
X037581Y046119D01*
X037686Y046224D01*
X037910Y046749D02*
X038330Y046749D01*
X037041Y046644D02*
X037041Y046224D01*
X036936Y046119D01*
X036621Y046119D01*
X036621Y046749D01*
X036936Y046749D01*
X037041Y046644D01*
X036451Y053419D02*
X036451Y054049D01*
X036872Y054049D01*
X036662Y053734D02*
X036451Y053734D01*
X036227Y053734D02*
X035807Y053734D01*
X035583Y054049D02*
X035162Y054049D01*
X035372Y054049D02*
X035372Y053419D01*
X034938Y053419D02*
X034728Y053629D01*
X034833Y053629D02*
X034518Y053629D01*
X034518Y053419D02*
X034518Y054049D01*
X034833Y054049D01*
X034938Y053944D01*
X034938Y053734D01*
X034833Y053629D01*
X034294Y053734D02*
X033873Y053734D01*
X033873Y053839D02*
X034083Y054049D01*
X034294Y053839D01*
X034294Y053419D01*
X033873Y053419D02*
X033873Y053839D01*
X033649Y053944D02*
X033544Y054049D01*
X033334Y054049D01*
X033229Y053944D01*
X033229Y053524D01*
X033334Y053419D01*
X033544Y053419D01*
X033649Y053524D01*
X033004Y053524D02*
X032899Y053419D01*
X032689Y053419D01*
X032584Y053524D01*
X032689Y053734D02*
X032899Y053734D01*
X033004Y053629D01*
X033004Y053524D01*
X032689Y053734D02*
X032584Y053839D01*
X032584Y053944D01*
X032689Y054049D01*
X032899Y054049D01*
X033004Y053944D01*
X033832Y055344D02*
X034252Y055974D01*
X034476Y055869D02*
X034581Y055974D01*
X034792Y055974D01*
X034897Y055869D01*
X034897Y055764D01*
X034476Y055344D01*
X034897Y055344D01*
X034252Y055344D02*
X033832Y055974D01*
X010516Y033828D02*
X010516Y033408D01*
X010516Y033618D02*
X009885Y033618D01*
X010096Y033408D01*
X010096Y033184D02*
X010516Y033184D01*
X010201Y033184D02*
X010201Y032763D01*
X010096Y032763D02*
X010516Y032763D01*
X010411Y032539D02*
X009991Y032539D01*
X009885Y032434D01*
X009885Y032119D01*
X010516Y032119D01*
X010516Y032434D01*
X010411Y032539D01*
X010096Y032763D02*
X009885Y032973D01*
X010096Y033184D01*
X038187Y005549D02*
X038503Y005549D01*
X038608Y005444D01*
X038608Y005024D01*
X038503Y004919D01*
X038187Y004919D01*
X038187Y005549D01*
X038832Y005549D02*
X039147Y005549D01*
X039252Y005444D01*
X039252Y005024D01*
X039147Y004919D01*
X038832Y004919D01*
X038832Y005549D01*
X039476Y005234D02*
X039792Y005234D01*
X039897Y005129D01*
X039897Y005024D01*
X039792Y004919D01*
X039581Y004919D01*
X039476Y005024D01*
X039476Y005234D01*
X039687Y005444D01*
X039897Y005549D01*
D15*
X008686Y021009D02*
X005986Y021009D01*
X005935Y021011D01*
X005884Y021016D01*
X005834Y021026D01*
X005784Y021039D01*
X005736Y021055D01*
X005689Y021075D01*
X005643Y021099D01*
X005600Y021125D01*
X005558Y021155D01*
X005519Y021188D01*
X005482Y021223D01*
X005448Y021261D01*
X005417Y021302D01*
X005388Y021344D01*
X005363Y021389D01*
X005342Y021435D01*
X005323Y021483D01*
X005309Y021532D01*
X005298Y021582D01*
X005290Y021632D01*
X005286Y021683D01*
X005286Y021735D01*
X005290Y021786D01*
X005298Y021836D01*
X005309Y021886D01*
X005323Y021935D01*
X005342Y021983D01*
X005363Y022029D01*
X005388Y022074D01*
X005417Y022116D01*
X005448Y022157D01*
X005482Y022195D01*
X005519Y022230D01*
X005558Y022263D01*
X005600Y022293D01*
X005643Y022319D01*
X005689Y022343D01*
X005736Y022363D01*
X005784Y022379D01*
X005834Y022392D01*
X005884Y022402D01*
X005935Y022407D01*
X005986Y022409D01*
X008686Y022409D01*
X008737Y022407D01*
X008788Y022402D01*
X008838Y022392D01*
X008888Y022379D01*
X008936Y022363D01*
X008983Y022343D01*
X009029Y022319D01*
X009072Y022293D01*
X009114Y022263D01*
X009153Y022230D01*
X009190Y022195D01*
X009224Y022157D01*
X009255Y022116D01*
X009284Y022074D01*
X009309Y022029D01*
X009330Y021983D01*
X009349Y021935D01*
X009363Y021886D01*
X009374Y021836D01*
X009382Y021786D01*
X009386Y021735D01*
X009386Y021683D01*
X009382Y021632D01*
X009374Y021582D01*
X009363Y021532D01*
X009349Y021483D01*
X009330Y021435D01*
X009309Y021389D01*
X009284Y021344D01*
X009255Y021302D01*
X009224Y021261D01*
X009190Y021223D01*
X009153Y021188D01*
X009114Y021155D01*
X009072Y021125D01*
X009029Y021099D01*
X008983Y021075D01*
X008936Y021055D01*
X008888Y021039D01*
X008838Y021026D01*
X008788Y021016D01*
X008737Y021011D01*
X008686Y021009D01*
X008811Y028134D02*
X006111Y028134D01*
X006060Y028136D01*
X006009Y028141D01*
X005959Y028151D01*
X005909Y028164D01*
X005861Y028180D01*
X005814Y028200D01*
X005768Y028224D01*
X005725Y028250D01*
X005683Y028280D01*
X005644Y028313D01*
X005607Y028348D01*
X005573Y028386D01*
X005542Y028427D01*
X005513Y028469D01*
X005488Y028514D01*
X005467Y028560D01*
X005448Y028608D01*
X005434Y028657D01*
X005423Y028707D01*
X005415Y028757D01*
X005411Y028808D01*
X005411Y028860D01*
X005415Y028911D01*
X005423Y028961D01*
X005434Y029011D01*
X005448Y029060D01*
X005467Y029108D01*
X005488Y029154D01*
X005513Y029199D01*
X005542Y029241D01*
X005573Y029282D01*
X005607Y029320D01*
X005644Y029355D01*
X005683Y029388D01*
X005725Y029418D01*
X005768Y029444D01*
X005814Y029468D01*
X005861Y029488D01*
X005909Y029504D01*
X005959Y029517D01*
X006009Y029527D01*
X006060Y029532D01*
X006111Y029534D01*
X008811Y029534D01*
X008862Y029532D01*
X008913Y029527D01*
X008963Y029517D01*
X009013Y029504D01*
X009061Y029488D01*
X009108Y029468D01*
X009154Y029444D01*
X009197Y029418D01*
X009239Y029388D01*
X009278Y029355D01*
X009315Y029320D01*
X009349Y029282D01*
X009380Y029241D01*
X009409Y029199D01*
X009434Y029154D01*
X009455Y029108D01*
X009474Y029060D01*
X009488Y029011D01*
X009499Y028961D01*
X009507Y028911D01*
X009511Y028860D01*
X009511Y028808D01*
X009507Y028757D01*
X009499Y028707D01*
X009488Y028657D01*
X009474Y028608D01*
X009455Y028560D01*
X009434Y028514D01*
X009409Y028469D01*
X009380Y028427D01*
X009349Y028386D01*
X009315Y028348D01*
X009278Y028313D01*
X009239Y028280D01*
X009197Y028250D01*
X009154Y028224D01*
X009108Y028200D01*
X009061Y028180D01*
X009013Y028164D01*
X008963Y028151D01*
X008913Y028141D01*
X008862Y028136D01*
X008811Y028134D01*
X024361Y052234D02*
X024361Y056284D01*
X042061Y056284D02*
X042061Y052234D01*
D16*
X033711Y039084D03*
X032711Y039084D03*
X032711Y038084D03*
X033711Y038084D03*
X033711Y037084D03*
X032711Y037084D03*
X019961Y018209D03*
X018961Y018209D03*
X018961Y017209D03*
X019961Y017209D03*
X019961Y016209D03*
X018961Y016209D03*
X018961Y015209D03*
X019961Y015209D03*
X019961Y014209D03*
X018961Y014209D03*
D17*
X080530Y062541D02*
X080538Y062541D01*
D18*
X076365Y060970D02*
X084711Y060970D01*
X084711Y067459D01*
X076365Y067459D01*
X076365Y060970D01*
X052967Y056584D02*
X052967Y051702D01*
X047455Y051702D01*
X047455Y056584D01*
X052967Y056584D01*
X052967Y056190D02*
X047455Y056190D01*
D19*
X079082Y064356D02*
X079363Y064356D01*
X079456Y064450D01*
X079456Y064824D01*
X079363Y064917D01*
X079082Y064917D01*
X079082Y064356D01*
X079690Y064356D02*
X079877Y064356D01*
X079784Y064356D02*
X079784Y064917D01*
X079877Y064917D02*
X079690Y064917D01*
X080095Y064917D02*
X080469Y064356D01*
X080469Y064917D01*
X080703Y064637D02*
X081077Y064637D01*
X081311Y064637D02*
X081498Y064730D01*
X081591Y064730D01*
X081684Y064637D01*
X081684Y064450D01*
X081591Y064356D01*
X081404Y064356D01*
X081311Y064450D01*
X081311Y064637D02*
X081311Y064917D01*
X081684Y064917D01*
X080095Y064917D02*
X080095Y064356D01*
X020424Y012469D02*
X016998Y012469D01*
X016998Y010698D01*
X020424Y010698D01*
X020424Y012469D01*
X020424Y010469D02*
X016998Y010469D01*
X016998Y008698D01*
X020424Y008698D01*
X020424Y010469D01*
X020424Y008469D02*
X016998Y008469D01*
X016998Y006698D01*
X020424Y006698D01*
X020424Y008469D01*
X020424Y006469D02*
X016998Y006469D01*
X016998Y004698D01*
X020424Y004698D01*
X020424Y006469D01*
D20*
X048216Y054589D02*
X048216Y054739D01*
X048291Y054739D01*
X048316Y054714D01*
X048316Y054664D01*
X048291Y054639D01*
X048216Y054639D01*
X048363Y054614D02*
X048388Y054589D01*
X048438Y054589D01*
X048463Y054614D01*
X048463Y054639D01*
X048438Y054664D01*
X048388Y054664D01*
X048363Y054689D01*
X048363Y054714D01*
X048388Y054739D01*
X048438Y054739D01*
X048463Y054714D01*
X048511Y054714D02*
X048536Y054739D01*
X048586Y054739D01*
X048611Y054714D01*
X048611Y054689D01*
X048511Y054589D01*
X048611Y054589D01*
X048658Y054589D02*
X048658Y054739D01*
X048683Y054664D02*
X048758Y054589D01*
X048805Y054589D02*
X048880Y054589D01*
X048905Y054614D01*
X048905Y054639D01*
X048880Y054664D01*
X048805Y054664D01*
X048805Y054739D02*
X048880Y054739D01*
X048905Y054714D01*
X048905Y054689D01*
X048880Y054664D01*
X048805Y054589D02*
X048805Y054739D01*
X048758Y054739D02*
X048658Y054639D01*
D21*
X079210Y054787D03*
X079210Y054207D03*
D22*
X001789Y025959D03*
X001209Y025959D03*
D23*
X017707Y011584D03*
X017707Y009584D03*
X017707Y007584D03*
X017707Y005584D03*
D24*
X018836Y039409D03*
X020836Y039534D03*
X016336Y039534D03*
D25*
X021636Y028834D03*
D26*
X021336Y028834D02*
X022211Y033835D01*
X019211Y033458D01*
X017211Y033835D01*
X011211Y035584D01*
X010286Y042959D01*
X009586Y048459D01*
X020286Y048459D02*
X024586Y045084D01*
X020286Y042959D01*
X024586Y043084D02*
X025712Y043084D01*
X026585Y047459D01*
X025837Y047459D02*
X026460Y045084D01*
X028401Y043084D01*
X027585Y039459D01*
X026837Y039459D02*
X025961Y039458D01*
X025961Y040460D01*
X025961Y041208D02*
X042961Y000532D01*
X042961Y001635D02*
X025711Y050084D01*
X027211Y050084D02*
X028086Y046407D01*
X028336Y040833D01*
X028336Y040085D02*
X028210Y038084D01*
X024086Y009709D01*
X024086Y010709D02*
X022085Y008209D01*
X021337Y008209D02*
X018711Y005584D01*
X019711Y005584D02*
X019711Y007584D01*
X019711Y009584D01*
X019711Y011584D01*
X018961Y014209D01*
X018961Y018209D01*
X019961Y018209D02*
X022086Y019709D01*
X022086Y020709D02*
X042086Y026084D01*
X047336Y026084D02*
X022086Y016709D01*
X023086Y016709D02*
X047336Y030084D01*
X047336Y031084D02*
X038711Y041584D01*
X038461Y042584D02*
X047336Y032084D01*
X047336Y033084D02*
X052897Y018963D01*
X053332Y019963D02*
X054086Y032584D01*
X053336Y032084D02*
X022086Y018709D01*
X023086Y018709D02*
X053336Y029084D01*
X053336Y030084D02*
X050710Y030084D01*
X049962Y030084D02*
X047336Y035084D01*
X045337Y035334D01*
X045086Y035835D01*
X050710Y051334D01*
X062086Y045084D01*
X079211Y054164D01*
X062086Y042084D02*
X023086Y011709D01*
X023086Y012709D02*
X022335Y009209D01*
X021587Y009209D02*
X018711Y011584D01*
X019711Y011584D02*
X022086Y010709D01*
X023086Y010709D02*
X027836Y012335D01*
X027836Y013083D02*
X027210Y011584D01*
X018711Y009584D01*
X017711Y009584D02*
X013211Y033333D01*
X013211Y032585D02*
X013211Y031584D01*
X014211Y031584D02*
X014211Y032585D01*
X014211Y033333D02*
X017711Y007584D01*
X018711Y007584D02*
X020212Y012959D01*
X020960Y012959D02*
X022086Y012709D01*
X022554Y013177D02*
X020836Y009085D01*
X020836Y009833D02*
X022086Y015709D01*
X047336Y040084D01*
X046086Y038084D02*
X044336Y036583D01*
X044336Y035835D02*
X045086Y035835D01*
X045337Y035334D02*
X044336Y034583D01*
X045462Y034084D01*
X046210Y034084D02*
X042086Y043084D01*
X047336Y045084D02*
X062086Y038084D01*
X061461Y037584D02*
X057086Y005834D01*
X056086Y006334D02*
X053336Y027084D01*
X036086Y028084D01*
X025086Y020709D01*
X026086Y020709D02*
X036086Y026084D01*
X036086Y029084D02*
X024086Y021709D01*
X025086Y021709D02*
X021336Y028834D01*
X022336Y028834D02*
X021211Y035584D01*
X020211Y035584D02*
X020336Y036710D01*
X020336Y037458D02*
X020836Y038834D01*
X019461Y037458D02*
X018836Y038709D01*
X018586Y037458D02*
X017710Y037459D01*
X016962Y037459D02*
X016086Y037458D01*
X016086Y036710D02*
X016211Y035584D01*
X005586Y026584D01*
X002505Y025959D01*
X001836Y025959D02*
X017211Y031584D01*
X016211Y031584D02*
X011586Y026584D01*
X011586Y023584D02*
X001167Y025959D01*
X010586Y023584D02*
X029086Y021709D01*
X036086Y033084D01*
X036086Y032084D02*
X028086Y020709D01*
X028086Y021709D02*
X029336Y028084D01*
X030586Y029084D02*
X034211Y035084D01*
X036086Y035084D02*
X042086Y036084D01*
X042086Y035084D02*
X044336Y034583D01*
X044336Y033835D02*
X044336Y033084D01*
X046210Y034084D02*
X047336Y034084D01*
X047336Y033084D02*
X062086Y034084D01*
X061336Y034584D02*
X057086Y009834D01*
X056961Y008834D02*
X060961Y036584D01*
X061211Y035584D02*
X056836Y007834D01*
X056086Y007334D02*
X056086Y041084D01*
X056086Y043084D02*
X025086Y009709D01*
X023086Y009709D02*
X022210Y006584D01*
X021462Y006584D02*
X018711Y007584D01*
X017711Y005584D02*
X020211Y031584D01*
X019211Y031584D02*
X019211Y032710D01*
X017211Y034583D02*
X017211Y035584D01*
X018211Y035584D02*
X018586Y036710D01*
X019461Y036710D02*
X019211Y035584D01*
X016211Y035584D02*
X022211Y031584D01*
X029461Y033084D01*
X030586Y033084D02*
X034586Y036709D01*
X033711Y037084D02*
X027336Y043208D01*
X025712Y044084D01*
X025712Y042084D02*
X024586Y042084D01*
X025961Y041208D02*
X026460Y042084D01*
X027336Y042460D02*
X028336Y040085D01*
X027462Y038084D02*
X025961Y038710D01*
X022211Y035584D02*
X022211Y034583D01*
X025837Y007084D01*
X026585Y007084D02*
X027086Y010709D01*
X030086Y009709D01*
X028086Y009709D02*
X033086Y009709D01*
X037336Y006209D01*
X045090Y005838D02*
X024086Y020709D01*
X023086Y020709D02*
X027086Y021709D01*
X029461Y030084D01*
X030586Y029084D02*
X030086Y020709D01*
X031086Y020709D02*
X030586Y032084D01*
X030586Y034084D02*
X030086Y021709D01*
X031086Y021709D02*
X030586Y027084D01*
X032086Y021709D02*
X036086Y031084D01*
X036086Y030084D02*
X049962Y051334D01*
X048872Y052253D01*
X048872Y053237D02*
X045836Y049834D01*
X040711Y050084D01*
X037711Y050084D01*
X039211Y050084D02*
X016336Y039834D01*
X016336Y038834D02*
X015211Y037458D01*
X014961Y037834D02*
X033211Y050084D01*
X031711Y050084D02*
X034711Y050084D01*
X036211Y050084D02*
X014461Y039209D01*
X015211Y036710D02*
X015211Y035584D01*
X014211Y035584D02*
X030211Y050084D01*
X028711Y050084D02*
X031711Y050084D01*
X035461Y052084D02*
X038461Y052084D01*
X036086Y045084D02*
X053336Y031084D01*
X054586Y030084D02*
X052897Y023834D01*
X052897Y022963D02*
X062086Y018334D01*
X058711Y020084D02*
X062086Y012334D01*
X062086Y013334D02*
X057711Y019584D01*
X058211Y019834D02*
X062086Y014334D01*
X062086Y015334D02*
X062086Y032084D01*
X047336Y037084D01*
X047336Y036084D02*
X062086Y033084D01*
X057586Y016334D01*
X057211Y015334D02*
X062086Y031084D01*
X060961Y030584D02*
X057211Y010834D01*
X056086Y011334D02*
X053336Y026084D01*
X051836Y026084D02*
X027086Y020709D01*
X027086Y021709D02*
X032086Y020709D01*
X034086Y016709D01*
X034086Y014709D02*
X019961Y014209D01*
X019961Y015209D02*
X033086Y018709D01*
X031457Y013962D02*
X029336Y012794D01*
X026462Y011584D02*
X023086Y013709D01*
X023086Y014709D02*
X042086Y034084D01*
X042086Y035084D02*
X038336Y036024D01*
X042086Y033084D02*
X022086Y014709D01*
X022086Y013709D02*
X018961Y015209D01*
X023086Y020709D01*
X023086Y019709D02*
X036086Y042084D01*
X036086Y043084D02*
X049962Y052334D01*
X049699Y053237D01*
X050710Y052334D02*
X051550Y053237D01*
X050710Y052334D02*
X050710Y051334D01*
X053336Y045084D02*
X062086Y036084D01*
X062086Y035084D02*
X026086Y021709D01*
X023086Y021709D02*
X056086Y013334D01*
X056086Y012334D02*
X060086Y029459D01*
X060836Y030084D02*
X057711Y014334D01*
X053582Y020963D02*
X055461Y030584D01*
X056086Y031084D02*
X053832Y021963D01*
X047336Y027084D02*
X022086Y017709D01*
X023086Y015709D02*
X019961Y016209D01*
X022086Y011709D02*
X023087Y007084D01*
X023835Y007084D02*
X021587Y009209D01*
X017711Y011584D02*
X012211Y033333D01*
X012211Y032585D02*
X012211Y031584D01*
X011211Y031584D02*
X011586Y023584D01*
X011211Y031584D02*
X011211Y035584D01*
X025837Y047459D02*
X028086Y047510D01*
X027211Y050084D02*
X027212Y054084D01*
X027960Y054084D02*
X027961Y052084D01*
X036086Y044084D02*
X047336Y029084D01*
X046085Y035334D02*
X046461Y036084D01*
X046086Y037084D02*
X045086Y036583D01*
X033211Y041524D02*
X032211Y041584D01*
X031712Y042709D02*
X030586Y042084D01*
X030586Y043084D02*
X029521Y043084D01*
X032460Y042709D02*
X033211Y042643D01*
X033711Y043084D01*
X061336Y038584D02*
X053832Y005838D01*
M02*
