M48
;Layer_Color=9474304
;FILE_FORMAT=2:5
INCH,LZ
;TYPE=PLATED
T1F00S00C0.02000
T2F00S00C0.02800
T3F00S00C0.06000
T4F00S00C0.09100
T5F00S00C0.11000
%
T01
X007Y004
X009
X0078Y0061
Y0071
X01403Y0074248
Y0064248
Y0054248
Y0044248
Y0034248
Y0024248
X02003
Y0034248
Y0044248
Y0054248
Y0064248
Y0074248
Y0084248
X01403
X0262Y0065
X0322
X0389Y0055
X04029Y0055016
Y0065016
Y0075016
Y0085016
X0389Y0075
X04629Y0075016
Y0085016
Y0065016
Y0055016
X0498Y0055
X05117Y0054016
Y0064016
Y0074016
Y0084016
X0498Y0075
X05717Y0074016
Y0084016
Y0064016
Y0054016
Y0094016
Y0104016
Y0114016
Y0124016
Y0134016
Y0144016
Y0154016
Y0164016
Y0174016
Y0184016
X05117
Y0174016
Y0164016
Y0154016
Y0144016
Y0134016
Y0124016
Y0114016
Y0104016
Y0094016
X04629Y0095016
Y0105016
Y0115016
Y0125016
Y0135016
Y0145016
Y0155016
Y0165016
Y0175016
Y0185016
X047Y0213
X0469Y0226
X0459
X0449
X0439
X045Y0213
X0515Y0241
X0575
X0429Y0226
X0419
X0409
X0399
X0389
X0379
X03415Y02305
Y02205
Y02105
Y02005
Y01905
Y01805
X03315
X03215
X03115
X03015
X02915
X02815
Y01705
X02915
X03015
X03115
X03215
X03315
Y01905
Y02005
Y02105
Y02205
Y02305
Y02405
X03415
X04029Y0185016
Y0175016
Y0165016
Y0155016
Y0145016
Y0135016
Y0125016
Y0115016
Y0105016
Y0095016
X0322Y0095
X0306Y0125
X0296
X0286
X0276
Y0135
X0286
X0296
X0306
X0266
Y0125
X0262Y0095
X02003Y0094248
Y0104248
Y0114248
Y0124248
Y0134248
Y0144248
Y0154248
Y0164248
Y0174248
Y0184248
Y0194248
Y0204248
Y0214248
X02215Y02105
Y02205
Y02305
Y02405
X02315
Y02305
Y02205
Y02105
Y02005
X02215
Y01905
X02315
Y01805
X02215
X02315Y01705
X02415
Y01805
X02515
Y01705
X02615
Y01805
X02715
Y01705
X01403Y0174248
Y0164248
Y0154248
Y0144248
Y0134248
Y0124248
Y0114248
Y0104248
X0131Y0104
X01403Y0094248
X0127Y0125
Y0135
X01403Y0184248
Y0194248
Y0204248
Y0214248
X0148Y0239
X0188
X0099Y0234
X0059
X0056Y0223
Y0213
X0044
Y0223
X0032
Y0213
X00346Y01902
Y01821
Y01719
Y01638
X00444
X0062Y01555
Y01455
X0063Y01325
X0053
X0058Y0115
X0078
Y0105
Y0095
X0058
X0111Y0104
X0114Y0122
X0104
Y0132
X0114
Y0142
X0104
Y0152
X0114
Y0162
X0104
X00444Y01902
Y02436
X00346
Y02519
Y02621
Y02704
X00444
X00445Y0262
Y02535
X0059Y0258
Y0269
Y028
Y0292
X0045
X0035
X0099
Y028
Y0269
Y0258
Y0246
X0059
X01135Y02795
X01335
X0148Y028
Y0294
X0128
X01235Y02695
Y02495
X01335
X0148Y0254
Y0264
X0162Y0262
X0182
X0172Y0252
X0188Y028
X018Y03
X02
X02315Y02905
X02415
X02515
X02615
X02715
Y02805
X02615
X02515
X02415
X02315
X02215
Y02705
X02315
Y02605
X02215
Y02505
X02315
X0253Y031
X0262Y0324
X0272
X0273Y0336
X0263
X0253
X0243
X0233
X0223
X0213
X019Y0339
Y0351
Y0363
Y0375
Y0394
X0213Y0396
X0223
X0233
X0243
X0253
X0263
X0273
X015Y0394
Y0375
Y0363
Y0351
Y0339
X0283Y0336
X0293
X0303
X0313
X0323
X0333
X0343
X0353
X0363
X0373
X0383
X0393
X0403
X0400429Y03145
X0410429
X0420429
X0430429
Y02845
X0420429
X0410429
X0400429
X0390429
X0380429
X0379Y0256
X0389
X0399
X0409
X0419
X0429
X03415Y02605
Y02505
X03315
Y02605
Y02705
X03415
Y02805
X03315
Y02905
X03215
Y02805
X03115
Y02905
X03015
Y02805
X02915
Y02905
X02815
Y02805
X0293Y031
X0295Y0326
X0315
X0313Y0396
X0303
X0293
X0283
X0323
X0333
X0343
X0353
X0363
X0373
X0383
X0393
X0403
X0390429Y03145
X0380429
X0440429
X0450429
X0460429
X0470429
Y02845
X0460429
X0450429
X0440429
X0451Y0272
X0449Y0256
X0459
X0469
X0471Y0272
X0515Y0271
Y0261
Y0251
Y0281
Y0291
Y0301
Y0311
Y0321
Y0331
Y0341
Y0351
Y0361
Y0371
Y0381
Y0391
X0575
Y0381
Y0371
Y0361
Y0351
Y0341
Y0331
Y0321
Y0311
Y0301
Y0291
Y0281
Y0271
Y0261
Y0251
X0439Y0256
X0537Y0408
X0557
X0351
X0311
T02
X00953Y00802
X01118Y00792
X02375Y00855
X02471Y00672
X02458Y00194
X02599Y00167
X02706Y00267
X02872Y00149
X03033Y00267
X0360047Y0065016
X03638Y00815
X04441Y00843
X04558Y00209
X04595Y00104
X05563Y00147
X0558Y0024
X05652Y00195
X05717Y00267
X05862Y00255
X05631Y01621
X0564Y01743
X05342Y01997
X05422Y02082
Y02291
X05462Y02362
X0554Y02369
X05162Y01985
X05117Y0202665
X05005Y01938
Y01709
X04884Y01668
X0489184Y0154016
X04823Y0115016
X04457Y01103
X04479Y0101
X04445Y00905
X04364Y01155
X04381Y0156
X04548Y01771
X04635Y0213
X04799Y02215
X04185Y02195
X0429Y0241
X03785Y02365
X03691Y02417
X03618Y02345
X03503Y02278
X03499Y01955
X03237Y0194
X02967Y01851
X0288Y01898
X02885Y01968
X02798Y01942
X02751Y02161
X02759Y01576
X02967Y01475
X03171Y01339
X03265Y01601
X03499Y01595
X03598Y01635
X03579Y01512
X03678Y01339
X03747Y01221
X03964Y01115
X0423Y01347
X03945Y01635
X0383Y01538
X03714Y02136
X03559Y01009
X03094Y00951
X03015Y01088
X02209Y01175
X02181Y01296
X02093Y0135
X01898Y01325
X01938Y01648
X0218577Y01631
X02323Y01509
X02431Y01901
X02614Y01889
X02659Y0198342
X02629Y02043
X02515Y02131
X02402Y02221
X02491Y02327
X02552Y02303
X02398Y02422
X01968Y0227
X01888Y0223
X01715Y02142
X01761Y02082
X01715Y01957
X01886Y01868
X01488Y01802
X01468Y01693
X0154Y01388
X02068Y01037
X02079Y00948
X02209
X01025Y02026
X00824Y01963
X0114Y02891
X00945Y03321
X01175Y03749
X01255Y03293
X01743Y02935
X02008Y02826
X02111Y02849
X02275Y02993
X02391Y03012
X0243Y03115
X02429Y03215
X02535Y03165
X02236Y03245
X02015Y03199
X0213Y03445
X0216531Y03563
X0223Y03642
X02303Y03509
X0248Y03687
X02733Y03806
X0268719Y0350619
X02615Y0267622
X02605Y02549
X01968Y02513
X01805Y02435
X0167Y0257
X03231Y02629
X03251Y02455
X03459
X0365Y02501
Y02631
X03623Y02689
X03543Y02694
X03625Y02837
X0363Y02903
X03419Y02929
X03326Y03075
X03335Y0326
X03415Y03286
X03516Y03273
X03503Y03193
X03694Y03124
X03775Y03273
X03885Y03265
X0419Y0308
Y0291
X04302Y03355
X0338Y03455
X03125Y03525
X03063Y03155
X03015Y031
X0276Y03445
X0283Y03806
X03794Y02491
X03875Y02455
X04396Y02641
X04366Y0276
X04882Y02705
X04922Y0265
X04882Y02495
X05252Y0281
X05474Y02855
X05565Y0286
X05625Y02955
X05522Y0301
X0533Y03124
X04951Y03294
X04911Y03355
X0475Y03562
X04535Y03737
X04524Y03337
X05299Y03665
X05292Y0386
X05281Y03985
X0539Y0392
X05522Y03879
X0556Y0271
X05836Y02824
X0383Y04085
X0343Y04082
X03349Y0418
X03234Y04165
X0323Y04092
X02985Y04065
X01943Y04021
T03
X00405Y031825
Y041325
T04
X00228Y01504
X00196Y0177
X00228Y02036
Y02305
X00196Y0257
X00228Y02835
T05
X0045Y004
X0057Y00595
X0032Y006
M30
