%FSLAX25Y25*%
%MOIN*%
G70*
G01*
G75*
G04 Layer_Physical_Order=1*
G04 Layer_Color=255*
%ADD10R,0.13000X0.05000*%
%ADD11R,0.12000X0.05000*%
%ADD12R,0.10000X0.08000*%
%ADD13C,0.01000*%
%ADD14R,0.06000X0.06000*%
%ADD15C,0.06000*%
%ADD16R,0.05800X0.05800*%
%ADD17C,0.05800*%
%ADD18R,0.06000X0.06000*%
%ADD19C,0.11200*%
%ADD20C,0.13000*%
%ADD21C,0.05000*%
D10*
X135500Y335250D02*
D03*
Y354950D02*
D03*
Y364850D02*
D03*
Y374650D02*
D03*
Y345150D02*
D03*
Y384550D02*
D03*
Y394350D02*
D03*
Y404250D02*
D03*
Y325250D02*
D03*
D11*
X136000Y414050D02*
D03*
D12*
X113000Y420250D02*
D03*
X30500D02*
D03*
X28000Y307750D02*
D03*
D13*
X171500Y214200D02*
X176200D01*
X176500Y214500D01*
X353000Y396000D02*
Y401000D01*
X351000Y403000D02*
X353000Y401000D01*
X351000Y403000D02*
Y408000D01*
X295000Y326000D02*
Y330000D01*
X293000Y332000D02*
X295000Y330000D01*
X293000Y332000D02*
Y336000D01*
X123500Y249500D02*
Y269500D01*
X190000Y351000D02*
Y363000D01*
X471000Y272000D02*
Y277900D01*
X470429Y278471D02*
X471000Y277900D01*
X470429Y278471D02*
Y284500D01*
X470000Y213000D02*
Y219000D01*
X469000Y220000D02*
X470000Y219000D01*
X469000Y220000D02*
Y226000D01*
X135500Y394350D02*
X142500D01*
X142850Y394000D01*
X150000D01*
X148000Y280000D02*
Y294000D01*
X133500Y249500D02*
Y279500D01*
X148000Y239000D02*
Y254000D01*
X34600Y251900D02*
Y262100D01*
Y270400D02*
Y281000D01*
X35000Y281400D01*
Y292000D01*
X59000Y280000D02*
Y292000D01*
Y258000D02*
Y269000D01*
Y234000D02*
Y246000D01*
X150000Y363000D02*
Y375000D01*
X135500Y374650D02*
X142500D01*
X142850Y375000D01*
X150000D01*
Y339000D02*
Y351000D01*
X379000Y256000D02*
Y269500D01*
X380429Y270929D01*
Y284500D01*
Y314500D01*
X575000Y381000D02*
Y391000D01*
X63000Y132500D02*
Y138500D01*
X62000Y139500D02*
X63000Y138500D01*
X62000Y139500D02*
Y145500D01*
X135500Y384550D02*
X150000D01*
X154500Y380050D01*
Y360700D02*
Y380050D01*
X152000Y358200D02*
X154500Y360700D01*
X139050Y358200D02*
X152000D01*
X135500Y354950D02*
X135800D01*
X262000Y324000D02*
X264500Y326500D01*
X263000Y328000D02*
X264500Y326500D01*
X263000Y328000D02*
Y336000D01*
X143500Y259500D02*
X148000Y264000D01*
X143500Y227900D02*
Y259500D01*
Y227900D02*
X144800Y226600D01*
Y178748D02*
Y226600D01*
X140300Y174248D02*
X144800Y178748D01*
X262000Y65000D02*
X271500Y74500D01*
Y170500D01*
X261500Y130500D02*
X266000Y135000D01*
X261500Y107000D02*
Y130500D01*
Y107000D02*
X262000Y106500D01*
Y95000D02*
Y106500D01*
X44400Y163800D02*
X53000Y155200D01*
Y132500D02*
Y155200D01*
X50000Y219000D02*
X56000Y213000D01*
X50000Y219000D02*
Y248000D01*
X44500Y253500D02*
X50000Y248000D01*
X182000Y262000D02*
Y281000D01*
X180000Y283000D02*
X182000Y281000D01*
X180000Y283000D02*
Y300000D01*
X39100Y227900D02*
X44000Y223000D01*
X39100Y227900D02*
Y247400D01*
X34600Y251900D02*
X39100Y247400D01*
X135500Y335250D02*
X144600D01*
X162000Y317850D01*
Y262000D02*
Y317850D01*
X39500Y196500D02*
X56000Y213000D01*
X39500Y165000D02*
Y196500D01*
X38300Y163800D02*
X39500Y165000D01*
X34600Y163800D02*
X38300D01*
X403000Y336000D02*
X425000D01*
X425400Y335600D01*
Y301600D02*
Y335600D01*
Y301600D02*
X430429Y296571D01*
Y284500D02*
Y296571D01*
X63000Y120000D02*
X78000Y105000D01*
X63000Y120000D02*
Y132500D01*
X118500Y142448D02*
X140300Y164248D01*
X118500Y126500D02*
Y142448D01*
X114000Y122000D02*
X118500Y126500D01*
X256700Y144300D02*
X266000Y135000D01*
X256700Y144300D02*
Y175700D01*
X261500Y180500D01*
X515000Y247400D02*
Y251000D01*
X510500Y242900D02*
X515000Y247400D01*
X510500Y238000D02*
Y242900D01*
Y238000D02*
X512000Y236500D01*
X516864D01*
X522464Y242100D01*
X524100D01*
X528200Y238000D01*
X511700Y64016D02*
X528200Y80516D01*
X126200Y99200D02*
X131000Y104000D01*
X99500Y105700D02*
X106000Y99200D01*
X99500Y105700D02*
Y157500D01*
X104000Y162000D01*
X567200Y58516D02*
X571700Y54016D01*
X567200Y58516D02*
Y76000D01*
X569716Y78516D01*
X575684D01*
X580200Y74000D01*
Y14000D02*
Y74000D01*
X572452Y6252D02*
X580200Y14000D01*
X550829Y6252D02*
X572452D01*
X546800Y10281D02*
X550829Y6252D01*
X546800Y10281D02*
Y224500D01*
X542200Y229100D02*
X546800Y224500D01*
X276000Y135000D02*
X279500Y131500D01*
Y128500D02*
Y131500D01*
Y128500D02*
X280500Y127500D01*
Y106500D02*
Y127500D01*
X360300Y293000D02*
X363000Y290300D01*
X360300Y293000D02*
Y333300D01*
X363000Y336000D01*
X37600Y299400D02*
X45000Y292000D01*
X34000Y299400D02*
X37600D01*
X29900Y295300D02*
X34000Y299400D01*
X29900Y227559D02*
Y295300D01*
X27500Y225159D02*
X29900Y227559D01*
X27500Y211136D02*
Y225159D01*
Y211136D02*
X34600Y204036D01*
Y190200D02*
Y204036D01*
X249500Y313500D02*
X253000Y310000D01*
X249500Y313500D02*
Y320500D01*
X253000Y324000D01*
Y336000D01*
X362500Y283700D02*
X367000Y288200D01*
Y302800D01*
X362300Y307500D02*
X367000Y302800D01*
X362300Y307500D02*
Y325300D01*
X373000Y336000D01*
X435873Y289056D02*
X440429Y284500D01*
X435873Y289056D02*
Y363127D01*
X403000Y396000D02*
X435873Y363127D01*
X279800Y194200D02*
Y272800D01*
X277100Y275500D02*
X279800Y272800D01*
X277100Y275500D02*
Y312700D01*
X277500Y313100D01*
Y343000D01*
X276000Y344500D02*
X277500Y343000D01*
X213000Y336000D02*
Y344500D01*
X200300Y154248D02*
X221500Y175448D01*
Y180500D01*
X475000Y356200D02*
Y410000D01*
X481700Y416700D01*
X554800D01*
X561500Y410000D01*
Y371400D02*
Y410000D01*
X556500Y366400D02*
X561500Y371400D01*
X556500Y286000D02*
Y366400D01*
X572500Y303500D02*
X575000Y301000D01*
X572500Y303500D02*
Y306500D01*
X570500Y308500D02*
X572500Y306500D01*
X570500Y308500D02*
Y314000D01*
X572000Y315500D01*
X577000D01*
X579500Y318000D01*
Y354000D01*
X578000Y355500D02*
X579500Y354000D01*
X573000Y355500D02*
X578000D01*
X570500Y358000D02*
X573000Y355500D01*
X570500Y358000D02*
Y364000D01*
X572000Y365500D01*
X586000D01*
X591600Y359900D01*
Y274147D02*
Y359900D01*
X590200Y272747D02*
X591600Y274147D01*
X590200Y23700D02*
Y272747D01*
X588000Y21500D02*
X590200Y23700D01*
X583700Y21500D02*
X588000D01*
X582200Y23000D02*
X583700Y21500D01*
X582200Y23000D02*
Y103516D01*
X571700Y114016D02*
X582200Y103516D01*
X571700Y134016D02*
Y137300D01*
X582200Y147800D01*
Y192027D01*
X570500Y203727D02*
X582200Y192027D01*
X570500Y203727D02*
Y304500D01*
X568500Y306500D02*
X570500Y304500D01*
X568500Y306500D02*
Y316000D01*
X570000Y317500D01*
X571500D01*
X575000Y321000D01*
X571700Y144016D02*
X580200Y152516D01*
Y190316D01*
X568500Y202016D02*
X580200Y190316D01*
X568500Y202016D02*
Y302500D01*
X566500Y304500D02*
X568500Y302500D01*
X566500Y304500D02*
Y322500D01*
X575000Y331000D01*
X303000Y396000D02*
Y400000D01*
X311000Y408000D01*
X308500Y332500D02*
X315000Y326000D01*
X308500Y332500D02*
Y366000D01*
X303000Y371500D02*
X308500Y366000D01*
X303000Y371500D02*
Y396000D01*
X515000Y381000D02*
X521500Y374500D01*
Y314000D02*
Y374500D01*
X519500Y312000D02*
X521500Y314000D01*
X519500Y245500D02*
Y312000D01*
X515000Y241000D02*
X519500Y245500D01*
X471000Y272000D02*
X473900Y269100D01*
Y254000D02*
Y269100D01*
X469000Y249100D02*
X473900Y254000D01*
X469000Y226000D02*
Y249100D01*
X209300Y133248D02*
Y135000D01*
X200300Y124248D02*
X209300Y133248D01*
X379000Y85000D02*
Y226000D01*
Y85000D02*
X389000Y75000D01*
X200300Y124248D02*
X211964Y112584D01*
Y90800D02*
Y112584D01*
X210913Y89748D02*
X211964Y90800D01*
X170848Y89748D02*
X210913D01*
X150300Y69200D02*
X170848Y89748D01*
X128900Y69200D02*
X150300D01*
X115400Y82700D02*
X128900Y69200D01*
X115400Y82700D02*
Y88400D01*
X291500Y95500D02*
X322000Y65000D01*
X331500Y290500D02*
X332600Y291600D01*
Y307500D01*
X106300Y281400D02*
X114000Y289100D01*
X106300Y257800D02*
Y281400D01*
X99000Y250500D02*
X106300Y257800D01*
X99000Y246000D02*
Y250500D01*
X210800Y199800D02*
X221500Y210500D01*
X210800Y168384D02*
Y199800D01*
X202116Y159700D02*
X210800Y168384D01*
X195000Y159700D02*
X202116D01*
X193800Y158500D02*
X195000Y159700D01*
X193800Y113800D02*
Y158500D01*
Y113800D02*
X198852Y108748D01*
X203752D01*
X206800Y105700D01*
Y103700D02*
Y105700D01*
X281500Y298500D02*
X293000Y310000D01*
X281500Y290500D02*
Y298500D01*
X450000Y170500D02*
Y213000D01*
Y170500D02*
X460000Y160500D01*
X466000D01*
X467400Y161900D01*
Y180516D01*
X462900Y185016D02*
X467400Y180516D01*
X446850Y216150D02*
X450000Y213000D01*
X446850Y216150D02*
X449000Y218300D01*
Y226000D01*
X303926Y8895D02*
X360047Y65016D01*
X236205Y8895D02*
X303926D01*
X224900Y20200D02*
X236205Y8895D01*
X224900Y20200D02*
Y175100D01*
X225900Y176100D01*
Y183000D01*
X224000Y184900D02*
X225900Y183000D01*
X220000Y184900D02*
X224000D01*
X217100Y187800D02*
X220000Y184900D01*
X217100Y187800D02*
Y196100D01*
X221500Y200500D01*
X231500Y177400D02*
Y180500D01*
X227100Y173000D02*
X231500Y177400D01*
X227100Y49500D02*
Y173000D01*
Y49500D02*
X259900Y16700D01*
X554000Y17000D02*
X556300Y14700D01*
X571700Y26700D02*
Y54016D01*
X241500Y55800D02*
X270600Y26700D01*
X241500Y55800D02*
Y170500D01*
X393000Y336000D02*
X396329D01*
X415000Y317329D01*
Y285500D02*
Y317329D01*
Y285500D02*
X416000Y284500D01*
X420429D01*
X383000Y336000D02*
X388500Y330500D01*
X397329D01*
X405900Y321929D01*
Y310000D02*
Y321929D01*
Y310000D02*
X410429Y305471D01*
Y284500D02*
Y305471D01*
X239100Y292900D02*
X241500Y290500D01*
X239100Y292900D02*
Y301200D01*
X301500Y290500D02*
Y310000D01*
X531510Y402510D02*
X537000Y408000D01*
X522789Y402510D02*
X531510D01*
X520063Y399784D02*
X522789Y402510D01*
X520063Y386063D02*
Y399784D01*
X515000Y381000D02*
X520063Y386063D01*
X323000Y396000D02*
Y409200D01*
X379000Y256000D02*
X383400Y251600D01*
Y233900D02*
Y251600D01*
X379000Y229500D02*
X383400Y233900D01*
X379000Y226000D02*
Y229500D01*
X213000Y396000D02*
X217500Y391500D01*
X237500D01*
X238000Y392000D01*
Y401800D01*
X242000Y405800D01*
X280700D01*
X288500Y398000D01*
Y380000D02*
Y398000D01*
Y380000D02*
X298500Y370000D01*
Y332300D02*
Y370000D01*
Y332300D02*
X306300Y324500D01*
Y315500D02*
Y324500D01*
X369400Y312400D02*
X371400Y310400D01*
Y249677D02*
Y310400D01*
Y249677D02*
X373100Y247977D01*
Y237700D02*
Y247977D01*
X371400Y236000D02*
X373100Y237700D01*
X371400Y213600D02*
Y236000D01*
X528960Y365560D02*
X529900Y366500D01*
X528960Y308408D02*
Y365560D01*
Y308408D02*
X529900Y307468D01*
Y82216D02*
Y307468D01*
X420429Y314500D02*
X423000Y311929D01*
Y292700D02*
Y311929D01*
Y292700D02*
X425000Y290700D01*
Y280000D02*
Y290700D01*
Y280000D02*
X433500Y271500D01*
Y223248D02*
Y271500D01*
Y223248D02*
X435400Y221348D01*
Y158700D02*
Y221348D01*
Y158700D02*
X438100Y156000D01*
X402900Y155016D02*
X406029Y158145D01*
X408000D01*
X409400Y159545D01*
Y194000D01*
X404100Y199300D02*
X409400Y194000D01*
X404100Y199300D02*
Y264800D01*
X405000Y265700D01*
Y306400D01*
X400429Y310971D02*
X405000Y306400D01*
X400429Y310971D02*
Y314500D01*
X361800Y234500D02*
X363800Y232500D01*
Y81500D02*
Y232500D01*
X373000Y396000D02*
X377500Y391500D01*
Y334000D02*
Y391500D01*
X364300Y320800D02*
X377500Y334000D01*
X364300Y309500D02*
Y320800D01*
Y309500D02*
X369000Y304800D01*
Y248000D02*
Y304800D01*
X364177Y243177D02*
X369000Y248000D01*
X364177Y236877D02*
Y243177D01*
X361800Y234500D02*
X364177Y236877D01*
X341500Y230500D02*
X351239Y240239D01*
Y250161D01*
X347900Y253500D02*
X351239Y250161D01*
X347900Y253500D02*
Y296927D01*
X346300Y298527D02*
X347900Y296927D01*
X346300Y298527D02*
Y323300D01*
X347600Y324600D01*
Y390600D01*
X353000Y396000D01*
X200800Y282600D02*
X202800Y280600D01*
Y243700D02*
Y280600D01*
Y243700D02*
X204800Y241700D01*
Y202000D02*
Y241700D01*
X202000Y199200D02*
X204800Y202000D01*
X198000Y199200D02*
X202000D01*
X195800Y197000D02*
X198000Y199200D01*
X195800Y177000D02*
Y197000D01*
X189800Y171000D02*
X195800Y177000D01*
X189800Y132500D02*
Y171000D01*
X419000Y291000D02*
Y308000D01*
X436600Y267100D02*
Y276000D01*
Y267100D02*
X439600Y264100D01*
X488200Y249500D02*
X489900Y247800D01*
Y168300D02*
Y247800D01*
X488400Y166800D02*
X489900Y168300D01*
X510500Y266500D02*
X515000Y271000D01*
X510500Y248000D02*
Y266500D01*
X508500Y246000D02*
X510500Y248000D01*
X508500Y236000D02*
Y246000D01*
Y236000D02*
X510000Y234500D01*
X522000D01*
X526200Y230300D01*
Y98516D02*
Y230300D01*
X511700Y84016D02*
X526200Y98516D01*
X508500Y274500D02*
X515000Y281000D01*
X508500Y249000D02*
Y274500D01*
X506500Y247000D02*
X508500Y249000D01*
X506500Y234000D02*
Y247000D01*
Y234000D02*
X508000Y232500D01*
X518000D01*
X524200Y226300D01*
Y106516D02*
Y226300D01*
X511700Y94016D02*
X524200Y106516D01*
X506500Y282500D02*
X515000Y291000D01*
X506500Y251000D02*
Y282500D01*
X504500Y249000D02*
X506500Y251000D01*
X504500Y230500D02*
Y249000D01*
Y230500D02*
X504686Y230314D01*
X508686D01*
X522200Y216800D01*
Y114516D02*
Y216800D01*
X511700Y104016D02*
X522200Y114516D01*
X140300Y74248D02*
X144800Y78748D01*
Y116200D01*
X142000Y119000D02*
X144800Y116200D01*
X125700Y119000D02*
X142000D01*
X124200Y117500D02*
X125700Y119000D01*
X109500Y117500D02*
X124200D01*
X109500D02*
Y260800D01*
X118000Y269300D01*
Y320750D01*
X117500Y321250D02*
X118000Y320750D01*
X117500Y321250D02*
Y374900D01*
X499141Y335141D02*
X515000Y351000D01*
X499141Y325374D02*
Y335141D01*
X496416Y322650D02*
X499141Y325374D01*
X496416Y262916D02*
Y322650D01*
X494500Y261000D02*
X496416Y262916D01*
X494500Y163685D02*
Y261000D01*
Y163685D02*
X496500Y161685D01*
Y142600D02*
Y161685D01*
Y142600D02*
X509584Y129516D01*
X514000D01*
X516200Y131716D01*
Y136316D01*
X513000Y139516D02*
X516200Y136316D01*
X508684Y139516D02*
X513000D01*
X507200Y141000D02*
X508684Y139516D01*
X507200Y141000D02*
Y159516D01*
X511700Y164016D01*
X233983Y302483D02*
X243000Y311500D01*
X233983Y294973D02*
Y302483D01*
Y294973D02*
X237100Y291856D01*
Y276100D02*
Y291856D01*
X231500Y270500D02*
X237100Y276100D01*
X306500Y175500D02*
X311500Y180500D01*
X306500Y151500D02*
Y175500D01*
X301500Y146500D02*
X306500Y151500D01*
X301500Y108800D02*
Y146500D01*
X458153Y129763D02*
X462900Y125016D01*
X458153Y129763D02*
Y146669D01*
X462000Y150516D01*
X466000D01*
X469400Y153916D01*
Y207100D01*
X463500Y213000D02*
X469400Y207100D01*
X244100Y237700D02*
X249100Y232700D01*
X244100Y237700D02*
Y261200D01*
X239200Y266100D02*
X244100Y261200D01*
X228000Y266100D02*
X239200D01*
X225900Y268200D02*
X228000Y266100D01*
X225900Y268200D02*
Y276100D01*
X221500Y280500D02*
X225900Y276100D01*
X462900Y95016D02*
X475919Y108035D01*
Y115840D01*
X478400Y118321D01*
Y176800D01*
X479900Y178300D01*
Y221500D01*
X200000Y300000D02*
X207100Y292900D01*
Y279158D02*
Y292900D01*
Y279158D02*
X211100Y275158D01*
Y230900D02*
Y275158D01*
Y230900D02*
X221500Y220500D01*
X500500Y170900D02*
Y193800D01*
X533000Y200900D02*
X534200Y199700D01*
X533000Y200900D02*
Y312400D01*
X462900Y145016D02*
X468501D01*
X474400Y150914D01*
Y180800D01*
X474500Y180900D01*
Y216600D01*
X473600Y217500D02*
X474500Y216600D01*
X473600Y217500D02*
Y245400D01*
X475900Y247700D01*
Y320661D01*
X475561Y321000D02*
X475900Y320661D01*
X460000Y321000D02*
X475561D01*
X455929Y316929D02*
X460000Y321000D01*
X455929Y313629D02*
Y316929D01*
X445500Y303200D02*
X455929Y313629D01*
X445500Y282000D02*
Y303200D01*
X443500Y280000D02*
X445500Y282000D01*
X437900Y280000D02*
X443500D01*
X435900Y282000D02*
X437900Y280000D01*
X435900Y282000D02*
Y285700D01*
X433800Y287800D02*
X435900Y285700D01*
X433800Y287800D02*
Y311129D01*
X430429Y314500D02*
X433800Y311129D01*
X395500Y252500D02*
X399000Y256000D01*
X395500Y249500D02*
Y252500D01*
X394500Y248500D02*
X395500Y249500D01*
X394500Y202416D02*
Y248500D01*
Y202416D02*
X407400Y189516D01*
Y161916D02*
Y189516D01*
X406000Y160516D02*
X407400Y161916D01*
X400916Y160516D02*
X406000D01*
X398400Y158000D02*
X400916Y160516D01*
X398400Y149516D02*
Y158000D01*
Y149516D02*
X402900Y145016D01*
X398400Y119516D02*
X402900Y115016D01*
X398400Y119516D02*
Y128000D01*
X400900Y130500D01*
X410000D01*
X414500Y135000D01*
Y258000D01*
X417000Y260500D01*
X424500D01*
X429000Y256000D01*
X488200Y270500D02*
X491100Y273400D01*
Y335500D01*
X398000Y367700D02*
X430200Y335500D01*
X398000Y367700D02*
Y402400D01*
X372500Y427900D02*
X398000Y402400D01*
X206000Y427900D02*
X372500D01*
X201500Y423400D02*
X206000Y427900D01*
X201500Y319900D02*
Y423400D01*
X211100Y312000D02*
X223600Y324500D01*
X211100Y284900D02*
Y312000D01*
X303300Y26700D02*
X326500Y49900D01*
Y70500D01*
X305400Y91600D02*
X326500Y70500D01*
X305400Y91600D02*
Y102000D01*
X341500Y138100D01*
Y180500D01*
X317100Y284900D02*
X321500Y280500D01*
X317100Y284900D02*
Y316228D01*
X331500Y330628D01*
X335128D01*
X338000Y333500D01*
Y345500D01*
X228500Y349100D02*
X230300Y350900D01*
X228500Y334000D02*
Y349100D01*
X225468Y330968D02*
X228500Y334000D01*
X218032Y330968D02*
X225468D01*
X213000Y336000D02*
X218032Y330968D01*
X306000Y135000D02*
X311500Y140500D01*
Y170500D01*
X557100Y21650D02*
X563250Y15500D01*
X568000D01*
X569200Y16700D01*
Y23500D01*
X565200Y27500D02*
X569200Y23500D01*
X565200Y27500D02*
Y77516D01*
X571700Y84016D01*
Y64016D02*
X576200Y59516D01*
Y19700D02*
Y59516D01*
X570000Y13500D02*
X576200Y19700D01*
X558900Y13500D02*
X570000D01*
X552200Y20200D02*
Y235100D01*
X554000Y236900D01*
X537000Y253900D02*
X554000Y236900D01*
X537000Y253900D02*
Y378200D01*
X529200Y386000D02*
X537000Y378200D01*
X343000Y396000D02*
Y408200D01*
X193800Y164800D02*
X198700Y169700D01*
X203500D01*
X204800Y171000D01*
Y189748D01*
X200300Y194248D02*
X204800Y189748D01*
X251500Y220900D02*
X265900Y235300D01*
Y307929D01*
X257500Y316329D02*
X265900Y307929D01*
X257500Y316329D02*
Y366000D01*
X263000Y371500D01*
Y396000D01*
X326500Y319000D02*
X333500Y326000D01*
X326500Y274000D02*
Y319000D01*
X319100Y266600D02*
X326500Y274000D01*
X319100Y260000D02*
Y266600D01*
Y260000D02*
X320400Y258700D01*
X329100D01*
X331200Y260800D02*
X331500Y260500D01*
X347900Y157500D02*
X349900Y159500D01*
X347900Y60700D02*
Y157500D01*
X298100Y10900D02*
X347900Y60700D01*
X254300Y10900D02*
X298100D01*
X245800Y19400D02*
X254300Y10900D01*
X309400Y95100D02*
X345900Y131600D01*
Y204900D01*
X344700Y206100D02*
X345900Y204900D01*
X338000Y206100D02*
X344700D01*
X336500Y207600D02*
X338000Y206100D01*
X336500Y207600D02*
Y235500D01*
X331500Y240500D02*
X336500Y235500D01*
X389000Y226000D02*
X391500Y228500D01*
Y249500D01*
X393500Y251500D01*
Y262500D01*
X395000Y264000D01*
Y320000D01*
X388500Y326500D02*
X395000Y320000D01*
X350300Y227800D02*
X353239Y230739D01*
Y262461D01*
X350300Y265400D02*
X353239Y262461D01*
X350300Y265400D02*
Y319300D01*
X323000Y336000D02*
Y367900D01*
X308500Y382400D02*
X323000Y367900D01*
X308500Y382400D02*
Y399000D01*
X315500Y406000D01*
Y415100D01*
X322000Y421600D01*
X331300D01*
X334900Y418000D01*
X552200Y301000D02*
Y387900D01*
X419000Y226000D02*
X427950Y217050D01*
Y123950D02*
Y217050D01*
Y123950D02*
X436400Y115500D01*
X445700Y110300D02*
X445833Y110433D01*
Y139367D01*
X432500Y152700D02*
X445833Y139367D01*
X432500Y152700D02*
Y219000D01*
X429000Y222500D02*
X432500Y219000D01*
X429000Y222500D02*
Y226000D01*
X323700Y188300D02*
X331500Y180500D01*
X323700Y188300D02*
Y194000D01*
X261400Y202800D02*
X262900Y204300D01*
X261400Y188900D02*
Y202800D01*
X241500Y188500D02*
X243100Y190100D01*
X241500Y180500D02*
Y188500D01*
X315900Y194900D02*
X331500Y210500D01*
X315900Y174900D02*
Y194900D01*
X311500Y170500D02*
X315900Y174900D01*
X389000Y61400D02*
Y75000D01*
Y61400D02*
X399884Y50516D01*
X406000D01*
X407400Y51916D01*
Y58700D01*
X406100Y60000D02*
X407400Y58700D01*
X401000Y60000D02*
X406100D01*
X398400Y62600D02*
X401000Y60000D01*
X398400Y62600D02*
Y78000D01*
X400400Y80000D01*
X404800D01*
X411600Y73200D01*
Y10000D02*
Y73200D01*
X406600Y5000D02*
X411600Y10000D01*
X125000Y5000D02*
X406600D01*
X90000Y40000D02*
X125000Y5000D01*
X190000Y310300D02*
Y339000D01*
X189500Y309800D02*
X190000Y310300D01*
X189500Y289500D02*
Y309800D01*
Y289500D02*
X192500Y286500D01*
Y259378D02*
Y286500D01*
X190400Y257278D02*
X192500Y259378D01*
X190400Y245278D02*
Y257278D01*
Y245278D02*
X192500Y243178D01*
Y236700D02*
Y243178D01*
X184800Y229000D02*
X192500Y236700D01*
X184800Y198233D02*
Y229000D01*
X150815Y164248D02*
X184800Y198233D01*
X140300Y164248D02*
X150815D01*
X447900Y101000D02*
X451700Y104800D01*
Y159900D01*
X439000Y172600D02*
X451700Y159900D01*
X439000Y172600D02*
Y226000D01*
X455800Y20900D02*
X467400Y32500D01*
Y58000D01*
X465000Y60400D02*
X467400Y58000D01*
X458400Y60400D02*
X465000D01*
X440000Y78800D02*
X458400Y60400D01*
X440000Y78800D02*
Y86000D01*
X444500Y90500D01*
X355900Y149200D02*
X357900Y151200D01*
X355900Y100900D02*
Y149200D01*
X220900Y94800D02*
Y117500D01*
X203500Y99200D02*
X207900Y94800D01*
X187100Y99200D02*
X203500D01*
X185800Y100500D02*
X187100Y99200D01*
X185800Y100500D02*
Y184000D01*
X188600Y186800D01*
X171500Y195700D02*
Y214200D01*
X148000Y294000D02*
Y298800D01*
X121500Y325300D02*
X148000Y298800D01*
X121500Y325300D02*
Y333300D01*
X127500Y339300D02*
Y364850D01*
X140300Y64248D02*
X153200Y51348D01*
Y46000D02*
Y51348D01*
X146900Y39700D02*
X153200Y46000D01*
X135800Y39700D02*
X146900D01*
X95300Y80200D02*
X135800Y39700D01*
X300800Y338200D02*
X303000Y336000D01*
X300800Y338200D02*
Y387800D01*
X298500Y390100D02*
X300800Y387800D01*
X298500Y390100D02*
Y406500D01*
X525200Y395600D02*
X528100Y398500D01*
X525200Y281000D02*
Y395600D01*
X429000Y226000D02*
Y241000D01*
X374500Y254000D02*
X379400Y249100D01*
X374500Y254000D02*
Y324300D01*
X377500Y327300D01*
X312500Y352500D02*
X313000Y352000D01*
Y336000D02*
Y352000D01*
X504500Y290500D02*
X515000Y301000D01*
X504500Y253000D02*
Y290500D01*
X502500Y251000D02*
X504500Y253000D01*
X502500Y229506D02*
Y251000D01*
Y229506D02*
X520200Y211806D01*
Y122516D02*
Y211806D01*
X511700Y114016D02*
X520200Y122516D01*
X516200Y172516D02*
Y198500D01*
X518200Y130516D02*
Y170516D01*
X502416Y298416D02*
X515000Y311000D01*
X502416Y257416D02*
Y298416D01*
X500500Y255500D02*
X502416Y257416D01*
X500500Y225592D02*
Y255500D01*
Y225592D02*
X518200Y207892D01*
X511700Y124016D02*
X518200Y130516D01*
X418500Y139200D02*
X423000Y134700D01*
X418500Y139200D02*
Y219500D01*
X510000Y317871D02*
X515000Y321000D01*
X498416Y306287D02*
X510000Y317871D01*
X498416Y259516D02*
Y306287D01*
X496500Y257600D02*
X498416Y259516D01*
X496500Y165685D02*
Y257600D01*
Y165685D02*
X498500Y163685D01*
Y144645D02*
Y163685D01*
Y144645D02*
X506000Y137145D01*
X508571D01*
X511700Y134016D01*
X515000Y331000D02*
X519500Y326500D01*
Y318000D02*
Y326500D01*
X517000Y315500D02*
X519500Y318000D01*
X512000Y315500D02*
X517000D01*
X500416Y303916D02*
X512000Y315500D01*
X500416Y258452D02*
Y303916D01*
X498500Y256536D02*
X500416Y258452D01*
X498500Y222000D02*
Y256536D01*
Y222000D02*
X504500Y216000D01*
Y174016D02*
Y216000D01*
Y174016D02*
X510000Y168516D01*
X514000D01*
X516200Y166316D01*
Y148516D02*
Y166316D01*
X511700Y144016D02*
X516200Y148516D01*
X489184Y154016D02*
Y160011D01*
X484400Y164795D02*
X489184Y160011D01*
X484400Y164795D02*
Y169200D01*
X487900Y172700D01*
Y242068D01*
X484200Y245768D02*
X487900Y242068D01*
X484200Y245768D02*
Y299271D01*
X484929Y300000D01*
Y339429D01*
X501000Y355500D01*
X518000D01*
X519500Y354000D01*
Y345500D02*
Y354000D01*
X515000Y341000D02*
X519500Y345500D01*
X563200Y21500D02*
X565200Y19500D01*
X563200Y21500D02*
Y53800D01*
X559100Y57900D02*
X563200Y53800D01*
X559100Y57900D02*
Y164000D01*
X561200Y166100D01*
X565100D01*
X567200Y164000D01*
Y158516D02*
Y164000D01*
Y158516D02*
X571700Y154016D01*
X578200Y160516D01*
Y188316D01*
X566500Y200016D02*
X578200Y188316D01*
X566500Y200016D02*
Y299000D01*
X564500Y301000D02*
X566500Y299000D01*
X564500Y301000D02*
Y323433D01*
X570500Y329433D01*
Y336500D01*
X575000Y341000D01*
X545100Y290400D02*
X547400Y288100D01*
X545100Y290400D02*
Y406500D01*
X528600Y413200D02*
X538400D01*
X511500Y361000D02*
X515000D01*
X560500Y177800D02*
X564000Y174300D01*
X560500Y177800D02*
Y275000D01*
X538400Y413200D02*
X545100Y406500D01*
X510500Y395100D02*
X528600Y413200D01*
X510500Y362000D02*
Y395100D01*
Y362000D02*
X511500Y361000D01*
X562500Y327800D02*
X568500Y333800D01*
Y344500D01*
X575000Y351000D01*
X571700Y164016D02*
X576200Y168516D01*
Y186316D01*
X564500Y198016D02*
X576200Y186316D01*
X564500Y198016D02*
Y294500D01*
X563500D02*
X564500D01*
X562500Y295500D02*
X563500Y294500D01*
X562500Y295500D02*
Y327800D01*
X383000Y396000D02*
Y408500D01*
X511700Y184016D02*
Y202665D01*
X323600Y240500D02*
X331500D01*
X307100Y257000D02*
X323600Y240500D01*
X307100Y257000D02*
Y309800D01*
X328500Y331200D01*
Y403200D01*
X339300Y414000D01*
X353300D01*
X363000Y404300D01*
Y396000D02*
Y404300D01*
X140300Y24248D02*
X185752Y69700D01*
X209000D01*
X213964Y74664D01*
Y158488D01*
X218577Y163100D01*
X261500Y170500D02*
X265900Y174900D01*
Y198342D01*
X200300Y214248D02*
X200800Y223003D01*
Y253278D01*
X196800Y257278D02*
X200800Y253278D01*
X196800Y257278D02*
Y292700D01*
X193500Y296000D02*
X196800Y292700D01*
X193500Y296000D02*
Y304000D01*
X205500Y316000D01*
Y354400D01*
X240300Y389200D01*
X243700D01*
X248500Y394000D01*
Y398000D01*
X253000Y402500D01*
X266500D01*
X273000Y396000D01*
X251500Y180500D02*
Y213100D01*
X194300Y402100D02*
Y426000D01*
X201700Y433400D01*
X395000D01*
X447000Y381400D01*
Y339100D02*
Y381400D01*
Y339100D02*
X452400Y333700D01*
X494400Y328700D02*
X495100Y329400D01*
X494400Y267200D02*
Y328700D01*
X492200Y265000D02*
X494400Y267200D01*
Y91316D02*
X511700Y74016D01*
X494400Y91316D02*
Y157785D01*
X492500Y159685D02*
X494400Y157785D01*
X492500Y159685D02*
Y264700D01*
X453500Y355061D02*
Y373700D01*
Y355061D02*
X482929Y325631D01*
Y302676D02*
Y325631D01*
X482200Y301947D02*
X482929Y302676D01*
X482200Y244568D02*
Y301947D01*
Y244568D02*
X485900Y240868D01*
Y174700D02*
Y240868D01*
X482400Y171200D02*
X485900Y174700D01*
X482400Y161400D02*
Y171200D01*
Y161400D02*
X484395Y159405D01*
Y149705D02*
Y159405D01*
Y149705D02*
X487900Y146200D01*
Y69600D02*
Y146200D01*
Y69600D02*
X498000Y59500D01*
X519400D01*
X542200Y82300D01*
Y208200D01*
X200300Y164248D02*
X203009Y166958D01*
X206800Y168000D01*
Y275458D01*
X205100Y277158D02*
X206800Y275458D01*
X205100Y277158D02*
Y288400D01*
X195500Y298000D02*
X205100Y288400D01*
X195500Y298000D02*
Y302000D01*
X208500Y315000D01*
Y348269D01*
X216531Y356300D01*
X546200Y236200D02*
X550200Y232200D01*
Y12848D02*
Y232200D01*
Y12848D02*
X554795Y8252D01*
X569163D01*
X578200Y17289D01*
Y67516D01*
X571700Y74016D02*
X578200Y67516D01*
X232300Y54700D02*
Y150900D01*
Y54700D02*
X272100Y14900D01*
X287200D01*
X558000Y171700D02*
Y269000D01*
X556000Y271000D02*
X558000Y269000D01*
X539000Y288000D02*
X556000Y271000D01*
X539000Y288000D02*
Y392000D01*
X317500Y410600D02*
X323400Y416500D01*
X317500Y400500D02*
Y410600D01*
X313000Y396000D02*
X317500Y400500D01*
X137900Y169300D02*
X146800D01*
X135800Y171400D02*
X137900Y169300D01*
X135800Y171400D02*
Y219400D01*
X141000Y224600D01*
Y266500D01*
X152500Y278000D01*
Y320300D01*
X143500Y329300D02*
X152500Y320300D01*
X125500Y329300D02*
X143500D01*
X273300Y380600D02*
X283000D01*
X277900Y390900D02*
X283000Y396000D01*
X270000Y390900D02*
X277900D01*
X267500Y393400D02*
X270000Y390900D01*
X267500Y393400D02*
Y398000D01*
X265000Y400500D02*
X267500Y398000D01*
X261000Y400500D02*
X265000D01*
X258500Y398000D02*
X261000Y400500D01*
X258500Y390000D02*
Y398000D01*
X237500Y369000D02*
X258500Y390000D01*
X237500Y328151D02*
Y369000D01*
X215100Y305751D02*
X237500Y328151D01*
X215100Y230000D02*
Y305751D01*
Y230000D02*
X219900Y225200D01*
X224000D01*
X227100Y222100D01*
Y194900D02*
Y222100D01*
Y194900D02*
X231500Y190500D01*
X575000Y281000D02*
X584200Y271800D01*
Y139700D02*
Y271800D01*
X573016Y128516D02*
X584200Y139700D01*
X569716Y128516D02*
X573016D01*
X567200Y126000D02*
X569716Y128516D01*
X567200Y98516D02*
Y126000D01*
Y98516D02*
X571700Y94016D01*
X123500Y269500D02*
X128000Y274000D01*
Y294000D01*
X182000Y262000D02*
X188000Y256000D01*
Y239000D02*
Y256000D01*
X180000Y341000D02*
X190000Y351000D01*
X180000Y300000D02*
Y341000D01*
X185100Y355900D02*
X190000Y351000D01*
X143150Y355900D02*
X185100D01*
X142200Y354950D02*
X143150Y355900D01*
X131000Y104000D02*
X133100D01*
X140300Y111200D01*
Y114248D01*
X70000Y40000D02*
X78000Y48000D01*
Y61000D01*
X390404Y172520D02*
X402900Y185016D01*
X390404Y104010D02*
Y172520D01*
Y104010D02*
X394400Y100014D01*
Y63516D02*
Y100014D01*
Y63516D02*
X402900Y55016D01*
X255200Y230300D02*
Y235760D01*
X247000Y243960D02*
X255200Y235760D01*
X247000Y243960D02*
Y331600D01*
X248000Y332600D01*
Y368700D01*
X272000Y337000D02*
X273000Y336000D01*
X272000Y337000D02*
Y346500D01*
X274000Y348500D01*
X282000D01*
X288500Y342000D01*
Y325500D02*
Y342000D01*
Y325500D02*
X297500Y316500D01*
Y305600D02*
Y316500D01*
X287100Y295200D02*
X297500Y305600D01*
X287100Y274600D02*
Y295200D01*
X284500Y272000D02*
X287100Y274600D01*
X284500Y192200D02*
Y272000D01*
X282500Y190200D02*
X284500Y192200D01*
X278000Y190200D02*
X282500D01*
X275100Y193100D02*
X278000Y190200D01*
X275100Y193100D02*
Y216100D01*
X114000Y162000D02*
Y221709D01*
X138000Y245709D01*
Y304750D01*
X119500Y323250D02*
X138000Y304750D01*
X119500Y323250D02*
Y341300D01*
X124800Y346600D01*
Y390600D01*
X128550Y394350D01*
X135500D01*
X341500Y210500D02*
X355800Y224800D01*
Y240500D01*
X358300Y243000D01*
Y365700D01*
X367500Y374900D01*
Y413700D01*
X355700Y425500D02*
X367500Y413700D01*
X252500Y425500D02*
X355700D01*
X223000Y396000D02*
X252500Y425500D01*
X185300Y389300D02*
X190000Y394000D01*
X128800Y389300D02*
X185300D01*
X127500Y388000D02*
X128800Y389300D01*
X121500Y333300D02*
X127500Y339300D01*
X32000Y223000D02*
X34600Y225600D01*
Y243600D01*
X144150Y345150D02*
X150000Y351000D01*
X135500Y345150D02*
X144150D01*
X571700Y104016D02*
X576200Y99516D01*
Y91700D02*
Y99516D01*
X574000Y89500D02*
X576200Y91700D01*
X567933Y89500D02*
X574000D01*
X563100Y94333D02*
X567933Y89500D01*
X563100Y94333D02*
Y162100D01*
X571700Y124016D02*
X586200Y138516D01*
Y278147D01*
X587600Y279547D01*
Y298400D01*
X575000Y311000D02*
X587600Y298400D01*
X586200Y25500D02*
X588200Y27500D01*
Y274747D01*
X589600Y276147D01*
Y350142D01*
X578742Y361000D02*
X589600Y350142D01*
X575000Y361000D02*
X578742D01*
X383000Y153800D02*
X383500Y154300D01*
Y229500D01*
X387500Y233500D01*
Y245500D01*
X575000Y291000D02*
X583600Y282400D01*
X176500Y214500D02*
Y259400D01*
X174300Y261600D02*
X176500Y259400D01*
X174300Y261600D02*
Y293500D01*
X341500Y299200D02*
Y328600D01*
Y299200D02*
X345900Y294800D01*
Y274900D02*
Y294800D01*
X341500Y270500D02*
X345900Y274900D01*
X140300Y144248D02*
X192800Y196748D01*
Y231005D01*
X194500Y232705D01*
Y247300D01*
X192400Y249400D02*
X194500Y247300D01*
X192400Y249400D02*
Y255278D01*
X194500Y257378D01*
Y290500D01*
X191500Y293500D02*
X194500Y290500D01*
X191500Y293500D02*
Y308946D01*
X194500Y311946D01*
Y370500D01*
X190000Y375000D02*
X194500Y370500D01*
X216900Y128400D02*
X218100Y129600D01*
X216900Y52700D02*
Y128400D01*
X213400Y49200D02*
X216900Y52700D01*
X182700Y49200D02*
X213400D01*
X153200Y19700D02*
X182700Y49200D01*
X135800Y19700D02*
X153200D01*
X91200Y64300D02*
X135800Y19700D01*
X91200Y64300D02*
Y187500D01*
X82400Y196300D02*
X91200Y187500D01*
X176100Y208200D02*
X180500Y212600D01*
Y243500D01*
X337100Y186100D02*
X341500Y190500D01*
X337100Y148209D02*
Y186100D01*
X313891Y125000D02*
X337100Y148209D01*
X306000Y125000D02*
X313891D01*
X331500Y226858D02*
Y230500D01*
X287100Y182458D02*
X331500Y226858D01*
X287100Y145100D02*
Y182458D01*
X281500Y139500D02*
X287100Y145100D01*
X281500Y129500D02*
Y139500D01*
Y129500D02*
X286000Y125000D01*
X402900Y95016D02*
X448516D01*
X454900Y101400D01*
Y159600D01*
X444500Y170000D02*
X454900Y159600D01*
X444500Y170000D02*
Y251500D01*
X449000Y256000D01*
X167000Y198400D02*
Y257000D01*
X148800Y180200D02*
X167000Y198400D01*
X251500Y263900D02*
X260500Y254900D01*
X251500Y263900D02*
Y280500D01*
X419000Y256000D02*
X424500Y250500D01*
Y224000D02*
Y250500D01*
Y224000D02*
X430450Y218050D01*
Y150244D02*
Y218050D01*
Y150244D02*
X443833Y136861D01*
Y116442D02*
Y136861D01*
X438791Y111400D02*
X443833Y116442D01*
X416516Y111400D02*
X438791D01*
X402900Y125016D02*
X416516Y111400D01*
X261500Y267622D02*
Y280500D01*
X394500Y143416D02*
X402900Y135016D01*
X394500Y143416D02*
Y163500D01*
X357800Y165500D02*
X359800Y163500D01*
X357800Y165500D02*
Y239100D01*
X361000Y242300D01*
Y267600D01*
X362300Y268900D01*
X271500Y290500D02*
Y295400D01*
X271400Y315600D02*
X271500Y295400D01*
X267500Y319500D02*
X271400Y315600D01*
X267500Y319500D02*
Y349400D01*
X268719Y350619D01*
X351600Y327300D02*
X354300Y324600D01*
Y269400D02*
Y324600D01*
X296700Y147500D02*
Y185100D01*
X288000Y189800D02*
X301500Y203300D01*
Y280500D01*
X275900Y157600D02*
Y187300D01*
X271100Y192100D02*
X275900Y187300D01*
X271100Y192100D02*
Y230500D01*
X271500Y230900D01*
Y280500D01*
X253500Y316500D02*
X257500Y312500D01*
Y296500D02*
Y312500D01*
X251500Y290500D02*
X257500Y296500D01*
X480400Y116916D02*
X482300Y115016D01*
X480400Y116916D02*
Y175600D01*
X483900Y179100D01*
Y238100D01*
X480200Y241800D02*
X483900Y238100D01*
X480200Y241800D02*
Y303947D01*
X480929Y304676D01*
Y323631D01*
X479561Y325000D02*
X480929Y323631D01*
X450929Y325000D02*
X479561D01*
X440429Y314500D02*
X450929Y325000D01*
X450429Y314500D02*
X458929Y323000D01*
X476865D01*
X477900Y321965D01*
Y238343D02*
Y321965D01*
X475900Y236343D02*
X477900Y238343D01*
X475900Y219500D02*
Y236343D01*
Y219500D02*
X476500Y218900D01*
Y178800D02*
Y218900D01*
X476400Y178700D02*
X476500Y178800D01*
X476400Y148516D02*
Y178700D01*
X462900Y135016D02*
X476400Y148516D01*
X227100Y298900D02*
X227500Y299300D01*
X227100Y284900D02*
Y298900D01*
Y284900D02*
X231500Y280500D01*
X460429Y314500D02*
X465900Y309029D01*
X464500Y262700D02*
X465900Y309029D01*
X464500Y222700D02*
Y262700D01*
X454800Y213000D02*
X464500Y222700D01*
X454800Y177100D02*
Y213000D01*
X323100Y262900D02*
X325800Y265600D01*
X334700D01*
X337100Y268000D01*
Y288100D01*
X341900Y292900D01*
X385500Y309571D02*
X390429Y314500D01*
X385500Y259500D02*
Y309571D01*
Y259500D02*
X389000Y256000D01*
X321500Y177400D02*
Y180500D01*
X317100Y173000D02*
X321500Y177400D01*
X317100Y133900D02*
Y173000D01*
X367400Y134300D02*
X367800Y133900D01*
X367400Y134300D02*
Y240000D01*
X369100Y241700D01*
X365000Y250100D02*
Y263100D01*
X326500Y175500D02*
X331500Y180500D01*
X326500Y160100D02*
Y175500D01*
X311500Y280500D02*
X311849Y255151D01*
X336849D01*
X341500Y250500D01*
X242900Y317500D02*
Y321500D01*
X231500Y306100D02*
X242900Y317500D01*
X231500Y290500D02*
Y306100D01*
X454500Y230500D02*
X459000Y226000D01*
X454500Y230500D02*
Y268500D01*
X451000Y272000D02*
X454500Y268500D01*
X562500Y193216D02*
X571700Y184016D01*
X562500Y193216D02*
Y286200D01*
X558500Y290200D02*
X562500Y286200D01*
X558500Y290200D02*
Y364500D01*
X575000Y381000D01*
X104000Y111000D02*
X111000Y104000D01*
X104000Y111000D02*
Y122000D01*
X73500Y100500D02*
X78000Y105000D01*
X73500Y75500D02*
Y100500D01*
Y75500D02*
X78000Y71000D01*
X90000Y40000D02*
Y59000D01*
X78000Y71000D02*
X90000Y59000D01*
X402900Y75016D02*
X409400Y68516D01*
Y49916D02*
Y68516D01*
X408000Y48516D02*
X409400Y49916D01*
X387984Y48516D02*
X408000D01*
X349900Y86600D02*
X387984Y48516D01*
X349900Y86600D02*
Y151471D01*
X353900Y155471D01*
Y191500D01*
X349900Y195500D02*
X353900Y191500D01*
X459158Y55016D02*
X462900D01*
X423674Y90500D02*
X459158Y55016D01*
X399900Y90500D02*
X423674D01*
X396400Y94000D02*
X399900Y90500D01*
X396400Y94000D02*
Y111500D01*
X374700Y122100D02*
X375400Y122800D01*
Y220600D01*
X374500Y221500D02*
X375400Y220600D01*
X374500Y221500D02*
Y232500D01*
X378500Y236500D01*
X325100Y245500D02*
X345900D01*
X231500Y250500D02*
X239800Y242200D01*
X247100Y67200D02*
Y224900D01*
X231500Y240500D02*
X247100Y224900D01*
X453384Y75016D02*
X462900D01*
X444100Y84300D02*
X453384Y75016D01*
X138000Y138800D02*
X154000D01*
X135800Y141000D02*
X138000Y138800D01*
X135800Y141000D02*
Y147500D01*
X138000Y149700D01*
X142500D01*
X188800Y196000D01*
Y223000D01*
X237100Y85900D02*
X237500Y85500D01*
X237100Y85900D02*
Y192100D01*
X244200Y199200D01*
Y224400D01*
X238100Y230500D02*
X244200Y224400D01*
X231500Y230500D02*
X238100D01*
X458400Y100516D02*
X462900Y105016D01*
X458400Y92000D02*
Y100516D01*
Y92000D02*
X459900Y90500D01*
X467600D01*
X469400Y88700D01*
Y20300D02*
Y88700D01*
X459500Y10400D02*
X469400Y20300D01*
X97300Y93700D02*
X111800Y79200D01*
X97300Y93700D02*
Y197400D01*
X102500Y202600D01*
X196800Y227000D02*
Y251300D01*
X288500Y196800D02*
X296500Y204800D01*
Y285500D01*
X291500Y290500D02*
X296500Y285500D01*
X243000Y327751D02*
Y336000D01*
X217100Y301851D02*
X243000Y327751D01*
X217100Y258000D02*
Y301851D01*
Y258000D02*
X219000Y256100D01*
X224200D01*
X227100Y253200D01*
Y228000D02*
Y253200D01*
Y228000D02*
X229000Y226100D01*
X236200D01*
X240200Y222100D01*
X223000Y336000D02*
Y364200D01*
X94500Y90048D02*
Y332100D01*
Y90048D02*
X140300Y44248D01*
X516200Y172516D02*
X518200Y170516D01*
Y130516D02*
Y170516D01*
Y198500D01*
Y207892D01*
X548700Y286800D02*
X560500Y275000D01*
X547400Y288100D02*
X548700Y286800D01*
X545100Y290400D02*
X547400Y288100D01*
Y285500D02*
Y288100D01*
X329100Y258700D02*
X331200Y260800D01*
X251500Y180500D02*
Y213100D01*
Y220900D01*
X511700Y64016D02*
X528200Y80516D01*
X529900Y82216D01*
X528200Y80516D02*
Y238000D01*
X554000Y17000D02*
Y18400D01*
Y236900D01*
X557000Y15400D02*
X558900Y13500D01*
X554000Y18400D02*
X557000Y15400D01*
X552200Y20200D02*
X554000Y18400D01*
X557100Y21650D02*
Y24000D01*
Y24900D01*
Y170796D01*
Y170800D01*
Y24900D02*
X558000Y24000D01*
Y171696D02*
Y171700D01*
Y269000D01*
X557100Y170800D02*
X558000Y171700D01*
X557100Y170796D02*
X558000Y171696D01*
X106000Y99200D02*
X126200D01*
X115400Y88400D02*
X126200Y99200D01*
X131000Y104000D01*
X135500Y354950D02*
X135800D01*
X142200D01*
X135800D02*
X139050Y358200D01*
X127500Y339300D02*
Y364850D01*
Y388000D01*
Y364850D02*
X135500D01*
X291500Y95500D02*
X322000Y65000D01*
X280500Y106500D02*
X291500Y95500D01*
Y170500D01*
D14*
X266000Y125000D02*
D03*
X140300Y214248D02*
D03*
X511700Y184016D02*
D03*
X133500Y249500D02*
D03*
X402900Y185016D02*
D03*
X322000Y95000D02*
D03*
X515000Y391000D02*
D03*
D15*
X266000Y135000D02*
D03*
X276000Y125000D02*
D03*
Y135000D02*
D03*
X286000Y125000D02*
D03*
Y135000D02*
D03*
X296000Y125000D02*
D03*
Y135000D02*
D03*
X306000Y125000D02*
D03*
Y135000D02*
D03*
X200300Y24248D02*
D03*
Y34248D02*
D03*
Y44248D02*
D03*
Y54248D02*
D03*
Y64248D02*
D03*
Y74248D02*
D03*
Y84248D02*
D03*
Y94248D02*
D03*
Y104248D02*
D03*
Y114248D02*
D03*
Y124248D02*
D03*
Y134248D02*
D03*
Y144248D02*
D03*
Y154248D02*
D03*
Y164248D02*
D03*
Y174248D02*
D03*
Y184248D02*
D03*
Y194248D02*
D03*
Y204248D02*
D03*
Y214248D02*
D03*
X140300Y24248D02*
D03*
Y34248D02*
D03*
Y44248D02*
D03*
Y54248D02*
D03*
Y64248D02*
D03*
Y74248D02*
D03*
Y84248D02*
D03*
Y94248D02*
D03*
Y104248D02*
D03*
Y114248D02*
D03*
Y124248D02*
D03*
Y134248D02*
D03*
Y144248D02*
D03*
Y154248D02*
D03*
Y164248D02*
D03*
Y174248D02*
D03*
Y184248D02*
D03*
Y194248D02*
D03*
Y204248D02*
D03*
X511700Y174016D02*
D03*
Y164016D02*
D03*
Y154016D02*
D03*
Y144016D02*
D03*
Y134016D02*
D03*
Y124016D02*
D03*
Y114016D02*
D03*
Y104016D02*
D03*
Y94016D02*
D03*
Y84016D02*
D03*
Y74016D02*
D03*
Y64016D02*
D03*
Y54016D02*
D03*
X571700Y184016D02*
D03*
Y174016D02*
D03*
Y164016D02*
D03*
Y154016D02*
D03*
Y144016D02*
D03*
Y134016D02*
D03*
Y124016D02*
D03*
Y114016D02*
D03*
Y104016D02*
D03*
Y94016D02*
D03*
Y84016D02*
D03*
Y74016D02*
D03*
Y64016D02*
D03*
Y54016D02*
D03*
X498000Y55000D02*
D03*
Y75000D02*
D03*
X180000Y300000D02*
D03*
X200000D02*
D03*
X53000Y132500D02*
D03*
X63000D02*
D03*
X62000Y155500D02*
D03*
Y145500D02*
D03*
X44000Y223000D02*
D03*
Y213000D02*
D03*
X56000D02*
D03*
Y223000D02*
D03*
X44400Y190200D02*
D03*
Y163800D02*
D03*
X34600Y190200D02*
D03*
Y163800D02*
D03*
Y182100D02*
D03*
X44400Y243600D02*
D03*
X44500Y253500D02*
D03*
X44400Y270400D02*
D03*
X34600Y243600D02*
D03*
X44500Y262000D02*
D03*
X34600Y270400D02*
D03*
Y251900D02*
D03*
X78000Y95000D02*
D03*
Y105000D02*
D03*
Y115000D02*
D03*
X58000D02*
D03*
Y95000D02*
D03*
X35000Y292000D02*
D03*
X45000D02*
D03*
X32000Y223000D02*
D03*
Y213000D02*
D03*
X99000Y280000D02*
D03*
X59000D02*
D03*
X99000Y292000D02*
D03*
X59000D02*
D03*
X99000Y258000D02*
D03*
X59000D02*
D03*
X99000Y269000D02*
D03*
X59000D02*
D03*
X99000Y246000D02*
D03*
X59000D02*
D03*
X99000Y234000D02*
D03*
X59000D02*
D03*
X190000Y394000D02*
D03*
X150000D02*
D03*
X190000Y339000D02*
D03*
X150000D02*
D03*
Y351000D02*
D03*
X190000D02*
D03*
X150000Y363000D02*
D03*
X190000D02*
D03*
Y375000D02*
D03*
X150000D02*
D03*
X188000Y239000D02*
D03*
X148000D02*
D03*
X188000Y280000D02*
D03*
X148000D02*
D03*
X182000Y262000D02*
D03*
X172000Y252000D02*
D03*
X162000Y262000D02*
D03*
X148000Y264000D02*
D03*
Y254000D02*
D03*
X128000Y294000D02*
D03*
X148000D02*
D03*
X123500Y249500D02*
D03*
X104000Y122000D02*
D03*
X114000Y132000D02*
D03*
X104000D02*
D03*
X114000Y142000D02*
D03*
X104000D02*
D03*
X114000Y152000D02*
D03*
X104000D02*
D03*
X114000Y162000D02*
D03*
X104000D02*
D03*
X127000Y135000D02*
D03*
Y125000D02*
D03*
X131000Y104000D02*
D03*
X111000D02*
D03*
X537000Y408000D02*
D03*
X557000D02*
D03*
X40500Y318250D02*
D03*
Y413250D02*
D03*
X213000Y336000D02*
D03*
X223000D02*
D03*
X233000D02*
D03*
X243000D02*
D03*
X253000D02*
D03*
X263000D02*
D03*
X273000D02*
D03*
X283000D02*
D03*
X293000D02*
D03*
X303000D02*
D03*
X313000D02*
D03*
X323000D02*
D03*
X333000D02*
D03*
X343000D02*
D03*
X353000D02*
D03*
X363000D02*
D03*
X373000D02*
D03*
X383000D02*
D03*
X393000D02*
D03*
X403000D02*
D03*
X213000Y396000D02*
D03*
X223000D02*
D03*
X233000D02*
D03*
X243000D02*
D03*
X253000D02*
D03*
X263000D02*
D03*
X273000D02*
D03*
X283000D02*
D03*
X293000D02*
D03*
X303000D02*
D03*
X313000D02*
D03*
X323000D02*
D03*
X333000D02*
D03*
X343000D02*
D03*
X353000D02*
D03*
X363000D02*
D03*
X373000D02*
D03*
X383000D02*
D03*
X393000D02*
D03*
X311000Y408000D02*
D03*
X351000D02*
D03*
X293000Y310000D02*
D03*
X253000D02*
D03*
X262000Y324000D02*
D03*
X272000D02*
D03*
X295000Y326000D02*
D03*
X315000D02*
D03*
X470429Y314500D02*
D03*
X460429D02*
D03*
X450429D02*
D03*
X440429D02*
D03*
X430429D02*
D03*
X420429D02*
D03*
X410429D02*
D03*
X400429D02*
D03*
X390429D02*
D03*
X380429D02*
D03*
X470429Y284500D02*
D03*
X460429D02*
D03*
X450429D02*
D03*
X440429D02*
D03*
X430429D02*
D03*
X420429D02*
D03*
X410429D02*
D03*
X400429D02*
D03*
X390429D02*
D03*
X469000Y256000D02*
D03*
X459000D02*
D03*
X449000D02*
D03*
X439000D02*
D03*
X429000D02*
D03*
X419000D02*
D03*
X409000D02*
D03*
X399000D02*
D03*
X389000D02*
D03*
X379000D02*
D03*
X469000Y226000D02*
D03*
X459000D02*
D03*
X449000D02*
D03*
X439000D02*
D03*
X429000D02*
D03*
X419000D02*
D03*
X409000D02*
D03*
X399000D02*
D03*
X389000D02*
D03*
X471000Y272000D02*
D03*
X451000D02*
D03*
X402900Y175016D02*
D03*
Y165016D02*
D03*
Y155016D02*
D03*
Y145016D02*
D03*
Y135016D02*
D03*
Y125016D02*
D03*
Y115016D02*
D03*
Y105016D02*
D03*
Y95016D02*
D03*
Y85016D02*
D03*
Y75016D02*
D03*
Y65016D02*
D03*
Y55016D02*
D03*
X462900Y185016D02*
D03*
Y175016D02*
D03*
Y165016D02*
D03*
Y155016D02*
D03*
Y145016D02*
D03*
Y135016D02*
D03*
Y125016D02*
D03*
Y115016D02*
D03*
Y105016D02*
D03*
Y95016D02*
D03*
Y85016D02*
D03*
Y75016D02*
D03*
Y65016D02*
D03*
Y55016D02*
D03*
X470000Y213000D02*
D03*
X450000D02*
D03*
X262000Y95000D02*
D03*
Y65000D02*
D03*
X322000D02*
D03*
X389000Y55000D02*
D03*
Y75000D02*
D03*
X133500Y279500D02*
D03*
X123500Y269500D02*
D03*
X113500Y279500D02*
D03*
X70000Y40000D02*
D03*
X90000D02*
D03*
X78000Y61000D02*
D03*
X575000Y241000D02*
D03*
Y251000D02*
D03*
Y261000D02*
D03*
Y271000D02*
D03*
Y281000D02*
D03*
Y291000D02*
D03*
Y301000D02*
D03*
Y311000D02*
D03*
Y321000D02*
D03*
Y331000D02*
D03*
Y341000D02*
D03*
Y351000D02*
D03*
Y361000D02*
D03*
Y371000D02*
D03*
Y381000D02*
D03*
Y391000D02*
D03*
X515000Y241000D02*
D03*
Y251000D02*
D03*
Y261000D02*
D03*
Y271000D02*
D03*
Y281000D02*
D03*
Y291000D02*
D03*
Y301000D02*
D03*
Y311000D02*
D03*
Y321000D02*
D03*
Y331000D02*
D03*
Y341000D02*
D03*
Y351000D02*
D03*
Y361000D02*
D03*
Y371000D02*
D03*
Y381000D02*
D03*
D16*
X281500Y170500D02*
D03*
D17*
Y180500D02*
D03*
X291500Y170500D02*
D03*
Y180500D02*
D03*
X301500Y170500D02*
D03*
Y180500D02*
D03*
X311500Y170500D02*
D03*
Y180500D02*
D03*
X321500Y170500D02*
D03*
Y180500D02*
D03*
X331500Y170500D02*
D03*
X341500Y180500D02*
D03*
X331500D02*
D03*
X341500Y190500D02*
D03*
X331500D02*
D03*
X341500Y200500D02*
D03*
X331500D02*
D03*
X341500Y210500D02*
D03*
X331500D02*
D03*
X341500Y220500D02*
D03*
X331500D02*
D03*
X341500Y230500D02*
D03*
X331500D02*
D03*
X341500Y240500D02*
D03*
X331500D02*
D03*
X341500Y250500D02*
D03*
X331500D02*
D03*
X341500Y260500D02*
D03*
X331500D02*
D03*
X341500Y270500D02*
D03*
X331500D02*
D03*
X341500Y280500D02*
D03*
X331500Y290500D02*
D03*
Y280500D02*
D03*
X321500Y290500D02*
D03*
Y280500D02*
D03*
X311500Y290500D02*
D03*
Y280500D02*
D03*
X301500Y290500D02*
D03*
Y280500D02*
D03*
X291500Y290500D02*
D03*
Y280500D02*
D03*
X281500Y290500D02*
D03*
Y280500D02*
D03*
X271500Y290500D02*
D03*
Y280500D02*
D03*
X261500Y290500D02*
D03*
Y280500D02*
D03*
X251500Y290500D02*
D03*
Y280500D02*
D03*
X241500Y290500D02*
D03*
Y280500D02*
D03*
X231500Y290500D02*
D03*
X221500Y280500D02*
D03*
X231500D02*
D03*
X221500Y270500D02*
D03*
X231500D02*
D03*
X221500Y260500D02*
D03*
X231500D02*
D03*
X221500Y250500D02*
D03*
X231500D02*
D03*
X221500Y240500D02*
D03*
X231500D02*
D03*
X221500Y230500D02*
D03*
X231500D02*
D03*
X221500Y220500D02*
D03*
X231500D02*
D03*
X221500Y210500D02*
D03*
X231500D02*
D03*
X221500Y200500D02*
D03*
X231500D02*
D03*
X221500Y190500D02*
D03*
X231500D02*
D03*
X221500Y180500D02*
D03*
X231500Y170500D02*
D03*
Y180500D02*
D03*
X241500Y170500D02*
D03*
Y180500D02*
D03*
X251500Y170500D02*
D03*
Y180500D02*
D03*
X261500Y170500D02*
D03*
Y180500D02*
D03*
X271500Y170500D02*
D03*
Y180500D02*
D03*
D18*
X34600Y171900D02*
D03*
Y262100D02*
D03*
X114000Y122000D02*
D03*
X403000Y396000D02*
D03*
X380429Y284500D02*
D03*
X379000Y226000D02*
D03*
X78000Y71000D02*
D03*
D19*
X22800Y203600D02*
D03*
X19600Y177000D02*
D03*
X22800Y150400D02*
D03*
Y283500D02*
D03*
X19600Y257000D02*
D03*
X22800Y230500D02*
D03*
D20*
X32000Y60000D02*
D03*
X45000Y40000D02*
D03*
X57000Y59500D02*
D03*
D21*
X542200Y229100D02*
D03*
X363000Y290300D02*
D03*
X362500Y283700D02*
D03*
X279800Y194200D02*
D03*
X276000Y344500D02*
D03*
X213000D02*
D03*
X475000Y356200D02*
D03*
X556500Y286000D02*
D03*
X209300Y135000D02*
D03*
X332600Y307500D02*
D03*
X114000Y289100D02*
D03*
X206800Y103700D02*
D03*
X360047Y65016D02*
D03*
X259900Y16700D02*
D03*
X556300Y14700D02*
D03*
X554000Y236900D02*
D03*
X571700Y26700D02*
D03*
X270600D02*
D03*
X239100Y301200D02*
D03*
X301500Y310000D02*
D03*
X323000Y409200D02*
D03*
X306300Y315500D02*
D03*
X369400Y312400D02*
D03*
X371400Y213600D02*
D03*
X529900Y366500D02*
D03*
X438100Y156000D02*
D03*
X363800Y81500D02*
D03*
X361800Y234500D02*
D03*
X200800Y282600D02*
D03*
X189800Y132500D02*
D03*
X419000Y308000D02*
D03*
Y291000D02*
D03*
X436600Y276000D02*
D03*
X439600Y264100D02*
D03*
X488200Y249500D02*
D03*
X488400Y166800D02*
D03*
X117500Y374900D02*
D03*
X243000Y311500D02*
D03*
X301500Y108800D02*
D03*
X463500Y213000D02*
D03*
X249100Y232700D02*
D03*
X479900Y221500D02*
D03*
X500500Y170900D02*
D03*
Y193800D02*
D03*
X534200Y199700D02*
D03*
X533000Y312400D02*
D03*
X488200Y270500D02*
D03*
X491100Y335500D02*
D03*
X430200D02*
D03*
X201500Y319900D02*
D03*
X223600Y324500D02*
D03*
X211100Y284900D02*
D03*
X303300Y26700D02*
D03*
X338000Y345500D02*
D03*
X230300Y350900D02*
D03*
X529200Y386000D02*
D03*
X343000Y408200D02*
D03*
X193800Y164800D02*
D03*
X333500Y326000D02*
D03*
X349900Y159500D02*
D03*
X245800Y19400D02*
D03*
X309400Y95100D02*
D03*
X388500Y326500D02*
D03*
X350300Y227800D02*
D03*
Y319300D02*
D03*
X334900Y418000D02*
D03*
X552200Y387900D02*
D03*
Y301000D02*
D03*
X436400Y115500D02*
D03*
X445700Y110300D02*
D03*
X323700Y194000D02*
D03*
X262900Y204300D02*
D03*
X261400Y188900D02*
D03*
X243100Y190100D02*
D03*
X447900Y101000D02*
D03*
X455800Y20900D02*
D03*
X444500Y90500D02*
D03*
X357900Y151200D02*
D03*
X355900Y100900D02*
D03*
X220900Y117500D02*
D03*
Y94800D02*
D03*
X207900D02*
D03*
X188600Y186800D02*
D03*
X171500Y195700D02*
D03*
Y214200D02*
D03*
X95300Y80200D02*
D03*
X298500Y406500D02*
D03*
X528100Y398500D02*
D03*
X525200Y281000D02*
D03*
X429000Y241000D02*
D03*
X379400Y249100D02*
D03*
X377500Y327300D02*
D03*
X312500Y352500D02*
D03*
X516200Y198500D02*
D03*
X423000Y134700D02*
D03*
X418500Y219500D02*
D03*
X489184Y154016D02*
D03*
X565200Y19500D02*
D03*
X547400Y285500D02*
D03*
X564000Y174300D02*
D03*
X562500Y295500D02*
D03*
X383000Y408500D02*
D03*
X511700Y202665D02*
D03*
X218577Y163100D02*
D03*
X265900Y198342D02*
D03*
X251500Y213100D02*
D03*
X194300Y402100D02*
D03*
X452400Y333700D02*
D03*
X495100Y329400D02*
D03*
X492200Y265000D02*
D03*
X453500Y373700D02*
D03*
X542200Y208200D02*
D03*
X216531Y356300D02*
D03*
X546200Y236200D02*
D03*
X232300Y150900D02*
D03*
X287200Y14900D02*
D03*
X558000Y24000D02*
D03*
X556000Y271000D02*
D03*
X539000Y392000D02*
D03*
X323400Y416500D02*
D03*
X146800Y169300D02*
D03*
X125500Y329300D02*
D03*
X273300Y380600D02*
D03*
X283000D02*
D03*
X255200Y230300D02*
D03*
X248000Y368700D02*
D03*
X275100Y216100D02*
D03*
X563100Y162100D02*
D03*
X586200Y25500D02*
D03*
X383000Y153800D02*
D03*
X387500Y245500D02*
D03*
X583600Y282400D02*
D03*
X174300Y293500D02*
D03*
X341500Y328600D02*
D03*
X218100Y129600D02*
D03*
X82400Y196300D02*
D03*
X176100Y208200D02*
D03*
X180500Y243500D02*
D03*
X167000Y257000D02*
D03*
X148800Y180200D02*
D03*
X260500Y254900D02*
D03*
X261500Y267622D02*
D03*
X394500Y163500D02*
D03*
X359800D02*
D03*
X362300Y268900D02*
D03*
X268719Y350619D02*
D03*
X351600Y327300D02*
D03*
X354300Y269400D02*
D03*
X296700Y147500D02*
D03*
Y185100D02*
D03*
X288000Y189800D02*
D03*
X275900Y157600D02*
D03*
X253500Y316500D02*
D03*
X482300Y115016D02*
D03*
X227500Y299300D02*
D03*
X454800Y177100D02*
D03*
X323100Y262900D02*
D03*
X341900Y292900D02*
D03*
X317100Y133900D02*
D03*
X367800D02*
D03*
X369100Y241700D02*
D03*
X365000Y250100D02*
D03*
Y263100D02*
D03*
X326500Y160100D02*
D03*
X242900Y321500D02*
D03*
X349900Y195500D02*
D03*
X396400Y111500D02*
D03*
X374700Y122100D02*
D03*
X378500Y236500D02*
D03*
X345900Y245500D02*
D03*
X325100D02*
D03*
X239800Y242200D02*
D03*
X247100Y67200D02*
D03*
X444100Y84300D02*
D03*
X154000Y138800D02*
D03*
X188800Y223000D02*
D03*
X237500Y85500D02*
D03*
X459500Y10400D02*
D03*
X111800Y79200D02*
D03*
X102500Y202600D02*
D03*
X196800Y227000D02*
D03*
Y251300D02*
D03*
X288500Y196800D02*
D03*
X240200Y222100D02*
D03*
X223000Y364200D02*
D03*
X94500Y332100D02*
D03*
M02*
